G04 #@! TF.GenerationSoftware,KiCad,Pcbnew,5.1.6-c6e7f7d~87~ubuntu18.04.1*
G04 #@! TF.CreationDate,2020-07-17T09:21:27-04:00*
G04 #@! TF.ProjectId,CEM3320_LPF_plug_in_board,43454d33-3332-4305-9f4c-50465f706c75,1.1*
G04 #@! TF.SameCoordinates,Original*
G04 #@! TF.FileFunction,Legend,Bot*
G04 #@! TF.FilePolarity,Positive*
%FSLAX46Y46*%
G04 Gerber Fmt 4.6, Leading zero omitted, Abs format (unit mm)*
G04 Created by KiCad (PCBNEW 5.1.6-c6e7f7d~87~ubuntu18.04.1) date 2020-07-17 09:21:27*
%MOMM*%
%LPD*%
G01*
G04 APERTURE LIST*
%ADD10C,0.150000*%
%ADD11C,0.120000*%
G04 APERTURE END LIST*
D10*
X181274404Y-124531428D02*
X180512500Y-124531428D01*
X180893452Y-124912380D02*
X180893452Y-124150476D01*
X179512500Y-124912380D02*
X180083928Y-124912380D01*
X179798214Y-124912380D02*
X179798214Y-123912380D01*
X179893452Y-124055238D01*
X179988690Y-124150476D01*
X180083928Y-124198095D01*
X179131547Y-124007619D02*
X179083928Y-123960000D01*
X178988690Y-123912380D01*
X178750595Y-123912380D01*
X178655357Y-123960000D01*
X178607738Y-124007619D01*
X178560119Y-124102857D01*
X178560119Y-124198095D01*
X178607738Y-124340952D01*
X179179166Y-124912380D01*
X178560119Y-124912380D01*
X178274404Y-123912380D02*
X177941071Y-124912380D01*
X177607738Y-123912380D01*
X181274404Y-121991428D02*
X180512500Y-121991428D01*
X180893452Y-122372380D02*
X180893452Y-121610476D01*
X179512500Y-122372380D02*
X180083928Y-122372380D01*
X179798214Y-122372380D02*
X179798214Y-121372380D01*
X179893452Y-121515238D01*
X179988690Y-121610476D01*
X180083928Y-121658095D01*
X179131547Y-121467619D02*
X179083928Y-121420000D01*
X178988690Y-121372380D01*
X178750595Y-121372380D01*
X178655357Y-121420000D01*
X178607738Y-121467619D01*
X178560119Y-121562857D01*
X178560119Y-121658095D01*
X178607738Y-121800952D01*
X179179166Y-122372380D01*
X178560119Y-122372380D01*
X178274404Y-121372380D02*
X177941071Y-122372380D01*
X177607738Y-121372380D01*
X181274404Y-119451428D02*
X180512500Y-119451428D01*
X179512500Y-119832380D02*
X180083928Y-119832380D01*
X179798214Y-119832380D02*
X179798214Y-118832380D01*
X179893452Y-118975238D01*
X179988690Y-119070476D01*
X180083928Y-119118095D01*
X179131547Y-118927619D02*
X179083928Y-118880000D01*
X178988690Y-118832380D01*
X178750595Y-118832380D01*
X178655357Y-118880000D01*
X178607738Y-118927619D01*
X178560119Y-119022857D01*
X178560119Y-119118095D01*
X178607738Y-119260952D01*
X179179166Y-119832380D01*
X178560119Y-119832380D01*
X178274404Y-118832380D02*
X177941071Y-119832380D01*
X177607738Y-118832380D01*
X181274404Y-116911428D02*
X180512500Y-116911428D01*
X179512500Y-117292380D02*
X180083928Y-117292380D01*
X179798214Y-117292380D02*
X179798214Y-116292380D01*
X179893452Y-116435238D01*
X179988690Y-116530476D01*
X180083928Y-116578095D01*
X179131547Y-116387619D02*
X179083928Y-116340000D01*
X178988690Y-116292380D01*
X178750595Y-116292380D01*
X178655357Y-116340000D01*
X178607738Y-116387619D01*
X178560119Y-116482857D01*
X178560119Y-116578095D01*
X178607738Y-116720952D01*
X179179166Y-117292380D01*
X178560119Y-117292380D01*
X178274404Y-116292380D02*
X177941071Y-117292380D01*
X177607738Y-116292380D01*
X181274404Y-114752380D02*
X181274404Y-114085714D01*
X181274404Y-114276190D02*
X181226785Y-114180952D01*
X181179166Y-114133333D01*
X181083928Y-114085714D01*
X180988690Y-114085714D01*
X180274404Y-114704761D02*
X180369642Y-114752380D01*
X180560119Y-114752380D01*
X180655357Y-114704761D01*
X180702976Y-114609523D01*
X180702976Y-114228571D01*
X180655357Y-114133333D01*
X180560119Y-114085714D01*
X180369642Y-114085714D01*
X180274404Y-114133333D01*
X180226785Y-114228571D01*
X180226785Y-114323809D01*
X180702976Y-114419047D01*
X179893452Y-114085714D02*
X179369642Y-114085714D01*
X179893452Y-114752380D01*
X179369642Y-114752380D01*
X177798214Y-114704761D02*
X177893452Y-114752380D01*
X178083928Y-114752380D01*
X178179166Y-114704761D01*
X178226785Y-114657142D01*
X178274404Y-114561904D01*
X178274404Y-114276190D01*
X178226785Y-114180952D01*
X178179166Y-114133333D01*
X178083928Y-114085714D01*
X177893452Y-114085714D01*
X177798214Y-114133333D01*
X177464880Y-114085714D02*
X177226785Y-114752380D01*
X176988690Y-114085714D01*
X175845833Y-114752380D02*
X175845833Y-114085714D01*
X175845833Y-113752380D02*
X175893452Y-113800000D01*
X175845833Y-113847619D01*
X175798214Y-113800000D01*
X175845833Y-113752380D01*
X175845833Y-113847619D01*
X175369642Y-114085714D02*
X175369642Y-114752380D01*
X175369642Y-114180952D02*
X175322023Y-114133333D01*
X175226785Y-114085714D01*
X175083928Y-114085714D01*
X174988690Y-114133333D01*
X174941071Y-114228571D01*
X174941071Y-114752380D01*
X181274404Y-112212380D02*
X181274404Y-111545714D01*
X181274404Y-111736190D02*
X181226785Y-111640952D01*
X181179166Y-111593333D01*
X181083928Y-111545714D01*
X180988690Y-111545714D01*
X180274404Y-112164761D02*
X180369642Y-112212380D01*
X180560119Y-112212380D01*
X180655357Y-112164761D01*
X180702976Y-112069523D01*
X180702976Y-111688571D01*
X180655357Y-111593333D01*
X180560119Y-111545714D01*
X180369642Y-111545714D01*
X180274404Y-111593333D01*
X180226785Y-111688571D01*
X180226785Y-111783809D01*
X180702976Y-111879047D01*
X179893452Y-111545714D02*
X179369642Y-111545714D01*
X179893452Y-112212380D01*
X179369642Y-112212380D01*
X177798214Y-112164761D02*
X177893452Y-112212380D01*
X178083928Y-112212380D01*
X178179166Y-112164761D01*
X178226785Y-112117142D01*
X178274404Y-112021904D01*
X178274404Y-111736190D01*
X178226785Y-111640952D01*
X178179166Y-111593333D01*
X178083928Y-111545714D01*
X177893452Y-111545714D01*
X177798214Y-111593333D01*
X177464880Y-111545714D02*
X177226785Y-112212380D01*
X176988690Y-111545714D01*
X175845833Y-112212380D02*
X175845833Y-111545714D01*
X175845833Y-111212380D02*
X175893452Y-111260000D01*
X175845833Y-111307619D01*
X175798214Y-111260000D01*
X175845833Y-111212380D01*
X175845833Y-111307619D01*
X175369642Y-111545714D02*
X175369642Y-112212380D01*
X175369642Y-111640952D02*
X175322023Y-111593333D01*
X175226785Y-111545714D01*
X175083928Y-111545714D01*
X174988690Y-111593333D01*
X174941071Y-111688571D01*
X174941071Y-112212380D01*
X180845833Y-109005714D02*
X180845833Y-109815238D01*
X180893452Y-109910476D01*
X180941071Y-109958095D01*
X181036309Y-110005714D01*
X181179166Y-110005714D01*
X181274404Y-109958095D01*
X180845833Y-109624761D02*
X180941071Y-109672380D01*
X181131547Y-109672380D01*
X181226785Y-109624761D01*
X181274404Y-109577142D01*
X181322023Y-109481904D01*
X181322023Y-109196190D01*
X181274404Y-109100952D01*
X181226785Y-109053333D01*
X181131547Y-109005714D01*
X180941071Y-109005714D01*
X180845833Y-109053333D01*
X180369642Y-109005714D02*
X180369642Y-109672380D01*
X180369642Y-109100952D02*
X180322023Y-109053333D01*
X180226785Y-109005714D01*
X180083928Y-109005714D01*
X179988690Y-109053333D01*
X179941071Y-109148571D01*
X179941071Y-109672380D01*
X179036309Y-109672380D02*
X179036309Y-108672380D01*
X179036309Y-109624761D02*
X179131547Y-109672380D01*
X179322023Y-109672380D01*
X179417261Y-109624761D01*
X179464880Y-109577142D01*
X179512500Y-109481904D01*
X179512500Y-109196190D01*
X179464880Y-109100952D01*
X179417261Y-109053333D01*
X179322023Y-109005714D01*
X179131547Y-109005714D01*
X179036309Y-109053333D01*
X180845833Y-106465714D02*
X180845833Y-107275238D01*
X180893452Y-107370476D01*
X180941071Y-107418095D01*
X181036309Y-107465714D01*
X181179166Y-107465714D01*
X181274404Y-107418095D01*
X180845833Y-107084761D02*
X180941071Y-107132380D01*
X181131547Y-107132380D01*
X181226785Y-107084761D01*
X181274404Y-107037142D01*
X181322023Y-106941904D01*
X181322023Y-106656190D01*
X181274404Y-106560952D01*
X181226785Y-106513333D01*
X181131547Y-106465714D01*
X180941071Y-106465714D01*
X180845833Y-106513333D01*
X180369642Y-106465714D02*
X180369642Y-107132380D01*
X180369642Y-106560952D02*
X180322023Y-106513333D01*
X180226785Y-106465714D01*
X180083928Y-106465714D01*
X179988690Y-106513333D01*
X179941071Y-106608571D01*
X179941071Y-107132380D01*
X179036309Y-107132380D02*
X179036309Y-106132380D01*
X179036309Y-107084761D02*
X179131547Y-107132380D01*
X179322023Y-107132380D01*
X179417261Y-107084761D01*
X179464880Y-107037142D01*
X179512500Y-106941904D01*
X179512500Y-106656190D01*
X179464880Y-106560952D01*
X179417261Y-106513333D01*
X179322023Y-106465714D01*
X179131547Y-106465714D01*
X179036309Y-106513333D01*
X180845833Y-81065714D02*
X180845833Y-81875238D01*
X180893452Y-81970476D01*
X180941071Y-82018095D01*
X181036309Y-82065714D01*
X181179166Y-82065714D01*
X181274404Y-82018095D01*
X180845833Y-81684761D02*
X180941071Y-81732380D01*
X181131547Y-81732380D01*
X181226785Y-81684761D01*
X181274404Y-81637142D01*
X181322023Y-81541904D01*
X181322023Y-81256190D01*
X181274404Y-81160952D01*
X181226785Y-81113333D01*
X181131547Y-81065714D01*
X180941071Y-81065714D01*
X180845833Y-81113333D01*
X180369642Y-81065714D02*
X180369642Y-81732380D01*
X180369642Y-81160952D02*
X180322023Y-81113333D01*
X180226785Y-81065714D01*
X180083928Y-81065714D01*
X179988690Y-81113333D01*
X179941071Y-81208571D01*
X179941071Y-81732380D01*
X179036309Y-81732380D02*
X179036309Y-80732380D01*
X179036309Y-81684761D02*
X179131547Y-81732380D01*
X179322023Y-81732380D01*
X179417261Y-81684761D01*
X179464880Y-81637142D01*
X179512500Y-81541904D01*
X179512500Y-81256190D01*
X179464880Y-81160952D01*
X179417261Y-81113333D01*
X179322023Y-81065714D01*
X179131547Y-81065714D01*
X179036309Y-81113333D01*
X180845833Y-78525714D02*
X180845833Y-79335238D01*
X180893452Y-79430476D01*
X180941071Y-79478095D01*
X181036309Y-79525714D01*
X181179166Y-79525714D01*
X181274404Y-79478095D01*
X180845833Y-79144761D02*
X180941071Y-79192380D01*
X181131547Y-79192380D01*
X181226785Y-79144761D01*
X181274404Y-79097142D01*
X181322023Y-79001904D01*
X181322023Y-78716190D01*
X181274404Y-78620952D01*
X181226785Y-78573333D01*
X181131547Y-78525714D01*
X180941071Y-78525714D01*
X180845833Y-78573333D01*
X180369642Y-78525714D02*
X180369642Y-79192380D01*
X180369642Y-78620952D02*
X180322023Y-78573333D01*
X180226785Y-78525714D01*
X180083928Y-78525714D01*
X179988690Y-78573333D01*
X179941071Y-78668571D01*
X179941071Y-79192380D01*
X179036309Y-79192380D02*
X179036309Y-78192380D01*
X179036309Y-79144761D02*
X179131547Y-79192380D01*
X179322023Y-79192380D01*
X179417261Y-79144761D01*
X179464880Y-79097142D01*
X179512500Y-79001904D01*
X179512500Y-78716190D01*
X179464880Y-78620952D01*
X179417261Y-78573333D01*
X179322023Y-78525714D01*
X179131547Y-78525714D01*
X179036309Y-78573333D01*
X181322023Y-84224761D02*
X181226785Y-84272380D01*
X181036309Y-84272380D01*
X180941071Y-84224761D01*
X180893452Y-84129523D01*
X180893452Y-84081904D01*
X180941071Y-83986666D01*
X181036309Y-83939047D01*
X181179166Y-83939047D01*
X181274404Y-83891428D01*
X181322023Y-83796190D01*
X181322023Y-83748571D01*
X181274404Y-83653333D01*
X181179166Y-83605714D01*
X181036309Y-83605714D01*
X180941071Y-83653333D01*
X180464880Y-84272380D02*
X180464880Y-83605714D01*
X180464880Y-83272380D02*
X180512500Y-83320000D01*
X180464880Y-83367619D01*
X180417261Y-83320000D01*
X180464880Y-83272380D01*
X180464880Y-83367619D01*
X179560119Y-83605714D02*
X179560119Y-84415238D01*
X179607738Y-84510476D01*
X179655357Y-84558095D01*
X179750595Y-84605714D01*
X179893452Y-84605714D01*
X179988690Y-84558095D01*
X179560119Y-84224761D02*
X179655357Y-84272380D01*
X179845833Y-84272380D01*
X179941071Y-84224761D01*
X179988690Y-84177142D01*
X180036309Y-84081904D01*
X180036309Y-83796190D01*
X179988690Y-83700952D01*
X179941071Y-83653333D01*
X179845833Y-83605714D01*
X179655357Y-83605714D01*
X179560119Y-83653333D01*
X179083928Y-83605714D02*
X179083928Y-84272380D01*
X179083928Y-83700952D02*
X179036309Y-83653333D01*
X178941071Y-83605714D01*
X178798214Y-83605714D01*
X178702976Y-83653333D01*
X178655357Y-83748571D01*
X178655357Y-84272380D01*
X177750595Y-84272380D02*
X177750595Y-83748571D01*
X177798214Y-83653333D01*
X177893452Y-83605714D01*
X178083928Y-83605714D01*
X178179166Y-83653333D01*
X177750595Y-84224761D02*
X177845833Y-84272380D01*
X178083928Y-84272380D01*
X178179166Y-84224761D01*
X178226785Y-84129523D01*
X178226785Y-84034285D01*
X178179166Y-83939047D01*
X178083928Y-83891428D01*
X177845833Y-83891428D01*
X177750595Y-83843809D01*
X177131547Y-84272380D02*
X177226785Y-84224761D01*
X177274404Y-84129523D01*
X177274404Y-83272380D01*
X175845833Y-84272380D02*
X175941071Y-84224761D01*
X175988690Y-84177142D01*
X176036309Y-84081904D01*
X176036309Y-83796190D01*
X175988690Y-83700952D01*
X175941071Y-83653333D01*
X175845833Y-83605714D01*
X175702976Y-83605714D01*
X175607738Y-83653333D01*
X175560119Y-83700952D01*
X175512500Y-83796190D01*
X175512500Y-84081904D01*
X175560119Y-84177142D01*
X175607738Y-84224761D01*
X175702976Y-84272380D01*
X175845833Y-84272380D01*
X174655357Y-83605714D02*
X174655357Y-84272380D01*
X175083928Y-83605714D02*
X175083928Y-84129523D01*
X175036309Y-84224761D01*
X174941071Y-84272380D01*
X174798214Y-84272380D01*
X174702976Y-84224761D01*
X174655357Y-84177142D01*
X174322023Y-83605714D02*
X173941071Y-83605714D01*
X174179166Y-83272380D02*
X174179166Y-84129523D01*
X174131547Y-84224761D01*
X174036309Y-84272380D01*
X173941071Y-84272380D01*
X181322023Y-86764761D02*
X181226785Y-86812380D01*
X181036309Y-86812380D01*
X180941071Y-86764761D01*
X180893452Y-86669523D01*
X180893452Y-86621904D01*
X180941071Y-86526666D01*
X181036309Y-86479047D01*
X181179166Y-86479047D01*
X181274404Y-86431428D01*
X181322023Y-86336190D01*
X181322023Y-86288571D01*
X181274404Y-86193333D01*
X181179166Y-86145714D01*
X181036309Y-86145714D01*
X180941071Y-86193333D01*
X180464880Y-86812380D02*
X180464880Y-86145714D01*
X180464880Y-85812380D02*
X180512500Y-85860000D01*
X180464880Y-85907619D01*
X180417261Y-85860000D01*
X180464880Y-85812380D01*
X180464880Y-85907619D01*
X179560119Y-86145714D02*
X179560119Y-86955238D01*
X179607738Y-87050476D01*
X179655357Y-87098095D01*
X179750595Y-87145714D01*
X179893452Y-87145714D01*
X179988690Y-87098095D01*
X179560119Y-86764761D02*
X179655357Y-86812380D01*
X179845833Y-86812380D01*
X179941071Y-86764761D01*
X179988690Y-86717142D01*
X180036309Y-86621904D01*
X180036309Y-86336190D01*
X179988690Y-86240952D01*
X179941071Y-86193333D01*
X179845833Y-86145714D01*
X179655357Y-86145714D01*
X179560119Y-86193333D01*
X179083928Y-86145714D02*
X179083928Y-86812380D01*
X179083928Y-86240952D02*
X179036309Y-86193333D01*
X178941071Y-86145714D01*
X178798214Y-86145714D01*
X178702976Y-86193333D01*
X178655357Y-86288571D01*
X178655357Y-86812380D01*
X177750595Y-86812380D02*
X177750595Y-86288571D01*
X177798214Y-86193333D01*
X177893452Y-86145714D01*
X178083928Y-86145714D01*
X178179166Y-86193333D01*
X177750595Y-86764761D02*
X177845833Y-86812380D01*
X178083928Y-86812380D01*
X178179166Y-86764761D01*
X178226785Y-86669523D01*
X178226785Y-86574285D01*
X178179166Y-86479047D01*
X178083928Y-86431428D01*
X177845833Y-86431428D01*
X177750595Y-86383809D01*
X177131547Y-86812380D02*
X177226785Y-86764761D01*
X177274404Y-86669523D01*
X177274404Y-85812380D01*
X175845833Y-86812380D02*
X175941071Y-86764761D01*
X175988690Y-86717142D01*
X176036309Y-86621904D01*
X176036309Y-86336190D01*
X175988690Y-86240952D01*
X175941071Y-86193333D01*
X175845833Y-86145714D01*
X175702976Y-86145714D01*
X175607738Y-86193333D01*
X175560119Y-86240952D01*
X175512500Y-86336190D01*
X175512500Y-86621904D01*
X175560119Y-86717142D01*
X175607738Y-86764761D01*
X175702976Y-86812380D01*
X175845833Y-86812380D01*
X174655357Y-86145714D02*
X174655357Y-86812380D01*
X175083928Y-86145714D02*
X175083928Y-86669523D01*
X175036309Y-86764761D01*
X174941071Y-86812380D01*
X174798214Y-86812380D01*
X174702976Y-86764761D01*
X174655357Y-86717142D01*
X174322023Y-86145714D02*
X173941071Y-86145714D01*
X174179166Y-85812380D02*
X174179166Y-86669523D01*
X174131547Y-86764761D01*
X174036309Y-86812380D01*
X173941071Y-86812380D01*
X134002738Y-124864761D02*
X134097976Y-124912380D01*
X134288452Y-124912380D01*
X134383690Y-124864761D01*
X134431309Y-124817142D01*
X134478928Y-124721904D01*
X134478928Y-124436190D01*
X134431309Y-124340952D01*
X134383690Y-124293333D01*
X134288452Y-124245714D01*
X134097976Y-124245714D01*
X134002738Y-124293333D01*
X133669404Y-124245714D02*
X133431309Y-124912380D01*
X133193214Y-124245714D01*
X132050357Y-124912380D02*
X132050357Y-124245714D01*
X132050357Y-123912380D02*
X132097976Y-123960000D01*
X132050357Y-124007619D01*
X132002738Y-123960000D01*
X132050357Y-123912380D01*
X132050357Y-124007619D01*
X131574166Y-124245714D02*
X131574166Y-124912380D01*
X131574166Y-124340952D02*
X131526547Y-124293333D01*
X131431309Y-124245714D01*
X131288452Y-124245714D01*
X131193214Y-124293333D01*
X131145595Y-124388571D01*
X131145595Y-124912380D01*
X134002738Y-122324761D02*
X134097976Y-122372380D01*
X134288452Y-122372380D01*
X134383690Y-122324761D01*
X134431309Y-122277142D01*
X134478928Y-122181904D01*
X134478928Y-121896190D01*
X134431309Y-121800952D01*
X134383690Y-121753333D01*
X134288452Y-121705714D01*
X134097976Y-121705714D01*
X134002738Y-121753333D01*
X133669404Y-121705714D02*
X133431309Y-122372380D01*
X133193214Y-121705714D01*
X132050357Y-122372380D02*
X132050357Y-121705714D01*
X132050357Y-121372380D02*
X132097976Y-121420000D01*
X132050357Y-121467619D01*
X132002738Y-121420000D01*
X132050357Y-121372380D01*
X132050357Y-121467619D01*
X131574166Y-121705714D02*
X131574166Y-122372380D01*
X131574166Y-121800952D02*
X131526547Y-121753333D01*
X131431309Y-121705714D01*
X131288452Y-121705714D01*
X131193214Y-121753333D01*
X131145595Y-121848571D01*
X131145595Y-122372380D01*
X132955119Y-119165714D02*
X132955119Y-119975238D01*
X133002738Y-120070476D01*
X133050357Y-120118095D01*
X133145595Y-120165714D01*
X133288452Y-120165714D01*
X133383690Y-120118095D01*
X132955119Y-119784761D02*
X133050357Y-119832380D01*
X133240833Y-119832380D01*
X133336071Y-119784761D01*
X133383690Y-119737142D01*
X133431309Y-119641904D01*
X133431309Y-119356190D01*
X133383690Y-119260952D01*
X133336071Y-119213333D01*
X133240833Y-119165714D01*
X133050357Y-119165714D01*
X132955119Y-119213333D01*
X132478928Y-119165714D02*
X132478928Y-119832380D01*
X132478928Y-119260952D02*
X132431309Y-119213333D01*
X132336071Y-119165714D01*
X132193214Y-119165714D01*
X132097976Y-119213333D01*
X132050357Y-119308571D01*
X132050357Y-119832380D01*
X131145595Y-119832380D02*
X131145595Y-118832380D01*
X131145595Y-119784761D02*
X131240833Y-119832380D01*
X131431309Y-119832380D01*
X131526547Y-119784761D01*
X131574166Y-119737142D01*
X131621785Y-119641904D01*
X131621785Y-119356190D01*
X131574166Y-119260952D01*
X131526547Y-119213333D01*
X131431309Y-119165714D01*
X131240833Y-119165714D01*
X131145595Y-119213333D01*
X132955119Y-116625714D02*
X132955119Y-117435238D01*
X133002738Y-117530476D01*
X133050357Y-117578095D01*
X133145595Y-117625714D01*
X133288452Y-117625714D01*
X133383690Y-117578095D01*
X132955119Y-117244761D02*
X133050357Y-117292380D01*
X133240833Y-117292380D01*
X133336071Y-117244761D01*
X133383690Y-117197142D01*
X133431309Y-117101904D01*
X133431309Y-116816190D01*
X133383690Y-116720952D01*
X133336071Y-116673333D01*
X133240833Y-116625714D01*
X133050357Y-116625714D01*
X132955119Y-116673333D01*
X132478928Y-116625714D02*
X132478928Y-117292380D01*
X132478928Y-116720952D02*
X132431309Y-116673333D01*
X132336071Y-116625714D01*
X132193214Y-116625714D01*
X132097976Y-116673333D01*
X132050357Y-116768571D01*
X132050357Y-117292380D01*
X131145595Y-117292380D02*
X131145595Y-116292380D01*
X131145595Y-117244761D02*
X131240833Y-117292380D01*
X131431309Y-117292380D01*
X131526547Y-117244761D01*
X131574166Y-117197142D01*
X131621785Y-117101904D01*
X131621785Y-116816190D01*
X131574166Y-116720952D01*
X131526547Y-116673333D01*
X131431309Y-116625714D01*
X131240833Y-116625714D01*
X131145595Y-116673333D01*
X137383690Y-86764761D02*
X137288452Y-86812380D01*
X137097976Y-86812380D01*
X137002738Y-86764761D01*
X136955119Y-86669523D01*
X136955119Y-86621904D01*
X137002738Y-86526666D01*
X137097976Y-86479047D01*
X137240833Y-86479047D01*
X137336071Y-86431428D01*
X137383690Y-86336190D01*
X137383690Y-86288571D01*
X137336071Y-86193333D01*
X137240833Y-86145714D01*
X137097976Y-86145714D01*
X137002738Y-86193333D01*
X136526547Y-86812380D02*
X136526547Y-86145714D01*
X136526547Y-85812380D02*
X136574166Y-85860000D01*
X136526547Y-85907619D01*
X136478928Y-85860000D01*
X136526547Y-85812380D01*
X136526547Y-85907619D01*
X135621785Y-86145714D02*
X135621785Y-86955238D01*
X135669404Y-87050476D01*
X135717023Y-87098095D01*
X135812261Y-87145714D01*
X135955119Y-87145714D01*
X136050357Y-87098095D01*
X135621785Y-86764761D02*
X135717023Y-86812380D01*
X135907500Y-86812380D01*
X136002738Y-86764761D01*
X136050357Y-86717142D01*
X136097976Y-86621904D01*
X136097976Y-86336190D01*
X136050357Y-86240952D01*
X136002738Y-86193333D01*
X135907500Y-86145714D01*
X135717023Y-86145714D01*
X135621785Y-86193333D01*
X135145595Y-86145714D02*
X135145595Y-86812380D01*
X135145595Y-86240952D02*
X135097976Y-86193333D01*
X135002738Y-86145714D01*
X134859880Y-86145714D01*
X134764642Y-86193333D01*
X134717023Y-86288571D01*
X134717023Y-86812380D01*
X133812261Y-86812380D02*
X133812261Y-86288571D01*
X133859880Y-86193333D01*
X133955119Y-86145714D01*
X134145595Y-86145714D01*
X134240833Y-86193333D01*
X133812261Y-86764761D02*
X133907500Y-86812380D01*
X134145595Y-86812380D01*
X134240833Y-86764761D01*
X134288452Y-86669523D01*
X134288452Y-86574285D01*
X134240833Y-86479047D01*
X134145595Y-86431428D01*
X133907500Y-86431428D01*
X133812261Y-86383809D01*
X133193214Y-86812380D02*
X133288452Y-86764761D01*
X133336071Y-86669523D01*
X133336071Y-85812380D01*
X132050357Y-86812380D02*
X132050357Y-86145714D01*
X132050357Y-85812380D02*
X132097976Y-85860000D01*
X132050357Y-85907619D01*
X132002738Y-85860000D01*
X132050357Y-85812380D01*
X132050357Y-85907619D01*
X131574166Y-86145714D02*
X131574166Y-86812380D01*
X131574166Y-86240952D02*
X131526547Y-86193333D01*
X131431309Y-86145714D01*
X131288452Y-86145714D01*
X131193214Y-86193333D01*
X131145595Y-86288571D01*
X131145595Y-86812380D01*
X137383690Y-84224761D02*
X137288452Y-84272380D01*
X137097976Y-84272380D01*
X137002738Y-84224761D01*
X136955119Y-84129523D01*
X136955119Y-84081904D01*
X137002738Y-83986666D01*
X137097976Y-83939047D01*
X137240833Y-83939047D01*
X137336071Y-83891428D01*
X137383690Y-83796190D01*
X137383690Y-83748571D01*
X137336071Y-83653333D01*
X137240833Y-83605714D01*
X137097976Y-83605714D01*
X137002738Y-83653333D01*
X136526547Y-84272380D02*
X136526547Y-83605714D01*
X136526547Y-83272380D02*
X136574166Y-83320000D01*
X136526547Y-83367619D01*
X136478928Y-83320000D01*
X136526547Y-83272380D01*
X136526547Y-83367619D01*
X135621785Y-83605714D02*
X135621785Y-84415238D01*
X135669404Y-84510476D01*
X135717023Y-84558095D01*
X135812261Y-84605714D01*
X135955119Y-84605714D01*
X136050357Y-84558095D01*
X135621785Y-84224761D02*
X135717023Y-84272380D01*
X135907500Y-84272380D01*
X136002738Y-84224761D01*
X136050357Y-84177142D01*
X136097976Y-84081904D01*
X136097976Y-83796190D01*
X136050357Y-83700952D01*
X136002738Y-83653333D01*
X135907500Y-83605714D01*
X135717023Y-83605714D01*
X135621785Y-83653333D01*
X135145595Y-83605714D02*
X135145595Y-84272380D01*
X135145595Y-83700952D02*
X135097976Y-83653333D01*
X135002738Y-83605714D01*
X134859880Y-83605714D01*
X134764642Y-83653333D01*
X134717023Y-83748571D01*
X134717023Y-84272380D01*
X133812261Y-84272380D02*
X133812261Y-83748571D01*
X133859880Y-83653333D01*
X133955119Y-83605714D01*
X134145595Y-83605714D01*
X134240833Y-83653333D01*
X133812261Y-84224761D02*
X133907500Y-84272380D01*
X134145595Y-84272380D01*
X134240833Y-84224761D01*
X134288452Y-84129523D01*
X134288452Y-84034285D01*
X134240833Y-83939047D01*
X134145595Y-83891428D01*
X133907500Y-83891428D01*
X133812261Y-83843809D01*
X133193214Y-84272380D02*
X133288452Y-84224761D01*
X133336071Y-84129523D01*
X133336071Y-83272380D01*
X132050357Y-84272380D02*
X132050357Y-83605714D01*
X132050357Y-83272380D02*
X132097976Y-83320000D01*
X132050357Y-83367619D01*
X132002738Y-83320000D01*
X132050357Y-83272380D01*
X132050357Y-83367619D01*
X131574166Y-83605714D02*
X131574166Y-84272380D01*
X131574166Y-83700952D02*
X131526547Y-83653333D01*
X131431309Y-83605714D01*
X131288452Y-83605714D01*
X131193214Y-83653333D01*
X131145595Y-83748571D01*
X131145595Y-84272380D01*
X132955119Y-81065714D02*
X132955119Y-81875238D01*
X133002738Y-81970476D01*
X133050357Y-82018095D01*
X133145595Y-82065714D01*
X133288452Y-82065714D01*
X133383690Y-82018095D01*
X132955119Y-81684761D02*
X133050357Y-81732380D01*
X133240833Y-81732380D01*
X133336071Y-81684761D01*
X133383690Y-81637142D01*
X133431309Y-81541904D01*
X133431309Y-81256190D01*
X133383690Y-81160952D01*
X133336071Y-81113333D01*
X133240833Y-81065714D01*
X133050357Y-81065714D01*
X132955119Y-81113333D01*
X132478928Y-81065714D02*
X132478928Y-81732380D01*
X132478928Y-81160952D02*
X132431309Y-81113333D01*
X132336071Y-81065714D01*
X132193214Y-81065714D01*
X132097976Y-81113333D01*
X132050357Y-81208571D01*
X132050357Y-81732380D01*
X131145595Y-81732380D02*
X131145595Y-80732380D01*
X131145595Y-81684761D02*
X131240833Y-81732380D01*
X131431309Y-81732380D01*
X131526547Y-81684761D01*
X131574166Y-81637142D01*
X131621785Y-81541904D01*
X131621785Y-81256190D01*
X131574166Y-81160952D01*
X131526547Y-81113333D01*
X131431309Y-81065714D01*
X131240833Y-81065714D01*
X131145595Y-81113333D01*
X133015119Y-78525714D02*
X133015119Y-79335238D01*
X133062738Y-79430476D01*
X133110357Y-79478095D01*
X133205595Y-79525714D01*
X133348452Y-79525714D01*
X133443690Y-79478095D01*
X133015119Y-79144761D02*
X133110357Y-79192380D01*
X133300833Y-79192380D01*
X133396071Y-79144761D01*
X133443690Y-79097142D01*
X133491309Y-79001904D01*
X133491309Y-78716190D01*
X133443690Y-78620952D01*
X133396071Y-78573333D01*
X133300833Y-78525714D01*
X133110357Y-78525714D01*
X133015119Y-78573333D01*
X132538928Y-78525714D02*
X132538928Y-79192380D01*
X132538928Y-78620952D02*
X132491309Y-78573333D01*
X132396071Y-78525714D01*
X132253214Y-78525714D01*
X132157976Y-78573333D01*
X132110357Y-78668571D01*
X132110357Y-79192380D01*
X131205595Y-79192380D02*
X131205595Y-78192380D01*
X131205595Y-79144761D02*
X131300833Y-79192380D01*
X131491309Y-79192380D01*
X131586547Y-79144761D01*
X131634166Y-79097142D01*
X131681785Y-79001904D01*
X131681785Y-78716190D01*
X131634166Y-78620952D01*
X131586547Y-78573333D01*
X131491309Y-78525714D01*
X131300833Y-78525714D01*
X131205595Y-78573333D01*
X168145833Y-111165714D02*
X168145833Y-111975238D01*
X168193452Y-112070476D01*
X168241071Y-112118095D01*
X168336309Y-112165714D01*
X168479166Y-112165714D01*
X168574404Y-112118095D01*
X168145833Y-111784761D02*
X168241071Y-111832380D01*
X168431547Y-111832380D01*
X168526785Y-111784761D01*
X168574404Y-111737142D01*
X168622023Y-111641904D01*
X168622023Y-111356190D01*
X168574404Y-111260952D01*
X168526785Y-111213333D01*
X168431547Y-111165714D01*
X168241071Y-111165714D01*
X168145833Y-111213333D01*
X167669642Y-111832380D02*
X167669642Y-111165714D01*
X167669642Y-110832380D02*
X167717261Y-110880000D01*
X167669642Y-110927619D01*
X167622023Y-110880000D01*
X167669642Y-110832380D01*
X167669642Y-110927619D01*
X167336309Y-111165714D02*
X166955357Y-111165714D01*
X167193452Y-110832380D02*
X167193452Y-111689523D01*
X167145833Y-111784761D01*
X167050595Y-111832380D01*
X166955357Y-111832380D01*
X166622023Y-111832380D02*
X166622023Y-110832380D01*
X166193452Y-111832380D02*
X166193452Y-111308571D01*
X166241071Y-111213333D01*
X166336309Y-111165714D01*
X166479166Y-111165714D01*
X166574404Y-111213333D01*
X166622023Y-111260952D01*
X165288690Y-111165714D02*
X165288690Y-111832380D01*
X165717261Y-111165714D02*
X165717261Y-111689523D01*
X165669642Y-111784761D01*
X165574404Y-111832380D01*
X165431547Y-111832380D01*
X165336309Y-111784761D01*
X165288690Y-111737142D01*
X164812500Y-111832380D02*
X164812500Y-110832380D01*
X164812500Y-111213333D02*
X164717261Y-111165714D01*
X164526785Y-111165714D01*
X164431547Y-111213333D01*
X164383928Y-111260952D01*
X164336309Y-111356190D01*
X164336309Y-111641904D01*
X164383928Y-111737142D01*
X164431547Y-111784761D01*
X164526785Y-111832380D01*
X164717261Y-111832380D01*
X164812500Y-111784761D01*
X163907738Y-111737142D02*
X163860119Y-111784761D01*
X163907738Y-111832380D01*
X163955357Y-111784761D01*
X163907738Y-111737142D01*
X163907738Y-111832380D01*
X163002976Y-111784761D02*
X163098214Y-111832380D01*
X163288690Y-111832380D01*
X163383928Y-111784761D01*
X163431547Y-111737142D01*
X163479166Y-111641904D01*
X163479166Y-111356190D01*
X163431547Y-111260952D01*
X163383928Y-111213333D01*
X163288690Y-111165714D01*
X163098214Y-111165714D01*
X163002976Y-111213333D01*
X162431547Y-111832380D02*
X162526785Y-111784761D01*
X162574404Y-111737142D01*
X162622023Y-111641904D01*
X162622023Y-111356190D01*
X162574404Y-111260952D01*
X162526785Y-111213333D01*
X162431547Y-111165714D01*
X162288690Y-111165714D01*
X162193452Y-111213333D01*
X162145833Y-111260952D01*
X162098214Y-111356190D01*
X162098214Y-111641904D01*
X162145833Y-111737142D01*
X162193452Y-111784761D01*
X162288690Y-111832380D01*
X162431547Y-111832380D01*
X161669642Y-111832380D02*
X161669642Y-111165714D01*
X161669642Y-111260952D02*
X161622023Y-111213333D01*
X161526785Y-111165714D01*
X161383928Y-111165714D01*
X161288690Y-111213333D01*
X161241071Y-111308571D01*
X161241071Y-111832380D01*
X161241071Y-111308571D02*
X161193452Y-111213333D01*
X161098214Y-111165714D01*
X160955357Y-111165714D01*
X160860119Y-111213333D01*
X160812500Y-111308571D01*
X160812500Y-111832380D01*
X159622023Y-110784761D02*
X160479166Y-112070476D01*
X159002976Y-110832380D02*
X159002976Y-111546666D01*
X159050595Y-111689523D01*
X159145833Y-111784761D01*
X159288690Y-111832380D01*
X159383928Y-111832380D01*
X158383928Y-111832380D02*
X158479166Y-111784761D01*
X158526785Y-111737142D01*
X158574404Y-111641904D01*
X158574404Y-111356190D01*
X158526785Y-111260952D01*
X158479166Y-111213333D01*
X158383928Y-111165714D01*
X158241071Y-111165714D01*
X158145833Y-111213333D01*
X158098214Y-111260952D01*
X158050595Y-111356190D01*
X158050595Y-111641904D01*
X158098214Y-111737142D01*
X158145833Y-111784761D01*
X158241071Y-111832380D01*
X158383928Y-111832380D01*
X157622023Y-111832380D02*
X157622023Y-111165714D01*
X157622023Y-111356190D02*
X157574404Y-111260952D01*
X157526785Y-111213333D01*
X157431547Y-111165714D01*
X157336309Y-111165714D01*
X156574404Y-111832380D02*
X156574404Y-110832380D01*
X156574404Y-111784761D02*
X156669642Y-111832380D01*
X156860119Y-111832380D01*
X156955357Y-111784761D01*
X157002976Y-111737142D01*
X157050595Y-111641904D01*
X157050595Y-111356190D01*
X157002976Y-111260952D01*
X156955357Y-111213333D01*
X156860119Y-111165714D01*
X156669642Y-111165714D01*
X156574404Y-111213333D01*
X155669642Y-111832380D02*
X155669642Y-111308571D01*
X155717261Y-111213333D01*
X155812500Y-111165714D01*
X156002976Y-111165714D01*
X156098214Y-111213333D01*
X155669642Y-111784761D02*
X155764880Y-111832380D01*
X156002976Y-111832380D01*
X156098214Y-111784761D01*
X156145833Y-111689523D01*
X156145833Y-111594285D01*
X156098214Y-111499047D01*
X156002976Y-111451428D01*
X155764880Y-111451428D01*
X155669642Y-111403809D01*
X155193452Y-111165714D02*
X155193452Y-111832380D01*
X155193452Y-111260952D02*
X155145833Y-111213333D01*
X155050595Y-111165714D01*
X154907738Y-111165714D01*
X154812500Y-111213333D01*
X154764880Y-111308571D01*
X154764880Y-111832380D01*
X154336309Y-111546666D02*
X153860119Y-111546666D01*
X154431547Y-111832380D02*
X154098214Y-110832380D01*
X153764880Y-111832380D01*
X153002976Y-111784761D02*
X153098214Y-111832380D01*
X153288690Y-111832380D01*
X153383928Y-111784761D01*
X153431547Y-111737142D01*
X153479166Y-111641904D01*
X153479166Y-111356190D01*
X153431547Y-111260952D01*
X153383928Y-111213333D01*
X153288690Y-111165714D01*
X153098214Y-111165714D01*
X153002976Y-111213333D01*
X152193452Y-111784761D02*
X152288690Y-111832380D01*
X152479166Y-111832380D01*
X152574404Y-111784761D01*
X152622023Y-111689523D01*
X152622023Y-111308571D01*
X152574404Y-111213333D01*
X152479166Y-111165714D01*
X152288690Y-111165714D01*
X152193452Y-111213333D01*
X152145833Y-111308571D01*
X152145833Y-111403809D01*
X152622023Y-111499047D01*
X151860119Y-111165714D02*
X151479166Y-111165714D01*
X151717261Y-110832380D02*
X151717261Y-111689523D01*
X151669642Y-111784761D01*
X151574404Y-111832380D01*
X151479166Y-111832380D01*
X151002976Y-111832380D02*
X151098214Y-111784761D01*
X151145833Y-111737142D01*
X151193452Y-111641904D01*
X151193452Y-111356190D01*
X151145833Y-111260952D01*
X151098214Y-111213333D01*
X151002976Y-111165714D01*
X150860119Y-111165714D01*
X150764880Y-111213333D01*
X150717261Y-111260952D01*
X150669642Y-111356190D01*
X150669642Y-111641904D01*
X150717261Y-111737142D01*
X150764880Y-111784761D01*
X150860119Y-111832380D01*
X151002976Y-111832380D01*
X149526785Y-110784761D02*
X150383928Y-112070476D01*
X148622023Y-111737142D02*
X148669642Y-111784761D01*
X148812500Y-111832380D01*
X148907738Y-111832380D01*
X149050595Y-111784761D01*
X149145833Y-111689523D01*
X149193452Y-111594285D01*
X149241071Y-111403809D01*
X149241071Y-111260952D01*
X149193452Y-111070476D01*
X149145833Y-110975238D01*
X149050595Y-110880000D01*
X148907738Y-110832380D01*
X148812500Y-110832380D01*
X148669642Y-110880000D01*
X148622023Y-110927619D01*
X148193452Y-111308571D02*
X147860119Y-111308571D01*
X147717261Y-111832380D02*
X148193452Y-111832380D01*
X148193452Y-110832380D01*
X147717261Y-110832380D01*
X147288690Y-111832380D02*
X147288690Y-110832380D01*
X146955357Y-111546666D01*
X146622023Y-110832380D01*
X146622023Y-111832380D01*
X146241071Y-110832380D02*
X145622023Y-110832380D01*
X145955357Y-111213333D01*
X145812500Y-111213333D01*
X145717261Y-111260952D01*
X145669642Y-111308571D01*
X145622023Y-111403809D01*
X145622023Y-111641904D01*
X145669642Y-111737142D01*
X145717261Y-111784761D01*
X145812500Y-111832380D01*
X146098214Y-111832380D01*
X146193452Y-111784761D01*
X146241071Y-111737142D01*
X145288690Y-110832380D02*
X144669642Y-110832380D01*
X145002976Y-111213333D01*
X144860119Y-111213333D01*
X144764880Y-111260952D01*
X144717261Y-111308571D01*
X144669642Y-111403809D01*
X144669642Y-111641904D01*
X144717261Y-111737142D01*
X144764880Y-111784761D01*
X144860119Y-111832380D01*
X145145833Y-111832380D01*
X145241071Y-111784761D01*
X145288690Y-111737142D01*
X144288690Y-110927619D02*
X144241071Y-110880000D01*
X144145833Y-110832380D01*
X143907738Y-110832380D01*
X143812500Y-110880000D01*
X143764880Y-110927619D01*
X143717261Y-111022857D01*
X143717261Y-111118095D01*
X143764880Y-111260952D01*
X144336309Y-111832380D01*
X143717261Y-111832380D01*
X143098214Y-110832380D02*
X143002976Y-110832380D01*
X142907738Y-110880000D01*
X142860119Y-110927619D01*
X142812500Y-111022857D01*
X142764880Y-111213333D01*
X142764880Y-111451428D01*
X142812500Y-111641904D01*
X142860119Y-111737142D01*
X142907738Y-111784761D01*
X143002976Y-111832380D01*
X143098214Y-111832380D01*
X143193452Y-111784761D01*
X143241071Y-111737142D01*
X143288690Y-111641904D01*
X143336309Y-111451428D01*
X143336309Y-111213333D01*
X143288690Y-111022857D01*
X143241071Y-110927619D01*
X143193452Y-110880000D01*
X143098214Y-110832380D01*
X142574404Y-111927619D02*
X141812500Y-111927619D01*
X141098214Y-111832380D02*
X141574404Y-111832380D01*
X141574404Y-110832380D01*
X140764880Y-111832380D02*
X140764880Y-110832380D01*
X140383928Y-110832380D01*
X140288690Y-110880000D01*
X140241071Y-110927619D01*
X140193452Y-111022857D01*
X140193452Y-111165714D01*
X140241071Y-111260952D01*
X140288690Y-111308571D01*
X140383928Y-111356190D01*
X140764880Y-111356190D01*
X139431547Y-111308571D02*
X139764880Y-111308571D01*
X139764880Y-111832380D02*
X139764880Y-110832380D01*
X139288690Y-110832380D01*
X139145833Y-111927619D02*
X138383928Y-111927619D01*
X138145833Y-111165714D02*
X138145833Y-112165714D01*
X138145833Y-111213333D02*
X138050595Y-111165714D01*
X137860119Y-111165714D01*
X137764880Y-111213333D01*
X137717261Y-111260952D01*
X137669642Y-111356190D01*
X137669642Y-111641904D01*
X137717261Y-111737142D01*
X137764880Y-111784761D01*
X137860119Y-111832380D01*
X138050595Y-111832380D01*
X138145833Y-111784761D01*
X137098214Y-111832380D02*
X137193452Y-111784761D01*
X137241071Y-111689523D01*
X137241071Y-110832380D01*
X136288690Y-111165714D02*
X136288690Y-111832380D01*
X136717261Y-111165714D02*
X136717261Y-111689523D01*
X136669642Y-111784761D01*
X136574404Y-111832380D01*
X136431547Y-111832380D01*
X136336309Y-111784761D01*
X136288690Y-111737142D01*
X135383928Y-111165714D02*
X135383928Y-111975238D01*
X135431547Y-112070476D01*
X135479166Y-112118095D01*
X135574404Y-112165714D01*
X135717261Y-112165714D01*
X135812500Y-112118095D01*
X135383928Y-111784761D02*
X135479166Y-111832380D01*
X135669642Y-111832380D01*
X135764880Y-111784761D01*
X135812500Y-111737142D01*
X135860119Y-111641904D01*
X135860119Y-111356190D01*
X135812500Y-111260952D01*
X135764880Y-111213333D01*
X135669642Y-111165714D01*
X135479166Y-111165714D01*
X135383928Y-111213333D01*
X135145833Y-111927619D02*
X134383928Y-111927619D01*
X134145833Y-111832380D02*
X134145833Y-111165714D01*
X134145833Y-110832380D02*
X134193452Y-110880000D01*
X134145833Y-110927619D01*
X134098214Y-110880000D01*
X134145833Y-110832380D01*
X134145833Y-110927619D01*
X133669642Y-111165714D02*
X133669642Y-111832380D01*
X133669642Y-111260952D02*
X133622023Y-111213333D01*
X133526785Y-111165714D01*
X133383928Y-111165714D01*
X133288690Y-111213333D01*
X133241071Y-111308571D01*
X133241071Y-111832380D01*
X133002976Y-111927619D02*
X132241071Y-111927619D01*
X132002976Y-111832380D02*
X132002976Y-110832380D01*
X132002976Y-111213333D02*
X131907738Y-111165714D01*
X131717261Y-111165714D01*
X131622023Y-111213333D01*
X131574404Y-111260952D01*
X131526785Y-111356190D01*
X131526785Y-111641904D01*
X131574404Y-111737142D01*
X131622023Y-111784761D01*
X131717261Y-111832380D01*
X131907738Y-111832380D01*
X132002976Y-111784761D01*
X130955357Y-111832380D02*
X131050595Y-111784761D01*
X131098214Y-111737142D01*
X131145833Y-111641904D01*
X131145833Y-111356190D01*
X131098214Y-111260952D01*
X131050595Y-111213333D01*
X130955357Y-111165714D01*
X130812500Y-111165714D01*
X130717261Y-111213333D01*
X130669642Y-111260952D01*
X130622023Y-111356190D01*
X130622023Y-111641904D01*
X130669642Y-111737142D01*
X130717261Y-111784761D01*
X130812500Y-111832380D01*
X130955357Y-111832380D01*
X129764880Y-111832380D02*
X129764880Y-111308571D01*
X129812500Y-111213333D01*
X129907738Y-111165714D01*
X130098214Y-111165714D01*
X130193452Y-111213333D01*
X129764880Y-111784761D02*
X129860119Y-111832380D01*
X130098214Y-111832380D01*
X130193452Y-111784761D01*
X130241071Y-111689523D01*
X130241071Y-111594285D01*
X130193452Y-111499047D01*
X130098214Y-111451428D01*
X129860119Y-111451428D01*
X129764880Y-111403809D01*
X129288690Y-111832380D02*
X129288690Y-111165714D01*
X129288690Y-111356190D02*
X129241071Y-111260952D01*
X129193452Y-111213333D01*
X129098214Y-111165714D01*
X129002976Y-111165714D01*
X128241071Y-111832380D02*
X128241071Y-110832380D01*
X128241071Y-111784761D02*
X128336309Y-111832380D01*
X128526785Y-111832380D01*
X128622023Y-111784761D01*
X128669642Y-111737142D01*
X128717261Y-111641904D01*
X128717261Y-111356190D01*
X128669642Y-111260952D01*
X128622023Y-111213333D01*
X128526785Y-111165714D01*
X128336309Y-111165714D01*
X128241071Y-111213333D01*
X168574404Y-113482380D02*
X168574404Y-112815714D01*
X168574404Y-113006190D02*
X168526785Y-112910952D01*
X168479166Y-112863333D01*
X168383928Y-112815714D01*
X168288690Y-112815714D01*
X167574404Y-113434761D02*
X167669642Y-113482380D01*
X167860119Y-113482380D01*
X167955357Y-113434761D01*
X168002976Y-113339523D01*
X168002976Y-112958571D01*
X167955357Y-112863333D01*
X167860119Y-112815714D01*
X167669642Y-112815714D01*
X167574404Y-112863333D01*
X167526785Y-112958571D01*
X167526785Y-113053809D01*
X168002976Y-113149047D01*
X167193452Y-112815714D02*
X166955357Y-113482380D01*
X166717261Y-112815714D01*
X165812500Y-113482380D02*
X166383928Y-113482380D01*
X166098214Y-113482380D02*
X166098214Y-112482380D01*
X166193452Y-112625238D01*
X166288690Y-112720476D01*
X166383928Y-112768095D01*
X165383928Y-113387142D02*
X165336309Y-113434761D01*
X165383928Y-113482380D01*
X165431547Y-113434761D01*
X165383928Y-113387142D01*
X165383928Y-113482380D01*
X164383928Y-113482380D02*
X164955357Y-113482380D01*
X164669642Y-113482380D02*
X164669642Y-112482380D01*
X164764880Y-112625238D01*
X164860119Y-112720476D01*
X164955357Y-112768095D01*
X168622023Y-114227619D02*
X168574404Y-114180000D01*
X168479166Y-114132380D01*
X168241071Y-114132380D01*
X168145833Y-114180000D01*
X168098214Y-114227619D01*
X168050595Y-114322857D01*
X168050595Y-114418095D01*
X168098214Y-114560952D01*
X168669642Y-115132380D01*
X168050595Y-115132380D01*
X167431547Y-114132380D02*
X167336309Y-114132380D01*
X167241071Y-114180000D01*
X167193452Y-114227619D01*
X167145833Y-114322857D01*
X167098214Y-114513333D01*
X167098214Y-114751428D01*
X167145833Y-114941904D01*
X167193452Y-115037142D01*
X167241071Y-115084761D01*
X167336309Y-115132380D01*
X167431547Y-115132380D01*
X167526785Y-115084761D01*
X167574404Y-115037142D01*
X167622023Y-114941904D01*
X167669642Y-114751428D01*
X167669642Y-114513333D01*
X167622023Y-114322857D01*
X167574404Y-114227619D01*
X167526785Y-114180000D01*
X167431547Y-114132380D01*
X166717261Y-114227619D02*
X166669642Y-114180000D01*
X166574404Y-114132380D01*
X166336309Y-114132380D01*
X166241071Y-114180000D01*
X166193452Y-114227619D01*
X166145833Y-114322857D01*
X166145833Y-114418095D01*
X166193452Y-114560952D01*
X166764880Y-115132380D01*
X166145833Y-115132380D01*
X165526785Y-114132380D02*
X165431547Y-114132380D01*
X165336309Y-114180000D01*
X165288690Y-114227619D01*
X165241071Y-114322857D01*
X165193452Y-114513333D01*
X165193452Y-114751428D01*
X165241071Y-114941904D01*
X165288690Y-115037142D01*
X165336309Y-115084761D01*
X165431547Y-115132380D01*
X165526785Y-115132380D01*
X165622023Y-115084761D01*
X165669642Y-115037142D01*
X165717261Y-114941904D01*
X165764880Y-114751428D01*
X165764880Y-114513333D01*
X165717261Y-114322857D01*
X165669642Y-114227619D01*
X165622023Y-114180000D01*
X165526785Y-114132380D01*
X164764880Y-114751428D02*
X164002976Y-114751428D01*
X163336309Y-114132380D02*
X163241071Y-114132380D01*
X163145833Y-114180000D01*
X163098214Y-114227619D01*
X163050595Y-114322857D01*
X163002976Y-114513333D01*
X163002976Y-114751428D01*
X163050595Y-114941904D01*
X163098214Y-115037142D01*
X163145833Y-115084761D01*
X163241071Y-115132380D01*
X163336309Y-115132380D01*
X163431547Y-115084761D01*
X163479166Y-115037142D01*
X163526785Y-114941904D01*
X163574404Y-114751428D01*
X163574404Y-114513333D01*
X163526785Y-114322857D01*
X163479166Y-114227619D01*
X163431547Y-114180000D01*
X163336309Y-114132380D01*
X162622023Y-114227619D02*
X162574404Y-114180000D01*
X162479166Y-114132380D01*
X162241071Y-114132380D01*
X162145833Y-114180000D01*
X162098214Y-114227619D01*
X162050595Y-114322857D01*
X162050595Y-114418095D01*
X162098214Y-114560952D01*
X162669642Y-115132380D01*
X162050595Y-115132380D01*
X161622023Y-114751428D02*
X160860119Y-114751428D01*
X160193452Y-114132380D02*
X160098214Y-114132380D01*
X160002976Y-114180000D01*
X159955357Y-114227619D01*
X159907738Y-114322857D01*
X159860119Y-114513333D01*
X159860119Y-114751428D01*
X159907738Y-114941904D01*
X159955357Y-115037142D01*
X160002976Y-115084761D01*
X160098214Y-115132380D01*
X160193452Y-115132380D01*
X160288690Y-115084761D01*
X160336309Y-115037142D01*
X160383928Y-114941904D01*
X160431547Y-114751428D01*
X160431547Y-114513333D01*
X160383928Y-114322857D01*
X160336309Y-114227619D01*
X160288690Y-114180000D01*
X160193452Y-114132380D01*
X159479166Y-114227619D02*
X159431547Y-114180000D01*
X159336309Y-114132380D01*
X159098214Y-114132380D01*
X159002976Y-114180000D01*
X158955357Y-114227619D01*
X158907738Y-114322857D01*
X158907738Y-114418095D01*
X158955357Y-114560952D01*
X159526785Y-115132380D01*
X158907738Y-115132380D01*
D11*
X184210000Y-125790000D02*
X181550000Y-125790000D01*
X184210000Y-107950000D02*
X184210000Y-125790000D01*
X181550000Y-107950000D02*
X181550000Y-125790000D01*
X184210000Y-107950000D02*
X181550000Y-107950000D01*
X184210000Y-106680000D02*
X184210000Y-105350000D01*
X184210000Y-105350000D02*
X182880000Y-105350000D01*
X184210000Y-87690000D02*
X181550000Y-87690000D01*
X184210000Y-80010000D02*
X184210000Y-87690000D01*
X181550000Y-80010000D02*
X181550000Y-87690000D01*
X184210000Y-80010000D02*
X181550000Y-80010000D01*
X184210000Y-78740000D02*
X184210000Y-77410000D01*
X184210000Y-77410000D02*
X182880000Y-77410000D01*
X130870000Y-87690000D02*
X128210000Y-87690000D01*
X130870000Y-80010000D02*
X130870000Y-87690000D01*
X128210000Y-80010000D02*
X128210000Y-87690000D01*
X130870000Y-80010000D02*
X128210000Y-80010000D01*
X130870000Y-78740000D02*
X130870000Y-77410000D01*
X130870000Y-77410000D02*
X129540000Y-77410000D01*
X130870000Y-125790000D02*
X128210000Y-125790000D01*
X130870000Y-118110000D02*
X130870000Y-125790000D01*
X128210000Y-118110000D02*
X128210000Y-125790000D01*
X130870000Y-118110000D02*
X128210000Y-118110000D01*
X130870000Y-116840000D02*
X130870000Y-115510000D01*
X130870000Y-115510000D02*
X129540000Y-115510000D01*
D10*
X183213333Y-103592380D02*
X183213333Y-104306666D01*
X183260952Y-104449523D01*
X183356190Y-104544761D01*
X183499047Y-104592380D01*
X183594285Y-104592380D01*
X182308571Y-103925714D02*
X182308571Y-104592380D01*
X182546666Y-103544761D02*
X182784761Y-104259047D01*
X182165714Y-104259047D01*
X183213333Y-88352380D02*
X183213333Y-89066666D01*
X183260952Y-89209523D01*
X183356190Y-89304761D01*
X183499047Y-89352380D01*
X183594285Y-89352380D01*
X182832380Y-88352380D02*
X182213333Y-88352380D01*
X182546666Y-88733333D01*
X182403809Y-88733333D01*
X182308571Y-88780952D01*
X182260952Y-88828571D01*
X182213333Y-88923809D01*
X182213333Y-89161904D01*
X182260952Y-89257142D01*
X182308571Y-89304761D01*
X182403809Y-89352380D01*
X182689523Y-89352380D01*
X182784761Y-89304761D01*
X182832380Y-89257142D01*
X129873333Y-88098380D02*
X129873333Y-88812666D01*
X129920952Y-88955523D01*
X130016190Y-89050761D01*
X130159047Y-89098380D01*
X130254285Y-89098380D01*
X129444761Y-88193619D02*
X129397142Y-88146000D01*
X129301904Y-88098380D01*
X129063809Y-88098380D01*
X128968571Y-88146000D01*
X128920952Y-88193619D01*
X128873333Y-88288857D01*
X128873333Y-88384095D01*
X128920952Y-88526952D01*
X129492380Y-89098380D01*
X128873333Y-89098380D01*
X129873333Y-113752380D02*
X129873333Y-114466666D01*
X129920952Y-114609523D01*
X130016190Y-114704761D01*
X130159047Y-114752380D01*
X130254285Y-114752380D01*
X128873333Y-114752380D02*
X129444761Y-114752380D01*
X129159047Y-114752380D02*
X129159047Y-113752380D01*
X129254285Y-113895238D01*
X129349523Y-113990476D01*
X129444761Y-114038095D01*
M02*
