G04 #@! TF.GenerationSoftware,KiCad,Pcbnew,5.1.5-52549c5~84~ubuntu18.04.1*
G04 #@! TF.CreationDate,2020-01-29T17:28:10-05:00*
G04 #@! TF.ProjectId,CEM3340_VCO,43454d33-3334-4305-9f56-434f2e6b6963,rev?*
G04 #@! TF.SameCoordinates,Original*
G04 #@! TF.FileFunction,Soldermask,Bot*
G04 #@! TF.FilePolarity,Negative*
%FSLAX46Y46*%
G04 Gerber Fmt 4.6, Leading zero omitted, Abs format (unit mm)*
G04 Created by KiCad (PCBNEW 5.1.5-52549c5~84~ubuntu18.04.1) date 2020-01-29 17:28:10*
%MOMM*%
%LPD*%
G04 APERTURE LIST*
%ADD10C,0.100000*%
G04 APERTURE END LIST*
D10*
G36*
X81655256Y-122851298D02*
G01*
X81761579Y-122872447D01*
X82062042Y-122996903D01*
X82332451Y-123177585D01*
X82562415Y-123407549D01*
X82562416Y-123407551D01*
X82743098Y-123677960D01*
X82867553Y-123978422D01*
X82931000Y-124297389D01*
X82931000Y-124622611D01*
X82921928Y-124668218D01*
X82867553Y-124941579D01*
X82743097Y-125242042D01*
X82562415Y-125512451D01*
X82332451Y-125742415D01*
X82062042Y-125923097D01*
X81761579Y-126047553D01*
X81655256Y-126068702D01*
X81442611Y-126111000D01*
X81117389Y-126111000D01*
X80904744Y-126068702D01*
X80798421Y-126047553D01*
X80497958Y-125923097D01*
X80227549Y-125742415D01*
X79997585Y-125512451D01*
X79816903Y-125242042D01*
X79692447Y-124941579D01*
X79638072Y-124668218D01*
X79629000Y-124622611D01*
X79629000Y-124297389D01*
X79692447Y-123978422D01*
X79816902Y-123677960D01*
X79997584Y-123407551D01*
X79997585Y-123407549D01*
X80227549Y-123177585D01*
X80497958Y-122996903D01*
X80798421Y-122872447D01*
X80904744Y-122851298D01*
X81117389Y-122809000D01*
X81442611Y-122809000D01*
X81655256Y-122851298D01*
G37*
G36*
X129653512Y-124198927D02*
G01*
X129802812Y-124228624D01*
X129966784Y-124296544D01*
X130114354Y-124395147D01*
X130239853Y-124520646D01*
X130338456Y-124668216D01*
X130406376Y-124832188D01*
X130441000Y-125006259D01*
X130441000Y-125183741D01*
X130406376Y-125357812D01*
X130338456Y-125521784D01*
X130239853Y-125669354D01*
X130114354Y-125794853D01*
X129966784Y-125893456D01*
X129802812Y-125961376D01*
X129653512Y-125991073D01*
X129628742Y-125996000D01*
X129451258Y-125996000D01*
X129426488Y-125991073D01*
X129277188Y-125961376D01*
X129113216Y-125893456D01*
X128965646Y-125794853D01*
X128840147Y-125669354D01*
X128741544Y-125521784D01*
X128673624Y-125357812D01*
X128639000Y-125183741D01*
X128639000Y-125006259D01*
X128673624Y-124832188D01*
X128741544Y-124668216D01*
X128840147Y-124520646D01*
X128965646Y-124395147D01*
X129113216Y-124296544D01*
X129277188Y-124228624D01*
X129426488Y-124198927D01*
X129451258Y-124194000D01*
X129628742Y-124194000D01*
X129653512Y-124198927D01*
G37*
G36*
X120281000Y-125996000D02*
G01*
X118479000Y-125996000D01*
X118479000Y-124194000D01*
X120281000Y-124194000D01*
X120281000Y-125996000D01*
G37*
G36*
X122033512Y-124198927D02*
G01*
X122182812Y-124228624D01*
X122346784Y-124296544D01*
X122494354Y-124395147D01*
X122619853Y-124520646D01*
X122718456Y-124668216D01*
X122786376Y-124832188D01*
X122821000Y-125006259D01*
X122821000Y-125183741D01*
X122786376Y-125357812D01*
X122718456Y-125521784D01*
X122619853Y-125669354D01*
X122494354Y-125794853D01*
X122346784Y-125893456D01*
X122182812Y-125961376D01*
X122033512Y-125991073D01*
X122008742Y-125996000D01*
X121831258Y-125996000D01*
X121806488Y-125991073D01*
X121657188Y-125961376D01*
X121493216Y-125893456D01*
X121345646Y-125794853D01*
X121220147Y-125669354D01*
X121121544Y-125521784D01*
X121053624Y-125357812D01*
X121019000Y-125183741D01*
X121019000Y-125006259D01*
X121053624Y-124832188D01*
X121121544Y-124668216D01*
X121220147Y-124520646D01*
X121345646Y-124395147D01*
X121493216Y-124296544D01*
X121657188Y-124228624D01*
X121806488Y-124198927D01*
X121831258Y-124194000D01*
X122008742Y-124194000D01*
X122033512Y-124198927D01*
G37*
G36*
X127113512Y-124198927D02*
G01*
X127262812Y-124228624D01*
X127426784Y-124296544D01*
X127574354Y-124395147D01*
X127699853Y-124520646D01*
X127798456Y-124668216D01*
X127866376Y-124832188D01*
X127901000Y-125006259D01*
X127901000Y-125183741D01*
X127866376Y-125357812D01*
X127798456Y-125521784D01*
X127699853Y-125669354D01*
X127574354Y-125794853D01*
X127426784Y-125893456D01*
X127262812Y-125961376D01*
X127113512Y-125991073D01*
X127088742Y-125996000D01*
X126911258Y-125996000D01*
X126886488Y-125991073D01*
X126737188Y-125961376D01*
X126573216Y-125893456D01*
X126425646Y-125794853D01*
X126300147Y-125669354D01*
X126201544Y-125521784D01*
X126133624Y-125357812D01*
X126099000Y-125183741D01*
X126099000Y-125006259D01*
X126133624Y-124832188D01*
X126201544Y-124668216D01*
X126300147Y-124520646D01*
X126425646Y-124395147D01*
X126573216Y-124296544D01*
X126737188Y-124228624D01*
X126886488Y-124198927D01*
X126911258Y-124194000D01*
X127088742Y-124194000D01*
X127113512Y-124198927D01*
G37*
G36*
X124573512Y-124198927D02*
G01*
X124722812Y-124228624D01*
X124886784Y-124296544D01*
X125034354Y-124395147D01*
X125159853Y-124520646D01*
X125258456Y-124668216D01*
X125326376Y-124832188D01*
X125361000Y-125006259D01*
X125361000Y-125183741D01*
X125326376Y-125357812D01*
X125258456Y-125521784D01*
X125159853Y-125669354D01*
X125034354Y-125794853D01*
X124886784Y-125893456D01*
X124722812Y-125961376D01*
X124573512Y-125991073D01*
X124548742Y-125996000D01*
X124371258Y-125996000D01*
X124346488Y-125991073D01*
X124197188Y-125961376D01*
X124033216Y-125893456D01*
X123885646Y-125794853D01*
X123760147Y-125669354D01*
X123661544Y-125521784D01*
X123593624Y-125357812D01*
X123559000Y-125183741D01*
X123559000Y-125006259D01*
X123593624Y-124832188D01*
X123661544Y-124668216D01*
X123760147Y-124520646D01*
X123885646Y-124395147D01*
X124033216Y-124296544D01*
X124197188Y-124228624D01*
X124346488Y-124198927D01*
X124371258Y-124194000D01*
X124548742Y-124194000D01*
X124573512Y-124198927D01*
G37*
G36*
X129653512Y-115943927D02*
G01*
X129802812Y-115973624D01*
X129966784Y-116041544D01*
X130114354Y-116140147D01*
X130239853Y-116265646D01*
X130338456Y-116413216D01*
X130406376Y-116577188D01*
X130441000Y-116751259D01*
X130441000Y-116928741D01*
X130406376Y-117102812D01*
X130338456Y-117266784D01*
X130239853Y-117414354D01*
X130114354Y-117539853D01*
X129966784Y-117638456D01*
X129802812Y-117706376D01*
X129653512Y-117736073D01*
X129628742Y-117741000D01*
X129451258Y-117741000D01*
X129426488Y-117736073D01*
X129277188Y-117706376D01*
X129113216Y-117638456D01*
X128965646Y-117539853D01*
X128840147Y-117414354D01*
X128741544Y-117266784D01*
X128673624Y-117102812D01*
X128639000Y-116928741D01*
X128639000Y-116751259D01*
X128673624Y-116577188D01*
X128741544Y-116413216D01*
X128840147Y-116265646D01*
X128965646Y-116140147D01*
X129113216Y-116041544D01*
X129277188Y-115973624D01*
X129426488Y-115943927D01*
X129451258Y-115939000D01*
X129628742Y-115939000D01*
X129653512Y-115943927D01*
G37*
G36*
X129653512Y-113403927D02*
G01*
X129802812Y-113433624D01*
X129966784Y-113501544D01*
X130114354Y-113600147D01*
X130239853Y-113725646D01*
X130338456Y-113873216D01*
X130406376Y-114037188D01*
X130441000Y-114211259D01*
X130441000Y-114388741D01*
X130406376Y-114562812D01*
X130338456Y-114726784D01*
X130239853Y-114874354D01*
X130114354Y-114999853D01*
X129966784Y-115098456D01*
X129802812Y-115166376D01*
X129653512Y-115196073D01*
X129628742Y-115201000D01*
X129451258Y-115201000D01*
X129426488Y-115196073D01*
X129277188Y-115166376D01*
X129113216Y-115098456D01*
X128965646Y-114999853D01*
X128840147Y-114874354D01*
X128741544Y-114726784D01*
X128673624Y-114562812D01*
X128639000Y-114388741D01*
X128639000Y-114211259D01*
X128673624Y-114037188D01*
X128741544Y-113873216D01*
X128840147Y-113725646D01*
X128965646Y-113600147D01*
X129113216Y-113501544D01*
X129277188Y-113433624D01*
X129426488Y-113403927D01*
X129451258Y-113399000D01*
X129628742Y-113399000D01*
X129653512Y-113403927D01*
G37*
G36*
X129653512Y-110863927D02*
G01*
X129802812Y-110893624D01*
X129966784Y-110961544D01*
X130114354Y-111060147D01*
X130239853Y-111185646D01*
X130338456Y-111333216D01*
X130406376Y-111497188D01*
X130441000Y-111671259D01*
X130441000Y-111848741D01*
X130406376Y-112022812D01*
X130338456Y-112186784D01*
X130239853Y-112334354D01*
X130114354Y-112459853D01*
X129966784Y-112558456D01*
X129802812Y-112626376D01*
X129653512Y-112656073D01*
X129628742Y-112661000D01*
X129451258Y-112661000D01*
X129426488Y-112656073D01*
X129277188Y-112626376D01*
X129113216Y-112558456D01*
X128965646Y-112459853D01*
X128840147Y-112334354D01*
X128741544Y-112186784D01*
X128673624Y-112022812D01*
X128639000Y-111848741D01*
X128639000Y-111671259D01*
X128673624Y-111497188D01*
X128741544Y-111333216D01*
X128840147Y-111185646D01*
X128965646Y-111060147D01*
X129113216Y-110961544D01*
X129277188Y-110893624D01*
X129426488Y-110863927D01*
X129451258Y-110859000D01*
X129628742Y-110859000D01*
X129653512Y-110863927D01*
G37*
G36*
X129653512Y-108323927D02*
G01*
X129802812Y-108353624D01*
X129966784Y-108421544D01*
X130114354Y-108520147D01*
X130239853Y-108645646D01*
X130338456Y-108793216D01*
X130406376Y-108957188D01*
X130441000Y-109131259D01*
X130441000Y-109308741D01*
X130406376Y-109482812D01*
X130338456Y-109646784D01*
X130239853Y-109794354D01*
X130114354Y-109919853D01*
X129966784Y-110018456D01*
X129802812Y-110086376D01*
X129653512Y-110116073D01*
X129628742Y-110121000D01*
X129451258Y-110121000D01*
X129426488Y-110116073D01*
X129277188Y-110086376D01*
X129113216Y-110018456D01*
X128965646Y-109919853D01*
X128840147Y-109794354D01*
X128741544Y-109646784D01*
X128673624Y-109482812D01*
X128639000Y-109308741D01*
X128639000Y-109131259D01*
X128673624Y-108957188D01*
X128741544Y-108793216D01*
X128840147Y-108645646D01*
X128965646Y-108520147D01*
X129113216Y-108421544D01*
X129277188Y-108353624D01*
X129426488Y-108323927D01*
X129451258Y-108319000D01*
X129628742Y-108319000D01*
X129653512Y-108323927D01*
G37*
G36*
X118235589Y-108458876D02*
G01*
X118334893Y-108478629D01*
X118475206Y-108536748D01*
X118601484Y-108621125D01*
X118708875Y-108728516D01*
X118793252Y-108854794D01*
X118851371Y-108995107D01*
X118881000Y-109144063D01*
X118881000Y-109295937D01*
X118851371Y-109444893D01*
X118793252Y-109585206D01*
X118708875Y-109711484D01*
X118601484Y-109818875D01*
X118475206Y-109903252D01*
X118334893Y-109961371D01*
X118235589Y-109981124D01*
X118185938Y-109991000D01*
X118034062Y-109991000D01*
X117984411Y-109981124D01*
X117885107Y-109961371D01*
X117744794Y-109903252D01*
X117618516Y-109818875D01*
X117511125Y-109711484D01*
X117426748Y-109585206D01*
X117368629Y-109444893D01*
X117339000Y-109295937D01*
X117339000Y-109144063D01*
X117368629Y-108995107D01*
X117426748Y-108854794D01*
X117511125Y-108728516D01*
X117618516Y-108621125D01*
X117744794Y-108536748D01*
X117885107Y-108478629D01*
X117984411Y-108458876D01*
X118034062Y-108449000D01*
X118185938Y-108449000D01*
X118235589Y-108458876D01*
G37*
G36*
X120775589Y-108458876D02*
G01*
X120874893Y-108478629D01*
X121015206Y-108536748D01*
X121141484Y-108621125D01*
X121248875Y-108728516D01*
X121333252Y-108854794D01*
X121391371Y-108995107D01*
X121421000Y-109144063D01*
X121421000Y-109295937D01*
X121391371Y-109444893D01*
X121333252Y-109585206D01*
X121248875Y-109711484D01*
X121141484Y-109818875D01*
X121015206Y-109903252D01*
X120874893Y-109961371D01*
X120775589Y-109981124D01*
X120725938Y-109991000D01*
X120574062Y-109991000D01*
X120524411Y-109981124D01*
X120425107Y-109961371D01*
X120284794Y-109903252D01*
X120158516Y-109818875D01*
X120051125Y-109711484D01*
X119966748Y-109585206D01*
X119908629Y-109444893D01*
X119879000Y-109295937D01*
X119879000Y-109144063D01*
X119908629Y-108995107D01*
X119966748Y-108854794D01*
X120051125Y-108728516D01*
X120158516Y-108621125D01*
X120284794Y-108536748D01*
X120425107Y-108478629D01*
X120524411Y-108458876D01*
X120574062Y-108449000D01*
X120725938Y-108449000D01*
X120775589Y-108458876D01*
G37*
G36*
X115695589Y-108458876D02*
G01*
X115794893Y-108478629D01*
X115935206Y-108536748D01*
X116061484Y-108621125D01*
X116168875Y-108728516D01*
X116253252Y-108854794D01*
X116311371Y-108995107D01*
X116341000Y-109144063D01*
X116341000Y-109295937D01*
X116311371Y-109444893D01*
X116253252Y-109585206D01*
X116168875Y-109711484D01*
X116061484Y-109818875D01*
X115935206Y-109903252D01*
X115794893Y-109961371D01*
X115695589Y-109981124D01*
X115645938Y-109991000D01*
X115494062Y-109991000D01*
X115444411Y-109981124D01*
X115345107Y-109961371D01*
X115204794Y-109903252D01*
X115078516Y-109818875D01*
X114971125Y-109711484D01*
X114886748Y-109585206D01*
X114828629Y-109444893D01*
X114799000Y-109295937D01*
X114799000Y-109144063D01*
X114828629Y-108995107D01*
X114886748Y-108854794D01*
X114971125Y-108728516D01*
X115078516Y-108621125D01*
X115204794Y-108536748D01*
X115345107Y-108478629D01*
X115444411Y-108458876D01*
X115494062Y-108449000D01*
X115645938Y-108449000D01*
X115695589Y-108458876D01*
G37*
G36*
X130441000Y-107581000D02*
G01*
X128639000Y-107581000D01*
X128639000Y-105779000D01*
X130441000Y-105779000D01*
X130441000Y-107581000D01*
G37*
G36*
X115695589Y-101727876D02*
G01*
X115794893Y-101747629D01*
X115935206Y-101805748D01*
X116061484Y-101890125D01*
X116168875Y-101997516D01*
X116253252Y-102123794D01*
X116311371Y-102264107D01*
X116341000Y-102413063D01*
X116341000Y-102564937D01*
X116311371Y-102713893D01*
X116253252Y-102854206D01*
X116168875Y-102980484D01*
X116061484Y-103087875D01*
X115935206Y-103172252D01*
X115794893Y-103230371D01*
X115695589Y-103250124D01*
X115645938Y-103260000D01*
X115494062Y-103260000D01*
X115444411Y-103250124D01*
X115345107Y-103230371D01*
X115204794Y-103172252D01*
X115078516Y-103087875D01*
X114971125Y-102980484D01*
X114886748Y-102854206D01*
X114828629Y-102713893D01*
X114799000Y-102564937D01*
X114799000Y-102413063D01*
X114828629Y-102264107D01*
X114886748Y-102123794D01*
X114971125Y-101997516D01*
X115078516Y-101890125D01*
X115204794Y-101805748D01*
X115345107Y-101747629D01*
X115444411Y-101727876D01*
X115494062Y-101718000D01*
X115645938Y-101718000D01*
X115695589Y-101727876D01*
G37*
G36*
X120775589Y-101727876D02*
G01*
X120874893Y-101747629D01*
X121015206Y-101805748D01*
X121141484Y-101890125D01*
X121248875Y-101997516D01*
X121333252Y-102123794D01*
X121391371Y-102264107D01*
X121421000Y-102413063D01*
X121421000Y-102564937D01*
X121391371Y-102713893D01*
X121333252Y-102854206D01*
X121248875Y-102980484D01*
X121141484Y-103087875D01*
X121015206Y-103172252D01*
X120874893Y-103230371D01*
X120775589Y-103250124D01*
X120725938Y-103260000D01*
X120574062Y-103260000D01*
X120524411Y-103250124D01*
X120425107Y-103230371D01*
X120284794Y-103172252D01*
X120158516Y-103087875D01*
X120051125Y-102980484D01*
X119966748Y-102854206D01*
X119908629Y-102713893D01*
X119879000Y-102564937D01*
X119879000Y-102413063D01*
X119908629Y-102264107D01*
X119966748Y-102123794D01*
X120051125Y-101997516D01*
X120158516Y-101890125D01*
X120284794Y-101805748D01*
X120425107Y-101747629D01*
X120524411Y-101727876D01*
X120574062Y-101718000D01*
X120725938Y-101718000D01*
X120775589Y-101727876D01*
G37*
G36*
X118235589Y-101727876D02*
G01*
X118334893Y-101747629D01*
X118475206Y-101805748D01*
X118601484Y-101890125D01*
X118708875Y-101997516D01*
X118793252Y-102123794D01*
X118851371Y-102264107D01*
X118881000Y-102413063D01*
X118881000Y-102564937D01*
X118851371Y-102713893D01*
X118793252Y-102854206D01*
X118708875Y-102980484D01*
X118601484Y-103087875D01*
X118475206Y-103172252D01*
X118334893Y-103230371D01*
X118235589Y-103250124D01*
X118185938Y-103260000D01*
X118034062Y-103260000D01*
X117984411Y-103250124D01*
X117885107Y-103230371D01*
X117744794Y-103172252D01*
X117618516Y-103087875D01*
X117511125Y-102980484D01*
X117426748Y-102854206D01*
X117368629Y-102713893D01*
X117339000Y-102564937D01*
X117339000Y-102413063D01*
X117368629Y-102264107D01*
X117426748Y-102123794D01*
X117511125Y-101997516D01*
X117618516Y-101890125D01*
X117744794Y-101805748D01*
X117885107Y-101747629D01*
X117984411Y-101727876D01*
X118034062Y-101718000D01*
X118185938Y-101718000D01*
X118235589Y-101727876D01*
G37*
G36*
X129653512Y-100703927D02*
G01*
X129802812Y-100733624D01*
X129966784Y-100801544D01*
X130114354Y-100900147D01*
X130239853Y-101025646D01*
X130338456Y-101173216D01*
X130406376Y-101337188D01*
X130441000Y-101511259D01*
X130441000Y-101688741D01*
X130406376Y-101862812D01*
X130338456Y-102026784D01*
X130239853Y-102174354D01*
X130114354Y-102299853D01*
X129966784Y-102398456D01*
X129802812Y-102466376D01*
X129653512Y-102496073D01*
X129628742Y-102501000D01*
X129451258Y-102501000D01*
X129426488Y-102496073D01*
X129277188Y-102466376D01*
X129113216Y-102398456D01*
X128965646Y-102299853D01*
X128840147Y-102174354D01*
X128741544Y-102026784D01*
X128673624Y-101862812D01*
X128639000Y-101688741D01*
X128639000Y-101511259D01*
X128673624Y-101337188D01*
X128741544Y-101173216D01*
X128840147Y-101025646D01*
X128965646Y-100900147D01*
X129113216Y-100801544D01*
X129277188Y-100733624D01*
X129426488Y-100703927D01*
X129451258Y-100699000D01*
X129628742Y-100699000D01*
X129653512Y-100703927D01*
G37*
G36*
X130441000Y-99961000D02*
G01*
X128639000Y-99961000D01*
X128639000Y-98159000D01*
X130441000Y-98159000D01*
X130441000Y-99961000D01*
G37*
G36*
X129653512Y-93083927D02*
G01*
X129802812Y-93113624D01*
X129966784Y-93181544D01*
X130114354Y-93280147D01*
X130239853Y-93405646D01*
X130338456Y-93553216D01*
X130406376Y-93717188D01*
X130441000Y-93891259D01*
X130441000Y-94068741D01*
X130406376Y-94242812D01*
X130338456Y-94406784D01*
X130239853Y-94554354D01*
X130114354Y-94679853D01*
X129966784Y-94778456D01*
X129802812Y-94846376D01*
X129653512Y-94876073D01*
X129628742Y-94881000D01*
X129451258Y-94881000D01*
X129426488Y-94876073D01*
X129277188Y-94846376D01*
X129113216Y-94778456D01*
X128965646Y-94679853D01*
X128840147Y-94554354D01*
X128741544Y-94406784D01*
X128673624Y-94242812D01*
X128639000Y-94068741D01*
X128639000Y-93891259D01*
X128673624Y-93717188D01*
X128741544Y-93553216D01*
X128840147Y-93405646D01*
X128965646Y-93280147D01*
X129113216Y-93181544D01*
X129277188Y-93113624D01*
X129426488Y-93083927D01*
X129451258Y-93079000D01*
X129628742Y-93079000D01*
X129653512Y-93083927D01*
G37*
G36*
X130441000Y-92341000D02*
G01*
X128639000Y-92341000D01*
X128639000Y-90539000D01*
X130441000Y-90539000D01*
X130441000Y-92341000D01*
G37*
G36*
X129653512Y-85463927D02*
G01*
X129802812Y-85493624D01*
X129966784Y-85561544D01*
X130114354Y-85660147D01*
X130239853Y-85785646D01*
X130338456Y-85933216D01*
X130406376Y-86097188D01*
X130441000Y-86271259D01*
X130441000Y-86448741D01*
X130406376Y-86622812D01*
X130338456Y-86786784D01*
X130239853Y-86934354D01*
X130114354Y-87059853D01*
X129966784Y-87158456D01*
X129802812Y-87226376D01*
X129653512Y-87256073D01*
X129628742Y-87261000D01*
X129451258Y-87261000D01*
X129426488Y-87256073D01*
X129277188Y-87226376D01*
X129113216Y-87158456D01*
X128965646Y-87059853D01*
X128840147Y-86934354D01*
X128741544Y-86786784D01*
X128673624Y-86622812D01*
X128639000Y-86448741D01*
X128639000Y-86271259D01*
X128673624Y-86097188D01*
X128741544Y-85933216D01*
X128840147Y-85785646D01*
X128965646Y-85660147D01*
X129113216Y-85561544D01*
X129277188Y-85493624D01*
X129426488Y-85463927D01*
X129451258Y-85459000D01*
X129628742Y-85459000D01*
X129653512Y-85463927D01*
G37*
G36*
X112643228Y-84271703D02*
G01*
X112798100Y-84335853D01*
X112937481Y-84428985D01*
X113056015Y-84547519D01*
X113149147Y-84686900D01*
X113213297Y-84841772D01*
X113246000Y-85006184D01*
X113246000Y-85173816D01*
X113213297Y-85338228D01*
X113149147Y-85493100D01*
X113056015Y-85632481D01*
X112937481Y-85751015D01*
X112798100Y-85844147D01*
X112643228Y-85908297D01*
X112478816Y-85941000D01*
X112311184Y-85941000D01*
X112146772Y-85908297D01*
X111991900Y-85844147D01*
X111852519Y-85751015D01*
X111733985Y-85632481D01*
X111640853Y-85493100D01*
X111576703Y-85338228D01*
X111544000Y-85173816D01*
X111544000Y-85006184D01*
X111576703Y-84841772D01*
X111640853Y-84686900D01*
X111733985Y-84547519D01*
X111852519Y-84428985D01*
X111991900Y-84335853D01*
X112146772Y-84271703D01*
X112311184Y-84239000D01*
X112478816Y-84239000D01*
X112643228Y-84271703D01*
G37*
G36*
X105023228Y-84271703D02*
G01*
X105178100Y-84335853D01*
X105317481Y-84428985D01*
X105436015Y-84547519D01*
X105529147Y-84686900D01*
X105593297Y-84841772D01*
X105626000Y-85006184D01*
X105626000Y-85173816D01*
X105593297Y-85338228D01*
X105529147Y-85493100D01*
X105436015Y-85632481D01*
X105317481Y-85751015D01*
X105178100Y-85844147D01*
X105023228Y-85908297D01*
X104858816Y-85941000D01*
X104691184Y-85941000D01*
X104526772Y-85908297D01*
X104371900Y-85844147D01*
X104232519Y-85751015D01*
X104113985Y-85632481D01*
X104020853Y-85493100D01*
X103956703Y-85338228D01*
X103924000Y-85173816D01*
X103924000Y-85006184D01*
X103956703Y-84841772D01*
X104020853Y-84686900D01*
X104113985Y-84547519D01*
X104232519Y-84428985D01*
X104371900Y-84335853D01*
X104526772Y-84271703D01*
X104691184Y-84239000D01*
X104858816Y-84239000D01*
X105023228Y-84271703D01*
G37*
G36*
X116965589Y-83693876D02*
G01*
X117064893Y-83713629D01*
X117205206Y-83771748D01*
X117331484Y-83856125D01*
X117438875Y-83963516D01*
X117523252Y-84089794D01*
X117581371Y-84230107D01*
X117581371Y-84230109D01*
X117611000Y-84379062D01*
X117611000Y-84530938D01*
X117601124Y-84580589D01*
X117581371Y-84679893D01*
X117523252Y-84820206D01*
X117438875Y-84946484D01*
X117331484Y-85053875D01*
X117205206Y-85138252D01*
X117064893Y-85196371D01*
X116965589Y-85216124D01*
X116915938Y-85226000D01*
X116764062Y-85226000D01*
X116714411Y-85216124D01*
X116615107Y-85196371D01*
X116474794Y-85138252D01*
X116348516Y-85053875D01*
X116241125Y-84946484D01*
X116156748Y-84820206D01*
X116098629Y-84679893D01*
X116078876Y-84580589D01*
X116069000Y-84530938D01*
X116069000Y-84379062D01*
X116098629Y-84230109D01*
X116098629Y-84230107D01*
X116156748Y-84089794D01*
X116241125Y-83963516D01*
X116348516Y-83856125D01*
X116474794Y-83771748D01*
X116615107Y-83713629D01*
X116714411Y-83693876D01*
X116764062Y-83684000D01*
X116915938Y-83684000D01*
X116965589Y-83693876D01*
G37*
G36*
X119505589Y-83693876D02*
G01*
X119604893Y-83713629D01*
X119745206Y-83771748D01*
X119871484Y-83856125D01*
X119978875Y-83963516D01*
X120063252Y-84089794D01*
X120121371Y-84230107D01*
X120121371Y-84230109D01*
X120151000Y-84379062D01*
X120151000Y-84530938D01*
X120141124Y-84580589D01*
X120121371Y-84679893D01*
X120063252Y-84820206D01*
X119978875Y-84946484D01*
X119871484Y-85053875D01*
X119745206Y-85138252D01*
X119604893Y-85196371D01*
X119505589Y-85216124D01*
X119455938Y-85226000D01*
X119304062Y-85226000D01*
X119254411Y-85216124D01*
X119155107Y-85196371D01*
X119014794Y-85138252D01*
X118888516Y-85053875D01*
X118781125Y-84946484D01*
X118696748Y-84820206D01*
X118638629Y-84679893D01*
X118618876Y-84580589D01*
X118609000Y-84530938D01*
X118609000Y-84379062D01*
X118638629Y-84230109D01*
X118638629Y-84230107D01*
X118696748Y-84089794D01*
X118781125Y-83963516D01*
X118888516Y-83856125D01*
X119014794Y-83771748D01*
X119155107Y-83713629D01*
X119254411Y-83693876D01*
X119304062Y-83684000D01*
X119455938Y-83684000D01*
X119505589Y-83693876D01*
G37*
G36*
X122045589Y-83693876D02*
G01*
X122144893Y-83713629D01*
X122285206Y-83771748D01*
X122411484Y-83856125D01*
X122518875Y-83963516D01*
X122603252Y-84089794D01*
X122661371Y-84230107D01*
X122661371Y-84230109D01*
X122691000Y-84379062D01*
X122691000Y-84530938D01*
X122681124Y-84580589D01*
X122661371Y-84679893D01*
X122603252Y-84820206D01*
X122518875Y-84946484D01*
X122411484Y-85053875D01*
X122285206Y-85138252D01*
X122144893Y-85196371D01*
X122045589Y-85216124D01*
X121995938Y-85226000D01*
X121844062Y-85226000D01*
X121794411Y-85216124D01*
X121695107Y-85196371D01*
X121554794Y-85138252D01*
X121428516Y-85053875D01*
X121321125Y-84946484D01*
X121236748Y-84820206D01*
X121178629Y-84679893D01*
X121158876Y-84580589D01*
X121149000Y-84530938D01*
X121149000Y-84379062D01*
X121178629Y-84230109D01*
X121178629Y-84230107D01*
X121236748Y-84089794D01*
X121321125Y-83963516D01*
X121428516Y-83856125D01*
X121554794Y-83771748D01*
X121695107Y-83713629D01*
X121794411Y-83693876D01*
X121844062Y-83684000D01*
X121995938Y-83684000D01*
X122045589Y-83693876D01*
G37*
G36*
X98550589Y-83693876D02*
G01*
X98649893Y-83713629D01*
X98790206Y-83771748D01*
X98916484Y-83856125D01*
X99023875Y-83963516D01*
X99108252Y-84089794D01*
X99166371Y-84230107D01*
X99166371Y-84230109D01*
X99196000Y-84379062D01*
X99196000Y-84530938D01*
X99186124Y-84580589D01*
X99166371Y-84679893D01*
X99108252Y-84820206D01*
X99023875Y-84946484D01*
X98916484Y-85053875D01*
X98790206Y-85138252D01*
X98649893Y-85196371D01*
X98550589Y-85216124D01*
X98500938Y-85226000D01*
X98349062Y-85226000D01*
X98299411Y-85216124D01*
X98200107Y-85196371D01*
X98059794Y-85138252D01*
X97933516Y-85053875D01*
X97826125Y-84946484D01*
X97741748Y-84820206D01*
X97683629Y-84679893D01*
X97663876Y-84580589D01*
X97654000Y-84530938D01*
X97654000Y-84379062D01*
X97683629Y-84230109D01*
X97683629Y-84230107D01*
X97741748Y-84089794D01*
X97826125Y-83963516D01*
X97933516Y-83856125D01*
X98059794Y-83771748D01*
X98200107Y-83713629D01*
X98299411Y-83693876D01*
X98349062Y-83684000D01*
X98500938Y-83684000D01*
X98550589Y-83693876D01*
G37*
G36*
X101090589Y-83693876D02*
G01*
X101189893Y-83713629D01*
X101330206Y-83771748D01*
X101456484Y-83856125D01*
X101563875Y-83963516D01*
X101648252Y-84089794D01*
X101706371Y-84230107D01*
X101706371Y-84230109D01*
X101736000Y-84379062D01*
X101736000Y-84530938D01*
X101726124Y-84580589D01*
X101706371Y-84679893D01*
X101648252Y-84820206D01*
X101563875Y-84946484D01*
X101456484Y-85053875D01*
X101330206Y-85138252D01*
X101189893Y-85196371D01*
X101090589Y-85216124D01*
X101040938Y-85226000D01*
X100889062Y-85226000D01*
X100839411Y-85216124D01*
X100740107Y-85196371D01*
X100599794Y-85138252D01*
X100473516Y-85053875D01*
X100366125Y-84946484D01*
X100281748Y-84820206D01*
X100223629Y-84679893D01*
X100203876Y-84580589D01*
X100194000Y-84530938D01*
X100194000Y-84379062D01*
X100223629Y-84230109D01*
X100223629Y-84230107D01*
X100281748Y-84089794D01*
X100366125Y-83963516D01*
X100473516Y-83856125D01*
X100599794Y-83771748D01*
X100740107Y-83713629D01*
X100839411Y-83693876D01*
X100889062Y-83684000D01*
X101040938Y-83684000D01*
X101090589Y-83693876D01*
G37*
G36*
X96010589Y-83693876D02*
G01*
X96109893Y-83713629D01*
X96250206Y-83771748D01*
X96376484Y-83856125D01*
X96483875Y-83963516D01*
X96568252Y-84089794D01*
X96626371Y-84230107D01*
X96626371Y-84230109D01*
X96656000Y-84379062D01*
X96656000Y-84530938D01*
X96646124Y-84580589D01*
X96626371Y-84679893D01*
X96568252Y-84820206D01*
X96483875Y-84946484D01*
X96376484Y-85053875D01*
X96250206Y-85138252D01*
X96109893Y-85196371D01*
X96010589Y-85216124D01*
X95960938Y-85226000D01*
X95809062Y-85226000D01*
X95759411Y-85216124D01*
X95660107Y-85196371D01*
X95519794Y-85138252D01*
X95393516Y-85053875D01*
X95286125Y-84946484D01*
X95201748Y-84820206D01*
X95143629Y-84679893D01*
X95123876Y-84580589D01*
X95114000Y-84530938D01*
X95114000Y-84379062D01*
X95143629Y-84230109D01*
X95143629Y-84230107D01*
X95201748Y-84089794D01*
X95286125Y-83963516D01*
X95393516Y-83856125D01*
X95519794Y-83771748D01*
X95660107Y-83713629D01*
X95759411Y-83693876D01*
X95809062Y-83684000D01*
X95960938Y-83684000D01*
X96010589Y-83693876D01*
G37*
G36*
X129653512Y-82923927D02*
G01*
X129802812Y-82953624D01*
X129966784Y-83021544D01*
X130114354Y-83120147D01*
X130239853Y-83245646D01*
X130338456Y-83393216D01*
X130406376Y-83557188D01*
X130441000Y-83731259D01*
X130441000Y-83908741D01*
X130406376Y-84082812D01*
X130338456Y-84246784D01*
X130239853Y-84394354D01*
X130114354Y-84519853D01*
X129966784Y-84618456D01*
X129802812Y-84686376D01*
X129653512Y-84716073D01*
X129628742Y-84721000D01*
X129451258Y-84721000D01*
X129426488Y-84716073D01*
X129277188Y-84686376D01*
X129113216Y-84618456D01*
X128965646Y-84519853D01*
X128840147Y-84394354D01*
X128741544Y-84246784D01*
X128673624Y-84082812D01*
X128639000Y-83908741D01*
X128639000Y-83731259D01*
X128673624Y-83557188D01*
X128741544Y-83393216D01*
X128840147Y-83245646D01*
X128965646Y-83120147D01*
X129113216Y-83021544D01*
X129277188Y-82953624D01*
X129426488Y-82923927D01*
X129451258Y-82919000D01*
X129628742Y-82919000D01*
X129653512Y-82923927D01*
G37*
G36*
X105023228Y-81731703D02*
G01*
X105178100Y-81795853D01*
X105317481Y-81888985D01*
X105436015Y-82007519D01*
X105529147Y-82146900D01*
X105593297Y-82301772D01*
X105626000Y-82466184D01*
X105626000Y-82633816D01*
X105593297Y-82798228D01*
X105529147Y-82953100D01*
X105436015Y-83092481D01*
X105317481Y-83211015D01*
X105178100Y-83304147D01*
X105023228Y-83368297D01*
X104858816Y-83401000D01*
X104691184Y-83401000D01*
X104526772Y-83368297D01*
X104371900Y-83304147D01*
X104232519Y-83211015D01*
X104113985Y-83092481D01*
X104020853Y-82953100D01*
X103956703Y-82798228D01*
X103924000Y-82633816D01*
X103924000Y-82466184D01*
X103956703Y-82301772D01*
X104020853Y-82146900D01*
X104113985Y-82007519D01*
X104232519Y-81888985D01*
X104371900Y-81795853D01*
X104526772Y-81731703D01*
X104691184Y-81699000D01*
X104858816Y-81699000D01*
X105023228Y-81731703D01*
G37*
G36*
X112643228Y-81731703D02*
G01*
X112798100Y-81795853D01*
X112937481Y-81888985D01*
X113056015Y-82007519D01*
X113149147Y-82146900D01*
X113213297Y-82301772D01*
X113246000Y-82466184D01*
X113246000Y-82633816D01*
X113213297Y-82798228D01*
X113149147Y-82953100D01*
X113056015Y-83092481D01*
X112937481Y-83211015D01*
X112798100Y-83304147D01*
X112643228Y-83368297D01*
X112478816Y-83401000D01*
X112311184Y-83401000D01*
X112146772Y-83368297D01*
X111991900Y-83304147D01*
X111852519Y-83211015D01*
X111733985Y-83092481D01*
X111640853Y-82953100D01*
X111576703Y-82798228D01*
X111544000Y-82633816D01*
X111544000Y-82466184D01*
X111576703Y-82301772D01*
X111640853Y-82146900D01*
X111733985Y-82007519D01*
X111852519Y-81888985D01*
X111991900Y-81795853D01*
X112146772Y-81731703D01*
X112311184Y-81699000D01*
X112478816Y-81699000D01*
X112643228Y-81731703D01*
G37*
G36*
X129653512Y-80383927D02*
G01*
X129802812Y-80413624D01*
X129966784Y-80481544D01*
X130114354Y-80580147D01*
X130239853Y-80705646D01*
X130338456Y-80853216D01*
X130406376Y-81017188D01*
X130441000Y-81191259D01*
X130441000Y-81368741D01*
X130406376Y-81542812D01*
X130338456Y-81706784D01*
X130239853Y-81854354D01*
X130114354Y-81979853D01*
X129966784Y-82078456D01*
X129802812Y-82146376D01*
X129653512Y-82176073D01*
X129628742Y-82181000D01*
X129451258Y-82181000D01*
X129426488Y-82176073D01*
X129277188Y-82146376D01*
X129113216Y-82078456D01*
X128965646Y-81979853D01*
X128840147Y-81854354D01*
X128741544Y-81706784D01*
X128673624Y-81542812D01*
X128639000Y-81368741D01*
X128639000Y-81191259D01*
X128673624Y-81017188D01*
X128741544Y-80853216D01*
X128840147Y-80705646D01*
X128965646Y-80580147D01*
X129113216Y-80481544D01*
X129277188Y-80413624D01*
X129426488Y-80383927D01*
X129451258Y-80379000D01*
X129628742Y-80379000D01*
X129653512Y-80383927D01*
G37*
G36*
X105023228Y-79191703D02*
G01*
X105178100Y-79255853D01*
X105317481Y-79348985D01*
X105436015Y-79467519D01*
X105529147Y-79606900D01*
X105593297Y-79761772D01*
X105626000Y-79926184D01*
X105626000Y-80093816D01*
X105593297Y-80258228D01*
X105529147Y-80413100D01*
X105436015Y-80552481D01*
X105317481Y-80671015D01*
X105178100Y-80764147D01*
X105023228Y-80828297D01*
X104858816Y-80861000D01*
X104691184Y-80861000D01*
X104526772Y-80828297D01*
X104371900Y-80764147D01*
X104232519Y-80671015D01*
X104113985Y-80552481D01*
X104020853Y-80413100D01*
X103956703Y-80258228D01*
X103924000Y-80093816D01*
X103924000Y-79926184D01*
X103956703Y-79761772D01*
X104020853Y-79606900D01*
X104113985Y-79467519D01*
X104232519Y-79348985D01*
X104371900Y-79255853D01*
X104526772Y-79191703D01*
X104691184Y-79159000D01*
X104858816Y-79159000D01*
X105023228Y-79191703D01*
G37*
G36*
X112643228Y-79191703D02*
G01*
X112798100Y-79255853D01*
X112937481Y-79348985D01*
X113056015Y-79467519D01*
X113149147Y-79606900D01*
X113213297Y-79761772D01*
X113246000Y-79926184D01*
X113246000Y-80093816D01*
X113213297Y-80258228D01*
X113149147Y-80413100D01*
X113056015Y-80552481D01*
X112937481Y-80671015D01*
X112798100Y-80764147D01*
X112643228Y-80828297D01*
X112478816Y-80861000D01*
X112311184Y-80861000D01*
X112146772Y-80828297D01*
X111991900Y-80764147D01*
X111852519Y-80671015D01*
X111733985Y-80552481D01*
X111640853Y-80413100D01*
X111576703Y-80258228D01*
X111544000Y-80093816D01*
X111544000Y-79926184D01*
X111576703Y-79761772D01*
X111640853Y-79606900D01*
X111733985Y-79467519D01*
X111852519Y-79348985D01*
X111991900Y-79255853D01*
X112146772Y-79191703D01*
X112311184Y-79159000D01*
X112478816Y-79159000D01*
X112643228Y-79191703D01*
G37*
G36*
X130441000Y-79641000D02*
G01*
X128639000Y-79641000D01*
X128639000Y-77839000D01*
X130441000Y-77839000D01*
X130441000Y-79641000D01*
G37*
G36*
X105023228Y-76651703D02*
G01*
X105178100Y-76715853D01*
X105317481Y-76808985D01*
X105436015Y-76927519D01*
X105529147Y-77066900D01*
X105593297Y-77221772D01*
X105626000Y-77386184D01*
X105626000Y-77553816D01*
X105593297Y-77718228D01*
X105529147Y-77873100D01*
X105436015Y-78012481D01*
X105317481Y-78131015D01*
X105178100Y-78224147D01*
X105023228Y-78288297D01*
X104858816Y-78321000D01*
X104691184Y-78321000D01*
X104526772Y-78288297D01*
X104371900Y-78224147D01*
X104232519Y-78131015D01*
X104113985Y-78012481D01*
X104020853Y-77873100D01*
X103956703Y-77718228D01*
X103924000Y-77553816D01*
X103924000Y-77386184D01*
X103956703Y-77221772D01*
X104020853Y-77066900D01*
X104113985Y-76927519D01*
X104232519Y-76808985D01*
X104371900Y-76715853D01*
X104526772Y-76651703D01*
X104691184Y-76619000D01*
X104858816Y-76619000D01*
X105023228Y-76651703D01*
G37*
G36*
X112643228Y-76651703D02*
G01*
X112798100Y-76715853D01*
X112937481Y-76808985D01*
X113056015Y-76927519D01*
X113149147Y-77066900D01*
X113213297Y-77221772D01*
X113246000Y-77386184D01*
X113246000Y-77553816D01*
X113213297Y-77718228D01*
X113149147Y-77873100D01*
X113056015Y-78012481D01*
X112937481Y-78131015D01*
X112798100Y-78224147D01*
X112643228Y-78288297D01*
X112478816Y-78321000D01*
X112311184Y-78321000D01*
X112146772Y-78288297D01*
X111991900Y-78224147D01*
X111852519Y-78131015D01*
X111733985Y-78012481D01*
X111640853Y-77873100D01*
X111576703Y-77718228D01*
X111544000Y-77553816D01*
X111544000Y-77386184D01*
X111576703Y-77221772D01*
X111640853Y-77066900D01*
X111733985Y-76927519D01*
X111852519Y-76808985D01*
X111991900Y-76715853D01*
X112146772Y-76651703D01*
X112311184Y-76619000D01*
X112478816Y-76619000D01*
X112643228Y-76651703D01*
G37*
G36*
X105023228Y-74111703D02*
G01*
X105178100Y-74175853D01*
X105317481Y-74268985D01*
X105436015Y-74387519D01*
X105529147Y-74526900D01*
X105593297Y-74681772D01*
X105626000Y-74846184D01*
X105626000Y-75013816D01*
X105593297Y-75178228D01*
X105529147Y-75333100D01*
X105436015Y-75472481D01*
X105317481Y-75591015D01*
X105178100Y-75684147D01*
X105023228Y-75748297D01*
X104858816Y-75781000D01*
X104691184Y-75781000D01*
X104526772Y-75748297D01*
X104371900Y-75684147D01*
X104232519Y-75591015D01*
X104113985Y-75472481D01*
X104020853Y-75333100D01*
X103956703Y-75178228D01*
X103924000Y-75013816D01*
X103924000Y-74846184D01*
X103956703Y-74681772D01*
X104020853Y-74526900D01*
X104113985Y-74387519D01*
X104232519Y-74268985D01*
X104371900Y-74175853D01*
X104526772Y-74111703D01*
X104691184Y-74079000D01*
X104858816Y-74079000D01*
X105023228Y-74111703D01*
G37*
G36*
X112643228Y-74111703D02*
G01*
X112798100Y-74175853D01*
X112937481Y-74268985D01*
X113056015Y-74387519D01*
X113149147Y-74526900D01*
X113213297Y-74681772D01*
X113246000Y-74846184D01*
X113246000Y-75013816D01*
X113213297Y-75178228D01*
X113149147Y-75333100D01*
X113056015Y-75472481D01*
X112937481Y-75591015D01*
X112798100Y-75684147D01*
X112643228Y-75748297D01*
X112478816Y-75781000D01*
X112311184Y-75781000D01*
X112146772Y-75748297D01*
X111991900Y-75684147D01*
X111852519Y-75591015D01*
X111733985Y-75472481D01*
X111640853Y-75333100D01*
X111576703Y-75178228D01*
X111544000Y-75013816D01*
X111544000Y-74846184D01*
X111576703Y-74681772D01*
X111640853Y-74526900D01*
X111733985Y-74387519D01*
X111852519Y-74268985D01*
X111991900Y-74175853D01*
X112146772Y-74111703D01*
X112311184Y-74079000D01*
X112478816Y-74079000D01*
X112643228Y-74111703D01*
G37*
G36*
X81393512Y-72763927D02*
G01*
X81542812Y-72793624D01*
X81706784Y-72861544D01*
X81854354Y-72960147D01*
X81979853Y-73085646D01*
X82078456Y-73233216D01*
X82146376Y-73397188D01*
X82181000Y-73571259D01*
X82181000Y-73748741D01*
X82146376Y-73922812D01*
X82078456Y-74086784D01*
X81979853Y-74234354D01*
X81854354Y-74359853D01*
X81706784Y-74458456D01*
X81542812Y-74526376D01*
X81393512Y-74556073D01*
X81368742Y-74561000D01*
X81191258Y-74561000D01*
X81166488Y-74556073D01*
X81017188Y-74526376D01*
X80853216Y-74458456D01*
X80705646Y-74359853D01*
X80580147Y-74234354D01*
X80481544Y-74086784D01*
X80413624Y-73922812D01*
X80379000Y-73748741D01*
X80379000Y-73571259D01*
X80413624Y-73397188D01*
X80481544Y-73233216D01*
X80580147Y-73085646D01*
X80705646Y-72960147D01*
X80853216Y-72861544D01*
X81017188Y-72793624D01*
X81166488Y-72763927D01*
X81191258Y-72759000D01*
X81368742Y-72759000D01*
X81393512Y-72763927D01*
G37*
G36*
X129653512Y-72763927D02*
G01*
X129802812Y-72793624D01*
X129966784Y-72861544D01*
X130114354Y-72960147D01*
X130239853Y-73085646D01*
X130338456Y-73233216D01*
X130406376Y-73397188D01*
X130441000Y-73571259D01*
X130441000Y-73748741D01*
X130406376Y-73922812D01*
X130338456Y-74086784D01*
X130239853Y-74234354D01*
X130114354Y-74359853D01*
X129966784Y-74458456D01*
X129802812Y-74526376D01*
X129653512Y-74556073D01*
X129628742Y-74561000D01*
X129451258Y-74561000D01*
X129426488Y-74556073D01*
X129277188Y-74526376D01*
X129113216Y-74458456D01*
X128965646Y-74359853D01*
X128840147Y-74234354D01*
X128741544Y-74086784D01*
X128673624Y-73922812D01*
X128639000Y-73748741D01*
X128639000Y-73571259D01*
X128673624Y-73397188D01*
X128741544Y-73233216D01*
X128840147Y-73085646D01*
X128965646Y-72960147D01*
X129113216Y-72861544D01*
X129277188Y-72793624D01*
X129426488Y-72763927D01*
X129451258Y-72759000D01*
X129628742Y-72759000D01*
X129653512Y-72763927D01*
G37*
G36*
X84721000Y-74561000D02*
G01*
X82919000Y-74561000D01*
X82919000Y-72759000D01*
X84721000Y-72759000D01*
X84721000Y-74561000D01*
G37*
G36*
X105023228Y-71571703D02*
G01*
X105178100Y-71635853D01*
X105317481Y-71728985D01*
X105436015Y-71847519D01*
X105529147Y-71986900D01*
X105593297Y-72141772D01*
X105626000Y-72306184D01*
X105626000Y-72473816D01*
X105593297Y-72638228D01*
X105529147Y-72793100D01*
X105436015Y-72932481D01*
X105317481Y-73051015D01*
X105178100Y-73144147D01*
X105023228Y-73208297D01*
X104858816Y-73241000D01*
X104691184Y-73241000D01*
X104526772Y-73208297D01*
X104371900Y-73144147D01*
X104232519Y-73051015D01*
X104113985Y-72932481D01*
X104020853Y-72793100D01*
X103956703Y-72638228D01*
X103924000Y-72473816D01*
X103924000Y-72306184D01*
X103956703Y-72141772D01*
X104020853Y-71986900D01*
X104113985Y-71847519D01*
X104232519Y-71728985D01*
X104371900Y-71635853D01*
X104526772Y-71571703D01*
X104691184Y-71539000D01*
X104858816Y-71539000D01*
X105023228Y-71571703D01*
G37*
G36*
X112643228Y-71571703D02*
G01*
X112798100Y-71635853D01*
X112937481Y-71728985D01*
X113056015Y-71847519D01*
X113149147Y-71986900D01*
X113213297Y-72141772D01*
X113246000Y-72306184D01*
X113246000Y-72473816D01*
X113213297Y-72638228D01*
X113149147Y-72793100D01*
X113056015Y-72932481D01*
X112937481Y-73051015D01*
X112798100Y-73144147D01*
X112643228Y-73208297D01*
X112478816Y-73241000D01*
X112311184Y-73241000D01*
X112146772Y-73208297D01*
X111991900Y-73144147D01*
X111852519Y-73051015D01*
X111733985Y-72932481D01*
X111640853Y-72793100D01*
X111576703Y-72638228D01*
X111544000Y-72473816D01*
X111544000Y-72306184D01*
X111576703Y-72141772D01*
X111640853Y-71986900D01*
X111733985Y-71847519D01*
X111852519Y-71728985D01*
X111991900Y-71635853D01*
X112146772Y-71571703D01*
X112311184Y-71539000D01*
X112478816Y-71539000D01*
X112643228Y-71571703D01*
G37*
G36*
X129653512Y-70223927D02*
G01*
X129802812Y-70253624D01*
X129966784Y-70321544D01*
X130114354Y-70420147D01*
X130239853Y-70545646D01*
X130338456Y-70693216D01*
X130406376Y-70857188D01*
X130441000Y-71031259D01*
X130441000Y-71208741D01*
X130406376Y-71382812D01*
X130338456Y-71546784D01*
X130239853Y-71694354D01*
X130114354Y-71819853D01*
X129966784Y-71918456D01*
X129802812Y-71986376D01*
X129653512Y-72016073D01*
X129628742Y-72021000D01*
X129451258Y-72021000D01*
X129426488Y-72016073D01*
X129277188Y-71986376D01*
X129113216Y-71918456D01*
X128965646Y-71819853D01*
X128840147Y-71694354D01*
X128741544Y-71546784D01*
X128673624Y-71382812D01*
X128639000Y-71208741D01*
X128639000Y-71031259D01*
X128673624Y-70857188D01*
X128741544Y-70693216D01*
X128840147Y-70545646D01*
X128965646Y-70420147D01*
X129113216Y-70321544D01*
X129277188Y-70253624D01*
X129426488Y-70223927D01*
X129451258Y-70219000D01*
X129628742Y-70219000D01*
X129653512Y-70223927D01*
G37*
G36*
X81393512Y-70223927D02*
G01*
X81542812Y-70253624D01*
X81706784Y-70321544D01*
X81854354Y-70420147D01*
X81979853Y-70545646D01*
X82078456Y-70693216D01*
X82146376Y-70857188D01*
X82181000Y-71031259D01*
X82181000Y-71208741D01*
X82146376Y-71382812D01*
X82078456Y-71546784D01*
X81979853Y-71694354D01*
X81854354Y-71819853D01*
X81706784Y-71918456D01*
X81542812Y-71986376D01*
X81393512Y-72016073D01*
X81368742Y-72021000D01*
X81191258Y-72021000D01*
X81166488Y-72016073D01*
X81017188Y-71986376D01*
X80853216Y-71918456D01*
X80705646Y-71819853D01*
X80580147Y-71694354D01*
X80481544Y-71546784D01*
X80413624Y-71382812D01*
X80379000Y-71208741D01*
X80379000Y-71031259D01*
X80413624Y-70857188D01*
X80481544Y-70693216D01*
X80580147Y-70545646D01*
X80705646Y-70420147D01*
X80853216Y-70321544D01*
X81017188Y-70253624D01*
X81166488Y-70223927D01*
X81191258Y-70219000D01*
X81368742Y-70219000D01*
X81393512Y-70223927D01*
G37*
G36*
X83933512Y-70223927D02*
G01*
X84082812Y-70253624D01*
X84246784Y-70321544D01*
X84394354Y-70420147D01*
X84519853Y-70545646D01*
X84618456Y-70693216D01*
X84686376Y-70857188D01*
X84721000Y-71031259D01*
X84721000Y-71208741D01*
X84686376Y-71382812D01*
X84618456Y-71546784D01*
X84519853Y-71694354D01*
X84394354Y-71819853D01*
X84246784Y-71918456D01*
X84082812Y-71986376D01*
X83933512Y-72016073D01*
X83908742Y-72021000D01*
X83731258Y-72021000D01*
X83706488Y-72016073D01*
X83557188Y-71986376D01*
X83393216Y-71918456D01*
X83245646Y-71819853D01*
X83120147Y-71694354D01*
X83021544Y-71546784D01*
X82953624Y-71382812D01*
X82919000Y-71208741D01*
X82919000Y-71031259D01*
X82953624Y-70857188D01*
X83021544Y-70693216D01*
X83120147Y-70545646D01*
X83245646Y-70420147D01*
X83393216Y-70321544D01*
X83557188Y-70253624D01*
X83706488Y-70223927D01*
X83731258Y-70219000D01*
X83908742Y-70219000D01*
X83933512Y-70223927D01*
G37*
G36*
X112643228Y-69031703D02*
G01*
X112798100Y-69095853D01*
X112937481Y-69188985D01*
X113056015Y-69307519D01*
X113149147Y-69446900D01*
X113213297Y-69601772D01*
X113246000Y-69766184D01*
X113246000Y-69933816D01*
X113213297Y-70098228D01*
X113149147Y-70253100D01*
X113056015Y-70392481D01*
X112937481Y-70511015D01*
X112798100Y-70604147D01*
X112643228Y-70668297D01*
X112478816Y-70701000D01*
X112311184Y-70701000D01*
X112146772Y-70668297D01*
X111991900Y-70604147D01*
X111852519Y-70511015D01*
X111733985Y-70392481D01*
X111640853Y-70253100D01*
X111576703Y-70098228D01*
X111544000Y-69933816D01*
X111544000Y-69766184D01*
X111576703Y-69601772D01*
X111640853Y-69446900D01*
X111733985Y-69307519D01*
X111852519Y-69188985D01*
X111991900Y-69095853D01*
X112146772Y-69031703D01*
X112311184Y-68999000D01*
X112478816Y-68999000D01*
X112643228Y-69031703D01*
G37*
G36*
X105023228Y-69031703D02*
G01*
X105178100Y-69095853D01*
X105317481Y-69188985D01*
X105436015Y-69307519D01*
X105529147Y-69446900D01*
X105593297Y-69601772D01*
X105626000Y-69766184D01*
X105626000Y-69933816D01*
X105593297Y-70098228D01*
X105529147Y-70253100D01*
X105436015Y-70392481D01*
X105317481Y-70511015D01*
X105178100Y-70604147D01*
X105023228Y-70668297D01*
X104858816Y-70701000D01*
X104691184Y-70701000D01*
X104526772Y-70668297D01*
X104371900Y-70604147D01*
X104232519Y-70511015D01*
X104113985Y-70392481D01*
X104020853Y-70253100D01*
X103956703Y-70098228D01*
X103924000Y-69933816D01*
X103924000Y-69766184D01*
X103956703Y-69601772D01*
X104020853Y-69446900D01*
X104113985Y-69307519D01*
X104232519Y-69188985D01*
X104371900Y-69095853D01*
X104526772Y-69031703D01*
X104691184Y-68999000D01*
X104858816Y-68999000D01*
X105023228Y-69031703D01*
G37*
G36*
X81393512Y-67683927D02*
G01*
X81542812Y-67713624D01*
X81706784Y-67781544D01*
X81854354Y-67880147D01*
X81979853Y-68005646D01*
X82078456Y-68153216D01*
X82146376Y-68317188D01*
X82181000Y-68491259D01*
X82181000Y-68668741D01*
X82146376Y-68842812D01*
X82078456Y-69006784D01*
X81979853Y-69154354D01*
X81854354Y-69279853D01*
X81706784Y-69378456D01*
X81542812Y-69446376D01*
X81393512Y-69476073D01*
X81368742Y-69481000D01*
X81191258Y-69481000D01*
X81166488Y-69476073D01*
X81017188Y-69446376D01*
X80853216Y-69378456D01*
X80705646Y-69279853D01*
X80580147Y-69154354D01*
X80481544Y-69006784D01*
X80413624Y-68842812D01*
X80379000Y-68668741D01*
X80379000Y-68491259D01*
X80413624Y-68317188D01*
X80481544Y-68153216D01*
X80580147Y-68005646D01*
X80705646Y-67880147D01*
X80853216Y-67781544D01*
X81017188Y-67713624D01*
X81166488Y-67683927D01*
X81191258Y-67679000D01*
X81368742Y-67679000D01*
X81393512Y-67683927D01*
G37*
G36*
X129653512Y-67683927D02*
G01*
X129802812Y-67713624D01*
X129966784Y-67781544D01*
X130114354Y-67880147D01*
X130239853Y-68005646D01*
X130338456Y-68153216D01*
X130406376Y-68317188D01*
X130441000Y-68491259D01*
X130441000Y-68668741D01*
X130406376Y-68842812D01*
X130338456Y-69006784D01*
X130239853Y-69154354D01*
X130114354Y-69279853D01*
X129966784Y-69378456D01*
X129802812Y-69446376D01*
X129653512Y-69476073D01*
X129628742Y-69481000D01*
X129451258Y-69481000D01*
X129426488Y-69476073D01*
X129277188Y-69446376D01*
X129113216Y-69378456D01*
X128965646Y-69279853D01*
X128840147Y-69154354D01*
X128741544Y-69006784D01*
X128673624Y-68842812D01*
X128639000Y-68668741D01*
X128639000Y-68491259D01*
X128673624Y-68317188D01*
X128741544Y-68153216D01*
X128840147Y-68005646D01*
X128965646Y-67880147D01*
X129113216Y-67781544D01*
X129277188Y-67713624D01*
X129426488Y-67683927D01*
X129451258Y-67679000D01*
X129628742Y-67679000D01*
X129653512Y-67683927D01*
G37*
G36*
X83933512Y-67683927D02*
G01*
X84082812Y-67713624D01*
X84246784Y-67781544D01*
X84394354Y-67880147D01*
X84519853Y-68005646D01*
X84618456Y-68153216D01*
X84686376Y-68317188D01*
X84721000Y-68491259D01*
X84721000Y-68668741D01*
X84686376Y-68842812D01*
X84618456Y-69006784D01*
X84519853Y-69154354D01*
X84394354Y-69279853D01*
X84246784Y-69378456D01*
X84082812Y-69446376D01*
X83933512Y-69476073D01*
X83908742Y-69481000D01*
X83731258Y-69481000D01*
X83706488Y-69476073D01*
X83557188Y-69446376D01*
X83393216Y-69378456D01*
X83245646Y-69279853D01*
X83120147Y-69154354D01*
X83021544Y-69006784D01*
X82953624Y-68842812D01*
X82919000Y-68668741D01*
X82919000Y-68491259D01*
X82953624Y-68317188D01*
X83021544Y-68153216D01*
X83120147Y-68005646D01*
X83245646Y-67880147D01*
X83393216Y-67781544D01*
X83557188Y-67713624D01*
X83706488Y-67683927D01*
X83731258Y-67679000D01*
X83908742Y-67679000D01*
X83933512Y-67683927D01*
G37*
G36*
X105626000Y-68161000D02*
G01*
X103924000Y-68161000D01*
X103924000Y-66459000D01*
X105626000Y-66459000D01*
X105626000Y-68161000D01*
G37*
G36*
X112643228Y-66491703D02*
G01*
X112798100Y-66555853D01*
X112937481Y-66648985D01*
X113056015Y-66767519D01*
X113149147Y-66906900D01*
X113213297Y-67061772D01*
X113246000Y-67226184D01*
X113246000Y-67393816D01*
X113213297Y-67558228D01*
X113149147Y-67713100D01*
X113056015Y-67852481D01*
X112937481Y-67971015D01*
X112798100Y-68064147D01*
X112643228Y-68128297D01*
X112478816Y-68161000D01*
X112311184Y-68161000D01*
X112146772Y-68128297D01*
X111991900Y-68064147D01*
X111852519Y-67971015D01*
X111733985Y-67852481D01*
X111640853Y-67713100D01*
X111576703Y-67558228D01*
X111544000Y-67393816D01*
X111544000Y-67226184D01*
X111576703Y-67061772D01*
X111640853Y-66906900D01*
X111733985Y-66767519D01*
X111852519Y-66648985D01*
X111991900Y-66555853D01*
X112146772Y-66491703D01*
X112311184Y-66459000D01*
X112478816Y-66459000D01*
X112643228Y-66491703D01*
G37*
G36*
X81393512Y-65143927D02*
G01*
X81542812Y-65173624D01*
X81706784Y-65241544D01*
X81854354Y-65340147D01*
X81979853Y-65465646D01*
X82078456Y-65613216D01*
X82146376Y-65777188D01*
X82181000Y-65951259D01*
X82181000Y-66128741D01*
X82146376Y-66302812D01*
X82078456Y-66466784D01*
X81979853Y-66614354D01*
X81854354Y-66739853D01*
X81706784Y-66838456D01*
X81542812Y-66906376D01*
X81393512Y-66936073D01*
X81368742Y-66941000D01*
X81191258Y-66941000D01*
X81166488Y-66936073D01*
X81017188Y-66906376D01*
X80853216Y-66838456D01*
X80705646Y-66739853D01*
X80580147Y-66614354D01*
X80481544Y-66466784D01*
X80413624Y-66302812D01*
X80379000Y-66128741D01*
X80379000Y-65951259D01*
X80413624Y-65777188D01*
X80481544Y-65613216D01*
X80580147Y-65465646D01*
X80705646Y-65340147D01*
X80853216Y-65241544D01*
X81017188Y-65173624D01*
X81166488Y-65143927D01*
X81191258Y-65139000D01*
X81368742Y-65139000D01*
X81393512Y-65143927D01*
G37*
G36*
X83933512Y-65143927D02*
G01*
X84082812Y-65173624D01*
X84246784Y-65241544D01*
X84394354Y-65340147D01*
X84519853Y-65465646D01*
X84618456Y-65613216D01*
X84686376Y-65777188D01*
X84721000Y-65951259D01*
X84721000Y-66128741D01*
X84686376Y-66302812D01*
X84618456Y-66466784D01*
X84519853Y-66614354D01*
X84394354Y-66739853D01*
X84246784Y-66838456D01*
X84082812Y-66906376D01*
X83933512Y-66936073D01*
X83908742Y-66941000D01*
X83731258Y-66941000D01*
X83706488Y-66936073D01*
X83557188Y-66906376D01*
X83393216Y-66838456D01*
X83245646Y-66739853D01*
X83120147Y-66614354D01*
X83021544Y-66466784D01*
X82953624Y-66302812D01*
X82919000Y-66128741D01*
X82919000Y-65951259D01*
X82953624Y-65777188D01*
X83021544Y-65613216D01*
X83120147Y-65465646D01*
X83245646Y-65340147D01*
X83393216Y-65241544D01*
X83557188Y-65173624D01*
X83706488Y-65143927D01*
X83731258Y-65139000D01*
X83908742Y-65139000D01*
X83933512Y-65143927D01*
G37*
G36*
X129653512Y-65143927D02*
G01*
X129802812Y-65173624D01*
X129966784Y-65241544D01*
X130114354Y-65340147D01*
X130239853Y-65465646D01*
X130338456Y-65613216D01*
X130406376Y-65777188D01*
X130441000Y-65951259D01*
X130441000Y-66128741D01*
X130406376Y-66302812D01*
X130338456Y-66466784D01*
X130239853Y-66614354D01*
X130114354Y-66739853D01*
X129966784Y-66838456D01*
X129802812Y-66906376D01*
X129653512Y-66936073D01*
X129628742Y-66941000D01*
X129451258Y-66941000D01*
X129426488Y-66936073D01*
X129277188Y-66906376D01*
X129113216Y-66838456D01*
X128965646Y-66739853D01*
X128840147Y-66614354D01*
X128741544Y-66466784D01*
X128673624Y-66302812D01*
X128639000Y-66128741D01*
X128639000Y-65951259D01*
X128673624Y-65777188D01*
X128741544Y-65613216D01*
X128840147Y-65465646D01*
X128965646Y-65340147D01*
X129113216Y-65241544D01*
X129277188Y-65173624D01*
X129426488Y-65143927D01*
X129451258Y-65139000D01*
X129628742Y-65139000D01*
X129653512Y-65143927D01*
G37*
G36*
X97915589Y-64643876D02*
G01*
X98014893Y-64663629D01*
X98155206Y-64721748D01*
X98281484Y-64806125D01*
X98388875Y-64913516D01*
X98473252Y-65039794D01*
X98531371Y-65180107D01*
X98561000Y-65329063D01*
X98561000Y-65480937D01*
X98531371Y-65629893D01*
X98473252Y-65770206D01*
X98388875Y-65896484D01*
X98281484Y-66003875D01*
X98155206Y-66088252D01*
X98014893Y-66146371D01*
X97915589Y-66166124D01*
X97865938Y-66176000D01*
X97714062Y-66176000D01*
X97664411Y-66166124D01*
X97565107Y-66146371D01*
X97424794Y-66088252D01*
X97298516Y-66003875D01*
X97191125Y-65896484D01*
X97106748Y-65770206D01*
X97048629Y-65629893D01*
X97019000Y-65480937D01*
X97019000Y-65329063D01*
X97048629Y-65180107D01*
X97106748Y-65039794D01*
X97191125Y-64913516D01*
X97298516Y-64806125D01*
X97424794Y-64721748D01*
X97565107Y-64663629D01*
X97664411Y-64643876D01*
X97714062Y-64634000D01*
X97865938Y-64634000D01*
X97915589Y-64643876D01*
G37*
G36*
X122045589Y-64643876D02*
G01*
X122144893Y-64663629D01*
X122285206Y-64721748D01*
X122411484Y-64806125D01*
X122518875Y-64913516D01*
X122603252Y-65039794D01*
X122661371Y-65180107D01*
X122691000Y-65329063D01*
X122691000Y-65480937D01*
X122661371Y-65629893D01*
X122603252Y-65770206D01*
X122518875Y-65896484D01*
X122411484Y-66003875D01*
X122285206Y-66088252D01*
X122144893Y-66146371D01*
X122045589Y-66166124D01*
X121995938Y-66176000D01*
X121844062Y-66176000D01*
X121794411Y-66166124D01*
X121695107Y-66146371D01*
X121554794Y-66088252D01*
X121428516Y-66003875D01*
X121321125Y-65896484D01*
X121236748Y-65770206D01*
X121178629Y-65629893D01*
X121149000Y-65480937D01*
X121149000Y-65329063D01*
X121178629Y-65180107D01*
X121236748Y-65039794D01*
X121321125Y-64913516D01*
X121428516Y-64806125D01*
X121554794Y-64721748D01*
X121695107Y-64663629D01*
X121794411Y-64643876D01*
X121844062Y-64634000D01*
X121995938Y-64634000D01*
X122045589Y-64643876D01*
G37*
G36*
X119505589Y-64643876D02*
G01*
X119604893Y-64663629D01*
X119745206Y-64721748D01*
X119871484Y-64806125D01*
X119978875Y-64913516D01*
X120063252Y-65039794D01*
X120121371Y-65180107D01*
X120151000Y-65329063D01*
X120151000Y-65480937D01*
X120121371Y-65629893D01*
X120063252Y-65770206D01*
X119978875Y-65896484D01*
X119871484Y-66003875D01*
X119745206Y-66088252D01*
X119604893Y-66146371D01*
X119505589Y-66166124D01*
X119455938Y-66176000D01*
X119304062Y-66176000D01*
X119254411Y-66166124D01*
X119155107Y-66146371D01*
X119014794Y-66088252D01*
X118888516Y-66003875D01*
X118781125Y-65896484D01*
X118696748Y-65770206D01*
X118638629Y-65629893D01*
X118609000Y-65480937D01*
X118609000Y-65329063D01*
X118638629Y-65180107D01*
X118696748Y-65039794D01*
X118781125Y-64913516D01*
X118888516Y-64806125D01*
X119014794Y-64721748D01*
X119155107Y-64663629D01*
X119254411Y-64643876D01*
X119304062Y-64634000D01*
X119455938Y-64634000D01*
X119505589Y-64643876D01*
G37*
G36*
X95375589Y-64643876D02*
G01*
X95474893Y-64663629D01*
X95615206Y-64721748D01*
X95741484Y-64806125D01*
X95848875Y-64913516D01*
X95933252Y-65039794D01*
X95991371Y-65180107D01*
X96021000Y-65329063D01*
X96021000Y-65480937D01*
X95991371Y-65629893D01*
X95933252Y-65770206D01*
X95848875Y-65896484D01*
X95741484Y-66003875D01*
X95615206Y-66088252D01*
X95474893Y-66146371D01*
X95375589Y-66166124D01*
X95325938Y-66176000D01*
X95174062Y-66176000D01*
X95124411Y-66166124D01*
X95025107Y-66146371D01*
X94884794Y-66088252D01*
X94758516Y-66003875D01*
X94651125Y-65896484D01*
X94566748Y-65770206D01*
X94508629Y-65629893D01*
X94479000Y-65480937D01*
X94479000Y-65329063D01*
X94508629Y-65180107D01*
X94566748Y-65039794D01*
X94651125Y-64913516D01*
X94758516Y-64806125D01*
X94884794Y-64721748D01*
X95025107Y-64663629D01*
X95124411Y-64643876D01*
X95174062Y-64634000D01*
X95325938Y-64634000D01*
X95375589Y-64643876D01*
G37*
G36*
X100455589Y-64643876D02*
G01*
X100554893Y-64663629D01*
X100695206Y-64721748D01*
X100821484Y-64806125D01*
X100928875Y-64913516D01*
X101013252Y-65039794D01*
X101071371Y-65180107D01*
X101101000Y-65329063D01*
X101101000Y-65480937D01*
X101071371Y-65629893D01*
X101013252Y-65770206D01*
X100928875Y-65896484D01*
X100821484Y-66003875D01*
X100695206Y-66088252D01*
X100554893Y-66146371D01*
X100455589Y-66166124D01*
X100405938Y-66176000D01*
X100254062Y-66176000D01*
X100204411Y-66166124D01*
X100105107Y-66146371D01*
X99964794Y-66088252D01*
X99838516Y-66003875D01*
X99731125Y-65896484D01*
X99646748Y-65770206D01*
X99588629Y-65629893D01*
X99559000Y-65480937D01*
X99559000Y-65329063D01*
X99588629Y-65180107D01*
X99646748Y-65039794D01*
X99731125Y-64913516D01*
X99838516Y-64806125D01*
X99964794Y-64721748D01*
X100105107Y-64663629D01*
X100204411Y-64643876D01*
X100254062Y-64634000D01*
X100405938Y-64634000D01*
X100455589Y-64643876D01*
G37*
G36*
X116965589Y-64643876D02*
G01*
X117064893Y-64663629D01*
X117205206Y-64721748D01*
X117331484Y-64806125D01*
X117438875Y-64913516D01*
X117523252Y-65039794D01*
X117581371Y-65180107D01*
X117611000Y-65329063D01*
X117611000Y-65480937D01*
X117581371Y-65629893D01*
X117523252Y-65770206D01*
X117438875Y-65896484D01*
X117331484Y-66003875D01*
X117205206Y-66088252D01*
X117064893Y-66146371D01*
X116965589Y-66166124D01*
X116915938Y-66176000D01*
X116764062Y-66176000D01*
X116714411Y-66166124D01*
X116615107Y-66146371D01*
X116474794Y-66088252D01*
X116348516Y-66003875D01*
X116241125Y-65896484D01*
X116156748Y-65770206D01*
X116098629Y-65629893D01*
X116069000Y-65480937D01*
X116069000Y-65329063D01*
X116098629Y-65180107D01*
X116156748Y-65039794D01*
X116241125Y-64913516D01*
X116348516Y-64806125D01*
X116474794Y-64721748D01*
X116615107Y-64663629D01*
X116714411Y-64643876D01*
X116764062Y-64634000D01*
X116915938Y-64634000D01*
X116965589Y-64643876D01*
G37*
G36*
X83933512Y-62603927D02*
G01*
X84082812Y-62633624D01*
X84246784Y-62701544D01*
X84394354Y-62800147D01*
X84519853Y-62925646D01*
X84618456Y-63073216D01*
X84686376Y-63237188D01*
X84721000Y-63411259D01*
X84721000Y-63588741D01*
X84686376Y-63762812D01*
X84618456Y-63926784D01*
X84519853Y-64074354D01*
X84394354Y-64199853D01*
X84246784Y-64298456D01*
X84082812Y-64366376D01*
X83933512Y-64396073D01*
X83908742Y-64401000D01*
X83731258Y-64401000D01*
X83706488Y-64396073D01*
X83557188Y-64366376D01*
X83393216Y-64298456D01*
X83245646Y-64199853D01*
X83120147Y-64074354D01*
X83021544Y-63926784D01*
X82953624Y-63762812D01*
X82919000Y-63588741D01*
X82919000Y-63411259D01*
X82953624Y-63237188D01*
X83021544Y-63073216D01*
X83120147Y-62925646D01*
X83245646Y-62800147D01*
X83393216Y-62701544D01*
X83557188Y-62633624D01*
X83706488Y-62603927D01*
X83731258Y-62599000D01*
X83908742Y-62599000D01*
X83933512Y-62603927D01*
G37*
G36*
X81393512Y-62603927D02*
G01*
X81542812Y-62633624D01*
X81706784Y-62701544D01*
X81854354Y-62800147D01*
X81979853Y-62925646D01*
X82078456Y-63073216D01*
X82146376Y-63237188D01*
X82181000Y-63411259D01*
X82181000Y-63588741D01*
X82146376Y-63762812D01*
X82078456Y-63926784D01*
X81979853Y-64074354D01*
X81854354Y-64199853D01*
X81706784Y-64298456D01*
X81542812Y-64366376D01*
X81393512Y-64396073D01*
X81368742Y-64401000D01*
X81191258Y-64401000D01*
X81166488Y-64396073D01*
X81017188Y-64366376D01*
X80853216Y-64298456D01*
X80705646Y-64199853D01*
X80580147Y-64074354D01*
X80481544Y-63926784D01*
X80413624Y-63762812D01*
X80379000Y-63588741D01*
X80379000Y-63411259D01*
X80413624Y-63237188D01*
X80481544Y-63073216D01*
X80580147Y-62925646D01*
X80705646Y-62800147D01*
X80853216Y-62701544D01*
X81017188Y-62633624D01*
X81166488Y-62603927D01*
X81191258Y-62599000D01*
X81368742Y-62599000D01*
X81393512Y-62603927D01*
G37*
G36*
X130441000Y-64401000D02*
G01*
X128639000Y-64401000D01*
X128639000Y-62599000D01*
X130441000Y-62599000D01*
X130441000Y-64401000D01*
G37*
G36*
X103176564Y-57409389D02*
G01*
X103367833Y-57488615D01*
X103367835Y-57488616D01*
X103431267Y-57531000D01*
X103539973Y-57603635D01*
X103686365Y-57750027D01*
X103801385Y-57922167D01*
X103880611Y-58113436D01*
X103921000Y-58316484D01*
X103921000Y-58523516D01*
X103880611Y-58726564D01*
X103801385Y-58917833D01*
X103801384Y-58917835D01*
X103686365Y-59089973D01*
X103539973Y-59236365D01*
X103367835Y-59351384D01*
X103367834Y-59351385D01*
X103367833Y-59351385D01*
X103176564Y-59430611D01*
X102973516Y-59471000D01*
X102766484Y-59471000D01*
X102563436Y-59430611D01*
X102372167Y-59351385D01*
X102372166Y-59351385D01*
X102372165Y-59351384D01*
X102200027Y-59236365D01*
X102053635Y-59089973D01*
X101938616Y-58917835D01*
X101938615Y-58917833D01*
X101859389Y-58726564D01*
X101819000Y-58523516D01*
X101819000Y-58316484D01*
X101859389Y-58113436D01*
X101938615Y-57922167D01*
X102053635Y-57750027D01*
X102200027Y-57603635D01*
X102308733Y-57531000D01*
X102372165Y-57488616D01*
X102372167Y-57488615D01*
X102563436Y-57409389D01*
X102766484Y-57369000D01*
X102973516Y-57369000D01*
X103176564Y-57409389D01*
G37*
G36*
X94286564Y-57409389D02*
G01*
X94477833Y-57488615D01*
X94477835Y-57488616D01*
X94541267Y-57531000D01*
X94649973Y-57603635D01*
X94796365Y-57750027D01*
X94911385Y-57922167D01*
X94990611Y-58113436D01*
X95031000Y-58316484D01*
X95031000Y-58523516D01*
X94990611Y-58726564D01*
X94911385Y-58917833D01*
X94911384Y-58917835D01*
X94796365Y-59089973D01*
X94649973Y-59236365D01*
X94477835Y-59351384D01*
X94477834Y-59351385D01*
X94477833Y-59351385D01*
X94286564Y-59430611D01*
X94083516Y-59471000D01*
X93876484Y-59471000D01*
X93673436Y-59430611D01*
X93482167Y-59351385D01*
X93482166Y-59351385D01*
X93482165Y-59351384D01*
X93310027Y-59236365D01*
X93163635Y-59089973D01*
X93048616Y-58917835D01*
X93048615Y-58917833D01*
X92969389Y-58726564D01*
X92929000Y-58523516D01*
X92929000Y-58316484D01*
X92969389Y-58113436D01*
X93048615Y-57922167D01*
X93163635Y-57750027D01*
X93310027Y-57603635D01*
X93418733Y-57531000D01*
X93482165Y-57488616D01*
X93482167Y-57488615D01*
X93673436Y-57409389D01*
X93876484Y-57369000D01*
X94083516Y-57369000D01*
X94286564Y-57409389D01*
G37*
G36*
X81655256Y-54271298D02*
G01*
X81761579Y-54292447D01*
X82062042Y-54416903D01*
X82332451Y-54597585D01*
X82562415Y-54827549D01*
X82743097Y-55097958D01*
X82867553Y-55398421D01*
X82931000Y-55717391D01*
X82931000Y-56042609D01*
X82867553Y-56361579D01*
X82743097Y-56662042D01*
X82562415Y-56932451D01*
X82332451Y-57162415D01*
X82062042Y-57343097D01*
X81761579Y-57467553D01*
X81655693Y-57488615D01*
X81442611Y-57531000D01*
X81117389Y-57531000D01*
X80904307Y-57488615D01*
X80798421Y-57467553D01*
X80497958Y-57343097D01*
X80227549Y-57162415D01*
X79997585Y-56932451D01*
X79816903Y-56662042D01*
X79692447Y-56361579D01*
X79629000Y-56042609D01*
X79629000Y-55717391D01*
X79692447Y-55398421D01*
X79816903Y-55097958D01*
X79997585Y-54827549D01*
X80227549Y-54597585D01*
X80497958Y-54416903D01*
X80798421Y-54292447D01*
X80904744Y-54271298D01*
X81117389Y-54229000D01*
X81442611Y-54229000D01*
X81655256Y-54271298D01*
G37*
M02*
