G04 #@! TF.GenerationSoftware,KiCad,Pcbnew,5.1.6-c6e7f7d~86~ubuntu18.04.1*
G04 #@! TF.CreationDate,2020-06-20T09:53:32-04:00*
G04 #@! TF.ProjectId,filter_carrier_board,66696c74-6572-45f6-9361-72726965725f,rev?*
G04 #@! TF.SameCoordinates,Original*
G04 #@! TF.FileFunction,Legend,Bot*
G04 #@! TF.FilePolarity,Positive*
%FSLAX46Y46*%
G04 Gerber Fmt 4.6, Leading zero omitted, Abs format (unit mm)*
G04 Created by KiCad (PCBNEW 5.1.6-c6e7f7d~86~ubuntu18.04.1) date 2020-06-20 09:53:32*
%MOMM*%
%LPD*%
G01*
G04 APERTURE LIST*
%ADD10C,0.304800*%
%ADD11C,0.150000*%
%ADD12C,0.120000*%
G04 APERTURE END LIST*
D10*
X163389975Y-84181647D02*
X162543308Y-86721647D01*
X161696641Y-84181647D01*
X159398546Y-86479742D02*
X159519499Y-86600695D01*
X159882356Y-86721647D01*
X160124260Y-86721647D01*
X160487118Y-86600695D01*
X160729022Y-86358790D01*
X160849975Y-86116885D01*
X160970927Y-85633076D01*
X160970927Y-85270219D01*
X160849975Y-84786409D01*
X160729022Y-84544504D01*
X160487118Y-84302600D01*
X160124260Y-84181647D01*
X159882356Y-84181647D01*
X159519499Y-84302600D01*
X159398546Y-84423552D01*
X157463308Y-85391171D02*
X158309975Y-85391171D01*
X158309975Y-86721647D02*
X158309975Y-84181647D01*
X157100451Y-84181647D01*
X154197594Y-85028314D02*
X154197594Y-87568314D01*
X154197594Y-85149266D02*
X153955689Y-85028314D01*
X153471879Y-85028314D01*
X153229975Y-85149266D01*
X153109022Y-85270219D01*
X152988070Y-85512123D01*
X152988070Y-86237838D01*
X153109022Y-86479742D01*
X153229975Y-86600695D01*
X153471879Y-86721647D01*
X153955689Y-86721647D01*
X154197594Y-86600695D01*
X151536641Y-86721647D02*
X151778546Y-86600695D01*
X151899499Y-86358790D01*
X151899499Y-84181647D01*
X149480451Y-85028314D02*
X149480451Y-86721647D01*
X150569022Y-85028314D02*
X150569022Y-86358790D01*
X150448070Y-86600695D01*
X150206165Y-86721647D01*
X149843308Y-86721647D01*
X149601403Y-86600695D01*
X149480451Y-86479742D01*
X147182356Y-85028314D02*
X147182356Y-87084504D01*
X147303308Y-87326409D01*
X147424260Y-87447361D01*
X147666165Y-87568314D01*
X148029022Y-87568314D01*
X148270927Y-87447361D01*
X147182356Y-86600695D02*
X147424260Y-86721647D01*
X147908070Y-86721647D01*
X148149975Y-86600695D01*
X148270927Y-86479742D01*
X148391879Y-86237838D01*
X148391879Y-85512123D01*
X148270927Y-85270219D01*
X148149975Y-85149266D01*
X147908070Y-85028314D01*
X147424260Y-85028314D01*
X147182356Y-85149266D01*
X145972832Y-85754028D02*
X144037594Y-85754028D01*
X142828070Y-86721647D02*
X142828070Y-85028314D01*
X142828070Y-84181647D02*
X142949022Y-84302600D01*
X142828070Y-84423552D01*
X142707118Y-84302600D01*
X142828070Y-84181647D01*
X142828070Y-84423552D01*
X141618546Y-85028314D02*
X141618546Y-86721647D01*
X141618546Y-85270219D02*
X141497594Y-85149266D01*
X141255689Y-85028314D01*
X140892832Y-85028314D01*
X140650927Y-85149266D01*
X140529975Y-85391171D01*
X140529975Y-86721647D01*
X163027118Y-90836447D02*
X163027118Y-88296447D01*
X163027118Y-89264066D02*
X162785213Y-89143114D01*
X162301403Y-89143114D01*
X162059499Y-89264066D01*
X161938546Y-89385019D01*
X161817594Y-89626923D01*
X161817594Y-90352638D01*
X161938546Y-90594542D01*
X162059499Y-90715495D01*
X162301403Y-90836447D01*
X162785213Y-90836447D01*
X163027118Y-90715495D01*
X160366165Y-90836447D02*
X160608070Y-90715495D01*
X160729022Y-90594542D01*
X160849975Y-90352638D01*
X160849975Y-89626923D01*
X160729022Y-89385019D01*
X160608070Y-89264066D01*
X160366165Y-89143114D01*
X160003308Y-89143114D01*
X159761403Y-89264066D01*
X159640451Y-89385019D01*
X159519499Y-89626923D01*
X159519499Y-90352638D01*
X159640451Y-90594542D01*
X159761403Y-90715495D01*
X160003308Y-90836447D01*
X160366165Y-90836447D01*
X157342356Y-90836447D02*
X157342356Y-89505971D01*
X157463308Y-89264066D01*
X157705213Y-89143114D01*
X158189022Y-89143114D01*
X158430927Y-89264066D01*
X157342356Y-90715495D02*
X157584260Y-90836447D01*
X158189022Y-90836447D01*
X158430927Y-90715495D01*
X158551880Y-90473590D01*
X158551880Y-90231685D01*
X158430927Y-89989780D01*
X158189022Y-89868828D01*
X157584260Y-89868828D01*
X157342356Y-89747876D01*
X156132832Y-90836447D02*
X156132832Y-89143114D01*
X156132832Y-89626923D02*
X156011880Y-89385019D01*
X155890927Y-89264066D01*
X155649022Y-89143114D01*
X155407118Y-89143114D01*
X153471880Y-90836447D02*
X153471880Y-88296447D01*
X153471880Y-90715495D02*
X153713784Y-90836447D01*
X154197594Y-90836447D01*
X154439499Y-90715495D01*
X154560451Y-90594542D01*
X154681403Y-90352638D01*
X154681403Y-89626923D01*
X154560451Y-89385019D01*
X154439499Y-89264066D01*
X154197594Y-89143114D01*
X153713784Y-89143114D01*
X153471880Y-89264066D01*
X150327118Y-89143114D02*
X150327118Y-91683114D01*
X150327118Y-89264066D02*
X150085213Y-89143114D01*
X149601403Y-89143114D01*
X149359499Y-89264066D01*
X149238546Y-89385019D01*
X149117594Y-89626923D01*
X149117594Y-90352638D01*
X149238546Y-90594542D01*
X149359499Y-90715495D01*
X149601403Y-90836447D01*
X150085213Y-90836447D01*
X150327118Y-90715495D01*
X147666165Y-90836447D02*
X147908070Y-90715495D01*
X148029022Y-90594542D01*
X148149975Y-90352638D01*
X148149975Y-89626923D01*
X148029022Y-89385019D01*
X147908070Y-89264066D01*
X147666165Y-89143114D01*
X147303308Y-89143114D01*
X147061403Y-89264066D01*
X146940451Y-89385019D01*
X146819499Y-89626923D01*
X146819499Y-90352638D01*
X146940451Y-90594542D01*
X147061403Y-90715495D01*
X147303308Y-90836447D01*
X147666165Y-90836447D01*
X145730927Y-90836447D02*
X145730927Y-89143114D01*
X145730927Y-89626923D02*
X145609975Y-89385019D01*
X145489022Y-89264066D01*
X145247118Y-89143114D01*
X145005213Y-89143114D01*
X144521403Y-89143114D02*
X143553784Y-89143114D01*
X144158546Y-88296447D02*
X144158546Y-90473590D01*
X144037594Y-90715495D01*
X143795689Y-90836447D01*
X143553784Y-90836447D01*
D11*
X119187261Y-53428380D02*
X118853928Y-54428380D01*
X118520595Y-53428380D01*
X117615833Y-54333142D02*
X117663452Y-54380761D01*
X117806309Y-54428380D01*
X117901547Y-54428380D01*
X118044404Y-54380761D01*
X118139642Y-54285523D01*
X118187261Y-54190285D01*
X118234880Y-53999809D01*
X118234880Y-53856952D01*
X118187261Y-53666476D01*
X118139642Y-53571238D01*
X118044404Y-53476000D01*
X117901547Y-53428380D01*
X117806309Y-53428380D01*
X117663452Y-53476000D01*
X117615833Y-53523619D01*
X116853928Y-53904571D02*
X117187261Y-53904571D01*
X117187261Y-54428380D02*
X117187261Y-53428380D01*
X116711071Y-53428380D01*
X115139642Y-54380761D02*
X115234880Y-54428380D01*
X115425357Y-54428380D01*
X115520595Y-54380761D01*
X115568214Y-54333142D01*
X115615833Y-54237904D01*
X115615833Y-53952190D01*
X115568214Y-53856952D01*
X115520595Y-53809333D01*
X115425357Y-53761714D01*
X115234880Y-53761714D01*
X115139642Y-53809333D01*
X114282500Y-54428380D02*
X114282500Y-53904571D01*
X114330119Y-53809333D01*
X114425357Y-53761714D01*
X114615833Y-53761714D01*
X114711071Y-53809333D01*
X114282500Y-54380761D02*
X114377738Y-54428380D01*
X114615833Y-54428380D01*
X114711071Y-54380761D01*
X114758690Y-54285523D01*
X114758690Y-54190285D01*
X114711071Y-54095047D01*
X114615833Y-54047428D01*
X114377738Y-54047428D01*
X114282500Y-53999809D01*
X113806309Y-54428380D02*
X113806309Y-53761714D01*
X113806309Y-53952190D02*
X113758690Y-53856952D01*
X113711071Y-53809333D01*
X113615833Y-53761714D01*
X113520595Y-53761714D01*
X113187261Y-54428380D02*
X113187261Y-53761714D01*
X113187261Y-53952190D02*
X113139642Y-53856952D01*
X113092023Y-53809333D01*
X112996785Y-53761714D01*
X112901547Y-53761714D01*
X112568214Y-54428380D02*
X112568214Y-53761714D01*
X112568214Y-53428380D02*
X112615833Y-53476000D01*
X112568214Y-53523619D01*
X112520595Y-53476000D01*
X112568214Y-53428380D01*
X112568214Y-53523619D01*
X111711071Y-54380761D02*
X111806309Y-54428380D01*
X111996785Y-54428380D01*
X112092023Y-54380761D01*
X112139642Y-54285523D01*
X112139642Y-53904571D01*
X112092023Y-53809333D01*
X111996785Y-53761714D01*
X111806309Y-53761714D01*
X111711071Y-53809333D01*
X111663452Y-53904571D01*
X111663452Y-53999809D01*
X112139642Y-54095047D01*
X111234880Y-54428380D02*
X111234880Y-53761714D01*
X111234880Y-53952190D02*
X111187261Y-53856952D01*
X111139642Y-53809333D01*
X111044404Y-53761714D01*
X110949166Y-53761714D01*
X109853928Y-54428380D02*
X109853928Y-53428380D01*
X109853928Y-53809333D02*
X109758690Y-53761714D01*
X109568214Y-53761714D01*
X109472976Y-53809333D01*
X109425357Y-53856952D01*
X109377738Y-53952190D01*
X109377738Y-54237904D01*
X109425357Y-54333142D01*
X109472976Y-54380761D01*
X109568214Y-54428380D01*
X109758690Y-54428380D01*
X109853928Y-54380761D01*
X108806309Y-54428380D02*
X108901547Y-54380761D01*
X108949166Y-54333142D01*
X108996785Y-54237904D01*
X108996785Y-53952190D01*
X108949166Y-53856952D01*
X108901547Y-53809333D01*
X108806309Y-53761714D01*
X108663452Y-53761714D01*
X108568214Y-53809333D01*
X108520595Y-53856952D01*
X108472976Y-53952190D01*
X108472976Y-54237904D01*
X108520595Y-54333142D01*
X108568214Y-54380761D01*
X108663452Y-54428380D01*
X108806309Y-54428380D01*
X107615833Y-54428380D02*
X107615833Y-53904571D01*
X107663452Y-53809333D01*
X107758690Y-53761714D01*
X107949166Y-53761714D01*
X108044404Y-53809333D01*
X107615833Y-54380761D02*
X107711071Y-54428380D01*
X107949166Y-54428380D01*
X108044404Y-54380761D01*
X108092023Y-54285523D01*
X108092023Y-54190285D01*
X108044404Y-54095047D01*
X107949166Y-54047428D01*
X107711071Y-54047428D01*
X107615833Y-53999809D01*
X107139642Y-54428380D02*
X107139642Y-53761714D01*
X107139642Y-53952190D02*
X107092023Y-53856952D01*
X107044404Y-53809333D01*
X106949166Y-53761714D01*
X106853928Y-53761714D01*
X106092023Y-54428380D02*
X106092023Y-53428380D01*
X106092023Y-54380761D02*
X106187261Y-54428380D01*
X106377738Y-54428380D01*
X106472976Y-54380761D01*
X106520595Y-54333142D01*
X106568214Y-54237904D01*
X106568214Y-53952190D01*
X106520595Y-53856952D01*
X106472976Y-53809333D01*
X106377738Y-53761714D01*
X106187261Y-53761714D01*
X106092023Y-53809333D01*
X119044404Y-56078380D02*
X119044404Y-55411714D01*
X119044404Y-55602190D02*
X118996785Y-55506952D01*
X118949166Y-55459333D01*
X118853928Y-55411714D01*
X118758690Y-55411714D01*
X118044404Y-56030761D02*
X118139642Y-56078380D01*
X118330119Y-56078380D01*
X118425357Y-56030761D01*
X118472976Y-55935523D01*
X118472976Y-55554571D01*
X118425357Y-55459333D01*
X118330119Y-55411714D01*
X118139642Y-55411714D01*
X118044404Y-55459333D01*
X117996785Y-55554571D01*
X117996785Y-55649809D01*
X118472976Y-55745047D01*
X117663452Y-55411714D02*
X117425357Y-56078380D01*
X117187261Y-55411714D01*
X115853928Y-55078380D02*
X115758690Y-55078380D01*
X115663452Y-55126000D01*
X115615833Y-55173619D01*
X115568214Y-55268857D01*
X115520595Y-55459333D01*
X115520595Y-55697428D01*
X115568214Y-55887904D01*
X115615833Y-55983142D01*
X115663452Y-56030761D01*
X115758690Y-56078380D01*
X115853928Y-56078380D01*
X115949166Y-56030761D01*
X115996785Y-55983142D01*
X116044404Y-55887904D01*
X116092023Y-55697428D01*
X116092023Y-55459333D01*
X116044404Y-55268857D01*
X115996785Y-55173619D01*
X115949166Y-55126000D01*
X115853928Y-55078380D01*
X119092023Y-56823619D02*
X119044404Y-56776000D01*
X118949166Y-56728380D01*
X118711071Y-56728380D01*
X118615833Y-56776000D01*
X118568214Y-56823619D01*
X118520595Y-56918857D01*
X118520595Y-57014095D01*
X118568214Y-57156952D01*
X119139642Y-57728380D01*
X118520595Y-57728380D01*
X117901547Y-56728380D02*
X117806309Y-56728380D01*
X117711071Y-56776000D01*
X117663452Y-56823619D01*
X117615833Y-56918857D01*
X117568214Y-57109333D01*
X117568214Y-57347428D01*
X117615833Y-57537904D01*
X117663452Y-57633142D01*
X117711071Y-57680761D01*
X117806309Y-57728380D01*
X117901547Y-57728380D01*
X117996785Y-57680761D01*
X118044404Y-57633142D01*
X118092023Y-57537904D01*
X118139642Y-57347428D01*
X118139642Y-57109333D01*
X118092023Y-56918857D01*
X118044404Y-56823619D01*
X117996785Y-56776000D01*
X117901547Y-56728380D01*
X117187261Y-56823619D02*
X117139642Y-56776000D01*
X117044404Y-56728380D01*
X116806309Y-56728380D01*
X116711071Y-56776000D01*
X116663452Y-56823619D01*
X116615833Y-56918857D01*
X116615833Y-57014095D01*
X116663452Y-57156952D01*
X117234880Y-57728380D01*
X116615833Y-57728380D01*
X115996785Y-56728380D02*
X115901547Y-56728380D01*
X115806309Y-56776000D01*
X115758690Y-56823619D01*
X115711071Y-56918857D01*
X115663452Y-57109333D01*
X115663452Y-57347428D01*
X115711071Y-57537904D01*
X115758690Y-57633142D01*
X115806309Y-57680761D01*
X115901547Y-57728380D01*
X115996785Y-57728380D01*
X116092023Y-57680761D01*
X116139642Y-57633142D01*
X116187261Y-57537904D01*
X116234880Y-57347428D01*
X116234880Y-57109333D01*
X116187261Y-56918857D01*
X116139642Y-56823619D01*
X116092023Y-56776000D01*
X115996785Y-56728380D01*
X115234880Y-57347428D02*
X114472976Y-57347428D01*
X113568214Y-56728380D02*
X113758690Y-56728380D01*
X113853928Y-56776000D01*
X113901547Y-56823619D01*
X113996785Y-56966476D01*
X114044404Y-57156952D01*
X114044404Y-57537904D01*
X113996785Y-57633142D01*
X113949166Y-57680761D01*
X113853928Y-57728380D01*
X113663452Y-57728380D01*
X113568214Y-57680761D01*
X113520595Y-57633142D01*
X113472976Y-57537904D01*
X113472976Y-57299809D01*
X113520595Y-57204571D01*
X113568214Y-57156952D01*
X113663452Y-57109333D01*
X113853928Y-57109333D01*
X113949166Y-57156952D01*
X113996785Y-57204571D01*
X114044404Y-57299809D01*
X113044404Y-57347428D02*
X112282500Y-57347428D01*
X111282500Y-57728380D02*
X111853928Y-57728380D01*
X111568214Y-57728380D02*
X111568214Y-56728380D01*
X111663452Y-56871238D01*
X111758690Y-56966476D01*
X111853928Y-57014095D01*
X110949166Y-56728380D02*
X110282500Y-56728380D01*
X110711071Y-57728380D01*
X190259642Y-65825714D02*
X190021547Y-66492380D01*
X189783452Y-65825714D01*
X189402500Y-66111428D02*
X188640595Y-66111428D01*
X187402500Y-66492380D02*
X187402500Y-65825714D01*
X187402500Y-65492380D02*
X187450119Y-65540000D01*
X187402500Y-65587619D01*
X187354880Y-65540000D01*
X187402500Y-65492380D01*
X187402500Y-65587619D01*
X186926309Y-65825714D02*
X186926309Y-66492380D01*
X186926309Y-65920952D02*
X186878690Y-65873333D01*
X186783452Y-65825714D01*
X186640595Y-65825714D01*
X186545357Y-65873333D01*
X186497738Y-65968571D01*
X186497738Y-66492380D01*
X189735833Y-63285714D02*
X189735833Y-64095238D01*
X189783452Y-64190476D01*
X189831071Y-64238095D01*
X189926309Y-64285714D01*
X190069166Y-64285714D01*
X190164404Y-64238095D01*
X189735833Y-63904761D02*
X189831071Y-63952380D01*
X190021547Y-63952380D01*
X190116785Y-63904761D01*
X190164404Y-63857142D01*
X190212023Y-63761904D01*
X190212023Y-63476190D01*
X190164404Y-63380952D01*
X190116785Y-63333333D01*
X190021547Y-63285714D01*
X189831071Y-63285714D01*
X189735833Y-63333333D01*
X189259642Y-63285714D02*
X189259642Y-63952380D01*
X189259642Y-63380952D02*
X189212023Y-63333333D01*
X189116785Y-63285714D01*
X188973928Y-63285714D01*
X188878690Y-63333333D01*
X188831071Y-63428571D01*
X188831071Y-63952380D01*
X187926309Y-63952380D02*
X187926309Y-62952380D01*
X187926309Y-63904761D02*
X188021547Y-63952380D01*
X188212023Y-63952380D01*
X188307261Y-63904761D01*
X188354880Y-63857142D01*
X188402500Y-63761904D01*
X188402500Y-63476190D01*
X188354880Y-63380952D01*
X188307261Y-63333333D01*
X188212023Y-63285714D01*
X188021547Y-63285714D01*
X187926309Y-63333333D01*
X189735833Y-60745714D02*
X189735833Y-61555238D01*
X189783452Y-61650476D01*
X189831071Y-61698095D01*
X189926309Y-61745714D01*
X190069166Y-61745714D01*
X190164404Y-61698095D01*
X189735833Y-61364761D02*
X189831071Y-61412380D01*
X190021547Y-61412380D01*
X190116785Y-61364761D01*
X190164404Y-61317142D01*
X190212023Y-61221904D01*
X190212023Y-60936190D01*
X190164404Y-60840952D01*
X190116785Y-60793333D01*
X190021547Y-60745714D01*
X189831071Y-60745714D01*
X189735833Y-60793333D01*
X189259642Y-60745714D02*
X189259642Y-61412380D01*
X189259642Y-60840952D02*
X189212023Y-60793333D01*
X189116785Y-60745714D01*
X188973928Y-60745714D01*
X188878690Y-60793333D01*
X188831071Y-60888571D01*
X188831071Y-61412380D01*
X187926309Y-61412380D02*
X187926309Y-60412380D01*
X187926309Y-61364761D02*
X188021547Y-61412380D01*
X188212023Y-61412380D01*
X188307261Y-61364761D01*
X188354880Y-61317142D01*
X188402500Y-61221904D01*
X188402500Y-60936190D01*
X188354880Y-60840952D01*
X188307261Y-60793333D01*
X188212023Y-60745714D01*
X188021547Y-60745714D01*
X187926309Y-60793333D01*
X189735833Y-58205714D02*
X189735833Y-59015238D01*
X189783452Y-59110476D01*
X189831071Y-59158095D01*
X189926309Y-59205714D01*
X190069166Y-59205714D01*
X190164404Y-59158095D01*
X189735833Y-58824761D02*
X189831071Y-58872380D01*
X190021547Y-58872380D01*
X190116785Y-58824761D01*
X190164404Y-58777142D01*
X190212023Y-58681904D01*
X190212023Y-58396190D01*
X190164404Y-58300952D01*
X190116785Y-58253333D01*
X190021547Y-58205714D01*
X189831071Y-58205714D01*
X189735833Y-58253333D01*
X189259642Y-58205714D02*
X189259642Y-58872380D01*
X189259642Y-58300952D02*
X189212023Y-58253333D01*
X189116785Y-58205714D01*
X188973928Y-58205714D01*
X188878690Y-58253333D01*
X188831071Y-58348571D01*
X188831071Y-58872380D01*
X187926309Y-58872380D02*
X187926309Y-57872380D01*
X187926309Y-58824761D02*
X188021547Y-58872380D01*
X188212023Y-58872380D01*
X188307261Y-58824761D01*
X188354880Y-58777142D01*
X188402500Y-58681904D01*
X188402500Y-58396190D01*
X188354880Y-58300952D01*
X188307261Y-58253333D01*
X188212023Y-58205714D01*
X188021547Y-58205714D01*
X187926309Y-58253333D01*
X190259642Y-55665714D02*
X190021547Y-56332380D01*
X189783452Y-55665714D01*
X189402500Y-55951428D02*
X188640595Y-55951428D01*
X189021547Y-56332380D02*
X189021547Y-55570476D01*
X187402500Y-56332380D02*
X187402500Y-55665714D01*
X187402500Y-55332380D02*
X187450119Y-55380000D01*
X187402500Y-55427619D01*
X187354880Y-55380000D01*
X187402500Y-55332380D01*
X187402500Y-55427619D01*
X186926309Y-55665714D02*
X186926309Y-56332380D01*
X186926309Y-55760952D02*
X186878690Y-55713333D01*
X186783452Y-55665714D01*
X186640595Y-55665714D01*
X186545357Y-55713333D01*
X186497738Y-55808571D01*
X186497738Y-56332380D01*
X113535833Y-121705714D02*
X113535833Y-122515238D01*
X113583452Y-122610476D01*
X113631071Y-122658095D01*
X113726309Y-122705714D01*
X113869166Y-122705714D01*
X113964404Y-122658095D01*
X113535833Y-122324761D02*
X113631071Y-122372380D01*
X113821547Y-122372380D01*
X113916785Y-122324761D01*
X113964404Y-122277142D01*
X114012023Y-122181904D01*
X114012023Y-121896190D01*
X113964404Y-121800952D01*
X113916785Y-121753333D01*
X113821547Y-121705714D01*
X113631071Y-121705714D01*
X113535833Y-121753333D01*
X113059642Y-121705714D02*
X113059642Y-122372380D01*
X113059642Y-121800952D02*
X113012023Y-121753333D01*
X112916785Y-121705714D01*
X112773928Y-121705714D01*
X112678690Y-121753333D01*
X112631071Y-121848571D01*
X112631071Y-122372380D01*
X111726309Y-122372380D02*
X111726309Y-121372380D01*
X111726309Y-122324761D02*
X111821547Y-122372380D01*
X112012023Y-122372380D01*
X112107261Y-122324761D01*
X112154880Y-122277142D01*
X112202500Y-122181904D01*
X112202500Y-121896190D01*
X112154880Y-121800952D01*
X112107261Y-121753333D01*
X112012023Y-121705714D01*
X111821547Y-121705714D01*
X111726309Y-121753333D01*
X113392976Y-119737142D02*
X113440595Y-119784761D01*
X113583452Y-119832380D01*
X113678690Y-119832380D01*
X113821547Y-119784761D01*
X113916785Y-119689523D01*
X113964404Y-119594285D01*
X114012023Y-119403809D01*
X114012023Y-119260952D01*
X113964404Y-119070476D01*
X113916785Y-118975238D01*
X113821547Y-118880000D01*
X113678690Y-118832380D01*
X113583452Y-118832380D01*
X113440595Y-118880000D01*
X113392976Y-118927619D01*
X113107261Y-118832380D02*
X112773928Y-119832380D01*
X112440595Y-118832380D01*
X111345357Y-119832380D02*
X111345357Y-119165714D01*
X111345357Y-118832380D02*
X111392976Y-118880000D01*
X111345357Y-118927619D01*
X111297738Y-118880000D01*
X111345357Y-118832380D01*
X111345357Y-118927619D01*
X110869166Y-119165714D02*
X110869166Y-119832380D01*
X110869166Y-119260952D02*
X110821547Y-119213333D01*
X110726309Y-119165714D01*
X110583452Y-119165714D01*
X110488214Y-119213333D01*
X110440595Y-119308571D01*
X110440595Y-119832380D01*
X109297738Y-118832380D02*
X108678690Y-118832380D01*
X109012023Y-119213333D01*
X108869166Y-119213333D01*
X108773928Y-119260952D01*
X108726309Y-119308571D01*
X108678690Y-119403809D01*
X108678690Y-119641904D01*
X108726309Y-119737142D01*
X108773928Y-119784761D01*
X108869166Y-119832380D01*
X109154880Y-119832380D01*
X109250119Y-119784761D01*
X109297738Y-119737142D01*
X113392976Y-117197142D02*
X113440595Y-117244761D01*
X113583452Y-117292380D01*
X113678690Y-117292380D01*
X113821547Y-117244761D01*
X113916785Y-117149523D01*
X113964404Y-117054285D01*
X114012023Y-116863809D01*
X114012023Y-116720952D01*
X113964404Y-116530476D01*
X113916785Y-116435238D01*
X113821547Y-116340000D01*
X113678690Y-116292380D01*
X113583452Y-116292380D01*
X113440595Y-116340000D01*
X113392976Y-116387619D01*
X113107261Y-116292380D02*
X112773928Y-117292380D01*
X112440595Y-116292380D01*
X111345357Y-117292380D02*
X111345357Y-116625714D01*
X111345357Y-116292380D02*
X111392976Y-116340000D01*
X111345357Y-116387619D01*
X111297738Y-116340000D01*
X111345357Y-116292380D01*
X111345357Y-116387619D01*
X110869166Y-116625714D02*
X110869166Y-117292380D01*
X110869166Y-116720952D02*
X110821547Y-116673333D01*
X110726309Y-116625714D01*
X110583452Y-116625714D01*
X110488214Y-116673333D01*
X110440595Y-116768571D01*
X110440595Y-117292380D01*
X109250119Y-116387619D02*
X109202500Y-116340000D01*
X109107261Y-116292380D01*
X108869166Y-116292380D01*
X108773928Y-116340000D01*
X108726309Y-116387619D01*
X108678690Y-116482857D01*
X108678690Y-116578095D01*
X108726309Y-116720952D01*
X109297738Y-117292380D01*
X108678690Y-117292380D01*
X113392976Y-114657142D02*
X113440595Y-114704761D01*
X113583452Y-114752380D01*
X113678690Y-114752380D01*
X113821547Y-114704761D01*
X113916785Y-114609523D01*
X113964404Y-114514285D01*
X114012023Y-114323809D01*
X114012023Y-114180952D01*
X113964404Y-113990476D01*
X113916785Y-113895238D01*
X113821547Y-113800000D01*
X113678690Y-113752380D01*
X113583452Y-113752380D01*
X113440595Y-113800000D01*
X113392976Y-113847619D01*
X113107261Y-113752380D02*
X112773928Y-114752380D01*
X112440595Y-113752380D01*
X111345357Y-114752380D02*
X111345357Y-114085714D01*
X111345357Y-113752380D02*
X111392976Y-113800000D01*
X111345357Y-113847619D01*
X111297738Y-113800000D01*
X111345357Y-113752380D01*
X111345357Y-113847619D01*
X110869166Y-114085714D02*
X110869166Y-114752380D01*
X110869166Y-114180952D02*
X110821547Y-114133333D01*
X110726309Y-114085714D01*
X110583452Y-114085714D01*
X110488214Y-114133333D01*
X110440595Y-114228571D01*
X110440595Y-114752380D01*
X108678690Y-114752380D02*
X109250119Y-114752380D01*
X108964404Y-114752380D02*
X108964404Y-113752380D01*
X109059642Y-113895238D01*
X109154880Y-113990476D01*
X109250119Y-114038095D01*
X112265833Y-86145714D02*
X112265833Y-86955238D01*
X112313452Y-87050476D01*
X112361071Y-87098095D01*
X112456309Y-87145714D01*
X112599166Y-87145714D01*
X112694404Y-87098095D01*
X112265833Y-86764761D02*
X112361071Y-86812380D01*
X112551547Y-86812380D01*
X112646785Y-86764761D01*
X112694404Y-86717142D01*
X112742023Y-86621904D01*
X112742023Y-86336190D01*
X112694404Y-86240952D01*
X112646785Y-86193333D01*
X112551547Y-86145714D01*
X112361071Y-86145714D01*
X112265833Y-86193333D01*
X111789642Y-86145714D02*
X111789642Y-86812380D01*
X111789642Y-86240952D02*
X111742023Y-86193333D01*
X111646785Y-86145714D01*
X111503928Y-86145714D01*
X111408690Y-86193333D01*
X111361071Y-86288571D01*
X111361071Y-86812380D01*
X110456309Y-86812380D02*
X110456309Y-85812380D01*
X110456309Y-86764761D02*
X110551547Y-86812380D01*
X110742023Y-86812380D01*
X110837261Y-86764761D01*
X110884880Y-86717142D01*
X110932500Y-86621904D01*
X110932500Y-86336190D01*
X110884880Y-86240952D01*
X110837261Y-86193333D01*
X110742023Y-86145714D01*
X110551547Y-86145714D01*
X110456309Y-86193333D01*
X112742023Y-84224761D02*
X112646785Y-84272380D01*
X112456309Y-84272380D01*
X112361071Y-84224761D01*
X112313452Y-84129523D01*
X112313452Y-84081904D01*
X112361071Y-83986666D01*
X112456309Y-83939047D01*
X112599166Y-83939047D01*
X112694404Y-83891428D01*
X112742023Y-83796190D01*
X112742023Y-83748571D01*
X112694404Y-83653333D01*
X112599166Y-83605714D01*
X112456309Y-83605714D01*
X112361071Y-83653333D01*
X111884880Y-84272380D02*
X111884880Y-83605714D01*
X111884880Y-83272380D02*
X111932500Y-83320000D01*
X111884880Y-83367619D01*
X111837261Y-83320000D01*
X111884880Y-83272380D01*
X111884880Y-83367619D01*
X110980119Y-83605714D02*
X110980119Y-84415238D01*
X111027738Y-84510476D01*
X111075357Y-84558095D01*
X111170595Y-84605714D01*
X111313452Y-84605714D01*
X111408690Y-84558095D01*
X110980119Y-84224761D02*
X111075357Y-84272380D01*
X111265833Y-84272380D01*
X111361071Y-84224761D01*
X111408690Y-84177142D01*
X111456309Y-84081904D01*
X111456309Y-83796190D01*
X111408690Y-83700952D01*
X111361071Y-83653333D01*
X111265833Y-83605714D01*
X111075357Y-83605714D01*
X110980119Y-83653333D01*
X109742023Y-84272380D02*
X109742023Y-83605714D01*
X109742023Y-83272380D02*
X109789642Y-83320000D01*
X109742023Y-83367619D01*
X109694404Y-83320000D01*
X109742023Y-83272380D01*
X109742023Y-83367619D01*
X109265833Y-83605714D02*
X109265833Y-84272380D01*
X109265833Y-83700952D02*
X109218214Y-83653333D01*
X109122976Y-83605714D01*
X108980119Y-83605714D01*
X108884880Y-83653333D01*
X108837261Y-83748571D01*
X108837261Y-84272380D01*
X107694404Y-83272380D02*
X107075357Y-83272380D01*
X107408690Y-83653333D01*
X107265833Y-83653333D01*
X107170595Y-83700952D01*
X107122976Y-83748571D01*
X107075357Y-83843809D01*
X107075357Y-84081904D01*
X107122976Y-84177142D01*
X107170595Y-84224761D01*
X107265833Y-84272380D01*
X107551547Y-84272380D01*
X107646785Y-84224761D01*
X107694404Y-84177142D01*
X112742023Y-81684761D02*
X112646785Y-81732380D01*
X112456309Y-81732380D01*
X112361071Y-81684761D01*
X112313452Y-81589523D01*
X112313452Y-81541904D01*
X112361071Y-81446666D01*
X112456309Y-81399047D01*
X112599166Y-81399047D01*
X112694404Y-81351428D01*
X112742023Y-81256190D01*
X112742023Y-81208571D01*
X112694404Y-81113333D01*
X112599166Y-81065714D01*
X112456309Y-81065714D01*
X112361071Y-81113333D01*
X111884880Y-81732380D02*
X111884880Y-81065714D01*
X111884880Y-80732380D02*
X111932500Y-80780000D01*
X111884880Y-80827619D01*
X111837261Y-80780000D01*
X111884880Y-80732380D01*
X111884880Y-80827619D01*
X110980119Y-81065714D02*
X110980119Y-81875238D01*
X111027738Y-81970476D01*
X111075357Y-82018095D01*
X111170595Y-82065714D01*
X111313452Y-82065714D01*
X111408690Y-82018095D01*
X110980119Y-81684761D02*
X111075357Y-81732380D01*
X111265833Y-81732380D01*
X111361071Y-81684761D01*
X111408690Y-81637142D01*
X111456309Y-81541904D01*
X111456309Y-81256190D01*
X111408690Y-81160952D01*
X111361071Y-81113333D01*
X111265833Y-81065714D01*
X111075357Y-81065714D01*
X110980119Y-81113333D01*
X109742023Y-81732380D02*
X109742023Y-81065714D01*
X109742023Y-80732380D02*
X109789642Y-80780000D01*
X109742023Y-80827619D01*
X109694404Y-80780000D01*
X109742023Y-80732380D01*
X109742023Y-80827619D01*
X109265833Y-81065714D02*
X109265833Y-81732380D01*
X109265833Y-81160952D02*
X109218214Y-81113333D01*
X109122976Y-81065714D01*
X108980119Y-81065714D01*
X108884880Y-81113333D01*
X108837261Y-81208571D01*
X108837261Y-81732380D01*
X107646785Y-80827619D02*
X107599166Y-80780000D01*
X107503928Y-80732380D01*
X107265833Y-80732380D01*
X107170595Y-80780000D01*
X107122976Y-80827619D01*
X107075357Y-80922857D01*
X107075357Y-81018095D01*
X107122976Y-81160952D01*
X107694404Y-81732380D01*
X107075357Y-81732380D01*
X112742023Y-79144761D02*
X112646785Y-79192380D01*
X112456309Y-79192380D01*
X112361071Y-79144761D01*
X112313452Y-79049523D01*
X112313452Y-79001904D01*
X112361071Y-78906666D01*
X112456309Y-78859047D01*
X112599166Y-78859047D01*
X112694404Y-78811428D01*
X112742023Y-78716190D01*
X112742023Y-78668571D01*
X112694404Y-78573333D01*
X112599166Y-78525714D01*
X112456309Y-78525714D01*
X112361071Y-78573333D01*
X111884880Y-79192380D02*
X111884880Y-78525714D01*
X111884880Y-78192380D02*
X111932500Y-78240000D01*
X111884880Y-78287619D01*
X111837261Y-78240000D01*
X111884880Y-78192380D01*
X111884880Y-78287619D01*
X110980119Y-78525714D02*
X110980119Y-79335238D01*
X111027738Y-79430476D01*
X111075357Y-79478095D01*
X111170595Y-79525714D01*
X111313452Y-79525714D01*
X111408690Y-79478095D01*
X110980119Y-79144761D02*
X111075357Y-79192380D01*
X111265833Y-79192380D01*
X111361071Y-79144761D01*
X111408690Y-79097142D01*
X111456309Y-79001904D01*
X111456309Y-78716190D01*
X111408690Y-78620952D01*
X111361071Y-78573333D01*
X111265833Y-78525714D01*
X111075357Y-78525714D01*
X110980119Y-78573333D01*
X109742023Y-79192380D02*
X109742023Y-78525714D01*
X109742023Y-78192380D02*
X109789642Y-78240000D01*
X109742023Y-78287619D01*
X109694404Y-78240000D01*
X109742023Y-78192380D01*
X109742023Y-78287619D01*
X109265833Y-78525714D02*
X109265833Y-79192380D01*
X109265833Y-78620952D02*
X109218214Y-78573333D01*
X109122976Y-78525714D01*
X108980119Y-78525714D01*
X108884880Y-78573333D01*
X108837261Y-78668571D01*
X108837261Y-79192380D01*
X107075357Y-79192380D02*
X107646785Y-79192380D01*
X107361071Y-79192380D02*
X107361071Y-78192380D01*
X107456309Y-78335238D01*
X107551547Y-78430476D01*
X107646785Y-78478095D01*
X122425833Y-147105714D02*
X122425833Y-147915238D01*
X122473452Y-148010476D01*
X122521071Y-148058095D01*
X122616309Y-148105714D01*
X122759166Y-148105714D01*
X122854404Y-148058095D01*
X122425833Y-147724761D02*
X122521071Y-147772380D01*
X122711547Y-147772380D01*
X122806785Y-147724761D01*
X122854404Y-147677142D01*
X122902023Y-147581904D01*
X122902023Y-147296190D01*
X122854404Y-147200952D01*
X122806785Y-147153333D01*
X122711547Y-147105714D01*
X122521071Y-147105714D01*
X122425833Y-147153333D01*
X121949642Y-147105714D02*
X121949642Y-147772380D01*
X121949642Y-147200952D02*
X121902023Y-147153333D01*
X121806785Y-147105714D01*
X121663928Y-147105714D01*
X121568690Y-147153333D01*
X121521071Y-147248571D01*
X121521071Y-147772380D01*
X120616309Y-147772380D02*
X120616309Y-146772380D01*
X120616309Y-147724761D02*
X120711547Y-147772380D01*
X120902023Y-147772380D01*
X120997261Y-147724761D01*
X121044880Y-147677142D01*
X121092500Y-147581904D01*
X121092500Y-147296190D01*
X121044880Y-147200952D01*
X120997261Y-147153333D01*
X120902023Y-147105714D01*
X120711547Y-147105714D01*
X120616309Y-147153333D01*
X122949642Y-144565714D02*
X122759166Y-145232380D01*
X122568690Y-144756190D01*
X122378214Y-145232380D01*
X122187738Y-144565714D01*
X121425833Y-145184761D02*
X121521071Y-145232380D01*
X121711547Y-145232380D01*
X121806785Y-145184761D01*
X121854404Y-145089523D01*
X121854404Y-144708571D01*
X121806785Y-144613333D01*
X121711547Y-144565714D01*
X121521071Y-144565714D01*
X121425833Y-144613333D01*
X121378214Y-144708571D01*
X121378214Y-144803809D01*
X121854404Y-144899047D01*
X121092500Y-144565714D02*
X120711547Y-144565714D01*
X120949642Y-144232380D02*
X120949642Y-145089523D01*
X120902023Y-145184761D01*
X120806785Y-145232380D01*
X120711547Y-145232380D01*
X119473452Y-145232380D02*
X119568690Y-145184761D01*
X119616309Y-145137142D01*
X119663928Y-145041904D01*
X119663928Y-144756190D01*
X119616309Y-144660952D01*
X119568690Y-144613333D01*
X119473452Y-144565714D01*
X119330595Y-144565714D01*
X119235357Y-144613333D01*
X119187738Y-144660952D01*
X119140119Y-144756190D01*
X119140119Y-145041904D01*
X119187738Y-145137142D01*
X119235357Y-145184761D01*
X119330595Y-145232380D01*
X119473452Y-145232380D01*
X118282976Y-144565714D02*
X118282976Y-145232380D01*
X118711547Y-144565714D02*
X118711547Y-145089523D01*
X118663928Y-145184761D01*
X118568690Y-145232380D01*
X118425833Y-145232380D01*
X118330595Y-145184761D01*
X118282976Y-145137142D01*
X117949642Y-144565714D02*
X117568690Y-144565714D01*
X117806785Y-144232380D02*
X117806785Y-145089523D01*
X117759166Y-145184761D01*
X117663928Y-145232380D01*
X117568690Y-145232380D01*
X136395833Y-147105714D02*
X136395833Y-147915238D01*
X136443452Y-148010476D01*
X136491071Y-148058095D01*
X136586309Y-148105714D01*
X136729166Y-148105714D01*
X136824404Y-148058095D01*
X136395833Y-147724761D02*
X136491071Y-147772380D01*
X136681547Y-147772380D01*
X136776785Y-147724761D01*
X136824404Y-147677142D01*
X136872023Y-147581904D01*
X136872023Y-147296190D01*
X136824404Y-147200952D01*
X136776785Y-147153333D01*
X136681547Y-147105714D01*
X136491071Y-147105714D01*
X136395833Y-147153333D01*
X135919642Y-147105714D02*
X135919642Y-147772380D01*
X135919642Y-147200952D02*
X135872023Y-147153333D01*
X135776785Y-147105714D01*
X135633928Y-147105714D01*
X135538690Y-147153333D01*
X135491071Y-147248571D01*
X135491071Y-147772380D01*
X134586309Y-147772380D02*
X134586309Y-146772380D01*
X134586309Y-147724761D02*
X134681547Y-147772380D01*
X134872023Y-147772380D01*
X134967261Y-147724761D01*
X135014880Y-147677142D01*
X135062500Y-147581904D01*
X135062500Y-147296190D01*
X135014880Y-147200952D01*
X134967261Y-147153333D01*
X134872023Y-147105714D01*
X134681547Y-147105714D01*
X134586309Y-147153333D01*
X136395833Y-145232380D02*
X136395833Y-144232380D01*
X136395833Y-145184761D02*
X136491071Y-145232380D01*
X136681547Y-145232380D01*
X136776785Y-145184761D01*
X136824404Y-145137142D01*
X136872023Y-145041904D01*
X136872023Y-144756190D01*
X136824404Y-144660952D01*
X136776785Y-144613333D01*
X136681547Y-144565714D01*
X136491071Y-144565714D01*
X136395833Y-144613333D01*
X135919642Y-145232380D02*
X135919642Y-144565714D01*
X135919642Y-144756190D02*
X135872023Y-144660952D01*
X135824404Y-144613333D01*
X135729166Y-144565714D01*
X135633928Y-144565714D01*
X135395833Y-144565714D02*
X135157738Y-145232380D01*
X134919642Y-144565714D02*
X135157738Y-145232380D01*
X135252976Y-145470476D01*
X135300595Y-145518095D01*
X135395833Y-145565714D01*
X133633928Y-145232380D02*
X133729166Y-145184761D01*
X133776785Y-145137142D01*
X133824404Y-145041904D01*
X133824404Y-144756190D01*
X133776785Y-144660952D01*
X133729166Y-144613333D01*
X133633928Y-144565714D01*
X133491071Y-144565714D01*
X133395833Y-144613333D01*
X133348214Y-144660952D01*
X133300595Y-144756190D01*
X133300595Y-145041904D01*
X133348214Y-145137142D01*
X133395833Y-145184761D01*
X133491071Y-145232380D01*
X133633928Y-145232380D01*
X132443452Y-144565714D02*
X132443452Y-145232380D01*
X132872023Y-144565714D02*
X132872023Y-145089523D01*
X132824404Y-145184761D01*
X132729166Y-145232380D01*
X132586309Y-145232380D01*
X132491071Y-145184761D01*
X132443452Y-145137142D01*
X132110119Y-144565714D02*
X131729166Y-144565714D01*
X131967261Y-144232380D02*
X131967261Y-145089523D01*
X131919642Y-145184761D01*
X131824404Y-145232380D01*
X131729166Y-145232380D01*
X169415833Y-147105714D02*
X169415833Y-147915238D01*
X169463452Y-148010476D01*
X169511071Y-148058095D01*
X169606309Y-148105714D01*
X169749166Y-148105714D01*
X169844404Y-148058095D01*
X169415833Y-147724761D02*
X169511071Y-147772380D01*
X169701547Y-147772380D01*
X169796785Y-147724761D01*
X169844404Y-147677142D01*
X169892023Y-147581904D01*
X169892023Y-147296190D01*
X169844404Y-147200952D01*
X169796785Y-147153333D01*
X169701547Y-147105714D01*
X169511071Y-147105714D01*
X169415833Y-147153333D01*
X168939642Y-147105714D02*
X168939642Y-147772380D01*
X168939642Y-147200952D02*
X168892023Y-147153333D01*
X168796785Y-147105714D01*
X168653928Y-147105714D01*
X168558690Y-147153333D01*
X168511071Y-147248571D01*
X168511071Y-147772380D01*
X167606309Y-147772380D02*
X167606309Y-146772380D01*
X167606309Y-147724761D02*
X167701547Y-147772380D01*
X167892023Y-147772380D01*
X167987261Y-147724761D01*
X168034880Y-147677142D01*
X168082500Y-147581904D01*
X168082500Y-147296190D01*
X168034880Y-147200952D01*
X167987261Y-147153333D01*
X167892023Y-147105714D01*
X167701547Y-147105714D01*
X167606309Y-147153333D01*
X169272976Y-145137142D02*
X169320595Y-145184761D01*
X169463452Y-145232380D01*
X169558690Y-145232380D01*
X169701547Y-145184761D01*
X169796785Y-145089523D01*
X169844404Y-144994285D01*
X169892023Y-144803809D01*
X169892023Y-144660952D01*
X169844404Y-144470476D01*
X169796785Y-144375238D01*
X169701547Y-144280000D01*
X169558690Y-144232380D01*
X169463452Y-144232380D01*
X169320595Y-144280000D01*
X169272976Y-144327619D01*
X168987261Y-144232380D02*
X168653928Y-145232380D01*
X168320595Y-144232380D01*
X167082500Y-145232380D02*
X167177738Y-145184761D01*
X167225357Y-145137142D01*
X167272976Y-145041904D01*
X167272976Y-144756190D01*
X167225357Y-144660952D01*
X167177738Y-144613333D01*
X167082500Y-144565714D01*
X166939642Y-144565714D01*
X166844404Y-144613333D01*
X166796785Y-144660952D01*
X166749166Y-144756190D01*
X166749166Y-145041904D01*
X166796785Y-145137142D01*
X166844404Y-145184761D01*
X166939642Y-145232380D01*
X167082500Y-145232380D01*
X165892023Y-144565714D02*
X165892023Y-145232380D01*
X166320595Y-144565714D02*
X166320595Y-145089523D01*
X166272976Y-145184761D01*
X166177738Y-145232380D01*
X166034880Y-145232380D01*
X165939642Y-145184761D01*
X165892023Y-145137142D01*
X165558690Y-144565714D02*
X165177738Y-144565714D01*
X165415833Y-144232380D02*
X165415833Y-145089523D01*
X165368214Y-145184761D01*
X165272976Y-145232380D01*
X165177738Y-145232380D01*
D12*
X180340000Y-66040000D02*
X121920000Y-66040000D01*
X180340000Y-116840000D02*
X180340000Y-66040000D01*
X121920000Y-116840000D02*
X180340000Y-116840000D01*
X121920000Y-66040000D02*
X121920000Y-116840000D01*
X186446000Y-136170000D02*
X187376000Y-136170000D01*
X189606000Y-136170000D02*
X188676000Y-136170000D01*
X189606000Y-136170000D02*
X189606000Y-139330000D01*
X186446000Y-136170000D02*
X186446000Y-137630000D01*
X171390000Y-120920000D02*
X171390000Y-119270000D01*
X171390000Y-119270000D02*
X181670000Y-119270000D01*
X181670000Y-119270000D02*
X181670000Y-124570000D01*
X181670000Y-124570000D02*
X171390000Y-124570000D01*
X171390000Y-124570000D02*
X171390000Y-122920000D01*
X171390000Y-122920000D02*
G75*
G03*
X171390000Y-120920000I0J1000000D01*
G01*
X179170000Y-136620000D02*
X176430000Y-136620000D01*
X176430000Y-136620000D02*
X176430000Y-130080000D01*
X176430000Y-130080000D02*
X179170000Y-130080000D01*
X179170000Y-130080000D02*
X179170000Y-136620000D01*
X177800000Y-137390000D02*
X177800000Y-136620000D01*
X177800000Y-129310000D02*
X177800000Y-130080000D01*
X179605000Y-130080000D02*
X182345000Y-130080000D01*
X182345000Y-130080000D02*
X182345000Y-136620000D01*
X182345000Y-136620000D02*
X179605000Y-136620000D01*
X179605000Y-136620000D02*
X179605000Y-130080000D01*
X180975000Y-129310000D02*
X180975000Y-130080000D01*
X180975000Y-137390000D02*
X180975000Y-136620000D01*
X195938000Y-109038000D02*
X198778000Y-109038000D01*
X198778000Y-109038000D02*
X198778000Y-113078000D01*
X198778000Y-113078000D02*
X195938000Y-113078000D01*
X195938000Y-113078000D02*
X195938000Y-109038000D01*
X197358000Y-108348000D02*
X197358000Y-109038000D01*
X197358000Y-113768000D02*
X197358000Y-113078000D01*
X196192000Y-124412000D02*
X199032000Y-124412000D01*
X199032000Y-124412000D02*
X199032000Y-128452000D01*
X199032000Y-128452000D02*
X196192000Y-128452000D01*
X196192000Y-128452000D02*
X196192000Y-124412000D01*
X197612000Y-123722000D02*
X197612000Y-124412000D01*
X197612000Y-129142000D02*
X197612000Y-128452000D01*
X173205000Y-132540000D02*
X176045000Y-132540000D01*
X176045000Y-132540000D02*
X176045000Y-136580000D01*
X176045000Y-136580000D02*
X173205000Y-136580000D01*
X173205000Y-136580000D02*
X173205000Y-132540000D01*
X174625000Y-131850000D02*
X174625000Y-132540000D01*
X174625000Y-137270000D02*
X174625000Y-136580000D01*
X188928000Y-143406000D02*
X188928000Y-140566000D01*
X188928000Y-140566000D02*
X192968000Y-140566000D01*
X192968000Y-140566000D02*
X192968000Y-143406000D01*
X192968000Y-143406000D02*
X188928000Y-143406000D01*
X188238000Y-141986000D02*
X188928000Y-141986000D01*
X193658000Y-141986000D02*
X192968000Y-141986000D01*
X128210000Y-124570000D02*
X128210000Y-122920000D01*
X138490000Y-124570000D02*
X128210000Y-124570000D01*
X138490000Y-119270000D02*
X138490000Y-124570000D01*
X128210000Y-119270000D02*
X138490000Y-119270000D01*
X128210000Y-120920000D02*
X128210000Y-119270000D01*
X128210000Y-122920000D02*
G75*
G03*
X128210000Y-120920000I0J1000000D01*
G01*
X153610000Y-124570000D02*
X153610000Y-122920000D01*
X163890000Y-124570000D02*
X153610000Y-124570000D01*
X163890000Y-119270000D02*
X163890000Y-124570000D01*
X153610000Y-119270000D02*
X163890000Y-119270000D01*
X153610000Y-120920000D02*
X153610000Y-119270000D01*
X153610000Y-122920000D02*
G75*
G03*
X153610000Y-120920000I0J1000000D01*
G01*
X184150000Y-129310000D02*
X184150000Y-130080000D01*
X184150000Y-137390000D02*
X184150000Y-136620000D01*
X185520000Y-130080000D02*
X185520000Y-136620000D01*
X182780000Y-130080000D02*
X185520000Y-130080000D01*
X182780000Y-136620000D02*
X182780000Y-130080000D01*
X185520000Y-136620000D02*
X182780000Y-136620000D01*
X123190000Y-129310000D02*
X123190000Y-130080000D01*
X123190000Y-137390000D02*
X123190000Y-136620000D01*
X124560000Y-130080000D02*
X124560000Y-136620000D01*
X121820000Y-130080000D02*
X124560000Y-130080000D01*
X121820000Y-136620000D02*
X121820000Y-130080000D01*
X124560000Y-136620000D02*
X121820000Y-136620000D01*
X158750000Y-129310000D02*
X158750000Y-130080000D01*
X158750000Y-137390000D02*
X158750000Y-136620000D01*
X160120000Y-130080000D02*
X160120000Y-136620000D01*
X157380000Y-130080000D02*
X160120000Y-130080000D01*
X157380000Y-136620000D02*
X157380000Y-130080000D01*
X160120000Y-136620000D02*
X157380000Y-136620000D01*
X162560000Y-129310000D02*
X162560000Y-130080000D01*
X162560000Y-137390000D02*
X162560000Y-136620000D01*
X163930000Y-130080000D02*
X163930000Y-136620000D01*
X161190000Y-130080000D02*
X163930000Y-130080000D01*
X161190000Y-136620000D02*
X161190000Y-130080000D01*
X163930000Y-136620000D02*
X161190000Y-136620000D01*
X130810000Y-129310000D02*
X130810000Y-130080000D01*
X130810000Y-137390000D02*
X130810000Y-136620000D01*
X132180000Y-130080000D02*
X132180000Y-136620000D01*
X129440000Y-130080000D02*
X132180000Y-130080000D01*
X129440000Y-136620000D02*
X129440000Y-130080000D01*
X132180000Y-136620000D02*
X129440000Y-136620000D01*
X142240000Y-129310000D02*
X142240000Y-130080000D01*
X142240000Y-137390000D02*
X142240000Y-136620000D01*
X143610000Y-130080000D02*
X143610000Y-136620000D01*
X140870000Y-130080000D02*
X143610000Y-130080000D01*
X140870000Y-136620000D02*
X140870000Y-130080000D01*
X143610000Y-136620000D02*
X140870000Y-136620000D01*
X166370000Y-137390000D02*
X166370000Y-136620000D01*
X166370000Y-129310000D02*
X166370000Y-130080000D01*
X165000000Y-136620000D02*
X165000000Y-130080000D01*
X167740000Y-136620000D02*
X165000000Y-136620000D01*
X167740000Y-130080000D02*
X167740000Y-136620000D01*
X165000000Y-130080000D02*
X167740000Y-130080000D01*
X134620000Y-137390000D02*
X134620000Y-136620000D01*
X134620000Y-129310000D02*
X134620000Y-130080000D01*
X133250000Y-136620000D02*
X133250000Y-130080000D01*
X135990000Y-136620000D02*
X133250000Y-136620000D01*
X135990000Y-130080000D02*
X135990000Y-136620000D01*
X133250000Y-130080000D02*
X135990000Y-130080000D01*
X138430000Y-137390000D02*
X138430000Y-136620000D01*
X138430000Y-129310000D02*
X138430000Y-130080000D01*
X137060000Y-136620000D02*
X137060000Y-130080000D01*
X139800000Y-136620000D02*
X137060000Y-136620000D01*
X139800000Y-130080000D02*
X139800000Y-136620000D01*
X137060000Y-130080000D02*
X139800000Y-130080000D01*
X128270000Y-114530000D02*
X128270000Y-113760000D01*
X128270000Y-106450000D02*
X128270000Y-107220000D01*
X126900000Y-113760000D02*
X126900000Y-107220000D01*
X129640000Y-113760000D02*
X126900000Y-113760000D01*
X129640000Y-107220000D02*
X129640000Y-113760000D01*
X126900000Y-107220000D02*
X129640000Y-107220000D01*
X158750000Y-114530000D02*
X158750000Y-113760000D01*
X158750000Y-106450000D02*
X158750000Y-107220000D01*
X157380000Y-113760000D02*
X157380000Y-107220000D01*
X160120000Y-113760000D02*
X157380000Y-113760000D01*
X160120000Y-107220000D02*
X160120000Y-113760000D01*
X157380000Y-107220000D02*
X160120000Y-107220000D01*
X143510000Y-106450000D02*
X143510000Y-107220000D01*
X143510000Y-114530000D02*
X143510000Y-113760000D01*
X144880000Y-107220000D02*
X144880000Y-113760000D01*
X142140000Y-107220000D02*
X144880000Y-107220000D01*
X142140000Y-113760000D02*
X142140000Y-107220000D01*
X144880000Y-113760000D02*
X142140000Y-113760000D01*
X139700000Y-106450000D02*
X139700000Y-107220000D01*
X139700000Y-114530000D02*
X139700000Y-113760000D01*
X141070000Y-107220000D02*
X141070000Y-113760000D01*
X138330000Y-107220000D02*
X141070000Y-107220000D01*
X138330000Y-113760000D02*
X138330000Y-107220000D01*
X141070000Y-113760000D02*
X138330000Y-113760000D01*
X135890000Y-106450000D02*
X135890000Y-107220000D01*
X135890000Y-114530000D02*
X135890000Y-113760000D01*
X137260000Y-107220000D02*
X137260000Y-113760000D01*
X134520000Y-107220000D02*
X137260000Y-107220000D01*
X134520000Y-113760000D02*
X134520000Y-107220000D01*
X137260000Y-113760000D02*
X134520000Y-113760000D01*
X132080000Y-106450000D02*
X132080000Y-107220000D01*
X132080000Y-114530000D02*
X132080000Y-113760000D01*
X133450000Y-107220000D02*
X133450000Y-113760000D01*
X130710000Y-107220000D02*
X133450000Y-107220000D01*
X130710000Y-113760000D02*
X130710000Y-107220000D01*
X133450000Y-113760000D02*
X130710000Y-113760000D01*
X170180000Y-106450000D02*
X170180000Y-107220000D01*
X170180000Y-114530000D02*
X170180000Y-113760000D01*
X171550000Y-107220000D02*
X171550000Y-113760000D01*
X168810000Y-107220000D02*
X171550000Y-107220000D01*
X168810000Y-113760000D02*
X168810000Y-107220000D01*
X171550000Y-113760000D02*
X168810000Y-113760000D01*
X166370000Y-106450000D02*
X166370000Y-107220000D01*
X166370000Y-114530000D02*
X166370000Y-113760000D01*
X167740000Y-107220000D02*
X167740000Y-113760000D01*
X165000000Y-107220000D02*
X167740000Y-107220000D01*
X165000000Y-113760000D02*
X165000000Y-107220000D01*
X167740000Y-113760000D02*
X165000000Y-113760000D01*
X162560000Y-106450000D02*
X162560000Y-107220000D01*
X162560000Y-114530000D02*
X162560000Y-113760000D01*
X163930000Y-107220000D02*
X163930000Y-113760000D01*
X161190000Y-107220000D02*
X163930000Y-107220000D01*
X161190000Y-113760000D02*
X161190000Y-107220000D01*
X163930000Y-113760000D02*
X161190000Y-113760000D01*
X196910000Y-54550000D02*
X195580000Y-54550000D01*
X196910000Y-55880000D02*
X196910000Y-54550000D01*
X194310000Y-54550000D02*
X191710000Y-54550000D01*
X194310000Y-57150000D02*
X194310000Y-54550000D01*
X196910000Y-57150000D02*
X194310000Y-57150000D01*
X191710000Y-54550000D02*
X191710000Y-67370000D01*
X196910000Y-57150000D02*
X196910000Y-67370000D01*
X196910000Y-67370000D02*
X191710000Y-67370000D01*
X127060000Y-143450000D02*
X125730000Y-143450000D01*
X127060000Y-144780000D02*
X127060000Y-143450000D01*
X127060000Y-146050000D02*
X124400000Y-146050000D01*
X124400000Y-146050000D02*
X124400000Y-148650000D01*
X127060000Y-146050000D02*
X127060000Y-148650000D01*
X127060000Y-148650000D02*
X124400000Y-148650000D01*
X124460000Y-95190000D02*
X123130000Y-95190000D01*
X123130000Y-95190000D02*
X123130000Y-96520000D01*
X123130000Y-97790000D02*
X123130000Y-115630000D01*
X125790000Y-115630000D02*
X123130000Y-115630000D01*
X125790000Y-97790000D02*
X125790000Y-115630000D01*
X125790000Y-97790000D02*
X123130000Y-97790000D01*
X124460000Y-67250000D02*
X123130000Y-67250000D01*
X123130000Y-67250000D02*
X123130000Y-68580000D01*
X123130000Y-69850000D02*
X123130000Y-77530000D01*
X125790000Y-77530000D02*
X123130000Y-77530000D01*
X125790000Y-69850000D02*
X125790000Y-77530000D01*
X125790000Y-69850000D02*
X123130000Y-69850000D01*
X163890000Y-143450000D02*
X162560000Y-143450000D01*
X163890000Y-144780000D02*
X163890000Y-143450000D01*
X163890000Y-146050000D02*
X161230000Y-146050000D01*
X161230000Y-146050000D02*
X161230000Y-148650000D01*
X163890000Y-146050000D02*
X163890000Y-148650000D01*
X163890000Y-148650000D02*
X161230000Y-148650000D01*
X177800000Y-105350000D02*
X176470000Y-105350000D01*
X176470000Y-105350000D02*
X176470000Y-106680000D01*
X176470000Y-107950000D02*
X176470000Y-115630000D01*
X179130000Y-115630000D02*
X176470000Y-115630000D01*
X179130000Y-107950000D02*
X179130000Y-115630000D01*
X179130000Y-107950000D02*
X176470000Y-107950000D01*
X177800000Y-67250000D02*
X176470000Y-67250000D01*
X176470000Y-67250000D02*
X176470000Y-68580000D01*
X176470000Y-69850000D02*
X176470000Y-77530000D01*
X179130000Y-77530000D02*
X176470000Y-77530000D01*
X179130000Y-69850000D02*
X179130000Y-77530000D01*
X179130000Y-69850000D02*
X176470000Y-69850000D01*
X141030000Y-143450000D02*
X139700000Y-143450000D01*
X141030000Y-144780000D02*
X141030000Y-143450000D01*
X141030000Y-146050000D02*
X138370000Y-146050000D01*
X138370000Y-146050000D02*
X138370000Y-148650000D01*
X141030000Y-146050000D02*
X141030000Y-148650000D01*
X141030000Y-148650000D02*
X138370000Y-148650000D01*
X106740000Y-77410000D02*
X105410000Y-77410000D01*
X106740000Y-78740000D02*
X106740000Y-77410000D01*
X106740000Y-80010000D02*
X104080000Y-80010000D01*
X104080000Y-80010000D02*
X104080000Y-87690000D01*
X106740000Y-80010000D02*
X106740000Y-87690000D01*
X106740000Y-87690000D02*
X104080000Y-87690000D01*
X108010000Y-112970000D02*
X106680000Y-112970000D01*
X108010000Y-114300000D02*
X108010000Y-112970000D01*
X108010000Y-115570000D02*
X105350000Y-115570000D01*
X105350000Y-115570000D02*
X105350000Y-123250000D01*
X108010000Y-115570000D02*
X108010000Y-123250000D01*
X108010000Y-123250000D02*
X105350000Y-123250000D01*
X122150000Y-120650000D02*
X121460000Y-120650000D01*
X116730000Y-120650000D02*
X117420000Y-120650000D01*
X121460000Y-122070000D02*
X117420000Y-122070000D01*
X121460000Y-119230000D02*
X121460000Y-122070000D01*
X117420000Y-119230000D02*
X121460000Y-119230000D01*
X117420000Y-122070000D02*
X117420000Y-119230000D01*
X126359920Y-132215400D02*
X126359920Y-131525400D01*
X126359920Y-126795400D02*
X126359920Y-127485400D01*
X124939920Y-131525400D02*
X124939920Y-127485400D01*
X127779920Y-131525400D02*
X124939920Y-131525400D01*
X127779920Y-127485400D02*
X127779920Y-131525400D01*
X124939920Y-127485400D02*
X127779920Y-127485400D01*
X148590000Y-118746400D02*
X148590000Y-118056400D01*
X148590000Y-113326400D02*
X148590000Y-114016400D01*
X147170000Y-118056400D02*
X147170000Y-114016400D01*
X150010000Y-118056400D02*
X147170000Y-118056400D01*
X150010000Y-114016400D02*
X150010000Y-118056400D01*
X147170000Y-114016400D02*
X150010000Y-114016400D01*
X148590000Y-129650000D02*
X148590000Y-128960000D01*
X148590000Y-124230000D02*
X148590000Y-124920000D01*
X147170000Y-128960000D02*
X147170000Y-124920000D01*
X150010000Y-128960000D02*
X147170000Y-128960000D01*
X150010000Y-124920000D02*
X150010000Y-128960000D01*
X147170000Y-124920000D02*
X150010000Y-124920000D01*
X180091000Y-59659759D02*
X180721000Y-59659759D01*
X180406000Y-59344759D02*
X180406000Y-59974759D01*
X181843000Y-66086000D02*
X182647000Y-66086000D01*
X181612000Y-66046000D02*
X182878000Y-66046000D01*
X181443000Y-66006000D02*
X183047000Y-66006000D01*
X181305000Y-65966000D02*
X183185000Y-65966000D01*
X181186000Y-65926000D02*
X183304000Y-65926000D01*
X181080000Y-65886000D02*
X183410000Y-65886000D01*
X180983000Y-65846000D02*
X183507000Y-65846000D01*
X180895000Y-65806000D02*
X183595000Y-65806000D01*
X180813000Y-65766000D02*
X183677000Y-65766000D01*
X180736000Y-65726000D02*
X183754000Y-65726000D01*
X180664000Y-65686000D02*
X183826000Y-65686000D01*
X180595000Y-65646000D02*
X183895000Y-65646000D01*
X180531000Y-65606000D02*
X183959000Y-65606000D01*
X180469000Y-65566000D02*
X184021000Y-65566000D01*
X180411000Y-65526000D02*
X184079000Y-65526000D01*
X180355000Y-65486000D02*
X184135000Y-65486000D01*
X180301000Y-65446000D02*
X184189000Y-65446000D01*
X180250000Y-65406000D02*
X184240000Y-65406000D01*
X180201000Y-65366000D02*
X184289000Y-65366000D01*
X180153000Y-65326000D02*
X184337000Y-65326000D01*
X180108000Y-65286000D02*
X184382000Y-65286000D01*
X180063000Y-65246000D02*
X184427000Y-65246000D01*
X180021000Y-65206000D02*
X184469000Y-65206000D01*
X179980000Y-65166000D02*
X184510000Y-65166000D01*
X183285000Y-65126000D02*
X184550000Y-65126000D01*
X179940000Y-65126000D02*
X181205000Y-65126000D01*
X183285000Y-65086000D02*
X184588000Y-65086000D01*
X179902000Y-65086000D02*
X181205000Y-65086000D01*
X183285000Y-65046000D02*
X184625000Y-65046000D01*
X179865000Y-65046000D02*
X181205000Y-65046000D01*
X183285000Y-65006000D02*
X184661000Y-65006000D01*
X179829000Y-65006000D02*
X181205000Y-65006000D01*
X183285000Y-64966000D02*
X184695000Y-64966000D01*
X179795000Y-64966000D02*
X181205000Y-64966000D01*
X183285000Y-64926000D02*
X184729000Y-64926000D01*
X179761000Y-64926000D02*
X181205000Y-64926000D01*
X183285000Y-64886000D02*
X184761000Y-64886000D01*
X179729000Y-64886000D02*
X181205000Y-64886000D01*
X183285000Y-64846000D02*
X184793000Y-64846000D01*
X179697000Y-64846000D02*
X181205000Y-64846000D01*
X183285000Y-64806000D02*
X184823000Y-64806000D01*
X179667000Y-64806000D02*
X181205000Y-64806000D01*
X183285000Y-64766000D02*
X184852000Y-64766000D01*
X179638000Y-64766000D02*
X181205000Y-64766000D01*
X183285000Y-64726000D02*
X184881000Y-64726000D01*
X179609000Y-64726000D02*
X181205000Y-64726000D01*
X183285000Y-64686000D02*
X184909000Y-64686000D01*
X179581000Y-64686000D02*
X181205000Y-64686000D01*
X183285000Y-64646000D02*
X184935000Y-64646000D01*
X179555000Y-64646000D02*
X181205000Y-64646000D01*
X183285000Y-64606000D02*
X184961000Y-64606000D01*
X179529000Y-64606000D02*
X181205000Y-64606000D01*
X183285000Y-64566000D02*
X184987000Y-64566000D01*
X179503000Y-64566000D02*
X181205000Y-64566000D01*
X183285000Y-64526000D02*
X185011000Y-64526000D01*
X179479000Y-64526000D02*
X181205000Y-64526000D01*
X183285000Y-64486000D02*
X185035000Y-64486000D01*
X179455000Y-64486000D02*
X181205000Y-64486000D01*
X183285000Y-64446000D02*
X185057000Y-64446000D01*
X179433000Y-64446000D02*
X181205000Y-64446000D01*
X183285000Y-64406000D02*
X185079000Y-64406000D01*
X179411000Y-64406000D02*
X181205000Y-64406000D01*
X183285000Y-64366000D02*
X185101000Y-64366000D01*
X179389000Y-64366000D02*
X181205000Y-64366000D01*
X183285000Y-64326000D02*
X185121000Y-64326000D01*
X179369000Y-64326000D02*
X181205000Y-64326000D01*
X183285000Y-64286000D02*
X185141000Y-64286000D01*
X179349000Y-64286000D02*
X181205000Y-64286000D01*
X183285000Y-64246000D02*
X185161000Y-64246000D01*
X179329000Y-64246000D02*
X181205000Y-64246000D01*
X183285000Y-64206000D02*
X185179000Y-64206000D01*
X179311000Y-64206000D02*
X181205000Y-64206000D01*
X183285000Y-64166000D02*
X185197000Y-64166000D01*
X179293000Y-64166000D02*
X181205000Y-64166000D01*
X183285000Y-64126000D02*
X185215000Y-64126000D01*
X179275000Y-64126000D02*
X181205000Y-64126000D01*
X183285000Y-64086000D02*
X185231000Y-64086000D01*
X179259000Y-64086000D02*
X181205000Y-64086000D01*
X183285000Y-64046000D02*
X185247000Y-64046000D01*
X179243000Y-64046000D02*
X181205000Y-64046000D01*
X183285000Y-64006000D02*
X185263000Y-64006000D01*
X179227000Y-64006000D02*
X181205000Y-64006000D01*
X183285000Y-63966000D02*
X185278000Y-63966000D01*
X179212000Y-63966000D02*
X181205000Y-63966000D01*
X183285000Y-63926000D02*
X185292000Y-63926000D01*
X179198000Y-63926000D02*
X181205000Y-63926000D01*
X183285000Y-63886000D02*
X185306000Y-63886000D01*
X179184000Y-63886000D02*
X181205000Y-63886000D01*
X183285000Y-63846000D02*
X185319000Y-63846000D01*
X179171000Y-63846000D02*
X181205000Y-63846000D01*
X183285000Y-63806000D02*
X185331000Y-63806000D01*
X179159000Y-63806000D02*
X181205000Y-63806000D01*
X183285000Y-63766000D02*
X185343000Y-63766000D01*
X179147000Y-63766000D02*
X181205000Y-63766000D01*
X183285000Y-63726000D02*
X185355000Y-63726000D01*
X179135000Y-63726000D02*
X181205000Y-63726000D01*
X183285000Y-63686000D02*
X185366000Y-63686000D01*
X179124000Y-63686000D02*
X181205000Y-63686000D01*
X183285000Y-63646000D02*
X185376000Y-63646000D01*
X179114000Y-63646000D02*
X181205000Y-63646000D01*
X183285000Y-63606000D02*
X185386000Y-63606000D01*
X179104000Y-63606000D02*
X181205000Y-63606000D01*
X183285000Y-63566000D02*
X185395000Y-63566000D01*
X179095000Y-63566000D02*
X181205000Y-63566000D01*
X183285000Y-63525000D02*
X185404000Y-63525000D01*
X179086000Y-63525000D02*
X181205000Y-63525000D01*
X183285000Y-63485000D02*
X185412000Y-63485000D01*
X179078000Y-63485000D02*
X181205000Y-63485000D01*
X183285000Y-63445000D02*
X185420000Y-63445000D01*
X179070000Y-63445000D02*
X181205000Y-63445000D01*
X183285000Y-63405000D02*
X185427000Y-63405000D01*
X179063000Y-63405000D02*
X181205000Y-63405000D01*
X183285000Y-63365000D02*
X185434000Y-63365000D01*
X179056000Y-63365000D02*
X181205000Y-63365000D01*
X183285000Y-63325000D02*
X185440000Y-63325000D01*
X179050000Y-63325000D02*
X181205000Y-63325000D01*
X183285000Y-63285000D02*
X185446000Y-63285000D01*
X179044000Y-63285000D02*
X181205000Y-63285000D01*
X183285000Y-63245000D02*
X185451000Y-63245000D01*
X179039000Y-63245000D02*
X181205000Y-63245000D01*
X183285000Y-63205000D02*
X185456000Y-63205000D01*
X179034000Y-63205000D02*
X181205000Y-63205000D01*
X183285000Y-63165000D02*
X185460000Y-63165000D01*
X179030000Y-63165000D02*
X181205000Y-63165000D01*
X183285000Y-63125000D02*
X185463000Y-63125000D01*
X179027000Y-63125000D02*
X181205000Y-63125000D01*
X183285000Y-63085000D02*
X185467000Y-63085000D01*
X179023000Y-63085000D02*
X181205000Y-63085000D01*
X179021000Y-63045000D02*
X185469000Y-63045000D01*
X179018000Y-63005000D02*
X185472000Y-63005000D01*
X179017000Y-62965000D02*
X185473000Y-62965000D01*
X179015000Y-62925000D02*
X185475000Y-62925000D01*
X179015000Y-62885000D02*
X185475000Y-62885000D01*
X179015000Y-62845000D02*
X185475000Y-62845000D01*
X185515000Y-62845000D02*
G75*
G03*
X185515000Y-62845000I-3270000J0D01*
G01*
X180091000Y-52079759D02*
X180721000Y-52079759D01*
X180406000Y-51764759D02*
X180406000Y-52394759D01*
X181843000Y-58506000D02*
X182647000Y-58506000D01*
X181612000Y-58466000D02*
X182878000Y-58466000D01*
X181443000Y-58426000D02*
X183047000Y-58426000D01*
X181305000Y-58386000D02*
X183185000Y-58386000D01*
X181186000Y-58346000D02*
X183304000Y-58346000D01*
X181080000Y-58306000D02*
X183410000Y-58306000D01*
X180983000Y-58266000D02*
X183507000Y-58266000D01*
X180895000Y-58226000D02*
X183595000Y-58226000D01*
X180813000Y-58186000D02*
X183677000Y-58186000D01*
X180736000Y-58146000D02*
X183754000Y-58146000D01*
X180664000Y-58106000D02*
X183826000Y-58106000D01*
X180595000Y-58066000D02*
X183895000Y-58066000D01*
X180531000Y-58026000D02*
X183959000Y-58026000D01*
X180469000Y-57986000D02*
X184021000Y-57986000D01*
X180411000Y-57946000D02*
X184079000Y-57946000D01*
X180355000Y-57906000D02*
X184135000Y-57906000D01*
X180301000Y-57866000D02*
X184189000Y-57866000D01*
X180250000Y-57826000D02*
X184240000Y-57826000D01*
X180201000Y-57786000D02*
X184289000Y-57786000D01*
X180153000Y-57746000D02*
X184337000Y-57746000D01*
X180108000Y-57706000D02*
X184382000Y-57706000D01*
X180063000Y-57666000D02*
X184427000Y-57666000D01*
X180021000Y-57626000D02*
X184469000Y-57626000D01*
X179980000Y-57586000D02*
X184510000Y-57586000D01*
X183285000Y-57546000D02*
X184550000Y-57546000D01*
X179940000Y-57546000D02*
X181205000Y-57546000D01*
X183285000Y-57506000D02*
X184588000Y-57506000D01*
X179902000Y-57506000D02*
X181205000Y-57506000D01*
X183285000Y-57466000D02*
X184625000Y-57466000D01*
X179865000Y-57466000D02*
X181205000Y-57466000D01*
X183285000Y-57426000D02*
X184661000Y-57426000D01*
X179829000Y-57426000D02*
X181205000Y-57426000D01*
X183285000Y-57386000D02*
X184695000Y-57386000D01*
X179795000Y-57386000D02*
X181205000Y-57386000D01*
X183285000Y-57346000D02*
X184729000Y-57346000D01*
X179761000Y-57346000D02*
X181205000Y-57346000D01*
X183285000Y-57306000D02*
X184761000Y-57306000D01*
X179729000Y-57306000D02*
X181205000Y-57306000D01*
X183285000Y-57266000D02*
X184793000Y-57266000D01*
X179697000Y-57266000D02*
X181205000Y-57266000D01*
X183285000Y-57226000D02*
X184823000Y-57226000D01*
X179667000Y-57226000D02*
X181205000Y-57226000D01*
X183285000Y-57186000D02*
X184852000Y-57186000D01*
X179638000Y-57186000D02*
X181205000Y-57186000D01*
X183285000Y-57146000D02*
X184881000Y-57146000D01*
X179609000Y-57146000D02*
X181205000Y-57146000D01*
X183285000Y-57106000D02*
X184909000Y-57106000D01*
X179581000Y-57106000D02*
X181205000Y-57106000D01*
X183285000Y-57066000D02*
X184935000Y-57066000D01*
X179555000Y-57066000D02*
X181205000Y-57066000D01*
X183285000Y-57026000D02*
X184961000Y-57026000D01*
X179529000Y-57026000D02*
X181205000Y-57026000D01*
X183285000Y-56986000D02*
X184987000Y-56986000D01*
X179503000Y-56986000D02*
X181205000Y-56986000D01*
X183285000Y-56946000D02*
X185011000Y-56946000D01*
X179479000Y-56946000D02*
X181205000Y-56946000D01*
X183285000Y-56906000D02*
X185035000Y-56906000D01*
X179455000Y-56906000D02*
X181205000Y-56906000D01*
X183285000Y-56866000D02*
X185057000Y-56866000D01*
X179433000Y-56866000D02*
X181205000Y-56866000D01*
X183285000Y-56826000D02*
X185079000Y-56826000D01*
X179411000Y-56826000D02*
X181205000Y-56826000D01*
X183285000Y-56786000D02*
X185101000Y-56786000D01*
X179389000Y-56786000D02*
X181205000Y-56786000D01*
X183285000Y-56746000D02*
X185121000Y-56746000D01*
X179369000Y-56746000D02*
X181205000Y-56746000D01*
X183285000Y-56706000D02*
X185141000Y-56706000D01*
X179349000Y-56706000D02*
X181205000Y-56706000D01*
X183285000Y-56666000D02*
X185161000Y-56666000D01*
X179329000Y-56666000D02*
X181205000Y-56666000D01*
X183285000Y-56626000D02*
X185179000Y-56626000D01*
X179311000Y-56626000D02*
X181205000Y-56626000D01*
X183285000Y-56586000D02*
X185197000Y-56586000D01*
X179293000Y-56586000D02*
X181205000Y-56586000D01*
X183285000Y-56546000D02*
X185215000Y-56546000D01*
X179275000Y-56546000D02*
X181205000Y-56546000D01*
X183285000Y-56506000D02*
X185231000Y-56506000D01*
X179259000Y-56506000D02*
X181205000Y-56506000D01*
X183285000Y-56466000D02*
X185247000Y-56466000D01*
X179243000Y-56466000D02*
X181205000Y-56466000D01*
X183285000Y-56426000D02*
X185263000Y-56426000D01*
X179227000Y-56426000D02*
X181205000Y-56426000D01*
X183285000Y-56386000D02*
X185278000Y-56386000D01*
X179212000Y-56386000D02*
X181205000Y-56386000D01*
X183285000Y-56346000D02*
X185292000Y-56346000D01*
X179198000Y-56346000D02*
X181205000Y-56346000D01*
X183285000Y-56306000D02*
X185306000Y-56306000D01*
X179184000Y-56306000D02*
X181205000Y-56306000D01*
X183285000Y-56266000D02*
X185319000Y-56266000D01*
X179171000Y-56266000D02*
X181205000Y-56266000D01*
X183285000Y-56226000D02*
X185331000Y-56226000D01*
X179159000Y-56226000D02*
X181205000Y-56226000D01*
X183285000Y-56186000D02*
X185343000Y-56186000D01*
X179147000Y-56186000D02*
X181205000Y-56186000D01*
X183285000Y-56146000D02*
X185355000Y-56146000D01*
X179135000Y-56146000D02*
X181205000Y-56146000D01*
X183285000Y-56106000D02*
X185366000Y-56106000D01*
X179124000Y-56106000D02*
X181205000Y-56106000D01*
X183285000Y-56066000D02*
X185376000Y-56066000D01*
X179114000Y-56066000D02*
X181205000Y-56066000D01*
X183285000Y-56026000D02*
X185386000Y-56026000D01*
X179104000Y-56026000D02*
X181205000Y-56026000D01*
X183285000Y-55986000D02*
X185395000Y-55986000D01*
X179095000Y-55986000D02*
X181205000Y-55986000D01*
X183285000Y-55945000D02*
X185404000Y-55945000D01*
X179086000Y-55945000D02*
X181205000Y-55945000D01*
X183285000Y-55905000D02*
X185412000Y-55905000D01*
X179078000Y-55905000D02*
X181205000Y-55905000D01*
X183285000Y-55865000D02*
X185420000Y-55865000D01*
X179070000Y-55865000D02*
X181205000Y-55865000D01*
X183285000Y-55825000D02*
X185427000Y-55825000D01*
X179063000Y-55825000D02*
X181205000Y-55825000D01*
X183285000Y-55785000D02*
X185434000Y-55785000D01*
X179056000Y-55785000D02*
X181205000Y-55785000D01*
X183285000Y-55745000D02*
X185440000Y-55745000D01*
X179050000Y-55745000D02*
X181205000Y-55745000D01*
X183285000Y-55705000D02*
X185446000Y-55705000D01*
X179044000Y-55705000D02*
X181205000Y-55705000D01*
X183285000Y-55665000D02*
X185451000Y-55665000D01*
X179039000Y-55665000D02*
X181205000Y-55665000D01*
X183285000Y-55625000D02*
X185456000Y-55625000D01*
X179034000Y-55625000D02*
X181205000Y-55625000D01*
X183285000Y-55585000D02*
X185460000Y-55585000D01*
X179030000Y-55585000D02*
X181205000Y-55585000D01*
X183285000Y-55545000D02*
X185463000Y-55545000D01*
X179027000Y-55545000D02*
X181205000Y-55545000D01*
X183285000Y-55505000D02*
X185467000Y-55505000D01*
X179023000Y-55505000D02*
X181205000Y-55505000D01*
X179021000Y-55465000D02*
X185469000Y-55465000D01*
X179018000Y-55425000D02*
X185472000Y-55425000D01*
X179017000Y-55385000D02*
X185473000Y-55385000D01*
X179015000Y-55345000D02*
X185475000Y-55345000D01*
X179015000Y-55305000D02*
X185475000Y-55305000D01*
X179015000Y-55265000D02*
X185475000Y-55265000D01*
X185515000Y-55265000D02*
G75*
G03*
X185515000Y-55265000I-3270000J0D01*
G01*
D11*
X191769904Y-136358380D02*
X191769904Y-137167904D01*
X191722285Y-137263142D01*
X191674666Y-137310761D01*
X191579428Y-137358380D01*
X191388952Y-137358380D01*
X191293714Y-137310761D01*
X191246095Y-137263142D01*
X191198476Y-137167904D01*
X191198476Y-136358380D01*
X190817523Y-136358380D02*
X190198476Y-136358380D01*
X190531809Y-136739333D01*
X190388952Y-136739333D01*
X190293714Y-136786952D01*
X190246095Y-136834571D01*
X190198476Y-136929809D01*
X190198476Y-137167904D01*
X190246095Y-137263142D01*
X190293714Y-137310761D01*
X190388952Y-137358380D01*
X190674666Y-137358380D01*
X190769904Y-137310761D01*
X190817523Y-137263142D01*
X170941904Y-121372380D02*
X170941904Y-122181904D01*
X170894285Y-122277142D01*
X170846666Y-122324761D01*
X170751428Y-122372380D01*
X170560952Y-122372380D01*
X170465714Y-122324761D01*
X170418095Y-122277142D01*
X170370476Y-122181904D01*
X170370476Y-121372380D01*
X169465714Y-121705714D02*
X169465714Y-122372380D01*
X169703809Y-121324761D02*
X169941904Y-122039047D01*
X169322857Y-122039047D01*
X178442857Y-140787380D02*
X178776190Y-140311190D01*
X179014285Y-140787380D02*
X179014285Y-139787380D01*
X178633333Y-139787380D01*
X178538095Y-139835000D01*
X178490476Y-139882619D01*
X178442857Y-139977857D01*
X178442857Y-140120714D01*
X178490476Y-140215952D01*
X178538095Y-140263571D01*
X178633333Y-140311190D01*
X179014285Y-140311190D01*
X178061904Y-139882619D02*
X178014285Y-139835000D01*
X177919047Y-139787380D01*
X177680952Y-139787380D01*
X177585714Y-139835000D01*
X177538095Y-139882619D01*
X177490476Y-139977857D01*
X177490476Y-140073095D01*
X177538095Y-140215952D01*
X178109523Y-140787380D01*
X177490476Y-140787380D01*
X176871428Y-139787380D02*
X176776190Y-139787380D01*
X176680952Y-139835000D01*
X176633333Y-139882619D01*
X176585714Y-139977857D01*
X176538095Y-140168333D01*
X176538095Y-140406428D01*
X176585714Y-140596904D01*
X176633333Y-140692142D01*
X176680952Y-140739761D01*
X176776190Y-140787380D01*
X176871428Y-140787380D01*
X176966666Y-140739761D01*
X177014285Y-140692142D01*
X177061904Y-140596904D01*
X177109523Y-140406428D01*
X177109523Y-140168333D01*
X177061904Y-139977857D01*
X177014285Y-139882619D01*
X176966666Y-139835000D01*
X176871428Y-139787380D01*
X181617857Y-140787380D02*
X181951190Y-140311190D01*
X182189285Y-140787380D02*
X182189285Y-139787380D01*
X181808333Y-139787380D01*
X181713095Y-139835000D01*
X181665476Y-139882619D01*
X181617857Y-139977857D01*
X181617857Y-140120714D01*
X181665476Y-140215952D01*
X181713095Y-140263571D01*
X181808333Y-140311190D01*
X182189285Y-140311190D01*
X180665476Y-140787380D02*
X181236904Y-140787380D01*
X180951190Y-140787380D02*
X180951190Y-139787380D01*
X181046428Y-139930238D01*
X181141666Y-140025476D01*
X181236904Y-140073095D01*
X180189285Y-140787380D02*
X179998809Y-140787380D01*
X179903571Y-140739761D01*
X179855952Y-140692142D01*
X179760714Y-140549285D01*
X179713095Y-140358809D01*
X179713095Y-139977857D01*
X179760714Y-139882619D01*
X179808333Y-139835000D01*
X179903571Y-139787380D01*
X180094047Y-139787380D01*
X180189285Y-139835000D01*
X180236904Y-139882619D01*
X180284523Y-139977857D01*
X180284523Y-140215952D01*
X180236904Y-140311190D01*
X180189285Y-140358809D01*
X180094047Y-140406428D01*
X179903571Y-140406428D01*
X179808333Y-140358809D01*
X179760714Y-140311190D01*
X179713095Y-140215952D01*
X198000857Y-105640142D02*
X198048476Y-105687761D01*
X198191333Y-105735380D01*
X198286571Y-105735380D01*
X198429428Y-105687761D01*
X198524666Y-105592523D01*
X198572285Y-105497285D01*
X198619904Y-105306809D01*
X198619904Y-105163952D01*
X198572285Y-104973476D01*
X198524666Y-104878238D01*
X198429428Y-104783000D01*
X198286571Y-104735380D01*
X198191333Y-104735380D01*
X198048476Y-104783000D01*
X198000857Y-104830619D01*
X197048476Y-105735380D02*
X197619904Y-105735380D01*
X197334190Y-105735380D02*
X197334190Y-104735380D01*
X197429428Y-104878238D01*
X197524666Y-104973476D01*
X197619904Y-105021095D01*
X196096095Y-105735380D02*
X196667523Y-105735380D01*
X196381809Y-105735380D02*
X196381809Y-104735380D01*
X196477047Y-104878238D01*
X196572285Y-104973476D01*
X196667523Y-105021095D01*
X198254857Y-121134142D02*
X198302476Y-121181761D01*
X198445333Y-121229380D01*
X198540571Y-121229380D01*
X198683428Y-121181761D01*
X198778666Y-121086523D01*
X198826285Y-120991285D01*
X198873904Y-120800809D01*
X198873904Y-120657952D01*
X198826285Y-120467476D01*
X198778666Y-120372238D01*
X198683428Y-120277000D01*
X198540571Y-120229380D01*
X198445333Y-120229380D01*
X198302476Y-120277000D01*
X198254857Y-120324619D01*
X197302476Y-121229380D02*
X197873904Y-121229380D01*
X197588190Y-121229380D02*
X197588190Y-120229380D01*
X197683428Y-120372238D01*
X197778666Y-120467476D01*
X197873904Y-120515095D01*
X196683428Y-120229380D02*
X196588190Y-120229380D01*
X196492952Y-120277000D01*
X196445333Y-120324619D01*
X196397714Y-120419857D01*
X196350095Y-120610333D01*
X196350095Y-120848428D01*
X196397714Y-121038904D01*
X196445333Y-121134142D01*
X196492952Y-121181761D01*
X196588190Y-121229380D01*
X196683428Y-121229380D01*
X196778666Y-121181761D01*
X196826285Y-121134142D01*
X196873904Y-121038904D01*
X196921523Y-120848428D01*
X196921523Y-120610333D01*
X196873904Y-120419857D01*
X196826285Y-120324619D01*
X196778666Y-120277000D01*
X196683428Y-120229380D01*
X174791666Y-140692142D02*
X174839285Y-140739761D01*
X174982142Y-140787380D01*
X175077380Y-140787380D01*
X175220238Y-140739761D01*
X175315476Y-140644523D01*
X175363095Y-140549285D01*
X175410714Y-140358809D01*
X175410714Y-140215952D01*
X175363095Y-140025476D01*
X175315476Y-139930238D01*
X175220238Y-139835000D01*
X175077380Y-139787380D01*
X174982142Y-139787380D01*
X174839285Y-139835000D01*
X174791666Y-139882619D01*
X174315476Y-140787380D02*
X174125000Y-140787380D01*
X174029761Y-140739761D01*
X173982142Y-140692142D01*
X173886904Y-140549285D01*
X173839285Y-140358809D01*
X173839285Y-139977857D01*
X173886904Y-139882619D01*
X173934523Y-139835000D01*
X174029761Y-139787380D01*
X174220238Y-139787380D01*
X174315476Y-139835000D01*
X174363095Y-139882619D01*
X174410714Y-139977857D01*
X174410714Y-140215952D01*
X174363095Y-140311190D01*
X174315476Y-140358809D01*
X174220238Y-140406428D01*
X174029761Y-140406428D01*
X173934523Y-140358809D01*
X173886904Y-140311190D01*
X173839285Y-140215952D01*
X185459666Y-142343142D02*
X185507285Y-142390761D01*
X185650142Y-142438380D01*
X185745380Y-142438380D01*
X185888238Y-142390761D01*
X185983476Y-142295523D01*
X186031095Y-142200285D01*
X186078714Y-142009809D01*
X186078714Y-141866952D01*
X186031095Y-141676476D01*
X185983476Y-141581238D01*
X185888238Y-141486000D01*
X185745380Y-141438380D01*
X185650142Y-141438380D01*
X185507285Y-141486000D01*
X185459666Y-141533619D01*
X184888238Y-141866952D02*
X184983476Y-141819333D01*
X185031095Y-141771714D01*
X185078714Y-141676476D01*
X185078714Y-141628857D01*
X185031095Y-141533619D01*
X184983476Y-141486000D01*
X184888238Y-141438380D01*
X184697761Y-141438380D01*
X184602523Y-141486000D01*
X184554904Y-141533619D01*
X184507285Y-141628857D01*
X184507285Y-141676476D01*
X184554904Y-141771714D01*
X184602523Y-141819333D01*
X184697761Y-141866952D01*
X184888238Y-141866952D01*
X184983476Y-141914571D01*
X185031095Y-141962190D01*
X185078714Y-142057428D01*
X185078714Y-142247904D01*
X185031095Y-142343142D01*
X184983476Y-142390761D01*
X184888238Y-142438380D01*
X184697761Y-142438380D01*
X184602523Y-142390761D01*
X184554904Y-142343142D01*
X184507285Y-142247904D01*
X184507285Y-142057428D01*
X184554904Y-141962190D01*
X184602523Y-141914571D01*
X184697761Y-141866952D01*
X127971904Y-121372380D02*
X127971904Y-122181904D01*
X127924285Y-122277142D01*
X127876666Y-122324761D01*
X127781428Y-122372380D01*
X127590952Y-122372380D01*
X127495714Y-122324761D01*
X127448095Y-122277142D01*
X127400476Y-122181904D01*
X127400476Y-121372380D01*
X126971904Y-121467619D02*
X126924285Y-121420000D01*
X126829047Y-121372380D01*
X126590952Y-121372380D01*
X126495714Y-121420000D01*
X126448095Y-121467619D01*
X126400476Y-121562857D01*
X126400476Y-121658095D01*
X126448095Y-121800952D01*
X127019523Y-122372380D01*
X126400476Y-122372380D01*
X153371904Y-121372380D02*
X153371904Y-122181904D01*
X153324285Y-122277142D01*
X153276666Y-122324761D01*
X153181428Y-122372380D01*
X152990952Y-122372380D01*
X152895714Y-122324761D01*
X152848095Y-122277142D01*
X152800476Y-122181904D01*
X152800476Y-121372380D01*
X151800476Y-122372380D02*
X152371904Y-122372380D01*
X152086190Y-122372380D02*
X152086190Y-121372380D01*
X152181428Y-121515238D01*
X152276666Y-121610476D01*
X152371904Y-121658095D01*
X184767457Y-140711180D02*
X185100790Y-140234990D01*
X185338885Y-140711180D02*
X185338885Y-139711180D01*
X184957933Y-139711180D01*
X184862695Y-139758800D01*
X184815076Y-139806419D01*
X184767457Y-139901657D01*
X184767457Y-140044514D01*
X184815076Y-140139752D01*
X184862695Y-140187371D01*
X184957933Y-140234990D01*
X185338885Y-140234990D01*
X183815076Y-140711180D02*
X184386504Y-140711180D01*
X184100790Y-140711180D02*
X184100790Y-139711180D01*
X184196028Y-139854038D01*
X184291266Y-139949276D01*
X184386504Y-139996895D01*
X183243647Y-140139752D02*
X183338885Y-140092133D01*
X183386504Y-140044514D01*
X183434123Y-139949276D01*
X183434123Y-139901657D01*
X183386504Y-139806419D01*
X183338885Y-139758800D01*
X183243647Y-139711180D01*
X183053171Y-139711180D01*
X182957933Y-139758800D01*
X182910314Y-139806419D01*
X182862695Y-139901657D01*
X182862695Y-139949276D01*
X182910314Y-140044514D01*
X182957933Y-140092133D01*
X183053171Y-140139752D01*
X183243647Y-140139752D01*
X183338885Y-140187371D01*
X183386504Y-140234990D01*
X183434123Y-140330228D01*
X183434123Y-140520704D01*
X183386504Y-140615942D01*
X183338885Y-140663561D01*
X183243647Y-140711180D01*
X183053171Y-140711180D01*
X182957933Y-140663561D01*
X182910314Y-140615942D01*
X182862695Y-140520704D01*
X182862695Y-140330228D01*
X182910314Y-140234990D01*
X182957933Y-140187371D01*
X183053171Y-140139752D01*
X123832857Y-141422380D02*
X124166190Y-140946190D01*
X124404285Y-141422380D02*
X124404285Y-140422380D01*
X124023333Y-140422380D01*
X123928095Y-140470000D01*
X123880476Y-140517619D01*
X123832857Y-140612857D01*
X123832857Y-140755714D01*
X123880476Y-140850952D01*
X123928095Y-140898571D01*
X124023333Y-140946190D01*
X124404285Y-140946190D01*
X122880476Y-141422380D02*
X123451904Y-141422380D01*
X123166190Y-141422380D02*
X123166190Y-140422380D01*
X123261428Y-140565238D01*
X123356666Y-140660476D01*
X123451904Y-140708095D01*
X122547142Y-140422380D02*
X121880476Y-140422380D01*
X122309047Y-141422380D01*
X159392857Y-141422380D02*
X159726190Y-140946190D01*
X159964285Y-141422380D02*
X159964285Y-140422380D01*
X159583333Y-140422380D01*
X159488095Y-140470000D01*
X159440476Y-140517619D01*
X159392857Y-140612857D01*
X159392857Y-140755714D01*
X159440476Y-140850952D01*
X159488095Y-140898571D01*
X159583333Y-140946190D01*
X159964285Y-140946190D01*
X158440476Y-141422380D02*
X159011904Y-141422380D01*
X158726190Y-141422380D02*
X158726190Y-140422380D01*
X158821428Y-140565238D01*
X158916666Y-140660476D01*
X159011904Y-140708095D01*
X157583333Y-140422380D02*
X157773809Y-140422380D01*
X157869047Y-140470000D01*
X157916666Y-140517619D01*
X158011904Y-140660476D01*
X158059523Y-140850952D01*
X158059523Y-141231904D01*
X158011904Y-141327142D01*
X157964285Y-141374761D01*
X157869047Y-141422380D01*
X157678571Y-141422380D01*
X157583333Y-141374761D01*
X157535714Y-141327142D01*
X157488095Y-141231904D01*
X157488095Y-140993809D01*
X157535714Y-140898571D01*
X157583333Y-140850952D01*
X157678571Y-140803333D01*
X157869047Y-140803333D01*
X157964285Y-140850952D01*
X158011904Y-140898571D01*
X158059523Y-140993809D01*
X163202857Y-141422380D02*
X163536190Y-140946190D01*
X163774285Y-141422380D02*
X163774285Y-140422380D01*
X163393333Y-140422380D01*
X163298095Y-140470000D01*
X163250476Y-140517619D01*
X163202857Y-140612857D01*
X163202857Y-140755714D01*
X163250476Y-140850952D01*
X163298095Y-140898571D01*
X163393333Y-140946190D01*
X163774285Y-140946190D01*
X162250476Y-141422380D02*
X162821904Y-141422380D01*
X162536190Y-141422380D02*
X162536190Y-140422380D01*
X162631428Y-140565238D01*
X162726666Y-140660476D01*
X162821904Y-140708095D01*
X161345714Y-140422380D02*
X161821904Y-140422380D01*
X161869523Y-140898571D01*
X161821904Y-140850952D01*
X161726666Y-140803333D01*
X161488571Y-140803333D01*
X161393333Y-140850952D01*
X161345714Y-140898571D01*
X161298095Y-140993809D01*
X161298095Y-141231904D01*
X161345714Y-141327142D01*
X161393333Y-141374761D01*
X161488571Y-141422380D01*
X161726666Y-141422380D01*
X161821904Y-141374761D01*
X161869523Y-141327142D01*
X131452857Y-141422380D02*
X131786190Y-140946190D01*
X132024285Y-141422380D02*
X132024285Y-140422380D01*
X131643333Y-140422380D01*
X131548095Y-140470000D01*
X131500476Y-140517619D01*
X131452857Y-140612857D01*
X131452857Y-140755714D01*
X131500476Y-140850952D01*
X131548095Y-140898571D01*
X131643333Y-140946190D01*
X132024285Y-140946190D01*
X130500476Y-141422380D02*
X131071904Y-141422380D01*
X130786190Y-141422380D02*
X130786190Y-140422380D01*
X130881428Y-140565238D01*
X130976666Y-140660476D01*
X131071904Y-140708095D01*
X129643333Y-140755714D02*
X129643333Y-141422380D01*
X129881428Y-140374761D02*
X130119523Y-141089047D01*
X129500476Y-141089047D01*
X142882857Y-141422380D02*
X143216190Y-140946190D01*
X143454285Y-141422380D02*
X143454285Y-140422380D01*
X143073333Y-140422380D01*
X142978095Y-140470000D01*
X142930476Y-140517619D01*
X142882857Y-140612857D01*
X142882857Y-140755714D01*
X142930476Y-140850952D01*
X142978095Y-140898571D01*
X143073333Y-140946190D01*
X143454285Y-140946190D01*
X141930476Y-141422380D02*
X142501904Y-141422380D01*
X142216190Y-141422380D02*
X142216190Y-140422380D01*
X142311428Y-140565238D01*
X142406666Y-140660476D01*
X142501904Y-140708095D01*
X141597142Y-140422380D02*
X140978095Y-140422380D01*
X141311428Y-140803333D01*
X141168571Y-140803333D01*
X141073333Y-140850952D01*
X141025714Y-140898571D01*
X140978095Y-140993809D01*
X140978095Y-141231904D01*
X141025714Y-141327142D01*
X141073333Y-141374761D01*
X141168571Y-141422380D01*
X141454285Y-141422380D01*
X141549523Y-141374761D01*
X141597142Y-141327142D01*
X167012857Y-141422380D02*
X167346190Y-140946190D01*
X167584285Y-141422380D02*
X167584285Y-140422380D01*
X167203333Y-140422380D01*
X167108095Y-140470000D01*
X167060476Y-140517619D01*
X167012857Y-140612857D01*
X167012857Y-140755714D01*
X167060476Y-140850952D01*
X167108095Y-140898571D01*
X167203333Y-140946190D01*
X167584285Y-140946190D01*
X166060476Y-141422380D02*
X166631904Y-141422380D01*
X166346190Y-141422380D02*
X166346190Y-140422380D01*
X166441428Y-140565238D01*
X166536666Y-140660476D01*
X166631904Y-140708095D01*
X165679523Y-140517619D02*
X165631904Y-140470000D01*
X165536666Y-140422380D01*
X165298571Y-140422380D01*
X165203333Y-140470000D01*
X165155714Y-140517619D01*
X165108095Y-140612857D01*
X165108095Y-140708095D01*
X165155714Y-140850952D01*
X165727142Y-141422380D01*
X165108095Y-141422380D01*
X135262857Y-141422380D02*
X135596190Y-140946190D01*
X135834285Y-141422380D02*
X135834285Y-140422380D01*
X135453333Y-140422380D01*
X135358095Y-140470000D01*
X135310476Y-140517619D01*
X135262857Y-140612857D01*
X135262857Y-140755714D01*
X135310476Y-140850952D01*
X135358095Y-140898571D01*
X135453333Y-140946190D01*
X135834285Y-140946190D01*
X134310476Y-141422380D02*
X134881904Y-141422380D01*
X134596190Y-141422380D02*
X134596190Y-140422380D01*
X134691428Y-140565238D01*
X134786666Y-140660476D01*
X134881904Y-140708095D01*
X133358095Y-141422380D02*
X133929523Y-141422380D01*
X133643809Y-141422380D02*
X133643809Y-140422380D01*
X133739047Y-140565238D01*
X133834285Y-140660476D01*
X133929523Y-140708095D01*
X139072857Y-141422380D02*
X139406190Y-140946190D01*
X139644285Y-141422380D02*
X139644285Y-140422380D01*
X139263333Y-140422380D01*
X139168095Y-140470000D01*
X139120476Y-140517619D01*
X139072857Y-140612857D01*
X139072857Y-140755714D01*
X139120476Y-140850952D01*
X139168095Y-140898571D01*
X139263333Y-140946190D01*
X139644285Y-140946190D01*
X138120476Y-141422380D02*
X138691904Y-141422380D01*
X138406190Y-141422380D02*
X138406190Y-140422380D01*
X138501428Y-140565238D01*
X138596666Y-140660476D01*
X138691904Y-140708095D01*
X137501428Y-140422380D02*
X137406190Y-140422380D01*
X137310952Y-140470000D01*
X137263333Y-140517619D01*
X137215714Y-140612857D01*
X137168095Y-140803333D01*
X137168095Y-141041428D01*
X137215714Y-141231904D01*
X137263333Y-141327142D01*
X137310952Y-141374761D01*
X137406190Y-141422380D01*
X137501428Y-141422380D01*
X137596666Y-141374761D01*
X137644285Y-141327142D01*
X137691904Y-141231904D01*
X137739523Y-141041428D01*
X137739523Y-140803333D01*
X137691904Y-140612857D01*
X137644285Y-140517619D01*
X137596666Y-140470000D01*
X137501428Y-140422380D01*
X128436666Y-103322380D02*
X128770000Y-102846190D01*
X129008095Y-103322380D02*
X129008095Y-102322380D01*
X128627142Y-102322380D01*
X128531904Y-102370000D01*
X128484285Y-102417619D01*
X128436666Y-102512857D01*
X128436666Y-102655714D01*
X128484285Y-102750952D01*
X128531904Y-102798571D01*
X128627142Y-102846190D01*
X129008095Y-102846190D01*
X127960476Y-103322380D02*
X127770000Y-103322380D01*
X127674761Y-103274761D01*
X127627142Y-103227142D01*
X127531904Y-103084285D01*
X127484285Y-102893809D01*
X127484285Y-102512857D01*
X127531904Y-102417619D01*
X127579523Y-102370000D01*
X127674761Y-102322380D01*
X127865238Y-102322380D01*
X127960476Y-102370000D01*
X128008095Y-102417619D01*
X128055714Y-102512857D01*
X128055714Y-102750952D01*
X128008095Y-102846190D01*
X127960476Y-102893809D01*
X127865238Y-102941428D01*
X127674761Y-102941428D01*
X127579523Y-102893809D01*
X127531904Y-102846190D01*
X127484285Y-102750952D01*
X158916666Y-103322380D02*
X159250000Y-102846190D01*
X159488095Y-103322380D02*
X159488095Y-102322380D01*
X159107142Y-102322380D01*
X159011904Y-102370000D01*
X158964285Y-102417619D01*
X158916666Y-102512857D01*
X158916666Y-102655714D01*
X158964285Y-102750952D01*
X159011904Y-102798571D01*
X159107142Y-102846190D01*
X159488095Y-102846190D01*
X158345238Y-102750952D02*
X158440476Y-102703333D01*
X158488095Y-102655714D01*
X158535714Y-102560476D01*
X158535714Y-102512857D01*
X158488095Y-102417619D01*
X158440476Y-102370000D01*
X158345238Y-102322380D01*
X158154761Y-102322380D01*
X158059523Y-102370000D01*
X158011904Y-102417619D01*
X157964285Y-102512857D01*
X157964285Y-102560476D01*
X158011904Y-102655714D01*
X158059523Y-102703333D01*
X158154761Y-102750952D01*
X158345238Y-102750952D01*
X158440476Y-102798571D01*
X158488095Y-102846190D01*
X158535714Y-102941428D01*
X158535714Y-103131904D01*
X158488095Y-103227142D01*
X158440476Y-103274761D01*
X158345238Y-103322380D01*
X158154761Y-103322380D01*
X158059523Y-103274761D01*
X158011904Y-103227142D01*
X157964285Y-103131904D01*
X157964285Y-102941428D01*
X158011904Y-102846190D01*
X158059523Y-102798571D01*
X158154761Y-102750952D01*
X143676666Y-103322380D02*
X144010000Y-102846190D01*
X144248095Y-103322380D02*
X144248095Y-102322380D01*
X143867142Y-102322380D01*
X143771904Y-102370000D01*
X143724285Y-102417619D01*
X143676666Y-102512857D01*
X143676666Y-102655714D01*
X143724285Y-102750952D01*
X143771904Y-102798571D01*
X143867142Y-102846190D01*
X144248095Y-102846190D01*
X143343333Y-102322380D02*
X142676666Y-102322380D01*
X143105238Y-103322380D01*
X139866666Y-103322380D02*
X140200000Y-102846190D01*
X140438095Y-103322380D02*
X140438095Y-102322380D01*
X140057142Y-102322380D01*
X139961904Y-102370000D01*
X139914285Y-102417619D01*
X139866666Y-102512857D01*
X139866666Y-102655714D01*
X139914285Y-102750952D01*
X139961904Y-102798571D01*
X140057142Y-102846190D01*
X140438095Y-102846190D01*
X139009523Y-102322380D02*
X139200000Y-102322380D01*
X139295238Y-102370000D01*
X139342857Y-102417619D01*
X139438095Y-102560476D01*
X139485714Y-102750952D01*
X139485714Y-103131904D01*
X139438095Y-103227142D01*
X139390476Y-103274761D01*
X139295238Y-103322380D01*
X139104761Y-103322380D01*
X139009523Y-103274761D01*
X138961904Y-103227142D01*
X138914285Y-103131904D01*
X138914285Y-102893809D01*
X138961904Y-102798571D01*
X139009523Y-102750952D01*
X139104761Y-102703333D01*
X139295238Y-102703333D01*
X139390476Y-102750952D01*
X139438095Y-102798571D01*
X139485714Y-102893809D01*
X136056666Y-103322380D02*
X136390000Y-102846190D01*
X136628095Y-103322380D02*
X136628095Y-102322380D01*
X136247142Y-102322380D01*
X136151904Y-102370000D01*
X136104285Y-102417619D01*
X136056666Y-102512857D01*
X136056666Y-102655714D01*
X136104285Y-102750952D01*
X136151904Y-102798571D01*
X136247142Y-102846190D01*
X136628095Y-102846190D01*
X135151904Y-102322380D02*
X135628095Y-102322380D01*
X135675714Y-102798571D01*
X135628095Y-102750952D01*
X135532857Y-102703333D01*
X135294761Y-102703333D01*
X135199523Y-102750952D01*
X135151904Y-102798571D01*
X135104285Y-102893809D01*
X135104285Y-103131904D01*
X135151904Y-103227142D01*
X135199523Y-103274761D01*
X135294761Y-103322380D01*
X135532857Y-103322380D01*
X135628095Y-103274761D01*
X135675714Y-103227142D01*
X132246666Y-103322380D02*
X132580000Y-102846190D01*
X132818095Y-103322380D02*
X132818095Y-102322380D01*
X132437142Y-102322380D01*
X132341904Y-102370000D01*
X132294285Y-102417619D01*
X132246666Y-102512857D01*
X132246666Y-102655714D01*
X132294285Y-102750952D01*
X132341904Y-102798571D01*
X132437142Y-102846190D01*
X132818095Y-102846190D01*
X131389523Y-102655714D02*
X131389523Y-103322380D01*
X131627619Y-102274761D02*
X131865714Y-102989047D01*
X131246666Y-102989047D01*
X170346666Y-103322380D02*
X170680000Y-102846190D01*
X170918095Y-103322380D02*
X170918095Y-102322380D01*
X170537142Y-102322380D01*
X170441904Y-102370000D01*
X170394285Y-102417619D01*
X170346666Y-102512857D01*
X170346666Y-102655714D01*
X170394285Y-102750952D01*
X170441904Y-102798571D01*
X170537142Y-102846190D01*
X170918095Y-102846190D01*
X170013333Y-102322380D02*
X169394285Y-102322380D01*
X169727619Y-102703333D01*
X169584761Y-102703333D01*
X169489523Y-102750952D01*
X169441904Y-102798571D01*
X169394285Y-102893809D01*
X169394285Y-103131904D01*
X169441904Y-103227142D01*
X169489523Y-103274761D01*
X169584761Y-103322380D01*
X169870476Y-103322380D01*
X169965714Y-103274761D01*
X170013333Y-103227142D01*
X166536666Y-103322380D02*
X166870000Y-102846190D01*
X167108095Y-103322380D02*
X167108095Y-102322380D01*
X166727142Y-102322380D01*
X166631904Y-102370000D01*
X166584285Y-102417619D01*
X166536666Y-102512857D01*
X166536666Y-102655714D01*
X166584285Y-102750952D01*
X166631904Y-102798571D01*
X166727142Y-102846190D01*
X167108095Y-102846190D01*
X166155714Y-102417619D02*
X166108095Y-102370000D01*
X166012857Y-102322380D01*
X165774761Y-102322380D01*
X165679523Y-102370000D01*
X165631904Y-102417619D01*
X165584285Y-102512857D01*
X165584285Y-102608095D01*
X165631904Y-102750952D01*
X166203333Y-103322380D01*
X165584285Y-103322380D01*
X162726666Y-103322380D02*
X163060000Y-102846190D01*
X163298095Y-103322380D02*
X163298095Y-102322380D01*
X162917142Y-102322380D01*
X162821904Y-102370000D01*
X162774285Y-102417619D01*
X162726666Y-102512857D01*
X162726666Y-102655714D01*
X162774285Y-102750952D01*
X162821904Y-102798571D01*
X162917142Y-102846190D01*
X163298095Y-102846190D01*
X161774285Y-103322380D02*
X162345714Y-103322380D01*
X162060000Y-103322380D02*
X162060000Y-102322380D01*
X162155238Y-102465238D01*
X162250476Y-102560476D01*
X162345714Y-102608095D01*
X195119523Y-53002380D02*
X195119523Y-53716666D01*
X195167142Y-53859523D01*
X195262380Y-53954761D01*
X195405238Y-54002380D01*
X195500476Y-54002380D01*
X194119523Y-54002380D02*
X194690952Y-54002380D01*
X194405238Y-54002380D02*
X194405238Y-53002380D01*
X194500476Y-53145238D01*
X194595714Y-53240476D01*
X194690952Y-53288095D01*
X193500476Y-53002380D02*
X193405238Y-53002380D01*
X193310000Y-53050000D01*
X193262380Y-53097619D01*
X193214761Y-53192857D01*
X193167142Y-53383333D01*
X193167142Y-53621428D01*
X193214761Y-53811904D01*
X193262380Y-53907142D01*
X193310000Y-53954761D01*
X193405238Y-54002380D01*
X193500476Y-54002380D01*
X193595714Y-53954761D01*
X193643333Y-53907142D01*
X193690952Y-53811904D01*
X193738571Y-53621428D01*
X193738571Y-53383333D01*
X193690952Y-53192857D01*
X193643333Y-53097619D01*
X193595714Y-53050000D01*
X193500476Y-53002380D01*
X120983333Y-113752380D02*
X120983333Y-114466666D01*
X121030952Y-114609523D01*
X121126190Y-114704761D01*
X121269047Y-114752380D01*
X121364285Y-114752380D01*
X120364285Y-114180952D02*
X120459523Y-114133333D01*
X120507142Y-114085714D01*
X120554761Y-113990476D01*
X120554761Y-113942857D01*
X120507142Y-113847619D01*
X120459523Y-113800000D01*
X120364285Y-113752380D01*
X120173809Y-113752380D01*
X120078571Y-113800000D01*
X120030952Y-113847619D01*
X119983333Y-113942857D01*
X119983333Y-113990476D01*
X120030952Y-114085714D01*
X120078571Y-114133333D01*
X120173809Y-114180952D01*
X120364285Y-114180952D01*
X120459523Y-114228571D01*
X120507142Y-114276190D01*
X120554761Y-114371428D01*
X120554761Y-114561904D01*
X120507142Y-114657142D01*
X120459523Y-114704761D01*
X120364285Y-114752380D01*
X120173809Y-114752380D01*
X120078571Y-114704761D01*
X120030952Y-114657142D01*
X119983333Y-114561904D01*
X119983333Y-114371428D01*
X120030952Y-114276190D01*
X120078571Y-114228571D01*
X120173809Y-114180952D01*
X120983333Y-68032380D02*
X120983333Y-68746666D01*
X121030952Y-68889523D01*
X121126190Y-68984761D01*
X121269047Y-69032380D01*
X121364285Y-69032380D01*
X120602380Y-68032380D02*
X119935714Y-68032380D01*
X120364285Y-69032380D01*
X181943333Y-113752380D02*
X181943333Y-114466666D01*
X181990952Y-114609523D01*
X182086190Y-114704761D01*
X182229047Y-114752380D01*
X182324285Y-114752380D01*
X180990952Y-113752380D02*
X181467142Y-113752380D01*
X181514761Y-114228571D01*
X181467142Y-114180952D01*
X181371904Y-114133333D01*
X181133809Y-114133333D01*
X181038571Y-114180952D01*
X180990952Y-114228571D01*
X180943333Y-114323809D01*
X180943333Y-114561904D01*
X180990952Y-114657142D01*
X181038571Y-114704761D01*
X181133809Y-114752380D01*
X181371904Y-114752380D01*
X181467142Y-114704761D01*
X181514761Y-114657142D01*
X181943333Y-68032380D02*
X181943333Y-68746666D01*
X181990952Y-68889523D01*
X182086190Y-68984761D01*
X182229047Y-69032380D01*
X182324285Y-69032380D01*
X181038571Y-68365714D02*
X181038571Y-69032380D01*
X181276666Y-67984761D02*
X181514761Y-68699047D01*
X180895714Y-68699047D01*
X119606666Y-123427142D02*
X119654285Y-123474761D01*
X119797142Y-123522380D01*
X119892380Y-123522380D01*
X120035238Y-123474761D01*
X120130476Y-123379523D01*
X120178095Y-123284285D01*
X120225714Y-123093809D01*
X120225714Y-122950952D01*
X120178095Y-122760476D01*
X120130476Y-122665238D01*
X120035238Y-122570000D01*
X119892380Y-122522380D01*
X119797142Y-122522380D01*
X119654285Y-122570000D01*
X119606666Y-122617619D01*
X118749523Y-122522380D02*
X118940000Y-122522380D01*
X119035238Y-122570000D01*
X119082857Y-122617619D01*
X119178095Y-122760476D01*
X119225714Y-122950952D01*
X119225714Y-123331904D01*
X119178095Y-123427142D01*
X119130476Y-123474761D01*
X119035238Y-123522380D01*
X118844761Y-123522380D01*
X118749523Y-123474761D01*
X118701904Y-123427142D01*
X118654285Y-123331904D01*
X118654285Y-123093809D01*
X118701904Y-122998571D01*
X118749523Y-122950952D01*
X118844761Y-122903333D01*
X119035238Y-122903333D01*
X119130476Y-122950952D01*
X119178095Y-122998571D01*
X119225714Y-123093809D01*
X126668826Y-135667402D02*
X126716445Y-135715021D01*
X126859302Y-135762640D01*
X126954540Y-135762640D01*
X127097398Y-135715021D01*
X127192636Y-135619783D01*
X127240255Y-135524545D01*
X127287874Y-135334069D01*
X127287874Y-135191212D01*
X127240255Y-135000736D01*
X127192636Y-134905498D01*
X127097398Y-134810260D01*
X126954540Y-134762640D01*
X126859302Y-134762640D01*
X126716445Y-134810260D01*
X126668826Y-134857879D01*
X125764064Y-134762640D02*
X126240255Y-134762640D01*
X126287874Y-135238831D01*
X126240255Y-135191212D01*
X126145017Y-135143593D01*
X125906921Y-135143593D01*
X125811683Y-135191212D01*
X125764064Y-135238831D01*
X125716445Y-135334069D01*
X125716445Y-135572164D01*
X125764064Y-135667402D01*
X125811683Y-135715021D01*
X125906921Y-135762640D01*
X126145017Y-135762640D01*
X126240255Y-135715021D01*
X126287874Y-135667402D01*
X146336666Y-116393542D02*
X146384285Y-116441161D01*
X146527142Y-116488780D01*
X146622380Y-116488780D01*
X146765238Y-116441161D01*
X146860476Y-116345923D01*
X146908095Y-116250685D01*
X146955714Y-116060209D01*
X146955714Y-115917352D01*
X146908095Y-115726876D01*
X146860476Y-115631638D01*
X146765238Y-115536400D01*
X146622380Y-115488780D01*
X146527142Y-115488780D01*
X146384285Y-115536400D01*
X146336666Y-115584019D01*
X145479523Y-115822114D02*
X145479523Y-116488780D01*
X145717619Y-115441161D02*
X145955714Y-116155447D01*
X145336666Y-116155447D01*
X146336666Y-127297142D02*
X146384285Y-127344761D01*
X146527142Y-127392380D01*
X146622380Y-127392380D01*
X146765238Y-127344761D01*
X146860476Y-127249523D01*
X146908095Y-127154285D01*
X146955714Y-126963809D01*
X146955714Y-126820952D01*
X146908095Y-126630476D01*
X146860476Y-126535238D01*
X146765238Y-126440000D01*
X146622380Y-126392380D01*
X146527142Y-126392380D01*
X146384285Y-126440000D01*
X146336666Y-126487619D01*
X146003333Y-126392380D02*
X145384285Y-126392380D01*
X145717619Y-126773333D01*
X145574761Y-126773333D01*
X145479523Y-126820952D01*
X145431904Y-126868571D01*
X145384285Y-126963809D01*
X145384285Y-127201904D01*
X145431904Y-127297142D01*
X145479523Y-127344761D01*
X145574761Y-127392380D01*
X145860476Y-127392380D01*
X145955714Y-127344761D01*
X146003333Y-127297142D01*
X178011666Y-63202142D02*
X178059285Y-63249761D01*
X178202142Y-63297380D01*
X178297380Y-63297380D01*
X178440238Y-63249761D01*
X178535476Y-63154523D01*
X178583095Y-63059285D01*
X178630714Y-62868809D01*
X178630714Y-62725952D01*
X178583095Y-62535476D01*
X178535476Y-62440238D01*
X178440238Y-62345000D01*
X178297380Y-62297380D01*
X178202142Y-62297380D01*
X178059285Y-62345000D01*
X178011666Y-62392619D01*
X177630714Y-62392619D02*
X177583095Y-62345000D01*
X177487857Y-62297380D01*
X177249761Y-62297380D01*
X177154523Y-62345000D01*
X177106904Y-62392619D01*
X177059285Y-62487857D01*
X177059285Y-62583095D01*
X177106904Y-62725952D01*
X177678333Y-63297380D01*
X177059285Y-63297380D01*
X178011666Y-55622142D02*
X178059285Y-55669761D01*
X178202142Y-55717380D01*
X178297380Y-55717380D01*
X178440238Y-55669761D01*
X178535476Y-55574523D01*
X178583095Y-55479285D01*
X178630714Y-55288809D01*
X178630714Y-55145952D01*
X178583095Y-54955476D01*
X178535476Y-54860238D01*
X178440238Y-54765000D01*
X178297380Y-54717380D01*
X178202142Y-54717380D01*
X178059285Y-54765000D01*
X178011666Y-54812619D01*
X177059285Y-55717380D02*
X177630714Y-55717380D01*
X177345000Y-55717380D02*
X177345000Y-54717380D01*
X177440238Y-54860238D01*
X177535476Y-54955476D01*
X177630714Y-55003095D01*
M02*
