G04 #@! TF.GenerationSoftware,KiCad,Pcbnew,5.1.6-c6e7f7d~86~ubuntu18.04.1*
G04 #@! TF.CreationDate,2020-06-20T10:02:23-04:00*
G04 #@! TF.ProjectId,sub_osc_board,7375625f-6f73-4635-9f62-6f6172642e6b,rev?*
G04 #@! TF.SameCoordinates,Original*
G04 #@! TF.FileFunction,Legend,Bot*
G04 #@! TF.FilePolarity,Positive*
%FSLAX46Y46*%
G04 Gerber Fmt 4.6, Leading zero omitted, Abs format (unit mm)*
G04 Created by KiCad (PCBNEW 5.1.6-c6e7f7d~86~ubuntu18.04.1) date 2020-06-20 10:02:23*
%MOMM*%
%LPD*%
G01*
G04 APERTURE LIST*
%ADD10C,0.120000*%
G04 APERTURE END LIST*
D10*
X109160000Y-74990000D02*
X110490000Y-74990000D01*
X109160000Y-73660000D02*
X109160000Y-74990000D01*
X111760000Y-74990000D02*
X114360000Y-74990000D01*
X111760000Y-72390000D02*
X111760000Y-74990000D01*
X109160000Y-72390000D02*
X111760000Y-72390000D01*
X114360000Y-74990000D02*
X114360000Y-62170000D01*
X109160000Y-72390000D02*
X109160000Y-62170000D01*
X109160000Y-62170000D02*
X114360000Y-62170000D01*
X114360000Y-113090000D02*
X111700000Y-113090000D01*
X114360000Y-107950000D02*
X114360000Y-113090000D01*
X111700000Y-107950000D02*
X111700000Y-113090000D01*
X114360000Y-107950000D02*
X111700000Y-107950000D01*
X114360000Y-106680000D02*
X114360000Y-105350000D01*
X114360000Y-105350000D02*
X113030000Y-105350000D01*
X114360000Y-128330000D02*
X111700000Y-128330000D01*
X114360000Y-118110000D02*
X114360000Y-128330000D01*
X111700000Y-118110000D02*
X111700000Y-128330000D01*
X114360000Y-118110000D02*
X111700000Y-118110000D01*
X114360000Y-116840000D02*
X114360000Y-115510000D01*
X114360000Y-115510000D02*
X113030000Y-115510000D01*
X85713748Y-58890000D02*
X86236252Y-58890000D01*
X85713748Y-60310000D02*
X86236252Y-60310000D01*
X92536252Y-120360000D02*
X92013748Y-120360000D01*
X92536252Y-118940000D02*
X92013748Y-118940000D01*
X100036252Y-116360000D02*
X99513748Y-116360000D01*
X100036252Y-114940000D02*
X99513748Y-114940000D01*
X92486252Y-111910000D02*
X91963748Y-111910000D01*
X92486252Y-110490000D02*
X91963748Y-110490000D01*
X99086252Y-112560000D02*
X98563748Y-112560000D01*
X99086252Y-111140000D02*
X98563748Y-111140000D01*
X92535752Y-105020180D02*
X92013248Y-105020180D01*
X92535752Y-103600180D02*
X92013248Y-103600180D01*
X98623912Y-105081140D02*
X98101408Y-105081140D01*
X98623912Y-103661140D02*
X98101408Y-103661140D01*
X92536912Y-96513720D02*
X92014408Y-96513720D01*
X92536912Y-95093720D02*
X92014408Y-95093720D01*
X98558092Y-79368720D02*
X98035588Y-79368720D01*
X98558092Y-77948720D02*
X98035588Y-77948720D01*
X92479652Y-79368720D02*
X91957148Y-79368720D01*
X92479652Y-77948720D02*
X91957148Y-77948720D01*
X98684872Y-94469020D02*
X98162368Y-94469020D01*
X98684872Y-93049020D02*
X98162368Y-93049020D01*
X92355192Y-88276500D02*
X91832688Y-88276500D01*
X92355192Y-86856500D02*
X91832688Y-86856500D01*
X98525072Y-59643080D02*
X98002568Y-59643080D01*
X98525072Y-58223080D02*
X98002568Y-58223080D01*
X92512672Y-59615140D02*
X91990168Y-59615140D01*
X92512672Y-58195140D02*
X91990168Y-58195140D01*
X106586252Y-59760000D02*
X106063748Y-59760000D01*
X106586252Y-58340000D02*
X106063748Y-58340000D01*
X99233732Y-87768500D02*
X98711228Y-87768500D01*
X99233732Y-86348500D02*
X98711228Y-86348500D01*
M02*
