G04 #@! TF.GenerationSoftware,KiCad,Pcbnew,5.1.6-c6e7f7d~86~ubuntu18.04.1*
G04 #@! TF.CreationDate,2020-06-20T10:02:23-04:00*
G04 #@! TF.ProjectId,sub_osc_board,7375625f-6f73-4635-9f62-6f6172642e6b,rev?*
G04 #@! TF.SameCoordinates,Original*
G04 #@! TF.FileFunction,Paste,Top*
G04 #@! TF.FilePolarity,Positive*
%FSLAX46Y46*%
G04 Gerber Fmt 4.6, Leading zero omitted, Abs format (unit mm)*
G04 Created by KiCad (PCBNEW 5.1.6-c6e7f7d~86~ubuntu18.04.1) date 2020-06-20 10:02:23*
%MOMM*%
%LPD*%
G01*
G04 APERTURE LIST*
%ADD10R,1.900000X0.800000*%
%ADD11R,0.800000X1.900000*%
G04 APERTURE END LIST*
G36*
G01*
X88949000Y-74479999D02*
X88949000Y-75380001D01*
G75*
G02*
X88699001Y-75630000I-249999J0D01*
G01*
X88048999Y-75630000D01*
G75*
G02*
X87799000Y-75380001I0J249999D01*
G01*
X87799000Y-74479999D01*
G75*
G02*
X88048999Y-74230000I249999J0D01*
G01*
X88699001Y-74230000D01*
G75*
G02*
X88949000Y-74479999I0J-249999D01*
G01*
G37*
G36*
G01*
X90999000Y-74479999D02*
X90999000Y-75380001D01*
G75*
G02*
X90749001Y-75630000I-249999J0D01*
G01*
X90098999Y-75630000D01*
G75*
G02*
X89849000Y-75380001I0J249999D01*
G01*
X89849000Y-74479999D01*
G75*
G02*
X90098999Y-74230000I249999J0D01*
G01*
X90749001Y-74230000D01*
G75*
G02*
X90999000Y-74479999I0J-249999D01*
G01*
G37*
G36*
G01*
X88958000Y-76511999D02*
X88958000Y-77412001D01*
G75*
G02*
X88708001Y-77662000I-249999J0D01*
G01*
X88057999Y-77662000D01*
G75*
G02*
X87808000Y-77412001I0J249999D01*
G01*
X87808000Y-76511999D01*
G75*
G02*
X88057999Y-76262000I249999J0D01*
G01*
X88708001Y-76262000D01*
G75*
G02*
X88958000Y-76511999I0J-249999D01*
G01*
G37*
G36*
G01*
X91008000Y-76511999D02*
X91008000Y-77412001D01*
G75*
G02*
X90758001Y-77662000I-249999J0D01*
G01*
X90107999Y-77662000D01*
G75*
G02*
X89858000Y-77412001I0J249999D01*
G01*
X89858000Y-76511999D01*
G75*
G02*
X90107999Y-76262000I249999J0D01*
G01*
X90758001Y-76262000D01*
G75*
G02*
X91008000Y-76511999I0J-249999D01*
G01*
G37*
D10*
X83137000Y-62854800D03*
X80137000Y-63804800D03*
X80137000Y-61904800D03*
X82384900Y-86702900D03*
X79384900Y-87652900D03*
X79384900Y-85752900D03*
D11*
X108028700Y-81772500D03*
X108978700Y-84772500D03*
X107078700Y-84772500D03*
X108155700Y-94713800D03*
X109105700Y-97713800D03*
X107205700Y-97713800D03*
G36*
G01*
X93750000Y-112245000D02*
X93750000Y-112545000D01*
G75*
G02*
X93600000Y-112695000I-150000J0D01*
G01*
X91950000Y-112695000D01*
G75*
G02*
X91800000Y-112545000I0J150000D01*
G01*
X91800000Y-112245000D01*
G75*
G02*
X91950000Y-112095000I150000J0D01*
G01*
X93600000Y-112095000D01*
G75*
G02*
X93750000Y-112245000I0J-150000D01*
G01*
G37*
G36*
G01*
X93750000Y-110975000D02*
X93750000Y-111275000D01*
G75*
G02*
X93600000Y-111425000I-150000J0D01*
G01*
X91950000Y-111425000D01*
G75*
G02*
X91800000Y-111275000I0J150000D01*
G01*
X91800000Y-110975000D01*
G75*
G02*
X91950000Y-110825000I150000J0D01*
G01*
X93600000Y-110825000D01*
G75*
G02*
X93750000Y-110975000I0J-150000D01*
G01*
G37*
G36*
G01*
X93750000Y-109705000D02*
X93750000Y-110005000D01*
G75*
G02*
X93600000Y-110155000I-150000J0D01*
G01*
X91950000Y-110155000D01*
G75*
G02*
X91800000Y-110005000I0J150000D01*
G01*
X91800000Y-109705000D01*
G75*
G02*
X91950000Y-109555000I150000J0D01*
G01*
X93600000Y-109555000D01*
G75*
G02*
X93750000Y-109705000I0J-150000D01*
G01*
G37*
G36*
G01*
X93750000Y-108435000D02*
X93750000Y-108735000D01*
G75*
G02*
X93600000Y-108885000I-150000J0D01*
G01*
X91950000Y-108885000D01*
G75*
G02*
X91800000Y-108735000I0J150000D01*
G01*
X91800000Y-108435000D01*
G75*
G02*
X91950000Y-108285000I150000J0D01*
G01*
X93600000Y-108285000D01*
G75*
G02*
X93750000Y-108435000I0J-150000D01*
G01*
G37*
G36*
G01*
X98700000Y-108435000D02*
X98700000Y-108735000D01*
G75*
G02*
X98550000Y-108885000I-150000J0D01*
G01*
X96900000Y-108885000D01*
G75*
G02*
X96750000Y-108735000I0J150000D01*
G01*
X96750000Y-108435000D01*
G75*
G02*
X96900000Y-108285000I150000J0D01*
G01*
X98550000Y-108285000D01*
G75*
G02*
X98700000Y-108435000I0J-150000D01*
G01*
G37*
G36*
G01*
X98700000Y-109705000D02*
X98700000Y-110005000D01*
G75*
G02*
X98550000Y-110155000I-150000J0D01*
G01*
X96900000Y-110155000D01*
G75*
G02*
X96750000Y-110005000I0J150000D01*
G01*
X96750000Y-109705000D01*
G75*
G02*
X96900000Y-109555000I150000J0D01*
G01*
X98550000Y-109555000D01*
G75*
G02*
X98700000Y-109705000I0J-150000D01*
G01*
G37*
G36*
G01*
X98700000Y-110975000D02*
X98700000Y-111275000D01*
G75*
G02*
X98550000Y-111425000I-150000J0D01*
G01*
X96900000Y-111425000D01*
G75*
G02*
X96750000Y-111275000I0J150000D01*
G01*
X96750000Y-110975000D01*
G75*
G02*
X96900000Y-110825000I150000J0D01*
G01*
X98550000Y-110825000D01*
G75*
G02*
X98700000Y-110975000I0J-150000D01*
G01*
G37*
G36*
G01*
X98700000Y-112245000D02*
X98700000Y-112545000D01*
G75*
G02*
X98550000Y-112695000I-150000J0D01*
G01*
X96900000Y-112695000D01*
G75*
G02*
X96750000Y-112545000I0J150000D01*
G01*
X96750000Y-112245000D01*
G75*
G02*
X96900000Y-112095000I150000J0D01*
G01*
X98550000Y-112095000D01*
G75*
G02*
X98700000Y-112245000I0J-150000D01*
G01*
G37*
G36*
G01*
X93750000Y-118976000D02*
X93750000Y-119276000D01*
G75*
G02*
X93600000Y-119426000I-150000J0D01*
G01*
X91950000Y-119426000D01*
G75*
G02*
X91800000Y-119276000I0J150000D01*
G01*
X91800000Y-118976000D01*
G75*
G02*
X91950000Y-118826000I150000J0D01*
G01*
X93600000Y-118826000D01*
G75*
G02*
X93750000Y-118976000I0J-150000D01*
G01*
G37*
G36*
G01*
X93750000Y-117706000D02*
X93750000Y-118006000D01*
G75*
G02*
X93600000Y-118156000I-150000J0D01*
G01*
X91950000Y-118156000D01*
G75*
G02*
X91800000Y-118006000I0J150000D01*
G01*
X91800000Y-117706000D01*
G75*
G02*
X91950000Y-117556000I150000J0D01*
G01*
X93600000Y-117556000D01*
G75*
G02*
X93750000Y-117706000I0J-150000D01*
G01*
G37*
G36*
G01*
X93750000Y-116436000D02*
X93750000Y-116736000D01*
G75*
G02*
X93600000Y-116886000I-150000J0D01*
G01*
X91950000Y-116886000D01*
G75*
G02*
X91800000Y-116736000I0J150000D01*
G01*
X91800000Y-116436000D01*
G75*
G02*
X91950000Y-116286000I150000J0D01*
G01*
X93600000Y-116286000D01*
G75*
G02*
X93750000Y-116436000I0J-150000D01*
G01*
G37*
G36*
G01*
X93750000Y-115166000D02*
X93750000Y-115466000D01*
G75*
G02*
X93600000Y-115616000I-150000J0D01*
G01*
X91950000Y-115616000D01*
G75*
G02*
X91800000Y-115466000I0J150000D01*
G01*
X91800000Y-115166000D01*
G75*
G02*
X91950000Y-115016000I150000J0D01*
G01*
X93600000Y-115016000D01*
G75*
G02*
X93750000Y-115166000I0J-150000D01*
G01*
G37*
G36*
G01*
X98700000Y-115166000D02*
X98700000Y-115466000D01*
G75*
G02*
X98550000Y-115616000I-150000J0D01*
G01*
X96900000Y-115616000D01*
G75*
G02*
X96750000Y-115466000I0J150000D01*
G01*
X96750000Y-115166000D01*
G75*
G02*
X96900000Y-115016000I150000J0D01*
G01*
X98550000Y-115016000D01*
G75*
G02*
X98700000Y-115166000I0J-150000D01*
G01*
G37*
G36*
G01*
X98700000Y-116436000D02*
X98700000Y-116736000D01*
G75*
G02*
X98550000Y-116886000I-150000J0D01*
G01*
X96900000Y-116886000D01*
G75*
G02*
X96750000Y-116736000I0J150000D01*
G01*
X96750000Y-116436000D01*
G75*
G02*
X96900000Y-116286000I150000J0D01*
G01*
X98550000Y-116286000D01*
G75*
G02*
X98700000Y-116436000I0J-150000D01*
G01*
G37*
G36*
G01*
X98700000Y-117706000D02*
X98700000Y-118006000D01*
G75*
G02*
X98550000Y-118156000I-150000J0D01*
G01*
X96900000Y-118156000D01*
G75*
G02*
X96750000Y-118006000I0J150000D01*
G01*
X96750000Y-117706000D01*
G75*
G02*
X96900000Y-117556000I150000J0D01*
G01*
X98550000Y-117556000D01*
G75*
G02*
X98700000Y-117706000I0J-150000D01*
G01*
G37*
G36*
G01*
X98700000Y-118976000D02*
X98700000Y-119276000D01*
G75*
G02*
X98550000Y-119426000I-150000J0D01*
G01*
X96900000Y-119426000D01*
G75*
G02*
X96750000Y-119276000I0J150000D01*
G01*
X96750000Y-118976000D01*
G75*
G02*
X96900000Y-118826000I150000J0D01*
G01*
X98550000Y-118826000D01*
G75*
G02*
X98700000Y-118976000I0J-150000D01*
G01*
G37*
G36*
G01*
X98113001Y-122622000D02*
X97212999Y-122622000D01*
G75*
G02*
X96963000Y-122372001I0J249999D01*
G01*
X96963000Y-121721999D01*
G75*
G02*
X97212999Y-121472000I249999J0D01*
G01*
X98113001Y-121472000D01*
G75*
G02*
X98363000Y-121721999I0J-249999D01*
G01*
X98363000Y-122372001D01*
G75*
G02*
X98113001Y-122622000I-249999J0D01*
G01*
G37*
G36*
G01*
X98113001Y-124672000D02*
X97212999Y-124672000D01*
G75*
G02*
X96963000Y-124422001I0J249999D01*
G01*
X96963000Y-123771999D01*
G75*
G02*
X97212999Y-123522000I249999J0D01*
G01*
X98113001Y-123522000D01*
G75*
G02*
X98363000Y-123771999I0J-249999D01*
G01*
X98363000Y-124422001D01*
G75*
G02*
X98113001Y-124672000I-249999J0D01*
G01*
G37*
G36*
G01*
X93160001Y-122622000D02*
X92259999Y-122622000D01*
G75*
G02*
X92010000Y-122372001I0J249999D01*
G01*
X92010000Y-121721999D01*
G75*
G02*
X92259999Y-121472000I249999J0D01*
G01*
X93160001Y-121472000D01*
G75*
G02*
X93410000Y-121721999I0J-249999D01*
G01*
X93410000Y-122372001D01*
G75*
G02*
X93160001Y-122622000I-249999J0D01*
G01*
G37*
G36*
G01*
X93160001Y-124672000D02*
X92259999Y-124672000D01*
G75*
G02*
X92010000Y-124422001I0J249999D01*
G01*
X92010000Y-123771999D01*
G75*
G02*
X92259999Y-123522000I249999J0D01*
G01*
X93160001Y-123522000D01*
G75*
G02*
X93410000Y-123771999I0J-249999D01*
G01*
X93410000Y-124422001D01*
G75*
G02*
X93160001Y-124672000I-249999J0D01*
G01*
G37*
G36*
G01*
X89477001Y-122604000D02*
X88576999Y-122604000D01*
G75*
G02*
X88327000Y-122354001I0J249999D01*
G01*
X88327000Y-121703999D01*
G75*
G02*
X88576999Y-121454000I249999J0D01*
G01*
X89477001Y-121454000D01*
G75*
G02*
X89727000Y-121703999I0J-249999D01*
G01*
X89727000Y-122354001D01*
G75*
G02*
X89477001Y-122604000I-249999J0D01*
G01*
G37*
G36*
G01*
X89477001Y-124654000D02*
X88576999Y-124654000D01*
G75*
G02*
X88327000Y-124404001I0J249999D01*
G01*
X88327000Y-123753999D01*
G75*
G02*
X88576999Y-123504000I249999J0D01*
G01*
X89477001Y-123504000D01*
G75*
G02*
X89727000Y-123753999I0J-249999D01*
G01*
X89727000Y-124404001D01*
G75*
G02*
X89477001Y-124654000I-249999J0D01*
G01*
G37*
G36*
G01*
X101551000Y-109924001D02*
X101551000Y-109023999D01*
G75*
G02*
X101800999Y-108774000I249999J0D01*
G01*
X102451001Y-108774000D01*
G75*
G02*
X102701000Y-109023999I0J-249999D01*
G01*
X102701000Y-109924001D01*
G75*
G02*
X102451001Y-110174000I-249999J0D01*
G01*
X101800999Y-110174000D01*
G75*
G02*
X101551000Y-109924001I0J249999D01*
G01*
G37*
G36*
G01*
X99501000Y-109924001D02*
X99501000Y-109023999D01*
G75*
G02*
X99750999Y-108774000I249999J0D01*
G01*
X100401001Y-108774000D01*
G75*
G02*
X100651000Y-109023999I0J-249999D01*
G01*
X100651000Y-109924001D01*
G75*
G02*
X100401001Y-110174000I-249999J0D01*
G01*
X99750999Y-110174000D01*
G75*
G02*
X99501000Y-109924001I0J249999D01*
G01*
G37*
G36*
G01*
X88644200Y-115627999D02*
X88644200Y-116528001D01*
G75*
G02*
X88394201Y-116778000I-249999J0D01*
G01*
X87744199Y-116778000D01*
G75*
G02*
X87494200Y-116528001I0J249999D01*
G01*
X87494200Y-115627999D01*
G75*
G02*
X87744199Y-115378000I249999J0D01*
G01*
X88394201Y-115378000D01*
G75*
G02*
X88644200Y-115627999I0J-249999D01*
G01*
G37*
G36*
G01*
X90694200Y-115627999D02*
X90694200Y-116528001D01*
G75*
G02*
X90444201Y-116778000I-249999J0D01*
G01*
X89794199Y-116778000D01*
G75*
G02*
X89544200Y-116528001I0J249999D01*
G01*
X89544200Y-115627999D01*
G75*
G02*
X89794199Y-115378000I249999J0D01*
G01*
X90444201Y-115378000D01*
G75*
G02*
X90694200Y-115627999I0J-249999D01*
G01*
G37*
G36*
G01*
X101551000Y-116528001D02*
X101551000Y-115627999D01*
G75*
G02*
X101800999Y-115378000I249999J0D01*
G01*
X102451001Y-115378000D01*
G75*
G02*
X102701000Y-115627999I0J-249999D01*
G01*
X102701000Y-116528001D01*
G75*
G02*
X102451001Y-116778000I-249999J0D01*
G01*
X101800999Y-116778000D01*
G75*
G02*
X101551000Y-116528001I0J249999D01*
G01*
G37*
G36*
G01*
X99501000Y-116528001D02*
X99501000Y-115627999D01*
G75*
G02*
X99750999Y-115378000I249999J0D01*
G01*
X100401001Y-115378000D01*
G75*
G02*
X100651000Y-115627999I0J-249999D01*
G01*
X100651000Y-116528001D01*
G75*
G02*
X100401001Y-116778000I-249999J0D01*
G01*
X99750999Y-116778000D01*
G75*
G02*
X99501000Y-116528001I0J249999D01*
G01*
G37*
G36*
G01*
X101551000Y-112210001D02*
X101551000Y-111309999D01*
G75*
G02*
X101800999Y-111060000I249999J0D01*
G01*
X102451001Y-111060000D01*
G75*
G02*
X102701000Y-111309999I0J-249999D01*
G01*
X102701000Y-112210001D01*
G75*
G02*
X102451001Y-112460000I-249999J0D01*
G01*
X101800999Y-112460000D01*
G75*
G02*
X101551000Y-112210001I0J249999D01*
G01*
G37*
G36*
G01*
X99501000Y-112210001D02*
X99501000Y-111309999D01*
G75*
G02*
X99750999Y-111060000I249999J0D01*
G01*
X100401001Y-111060000D01*
G75*
G02*
X100651000Y-111309999I0J-249999D01*
G01*
X100651000Y-112210001D01*
G75*
G02*
X100401001Y-112460000I-249999J0D01*
G01*
X99750999Y-112460000D01*
G75*
G02*
X99501000Y-112210001I0J249999D01*
G01*
G37*
G36*
G01*
X101415001Y-122613000D02*
X100514999Y-122613000D01*
G75*
G02*
X100265000Y-122363001I0J249999D01*
G01*
X100265000Y-121712999D01*
G75*
G02*
X100514999Y-121463000I249999J0D01*
G01*
X101415001Y-121463000D01*
G75*
G02*
X101665000Y-121712999I0J-249999D01*
G01*
X101665000Y-122363001D01*
G75*
G02*
X101415001Y-122613000I-249999J0D01*
G01*
G37*
G36*
G01*
X101415001Y-124663000D02*
X100514999Y-124663000D01*
G75*
G02*
X100265000Y-124413001I0J249999D01*
G01*
X100265000Y-123762999D01*
G75*
G02*
X100514999Y-123513000I249999J0D01*
G01*
X101415001Y-123513000D01*
G75*
G02*
X101665000Y-123762999I0J-249999D01*
G01*
X101665000Y-124413001D01*
G75*
G02*
X101415001Y-124663000I-249999J0D01*
G01*
G37*
G36*
G01*
X88644200Y-118040999D02*
X88644200Y-118941001D01*
G75*
G02*
X88394201Y-119191000I-249999J0D01*
G01*
X87744199Y-119191000D01*
G75*
G02*
X87494200Y-118941001I0J249999D01*
G01*
X87494200Y-118040999D01*
G75*
G02*
X87744199Y-117791000I249999J0D01*
G01*
X88394201Y-117791000D01*
G75*
G02*
X88644200Y-118040999I0J-249999D01*
G01*
G37*
G36*
G01*
X90694200Y-118040999D02*
X90694200Y-118941001D01*
G75*
G02*
X90444201Y-119191000I-249999J0D01*
G01*
X89794199Y-119191000D01*
G75*
G02*
X89544200Y-118941001I0J249999D01*
G01*
X89544200Y-118040999D01*
G75*
G02*
X89794199Y-117791000I249999J0D01*
G01*
X90444201Y-117791000D01*
G75*
G02*
X90694200Y-118040999I0J-249999D01*
G01*
G37*
G36*
G01*
X100651000Y-118167999D02*
X100651000Y-119068001D01*
G75*
G02*
X100401001Y-119318000I-249999J0D01*
G01*
X99750999Y-119318000D01*
G75*
G02*
X99501000Y-119068001I0J249999D01*
G01*
X99501000Y-118167999D01*
G75*
G02*
X99750999Y-117918000I249999J0D01*
G01*
X100401001Y-117918000D01*
G75*
G02*
X100651000Y-118167999I0J-249999D01*
G01*
G37*
G36*
G01*
X102701000Y-118167999D02*
X102701000Y-119068001D01*
G75*
G02*
X102451001Y-119318000I-249999J0D01*
G01*
X101800999Y-119318000D01*
G75*
G02*
X101551000Y-119068001I0J249999D01*
G01*
X101551000Y-118167999D01*
G75*
G02*
X101800999Y-117918000I249999J0D01*
G01*
X102451001Y-117918000D01*
G75*
G02*
X102701000Y-118167999I0J-249999D01*
G01*
G37*
G36*
G01*
X87820600Y-68938000D02*
X87820600Y-69238000D01*
G75*
G02*
X87670600Y-69388000I-150000J0D01*
G01*
X86020600Y-69388000D01*
G75*
G02*
X85870600Y-69238000I0J150000D01*
G01*
X85870600Y-68938000D01*
G75*
G02*
X86020600Y-68788000I150000J0D01*
G01*
X87670600Y-68788000D01*
G75*
G02*
X87820600Y-68938000I0J-150000D01*
G01*
G37*
G36*
G01*
X87820600Y-67668000D02*
X87820600Y-67968000D01*
G75*
G02*
X87670600Y-68118000I-150000J0D01*
G01*
X86020600Y-68118000D01*
G75*
G02*
X85870600Y-67968000I0J150000D01*
G01*
X85870600Y-67668000D01*
G75*
G02*
X86020600Y-67518000I150000J0D01*
G01*
X87670600Y-67518000D01*
G75*
G02*
X87820600Y-67668000I0J-150000D01*
G01*
G37*
G36*
G01*
X87820600Y-66398000D02*
X87820600Y-66698000D01*
G75*
G02*
X87670600Y-66848000I-150000J0D01*
G01*
X86020600Y-66848000D01*
G75*
G02*
X85870600Y-66698000I0J150000D01*
G01*
X85870600Y-66398000D01*
G75*
G02*
X86020600Y-66248000I150000J0D01*
G01*
X87670600Y-66248000D01*
G75*
G02*
X87820600Y-66398000I0J-150000D01*
G01*
G37*
G36*
G01*
X87820600Y-65128000D02*
X87820600Y-65428000D01*
G75*
G02*
X87670600Y-65578000I-150000J0D01*
G01*
X86020600Y-65578000D01*
G75*
G02*
X85870600Y-65428000I0J150000D01*
G01*
X85870600Y-65128000D01*
G75*
G02*
X86020600Y-64978000I150000J0D01*
G01*
X87670600Y-64978000D01*
G75*
G02*
X87820600Y-65128000I0J-150000D01*
G01*
G37*
G36*
G01*
X87820600Y-63858000D02*
X87820600Y-64158000D01*
G75*
G02*
X87670600Y-64308000I-150000J0D01*
G01*
X86020600Y-64308000D01*
G75*
G02*
X85870600Y-64158000I0J150000D01*
G01*
X85870600Y-63858000D01*
G75*
G02*
X86020600Y-63708000I150000J0D01*
G01*
X87670600Y-63708000D01*
G75*
G02*
X87820600Y-63858000I0J-150000D01*
G01*
G37*
G36*
G01*
X87820600Y-62588000D02*
X87820600Y-62888000D01*
G75*
G02*
X87670600Y-63038000I-150000J0D01*
G01*
X86020600Y-63038000D01*
G75*
G02*
X85870600Y-62888000I0J150000D01*
G01*
X85870600Y-62588000D01*
G75*
G02*
X86020600Y-62438000I150000J0D01*
G01*
X87670600Y-62438000D01*
G75*
G02*
X87820600Y-62588000I0J-150000D01*
G01*
G37*
G36*
G01*
X87820600Y-61318000D02*
X87820600Y-61618000D01*
G75*
G02*
X87670600Y-61768000I-150000J0D01*
G01*
X86020600Y-61768000D01*
G75*
G02*
X85870600Y-61618000I0J150000D01*
G01*
X85870600Y-61318000D01*
G75*
G02*
X86020600Y-61168000I150000J0D01*
G01*
X87670600Y-61168000D01*
G75*
G02*
X87820600Y-61318000I0J-150000D01*
G01*
G37*
G36*
G01*
X92770600Y-61318000D02*
X92770600Y-61618000D01*
G75*
G02*
X92620600Y-61768000I-150000J0D01*
G01*
X90970600Y-61768000D01*
G75*
G02*
X90820600Y-61618000I0J150000D01*
G01*
X90820600Y-61318000D01*
G75*
G02*
X90970600Y-61168000I150000J0D01*
G01*
X92620600Y-61168000D01*
G75*
G02*
X92770600Y-61318000I0J-150000D01*
G01*
G37*
G36*
G01*
X92770600Y-62588000D02*
X92770600Y-62888000D01*
G75*
G02*
X92620600Y-63038000I-150000J0D01*
G01*
X90970600Y-63038000D01*
G75*
G02*
X90820600Y-62888000I0J150000D01*
G01*
X90820600Y-62588000D01*
G75*
G02*
X90970600Y-62438000I150000J0D01*
G01*
X92620600Y-62438000D01*
G75*
G02*
X92770600Y-62588000I0J-150000D01*
G01*
G37*
G36*
G01*
X92770600Y-63858000D02*
X92770600Y-64158000D01*
G75*
G02*
X92620600Y-64308000I-150000J0D01*
G01*
X90970600Y-64308000D01*
G75*
G02*
X90820600Y-64158000I0J150000D01*
G01*
X90820600Y-63858000D01*
G75*
G02*
X90970600Y-63708000I150000J0D01*
G01*
X92620600Y-63708000D01*
G75*
G02*
X92770600Y-63858000I0J-150000D01*
G01*
G37*
G36*
G01*
X92770600Y-65128000D02*
X92770600Y-65428000D01*
G75*
G02*
X92620600Y-65578000I-150000J0D01*
G01*
X90970600Y-65578000D01*
G75*
G02*
X90820600Y-65428000I0J150000D01*
G01*
X90820600Y-65128000D01*
G75*
G02*
X90970600Y-64978000I150000J0D01*
G01*
X92620600Y-64978000D01*
G75*
G02*
X92770600Y-65128000I0J-150000D01*
G01*
G37*
G36*
G01*
X92770600Y-66398000D02*
X92770600Y-66698000D01*
G75*
G02*
X92620600Y-66848000I-150000J0D01*
G01*
X90970600Y-66848000D01*
G75*
G02*
X90820600Y-66698000I0J150000D01*
G01*
X90820600Y-66398000D01*
G75*
G02*
X90970600Y-66248000I150000J0D01*
G01*
X92620600Y-66248000D01*
G75*
G02*
X92770600Y-66398000I0J-150000D01*
G01*
G37*
G36*
G01*
X92770600Y-67668000D02*
X92770600Y-67968000D01*
G75*
G02*
X92620600Y-68118000I-150000J0D01*
G01*
X90970600Y-68118000D01*
G75*
G02*
X90820600Y-67968000I0J150000D01*
G01*
X90820600Y-67668000D01*
G75*
G02*
X90970600Y-67518000I150000J0D01*
G01*
X92620600Y-67518000D01*
G75*
G02*
X92770600Y-67668000I0J-150000D01*
G01*
G37*
G36*
G01*
X92770600Y-68938000D02*
X92770600Y-69238000D01*
G75*
G02*
X92620600Y-69388000I-150000J0D01*
G01*
X90970600Y-69388000D01*
G75*
G02*
X90820600Y-69238000I0J150000D01*
G01*
X90820600Y-68938000D01*
G75*
G02*
X90970600Y-68788000I150000J0D01*
G01*
X92620600Y-68788000D01*
G75*
G02*
X92770600Y-68938000I0J-150000D01*
G01*
G37*
G36*
G01*
X100927000Y-68938000D02*
X100927000Y-69238000D01*
G75*
G02*
X100777000Y-69388000I-150000J0D01*
G01*
X99127000Y-69388000D01*
G75*
G02*
X98977000Y-69238000I0J150000D01*
G01*
X98977000Y-68938000D01*
G75*
G02*
X99127000Y-68788000I150000J0D01*
G01*
X100777000Y-68788000D01*
G75*
G02*
X100927000Y-68938000I0J-150000D01*
G01*
G37*
G36*
G01*
X100927000Y-67668000D02*
X100927000Y-67968000D01*
G75*
G02*
X100777000Y-68118000I-150000J0D01*
G01*
X99127000Y-68118000D01*
G75*
G02*
X98977000Y-67968000I0J150000D01*
G01*
X98977000Y-67668000D01*
G75*
G02*
X99127000Y-67518000I150000J0D01*
G01*
X100777000Y-67518000D01*
G75*
G02*
X100927000Y-67668000I0J-150000D01*
G01*
G37*
G36*
G01*
X100927000Y-66398000D02*
X100927000Y-66698000D01*
G75*
G02*
X100777000Y-66848000I-150000J0D01*
G01*
X99127000Y-66848000D01*
G75*
G02*
X98977000Y-66698000I0J150000D01*
G01*
X98977000Y-66398000D01*
G75*
G02*
X99127000Y-66248000I150000J0D01*
G01*
X100777000Y-66248000D01*
G75*
G02*
X100927000Y-66398000I0J-150000D01*
G01*
G37*
G36*
G01*
X100927000Y-65128000D02*
X100927000Y-65428000D01*
G75*
G02*
X100777000Y-65578000I-150000J0D01*
G01*
X99127000Y-65578000D01*
G75*
G02*
X98977000Y-65428000I0J150000D01*
G01*
X98977000Y-65128000D01*
G75*
G02*
X99127000Y-64978000I150000J0D01*
G01*
X100777000Y-64978000D01*
G75*
G02*
X100927000Y-65128000I0J-150000D01*
G01*
G37*
G36*
G01*
X100927000Y-63858000D02*
X100927000Y-64158000D01*
G75*
G02*
X100777000Y-64308000I-150000J0D01*
G01*
X99127000Y-64308000D01*
G75*
G02*
X98977000Y-64158000I0J150000D01*
G01*
X98977000Y-63858000D01*
G75*
G02*
X99127000Y-63708000I150000J0D01*
G01*
X100777000Y-63708000D01*
G75*
G02*
X100927000Y-63858000I0J-150000D01*
G01*
G37*
G36*
G01*
X100927000Y-62588000D02*
X100927000Y-62888000D01*
G75*
G02*
X100777000Y-63038000I-150000J0D01*
G01*
X99127000Y-63038000D01*
G75*
G02*
X98977000Y-62888000I0J150000D01*
G01*
X98977000Y-62588000D01*
G75*
G02*
X99127000Y-62438000I150000J0D01*
G01*
X100777000Y-62438000D01*
G75*
G02*
X100927000Y-62588000I0J-150000D01*
G01*
G37*
G36*
G01*
X100927000Y-61318000D02*
X100927000Y-61618000D01*
G75*
G02*
X100777000Y-61768000I-150000J0D01*
G01*
X99127000Y-61768000D01*
G75*
G02*
X98977000Y-61618000I0J150000D01*
G01*
X98977000Y-61318000D01*
G75*
G02*
X99127000Y-61168000I150000J0D01*
G01*
X100777000Y-61168000D01*
G75*
G02*
X100927000Y-61318000I0J-150000D01*
G01*
G37*
G36*
G01*
X105877000Y-61318000D02*
X105877000Y-61618000D01*
G75*
G02*
X105727000Y-61768000I-150000J0D01*
G01*
X104077000Y-61768000D01*
G75*
G02*
X103927000Y-61618000I0J150000D01*
G01*
X103927000Y-61318000D01*
G75*
G02*
X104077000Y-61168000I150000J0D01*
G01*
X105727000Y-61168000D01*
G75*
G02*
X105877000Y-61318000I0J-150000D01*
G01*
G37*
G36*
G01*
X105877000Y-62588000D02*
X105877000Y-62888000D01*
G75*
G02*
X105727000Y-63038000I-150000J0D01*
G01*
X104077000Y-63038000D01*
G75*
G02*
X103927000Y-62888000I0J150000D01*
G01*
X103927000Y-62588000D01*
G75*
G02*
X104077000Y-62438000I150000J0D01*
G01*
X105727000Y-62438000D01*
G75*
G02*
X105877000Y-62588000I0J-150000D01*
G01*
G37*
G36*
G01*
X105877000Y-63858000D02*
X105877000Y-64158000D01*
G75*
G02*
X105727000Y-64308000I-150000J0D01*
G01*
X104077000Y-64308000D01*
G75*
G02*
X103927000Y-64158000I0J150000D01*
G01*
X103927000Y-63858000D01*
G75*
G02*
X104077000Y-63708000I150000J0D01*
G01*
X105727000Y-63708000D01*
G75*
G02*
X105877000Y-63858000I0J-150000D01*
G01*
G37*
G36*
G01*
X105877000Y-65128000D02*
X105877000Y-65428000D01*
G75*
G02*
X105727000Y-65578000I-150000J0D01*
G01*
X104077000Y-65578000D01*
G75*
G02*
X103927000Y-65428000I0J150000D01*
G01*
X103927000Y-65128000D01*
G75*
G02*
X104077000Y-64978000I150000J0D01*
G01*
X105727000Y-64978000D01*
G75*
G02*
X105877000Y-65128000I0J-150000D01*
G01*
G37*
G36*
G01*
X105877000Y-66398000D02*
X105877000Y-66698000D01*
G75*
G02*
X105727000Y-66848000I-150000J0D01*
G01*
X104077000Y-66848000D01*
G75*
G02*
X103927000Y-66698000I0J150000D01*
G01*
X103927000Y-66398000D01*
G75*
G02*
X104077000Y-66248000I150000J0D01*
G01*
X105727000Y-66248000D01*
G75*
G02*
X105877000Y-66398000I0J-150000D01*
G01*
G37*
G36*
G01*
X105877000Y-67668000D02*
X105877000Y-67968000D01*
G75*
G02*
X105727000Y-68118000I-150000J0D01*
G01*
X104077000Y-68118000D01*
G75*
G02*
X103927000Y-67968000I0J150000D01*
G01*
X103927000Y-67668000D01*
G75*
G02*
X104077000Y-67518000I150000J0D01*
G01*
X105727000Y-67518000D01*
G75*
G02*
X105877000Y-67668000I0J-150000D01*
G01*
G37*
G36*
G01*
X105877000Y-68938000D02*
X105877000Y-69238000D01*
G75*
G02*
X105727000Y-69388000I-150000J0D01*
G01*
X104077000Y-69388000D01*
G75*
G02*
X103927000Y-69238000I0J150000D01*
G01*
X103927000Y-68938000D01*
G75*
G02*
X104077000Y-68788000I150000J0D01*
G01*
X105727000Y-68788000D01*
G75*
G02*
X105877000Y-68938000I0J-150000D01*
G01*
G37*
G36*
G01*
X93750000Y-105514000D02*
X93750000Y-105814000D01*
G75*
G02*
X93600000Y-105964000I-150000J0D01*
G01*
X91950000Y-105964000D01*
G75*
G02*
X91800000Y-105814000I0J150000D01*
G01*
X91800000Y-105514000D01*
G75*
G02*
X91950000Y-105364000I150000J0D01*
G01*
X93600000Y-105364000D01*
G75*
G02*
X93750000Y-105514000I0J-150000D01*
G01*
G37*
G36*
G01*
X93750000Y-104244000D02*
X93750000Y-104544000D01*
G75*
G02*
X93600000Y-104694000I-150000J0D01*
G01*
X91950000Y-104694000D01*
G75*
G02*
X91800000Y-104544000I0J150000D01*
G01*
X91800000Y-104244000D01*
G75*
G02*
X91950000Y-104094000I150000J0D01*
G01*
X93600000Y-104094000D01*
G75*
G02*
X93750000Y-104244000I0J-150000D01*
G01*
G37*
G36*
G01*
X93750000Y-102974000D02*
X93750000Y-103274000D01*
G75*
G02*
X93600000Y-103424000I-150000J0D01*
G01*
X91950000Y-103424000D01*
G75*
G02*
X91800000Y-103274000I0J150000D01*
G01*
X91800000Y-102974000D01*
G75*
G02*
X91950000Y-102824000I150000J0D01*
G01*
X93600000Y-102824000D01*
G75*
G02*
X93750000Y-102974000I0J-150000D01*
G01*
G37*
G36*
G01*
X93750000Y-101704000D02*
X93750000Y-102004000D01*
G75*
G02*
X93600000Y-102154000I-150000J0D01*
G01*
X91950000Y-102154000D01*
G75*
G02*
X91800000Y-102004000I0J150000D01*
G01*
X91800000Y-101704000D01*
G75*
G02*
X91950000Y-101554000I150000J0D01*
G01*
X93600000Y-101554000D01*
G75*
G02*
X93750000Y-101704000I0J-150000D01*
G01*
G37*
G36*
G01*
X98700000Y-101704000D02*
X98700000Y-102004000D01*
G75*
G02*
X98550000Y-102154000I-150000J0D01*
G01*
X96900000Y-102154000D01*
G75*
G02*
X96750000Y-102004000I0J150000D01*
G01*
X96750000Y-101704000D01*
G75*
G02*
X96900000Y-101554000I150000J0D01*
G01*
X98550000Y-101554000D01*
G75*
G02*
X98700000Y-101704000I0J-150000D01*
G01*
G37*
G36*
G01*
X98700000Y-102974000D02*
X98700000Y-103274000D01*
G75*
G02*
X98550000Y-103424000I-150000J0D01*
G01*
X96900000Y-103424000D01*
G75*
G02*
X96750000Y-103274000I0J150000D01*
G01*
X96750000Y-102974000D01*
G75*
G02*
X96900000Y-102824000I150000J0D01*
G01*
X98550000Y-102824000D01*
G75*
G02*
X98700000Y-102974000I0J-150000D01*
G01*
G37*
G36*
G01*
X98700000Y-104244000D02*
X98700000Y-104544000D01*
G75*
G02*
X98550000Y-104694000I-150000J0D01*
G01*
X96900000Y-104694000D01*
G75*
G02*
X96750000Y-104544000I0J150000D01*
G01*
X96750000Y-104244000D01*
G75*
G02*
X96900000Y-104094000I150000J0D01*
G01*
X98550000Y-104094000D01*
G75*
G02*
X98700000Y-104244000I0J-150000D01*
G01*
G37*
G36*
G01*
X98700000Y-105514000D02*
X98700000Y-105814000D01*
G75*
G02*
X98550000Y-105964000I-150000J0D01*
G01*
X96900000Y-105964000D01*
G75*
G02*
X96750000Y-105814000I0J150000D01*
G01*
X96750000Y-105514000D01*
G75*
G02*
X96900000Y-105364000I150000J0D01*
G01*
X98550000Y-105364000D01*
G75*
G02*
X98700000Y-105514000I0J-150000D01*
G01*
G37*
G36*
G01*
X93750000Y-98529000D02*
X93750000Y-98829000D01*
G75*
G02*
X93600000Y-98979000I-150000J0D01*
G01*
X91950000Y-98979000D01*
G75*
G02*
X91800000Y-98829000I0J150000D01*
G01*
X91800000Y-98529000D01*
G75*
G02*
X91950000Y-98379000I150000J0D01*
G01*
X93600000Y-98379000D01*
G75*
G02*
X93750000Y-98529000I0J-150000D01*
G01*
G37*
G36*
G01*
X93750000Y-97259000D02*
X93750000Y-97559000D01*
G75*
G02*
X93600000Y-97709000I-150000J0D01*
G01*
X91950000Y-97709000D01*
G75*
G02*
X91800000Y-97559000I0J150000D01*
G01*
X91800000Y-97259000D01*
G75*
G02*
X91950000Y-97109000I150000J0D01*
G01*
X93600000Y-97109000D01*
G75*
G02*
X93750000Y-97259000I0J-150000D01*
G01*
G37*
G36*
G01*
X93750000Y-95989000D02*
X93750000Y-96289000D01*
G75*
G02*
X93600000Y-96439000I-150000J0D01*
G01*
X91950000Y-96439000D01*
G75*
G02*
X91800000Y-96289000I0J150000D01*
G01*
X91800000Y-95989000D01*
G75*
G02*
X91950000Y-95839000I150000J0D01*
G01*
X93600000Y-95839000D01*
G75*
G02*
X93750000Y-95989000I0J-150000D01*
G01*
G37*
G36*
G01*
X93750000Y-94719000D02*
X93750000Y-95019000D01*
G75*
G02*
X93600000Y-95169000I-150000J0D01*
G01*
X91950000Y-95169000D01*
G75*
G02*
X91800000Y-95019000I0J150000D01*
G01*
X91800000Y-94719000D01*
G75*
G02*
X91950000Y-94569000I150000J0D01*
G01*
X93600000Y-94569000D01*
G75*
G02*
X93750000Y-94719000I0J-150000D01*
G01*
G37*
G36*
G01*
X98700000Y-94719000D02*
X98700000Y-95019000D01*
G75*
G02*
X98550000Y-95169000I-150000J0D01*
G01*
X96900000Y-95169000D01*
G75*
G02*
X96750000Y-95019000I0J150000D01*
G01*
X96750000Y-94719000D01*
G75*
G02*
X96900000Y-94569000I150000J0D01*
G01*
X98550000Y-94569000D01*
G75*
G02*
X98700000Y-94719000I0J-150000D01*
G01*
G37*
G36*
G01*
X98700000Y-95989000D02*
X98700000Y-96289000D01*
G75*
G02*
X98550000Y-96439000I-150000J0D01*
G01*
X96900000Y-96439000D01*
G75*
G02*
X96750000Y-96289000I0J150000D01*
G01*
X96750000Y-95989000D01*
G75*
G02*
X96900000Y-95839000I150000J0D01*
G01*
X98550000Y-95839000D01*
G75*
G02*
X98700000Y-95989000I0J-150000D01*
G01*
G37*
G36*
G01*
X98700000Y-97259000D02*
X98700000Y-97559000D01*
G75*
G02*
X98550000Y-97709000I-150000J0D01*
G01*
X96900000Y-97709000D01*
G75*
G02*
X96750000Y-97559000I0J150000D01*
G01*
X96750000Y-97259000D01*
G75*
G02*
X96900000Y-97109000I150000J0D01*
G01*
X98550000Y-97109000D01*
G75*
G02*
X98700000Y-97259000I0J-150000D01*
G01*
G37*
G36*
G01*
X98700000Y-98529000D02*
X98700000Y-98829000D01*
G75*
G02*
X98550000Y-98979000I-150000J0D01*
G01*
X96900000Y-98979000D01*
G75*
G02*
X96750000Y-98829000I0J150000D01*
G01*
X96750000Y-98529000D01*
G75*
G02*
X96900000Y-98379000I150000J0D01*
G01*
X98550000Y-98379000D01*
G75*
G02*
X98700000Y-98529000I0J-150000D01*
G01*
G37*
G36*
G01*
X93685000Y-91544000D02*
X93685000Y-91844000D01*
G75*
G02*
X93535000Y-91994000I-150000J0D01*
G01*
X91885000Y-91994000D01*
G75*
G02*
X91735000Y-91844000I0J150000D01*
G01*
X91735000Y-91544000D01*
G75*
G02*
X91885000Y-91394000I150000J0D01*
G01*
X93535000Y-91394000D01*
G75*
G02*
X93685000Y-91544000I0J-150000D01*
G01*
G37*
G36*
G01*
X93685000Y-90274000D02*
X93685000Y-90574000D01*
G75*
G02*
X93535000Y-90724000I-150000J0D01*
G01*
X91885000Y-90724000D01*
G75*
G02*
X91735000Y-90574000I0J150000D01*
G01*
X91735000Y-90274000D01*
G75*
G02*
X91885000Y-90124000I150000J0D01*
G01*
X93535000Y-90124000D01*
G75*
G02*
X93685000Y-90274000I0J-150000D01*
G01*
G37*
G36*
G01*
X93685000Y-89004000D02*
X93685000Y-89304000D01*
G75*
G02*
X93535000Y-89454000I-150000J0D01*
G01*
X91885000Y-89454000D01*
G75*
G02*
X91735000Y-89304000I0J150000D01*
G01*
X91735000Y-89004000D01*
G75*
G02*
X91885000Y-88854000I150000J0D01*
G01*
X93535000Y-88854000D01*
G75*
G02*
X93685000Y-89004000I0J-150000D01*
G01*
G37*
G36*
G01*
X93685000Y-87734000D02*
X93685000Y-88034000D01*
G75*
G02*
X93535000Y-88184000I-150000J0D01*
G01*
X91885000Y-88184000D01*
G75*
G02*
X91735000Y-88034000I0J150000D01*
G01*
X91735000Y-87734000D01*
G75*
G02*
X91885000Y-87584000I150000J0D01*
G01*
X93535000Y-87584000D01*
G75*
G02*
X93685000Y-87734000I0J-150000D01*
G01*
G37*
G36*
G01*
X98635000Y-87734000D02*
X98635000Y-88034000D01*
G75*
G02*
X98485000Y-88184000I-150000J0D01*
G01*
X96835000Y-88184000D01*
G75*
G02*
X96685000Y-88034000I0J150000D01*
G01*
X96685000Y-87734000D01*
G75*
G02*
X96835000Y-87584000I150000J0D01*
G01*
X98485000Y-87584000D01*
G75*
G02*
X98635000Y-87734000I0J-150000D01*
G01*
G37*
G36*
G01*
X98635000Y-89004000D02*
X98635000Y-89304000D01*
G75*
G02*
X98485000Y-89454000I-150000J0D01*
G01*
X96835000Y-89454000D01*
G75*
G02*
X96685000Y-89304000I0J150000D01*
G01*
X96685000Y-89004000D01*
G75*
G02*
X96835000Y-88854000I150000J0D01*
G01*
X98485000Y-88854000D01*
G75*
G02*
X98635000Y-89004000I0J-150000D01*
G01*
G37*
G36*
G01*
X98635000Y-90274000D02*
X98635000Y-90574000D01*
G75*
G02*
X98485000Y-90724000I-150000J0D01*
G01*
X96835000Y-90724000D01*
G75*
G02*
X96685000Y-90574000I0J150000D01*
G01*
X96685000Y-90274000D01*
G75*
G02*
X96835000Y-90124000I150000J0D01*
G01*
X98485000Y-90124000D01*
G75*
G02*
X98635000Y-90274000I0J-150000D01*
G01*
G37*
G36*
G01*
X98635000Y-91544000D02*
X98635000Y-91844000D01*
G75*
G02*
X98485000Y-91994000I-150000J0D01*
G01*
X96835000Y-91994000D01*
G75*
G02*
X96685000Y-91844000I0J150000D01*
G01*
X96685000Y-91544000D01*
G75*
G02*
X96835000Y-91394000I150000J0D01*
G01*
X98485000Y-91394000D01*
G75*
G02*
X98635000Y-91544000I0J-150000D01*
G01*
G37*
G36*
G01*
X93750000Y-76939000D02*
X93750000Y-77239000D01*
G75*
G02*
X93600000Y-77389000I-150000J0D01*
G01*
X91950000Y-77389000D01*
G75*
G02*
X91800000Y-77239000I0J150000D01*
G01*
X91800000Y-76939000D01*
G75*
G02*
X91950000Y-76789000I150000J0D01*
G01*
X93600000Y-76789000D01*
G75*
G02*
X93750000Y-76939000I0J-150000D01*
G01*
G37*
G36*
G01*
X93750000Y-75669000D02*
X93750000Y-75969000D01*
G75*
G02*
X93600000Y-76119000I-150000J0D01*
G01*
X91950000Y-76119000D01*
G75*
G02*
X91800000Y-75969000I0J150000D01*
G01*
X91800000Y-75669000D01*
G75*
G02*
X91950000Y-75519000I150000J0D01*
G01*
X93600000Y-75519000D01*
G75*
G02*
X93750000Y-75669000I0J-150000D01*
G01*
G37*
G36*
G01*
X93750000Y-74399000D02*
X93750000Y-74699000D01*
G75*
G02*
X93600000Y-74849000I-150000J0D01*
G01*
X91950000Y-74849000D01*
G75*
G02*
X91800000Y-74699000I0J150000D01*
G01*
X91800000Y-74399000D01*
G75*
G02*
X91950000Y-74249000I150000J0D01*
G01*
X93600000Y-74249000D01*
G75*
G02*
X93750000Y-74399000I0J-150000D01*
G01*
G37*
G36*
G01*
X93750000Y-73129000D02*
X93750000Y-73429000D01*
G75*
G02*
X93600000Y-73579000I-150000J0D01*
G01*
X91950000Y-73579000D01*
G75*
G02*
X91800000Y-73429000I0J150000D01*
G01*
X91800000Y-73129000D01*
G75*
G02*
X91950000Y-72979000I150000J0D01*
G01*
X93600000Y-72979000D01*
G75*
G02*
X93750000Y-73129000I0J-150000D01*
G01*
G37*
G36*
G01*
X98700000Y-73129000D02*
X98700000Y-73429000D01*
G75*
G02*
X98550000Y-73579000I-150000J0D01*
G01*
X96900000Y-73579000D01*
G75*
G02*
X96750000Y-73429000I0J150000D01*
G01*
X96750000Y-73129000D01*
G75*
G02*
X96900000Y-72979000I150000J0D01*
G01*
X98550000Y-72979000D01*
G75*
G02*
X98700000Y-73129000I0J-150000D01*
G01*
G37*
G36*
G01*
X98700000Y-74399000D02*
X98700000Y-74699000D01*
G75*
G02*
X98550000Y-74849000I-150000J0D01*
G01*
X96900000Y-74849000D01*
G75*
G02*
X96750000Y-74699000I0J150000D01*
G01*
X96750000Y-74399000D01*
G75*
G02*
X96900000Y-74249000I150000J0D01*
G01*
X98550000Y-74249000D01*
G75*
G02*
X98700000Y-74399000I0J-150000D01*
G01*
G37*
G36*
G01*
X98700000Y-75669000D02*
X98700000Y-75969000D01*
G75*
G02*
X98550000Y-76119000I-150000J0D01*
G01*
X96900000Y-76119000D01*
G75*
G02*
X96750000Y-75969000I0J150000D01*
G01*
X96750000Y-75669000D01*
G75*
G02*
X96900000Y-75519000I150000J0D01*
G01*
X98550000Y-75519000D01*
G75*
G02*
X98700000Y-75669000I0J-150000D01*
G01*
G37*
G36*
G01*
X98700000Y-76939000D02*
X98700000Y-77239000D01*
G75*
G02*
X98550000Y-77389000I-150000J0D01*
G01*
X96900000Y-77389000D01*
G75*
G02*
X96750000Y-77239000I0J150000D01*
G01*
X96750000Y-76939000D01*
G75*
G02*
X96900000Y-76789000I150000J0D01*
G01*
X98550000Y-76789000D01*
G75*
G02*
X98700000Y-76939000I0J-150000D01*
G01*
G37*
G36*
G01*
X93750000Y-84559000D02*
X93750000Y-84859000D01*
G75*
G02*
X93600000Y-85009000I-150000J0D01*
G01*
X91950000Y-85009000D01*
G75*
G02*
X91800000Y-84859000I0J150000D01*
G01*
X91800000Y-84559000D01*
G75*
G02*
X91950000Y-84409000I150000J0D01*
G01*
X93600000Y-84409000D01*
G75*
G02*
X93750000Y-84559000I0J-150000D01*
G01*
G37*
G36*
G01*
X93750000Y-83289000D02*
X93750000Y-83589000D01*
G75*
G02*
X93600000Y-83739000I-150000J0D01*
G01*
X91950000Y-83739000D01*
G75*
G02*
X91800000Y-83589000I0J150000D01*
G01*
X91800000Y-83289000D01*
G75*
G02*
X91950000Y-83139000I150000J0D01*
G01*
X93600000Y-83139000D01*
G75*
G02*
X93750000Y-83289000I0J-150000D01*
G01*
G37*
G36*
G01*
X93750000Y-82019000D02*
X93750000Y-82319000D01*
G75*
G02*
X93600000Y-82469000I-150000J0D01*
G01*
X91950000Y-82469000D01*
G75*
G02*
X91800000Y-82319000I0J150000D01*
G01*
X91800000Y-82019000D01*
G75*
G02*
X91950000Y-81869000I150000J0D01*
G01*
X93600000Y-81869000D01*
G75*
G02*
X93750000Y-82019000I0J-150000D01*
G01*
G37*
G36*
G01*
X93750000Y-80749000D02*
X93750000Y-81049000D01*
G75*
G02*
X93600000Y-81199000I-150000J0D01*
G01*
X91950000Y-81199000D01*
G75*
G02*
X91800000Y-81049000I0J150000D01*
G01*
X91800000Y-80749000D01*
G75*
G02*
X91950000Y-80599000I150000J0D01*
G01*
X93600000Y-80599000D01*
G75*
G02*
X93750000Y-80749000I0J-150000D01*
G01*
G37*
G36*
G01*
X98700000Y-80749000D02*
X98700000Y-81049000D01*
G75*
G02*
X98550000Y-81199000I-150000J0D01*
G01*
X96900000Y-81199000D01*
G75*
G02*
X96750000Y-81049000I0J150000D01*
G01*
X96750000Y-80749000D01*
G75*
G02*
X96900000Y-80599000I150000J0D01*
G01*
X98550000Y-80599000D01*
G75*
G02*
X98700000Y-80749000I0J-150000D01*
G01*
G37*
G36*
G01*
X98700000Y-82019000D02*
X98700000Y-82319000D01*
G75*
G02*
X98550000Y-82469000I-150000J0D01*
G01*
X96900000Y-82469000D01*
G75*
G02*
X96750000Y-82319000I0J150000D01*
G01*
X96750000Y-82019000D01*
G75*
G02*
X96900000Y-81869000I150000J0D01*
G01*
X98550000Y-81869000D01*
G75*
G02*
X98700000Y-82019000I0J-150000D01*
G01*
G37*
G36*
G01*
X98700000Y-83289000D02*
X98700000Y-83589000D01*
G75*
G02*
X98550000Y-83739000I-150000J0D01*
G01*
X96900000Y-83739000D01*
G75*
G02*
X96750000Y-83589000I0J150000D01*
G01*
X96750000Y-83289000D01*
G75*
G02*
X96900000Y-83139000I150000J0D01*
G01*
X98550000Y-83139000D01*
G75*
G02*
X98700000Y-83289000I0J-150000D01*
G01*
G37*
G36*
G01*
X98700000Y-84559000D02*
X98700000Y-84859000D01*
G75*
G02*
X98550000Y-85009000I-150000J0D01*
G01*
X96900000Y-85009000D01*
G75*
G02*
X96750000Y-84859000I0J150000D01*
G01*
X96750000Y-84559000D01*
G75*
G02*
X96900000Y-84409000I150000J0D01*
G01*
X98550000Y-84409000D01*
G75*
G02*
X98700000Y-84559000I0J-150000D01*
G01*
G37*
G36*
G01*
X93685000Y-58270000D02*
X93685000Y-58570000D01*
G75*
G02*
X93535000Y-58720000I-150000J0D01*
G01*
X91885000Y-58720000D01*
G75*
G02*
X91735000Y-58570000I0J150000D01*
G01*
X91735000Y-58270000D01*
G75*
G02*
X91885000Y-58120000I150000J0D01*
G01*
X93535000Y-58120000D01*
G75*
G02*
X93685000Y-58270000I0J-150000D01*
G01*
G37*
G36*
G01*
X93685000Y-57000000D02*
X93685000Y-57300000D01*
G75*
G02*
X93535000Y-57450000I-150000J0D01*
G01*
X91885000Y-57450000D01*
G75*
G02*
X91735000Y-57300000I0J150000D01*
G01*
X91735000Y-57000000D01*
G75*
G02*
X91885000Y-56850000I150000J0D01*
G01*
X93535000Y-56850000D01*
G75*
G02*
X93685000Y-57000000I0J-150000D01*
G01*
G37*
G36*
G01*
X93685000Y-55730000D02*
X93685000Y-56030000D01*
G75*
G02*
X93535000Y-56180000I-150000J0D01*
G01*
X91885000Y-56180000D01*
G75*
G02*
X91735000Y-56030000I0J150000D01*
G01*
X91735000Y-55730000D01*
G75*
G02*
X91885000Y-55580000I150000J0D01*
G01*
X93535000Y-55580000D01*
G75*
G02*
X93685000Y-55730000I0J-150000D01*
G01*
G37*
G36*
G01*
X93685000Y-54460000D02*
X93685000Y-54760000D01*
G75*
G02*
X93535000Y-54910000I-150000J0D01*
G01*
X91885000Y-54910000D01*
G75*
G02*
X91735000Y-54760000I0J150000D01*
G01*
X91735000Y-54460000D01*
G75*
G02*
X91885000Y-54310000I150000J0D01*
G01*
X93535000Y-54310000D01*
G75*
G02*
X93685000Y-54460000I0J-150000D01*
G01*
G37*
G36*
G01*
X98635000Y-54460000D02*
X98635000Y-54760000D01*
G75*
G02*
X98485000Y-54910000I-150000J0D01*
G01*
X96835000Y-54910000D01*
G75*
G02*
X96685000Y-54760000I0J150000D01*
G01*
X96685000Y-54460000D01*
G75*
G02*
X96835000Y-54310000I150000J0D01*
G01*
X98485000Y-54310000D01*
G75*
G02*
X98635000Y-54460000I0J-150000D01*
G01*
G37*
G36*
G01*
X98635000Y-55730000D02*
X98635000Y-56030000D01*
G75*
G02*
X98485000Y-56180000I-150000J0D01*
G01*
X96835000Y-56180000D01*
G75*
G02*
X96685000Y-56030000I0J150000D01*
G01*
X96685000Y-55730000D01*
G75*
G02*
X96835000Y-55580000I150000J0D01*
G01*
X98485000Y-55580000D01*
G75*
G02*
X98635000Y-55730000I0J-150000D01*
G01*
G37*
G36*
G01*
X98635000Y-57000000D02*
X98635000Y-57300000D01*
G75*
G02*
X98485000Y-57450000I-150000J0D01*
G01*
X96835000Y-57450000D01*
G75*
G02*
X96685000Y-57300000I0J150000D01*
G01*
X96685000Y-57000000D01*
G75*
G02*
X96835000Y-56850000I150000J0D01*
G01*
X98485000Y-56850000D01*
G75*
G02*
X98635000Y-57000000I0J-150000D01*
G01*
G37*
G36*
G01*
X98635000Y-58270000D02*
X98635000Y-58570000D01*
G75*
G02*
X98485000Y-58720000I-150000J0D01*
G01*
X96835000Y-58720000D01*
G75*
G02*
X96685000Y-58570000I0J150000D01*
G01*
X96685000Y-58270000D01*
G75*
G02*
X96835000Y-58120000I150000J0D01*
G01*
X98485000Y-58120000D01*
G75*
G02*
X98635000Y-58270000I0J-150000D01*
G01*
G37*
G36*
G01*
X100642000Y-106610999D02*
X100642000Y-107511001D01*
G75*
G02*
X100392001Y-107761000I-249999J0D01*
G01*
X99741999Y-107761000D01*
G75*
G02*
X99492000Y-107511001I0J249999D01*
G01*
X99492000Y-106610999D01*
G75*
G02*
X99741999Y-106361000I249999J0D01*
G01*
X100392001Y-106361000D01*
G75*
G02*
X100642000Y-106610999I0J-249999D01*
G01*
G37*
G36*
G01*
X102692000Y-106610999D02*
X102692000Y-107511001D01*
G75*
G02*
X102442001Y-107761000I-249999J0D01*
G01*
X101791999Y-107761000D01*
G75*
G02*
X101542000Y-107511001I0J249999D01*
G01*
X101542000Y-106610999D01*
G75*
G02*
X101791999Y-106361000I249999J0D01*
G01*
X102442001Y-106361000D01*
G75*
G02*
X102692000Y-106610999I0J-249999D01*
G01*
G37*
G36*
G01*
X101542000Y-101415001D02*
X101542000Y-100514999D01*
G75*
G02*
X101791999Y-100265000I249999J0D01*
G01*
X102442001Y-100265000D01*
G75*
G02*
X102692000Y-100514999I0J-249999D01*
G01*
X102692000Y-101415001D01*
G75*
G02*
X102442001Y-101665000I-249999J0D01*
G01*
X101791999Y-101665000D01*
G75*
G02*
X101542000Y-101415001I0J249999D01*
G01*
G37*
G36*
G01*
X99492000Y-101415001D02*
X99492000Y-100514999D01*
G75*
G02*
X99741999Y-100265000I249999J0D01*
G01*
X100392001Y-100265000D01*
G75*
G02*
X100642000Y-100514999I0J-249999D01*
G01*
X100642000Y-101415001D01*
G75*
G02*
X100392001Y-101665000I-249999J0D01*
G01*
X99741999Y-101665000D01*
G75*
G02*
X99492000Y-101415001I0J249999D01*
G01*
G37*
G36*
G01*
X101551000Y-103447001D02*
X101551000Y-102546999D01*
G75*
G02*
X101800999Y-102297000I249999J0D01*
G01*
X102451001Y-102297000D01*
G75*
G02*
X102701000Y-102546999I0J-249999D01*
G01*
X102701000Y-103447001D01*
G75*
G02*
X102451001Y-103697000I-249999J0D01*
G01*
X101800999Y-103697000D01*
G75*
G02*
X101551000Y-103447001I0J249999D01*
G01*
G37*
G36*
G01*
X99501000Y-103447001D02*
X99501000Y-102546999D01*
G75*
G02*
X99750999Y-102297000I249999J0D01*
G01*
X100401001Y-102297000D01*
G75*
G02*
X100651000Y-102546999I0J-249999D01*
G01*
X100651000Y-103447001D01*
G75*
G02*
X100401001Y-103697000I-249999J0D01*
G01*
X99750999Y-103697000D01*
G75*
G02*
X99501000Y-103447001I0J249999D01*
G01*
G37*
G36*
G01*
X101551000Y-105479001D02*
X101551000Y-104578999D01*
G75*
G02*
X101800999Y-104329000I249999J0D01*
G01*
X102451001Y-104329000D01*
G75*
G02*
X102701000Y-104578999I0J-249999D01*
G01*
X102701000Y-105479001D01*
G75*
G02*
X102451001Y-105729000I-249999J0D01*
G01*
X101800999Y-105729000D01*
G75*
G02*
X101551000Y-105479001I0J249999D01*
G01*
G37*
G36*
G01*
X99501000Y-105479001D02*
X99501000Y-104578999D01*
G75*
G02*
X99750999Y-104329000I249999J0D01*
G01*
X100401001Y-104329000D01*
G75*
G02*
X100651000Y-104578999I0J-249999D01*
G01*
X100651000Y-105479001D01*
G75*
G02*
X100401001Y-105729000I-249999J0D01*
G01*
X99750999Y-105729000D01*
G75*
G02*
X99501000Y-105479001I0J249999D01*
G01*
G37*
G36*
G01*
X101533000Y-99256001D02*
X101533000Y-98355999D01*
G75*
G02*
X101782999Y-98106000I249999J0D01*
G01*
X102433001Y-98106000D01*
G75*
G02*
X102683000Y-98355999I0J-249999D01*
G01*
X102683000Y-99256001D01*
G75*
G02*
X102433001Y-99506000I-249999J0D01*
G01*
X101782999Y-99506000D01*
G75*
G02*
X101533000Y-99256001I0J249999D01*
G01*
G37*
G36*
G01*
X99483000Y-99256001D02*
X99483000Y-98355999D01*
G75*
G02*
X99732999Y-98106000I249999J0D01*
G01*
X100383001Y-98106000D01*
G75*
G02*
X100633000Y-98355999I0J-249999D01*
G01*
X100633000Y-99256001D01*
G75*
G02*
X100383001Y-99506000I-249999J0D01*
G01*
X99732999Y-99506000D01*
G75*
G02*
X99483000Y-99256001I0J249999D01*
G01*
G37*
G36*
G01*
X101566240Y-96771881D02*
X101566240Y-95871879D01*
G75*
G02*
X101816239Y-95621880I249999J0D01*
G01*
X102466241Y-95621880D01*
G75*
G02*
X102716240Y-95871879I0J-249999D01*
G01*
X102716240Y-96771881D01*
G75*
G02*
X102466241Y-97021880I-249999J0D01*
G01*
X101816239Y-97021880D01*
G75*
G02*
X101566240Y-96771881I0J249999D01*
G01*
G37*
G36*
G01*
X99516240Y-96771881D02*
X99516240Y-95871879D01*
G75*
G02*
X99766239Y-95621880I249999J0D01*
G01*
X100416241Y-95621880D01*
G75*
G02*
X100666240Y-95871879I0J-249999D01*
G01*
X100666240Y-96771881D01*
G75*
G02*
X100416241Y-97021880I-249999J0D01*
G01*
X99766239Y-97021880D01*
G75*
G02*
X99516240Y-96771881I0J249999D01*
G01*
G37*
G36*
G01*
X101548240Y-94739881D02*
X101548240Y-93839879D01*
G75*
G02*
X101798239Y-93589880I249999J0D01*
G01*
X102448241Y-93589880D01*
G75*
G02*
X102698240Y-93839879I0J-249999D01*
G01*
X102698240Y-94739881D01*
G75*
G02*
X102448241Y-94989880I-249999J0D01*
G01*
X101798239Y-94989880D01*
G75*
G02*
X101548240Y-94739881I0J249999D01*
G01*
G37*
G36*
G01*
X99498240Y-94739881D02*
X99498240Y-93839879D01*
G75*
G02*
X99748239Y-93589880I249999J0D01*
G01*
X100398241Y-93589880D01*
G75*
G02*
X100648240Y-93839879I0J-249999D01*
G01*
X100648240Y-94739881D01*
G75*
G02*
X100398241Y-94989880I-249999J0D01*
G01*
X99748239Y-94989880D01*
G75*
G02*
X99498240Y-94739881I0J249999D01*
G01*
G37*
G36*
G01*
X89849000Y-103447001D02*
X89849000Y-102546999D01*
G75*
G02*
X90098999Y-102297000I249999J0D01*
G01*
X90749001Y-102297000D01*
G75*
G02*
X90999000Y-102546999I0J-249999D01*
G01*
X90999000Y-103447001D01*
G75*
G02*
X90749001Y-103697000I-249999J0D01*
G01*
X90098999Y-103697000D01*
G75*
G02*
X89849000Y-103447001I0J249999D01*
G01*
G37*
G36*
G01*
X87799000Y-103447001D02*
X87799000Y-102546999D01*
G75*
G02*
X88048999Y-102297000I249999J0D01*
G01*
X88699001Y-102297000D01*
G75*
G02*
X88949000Y-102546999I0J-249999D01*
G01*
X88949000Y-103447001D01*
G75*
G02*
X88699001Y-103697000I-249999J0D01*
G01*
X88048999Y-103697000D01*
G75*
G02*
X87799000Y-103447001I0J249999D01*
G01*
G37*
G36*
G01*
X88958000Y-98355999D02*
X88958000Y-99256001D01*
G75*
G02*
X88708001Y-99506000I-249999J0D01*
G01*
X88057999Y-99506000D01*
G75*
G02*
X87808000Y-99256001I0J249999D01*
G01*
X87808000Y-98355999D01*
G75*
G02*
X88057999Y-98106000I249999J0D01*
G01*
X88708001Y-98106000D01*
G75*
G02*
X88958000Y-98355999I0J-249999D01*
G01*
G37*
G36*
G01*
X91008000Y-98355999D02*
X91008000Y-99256001D01*
G75*
G02*
X90758001Y-99506000I-249999J0D01*
G01*
X90107999Y-99506000D01*
G75*
G02*
X89858000Y-99256001I0J249999D01*
G01*
X89858000Y-98355999D01*
G75*
G02*
X90107999Y-98106000I249999J0D01*
G01*
X90758001Y-98106000D01*
G75*
G02*
X91008000Y-98355999I0J-249999D01*
G01*
G37*
G36*
G01*
X88949000Y-100514999D02*
X88949000Y-101415001D01*
G75*
G02*
X88699001Y-101665000I-249999J0D01*
G01*
X88048999Y-101665000D01*
G75*
G02*
X87799000Y-101415001I0J249999D01*
G01*
X87799000Y-100514999D01*
G75*
G02*
X88048999Y-100265000I249999J0D01*
G01*
X88699001Y-100265000D01*
G75*
G02*
X88949000Y-100514999I0J-249999D01*
G01*
G37*
G36*
G01*
X90999000Y-100514999D02*
X90999000Y-101415001D01*
G75*
G02*
X90749001Y-101665000I-249999J0D01*
G01*
X90098999Y-101665000D01*
G75*
G02*
X89849000Y-101415001I0J249999D01*
G01*
X89849000Y-100514999D01*
G75*
G02*
X90098999Y-100265000I249999J0D01*
G01*
X90749001Y-100265000D01*
G75*
G02*
X90999000Y-100514999I0J-249999D01*
G01*
G37*
G36*
G01*
X88967000Y-96323999D02*
X88967000Y-97224001D01*
G75*
G02*
X88717001Y-97474000I-249999J0D01*
G01*
X88066999Y-97474000D01*
G75*
G02*
X87817000Y-97224001I0J249999D01*
G01*
X87817000Y-96323999D01*
G75*
G02*
X88066999Y-96074000I249999J0D01*
G01*
X88717001Y-96074000D01*
G75*
G02*
X88967000Y-96323999I0J-249999D01*
G01*
G37*
G36*
G01*
X91017000Y-96323999D02*
X91017000Y-97224001D01*
G75*
G02*
X90767001Y-97474000I-249999J0D01*
G01*
X90116999Y-97474000D01*
G75*
G02*
X89867000Y-97224001I0J249999D01*
G01*
X89867000Y-96323999D01*
G75*
G02*
X90116999Y-96074000I249999J0D01*
G01*
X90767001Y-96074000D01*
G75*
G02*
X91017000Y-96323999I0J-249999D01*
G01*
G37*
G36*
G01*
X88967000Y-94291999D02*
X88967000Y-95192001D01*
G75*
G02*
X88717001Y-95442000I-249999J0D01*
G01*
X88066999Y-95442000D01*
G75*
G02*
X87817000Y-95192001I0J249999D01*
G01*
X87817000Y-94291999D01*
G75*
G02*
X88066999Y-94042000I249999J0D01*
G01*
X88717001Y-94042000D01*
G75*
G02*
X88967000Y-94291999I0J-249999D01*
G01*
G37*
G36*
G01*
X91017000Y-94291999D02*
X91017000Y-95192001D01*
G75*
G02*
X90767001Y-95442000I-249999J0D01*
G01*
X90116999Y-95442000D01*
G75*
G02*
X89867000Y-95192001I0J249999D01*
G01*
X89867000Y-94291999D01*
G75*
G02*
X90116999Y-94042000I249999J0D01*
G01*
X90767001Y-94042000D01*
G75*
G02*
X91017000Y-94291999I0J-249999D01*
G01*
G37*
G36*
G01*
X88967000Y-91078899D02*
X88967000Y-91978901D01*
G75*
G02*
X88717001Y-92228900I-249999J0D01*
G01*
X88066999Y-92228900D01*
G75*
G02*
X87817000Y-91978901I0J249999D01*
G01*
X87817000Y-91078899D01*
G75*
G02*
X88066999Y-90828900I249999J0D01*
G01*
X88717001Y-90828900D01*
G75*
G02*
X88967000Y-91078899I0J-249999D01*
G01*
G37*
G36*
G01*
X91017000Y-91078899D02*
X91017000Y-91978901D01*
G75*
G02*
X90767001Y-92228900I-249999J0D01*
G01*
X90116999Y-92228900D01*
G75*
G02*
X89867000Y-91978901I0J249999D01*
G01*
X89867000Y-91078899D01*
G75*
G02*
X90116999Y-90828900I249999J0D01*
G01*
X90767001Y-90828900D01*
G75*
G02*
X91017000Y-91078899I0J-249999D01*
G01*
G37*
G36*
G01*
X88949000Y-88703999D02*
X88949000Y-89604001D01*
G75*
G02*
X88699001Y-89854000I-249999J0D01*
G01*
X88048999Y-89854000D01*
G75*
G02*
X87799000Y-89604001I0J249999D01*
G01*
X87799000Y-88703999D01*
G75*
G02*
X88048999Y-88454000I249999J0D01*
G01*
X88699001Y-88454000D01*
G75*
G02*
X88949000Y-88703999I0J-249999D01*
G01*
G37*
G36*
G01*
X90999000Y-88703999D02*
X90999000Y-89604001D01*
G75*
G02*
X90749001Y-89854000I-249999J0D01*
G01*
X90098999Y-89854000D01*
G75*
G02*
X89849000Y-89604001I0J249999D01*
G01*
X89849000Y-88703999D01*
G75*
G02*
X90098999Y-88454000I249999J0D01*
G01*
X90749001Y-88454000D01*
G75*
G02*
X90999000Y-88703999I0J-249999D01*
G01*
G37*
G36*
G01*
X88967000Y-86671999D02*
X88967000Y-87572001D01*
G75*
G02*
X88717001Y-87822000I-249999J0D01*
G01*
X88066999Y-87822000D01*
G75*
G02*
X87817000Y-87572001I0J249999D01*
G01*
X87817000Y-86671999D01*
G75*
G02*
X88066999Y-86422000I249999J0D01*
G01*
X88717001Y-86422000D01*
G75*
G02*
X88967000Y-86671999I0J-249999D01*
G01*
G37*
G36*
G01*
X91017000Y-86671999D02*
X91017000Y-87572001D01*
G75*
G02*
X90767001Y-87822000I-249999J0D01*
G01*
X90116999Y-87822000D01*
G75*
G02*
X89867000Y-87572001I0J249999D01*
G01*
X89867000Y-86671999D01*
G75*
G02*
X90116999Y-86422000I249999J0D01*
G01*
X90767001Y-86422000D01*
G75*
G02*
X91017000Y-86671999I0J-249999D01*
G01*
G37*
G36*
G01*
X100633000Y-91243999D02*
X100633000Y-92144001D01*
G75*
G02*
X100383001Y-92394000I-249999J0D01*
G01*
X99732999Y-92394000D01*
G75*
G02*
X99483000Y-92144001I0J249999D01*
G01*
X99483000Y-91243999D01*
G75*
G02*
X99732999Y-90994000I249999J0D01*
G01*
X100383001Y-90994000D01*
G75*
G02*
X100633000Y-91243999I0J-249999D01*
G01*
G37*
G36*
G01*
X102683000Y-91243999D02*
X102683000Y-92144001D01*
G75*
G02*
X102433001Y-92394000I-249999J0D01*
G01*
X101782999Y-92394000D01*
G75*
G02*
X101533000Y-92144001I0J249999D01*
G01*
X101533000Y-91243999D01*
G75*
G02*
X101782999Y-90994000I249999J0D01*
G01*
X102433001Y-90994000D01*
G75*
G02*
X102683000Y-91243999I0J-249999D01*
G01*
G37*
G36*
G01*
X100620300Y-86786299D02*
X100620300Y-87686301D01*
G75*
G02*
X100370301Y-87936300I-249999J0D01*
G01*
X99720299Y-87936300D01*
G75*
G02*
X99470300Y-87686301I0J249999D01*
G01*
X99470300Y-86786299D01*
G75*
G02*
X99720299Y-86536300I249999J0D01*
G01*
X100370301Y-86536300D01*
G75*
G02*
X100620300Y-86786299I0J-249999D01*
G01*
G37*
G36*
G01*
X102670300Y-86786299D02*
X102670300Y-87686301D01*
G75*
G02*
X102420301Y-87936300I-249999J0D01*
G01*
X101770299Y-87936300D01*
G75*
G02*
X101520300Y-87686301I0J249999D01*
G01*
X101520300Y-86786299D01*
G75*
G02*
X101770299Y-86536300I249999J0D01*
G01*
X102420301Y-86536300D01*
G75*
G02*
X102670300Y-86786299I0J-249999D01*
G01*
G37*
G36*
G01*
X101551000Y-85387601D02*
X101551000Y-84487599D01*
G75*
G02*
X101800999Y-84237600I249999J0D01*
G01*
X102451001Y-84237600D01*
G75*
G02*
X102701000Y-84487599I0J-249999D01*
G01*
X102701000Y-85387601D01*
G75*
G02*
X102451001Y-85637600I-249999J0D01*
G01*
X101800999Y-85637600D01*
G75*
G02*
X101551000Y-85387601I0J249999D01*
G01*
G37*
G36*
G01*
X99501000Y-85387601D02*
X99501000Y-84487599D01*
G75*
G02*
X99750999Y-84237600I249999J0D01*
G01*
X100401001Y-84237600D01*
G75*
G02*
X100651000Y-84487599I0J-249999D01*
G01*
X100651000Y-85387601D01*
G75*
G02*
X100401001Y-85637600I-249999J0D01*
G01*
X99750999Y-85637600D01*
G75*
G02*
X99501000Y-85387601I0J249999D01*
G01*
G37*
G36*
G01*
X101551000Y-83000001D02*
X101551000Y-82099999D01*
G75*
G02*
X101800999Y-81850000I249999J0D01*
G01*
X102451001Y-81850000D01*
G75*
G02*
X102701000Y-82099999I0J-249999D01*
G01*
X102701000Y-83000001D01*
G75*
G02*
X102451001Y-83250000I-249999J0D01*
G01*
X101800999Y-83250000D01*
G75*
G02*
X101551000Y-83000001I0J249999D01*
G01*
G37*
G36*
G01*
X99501000Y-83000001D02*
X99501000Y-82099999D01*
G75*
G02*
X99750999Y-81850000I249999J0D01*
G01*
X100401001Y-81850000D01*
G75*
G02*
X100651000Y-82099999I0J-249999D01*
G01*
X100651000Y-83000001D01*
G75*
G02*
X100401001Y-83250000I-249999J0D01*
G01*
X99750999Y-83250000D01*
G75*
G02*
X99501000Y-83000001I0J249999D01*
G01*
G37*
G36*
G01*
X101542000Y-80968001D02*
X101542000Y-80067999D01*
G75*
G02*
X101791999Y-79818000I249999J0D01*
G01*
X102442001Y-79818000D01*
G75*
G02*
X102692000Y-80067999I0J-249999D01*
G01*
X102692000Y-80968001D01*
G75*
G02*
X102442001Y-81218000I-249999J0D01*
G01*
X101791999Y-81218000D01*
G75*
G02*
X101542000Y-80968001I0J249999D01*
G01*
G37*
G36*
G01*
X99492000Y-80968001D02*
X99492000Y-80067999D01*
G75*
G02*
X99741999Y-79818000I249999J0D01*
G01*
X100392001Y-79818000D01*
G75*
G02*
X100642000Y-80067999I0J-249999D01*
G01*
X100642000Y-80968001D01*
G75*
G02*
X100392001Y-81218000I-249999J0D01*
G01*
X99741999Y-81218000D01*
G75*
G02*
X99492000Y-80968001I0J249999D01*
G01*
G37*
G36*
G01*
X89849000Y-83508001D02*
X89849000Y-82607999D01*
G75*
G02*
X90098999Y-82358000I249999J0D01*
G01*
X90749001Y-82358000D01*
G75*
G02*
X90999000Y-82607999I0J-249999D01*
G01*
X90999000Y-83508001D01*
G75*
G02*
X90749001Y-83758000I-249999J0D01*
G01*
X90098999Y-83758000D01*
G75*
G02*
X89849000Y-83508001I0J249999D01*
G01*
G37*
G36*
G01*
X87799000Y-83508001D02*
X87799000Y-82607999D01*
G75*
G02*
X88048999Y-82358000I249999J0D01*
G01*
X88699001Y-82358000D01*
G75*
G02*
X88949000Y-82607999I0J-249999D01*
G01*
X88949000Y-83508001D01*
G75*
G02*
X88699001Y-83758000I-249999J0D01*
G01*
X88048999Y-83758000D01*
G75*
G02*
X87799000Y-83508001I0J249999D01*
G01*
G37*
G36*
G01*
X88949000Y-72447999D02*
X88949000Y-73348001D01*
G75*
G02*
X88699001Y-73598000I-249999J0D01*
G01*
X88048999Y-73598000D01*
G75*
G02*
X87799000Y-73348001I0J249999D01*
G01*
X87799000Y-72447999D01*
G75*
G02*
X88048999Y-72198000I249999J0D01*
G01*
X88699001Y-72198000D01*
G75*
G02*
X88949000Y-72447999I0J-249999D01*
G01*
G37*
G36*
G01*
X90999000Y-72447999D02*
X90999000Y-73348001D01*
G75*
G02*
X90749001Y-73598000I-249999J0D01*
G01*
X90098999Y-73598000D01*
G75*
G02*
X89849000Y-73348001I0J249999D01*
G01*
X89849000Y-72447999D01*
G75*
G02*
X90098999Y-72198000I249999J0D01*
G01*
X90749001Y-72198000D01*
G75*
G02*
X90999000Y-72447999I0J-249999D01*
G01*
G37*
G36*
G01*
X88949000Y-80575999D02*
X88949000Y-81476001D01*
G75*
G02*
X88699001Y-81726000I-249999J0D01*
G01*
X88048999Y-81726000D01*
G75*
G02*
X87799000Y-81476001I0J249999D01*
G01*
X87799000Y-80575999D01*
G75*
G02*
X88048999Y-80326000I249999J0D01*
G01*
X88699001Y-80326000D01*
G75*
G02*
X88949000Y-80575999I0J-249999D01*
G01*
G37*
G36*
G01*
X90999000Y-80575999D02*
X90999000Y-81476001D01*
G75*
G02*
X90749001Y-81726000I-249999J0D01*
G01*
X90098999Y-81726000D01*
G75*
G02*
X89849000Y-81476001I0J249999D01*
G01*
X89849000Y-80575999D01*
G75*
G02*
X90098999Y-80326000I249999J0D01*
G01*
X90749001Y-80326000D01*
G75*
G02*
X90999000Y-80575999I0J-249999D01*
G01*
G37*
G36*
G01*
X100651000Y-76511999D02*
X100651000Y-77412001D01*
G75*
G02*
X100401001Y-77662000I-249999J0D01*
G01*
X99750999Y-77662000D01*
G75*
G02*
X99501000Y-77412001I0J249999D01*
G01*
X99501000Y-76511999D01*
G75*
G02*
X99750999Y-76262000I249999J0D01*
G01*
X100401001Y-76262000D01*
G75*
G02*
X100651000Y-76511999I0J-249999D01*
G01*
G37*
G36*
G01*
X102701000Y-76511999D02*
X102701000Y-77412001D01*
G75*
G02*
X102451001Y-77662000I-249999J0D01*
G01*
X101800999Y-77662000D01*
G75*
G02*
X101551000Y-77412001I0J249999D01*
G01*
X101551000Y-76511999D01*
G75*
G02*
X101800999Y-76262000I249999J0D01*
G01*
X102451001Y-76262000D01*
G75*
G02*
X102701000Y-76511999I0J-249999D01*
G01*
G37*
G36*
G01*
X88949000Y-56953999D02*
X88949000Y-57854001D01*
G75*
G02*
X88699001Y-58104000I-249999J0D01*
G01*
X88048999Y-58104000D01*
G75*
G02*
X87799000Y-57854001I0J249999D01*
G01*
X87799000Y-56953999D01*
G75*
G02*
X88048999Y-56704000I249999J0D01*
G01*
X88699001Y-56704000D01*
G75*
G02*
X88949000Y-56953999I0J-249999D01*
G01*
G37*
G36*
G01*
X90999000Y-56953999D02*
X90999000Y-57854001D01*
G75*
G02*
X90749001Y-58104000I-249999J0D01*
G01*
X90098999Y-58104000D01*
G75*
G02*
X89849000Y-57854001I0J249999D01*
G01*
X89849000Y-56953999D01*
G75*
G02*
X90098999Y-56704000I249999J0D01*
G01*
X90749001Y-56704000D01*
G75*
G02*
X90999000Y-56953999I0J-249999D01*
G01*
G37*
G36*
G01*
X101551000Y-73348001D02*
X101551000Y-72447999D01*
G75*
G02*
X101800999Y-72198000I249999J0D01*
G01*
X102451001Y-72198000D01*
G75*
G02*
X102701000Y-72447999I0J-249999D01*
G01*
X102701000Y-73348001D01*
G75*
G02*
X102451001Y-73598000I-249999J0D01*
G01*
X101800999Y-73598000D01*
G75*
G02*
X101551000Y-73348001I0J249999D01*
G01*
G37*
G36*
G01*
X99501000Y-73348001D02*
X99501000Y-72447999D01*
G75*
G02*
X99750999Y-72198000I249999J0D01*
G01*
X100401001Y-72198000D01*
G75*
G02*
X100651000Y-72447999I0J-249999D01*
G01*
X100651000Y-73348001D01*
G75*
G02*
X100401001Y-73598000I-249999J0D01*
G01*
X99750999Y-73598000D01*
G75*
G02*
X99501000Y-73348001I0J249999D01*
G01*
G37*
G36*
G01*
X101551000Y-75380001D02*
X101551000Y-74479999D01*
G75*
G02*
X101800999Y-74230000I249999J0D01*
G01*
X102451001Y-74230000D01*
G75*
G02*
X102701000Y-74479999I0J-249999D01*
G01*
X102701000Y-75380001D01*
G75*
G02*
X102451001Y-75630000I-249999J0D01*
G01*
X101800999Y-75630000D01*
G75*
G02*
X101551000Y-75380001I0J249999D01*
G01*
G37*
G36*
G01*
X99501000Y-75380001D02*
X99501000Y-74479999D01*
G75*
G02*
X99750999Y-74230000I249999J0D01*
G01*
X100401001Y-74230000D01*
G75*
G02*
X100651000Y-74479999I0J-249999D01*
G01*
X100651000Y-75380001D01*
G75*
G02*
X100401001Y-75630000I-249999J0D01*
G01*
X99750999Y-75630000D01*
G75*
G02*
X99501000Y-75380001I0J249999D01*
G01*
G37*
G36*
G01*
X89867000Y-55822001D02*
X89867000Y-54921999D01*
G75*
G02*
X90116999Y-54672000I249999J0D01*
G01*
X90767001Y-54672000D01*
G75*
G02*
X91017000Y-54921999I0J-249999D01*
G01*
X91017000Y-55822001D01*
G75*
G02*
X90767001Y-56072000I-249999J0D01*
G01*
X90116999Y-56072000D01*
G75*
G02*
X89867000Y-55822001I0J249999D01*
G01*
G37*
G36*
G01*
X87817000Y-55822001D02*
X87817000Y-54921999D01*
G75*
G02*
X88066999Y-54672000I249999J0D01*
G01*
X88717001Y-54672000D01*
G75*
G02*
X88967000Y-54921999I0J-249999D01*
G01*
X88967000Y-55822001D01*
G75*
G02*
X88717001Y-56072000I-249999J0D01*
G01*
X88066999Y-56072000D01*
G75*
G02*
X87817000Y-55822001I0J249999D01*
G01*
G37*
G36*
G01*
X89849000Y-53790001D02*
X89849000Y-52889999D01*
G75*
G02*
X90098999Y-52640000I249999J0D01*
G01*
X90749001Y-52640000D01*
G75*
G02*
X90999000Y-52889999I0J-249999D01*
G01*
X90999000Y-53790001D01*
G75*
G02*
X90749001Y-54040000I-249999J0D01*
G01*
X90098999Y-54040000D01*
G75*
G02*
X89849000Y-53790001I0J249999D01*
G01*
G37*
G36*
G01*
X87799000Y-53790001D02*
X87799000Y-52889999D01*
G75*
G02*
X88048999Y-52640000I249999J0D01*
G01*
X88699001Y-52640000D01*
G75*
G02*
X88949000Y-52889999I0J-249999D01*
G01*
X88949000Y-53790001D01*
G75*
G02*
X88699001Y-54040000I-249999J0D01*
G01*
X88048999Y-54040000D01*
G75*
G02*
X87799000Y-53790001I0J249999D01*
G01*
G37*
G36*
G01*
X102886820Y-59962201D02*
X102886820Y-59062199D01*
G75*
G02*
X103136819Y-58812200I249999J0D01*
G01*
X103786821Y-58812200D01*
G75*
G02*
X104036820Y-59062199I0J-249999D01*
G01*
X104036820Y-59962201D01*
G75*
G02*
X103786821Y-60212200I-249999J0D01*
G01*
X103136819Y-60212200D01*
G75*
G02*
X102886820Y-59962201I0J249999D01*
G01*
G37*
G36*
G01*
X100836820Y-59962201D02*
X100836820Y-59062199D01*
G75*
G02*
X101086819Y-58812200I249999J0D01*
G01*
X101736821Y-58812200D01*
G75*
G02*
X101986820Y-59062199I0J-249999D01*
G01*
X101986820Y-59962201D01*
G75*
G02*
X101736821Y-60212200I-249999J0D01*
G01*
X101086819Y-60212200D01*
G75*
G02*
X100836820Y-59962201I0J249999D01*
G01*
G37*
G36*
G01*
X101542000Y-54806001D02*
X101542000Y-53905999D01*
G75*
G02*
X101791999Y-53656000I249999J0D01*
G01*
X102442001Y-53656000D01*
G75*
G02*
X102692000Y-53905999I0J-249999D01*
G01*
X102692000Y-54806001D01*
G75*
G02*
X102442001Y-55056000I-249999J0D01*
G01*
X101791999Y-55056000D01*
G75*
G02*
X101542000Y-54806001I0J249999D01*
G01*
G37*
G36*
G01*
X99492000Y-54806001D02*
X99492000Y-53905999D01*
G75*
G02*
X99741999Y-53656000I249999J0D01*
G01*
X100392001Y-53656000D01*
G75*
G02*
X100642000Y-53905999I0J-249999D01*
G01*
X100642000Y-54806001D01*
G75*
G02*
X100392001Y-55056000I-249999J0D01*
G01*
X99741999Y-55056000D01*
G75*
G02*
X99492000Y-54806001I0J249999D01*
G01*
G37*
G36*
G01*
X100651000Y-89211999D02*
X100651000Y-90112001D01*
G75*
G02*
X100401001Y-90362000I-249999J0D01*
G01*
X99750999Y-90362000D01*
G75*
G02*
X99501000Y-90112001I0J249999D01*
G01*
X99501000Y-89211999D01*
G75*
G02*
X99750999Y-88962000I249999J0D01*
G01*
X100401001Y-88962000D01*
G75*
G02*
X100651000Y-89211999I0J-249999D01*
G01*
G37*
G36*
G01*
X102701000Y-89211999D02*
X102701000Y-90112001D01*
G75*
G02*
X102451001Y-90362000I-249999J0D01*
G01*
X101800999Y-90362000D01*
G75*
G02*
X101551000Y-90112001I0J249999D01*
G01*
X101551000Y-89211999D01*
G75*
G02*
X101800999Y-88962000I249999J0D01*
G01*
X102451001Y-88962000D01*
G75*
G02*
X102701000Y-89211999I0J-249999D01*
G01*
G37*
G36*
G01*
X102886820Y-57930201D02*
X102886820Y-57030199D01*
G75*
G02*
X103136819Y-56780200I249999J0D01*
G01*
X103786821Y-56780200D01*
G75*
G02*
X104036820Y-57030199I0J-249999D01*
G01*
X104036820Y-57930201D01*
G75*
G02*
X103786821Y-58180200I-249999J0D01*
G01*
X103136819Y-58180200D01*
G75*
G02*
X102886820Y-57930201I0J249999D01*
G01*
G37*
G36*
G01*
X100836820Y-57930201D02*
X100836820Y-57030199D01*
G75*
G02*
X101086819Y-56780200I249999J0D01*
G01*
X101736821Y-56780200D01*
G75*
G02*
X101986820Y-57030199I0J-249999D01*
G01*
X101986820Y-57930201D01*
G75*
G02*
X101736821Y-58180200I-249999J0D01*
G01*
X101086819Y-58180200D01*
G75*
G02*
X100836820Y-57930201I0J249999D01*
G01*
G37*
M02*
