G04 #@! TF.GenerationSoftware,KiCad,Pcbnew,5.1.6-c6e7f7d~86~ubuntu18.04.1*
G04 #@! TF.CreationDate,2020-06-20T10:02:23-04:00*
G04 #@! TF.ProjectId,sub_osc_board,7375625f-6f73-4635-9f62-6f6172642e6b,rev?*
G04 #@! TF.SameCoordinates,Original*
G04 #@! TF.FileFunction,Soldermask,Top*
G04 #@! TF.FilePolarity,Negative*
%FSLAX46Y46*%
G04 Gerber Fmt 4.6, Leading zero omitted, Abs format (unit mm)*
G04 Created by KiCad (PCBNEW 5.1.6-c6e7f7d~86~ubuntu18.04.1) date 2020-06-20 10:02:23*
%MOMM*%
%LPD*%
G01*
G04 APERTURE LIST*
%ADD10R,2.000000X0.900000*%
%ADD11R,0.900000X2.000000*%
%ADD12O,1.800000X1.800000*%
%ADD13R,1.800000X1.800000*%
%ADD14C,0.900000*%
%ADD15C,6.500000*%
%ADD16C,1.540000*%
G04 APERTURE END LIST*
G36*
G01*
X88999000Y-74451738D02*
X88999000Y-75408262D01*
G75*
G02*
X88727262Y-75680000I-271738J0D01*
G01*
X88020738Y-75680000D01*
G75*
G02*
X87749000Y-75408262I0J271738D01*
G01*
X87749000Y-74451738D01*
G75*
G02*
X88020738Y-74180000I271738J0D01*
G01*
X88727262Y-74180000D01*
G75*
G02*
X88999000Y-74451738I0J-271738D01*
G01*
G37*
G36*
G01*
X91049000Y-74451738D02*
X91049000Y-75408262D01*
G75*
G02*
X90777262Y-75680000I-271738J0D01*
G01*
X90070738Y-75680000D01*
G75*
G02*
X89799000Y-75408262I0J271738D01*
G01*
X89799000Y-74451738D01*
G75*
G02*
X90070738Y-74180000I271738J0D01*
G01*
X90777262Y-74180000D01*
G75*
G02*
X91049000Y-74451738I0J-271738D01*
G01*
G37*
G36*
G01*
X89008000Y-76483738D02*
X89008000Y-77440262D01*
G75*
G02*
X88736262Y-77712000I-271738J0D01*
G01*
X88029738Y-77712000D01*
G75*
G02*
X87758000Y-77440262I0J271738D01*
G01*
X87758000Y-76483738D01*
G75*
G02*
X88029738Y-76212000I271738J0D01*
G01*
X88736262Y-76212000D01*
G75*
G02*
X89008000Y-76483738I0J-271738D01*
G01*
G37*
G36*
G01*
X91058000Y-76483738D02*
X91058000Y-77440262D01*
G75*
G02*
X90786262Y-77712000I-271738J0D01*
G01*
X90079738Y-77712000D01*
G75*
G02*
X89808000Y-77440262I0J271738D01*
G01*
X89808000Y-76483738D01*
G75*
G02*
X90079738Y-76212000I271738J0D01*
G01*
X90786262Y-76212000D01*
G75*
G02*
X91058000Y-76483738I0J-271738D01*
G01*
G37*
D10*
X83137000Y-62854800D03*
X80137000Y-63804800D03*
X80137000Y-61904800D03*
X82384900Y-86702900D03*
X79384900Y-87652900D03*
X79384900Y-85752900D03*
D11*
X108028700Y-81772500D03*
X108978700Y-84772500D03*
X107078700Y-84772500D03*
X108155700Y-94713800D03*
X109105700Y-97713800D03*
X107205700Y-97713800D03*
D12*
X80010000Y-118745000D03*
X80010000Y-116205000D03*
D13*
X80010000Y-113665000D03*
G36*
G01*
X93800000Y-112220000D02*
X93800000Y-112570000D01*
G75*
G02*
X93625000Y-112745000I-175000J0D01*
G01*
X91925000Y-112745000D01*
G75*
G02*
X91750000Y-112570000I0J175000D01*
G01*
X91750000Y-112220000D01*
G75*
G02*
X91925000Y-112045000I175000J0D01*
G01*
X93625000Y-112045000D01*
G75*
G02*
X93800000Y-112220000I0J-175000D01*
G01*
G37*
G36*
G01*
X93800000Y-110950000D02*
X93800000Y-111300000D01*
G75*
G02*
X93625000Y-111475000I-175000J0D01*
G01*
X91925000Y-111475000D01*
G75*
G02*
X91750000Y-111300000I0J175000D01*
G01*
X91750000Y-110950000D01*
G75*
G02*
X91925000Y-110775000I175000J0D01*
G01*
X93625000Y-110775000D01*
G75*
G02*
X93800000Y-110950000I0J-175000D01*
G01*
G37*
G36*
G01*
X93800000Y-109680000D02*
X93800000Y-110030000D01*
G75*
G02*
X93625000Y-110205000I-175000J0D01*
G01*
X91925000Y-110205000D01*
G75*
G02*
X91750000Y-110030000I0J175000D01*
G01*
X91750000Y-109680000D01*
G75*
G02*
X91925000Y-109505000I175000J0D01*
G01*
X93625000Y-109505000D01*
G75*
G02*
X93800000Y-109680000I0J-175000D01*
G01*
G37*
G36*
G01*
X93800000Y-108410000D02*
X93800000Y-108760000D01*
G75*
G02*
X93625000Y-108935000I-175000J0D01*
G01*
X91925000Y-108935000D01*
G75*
G02*
X91750000Y-108760000I0J175000D01*
G01*
X91750000Y-108410000D01*
G75*
G02*
X91925000Y-108235000I175000J0D01*
G01*
X93625000Y-108235000D01*
G75*
G02*
X93800000Y-108410000I0J-175000D01*
G01*
G37*
G36*
G01*
X98750000Y-108410000D02*
X98750000Y-108760000D01*
G75*
G02*
X98575000Y-108935000I-175000J0D01*
G01*
X96875000Y-108935000D01*
G75*
G02*
X96700000Y-108760000I0J175000D01*
G01*
X96700000Y-108410000D01*
G75*
G02*
X96875000Y-108235000I175000J0D01*
G01*
X98575000Y-108235000D01*
G75*
G02*
X98750000Y-108410000I0J-175000D01*
G01*
G37*
G36*
G01*
X98750000Y-109680000D02*
X98750000Y-110030000D01*
G75*
G02*
X98575000Y-110205000I-175000J0D01*
G01*
X96875000Y-110205000D01*
G75*
G02*
X96700000Y-110030000I0J175000D01*
G01*
X96700000Y-109680000D01*
G75*
G02*
X96875000Y-109505000I175000J0D01*
G01*
X98575000Y-109505000D01*
G75*
G02*
X98750000Y-109680000I0J-175000D01*
G01*
G37*
G36*
G01*
X98750000Y-110950000D02*
X98750000Y-111300000D01*
G75*
G02*
X98575000Y-111475000I-175000J0D01*
G01*
X96875000Y-111475000D01*
G75*
G02*
X96700000Y-111300000I0J175000D01*
G01*
X96700000Y-110950000D01*
G75*
G02*
X96875000Y-110775000I175000J0D01*
G01*
X98575000Y-110775000D01*
G75*
G02*
X98750000Y-110950000I0J-175000D01*
G01*
G37*
G36*
G01*
X98750000Y-112220000D02*
X98750000Y-112570000D01*
G75*
G02*
X98575000Y-112745000I-175000J0D01*
G01*
X96875000Y-112745000D01*
G75*
G02*
X96700000Y-112570000I0J175000D01*
G01*
X96700000Y-112220000D01*
G75*
G02*
X96875000Y-112045000I175000J0D01*
G01*
X98575000Y-112045000D01*
G75*
G02*
X98750000Y-112220000I0J-175000D01*
G01*
G37*
G36*
G01*
X93800000Y-118951000D02*
X93800000Y-119301000D01*
G75*
G02*
X93625000Y-119476000I-175000J0D01*
G01*
X91925000Y-119476000D01*
G75*
G02*
X91750000Y-119301000I0J175000D01*
G01*
X91750000Y-118951000D01*
G75*
G02*
X91925000Y-118776000I175000J0D01*
G01*
X93625000Y-118776000D01*
G75*
G02*
X93800000Y-118951000I0J-175000D01*
G01*
G37*
G36*
G01*
X93800000Y-117681000D02*
X93800000Y-118031000D01*
G75*
G02*
X93625000Y-118206000I-175000J0D01*
G01*
X91925000Y-118206000D01*
G75*
G02*
X91750000Y-118031000I0J175000D01*
G01*
X91750000Y-117681000D01*
G75*
G02*
X91925000Y-117506000I175000J0D01*
G01*
X93625000Y-117506000D01*
G75*
G02*
X93800000Y-117681000I0J-175000D01*
G01*
G37*
G36*
G01*
X93800000Y-116411000D02*
X93800000Y-116761000D01*
G75*
G02*
X93625000Y-116936000I-175000J0D01*
G01*
X91925000Y-116936000D01*
G75*
G02*
X91750000Y-116761000I0J175000D01*
G01*
X91750000Y-116411000D01*
G75*
G02*
X91925000Y-116236000I175000J0D01*
G01*
X93625000Y-116236000D01*
G75*
G02*
X93800000Y-116411000I0J-175000D01*
G01*
G37*
G36*
G01*
X93800000Y-115141000D02*
X93800000Y-115491000D01*
G75*
G02*
X93625000Y-115666000I-175000J0D01*
G01*
X91925000Y-115666000D01*
G75*
G02*
X91750000Y-115491000I0J175000D01*
G01*
X91750000Y-115141000D01*
G75*
G02*
X91925000Y-114966000I175000J0D01*
G01*
X93625000Y-114966000D01*
G75*
G02*
X93800000Y-115141000I0J-175000D01*
G01*
G37*
G36*
G01*
X98750000Y-115141000D02*
X98750000Y-115491000D01*
G75*
G02*
X98575000Y-115666000I-175000J0D01*
G01*
X96875000Y-115666000D01*
G75*
G02*
X96700000Y-115491000I0J175000D01*
G01*
X96700000Y-115141000D01*
G75*
G02*
X96875000Y-114966000I175000J0D01*
G01*
X98575000Y-114966000D01*
G75*
G02*
X98750000Y-115141000I0J-175000D01*
G01*
G37*
G36*
G01*
X98750000Y-116411000D02*
X98750000Y-116761000D01*
G75*
G02*
X98575000Y-116936000I-175000J0D01*
G01*
X96875000Y-116936000D01*
G75*
G02*
X96700000Y-116761000I0J175000D01*
G01*
X96700000Y-116411000D01*
G75*
G02*
X96875000Y-116236000I175000J0D01*
G01*
X98575000Y-116236000D01*
G75*
G02*
X98750000Y-116411000I0J-175000D01*
G01*
G37*
G36*
G01*
X98750000Y-117681000D02*
X98750000Y-118031000D01*
G75*
G02*
X98575000Y-118206000I-175000J0D01*
G01*
X96875000Y-118206000D01*
G75*
G02*
X96700000Y-118031000I0J175000D01*
G01*
X96700000Y-117681000D01*
G75*
G02*
X96875000Y-117506000I175000J0D01*
G01*
X98575000Y-117506000D01*
G75*
G02*
X98750000Y-117681000I0J-175000D01*
G01*
G37*
G36*
G01*
X98750000Y-118951000D02*
X98750000Y-119301000D01*
G75*
G02*
X98575000Y-119476000I-175000J0D01*
G01*
X96875000Y-119476000D01*
G75*
G02*
X96700000Y-119301000I0J175000D01*
G01*
X96700000Y-118951000D01*
G75*
G02*
X96875000Y-118776000I175000J0D01*
G01*
X98575000Y-118776000D01*
G75*
G02*
X98750000Y-118951000I0J-175000D01*
G01*
G37*
G36*
G01*
X98141262Y-122672000D02*
X97184738Y-122672000D01*
G75*
G02*
X96913000Y-122400262I0J271738D01*
G01*
X96913000Y-121693738D01*
G75*
G02*
X97184738Y-121422000I271738J0D01*
G01*
X98141262Y-121422000D01*
G75*
G02*
X98413000Y-121693738I0J-271738D01*
G01*
X98413000Y-122400262D01*
G75*
G02*
X98141262Y-122672000I-271738J0D01*
G01*
G37*
G36*
G01*
X98141262Y-124722000D02*
X97184738Y-124722000D01*
G75*
G02*
X96913000Y-124450262I0J271738D01*
G01*
X96913000Y-123743738D01*
G75*
G02*
X97184738Y-123472000I271738J0D01*
G01*
X98141262Y-123472000D01*
G75*
G02*
X98413000Y-123743738I0J-271738D01*
G01*
X98413000Y-124450262D01*
G75*
G02*
X98141262Y-124722000I-271738J0D01*
G01*
G37*
G36*
G01*
X93188262Y-122672000D02*
X92231738Y-122672000D01*
G75*
G02*
X91960000Y-122400262I0J271738D01*
G01*
X91960000Y-121693738D01*
G75*
G02*
X92231738Y-121422000I271738J0D01*
G01*
X93188262Y-121422000D01*
G75*
G02*
X93460000Y-121693738I0J-271738D01*
G01*
X93460000Y-122400262D01*
G75*
G02*
X93188262Y-122672000I-271738J0D01*
G01*
G37*
G36*
G01*
X93188262Y-124722000D02*
X92231738Y-124722000D01*
G75*
G02*
X91960000Y-124450262I0J271738D01*
G01*
X91960000Y-123743738D01*
G75*
G02*
X92231738Y-123472000I271738J0D01*
G01*
X93188262Y-123472000D01*
G75*
G02*
X93460000Y-123743738I0J-271738D01*
G01*
X93460000Y-124450262D01*
G75*
G02*
X93188262Y-124722000I-271738J0D01*
G01*
G37*
G36*
G01*
X89505262Y-122654000D02*
X88548738Y-122654000D01*
G75*
G02*
X88277000Y-122382262I0J271738D01*
G01*
X88277000Y-121675738D01*
G75*
G02*
X88548738Y-121404000I271738J0D01*
G01*
X89505262Y-121404000D01*
G75*
G02*
X89777000Y-121675738I0J-271738D01*
G01*
X89777000Y-122382262D01*
G75*
G02*
X89505262Y-122654000I-271738J0D01*
G01*
G37*
G36*
G01*
X89505262Y-124704000D02*
X88548738Y-124704000D01*
G75*
G02*
X88277000Y-124432262I0J271738D01*
G01*
X88277000Y-123725738D01*
G75*
G02*
X88548738Y-123454000I271738J0D01*
G01*
X89505262Y-123454000D01*
G75*
G02*
X89777000Y-123725738I0J-271738D01*
G01*
X89777000Y-124432262D01*
G75*
G02*
X89505262Y-124704000I-271738J0D01*
G01*
G37*
G36*
G01*
X101501000Y-109952262D02*
X101501000Y-108995738D01*
G75*
G02*
X101772738Y-108724000I271738J0D01*
G01*
X102479262Y-108724000D01*
G75*
G02*
X102751000Y-108995738I0J-271738D01*
G01*
X102751000Y-109952262D01*
G75*
G02*
X102479262Y-110224000I-271738J0D01*
G01*
X101772738Y-110224000D01*
G75*
G02*
X101501000Y-109952262I0J271738D01*
G01*
G37*
G36*
G01*
X99451000Y-109952262D02*
X99451000Y-108995738D01*
G75*
G02*
X99722738Y-108724000I271738J0D01*
G01*
X100429262Y-108724000D01*
G75*
G02*
X100701000Y-108995738I0J-271738D01*
G01*
X100701000Y-109952262D01*
G75*
G02*
X100429262Y-110224000I-271738J0D01*
G01*
X99722738Y-110224000D01*
G75*
G02*
X99451000Y-109952262I0J271738D01*
G01*
G37*
G36*
G01*
X88694200Y-115599738D02*
X88694200Y-116556262D01*
G75*
G02*
X88422462Y-116828000I-271738J0D01*
G01*
X87715938Y-116828000D01*
G75*
G02*
X87444200Y-116556262I0J271738D01*
G01*
X87444200Y-115599738D01*
G75*
G02*
X87715938Y-115328000I271738J0D01*
G01*
X88422462Y-115328000D01*
G75*
G02*
X88694200Y-115599738I0J-271738D01*
G01*
G37*
G36*
G01*
X90744200Y-115599738D02*
X90744200Y-116556262D01*
G75*
G02*
X90472462Y-116828000I-271738J0D01*
G01*
X89765938Y-116828000D01*
G75*
G02*
X89494200Y-116556262I0J271738D01*
G01*
X89494200Y-115599738D01*
G75*
G02*
X89765938Y-115328000I271738J0D01*
G01*
X90472462Y-115328000D01*
G75*
G02*
X90744200Y-115599738I0J-271738D01*
G01*
G37*
G36*
G01*
X101501000Y-116556262D02*
X101501000Y-115599738D01*
G75*
G02*
X101772738Y-115328000I271738J0D01*
G01*
X102479262Y-115328000D01*
G75*
G02*
X102751000Y-115599738I0J-271738D01*
G01*
X102751000Y-116556262D01*
G75*
G02*
X102479262Y-116828000I-271738J0D01*
G01*
X101772738Y-116828000D01*
G75*
G02*
X101501000Y-116556262I0J271738D01*
G01*
G37*
G36*
G01*
X99451000Y-116556262D02*
X99451000Y-115599738D01*
G75*
G02*
X99722738Y-115328000I271738J0D01*
G01*
X100429262Y-115328000D01*
G75*
G02*
X100701000Y-115599738I0J-271738D01*
G01*
X100701000Y-116556262D01*
G75*
G02*
X100429262Y-116828000I-271738J0D01*
G01*
X99722738Y-116828000D01*
G75*
G02*
X99451000Y-116556262I0J271738D01*
G01*
G37*
G36*
G01*
X101501000Y-112238262D02*
X101501000Y-111281738D01*
G75*
G02*
X101772738Y-111010000I271738J0D01*
G01*
X102479262Y-111010000D01*
G75*
G02*
X102751000Y-111281738I0J-271738D01*
G01*
X102751000Y-112238262D01*
G75*
G02*
X102479262Y-112510000I-271738J0D01*
G01*
X101772738Y-112510000D01*
G75*
G02*
X101501000Y-112238262I0J271738D01*
G01*
G37*
G36*
G01*
X99451000Y-112238262D02*
X99451000Y-111281738D01*
G75*
G02*
X99722738Y-111010000I271738J0D01*
G01*
X100429262Y-111010000D01*
G75*
G02*
X100701000Y-111281738I0J-271738D01*
G01*
X100701000Y-112238262D01*
G75*
G02*
X100429262Y-112510000I-271738J0D01*
G01*
X99722738Y-112510000D01*
G75*
G02*
X99451000Y-112238262I0J271738D01*
G01*
G37*
G36*
G01*
X101443262Y-122663000D02*
X100486738Y-122663000D01*
G75*
G02*
X100215000Y-122391262I0J271738D01*
G01*
X100215000Y-121684738D01*
G75*
G02*
X100486738Y-121413000I271738J0D01*
G01*
X101443262Y-121413000D01*
G75*
G02*
X101715000Y-121684738I0J-271738D01*
G01*
X101715000Y-122391262D01*
G75*
G02*
X101443262Y-122663000I-271738J0D01*
G01*
G37*
G36*
G01*
X101443262Y-124713000D02*
X100486738Y-124713000D01*
G75*
G02*
X100215000Y-124441262I0J271738D01*
G01*
X100215000Y-123734738D01*
G75*
G02*
X100486738Y-123463000I271738J0D01*
G01*
X101443262Y-123463000D01*
G75*
G02*
X101715000Y-123734738I0J-271738D01*
G01*
X101715000Y-124441262D01*
G75*
G02*
X101443262Y-124713000I-271738J0D01*
G01*
G37*
G36*
G01*
X88694200Y-118012738D02*
X88694200Y-118969262D01*
G75*
G02*
X88422462Y-119241000I-271738J0D01*
G01*
X87715938Y-119241000D01*
G75*
G02*
X87444200Y-118969262I0J271738D01*
G01*
X87444200Y-118012738D01*
G75*
G02*
X87715938Y-117741000I271738J0D01*
G01*
X88422462Y-117741000D01*
G75*
G02*
X88694200Y-118012738I0J-271738D01*
G01*
G37*
G36*
G01*
X90744200Y-118012738D02*
X90744200Y-118969262D01*
G75*
G02*
X90472462Y-119241000I-271738J0D01*
G01*
X89765938Y-119241000D01*
G75*
G02*
X89494200Y-118969262I0J271738D01*
G01*
X89494200Y-118012738D01*
G75*
G02*
X89765938Y-117741000I271738J0D01*
G01*
X90472462Y-117741000D01*
G75*
G02*
X90744200Y-118012738I0J-271738D01*
G01*
G37*
G36*
G01*
X100701000Y-118139738D02*
X100701000Y-119096262D01*
G75*
G02*
X100429262Y-119368000I-271738J0D01*
G01*
X99722738Y-119368000D01*
G75*
G02*
X99451000Y-119096262I0J271738D01*
G01*
X99451000Y-118139738D01*
G75*
G02*
X99722738Y-117868000I271738J0D01*
G01*
X100429262Y-117868000D01*
G75*
G02*
X100701000Y-118139738I0J-271738D01*
G01*
G37*
G36*
G01*
X102751000Y-118139738D02*
X102751000Y-119096262D01*
G75*
G02*
X102479262Y-119368000I-271738J0D01*
G01*
X101772738Y-119368000D01*
G75*
G02*
X101501000Y-119096262I0J271738D01*
G01*
X101501000Y-118139738D01*
G75*
G02*
X101772738Y-117868000I271738J0D01*
G01*
X102479262Y-117868000D01*
G75*
G02*
X102751000Y-118139738I0J-271738D01*
G01*
G37*
D12*
X113030000Y-63500000D03*
X110490000Y-63500000D03*
X113030000Y-66040000D03*
X110490000Y-66040000D03*
X113030000Y-68580000D03*
X110490000Y-68580000D03*
X113030000Y-71120000D03*
X110490000Y-71120000D03*
X113030000Y-73660000D03*
D13*
X110490000Y-73660000D03*
D12*
X80010000Y-108585000D03*
X80010000Y-106045000D03*
D13*
X80010000Y-103505000D03*
D12*
X107950000Y-121920000D03*
X107950000Y-119380000D03*
D13*
X107950000Y-116840000D03*
D12*
X101600000Y-127000000D03*
X99060000Y-127000000D03*
X96520000Y-127000000D03*
X93980000Y-127000000D03*
D13*
X91440000Y-127000000D03*
D14*
X82977056Y-122762944D03*
X81280000Y-122060000D03*
X79582944Y-122762944D03*
X78880000Y-124460000D03*
X79582944Y-126157056D03*
X81280000Y-126860000D03*
X82977056Y-126157056D03*
X83680000Y-124460000D03*
D15*
X81280000Y-124460000D03*
D14*
X82977056Y-54182944D03*
X81280000Y-53480000D03*
X79582944Y-54182944D03*
X78880000Y-55880000D03*
X79582944Y-57577056D03*
X81280000Y-58280000D03*
X82977056Y-57577056D03*
X83680000Y-55880000D03*
D15*
X81280000Y-55880000D03*
D12*
X113030000Y-111760000D03*
X113030000Y-109220000D03*
D13*
X113030000Y-106680000D03*
D12*
X113030000Y-127000000D03*
X113030000Y-124460000D03*
X113030000Y-121920000D03*
X113030000Y-119380000D03*
D13*
X113030000Y-116840000D03*
G36*
G01*
X87870600Y-68913000D02*
X87870600Y-69263000D01*
G75*
G02*
X87695600Y-69438000I-175000J0D01*
G01*
X85995600Y-69438000D01*
G75*
G02*
X85820600Y-69263000I0J175000D01*
G01*
X85820600Y-68913000D01*
G75*
G02*
X85995600Y-68738000I175000J0D01*
G01*
X87695600Y-68738000D01*
G75*
G02*
X87870600Y-68913000I0J-175000D01*
G01*
G37*
G36*
G01*
X87870600Y-67643000D02*
X87870600Y-67993000D01*
G75*
G02*
X87695600Y-68168000I-175000J0D01*
G01*
X85995600Y-68168000D01*
G75*
G02*
X85820600Y-67993000I0J175000D01*
G01*
X85820600Y-67643000D01*
G75*
G02*
X85995600Y-67468000I175000J0D01*
G01*
X87695600Y-67468000D01*
G75*
G02*
X87870600Y-67643000I0J-175000D01*
G01*
G37*
G36*
G01*
X87870600Y-66373000D02*
X87870600Y-66723000D01*
G75*
G02*
X87695600Y-66898000I-175000J0D01*
G01*
X85995600Y-66898000D01*
G75*
G02*
X85820600Y-66723000I0J175000D01*
G01*
X85820600Y-66373000D01*
G75*
G02*
X85995600Y-66198000I175000J0D01*
G01*
X87695600Y-66198000D01*
G75*
G02*
X87870600Y-66373000I0J-175000D01*
G01*
G37*
G36*
G01*
X87870600Y-65103000D02*
X87870600Y-65453000D01*
G75*
G02*
X87695600Y-65628000I-175000J0D01*
G01*
X85995600Y-65628000D01*
G75*
G02*
X85820600Y-65453000I0J175000D01*
G01*
X85820600Y-65103000D01*
G75*
G02*
X85995600Y-64928000I175000J0D01*
G01*
X87695600Y-64928000D01*
G75*
G02*
X87870600Y-65103000I0J-175000D01*
G01*
G37*
G36*
G01*
X87870600Y-63833000D02*
X87870600Y-64183000D01*
G75*
G02*
X87695600Y-64358000I-175000J0D01*
G01*
X85995600Y-64358000D01*
G75*
G02*
X85820600Y-64183000I0J175000D01*
G01*
X85820600Y-63833000D01*
G75*
G02*
X85995600Y-63658000I175000J0D01*
G01*
X87695600Y-63658000D01*
G75*
G02*
X87870600Y-63833000I0J-175000D01*
G01*
G37*
G36*
G01*
X87870600Y-62563000D02*
X87870600Y-62913000D01*
G75*
G02*
X87695600Y-63088000I-175000J0D01*
G01*
X85995600Y-63088000D01*
G75*
G02*
X85820600Y-62913000I0J175000D01*
G01*
X85820600Y-62563000D01*
G75*
G02*
X85995600Y-62388000I175000J0D01*
G01*
X87695600Y-62388000D01*
G75*
G02*
X87870600Y-62563000I0J-175000D01*
G01*
G37*
G36*
G01*
X87870600Y-61293000D02*
X87870600Y-61643000D01*
G75*
G02*
X87695600Y-61818000I-175000J0D01*
G01*
X85995600Y-61818000D01*
G75*
G02*
X85820600Y-61643000I0J175000D01*
G01*
X85820600Y-61293000D01*
G75*
G02*
X85995600Y-61118000I175000J0D01*
G01*
X87695600Y-61118000D01*
G75*
G02*
X87870600Y-61293000I0J-175000D01*
G01*
G37*
G36*
G01*
X92820600Y-61293000D02*
X92820600Y-61643000D01*
G75*
G02*
X92645600Y-61818000I-175000J0D01*
G01*
X90945600Y-61818000D01*
G75*
G02*
X90770600Y-61643000I0J175000D01*
G01*
X90770600Y-61293000D01*
G75*
G02*
X90945600Y-61118000I175000J0D01*
G01*
X92645600Y-61118000D01*
G75*
G02*
X92820600Y-61293000I0J-175000D01*
G01*
G37*
G36*
G01*
X92820600Y-62563000D02*
X92820600Y-62913000D01*
G75*
G02*
X92645600Y-63088000I-175000J0D01*
G01*
X90945600Y-63088000D01*
G75*
G02*
X90770600Y-62913000I0J175000D01*
G01*
X90770600Y-62563000D01*
G75*
G02*
X90945600Y-62388000I175000J0D01*
G01*
X92645600Y-62388000D01*
G75*
G02*
X92820600Y-62563000I0J-175000D01*
G01*
G37*
G36*
G01*
X92820600Y-63833000D02*
X92820600Y-64183000D01*
G75*
G02*
X92645600Y-64358000I-175000J0D01*
G01*
X90945600Y-64358000D01*
G75*
G02*
X90770600Y-64183000I0J175000D01*
G01*
X90770600Y-63833000D01*
G75*
G02*
X90945600Y-63658000I175000J0D01*
G01*
X92645600Y-63658000D01*
G75*
G02*
X92820600Y-63833000I0J-175000D01*
G01*
G37*
G36*
G01*
X92820600Y-65103000D02*
X92820600Y-65453000D01*
G75*
G02*
X92645600Y-65628000I-175000J0D01*
G01*
X90945600Y-65628000D01*
G75*
G02*
X90770600Y-65453000I0J175000D01*
G01*
X90770600Y-65103000D01*
G75*
G02*
X90945600Y-64928000I175000J0D01*
G01*
X92645600Y-64928000D01*
G75*
G02*
X92820600Y-65103000I0J-175000D01*
G01*
G37*
G36*
G01*
X92820600Y-66373000D02*
X92820600Y-66723000D01*
G75*
G02*
X92645600Y-66898000I-175000J0D01*
G01*
X90945600Y-66898000D01*
G75*
G02*
X90770600Y-66723000I0J175000D01*
G01*
X90770600Y-66373000D01*
G75*
G02*
X90945600Y-66198000I175000J0D01*
G01*
X92645600Y-66198000D01*
G75*
G02*
X92820600Y-66373000I0J-175000D01*
G01*
G37*
G36*
G01*
X92820600Y-67643000D02*
X92820600Y-67993000D01*
G75*
G02*
X92645600Y-68168000I-175000J0D01*
G01*
X90945600Y-68168000D01*
G75*
G02*
X90770600Y-67993000I0J175000D01*
G01*
X90770600Y-67643000D01*
G75*
G02*
X90945600Y-67468000I175000J0D01*
G01*
X92645600Y-67468000D01*
G75*
G02*
X92820600Y-67643000I0J-175000D01*
G01*
G37*
G36*
G01*
X92820600Y-68913000D02*
X92820600Y-69263000D01*
G75*
G02*
X92645600Y-69438000I-175000J0D01*
G01*
X90945600Y-69438000D01*
G75*
G02*
X90770600Y-69263000I0J175000D01*
G01*
X90770600Y-68913000D01*
G75*
G02*
X90945600Y-68738000I175000J0D01*
G01*
X92645600Y-68738000D01*
G75*
G02*
X92820600Y-68913000I0J-175000D01*
G01*
G37*
G36*
G01*
X100977000Y-68913000D02*
X100977000Y-69263000D01*
G75*
G02*
X100802000Y-69438000I-175000J0D01*
G01*
X99102000Y-69438000D01*
G75*
G02*
X98927000Y-69263000I0J175000D01*
G01*
X98927000Y-68913000D01*
G75*
G02*
X99102000Y-68738000I175000J0D01*
G01*
X100802000Y-68738000D01*
G75*
G02*
X100977000Y-68913000I0J-175000D01*
G01*
G37*
G36*
G01*
X100977000Y-67643000D02*
X100977000Y-67993000D01*
G75*
G02*
X100802000Y-68168000I-175000J0D01*
G01*
X99102000Y-68168000D01*
G75*
G02*
X98927000Y-67993000I0J175000D01*
G01*
X98927000Y-67643000D01*
G75*
G02*
X99102000Y-67468000I175000J0D01*
G01*
X100802000Y-67468000D01*
G75*
G02*
X100977000Y-67643000I0J-175000D01*
G01*
G37*
G36*
G01*
X100977000Y-66373000D02*
X100977000Y-66723000D01*
G75*
G02*
X100802000Y-66898000I-175000J0D01*
G01*
X99102000Y-66898000D01*
G75*
G02*
X98927000Y-66723000I0J175000D01*
G01*
X98927000Y-66373000D01*
G75*
G02*
X99102000Y-66198000I175000J0D01*
G01*
X100802000Y-66198000D01*
G75*
G02*
X100977000Y-66373000I0J-175000D01*
G01*
G37*
G36*
G01*
X100977000Y-65103000D02*
X100977000Y-65453000D01*
G75*
G02*
X100802000Y-65628000I-175000J0D01*
G01*
X99102000Y-65628000D01*
G75*
G02*
X98927000Y-65453000I0J175000D01*
G01*
X98927000Y-65103000D01*
G75*
G02*
X99102000Y-64928000I175000J0D01*
G01*
X100802000Y-64928000D01*
G75*
G02*
X100977000Y-65103000I0J-175000D01*
G01*
G37*
G36*
G01*
X100977000Y-63833000D02*
X100977000Y-64183000D01*
G75*
G02*
X100802000Y-64358000I-175000J0D01*
G01*
X99102000Y-64358000D01*
G75*
G02*
X98927000Y-64183000I0J175000D01*
G01*
X98927000Y-63833000D01*
G75*
G02*
X99102000Y-63658000I175000J0D01*
G01*
X100802000Y-63658000D01*
G75*
G02*
X100977000Y-63833000I0J-175000D01*
G01*
G37*
G36*
G01*
X100977000Y-62563000D02*
X100977000Y-62913000D01*
G75*
G02*
X100802000Y-63088000I-175000J0D01*
G01*
X99102000Y-63088000D01*
G75*
G02*
X98927000Y-62913000I0J175000D01*
G01*
X98927000Y-62563000D01*
G75*
G02*
X99102000Y-62388000I175000J0D01*
G01*
X100802000Y-62388000D01*
G75*
G02*
X100977000Y-62563000I0J-175000D01*
G01*
G37*
G36*
G01*
X100977000Y-61293000D02*
X100977000Y-61643000D01*
G75*
G02*
X100802000Y-61818000I-175000J0D01*
G01*
X99102000Y-61818000D01*
G75*
G02*
X98927000Y-61643000I0J175000D01*
G01*
X98927000Y-61293000D01*
G75*
G02*
X99102000Y-61118000I175000J0D01*
G01*
X100802000Y-61118000D01*
G75*
G02*
X100977000Y-61293000I0J-175000D01*
G01*
G37*
G36*
G01*
X105927000Y-61293000D02*
X105927000Y-61643000D01*
G75*
G02*
X105752000Y-61818000I-175000J0D01*
G01*
X104052000Y-61818000D01*
G75*
G02*
X103877000Y-61643000I0J175000D01*
G01*
X103877000Y-61293000D01*
G75*
G02*
X104052000Y-61118000I175000J0D01*
G01*
X105752000Y-61118000D01*
G75*
G02*
X105927000Y-61293000I0J-175000D01*
G01*
G37*
G36*
G01*
X105927000Y-62563000D02*
X105927000Y-62913000D01*
G75*
G02*
X105752000Y-63088000I-175000J0D01*
G01*
X104052000Y-63088000D01*
G75*
G02*
X103877000Y-62913000I0J175000D01*
G01*
X103877000Y-62563000D01*
G75*
G02*
X104052000Y-62388000I175000J0D01*
G01*
X105752000Y-62388000D01*
G75*
G02*
X105927000Y-62563000I0J-175000D01*
G01*
G37*
G36*
G01*
X105927000Y-63833000D02*
X105927000Y-64183000D01*
G75*
G02*
X105752000Y-64358000I-175000J0D01*
G01*
X104052000Y-64358000D01*
G75*
G02*
X103877000Y-64183000I0J175000D01*
G01*
X103877000Y-63833000D01*
G75*
G02*
X104052000Y-63658000I175000J0D01*
G01*
X105752000Y-63658000D01*
G75*
G02*
X105927000Y-63833000I0J-175000D01*
G01*
G37*
G36*
G01*
X105927000Y-65103000D02*
X105927000Y-65453000D01*
G75*
G02*
X105752000Y-65628000I-175000J0D01*
G01*
X104052000Y-65628000D01*
G75*
G02*
X103877000Y-65453000I0J175000D01*
G01*
X103877000Y-65103000D01*
G75*
G02*
X104052000Y-64928000I175000J0D01*
G01*
X105752000Y-64928000D01*
G75*
G02*
X105927000Y-65103000I0J-175000D01*
G01*
G37*
G36*
G01*
X105927000Y-66373000D02*
X105927000Y-66723000D01*
G75*
G02*
X105752000Y-66898000I-175000J0D01*
G01*
X104052000Y-66898000D01*
G75*
G02*
X103877000Y-66723000I0J175000D01*
G01*
X103877000Y-66373000D01*
G75*
G02*
X104052000Y-66198000I175000J0D01*
G01*
X105752000Y-66198000D01*
G75*
G02*
X105927000Y-66373000I0J-175000D01*
G01*
G37*
G36*
G01*
X105927000Y-67643000D02*
X105927000Y-67993000D01*
G75*
G02*
X105752000Y-68168000I-175000J0D01*
G01*
X104052000Y-68168000D01*
G75*
G02*
X103877000Y-67993000I0J175000D01*
G01*
X103877000Y-67643000D01*
G75*
G02*
X104052000Y-67468000I175000J0D01*
G01*
X105752000Y-67468000D01*
G75*
G02*
X105927000Y-67643000I0J-175000D01*
G01*
G37*
G36*
G01*
X105927000Y-68913000D02*
X105927000Y-69263000D01*
G75*
G02*
X105752000Y-69438000I-175000J0D01*
G01*
X104052000Y-69438000D01*
G75*
G02*
X103877000Y-69263000I0J175000D01*
G01*
X103877000Y-68913000D01*
G75*
G02*
X104052000Y-68738000I175000J0D01*
G01*
X105752000Y-68738000D01*
G75*
G02*
X105927000Y-68913000I0J-175000D01*
G01*
G37*
G36*
G01*
X93800000Y-105489000D02*
X93800000Y-105839000D01*
G75*
G02*
X93625000Y-106014000I-175000J0D01*
G01*
X91925000Y-106014000D01*
G75*
G02*
X91750000Y-105839000I0J175000D01*
G01*
X91750000Y-105489000D01*
G75*
G02*
X91925000Y-105314000I175000J0D01*
G01*
X93625000Y-105314000D01*
G75*
G02*
X93800000Y-105489000I0J-175000D01*
G01*
G37*
G36*
G01*
X93800000Y-104219000D02*
X93800000Y-104569000D01*
G75*
G02*
X93625000Y-104744000I-175000J0D01*
G01*
X91925000Y-104744000D01*
G75*
G02*
X91750000Y-104569000I0J175000D01*
G01*
X91750000Y-104219000D01*
G75*
G02*
X91925000Y-104044000I175000J0D01*
G01*
X93625000Y-104044000D01*
G75*
G02*
X93800000Y-104219000I0J-175000D01*
G01*
G37*
G36*
G01*
X93800000Y-102949000D02*
X93800000Y-103299000D01*
G75*
G02*
X93625000Y-103474000I-175000J0D01*
G01*
X91925000Y-103474000D01*
G75*
G02*
X91750000Y-103299000I0J175000D01*
G01*
X91750000Y-102949000D01*
G75*
G02*
X91925000Y-102774000I175000J0D01*
G01*
X93625000Y-102774000D01*
G75*
G02*
X93800000Y-102949000I0J-175000D01*
G01*
G37*
G36*
G01*
X93800000Y-101679000D02*
X93800000Y-102029000D01*
G75*
G02*
X93625000Y-102204000I-175000J0D01*
G01*
X91925000Y-102204000D01*
G75*
G02*
X91750000Y-102029000I0J175000D01*
G01*
X91750000Y-101679000D01*
G75*
G02*
X91925000Y-101504000I175000J0D01*
G01*
X93625000Y-101504000D01*
G75*
G02*
X93800000Y-101679000I0J-175000D01*
G01*
G37*
G36*
G01*
X98750000Y-101679000D02*
X98750000Y-102029000D01*
G75*
G02*
X98575000Y-102204000I-175000J0D01*
G01*
X96875000Y-102204000D01*
G75*
G02*
X96700000Y-102029000I0J175000D01*
G01*
X96700000Y-101679000D01*
G75*
G02*
X96875000Y-101504000I175000J0D01*
G01*
X98575000Y-101504000D01*
G75*
G02*
X98750000Y-101679000I0J-175000D01*
G01*
G37*
G36*
G01*
X98750000Y-102949000D02*
X98750000Y-103299000D01*
G75*
G02*
X98575000Y-103474000I-175000J0D01*
G01*
X96875000Y-103474000D01*
G75*
G02*
X96700000Y-103299000I0J175000D01*
G01*
X96700000Y-102949000D01*
G75*
G02*
X96875000Y-102774000I175000J0D01*
G01*
X98575000Y-102774000D01*
G75*
G02*
X98750000Y-102949000I0J-175000D01*
G01*
G37*
G36*
G01*
X98750000Y-104219000D02*
X98750000Y-104569000D01*
G75*
G02*
X98575000Y-104744000I-175000J0D01*
G01*
X96875000Y-104744000D01*
G75*
G02*
X96700000Y-104569000I0J175000D01*
G01*
X96700000Y-104219000D01*
G75*
G02*
X96875000Y-104044000I175000J0D01*
G01*
X98575000Y-104044000D01*
G75*
G02*
X98750000Y-104219000I0J-175000D01*
G01*
G37*
G36*
G01*
X98750000Y-105489000D02*
X98750000Y-105839000D01*
G75*
G02*
X98575000Y-106014000I-175000J0D01*
G01*
X96875000Y-106014000D01*
G75*
G02*
X96700000Y-105839000I0J175000D01*
G01*
X96700000Y-105489000D01*
G75*
G02*
X96875000Y-105314000I175000J0D01*
G01*
X98575000Y-105314000D01*
G75*
G02*
X98750000Y-105489000I0J-175000D01*
G01*
G37*
G36*
G01*
X93800000Y-98504000D02*
X93800000Y-98854000D01*
G75*
G02*
X93625000Y-99029000I-175000J0D01*
G01*
X91925000Y-99029000D01*
G75*
G02*
X91750000Y-98854000I0J175000D01*
G01*
X91750000Y-98504000D01*
G75*
G02*
X91925000Y-98329000I175000J0D01*
G01*
X93625000Y-98329000D01*
G75*
G02*
X93800000Y-98504000I0J-175000D01*
G01*
G37*
G36*
G01*
X93800000Y-97234000D02*
X93800000Y-97584000D01*
G75*
G02*
X93625000Y-97759000I-175000J0D01*
G01*
X91925000Y-97759000D01*
G75*
G02*
X91750000Y-97584000I0J175000D01*
G01*
X91750000Y-97234000D01*
G75*
G02*
X91925000Y-97059000I175000J0D01*
G01*
X93625000Y-97059000D01*
G75*
G02*
X93800000Y-97234000I0J-175000D01*
G01*
G37*
G36*
G01*
X93800000Y-95964000D02*
X93800000Y-96314000D01*
G75*
G02*
X93625000Y-96489000I-175000J0D01*
G01*
X91925000Y-96489000D01*
G75*
G02*
X91750000Y-96314000I0J175000D01*
G01*
X91750000Y-95964000D01*
G75*
G02*
X91925000Y-95789000I175000J0D01*
G01*
X93625000Y-95789000D01*
G75*
G02*
X93800000Y-95964000I0J-175000D01*
G01*
G37*
G36*
G01*
X93800000Y-94694000D02*
X93800000Y-95044000D01*
G75*
G02*
X93625000Y-95219000I-175000J0D01*
G01*
X91925000Y-95219000D01*
G75*
G02*
X91750000Y-95044000I0J175000D01*
G01*
X91750000Y-94694000D01*
G75*
G02*
X91925000Y-94519000I175000J0D01*
G01*
X93625000Y-94519000D01*
G75*
G02*
X93800000Y-94694000I0J-175000D01*
G01*
G37*
G36*
G01*
X98750000Y-94694000D02*
X98750000Y-95044000D01*
G75*
G02*
X98575000Y-95219000I-175000J0D01*
G01*
X96875000Y-95219000D01*
G75*
G02*
X96700000Y-95044000I0J175000D01*
G01*
X96700000Y-94694000D01*
G75*
G02*
X96875000Y-94519000I175000J0D01*
G01*
X98575000Y-94519000D01*
G75*
G02*
X98750000Y-94694000I0J-175000D01*
G01*
G37*
G36*
G01*
X98750000Y-95964000D02*
X98750000Y-96314000D01*
G75*
G02*
X98575000Y-96489000I-175000J0D01*
G01*
X96875000Y-96489000D01*
G75*
G02*
X96700000Y-96314000I0J175000D01*
G01*
X96700000Y-95964000D01*
G75*
G02*
X96875000Y-95789000I175000J0D01*
G01*
X98575000Y-95789000D01*
G75*
G02*
X98750000Y-95964000I0J-175000D01*
G01*
G37*
G36*
G01*
X98750000Y-97234000D02*
X98750000Y-97584000D01*
G75*
G02*
X98575000Y-97759000I-175000J0D01*
G01*
X96875000Y-97759000D01*
G75*
G02*
X96700000Y-97584000I0J175000D01*
G01*
X96700000Y-97234000D01*
G75*
G02*
X96875000Y-97059000I175000J0D01*
G01*
X98575000Y-97059000D01*
G75*
G02*
X98750000Y-97234000I0J-175000D01*
G01*
G37*
G36*
G01*
X98750000Y-98504000D02*
X98750000Y-98854000D01*
G75*
G02*
X98575000Y-99029000I-175000J0D01*
G01*
X96875000Y-99029000D01*
G75*
G02*
X96700000Y-98854000I0J175000D01*
G01*
X96700000Y-98504000D01*
G75*
G02*
X96875000Y-98329000I175000J0D01*
G01*
X98575000Y-98329000D01*
G75*
G02*
X98750000Y-98504000I0J-175000D01*
G01*
G37*
G36*
G01*
X93735000Y-91519000D02*
X93735000Y-91869000D01*
G75*
G02*
X93560000Y-92044000I-175000J0D01*
G01*
X91860000Y-92044000D01*
G75*
G02*
X91685000Y-91869000I0J175000D01*
G01*
X91685000Y-91519000D01*
G75*
G02*
X91860000Y-91344000I175000J0D01*
G01*
X93560000Y-91344000D01*
G75*
G02*
X93735000Y-91519000I0J-175000D01*
G01*
G37*
G36*
G01*
X93735000Y-90249000D02*
X93735000Y-90599000D01*
G75*
G02*
X93560000Y-90774000I-175000J0D01*
G01*
X91860000Y-90774000D01*
G75*
G02*
X91685000Y-90599000I0J175000D01*
G01*
X91685000Y-90249000D01*
G75*
G02*
X91860000Y-90074000I175000J0D01*
G01*
X93560000Y-90074000D01*
G75*
G02*
X93735000Y-90249000I0J-175000D01*
G01*
G37*
G36*
G01*
X93735000Y-88979000D02*
X93735000Y-89329000D01*
G75*
G02*
X93560000Y-89504000I-175000J0D01*
G01*
X91860000Y-89504000D01*
G75*
G02*
X91685000Y-89329000I0J175000D01*
G01*
X91685000Y-88979000D01*
G75*
G02*
X91860000Y-88804000I175000J0D01*
G01*
X93560000Y-88804000D01*
G75*
G02*
X93735000Y-88979000I0J-175000D01*
G01*
G37*
G36*
G01*
X93735000Y-87709000D02*
X93735000Y-88059000D01*
G75*
G02*
X93560000Y-88234000I-175000J0D01*
G01*
X91860000Y-88234000D01*
G75*
G02*
X91685000Y-88059000I0J175000D01*
G01*
X91685000Y-87709000D01*
G75*
G02*
X91860000Y-87534000I175000J0D01*
G01*
X93560000Y-87534000D01*
G75*
G02*
X93735000Y-87709000I0J-175000D01*
G01*
G37*
G36*
G01*
X98685000Y-87709000D02*
X98685000Y-88059000D01*
G75*
G02*
X98510000Y-88234000I-175000J0D01*
G01*
X96810000Y-88234000D01*
G75*
G02*
X96635000Y-88059000I0J175000D01*
G01*
X96635000Y-87709000D01*
G75*
G02*
X96810000Y-87534000I175000J0D01*
G01*
X98510000Y-87534000D01*
G75*
G02*
X98685000Y-87709000I0J-175000D01*
G01*
G37*
G36*
G01*
X98685000Y-88979000D02*
X98685000Y-89329000D01*
G75*
G02*
X98510000Y-89504000I-175000J0D01*
G01*
X96810000Y-89504000D01*
G75*
G02*
X96635000Y-89329000I0J175000D01*
G01*
X96635000Y-88979000D01*
G75*
G02*
X96810000Y-88804000I175000J0D01*
G01*
X98510000Y-88804000D01*
G75*
G02*
X98685000Y-88979000I0J-175000D01*
G01*
G37*
G36*
G01*
X98685000Y-90249000D02*
X98685000Y-90599000D01*
G75*
G02*
X98510000Y-90774000I-175000J0D01*
G01*
X96810000Y-90774000D01*
G75*
G02*
X96635000Y-90599000I0J175000D01*
G01*
X96635000Y-90249000D01*
G75*
G02*
X96810000Y-90074000I175000J0D01*
G01*
X98510000Y-90074000D01*
G75*
G02*
X98685000Y-90249000I0J-175000D01*
G01*
G37*
G36*
G01*
X98685000Y-91519000D02*
X98685000Y-91869000D01*
G75*
G02*
X98510000Y-92044000I-175000J0D01*
G01*
X96810000Y-92044000D01*
G75*
G02*
X96635000Y-91869000I0J175000D01*
G01*
X96635000Y-91519000D01*
G75*
G02*
X96810000Y-91344000I175000J0D01*
G01*
X98510000Y-91344000D01*
G75*
G02*
X98685000Y-91519000I0J-175000D01*
G01*
G37*
G36*
G01*
X93800000Y-76914000D02*
X93800000Y-77264000D01*
G75*
G02*
X93625000Y-77439000I-175000J0D01*
G01*
X91925000Y-77439000D01*
G75*
G02*
X91750000Y-77264000I0J175000D01*
G01*
X91750000Y-76914000D01*
G75*
G02*
X91925000Y-76739000I175000J0D01*
G01*
X93625000Y-76739000D01*
G75*
G02*
X93800000Y-76914000I0J-175000D01*
G01*
G37*
G36*
G01*
X93800000Y-75644000D02*
X93800000Y-75994000D01*
G75*
G02*
X93625000Y-76169000I-175000J0D01*
G01*
X91925000Y-76169000D01*
G75*
G02*
X91750000Y-75994000I0J175000D01*
G01*
X91750000Y-75644000D01*
G75*
G02*
X91925000Y-75469000I175000J0D01*
G01*
X93625000Y-75469000D01*
G75*
G02*
X93800000Y-75644000I0J-175000D01*
G01*
G37*
G36*
G01*
X93800000Y-74374000D02*
X93800000Y-74724000D01*
G75*
G02*
X93625000Y-74899000I-175000J0D01*
G01*
X91925000Y-74899000D01*
G75*
G02*
X91750000Y-74724000I0J175000D01*
G01*
X91750000Y-74374000D01*
G75*
G02*
X91925000Y-74199000I175000J0D01*
G01*
X93625000Y-74199000D01*
G75*
G02*
X93800000Y-74374000I0J-175000D01*
G01*
G37*
G36*
G01*
X93800000Y-73104000D02*
X93800000Y-73454000D01*
G75*
G02*
X93625000Y-73629000I-175000J0D01*
G01*
X91925000Y-73629000D01*
G75*
G02*
X91750000Y-73454000I0J175000D01*
G01*
X91750000Y-73104000D01*
G75*
G02*
X91925000Y-72929000I175000J0D01*
G01*
X93625000Y-72929000D01*
G75*
G02*
X93800000Y-73104000I0J-175000D01*
G01*
G37*
G36*
G01*
X98750000Y-73104000D02*
X98750000Y-73454000D01*
G75*
G02*
X98575000Y-73629000I-175000J0D01*
G01*
X96875000Y-73629000D01*
G75*
G02*
X96700000Y-73454000I0J175000D01*
G01*
X96700000Y-73104000D01*
G75*
G02*
X96875000Y-72929000I175000J0D01*
G01*
X98575000Y-72929000D01*
G75*
G02*
X98750000Y-73104000I0J-175000D01*
G01*
G37*
G36*
G01*
X98750000Y-74374000D02*
X98750000Y-74724000D01*
G75*
G02*
X98575000Y-74899000I-175000J0D01*
G01*
X96875000Y-74899000D01*
G75*
G02*
X96700000Y-74724000I0J175000D01*
G01*
X96700000Y-74374000D01*
G75*
G02*
X96875000Y-74199000I175000J0D01*
G01*
X98575000Y-74199000D01*
G75*
G02*
X98750000Y-74374000I0J-175000D01*
G01*
G37*
G36*
G01*
X98750000Y-75644000D02*
X98750000Y-75994000D01*
G75*
G02*
X98575000Y-76169000I-175000J0D01*
G01*
X96875000Y-76169000D01*
G75*
G02*
X96700000Y-75994000I0J175000D01*
G01*
X96700000Y-75644000D01*
G75*
G02*
X96875000Y-75469000I175000J0D01*
G01*
X98575000Y-75469000D01*
G75*
G02*
X98750000Y-75644000I0J-175000D01*
G01*
G37*
G36*
G01*
X98750000Y-76914000D02*
X98750000Y-77264000D01*
G75*
G02*
X98575000Y-77439000I-175000J0D01*
G01*
X96875000Y-77439000D01*
G75*
G02*
X96700000Y-77264000I0J175000D01*
G01*
X96700000Y-76914000D01*
G75*
G02*
X96875000Y-76739000I175000J0D01*
G01*
X98575000Y-76739000D01*
G75*
G02*
X98750000Y-76914000I0J-175000D01*
G01*
G37*
G36*
G01*
X93800000Y-84534000D02*
X93800000Y-84884000D01*
G75*
G02*
X93625000Y-85059000I-175000J0D01*
G01*
X91925000Y-85059000D01*
G75*
G02*
X91750000Y-84884000I0J175000D01*
G01*
X91750000Y-84534000D01*
G75*
G02*
X91925000Y-84359000I175000J0D01*
G01*
X93625000Y-84359000D01*
G75*
G02*
X93800000Y-84534000I0J-175000D01*
G01*
G37*
G36*
G01*
X93800000Y-83264000D02*
X93800000Y-83614000D01*
G75*
G02*
X93625000Y-83789000I-175000J0D01*
G01*
X91925000Y-83789000D01*
G75*
G02*
X91750000Y-83614000I0J175000D01*
G01*
X91750000Y-83264000D01*
G75*
G02*
X91925000Y-83089000I175000J0D01*
G01*
X93625000Y-83089000D01*
G75*
G02*
X93800000Y-83264000I0J-175000D01*
G01*
G37*
G36*
G01*
X93800000Y-81994000D02*
X93800000Y-82344000D01*
G75*
G02*
X93625000Y-82519000I-175000J0D01*
G01*
X91925000Y-82519000D01*
G75*
G02*
X91750000Y-82344000I0J175000D01*
G01*
X91750000Y-81994000D01*
G75*
G02*
X91925000Y-81819000I175000J0D01*
G01*
X93625000Y-81819000D01*
G75*
G02*
X93800000Y-81994000I0J-175000D01*
G01*
G37*
G36*
G01*
X93800000Y-80724000D02*
X93800000Y-81074000D01*
G75*
G02*
X93625000Y-81249000I-175000J0D01*
G01*
X91925000Y-81249000D01*
G75*
G02*
X91750000Y-81074000I0J175000D01*
G01*
X91750000Y-80724000D01*
G75*
G02*
X91925000Y-80549000I175000J0D01*
G01*
X93625000Y-80549000D01*
G75*
G02*
X93800000Y-80724000I0J-175000D01*
G01*
G37*
G36*
G01*
X98750000Y-80724000D02*
X98750000Y-81074000D01*
G75*
G02*
X98575000Y-81249000I-175000J0D01*
G01*
X96875000Y-81249000D01*
G75*
G02*
X96700000Y-81074000I0J175000D01*
G01*
X96700000Y-80724000D01*
G75*
G02*
X96875000Y-80549000I175000J0D01*
G01*
X98575000Y-80549000D01*
G75*
G02*
X98750000Y-80724000I0J-175000D01*
G01*
G37*
G36*
G01*
X98750000Y-81994000D02*
X98750000Y-82344000D01*
G75*
G02*
X98575000Y-82519000I-175000J0D01*
G01*
X96875000Y-82519000D01*
G75*
G02*
X96700000Y-82344000I0J175000D01*
G01*
X96700000Y-81994000D01*
G75*
G02*
X96875000Y-81819000I175000J0D01*
G01*
X98575000Y-81819000D01*
G75*
G02*
X98750000Y-81994000I0J-175000D01*
G01*
G37*
G36*
G01*
X98750000Y-83264000D02*
X98750000Y-83614000D01*
G75*
G02*
X98575000Y-83789000I-175000J0D01*
G01*
X96875000Y-83789000D01*
G75*
G02*
X96700000Y-83614000I0J175000D01*
G01*
X96700000Y-83264000D01*
G75*
G02*
X96875000Y-83089000I175000J0D01*
G01*
X98575000Y-83089000D01*
G75*
G02*
X98750000Y-83264000I0J-175000D01*
G01*
G37*
G36*
G01*
X98750000Y-84534000D02*
X98750000Y-84884000D01*
G75*
G02*
X98575000Y-85059000I-175000J0D01*
G01*
X96875000Y-85059000D01*
G75*
G02*
X96700000Y-84884000I0J175000D01*
G01*
X96700000Y-84534000D01*
G75*
G02*
X96875000Y-84359000I175000J0D01*
G01*
X98575000Y-84359000D01*
G75*
G02*
X98750000Y-84534000I0J-175000D01*
G01*
G37*
G36*
G01*
X93735000Y-58245000D02*
X93735000Y-58595000D01*
G75*
G02*
X93560000Y-58770000I-175000J0D01*
G01*
X91860000Y-58770000D01*
G75*
G02*
X91685000Y-58595000I0J175000D01*
G01*
X91685000Y-58245000D01*
G75*
G02*
X91860000Y-58070000I175000J0D01*
G01*
X93560000Y-58070000D01*
G75*
G02*
X93735000Y-58245000I0J-175000D01*
G01*
G37*
G36*
G01*
X93735000Y-56975000D02*
X93735000Y-57325000D01*
G75*
G02*
X93560000Y-57500000I-175000J0D01*
G01*
X91860000Y-57500000D01*
G75*
G02*
X91685000Y-57325000I0J175000D01*
G01*
X91685000Y-56975000D01*
G75*
G02*
X91860000Y-56800000I175000J0D01*
G01*
X93560000Y-56800000D01*
G75*
G02*
X93735000Y-56975000I0J-175000D01*
G01*
G37*
G36*
G01*
X93735000Y-55705000D02*
X93735000Y-56055000D01*
G75*
G02*
X93560000Y-56230000I-175000J0D01*
G01*
X91860000Y-56230000D01*
G75*
G02*
X91685000Y-56055000I0J175000D01*
G01*
X91685000Y-55705000D01*
G75*
G02*
X91860000Y-55530000I175000J0D01*
G01*
X93560000Y-55530000D01*
G75*
G02*
X93735000Y-55705000I0J-175000D01*
G01*
G37*
G36*
G01*
X93735000Y-54435000D02*
X93735000Y-54785000D01*
G75*
G02*
X93560000Y-54960000I-175000J0D01*
G01*
X91860000Y-54960000D01*
G75*
G02*
X91685000Y-54785000I0J175000D01*
G01*
X91685000Y-54435000D01*
G75*
G02*
X91860000Y-54260000I175000J0D01*
G01*
X93560000Y-54260000D01*
G75*
G02*
X93735000Y-54435000I0J-175000D01*
G01*
G37*
G36*
G01*
X98685000Y-54435000D02*
X98685000Y-54785000D01*
G75*
G02*
X98510000Y-54960000I-175000J0D01*
G01*
X96810000Y-54960000D01*
G75*
G02*
X96635000Y-54785000I0J175000D01*
G01*
X96635000Y-54435000D01*
G75*
G02*
X96810000Y-54260000I175000J0D01*
G01*
X98510000Y-54260000D01*
G75*
G02*
X98685000Y-54435000I0J-175000D01*
G01*
G37*
G36*
G01*
X98685000Y-55705000D02*
X98685000Y-56055000D01*
G75*
G02*
X98510000Y-56230000I-175000J0D01*
G01*
X96810000Y-56230000D01*
G75*
G02*
X96635000Y-56055000I0J175000D01*
G01*
X96635000Y-55705000D01*
G75*
G02*
X96810000Y-55530000I175000J0D01*
G01*
X98510000Y-55530000D01*
G75*
G02*
X98685000Y-55705000I0J-175000D01*
G01*
G37*
G36*
G01*
X98685000Y-56975000D02*
X98685000Y-57325000D01*
G75*
G02*
X98510000Y-57500000I-175000J0D01*
G01*
X96810000Y-57500000D01*
G75*
G02*
X96635000Y-57325000I0J175000D01*
G01*
X96635000Y-56975000D01*
G75*
G02*
X96810000Y-56800000I175000J0D01*
G01*
X98510000Y-56800000D01*
G75*
G02*
X98685000Y-56975000I0J-175000D01*
G01*
G37*
G36*
G01*
X98685000Y-58245000D02*
X98685000Y-58595000D01*
G75*
G02*
X98510000Y-58770000I-175000J0D01*
G01*
X96810000Y-58770000D01*
G75*
G02*
X96635000Y-58595000I0J175000D01*
G01*
X96635000Y-58245000D01*
G75*
G02*
X96810000Y-58070000I175000J0D01*
G01*
X98510000Y-58070000D01*
G75*
G02*
X98685000Y-58245000I0J-175000D01*
G01*
G37*
D16*
X80645000Y-97790000D03*
X80645000Y-95250000D03*
X80645000Y-92710000D03*
X80772000Y-80645000D03*
X80772000Y-78105000D03*
X80772000Y-75565000D03*
G36*
G01*
X100692000Y-106582738D02*
X100692000Y-107539262D01*
G75*
G02*
X100420262Y-107811000I-271738J0D01*
G01*
X99713738Y-107811000D01*
G75*
G02*
X99442000Y-107539262I0J271738D01*
G01*
X99442000Y-106582738D01*
G75*
G02*
X99713738Y-106311000I271738J0D01*
G01*
X100420262Y-106311000D01*
G75*
G02*
X100692000Y-106582738I0J-271738D01*
G01*
G37*
G36*
G01*
X102742000Y-106582738D02*
X102742000Y-107539262D01*
G75*
G02*
X102470262Y-107811000I-271738J0D01*
G01*
X101763738Y-107811000D01*
G75*
G02*
X101492000Y-107539262I0J271738D01*
G01*
X101492000Y-106582738D01*
G75*
G02*
X101763738Y-106311000I271738J0D01*
G01*
X102470262Y-106311000D01*
G75*
G02*
X102742000Y-106582738I0J-271738D01*
G01*
G37*
G36*
G01*
X101492000Y-101443262D02*
X101492000Y-100486738D01*
G75*
G02*
X101763738Y-100215000I271738J0D01*
G01*
X102470262Y-100215000D01*
G75*
G02*
X102742000Y-100486738I0J-271738D01*
G01*
X102742000Y-101443262D01*
G75*
G02*
X102470262Y-101715000I-271738J0D01*
G01*
X101763738Y-101715000D01*
G75*
G02*
X101492000Y-101443262I0J271738D01*
G01*
G37*
G36*
G01*
X99442000Y-101443262D02*
X99442000Y-100486738D01*
G75*
G02*
X99713738Y-100215000I271738J0D01*
G01*
X100420262Y-100215000D01*
G75*
G02*
X100692000Y-100486738I0J-271738D01*
G01*
X100692000Y-101443262D01*
G75*
G02*
X100420262Y-101715000I-271738J0D01*
G01*
X99713738Y-101715000D01*
G75*
G02*
X99442000Y-101443262I0J271738D01*
G01*
G37*
G36*
G01*
X101501000Y-103475262D02*
X101501000Y-102518738D01*
G75*
G02*
X101772738Y-102247000I271738J0D01*
G01*
X102479262Y-102247000D01*
G75*
G02*
X102751000Y-102518738I0J-271738D01*
G01*
X102751000Y-103475262D01*
G75*
G02*
X102479262Y-103747000I-271738J0D01*
G01*
X101772738Y-103747000D01*
G75*
G02*
X101501000Y-103475262I0J271738D01*
G01*
G37*
G36*
G01*
X99451000Y-103475262D02*
X99451000Y-102518738D01*
G75*
G02*
X99722738Y-102247000I271738J0D01*
G01*
X100429262Y-102247000D01*
G75*
G02*
X100701000Y-102518738I0J-271738D01*
G01*
X100701000Y-103475262D01*
G75*
G02*
X100429262Y-103747000I-271738J0D01*
G01*
X99722738Y-103747000D01*
G75*
G02*
X99451000Y-103475262I0J271738D01*
G01*
G37*
G36*
G01*
X101501000Y-105507262D02*
X101501000Y-104550738D01*
G75*
G02*
X101772738Y-104279000I271738J0D01*
G01*
X102479262Y-104279000D01*
G75*
G02*
X102751000Y-104550738I0J-271738D01*
G01*
X102751000Y-105507262D01*
G75*
G02*
X102479262Y-105779000I-271738J0D01*
G01*
X101772738Y-105779000D01*
G75*
G02*
X101501000Y-105507262I0J271738D01*
G01*
G37*
G36*
G01*
X99451000Y-105507262D02*
X99451000Y-104550738D01*
G75*
G02*
X99722738Y-104279000I271738J0D01*
G01*
X100429262Y-104279000D01*
G75*
G02*
X100701000Y-104550738I0J-271738D01*
G01*
X100701000Y-105507262D01*
G75*
G02*
X100429262Y-105779000I-271738J0D01*
G01*
X99722738Y-105779000D01*
G75*
G02*
X99451000Y-105507262I0J271738D01*
G01*
G37*
G36*
G01*
X101483000Y-99284262D02*
X101483000Y-98327738D01*
G75*
G02*
X101754738Y-98056000I271738J0D01*
G01*
X102461262Y-98056000D01*
G75*
G02*
X102733000Y-98327738I0J-271738D01*
G01*
X102733000Y-99284262D01*
G75*
G02*
X102461262Y-99556000I-271738J0D01*
G01*
X101754738Y-99556000D01*
G75*
G02*
X101483000Y-99284262I0J271738D01*
G01*
G37*
G36*
G01*
X99433000Y-99284262D02*
X99433000Y-98327738D01*
G75*
G02*
X99704738Y-98056000I271738J0D01*
G01*
X100411262Y-98056000D01*
G75*
G02*
X100683000Y-98327738I0J-271738D01*
G01*
X100683000Y-99284262D01*
G75*
G02*
X100411262Y-99556000I-271738J0D01*
G01*
X99704738Y-99556000D01*
G75*
G02*
X99433000Y-99284262I0J271738D01*
G01*
G37*
G36*
G01*
X101516240Y-96800142D02*
X101516240Y-95843618D01*
G75*
G02*
X101787978Y-95571880I271738J0D01*
G01*
X102494502Y-95571880D01*
G75*
G02*
X102766240Y-95843618I0J-271738D01*
G01*
X102766240Y-96800142D01*
G75*
G02*
X102494502Y-97071880I-271738J0D01*
G01*
X101787978Y-97071880D01*
G75*
G02*
X101516240Y-96800142I0J271738D01*
G01*
G37*
G36*
G01*
X99466240Y-96800142D02*
X99466240Y-95843618D01*
G75*
G02*
X99737978Y-95571880I271738J0D01*
G01*
X100444502Y-95571880D01*
G75*
G02*
X100716240Y-95843618I0J-271738D01*
G01*
X100716240Y-96800142D01*
G75*
G02*
X100444502Y-97071880I-271738J0D01*
G01*
X99737978Y-97071880D01*
G75*
G02*
X99466240Y-96800142I0J271738D01*
G01*
G37*
G36*
G01*
X101498240Y-94768142D02*
X101498240Y-93811618D01*
G75*
G02*
X101769978Y-93539880I271738J0D01*
G01*
X102476502Y-93539880D01*
G75*
G02*
X102748240Y-93811618I0J-271738D01*
G01*
X102748240Y-94768142D01*
G75*
G02*
X102476502Y-95039880I-271738J0D01*
G01*
X101769978Y-95039880D01*
G75*
G02*
X101498240Y-94768142I0J271738D01*
G01*
G37*
G36*
G01*
X99448240Y-94768142D02*
X99448240Y-93811618D01*
G75*
G02*
X99719978Y-93539880I271738J0D01*
G01*
X100426502Y-93539880D01*
G75*
G02*
X100698240Y-93811618I0J-271738D01*
G01*
X100698240Y-94768142D01*
G75*
G02*
X100426502Y-95039880I-271738J0D01*
G01*
X99719978Y-95039880D01*
G75*
G02*
X99448240Y-94768142I0J271738D01*
G01*
G37*
G36*
G01*
X89799000Y-103475262D02*
X89799000Y-102518738D01*
G75*
G02*
X90070738Y-102247000I271738J0D01*
G01*
X90777262Y-102247000D01*
G75*
G02*
X91049000Y-102518738I0J-271738D01*
G01*
X91049000Y-103475262D01*
G75*
G02*
X90777262Y-103747000I-271738J0D01*
G01*
X90070738Y-103747000D01*
G75*
G02*
X89799000Y-103475262I0J271738D01*
G01*
G37*
G36*
G01*
X87749000Y-103475262D02*
X87749000Y-102518738D01*
G75*
G02*
X88020738Y-102247000I271738J0D01*
G01*
X88727262Y-102247000D01*
G75*
G02*
X88999000Y-102518738I0J-271738D01*
G01*
X88999000Y-103475262D01*
G75*
G02*
X88727262Y-103747000I-271738J0D01*
G01*
X88020738Y-103747000D01*
G75*
G02*
X87749000Y-103475262I0J271738D01*
G01*
G37*
G36*
G01*
X89008000Y-98327738D02*
X89008000Y-99284262D01*
G75*
G02*
X88736262Y-99556000I-271738J0D01*
G01*
X88029738Y-99556000D01*
G75*
G02*
X87758000Y-99284262I0J271738D01*
G01*
X87758000Y-98327738D01*
G75*
G02*
X88029738Y-98056000I271738J0D01*
G01*
X88736262Y-98056000D01*
G75*
G02*
X89008000Y-98327738I0J-271738D01*
G01*
G37*
G36*
G01*
X91058000Y-98327738D02*
X91058000Y-99284262D01*
G75*
G02*
X90786262Y-99556000I-271738J0D01*
G01*
X90079738Y-99556000D01*
G75*
G02*
X89808000Y-99284262I0J271738D01*
G01*
X89808000Y-98327738D01*
G75*
G02*
X90079738Y-98056000I271738J0D01*
G01*
X90786262Y-98056000D01*
G75*
G02*
X91058000Y-98327738I0J-271738D01*
G01*
G37*
G36*
G01*
X88999000Y-100486738D02*
X88999000Y-101443262D01*
G75*
G02*
X88727262Y-101715000I-271738J0D01*
G01*
X88020738Y-101715000D01*
G75*
G02*
X87749000Y-101443262I0J271738D01*
G01*
X87749000Y-100486738D01*
G75*
G02*
X88020738Y-100215000I271738J0D01*
G01*
X88727262Y-100215000D01*
G75*
G02*
X88999000Y-100486738I0J-271738D01*
G01*
G37*
G36*
G01*
X91049000Y-100486738D02*
X91049000Y-101443262D01*
G75*
G02*
X90777262Y-101715000I-271738J0D01*
G01*
X90070738Y-101715000D01*
G75*
G02*
X89799000Y-101443262I0J271738D01*
G01*
X89799000Y-100486738D01*
G75*
G02*
X90070738Y-100215000I271738J0D01*
G01*
X90777262Y-100215000D01*
G75*
G02*
X91049000Y-100486738I0J-271738D01*
G01*
G37*
G36*
G01*
X89017000Y-96295738D02*
X89017000Y-97252262D01*
G75*
G02*
X88745262Y-97524000I-271738J0D01*
G01*
X88038738Y-97524000D01*
G75*
G02*
X87767000Y-97252262I0J271738D01*
G01*
X87767000Y-96295738D01*
G75*
G02*
X88038738Y-96024000I271738J0D01*
G01*
X88745262Y-96024000D01*
G75*
G02*
X89017000Y-96295738I0J-271738D01*
G01*
G37*
G36*
G01*
X91067000Y-96295738D02*
X91067000Y-97252262D01*
G75*
G02*
X90795262Y-97524000I-271738J0D01*
G01*
X90088738Y-97524000D01*
G75*
G02*
X89817000Y-97252262I0J271738D01*
G01*
X89817000Y-96295738D01*
G75*
G02*
X90088738Y-96024000I271738J0D01*
G01*
X90795262Y-96024000D01*
G75*
G02*
X91067000Y-96295738I0J-271738D01*
G01*
G37*
G36*
G01*
X89017000Y-94263738D02*
X89017000Y-95220262D01*
G75*
G02*
X88745262Y-95492000I-271738J0D01*
G01*
X88038738Y-95492000D01*
G75*
G02*
X87767000Y-95220262I0J271738D01*
G01*
X87767000Y-94263738D01*
G75*
G02*
X88038738Y-93992000I271738J0D01*
G01*
X88745262Y-93992000D01*
G75*
G02*
X89017000Y-94263738I0J-271738D01*
G01*
G37*
G36*
G01*
X91067000Y-94263738D02*
X91067000Y-95220262D01*
G75*
G02*
X90795262Y-95492000I-271738J0D01*
G01*
X90088738Y-95492000D01*
G75*
G02*
X89817000Y-95220262I0J271738D01*
G01*
X89817000Y-94263738D01*
G75*
G02*
X90088738Y-93992000I271738J0D01*
G01*
X90795262Y-93992000D01*
G75*
G02*
X91067000Y-94263738I0J-271738D01*
G01*
G37*
G36*
G01*
X89017000Y-91050638D02*
X89017000Y-92007162D01*
G75*
G02*
X88745262Y-92278900I-271738J0D01*
G01*
X88038738Y-92278900D01*
G75*
G02*
X87767000Y-92007162I0J271738D01*
G01*
X87767000Y-91050638D01*
G75*
G02*
X88038738Y-90778900I271738J0D01*
G01*
X88745262Y-90778900D01*
G75*
G02*
X89017000Y-91050638I0J-271738D01*
G01*
G37*
G36*
G01*
X91067000Y-91050638D02*
X91067000Y-92007162D01*
G75*
G02*
X90795262Y-92278900I-271738J0D01*
G01*
X90088738Y-92278900D01*
G75*
G02*
X89817000Y-92007162I0J271738D01*
G01*
X89817000Y-91050638D01*
G75*
G02*
X90088738Y-90778900I271738J0D01*
G01*
X90795262Y-90778900D01*
G75*
G02*
X91067000Y-91050638I0J-271738D01*
G01*
G37*
G36*
G01*
X88999000Y-88675738D02*
X88999000Y-89632262D01*
G75*
G02*
X88727262Y-89904000I-271738J0D01*
G01*
X88020738Y-89904000D01*
G75*
G02*
X87749000Y-89632262I0J271738D01*
G01*
X87749000Y-88675738D01*
G75*
G02*
X88020738Y-88404000I271738J0D01*
G01*
X88727262Y-88404000D01*
G75*
G02*
X88999000Y-88675738I0J-271738D01*
G01*
G37*
G36*
G01*
X91049000Y-88675738D02*
X91049000Y-89632262D01*
G75*
G02*
X90777262Y-89904000I-271738J0D01*
G01*
X90070738Y-89904000D01*
G75*
G02*
X89799000Y-89632262I0J271738D01*
G01*
X89799000Y-88675738D01*
G75*
G02*
X90070738Y-88404000I271738J0D01*
G01*
X90777262Y-88404000D01*
G75*
G02*
X91049000Y-88675738I0J-271738D01*
G01*
G37*
G36*
G01*
X89017000Y-86643738D02*
X89017000Y-87600262D01*
G75*
G02*
X88745262Y-87872000I-271738J0D01*
G01*
X88038738Y-87872000D01*
G75*
G02*
X87767000Y-87600262I0J271738D01*
G01*
X87767000Y-86643738D01*
G75*
G02*
X88038738Y-86372000I271738J0D01*
G01*
X88745262Y-86372000D01*
G75*
G02*
X89017000Y-86643738I0J-271738D01*
G01*
G37*
G36*
G01*
X91067000Y-86643738D02*
X91067000Y-87600262D01*
G75*
G02*
X90795262Y-87872000I-271738J0D01*
G01*
X90088738Y-87872000D01*
G75*
G02*
X89817000Y-87600262I0J271738D01*
G01*
X89817000Y-86643738D01*
G75*
G02*
X90088738Y-86372000I271738J0D01*
G01*
X90795262Y-86372000D01*
G75*
G02*
X91067000Y-86643738I0J-271738D01*
G01*
G37*
G36*
G01*
X100683000Y-91215738D02*
X100683000Y-92172262D01*
G75*
G02*
X100411262Y-92444000I-271738J0D01*
G01*
X99704738Y-92444000D01*
G75*
G02*
X99433000Y-92172262I0J271738D01*
G01*
X99433000Y-91215738D01*
G75*
G02*
X99704738Y-90944000I271738J0D01*
G01*
X100411262Y-90944000D01*
G75*
G02*
X100683000Y-91215738I0J-271738D01*
G01*
G37*
G36*
G01*
X102733000Y-91215738D02*
X102733000Y-92172262D01*
G75*
G02*
X102461262Y-92444000I-271738J0D01*
G01*
X101754738Y-92444000D01*
G75*
G02*
X101483000Y-92172262I0J271738D01*
G01*
X101483000Y-91215738D01*
G75*
G02*
X101754738Y-90944000I271738J0D01*
G01*
X102461262Y-90944000D01*
G75*
G02*
X102733000Y-91215738I0J-271738D01*
G01*
G37*
G36*
G01*
X100670300Y-86758038D02*
X100670300Y-87714562D01*
G75*
G02*
X100398562Y-87986300I-271738J0D01*
G01*
X99692038Y-87986300D01*
G75*
G02*
X99420300Y-87714562I0J271738D01*
G01*
X99420300Y-86758038D01*
G75*
G02*
X99692038Y-86486300I271738J0D01*
G01*
X100398562Y-86486300D01*
G75*
G02*
X100670300Y-86758038I0J-271738D01*
G01*
G37*
G36*
G01*
X102720300Y-86758038D02*
X102720300Y-87714562D01*
G75*
G02*
X102448562Y-87986300I-271738J0D01*
G01*
X101742038Y-87986300D01*
G75*
G02*
X101470300Y-87714562I0J271738D01*
G01*
X101470300Y-86758038D01*
G75*
G02*
X101742038Y-86486300I271738J0D01*
G01*
X102448562Y-86486300D01*
G75*
G02*
X102720300Y-86758038I0J-271738D01*
G01*
G37*
G36*
G01*
X101501000Y-85415862D02*
X101501000Y-84459338D01*
G75*
G02*
X101772738Y-84187600I271738J0D01*
G01*
X102479262Y-84187600D01*
G75*
G02*
X102751000Y-84459338I0J-271738D01*
G01*
X102751000Y-85415862D01*
G75*
G02*
X102479262Y-85687600I-271738J0D01*
G01*
X101772738Y-85687600D01*
G75*
G02*
X101501000Y-85415862I0J271738D01*
G01*
G37*
G36*
G01*
X99451000Y-85415862D02*
X99451000Y-84459338D01*
G75*
G02*
X99722738Y-84187600I271738J0D01*
G01*
X100429262Y-84187600D01*
G75*
G02*
X100701000Y-84459338I0J-271738D01*
G01*
X100701000Y-85415862D01*
G75*
G02*
X100429262Y-85687600I-271738J0D01*
G01*
X99722738Y-85687600D01*
G75*
G02*
X99451000Y-85415862I0J271738D01*
G01*
G37*
G36*
G01*
X101501000Y-83028262D02*
X101501000Y-82071738D01*
G75*
G02*
X101772738Y-81800000I271738J0D01*
G01*
X102479262Y-81800000D01*
G75*
G02*
X102751000Y-82071738I0J-271738D01*
G01*
X102751000Y-83028262D01*
G75*
G02*
X102479262Y-83300000I-271738J0D01*
G01*
X101772738Y-83300000D01*
G75*
G02*
X101501000Y-83028262I0J271738D01*
G01*
G37*
G36*
G01*
X99451000Y-83028262D02*
X99451000Y-82071738D01*
G75*
G02*
X99722738Y-81800000I271738J0D01*
G01*
X100429262Y-81800000D01*
G75*
G02*
X100701000Y-82071738I0J-271738D01*
G01*
X100701000Y-83028262D01*
G75*
G02*
X100429262Y-83300000I-271738J0D01*
G01*
X99722738Y-83300000D01*
G75*
G02*
X99451000Y-83028262I0J271738D01*
G01*
G37*
G36*
G01*
X101492000Y-80996262D02*
X101492000Y-80039738D01*
G75*
G02*
X101763738Y-79768000I271738J0D01*
G01*
X102470262Y-79768000D01*
G75*
G02*
X102742000Y-80039738I0J-271738D01*
G01*
X102742000Y-80996262D01*
G75*
G02*
X102470262Y-81268000I-271738J0D01*
G01*
X101763738Y-81268000D01*
G75*
G02*
X101492000Y-80996262I0J271738D01*
G01*
G37*
G36*
G01*
X99442000Y-80996262D02*
X99442000Y-80039738D01*
G75*
G02*
X99713738Y-79768000I271738J0D01*
G01*
X100420262Y-79768000D01*
G75*
G02*
X100692000Y-80039738I0J-271738D01*
G01*
X100692000Y-80996262D01*
G75*
G02*
X100420262Y-81268000I-271738J0D01*
G01*
X99713738Y-81268000D01*
G75*
G02*
X99442000Y-80996262I0J271738D01*
G01*
G37*
G36*
G01*
X89799000Y-83536262D02*
X89799000Y-82579738D01*
G75*
G02*
X90070738Y-82308000I271738J0D01*
G01*
X90777262Y-82308000D01*
G75*
G02*
X91049000Y-82579738I0J-271738D01*
G01*
X91049000Y-83536262D01*
G75*
G02*
X90777262Y-83808000I-271738J0D01*
G01*
X90070738Y-83808000D01*
G75*
G02*
X89799000Y-83536262I0J271738D01*
G01*
G37*
G36*
G01*
X87749000Y-83536262D02*
X87749000Y-82579738D01*
G75*
G02*
X88020738Y-82308000I271738J0D01*
G01*
X88727262Y-82308000D01*
G75*
G02*
X88999000Y-82579738I0J-271738D01*
G01*
X88999000Y-83536262D01*
G75*
G02*
X88727262Y-83808000I-271738J0D01*
G01*
X88020738Y-83808000D01*
G75*
G02*
X87749000Y-83536262I0J271738D01*
G01*
G37*
G36*
G01*
X88999000Y-72419738D02*
X88999000Y-73376262D01*
G75*
G02*
X88727262Y-73648000I-271738J0D01*
G01*
X88020738Y-73648000D01*
G75*
G02*
X87749000Y-73376262I0J271738D01*
G01*
X87749000Y-72419738D01*
G75*
G02*
X88020738Y-72148000I271738J0D01*
G01*
X88727262Y-72148000D01*
G75*
G02*
X88999000Y-72419738I0J-271738D01*
G01*
G37*
G36*
G01*
X91049000Y-72419738D02*
X91049000Y-73376262D01*
G75*
G02*
X90777262Y-73648000I-271738J0D01*
G01*
X90070738Y-73648000D01*
G75*
G02*
X89799000Y-73376262I0J271738D01*
G01*
X89799000Y-72419738D01*
G75*
G02*
X90070738Y-72148000I271738J0D01*
G01*
X90777262Y-72148000D01*
G75*
G02*
X91049000Y-72419738I0J-271738D01*
G01*
G37*
G36*
G01*
X88999000Y-80547738D02*
X88999000Y-81504262D01*
G75*
G02*
X88727262Y-81776000I-271738J0D01*
G01*
X88020738Y-81776000D01*
G75*
G02*
X87749000Y-81504262I0J271738D01*
G01*
X87749000Y-80547738D01*
G75*
G02*
X88020738Y-80276000I271738J0D01*
G01*
X88727262Y-80276000D01*
G75*
G02*
X88999000Y-80547738I0J-271738D01*
G01*
G37*
G36*
G01*
X91049000Y-80547738D02*
X91049000Y-81504262D01*
G75*
G02*
X90777262Y-81776000I-271738J0D01*
G01*
X90070738Y-81776000D01*
G75*
G02*
X89799000Y-81504262I0J271738D01*
G01*
X89799000Y-80547738D01*
G75*
G02*
X90070738Y-80276000I271738J0D01*
G01*
X90777262Y-80276000D01*
G75*
G02*
X91049000Y-80547738I0J-271738D01*
G01*
G37*
G36*
G01*
X100701000Y-76483738D02*
X100701000Y-77440262D01*
G75*
G02*
X100429262Y-77712000I-271738J0D01*
G01*
X99722738Y-77712000D01*
G75*
G02*
X99451000Y-77440262I0J271738D01*
G01*
X99451000Y-76483738D01*
G75*
G02*
X99722738Y-76212000I271738J0D01*
G01*
X100429262Y-76212000D01*
G75*
G02*
X100701000Y-76483738I0J-271738D01*
G01*
G37*
G36*
G01*
X102751000Y-76483738D02*
X102751000Y-77440262D01*
G75*
G02*
X102479262Y-77712000I-271738J0D01*
G01*
X101772738Y-77712000D01*
G75*
G02*
X101501000Y-77440262I0J271738D01*
G01*
X101501000Y-76483738D01*
G75*
G02*
X101772738Y-76212000I271738J0D01*
G01*
X102479262Y-76212000D01*
G75*
G02*
X102751000Y-76483738I0J-271738D01*
G01*
G37*
G36*
G01*
X88999000Y-56925738D02*
X88999000Y-57882262D01*
G75*
G02*
X88727262Y-58154000I-271738J0D01*
G01*
X88020738Y-58154000D01*
G75*
G02*
X87749000Y-57882262I0J271738D01*
G01*
X87749000Y-56925738D01*
G75*
G02*
X88020738Y-56654000I271738J0D01*
G01*
X88727262Y-56654000D01*
G75*
G02*
X88999000Y-56925738I0J-271738D01*
G01*
G37*
G36*
G01*
X91049000Y-56925738D02*
X91049000Y-57882262D01*
G75*
G02*
X90777262Y-58154000I-271738J0D01*
G01*
X90070738Y-58154000D01*
G75*
G02*
X89799000Y-57882262I0J271738D01*
G01*
X89799000Y-56925738D01*
G75*
G02*
X90070738Y-56654000I271738J0D01*
G01*
X90777262Y-56654000D01*
G75*
G02*
X91049000Y-56925738I0J-271738D01*
G01*
G37*
G36*
G01*
X101501000Y-73376262D02*
X101501000Y-72419738D01*
G75*
G02*
X101772738Y-72148000I271738J0D01*
G01*
X102479262Y-72148000D01*
G75*
G02*
X102751000Y-72419738I0J-271738D01*
G01*
X102751000Y-73376262D01*
G75*
G02*
X102479262Y-73648000I-271738J0D01*
G01*
X101772738Y-73648000D01*
G75*
G02*
X101501000Y-73376262I0J271738D01*
G01*
G37*
G36*
G01*
X99451000Y-73376262D02*
X99451000Y-72419738D01*
G75*
G02*
X99722738Y-72148000I271738J0D01*
G01*
X100429262Y-72148000D01*
G75*
G02*
X100701000Y-72419738I0J-271738D01*
G01*
X100701000Y-73376262D01*
G75*
G02*
X100429262Y-73648000I-271738J0D01*
G01*
X99722738Y-73648000D01*
G75*
G02*
X99451000Y-73376262I0J271738D01*
G01*
G37*
G36*
G01*
X101501000Y-75408262D02*
X101501000Y-74451738D01*
G75*
G02*
X101772738Y-74180000I271738J0D01*
G01*
X102479262Y-74180000D01*
G75*
G02*
X102751000Y-74451738I0J-271738D01*
G01*
X102751000Y-75408262D01*
G75*
G02*
X102479262Y-75680000I-271738J0D01*
G01*
X101772738Y-75680000D01*
G75*
G02*
X101501000Y-75408262I0J271738D01*
G01*
G37*
G36*
G01*
X99451000Y-75408262D02*
X99451000Y-74451738D01*
G75*
G02*
X99722738Y-74180000I271738J0D01*
G01*
X100429262Y-74180000D01*
G75*
G02*
X100701000Y-74451738I0J-271738D01*
G01*
X100701000Y-75408262D01*
G75*
G02*
X100429262Y-75680000I-271738J0D01*
G01*
X99722738Y-75680000D01*
G75*
G02*
X99451000Y-75408262I0J271738D01*
G01*
G37*
G36*
G01*
X89817000Y-55850262D02*
X89817000Y-54893738D01*
G75*
G02*
X90088738Y-54622000I271738J0D01*
G01*
X90795262Y-54622000D01*
G75*
G02*
X91067000Y-54893738I0J-271738D01*
G01*
X91067000Y-55850262D01*
G75*
G02*
X90795262Y-56122000I-271738J0D01*
G01*
X90088738Y-56122000D01*
G75*
G02*
X89817000Y-55850262I0J271738D01*
G01*
G37*
G36*
G01*
X87767000Y-55850262D02*
X87767000Y-54893738D01*
G75*
G02*
X88038738Y-54622000I271738J0D01*
G01*
X88745262Y-54622000D01*
G75*
G02*
X89017000Y-54893738I0J-271738D01*
G01*
X89017000Y-55850262D01*
G75*
G02*
X88745262Y-56122000I-271738J0D01*
G01*
X88038738Y-56122000D01*
G75*
G02*
X87767000Y-55850262I0J271738D01*
G01*
G37*
G36*
G01*
X89799000Y-53818262D02*
X89799000Y-52861738D01*
G75*
G02*
X90070738Y-52590000I271738J0D01*
G01*
X90777262Y-52590000D01*
G75*
G02*
X91049000Y-52861738I0J-271738D01*
G01*
X91049000Y-53818262D01*
G75*
G02*
X90777262Y-54090000I-271738J0D01*
G01*
X90070738Y-54090000D01*
G75*
G02*
X89799000Y-53818262I0J271738D01*
G01*
G37*
G36*
G01*
X87749000Y-53818262D02*
X87749000Y-52861738D01*
G75*
G02*
X88020738Y-52590000I271738J0D01*
G01*
X88727262Y-52590000D01*
G75*
G02*
X88999000Y-52861738I0J-271738D01*
G01*
X88999000Y-53818262D01*
G75*
G02*
X88727262Y-54090000I-271738J0D01*
G01*
X88020738Y-54090000D01*
G75*
G02*
X87749000Y-53818262I0J271738D01*
G01*
G37*
G36*
G01*
X102836820Y-59990462D02*
X102836820Y-59033938D01*
G75*
G02*
X103108558Y-58762200I271738J0D01*
G01*
X103815082Y-58762200D01*
G75*
G02*
X104086820Y-59033938I0J-271738D01*
G01*
X104086820Y-59990462D01*
G75*
G02*
X103815082Y-60262200I-271738J0D01*
G01*
X103108558Y-60262200D01*
G75*
G02*
X102836820Y-59990462I0J271738D01*
G01*
G37*
G36*
G01*
X100786820Y-59990462D02*
X100786820Y-59033938D01*
G75*
G02*
X101058558Y-58762200I271738J0D01*
G01*
X101765082Y-58762200D01*
G75*
G02*
X102036820Y-59033938I0J-271738D01*
G01*
X102036820Y-59990462D01*
G75*
G02*
X101765082Y-60262200I-271738J0D01*
G01*
X101058558Y-60262200D01*
G75*
G02*
X100786820Y-59990462I0J271738D01*
G01*
G37*
G36*
G01*
X101492000Y-54834262D02*
X101492000Y-53877738D01*
G75*
G02*
X101763738Y-53606000I271738J0D01*
G01*
X102470262Y-53606000D01*
G75*
G02*
X102742000Y-53877738I0J-271738D01*
G01*
X102742000Y-54834262D01*
G75*
G02*
X102470262Y-55106000I-271738J0D01*
G01*
X101763738Y-55106000D01*
G75*
G02*
X101492000Y-54834262I0J271738D01*
G01*
G37*
G36*
G01*
X99442000Y-54834262D02*
X99442000Y-53877738D01*
G75*
G02*
X99713738Y-53606000I271738J0D01*
G01*
X100420262Y-53606000D01*
G75*
G02*
X100692000Y-53877738I0J-271738D01*
G01*
X100692000Y-54834262D01*
G75*
G02*
X100420262Y-55106000I-271738J0D01*
G01*
X99713738Y-55106000D01*
G75*
G02*
X99442000Y-54834262I0J271738D01*
G01*
G37*
G36*
G01*
X100701000Y-89183738D02*
X100701000Y-90140262D01*
G75*
G02*
X100429262Y-90412000I-271738J0D01*
G01*
X99722738Y-90412000D01*
G75*
G02*
X99451000Y-90140262I0J271738D01*
G01*
X99451000Y-89183738D01*
G75*
G02*
X99722738Y-88912000I271738J0D01*
G01*
X100429262Y-88912000D01*
G75*
G02*
X100701000Y-89183738I0J-271738D01*
G01*
G37*
G36*
G01*
X102751000Y-89183738D02*
X102751000Y-90140262D01*
G75*
G02*
X102479262Y-90412000I-271738J0D01*
G01*
X101772738Y-90412000D01*
G75*
G02*
X101501000Y-90140262I0J271738D01*
G01*
X101501000Y-89183738D01*
G75*
G02*
X101772738Y-88912000I271738J0D01*
G01*
X102479262Y-88912000D01*
G75*
G02*
X102751000Y-89183738I0J-271738D01*
G01*
G37*
G36*
G01*
X102836820Y-57958462D02*
X102836820Y-57001938D01*
G75*
G02*
X103108558Y-56730200I271738J0D01*
G01*
X103815082Y-56730200D01*
G75*
G02*
X104086820Y-57001938I0J-271738D01*
G01*
X104086820Y-57958462D01*
G75*
G02*
X103815082Y-58230200I-271738J0D01*
G01*
X103108558Y-58230200D01*
G75*
G02*
X102836820Y-57958462I0J271738D01*
G01*
G37*
G36*
G01*
X100786820Y-57958462D02*
X100786820Y-57001938D01*
G75*
G02*
X101058558Y-56730200I271738J0D01*
G01*
X101765082Y-56730200D01*
G75*
G02*
X102036820Y-57001938I0J-271738D01*
G01*
X102036820Y-57958462D01*
G75*
G02*
X101765082Y-58230200I-271738J0D01*
G01*
X101058558Y-58230200D01*
G75*
G02*
X100786820Y-57958462I0J271738D01*
G01*
G37*
M02*
