M48
; DRILL file {KiCad 5.1.6-c6e7f7d~86~ubuntu18.04.1} date Sat Jun 20 10:02:21 2020
; FORMAT={-:-/ absolute / metric / decimal}
; #@! TF.CreationDate,2020-06-20T10:02:21-04:00
; #@! TF.GenerationSoftware,Kicad,Pcbnew,5.1.6-c6e7f7d~86~ubuntu18.04.1
; #@! TF.FileFunction,Plated,1,2,PTH
FMAT,2
METRIC
T1C0.400
T2C0.500
T3C0.800
T4C1.000
T5C3.200
%
G90
G05
T1
X78.511Y-89.967
X79.146Y-94.031
X80.099Y-64.77
X80.848Y-85.763
X81.051Y-90.602
X82.35Y-88.05
X82.652Y-94.082
X83.017Y-109.22
X83.185Y-99.733
X83.617Y-100.99
X84.061Y-77.368
X84.175Y-64.85
X84.912Y-75.485
X85.95Y-73.65
X86.2Y-96.975
X86.284Y-110.871
X86.3Y-60.675
X86.309Y-107.747
X86.375Y-79.725
X86.4Y-83.425
X86.425Y-90.45
X86.475Y-87.4
X86.512Y-103.353
X86.538Y-70.358
X86.563Y-115.849
X86.589Y-93.751
X86.975Y-106.108
X87.084Y-77.368
X87.249Y-89.195
X87.325Y-100.99
X88.468Y-70.968
X88.506Y-112.723
X88.674Y-78.445
X89.24Y-61.303
X89.278Y-95.926
X89.408Y-63.284
X90.238Y-65.927
X90.45Y-107.925
X91.216Y-84.257
X91.313Y-75.485
X91.401Y-97.838
X91.516Y-74.092
X91.605Y-102.768
X91.643Y-53.518
X92.342Y-85.928
X92.71Y-52.629
X92.753Y-107.686
X92.789Y-80.173
X92.801Y-94.135
X93.193Y-69.304
X93.408Y-63.36
X93.408Y-67.767
X93.84Y-121.806
X94.313Y-118.563
X94.666Y-59.157
X94.666Y-75.468
X94.666Y-78.234
X94.666Y-87.591
X94.666Y-92.547
X94.666Y-96.166
X94.666Y-104.666
X94.666Y-111.109
X95.866Y-59.134
X95.866Y-78.541
X95.866Y-86.784
X95.866Y-93.491
X95.866Y-104.459
X95.866Y-111.266
X96.725Y-52.275
X97.292Y-114.883
X97.348Y-71.984
X97.536Y-99.466
X97.612Y-67.869
X97.739Y-65.253
X98.349Y-61.468
X98.349Y-119.85
X98.836Y-90.025
X98.852Y-102.697
X98.908Y-110.795
X98.984Y-85.306
X99.002Y-88.709
X99.002Y-88.709
X99.035Y-55.347
X99.047Y-74.003
X99.212Y-95.479
X99.266Y-56.739
X99.352Y-81.724
X100.0Y-60.35
X100.851Y-118.021
X100.932Y-109.023
X101.378Y-112.99
X101.443Y-62.352
X102.121Y-114.935
X102.337Y-117.5
X102.867Y-83.688
X102.873Y-97.539
X103.137Y-109.5
X103.149Y-74.93
X103.236Y-62.395
X103.467Y-79.273
X103.505Y-73.0
X103.556Y-65.748
X104.051Y-101.752
X104.343Y-121.806
X104.35Y-52.35
X104.572Y-76.327
X104.695Y-120.022
X104.737Y-57.563
X105.251Y-79.121
X106.08Y-111.245
X106.629Y-53.886
X107.029Y-81.763
X107.798Y-69.444
X107.95Y-113.03
X107.975Y-68.123
X108.725Y-100.225
X108.75Y-106.65
X108.775Y-92.125
X108.85Y-86.65
X109.118Y-55.474
X109.753Y-78.892
X111.709Y-75.87
X113.055Y-76.886
T2
X78.88Y-55.88
X79.583Y-54.183
X79.583Y-57.577
X81.28Y-53.48
X81.28Y-58.28
X82.977Y-54.183
X82.977Y-57.577
X83.68Y-55.88
X78.88Y-124.46
X79.583Y-122.763
X79.583Y-126.157
X81.28Y-122.06
X81.28Y-126.86
X82.977Y-122.763
X82.977Y-126.157
X83.68Y-124.46
T3
X94.666Y-70.891
X95.866Y-63.494
X80.645Y-92.71
X80.645Y-95.25
X80.645Y-97.79
X80.772Y-75.565
X80.772Y-78.105
X80.772Y-80.645
T4
X110.49Y-63.5
X110.49Y-66.04
X110.49Y-68.58
X110.49Y-71.12
X110.49Y-73.66
X113.03Y-63.5
X113.03Y-66.04
X113.03Y-68.58
X113.03Y-71.12
X113.03Y-73.66
X107.95Y-116.84
X107.95Y-119.38
X107.95Y-121.92
X91.44Y-127.0
X93.98Y-127.0
X96.52Y-127.0
X99.06Y-127.0
X101.6Y-127.0
X80.01Y-113.665
X80.01Y-116.205
X80.01Y-118.745
X113.03Y-116.84
X113.03Y-119.38
X113.03Y-121.92
X113.03Y-124.46
X113.03Y-127.0
X113.03Y-106.68
X113.03Y-109.22
X113.03Y-111.76
X80.01Y-103.505
X80.01Y-106.045
X80.01Y-108.585
T5
X81.28Y-55.88
X81.28Y-124.46
T0
M30
