G04 #@! TF.GenerationSoftware,KiCad,Pcbnew,5.1.6-c6e7f7d~86~ubuntu18.04.1*
G04 #@! TF.CreationDate,2020-06-20T10:04:16-04:00*
G04 #@! TF.ProjectId,wave_folder,77617665-5f66-46f6-9c64-65722e6b6963,rev?*
G04 #@! TF.SameCoordinates,Original*
G04 #@! TF.FileFunction,Paste,Top*
G04 #@! TF.FilePolarity,Positive*
%FSLAX46Y46*%
G04 Gerber Fmt 4.6, Leading zero omitted, Abs format (unit mm)*
G04 Created by KiCad (PCBNEW 5.1.6-c6e7f7d~86~ubuntu18.04.1) date 2020-06-20 10:04:16*
%MOMM*%
%LPD*%
G01*
G04 APERTURE LIST*
G04 APERTURE END LIST*
G36*
G01*
X144724860Y-88533819D02*
X144724860Y-89433821D01*
G75*
G02*
X144474861Y-89683820I-249999J0D01*
G01*
X143824859Y-89683820D01*
G75*
G02*
X143574860Y-89433821I0J249999D01*
G01*
X143574860Y-88533819D01*
G75*
G02*
X143824859Y-88283820I249999J0D01*
G01*
X144474861Y-88283820D01*
G75*
G02*
X144724860Y-88533819I0J-249999D01*
G01*
G37*
G36*
G01*
X146774860Y-88533819D02*
X146774860Y-89433821D01*
G75*
G02*
X146524861Y-89683820I-249999J0D01*
G01*
X145874859Y-89683820D01*
G75*
G02*
X145624860Y-89433821I0J249999D01*
G01*
X145624860Y-88533819D01*
G75*
G02*
X145874859Y-88283820I249999J0D01*
G01*
X146524861Y-88283820D01*
G75*
G02*
X146774860Y-88533819I0J-249999D01*
G01*
G37*
G36*
G01*
X145721600Y-74135401D02*
X145721600Y-73235399D01*
G75*
G02*
X145971599Y-72985400I249999J0D01*
G01*
X146621601Y-72985400D01*
G75*
G02*
X146871600Y-73235399I0J-249999D01*
G01*
X146871600Y-74135401D01*
G75*
G02*
X146621601Y-74385400I-249999J0D01*
G01*
X145971599Y-74385400D01*
G75*
G02*
X145721600Y-74135401I0J249999D01*
G01*
G37*
G36*
G01*
X143671600Y-74135401D02*
X143671600Y-73235399D01*
G75*
G02*
X143921599Y-72985400I249999J0D01*
G01*
X144571601Y-72985400D01*
G75*
G02*
X144821600Y-73235399I0J-249999D01*
G01*
X144821600Y-74135401D01*
G75*
G02*
X144571601Y-74385400I-249999J0D01*
G01*
X143921599Y-74385400D01*
G75*
G02*
X143671600Y-74135401I0J249999D01*
G01*
G37*
G36*
G01*
X171825000Y-131450001D02*
X171825000Y-130549999D01*
G75*
G02*
X172074999Y-130300000I249999J0D01*
G01*
X172725001Y-130300000D01*
G75*
G02*
X172975000Y-130549999I0J-249999D01*
G01*
X172975000Y-131450001D01*
G75*
G02*
X172725001Y-131700000I-249999J0D01*
G01*
X172074999Y-131700000D01*
G75*
G02*
X171825000Y-131450001I0J249999D01*
G01*
G37*
G36*
G01*
X169775000Y-131450001D02*
X169775000Y-130549999D01*
G75*
G02*
X170024999Y-130300000I249999J0D01*
G01*
X170675001Y-130300000D01*
G75*
G02*
X170925000Y-130549999I0J-249999D01*
G01*
X170925000Y-131450001D01*
G75*
G02*
X170675001Y-131700000I-249999J0D01*
G01*
X170024999Y-131700000D01*
G75*
G02*
X169775000Y-131450001I0J249999D01*
G01*
G37*
G36*
G01*
X177137800Y-140291399D02*
X177137800Y-141191401D01*
G75*
G02*
X176887801Y-141441400I-249999J0D01*
G01*
X176237799Y-141441400D01*
G75*
G02*
X175987800Y-141191401I0J249999D01*
G01*
X175987800Y-140291399D01*
G75*
G02*
X176237799Y-140041400I249999J0D01*
G01*
X176887801Y-140041400D01*
G75*
G02*
X177137800Y-140291399I0J-249999D01*
G01*
G37*
G36*
G01*
X179187800Y-140291399D02*
X179187800Y-141191401D01*
G75*
G02*
X178937801Y-141441400I-249999J0D01*
G01*
X178287799Y-141441400D01*
G75*
G02*
X178037800Y-141191401I0J249999D01*
G01*
X178037800Y-140291399D01*
G75*
G02*
X178287799Y-140041400I249999J0D01*
G01*
X178937801Y-140041400D01*
G75*
G02*
X179187800Y-140291399I0J-249999D01*
G01*
G37*
G36*
G01*
X173749999Y-117925000D02*
X174650001Y-117925000D01*
G75*
G02*
X174900000Y-118174999I0J-249999D01*
G01*
X174900000Y-118825001D01*
G75*
G02*
X174650001Y-119075000I-249999J0D01*
G01*
X173749999Y-119075000D01*
G75*
G02*
X173500000Y-118825001I0J249999D01*
G01*
X173500000Y-118174999D01*
G75*
G02*
X173749999Y-117925000I249999J0D01*
G01*
G37*
G36*
G01*
X173749999Y-115875000D02*
X174650001Y-115875000D01*
G75*
G02*
X174900000Y-116124999I0J-249999D01*
G01*
X174900000Y-116775001D01*
G75*
G02*
X174650001Y-117025000I-249999J0D01*
G01*
X173749999Y-117025000D01*
G75*
G02*
X173500000Y-116775001I0J249999D01*
G01*
X173500000Y-116124999D01*
G75*
G02*
X173749999Y-115875000I249999J0D01*
G01*
G37*
G36*
G01*
X184325000Y-127900001D02*
X184325000Y-126999999D01*
G75*
G02*
X184574999Y-126750000I249999J0D01*
G01*
X185225001Y-126750000D01*
G75*
G02*
X185475000Y-126999999I0J-249999D01*
G01*
X185475000Y-127900001D01*
G75*
G02*
X185225001Y-128150000I-249999J0D01*
G01*
X184574999Y-128150000D01*
G75*
G02*
X184325000Y-127900001I0J249999D01*
G01*
G37*
G36*
G01*
X182275000Y-127900001D02*
X182275000Y-126999999D01*
G75*
G02*
X182524999Y-126750000I249999J0D01*
G01*
X183175001Y-126750000D01*
G75*
G02*
X183425000Y-126999999I0J-249999D01*
G01*
X183425000Y-127900001D01*
G75*
G02*
X183175001Y-128150000I-249999J0D01*
G01*
X182524999Y-128150000D01*
G75*
G02*
X182275000Y-127900001I0J249999D01*
G01*
G37*
G36*
G01*
X172349999Y-85025000D02*
X173250001Y-85025000D01*
G75*
G02*
X173500000Y-85274999I0J-249999D01*
G01*
X173500000Y-85925001D01*
G75*
G02*
X173250001Y-86175000I-249999J0D01*
G01*
X172349999Y-86175000D01*
G75*
G02*
X172100000Y-85925001I0J249999D01*
G01*
X172100000Y-85274999D01*
G75*
G02*
X172349999Y-85025000I249999J0D01*
G01*
G37*
G36*
G01*
X172349999Y-82975000D02*
X173250001Y-82975000D01*
G75*
G02*
X173500000Y-83224999I0J-249999D01*
G01*
X173500000Y-83875001D01*
G75*
G02*
X173250001Y-84125000I-249999J0D01*
G01*
X172349999Y-84125000D01*
G75*
G02*
X172100000Y-83875001I0J249999D01*
G01*
X172100000Y-83224999D01*
G75*
G02*
X172349999Y-82975000I249999J0D01*
G01*
G37*
G36*
G01*
X179749999Y-99875000D02*
X180650001Y-99875000D01*
G75*
G02*
X180900000Y-100124999I0J-249999D01*
G01*
X180900000Y-100775001D01*
G75*
G02*
X180650001Y-101025000I-249999J0D01*
G01*
X179749999Y-101025000D01*
G75*
G02*
X179500000Y-100775001I0J249999D01*
G01*
X179500000Y-100124999D01*
G75*
G02*
X179749999Y-99875000I249999J0D01*
G01*
G37*
G36*
G01*
X179749999Y-97825000D02*
X180650001Y-97825000D01*
G75*
G02*
X180900000Y-98074999I0J-249999D01*
G01*
X180900000Y-98725001D01*
G75*
G02*
X180650001Y-98975000I-249999J0D01*
G01*
X179749999Y-98975000D01*
G75*
G02*
X179500000Y-98725001I0J249999D01*
G01*
X179500000Y-98074999D01*
G75*
G02*
X179749999Y-97825000I249999J0D01*
G01*
G37*
G36*
G01*
X181075000Y-58249999D02*
X181075000Y-59150001D01*
G75*
G02*
X180825001Y-59400000I-249999J0D01*
G01*
X180174999Y-59400000D01*
G75*
G02*
X179925000Y-59150001I0J249999D01*
G01*
X179925000Y-58249999D01*
G75*
G02*
X180174999Y-58000000I249999J0D01*
G01*
X180825001Y-58000000D01*
G75*
G02*
X181075000Y-58249999I0J-249999D01*
G01*
G37*
G36*
G01*
X183125000Y-58249999D02*
X183125000Y-59150001D01*
G75*
G02*
X182875001Y-59400000I-249999J0D01*
G01*
X182224999Y-59400000D01*
G75*
G02*
X181975000Y-59150001I0J249999D01*
G01*
X181975000Y-58249999D01*
G75*
G02*
X182224999Y-58000000I249999J0D01*
G01*
X182875001Y-58000000D01*
G75*
G02*
X183125000Y-58249999I0J-249999D01*
G01*
G37*
G36*
G01*
X185725000Y-82250001D02*
X185725000Y-81349999D01*
G75*
G02*
X185974999Y-81100000I249999J0D01*
G01*
X186625001Y-81100000D01*
G75*
G02*
X186875000Y-81349999I0J-249999D01*
G01*
X186875000Y-82250001D01*
G75*
G02*
X186625001Y-82500000I-249999J0D01*
G01*
X185974999Y-82500000D01*
G75*
G02*
X185725000Y-82250001I0J249999D01*
G01*
G37*
G36*
G01*
X183675000Y-82250001D02*
X183675000Y-81349999D01*
G75*
G02*
X183924999Y-81100000I249999J0D01*
G01*
X184575001Y-81100000D01*
G75*
G02*
X184825000Y-81349999I0J-249999D01*
G01*
X184825000Y-82250001D01*
G75*
G02*
X184575001Y-82500000I-249999J0D01*
G01*
X183924999Y-82500000D01*
G75*
G02*
X183675000Y-82250001I0J249999D01*
G01*
G37*
M02*
