G04 #@! TF.GenerationSoftware,KiCad,Pcbnew,5.1.6-c6e7f7d~86~ubuntu18.04.1*
G04 #@! TF.CreationDate,2020-06-20T10:04:16-04:00*
G04 #@! TF.ProjectId,wave_folder,77617665-5f66-46f6-9c64-65722e6b6963,rev?*
G04 #@! TF.SameCoordinates,Original*
G04 #@! TF.FileFunction,Soldermask,Top*
G04 #@! TF.FilePolarity,Negative*
%FSLAX46Y46*%
G04 Gerber Fmt 4.6, Leading zero omitted, Abs format (unit mm)*
G04 Created by KiCad (PCBNEW 5.1.6-c6e7f7d~86~ubuntu18.04.1) date 2020-06-20 10:04:16*
%MOMM*%
%LPD*%
G01*
G04 APERTURE LIST*
%ADD10O,1.700000X1.700000*%
%ADD11R,1.700000X1.700000*%
%ADD12O,2.820000X3.340000*%
%ADD13C,1.900000*%
%ADD14R,1.900000X1.900000*%
%ADD15C,1.700000*%
%ADD16O,1.800000X1.800000*%
%ADD17R,1.800000X1.800000*%
%ADD18O,1.900000X1.900000*%
G04 APERTURE END LIST*
D10*
X142240000Y-73660000D03*
X149860000Y-88900000D03*
X142240000Y-76200000D03*
X149860000Y-86360000D03*
X142240000Y-78740000D03*
X149860000Y-83820000D03*
X142240000Y-81280000D03*
X149860000Y-81280000D03*
X142240000Y-83820000D03*
X149860000Y-78740000D03*
X142240000Y-86360000D03*
X149860000Y-76200000D03*
X142240000Y-88900000D03*
D11*
X149860000Y-73660000D03*
D10*
X180594000Y-140716000D03*
X172974000Y-133096000D03*
X180594000Y-138176000D03*
X172974000Y-135636000D03*
X180594000Y-135636000D03*
X172974000Y-138176000D03*
X180594000Y-133096000D03*
D11*
X172974000Y-140716000D03*
D10*
X180721000Y-128016000D03*
X173101000Y-120396000D03*
X180721000Y-125476000D03*
X173101000Y-122936000D03*
X180721000Y-122936000D03*
X173101000Y-125476000D03*
X180721000Y-120396000D03*
D11*
X173101000Y-128016000D03*
D10*
X180213000Y-96520000D03*
X172593000Y-88900000D03*
X180213000Y-93980000D03*
X172593000Y-91440000D03*
X180213000Y-91440000D03*
X172593000Y-93980000D03*
X180213000Y-88900000D03*
D11*
X172593000Y-96520000D03*
D10*
X180467000Y-78486000D03*
X172847000Y-60706000D03*
X180467000Y-75946000D03*
X172847000Y-63246000D03*
X180467000Y-73406000D03*
X172847000Y-65786000D03*
X180467000Y-70866000D03*
X172847000Y-68326000D03*
X180467000Y-68326000D03*
X172847000Y-70866000D03*
X180467000Y-65786000D03*
X172847000Y-73406000D03*
X180467000Y-63246000D03*
X172847000Y-75946000D03*
X180467000Y-60706000D03*
D11*
X172847000Y-78486000D03*
D12*
X197170000Y-134740000D03*
X206770000Y-134740000D03*
D13*
X204470000Y-142240000D03*
X201970000Y-142240000D03*
D14*
X199470000Y-142240000D03*
D12*
X146370000Y-134620000D03*
X155970000Y-134620000D03*
D13*
X153670000Y-142120000D03*
X151170000Y-142120000D03*
D14*
X148670000Y-142120000D03*
D12*
X197170000Y-96640000D03*
X206770000Y-96640000D03*
D13*
X204470000Y-104140000D03*
X201970000Y-104140000D03*
D14*
X199470000Y-104140000D03*
D12*
X146370000Y-96640000D03*
X155970000Y-96640000D03*
D13*
X153670000Y-104140000D03*
X151170000Y-104140000D03*
D14*
X148670000Y-104140000D03*
D12*
X197090000Y-58540000D03*
X206690000Y-58540000D03*
D13*
X204390000Y-66040000D03*
X201890000Y-66040000D03*
D14*
X199390000Y-66040000D03*
D12*
X146370000Y-58540000D03*
X155970000Y-58540000D03*
D13*
X153670000Y-66040000D03*
X151170000Y-66040000D03*
D14*
X148670000Y-66040000D03*
D10*
X183007000Y-60960000D03*
D15*
X193167000Y-60960000D03*
D10*
X183007000Y-70104000D03*
D15*
X193167000Y-70104000D03*
D10*
X193167000Y-65532000D03*
D15*
X183007000Y-65532000D03*
D10*
X184429400Y-74371200D03*
D15*
X194589400Y-74371200D03*
D10*
X182753000Y-96520000D03*
D15*
X192913000Y-96520000D03*
D10*
X192913000Y-83312000D03*
D15*
X182753000Y-83312000D03*
D10*
X192913000Y-87630000D03*
D15*
X182753000Y-87630000D03*
D10*
X192913000Y-91948000D03*
D15*
X182753000Y-91948000D03*
D10*
X138430000Y-78740000D03*
D15*
X138430000Y-88900000D03*
D10*
X153670000Y-88900000D03*
D15*
X153670000Y-78740000D03*
D10*
X181991000Y-115570000D03*
D15*
X171831000Y-115570000D03*
D10*
X170434000Y-124460000D03*
D15*
X160274000Y-124460000D03*
D10*
X170434000Y-128778000D03*
D15*
X160274000Y-128778000D03*
D10*
X160020000Y-106680000D03*
D15*
X170180000Y-106680000D03*
D10*
X160020000Y-110998000D03*
D15*
X170180000Y-110998000D03*
D10*
X160020000Y-142240000D03*
D15*
X170180000Y-142240000D03*
D10*
X160020000Y-137922000D03*
D15*
X170180000Y-137922000D03*
D10*
X170180000Y-133350000D03*
D15*
X160020000Y-133350000D03*
D10*
X170307000Y-74422000D03*
D15*
X160147000Y-74422000D03*
D10*
X170307000Y-65532000D03*
D15*
X160147000Y-65532000D03*
D10*
X160147000Y-82550000D03*
D15*
X170307000Y-82550000D03*
D10*
X170307000Y-60960000D03*
D15*
X160147000Y-60960000D03*
D10*
X170307000Y-69977000D03*
D15*
X160147000Y-69977000D03*
D10*
X160147000Y-87376000D03*
D15*
X170307000Y-87376000D03*
D10*
X159816800Y-91948000D03*
D15*
X169976800Y-91948000D03*
D10*
X159359600Y-96774000D03*
D15*
X169519600Y-96774000D03*
D10*
X183388000Y-133858000D03*
D15*
X193548000Y-133858000D03*
D10*
X193548000Y-129540000D03*
D15*
X183388000Y-129540000D03*
D10*
X207010000Y-128270000D03*
D15*
X196850000Y-128270000D03*
D10*
X207010000Y-121920000D03*
D15*
X196850000Y-121920000D03*
D10*
X207010000Y-115570000D03*
D15*
X196850000Y-115570000D03*
D10*
X207010000Y-109220000D03*
D15*
X196850000Y-109220000D03*
D10*
X183388000Y-125222000D03*
D15*
X193548000Y-125222000D03*
D10*
X198120000Y-87630000D03*
D15*
X208280000Y-87630000D03*
D10*
X198120000Y-82550000D03*
D15*
X208280000Y-82550000D03*
D10*
X198120000Y-77470000D03*
D15*
X208280000Y-77470000D03*
D10*
X198120000Y-72390000D03*
D15*
X208280000Y-72390000D03*
D16*
X133350000Y-67310000D03*
X135890000Y-67310000D03*
X133350000Y-64770000D03*
X135890000Y-64770000D03*
X133350000Y-62230000D03*
X135890000Y-62230000D03*
X133350000Y-59690000D03*
X135890000Y-59690000D03*
X133350000Y-57150000D03*
D17*
X135890000Y-57150000D03*
D16*
X132080000Y-104140000D03*
X132080000Y-101600000D03*
X132080000Y-99060000D03*
D17*
X132080000Y-96520000D03*
D16*
X132080000Y-128270000D03*
X132080000Y-125730000D03*
X132080000Y-123190000D03*
D17*
X132080000Y-120650000D03*
D16*
X132080000Y-143510000D03*
X132080000Y-140970000D03*
D17*
X132080000Y-138430000D03*
D18*
X132080000Y-76835000D03*
D14*
X132080000Y-84455000D03*
D18*
X168783000Y-120142000D03*
D14*
X161163000Y-120142000D03*
D18*
X161163000Y-115570000D03*
D14*
X168783000Y-115570000D03*
D18*
X184658000Y-138430000D03*
D14*
X192278000Y-138430000D03*
D18*
X192278000Y-143256000D03*
D14*
X184658000Y-143256000D03*
D18*
X219710000Y-133350000D03*
D14*
X219710000Y-140970000D03*
D18*
X219666000Y-123190000D03*
D14*
X219666000Y-130810000D03*
D18*
X219710000Y-113030000D03*
D14*
X219710000Y-120650000D03*
D18*
X219710000Y-102870000D03*
D14*
X219710000Y-110490000D03*
D18*
X219710000Y-92710000D03*
D14*
X219710000Y-100330000D03*
D18*
X219710000Y-82550000D03*
D14*
X219710000Y-90170000D03*
D18*
X219710000Y-72390000D03*
D14*
X219710000Y-80010000D03*
D18*
X219710000Y-62230000D03*
D14*
X219710000Y-69850000D03*
D18*
X215900000Y-140970000D03*
D14*
X215900000Y-133350000D03*
D18*
X215900000Y-130810000D03*
D14*
X215900000Y-123190000D03*
D18*
X215900000Y-120650000D03*
D14*
X215900000Y-113030000D03*
D18*
X215900000Y-110490000D03*
D14*
X215900000Y-102870000D03*
D18*
X215900000Y-100330000D03*
D14*
X215900000Y-92710000D03*
D18*
X215900000Y-90170000D03*
D14*
X215900000Y-82550000D03*
D18*
X215900000Y-80010000D03*
D14*
X215900000Y-72390000D03*
D18*
X215900000Y-69850000D03*
D14*
X215900000Y-62230000D03*
G36*
G01*
X144774860Y-88505558D02*
X144774860Y-89462082D01*
G75*
G02*
X144503122Y-89733820I-271738J0D01*
G01*
X143796598Y-89733820D01*
G75*
G02*
X143524860Y-89462082I0J271738D01*
G01*
X143524860Y-88505558D01*
G75*
G02*
X143796598Y-88233820I271738J0D01*
G01*
X144503122Y-88233820D01*
G75*
G02*
X144774860Y-88505558I0J-271738D01*
G01*
G37*
G36*
G01*
X146824860Y-88505558D02*
X146824860Y-89462082D01*
G75*
G02*
X146553122Y-89733820I-271738J0D01*
G01*
X145846598Y-89733820D01*
G75*
G02*
X145574860Y-89462082I0J271738D01*
G01*
X145574860Y-88505558D01*
G75*
G02*
X145846598Y-88233820I271738J0D01*
G01*
X146553122Y-88233820D01*
G75*
G02*
X146824860Y-88505558I0J-271738D01*
G01*
G37*
G36*
G01*
X145671600Y-74163662D02*
X145671600Y-73207138D01*
G75*
G02*
X145943338Y-72935400I271738J0D01*
G01*
X146649862Y-72935400D01*
G75*
G02*
X146921600Y-73207138I0J-271738D01*
G01*
X146921600Y-74163662D01*
G75*
G02*
X146649862Y-74435400I-271738J0D01*
G01*
X145943338Y-74435400D01*
G75*
G02*
X145671600Y-74163662I0J271738D01*
G01*
G37*
G36*
G01*
X143621600Y-74163662D02*
X143621600Y-73207138D01*
G75*
G02*
X143893338Y-72935400I271738J0D01*
G01*
X144599862Y-72935400D01*
G75*
G02*
X144871600Y-73207138I0J-271738D01*
G01*
X144871600Y-74163662D01*
G75*
G02*
X144599862Y-74435400I-271738J0D01*
G01*
X143893338Y-74435400D01*
G75*
G02*
X143621600Y-74163662I0J271738D01*
G01*
G37*
G36*
G01*
X171775000Y-131478262D02*
X171775000Y-130521738D01*
G75*
G02*
X172046738Y-130250000I271738J0D01*
G01*
X172753262Y-130250000D01*
G75*
G02*
X173025000Y-130521738I0J-271738D01*
G01*
X173025000Y-131478262D01*
G75*
G02*
X172753262Y-131750000I-271738J0D01*
G01*
X172046738Y-131750000D01*
G75*
G02*
X171775000Y-131478262I0J271738D01*
G01*
G37*
G36*
G01*
X169725000Y-131478262D02*
X169725000Y-130521738D01*
G75*
G02*
X169996738Y-130250000I271738J0D01*
G01*
X170703262Y-130250000D01*
G75*
G02*
X170975000Y-130521738I0J-271738D01*
G01*
X170975000Y-131478262D01*
G75*
G02*
X170703262Y-131750000I-271738J0D01*
G01*
X169996738Y-131750000D01*
G75*
G02*
X169725000Y-131478262I0J271738D01*
G01*
G37*
G36*
G01*
X177187800Y-140263138D02*
X177187800Y-141219662D01*
G75*
G02*
X176916062Y-141491400I-271738J0D01*
G01*
X176209538Y-141491400D01*
G75*
G02*
X175937800Y-141219662I0J271738D01*
G01*
X175937800Y-140263138D01*
G75*
G02*
X176209538Y-139991400I271738J0D01*
G01*
X176916062Y-139991400D01*
G75*
G02*
X177187800Y-140263138I0J-271738D01*
G01*
G37*
G36*
G01*
X179237800Y-140263138D02*
X179237800Y-141219662D01*
G75*
G02*
X178966062Y-141491400I-271738J0D01*
G01*
X178259538Y-141491400D01*
G75*
G02*
X177987800Y-141219662I0J271738D01*
G01*
X177987800Y-140263138D01*
G75*
G02*
X178259538Y-139991400I271738J0D01*
G01*
X178966062Y-139991400D01*
G75*
G02*
X179237800Y-140263138I0J-271738D01*
G01*
G37*
G36*
G01*
X173721738Y-117875000D02*
X174678262Y-117875000D01*
G75*
G02*
X174950000Y-118146738I0J-271738D01*
G01*
X174950000Y-118853262D01*
G75*
G02*
X174678262Y-119125000I-271738J0D01*
G01*
X173721738Y-119125000D01*
G75*
G02*
X173450000Y-118853262I0J271738D01*
G01*
X173450000Y-118146738D01*
G75*
G02*
X173721738Y-117875000I271738J0D01*
G01*
G37*
G36*
G01*
X173721738Y-115825000D02*
X174678262Y-115825000D01*
G75*
G02*
X174950000Y-116096738I0J-271738D01*
G01*
X174950000Y-116803262D01*
G75*
G02*
X174678262Y-117075000I-271738J0D01*
G01*
X173721738Y-117075000D01*
G75*
G02*
X173450000Y-116803262I0J271738D01*
G01*
X173450000Y-116096738D01*
G75*
G02*
X173721738Y-115825000I271738J0D01*
G01*
G37*
G36*
G01*
X184275000Y-127928262D02*
X184275000Y-126971738D01*
G75*
G02*
X184546738Y-126700000I271738J0D01*
G01*
X185253262Y-126700000D01*
G75*
G02*
X185525000Y-126971738I0J-271738D01*
G01*
X185525000Y-127928262D01*
G75*
G02*
X185253262Y-128200000I-271738J0D01*
G01*
X184546738Y-128200000D01*
G75*
G02*
X184275000Y-127928262I0J271738D01*
G01*
G37*
G36*
G01*
X182225000Y-127928262D02*
X182225000Y-126971738D01*
G75*
G02*
X182496738Y-126700000I271738J0D01*
G01*
X183203262Y-126700000D01*
G75*
G02*
X183475000Y-126971738I0J-271738D01*
G01*
X183475000Y-127928262D01*
G75*
G02*
X183203262Y-128200000I-271738J0D01*
G01*
X182496738Y-128200000D01*
G75*
G02*
X182225000Y-127928262I0J271738D01*
G01*
G37*
G36*
G01*
X172321738Y-84975000D02*
X173278262Y-84975000D01*
G75*
G02*
X173550000Y-85246738I0J-271738D01*
G01*
X173550000Y-85953262D01*
G75*
G02*
X173278262Y-86225000I-271738J0D01*
G01*
X172321738Y-86225000D01*
G75*
G02*
X172050000Y-85953262I0J271738D01*
G01*
X172050000Y-85246738D01*
G75*
G02*
X172321738Y-84975000I271738J0D01*
G01*
G37*
G36*
G01*
X172321738Y-82925000D02*
X173278262Y-82925000D01*
G75*
G02*
X173550000Y-83196738I0J-271738D01*
G01*
X173550000Y-83903262D01*
G75*
G02*
X173278262Y-84175000I-271738J0D01*
G01*
X172321738Y-84175000D01*
G75*
G02*
X172050000Y-83903262I0J271738D01*
G01*
X172050000Y-83196738D01*
G75*
G02*
X172321738Y-82925000I271738J0D01*
G01*
G37*
G36*
G01*
X179721738Y-99825000D02*
X180678262Y-99825000D01*
G75*
G02*
X180950000Y-100096738I0J-271738D01*
G01*
X180950000Y-100803262D01*
G75*
G02*
X180678262Y-101075000I-271738J0D01*
G01*
X179721738Y-101075000D01*
G75*
G02*
X179450000Y-100803262I0J271738D01*
G01*
X179450000Y-100096738D01*
G75*
G02*
X179721738Y-99825000I271738J0D01*
G01*
G37*
G36*
G01*
X179721738Y-97775000D02*
X180678262Y-97775000D01*
G75*
G02*
X180950000Y-98046738I0J-271738D01*
G01*
X180950000Y-98753262D01*
G75*
G02*
X180678262Y-99025000I-271738J0D01*
G01*
X179721738Y-99025000D01*
G75*
G02*
X179450000Y-98753262I0J271738D01*
G01*
X179450000Y-98046738D01*
G75*
G02*
X179721738Y-97775000I271738J0D01*
G01*
G37*
G36*
G01*
X181125000Y-58221738D02*
X181125000Y-59178262D01*
G75*
G02*
X180853262Y-59450000I-271738J0D01*
G01*
X180146738Y-59450000D01*
G75*
G02*
X179875000Y-59178262I0J271738D01*
G01*
X179875000Y-58221738D01*
G75*
G02*
X180146738Y-57950000I271738J0D01*
G01*
X180853262Y-57950000D01*
G75*
G02*
X181125000Y-58221738I0J-271738D01*
G01*
G37*
G36*
G01*
X183175000Y-58221738D02*
X183175000Y-59178262D01*
G75*
G02*
X182903262Y-59450000I-271738J0D01*
G01*
X182196738Y-59450000D01*
G75*
G02*
X181925000Y-59178262I0J271738D01*
G01*
X181925000Y-58221738D01*
G75*
G02*
X182196738Y-57950000I271738J0D01*
G01*
X182903262Y-57950000D01*
G75*
G02*
X183175000Y-58221738I0J-271738D01*
G01*
G37*
G36*
G01*
X185675000Y-82278262D02*
X185675000Y-81321738D01*
G75*
G02*
X185946738Y-81050000I271738J0D01*
G01*
X186653262Y-81050000D01*
G75*
G02*
X186925000Y-81321738I0J-271738D01*
G01*
X186925000Y-82278262D01*
G75*
G02*
X186653262Y-82550000I-271738J0D01*
G01*
X185946738Y-82550000D01*
G75*
G02*
X185675000Y-82278262I0J271738D01*
G01*
G37*
G36*
G01*
X183625000Y-82278262D02*
X183625000Y-81321738D01*
G75*
G02*
X183896738Y-81050000I271738J0D01*
G01*
X184603262Y-81050000D01*
G75*
G02*
X184875000Y-81321738I0J-271738D01*
G01*
X184875000Y-82278262D01*
G75*
G02*
X184603262Y-82550000I-271738J0D01*
G01*
X183896738Y-82550000D01*
G75*
G02*
X183625000Y-82278262I0J271738D01*
G01*
G37*
D15*
X173950000Y-55245000D03*
D11*
X171450000Y-55245000D03*
D15*
X182245000Y-55245000D03*
D11*
X179745000Y-55245000D03*
D15*
X186055000Y-56642000D03*
X191055000Y-56642000D03*
X185881000Y-78486000D03*
X190881000Y-78486000D03*
X185627000Y-100584000D03*
X190627000Y-100584000D03*
X167767000Y-78486000D03*
X162767000Y-78486000D03*
X168021000Y-56896000D03*
X163021000Y-56896000D03*
X167259000Y-101092000D03*
X162259000Y-101092000D03*
M02*
