G04 #@! TF.GenerationSoftware,KiCad,Pcbnew,5.1.6-c6e7f7d~87~ubuntu18.04.1*
G04 #@! TF.CreationDate,2020-07-17T09:21:27-04:00*
G04 #@! TF.ProjectId,CEM3320_LPF_plug_in_board,43454d33-3332-4305-9f4c-50465f706c75,1.1*
G04 #@! TF.SameCoordinates,Original*
G04 #@! TF.FileFunction,Copper,L2,Bot*
G04 #@! TF.FilePolarity,Positive*
%FSLAX46Y46*%
G04 Gerber Fmt 4.6, Leading zero omitted, Abs format (unit mm)*
G04 Created by KiCad (PCBNEW 5.1.6-c6e7f7d~87~ubuntu18.04.1) date 2020-07-17 09:21:27*
%MOMM*%
%LPD*%
G01*
G04 APERTURE LIST*
G04 #@! TA.AperFunction,ComponentPad*
%ADD10C,1.440000*%
G04 #@! TD*
G04 #@! TA.AperFunction,ComponentPad*
%ADD11O,1.600000X1.600000*%
G04 #@! TD*
G04 #@! TA.AperFunction,ComponentPad*
%ADD12R,1.600000X1.600000*%
G04 #@! TD*
G04 #@! TA.AperFunction,ComponentPad*
%ADD13O,1.700000X1.700000*%
G04 #@! TD*
G04 #@! TA.AperFunction,ComponentPad*
%ADD14R,1.700000X1.700000*%
G04 #@! TD*
G04 #@! TA.AperFunction,ComponentPad*
%ADD15C,1.600000*%
G04 #@! TD*
G04 #@! TA.AperFunction,ViaPad*
%ADD16C,0.800000*%
G04 #@! TD*
G04 #@! TA.AperFunction,Conductor*
%ADD17C,0.762000*%
G04 #@! TD*
G04 #@! TA.AperFunction,Conductor*
%ADD18C,0.250000*%
G04 #@! TD*
G04 #@! TA.AperFunction,Conductor*
%ADD19C,0.254000*%
G04 #@! TD*
G04 APERTURE END LIST*
D10*
X142875000Y-122555000D03*
X142875000Y-120015000D03*
X142875000Y-117475000D03*
X177165000Y-107950000D03*
X177165000Y-110490000D03*
X177165000Y-113030000D03*
X135890000Y-122555000D03*
X135890000Y-120015000D03*
X135890000Y-117475000D03*
D11*
X147828000Y-88138000D03*
X168148000Y-95758000D03*
X150368000Y-88138000D03*
X165608000Y-95758000D03*
X152908000Y-88138000D03*
X163068000Y-95758000D03*
X155448000Y-88138000D03*
X160528000Y-95758000D03*
X157988000Y-88138000D03*
X157988000Y-95758000D03*
X160528000Y-88138000D03*
X155448000Y-95758000D03*
X163068000Y-88138000D03*
X152908000Y-95758000D03*
X165608000Y-88138000D03*
X150368000Y-95758000D03*
X168148000Y-88138000D03*
D12*
X147828000Y-95758000D03*
D13*
X182880000Y-124460000D03*
X182880000Y-121920000D03*
X182880000Y-119380000D03*
X182880000Y-116840000D03*
X182880000Y-114300000D03*
X182880000Y-111760000D03*
X182880000Y-109220000D03*
D14*
X182880000Y-106680000D03*
D13*
X182880000Y-86360000D03*
X182880000Y-83820000D03*
X182880000Y-81280000D03*
D14*
X182880000Y-78740000D03*
D13*
X129540000Y-86360000D03*
X129540000Y-83820000D03*
X129540000Y-81280000D03*
D14*
X129540000Y-78740000D03*
D13*
X129540000Y-124460000D03*
X129540000Y-121920000D03*
X129540000Y-119380000D03*
D14*
X129540000Y-116840000D03*
D15*
X172720000Y-88138000D03*
X177720000Y-88138000D03*
X165608000Y-80598000D03*
X165608000Y-85598000D03*
X163148000Y-106934000D03*
X168148000Y-106934000D03*
X153416000Y-80598000D03*
X153416000Y-85598000D03*
X152908000Y-103298000D03*
X152908000Y-98298000D03*
X157988000Y-103298000D03*
X157988000Y-98298000D03*
D16*
X171958000Y-120396000D03*
X175260000Y-118364000D03*
X164592000Y-111506000D03*
X163322000Y-111506000D03*
X174534990Y-92456000D03*
X158242000Y-111252000D03*
D17*
X173228000Y-96012000D02*
X170434000Y-93218000D01*
X161909001Y-84216999D02*
X158787999Y-87338001D01*
X158787999Y-87338001D02*
X157988000Y-88138000D01*
X170434000Y-93218000D02*
X170434000Y-86868000D01*
X170434000Y-86868000D02*
X167782999Y-84216999D01*
X167782999Y-84216999D02*
X161909001Y-84216999D01*
X164592000Y-111506000D02*
X173228000Y-111506000D01*
X173228000Y-111506000D02*
X173228000Y-96012000D01*
X182880000Y-121920000D02*
X181610000Y-121920000D01*
X173228000Y-113538000D02*
X173228000Y-111506000D01*
X181610000Y-121920000D02*
X173228000Y-113538000D01*
X174534990Y-93021685D02*
X174534990Y-92456000D01*
X174534990Y-112939990D02*
X174534990Y-93021685D01*
X182880000Y-116840000D02*
X178435000Y-116840000D01*
X178435000Y-116840000D02*
X174534990Y-112939990D01*
D18*
X181610000Y-110490000D02*
X182880000Y-111760000D01*
X177165000Y-110490000D02*
X181610000Y-110490000D01*
X161798000Y-107696000D02*
X158242000Y-111252000D01*
X163068000Y-88138000D02*
X161798000Y-89408000D01*
X161798000Y-89408000D02*
X161798000Y-107696000D01*
D19*
G36*
X184760001Y-126340000D02*
G01*
X127660000Y-126340000D01*
X127660000Y-121773740D01*
X128055000Y-121773740D01*
X128055000Y-122066260D01*
X128112068Y-122353158D01*
X128224010Y-122623411D01*
X128386525Y-122866632D01*
X128593368Y-123073475D01*
X128767760Y-123190000D01*
X128593368Y-123306525D01*
X128386525Y-123513368D01*
X128224010Y-123756589D01*
X128112068Y-124026842D01*
X128055000Y-124313740D01*
X128055000Y-124606260D01*
X128112068Y-124893158D01*
X128224010Y-125163411D01*
X128386525Y-125406632D01*
X128593368Y-125613475D01*
X128836589Y-125775990D01*
X129106842Y-125887932D01*
X129393740Y-125945000D01*
X129686260Y-125945000D01*
X129973158Y-125887932D01*
X130243411Y-125775990D01*
X130486632Y-125613475D01*
X130693475Y-125406632D01*
X130855990Y-125163411D01*
X130967932Y-124893158D01*
X131025000Y-124606260D01*
X131025000Y-124313740D01*
X130967932Y-124026842D01*
X130855990Y-123756589D01*
X130693475Y-123513368D01*
X130670667Y-123490560D01*
X135134045Y-123490560D01*
X135195932Y-123726368D01*
X135437790Y-123839266D01*
X135697027Y-123902811D01*
X135963680Y-123914561D01*
X136227501Y-123874063D01*
X136478353Y-123782875D01*
X136584068Y-123726368D01*
X136645955Y-123490560D01*
X135890000Y-122734605D01*
X135134045Y-123490560D01*
X130670667Y-123490560D01*
X130486632Y-123306525D01*
X130312240Y-123190000D01*
X130486632Y-123073475D01*
X130693475Y-122866632D01*
X130852469Y-122628680D01*
X134530439Y-122628680D01*
X134570937Y-122892501D01*
X134662125Y-123143353D01*
X134718632Y-123249068D01*
X134954440Y-123310955D01*
X135710395Y-122555000D01*
X136069605Y-122555000D01*
X136825560Y-123310955D01*
X137061368Y-123249068D01*
X137174266Y-123007210D01*
X137237811Y-122747973D01*
X137249561Y-122481320D01*
X137209063Y-122217499D01*
X137117875Y-121966647D01*
X137061368Y-121860932D01*
X136825560Y-121799045D01*
X136069605Y-122555000D01*
X135710395Y-122555000D01*
X134954440Y-121799045D01*
X134718632Y-121860932D01*
X134605734Y-122102790D01*
X134542189Y-122362027D01*
X134530439Y-122628680D01*
X130852469Y-122628680D01*
X130855990Y-122623411D01*
X130967932Y-122353158D01*
X131025000Y-122066260D01*
X131025000Y-121773740D01*
X130967932Y-121486842D01*
X130855990Y-121216589D01*
X130693475Y-120973368D01*
X130486632Y-120766525D01*
X130304466Y-120644805D01*
X130421355Y-120575178D01*
X130637588Y-120380269D01*
X130811641Y-120146920D01*
X130936825Y-119884099D01*
X130981476Y-119736890D01*
X130860155Y-119507000D01*
X129667000Y-119507000D01*
X129667000Y-119527000D01*
X129413000Y-119527000D01*
X129413000Y-119507000D01*
X128219845Y-119507000D01*
X128098524Y-119736890D01*
X128143175Y-119884099D01*
X128268359Y-120146920D01*
X128442412Y-120380269D01*
X128658645Y-120575178D01*
X128775534Y-120644805D01*
X128593368Y-120766525D01*
X128386525Y-120973368D01*
X128224010Y-121216589D01*
X128112068Y-121486842D01*
X128055000Y-121773740D01*
X127660000Y-121773740D01*
X127660000Y-117690000D01*
X128051928Y-117690000D01*
X128064188Y-117814482D01*
X128100498Y-117934180D01*
X128159463Y-118044494D01*
X128238815Y-118141185D01*
X128335506Y-118220537D01*
X128445820Y-118279502D01*
X128526466Y-118303966D01*
X128442412Y-118379731D01*
X128268359Y-118613080D01*
X128143175Y-118875901D01*
X128098524Y-119023110D01*
X128219845Y-119253000D01*
X129413000Y-119253000D01*
X129413000Y-116967000D01*
X129667000Y-116967000D01*
X129667000Y-119253000D01*
X130860155Y-119253000D01*
X130981476Y-119023110D01*
X130936825Y-118875901D01*
X130811641Y-118613080D01*
X130637588Y-118379731D01*
X130553534Y-118303966D01*
X130634180Y-118279502D01*
X130744494Y-118220537D01*
X130841185Y-118141185D01*
X130920537Y-118044494D01*
X130979502Y-117934180D01*
X131015812Y-117814482D01*
X131028072Y-117690000D01*
X131026175Y-117341544D01*
X134535000Y-117341544D01*
X134535000Y-117608456D01*
X134587072Y-117870239D01*
X134689215Y-118116833D01*
X134837503Y-118338762D01*
X135026238Y-118527497D01*
X135248167Y-118675785D01*
X135415266Y-118745000D01*
X135248167Y-118814215D01*
X135026238Y-118962503D01*
X134837503Y-119151238D01*
X134689215Y-119373167D01*
X134587072Y-119619761D01*
X134535000Y-119881544D01*
X134535000Y-120148456D01*
X134587072Y-120410239D01*
X134689215Y-120656833D01*
X134837503Y-120878762D01*
X135026238Y-121067497D01*
X135248167Y-121215785D01*
X135416324Y-121285438D01*
X135301647Y-121327125D01*
X135195932Y-121383632D01*
X135134045Y-121619440D01*
X135890000Y-122375395D01*
X136645955Y-121619440D01*
X136584068Y-121383632D01*
X136368993Y-121283236D01*
X136531833Y-121215785D01*
X136753762Y-121067497D01*
X136942497Y-120878762D01*
X137090785Y-120656833D01*
X137192928Y-120410239D01*
X137245000Y-120148456D01*
X137245000Y-119881544D01*
X141520000Y-119881544D01*
X141520000Y-120148456D01*
X141572072Y-120410239D01*
X141674215Y-120656833D01*
X141822503Y-120878762D01*
X142011238Y-121067497D01*
X142233167Y-121215785D01*
X142400266Y-121285000D01*
X142233167Y-121354215D01*
X142011238Y-121502503D01*
X141822503Y-121691238D01*
X141674215Y-121913167D01*
X141572072Y-122159761D01*
X141520000Y-122421544D01*
X141520000Y-122688456D01*
X141572072Y-122950239D01*
X141674215Y-123196833D01*
X141822503Y-123418762D01*
X142011238Y-123607497D01*
X142233167Y-123755785D01*
X142479761Y-123857928D01*
X142741544Y-123910000D01*
X143008456Y-123910000D01*
X143270239Y-123857928D01*
X143516833Y-123755785D01*
X143738762Y-123607497D01*
X143927497Y-123418762D01*
X144075785Y-123196833D01*
X144177928Y-122950239D01*
X144230000Y-122688456D01*
X144230000Y-122421544D01*
X144177928Y-122159761D01*
X144075785Y-121913167D01*
X143927497Y-121691238D01*
X143738762Y-121502503D01*
X143516833Y-121354215D01*
X143349734Y-121285000D01*
X143516833Y-121215785D01*
X143738762Y-121067497D01*
X143927497Y-120878762D01*
X144075785Y-120656833D01*
X144177928Y-120410239D01*
X144230000Y-120148456D01*
X144230000Y-119881544D01*
X144177928Y-119619761D01*
X144075785Y-119373167D01*
X143927497Y-119151238D01*
X143738762Y-118962503D01*
X143516833Y-118814215D01*
X143348676Y-118744562D01*
X143463353Y-118702875D01*
X143569068Y-118646368D01*
X143630955Y-118410560D01*
X142875000Y-117654605D01*
X142119045Y-118410560D01*
X142180932Y-118646368D01*
X142396007Y-118746764D01*
X142233167Y-118814215D01*
X142011238Y-118962503D01*
X141822503Y-119151238D01*
X141674215Y-119373167D01*
X141572072Y-119619761D01*
X141520000Y-119881544D01*
X137245000Y-119881544D01*
X137192928Y-119619761D01*
X137090785Y-119373167D01*
X136942497Y-119151238D01*
X136753762Y-118962503D01*
X136531833Y-118814215D01*
X136364734Y-118745000D01*
X136531833Y-118675785D01*
X136753762Y-118527497D01*
X136942497Y-118338762D01*
X137090785Y-118116833D01*
X137192928Y-117870239D01*
X137245000Y-117608456D01*
X137245000Y-117548680D01*
X141515439Y-117548680D01*
X141555937Y-117812501D01*
X141647125Y-118063353D01*
X141703632Y-118169068D01*
X141939440Y-118230955D01*
X142695395Y-117475000D01*
X143054605Y-117475000D01*
X143810560Y-118230955D01*
X144046368Y-118169068D01*
X144159266Y-117927210D01*
X144222811Y-117667973D01*
X144234561Y-117401320D01*
X144194063Y-117137499D01*
X144102875Y-116886647D01*
X144046368Y-116780932D01*
X143810560Y-116719045D01*
X143054605Y-117475000D01*
X142695395Y-117475000D01*
X141939440Y-116719045D01*
X141703632Y-116780932D01*
X141590734Y-117022790D01*
X141527189Y-117282027D01*
X141515439Y-117548680D01*
X137245000Y-117548680D01*
X137245000Y-117341544D01*
X137192928Y-117079761D01*
X137090785Y-116833167D01*
X136942497Y-116611238D01*
X136870699Y-116539440D01*
X142119045Y-116539440D01*
X142875000Y-117295395D01*
X143630955Y-116539440D01*
X143569068Y-116303632D01*
X143327210Y-116190734D01*
X143067973Y-116127189D01*
X142801320Y-116115439D01*
X142537499Y-116155937D01*
X142286647Y-116247125D01*
X142180932Y-116303632D01*
X142119045Y-116539440D01*
X136870699Y-116539440D01*
X136753762Y-116422503D01*
X136531833Y-116274215D01*
X136285239Y-116172072D01*
X136023456Y-116120000D01*
X135756544Y-116120000D01*
X135494761Y-116172072D01*
X135248167Y-116274215D01*
X135026238Y-116422503D01*
X134837503Y-116611238D01*
X134689215Y-116833167D01*
X134587072Y-117079761D01*
X134535000Y-117341544D01*
X131026175Y-117341544D01*
X131025000Y-117125750D01*
X130866250Y-116967000D01*
X129667000Y-116967000D01*
X129413000Y-116967000D01*
X128213750Y-116967000D01*
X128055000Y-117125750D01*
X128051928Y-117690000D01*
X127660000Y-117690000D01*
X127660000Y-115990000D01*
X128051928Y-115990000D01*
X128055000Y-116554250D01*
X128213750Y-116713000D01*
X129413000Y-116713000D01*
X129413000Y-115513750D01*
X129667000Y-115513750D01*
X129667000Y-116713000D01*
X130866250Y-116713000D01*
X131025000Y-116554250D01*
X131028072Y-115990000D01*
X131015812Y-115865518D01*
X130979502Y-115745820D01*
X130920537Y-115635506D01*
X130841185Y-115538815D01*
X130744494Y-115459463D01*
X130634180Y-115400498D01*
X130514482Y-115364188D01*
X130390000Y-115351928D01*
X129825750Y-115355000D01*
X129667000Y-115513750D01*
X129413000Y-115513750D01*
X129254250Y-115355000D01*
X128690000Y-115351928D01*
X128565518Y-115364188D01*
X128445820Y-115400498D01*
X128335506Y-115459463D01*
X128238815Y-115538815D01*
X128159463Y-115635506D01*
X128100498Y-115745820D01*
X128064188Y-115865518D01*
X128051928Y-115990000D01*
X127660000Y-115990000D01*
X127660000Y-104290702D01*
X152094903Y-104290702D01*
X152166486Y-104534671D01*
X152421996Y-104655571D01*
X152696184Y-104724300D01*
X152978512Y-104738217D01*
X153258130Y-104696787D01*
X153524292Y-104601603D01*
X153649514Y-104534671D01*
X153721097Y-104290702D01*
X157174903Y-104290702D01*
X157246486Y-104534671D01*
X157501996Y-104655571D01*
X157776184Y-104724300D01*
X158058512Y-104738217D01*
X158338130Y-104696787D01*
X158604292Y-104601603D01*
X158729514Y-104534671D01*
X158801097Y-104290702D01*
X157988000Y-103477605D01*
X157174903Y-104290702D01*
X153721097Y-104290702D01*
X152908000Y-103477605D01*
X152094903Y-104290702D01*
X127660000Y-104290702D01*
X127660000Y-103368512D01*
X151467783Y-103368512D01*
X151509213Y-103648130D01*
X151604397Y-103914292D01*
X151671329Y-104039514D01*
X151915298Y-104111097D01*
X152728395Y-103298000D01*
X153087605Y-103298000D01*
X153900702Y-104111097D01*
X154144671Y-104039514D01*
X154265571Y-103784004D01*
X154334300Y-103509816D01*
X154341265Y-103368512D01*
X156547783Y-103368512D01*
X156589213Y-103648130D01*
X156684397Y-103914292D01*
X156751329Y-104039514D01*
X156995298Y-104111097D01*
X157808395Y-103298000D01*
X158167605Y-103298000D01*
X158980702Y-104111097D01*
X159224671Y-104039514D01*
X159345571Y-103784004D01*
X159414300Y-103509816D01*
X159428217Y-103227488D01*
X159386787Y-102947870D01*
X159291603Y-102681708D01*
X159224671Y-102556486D01*
X158980702Y-102484903D01*
X158167605Y-103298000D01*
X157808395Y-103298000D01*
X156995298Y-102484903D01*
X156751329Y-102556486D01*
X156630429Y-102811996D01*
X156561700Y-103086184D01*
X156547783Y-103368512D01*
X154341265Y-103368512D01*
X154348217Y-103227488D01*
X154306787Y-102947870D01*
X154211603Y-102681708D01*
X154144671Y-102556486D01*
X153900702Y-102484903D01*
X153087605Y-103298000D01*
X152728395Y-103298000D01*
X151915298Y-102484903D01*
X151671329Y-102556486D01*
X151550429Y-102811996D01*
X151481700Y-103086184D01*
X151467783Y-103368512D01*
X127660000Y-103368512D01*
X127660000Y-102305298D01*
X152094903Y-102305298D01*
X152908000Y-103118395D01*
X153721097Y-102305298D01*
X157174903Y-102305298D01*
X157988000Y-103118395D01*
X158801097Y-102305298D01*
X158729514Y-102061329D01*
X158474004Y-101940429D01*
X158199816Y-101871700D01*
X157917488Y-101857783D01*
X157637870Y-101899213D01*
X157371708Y-101994397D01*
X157246486Y-102061329D01*
X157174903Y-102305298D01*
X153721097Y-102305298D01*
X153649514Y-102061329D01*
X153394004Y-101940429D01*
X153119816Y-101871700D01*
X152837488Y-101857783D01*
X152557870Y-101899213D01*
X152291708Y-101994397D01*
X152166486Y-102061329D01*
X152094903Y-102305298D01*
X127660000Y-102305298D01*
X127660000Y-94958000D01*
X146389928Y-94958000D01*
X146389928Y-96558000D01*
X146402188Y-96682482D01*
X146438498Y-96802180D01*
X146497463Y-96912494D01*
X146576815Y-97009185D01*
X146673506Y-97088537D01*
X146783820Y-97147502D01*
X146903518Y-97183812D01*
X147028000Y-97196072D01*
X148628000Y-97196072D01*
X148752482Y-97183812D01*
X148872180Y-97147502D01*
X148982494Y-97088537D01*
X149079185Y-97009185D01*
X149158537Y-96912494D01*
X149217502Y-96802180D01*
X149253812Y-96682482D01*
X149254643Y-96674039D01*
X149453241Y-96872637D01*
X149688273Y-97029680D01*
X149949426Y-97137853D01*
X150226665Y-97193000D01*
X150509335Y-97193000D01*
X150786574Y-97137853D01*
X151047727Y-97029680D01*
X151282759Y-96872637D01*
X151482637Y-96672759D01*
X151639680Y-96437727D01*
X151644067Y-96427135D01*
X151755615Y-96613131D01*
X151944586Y-96821519D01*
X152170580Y-96989037D01*
X152239565Y-97021643D01*
X152228273Y-97026320D01*
X151993241Y-97183363D01*
X151793363Y-97383241D01*
X151636320Y-97618273D01*
X151528147Y-97879426D01*
X151473000Y-98156665D01*
X151473000Y-98439335D01*
X151528147Y-98716574D01*
X151636320Y-98977727D01*
X151793363Y-99212759D01*
X151993241Y-99412637D01*
X152228273Y-99569680D01*
X152489426Y-99677853D01*
X152766665Y-99733000D01*
X153049335Y-99733000D01*
X153326574Y-99677853D01*
X153587727Y-99569680D01*
X153822759Y-99412637D01*
X154022637Y-99212759D01*
X154179680Y-98977727D01*
X154287853Y-98716574D01*
X154343000Y-98439335D01*
X154343000Y-98156665D01*
X154287853Y-97879426D01*
X154179680Y-97618273D01*
X154022637Y-97383241D01*
X153822759Y-97183363D01*
X153587727Y-97026320D01*
X153576435Y-97021643D01*
X153645420Y-96989037D01*
X153871414Y-96821519D01*
X154060385Y-96613131D01*
X154171933Y-96427135D01*
X154176320Y-96437727D01*
X154333363Y-96672759D01*
X154533241Y-96872637D01*
X154768273Y-97029680D01*
X155029426Y-97137853D01*
X155306665Y-97193000D01*
X155589335Y-97193000D01*
X155866574Y-97137853D01*
X156127727Y-97029680D01*
X156362759Y-96872637D01*
X156562637Y-96672759D01*
X156718000Y-96440241D01*
X156873363Y-96672759D01*
X157073241Y-96872637D01*
X157305759Y-97028000D01*
X157073241Y-97183363D01*
X156873363Y-97383241D01*
X156716320Y-97618273D01*
X156608147Y-97879426D01*
X156553000Y-98156665D01*
X156553000Y-98439335D01*
X156608147Y-98716574D01*
X156716320Y-98977727D01*
X156873363Y-99212759D01*
X157073241Y-99412637D01*
X157308273Y-99569680D01*
X157569426Y-99677853D01*
X157846665Y-99733000D01*
X158129335Y-99733000D01*
X158406574Y-99677853D01*
X158667727Y-99569680D01*
X158902759Y-99412637D01*
X159102637Y-99212759D01*
X159259680Y-98977727D01*
X159367853Y-98716574D01*
X159423000Y-98439335D01*
X159423000Y-98156665D01*
X159367853Y-97879426D01*
X159259680Y-97618273D01*
X159102637Y-97383241D01*
X158902759Y-97183363D01*
X158670241Y-97028000D01*
X158902759Y-96872637D01*
X159102637Y-96672759D01*
X159258000Y-96440241D01*
X159413363Y-96672759D01*
X159613241Y-96872637D01*
X159848273Y-97029680D01*
X160109426Y-97137853D01*
X160386665Y-97193000D01*
X160669335Y-97193000D01*
X160946574Y-97137853D01*
X161038000Y-97099983D01*
X161038001Y-107381196D01*
X158202199Y-110217000D01*
X158140061Y-110217000D01*
X157940102Y-110256774D01*
X157751744Y-110334795D01*
X157582226Y-110448063D01*
X157438063Y-110592226D01*
X157324795Y-110761744D01*
X157246774Y-110950102D01*
X157207000Y-111150061D01*
X157207000Y-111353939D01*
X157246774Y-111553898D01*
X157324795Y-111742256D01*
X157438063Y-111911774D01*
X157582226Y-112055937D01*
X157751744Y-112169205D01*
X157940102Y-112247226D01*
X158140061Y-112287000D01*
X158343939Y-112287000D01*
X158543898Y-112247226D01*
X158732256Y-112169205D01*
X158901774Y-112055937D01*
X159045937Y-111911774D01*
X159159205Y-111742256D01*
X159237226Y-111553898D01*
X159277000Y-111353939D01*
X159277000Y-111291801D01*
X162309008Y-108259795D01*
X162338001Y-108236001D01*
X162361795Y-108207008D01*
X162361799Y-108207004D01*
X162400209Y-108160201D01*
X162468273Y-108205680D01*
X162729426Y-108313853D01*
X163006665Y-108369000D01*
X163289335Y-108369000D01*
X163566574Y-108313853D01*
X163827727Y-108205680D01*
X164062759Y-108048637D01*
X164262637Y-107848759D01*
X164419680Y-107613727D01*
X164527853Y-107352574D01*
X164583000Y-107075335D01*
X164583000Y-106792665D01*
X166713000Y-106792665D01*
X166713000Y-107075335D01*
X166768147Y-107352574D01*
X166876320Y-107613727D01*
X167033363Y-107848759D01*
X167233241Y-108048637D01*
X167468273Y-108205680D01*
X167729426Y-108313853D01*
X168006665Y-108369000D01*
X168289335Y-108369000D01*
X168566574Y-108313853D01*
X168827727Y-108205680D01*
X169062759Y-108048637D01*
X169262637Y-107848759D01*
X169419680Y-107613727D01*
X169527853Y-107352574D01*
X169583000Y-107075335D01*
X169583000Y-106792665D01*
X169527853Y-106515426D01*
X169419680Y-106254273D01*
X169262637Y-106019241D01*
X169062759Y-105819363D01*
X168827727Y-105662320D01*
X168566574Y-105554147D01*
X168289335Y-105499000D01*
X168006665Y-105499000D01*
X167729426Y-105554147D01*
X167468273Y-105662320D01*
X167233241Y-105819363D01*
X167033363Y-106019241D01*
X166876320Y-106254273D01*
X166768147Y-106515426D01*
X166713000Y-106792665D01*
X164583000Y-106792665D01*
X164527853Y-106515426D01*
X164419680Y-106254273D01*
X164262637Y-106019241D01*
X164062759Y-105819363D01*
X163827727Y-105662320D01*
X163566574Y-105554147D01*
X163289335Y-105499000D01*
X163006665Y-105499000D01*
X162729426Y-105554147D01*
X162558000Y-105625154D01*
X162558000Y-97099983D01*
X162649426Y-97137853D01*
X162926665Y-97193000D01*
X163209335Y-97193000D01*
X163486574Y-97137853D01*
X163747727Y-97029680D01*
X163982759Y-96872637D01*
X164182637Y-96672759D01*
X164338000Y-96440241D01*
X164493363Y-96672759D01*
X164693241Y-96872637D01*
X164928273Y-97029680D01*
X165189426Y-97137853D01*
X165466665Y-97193000D01*
X165749335Y-97193000D01*
X166026574Y-97137853D01*
X166287727Y-97029680D01*
X166522759Y-96872637D01*
X166722637Y-96672759D01*
X166878000Y-96440241D01*
X167033363Y-96672759D01*
X167233241Y-96872637D01*
X167468273Y-97029680D01*
X167729426Y-97137853D01*
X168006665Y-97193000D01*
X168289335Y-97193000D01*
X168566574Y-97137853D01*
X168827727Y-97029680D01*
X169062759Y-96872637D01*
X169262637Y-96672759D01*
X169419680Y-96437727D01*
X169527853Y-96176574D01*
X169583000Y-95899335D01*
X169583000Y-95616665D01*
X169527853Y-95339426D01*
X169419680Y-95078273D01*
X169262637Y-94843241D01*
X169062759Y-94643363D01*
X168827727Y-94486320D01*
X168566574Y-94378147D01*
X168289335Y-94323000D01*
X168006665Y-94323000D01*
X167729426Y-94378147D01*
X167468273Y-94486320D01*
X167233241Y-94643363D01*
X167033363Y-94843241D01*
X166878000Y-95075759D01*
X166722637Y-94843241D01*
X166522759Y-94643363D01*
X166287727Y-94486320D01*
X166026574Y-94378147D01*
X165749335Y-94323000D01*
X165466665Y-94323000D01*
X165189426Y-94378147D01*
X164928273Y-94486320D01*
X164693241Y-94643363D01*
X164493363Y-94843241D01*
X164338000Y-95075759D01*
X164182637Y-94843241D01*
X163982759Y-94643363D01*
X163747727Y-94486320D01*
X163486574Y-94378147D01*
X163209335Y-94323000D01*
X162926665Y-94323000D01*
X162649426Y-94378147D01*
X162558000Y-94416017D01*
X162558000Y-89722801D01*
X162744114Y-89536688D01*
X162926665Y-89573000D01*
X163209335Y-89573000D01*
X163486574Y-89517853D01*
X163747727Y-89409680D01*
X163982759Y-89252637D01*
X164182637Y-89052759D01*
X164338000Y-88820241D01*
X164493363Y-89052759D01*
X164693241Y-89252637D01*
X164928273Y-89409680D01*
X165189426Y-89517853D01*
X165466665Y-89573000D01*
X165749335Y-89573000D01*
X166026574Y-89517853D01*
X166287727Y-89409680D01*
X166522759Y-89252637D01*
X166722637Y-89052759D01*
X166878000Y-88820241D01*
X167033363Y-89052759D01*
X167233241Y-89252637D01*
X167468273Y-89409680D01*
X167729426Y-89517853D01*
X168006665Y-89573000D01*
X168289335Y-89573000D01*
X168566574Y-89517853D01*
X168827727Y-89409680D01*
X169062759Y-89252637D01*
X169262637Y-89052759D01*
X169418001Y-88820240D01*
X169418000Y-93168098D01*
X169413085Y-93218000D01*
X169418000Y-93267901D01*
X169432702Y-93417170D01*
X169490798Y-93608686D01*
X169585140Y-93785190D01*
X169712104Y-93939896D01*
X169750872Y-93971712D01*
X172212001Y-96432842D01*
X172212000Y-110490000D01*
X164789459Y-110490000D01*
X164693939Y-110471000D01*
X164490061Y-110471000D01*
X164290102Y-110510774D01*
X164101744Y-110588795D01*
X163957000Y-110685510D01*
X163812256Y-110588795D01*
X163623898Y-110510774D01*
X163423939Y-110471000D01*
X163220061Y-110471000D01*
X163020102Y-110510774D01*
X162831744Y-110588795D01*
X162662226Y-110702063D01*
X162518063Y-110846226D01*
X162404795Y-111015744D01*
X162326774Y-111204102D01*
X162287000Y-111404061D01*
X162287000Y-111607939D01*
X162326774Y-111807898D01*
X162404795Y-111996256D01*
X162518063Y-112165774D01*
X162662226Y-112309937D01*
X162831744Y-112423205D01*
X163020102Y-112501226D01*
X163220061Y-112541000D01*
X163423939Y-112541000D01*
X163623898Y-112501226D01*
X163812256Y-112423205D01*
X163957000Y-112326490D01*
X164101744Y-112423205D01*
X164290102Y-112501226D01*
X164490061Y-112541000D01*
X164693939Y-112541000D01*
X164789459Y-112522000D01*
X172212000Y-112522000D01*
X172212000Y-113488098D01*
X172207085Y-113538000D01*
X172212000Y-113587901D01*
X172226702Y-113737170D01*
X172284798Y-113928686D01*
X172379140Y-114105190D01*
X172506104Y-114259896D01*
X172544872Y-114291712D01*
X180856292Y-122603133D01*
X180888104Y-122641896D01*
X181042810Y-122768860D01*
X181219313Y-122863202D01*
X181410829Y-122921298D01*
X181609999Y-122940915D01*
X181659901Y-122936000D01*
X181795893Y-122936000D01*
X181933368Y-123073475D01*
X182107760Y-123190000D01*
X181933368Y-123306525D01*
X181726525Y-123513368D01*
X181564010Y-123756589D01*
X181452068Y-124026842D01*
X181395000Y-124313740D01*
X181395000Y-124606260D01*
X181452068Y-124893158D01*
X181564010Y-125163411D01*
X181726525Y-125406632D01*
X181933368Y-125613475D01*
X182176589Y-125775990D01*
X182446842Y-125887932D01*
X182733740Y-125945000D01*
X183026260Y-125945000D01*
X183313158Y-125887932D01*
X183583411Y-125775990D01*
X183826632Y-125613475D01*
X184033475Y-125406632D01*
X184195990Y-125163411D01*
X184307932Y-124893158D01*
X184365000Y-124606260D01*
X184365000Y-124313740D01*
X184307932Y-124026842D01*
X184195990Y-123756589D01*
X184033475Y-123513368D01*
X183826632Y-123306525D01*
X183652240Y-123190000D01*
X183826632Y-123073475D01*
X184033475Y-122866632D01*
X184195990Y-122623411D01*
X184307932Y-122353158D01*
X184365000Y-122066260D01*
X184365000Y-121773740D01*
X184307932Y-121486842D01*
X184195990Y-121216589D01*
X184033475Y-120973368D01*
X183826632Y-120766525D01*
X183652240Y-120650000D01*
X183826632Y-120533475D01*
X184033475Y-120326632D01*
X184195990Y-120083411D01*
X184307932Y-119813158D01*
X184365000Y-119526260D01*
X184365000Y-119233740D01*
X184307932Y-118946842D01*
X184195990Y-118676589D01*
X184033475Y-118433368D01*
X183826632Y-118226525D01*
X183652240Y-118110000D01*
X183826632Y-117993475D01*
X184033475Y-117786632D01*
X184195990Y-117543411D01*
X184307932Y-117273158D01*
X184365000Y-116986260D01*
X184365000Y-116693740D01*
X184307932Y-116406842D01*
X184195990Y-116136589D01*
X184033475Y-115893368D01*
X183826632Y-115686525D01*
X183652240Y-115570000D01*
X183826632Y-115453475D01*
X184033475Y-115246632D01*
X184195990Y-115003411D01*
X184307932Y-114733158D01*
X184365000Y-114446260D01*
X184365000Y-114153740D01*
X184307932Y-113866842D01*
X184195990Y-113596589D01*
X184033475Y-113353368D01*
X183826632Y-113146525D01*
X183652240Y-113030000D01*
X183826632Y-112913475D01*
X184033475Y-112706632D01*
X184195990Y-112463411D01*
X184307932Y-112193158D01*
X184365000Y-111906260D01*
X184365000Y-111613740D01*
X184307932Y-111326842D01*
X184195990Y-111056589D01*
X184033475Y-110813368D01*
X183826632Y-110606525D01*
X183644466Y-110484805D01*
X183761355Y-110415178D01*
X183977588Y-110220269D01*
X184151641Y-109986920D01*
X184276825Y-109724099D01*
X184321476Y-109576890D01*
X184200155Y-109347000D01*
X183007000Y-109347000D01*
X183007000Y-109367000D01*
X182753000Y-109367000D01*
X182753000Y-109347000D01*
X181559845Y-109347000D01*
X181438524Y-109576890D01*
X181483175Y-109724099D01*
X181485986Y-109730000D01*
X178286828Y-109730000D01*
X178217497Y-109626238D01*
X178028762Y-109437503D01*
X177806833Y-109289215D01*
X177639734Y-109220000D01*
X177806833Y-109150785D01*
X178028762Y-109002497D01*
X178217497Y-108813762D01*
X178365785Y-108591833D01*
X178467928Y-108345239D01*
X178520000Y-108083456D01*
X178520000Y-107816544D01*
X178467928Y-107554761D01*
X178457672Y-107530000D01*
X181391928Y-107530000D01*
X181404188Y-107654482D01*
X181440498Y-107774180D01*
X181499463Y-107884494D01*
X181578815Y-107981185D01*
X181675506Y-108060537D01*
X181785820Y-108119502D01*
X181866466Y-108143966D01*
X181782412Y-108219731D01*
X181608359Y-108453080D01*
X181483175Y-108715901D01*
X181438524Y-108863110D01*
X181559845Y-109093000D01*
X182753000Y-109093000D01*
X182753000Y-106807000D01*
X183007000Y-106807000D01*
X183007000Y-109093000D01*
X184200155Y-109093000D01*
X184321476Y-108863110D01*
X184276825Y-108715901D01*
X184151641Y-108453080D01*
X183977588Y-108219731D01*
X183893534Y-108143966D01*
X183974180Y-108119502D01*
X184084494Y-108060537D01*
X184181185Y-107981185D01*
X184260537Y-107884494D01*
X184319502Y-107774180D01*
X184355812Y-107654482D01*
X184368072Y-107530000D01*
X184365000Y-106965750D01*
X184206250Y-106807000D01*
X183007000Y-106807000D01*
X182753000Y-106807000D01*
X181553750Y-106807000D01*
X181395000Y-106965750D01*
X181391928Y-107530000D01*
X178457672Y-107530000D01*
X178365785Y-107308167D01*
X178217497Y-107086238D01*
X178028762Y-106897503D01*
X177806833Y-106749215D01*
X177560239Y-106647072D01*
X177298456Y-106595000D01*
X177031544Y-106595000D01*
X176769761Y-106647072D01*
X176523167Y-106749215D01*
X176301238Y-106897503D01*
X176112503Y-107086238D01*
X175964215Y-107308167D01*
X175862072Y-107554761D01*
X175810000Y-107816544D01*
X175810000Y-108083456D01*
X175862072Y-108345239D01*
X175964215Y-108591833D01*
X176112503Y-108813762D01*
X176301238Y-109002497D01*
X176523167Y-109150785D01*
X176690266Y-109220000D01*
X176523167Y-109289215D01*
X176301238Y-109437503D01*
X176112503Y-109626238D01*
X175964215Y-109848167D01*
X175862072Y-110094761D01*
X175810000Y-110356544D01*
X175810000Y-110623456D01*
X175862072Y-110885239D01*
X175964215Y-111131833D01*
X176112503Y-111353762D01*
X176301238Y-111542497D01*
X176523167Y-111690785D01*
X176690266Y-111760000D01*
X176523167Y-111829215D01*
X176301238Y-111977503D01*
X176112503Y-112166238D01*
X175964215Y-112388167D01*
X175862072Y-112634761D01*
X175829641Y-112797801D01*
X175550990Y-112519150D01*
X175550990Y-105830000D01*
X181391928Y-105830000D01*
X181395000Y-106394250D01*
X181553750Y-106553000D01*
X182753000Y-106553000D01*
X182753000Y-105353750D01*
X183007000Y-105353750D01*
X183007000Y-106553000D01*
X184206250Y-106553000D01*
X184365000Y-106394250D01*
X184368072Y-105830000D01*
X184355812Y-105705518D01*
X184319502Y-105585820D01*
X184260537Y-105475506D01*
X184181185Y-105378815D01*
X184084494Y-105299463D01*
X183974180Y-105240498D01*
X183854482Y-105204188D01*
X183730000Y-105191928D01*
X183165750Y-105195000D01*
X183007000Y-105353750D01*
X182753000Y-105353750D01*
X182594250Y-105195000D01*
X182030000Y-105191928D01*
X181905518Y-105204188D01*
X181785820Y-105240498D01*
X181675506Y-105299463D01*
X181578815Y-105378815D01*
X181499463Y-105475506D01*
X181440498Y-105585820D01*
X181404188Y-105705518D01*
X181391928Y-105830000D01*
X175550990Y-105830000D01*
X175550990Y-92653459D01*
X175569990Y-92557939D01*
X175569990Y-92354061D01*
X175530216Y-92154102D01*
X175452195Y-91965744D01*
X175338927Y-91796226D01*
X175194764Y-91652063D01*
X175025246Y-91538795D01*
X174836888Y-91460774D01*
X174636929Y-91421000D01*
X174433051Y-91421000D01*
X174233092Y-91460774D01*
X174044734Y-91538795D01*
X173875216Y-91652063D01*
X173731053Y-91796226D01*
X173617785Y-91965744D01*
X173539764Y-92154102D01*
X173499990Y-92354061D01*
X173499990Y-92557939D01*
X173518990Y-92653459D01*
X173518990Y-93071586D01*
X173518991Y-93071596D01*
X173518991Y-94866150D01*
X171450000Y-92797160D01*
X171450000Y-88820241D01*
X171605363Y-89052759D01*
X171805241Y-89252637D01*
X172040273Y-89409680D01*
X172301426Y-89517853D01*
X172578665Y-89573000D01*
X172861335Y-89573000D01*
X173138574Y-89517853D01*
X173399727Y-89409680D01*
X173634759Y-89252637D01*
X173834637Y-89052759D01*
X173991680Y-88817727D01*
X174099853Y-88556574D01*
X174155000Y-88279335D01*
X174155000Y-87996665D01*
X176285000Y-87996665D01*
X176285000Y-88279335D01*
X176340147Y-88556574D01*
X176448320Y-88817727D01*
X176605363Y-89052759D01*
X176805241Y-89252637D01*
X177040273Y-89409680D01*
X177301426Y-89517853D01*
X177578665Y-89573000D01*
X177861335Y-89573000D01*
X178138574Y-89517853D01*
X178399727Y-89409680D01*
X178634759Y-89252637D01*
X178834637Y-89052759D01*
X178991680Y-88817727D01*
X179099853Y-88556574D01*
X179155000Y-88279335D01*
X179155000Y-87996665D01*
X179099853Y-87719426D01*
X178991680Y-87458273D01*
X178834637Y-87223241D01*
X178634759Y-87023363D01*
X178399727Y-86866320D01*
X178138574Y-86758147D01*
X177861335Y-86703000D01*
X177578665Y-86703000D01*
X177301426Y-86758147D01*
X177040273Y-86866320D01*
X176805241Y-87023363D01*
X176605363Y-87223241D01*
X176448320Y-87458273D01*
X176340147Y-87719426D01*
X176285000Y-87996665D01*
X174155000Y-87996665D01*
X174099853Y-87719426D01*
X173991680Y-87458273D01*
X173834637Y-87223241D01*
X173634759Y-87023363D01*
X173399727Y-86866320D01*
X173138574Y-86758147D01*
X172861335Y-86703000D01*
X172578665Y-86703000D01*
X172301426Y-86758147D01*
X172040273Y-86866320D01*
X171805241Y-87023363D01*
X171605363Y-87223241D01*
X171450000Y-87455759D01*
X171450000Y-86917902D01*
X171454915Y-86868000D01*
X171435298Y-86668829D01*
X171377202Y-86477313D01*
X171282860Y-86300810D01*
X171187706Y-86184865D01*
X171155896Y-86146104D01*
X171117133Y-86114292D01*
X168676581Y-83673740D01*
X181395000Y-83673740D01*
X181395000Y-83966260D01*
X181452068Y-84253158D01*
X181564010Y-84523411D01*
X181726525Y-84766632D01*
X181933368Y-84973475D01*
X182107760Y-85090000D01*
X181933368Y-85206525D01*
X181726525Y-85413368D01*
X181564010Y-85656589D01*
X181452068Y-85926842D01*
X181395000Y-86213740D01*
X181395000Y-86506260D01*
X181452068Y-86793158D01*
X181564010Y-87063411D01*
X181726525Y-87306632D01*
X181933368Y-87513475D01*
X182176589Y-87675990D01*
X182446842Y-87787932D01*
X182733740Y-87845000D01*
X183026260Y-87845000D01*
X183313158Y-87787932D01*
X183583411Y-87675990D01*
X183826632Y-87513475D01*
X184033475Y-87306632D01*
X184195990Y-87063411D01*
X184307932Y-86793158D01*
X184365000Y-86506260D01*
X184365000Y-86213740D01*
X184307932Y-85926842D01*
X184195990Y-85656589D01*
X184033475Y-85413368D01*
X183826632Y-85206525D01*
X183652240Y-85090000D01*
X183826632Y-84973475D01*
X184033475Y-84766632D01*
X184195990Y-84523411D01*
X184307932Y-84253158D01*
X184365000Y-83966260D01*
X184365000Y-83673740D01*
X184307932Y-83386842D01*
X184195990Y-83116589D01*
X184033475Y-82873368D01*
X183826632Y-82666525D01*
X183644466Y-82544805D01*
X183761355Y-82475178D01*
X183977588Y-82280269D01*
X184151641Y-82046920D01*
X184276825Y-81784099D01*
X184321476Y-81636890D01*
X184200155Y-81407000D01*
X183007000Y-81407000D01*
X183007000Y-81427000D01*
X182753000Y-81427000D01*
X182753000Y-81407000D01*
X181559845Y-81407000D01*
X181438524Y-81636890D01*
X181483175Y-81784099D01*
X181608359Y-82046920D01*
X181782412Y-82280269D01*
X181998645Y-82475178D01*
X182115534Y-82544805D01*
X181933368Y-82666525D01*
X181726525Y-82873368D01*
X181564010Y-83116589D01*
X181452068Y-83386842D01*
X181395000Y-83673740D01*
X168676581Y-83673740D01*
X168536711Y-83533871D01*
X168504895Y-83495103D01*
X168350189Y-83368139D01*
X168173686Y-83273797D01*
X167982170Y-83215701D01*
X167832901Y-83200999D01*
X167782999Y-83196084D01*
X167733097Y-83200999D01*
X161958894Y-83200999D01*
X161909000Y-83196085D01*
X161859106Y-83200999D01*
X161859099Y-83200999D01*
X161729178Y-83213795D01*
X161709829Y-83215701D01*
X161651733Y-83233325D01*
X161518314Y-83273797D01*
X161341811Y-83368139D01*
X161187105Y-83495103D01*
X161155293Y-83533866D01*
X158104869Y-86584291D01*
X158104864Y-86584295D01*
X157986159Y-86703000D01*
X157846665Y-86703000D01*
X157569426Y-86758147D01*
X157308273Y-86866320D01*
X157073241Y-87023363D01*
X156873363Y-87223241D01*
X156718000Y-87455759D01*
X156562637Y-87223241D01*
X156362759Y-87023363D01*
X156127727Y-86866320D01*
X155866574Y-86758147D01*
X155589335Y-86703000D01*
X155306665Y-86703000D01*
X155029426Y-86758147D01*
X154768273Y-86866320D01*
X154533241Y-87023363D01*
X154333363Y-87223241D01*
X154178000Y-87455759D01*
X154022637Y-87223241D01*
X153822759Y-87023363D01*
X153772984Y-86990104D01*
X153834574Y-86977853D01*
X154095727Y-86869680D01*
X154330759Y-86712637D01*
X154530637Y-86512759D01*
X154687680Y-86277727D01*
X154795853Y-86016574D01*
X154851000Y-85739335D01*
X154851000Y-85456665D01*
X154795853Y-85179426D01*
X154687680Y-84918273D01*
X154530637Y-84683241D01*
X154330759Y-84483363D01*
X154095727Y-84326320D01*
X153834574Y-84218147D01*
X153557335Y-84163000D01*
X153274665Y-84163000D01*
X152997426Y-84218147D01*
X152736273Y-84326320D01*
X152501241Y-84483363D01*
X152301363Y-84683241D01*
X152144320Y-84918273D01*
X152036147Y-85179426D01*
X151981000Y-85456665D01*
X151981000Y-85739335D01*
X152036147Y-86016574D01*
X152144320Y-86277727D01*
X152301363Y-86512759D01*
X152501241Y-86712637D01*
X152551016Y-86745896D01*
X152489426Y-86758147D01*
X152228273Y-86866320D01*
X151993241Y-87023363D01*
X151793363Y-87223241D01*
X151638000Y-87455759D01*
X151482637Y-87223241D01*
X151282759Y-87023363D01*
X151047727Y-86866320D01*
X150786574Y-86758147D01*
X150509335Y-86703000D01*
X150226665Y-86703000D01*
X149949426Y-86758147D01*
X149688273Y-86866320D01*
X149453241Y-87023363D01*
X149253363Y-87223241D01*
X149098000Y-87455759D01*
X148942637Y-87223241D01*
X148742759Y-87023363D01*
X148507727Y-86866320D01*
X148246574Y-86758147D01*
X147969335Y-86703000D01*
X147686665Y-86703000D01*
X147409426Y-86758147D01*
X147148273Y-86866320D01*
X146913241Y-87023363D01*
X146713363Y-87223241D01*
X146556320Y-87458273D01*
X146448147Y-87719426D01*
X146393000Y-87996665D01*
X146393000Y-88279335D01*
X146448147Y-88556574D01*
X146556320Y-88817727D01*
X146713363Y-89052759D01*
X146913241Y-89252637D01*
X147148273Y-89409680D01*
X147409426Y-89517853D01*
X147686665Y-89573000D01*
X147969335Y-89573000D01*
X148246574Y-89517853D01*
X148507727Y-89409680D01*
X148742759Y-89252637D01*
X148942637Y-89052759D01*
X149098000Y-88820241D01*
X149253363Y-89052759D01*
X149453241Y-89252637D01*
X149688273Y-89409680D01*
X149949426Y-89517853D01*
X150226665Y-89573000D01*
X150509335Y-89573000D01*
X150786574Y-89517853D01*
X151047727Y-89409680D01*
X151282759Y-89252637D01*
X151482637Y-89052759D01*
X151638000Y-88820241D01*
X151793363Y-89052759D01*
X151993241Y-89252637D01*
X152228273Y-89409680D01*
X152489426Y-89517853D01*
X152766665Y-89573000D01*
X153049335Y-89573000D01*
X153326574Y-89517853D01*
X153587727Y-89409680D01*
X153822759Y-89252637D01*
X154022637Y-89052759D01*
X154178000Y-88820241D01*
X154333363Y-89052759D01*
X154533241Y-89252637D01*
X154768273Y-89409680D01*
X155029426Y-89517853D01*
X155306665Y-89573000D01*
X155589335Y-89573000D01*
X155866574Y-89517853D01*
X156127727Y-89409680D01*
X156362759Y-89252637D01*
X156562637Y-89052759D01*
X156718000Y-88820241D01*
X156873363Y-89052759D01*
X157073241Y-89252637D01*
X157308273Y-89409680D01*
X157569426Y-89517853D01*
X157846665Y-89573000D01*
X158129335Y-89573000D01*
X158406574Y-89517853D01*
X158667727Y-89409680D01*
X158902759Y-89252637D01*
X159102637Y-89052759D01*
X159258000Y-88820241D01*
X159413363Y-89052759D01*
X159613241Y-89252637D01*
X159848273Y-89409680D01*
X160109426Y-89517853D01*
X160386665Y-89573000D01*
X160669335Y-89573000D01*
X160946574Y-89517853D01*
X161038000Y-89479983D01*
X161038000Y-94416017D01*
X160946574Y-94378147D01*
X160669335Y-94323000D01*
X160386665Y-94323000D01*
X160109426Y-94378147D01*
X159848273Y-94486320D01*
X159613241Y-94643363D01*
X159413363Y-94843241D01*
X159258000Y-95075759D01*
X159102637Y-94843241D01*
X158902759Y-94643363D01*
X158667727Y-94486320D01*
X158406574Y-94378147D01*
X158129335Y-94323000D01*
X157846665Y-94323000D01*
X157569426Y-94378147D01*
X157308273Y-94486320D01*
X157073241Y-94643363D01*
X156873363Y-94843241D01*
X156718000Y-95075759D01*
X156562637Y-94843241D01*
X156362759Y-94643363D01*
X156127727Y-94486320D01*
X155866574Y-94378147D01*
X155589335Y-94323000D01*
X155306665Y-94323000D01*
X155029426Y-94378147D01*
X154768273Y-94486320D01*
X154533241Y-94643363D01*
X154333363Y-94843241D01*
X154176320Y-95078273D01*
X154171933Y-95088865D01*
X154060385Y-94902869D01*
X153871414Y-94694481D01*
X153645420Y-94526963D01*
X153391087Y-94406754D01*
X153257039Y-94366096D01*
X153035000Y-94488085D01*
X153035000Y-95631000D01*
X153055000Y-95631000D01*
X153055000Y-95885000D01*
X153035000Y-95885000D01*
X153035000Y-95905000D01*
X152781000Y-95905000D01*
X152781000Y-95885000D01*
X152761000Y-95885000D01*
X152761000Y-95631000D01*
X152781000Y-95631000D01*
X152781000Y-94488085D01*
X152558961Y-94366096D01*
X152424913Y-94406754D01*
X152170580Y-94526963D01*
X151944586Y-94694481D01*
X151755615Y-94902869D01*
X151644067Y-95088865D01*
X151639680Y-95078273D01*
X151482637Y-94843241D01*
X151282759Y-94643363D01*
X151047727Y-94486320D01*
X150786574Y-94378147D01*
X150509335Y-94323000D01*
X150226665Y-94323000D01*
X149949426Y-94378147D01*
X149688273Y-94486320D01*
X149453241Y-94643363D01*
X149254643Y-94841961D01*
X149253812Y-94833518D01*
X149217502Y-94713820D01*
X149158537Y-94603506D01*
X149079185Y-94506815D01*
X148982494Y-94427463D01*
X148872180Y-94368498D01*
X148752482Y-94332188D01*
X148628000Y-94319928D01*
X147028000Y-94319928D01*
X146903518Y-94332188D01*
X146783820Y-94368498D01*
X146673506Y-94427463D01*
X146576815Y-94506815D01*
X146497463Y-94603506D01*
X146438498Y-94713820D01*
X146402188Y-94833518D01*
X146389928Y-94958000D01*
X127660000Y-94958000D01*
X127660000Y-83673740D01*
X128055000Y-83673740D01*
X128055000Y-83966260D01*
X128112068Y-84253158D01*
X128224010Y-84523411D01*
X128386525Y-84766632D01*
X128593368Y-84973475D01*
X128767760Y-85090000D01*
X128593368Y-85206525D01*
X128386525Y-85413368D01*
X128224010Y-85656589D01*
X128112068Y-85926842D01*
X128055000Y-86213740D01*
X128055000Y-86506260D01*
X128112068Y-86793158D01*
X128224010Y-87063411D01*
X128386525Y-87306632D01*
X128593368Y-87513475D01*
X128836589Y-87675990D01*
X129106842Y-87787932D01*
X129393740Y-87845000D01*
X129686260Y-87845000D01*
X129973158Y-87787932D01*
X130243411Y-87675990D01*
X130486632Y-87513475D01*
X130693475Y-87306632D01*
X130855990Y-87063411D01*
X130967932Y-86793158D01*
X131025000Y-86506260D01*
X131025000Y-86213740D01*
X130967932Y-85926842D01*
X130855990Y-85656589D01*
X130693475Y-85413368D01*
X130486632Y-85206525D01*
X130312240Y-85090000D01*
X130486632Y-84973475D01*
X130693475Y-84766632D01*
X130855990Y-84523411D01*
X130967932Y-84253158D01*
X131025000Y-83966260D01*
X131025000Y-83673740D01*
X130967932Y-83386842D01*
X130855990Y-83116589D01*
X130693475Y-82873368D01*
X130486632Y-82666525D01*
X130304466Y-82544805D01*
X130421355Y-82475178D01*
X130637588Y-82280269D01*
X130811641Y-82046920D01*
X130936825Y-81784099D01*
X130981476Y-81636890D01*
X130957101Y-81590702D01*
X152602903Y-81590702D01*
X152674486Y-81834671D01*
X152929996Y-81955571D01*
X153204184Y-82024300D01*
X153486512Y-82038217D01*
X153766130Y-81996787D01*
X154032292Y-81901603D01*
X154157514Y-81834671D01*
X154229097Y-81590702D01*
X164794903Y-81590702D01*
X164866486Y-81834671D01*
X165121996Y-81955571D01*
X165396184Y-82024300D01*
X165678512Y-82038217D01*
X165958130Y-81996787D01*
X166224292Y-81901603D01*
X166349514Y-81834671D01*
X166421097Y-81590702D01*
X165608000Y-80777605D01*
X164794903Y-81590702D01*
X154229097Y-81590702D01*
X153416000Y-80777605D01*
X152602903Y-81590702D01*
X130957101Y-81590702D01*
X130860155Y-81407000D01*
X129667000Y-81407000D01*
X129667000Y-81427000D01*
X129413000Y-81427000D01*
X129413000Y-81407000D01*
X128219845Y-81407000D01*
X128098524Y-81636890D01*
X128143175Y-81784099D01*
X128268359Y-82046920D01*
X128442412Y-82280269D01*
X128658645Y-82475178D01*
X128775534Y-82544805D01*
X128593368Y-82666525D01*
X128386525Y-82873368D01*
X128224010Y-83116589D01*
X128112068Y-83386842D01*
X128055000Y-83673740D01*
X127660000Y-83673740D01*
X127660000Y-79590000D01*
X128051928Y-79590000D01*
X128064188Y-79714482D01*
X128100498Y-79834180D01*
X128159463Y-79944494D01*
X128238815Y-80041185D01*
X128335506Y-80120537D01*
X128445820Y-80179502D01*
X128526466Y-80203966D01*
X128442412Y-80279731D01*
X128268359Y-80513080D01*
X128143175Y-80775901D01*
X128098524Y-80923110D01*
X128219845Y-81153000D01*
X129413000Y-81153000D01*
X129413000Y-78867000D01*
X129667000Y-78867000D01*
X129667000Y-81153000D01*
X130860155Y-81153000D01*
X130981476Y-80923110D01*
X130936825Y-80775901D01*
X130885675Y-80668512D01*
X151975783Y-80668512D01*
X152017213Y-80948130D01*
X152112397Y-81214292D01*
X152179329Y-81339514D01*
X152423298Y-81411097D01*
X153236395Y-80598000D01*
X153595605Y-80598000D01*
X154408702Y-81411097D01*
X154652671Y-81339514D01*
X154773571Y-81084004D01*
X154842300Y-80809816D01*
X154849265Y-80668512D01*
X164167783Y-80668512D01*
X164209213Y-80948130D01*
X164304397Y-81214292D01*
X164371329Y-81339514D01*
X164615298Y-81411097D01*
X165428395Y-80598000D01*
X165787605Y-80598000D01*
X166600702Y-81411097D01*
X166844671Y-81339514D01*
X166965571Y-81084004D01*
X167034300Y-80809816D01*
X167048217Y-80527488D01*
X167006787Y-80247870D01*
X166911603Y-79981708D01*
X166844671Y-79856486D01*
X166600702Y-79784903D01*
X165787605Y-80598000D01*
X165428395Y-80598000D01*
X164615298Y-79784903D01*
X164371329Y-79856486D01*
X164250429Y-80111996D01*
X164181700Y-80386184D01*
X164167783Y-80668512D01*
X154849265Y-80668512D01*
X154856217Y-80527488D01*
X154814787Y-80247870D01*
X154719603Y-79981708D01*
X154652671Y-79856486D01*
X154408702Y-79784903D01*
X153595605Y-80598000D01*
X153236395Y-80598000D01*
X152423298Y-79784903D01*
X152179329Y-79856486D01*
X152058429Y-80111996D01*
X151989700Y-80386184D01*
X151975783Y-80668512D01*
X130885675Y-80668512D01*
X130811641Y-80513080D01*
X130637588Y-80279731D01*
X130553534Y-80203966D01*
X130634180Y-80179502D01*
X130744494Y-80120537D01*
X130841185Y-80041185D01*
X130920537Y-79944494D01*
X130979502Y-79834180D01*
X131015812Y-79714482D01*
X131026565Y-79605298D01*
X152602903Y-79605298D01*
X153416000Y-80418395D01*
X154229097Y-79605298D01*
X164794903Y-79605298D01*
X165608000Y-80418395D01*
X166421097Y-79605298D01*
X166416609Y-79590000D01*
X181391928Y-79590000D01*
X181404188Y-79714482D01*
X181440498Y-79834180D01*
X181499463Y-79944494D01*
X181578815Y-80041185D01*
X181675506Y-80120537D01*
X181785820Y-80179502D01*
X181866466Y-80203966D01*
X181782412Y-80279731D01*
X181608359Y-80513080D01*
X181483175Y-80775901D01*
X181438524Y-80923110D01*
X181559845Y-81153000D01*
X182753000Y-81153000D01*
X182753000Y-78867000D01*
X183007000Y-78867000D01*
X183007000Y-81153000D01*
X184200155Y-81153000D01*
X184321476Y-80923110D01*
X184276825Y-80775901D01*
X184151641Y-80513080D01*
X183977588Y-80279731D01*
X183893534Y-80203966D01*
X183974180Y-80179502D01*
X184084494Y-80120537D01*
X184181185Y-80041185D01*
X184260537Y-79944494D01*
X184319502Y-79834180D01*
X184355812Y-79714482D01*
X184368072Y-79590000D01*
X184365000Y-79025750D01*
X184206250Y-78867000D01*
X183007000Y-78867000D01*
X182753000Y-78867000D01*
X181553750Y-78867000D01*
X181395000Y-79025750D01*
X181391928Y-79590000D01*
X166416609Y-79590000D01*
X166349514Y-79361329D01*
X166094004Y-79240429D01*
X165819816Y-79171700D01*
X165537488Y-79157783D01*
X165257870Y-79199213D01*
X164991708Y-79294397D01*
X164866486Y-79361329D01*
X164794903Y-79605298D01*
X154229097Y-79605298D01*
X154157514Y-79361329D01*
X153902004Y-79240429D01*
X153627816Y-79171700D01*
X153345488Y-79157783D01*
X153065870Y-79199213D01*
X152799708Y-79294397D01*
X152674486Y-79361329D01*
X152602903Y-79605298D01*
X131026565Y-79605298D01*
X131028072Y-79590000D01*
X131025000Y-79025750D01*
X130866250Y-78867000D01*
X129667000Y-78867000D01*
X129413000Y-78867000D01*
X128213750Y-78867000D01*
X128055000Y-79025750D01*
X128051928Y-79590000D01*
X127660000Y-79590000D01*
X127660000Y-77890000D01*
X128051928Y-77890000D01*
X128055000Y-78454250D01*
X128213750Y-78613000D01*
X129413000Y-78613000D01*
X129413000Y-77413750D01*
X129667000Y-77413750D01*
X129667000Y-78613000D01*
X130866250Y-78613000D01*
X131025000Y-78454250D01*
X131028072Y-77890000D01*
X181391928Y-77890000D01*
X181395000Y-78454250D01*
X181553750Y-78613000D01*
X182753000Y-78613000D01*
X182753000Y-77413750D01*
X183007000Y-77413750D01*
X183007000Y-78613000D01*
X184206250Y-78613000D01*
X184365000Y-78454250D01*
X184368072Y-77890000D01*
X184355812Y-77765518D01*
X184319502Y-77645820D01*
X184260537Y-77535506D01*
X184181185Y-77438815D01*
X184084494Y-77359463D01*
X183974180Y-77300498D01*
X183854482Y-77264188D01*
X183730000Y-77251928D01*
X183165750Y-77255000D01*
X183007000Y-77413750D01*
X182753000Y-77413750D01*
X182594250Y-77255000D01*
X182030000Y-77251928D01*
X181905518Y-77264188D01*
X181785820Y-77300498D01*
X181675506Y-77359463D01*
X181578815Y-77438815D01*
X181499463Y-77535506D01*
X181440498Y-77645820D01*
X181404188Y-77765518D01*
X181391928Y-77890000D01*
X131028072Y-77890000D01*
X131015812Y-77765518D01*
X130979502Y-77645820D01*
X130920537Y-77535506D01*
X130841185Y-77438815D01*
X130744494Y-77359463D01*
X130634180Y-77300498D01*
X130514482Y-77264188D01*
X130390000Y-77251928D01*
X129825750Y-77255000D01*
X129667000Y-77413750D01*
X129413000Y-77413750D01*
X129254250Y-77255000D01*
X128690000Y-77251928D01*
X128565518Y-77264188D01*
X128445820Y-77300498D01*
X128335506Y-77359463D01*
X128238815Y-77438815D01*
X128159463Y-77535506D01*
X128100498Y-77645820D01*
X128064188Y-77765518D01*
X128051928Y-77890000D01*
X127660000Y-77890000D01*
X127660000Y-76860000D01*
X184760000Y-76860000D01*
X184760001Y-126340000D01*
G37*
X184760001Y-126340000D02*
X127660000Y-126340000D01*
X127660000Y-121773740D01*
X128055000Y-121773740D01*
X128055000Y-122066260D01*
X128112068Y-122353158D01*
X128224010Y-122623411D01*
X128386525Y-122866632D01*
X128593368Y-123073475D01*
X128767760Y-123190000D01*
X128593368Y-123306525D01*
X128386525Y-123513368D01*
X128224010Y-123756589D01*
X128112068Y-124026842D01*
X128055000Y-124313740D01*
X128055000Y-124606260D01*
X128112068Y-124893158D01*
X128224010Y-125163411D01*
X128386525Y-125406632D01*
X128593368Y-125613475D01*
X128836589Y-125775990D01*
X129106842Y-125887932D01*
X129393740Y-125945000D01*
X129686260Y-125945000D01*
X129973158Y-125887932D01*
X130243411Y-125775990D01*
X130486632Y-125613475D01*
X130693475Y-125406632D01*
X130855990Y-125163411D01*
X130967932Y-124893158D01*
X131025000Y-124606260D01*
X131025000Y-124313740D01*
X130967932Y-124026842D01*
X130855990Y-123756589D01*
X130693475Y-123513368D01*
X130670667Y-123490560D01*
X135134045Y-123490560D01*
X135195932Y-123726368D01*
X135437790Y-123839266D01*
X135697027Y-123902811D01*
X135963680Y-123914561D01*
X136227501Y-123874063D01*
X136478353Y-123782875D01*
X136584068Y-123726368D01*
X136645955Y-123490560D01*
X135890000Y-122734605D01*
X135134045Y-123490560D01*
X130670667Y-123490560D01*
X130486632Y-123306525D01*
X130312240Y-123190000D01*
X130486632Y-123073475D01*
X130693475Y-122866632D01*
X130852469Y-122628680D01*
X134530439Y-122628680D01*
X134570937Y-122892501D01*
X134662125Y-123143353D01*
X134718632Y-123249068D01*
X134954440Y-123310955D01*
X135710395Y-122555000D01*
X136069605Y-122555000D01*
X136825560Y-123310955D01*
X137061368Y-123249068D01*
X137174266Y-123007210D01*
X137237811Y-122747973D01*
X137249561Y-122481320D01*
X137209063Y-122217499D01*
X137117875Y-121966647D01*
X137061368Y-121860932D01*
X136825560Y-121799045D01*
X136069605Y-122555000D01*
X135710395Y-122555000D01*
X134954440Y-121799045D01*
X134718632Y-121860932D01*
X134605734Y-122102790D01*
X134542189Y-122362027D01*
X134530439Y-122628680D01*
X130852469Y-122628680D01*
X130855990Y-122623411D01*
X130967932Y-122353158D01*
X131025000Y-122066260D01*
X131025000Y-121773740D01*
X130967932Y-121486842D01*
X130855990Y-121216589D01*
X130693475Y-120973368D01*
X130486632Y-120766525D01*
X130304466Y-120644805D01*
X130421355Y-120575178D01*
X130637588Y-120380269D01*
X130811641Y-120146920D01*
X130936825Y-119884099D01*
X130981476Y-119736890D01*
X130860155Y-119507000D01*
X129667000Y-119507000D01*
X129667000Y-119527000D01*
X129413000Y-119527000D01*
X129413000Y-119507000D01*
X128219845Y-119507000D01*
X128098524Y-119736890D01*
X128143175Y-119884099D01*
X128268359Y-120146920D01*
X128442412Y-120380269D01*
X128658645Y-120575178D01*
X128775534Y-120644805D01*
X128593368Y-120766525D01*
X128386525Y-120973368D01*
X128224010Y-121216589D01*
X128112068Y-121486842D01*
X128055000Y-121773740D01*
X127660000Y-121773740D01*
X127660000Y-117690000D01*
X128051928Y-117690000D01*
X128064188Y-117814482D01*
X128100498Y-117934180D01*
X128159463Y-118044494D01*
X128238815Y-118141185D01*
X128335506Y-118220537D01*
X128445820Y-118279502D01*
X128526466Y-118303966D01*
X128442412Y-118379731D01*
X128268359Y-118613080D01*
X128143175Y-118875901D01*
X128098524Y-119023110D01*
X128219845Y-119253000D01*
X129413000Y-119253000D01*
X129413000Y-116967000D01*
X129667000Y-116967000D01*
X129667000Y-119253000D01*
X130860155Y-119253000D01*
X130981476Y-119023110D01*
X130936825Y-118875901D01*
X130811641Y-118613080D01*
X130637588Y-118379731D01*
X130553534Y-118303966D01*
X130634180Y-118279502D01*
X130744494Y-118220537D01*
X130841185Y-118141185D01*
X130920537Y-118044494D01*
X130979502Y-117934180D01*
X131015812Y-117814482D01*
X131028072Y-117690000D01*
X131026175Y-117341544D01*
X134535000Y-117341544D01*
X134535000Y-117608456D01*
X134587072Y-117870239D01*
X134689215Y-118116833D01*
X134837503Y-118338762D01*
X135026238Y-118527497D01*
X135248167Y-118675785D01*
X135415266Y-118745000D01*
X135248167Y-118814215D01*
X135026238Y-118962503D01*
X134837503Y-119151238D01*
X134689215Y-119373167D01*
X134587072Y-119619761D01*
X134535000Y-119881544D01*
X134535000Y-120148456D01*
X134587072Y-120410239D01*
X134689215Y-120656833D01*
X134837503Y-120878762D01*
X135026238Y-121067497D01*
X135248167Y-121215785D01*
X135416324Y-121285438D01*
X135301647Y-121327125D01*
X135195932Y-121383632D01*
X135134045Y-121619440D01*
X135890000Y-122375395D01*
X136645955Y-121619440D01*
X136584068Y-121383632D01*
X136368993Y-121283236D01*
X136531833Y-121215785D01*
X136753762Y-121067497D01*
X136942497Y-120878762D01*
X137090785Y-120656833D01*
X137192928Y-120410239D01*
X137245000Y-120148456D01*
X137245000Y-119881544D01*
X141520000Y-119881544D01*
X141520000Y-120148456D01*
X141572072Y-120410239D01*
X141674215Y-120656833D01*
X141822503Y-120878762D01*
X142011238Y-121067497D01*
X142233167Y-121215785D01*
X142400266Y-121285000D01*
X142233167Y-121354215D01*
X142011238Y-121502503D01*
X141822503Y-121691238D01*
X141674215Y-121913167D01*
X141572072Y-122159761D01*
X141520000Y-122421544D01*
X141520000Y-122688456D01*
X141572072Y-122950239D01*
X141674215Y-123196833D01*
X141822503Y-123418762D01*
X142011238Y-123607497D01*
X142233167Y-123755785D01*
X142479761Y-123857928D01*
X142741544Y-123910000D01*
X143008456Y-123910000D01*
X143270239Y-123857928D01*
X143516833Y-123755785D01*
X143738762Y-123607497D01*
X143927497Y-123418762D01*
X144075785Y-123196833D01*
X144177928Y-122950239D01*
X144230000Y-122688456D01*
X144230000Y-122421544D01*
X144177928Y-122159761D01*
X144075785Y-121913167D01*
X143927497Y-121691238D01*
X143738762Y-121502503D01*
X143516833Y-121354215D01*
X143349734Y-121285000D01*
X143516833Y-121215785D01*
X143738762Y-121067497D01*
X143927497Y-120878762D01*
X144075785Y-120656833D01*
X144177928Y-120410239D01*
X144230000Y-120148456D01*
X144230000Y-119881544D01*
X144177928Y-119619761D01*
X144075785Y-119373167D01*
X143927497Y-119151238D01*
X143738762Y-118962503D01*
X143516833Y-118814215D01*
X143348676Y-118744562D01*
X143463353Y-118702875D01*
X143569068Y-118646368D01*
X143630955Y-118410560D01*
X142875000Y-117654605D01*
X142119045Y-118410560D01*
X142180932Y-118646368D01*
X142396007Y-118746764D01*
X142233167Y-118814215D01*
X142011238Y-118962503D01*
X141822503Y-119151238D01*
X141674215Y-119373167D01*
X141572072Y-119619761D01*
X141520000Y-119881544D01*
X137245000Y-119881544D01*
X137192928Y-119619761D01*
X137090785Y-119373167D01*
X136942497Y-119151238D01*
X136753762Y-118962503D01*
X136531833Y-118814215D01*
X136364734Y-118745000D01*
X136531833Y-118675785D01*
X136753762Y-118527497D01*
X136942497Y-118338762D01*
X137090785Y-118116833D01*
X137192928Y-117870239D01*
X137245000Y-117608456D01*
X137245000Y-117548680D01*
X141515439Y-117548680D01*
X141555937Y-117812501D01*
X141647125Y-118063353D01*
X141703632Y-118169068D01*
X141939440Y-118230955D01*
X142695395Y-117475000D01*
X143054605Y-117475000D01*
X143810560Y-118230955D01*
X144046368Y-118169068D01*
X144159266Y-117927210D01*
X144222811Y-117667973D01*
X144234561Y-117401320D01*
X144194063Y-117137499D01*
X144102875Y-116886647D01*
X144046368Y-116780932D01*
X143810560Y-116719045D01*
X143054605Y-117475000D01*
X142695395Y-117475000D01*
X141939440Y-116719045D01*
X141703632Y-116780932D01*
X141590734Y-117022790D01*
X141527189Y-117282027D01*
X141515439Y-117548680D01*
X137245000Y-117548680D01*
X137245000Y-117341544D01*
X137192928Y-117079761D01*
X137090785Y-116833167D01*
X136942497Y-116611238D01*
X136870699Y-116539440D01*
X142119045Y-116539440D01*
X142875000Y-117295395D01*
X143630955Y-116539440D01*
X143569068Y-116303632D01*
X143327210Y-116190734D01*
X143067973Y-116127189D01*
X142801320Y-116115439D01*
X142537499Y-116155937D01*
X142286647Y-116247125D01*
X142180932Y-116303632D01*
X142119045Y-116539440D01*
X136870699Y-116539440D01*
X136753762Y-116422503D01*
X136531833Y-116274215D01*
X136285239Y-116172072D01*
X136023456Y-116120000D01*
X135756544Y-116120000D01*
X135494761Y-116172072D01*
X135248167Y-116274215D01*
X135026238Y-116422503D01*
X134837503Y-116611238D01*
X134689215Y-116833167D01*
X134587072Y-117079761D01*
X134535000Y-117341544D01*
X131026175Y-117341544D01*
X131025000Y-117125750D01*
X130866250Y-116967000D01*
X129667000Y-116967000D01*
X129413000Y-116967000D01*
X128213750Y-116967000D01*
X128055000Y-117125750D01*
X128051928Y-117690000D01*
X127660000Y-117690000D01*
X127660000Y-115990000D01*
X128051928Y-115990000D01*
X128055000Y-116554250D01*
X128213750Y-116713000D01*
X129413000Y-116713000D01*
X129413000Y-115513750D01*
X129667000Y-115513750D01*
X129667000Y-116713000D01*
X130866250Y-116713000D01*
X131025000Y-116554250D01*
X131028072Y-115990000D01*
X131015812Y-115865518D01*
X130979502Y-115745820D01*
X130920537Y-115635506D01*
X130841185Y-115538815D01*
X130744494Y-115459463D01*
X130634180Y-115400498D01*
X130514482Y-115364188D01*
X130390000Y-115351928D01*
X129825750Y-115355000D01*
X129667000Y-115513750D01*
X129413000Y-115513750D01*
X129254250Y-115355000D01*
X128690000Y-115351928D01*
X128565518Y-115364188D01*
X128445820Y-115400498D01*
X128335506Y-115459463D01*
X128238815Y-115538815D01*
X128159463Y-115635506D01*
X128100498Y-115745820D01*
X128064188Y-115865518D01*
X128051928Y-115990000D01*
X127660000Y-115990000D01*
X127660000Y-104290702D01*
X152094903Y-104290702D01*
X152166486Y-104534671D01*
X152421996Y-104655571D01*
X152696184Y-104724300D01*
X152978512Y-104738217D01*
X153258130Y-104696787D01*
X153524292Y-104601603D01*
X153649514Y-104534671D01*
X153721097Y-104290702D01*
X157174903Y-104290702D01*
X157246486Y-104534671D01*
X157501996Y-104655571D01*
X157776184Y-104724300D01*
X158058512Y-104738217D01*
X158338130Y-104696787D01*
X158604292Y-104601603D01*
X158729514Y-104534671D01*
X158801097Y-104290702D01*
X157988000Y-103477605D01*
X157174903Y-104290702D01*
X153721097Y-104290702D01*
X152908000Y-103477605D01*
X152094903Y-104290702D01*
X127660000Y-104290702D01*
X127660000Y-103368512D01*
X151467783Y-103368512D01*
X151509213Y-103648130D01*
X151604397Y-103914292D01*
X151671329Y-104039514D01*
X151915298Y-104111097D01*
X152728395Y-103298000D01*
X153087605Y-103298000D01*
X153900702Y-104111097D01*
X154144671Y-104039514D01*
X154265571Y-103784004D01*
X154334300Y-103509816D01*
X154341265Y-103368512D01*
X156547783Y-103368512D01*
X156589213Y-103648130D01*
X156684397Y-103914292D01*
X156751329Y-104039514D01*
X156995298Y-104111097D01*
X157808395Y-103298000D01*
X158167605Y-103298000D01*
X158980702Y-104111097D01*
X159224671Y-104039514D01*
X159345571Y-103784004D01*
X159414300Y-103509816D01*
X159428217Y-103227488D01*
X159386787Y-102947870D01*
X159291603Y-102681708D01*
X159224671Y-102556486D01*
X158980702Y-102484903D01*
X158167605Y-103298000D01*
X157808395Y-103298000D01*
X156995298Y-102484903D01*
X156751329Y-102556486D01*
X156630429Y-102811996D01*
X156561700Y-103086184D01*
X156547783Y-103368512D01*
X154341265Y-103368512D01*
X154348217Y-103227488D01*
X154306787Y-102947870D01*
X154211603Y-102681708D01*
X154144671Y-102556486D01*
X153900702Y-102484903D01*
X153087605Y-103298000D01*
X152728395Y-103298000D01*
X151915298Y-102484903D01*
X151671329Y-102556486D01*
X151550429Y-102811996D01*
X151481700Y-103086184D01*
X151467783Y-103368512D01*
X127660000Y-103368512D01*
X127660000Y-102305298D01*
X152094903Y-102305298D01*
X152908000Y-103118395D01*
X153721097Y-102305298D01*
X157174903Y-102305298D01*
X157988000Y-103118395D01*
X158801097Y-102305298D01*
X158729514Y-102061329D01*
X158474004Y-101940429D01*
X158199816Y-101871700D01*
X157917488Y-101857783D01*
X157637870Y-101899213D01*
X157371708Y-101994397D01*
X157246486Y-102061329D01*
X157174903Y-102305298D01*
X153721097Y-102305298D01*
X153649514Y-102061329D01*
X153394004Y-101940429D01*
X153119816Y-101871700D01*
X152837488Y-101857783D01*
X152557870Y-101899213D01*
X152291708Y-101994397D01*
X152166486Y-102061329D01*
X152094903Y-102305298D01*
X127660000Y-102305298D01*
X127660000Y-94958000D01*
X146389928Y-94958000D01*
X146389928Y-96558000D01*
X146402188Y-96682482D01*
X146438498Y-96802180D01*
X146497463Y-96912494D01*
X146576815Y-97009185D01*
X146673506Y-97088537D01*
X146783820Y-97147502D01*
X146903518Y-97183812D01*
X147028000Y-97196072D01*
X148628000Y-97196072D01*
X148752482Y-97183812D01*
X148872180Y-97147502D01*
X148982494Y-97088537D01*
X149079185Y-97009185D01*
X149158537Y-96912494D01*
X149217502Y-96802180D01*
X149253812Y-96682482D01*
X149254643Y-96674039D01*
X149453241Y-96872637D01*
X149688273Y-97029680D01*
X149949426Y-97137853D01*
X150226665Y-97193000D01*
X150509335Y-97193000D01*
X150786574Y-97137853D01*
X151047727Y-97029680D01*
X151282759Y-96872637D01*
X151482637Y-96672759D01*
X151639680Y-96437727D01*
X151644067Y-96427135D01*
X151755615Y-96613131D01*
X151944586Y-96821519D01*
X152170580Y-96989037D01*
X152239565Y-97021643D01*
X152228273Y-97026320D01*
X151993241Y-97183363D01*
X151793363Y-97383241D01*
X151636320Y-97618273D01*
X151528147Y-97879426D01*
X151473000Y-98156665D01*
X151473000Y-98439335D01*
X151528147Y-98716574D01*
X151636320Y-98977727D01*
X151793363Y-99212759D01*
X151993241Y-99412637D01*
X152228273Y-99569680D01*
X152489426Y-99677853D01*
X152766665Y-99733000D01*
X153049335Y-99733000D01*
X153326574Y-99677853D01*
X153587727Y-99569680D01*
X153822759Y-99412637D01*
X154022637Y-99212759D01*
X154179680Y-98977727D01*
X154287853Y-98716574D01*
X154343000Y-98439335D01*
X154343000Y-98156665D01*
X154287853Y-97879426D01*
X154179680Y-97618273D01*
X154022637Y-97383241D01*
X153822759Y-97183363D01*
X153587727Y-97026320D01*
X153576435Y-97021643D01*
X153645420Y-96989037D01*
X153871414Y-96821519D01*
X154060385Y-96613131D01*
X154171933Y-96427135D01*
X154176320Y-96437727D01*
X154333363Y-96672759D01*
X154533241Y-96872637D01*
X154768273Y-97029680D01*
X155029426Y-97137853D01*
X155306665Y-97193000D01*
X155589335Y-97193000D01*
X155866574Y-97137853D01*
X156127727Y-97029680D01*
X156362759Y-96872637D01*
X156562637Y-96672759D01*
X156718000Y-96440241D01*
X156873363Y-96672759D01*
X157073241Y-96872637D01*
X157305759Y-97028000D01*
X157073241Y-97183363D01*
X156873363Y-97383241D01*
X156716320Y-97618273D01*
X156608147Y-97879426D01*
X156553000Y-98156665D01*
X156553000Y-98439335D01*
X156608147Y-98716574D01*
X156716320Y-98977727D01*
X156873363Y-99212759D01*
X157073241Y-99412637D01*
X157308273Y-99569680D01*
X157569426Y-99677853D01*
X157846665Y-99733000D01*
X158129335Y-99733000D01*
X158406574Y-99677853D01*
X158667727Y-99569680D01*
X158902759Y-99412637D01*
X159102637Y-99212759D01*
X159259680Y-98977727D01*
X159367853Y-98716574D01*
X159423000Y-98439335D01*
X159423000Y-98156665D01*
X159367853Y-97879426D01*
X159259680Y-97618273D01*
X159102637Y-97383241D01*
X158902759Y-97183363D01*
X158670241Y-97028000D01*
X158902759Y-96872637D01*
X159102637Y-96672759D01*
X159258000Y-96440241D01*
X159413363Y-96672759D01*
X159613241Y-96872637D01*
X159848273Y-97029680D01*
X160109426Y-97137853D01*
X160386665Y-97193000D01*
X160669335Y-97193000D01*
X160946574Y-97137853D01*
X161038000Y-97099983D01*
X161038001Y-107381196D01*
X158202199Y-110217000D01*
X158140061Y-110217000D01*
X157940102Y-110256774D01*
X157751744Y-110334795D01*
X157582226Y-110448063D01*
X157438063Y-110592226D01*
X157324795Y-110761744D01*
X157246774Y-110950102D01*
X157207000Y-111150061D01*
X157207000Y-111353939D01*
X157246774Y-111553898D01*
X157324795Y-111742256D01*
X157438063Y-111911774D01*
X157582226Y-112055937D01*
X157751744Y-112169205D01*
X157940102Y-112247226D01*
X158140061Y-112287000D01*
X158343939Y-112287000D01*
X158543898Y-112247226D01*
X158732256Y-112169205D01*
X158901774Y-112055937D01*
X159045937Y-111911774D01*
X159159205Y-111742256D01*
X159237226Y-111553898D01*
X159277000Y-111353939D01*
X159277000Y-111291801D01*
X162309008Y-108259795D01*
X162338001Y-108236001D01*
X162361795Y-108207008D01*
X162361799Y-108207004D01*
X162400209Y-108160201D01*
X162468273Y-108205680D01*
X162729426Y-108313853D01*
X163006665Y-108369000D01*
X163289335Y-108369000D01*
X163566574Y-108313853D01*
X163827727Y-108205680D01*
X164062759Y-108048637D01*
X164262637Y-107848759D01*
X164419680Y-107613727D01*
X164527853Y-107352574D01*
X164583000Y-107075335D01*
X164583000Y-106792665D01*
X166713000Y-106792665D01*
X166713000Y-107075335D01*
X166768147Y-107352574D01*
X166876320Y-107613727D01*
X167033363Y-107848759D01*
X167233241Y-108048637D01*
X167468273Y-108205680D01*
X167729426Y-108313853D01*
X168006665Y-108369000D01*
X168289335Y-108369000D01*
X168566574Y-108313853D01*
X168827727Y-108205680D01*
X169062759Y-108048637D01*
X169262637Y-107848759D01*
X169419680Y-107613727D01*
X169527853Y-107352574D01*
X169583000Y-107075335D01*
X169583000Y-106792665D01*
X169527853Y-106515426D01*
X169419680Y-106254273D01*
X169262637Y-106019241D01*
X169062759Y-105819363D01*
X168827727Y-105662320D01*
X168566574Y-105554147D01*
X168289335Y-105499000D01*
X168006665Y-105499000D01*
X167729426Y-105554147D01*
X167468273Y-105662320D01*
X167233241Y-105819363D01*
X167033363Y-106019241D01*
X166876320Y-106254273D01*
X166768147Y-106515426D01*
X166713000Y-106792665D01*
X164583000Y-106792665D01*
X164527853Y-106515426D01*
X164419680Y-106254273D01*
X164262637Y-106019241D01*
X164062759Y-105819363D01*
X163827727Y-105662320D01*
X163566574Y-105554147D01*
X163289335Y-105499000D01*
X163006665Y-105499000D01*
X162729426Y-105554147D01*
X162558000Y-105625154D01*
X162558000Y-97099983D01*
X162649426Y-97137853D01*
X162926665Y-97193000D01*
X163209335Y-97193000D01*
X163486574Y-97137853D01*
X163747727Y-97029680D01*
X163982759Y-96872637D01*
X164182637Y-96672759D01*
X164338000Y-96440241D01*
X164493363Y-96672759D01*
X164693241Y-96872637D01*
X164928273Y-97029680D01*
X165189426Y-97137853D01*
X165466665Y-97193000D01*
X165749335Y-97193000D01*
X166026574Y-97137853D01*
X166287727Y-97029680D01*
X166522759Y-96872637D01*
X166722637Y-96672759D01*
X166878000Y-96440241D01*
X167033363Y-96672759D01*
X167233241Y-96872637D01*
X167468273Y-97029680D01*
X167729426Y-97137853D01*
X168006665Y-97193000D01*
X168289335Y-97193000D01*
X168566574Y-97137853D01*
X168827727Y-97029680D01*
X169062759Y-96872637D01*
X169262637Y-96672759D01*
X169419680Y-96437727D01*
X169527853Y-96176574D01*
X169583000Y-95899335D01*
X169583000Y-95616665D01*
X169527853Y-95339426D01*
X169419680Y-95078273D01*
X169262637Y-94843241D01*
X169062759Y-94643363D01*
X168827727Y-94486320D01*
X168566574Y-94378147D01*
X168289335Y-94323000D01*
X168006665Y-94323000D01*
X167729426Y-94378147D01*
X167468273Y-94486320D01*
X167233241Y-94643363D01*
X167033363Y-94843241D01*
X166878000Y-95075759D01*
X166722637Y-94843241D01*
X166522759Y-94643363D01*
X166287727Y-94486320D01*
X166026574Y-94378147D01*
X165749335Y-94323000D01*
X165466665Y-94323000D01*
X165189426Y-94378147D01*
X164928273Y-94486320D01*
X164693241Y-94643363D01*
X164493363Y-94843241D01*
X164338000Y-95075759D01*
X164182637Y-94843241D01*
X163982759Y-94643363D01*
X163747727Y-94486320D01*
X163486574Y-94378147D01*
X163209335Y-94323000D01*
X162926665Y-94323000D01*
X162649426Y-94378147D01*
X162558000Y-94416017D01*
X162558000Y-89722801D01*
X162744114Y-89536688D01*
X162926665Y-89573000D01*
X163209335Y-89573000D01*
X163486574Y-89517853D01*
X163747727Y-89409680D01*
X163982759Y-89252637D01*
X164182637Y-89052759D01*
X164338000Y-88820241D01*
X164493363Y-89052759D01*
X164693241Y-89252637D01*
X164928273Y-89409680D01*
X165189426Y-89517853D01*
X165466665Y-89573000D01*
X165749335Y-89573000D01*
X166026574Y-89517853D01*
X166287727Y-89409680D01*
X166522759Y-89252637D01*
X166722637Y-89052759D01*
X166878000Y-88820241D01*
X167033363Y-89052759D01*
X167233241Y-89252637D01*
X167468273Y-89409680D01*
X167729426Y-89517853D01*
X168006665Y-89573000D01*
X168289335Y-89573000D01*
X168566574Y-89517853D01*
X168827727Y-89409680D01*
X169062759Y-89252637D01*
X169262637Y-89052759D01*
X169418001Y-88820240D01*
X169418000Y-93168098D01*
X169413085Y-93218000D01*
X169418000Y-93267901D01*
X169432702Y-93417170D01*
X169490798Y-93608686D01*
X169585140Y-93785190D01*
X169712104Y-93939896D01*
X169750872Y-93971712D01*
X172212001Y-96432842D01*
X172212000Y-110490000D01*
X164789459Y-110490000D01*
X164693939Y-110471000D01*
X164490061Y-110471000D01*
X164290102Y-110510774D01*
X164101744Y-110588795D01*
X163957000Y-110685510D01*
X163812256Y-110588795D01*
X163623898Y-110510774D01*
X163423939Y-110471000D01*
X163220061Y-110471000D01*
X163020102Y-110510774D01*
X162831744Y-110588795D01*
X162662226Y-110702063D01*
X162518063Y-110846226D01*
X162404795Y-111015744D01*
X162326774Y-111204102D01*
X162287000Y-111404061D01*
X162287000Y-111607939D01*
X162326774Y-111807898D01*
X162404795Y-111996256D01*
X162518063Y-112165774D01*
X162662226Y-112309937D01*
X162831744Y-112423205D01*
X163020102Y-112501226D01*
X163220061Y-112541000D01*
X163423939Y-112541000D01*
X163623898Y-112501226D01*
X163812256Y-112423205D01*
X163957000Y-112326490D01*
X164101744Y-112423205D01*
X164290102Y-112501226D01*
X164490061Y-112541000D01*
X164693939Y-112541000D01*
X164789459Y-112522000D01*
X172212000Y-112522000D01*
X172212000Y-113488098D01*
X172207085Y-113538000D01*
X172212000Y-113587901D01*
X172226702Y-113737170D01*
X172284798Y-113928686D01*
X172379140Y-114105190D01*
X172506104Y-114259896D01*
X172544872Y-114291712D01*
X180856292Y-122603133D01*
X180888104Y-122641896D01*
X181042810Y-122768860D01*
X181219313Y-122863202D01*
X181410829Y-122921298D01*
X181609999Y-122940915D01*
X181659901Y-122936000D01*
X181795893Y-122936000D01*
X181933368Y-123073475D01*
X182107760Y-123190000D01*
X181933368Y-123306525D01*
X181726525Y-123513368D01*
X181564010Y-123756589D01*
X181452068Y-124026842D01*
X181395000Y-124313740D01*
X181395000Y-124606260D01*
X181452068Y-124893158D01*
X181564010Y-125163411D01*
X181726525Y-125406632D01*
X181933368Y-125613475D01*
X182176589Y-125775990D01*
X182446842Y-125887932D01*
X182733740Y-125945000D01*
X183026260Y-125945000D01*
X183313158Y-125887932D01*
X183583411Y-125775990D01*
X183826632Y-125613475D01*
X184033475Y-125406632D01*
X184195990Y-125163411D01*
X184307932Y-124893158D01*
X184365000Y-124606260D01*
X184365000Y-124313740D01*
X184307932Y-124026842D01*
X184195990Y-123756589D01*
X184033475Y-123513368D01*
X183826632Y-123306525D01*
X183652240Y-123190000D01*
X183826632Y-123073475D01*
X184033475Y-122866632D01*
X184195990Y-122623411D01*
X184307932Y-122353158D01*
X184365000Y-122066260D01*
X184365000Y-121773740D01*
X184307932Y-121486842D01*
X184195990Y-121216589D01*
X184033475Y-120973368D01*
X183826632Y-120766525D01*
X183652240Y-120650000D01*
X183826632Y-120533475D01*
X184033475Y-120326632D01*
X184195990Y-120083411D01*
X184307932Y-119813158D01*
X184365000Y-119526260D01*
X184365000Y-119233740D01*
X184307932Y-118946842D01*
X184195990Y-118676589D01*
X184033475Y-118433368D01*
X183826632Y-118226525D01*
X183652240Y-118110000D01*
X183826632Y-117993475D01*
X184033475Y-117786632D01*
X184195990Y-117543411D01*
X184307932Y-117273158D01*
X184365000Y-116986260D01*
X184365000Y-116693740D01*
X184307932Y-116406842D01*
X184195990Y-116136589D01*
X184033475Y-115893368D01*
X183826632Y-115686525D01*
X183652240Y-115570000D01*
X183826632Y-115453475D01*
X184033475Y-115246632D01*
X184195990Y-115003411D01*
X184307932Y-114733158D01*
X184365000Y-114446260D01*
X184365000Y-114153740D01*
X184307932Y-113866842D01*
X184195990Y-113596589D01*
X184033475Y-113353368D01*
X183826632Y-113146525D01*
X183652240Y-113030000D01*
X183826632Y-112913475D01*
X184033475Y-112706632D01*
X184195990Y-112463411D01*
X184307932Y-112193158D01*
X184365000Y-111906260D01*
X184365000Y-111613740D01*
X184307932Y-111326842D01*
X184195990Y-111056589D01*
X184033475Y-110813368D01*
X183826632Y-110606525D01*
X183644466Y-110484805D01*
X183761355Y-110415178D01*
X183977588Y-110220269D01*
X184151641Y-109986920D01*
X184276825Y-109724099D01*
X184321476Y-109576890D01*
X184200155Y-109347000D01*
X183007000Y-109347000D01*
X183007000Y-109367000D01*
X182753000Y-109367000D01*
X182753000Y-109347000D01*
X181559845Y-109347000D01*
X181438524Y-109576890D01*
X181483175Y-109724099D01*
X181485986Y-109730000D01*
X178286828Y-109730000D01*
X178217497Y-109626238D01*
X178028762Y-109437503D01*
X177806833Y-109289215D01*
X177639734Y-109220000D01*
X177806833Y-109150785D01*
X178028762Y-109002497D01*
X178217497Y-108813762D01*
X178365785Y-108591833D01*
X178467928Y-108345239D01*
X178520000Y-108083456D01*
X178520000Y-107816544D01*
X178467928Y-107554761D01*
X178457672Y-107530000D01*
X181391928Y-107530000D01*
X181404188Y-107654482D01*
X181440498Y-107774180D01*
X181499463Y-107884494D01*
X181578815Y-107981185D01*
X181675506Y-108060537D01*
X181785820Y-108119502D01*
X181866466Y-108143966D01*
X181782412Y-108219731D01*
X181608359Y-108453080D01*
X181483175Y-108715901D01*
X181438524Y-108863110D01*
X181559845Y-109093000D01*
X182753000Y-109093000D01*
X182753000Y-106807000D01*
X183007000Y-106807000D01*
X183007000Y-109093000D01*
X184200155Y-109093000D01*
X184321476Y-108863110D01*
X184276825Y-108715901D01*
X184151641Y-108453080D01*
X183977588Y-108219731D01*
X183893534Y-108143966D01*
X183974180Y-108119502D01*
X184084494Y-108060537D01*
X184181185Y-107981185D01*
X184260537Y-107884494D01*
X184319502Y-107774180D01*
X184355812Y-107654482D01*
X184368072Y-107530000D01*
X184365000Y-106965750D01*
X184206250Y-106807000D01*
X183007000Y-106807000D01*
X182753000Y-106807000D01*
X181553750Y-106807000D01*
X181395000Y-106965750D01*
X181391928Y-107530000D01*
X178457672Y-107530000D01*
X178365785Y-107308167D01*
X178217497Y-107086238D01*
X178028762Y-106897503D01*
X177806833Y-106749215D01*
X177560239Y-106647072D01*
X177298456Y-106595000D01*
X177031544Y-106595000D01*
X176769761Y-106647072D01*
X176523167Y-106749215D01*
X176301238Y-106897503D01*
X176112503Y-107086238D01*
X175964215Y-107308167D01*
X175862072Y-107554761D01*
X175810000Y-107816544D01*
X175810000Y-108083456D01*
X175862072Y-108345239D01*
X175964215Y-108591833D01*
X176112503Y-108813762D01*
X176301238Y-109002497D01*
X176523167Y-109150785D01*
X176690266Y-109220000D01*
X176523167Y-109289215D01*
X176301238Y-109437503D01*
X176112503Y-109626238D01*
X175964215Y-109848167D01*
X175862072Y-110094761D01*
X175810000Y-110356544D01*
X175810000Y-110623456D01*
X175862072Y-110885239D01*
X175964215Y-111131833D01*
X176112503Y-111353762D01*
X176301238Y-111542497D01*
X176523167Y-111690785D01*
X176690266Y-111760000D01*
X176523167Y-111829215D01*
X176301238Y-111977503D01*
X176112503Y-112166238D01*
X175964215Y-112388167D01*
X175862072Y-112634761D01*
X175829641Y-112797801D01*
X175550990Y-112519150D01*
X175550990Y-105830000D01*
X181391928Y-105830000D01*
X181395000Y-106394250D01*
X181553750Y-106553000D01*
X182753000Y-106553000D01*
X182753000Y-105353750D01*
X183007000Y-105353750D01*
X183007000Y-106553000D01*
X184206250Y-106553000D01*
X184365000Y-106394250D01*
X184368072Y-105830000D01*
X184355812Y-105705518D01*
X184319502Y-105585820D01*
X184260537Y-105475506D01*
X184181185Y-105378815D01*
X184084494Y-105299463D01*
X183974180Y-105240498D01*
X183854482Y-105204188D01*
X183730000Y-105191928D01*
X183165750Y-105195000D01*
X183007000Y-105353750D01*
X182753000Y-105353750D01*
X182594250Y-105195000D01*
X182030000Y-105191928D01*
X181905518Y-105204188D01*
X181785820Y-105240498D01*
X181675506Y-105299463D01*
X181578815Y-105378815D01*
X181499463Y-105475506D01*
X181440498Y-105585820D01*
X181404188Y-105705518D01*
X181391928Y-105830000D01*
X175550990Y-105830000D01*
X175550990Y-92653459D01*
X175569990Y-92557939D01*
X175569990Y-92354061D01*
X175530216Y-92154102D01*
X175452195Y-91965744D01*
X175338927Y-91796226D01*
X175194764Y-91652063D01*
X175025246Y-91538795D01*
X174836888Y-91460774D01*
X174636929Y-91421000D01*
X174433051Y-91421000D01*
X174233092Y-91460774D01*
X174044734Y-91538795D01*
X173875216Y-91652063D01*
X173731053Y-91796226D01*
X173617785Y-91965744D01*
X173539764Y-92154102D01*
X173499990Y-92354061D01*
X173499990Y-92557939D01*
X173518990Y-92653459D01*
X173518990Y-93071586D01*
X173518991Y-93071596D01*
X173518991Y-94866150D01*
X171450000Y-92797160D01*
X171450000Y-88820241D01*
X171605363Y-89052759D01*
X171805241Y-89252637D01*
X172040273Y-89409680D01*
X172301426Y-89517853D01*
X172578665Y-89573000D01*
X172861335Y-89573000D01*
X173138574Y-89517853D01*
X173399727Y-89409680D01*
X173634759Y-89252637D01*
X173834637Y-89052759D01*
X173991680Y-88817727D01*
X174099853Y-88556574D01*
X174155000Y-88279335D01*
X174155000Y-87996665D01*
X176285000Y-87996665D01*
X176285000Y-88279335D01*
X176340147Y-88556574D01*
X176448320Y-88817727D01*
X176605363Y-89052759D01*
X176805241Y-89252637D01*
X177040273Y-89409680D01*
X177301426Y-89517853D01*
X177578665Y-89573000D01*
X177861335Y-89573000D01*
X178138574Y-89517853D01*
X178399727Y-89409680D01*
X178634759Y-89252637D01*
X178834637Y-89052759D01*
X178991680Y-88817727D01*
X179099853Y-88556574D01*
X179155000Y-88279335D01*
X179155000Y-87996665D01*
X179099853Y-87719426D01*
X178991680Y-87458273D01*
X178834637Y-87223241D01*
X178634759Y-87023363D01*
X178399727Y-86866320D01*
X178138574Y-86758147D01*
X177861335Y-86703000D01*
X177578665Y-86703000D01*
X177301426Y-86758147D01*
X177040273Y-86866320D01*
X176805241Y-87023363D01*
X176605363Y-87223241D01*
X176448320Y-87458273D01*
X176340147Y-87719426D01*
X176285000Y-87996665D01*
X174155000Y-87996665D01*
X174099853Y-87719426D01*
X173991680Y-87458273D01*
X173834637Y-87223241D01*
X173634759Y-87023363D01*
X173399727Y-86866320D01*
X173138574Y-86758147D01*
X172861335Y-86703000D01*
X172578665Y-86703000D01*
X172301426Y-86758147D01*
X172040273Y-86866320D01*
X171805241Y-87023363D01*
X171605363Y-87223241D01*
X171450000Y-87455759D01*
X171450000Y-86917902D01*
X171454915Y-86868000D01*
X171435298Y-86668829D01*
X171377202Y-86477313D01*
X171282860Y-86300810D01*
X171187706Y-86184865D01*
X171155896Y-86146104D01*
X171117133Y-86114292D01*
X168676581Y-83673740D01*
X181395000Y-83673740D01*
X181395000Y-83966260D01*
X181452068Y-84253158D01*
X181564010Y-84523411D01*
X181726525Y-84766632D01*
X181933368Y-84973475D01*
X182107760Y-85090000D01*
X181933368Y-85206525D01*
X181726525Y-85413368D01*
X181564010Y-85656589D01*
X181452068Y-85926842D01*
X181395000Y-86213740D01*
X181395000Y-86506260D01*
X181452068Y-86793158D01*
X181564010Y-87063411D01*
X181726525Y-87306632D01*
X181933368Y-87513475D01*
X182176589Y-87675990D01*
X182446842Y-87787932D01*
X182733740Y-87845000D01*
X183026260Y-87845000D01*
X183313158Y-87787932D01*
X183583411Y-87675990D01*
X183826632Y-87513475D01*
X184033475Y-87306632D01*
X184195990Y-87063411D01*
X184307932Y-86793158D01*
X184365000Y-86506260D01*
X184365000Y-86213740D01*
X184307932Y-85926842D01*
X184195990Y-85656589D01*
X184033475Y-85413368D01*
X183826632Y-85206525D01*
X183652240Y-85090000D01*
X183826632Y-84973475D01*
X184033475Y-84766632D01*
X184195990Y-84523411D01*
X184307932Y-84253158D01*
X184365000Y-83966260D01*
X184365000Y-83673740D01*
X184307932Y-83386842D01*
X184195990Y-83116589D01*
X184033475Y-82873368D01*
X183826632Y-82666525D01*
X183644466Y-82544805D01*
X183761355Y-82475178D01*
X183977588Y-82280269D01*
X184151641Y-82046920D01*
X184276825Y-81784099D01*
X184321476Y-81636890D01*
X184200155Y-81407000D01*
X183007000Y-81407000D01*
X183007000Y-81427000D01*
X182753000Y-81427000D01*
X182753000Y-81407000D01*
X181559845Y-81407000D01*
X181438524Y-81636890D01*
X181483175Y-81784099D01*
X181608359Y-82046920D01*
X181782412Y-82280269D01*
X181998645Y-82475178D01*
X182115534Y-82544805D01*
X181933368Y-82666525D01*
X181726525Y-82873368D01*
X181564010Y-83116589D01*
X181452068Y-83386842D01*
X181395000Y-83673740D01*
X168676581Y-83673740D01*
X168536711Y-83533871D01*
X168504895Y-83495103D01*
X168350189Y-83368139D01*
X168173686Y-83273797D01*
X167982170Y-83215701D01*
X167832901Y-83200999D01*
X167782999Y-83196084D01*
X167733097Y-83200999D01*
X161958894Y-83200999D01*
X161909000Y-83196085D01*
X161859106Y-83200999D01*
X161859099Y-83200999D01*
X161729178Y-83213795D01*
X161709829Y-83215701D01*
X161651733Y-83233325D01*
X161518314Y-83273797D01*
X161341811Y-83368139D01*
X161187105Y-83495103D01*
X161155293Y-83533866D01*
X158104869Y-86584291D01*
X158104864Y-86584295D01*
X157986159Y-86703000D01*
X157846665Y-86703000D01*
X157569426Y-86758147D01*
X157308273Y-86866320D01*
X157073241Y-87023363D01*
X156873363Y-87223241D01*
X156718000Y-87455759D01*
X156562637Y-87223241D01*
X156362759Y-87023363D01*
X156127727Y-86866320D01*
X155866574Y-86758147D01*
X155589335Y-86703000D01*
X155306665Y-86703000D01*
X155029426Y-86758147D01*
X154768273Y-86866320D01*
X154533241Y-87023363D01*
X154333363Y-87223241D01*
X154178000Y-87455759D01*
X154022637Y-87223241D01*
X153822759Y-87023363D01*
X153772984Y-86990104D01*
X153834574Y-86977853D01*
X154095727Y-86869680D01*
X154330759Y-86712637D01*
X154530637Y-86512759D01*
X154687680Y-86277727D01*
X154795853Y-86016574D01*
X154851000Y-85739335D01*
X154851000Y-85456665D01*
X154795853Y-85179426D01*
X154687680Y-84918273D01*
X154530637Y-84683241D01*
X154330759Y-84483363D01*
X154095727Y-84326320D01*
X153834574Y-84218147D01*
X153557335Y-84163000D01*
X153274665Y-84163000D01*
X152997426Y-84218147D01*
X152736273Y-84326320D01*
X152501241Y-84483363D01*
X152301363Y-84683241D01*
X152144320Y-84918273D01*
X152036147Y-85179426D01*
X151981000Y-85456665D01*
X151981000Y-85739335D01*
X152036147Y-86016574D01*
X152144320Y-86277727D01*
X152301363Y-86512759D01*
X152501241Y-86712637D01*
X152551016Y-86745896D01*
X152489426Y-86758147D01*
X152228273Y-86866320D01*
X151993241Y-87023363D01*
X151793363Y-87223241D01*
X151638000Y-87455759D01*
X151482637Y-87223241D01*
X151282759Y-87023363D01*
X151047727Y-86866320D01*
X150786574Y-86758147D01*
X150509335Y-86703000D01*
X150226665Y-86703000D01*
X149949426Y-86758147D01*
X149688273Y-86866320D01*
X149453241Y-87023363D01*
X149253363Y-87223241D01*
X149098000Y-87455759D01*
X148942637Y-87223241D01*
X148742759Y-87023363D01*
X148507727Y-86866320D01*
X148246574Y-86758147D01*
X147969335Y-86703000D01*
X147686665Y-86703000D01*
X147409426Y-86758147D01*
X147148273Y-86866320D01*
X146913241Y-87023363D01*
X146713363Y-87223241D01*
X146556320Y-87458273D01*
X146448147Y-87719426D01*
X146393000Y-87996665D01*
X146393000Y-88279335D01*
X146448147Y-88556574D01*
X146556320Y-88817727D01*
X146713363Y-89052759D01*
X146913241Y-89252637D01*
X147148273Y-89409680D01*
X147409426Y-89517853D01*
X147686665Y-89573000D01*
X147969335Y-89573000D01*
X148246574Y-89517853D01*
X148507727Y-89409680D01*
X148742759Y-89252637D01*
X148942637Y-89052759D01*
X149098000Y-88820241D01*
X149253363Y-89052759D01*
X149453241Y-89252637D01*
X149688273Y-89409680D01*
X149949426Y-89517853D01*
X150226665Y-89573000D01*
X150509335Y-89573000D01*
X150786574Y-89517853D01*
X151047727Y-89409680D01*
X151282759Y-89252637D01*
X151482637Y-89052759D01*
X151638000Y-88820241D01*
X151793363Y-89052759D01*
X151993241Y-89252637D01*
X152228273Y-89409680D01*
X152489426Y-89517853D01*
X152766665Y-89573000D01*
X153049335Y-89573000D01*
X153326574Y-89517853D01*
X153587727Y-89409680D01*
X153822759Y-89252637D01*
X154022637Y-89052759D01*
X154178000Y-88820241D01*
X154333363Y-89052759D01*
X154533241Y-89252637D01*
X154768273Y-89409680D01*
X155029426Y-89517853D01*
X155306665Y-89573000D01*
X155589335Y-89573000D01*
X155866574Y-89517853D01*
X156127727Y-89409680D01*
X156362759Y-89252637D01*
X156562637Y-89052759D01*
X156718000Y-88820241D01*
X156873363Y-89052759D01*
X157073241Y-89252637D01*
X157308273Y-89409680D01*
X157569426Y-89517853D01*
X157846665Y-89573000D01*
X158129335Y-89573000D01*
X158406574Y-89517853D01*
X158667727Y-89409680D01*
X158902759Y-89252637D01*
X159102637Y-89052759D01*
X159258000Y-88820241D01*
X159413363Y-89052759D01*
X159613241Y-89252637D01*
X159848273Y-89409680D01*
X160109426Y-89517853D01*
X160386665Y-89573000D01*
X160669335Y-89573000D01*
X160946574Y-89517853D01*
X161038000Y-89479983D01*
X161038000Y-94416017D01*
X160946574Y-94378147D01*
X160669335Y-94323000D01*
X160386665Y-94323000D01*
X160109426Y-94378147D01*
X159848273Y-94486320D01*
X159613241Y-94643363D01*
X159413363Y-94843241D01*
X159258000Y-95075759D01*
X159102637Y-94843241D01*
X158902759Y-94643363D01*
X158667727Y-94486320D01*
X158406574Y-94378147D01*
X158129335Y-94323000D01*
X157846665Y-94323000D01*
X157569426Y-94378147D01*
X157308273Y-94486320D01*
X157073241Y-94643363D01*
X156873363Y-94843241D01*
X156718000Y-95075759D01*
X156562637Y-94843241D01*
X156362759Y-94643363D01*
X156127727Y-94486320D01*
X155866574Y-94378147D01*
X155589335Y-94323000D01*
X155306665Y-94323000D01*
X155029426Y-94378147D01*
X154768273Y-94486320D01*
X154533241Y-94643363D01*
X154333363Y-94843241D01*
X154176320Y-95078273D01*
X154171933Y-95088865D01*
X154060385Y-94902869D01*
X153871414Y-94694481D01*
X153645420Y-94526963D01*
X153391087Y-94406754D01*
X153257039Y-94366096D01*
X153035000Y-94488085D01*
X153035000Y-95631000D01*
X153055000Y-95631000D01*
X153055000Y-95885000D01*
X153035000Y-95885000D01*
X153035000Y-95905000D01*
X152781000Y-95905000D01*
X152781000Y-95885000D01*
X152761000Y-95885000D01*
X152761000Y-95631000D01*
X152781000Y-95631000D01*
X152781000Y-94488085D01*
X152558961Y-94366096D01*
X152424913Y-94406754D01*
X152170580Y-94526963D01*
X151944586Y-94694481D01*
X151755615Y-94902869D01*
X151644067Y-95088865D01*
X151639680Y-95078273D01*
X151482637Y-94843241D01*
X151282759Y-94643363D01*
X151047727Y-94486320D01*
X150786574Y-94378147D01*
X150509335Y-94323000D01*
X150226665Y-94323000D01*
X149949426Y-94378147D01*
X149688273Y-94486320D01*
X149453241Y-94643363D01*
X149254643Y-94841961D01*
X149253812Y-94833518D01*
X149217502Y-94713820D01*
X149158537Y-94603506D01*
X149079185Y-94506815D01*
X148982494Y-94427463D01*
X148872180Y-94368498D01*
X148752482Y-94332188D01*
X148628000Y-94319928D01*
X147028000Y-94319928D01*
X146903518Y-94332188D01*
X146783820Y-94368498D01*
X146673506Y-94427463D01*
X146576815Y-94506815D01*
X146497463Y-94603506D01*
X146438498Y-94713820D01*
X146402188Y-94833518D01*
X146389928Y-94958000D01*
X127660000Y-94958000D01*
X127660000Y-83673740D01*
X128055000Y-83673740D01*
X128055000Y-83966260D01*
X128112068Y-84253158D01*
X128224010Y-84523411D01*
X128386525Y-84766632D01*
X128593368Y-84973475D01*
X128767760Y-85090000D01*
X128593368Y-85206525D01*
X128386525Y-85413368D01*
X128224010Y-85656589D01*
X128112068Y-85926842D01*
X128055000Y-86213740D01*
X128055000Y-86506260D01*
X128112068Y-86793158D01*
X128224010Y-87063411D01*
X128386525Y-87306632D01*
X128593368Y-87513475D01*
X128836589Y-87675990D01*
X129106842Y-87787932D01*
X129393740Y-87845000D01*
X129686260Y-87845000D01*
X129973158Y-87787932D01*
X130243411Y-87675990D01*
X130486632Y-87513475D01*
X130693475Y-87306632D01*
X130855990Y-87063411D01*
X130967932Y-86793158D01*
X131025000Y-86506260D01*
X131025000Y-86213740D01*
X130967932Y-85926842D01*
X130855990Y-85656589D01*
X130693475Y-85413368D01*
X130486632Y-85206525D01*
X130312240Y-85090000D01*
X130486632Y-84973475D01*
X130693475Y-84766632D01*
X130855990Y-84523411D01*
X130967932Y-84253158D01*
X131025000Y-83966260D01*
X131025000Y-83673740D01*
X130967932Y-83386842D01*
X130855990Y-83116589D01*
X130693475Y-82873368D01*
X130486632Y-82666525D01*
X130304466Y-82544805D01*
X130421355Y-82475178D01*
X130637588Y-82280269D01*
X130811641Y-82046920D01*
X130936825Y-81784099D01*
X130981476Y-81636890D01*
X130957101Y-81590702D01*
X152602903Y-81590702D01*
X152674486Y-81834671D01*
X152929996Y-81955571D01*
X153204184Y-82024300D01*
X153486512Y-82038217D01*
X153766130Y-81996787D01*
X154032292Y-81901603D01*
X154157514Y-81834671D01*
X154229097Y-81590702D01*
X164794903Y-81590702D01*
X164866486Y-81834671D01*
X165121996Y-81955571D01*
X165396184Y-82024300D01*
X165678512Y-82038217D01*
X165958130Y-81996787D01*
X166224292Y-81901603D01*
X166349514Y-81834671D01*
X166421097Y-81590702D01*
X165608000Y-80777605D01*
X164794903Y-81590702D01*
X154229097Y-81590702D01*
X153416000Y-80777605D01*
X152602903Y-81590702D01*
X130957101Y-81590702D01*
X130860155Y-81407000D01*
X129667000Y-81407000D01*
X129667000Y-81427000D01*
X129413000Y-81427000D01*
X129413000Y-81407000D01*
X128219845Y-81407000D01*
X128098524Y-81636890D01*
X128143175Y-81784099D01*
X128268359Y-82046920D01*
X128442412Y-82280269D01*
X128658645Y-82475178D01*
X128775534Y-82544805D01*
X128593368Y-82666525D01*
X128386525Y-82873368D01*
X128224010Y-83116589D01*
X128112068Y-83386842D01*
X128055000Y-83673740D01*
X127660000Y-83673740D01*
X127660000Y-79590000D01*
X128051928Y-79590000D01*
X128064188Y-79714482D01*
X128100498Y-79834180D01*
X128159463Y-79944494D01*
X128238815Y-80041185D01*
X128335506Y-80120537D01*
X128445820Y-80179502D01*
X128526466Y-80203966D01*
X128442412Y-80279731D01*
X128268359Y-80513080D01*
X128143175Y-80775901D01*
X128098524Y-80923110D01*
X128219845Y-81153000D01*
X129413000Y-81153000D01*
X129413000Y-78867000D01*
X129667000Y-78867000D01*
X129667000Y-81153000D01*
X130860155Y-81153000D01*
X130981476Y-80923110D01*
X130936825Y-80775901D01*
X130885675Y-80668512D01*
X151975783Y-80668512D01*
X152017213Y-80948130D01*
X152112397Y-81214292D01*
X152179329Y-81339514D01*
X152423298Y-81411097D01*
X153236395Y-80598000D01*
X153595605Y-80598000D01*
X154408702Y-81411097D01*
X154652671Y-81339514D01*
X154773571Y-81084004D01*
X154842300Y-80809816D01*
X154849265Y-80668512D01*
X164167783Y-80668512D01*
X164209213Y-80948130D01*
X164304397Y-81214292D01*
X164371329Y-81339514D01*
X164615298Y-81411097D01*
X165428395Y-80598000D01*
X165787605Y-80598000D01*
X166600702Y-81411097D01*
X166844671Y-81339514D01*
X166965571Y-81084004D01*
X167034300Y-80809816D01*
X167048217Y-80527488D01*
X167006787Y-80247870D01*
X166911603Y-79981708D01*
X166844671Y-79856486D01*
X166600702Y-79784903D01*
X165787605Y-80598000D01*
X165428395Y-80598000D01*
X164615298Y-79784903D01*
X164371329Y-79856486D01*
X164250429Y-80111996D01*
X164181700Y-80386184D01*
X164167783Y-80668512D01*
X154849265Y-80668512D01*
X154856217Y-80527488D01*
X154814787Y-80247870D01*
X154719603Y-79981708D01*
X154652671Y-79856486D01*
X154408702Y-79784903D01*
X153595605Y-80598000D01*
X153236395Y-80598000D01*
X152423298Y-79784903D01*
X152179329Y-79856486D01*
X152058429Y-80111996D01*
X151989700Y-80386184D01*
X151975783Y-80668512D01*
X130885675Y-80668512D01*
X130811641Y-80513080D01*
X130637588Y-80279731D01*
X130553534Y-80203966D01*
X130634180Y-80179502D01*
X130744494Y-80120537D01*
X130841185Y-80041185D01*
X130920537Y-79944494D01*
X130979502Y-79834180D01*
X131015812Y-79714482D01*
X131026565Y-79605298D01*
X152602903Y-79605298D01*
X153416000Y-80418395D01*
X154229097Y-79605298D01*
X164794903Y-79605298D01*
X165608000Y-80418395D01*
X166421097Y-79605298D01*
X166416609Y-79590000D01*
X181391928Y-79590000D01*
X181404188Y-79714482D01*
X181440498Y-79834180D01*
X181499463Y-79944494D01*
X181578815Y-80041185D01*
X181675506Y-80120537D01*
X181785820Y-80179502D01*
X181866466Y-80203966D01*
X181782412Y-80279731D01*
X181608359Y-80513080D01*
X181483175Y-80775901D01*
X181438524Y-80923110D01*
X181559845Y-81153000D01*
X182753000Y-81153000D01*
X182753000Y-78867000D01*
X183007000Y-78867000D01*
X183007000Y-81153000D01*
X184200155Y-81153000D01*
X184321476Y-80923110D01*
X184276825Y-80775901D01*
X184151641Y-80513080D01*
X183977588Y-80279731D01*
X183893534Y-80203966D01*
X183974180Y-80179502D01*
X184084494Y-80120537D01*
X184181185Y-80041185D01*
X184260537Y-79944494D01*
X184319502Y-79834180D01*
X184355812Y-79714482D01*
X184368072Y-79590000D01*
X184365000Y-79025750D01*
X184206250Y-78867000D01*
X183007000Y-78867000D01*
X182753000Y-78867000D01*
X181553750Y-78867000D01*
X181395000Y-79025750D01*
X181391928Y-79590000D01*
X166416609Y-79590000D01*
X166349514Y-79361329D01*
X166094004Y-79240429D01*
X165819816Y-79171700D01*
X165537488Y-79157783D01*
X165257870Y-79199213D01*
X164991708Y-79294397D01*
X164866486Y-79361329D01*
X164794903Y-79605298D01*
X154229097Y-79605298D01*
X154157514Y-79361329D01*
X153902004Y-79240429D01*
X153627816Y-79171700D01*
X153345488Y-79157783D01*
X153065870Y-79199213D01*
X152799708Y-79294397D01*
X152674486Y-79361329D01*
X152602903Y-79605298D01*
X131026565Y-79605298D01*
X131028072Y-79590000D01*
X131025000Y-79025750D01*
X130866250Y-78867000D01*
X129667000Y-78867000D01*
X129413000Y-78867000D01*
X128213750Y-78867000D01*
X128055000Y-79025750D01*
X128051928Y-79590000D01*
X127660000Y-79590000D01*
X127660000Y-77890000D01*
X128051928Y-77890000D01*
X128055000Y-78454250D01*
X128213750Y-78613000D01*
X129413000Y-78613000D01*
X129413000Y-77413750D01*
X129667000Y-77413750D01*
X129667000Y-78613000D01*
X130866250Y-78613000D01*
X131025000Y-78454250D01*
X131028072Y-77890000D01*
X181391928Y-77890000D01*
X181395000Y-78454250D01*
X181553750Y-78613000D01*
X182753000Y-78613000D01*
X182753000Y-77413750D01*
X183007000Y-77413750D01*
X183007000Y-78613000D01*
X184206250Y-78613000D01*
X184365000Y-78454250D01*
X184368072Y-77890000D01*
X184355812Y-77765518D01*
X184319502Y-77645820D01*
X184260537Y-77535506D01*
X184181185Y-77438815D01*
X184084494Y-77359463D01*
X183974180Y-77300498D01*
X183854482Y-77264188D01*
X183730000Y-77251928D01*
X183165750Y-77255000D01*
X183007000Y-77413750D01*
X182753000Y-77413750D01*
X182594250Y-77255000D01*
X182030000Y-77251928D01*
X181905518Y-77264188D01*
X181785820Y-77300498D01*
X181675506Y-77359463D01*
X181578815Y-77438815D01*
X181499463Y-77535506D01*
X181440498Y-77645820D01*
X181404188Y-77765518D01*
X181391928Y-77890000D01*
X131028072Y-77890000D01*
X131015812Y-77765518D01*
X130979502Y-77645820D01*
X130920537Y-77535506D01*
X130841185Y-77438815D01*
X130744494Y-77359463D01*
X130634180Y-77300498D01*
X130514482Y-77264188D01*
X130390000Y-77251928D01*
X129825750Y-77255000D01*
X129667000Y-77413750D01*
X129413000Y-77413750D01*
X129254250Y-77255000D01*
X128690000Y-77251928D01*
X128565518Y-77264188D01*
X128445820Y-77300498D01*
X128335506Y-77359463D01*
X128238815Y-77438815D01*
X128159463Y-77535506D01*
X128100498Y-77645820D01*
X128064188Y-77765518D01*
X128051928Y-77890000D01*
X127660000Y-77890000D01*
X127660000Y-76860000D01*
X184760000Y-76860000D01*
X184760001Y-126340000D01*
M02*
