G04 #@! TF.GenerationSoftware,KiCad,Pcbnew,5.1.6-c6e7f7d~87~ubuntu18.04.1*
G04 #@! TF.CreationDate,2020-07-17T09:21:27-04:00*
G04 #@! TF.ProjectId,CEM3320_LPF_plug_in_board,43454d33-3332-4305-9f4c-50465f706c75,1.1*
G04 #@! TF.SameCoordinates,Original*
G04 #@! TF.FileFunction,Soldermask,Bot*
G04 #@! TF.FilePolarity,Negative*
%FSLAX46Y46*%
G04 Gerber Fmt 4.6, Leading zero omitted, Abs format (unit mm)*
G04 Created by KiCad (PCBNEW 5.1.6-c6e7f7d~87~ubuntu18.04.1) date 2020-07-17 09:21:27*
%MOMM*%
%LPD*%
G01*
G04 APERTURE LIST*
%ADD10C,0.100000*%
G04 APERTURE END LIST*
D10*
G36*
X182993512Y-123563927D02*
G01*
X183142812Y-123593624D01*
X183306784Y-123661544D01*
X183454354Y-123760147D01*
X183579853Y-123885646D01*
X183678456Y-124033216D01*
X183746376Y-124197188D01*
X183781000Y-124371259D01*
X183781000Y-124548741D01*
X183746376Y-124722812D01*
X183678456Y-124886784D01*
X183579853Y-125034354D01*
X183454354Y-125159853D01*
X183306784Y-125258456D01*
X183142812Y-125326376D01*
X182993512Y-125356073D01*
X182968742Y-125361000D01*
X182791258Y-125361000D01*
X182766488Y-125356073D01*
X182617188Y-125326376D01*
X182453216Y-125258456D01*
X182305646Y-125159853D01*
X182180147Y-125034354D01*
X182081544Y-124886784D01*
X182013624Y-124722812D01*
X181979000Y-124548741D01*
X181979000Y-124371259D01*
X182013624Y-124197188D01*
X182081544Y-124033216D01*
X182180147Y-123885646D01*
X182305646Y-123760147D01*
X182453216Y-123661544D01*
X182617188Y-123593624D01*
X182766488Y-123563927D01*
X182791258Y-123559000D01*
X182968742Y-123559000D01*
X182993512Y-123563927D01*
G37*
G36*
X129653512Y-123563927D02*
G01*
X129802812Y-123593624D01*
X129966784Y-123661544D01*
X130114354Y-123760147D01*
X130239853Y-123885646D01*
X130338456Y-124033216D01*
X130406376Y-124197188D01*
X130441000Y-124371259D01*
X130441000Y-124548741D01*
X130406376Y-124722812D01*
X130338456Y-124886784D01*
X130239853Y-125034354D01*
X130114354Y-125159853D01*
X129966784Y-125258456D01*
X129802812Y-125326376D01*
X129653512Y-125356073D01*
X129628742Y-125361000D01*
X129451258Y-125361000D01*
X129426488Y-125356073D01*
X129277188Y-125326376D01*
X129113216Y-125258456D01*
X128965646Y-125159853D01*
X128840147Y-125034354D01*
X128741544Y-124886784D01*
X128673624Y-124722812D01*
X128639000Y-124548741D01*
X128639000Y-124371259D01*
X128673624Y-124197188D01*
X128741544Y-124033216D01*
X128840147Y-123885646D01*
X128965646Y-123760147D01*
X129113216Y-123661544D01*
X129277188Y-123593624D01*
X129426488Y-123563927D01*
X129451258Y-123559000D01*
X129628742Y-123559000D01*
X129653512Y-123563927D01*
G37*
G36*
X143000589Y-121793876D02*
G01*
X143099893Y-121813629D01*
X143240206Y-121871748D01*
X143366484Y-121956125D01*
X143473875Y-122063516D01*
X143558252Y-122189794D01*
X143616371Y-122330107D01*
X143646000Y-122479063D01*
X143646000Y-122630937D01*
X143616371Y-122779893D01*
X143558252Y-122920206D01*
X143473875Y-123046484D01*
X143366484Y-123153875D01*
X143240206Y-123238252D01*
X143099893Y-123296371D01*
X143000589Y-123316124D01*
X142950938Y-123326000D01*
X142799062Y-123326000D01*
X142749411Y-123316124D01*
X142650107Y-123296371D01*
X142509794Y-123238252D01*
X142383516Y-123153875D01*
X142276125Y-123046484D01*
X142191748Y-122920206D01*
X142133629Y-122779893D01*
X142104000Y-122630937D01*
X142104000Y-122479063D01*
X142133629Y-122330107D01*
X142191748Y-122189794D01*
X142276125Y-122063516D01*
X142383516Y-121956125D01*
X142509794Y-121871748D01*
X142650107Y-121813629D01*
X142749411Y-121793876D01*
X142799062Y-121784000D01*
X142950938Y-121784000D01*
X143000589Y-121793876D01*
G37*
G36*
X136015589Y-121793876D02*
G01*
X136114893Y-121813629D01*
X136255206Y-121871748D01*
X136381484Y-121956125D01*
X136488875Y-122063516D01*
X136573252Y-122189794D01*
X136631371Y-122330107D01*
X136661000Y-122479063D01*
X136661000Y-122630937D01*
X136631371Y-122779893D01*
X136573252Y-122920206D01*
X136488875Y-123046484D01*
X136381484Y-123153875D01*
X136255206Y-123238252D01*
X136114893Y-123296371D01*
X136015589Y-123316124D01*
X135965938Y-123326000D01*
X135814062Y-123326000D01*
X135764411Y-123316124D01*
X135665107Y-123296371D01*
X135524794Y-123238252D01*
X135398516Y-123153875D01*
X135291125Y-123046484D01*
X135206748Y-122920206D01*
X135148629Y-122779893D01*
X135119000Y-122630937D01*
X135119000Y-122479063D01*
X135148629Y-122330107D01*
X135206748Y-122189794D01*
X135291125Y-122063516D01*
X135398516Y-121956125D01*
X135524794Y-121871748D01*
X135665107Y-121813629D01*
X135764411Y-121793876D01*
X135814062Y-121784000D01*
X135965938Y-121784000D01*
X136015589Y-121793876D01*
G37*
G36*
X129653512Y-121023927D02*
G01*
X129802812Y-121053624D01*
X129966784Y-121121544D01*
X130114354Y-121220147D01*
X130239853Y-121345646D01*
X130338456Y-121493216D01*
X130406376Y-121657188D01*
X130441000Y-121831259D01*
X130441000Y-122008741D01*
X130406376Y-122182812D01*
X130338456Y-122346784D01*
X130239853Y-122494354D01*
X130114354Y-122619853D01*
X129966784Y-122718456D01*
X129802812Y-122786376D01*
X129653512Y-122816073D01*
X129628742Y-122821000D01*
X129451258Y-122821000D01*
X129426488Y-122816073D01*
X129277188Y-122786376D01*
X129113216Y-122718456D01*
X128965646Y-122619853D01*
X128840147Y-122494354D01*
X128741544Y-122346784D01*
X128673624Y-122182812D01*
X128639000Y-122008741D01*
X128639000Y-121831259D01*
X128673624Y-121657188D01*
X128741544Y-121493216D01*
X128840147Y-121345646D01*
X128965646Y-121220147D01*
X129113216Y-121121544D01*
X129277188Y-121053624D01*
X129426488Y-121023927D01*
X129451258Y-121019000D01*
X129628742Y-121019000D01*
X129653512Y-121023927D01*
G37*
G36*
X182993512Y-121023927D02*
G01*
X183142812Y-121053624D01*
X183306784Y-121121544D01*
X183454354Y-121220147D01*
X183579853Y-121345646D01*
X183678456Y-121493216D01*
X183746376Y-121657188D01*
X183781000Y-121831259D01*
X183781000Y-122008741D01*
X183746376Y-122182812D01*
X183678456Y-122346784D01*
X183579853Y-122494354D01*
X183454354Y-122619853D01*
X183306784Y-122718456D01*
X183142812Y-122786376D01*
X182993512Y-122816073D01*
X182968742Y-122821000D01*
X182791258Y-122821000D01*
X182766488Y-122816073D01*
X182617188Y-122786376D01*
X182453216Y-122718456D01*
X182305646Y-122619853D01*
X182180147Y-122494354D01*
X182081544Y-122346784D01*
X182013624Y-122182812D01*
X181979000Y-122008741D01*
X181979000Y-121831259D01*
X182013624Y-121657188D01*
X182081544Y-121493216D01*
X182180147Y-121345646D01*
X182305646Y-121220147D01*
X182453216Y-121121544D01*
X182617188Y-121053624D01*
X182766488Y-121023927D01*
X182791258Y-121019000D01*
X182968742Y-121019000D01*
X182993512Y-121023927D01*
G37*
G36*
X143000589Y-119253876D02*
G01*
X143099893Y-119273629D01*
X143240206Y-119331748D01*
X143366484Y-119416125D01*
X143473875Y-119523516D01*
X143558252Y-119649794D01*
X143616371Y-119790107D01*
X143646000Y-119939063D01*
X143646000Y-120090937D01*
X143616371Y-120239893D01*
X143558252Y-120380206D01*
X143473875Y-120506484D01*
X143366484Y-120613875D01*
X143240206Y-120698252D01*
X143099893Y-120756371D01*
X143000589Y-120776124D01*
X142950938Y-120786000D01*
X142799062Y-120786000D01*
X142749411Y-120776124D01*
X142650107Y-120756371D01*
X142509794Y-120698252D01*
X142383516Y-120613875D01*
X142276125Y-120506484D01*
X142191748Y-120380206D01*
X142133629Y-120239893D01*
X142104000Y-120090937D01*
X142104000Y-119939063D01*
X142133629Y-119790107D01*
X142191748Y-119649794D01*
X142276125Y-119523516D01*
X142383516Y-119416125D01*
X142509794Y-119331748D01*
X142650107Y-119273629D01*
X142749411Y-119253876D01*
X142799062Y-119244000D01*
X142950938Y-119244000D01*
X143000589Y-119253876D01*
G37*
G36*
X136015589Y-119253876D02*
G01*
X136114893Y-119273629D01*
X136255206Y-119331748D01*
X136381484Y-119416125D01*
X136488875Y-119523516D01*
X136573252Y-119649794D01*
X136631371Y-119790107D01*
X136661000Y-119939063D01*
X136661000Y-120090937D01*
X136631371Y-120239893D01*
X136573252Y-120380206D01*
X136488875Y-120506484D01*
X136381484Y-120613875D01*
X136255206Y-120698252D01*
X136114893Y-120756371D01*
X136015589Y-120776124D01*
X135965938Y-120786000D01*
X135814062Y-120786000D01*
X135764411Y-120776124D01*
X135665107Y-120756371D01*
X135524794Y-120698252D01*
X135398516Y-120613875D01*
X135291125Y-120506484D01*
X135206748Y-120380206D01*
X135148629Y-120239893D01*
X135119000Y-120090937D01*
X135119000Y-119939063D01*
X135148629Y-119790107D01*
X135206748Y-119649794D01*
X135291125Y-119523516D01*
X135398516Y-119416125D01*
X135524794Y-119331748D01*
X135665107Y-119273629D01*
X135764411Y-119253876D01*
X135814062Y-119244000D01*
X135965938Y-119244000D01*
X136015589Y-119253876D01*
G37*
G36*
X129653512Y-118483927D02*
G01*
X129802812Y-118513624D01*
X129966784Y-118581544D01*
X130114354Y-118680147D01*
X130239853Y-118805646D01*
X130338456Y-118953216D01*
X130406376Y-119117188D01*
X130441000Y-119291259D01*
X130441000Y-119468741D01*
X130406376Y-119642812D01*
X130338456Y-119806784D01*
X130239853Y-119954354D01*
X130114354Y-120079853D01*
X129966784Y-120178456D01*
X129802812Y-120246376D01*
X129653512Y-120276073D01*
X129628742Y-120281000D01*
X129451258Y-120281000D01*
X129426488Y-120276073D01*
X129277188Y-120246376D01*
X129113216Y-120178456D01*
X128965646Y-120079853D01*
X128840147Y-119954354D01*
X128741544Y-119806784D01*
X128673624Y-119642812D01*
X128639000Y-119468741D01*
X128639000Y-119291259D01*
X128673624Y-119117188D01*
X128741544Y-118953216D01*
X128840147Y-118805646D01*
X128965646Y-118680147D01*
X129113216Y-118581544D01*
X129277188Y-118513624D01*
X129426488Y-118483927D01*
X129451258Y-118479000D01*
X129628742Y-118479000D01*
X129653512Y-118483927D01*
G37*
G36*
X182993512Y-118483927D02*
G01*
X183142812Y-118513624D01*
X183306784Y-118581544D01*
X183454354Y-118680147D01*
X183579853Y-118805646D01*
X183678456Y-118953216D01*
X183746376Y-119117188D01*
X183781000Y-119291259D01*
X183781000Y-119468741D01*
X183746376Y-119642812D01*
X183678456Y-119806784D01*
X183579853Y-119954354D01*
X183454354Y-120079853D01*
X183306784Y-120178456D01*
X183142812Y-120246376D01*
X182993512Y-120276073D01*
X182968742Y-120281000D01*
X182791258Y-120281000D01*
X182766488Y-120276073D01*
X182617188Y-120246376D01*
X182453216Y-120178456D01*
X182305646Y-120079853D01*
X182180147Y-119954354D01*
X182081544Y-119806784D01*
X182013624Y-119642812D01*
X181979000Y-119468741D01*
X181979000Y-119291259D01*
X182013624Y-119117188D01*
X182081544Y-118953216D01*
X182180147Y-118805646D01*
X182305646Y-118680147D01*
X182453216Y-118581544D01*
X182617188Y-118513624D01*
X182766488Y-118483927D01*
X182791258Y-118479000D01*
X182968742Y-118479000D01*
X182993512Y-118483927D01*
G37*
G36*
X136015589Y-116713876D02*
G01*
X136114893Y-116733629D01*
X136255206Y-116791748D01*
X136381484Y-116876125D01*
X136488875Y-116983516D01*
X136573252Y-117109794D01*
X136631371Y-117250107D01*
X136661000Y-117399063D01*
X136661000Y-117550937D01*
X136631371Y-117699893D01*
X136573252Y-117840206D01*
X136488875Y-117966484D01*
X136381484Y-118073875D01*
X136255206Y-118158252D01*
X136114893Y-118216371D01*
X136015589Y-118236124D01*
X135965938Y-118246000D01*
X135814062Y-118246000D01*
X135764411Y-118236124D01*
X135665107Y-118216371D01*
X135524794Y-118158252D01*
X135398516Y-118073875D01*
X135291125Y-117966484D01*
X135206748Y-117840206D01*
X135148629Y-117699893D01*
X135119000Y-117550937D01*
X135119000Y-117399063D01*
X135148629Y-117250107D01*
X135206748Y-117109794D01*
X135291125Y-116983516D01*
X135398516Y-116876125D01*
X135524794Y-116791748D01*
X135665107Y-116733629D01*
X135764411Y-116713876D01*
X135814062Y-116704000D01*
X135965938Y-116704000D01*
X136015589Y-116713876D01*
G37*
G36*
X143000589Y-116713876D02*
G01*
X143099893Y-116733629D01*
X143240206Y-116791748D01*
X143366484Y-116876125D01*
X143473875Y-116983516D01*
X143558252Y-117109794D01*
X143616371Y-117250107D01*
X143646000Y-117399063D01*
X143646000Y-117550937D01*
X143616371Y-117699893D01*
X143558252Y-117840206D01*
X143473875Y-117966484D01*
X143366484Y-118073875D01*
X143240206Y-118158252D01*
X143099893Y-118216371D01*
X143000589Y-118236124D01*
X142950938Y-118246000D01*
X142799062Y-118246000D01*
X142749411Y-118236124D01*
X142650107Y-118216371D01*
X142509794Y-118158252D01*
X142383516Y-118073875D01*
X142276125Y-117966484D01*
X142191748Y-117840206D01*
X142133629Y-117699893D01*
X142104000Y-117550937D01*
X142104000Y-117399063D01*
X142133629Y-117250107D01*
X142191748Y-117109794D01*
X142276125Y-116983516D01*
X142383516Y-116876125D01*
X142509794Y-116791748D01*
X142650107Y-116733629D01*
X142749411Y-116713876D01*
X142799062Y-116704000D01*
X142950938Y-116704000D01*
X143000589Y-116713876D01*
G37*
G36*
X130441000Y-117741000D02*
G01*
X128639000Y-117741000D01*
X128639000Y-115939000D01*
X130441000Y-115939000D01*
X130441000Y-117741000D01*
G37*
G36*
X182993512Y-115943927D02*
G01*
X183142812Y-115973624D01*
X183306784Y-116041544D01*
X183454354Y-116140147D01*
X183579853Y-116265646D01*
X183678456Y-116413216D01*
X183746376Y-116577188D01*
X183781000Y-116751259D01*
X183781000Y-116928741D01*
X183746376Y-117102812D01*
X183678456Y-117266784D01*
X183579853Y-117414354D01*
X183454354Y-117539853D01*
X183306784Y-117638456D01*
X183142812Y-117706376D01*
X182993512Y-117736073D01*
X182968742Y-117741000D01*
X182791258Y-117741000D01*
X182766488Y-117736073D01*
X182617188Y-117706376D01*
X182453216Y-117638456D01*
X182305646Y-117539853D01*
X182180147Y-117414354D01*
X182081544Y-117266784D01*
X182013624Y-117102812D01*
X181979000Y-116928741D01*
X181979000Y-116751259D01*
X182013624Y-116577188D01*
X182081544Y-116413216D01*
X182180147Y-116265646D01*
X182305646Y-116140147D01*
X182453216Y-116041544D01*
X182617188Y-115973624D01*
X182766488Y-115943927D01*
X182791258Y-115939000D01*
X182968742Y-115939000D01*
X182993512Y-115943927D01*
G37*
G36*
X182993512Y-113403927D02*
G01*
X183142812Y-113433624D01*
X183306784Y-113501544D01*
X183454354Y-113600147D01*
X183579853Y-113725646D01*
X183678456Y-113873216D01*
X183746376Y-114037188D01*
X183781000Y-114211259D01*
X183781000Y-114388741D01*
X183746376Y-114562812D01*
X183678456Y-114726784D01*
X183579853Y-114874354D01*
X183454354Y-114999853D01*
X183306784Y-115098456D01*
X183142812Y-115166376D01*
X182993512Y-115196073D01*
X182968742Y-115201000D01*
X182791258Y-115201000D01*
X182766488Y-115196073D01*
X182617188Y-115166376D01*
X182453216Y-115098456D01*
X182305646Y-114999853D01*
X182180147Y-114874354D01*
X182081544Y-114726784D01*
X182013624Y-114562812D01*
X181979000Y-114388741D01*
X181979000Y-114211259D01*
X182013624Y-114037188D01*
X182081544Y-113873216D01*
X182180147Y-113725646D01*
X182305646Y-113600147D01*
X182453216Y-113501544D01*
X182617188Y-113433624D01*
X182766488Y-113403927D01*
X182791258Y-113399000D01*
X182968742Y-113399000D01*
X182993512Y-113403927D01*
G37*
G36*
X177290589Y-112268876D02*
G01*
X177389893Y-112288629D01*
X177530206Y-112346748D01*
X177656484Y-112431125D01*
X177763875Y-112538516D01*
X177848252Y-112664794D01*
X177906371Y-112805107D01*
X177936000Y-112954063D01*
X177936000Y-113105937D01*
X177906371Y-113254893D01*
X177848252Y-113395206D01*
X177763875Y-113521484D01*
X177656484Y-113628875D01*
X177530206Y-113713252D01*
X177389893Y-113771371D01*
X177290589Y-113791124D01*
X177240938Y-113801000D01*
X177089062Y-113801000D01*
X177039411Y-113791124D01*
X176940107Y-113771371D01*
X176799794Y-113713252D01*
X176673516Y-113628875D01*
X176566125Y-113521484D01*
X176481748Y-113395206D01*
X176423629Y-113254893D01*
X176394000Y-113105937D01*
X176394000Y-112954063D01*
X176423629Y-112805107D01*
X176481748Y-112664794D01*
X176566125Y-112538516D01*
X176673516Y-112431125D01*
X176799794Y-112346748D01*
X176940107Y-112288629D01*
X177039411Y-112268876D01*
X177089062Y-112259000D01*
X177240938Y-112259000D01*
X177290589Y-112268876D01*
G37*
G36*
X182993512Y-110863927D02*
G01*
X183142812Y-110893624D01*
X183306784Y-110961544D01*
X183454354Y-111060147D01*
X183579853Y-111185646D01*
X183678456Y-111333216D01*
X183746376Y-111497188D01*
X183781000Y-111671259D01*
X183781000Y-111848741D01*
X183746376Y-112022812D01*
X183678456Y-112186784D01*
X183579853Y-112334354D01*
X183454354Y-112459853D01*
X183306784Y-112558456D01*
X183142812Y-112626376D01*
X182993512Y-112656073D01*
X182968742Y-112661000D01*
X182791258Y-112661000D01*
X182766488Y-112656073D01*
X182617188Y-112626376D01*
X182453216Y-112558456D01*
X182305646Y-112459853D01*
X182180147Y-112334354D01*
X182081544Y-112186784D01*
X182013624Y-112022812D01*
X181979000Y-111848741D01*
X181979000Y-111671259D01*
X182013624Y-111497188D01*
X182081544Y-111333216D01*
X182180147Y-111185646D01*
X182305646Y-111060147D01*
X182453216Y-110961544D01*
X182617188Y-110893624D01*
X182766488Y-110863927D01*
X182791258Y-110859000D01*
X182968742Y-110859000D01*
X182993512Y-110863927D01*
G37*
G36*
X177290589Y-109728876D02*
G01*
X177389893Y-109748629D01*
X177530206Y-109806748D01*
X177656484Y-109891125D01*
X177763875Y-109998516D01*
X177848252Y-110124794D01*
X177906371Y-110265107D01*
X177936000Y-110414063D01*
X177936000Y-110565937D01*
X177906371Y-110714893D01*
X177848252Y-110855206D01*
X177763875Y-110981484D01*
X177656484Y-111088875D01*
X177530206Y-111173252D01*
X177389893Y-111231371D01*
X177290589Y-111251124D01*
X177240938Y-111261000D01*
X177089062Y-111261000D01*
X177039411Y-111251124D01*
X176940107Y-111231371D01*
X176799794Y-111173252D01*
X176673516Y-111088875D01*
X176566125Y-110981484D01*
X176481748Y-110855206D01*
X176423629Y-110714893D01*
X176394000Y-110565937D01*
X176394000Y-110414063D01*
X176423629Y-110265107D01*
X176481748Y-110124794D01*
X176566125Y-109998516D01*
X176673516Y-109891125D01*
X176799794Y-109806748D01*
X176940107Y-109748629D01*
X177039411Y-109728876D01*
X177089062Y-109719000D01*
X177240938Y-109719000D01*
X177290589Y-109728876D01*
G37*
G36*
X182993512Y-108323927D02*
G01*
X183142812Y-108353624D01*
X183306784Y-108421544D01*
X183454354Y-108520147D01*
X183579853Y-108645646D01*
X183678456Y-108793216D01*
X183746376Y-108957188D01*
X183781000Y-109131259D01*
X183781000Y-109308741D01*
X183746376Y-109482812D01*
X183678456Y-109646784D01*
X183579853Y-109794354D01*
X183454354Y-109919853D01*
X183306784Y-110018456D01*
X183142812Y-110086376D01*
X182993512Y-110116073D01*
X182968742Y-110121000D01*
X182791258Y-110121000D01*
X182766488Y-110116073D01*
X182617188Y-110086376D01*
X182453216Y-110018456D01*
X182305646Y-109919853D01*
X182180147Y-109794354D01*
X182081544Y-109646784D01*
X182013624Y-109482812D01*
X181979000Y-109308741D01*
X181979000Y-109131259D01*
X182013624Y-108957188D01*
X182081544Y-108793216D01*
X182180147Y-108645646D01*
X182305646Y-108520147D01*
X182453216Y-108421544D01*
X182617188Y-108353624D01*
X182766488Y-108323927D01*
X182791258Y-108319000D01*
X182968742Y-108319000D01*
X182993512Y-108323927D01*
G37*
G36*
X177290589Y-107188876D02*
G01*
X177389893Y-107208629D01*
X177530206Y-107266748D01*
X177656484Y-107351125D01*
X177763875Y-107458516D01*
X177848252Y-107584794D01*
X177906371Y-107725107D01*
X177936000Y-107874063D01*
X177936000Y-108025937D01*
X177906371Y-108174893D01*
X177848252Y-108315206D01*
X177763875Y-108441484D01*
X177656484Y-108548875D01*
X177530206Y-108633252D01*
X177389893Y-108691371D01*
X177290589Y-108711124D01*
X177240938Y-108721000D01*
X177089062Y-108721000D01*
X177039411Y-108711124D01*
X176940107Y-108691371D01*
X176799794Y-108633252D01*
X176673516Y-108548875D01*
X176566125Y-108441484D01*
X176481748Y-108315206D01*
X176423629Y-108174893D01*
X176394000Y-108025937D01*
X176394000Y-107874063D01*
X176423629Y-107725107D01*
X176481748Y-107584794D01*
X176566125Y-107458516D01*
X176673516Y-107351125D01*
X176799794Y-107266748D01*
X176940107Y-107208629D01*
X177039411Y-107188876D01*
X177089062Y-107179000D01*
X177240938Y-107179000D01*
X177290589Y-107188876D01*
G37*
G36*
X168396228Y-106115703D02*
G01*
X168551100Y-106179853D01*
X168690481Y-106272985D01*
X168809015Y-106391519D01*
X168902147Y-106530900D01*
X168966297Y-106685772D01*
X168999000Y-106850184D01*
X168999000Y-107017816D01*
X168966297Y-107182228D01*
X168902147Y-107337100D01*
X168809015Y-107476481D01*
X168690481Y-107595015D01*
X168551100Y-107688147D01*
X168396228Y-107752297D01*
X168231816Y-107785000D01*
X168064184Y-107785000D01*
X167899772Y-107752297D01*
X167744900Y-107688147D01*
X167605519Y-107595015D01*
X167486985Y-107476481D01*
X167393853Y-107337100D01*
X167329703Y-107182228D01*
X167297000Y-107017816D01*
X167297000Y-106850184D01*
X167329703Y-106685772D01*
X167393853Y-106530900D01*
X167486985Y-106391519D01*
X167605519Y-106272985D01*
X167744900Y-106179853D01*
X167899772Y-106115703D01*
X168064184Y-106083000D01*
X168231816Y-106083000D01*
X168396228Y-106115703D01*
G37*
G36*
X163396228Y-106115703D02*
G01*
X163551100Y-106179853D01*
X163690481Y-106272985D01*
X163809015Y-106391519D01*
X163902147Y-106530900D01*
X163966297Y-106685772D01*
X163999000Y-106850184D01*
X163999000Y-107017816D01*
X163966297Y-107182228D01*
X163902147Y-107337100D01*
X163809015Y-107476481D01*
X163690481Y-107595015D01*
X163551100Y-107688147D01*
X163396228Y-107752297D01*
X163231816Y-107785000D01*
X163064184Y-107785000D01*
X162899772Y-107752297D01*
X162744900Y-107688147D01*
X162605519Y-107595015D01*
X162486985Y-107476481D01*
X162393853Y-107337100D01*
X162329703Y-107182228D01*
X162297000Y-107017816D01*
X162297000Y-106850184D01*
X162329703Y-106685772D01*
X162393853Y-106530900D01*
X162486985Y-106391519D01*
X162605519Y-106272985D01*
X162744900Y-106179853D01*
X162899772Y-106115703D01*
X163064184Y-106083000D01*
X163231816Y-106083000D01*
X163396228Y-106115703D01*
G37*
G36*
X183781000Y-107581000D02*
G01*
X181979000Y-107581000D01*
X181979000Y-105779000D01*
X183781000Y-105779000D01*
X183781000Y-107581000D01*
G37*
G36*
X158236228Y-102479703D02*
G01*
X158391100Y-102543853D01*
X158530481Y-102636985D01*
X158649015Y-102755519D01*
X158742147Y-102894900D01*
X158806297Y-103049772D01*
X158839000Y-103214184D01*
X158839000Y-103381816D01*
X158806297Y-103546228D01*
X158742147Y-103701100D01*
X158649015Y-103840481D01*
X158530481Y-103959015D01*
X158391100Y-104052147D01*
X158236228Y-104116297D01*
X158071816Y-104149000D01*
X157904184Y-104149000D01*
X157739772Y-104116297D01*
X157584900Y-104052147D01*
X157445519Y-103959015D01*
X157326985Y-103840481D01*
X157233853Y-103701100D01*
X157169703Y-103546228D01*
X157137000Y-103381816D01*
X157137000Y-103214184D01*
X157169703Y-103049772D01*
X157233853Y-102894900D01*
X157326985Y-102755519D01*
X157445519Y-102636985D01*
X157584900Y-102543853D01*
X157739772Y-102479703D01*
X157904184Y-102447000D01*
X158071816Y-102447000D01*
X158236228Y-102479703D01*
G37*
G36*
X153156228Y-102479703D02*
G01*
X153311100Y-102543853D01*
X153450481Y-102636985D01*
X153569015Y-102755519D01*
X153662147Y-102894900D01*
X153726297Y-103049772D01*
X153759000Y-103214184D01*
X153759000Y-103381816D01*
X153726297Y-103546228D01*
X153662147Y-103701100D01*
X153569015Y-103840481D01*
X153450481Y-103959015D01*
X153311100Y-104052147D01*
X153156228Y-104116297D01*
X152991816Y-104149000D01*
X152824184Y-104149000D01*
X152659772Y-104116297D01*
X152504900Y-104052147D01*
X152365519Y-103959015D01*
X152246985Y-103840481D01*
X152153853Y-103701100D01*
X152089703Y-103546228D01*
X152057000Y-103381816D01*
X152057000Y-103214184D01*
X152089703Y-103049772D01*
X152153853Y-102894900D01*
X152246985Y-102755519D01*
X152365519Y-102636985D01*
X152504900Y-102543853D01*
X152659772Y-102479703D01*
X152824184Y-102447000D01*
X152991816Y-102447000D01*
X153156228Y-102479703D01*
G37*
G36*
X158236228Y-97479703D02*
G01*
X158391100Y-97543853D01*
X158530481Y-97636985D01*
X158649015Y-97755519D01*
X158742147Y-97894900D01*
X158806297Y-98049772D01*
X158839000Y-98214184D01*
X158839000Y-98381816D01*
X158806297Y-98546228D01*
X158742147Y-98701100D01*
X158649015Y-98840481D01*
X158530481Y-98959015D01*
X158391100Y-99052147D01*
X158236228Y-99116297D01*
X158071816Y-99149000D01*
X157904184Y-99149000D01*
X157739772Y-99116297D01*
X157584900Y-99052147D01*
X157445519Y-98959015D01*
X157326985Y-98840481D01*
X157233853Y-98701100D01*
X157169703Y-98546228D01*
X157137000Y-98381816D01*
X157137000Y-98214184D01*
X157169703Y-98049772D01*
X157233853Y-97894900D01*
X157326985Y-97755519D01*
X157445519Y-97636985D01*
X157584900Y-97543853D01*
X157739772Y-97479703D01*
X157904184Y-97447000D01*
X158071816Y-97447000D01*
X158236228Y-97479703D01*
G37*
G36*
X153156228Y-97479703D02*
G01*
X153311100Y-97543853D01*
X153450481Y-97636985D01*
X153569015Y-97755519D01*
X153662147Y-97894900D01*
X153726297Y-98049772D01*
X153759000Y-98214184D01*
X153759000Y-98381816D01*
X153726297Y-98546228D01*
X153662147Y-98701100D01*
X153569015Y-98840481D01*
X153450481Y-98959015D01*
X153311100Y-99052147D01*
X153156228Y-99116297D01*
X152991816Y-99149000D01*
X152824184Y-99149000D01*
X152659772Y-99116297D01*
X152504900Y-99052147D01*
X152365519Y-98959015D01*
X152246985Y-98840481D01*
X152153853Y-98701100D01*
X152089703Y-98546228D01*
X152057000Y-98381816D01*
X152057000Y-98214184D01*
X152089703Y-98049772D01*
X152153853Y-97894900D01*
X152246985Y-97755519D01*
X152365519Y-97636985D01*
X152504900Y-97543853D01*
X152659772Y-97479703D01*
X152824184Y-97447000D01*
X152991816Y-97447000D01*
X153156228Y-97479703D01*
G37*
G36*
X148679000Y-96609000D02*
G01*
X146977000Y-96609000D01*
X146977000Y-94907000D01*
X148679000Y-94907000D01*
X148679000Y-96609000D01*
G37*
G36*
X150616228Y-94939703D02*
G01*
X150771100Y-95003853D01*
X150910481Y-95096985D01*
X151029015Y-95215519D01*
X151122147Y-95354900D01*
X151186297Y-95509772D01*
X151219000Y-95674184D01*
X151219000Y-95841816D01*
X151186297Y-96006228D01*
X151122147Y-96161100D01*
X151029015Y-96300481D01*
X150910481Y-96419015D01*
X150771100Y-96512147D01*
X150616228Y-96576297D01*
X150451816Y-96609000D01*
X150284184Y-96609000D01*
X150119772Y-96576297D01*
X149964900Y-96512147D01*
X149825519Y-96419015D01*
X149706985Y-96300481D01*
X149613853Y-96161100D01*
X149549703Y-96006228D01*
X149517000Y-95841816D01*
X149517000Y-95674184D01*
X149549703Y-95509772D01*
X149613853Y-95354900D01*
X149706985Y-95215519D01*
X149825519Y-95096985D01*
X149964900Y-95003853D01*
X150119772Y-94939703D01*
X150284184Y-94907000D01*
X150451816Y-94907000D01*
X150616228Y-94939703D01*
G37*
G36*
X158236228Y-94939703D02*
G01*
X158391100Y-95003853D01*
X158530481Y-95096985D01*
X158649015Y-95215519D01*
X158742147Y-95354900D01*
X158806297Y-95509772D01*
X158839000Y-95674184D01*
X158839000Y-95841816D01*
X158806297Y-96006228D01*
X158742147Y-96161100D01*
X158649015Y-96300481D01*
X158530481Y-96419015D01*
X158391100Y-96512147D01*
X158236228Y-96576297D01*
X158071816Y-96609000D01*
X157904184Y-96609000D01*
X157739772Y-96576297D01*
X157584900Y-96512147D01*
X157445519Y-96419015D01*
X157326985Y-96300481D01*
X157233853Y-96161100D01*
X157169703Y-96006228D01*
X157137000Y-95841816D01*
X157137000Y-95674184D01*
X157169703Y-95509772D01*
X157233853Y-95354900D01*
X157326985Y-95215519D01*
X157445519Y-95096985D01*
X157584900Y-95003853D01*
X157739772Y-94939703D01*
X157904184Y-94907000D01*
X158071816Y-94907000D01*
X158236228Y-94939703D01*
G37*
G36*
X168396228Y-94939703D02*
G01*
X168551100Y-95003853D01*
X168690481Y-95096985D01*
X168809015Y-95215519D01*
X168902147Y-95354900D01*
X168966297Y-95509772D01*
X168999000Y-95674184D01*
X168999000Y-95841816D01*
X168966297Y-96006228D01*
X168902147Y-96161100D01*
X168809015Y-96300481D01*
X168690481Y-96419015D01*
X168551100Y-96512147D01*
X168396228Y-96576297D01*
X168231816Y-96609000D01*
X168064184Y-96609000D01*
X167899772Y-96576297D01*
X167744900Y-96512147D01*
X167605519Y-96419015D01*
X167486985Y-96300481D01*
X167393853Y-96161100D01*
X167329703Y-96006228D01*
X167297000Y-95841816D01*
X167297000Y-95674184D01*
X167329703Y-95509772D01*
X167393853Y-95354900D01*
X167486985Y-95215519D01*
X167605519Y-95096985D01*
X167744900Y-95003853D01*
X167899772Y-94939703D01*
X168064184Y-94907000D01*
X168231816Y-94907000D01*
X168396228Y-94939703D01*
G37*
G36*
X165856228Y-94939703D02*
G01*
X166011100Y-95003853D01*
X166150481Y-95096985D01*
X166269015Y-95215519D01*
X166362147Y-95354900D01*
X166426297Y-95509772D01*
X166459000Y-95674184D01*
X166459000Y-95841816D01*
X166426297Y-96006228D01*
X166362147Y-96161100D01*
X166269015Y-96300481D01*
X166150481Y-96419015D01*
X166011100Y-96512147D01*
X165856228Y-96576297D01*
X165691816Y-96609000D01*
X165524184Y-96609000D01*
X165359772Y-96576297D01*
X165204900Y-96512147D01*
X165065519Y-96419015D01*
X164946985Y-96300481D01*
X164853853Y-96161100D01*
X164789703Y-96006228D01*
X164757000Y-95841816D01*
X164757000Y-95674184D01*
X164789703Y-95509772D01*
X164853853Y-95354900D01*
X164946985Y-95215519D01*
X165065519Y-95096985D01*
X165204900Y-95003853D01*
X165359772Y-94939703D01*
X165524184Y-94907000D01*
X165691816Y-94907000D01*
X165856228Y-94939703D01*
G37*
G36*
X163316228Y-94939703D02*
G01*
X163471100Y-95003853D01*
X163610481Y-95096985D01*
X163729015Y-95215519D01*
X163822147Y-95354900D01*
X163886297Y-95509772D01*
X163919000Y-95674184D01*
X163919000Y-95841816D01*
X163886297Y-96006228D01*
X163822147Y-96161100D01*
X163729015Y-96300481D01*
X163610481Y-96419015D01*
X163471100Y-96512147D01*
X163316228Y-96576297D01*
X163151816Y-96609000D01*
X162984184Y-96609000D01*
X162819772Y-96576297D01*
X162664900Y-96512147D01*
X162525519Y-96419015D01*
X162406985Y-96300481D01*
X162313853Y-96161100D01*
X162249703Y-96006228D01*
X162217000Y-95841816D01*
X162217000Y-95674184D01*
X162249703Y-95509772D01*
X162313853Y-95354900D01*
X162406985Y-95215519D01*
X162525519Y-95096985D01*
X162664900Y-95003853D01*
X162819772Y-94939703D01*
X162984184Y-94907000D01*
X163151816Y-94907000D01*
X163316228Y-94939703D01*
G37*
G36*
X155696228Y-94939703D02*
G01*
X155851100Y-95003853D01*
X155990481Y-95096985D01*
X156109015Y-95215519D01*
X156202147Y-95354900D01*
X156266297Y-95509772D01*
X156299000Y-95674184D01*
X156299000Y-95841816D01*
X156266297Y-96006228D01*
X156202147Y-96161100D01*
X156109015Y-96300481D01*
X155990481Y-96419015D01*
X155851100Y-96512147D01*
X155696228Y-96576297D01*
X155531816Y-96609000D01*
X155364184Y-96609000D01*
X155199772Y-96576297D01*
X155044900Y-96512147D01*
X154905519Y-96419015D01*
X154786985Y-96300481D01*
X154693853Y-96161100D01*
X154629703Y-96006228D01*
X154597000Y-95841816D01*
X154597000Y-95674184D01*
X154629703Y-95509772D01*
X154693853Y-95354900D01*
X154786985Y-95215519D01*
X154905519Y-95096985D01*
X155044900Y-95003853D01*
X155199772Y-94939703D01*
X155364184Y-94907000D01*
X155531816Y-94907000D01*
X155696228Y-94939703D01*
G37*
G36*
X160776228Y-94939703D02*
G01*
X160931100Y-95003853D01*
X161070481Y-95096985D01*
X161189015Y-95215519D01*
X161282147Y-95354900D01*
X161346297Y-95509772D01*
X161379000Y-95674184D01*
X161379000Y-95841816D01*
X161346297Y-96006228D01*
X161282147Y-96161100D01*
X161189015Y-96300481D01*
X161070481Y-96419015D01*
X160931100Y-96512147D01*
X160776228Y-96576297D01*
X160611816Y-96609000D01*
X160444184Y-96609000D01*
X160279772Y-96576297D01*
X160124900Y-96512147D01*
X159985519Y-96419015D01*
X159866985Y-96300481D01*
X159773853Y-96161100D01*
X159709703Y-96006228D01*
X159677000Y-95841816D01*
X159677000Y-95674184D01*
X159709703Y-95509772D01*
X159773853Y-95354900D01*
X159866985Y-95215519D01*
X159985519Y-95096985D01*
X160124900Y-95003853D01*
X160279772Y-94939703D01*
X160444184Y-94907000D01*
X160611816Y-94907000D01*
X160776228Y-94939703D01*
G37*
G36*
X153156228Y-94939703D02*
G01*
X153311100Y-95003853D01*
X153450481Y-95096985D01*
X153569015Y-95215519D01*
X153662147Y-95354900D01*
X153726297Y-95509772D01*
X153759000Y-95674184D01*
X153759000Y-95841816D01*
X153726297Y-96006228D01*
X153662147Y-96161100D01*
X153569015Y-96300481D01*
X153450481Y-96419015D01*
X153311100Y-96512147D01*
X153156228Y-96576297D01*
X152991816Y-96609000D01*
X152824184Y-96609000D01*
X152659772Y-96576297D01*
X152504900Y-96512147D01*
X152365519Y-96419015D01*
X152246985Y-96300481D01*
X152153853Y-96161100D01*
X152089703Y-96006228D01*
X152057000Y-95841816D01*
X152057000Y-95674184D01*
X152089703Y-95509772D01*
X152153853Y-95354900D01*
X152246985Y-95215519D01*
X152365519Y-95096985D01*
X152504900Y-95003853D01*
X152659772Y-94939703D01*
X152824184Y-94907000D01*
X152991816Y-94907000D01*
X153156228Y-94939703D01*
G37*
G36*
X150616228Y-87319703D02*
G01*
X150771100Y-87383853D01*
X150910481Y-87476985D01*
X151029015Y-87595519D01*
X151122147Y-87734900D01*
X151186297Y-87889772D01*
X151219000Y-88054184D01*
X151219000Y-88221816D01*
X151186297Y-88386228D01*
X151122147Y-88541100D01*
X151029015Y-88680481D01*
X150910481Y-88799015D01*
X150771100Y-88892147D01*
X150616228Y-88956297D01*
X150451816Y-88989000D01*
X150284184Y-88989000D01*
X150119772Y-88956297D01*
X149964900Y-88892147D01*
X149825519Y-88799015D01*
X149706985Y-88680481D01*
X149613853Y-88541100D01*
X149549703Y-88386228D01*
X149517000Y-88221816D01*
X149517000Y-88054184D01*
X149549703Y-87889772D01*
X149613853Y-87734900D01*
X149706985Y-87595519D01*
X149825519Y-87476985D01*
X149964900Y-87383853D01*
X150119772Y-87319703D01*
X150284184Y-87287000D01*
X150451816Y-87287000D01*
X150616228Y-87319703D01*
G37*
G36*
X148076228Y-87319703D02*
G01*
X148231100Y-87383853D01*
X148370481Y-87476985D01*
X148489015Y-87595519D01*
X148582147Y-87734900D01*
X148646297Y-87889772D01*
X148679000Y-88054184D01*
X148679000Y-88221816D01*
X148646297Y-88386228D01*
X148582147Y-88541100D01*
X148489015Y-88680481D01*
X148370481Y-88799015D01*
X148231100Y-88892147D01*
X148076228Y-88956297D01*
X147911816Y-88989000D01*
X147744184Y-88989000D01*
X147579772Y-88956297D01*
X147424900Y-88892147D01*
X147285519Y-88799015D01*
X147166985Y-88680481D01*
X147073853Y-88541100D01*
X147009703Y-88386228D01*
X146977000Y-88221816D01*
X146977000Y-88054184D01*
X147009703Y-87889772D01*
X147073853Y-87734900D01*
X147166985Y-87595519D01*
X147285519Y-87476985D01*
X147424900Y-87383853D01*
X147579772Y-87319703D01*
X147744184Y-87287000D01*
X147911816Y-87287000D01*
X148076228Y-87319703D01*
G37*
G36*
X153156228Y-87319703D02*
G01*
X153311100Y-87383853D01*
X153450481Y-87476985D01*
X153569015Y-87595519D01*
X153662147Y-87734900D01*
X153726297Y-87889772D01*
X153759000Y-88054184D01*
X153759000Y-88221816D01*
X153726297Y-88386228D01*
X153662147Y-88541100D01*
X153569015Y-88680481D01*
X153450481Y-88799015D01*
X153311100Y-88892147D01*
X153156228Y-88956297D01*
X152991816Y-88989000D01*
X152824184Y-88989000D01*
X152659772Y-88956297D01*
X152504900Y-88892147D01*
X152365519Y-88799015D01*
X152246985Y-88680481D01*
X152153853Y-88541100D01*
X152089703Y-88386228D01*
X152057000Y-88221816D01*
X152057000Y-88054184D01*
X152089703Y-87889772D01*
X152153853Y-87734900D01*
X152246985Y-87595519D01*
X152365519Y-87476985D01*
X152504900Y-87383853D01*
X152659772Y-87319703D01*
X152824184Y-87287000D01*
X152991816Y-87287000D01*
X153156228Y-87319703D01*
G37*
G36*
X155696228Y-87319703D02*
G01*
X155851100Y-87383853D01*
X155990481Y-87476985D01*
X156109015Y-87595519D01*
X156202147Y-87734900D01*
X156266297Y-87889772D01*
X156299000Y-88054184D01*
X156299000Y-88221816D01*
X156266297Y-88386228D01*
X156202147Y-88541100D01*
X156109015Y-88680481D01*
X155990481Y-88799015D01*
X155851100Y-88892147D01*
X155696228Y-88956297D01*
X155531816Y-88989000D01*
X155364184Y-88989000D01*
X155199772Y-88956297D01*
X155044900Y-88892147D01*
X154905519Y-88799015D01*
X154786985Y-88680481D01*
X154693853Y-88541100D01*
X154629703Y-88386228D01*
X154597000Y-88221816D01*
X154597000Y-88054184D01*
X154629703Y-87889772D01*
X154693853Y-87734900D01*
X154786985Y-87595519D01*
X154905519Y-87476985D01*
X155044900Y-87383853D01*
X155199772Y-87319703D01*
X155364184Y-87287000D01*
X155531816Y-87287000D01*
X155696228Y-87319703D01*
G37*
G36*
X158236228Y-87319703D02*
G01*
X158391100Y-87383853D01*
X158530481Y-87476985D01*
X158649015Y-87595519D01*
X158742147Y-87734900D01*
X158806297Y-87889772D01*
X158839000Y-88054184D01*
X158839000Y-88221816D01*
X158806297Y-88386228D01*
X158742147Y-88541100D01*
X158649015Y-88680481D01*
X158530481Y-88799015D01*
X158391100Y-88892147D01*
X158236228Y-88956297D01*
X158071816Y-88989000D01*
X157904184Y-88989000D01*
X157739772Y-88956297D01*
X157584900Y-88892147D01*
X157445519Y-88799015D01*
X157326985Y-88680481D01*
X157233853Y-88541100D01*
X157169703Y-88386228D01*
X157137000Y-88221816D01*
X157137000Y-88054184D01*
X157169703Y-87889772D01*
X157233853Y-87734900D01*
X157326985Y-87595519D01*
X157445519Y-87476985D01*
X157584900Y-87383853D01*
X157739772Y-87319703D01*
X157904184Y-87287000D01*
X158071816Y-87287000D01*
X158236228Y-87319703D01*
G37*
G36*
X177968228Y-87319703D02*
G01*
X178123100Y-87383853D01*
X178262481Y-87476985D01*
X178381015Y-87595519D01*
X178474147Y-87734900D01*
X178538297Y-87889772D01*
X178571000Y-88054184D01*
X178571000Y-88221816D01*
X178538297Y-88386228D01*
X178474147Y-88541100D01*
X178381015Y-88680481D01*
X178262481Y-88799015D01*
X178123100Y-88892147D01*
X177968228Y-88956297D01*
X177803816Y-88989000D01*
X177636184Y-88989000D01*
X177471772Y-88956297D01*
X177316900Y-88892147D01*
X177177519Y-88799015D01*
X177058985Y-88680481D01*
X176965853Y-88541100D01*
X176901703Y-88386228D01*
X176869000Y-88221816D01*
X176869000Y-88054184D01*
X176901703Y-87889772D01*
X176965853Y-87734900D01*
X177058985Y-87595519D01*
X177177519Y-87476985D01*
X177316900Y-87383853D01*
X177471772Y-87319703D01*
X177636184Y-87287000D01*
X177803816Y-87287000D01*
X177968228Y-87319703D01*
G37*
G36*
X172968228Y-87319703D02*
G01*
X173123100Y-87383853D01*
X173262481Y-87476985D01*
X173381015Y-87595519D01*
X173474147Y-87734900D01*
X173538297Y-87889772D01*
X173571000Y-88054184D01*
X173571000Y-88221816D01*
X173538297Y-88386228D01*
X173474147Y-88541100D01*
X173381015Y-88680481D01*
X173262481Y-88799015D01*
X173123100Y-88892147D01*
X172968228Y-88956297D01*
X172803816Y-88989000D01*
X172636184Y-88989000D01*
X172471772Y-88956297D01*
X172316900Y-88892147D01*
X172177519Y-88799015D01*
X172058985Y-88680481D01*
X171965853Y-88541100D01*
X171901703Y-88386228D01*
X171869000Y-88221816D01*
X171869000Y-88054184D01*
X171901703Y-87889772D01*
X171965853Y-87734900D01*
X172058985Y-87595519D01*
X172177519Y-87476985D01*
X172316900Y-87383853D01*
X172471772Y-87319703D01*
X172636184Y-87287000D01*
X172803816Y-87287000D01*
X172968228Y-87319703D01*
G37*
G36*
X163316228Y-87319703D02*
G01*
X163471100Y-87383853D01*
X163610481Y-87476985D01*
X163729015Y-87595519D01*
X163822147Y-87734900D01*
X163886297Y-87889772D01*
X163919000Y-88054184D01*
X163919000Y-88221816D01*
X163886297Y-88386228D01*
X163822147Y-88541100D01*
X163729015Y-88680481D01*
X163610481Y-88799015D01*
X163471100Y-88892147D01*
X163316228Y-88956297D01*
X163151816Y-88989000D01*
X162984184Y-88989000D01*
X162819772Y-88956297D01*
X162664900Y-88892147D01*
X162525519Y-88799015D01*
X162406985Y-88680481D01*
X162313853Y-88541100D01*
X162249703Y-88386228D01*
X162217000Y-88221816D01*
X162217000Y-88054184D01*
X162249703Y-87889772D01*
X162313853Y-87734900D01*
X162406985Y-87595519D01*
X162525519Y-87476985D01*
X162664900Y-87383853D01*
X162819772Y-87319703D01*
X162984184Y-87287000D01*
X163151816Y-87287000D01*
X163316228Y-87319703D01*
G37*
G36*
X165856228Y-87319703D02*
G01*
X166011100Y-87383853D01*
X166150481Y-87476985D01*
X166269015Y-87595519D01*
X166362147Y-87734900D01*
X166426297Y-87889772D01*
X166459000Y-88054184D01*
X166459000Y-88221816D01*
X166426297Y-88386228D01*
X166362147Y-88541100D01*
X166269015Y-88680481D01*
X166150481Y-88799015D01*
X166011100Y-88892147D01*
X165856228Y-88956297D01*
X165691816Y-88989000D01*
X165524184Y-88989000D01*
X165359772Y-88956297D01*
X165204900Y-88892147D01*
X165065519Y-88799015D01*
X164946985Y-88680481D01*
X164853853Y-88541100D01*
X164789703Y-88386228D01*
X164757000Y-88221816D01*
X164757000Y-88054184D01*
X164789703Y-87889772D01*
X164853853Y-87734900D01*
X164946985Y-87595519D01*
X165065519Y-87476985D01*
X165204900Y-87383853D01*
X165359772Y-87319703D01*
X165524184Y-87287000D01*
X165691816Y-87287000D01*
X165856228Y-87319703D01*
G37*
G36*
X168396228Y-87319703D02*
G01*
X168551100Y-87383853D01*
X168690481Y-87476985D01*
X168809015Y-87595519D01*
X168902147Y-87734900D01*
X168966297Y-87889772D01*
X168999000Y-88054184D01*
X168999000Y-88221816D01*
X168966297Y-88386228D01*
X168902147Y-88541100D01*
X168809015Y-88680481D01*
X168690481Y-88799015D01*
X168551100Y-88892147D01*
X168396228Y-88956297D01*
X168231816Y-88989000D01*
X168064184Y-88989000D01*
X167899772Y-88956297D01*
X167744900Y-88892147D01*
X167605519Y-88799015D01*
X167486985Y-88680481D01*
X167393853Y-88541100D01*
X167329703Y-88386228D01*
X167297000Y-88221816D01*
X167297000Y-88054184D01*
X167329703Y-87889772D01*
X167393853Y-87734900D01*
X167486985Y-87595519D01*
X167605519Y-87476985D01*
X167744900Y-87383853D01*
X167899772Y-87319703D01*
X168064184Y-87287000D01*
X168231816Y-87287000D01*
X168396228Y-87319703D01*
G37*
G36*
X160776228Y-87319703D02*
G01*
X160931100Y-87383853D01*
X161070481Y-87476985D01*
X161189015Y-87595519D01*
X161282147Y-87734900D01*
X161346297Y-87889772D01*
X161379000Y-88054184D01*
X161379000Y-88221816D01*
X161346297Y-88386228D01*
X161282147Y-88541100D01*
X161189015Y-88680481D01*
X161070481Y-88799015D01*
X160931100Y-88892147D01*
X160776228Y-88956297D01*
X160611816Y-88989000D01*
X160444184Y-88989000D01*
X160279772Y-88956297D01*
X160124900Y-88892147D01*
X159985519Y-88799015D01*
X159866985Y-88680481D01*
X159773853Y-88541100D01*
X159709703Y-88386228D01*
X159677000Y-88221816D01*
X159677000Y-88054184D01*
X159709703Y-87889772D01*
X159773853Y-87734900D01*
X159866985Y-87595519D01*
X159985519Y-87476985D01*
X160124900Y-87383853D01*
X160279772Y-87319703D01*
X160444184Y-87287000D01*
X160611816Y-87287000D01*
X160776228Y-87319703D01*
G37*
G36*
X182993512Y-85463927D02*
G01*
X183142812Y-85493624D01*
X183306784Y-85561544D01*
X183454354Y-85660147D01*
X183579853Y-85785646D01*
X183678456Y-85933216D01*
X183746376Y-86097188D01*
X183776073Y-86246488D01*
X183781000Y-86271258D01*
X183781000Y-86448742D01*
X183776073Y-86473512D01*
X183746376Y-86622812D01*
X183678456Y-86786784D01*
X183579853Y-86934354D01*
X183454354Y-87059853D01*
X183306784Y-87158456D01*
X183142812Y-87226376D01*
X182993512Y-87256073D01*
X182968742Y-87261000D01*
X182791258Y-87261000D01*
X182766488Y-87256073D01*
X182617188Y-87226376D01*
X182453216Y-87158456D01*
X182305646Y-87059853D01*
X182180147Y-86934354D01*
X182081544Y-86786784D01*
X182013624Y-86622812D01*
X181983927Y-86473512D01*
X181979000Y-86448742D01*
X181979000Y-86271258D01*
X181983927Y-86246488D01*
X182013624Y-86097188D01*
X182081544Y-85933216D01*
X182180147Y-85785646D01*
X182305646Y-85660147D01*
X182453216Y-85561544D01*
X182617188Y-85493624D01*
X182766488Y-85463927D01*
X182791258Y-85459000D01*
X182968742Y-85459000D01*
X182993512Y-85463927D01*
G37*
G36*
X129653512Y-85463927D02*
G01*
X129802812Y-85493624D01*
X129966784Y-85561544D01*
X130114354Y-85660147D01*
X130239853Y-85785646D01*
X130338456Y-85933216D01*
X130406376Y-86097188D01*
X130436073Y-86246488D01*
X130441000Y-86271258D01*
X130441000Y-86448742D01*
X130436073Y-86473512D01*
X130406376Y-86622812D01*
X130338456Y-86786784D01*
X130239853Y-86934354D01*
X130114354Y-87059853D01*
X129966784Y-87158456D01*
X129802812Y-87226376D01*
X129653512Y-87256073D01*
X129628742Y-87261000D01*
X129451258Y-87261000D01*
X129426488Y-87256073D01*
X129277188Y-87226376D01*
X129113216Y-87158456D01*
X128965646Y-87059853D01*
X128840147Y-86934354D01*
X128741544Y-86786784D01*
X128673624Y-86622812D01*
X128643927Y-86473512D01*
X128639000Y-86448742D01*
X128639000Y-86271258D01*
X128643927Y-86246488D01*
X128673624Y-86097188D01*
X128741544Y-85933216D01*
X128840147Y-85785646D01*
X128965646Y-85660147D01*
X129113216Y-85561544D01*
X129277188Y-85493624D01*
X129426488Y-85463927D01*
X129451258Y-85459000D01*
X129628742Y-85459000D01*
X129653512Y-85463927D01*
G37*
G36*
X165856228Y-84779703D02*
G01*
X166011100Y-84843853D01*
X166150481Y-84936985D01*
X166269015Y-85055519D01*
X166362147Y-85194900D01*
X166426297Y-85349772D01*
X166459000Y-85514184D01*
X166459000Y-85681816D01*
X166426297Y-85846228D01*
X166362147Y-86001100D01*
X166269015Y-86140481D01*
X166150481Y-86259015D01*
X166011100Y-86352147D01*
X165856228Y-86416297D01*
X165691816Y-86449000D01*
X165524184Y-86449000D01*
X165359772Y-86416297D01*
X165204900Y-86352147D01*
X165065519Y-86259015D01*
X164946985Y-86140481D01*
X164853853Y-86001100D01*
X164789703Y-85846228D01*
X164757000Y-85681816D01*
X164757000Y-85514184D01*
X164789703Y-85349772D01*
X164853853Y-85194900D01*
X164946985Y-85055519D01*
X165065519Y-84936985D01*
X165204900Y-84843853D01*
X165359772Y-84779703D01*
X165524184Y-84747000D01*
X165691816Y-84747000D01*
X165856228Y-84779703D01*
G37*
G36*
X153664228Y-84779703D02*
G01*
X153819100Y-84843853D01*
X153958481Y-84936985D01*
X154077015Y-85055519D01*
X154170147Y-85194900D01*
X154234297Y-85349772D01*
X154267000Y-85514184D01*
X154267000Y-85681816D01*
X154234297Y-85846228D01*
X154170147Y-86001100D01*
X154077015Y-86140481D01*
X153958481Y-86259015D01*
X153819100Y-86352147D01*
X153664228Y-86416297D01*
X153499816Y-86449000D01*
X153332184Y-86449000D01*
X153167772Y-86416297D01*
X153012900Y-86352147D01*
X152873519Y-86259015D01*
X152754985Y-86140481D01*
X152661853Y-86001100D01*
X152597703Y-85846228D01*
X152565000Y-85681816D01*
X152565000Y-85514184D01*
X152597703Y-85349772D01*
X152661853Y-85194900D01*
X152754985Y-85055519D01*
X152873519Y-84936985D01*
X153012900Y-84843853D01*
X153167772Y-84779703D01*
X153332184Y-84747000D01*
X153499816Y-84747000D01*
X153664228Y-84779703D01*
G37*
G36*
X182993512Y-82923927D02*
G01*
X183142812Y-82953624D01*
X183306784Y-83021544D01*
X183454354Y-83120147D01*
X183579853Y-83245646D01*
X183678456Y-83393216D01*
X183746376Y-83557188D01*
X183781000Y-83731259D01*
X183781000Y-83908741D01*
X183746376Y-84082812D01*
X183678456Y-84246784D01*
X183579853Y-84394354D01*
X183454354Y-84519853D01*
X183306784Y-84618456D01*
X183142812Y-84686376D01*
X182993512Y-84716073D01*
X182968742Y-84721000D01*
X182791258Y-84721000D01*
X182766488Y-84716073D01*
X182617188Y-84686376D01*
X182453216Y-84618456D01*
X182305646Y-84519853D01*
X182180147Y-84394354D01*
X182081544Y-84246784D01*
X182013624Y-84082812D01*
X181979000Y-83908741D01*
X181979000Y-83731259D01*
X182013624Y-83557188D01*
X182081544Y-83393216D01*
X182180147Y-83245646D01*
X182305646Y-83120147D01*
X182453216Y-83021544D01*
X182617188Y-82953624D01*
X182766488Y-82923927D01*
X182791258Y-82919000D01*
X182968742Y-82919000D01*
X182993512Y-82923927D01*
G37*
G36*
X129653512Y-82923927D02*
G01*
X129802812Y-82953624D01*
X129966784Y-83021544D01*
X130114354Y-83120147D01*
X130239853Y-83245646D01*
X130338456Y-83393216D01*
X130406376Y-83557188D01*
X130441000Y-83731259D01*
X130441000Y-83908741D01*
X130406376Y-84082812D01*
X130338456Y-84246784D01*
X130239853Y-84394354D01*
X130114354Y-84519853D01*
X129966784Y-84618456D01*
X129802812Y-84686376D01*
X129653512Y-84716073D01*
X129628742Y-84721000D01*
X129451258Y-84721000D01*
X129426488Y-84716073D01*
X129277188Y-84686376D01*
X129113216Y-84618456D01*
X128965646Y-84519853D01*
X128840147Y-84394354D01*
X128741544Y-84246784D01*
X128673624Y-84082812D01*
X128639000Y-83908741D01*
X128639000Y-83731259D01*
X128673624Y-83557188D01*
X128741544Y-83393216D01*
X128840147Y-83245646D01*
X128965646Y-83120147D01*
X129113216Y-83021544D01*
X129277188Y-82953624D01*
X129426488Y-82923927D01*
X129451258Y-82919000D01*
X129628742Y-82919000D01*
X129653512Y-82923927D01*
G37*
G36*
X129653512Y-80383927D02*
G01*
X129802812Y-80413624D01*
X129966784Y-80481544D01*
X130114354Y-80580147D01*
X130239853Y-80705646D01*
X130338456Y-80853216D01*
X130406376Y-81017188D01*
X130441000Y-81191259D01*
X130441000Y-81368741D01*
X130406376Y-81542812D01*
X130338456Y-81706784D01*
X130239853Y-81854354D01*
X130114354Y-81979853D01*
X129966784Y-82078456D01*
X129802812Y-82146376D01*
X129653512Y-82176073D01*
X129628742Y-82181000D01*
X129451258Y-82181000D01*
X129426488Y-82176073D01*
X129277188Y-82146376D01*
X129113216Y-82078456D01*
X128965646Y-81979853D01*
X128840147Y-81854354D01*
X128741544Y-81706784D01*
X128673624Y-81542812D01*
X128639000Y-81368741D01*
X128639000Y-81191259D01*
X128673624Y-81017188D01*
X128741544Y-80853216D01*
X128840147Y-80705646D01*
X128965646Y-80580147D01*
X129113216Y-80481544D01*
X129277188Y-80413624D01*
X129426488Y-80383927D01*
X129451258Y-80379000D01*
X129628742Y-80379000D01*
X129653512Y-80383927D01*
G37*
G36*
X182993512Y-80383927D02*
G01*
X183142812Y-80413624D01*
X183306784Y-80481544D01*
X183454354Y-80580147D01*
X183579853Y-80705646D01*
X183678456Y-80853216D01*
X183746376Y-81017188D01*
X183781000Y-81191259D01*
X183781000Y-81368741D01*
X183746376Y-81542812D01*
X183678456Y-81706784D01*
X183579853Y-81854354D01*
X183454354Y-81979853D01*
X183306784Y-82078456D01*
X183142812Y-82146376D01*
X182993512Y-82176073D01*
X182968742Y-82181000D01*
X182791258Y-82181000D01*
X182766488Y-82176073D01*
X182617188Y-82146376D01*
X182453216Y-82078456D01*
X182305646Y-81979853D01*
X182180147Y-81854354D01*
X182081544Y-81706784D01*
X182013624Y-81542812D01*
X181979000Y-81368741D01*
X181979000Y-81191259D01*
X182013624Y-81017188D01*
X182081544Y-80853216D01*
X182180147Y-80705646D01*
X182305646Y-80580147D01*
X182453216Y-80481544D01*
X182617188Y-80413624D01*
X182766488Y-80383927D01*
X182791258Y-80379000D01*
X182968742Y-80379000D01*
X182993512Y-80383927D01*
G37*
G36*
X165856228Y-79779703D02*
G01*
X166011100Y-79843853D01*
X166150481Y-79936985D01*
X166269015Y-80055519D01*
X166362147Y-80194900D01*
X166426297Y-80349772D01*
X166459000Y-80514184D01*
X166459000Y-80681816D01*
X166426297Y-80846228D01*
X166362147Y-81001100D01*
X166269015Y-81140481D01*
X166150481Y-81259015D01*
X166011100Y-81352147D01*
X165856228Y-81416297D01*
X165691816Y-81449000D01*
X165524184Y-81449000D01*
X165359772Y-81416297D01*
X165204900Y-81352147D01*
X165065519Y-81259015D01*
X164946985Y-81140481D01*
X164853853Y-81001100D01*
X164789703Y-80846228D01*
X164757000Y-80681816D01*
X164757000Y-80514184D01*
X164789703Y-80349772D01*
X164853853Y-80194900D01*
X164946985Y-80055519D01*
X165065519Y-79936985D01*
X165204900Y-79843853D01*
X165359772Y-79779703D01*
X165524184Y-79747000D01*
X165691816Y-79747000D01*
X165856228Y-79779703D01*
G37*
G36*
X153664228Y-79779703D02*
G01*
X153819100Y-79843853D01*
X153958481Y-79936985D01*
X154077015Y-80055519D01*
X154170147Y-80194900D01*
X154234297Y-80349772D01*
X154267000Y-80514184D01*
X154267000Y-80681816D01*
X154234297Y-80846228D01*
X154170147Y-81001100D01*
X154077015Y-81140481D01*
X153958481Y-81259015D01*
X153819100Y-81352147D01*
X153664228Y-81416297D01*
X153499816Y-81449000D01*
X153332184Y-81449000D01*
X153167772Y-81416297D01*
X153012900Y-81352147D01*
X152873519Y-81259015D01*
X152754985Y-81140481D01*
X152661853Y-81001100D01*
X152597703Y-80846228D01*
X152565000Y-80681816D01*
X152565000Y-80514184D01*
X152597703Y-80349772D01*
X152661853Y-80194900D01*
X152754985Y-80055519D01*
X152873519Y-79936985D01*
X153012900Y-79843853D01*
X153167772Y-79779703D01*
X153332184Y-79747000D01*
X153499816Y-79747000D01*
X153664228Y-79779703D01*
G37*
G36*
X130441000Y-79641000D02*
G01*
X128639000Y-79641000D01*
X128639000Y-77839000D01*
X130441000Y-77839000D01*
X130441000Y-79641000D01*
G37*
G36*
X183781000Y-79641000D02*
G01*
X181979000Y-79641000D01*
X181979000Y-77839000D01*
X183781000Y-77839000D01*
X183781000Y-79641000D01*
G37*
M02*
