G04 #@! TF.GenerationSoftware,KiCad,Pcbnew,5.1.6-c6e7f7d~87~ubuntu18.04.1*
G04 #@! TF.CreationDate,2020-07-17T09:21:27-04:00*
G04 #@! TF.ProjectId,CEM3320_LPF_plug_in_board,43454d33-3332-4305-9f4c-50465f706c75,1.1*
G04 #@! TF.SameCoordinates,Original*
G04 #@! TF.FileFunction,Paste,Top*
G04 #@! TF.FilePolarity,Positive*
%FSLAX46Y46*%
G04 Gerber Fmt 4.6, Leading zero omitted, Abs format (unit mm)*
G04 Created by KiCad (PCBNEW 5.1.6-c6e7f7d~87~ubuntu18.04.1) date 2020-07-17 09:21:27*
%MOMM*%
%LPD*%
G01*
G04 APERTURE LIST*
G04 APERTURE END LIST*
G36*
G01*
X168459999Y-114741000D02*
X169360001Y-114741000D01*
G75*
G02*
X169610000Y-114990999I0J-249999D01*
G01*
X169610000Y-115641001D01*
G75*
G02*
X169360001Y-115891000I-249999J0D01*
G01*
X168459999Y-115891000D01*
G75*
G02*
X168210000Y-115641001I0J249999D01*
G01*
X168210000Y-114990999D01*
G75*
G02*
X168459999Y-114741000I249999J0D01*
G01*
G37*
G36*
G01*
X168459999Y-112691000D02*
X169360001Y-112691000D01*
G75*
G02*
X169610000Y-112940999I0J-249999D01*
G01*
X169610000Y-113591001D01*
G75*
G02*
X169360001Y-113841000I-249999J0D01*
G01*
X168459999Y-113841000D01*
G75*
G02*
X168210000Y-113591001I0J249999D01*
G01*
X168210000Y-112940999D01*
G75*
G02*
X168459999Y-112691000I249999J0D01*
G01*
G37*
G36*
G01*
X153358001Y-112825000D02*
X152457999Y-112825000D01*
G75*
G02*
X152208000Y-112575001I0J249999D01*
G01*
X152208000Y-111924999D01*
G75*
G02*
X152457999Y-111675000I249999J0D01*
G01*
X153358001Y-111675000D01*
G75*
G02*
X153608000Y-111924999I0J-249999D01*
G01*
X153608000Y-112575001D01*
G75*
G02*
X153358001Y-112825000I-249999J0D01*
G01*
G37*
G36*
G01*
X153358001Y-114875000D02*
X152457999Y-114875000D01*
G75*
G02*
X152208000Y-114625001I0J249999D01*
G01*
X152208000Y-113974999D01*
G75*
G02*
X152457999Y-113725000I249999J0D01*
G01*
X153358001Y-113725000D01*
G75*
G02*
X153608000Y-113974999I0J-249999D01*
G01*
X153608000Y-114625001D01*
G75*
G02*
X153358001Y-114875000I-249999J0D01*
G01*
G37*
G36*
G01*
X162282000Y-113053000D02*
X162282000Y-112753000D01*
G75*
G02*
X162432000Y-112603000I150000J0D01*
G01*
X164082000Y-112603000D01*
G75*
G02*
X164232000Y-112753000I0J-150000D01*
G01*
X164232000Y-113053000D01*
G75*
G02*
X164082000Y-113203000I-150000J0D01*
G01*
X162432000Y-113203000D01*
G75*
G02*
X162282000Y-113053000I0J150000D01*
G01*
G37*
G36*
G01*
X162282000Y-114323000D02*
X162282000Y-114023000D01*
G75*
G02*
X162432000Y-113873000I150000J0D01*
G01*
X164082000Y-113873000D01*
G75*
G02*
X164232000Y-114023000I0J-150000D01*
G01*
X164232000Y-114323000D01*
G75*
G02*
X164082000Y-114473000I-150000J0D01*
G01*
X162432000Y-114473000D01*
G75*
G02*
X162282000Y-114323000I0J150000D01*
G01*
G37*
G36*
G01*
X162282000Y-115593000D02*
X162282000Y-115293000D01*
G75*
G02*
X162432000Y-115143000I150000J0D01*
G01*
X164082000Y-115143000D01*
G75*
G02*
X164232000Y-115293000I0J-150000D01*
G01*
X164232000Y-115593000D01*
G75*
G02*
X164082000Y-115743000I-150000J0D01*
G01*
X162432000Y-115743000D01*
G75*
G02*
X162282000Y-115593000I0J150000D01*
G01*
G37*
G36*
G01*
X162282000Y-116863000D02*
X162282000Y-116563000D01*
G75*
G02*
X162432000Y-116413000I150000J0D01*
G01*
X164082000Y-116413000D01*
G75*
G02*
X164232000Y-116563000I0J-150000D01*
G01*
X164232000Y-116863000D01*
G75*
G02*
X164082000Y-117013000I-150000J0D01*
G01*
X162432000Y-117013000D01*
G75*
G02*
X162282000Y-116863000I0J150000D01*
G01*
G37*
G36*
G01*
X157332000Y-116863000D02*
X157332000Y-116563000D01*
G75*
G02*
X157482000Y-116413000I150000J0D01*
G01*
X159132000Y-116413000D01*
G75*
G02*
X159282000Y-116563000I0J-150000D01*
G01*
X159282000Y-116863000D01*
G75*
G02*
X159132000Y-117013000I-150000J0D01*
G01*
X157482000Y-117013000D01*
G75*
G02*
X157332000Y-116863000I0J150000D01*
G01*
G37*
G36*
G01*
X157332000Y-115593000D02*
X157332000Y-115293000D01*
G75*
G02*
X157482000Y-115143000I150000J0D01*
G01*
X159132000Y-115143000D01*
G75*
G02*
X159282000Y-115293000I0J-150000D01*
G01*
X159282000Y-115593000D01*
G75*
G02*
X159132000Y-115743000I-150000J0D01*
G01*
X157482000Y-115743000D01*
G75*
G02*
X157332000Y-115593000I0J150000D01*
G01*
G37*
G36*
G01*
X157332000Y-114323000D02*
X157332000Y-114023000D01*
G75*
G02*
X157482000Y-113873000I150000J0D01*
G01*
X159132000Y-113873000D01*
G75*
G02*
X159282000Y-114023000I0J-150000D01*
G01*
X159282000Y-114323000D01*
G75*
G02*
X159132000Y-114473000I-150000J0D01*
G01*
X157482000Y-114473000D01*
G75*
G02*
X157332000Y-114323000I0J150000D01*
G01*
G37*
G36*
G01*
X157332000Y-113053000D02*
X157332000Y-112753000D01*
G75*
G02*
X157482000Y-112603000I150000J0D01*
G01*
X159132000Y-112603000D01*
G75*
G02*
X159282000Y-112753000I0J-150000D01*
G01*
X159282000Y-113053000D01*
G75*
G02*
X159132000Y-113203000I-150000J0D01*
G01*
X157482000Y-113203000D01*
G75*
G02*
X157332000Y-113053000I0J150000D01*
G01*
G37*
G36*
G01*
X166312001Y-118159000D02*
X165411999Y-118159000D01*
G75*
G02*
X165162000Y-117909001I0J249999D01*
G01*
X165162000Y-117258999D01*
G75*
G02*
X165411999Y-117009000I249999J0D01*
G01*
X166312001Y-117009000D01*
G75*
G02*
X166562000Y-117258999I0J-249999D01*
G01*
X166562000Y-117909001D01*
G75*
G02*
X166312001Y-118159000I-249999J0D01*
G01*
G37*
G36*
G01*
X166312001Y-120209000D02*
X165411999Y-120209000D01*
G75*
G02*
X165162000Y-119959001I0J249999D01*
G01*
X165162000Y-119308999D01*
G75*
G02*
X165411999Y-119059000I249999J0D01*
G01*
X166312001Y-119059000D01*
G75*
G02*
X166562000Y-119308999I0J-249999D01*
G01*
X166562000Y-119959001D01*
G75*
G02*
X166312001Y-120209000I-249999J0D01*
G01*
G37*
G36*
G01*
X171507999Y-114741000D02*
X172408001Y-114741000D01*
G75*
G02*
X172658000Y-114990999I0J-249999D01*
G01*
X172658000Y-115641001D01*
G75*
G02*
X172408001Y-115891000I-249999J0D01*
G01*
X171507999Y-115891000D01*
G75*
G02*
X171258000Y-115641001I0J249999D01*
G01*
X171258000Y-114990999D01*
G75*
G02*
X171507999Y-114741000I249999J0D01*
G01*
G37*
G36*
G01*
X171507999Y-112691000D02*
X172408001Y-112691000D01*
G75*
G02*
X172658000Y-112940999I0J-249999D01*
G01*
X172658000Y-113591001D01*
G75*
G02*
X172408001Y-113841000I-249999J0D01*
G01*
X171507999Y-113841000D01*
G75*
G02*
X171258000Y-113591001I0J249999D01*
G01*
X171258000Y-112940999D01*
G75*
G02*
X171507999Y-112691000I249999J0D01*
G01*
G37*
G36*
G01*
X169360001Y-118177000D02*
X168459999Y-118177000D01*
G75*
G02*
X168210000Y-117927001I0J249999D01*
G01*
X168210000Y-117276999D01*
G75*
G02*
X168459999Y-117027000I249999J0D01*
G01*
X169360001Y-117027000D01*
G75*
G02*
X169610000Y-117276999I0J-249999D01*
G01*
X169610000Y-117927001D01*
G75*
G02*
X169360001Y-118177000I-249999J0D01*
G01*
G37*
G36*
G01*
X169360001Y-120227000D02*
X168459999Y-120227000D01*
G75*
G02*
X168210000Y-119977001I0J249999D01*
G01*
X168210000Y-119326999D01*
G75*
G02*
X168459999Y-119077000I249999J0D01*
G01*
X169360001Y-119077000D01*
G75*
G02*
X169610000Y-119326999I0J-249999D01*
G01*
X169610000Y-119977001D01*
G75*
G02*
X169360001Y-120227000I-249999J0D01*
G01*
G37*
G36*
G01*
X165411999Y-114750000D02*
X166312001Y-114750000D01*
G75*
G02*
X166562000Y-114999999I0J-249999D01*
G01*
X166562000Y-115650001D01*
G75*
G02*
X166312001Y-115900000I-249999J0D01*
G01*
X165411999Y-115900000D01*
G75*
G02*
X165162000Y-115650001I0J249999D01*
G01*
X165162000Y-114999999D01*
G75*
G02*
X165411999Y-114750000I249999J0D01*
G01*
G37*
G36*
G01*
X165411999Y-112700000D02*
X166312001Y-112700000D01*
G75*
G02*
X166562000Y-112949999I0J-249999D01*
G01*
X166562000Y-113600001D01*
G75*
G02*
X166312001Y-113850000I-249999J0D01*
G01*
X165411999Y-113850000D01*
G75*
G02*
X165162000Y-113600001I0J249999D01*
G01*
X165162000Y-112949999D01*
G75*
G02*
X165411999Y-112700000I249999J0D01*
G01*
G37*
G36*
G01*
X158563000Y-85147999D02*
X158563000Y-86048001D01*
G75*
G02*
X158313001Y-86298000I-249999J0D01*
G01*
X157662999Y-86298000D01*
G75*
G02*
X157413000Y-86048001I0J249999D01*
G01*
X157413000Y-85147999D01*
G75*
G02*
X157662999Y-84898000I249999J0D01*
G01*
X158313001Y-84898000D01*
G75*
G02*
X158563000Y-85147999I0J-249999D01*
G01*
G37*
G36*
G01*
X160613000Y-85147999D02*
X160613000Y-86048001D01*
G75*
G02*
X160363001Y-86298000I-249999J0D01*
G01*
X159712999Y-86298000D01*
G75*
G02*
X159463000Y-86048001I0J249999D01*
G01*
X159463000Y-85147999D01*
G75*
G02*
X159712999Y-84898000I249999J0D01*
G01*
X160363001Y-84898000D01*
G75*
G02*
X160613000Y-85147999I0J-249999D01*
G01*
G37*
G36*
G01*
X148278000Y-82746001D02*
X148278000Y-81845999D01*
G75*
G02*
X148527999Y-81596000I249999J0D01*
G01*
X149178001Y-81596000D01*
G75*
G02*
X149428000Y-81845999I0J-249999D01*
G01*
X149428000Y-82746001D01*
G75*
G02*
X149178001Y-82996000I-249999J0D01*
G01*
X148527999Y-82996000D01*
G75*
G02*
X148278000Y-82746001I0J249999D01*
G01*
G37*
G36*
G01*
X146228000Y-82746001D02*
X146228000Y-81845999D01*
G75*
G02*
X146477999Y-81596000I249999J0D01*
G01*
X147128001Y-81596000D01*
G75*
G02*
X147378000Y-81845999I0J-249999D01*
G01*
X147378000Y-82746001D01*
G75*
G02*
X147128001Y-82996000I-249999J0D01*
G01*
X146477999Y-82996000D01*
G75*
G02*
X146228000Y-82746001I0J249999D01*
G01*
G37*
G36*
G01*
X158554000Y-81845999D02*
X158554000Y-82746001D01*
G75*
G02*
X158304001Y-82996000I-249999J0D01*
G01*
X157653999Y-82996000D01*
G75*
G02*
X157404000Y-82746001I0J249999D01*
G01*
X157404000Y-81845999D01*
G75*
G02*
X157653999Y-81596000I249999J0D01*
G01*
X158304001Y-81596000D01*
G75*
G02*
X158554000Y-81845999I0J-249999D01*
G01*
G37*
G36*
G01*
X160604000Y-81845999D02*
X160604000Y-82746001D01*
G75*
G02*
X160354001Y-82996000I-249999J0D01*
G01*
X159703999Y-82996000D01*
G75*
G02*
X159454000Y-82746001I0J249999D01*
G01*
X159454000Y-81845999D01*
G75*
G02*
X159703999Y-81596000I249999J0D01*
G01*
X160354001Y-81596000D01*
G75*
G02*
X160604000Y-81845999I0J-249999D01*
G01*
G37*
G36*
G01*
X166058001Y-98601000D02*
X165157999Y-98601000D01*
G75*
G02*
X164908000Y-98351001I0J249999D01*
G01*
X164908000Y-97700999D01*
G75*
G02*
X165157999Y-97451000I249999J0D01*
G01*
X166058001Y-97451000D01*
G75*
G02*
X166308000Y-97700999I0J-249999D01*
G01*
X166308000Y-98351001D01*
G75*
G02*
X166058001Y-98601000I-249999J0D01*
G01*
G37*
G36*
G01*
X166058001Y-100651000D02*
X165157999Y-100651000D01*
G75*
G02*
X164908000Y-100401001I0J249999D01*
G01*
X164908000Y-99750999D01*
G75*
G02*
X165157999Y-99501000I249999J0D01*
G01*
X166058001Y-99501000D01*
G75*
G02*
X166308000Y-99750999I0J-249999D01*
G01*
X166308000Y-100401001D01*
G75*
G02*
X166058001Y-100651000I-249999J0D01*
G01*
G37*
G36*
G01*
X168459999Y-99510000D02*
X169360001Y-99510000D01*
G75*
G02*
X169610000Y-99759999I0J-249999D01*
G01*
X169610000Y-100410001D01*
G75*
G02*
X169360001Y-100660000I-249999J0D01*
G01*
X168459999Y-100660000D01*
G75*
G02*
X168210000Y-100410001I0J249999D01*
G01*
X168210000Y-99759999D01*
G75*
G02*
X168459999Y-99510000I249999J0D01*
G01*
G37*
G36*
G01*
X168459999Y-97460000D02*
X169360001Y-97460000D01*
G75*
G02*
X169610000Y-97709999I0J-249999D01*
G01*
X169610000Y-98360001D01*
G75*
G02*
X169360001Y-98610000I-249999J0D01*
G01*
X168459999Y-98610000D01*
G75*
G02*
X168210000Y-98360001I0J249999D01*
G01*
X168210000Y-97709999D01*
G75*
G02*
X168459999Y-97460000I249999J0D01*
G01*
G37*
G36*
G01*
X158545000Y-78543999D02*
X158545000Y-79444001D01*
G75*
G02*
X158295001Y-79694000I-249999J0D01*
G01*
X157644999Y-79694000D01*
G75*
G02*
X157395000Y-79444001I0J249999D01*
G01*
X157395000Y-78543999D01*
G75*
G02*
X157644999Y-78294000I249999J0D01*
G01*
X158295001Y-78294000D01*
G75*
G02*
X158545000Y-78543999I0J-249999D01*
G01*
G37*
G36*
G01*
X160595000Y-78543999D02*
X160595000Y-79444001D01*
G75*
G02*
X160345001Y-79694000I-249999J0D01*
G01*
X159694999Y-79694000D01*
G75*
G02*
X159445000Y-79444001I0J249999D01*
G01*
X159445000Y-78543999D01*
G75*
G02*
X159694999Y-78294000I249999J0D01*
G01*
X160345001Y-78294000D01*
G75*
G02*
X160595000Y-78543999I0J-249999D01*
G01*
G37*
G36*
G01*
X148269000Y-79444001D02*
X148269000Y-78543999D01*
G75*
G02*
X148518999Y-78294000I249999J0D01*
G01*
X149169001Y-78294000D01*
G75*
G02*
X149419000Y-78543999I0J-249999D01*
G01*
X149419000Y-79444001D01*
G75*
G02*
X149169001Y-79694000I-249999J0D01*
G01*
X148518999Y-79694000D01*
G75*
G02*
X148269000Y-79444001I0J249999D01*
G01*
G37*
G36*
G01*
X146219000Y-79444001D02*
X146219000Y-78543999D01*
G75*
G02*
X146468999Y-78294000I249999J0D01*
G01*
X147119001Y-78294000D01*
G75*
G02*
X147369000Y-78543999I0J-249999D01*
G01*
X147369000Y-79444001D01*
G75*
G02*
X147119001Y-79694000I-249999J0D01*
G01*
X146468999Y-79694000D01*
G75*
G02*
X146219000Y-79444001I0J249999D01*
G01*
G37*
G36*
G01*
X147378000Y-85147999D02*
X147378000Y-86048001D01*
G75*
G02*
X147128001Y-86298000I-249999J0D01*
G01*
X146477999Y-86298000D01*
G75*
G02*
X146228000Y-86048001I0J249999D01*
G01*
X146228000Y-85147999D01*
G75*
G02*
X146477999Y-84898000I249999J0D01*
G01*
X147128001Y-84898000D01*
G75*
G02*
X147378000Y-85147999I0J-249999D01*
G01*
G37*
G36*
G01*
X149428000Y-85147999D02*
X149428000Y-86048001D01*
G75*
G02*
X149178001Y-86298000I-249999J0D01*
G01*
X148527999Y-86298000D01*
G75*
G02*
X148278000Y-86048001I0J249999D01*
G01*
X148278000Y-85147999D01*
G75*
G02*
X148527999Y-84898000I249999J0D01*
G01*
X149178001Y-84898000D01*
G75*
G02*
X149428000Y-85147999I0J-249999D01*
G01*
G37*
G36*
G01*
X143697000Y-102050001D02*
X143697000Y-101149999D01*
G75*
G02*
X143946999Y-100900000I249999J0D01*
G01*
X144597001Y-100900000D01*
G75*
G02*
X144847000Y-101149999I0J-249999D01*
G01*
X144847000Y-102050001D01*
G75*
G02*
X144597001Y-102300000I-249999J0D01*
G01*
X143946999Y-102300000D01*
G75*
G02*
X143697000Y-102050001I0J249999D01*
G01*
G37*
G36*
G01*
X141647000Y-102050001D02*
X141647000Y-101149999D01*
G75*
G02*
X141896999Y-100900000I249999J0D01*
G01*
X142547001Y-100900000D01*
G75*
G02*
X142797000Y-101149999I0J-249999D01*
G01*
X142797000Y-102050001D01*
G75*
G02*
X142547001Y-102300000I-249999J0D01*
G01*
X141896999Y-102300000D01*
G75*
G02*
X141647000Y-102050001I0J249999D01*
G01*
G37*
G36*
G01*
X148269000Y-105352001D02*
X148269000Y-104451999D01*
G75*
G02*
X148518999Y-104202000I249999J0D01*
G01*
X149169001Y-104202000D01*
G75*
G02*
X149419000Y-104451999I0J-249999D01*
G01*
X149419000Y-105352001D01*
G75*
G02*
X149169001Y-105602000I-249999J0D01*
G01*
X148518999Y-105602000D01*
G75*
G02*
X148269000Y-105352001I0J249999D01*
G01*
G37*
G36*
G01*
X146219000Y-105352001D02*
X146219000Y-104451999D01*
G75*
G02*
X146468999Y-104202000I249999J0D01*
G01*
X147119001Y-104202000D01*
G75*
G02*
X147369000Y-104451999I0J-249999D01*
G01*
X147369000Y-105352001D01*
G75*
G02*
X147119001Y-105602000I-249999J0D01*
G01*
X146468999Y-105602000D01*
G75*
G02*
X146219000Y-105352001I0J249999D01*
G01*
G37*
G36*
G01*
X172025000Y-91751999D02*
X172025000Y-92652001D01*
G75*
G02*
X171775001Y-92902000I-249999J0D01*
G01*
X171124999Y-92902000D01*
G75*
G02*
X170875000Y-92652001I0J249999D01*
G01*
X170875000Y-91751999D01*
G75*
G02*
X171124999Y-91502000I249999J0D01*
G01*
X171775001Y-91502000D01*
G75*
G02*
X172025000Y-91751999I0J-249999D01*
G01*
G37*
G36*
G01*
X174075000Y-91751999D02*
X174075000Y-92652001D01*
G75*
G02*
X173825001Y-92902000I-249999J0D01*
G01*
X173174999Y-92902000D01*
G75*
G02*
X172925000Y-92652001I0J249999D01*
G01*
X172925000Y-91751999D01*
G75*
G02*
X173174999Y-91502000I249999J0D01*
G01*
X173825001Y-91502000D01*
G75*
G02*
X174075000Y-91751999I0J-249999D01*
G01*
G37*
G36*
G01*
X148269000Y-102050001D02*
X148269000Y-101149999D01*
G75*
G02*
X148518999Y-100900000I249999J0D01*
G01*
X149169001Y-100900000D01*
G75*
G02*
X149419000Y-101149999I0J-249999D01*
G01*
X149419000Y-102050001D01*
G75*
G02*
X149169001Y-102300000I-249999J0D01*
G01*
X148518999Y-102300000D01*
G75*
G02*
X148269000Y-102050001I0J249999D01*
G01*
G37*
G36*
G01*
X146219000Y-102050001D02*
X146219000Y-101149999D01*
G75*
G02*
X146468999Y-100900000I249999J0D01*
G01*
X147119001Y-100900000D01*
G75*
G02*
X147369000Y-101149999I0J-249999D01*
G01*
X147369000Y-102050001D01*
G75*
G02*
X147119001Y-102300000I-249999J0D01*
G01*
X146468999Y-102300000D01*
G75*
G02*
X146219000Y-102050001I0J249999D01*
G01*
G37*
G36*
G01*
X155251999Y-113743000D02*
X156152001Y-113743000D01*
G75*
G02*
X156402000Y-113992999I0J-249999D01*
G01*
X156402000Y-114643001D01*
G75*
G02*
X156152001Y-114893000I-249999J0D01*
G01*
X155251999Y-114893000D01*
G75*
G02*
X155002000Y-114643001I0J249999D01*
G01*
X155002000Y-113992999D01*
G75*
G02*
X155251999Y-113743000I249999J0D01*
G01*
G37*
G36*
G01*
X155251999Y-111693000D02*
X156152001Y-111693000D01*
G75*
G02*
X156402000Y-111942999I0J-249999D01*
G01*
X156402000Y-112593001D01*
G75*
G02*
X156152001Y-112843000I-249999J0D01*
G01*
X155251999Y-112843000D01*
G75*
G02*
X155002000Y-112593001I0J249999D01*
G01*
X155002000Y-111942999D01*
G75*
G02*
X155251999Y-111693000I249999J0D01*
G01*
G37*
G36*
G01*
X147369000Y-97847999D02*
X147369000Y-98748001D01*
G75*
G02*
X147119001Y-98998000I-249999J0D01*
G01*
X146468999Y-98998000D01*
G75*
G02*
X146219000Y-98748001I0J249999D01*
G01*
X146219000Y-97847999D01*
G75*
G02*
X146468999Y-97598000I249999J0D01*
G01*
X147119001Y-97598000D01*
G75*
G02*
X147369000Y-97847999I0J-249999D01*
G01*
G37*
G36*
G01*
X149419000Y-97847999D02*
X149419000Y-98748001D01*
G75*
G02*
X149169001Y-98998000I-249999J0D01*
G01*
X148518999Y-98998000D01*
G75*
G02*
X148269000Y-98748001I0J249999D01*
G01*
X148269000Y-97847999D01*
G75*
G02*
X148518999Y-97598000I249999J0D01*
G01*
X149169001Y-97598000D01*
G75*
G02*
X149419000Y-97847999I0J-249999D01*
G01*
G37*
G36*
G01*
X149663999Y-113725000D02*
X150564001Y-113725000D01*
G75*
G02*
X150814000Y-113974999I0J-249999D01*
G01*
X150814000Y-114625001D01*
G75*
G02*
X150564001Y-114875000I-249999J0D01*
G01*
X149663999Y-114875000D01*
G75*
G02*
X149414000Y-114625001I0J249999D01*
G01*
X149414000Y-113974999D01*
G75*
G02*
X149663999Y-113725000I249999J0D01*
G01*
G37*
G36*
G01*
X149663999Y-111675000D02*
X150564001Y-111675000D01*
G75*
G02*
X150814000Y-111924999I0J-249999D01*
G01*
X150814000Y-112575001D01*
G75*
G02*
X150564001Y-112825000I-249999J0D01*
G01*
X149663999Y-112825000D01*
G75*
G02*
X149414000Y-112575001I0J249999D01*
G01*
X149414000Y-111924999D01*
G75*
G02*
X149663999Y-111675000I249999J0D01*
G01*
G37*
G36*
G01*
X147770001Y-112825000D02*
X146869999Y-112825000D01*
G75*
G02*
X146620000Y-112575001I0J249999D01*
G01*
X146620000Y-111924999D01*
G75*
G02*
X146869999Y-111675000I249999J0D01*
G01*
X147770001Y-111675000D01*
G75*
G02*
X148020000Y-111924999I0J-249999D01*
G01*
X148020000Y-112575001D01*
G75*
G02*
X147770001Y-112825000I-249999J0D01*
G01*
G37*
G36*
G01*
X147770001Y-114875000D02*
X146869999Y-114875000D01*
G75*
G02*
X146620000Y-114625001I0J249999D01*
G01*
X146620000Y-113974999D01*
G75*
G02*
X146869999Y-113725000I249999J0D01*
G01*
X147770001Y-113725000D01*
G75*
G02*
X148020000Y-113974999I0J-249999D01*
G01*
X148020000Y-114625001D01*
G75*
G02*
X147770001Y-114875000I-249999J0D01*
G01*
G37*
G36*
G01*
X142797000Y-97847999D02*
X142797000Y-98748001D01*
G75*
G02*
X142547001Y-98998000I-249999J0D01*
G01*
X141896999Y-98998000D01*
G75*
G02*
X141647000Y-98748001I0J249999D01*
G01*
X141647000Y-97847999D01*
G75*
G02*
X141896999Y-97598000I249999J0D01*
G01*
X142547001Y-97598000D01*
G75*
G02*
X142797000Y-97847999I0J-249999D01*
G01*
G37*
G36*
G01*
X144847000Y-97847999D02*
X144847000Y-98748001D01*
G75*
G02*
X144597001Y-98998000I-249999J0D01*
G01*
X143946999Y-98998000D01*
G75*
G02*
X143697000Y-98748001I0J249999D01*
G01*
X143697000Y-97847999D01*
G75*
G02*
X143946999Y-97598000I249999J0D01*
G01*
X144597001Y-97598000D01*
G75*
G02*
X144847000Y-97847999I0J-249999D01*
G01*
G37*
G36*
G01*
X172907000Y-95954001D02*
X172907000Y-95053999D01*
G75*
G02*
X173156999Y-94804000I249999J0D01*
G01*
X173807001Y-94804000D01*
G75*
G02*
X174057000Y-95053999I0J-249999D01*
G01*
X174057000Y-95954001D01*
G75*
G02*
X173807001Y-96204000I-249999J0D01*
G01*
X173156999Y-96204000D01*
G75*
G02*
X172907000Y-95954001I0J249999D01*
G01*
G37*
G36*
G01*
X170857000Y-95954001D02*
X170857000Y-95053999D01*
G75*
G02*
X171106999Y-94804000I249999J0D01*
G01*
X171757001Y-94804000D01*
G75*
G02*
X172007000Y-95053999I0J-249999D01*
G01*
X172007000Y-95954001D01*
G75*
G02*
X171757001Y-96204000I-249999J0D01*
G01*
X171106999Y-96204000D01*
G75*
G02*
X170857000Y-95954001I0J249999D01*
G01*
G37*
G36*
G01*
X171129000Y-84524001D02*
X171129000Y-83623999D01*
G75*
G02*
X171378999Y-83374000I249999J0D01*
G01*
X172029001Y-83374000D01*
G75*
G02*
X172279000Y-83623999I0J-249999D01*
G01*
X172279000Y-84524001D01*
G75*
G02*
X172029001Y-84774000I-249999J0D01*
G01*
X171378999Y-84774000D01*
G75*
G02*
X171129000Y-84524001I0J249999D01*
G01*
G37*
G36*
G01*
X169079000Y-84524001D02*
X169079000Y-83623999D01*
G75*
G02*
X169328999Y-83374000I249999J0D01*
G01*
X169979001Y-83374000D01*
G75*
G02*
X170229000Y-83623999I0J-249999D01*
G01*
X170229000Y-84524001D01*
G75*
G02*
X169979001Y-84774000I-249999J0D01*
G01*
X169328999Y-84774000D01*
G75*
G02*
X169079000Y-84524001I0J249999D01*
G01*
G37*
G36*
G01*
X179257000Y-120846001D02*
X179257000Y-119945999D01*
G75*
G02*
X179506999Y-119696000I249999J0D01*
G01*
X180157001Y-119696000D01*
G75*
G02*
X180407000Y-119945999I0J-249999D01*
G01*
X180407000Y-120846001D01*
G75*
G02*
X180157001Y-121096000I-249999J0D01*
G01*
X179506999Y-121096000D01*
G75*
G02*
X179257000Y-120846001I0J249999D01*
G01*
G37*
G36*
G01*
X177207000Y-120846001D02*
X177207000Y-119945999D01*
G75*
G02*
X177456999Y-119696000I249999J0D01*
G01*
X178107001Y-119696000D01*
G75*
G02*
X178357000Y-119945999I0J-249999D01*
G01*
X178357000Y-120846001D01*
G75*
G02*
X178107001Y-121096000I-249999J0D01*
G01*
X177456999Y-121096000D01*
G75*
G02*
X177207000Y-120846001I0J249999D01*
G01*
G37*
G36*
G01*
X178357000Y-124517999D02*
X178357000Y-125418001D01*
G75*
G02*
X178107001Y-125668000I-249999J0D01*
G01*
X177456999Y-125668000D01*
G75*
G02*
X177207000Y-125418001I0J249999D01*
G01*
X177207000Y-124517999D01*
G75*
G02*
X177456999Y-124268000I249999J0D01*
G01*
X178107001Y-124268000D01*
G75*
G02*
X178357000Y-124517999I0J-249999D01*
G01*
G37*
G36*
G01*
X180407000Y-124517999D02*
X180407000Y-125418001D01*
G75*
G02*
X180157001Y-125668000I-249999J0D01*
G01*
X179506999Y-125668000D01*
G75*
G02*
X179257000Y-125418001I0J249999D01*
G01*
X179257000Y-124517999D01*
G75*
G02*
X179506999Y-124268000I249999J0D01*
G01*
X180157001Y-124268000D01*
G75*
G02*
X180407000Y-124517999I0J-249999D01*
G01*
G37*
M02*
