M48
; DRILL file {KiCad 5.1.6-c6e7f7d~87~ubuntu18.04.1} date Fri Jul 17 09:21:21 2020
; FORMAT={-:-/ absolute / metric / decimal}
; #@! TF.CreationDate,2020-07-17T09:21:21-04:00
; #@! TF.GenerationSoftware,Kicad,Pcbnew,5.1.6-c6e7f7d~87~ubuntu18.04.1
FMAT,2
METRIC
T1C0.400
T2C0.800
T3C1.000
%
G90
G05
T1
X158.242Y-111.252
X163.322Y-111.506
X164.592Y-111.506
X171.958Y-120.396
X174.535Y-92.456
X175.26Y-118.364
T2
X172.72Y-88.138
X177.72Y-88.138
X153.416Y-80.598
X153.416Y-85.598
X157.988Y-98.298
X157.988Y-103.298
X142.875Y-117.475
X142.875Y-120.015
X142.875Y-122.555
X163.148Y-106.934
X168.148Y-106.934
X165.608Y-80.598
X165.608Y-85.598
X147.828Y-88.138
X147.828Y-95.758
X150.368Y-88.138
X150.368Y-95.758
X152.908Y-88.138
X152.908Y-95.758
X155.448Y-88.138
X155.448Y-95.758
X157.988Y-88.138
X157.988Y-95.758
X160.528Y-88.138
X160.528Y-95.758
X163.068Y-88.138
X163.068Y-95.758
X165.608Y-88.138
X165.608Y-95.758
X168.148Y-88.138
X168.148Y-95.758
X152.908Y-98.298
X152.908Y-103.298
X135.89Y-117.475
X135.89Y-120.015
X135.89Y-122.555
X177.165Y-107.95
X177.165Y-110.49
X177.165Y-113.03
T3
X129.54Y-116.84
X129.54Y-119.38
X129.54Y-121.92
X129.54Y-124.46
X182.88Y-106.68
X182.88Y-109.22
X182.88Y-111.76
X182.88Y-114.3
X182.88Y-116.84
X182.88Y-119.38
X182.88Y-121.92
X182.88Y-124.46
X129.54Y-78.74
X129.54Y-81.28
X129.54Y-83.82
X129.54Y-86.36
X182.88Y-78.74
X182.88Y-81.28
X182.88Y-83.82
X182.88Y-86.36
T0
M30
