M48
; DRILL file {KiCad 5.1.6-c6e7f7d~86~ubuntu18.04.1} date Sat Jun 20 10:33:47 2020
; FORMAT={-:-/ absolute / metric / decimal}
; #@! TF.CreationDate,2020-06-20T10:33:47-04:00
; #@! TF.GenerationSoftware,Kicad,Pcbnew,5.1.6-c6e7f7d~86~ubuntu18.04.1
; #@! TF.FileFunction,Plated,1,2,PTH
FMAT,2
METRIC
T1C0.400
T2C0.500
T3C0.800
T4C1.000
T5C1.200
T6C1.400
T7C3.200
%
G90
G05
T1
X103.124Y-71.12
X105.74Y-130.099
X112.928Y-143.662
X114.579Y-134.849
X114.757Y-140.132
X118.138Y-88.11
T2
X191.91Y-57.15
X192.613Y-55.453
X192.613Y-58.847
X194.31Y-54.75
X194.31Y-59.55
X196.007Y-55.453
X196.007Y-58.847
X196.71Y-57.15
X151.27Y-57.15
X151.973Y-55.453
X151.973Y-58.847
X153.67Y-54.75
X153.67Y-59.55
X155.367Y-55.453
X155.367Y-58.847
X156.07Y-57.15
X151.27Y-125.73
X151.973Y-124.033
X151.973Y-127.427
X153.67Y-123.33
X153.67Y-128.13
X155.367Y-124.033
X155.367Y-127.427
X156.07Y-125.73
X191.91Y-125.73
X192.613Y-124.033
X192.613Y-127.427
X194.31Y-123.33
X194.31Y-128.13
X196.007Y-124.033
X196.007Y-127.427
X196.71Y-125.73
T3
X109.855Y-132.486
X112.014Y-121.31
X115.341Y-95.275
X115.367Y-102.286
X119.71Y-97.638
X123.749Y-116.103
X128.346Y-116.256
X130.81Y-99.06
X133.477Y-116.307
X134.62Y-86.36
X139.7Y-99.06
X139.878Y-116.18
X147.32Y-97.79
X154.94Y-86.36
X156.21Y-97.79
X156.439Y-112.141
X156.489Y-119.482
X163.83Y-86.36
X163.83Y-97.79
X172.72Y-97.79
X173.584Y-112.954
X182.118Y-112.827
X186.69Y-97.79
X137.16Y-134.62
X137.16Y-137.16
X137.16Y-139.7
T4
X124.46Y-134.62
X196.85Y-133.35
X196.85Y-135.89
X196.85Y-138.43
X196.85Y-140.97
X196.85Y-143.51
X196.85Y-146.05
X105.41Y-107.95
X105.41Y-110.49
X105.41Y-113.03
X105.41Y-115.57
X105.41Y-118.11
X105.41Y-64.77
X105.41Y-67.31
X105.41Y-69.85
X105.41Y-72.39
X105.41Y-74.93
X105.41Y-126.365
X107.95Y-126.365
X110.49Y-126.365
X113.03Y-126.365
X115.57Y-126.365
X151.13Y-64.77
X151.13Y-67.31
X151.13Y-69.85
X151.13Y-72.39
X151.13Y-74.93
X153.67Y-64.77
X153.67Y-67.31
X153.67Y-69.85
X153.67Y-72.39
X153.67Y-74.93
X105.41Y-80.01
X105.41Y-82.55
X105.41Y-85.09
X105.41Y-87.63
X124.46Y-144.78
X147.32Y-142.24
X147.32Y-144.78
X149.86Y-142.24
X149.86Y-144.78
X152.4Y-142.24
X152.4Y-144.78
X154.94Y-142.24
X154.94Y-144.78
X157.48Y-142.24
X157.48Y-144.78
X105.41Y-100.33
X105.41Y-102.87
X105.41Y-92.71
X105.41Y-95.25
X162.56Y-64.77
X162.56Y-67.31
X162.56Y-69.85
X162.56Y-72.39
X162.56Y-74.93
X165.1Y-64.77
X165.1Y-67.31
X165.1Y-69.85
X165.1Y-72.39
X165.1Y-74.93
X162.56Y-107.95
X162.56Y-110.49
X162.56Y-113.03
X162.56Y-118.11
X162.56Y-120.65
X162.56Y-123.19
X162.56Y-125.73
X162.56Y-128.27
X105.41Y-135.89
X105.41Y-138.43
X105.41Y-140.97
X105.41Y-143.51
X105.41Y-146.05
T5
X176.53Y-83.57
X184.475Y-81.809
X193.569Y-94.925
X195.33Y-102.87
X168.585Y-123.931
X176.53Y-122.17
X142.769Y-94.925
X144.53Y-102.87
X117.785Y-123.931
X125.73Y-122.17
T6
X193.569Y-110.815
X184.475Y-123.931
X142.769Y-110.815
X114.73Y-64.77
X116.204Y-59.27
X116.204Y-70.27
X120.23Y-55.244
X120.23Y-74.296
X125.73Y-53.77
X125.73Y-75.77
X129.194Y-62.77
X131.23Y-55.244
X131.23Y-74.296
X135.256Y-59.27
X135.256Y-70.27
X136.73Y-64.77
X133.675Y-123.931
X168.585Y-81.809
T7
X194.31Y-57.15
X153.67Y-57.15
X153.67Y-125.73
X194.31Y-125.73
T0
M30
