G04 #@! TF.GenerationSoftware,KiCad,Pcbnew,5.1.6-c6e7f7d~86~ubuntu18.04.1*
G04 #@! TF.CreationDate,2020-06-20T10:33:53-04:00*
G04 #@! TF.ProjectId,oscillator_carrier_board,6f736369-6c6c-4617-946f-725f63617272,1*
G04 #@! TF.SameCoordinates,Original*
G04 #@! TF.FileFunction,Copper,L1,Top*
G04 #@! TF.FilePolarity,Positive*
%FSLAX46Y46*%
G04 Gerber Fmt 4.6, Leading zero omitted, Abs format (unit mm)*
G04 Created by KiCad (PCBNEW 5.1.6-c6e7f7d~86~ubuntu18.04.1) date 2020-06-20 10:33:53*
%MOMM*%
%LPD*%
G01*
G04 APERTURE LIST*
G04 #@! TA.AperFunction,ComponentPad*
%ADD10C,2.000000*%
G04 #@! TD*
G04 #@! TA.AperFunction,ComponentPad*
%ADD11C,2.800000*%
G04 #@! TD*
G04 #@! TA.AperFunction,ComponentPad*
%ADD12O,1.700000X1.700000*%
G04 #@! TD*
G04 #@! TA.AperFunction,ComponentPad*
%ADD13R,1.700000X1.700000*%
G04 #@! TD*
G04 #@! TA.AperFunction,ComponentPad*
%ADD14O,2.800000X2.800000*%
G04 #@! TD*
G04 #@! TA.AperFunction,ComponentPad*
%ADD15C,0.800000*%
G04 #@! TD*
G04 #@! TA.AperFunction,ComponentPad*
%ADD16C,6.400000*%
G04 #@! TD*
G04 #@! TA.AperFunction,ComponentPad*
%ADD17C,1.440000*%
G04 #@! TD*
G04 #@! TA.AperFunction,ViaPad*
%ADD18C,1.000000*%
G04 #@! TD*
G04 #@! TA.AperFunction,ViaPad*
%ADD19C,0.800000*%
G04 #@! TD*
G04 #@! TA.AperFunction,Conductor*
%ADD20C,1.000000*%
G04 #@! TD*
G04 #@! TA.AperFunction,Conductor*
%ADD21C,0.500000*%
G04 #@! TD*
G04 #@! TA.AperFunction,Conductor*
%ADD22C,0.254000*%
G04 #@! TD*
G04 APERTURE END LIST*
D10*
X124460000Y-134620000D03*
X124460000Y-144780000D03*
D11*
X168584777Y-81808590D03*
X176530000Y-83570000D03*
X184475223Y-81808590D03*
X184475223Y-123931410D03*
X176530000Y-122170000D03*
X168584777Y-123931410D03*
X133675223Y-123931410D03*
X125730000Y-122170000D03*
X117784777Y-123931410D03*
X193568590Y-110815223D03*
X195330000Y-102870000D03*
X193568590Y-94924777D03*
X142768590Y-110815223D03*
X144530000Y-102870000D03*
X142768590Y-94924777D03*
D12*
X196850000Y-146050000D03*
X196850000Y-143510000D03*
X196850000Y-140970000D03*
X196850000Y-138430000D03*
X196850000Y-135890000D03*
D13*
X196850000Y-133350000D03*
D14*
X129194102Y-62770000D03*
X125730000Y-53770000D03*
X120230000Y-55243721D03*
X116203721Y-59270000D03*
X114730000Y-64770000D03*
X116203721Y-70270000D03*
X120230000Y-74296279D03*
X125730000Y-75770000D03*
X131229999Y-74296279D03*
X135256279Y-70269999D03*
X136730000Y-64770000D03*
X135256279Y-59270000D03*
X131229999Y-55243721D03*
D15*
X196007056Y-124032944D03*
X194310000Y-123330000D03*
X192612944Y-124032944D03*
X191910000Y-125730000D03*
X192612944Y-127427056D03*
X194310000Y-128130000D03*
X196007056Y-127427056D03*
X196710000Y-125730000D03*
D16*
X194310000Y-125730000D03*
D15*
X196007056Y-55452944D03*
X194310000Y-54750000D03*
X192612944Y-55452944D03*
X191910000Y-57150000D03*
X192612944Y-58847056D03*
X194310000Y-59550000D03*
X196007056Y-58847056D03*
X196710000Y-57150000D03*
D16*
X194310000Y-57150000D03*
D12*
X162560000Y-64770000D03*
X165100000Y-64770000D03*
X162560000Y-67310000D03*
X165100000Y-67310000D03*
X162560000Y-69850000D03*
X165100000Y-69850000D03*
X162560000Y-72390000D03*
X165100000Y-72390000D03*
X162560000Y-74930000D03*
D13*
X165100000Y-74930000D03*
D12*
X162560000Y-113030000D03*
X162560000Y-110490000D03*
D13*
X162560000Y-107950000D03*
D12*
X162560000Y-128270000D03*
X162560000Y-125730000D03*
X162560000Y-123190000D03*
X162560000Y-120650000D03*
D13*
X162560000Y-118110000D03*
D12*
X147320000Y-142240000D03*
X147320000Y-144780000D03*
X149860000Y-142240000D03*
X149860000Y-144780000D03*
X152400000Y-142240000D03*
X152400000Y-144780000D03*
X154940000Y-142240000D03*
X154940000Y-144780000D03*
X157480000Y-142240000D03*
D13*
X157480000Y-144780000D03*
D12*
X105410000Y-146050000D03*
X105410000Y-143510000D03*
X105410000Y-140970000D03*
X105410000Y-138430000D03*
D13*
X105410000Y-135890000D03*
D15*
X155367056Y-124032944D03*
X153670000Y-123330000D03*
X151972944Y-124032944D03*
X151270000Y-125730000D03*
X151972944Y-127427056D03*
X153670000Y-128130000D03*
X155367056Y-127427056D03*
X156070000Y-125730000D03*
D16*
X153670000Y-125730000D03*
D15*
X155367056Y-55452944D03*
X153670000Y-54750000D03*
X151972944Y-55452944D03*
X151270000Y-57150000D03*
X151972944Y-58847056D03*
X153670000Y-59550000D03*
X155367056Y-58847056D03*
X156070000Y-57150000D03*
D16*
X153670000Y-57150000D03*
D17*
X137160000Y-134620000D03*
X137160000Y-137160000D03*
X137160000Y-139700000D03*
D12*
X105410000Y-74930000D03*
X105410000Y-72390000D03*
X105410000Y-69850000D03*
X105410000Y-67310000D03*
D13*
X105410000Y-64770000D03*
D12*
X105410000Y-126365000D03*
X107950000Y-126365000D03*
X110490000Y-126365000D03*
X113030000Y-126365000D03*
D13*
X115570000Y-126365000D03*
D12*
X151130000Y-64770000D03*
X153670000Y-64770000D03*
X151130000Y-67310000D03*
X153670000Y-67310000D03*
X151130000Y-69850000D03*
X153670000Y-69850000D03*
X151130000Y-72390000D03*
X153670000Y-72390000D03*
X151130000Y-74930000D03*
D13*
X153670000Y-74930000D03*
D12*
X105410000Y-118110000D03*
X105410000Y-115570000D03*
X105410000Y-113030000D03*
X105410000Y-110490000D03*
D13*
X105410000Y-107950000D03*
D12*
X105410000Y-102870000D03*
D13*
X105410000Y-100330000D03*
D12*
X105410000Y-95250000D03*
D13*
X105410000Y-92710000D03*
D12*
X105410000Y-87630000D03*
X105410000Y-85090000D03*
X105410000Y-82550000D03*
D13*
X105410000Y-80010000D03*
D18*
X156210000Y-97790000D03*
X163830000Y-97790000D03*
X147320000Y-97790000D03*
X172720000Y-97790000D03*
X186690000Y-97790000D03*
X139700000Y-99060000D03*
X130810000Y-99060000D03*
X134620000Y-86360000D03*
X154940000Y-86360000D03*
X163830000Y-86360000D03*
D19*
X114579400Y-134848600D03*
X114757200Y-140131800D03*
X112928400Y-143662400D03*
D18*
X123748800Y-116103400D03*
X128346200Y-116255800D03*
X133477000Y-116306600D03*
X139877800Y-116179600D03*
X156438600Y-112141000D03*
X156489400Y-119481600D03*
X173583600Y-112953800D03*
X182118000Y-112826800D03*
X112014000Y-121310400D03*
X119710200Y-97637600D03*
X115366800Y-102285800D03*
X115341400Y-95275400D03*
D19*
X105740200Y-130098800D03*
D18*
X109855000Y-132486400D03*
D19*
X118138400Y-88109600D03*
X103124000Y-71120000D03*
D20*
X121716800Y-110490000D02*
X105410000Y-110490000D01*
X125730000Y-122470000D02*
X125730000Y-114503200D01*
X125730000Y-114503200D02*
X121716800Y-110490000D01*
X131775200Y-120599200D02*
X126771101Y-125603299D01*
X119311559Y-125603299D02*
X117911560Y-124203300D01*
X141706600Y-120599200D02*
X131775200Y-120599200D01*
X126771101Y-125603299D02*
X119311559Y-125603299D01*
X162560000Y-110490000D02*
X151815800Y-110490000D01*
X151815800Y-110490000D02*
X141706600Y-120599200D01*
X193730560Y-95051560D02*
X193296700Y-95051560D01*
X199934990Y-101255990D02*
X193730560Y-95051560D01*
X199934990Y-137097610D02*
X199934990Y-101255990D01*
X196850000Y-138430000D02*
X198602600Y-138430000D01*
X198602600Y-138430000D02*
X199934990Y-137097610D01*
X190657160Y-95051560D02*
X142496700Y-95051560D01*
X198400001Y-102794401D02*
X190657160Y-95051560D01*
X198400001Y-135542080D02*
X198400001Y-102794401D01*
X196850000Y-135890000D02*
X198052081Y-135890000D01*
X198052081Y-135890000D02*
X198400001Y-135542080D01*
X102659990Y-82760010D02*
X105410000Y-80010000D01*
X105215999Y-104970001D02*
X102659990Y-102413992D01*
X145238001Y-104970001D02*
X105215999Y-104970001D01*
X102659990Y-102413992D02*
X102659990Y-82760010D01*
X187426600Y-133350000D02*
X179857400Y-125780800D01*
X196850000Y-133350000D02*
X187426600Y-133350000D01*
X179857400Y-125780800D02*
X179857400Y-108686600D01*
X145306002Y-104902000D02*
X145238001Y-104970001D01*
X179857400Y-108686600D02*
X176072800Y-104902000D01*
X176072800Y-104902000D02*
X145306002Y-104902000D01*
X156536122Y-132030020D02*
X112412938Y-132030019D01*
X162560000Y-126006142D02*
X156536122Y-132030020D01*
X162560000Y-125730000D02*
X162560000Y-126006142D01*
X105410000Y-143510000D02*
X105435400Y-143535400D01*
X107950000Y-140970000D02*
X107950000Y-126365000D01*
X105410000Y-143510000D02*
X107950000Y-140970000D01*
X107950000Y-127567081D02*
X107950000Y-126365000D01*
X112412938Y-132030019D02*
X107950000Y-127567081D01*
X160248600Y-125501400D02*
X162560000Y-123190000D01*
X160248600Y-126620472D02*
X160248600Y-125501400D01*
X156039062Y-130830010D02*
X160248600Y-126620472D01*
X113752929Y-130830010D02*
X156039062Y-130830010D01*
X110490000Y-126365000D02*
X110490000Y-127567081D01*
X110490000Y-127567081D02*
X113752929Y-130830010D01*
X108939999Y-124814999D02*
X110490000Y-126365000D01*
X102717600Y-138480800D02*
X102717600Y-126763398D01*
X102717600Y-126763398D02*
X104665999Y-124814999D01*
X105410000Y-140970000D02*
X105206800Y-140970000D01*
X104665999Y-124814999D02*
X108939999Y-124814999D01*
X105206800Y-140970000D02*
X102717600Y-138480800D01*
X113030000Y-127567081D02*
X113030000Y-126365000D01*
X115092920Y-129630001D02*
X113030000Y-127567081D01*
X155542001Y-129630001D02*
X115092920Y-129630001D01*
X162560000Y-120650000D02*
X158343600Y-124866400D01*
X158343600Y-126828402D02*
X155542001Y-129630001D01*
X158343600Y-124866400D02*
X158343600Y-126828402D01*
X158870790Y-121799210D02*
X162560000Y-118110000D01*
X151828788Y-121799210D02*
X158870790Y-121799210D01*
X145205598Y-128422400D02*
X151828788Y-121799210D01*
X115570000Y-126365000D02*
X115570000Y-127584200D01*
X116408200Y-128422400D02*
X145205598Y-128422400D01*
X115570000Y-127584200D02*
X116408200Y-128422400D01*
X103859999Y-84100001D02*
X105410000Y-82550000D01*
X103859999Y-95994001D02*
X103859999Y-84100001D01*
X105681398Y-97815400D02*
X103859999Y-95994001D01*
X115189000Y-97815400D02*
X105681398Y-97815400D01*
X144230000Y-102870000D02*
X120243600Y-102870000D01*
X120243600Y-102870000D02*
X115189000Y-97815400D01*
X137439400Y-92710000D02*
X105410000Y-92710000D01*
X195030000Y-102870000D02*
X147599400Y-102870000D01*
X147599400Y-102870000D02*
X137439400Y-92710000D01*
X112016700Y-81536700D02*
X105410000Y-74930000D01*
X168711560Y-81536700D02*
X112016700Y-81536700D01*
X123810121Y-77876400D02*
X120230000Y-74296279D01*
X184348440Y-81536700D02*
X180688140Y-77876400D01*
X180688140Y-77876400D02*
X123810121Y-77876400D01*
X120230000Y-66305800D02*
X120230000Y-74296279D01*
X115951000Y-62026800D02*
X120230000Y-66305800D01*
X105193198Y-62026800D02*
X115951000Y-62026800D01*
X103859999Y-63359999D02*
X105193198Y-62026800D01*
X105410000Y-69850000D02*
X103859999Y-68299999D01*
X103859999Y-68299999D02*
X103859999Y-63359999D01*
X162560000Y-107950000D02*
X105410000Y-107950000D01*
X173304200Y-107950000D02*
X162560000Y-107950000D01*
X176530000Y-122470000D02*
X176530000Y-111175800D01*
X176530000Y-111175800D02*
X173304200Y-107950000D01*
X117536699Y-79436699D02*
X105410000Y-67310000D01*
X172696699Y-79436699D02*
X117536699Y-79436699D01*
X176530000Y-83270000D02*
X172696699Y-79436699D01*
X151130000Y-64770000D02*
X153670000Y-64770000D01*
X153670000Y-64770000D02*
X162560000Y-64770000D01*
X162560000Y-64770000D02*
X165100000Y-64770000D01*
X151130000Y-74930000D02*
X153670000Y-74930000D01*
X153670000Y-74930000D02*
X162560000Y-74930000D01*
X162560000Y-74930000D02*
X165100000Y-74930000D01*
D21*
X103124000Y-74568002D02*
X103124000Y-71120000D01*
X118138400Y-88109600D02*
X116665598Y-88109600D01*
X116665598Y-88109600D02*
X103124000Y-74568002D01*
X124460000Y-134620000D02*
X137160000Y-134620000D01*
D22*
G36*
X104374012Y-105733147D02*
G01*
X104409550Y-105776450D01*
X104452853Y-105811988D01*
X104452855Y-105811990D01*
X104582376Y-105918285D01*
X104779552Y-106023677D01*
X104993500Y-106088578D01*
X105215999Y-106110492D01*
X105271751Y-106105001D01*
X145182250Y-106105001D01*
X145238001Y-106110492D01*
X145293752Y-106105001D01*
X145293753Y-106105001D01*
X145460500Y-106088578D01*
X145630528Y-106037000D01*
X175602669Y-106037000D01*
X178722401Y-109156734D01*
X178722400Y-125725049D01*
X178716909Y-125780800D01*
X178729595Y-125909605D01*
X178738823Y-126003298D01*
X178803724Y-126217246D01*
X178909116Y-126414423D01*
X179050951Y-126587249D01*
X179094265Y-126622796D01*
X186584609Y-134113141D01*
X186620151Y-134156449D01*
X186792977Y-134298284D01*
X186990153Y-134403676D01*
X187204101Y-134468577D01*
X187370848Y-134485000D01*
X187370857Y-134485000D01*
X187426599Y-134490490D01*
X187482341Y-134485000D01*
X195432317Y-134485000D01*
X195469463Y-134554494D01*
X195548815Y-134651185D01*
X195645506Y-134730537D01*
X195755820Y-134789502D01*
X195828380Y-134811513D01*
X195696525Y-134943368D01*
X195534010Y-135186589D01*
X195422068Y-135456842D01*
X195365000Y-135743740D01*
X195365000Y-136036260D01*
X195422068Y-136323158D01*
X195534010Y-136593411D01*
X195696525Y-136836632D01*
X195903368Y-137043475D01*
X196077760Y-137160000D01*
X195903368Y-137276525D01*
X195696525Y-137483368D01*
X195534010Y-137726589D01*
X195422068Y-137996842D01*
X195365000Y-138283740D01*
X195365000Y-138576260D01*
X195422068Y-138863158D01*
X195534010Y-139133411D01*
X195696525Y-139376632D01*
X195903368Y-139583475D01*
X196077760Y-139700000D01*
X195903368Y-139816525D01*
X195696525Y-140023368D01*
X195534010Y-140266589D01*
X195422068Y-140536842D01*
X195365000Y-140823740D01*
X195365000Y-141116260D01*
X195422068Y-141403158D01*
X195534010Y-141673411D01*
X195696525Y-141916632D01*
X195903368Y-142123475D01*
X196077760Y-142240000D01*
X195903368Y-142356525D01*
X195696525Y-142563368D01*
X195534010Y-142806589D01*
X195422068Y-143076842D01*
X195365000Y-143363740D01*
X195365000Y-143656260D01*
X195422068Y-143943158D01*
X195534010Y-144213411D01*
X195696525Y-144456632D01*
X195903368Y-144663475D01*
X196085534Y-144785195D01*
X195968645Y-144854822D01*
X195752412Y-145049731D01*
X195578359Y-145283080D01*
X195453175Y-145545901D01*
X195408524Y-145693110D01*
X195529845Y-145923000D01*
X196723000Y-145923000D01*
X196723000Y-145903000D01*
X196977000Y-145903000D01*
X196977000Y-145923000D01*
X198170155Y-145923000D01*
X198291476Y-145693110D01*
X198246825Y-145545901D01*
X198121641Y-145283080D01*
X197947588Y-145049731D01*
X197731355Y-144854822D01*
X197614466Y-144785195D01*
X197796632Y-144663475D01*
X198003475Y-144456632D01*
X198165990Y-144213411D01*
X198277932Y-143943158D01*
X198335000Y-143656260D01*
X198335000Y-143363740D01*
X198277932Y-143076842D01*
X198165990Y-142806589D01*
X198003475Y-142563368D01*
X197796632Y-142356525D01*
X197622240Y-142240000D01*
X197796632Y-142123475D01*
X198003475Y-141916632D01*
X198165990Y-141673411D01*
X198277932Y-141403158D01*
X198335000Y-141116260D01*
X198335000Y-140823740D01*
X198277932Y-140536842D01*
X198165990Y-140266589D01*
X198003475Y-140023368D01*
X197796632Y-139816525D01*
X197622240Y-139700000D01*
X197796632Y-139583475D01*
X197815107Y-139565000D01*
X198546849Y-139565000D01*
X198602600Y-139570491D01*
X198658351Y-139565000D01*
X198658352Y-139565000D01*
X198825099Y-139548577D01*
X199039047Y-139483676D01*
X199236223Y-139378284D01*
X199409049Y-139236449D01*
X199444596Y-139193135D01*
X200000000Y-138637731D01*
X200000000Y-149200000D01*
X102260000Y-149200000D01*
X102260000Y-146406890D01*
X103968524Y-146406890D01*
X104013175Y-146554099D01*
X104138359Y-146816920D01*
X104312412Y-147050269D01*
X104528645Y-147245178D01*
X104778748Y-147394157D01*
X105053109Y-147491481D01*
X105283000Y-147370814D01*
X105283000Y-146177000D01*
X105537000Y-146177000D01*
X105537000Y-147370814D01*
X105766891Y-147491481D01*
X106041252Y-147394157D01*
X106291355Y-147245178D01*
X106507588Y-147050269D01*
X106681641Y-146816920D01*
X106806825Y-146554099D01*
X106851476Y-146406890D01*
X106730155Y-146177000D01*
X105537000Y-146177000D01*
X105283000Y-146177000D01*
X104089845Y-146177000D01*
X103968524Y-146406890D01*
X102260000Y-146406890D01*
X102260000Y-139628331D01*
X103968968Y-141337300D01*
X103982068Y-141403158D01*
X104094010Y-141673411D01*
X104256525Y-141916632D01*
X104463368Y-142123475D01*
X104637760Y-142240000D01*
X104463368Y-142356525D01*
X104256525Y-142563368D01*
X104094010Y-142806589D01*
X103982068Y-143076842D01*
X103925000Y-143363740D01*
X103925000Y-143656260D01*
X103982068Y-143943158D01*
X104094010Y-144213411D01*
X104256525Y-144456632D01*
X104463368Y-144663475D01*
X104645534Y-144785195D01*
X104528645Y-144854822D01*
X104312412Y-145049731D01*
X104138359Y-145283080D01*
X104013175Y-145545901D01*
X103968524Y-145693110D01*
X104089845Y-145923000D01*
X105283000Y-145923000D01*
X105283000Y-145903000D01*
X105537000Y-145903000D01*
X105537000Y-145923000D01*
X106730155Y-145923000D01*
X106734158Y-145915413D01*
X123504192Y-145915413D01*
X123599956Y-146179814D01*
X123889571Y-146320704D01*
X124201108Y-146402384D01*
X124522595Y-146421718D01*
X124630722Y-146406890D01*
X195408524Y-146406890D01*
X195453175Y-146554099D01*
X195578359Y-146816920D01*
X195752412Y-147050269D01*
X195968645Y-147245178D01*
X196218748Y-147394157D01*
X196493109Y-147491481D01*
X196723000Y-147370814D01*
X196723000Y-146177000D01*
X196977000Y-146177000D01*
X196977000Y-147370814D01*
X197206891Y-147491481D01*
X197481252Y-147394157D01*
X197731355Y-147245178D01*
X197947588Y-147050269D01*
X198121641Y-146816920D01*
X198246825Y-146554099D01*
X198291476Y-146406890D01*
X198170155Y-146177000D01*
X196977000Y-146177000D01*
X196723000Y-146177000D01*
X195529845Y-146177000D01*
X195408524Y-146406890D01*
X124630722Y-146406890D01*
X124841675Y-146377961D01*
X125146088Y-146272795D01*
X125320044Y-146179814D01*
X125415808Y-145915413D01*
X124460000Y-144959605D01*
X123504192Y-145915413D01*
X106734158Y-145915413D01*
X106851476Y-145693110D01*
X106806825Y-145545901D01*
X106681641Y-145283080D01*
X106507588Y-145049731D01*
X106291355Y-144854822D01*
X106270829Y-144842595D01*
X122818282Y-144842595D01*
X122862039Y-145161675D01*
X122967205Y-145466088D01*
X123060186Y-145640044D01*
X123324587Y-145735808D01*
X124280395Y-144780000D01*
X124639605Y-144780000D01*
X125595413Y-145735808D01*
X125859814Y-145640044D01*
X126000704Y-145350429D01*
X126082384Y-145038892D01*
X126101718Y-144717405D01*
X126057961Y-144398325D01*
X125952795Y-144093912D01*
X125859814Y-143919956D01*
X125595413Y-143824192D01*
X124639605Y-144780000D01*
X124280395Y-144780000D01*
X123324587Y-143824192D01*
X123060186Y-143919956D01*
X122919296Y-144209571D01*
X122837616Y-144521108D01*
X122818282Y-144842595D01*
X106270829Y-144842595D01*
X106174466Y-144785195D01*
X106356632Y-144663475D01*
X106563475Y-144456632D01*
X106725990Y-144213411D01*
X106837932Y-143943158D01*
X106895000Y-143656260D01*
X106895000Y-143644587D01*
X123504192Y-143644587D01*
X124460000Y-144600395D01*
X125415808Y-143644587D01*
X125320044Y-143380186D01*
X125030429Y-143239296D01*
X124718892Y-143157616D01*
X124397405Y-143138282D01*
X124078325Y-143182039D01*
X123773912Y-143287205D01*
X123599956Y-143380186D01*
X123504192Y-143644587D01*
X106895000Y-143644587D01*
X106895000Y-143630131D01*
X108431391Y-142093740D01*
X145835000Y-142093740D01*
X145835000Y-142386260D01*
X145892068Y-142673158D01*
X146004010Y-142943411D01*
X146166525Y-143186632D01*
X146373368Y-143393475D01*
X146547760Y-143510000D01*
X146373368Y-143626525D01*
X146166525Y-143833368D01*
X146004010Y-144076589D01*
X145892068Y-144346842D01*
X145835000Y-144633740D01*
X145835000Y-144926260D01*
X145892068Y-145213158D01*
X146004010Y-145483411D01*
X146166525Y-145726632D01*
X146373368Y-145933475D01*
X146616589Y-146095990D01*
X146886842Y-146207932D01*
X147173740Y-146265000D01*
X147466260Y-146265000D01*
X147753158Y-146207932D01*
X148023411Y-146095990D01*
X148266632Y-145933475D01*
X148473475Y-145726632D01*
X148595195Y-145544466D01*
X148664822Y-145661355D01*
X148859731Y-145877588D01*
X149093080Y-146051641D01*
X149355901Y-146176825D01*
X149503110Y-146221476D01*
X149733000Y-146100155D01*
X149733000Y-144907000D01*
X149987000Y-144907000D01*
X149987000Y-146100155D01*
X150216890Y-146221476D01*
X150364099Y-146176825D01*
X150626920Y-146051641D01*
X150860269Y-145877588D01*
X151055178Y-145661355D01*
X151130000Y-145535745D01*
X151204822Y-145661355D01*
X151399731Y-145877588D01*
X151633080Y-146051641D01*
X151895901Y-146176825D01*
X152043110Y-146221476D01*
X152273000Y-146100155D01*
X152273000Y-144907000D01*
X152527000Y-144907000D01*
X152527000Y-146100155D01*
X152756890Y-146221476D01*
X152904099Y-146176825D01*
X153166920Y-146051641D01*
X153400269Y-145877588D01*
X153595178Y-145661355D01*
X153670000Y-145535745D01*
X153744822Y-145661355D01*
X153939731Y-145877588D01*
X154173080Y-146051641D01*
X154435901Y-146176825D01*
X154583110Y-146221476D01*
X154813000Y-146100155D01*
X154813000Y-144907000D01*
X152527000Y-144907000D01*
X152273000Y-144907000D01*
X149987000Y-144907000D01*
X149733000Y-144907000D01*
X149713000Y-144907000D01*
X149713000Y-144653000D01*
X149733000Y-144653000D01*
X149733000Y-142367000D01*
X149987000Y-142367000D01*
X149987000Y-144653000D01*
X152273000Y-144653000D01*
X152273000Y-142367000D01*
X152527000Y-142367000D01*
X152527000Y-144653000D01*
X154813000Y-144653000D01*
X154813000Y-142367000D01*
X152527000Y-142367000D01*
X152273000Y-142367000D01*
X149987000Y-142367000D01*
X149733000Y-142367000D01*
X149713000Y-142367000D01*
X149713000Y-142113000D01*
X149733000Y-142113000D01*
X149733000Y-140919845D01*
X149987000Y-140919845D01*
X149987000Y-142113000D01*
X152273000Y-142113000D01*
X152273000Y-140919845D01*
X152527000Y-140919845D01*
X152527000Y-142113000D01*
X154813000Y-142113000D01*
X154813000Y-140919845D01*
X155067000Y-140919845D01*
X155067000Y-142113000D01*
X155087000Y-142113000D01*
X155087000Y-142367000D01*
X155067000Y-142367000D01*
X155067000Y-144653000D01*
X155087000Y-144653000D01*
X155087000Y-144907000D01*
X155067000Y-144907000D01*
X155067000Y-146100155D01*
X155296890Y-146221476D01*
X155444099Y-146176825D01*
X155706920Y-146051641D01*
X155940269Y-145877588D01*
X156016034Y-145793534D01*
X156040498Y-145874180D01*
X156099463Y-145984494D01*
X156178815Y-146081185D01*
X156275506Y-146160537D01*
X156385820Y-146219502D01*
X156505518Y-146255812D01*
X156630000Y-146268072D01*
X158330000Y-146268072D01*
X158454482Y-146255812D01*
X158574180Y-146219502D01*
X158684494Y-146160537D01*
X158781185Y-146081185D01*
X158860537Y-145984494D01*
X158919502Y-145874180D01*
X158955812Y-145754482D01*
X158968072Y-145630000D01*
X158968072Y-143930000D01*
X158955812Y-143805518D01*
X158919502Y-143685820D01*
X158860537Y-143575506D01*
X158781185Y-143478815D01*
X158684494Y-143399463D01*
X158574180Y-143340498D01*
X158501620Y-143318487D01*
X158633475Y-143186632D01*
X158795990Y-142943411D01*
X158907932Y-142673158D01*
X158965000Y-142386260D01*
X158965000Y-142093740D01*
X158907932Y-141806842D01*
X158795990Y-141536589D01*
X158633475Y-141293368D01*
X158426632Y-141086525D01*
X158183411Y-140924010D01*
X157913158Y-140812068D01*
X157626260Y-140755000D01*
X157333740Y-140755000D01*
X157046842Y-140812068D01*
X156776589Y-140924010D01*
X156533368Y-141086525D01*
X156326525Y-141293368D01*
X156204805Y-141475534D01*
X156135178Y-141358645D01*
X155940269Y-141142412D01*
X155706920Y-140968359D01*
X155444099Y-140843175D01*
X155296890Y-140798524D01*
X155067000Y-140919845D01*
X154813000Y-140919845D01*
X154583110Y-140798524D01*
X154435901Y-140843175D01*
X154173080Y-140968359D01*
X153939731Y-141142412D01*
X153744822Y-141358645D01*
X153670000Y-141484255D01*
X153595178Y-141358645D01*
X153400269Y-141142412D01*
X153166920Y-140968359D01*
X152904099Y-140843175D01*
X152756890Y-140798524D01*
X152527000Y-140919845D01*
X152273000Y-140919845D01*
X152043110Y-140798524D01*
X151895901Y-140843175D01*
X151633080Y-140968359D01*
X151399731Y-141142412D01*
X151204822Y-141358645D01*
X151130000Y-141484255D01*
X151055178Y-141358645D01*
X150860269Y-141142412D01*
X150626920Y-140968359D01*
X150364099Y-140843175D01*
X150216890Y-140798524D01*
X149987000Y-140919845D01*
X149733000Y-140919845D01*
X149503110Y-140798524D01*
X149355901Y-140843175D01*
X149093080Y-140968359D01*
X148859731Y-141142412D01*
X148664822Y-141358645D01*
X148595195Y-141475534D01*
X148473475Y-141293368D01*
X148266632Y-141086525D01*
X148023411Y-140924010D01*
X147753158Y-140812068D01*
X147466260Y-140755000D01*
X147173740Y-140755000D01*
X146886842Y-140812068D01*
X146616589Y-140924010D01*
X146373368Y-141086525D01*
X146166525Y-141293368D01*
X146004010Y-141536589D01*
X145892068Y-141806842D01*
X145835000Y-142093740D01*
X108431391Y-142093740D01*
X108713141Y-141811991D01*
X108756449Y-141776449D01*
X108898284Y-141603623D01*
X109003676Y-141406447D01*
X109068577Y-141192499D01*
X109085000Y-141025752D01*
X109085000Y-141025743D01*
X109090490Y-140970001D01*
X109085000Y-140914259D01*
X109085000Y-130307212D01*
X111570951Y-132793164D01*
X111606489Y-132836467D01*
X111649792Y-132872005D01*
X111649794Y-132872007D01*
X111779314Y-132978302D01*
X111976490Y-133083694D01*
X112190438Y-133148595D01*
X112412937Y-133170509D01*
X112468689Y-133165018D01*
X123700176Y-133165019D01*
X123685537Y-133171082D01*
X123417748Y-133350013D01*
X123190013Y-133577748D01*
X123011082Y-133845537D01*
X122887832Y-134143088D01*
X122825000Y-134458967D01*
X122825000Y-134781033D01*
X122887832Y-135096912D01*
X123011082Y-135394463D01*
X123190013Y-135662252D01*
X123417748Y-135889987D01*
X123685537Y-136068918D01*
X123983088Y-136192168D01*
X124298967Y-136255000D01*
X124621033Y-136255000D01*
X124936912Y-136192168D01*
X125234463Y-136068918D01*
X125502252Y-135889987D01*
X125729987Y-135662252D01*
X125835059Y-135505000D01*
X136128741Y-135505000D01*
X136296238Y-135672497D01*
X136518167Y-135820785D01*
X136685266Y-135890000D01*
X136518167Y-135959215D01*
X136296238Y-136107503D01*
X136107503Y-136296238D01*
X135959215Y-136518167D01*
X135857072Y-136764761D01*
X135805000Y-137026544D01*
X135805000Y-137293456D01*
X135857072Y-137555239D01*
X135959215Y-137801833D01*
X136107503Y-138023762D01*
X136296238Y-138212497D01*
X136518167Y-138360785D01*
X136685266Y-138430000D01*
X136518167Y-138499215D01*
X136296238Y-138647503D01*
X136107503Y-138836238D01*
X135959215Y-139058167D01*
X135857072Y-139304761D01*
X135805000Y-139566544D01*
X135805000Y-139833456D01*
X135857072Y-140095239D01*
X135959215Y-140341833D01*
X136107503Y-140563762D01*
X136296238Y-140752497D01*
X136518167Y-140900785D01*
X136764761Y-141002928D01*
X137026544Y-141055000D01*
X137293456Y-141055000D01*
X137555239Y-141002928D01*
X137801833Y-140900785D01*
X138023762Y-140752497D01*
X138212497Y-140563762D01*
X138360785Y-140341833D01*
X138462928Y-140095239D01*
X138515000Y-139833456D01*
X138515000Y-139566544D01*
X138462928Y-139304761D01*
X138360785Y-139058167D01*
X138212497Y-138836238D01*
X138023762Y-138647503D01*
X137801833Y-138499215D01*
X137634734Y-138430000D01*
X137801833Y-138360785D01*
X138023762Y-138212497D01*
X138212497Y-138023762D01*
X138360785Y-137801833D01*
X138462928Y-137555239D01*
X138515000Y-137293456D01*
X138515000Y-137026544D01*
X138462928Y-136764761D01*
X138360785Y-136518167D01*
X138212497Y-136296238D01*
X138023762Y-136107503D01*
X137801833Y-135959215D01*
X137634734Y-135890000D01*
X137801833Y-135820785D01*
X138023762Y-135672497D01*
X138212497Y-135483762D01*
X138360785Y-135261833D01*
X138462928Y-135015239D01*
X138515000Y-134753456D01*
X138515000Y-134486544D01*
X138462928Y-134224761D01*
X138360785Y-133978167D01*
X138212497Y-133756238D01*
X138023762Y-133567503D01*
X137801833Y-133419215D01*
X137555239Y-133317072D01*
X137293456Y-133265000D01*
X137026544Y-133265000D01*
X136764761Y-133317072D01*
X136518167Y-133419215D01*
X136296238Y-133567503D01*
X136128741Y-133735000D01*
X125835059Y-133735000D01*
X125729987Y-133577748D01*
X125502252Y-133350013D01*
X125234463Y-133171082D01*
X125219825Y-133165019D01*
X156480371Y-133165020D01*
X156536122Y-133170511D01*
X156591873Y-133165020D01*
X156591894Y-133165018D01*
X156758620Y-133148597D01*
X156972568Y-133083696D01*
X157039665Y-133047832D01*
X157169744Y-132978304D01*
X157342570Y-132836469D01*
X157378112Y-132793161D01*
X161238671Y-128932602D01*
X161288359Y-129036920D01*
X161462412Y-129270269D01*
X161678645Y-129465178D01*
X161928748Y-129614157D01*
X162203109Y-129711481D01*
X162433000Y-129590814D01*
X162433000Y-128397000D01*
X162687000Y-128397000D01*
X162687000Y-129590814D01*
X162916891Y-129711481D01*
X163191252Y-129614157D01*
X163441355Y-129465178D01*
X163657588Y-129270269D01*
X163831641Y-129036920D01*
X163956825Y-128774099D01*
X164001476Y-128626890D01*
X163880155Y-128397000D01*
X162687000Y-128397000D01*
X162433000Y-128397000D01*
X162413000Y-128397000D01*
X162413000Y-128143000D01*
X162433000Y-128143000D01*
X162433000Y-128123000D01*
X162687000Y-128123000D01*
X162687000Y-128143000D01*
X163880155Y-128143000D01*
X164001476Y-127913110D01*
X163956825Y-127765901D01*
X163831641Y-127503080D01*
X163657588Y-127269731D01*
X163441355Y-127074822D01*
X163324466Y-127005195D01*
X163506632Y-126883475D01*
X163713475Y-126676632D01*
X163875990Y-126433411D01*
X163987932Y-126163158D01*
X164045000Y-125876260D01*
X164045000Y-125583740D01*
X163987932Y-125296842D01*
X163875990Y-125026589D01*
X163713475Y-124783368D01*
X163506632Y-124576525D01*
X163332240Y-124460000D01*
X163506632Y-124343475D01*
X163713475Y-124136632D01*
X163875990Y-123893411D01*
X163943270Y-123730980D01*
X166549777Y-123730980D01*
X166549777Y-124131840D01*
X166627981Y-124524997D01*
X166781384Y-124895344D01*
X167004090Y-125228647D01*
X167287540Y-125512097D01*
X167620843Y-125734803D01*
X167991190Y-125888206D01*
X168384347Y-125966410D01*
X168785207Y-125966410D01*
X169178364Y-125888206D01*
X169548711Y-125734803D01*
X169882014Y-125512097D01*
X170165464Y-125228647D01*
X170388170Y-124895344D01*
X170541573Y-124524997D01*
X170619777Y-124131840D01*
X170619777Y-123730980D01*
X170541573Y-123337823D01*
X170388170Y-122967476D01*
X170165464Y-122634173D01*
X169882014Y-122350723D01*
X169548711Y-122128017D01*
X169178364Y-121974614D01*
X168785207Y-121896410D01*
X168384347Y-121896410D01*
X167991190Y-121974614D01*
X167620843Y-122128017D01*
X167287540Y-122350723D01*
X167004090Y-122634173D01*
X166781384Y-122967476D01*
X166627981Y-123337823D01*
X166549777Y-123730980D01*
X163943270Y-123730980D01*
X163987932Y-123623158D01*
X164045000Y-123336260D01*
X164045000Y-123043740D01*
X163987932Y-122756842D01*
X163875990Y-122486589D01*
X163713475Y-122243368D01*
X163506632Y-122036525D01*
X163332240Y-121920000D01*
X163506632Y-121803475D01*
X163713475Y-121596632D01*
X163875990Y-121353411D01*
X163987932Y-121083158D01*
X164045000Y-120796260D01*
X164045000Y-120503740D01*
X163987932Y-120216842D01*
X163875990Y-119946589D01*
X163713475Y-119703368D01*
X163581620Y-119571513D01*
X163654180Y-119549502D01*
X163764494Y-119490537D01*
X163861185Y-119411185D01*
X163940537Y-119314494D01*
X163999502Y-119204180D01*
X164035812Y-119084482D01*
X164048072Y-118960000D01*
X164048072Y-117260000D01*
X164035812Y-117135518D01*
X163999502Y-117015820D01*
X163940537Y-116905506D01*
X163861185Y-116808815D01*
X163764494Y-116729463D01*
X163654180Y-116670498D01*
X163534482Y-116634188D01*
X163410000Y-116621928D01*
X161710000Y-116621928D01*
X161585518Y-116634188D01*
X161465820Y-116670498D01*
X161355506Y-116729463D01*
X161258815Y-116808815D01*
X161179463Y-116905506D01*
X161120498Y-117015820D01*
X161084188Y-117135518D01*
X161071928Y-117260000D01*
X161071928Y-117992940D01*
X158400659Y-120664210D01*
X151884539Y-120664210D01*
X151828787Y-120658719D01*
X151606288Y-120680633D01*
X151556493Y-120695739D01*
X151392341Y-120745534D01*
X151195165Y-120850926D01*
X151022339Y-120992761D01*
X150986799Y-121036067D01*
X144735467Y-127287400D01*
X117050941Y-127287400D01*
X117058072Y-127215000D01*
X117058072Y-125833067D01*
X117191190Y-125888206D01*
X117584347Y-125966410D01*
X117985207Y-125966410D01*
X118055546Y-125952419D01*
X118469572Y-126366445D01*
X118505110Y-126409748D01*
X118548413Y-126445286D01*
X118548415Y-126445288D01*
X118677936Y-126551583D01*
X118875112Y-126656975D01*
X119089060Y-126721876D01*
X119311559Y-126743790D01*
X119367311Y-126738299D01*
X126715350Y-126738299D01*
X126771101Y-126743790D01*
X126826852Y-126738299D01*
X126826853Y-126738299D01*
X126993600Y-126721876D01*
X127207548Y-126656975D01*
X127404724Y-126551583D01*
X127577550Y-126409748D01*
X127613097Y-126366434D01*
X128627674Y-125351857D01*
X132434381Y-125351857D01*
X132578358Y-125657180D01*
X132936115Y-125838007D01*
X133322276Y-125945565D01*
X133722000Y-125975720D01*
X134119927Y-125927314D01*
X134500763Y-125802205D01*
X134772088Y-125657180D01*
X134916065Y-125351857D01*
X133675223Y-124111015D01*
X132434381Y-125351857D01*
X128627674Y-125351857D01*
X130001345Y-123978187D01*
X131630913Y-123978187D01*
X131679319Y-124376114D01*
X131804428Y-124756950D01*
X131949453Y-125028275D01*
X132254776Y-125172252D01*
X133495618Y-123931410D01*
X133854828Y-123931410D01*
X135095670Y-125172252D01*
X135400993Y-125028275D01*
X135581820Y-124670518D01*
X135689378Y-124284357D01*
X135719533Y-123884633D01*
X135671127Y-123486706D01*
X135546018Y-123105870D01*
X135400993Y-122834545D01*
X135095670Y-122690568D01*
X133854828Y-123931410D01*
X133495618Y-123931410D01*
X132254776Y-122690568D01*
X131949453Y-122834545D01*
X131768626Y-123192302D01*
X131661068Y-123578463D01*
X131630913Y-123978187D01*
X130001345Y-123978187D01*
X131468569Y-122510963D01*
X132434381Y-122510963D01*
X133675223Y-123751805D01*
X134916065Y-122510963D01*
X134772088Y-122205640D01*
X134414331Y-122024813D01*
X134028170Y-121917255D01*
X133628446Y-121887100D01*
X133230519Y-121935506D01*
X132849683Y-122060615D01*
X132578358Y-122205640D01*
X132434381Y-122510963D01*
X131468569Y-122510963D01*
X132245333Y-121734200D01*
X141650849Y-121734200D01*
X141706600Y-121739691D01*
X141762351Y-121734200D01*
X141762352Y-121734200D01*
X141929099Y-121717777D01*
X142143047Y-121652876D01*
X142340223Y-121547484D01*
X142513049Y-121405649D01*
X142548596Y-121362335D01*
X150524041Y-113386890D01*
X161118524Y-113386890D01*
X161163175Y-113534099D01*
X161288359Y-113796920D01*
X161462412Y-114030269D01*
X161678645Y-114225178D01*
X161928748Y-114374157D01*
X162203109Y-114471481D01*
X162433000Y-114350814D01*
X162433000Y-113157000D01*
X162687000Y-113157000D01*
X162687000Y-114350814D01*
X162916891Y-114471481D01*
X163191252Y-114374157D01*
X163441355Y-114225178D01*
X163657588Y-114030269D01*
X163831641Y-113796920D01*
X163956825Y-113534099D01*
X164001476Y-113386890D01*
X163880155Y-113157000D01*
X162687000Y-113157000D01*
X162433000Y-113157000D01*
X161239845Y-113157000D01*
X161118524Y-113386890D01*
X150524041Y-113386890D01*
X152285932Y-111625000D01*
X161594893Y-111625000D01*
X161613368Y-111643475D01*
X161795534Y-111765195D01*
X161678645Y-111834822D01*
X161462412Y-112029731D01*
X161288359Y-112263080D01*
X161163175Y-112525901D01*
X161118524Y-112673110D01*
X161239845Y-112903000D01*
X162433000Y-112903000D01*
X162433000Y-112883000D01*
X162687000Y-112883000D01*
X162687000Y-112903000D01*
X163880155Y-112903000D01*
X164001476Y-112673110D01*
X163956825Y-112525901D01*
X163831641Y-112263080D01*
X163657588Y-112029731D01*
X163441355Y-111834822D01*
X163324466Y-111765195D01*
X163506632Y-111643475D01*
X163713475Y-111436632D01*
X163875990Y-111193411D01*
X163987932Y-110923158D01*
X164045000Y-110636260D01*
X164045000Y-110343740D01*
X163987932Y-110056842D01*
X163875990Y-109786589D01*
X163713475Y-109543368D01*
X163581620Y-109411513D01*
X163654180Y-109389502D01*
X163764494Y-109330537D01*
X163861185Y-109251185D01*
X163940537Y-109154494D01*
X163977683Y-109085000D01*
X172834069Y-109085000D01*
X175395001Y-111645933D01*
X175395000Y-120480910D01*
X175232763Y-120589313D01*
X174949313Y-120872763D01*
X174726607Y-121206066D01*
X174573204Y-121576413D01*
X174495000Y-121969570D01*
X174495000Y-122370430D01*
X174573204Y-122763587D01*
X174726607Y-123133934D01*
X174949313Y-123467237D01*
X175232763Y-123750687D01*
X175566066Y-123973393D01*
X175936413Y-124126796D01*
X176329570Y-124205000D01*
X176730430Y-124205000D01*
X177123587Y-124126796D01*
X177493934Y-123973393D01*
X177827237Y-123750687D01*
X178110687Y-123467237D01*
X178333393Y-123133934D01*
X178486796Y-122763587D01*
X178565000Y-122370430D01*
X178565000Y-121969570D01*
X178486796Y-121576413D01*
X178333393Y-121206066D01*
X178110687Y-120872763D01*
X177827237Y-120589313D01*
X177665000Y-120480910D01*
X177665000Y-111231551D01*
X177670491Y-111175799D01*
X177648577Y-110953300D01*
X177583676Y-110739353D01*
X177528572Y-110636260D01*
X177478284Y-110542177D01*
X177336449Y-110369351D01*
X177293141Y-110333809D01*
X174146196Y-107186865D01*
X174110649Y-107143551D01*
X173937823Y-107001716D01*
X173740647Y-106896324D01*
X173526699Y-106831423D01*
X173359952Y-106815000D01*
X173359951Y-106815000D01*
X173304200Y-106809509D01*
X173248449Y-106815000D01*
X163977683Y-106815000D01*
X163940537Y-106745506D01*
X163861185Y-106648815D01*
X163764494Y-106569463D01*
X163654180Y-106510498D01*
X163534482Y-106474188D01*
X163410000Y-106461928D01*
X161710000Y-106461928D01*
X161585518Y-106474188D01*
X161465820Y-106510498D01*
X161355506Y-106569463D01*
X161258815Y-106648815D01*
X161179463Y-106745506D01*
X161142317Y-106815000D01*
X106827683Y-106815000D01*
X106790537Y-106745506D01*
X106711185Y-106648815D01*
X106614494Y-106569463D01*
X106504180Y-106510498D01*
X106384482Y-106474188D01*
X106260000Y-106461928D01*
X104560000Y-106461928D01*
X104435518Y-106474188D01*
X104315820Y-106510498D01*
X104205506Y-106569463D01*
X104108815Y-106648815D01*
X104029463Y-106745506D01*
X103970498Y-106855820D01*
X103934188Y-106975518D01*
X103921928Y-107100000D01*
X103921928Y-108800000D01*
X103934188Y-108924482D01*
X103970498Y-109044180D01*
X104029463Y-109154494D01*
X104108815Y-109251185D01*
X104205506Y-109330537D01*
X104315820Y-109389502D01*
X104388380Y-109411513D01*
X104256525Y-109543368D01*
X104094010Y-109786589D01*
X103982068Y-110056842D01*
X103925000Y-110343740D01*
X103925000Y-110636260D01*
X103982068Y-110923158D01*
X104094010Y-111193411D01*
X104256525Y-111436632D01*
X104463368Y-111643475D01*
X104637760Y-111760000D01*
X104463368Y-111876525D01*
X104256525Y-112083368D01*
X104094010Y-112326589D01*
X103982068Y-112596842D01*
X103925000Y-112883740D01*
X103925000Y-113176260D01*
X103982068Y-113463158D01*
X104094010Y-113733411D01*
X104256525Y-113976632D01*
X104463368Y-114183475D01*
X104645534Y-114305195D01*
X104528645Y-114374822D01*
X104312412Y-114569731D01*
X104138359Y-114803080D01*
X104013175Y-115065901D01*
X103968524Y-115213110D01*
X104089845Y-115443000D01*
X105283000Y-115443000D01*
X105283000Y-115423000D01*
X105537000Y-115423000D01*
X105537000Y-115443000D01*
X106730155Y-115443000D01*
X106851476Y-115213110D01*
X106806825Y-115065901D01*
X106681641Y-114803080D01*
X106507588Y-114569731D01*
X106291355Y-114374822D01*
X106174466Y-114305195D01*
X106356632Y-114183475D01*
X106563475Y-113976632D01*
X106725990Y-113733411D01*
X106837932Y-113463158D01*
X106895000Y-113176260D01*
X106895000Y-112883740D01*
X106837932Y-112596842D01*
X106725990Y-112326589D01*
X106563475Y-112083368D01*
X106356632Y-111876525D01*
X106182240Y-111760000D01*
X106356632Y-111643475D01*
X106375107Y-111625000D01*
X121246669Y-111625000D01*
X124595001Y-114973333D01*
X124595000Y-120480910D01*
X124432763Y-120589313D01*
X124149313Y-120872763D01*
X123926607Y-121206066D01*
X123773204Y-121576413D01*
X123695000Y-121969570D01*
X123695000Y-122370430D01*
X123773204Y-122763587D01*
X123926607Y-123133934D01*
X124149313Y-123467237D01*
X124432763Y-123750687D01*
X124766066Y-123973393D01*
X125136413Y-124126796D01*
X125529570Y-124205000D01*
X125930430Y-124205000D01*
X126323587Y-124126796D01*
X126693934Y-123973393D01*
X127001152Y-123768116D01*
X126300970Y-124468299D01*
X119781691Y-124468299D01*
X119757636Y-124444243D01*
X119819777Y-124131840D01*
X119819777Y-123730980D01*
X119741573Y-123337823D01*
X119588170Y-122967476D01*
X119365464Y-122634173D01*
X119082014Y-122350723D01*
X118748711Y-122128017D01*
X118378364Y-121974614D01*
X117985207Y-121896410D01*
X117584347Y-121896410D01*
X117191190Y-121974614D01*
X116820843Y-122128017D01*
X116487540Y-122350723D01*
X116204090Y-122634173D01*
X115981384Y-122967476D01*
X115827981Y-123337823D01*
X115749777Y-123730980D01*
X115749777Y-124131840D01*
X115827981Y-124524997D01*
X115973756Y-124876928D01*
X114720000Y-124876928D01*
X114595518Y-124889188D01*
X114475820Y-124925498D01*
X114365506Y-124984463D01*
X114268815Y-125063815D01*
X114189463Y-125160506D01*
X114130498Y-125270820D01*
X114108487Y-125343380D01*
X113976632Y-125211525D01*
X113733411Y-125049010D01*
X113463158Y-124937068D01*
X113176260Y-124880000D01*
X112883740Y-124880000D01*
X112596842Y-124937068D01*
X112326589Y-125049010D01*
X112083368Y-125211525D01*
X111876525Y-125418368D01*
X111760000Y-125592760D01*
X111643475Y-125418368D01*
X111436632Y-125211525D01*
X111193411Y-125049010D01*
X110923158Y-124937068D01*
X110636260Y-124880000D01*
X110610132Y-124880000D01*
X109781995Y-124051864D01*
X109746448Y-124008550D01*
X109573622Y-123866715D01*
X109376446Y-123761323D01*
X109162498Y-123696422D01*
X108995751Y-123679999D01*
X108995750Y-123679999D01*
X108939999Y-123674508D01*
X108884248Y-123679999D01*
X104721740Y-123679999D01*
X104665998Y-123674509D01*
X104610256Y-123679999D01*
X104610247Y-123679999D01*
X104443500Y-123696422D01*
X104229552Y-123761323D01*
X104032376Y-123866715D01*
X103859550Y-124008550D01*
X103824008Y-124051858D01*
X102260000Y-125615867D01*
X102260000Y-117963740D01*
X103925000Y-117963740D01*
X103925000Y-118256260D01*
X103982068Y-118543158D01*
X104094010Y-118813411D01*
X104256525Y-119056632D01*
X104463368Y-119263475D01*
X104706589Y-119425990D01*
X104976842Y-119537932D01*
X105263740Y-119595000D01*
X105556260Y-119595000D01*
X105843158Y-119537932D01*
X106113411Y-119425990D01*
X106356632Y-119263475D01*
X106563475Y-119056632D01*
X106725990Y-118813411D01*
X106837932Y-118543158D01*
X106895000Y-118256260D01*
X106895000Y-117963740D01*
X106837932Y-117676842D01*
X106725990Y-117406589D01*
X106563475Y-117163368D01*
X106356632Y-116956525D01*
X106174466Y-116834805D01*
X106291355Y-116765178D01*
X106507588Y-116570269D01*
X106681641Y-116336920D01*
X106806825Y-116074099D01*
X106851476Y-115926890D01*
X106730155Y-115697000D01*
X105537000Y-115697000D01*
X105537000Y-115717000D01*
X105283000Y-115717000D01*
X105283000Y-115697000D01*
X104089845Y-115697000D01*
X103968524Y-115926890D01*
X104013175Y-116074099D01*
X104138359Y-116336920D01*
X104312412Y-116570269D01*
X104528645Y-116765178D01*
X104645534Y-116834805D01*
X104463368Y-116956525D01*
X104256525Y-117163368D01*
X104094010Y-117406589D01*
X103982068Y-117676842D01*
X103925000Y-117963740D01*
X102260000Y-117963740D01*
X102260000Y-103619133D01*
X104374012Y-105733147D01*
G37*
X104374012Y-105733147D02*
X104409550Y-105776450D01*
X104452853Y-105811988D01*
X104452855Y-105811990D01*
X104582376Y-105918285D01*
X104779552Y-106023677D01*
X104993500Y-106088578D01*
X105215999Y-106110492D01*
X105271751Y-106105001D01*
X145182250Y-106105001D01*
X145238001Y-106110492D01*
X145293752Y-106105001D01*
X145293753Y-106105001D01*
X145460500Y-106088578D01*
X145630528Y-106037000D01*
X175602669Y-106037000D01*
X178722401Y-109156734D01*
X178722400Y-125725049D01*
X178716909Y-125780800D01*
X178729595Y-125909605D01*
X178738823Y-126003298D01*
X178803724Y-126217246D01*
X178909116Y-126414423D01*
X179050951Y-126587249D01*
X179094265Y-126622796D01*
X186584609Y-134113141D01*
X186620151Y-134156449D01*
X186792977Y-134298284D01*
X186990153Y-134403676D01*
X187204101Y-134468577D01*
X187370848Y-134485000D01*
X187370857Y-134485000D01*
X187426599Y-134490490D01*
X187482341Y-134485000D01*
X195432317Y-134485000D01*
X195469463Y-134554494D01*
X195548815Y-134651185D01*
X195645506Y-134730537D01*
X195755820Y-134789502D01*
X195828380Y-134811513D01*
X195696525Y-134943368D01*
X195534010Y-135186589D01*
X195422068Y-135456842D01*
X195365000Y-135743740D01*
X195365000Y-136036260D01*
X195422068Y-136323158D01*
X195534010Y-136593411D01*
X195696525Y-136836632D01*
X195903368Y-137043475D01*
X196077760Y-137160000D01*
X195903368Y-137276525D01*
X195696525Y-137483368D01*
X195534010Y-137726589D01*
X195422068Y-137996842D01*
X195365000Y-138283740D01*
X195365000Y-138576260D01*
X195422068Y-138863158D01*
X195534010Y-139133411D01*
X195696525Y-139376632D01*
X195903368Y-139583475D01*
X196077760Y-139700000D01*
X195903368Y-139816525D01*
X195696525Y-140023368D01*
X195534010Y-140266589D01*
X195422068Y-140536842D01*
X195365000Y-140823740D01*
X195365000Y-141116260D01*
X195422068Y-141403158D01*
X195534010Y-141673411D01*
X195696525Y-141916632D01*
X195903368Y-142123475D01*
X196077760Y-142240000D01*
X195903368Y-142356525D01*
X195696525Y-142563368D01*
X195534010Y-142806589D01*
X195422068Y-143076842D01*
X195365000Y-143363740D01*
X195365000Y-143656260D01*
X195422068Y-143943158D01*
X195534010Y-144213411D01*
X195696525Y-144456632D01*
X195903368Y-144663475D01*
X196085534Y-144785195D01*
X195968645Y-144854822D01*
X195752412Y-145049731D01*
X195578359Y-145283080D01*
X195453175Y-145545901D01*
X195408524Y-145693110D01*
X195529845Y-145923000D01*
X196723000Y-145923000D01*
X196723000Y-145903000D01*
X196977000Y-145903000D01*
X196977000Y-145923000D01*
X198170155Y-145923000D01*
X198291476Y-145693110D01*
X198246825Y-145545901D01*
X198121641Y-145283080D01*
X197947588Y-145049731D01*
X197731355Y-144854822D01*
X197614466Y-144785195D01*
X197796632Y-144663475D01*
X198003475Y-144456632D01*
X198165990Y-144213411D01*
X198277932Y-143943158D01*
X198335000Y-143656260D01*
X198335000Y-143363740D01*
X198277932Y-143076842D01*
X198165990Y-142806589D01*
X198003475Y-142563368D01*
X197796632Y-142356525D01*
X197622240Y-142240000D01*
X197796632Y-142123475D01*
X198003475Y-141916632D01*
X198165990Y-141673411D01*
X198277932Y-141403158D01*
X198335000Y-141116260D01*
X198335000Y-140823740D01*
X198277932Y-140536842D01*
X198165990Y-140266589D01*
X198003475Y-140023368D01*
X197796632Y-139816525D01*
X197622240Y-139700000D01*
X197796632Y-139583475D01*
X197815107Y-139565000D01*
X198546849Y-139565000D01*
X198602600Y-139570491D01*
X198658351Y-139565000D01*
X198658352Y-139565000D01*
X198825099Y-139548577D01*
X199039047Y-139483676D01*
X199236223Y-139378284D01*
X199409049Y-139236449D01*
X199444596Y-139193135D01*
X200000000Y-138637731D01*
X200000000Y-149200000D01*
X102260000Y-149200000D01*
X102260000Y-146406890D01*
X103968524Y-146406890D01*
X104013175Y-146554099D01*
X104138359Y-146816920D01*
X104312412Y-147050269D01*
X104528645Y-147245178D01*
X104778748Y-147394157D01*
X105053109Y-147491481D01*
X105283000Y-147370814D01*
X105283000Y-146177000D01*
X105537000Y-146177000D01*
X105537000Y-147370814D01*
X105766891Y-147491481D01*
X106041252Y-147394157D01*
X106291355Y-147245178D01*
X106507588Y-147050269D01*
X106681641Y-146816920D01*
X106806825Y-146554099D01*
X106851476Y-146406890D01*
X106730155Y-146177000D01*
X105537000Y-146177000D01*
X105283000Y-146177000D01*
X104089845Y-146177000D01*
X103968524Y-146406890D01*
X102260000Y-146406890D01*
X102260000Y-139628331D01*
X103968968Y-141337300D01*
X103982068Y-141403158D01*
X104094010Y-141673411D01*
X104256525Y-141916632D01*
X104463368Y-142123475D01*
X104637760Y-142240000D01*
X104463368Y-142356525D01*
X104256525Y-142563368D01*
X104094010Y-142806589D01*
X103982068Y-143076842D01*
X103925000Y-143363740D01*
X103925000Y-143656260D01*
X103982068Y-143943158D01*
X104094010Y-144213411D01*
X104256525Y-144456632D01*
X104463368Y-144663475D01*
X104645534Y-144785195D01*
X104528645Y-144854822D01*
X104312412Y-145049731D01*
X104138359Y-145283080D01*
X104013175Y-145545901D01*
X103968524Y-145693110D01*
X104089845Y-145923000D01*
X105283000Y-145923000D01*
X105283000Y-145903000D01*
X105537000Y-145903000D01*
X105537000Y-145923000D01*
X106730155Y-145923000D01*
X106734158Y-145915413D01*
X123504192Y-145915413D01*
X123599956Y-146179814D01*
X123889571Y-146320704D01*
X124201108Y-146402384D01*
X124522595Y-146421718D01*
X124630722Y-146406890D01*
X195408524Y-146406890D01*
X195453175Y-146554099D01*
X195578359Y-146816920D01*
X195752412Y-147050269D01*
X195968645Y-147245178D01*
X196218748Y-147394157D01*
X196493109Y-147491481D01*
X196723000Y-147370814D01*
X196723000Y-146177000D01*
X196977000Y-146177000D01*
X196977000Y-147370814D01*
X197206891Y-147491481D01*
X197481252Y-147394157D01*
X197731355Y-147245178D01*
X197947588Y-147050269D01*
X198121641Y-146816920D01*
X198246825Y-146554099D01*
X198291476Y-146406890D01*
X198170155Y-146177000D01*
X196977000Y-146177000D01*
X196723000Y-146177000D01*
X195529845Y-146177000D01*
X195408524Y-146406890D01*
X124630722Y-146406890D01*
X124841675Y-146377961D01*
X125146088Y-146272795D01*
X125320044Y-146179814D01*
X125415808Y-145915413D01*
X124460000Y-144959605D01*
X123504192Y-145915413D01*
X106734158Y-145915413D01*
X106851476Y-145693110D01*
X106806825Y-145545901D01*
X106681641Y-145283080D01*
X106507588Y-145049731D01*
X106291355Y-144854822D01*
X106270829Y-144842595D01*
X122818282Y-144842595D01*
X122862039Y-145161675D01*
X122967205Y-145466088D01*
X123060186Y-145640044D01*
X123324587Y-145735808D01*
X124280395Y-144780000D01*
X124639605Y-144780000D01*
X125595413Y-145735808D01*
X125859814Y-145640044D01*
X126000704Y-145350429D01*
X126082384Y-145038892D01*
X126101718Y-144717405D01*
X126057961Y-144398325D01*
X125952795Y-144093912D01*
X125859814Y-143919956D01*
X125595413Y-143824192D01*
X124639605Y-144780000D01*
X124280395Y-144780000D01*
X123324587Y-143824192D01*
X123060186Y-143919956D01*
X122919296Y-144209571D01*
X122837616Y-144521108D01*
X122818282Y-144842595D01*
X106270829Y-144842595D01*
X106174466Y-144785195D01*
X106356632Y-144663475D01*
X106563475Y-144456632D01*
X106725990Y-144213411D01*
X106837932Y-143943158D01*
X106895000Y-143656260D01*
X106895000Y-143644587D01*
X123504192Y-143644587D01*
X124460000Y-144600395D01*
X125415808Y-143644587D01*
X125320044Y-143380186D01*
X125030429Y-143239296D01*
X124718892Y-143157616D01*
X124397405Y-143138282D01*
X124078325Y-143182039D01*
X123773912Y-143287205D01*
X123599956Y-143380186D01*
X123504192Y-143644587D01*
X106895000Y-143644587D01*
X106895000Y-143630131D01*
X108431391Y-142093740D01*
X145835000Y-142093740D01*
X145835000Y-142386260D01*
X145892068Y-142673158D01*
X146004010Y-142943411D01*
X146166525Y-143186632D01*
X146373368Y-143393475D01*
X146547760Y-143510000D01*
X146373368Y-143626525D01*
X146166525Y-143833368D01*
X146004010Y-144076589D01*
X145892068Y-144346842D01*
X145835000Y-144633740D01*
X145835000Y-144926260D01*
X145892068Y-145213158D01*
X146004010Y-145483411D01*
X146166525Y-145726632D01*
X146373368Y-145933475D01*
X146616589Y-146095990D01*
X146886842Y-146207932D01*
X147173740Y-146265000D01*
X147466260Y-146265000D01*
X147753158Y-146207932D01*
X148023411Y-146095990D01*
X148266632Y-145933475D01*
X148473475Y-145726632D01*
X148595195Y-145544466D01*
X148664822Y-145661355D01*
X148859731Y-145877588D01*
X149093080Y-146051641D01*
X149355901Y-146176825D01*
X149503110Y-146221476D01*
X149733000Y-146100155D01*
X149733000Y-144907000D01*
X149987000Y-144907000D01*
X149987000Y-146100155D01*
X150216890Y-146221476D01*
X150364099Y-146176825D01*
X150626920Y-146051641D01*
X150860269Y-145877588D01*
X151055178Y-145661355D01*
X151130000Y-145535745D01*
X151204822Y-145661355D01*
X151399731Y-145877588D01*
X151633080Y-146051641D01*
X151895901Y-146176825D01*
X152043110Y-146221476D01*
X152273000Y-146100155D01*
X152273000Y-144907000D01*
X152527000Y-144907000D01*
X152527000Y-146100155D01*
X152756890Y-146221476D01*
X152904099Y-146176825D01*
X153166920Y-146051641D01*
X153400269Y-145877588D01*
X153595178Y-145661355D01*
X153670000Y-145535745D01*
X153744822Y-145661355D01*
X153939731Y-145877588D01*
X154173080Y-146051641D01*
X154435901Y-146176825D01*
X154583110Y-146221476D01*
X154813000Y-146100155D01*
X154813000Y-144907000D01*
X152527000Y-144907000D01*
X152273000Y-144907000D01*
X149987000Y-144907000D01*
X149733000Y-144907000D01*
X149713000Y-144907000D01*
X149713000Y-144653000D01*
X149733000Y-144653000D01*
X149733000Y-142367000D01*
X149987000Y-142367000D01*
X149987000Y-144653000D01*
X152273000Y-144653000D01*
X152273000Y-142367000D01*
X152527000Y-142367000D01*
X152527000Y-144653000D01*
X154813000Y-144653000D01*
X154813000Y-142367000D01*
X152527000Y-142367000D01*
X152273000Y-142367000D01*
X149987000Y-142367000D01*
X149733000Y-142367000D01*
X149713000Y-142367000D01*
X149713000Y-142113000D01*
X149733000Y-142113000D01*
X149733000Y-140919845D01*
X149987000Y-140919845D01*
X149987000Y-142113000D01*
X152273000Y-142113000D01*
X152273000Y-140919845D01*
X152527000Y-140919845D01*
X152527000Y-142113000D01*
X154813000Y-142113000D01*
X154813000Y-140919845D01*
X155067000Y-140919845D01*
X155067000Y-142113000D01*
X155087000Y-142113000D01*
X155087000Y-142367000D01*
X155067000Y-142367000D01*
X155067000Y-144653000D01*
X155087000Y-144653000D01*
X155087000Y-144907000D01*
X155067000Y-144907000D01*
X155067000Y-146100155D01*
X155296890Y-146221476D01*
X155444099Y-146176825D01*
X155706920Y-146051641D01*
X155940269Y-145877588D01*
X156016034Y-145793534D01*
X156040498Y-145874180D01*
X156099463Y-145984494D01*
X156178815Y-146081185D01*
X156275506Y-146160537D01*
X156385820Y-146219502D01*
X156505518Y-146255812D01*
X156630000Y-146268072D01*
X158330000Y-146268072D01*
X158454482Y-146255812D01*
X158574180Y-146219502D01*
X158684494Y-146160537D01*
X158781185Y-146081185D01*
X158860537Y-145984494D01*
X158919502Y-145874180D01*
X158955812Y-145754482D01*
X158968072Y-145630000D01*
X158968072Y-143930000D01*
X158955812Y-143805518D01*
X158919502Y-143685820D01*
X158860537Y-143575506D01*
X158781185Y-143478815D01*
X158684494Y-143399463D01*
X158574180Y-143340498D01*
X158501620Y-143318487D01*
X158633475Y-143186632D01*
X158795990Y-142943411D01*
X158907932Y-142673158D01*
X158965000Y-142386260D01*
X158965000Y-142093740D01*
X158907932Y-141806842D01*
X158795990Y-141536589D01*
X158633475Y-141293368D01*
X158426632Y-141086525D01*
X158183411Y-140924010D01*
X157913158Y-140812068D01*
X157626260Y-140755000D01*
X157333740Y-140755000D01*
X157046842Y-140812068D01*
X156776589Y-140924010D01*
X156533368Y-141086525D01*
X156326525Y-141293368D01*
X156204805Y-141475534D01*
X156135178Y-141358645D01*
X155940269Y-141142412D01*
X155706920Y-140968359D01*
X155444099Y-140843175D01*
X155296890Y-140798524D01*
X155067000Y-140919845D01*
X154813000Y-140919845D01*
X154583110Y-140798524D01*
X154435901Y-140843175D01*
X154173080Y-140968359D01*
X153939731Y-141142412D01*
X153744822Y-141358645D01*
X153670000Y-141484255D01*
X153595178Y-141358645D01*
X153400269Y-141142412D01*
X153166920Y-140968359D01*
X152904099Y-140843175D01*
X152756890Y-140798524D01*
X152527000Y-140919845D01*
X152273000Y-140919845D01*
X152043110Y-140798524D01*
X151895901Y-140843175D01*
X151633080Y-140968359D01*
X151399731Y-141142412D01*
X151204822Y-141358645D01*
X151130000Y-141484255D01*
X151055178Y-141358645D01*
X150860269Y-141142412D01*
X150626920Y-140968359D01*
X150364099Y-140843175D01*
X150216890Y-140798524D01*
X149987000Y-140919845D01*
X149733000Y-140919845D01*
X149503110Y-140798524D01*
X149355901Y-140843175D01*
X149093080Y-140968359D01*
X148859731Y-141142412D01*
X148664822Y-141358645D01*
X148595195Y-141475534D01*
X148473475Y-141293368D01*
X148266632Y-141086525D01*
X148023411Y-140924010D01*
X147753158Y-140812068D01*
X147466260Y-140755000D01*
X147173740Y-140755000D01*
X146886842Y-140812068D01*
X146616589Y-140924010D01*
X146373368Y-141086525D01*
X146166525Y-141293368D01*
X146004010Y-141536589D01*
X145892068Y-141806842D01*
X145835000Y-142093740D01*
X108431391Y-142093740D01*
X108713141Y-141811991D01*
X108756449Y-141776449D01*
X108898284Y-141603623D01*
X109003676Y-141406447D01*
X109068577Y-141192499D01*
X109085000Y-141025752D01*
X109085000Y-141025743D01*
X109090490Y-140970001D01*
X109085000Y-140914259D01*
X109085000Y-130307212D01*
X111570951Y-132793164D01*
X111606489Y-132836467D01*
X111649792Y-132872005D01*
X111649794Y-132872007D01*
X111779314Y-132978302D01*
X111976490Y-133083694D01*
X112190438Y-133148595D01*
X112412937Y-133170509D01*
X112468689Y-133165018D01*
X123700176Y-133165019D01*
X123685537Y-133171082D01*
X123417748Y-133350013D01*
X123190013Y-133577748D01*
X123011082Y-133845537D01*
X122887832Y-134143088D01*
X122825000Y-134458967D01*
X122825000Y-134781033D01*
X122887832Y-135096912D01*
X123011082Y-135394463D01*
X123190013Y-135662252D01*
X123417748Y-135889987D01*
X123685537Y-136068918D01*
X123983088Y-136192168D01*
X124298967Y-136255000D01*
X124621033Y-136255000D01*
X124936912Y-136192168D01*
X125234463Y-136068918D01*
X125502252Y-135889987D01*
X125729987Y-135662252D01*
X125835059Y-135505000D01*
X136128741Y-135505000D01*
X136296238Y-135672497D01*
X136518167Y-135820785D01*
X136685266Y-135890000D01*
X136518167Y-135959215D01*
X136296238Y-136107503D01*
X136107503Y-136296238D01*
X135959215Y-136518167D01*
X135857072Y-136764761D01*
X135805000Y-137026544D01*
X135805000Y-137293456D01*
X135857072Y-137555239D01*
X135959215Y-137801833D01*
X136107503Y-138023762D01*
X136296238Y-138212497D01*
X136518167Y-138360785D01*
X136685266Y-138430000D01*
X136518167Y-138499215D01*
X136296238Y-138647503D01*
X136107503Y-138836238D01*
X135959215Y-139058167D01*
X135857072Y-139304761D01*
X135805000Y-139566544D01*
X135805000Y-139833456D01*
X135857072Y-140095239D01*
X135959215Y-140341833D01*
X136107503Y-140563762D01*
X136296238Y-140752497D01*
X136518167Y-140900785D01*
X136764761Y-141002928D01*
X137026544Y-141055000D01*
X137293456Y-141055000D01*
X137555239Y-141002928D01*
X137801833Y-140900785D01*
X138023762Y-140752497D01*
X138212497Y-140563762D01*
X138360785Y-140341833D01*
X138462928Y-140095239D01*
X138515000Y-139833456D01*
X138515000Y-139566544D01*
X138462928Y-139304761D01*
X138360785Y-139058167D01*
X138212497Y-138836238D01*
X138023762Y-138647503D01*
X137801833Y-138499215D01*
X137634734Y-138430000D01*
X137801833Y-138360785D01*
X138023762Y-138212497D01*
X138212497Y-138023762D01*
X138360785Y-137801833D01*
X138462928Y-137555239D01*
X138515000Y-137293456D01*
X138515000Y-137026544D01*
X138462928Y-136764761D01*
X138360785Y-136518167D01*
X138212497Y-136296238D01*
X138023762Y-136107503D01*
X137801833Y-135959215D01*
X137634734Y-135890000D01*
X137801833Y-135820785D01*
X138023762Y-135672497D01*
X138212497Y-135483762D01*
X138360785Y-135261833D01*
X138462928Y-135015239D01*
X138515000Y-134753456D01*
X138515000Y-134486544D01*
X138462928Y-134224761D01*
X138360785Y-133978167D01*
X138212497Y-133756238D01*
X138023762Y-133567503D01*
X137801833Y-133419215D01*
X137555239Y-133317072D01*
X137293456Y-133265000D01*
X137026544Y-133265000D01*
X136764761Y-133317072D01*
X136518167Y-133419215D01*
X136296238Y-133567503D01*
X136128741Y-133735000D01*
X125835059Y-133735000D01*
X125729987Y-133577748D01*
X125502252Y-133350013D01*
X125234463Y-133171082D01*
X125219825Y-133165019D01*
X156480371Y-133165020D01*
X156536122Y-133170511D01*
X156591873Y-133165020D01*
X156591894Y-133165018D01*
X156758620Y-133148597D01*
X156972568Y-133083696D01*
X157039665Y-133047832D01*
X157169744Y-132978304D01*
X157342570Y-132836469D01*
X157378112Y-132793161D01*
X161238671Y-128932602D01*
X161288359Y-129036920D01*
X161462412Y-129270269D01*
X161678645Y-129465178D01*
X161928748Y-129614157D01*
X162203109Y-129711481D01*
X162433000Y-129590814D01*
X162433000Y-128397000D01*
X162687000Y-128397000D01*
X162687000Y-129590814D01*
X162916891Y-129711481D01*
X163191252Y-129614157D01*
X163441355Y-129465178D01*
X163657588Y-129270269D01*
X163831641Y-129036920D01*
X163956825Y-128774099D01*
X164001476Y-128626890D01*
X163880155Y-128397000D01*
X162687000Y-128397000D01*
X162433000Y-128397000D01*
X162413000Y-128397000D01*
X162413000Y-128143000D01*
X162433000Y-128143000D01*
X162433000Y-128123000D01*
X162687000Y-128123000D01*
X162687000Y-128143000D01*
X163880155Y-128143000D01*
X164001476Y-127913110D01*
X163956825Y-127765901D01*
X163831641Y-127503080D01*
X163657588Y-127269731D01*
X163441355Y-127074822D01*
X163324466Y-127005195D01*
X163506632Y-126883475D01*
X163713475Y-126676632D01*
X163875990Y-126433411D01*
X163987932Y-126163158D01*
X164045000Y-125876260D01*
X164045000Y-125583740D01*
X163987932Y-125296842D01*
X163875990Y-125026589D01*
X163713475Y-124783368D01*
X163506632Y-124576525D01*
X163332240Y-124460000D01*
X163506632Y-124343475D01*
X163713475Y-124136632D01*
X163875990Y-123893411D01*
X163943270Y-123730980D01*
X166549777Y-123730980D01*
X166549777Y-124131840D01*
X166627981Y-124524997D01*
X166781384Y-124895344D01*
X167004090Y-125228647D01*
X167287540Y-125512097D01*
X167620843Y-125734803D01*
X167991190Y-125888206D01*
X168384347Y-125966410D01*
X168785207Y-125966410D01*
X169178364Y-125888206D01*
X169548711Y-125734803D01*
X169882014Y-125512097D01*
X170165464Y-125228647D01*
X170388170Y-124895344D01*
X170541573Y-124524997D01*
X170619777Y-124131840D01*
X170619777Y-123730980D01*
X170541573Y-123337823D01*
X170388170Y-122967476D01*
X170165464Y-122634173D01*
X169882014Y-122350723D01*
X169548711Y-122128017D01*
X169178364Y-121974614D01*
X168785207Y-121896410D01*
X168384347Y-121896410D01*
X167991190Y-121974614D01*
X167620843Y-122128017D01*
X167287540Y-122350723D01*
X167004090Y-122634173D01*
X166781384Y-122967476D01*
X166627981Y-123337823D01*
X166549777Y-123730980D01*
X163943270Y-123730980D01*
X163987932Y-123623158D01*
X164045000Y-123336260D01*
X164045000Y-123043740D01*
X163987932Y-122756842D01*
X163875990Y-122486589D01*
X163713475Y-122243368D01*
X163506632Y-122036525D01*
X163332240Y-121920000D01*
X163506632Y-121803475D01*
X163713475Y-121596632D01*
X163875990Y-121353411D01*
X163987932Y-121083158D01*
X164045000Y-120796260D01*
X164045000Y-120503740D01*
X163987932Y-120216842D01*
X163875990Y-119946589D01*
X163713475Y-119703368D01*
X163581620Y-119571513D01*
X163654180Y-119549502D01*
X163764494Y-119490537D01*
X163861185Y-119411185D01*
X163940537Y-119314494D01*
X163999502Y-119204180D01*
X164035812Y-119084482D01*
X164048072Y-118960000D01*
X164048072Y-117260000D01*
X164035812Y-117135518D01*
X163999502Y-117015820D01*
X163940537Y-116905506D01*
X163861185Y-116808815D01*
X163764494Y-116729463D01*
X163654180Y-116670498D01*
X163534482Y-116634188D01*
X163410000Y-116621928D01*
X161710000Y-116621928D01*
X161585518Y-116634188D01*
X161465820Y-116670498D01*
X161355506Y-116729463D01*
X161258815Y-116808815D01*
X161179463Y-116905506D01*
X161120498Y-117015820D01*
X161084188Y-117135518D01*
X161071928Y-117260000D01*
X161071928Y-117992940D01*
X158400659Y-120664210D01*
X151884539Y-120664210D01*
X151828787Y-120658719D01*
X151606288Y-120680633D01*
X151556493Y-120695739D01*
X151392341Y-120745534D01*
X151195165Y-120850926D01*
X151022339Y-120992761D01*
X150986799Y-121036067D01*
X144735467Y-127287400D01*
X117050941Y-127287400D01*
X117058072Y-127215000D01*
X117058072Y-125833067D01*
X117191190Y-125888206D01*
X117584347Y-125966410D01*
X117985207Y-125966410D01*
X118055546Y-125952419D01*
X118469572Y-126366445D01*
X118505110Y-126409748D01*
X118548413Y-126445286D01*
X118548415Y-126445288D01*
X118677936Y-126551583D01*
X118875112Y-126656975D01*
X119089060Y-126721876D01*
X119311559Y-126743790D01*
X119367311Y-126738299D01*
X126715350Y-126738299D01*
X126771101Y-126743790D01*
X126826852Y-126738299D01*
X126826853Y-126738299D01*
X126993600Y-126721876D01*
X127207548Y-126656975D01*
X127404724Y-126551583D01*
X127577550Y-126409748D01*
X127613097Y-126366434D01*
X128627674Y-125351857D01*
X132434381Y-125351857D01*
X132578358Y-125657180D01*
X132936115Y-125838007D01*
X133322276Y-125945565D01*
X133722000Y-125975720D01*
X134119927Y-125927314D01*
X134500763Y-125802205D01*
X134772088Y-125657180D01*
X134916065Y-125351857D01*
X133675223Y-124111015D01*
X132434381Y-125351857D01*
X128627674Y-125351857D01*
X130001345Y-123978187D01*
X131630913Y-123978187D01*
X131679319Y-124376114D01*
X131804428Y-124756950D01*
X131949453Y-125028275D01*
X132254776Y-125172252D01*
X133495618Y-123931410D01*
X133854828Y-123931410D01*
X135095670Y-125172252D01*
X135400993Y-125028275D01*
X135581820Y-124670518D01*
X135689378Y-124284357D01*
X135719533Y-123884633D01*
X135671127Y-123486706D01*
X135546018Y-123105870D01*
X135400993Y-122834545D01*
X135095670Y-122690568D01*
X133854828Y-123931410D01*
X133495618Y-123931410D01*
X132254776Y-122690568D01*
X131949453Y-122834545D01*
X131768626Y-123192302D01*
X131661068Y-123578463D01*
X131630913Y-123978187D01*
X130001345Y-123978187D01*
X131468569Y-122510963D01*
X132434381Y-122510963D01*
X133675223Y-123751805D01*
X134916065Y-122510963D01*
X134772088Y-122205640D01*
X134414331Y-122024813D01*
X134028170Y-121917255D01*
X133628446Y-121887100D01*
X133230519Y-121935506D01*
X132849683Y-122060615D01*
X132578358Y-122205640D01*
X132434381Y-122510963D01*
X131468569Y-122510963D01*
X132245333Y-121734200D01*
X141650849Y-121734200D01*
X141706600Y-121739691D01*
X141762351Y-121734200D01*
X141762352Y-121734200D01*
X141929099Y-121717777D01*
X142143047Y-121652876D01*
X142340223Y-121547484D01*
X142513049Y-121405649D01*
X142548596Y-121362335D01*
X150524041Y-113386890D01*
X161118524Y-113386890D01*
X161163175Y-113534099D01*
X161288359Y-113796920D01*
X161462412Y-114030269D01*
X161678645Y-114225178D01*
X161928748Y-114374157D01*
X162203109Y-114471481D01*
X162433000Y-114350814D01*
X162433000Y-113157000D01*
X162687000Y-113157000D01*
X162687000Y-114350814D01*
X162916891Y-114471481D01*
X163191252Y-114374157D01*
X163441355Y-114225178D01*
X163657588Y-114030269D01*
X163831641Y-113796920D01*
X163956825Y-113534099D01*
X164001476Y-113386890D01*
X163880155Y-113157000D01*
X162687000Y-113157000D01*
X162433000Y-113157000D01*
X161239845Y-113157000D01*
X161118524Y-113386890D01*
X150524041Y-113386890D01*
X152285932Y-111625000D01*
X161594893Y-111625000D01*
X161613368Y-111643475D01*
X161795534Y-111765195D01*
X161678645Y-111834822D01*
X161462412Y-112029731D01*
X161288359Y-112263080D01*
X161163175Y-112525901D01*
X161118524Y-112673110D01*
X161239845Y-112903000D01*
X162433000Y-112903000D01*
X162433000Y-112883000D01*
X162687000Y-112883000D01*
X162687000Y-112903000D01*
X163880155Y-112903000D01*
X164001476Y-112673110D01*
X163956825Y-112525901D01*
X163831641Y-112263080D01*
X163657588Y-112029731D01*
X163441355Y-111834822D01*
X163324466Y-111765195D01*
X163506632Y-111643475D01*
X163713475Y-111436632D01*
X163875990Y-111193411D01*
X163987932Y-110923158D01*
X164045000Y-110636260D01*
X164045000Y-110343740D01*
X163987932Y-110056842D01*
X163875990Y-109786589D01*
X163713475Y-109543368D01*
X163581620Y-109411513D01*
X163654180Y-109389502D01*
X163764494Y-109330537D01*
X163861185Y-109251185D01*
X163940537Y-109154494D01*
X163977683Y-109085000D01*
X172834069Y-109085000D01*
X175395001Y-111645933D01*
X175395000Y-120480910D01*
X175232763Y-120589313D01*
X174949313Y-120872763D01*
X174726607Y-121206066D01*
X174573204Y-121576413D01*
X174495000Y-121969570D01*
X174495000Y-122370430D01*
X174573204Y-122763587D01*
X174726607Y-123133934D01*
X174949313Y-123467237D01*
X175232763Y-123750687D01*
X175566066Y-123973393D01*
X175936413Y-124126796D01*
X176329570Y-124205000D01*
X176730430Y-124205000D01*
X177123587Y-124126796D01*
X177493934Y-123973393D01*
X177827237Y-123750687D01*
X178110687Y-123467237D01*
X178333393Y-123133934D01*
X178486796Y-122763587D01*
X178565000Y-122370430D01*
X178565000Y-121969570D01*
X178486796Y-121576413D01*
X178333393Y-121206066D01*
X178110687Y-120872763D01*
X177827237Y-120589313D01*
X177665000Y-120480910D01*
X177665000Y-111231551D01*
X177670491Y-111175799D01*
X177648577Y-110953300D01*
X177583676Y-110739353D01*
X177528572Y-110636260D01*
X177478284Y-110542177D01*
X177336449Y-110369351D01*
X177293141Y-110333809D01*
X174146196Y-107186865D01*
X174110649Y-107143551D01*
X173937823Y-107001716D01*
X173740647Y-106896324D01*
X173526699Y-106831423D01*
X173359952Y-106815000D01*
X173359951Y-106815000D01*
X173304200Y-106809509D01*
X173248449Y-106815000D01*
X163977683Y-106815000D01*
X163940537Y-106745506D01*
X163861185Y-106648815D01*
X163764494Y-106569463D01*
X163654180Y-106510498D01*
X163534482Y-106474188D01*
X163410000Y-106461928D01*
X161710000Y-106461928D01*
X161585518Y-106474188D01*
X161465820Y-106510498D01*
X161355506Y-106569463D01*
X161258815Y-106648815D01*
X161179463Y-106745506D01*
X161142317Y-106815000D01*
X106827683Y-106815000D01*
X106790537Y-106745506D01*
X106711185Y-106648815D01*
X106614494Y-106569463D01*
X106504180Y-106510498D01*
X106384482Y-106474188D01*
X106260000Y-106461928D01*
X104560000Y-106461928D01*
X104435518Y-106474188D01*
X104315820Y-106510498D01*
X104205506Y-106569463D01*
X104108815Y-106648815D01*
X104029463Y-106745506D01*
X103970498Y-106855820D01*
X103934188Y-106975518D01*
X103921928Y-107100000D01*
X103921928Y-108800000D01*
X103934188Y-108924482D01*
X103970498Y-109044180D01*
X104029463Y-109154494D01*
X104108815Y-109251185D01*
X104205506Y-109330537D01*
X104315820Y-109389502D01*
X104388380Y-109411513D01*
X104256525Y-109543368D01*
X104094010Y-109786589D01*
X103982068Y-110056842D01*
X103925000Y-110343740D01*
X103925000Y-110636260D01*
X103982068Y-110923158D01*
X104094010Y-111193411D01*
X104256525Y-111436632D01*
X104463368Y-111643475D01*
X104637760Y-111760000D01*
X104463368Y-111876525D01*
X104256525Y-112083368D01*
X104094010Y-112326589D01*
X103982068Y-112596842D01*
X103925000Y-112883740D01*
X103925000Y-113176260D01*
X103982068Y-113463158D01*
X104094010Y-113733411D01*
X104256525Y-113976632D01*
X104463368Y-114183475D01*
X104645534Y-114305195D01*
X104528645Y-114374822D01*
X104312412Y-114569731D01*
X104138359Y-114803080D01*
X104013175Y-115065901D01*
X103968524Y-115213110D01*
X104089845Y-115443000D01*
X105283000Y-115443000D01*
X105283000Y-115423000D01*
X105537000Y-115423000D01*
X105537000Y-115443000D01*
X106730155Y-115443000D01*
X106851476Y-115213110D01*
X106806825Y-115065901D01*
X106681641Y-114803080D01*
X106507588Y-114569731D01*
X106291355Y-114374822D01*
X106174466Y-114305195D01*
X106356632Y-114183475D01*
X106563475Y-113976632D01*
X106725990Y-113733411D01*
X106837932Y-113463158D01*
X106895000Y-113176260D01*
X106895000Y-112883740D01*
X106837932Y-112596842D01*
X106725990Y-112326589D01*
X106563475Y-112083368D01*
X106356632Y-111876525D01*
X106182240Y-111760000D01*
X106356632Y-111643475D01*
X106375107Y-111625000D01*
X121246669Y-111625000D01*
X124595001Y-114973333D01*
X124595000Y-120480910D01*
X124432763Y-120589313D01*
X124149313Y-120872763D01*
X123926607Y-121206066D01*
X123773204Y-121576413D01*
X123695000Y-121969570D01*
X123695000Y-122370430D01*
X123773204Y-122763587D01*
X123926607Y-123133934D01*
X124149313Y-123467237D01*
X124432763Y-123750687D01*
X124766066Y-123973393D01*
X125136413Y-124126796D01*
X125529570Y-124205000D01*
X125930430Y-124205000D01*
X126323587Y-124126796D01*
X126693934Y-123973393D01*
X127001152Y-123768116D01*
X126300970Y-124468299D01*
X119781691Y-124468299D01*
X119757636Y-124444243D01*
X119819777Y-124131840D01*
X119819777Y-123730980D01*
X119741573Y-123337823D01*
X119588170Y-122967476D01*
X119365464Y-122634173D01*
X119082014Y-122350723D01*
X118748711Y-122128017D01*
X118378364Y-121974614D01*
X117985207Y-121896410D01*
X117584347Y-121896410D01*
X117191190Y-121974614D01*
X116820843Y-122128017D01*
X116487540Y-122350723D01*
X116204090Y-122634173D01*
X115981384Y-122967476D01*
X115827981Y-123337823D01*
X115749777Y-123730980D01*
X115749777Y-124131840D01*
X115827981Y-124524997D01*
X115973756Y-124876928D01*
X114720000Y-124876928D01*
X114595518Y-124889188D01*
X114475820Y-124925498D01*
X114365506Y-124984463D01*
X114268815Y-125063815D01*
X114189463Y-125160506D01*
X114130498Y-125270820D01*
X114108487Y-125343380D01*
X113976632Y-125211525D01*
X113733411Y-125049010D01*
X113463158Y-124937068D01*
X113176260Y-124880000D01*
X112883740Y-124880000D01*
X112596842Y-124937068D01*
X112326589Y-125049010D01*
X112083368Y-125211525D01*
X111876525Y-125418368D01*
X111760000Y-125592760D01*
X111643475Y-125418368D01*
X111436632Y-125211525D01*
X111193411Y-125049010D01*
X110923158Y-124937068D01*
X110636260Y-124880000D01*
X110610132Y-124880000D01*
X109781995Y-124051864D01*
X109746448Y-124008550D01*
X109573622Y-123866715D01*
X109376446Y-123761323D01*
X109162498Y-123696422D01*
X108995751Y-123679999D01*
X108995750Y-123679999D01*
X108939999Y-123674508D01*
X108884248Y-123679999D01*
X104721740Y-123679999D01*
X104665998Y-123674509D01*
X104610256Y-123679999D01*
X104610247Y-123679999D01*
X104443500Y-123696422D01*
X104229552Y-123761323D01*
X104032376Y-123866715D01*
X103859550Y-124008550D01*
X103824008Y-124051858D01*
X102260000Y-125615867D01*
X102260000Y-117963740D01*
X103925000Y-117963740D01*
X103925000Y-118256260D01*
X103982068Y-118543158D01*
X104094010Y-118813411D01*
X104256525Y-119056632D01*
X104463368Y-119263475D01*
X104706589Y-119425990D01*
X104976842Y-119537932D01*
X105263740Y-119595000D01*
X105556260Y-119595000D01*
X105843158Y-119537932D01*
X106113411Y-119425990D01*
X106356632Y-119263475D01*
X106563475Y-119056632D01*
X106725990Y-118813411D01*
X106837932Y-118543158D01*
X106895000Y-118256260D01*
X106895000Y-117963740D01*
X106837932Y-117676842D01*
X106725990Y-117406589D01*
X106563475Y-117163368D01*
X106356632Y-116956525D01*
X106174466Y-116834805D01*
X106291355Y-116765178D01*
X106507588Y-116570269D01*
X106681641Y-116336920D01*
X106806825Y-116074099D01*
X106851476Y-115926890D01*
X106730155Y-115697000D01*
X105537000Y-115697000D01*
X105537000Y-115717000D01*
X105283000Y-115717000D01*
X105283000Y-115697000D01*
X104089845Y-115697000D01*
X103968524Y-115926890D01*
X104013175Y-116074099D01*
X104138359Y-116336920D01*
X104312412Y-116570269D01*
X104528645Y-116765178D01*
X104645534Y-116834805D01*
X104463368Y-116956525D01*
X104256525Y-117163368D01*
X104094010Y-117406589D01*
X103982068Y-117676842D01*
X103925000Y-117963740D01*
X102260000Y-117963740D01*
X102260000Y-103619133D01*
X104374012Y-105733147D01*
G36*
X105537000Y-126238000D02*
G01*
X105557000Y-126238000D01*
X105557000Y-126492000D01*
X105537000Y-126492000D01*
X105537000Y-127685155D01*
X105766890Y-127806476D01*
X105914099Y-127761825D01*
X106176920Y-127636641D01*
X106410269Y-127462588D01*
X106605178Y-127246355D01*
X106674805Y-127129466D01*
X106796525Y-127311632D01*
X106815000Y-127330107D01*
X106815000Y-127511330D01*
X106809509Y-127567081D01*
X106815001Y-127622842D01*
X106815000Y-134731273D01*
X106790537Y-134685506D01*
X106711185Y-134588815D01*
X106614494Y-134509463D01*
X106504180Y-134450498D01*
X106384482Y-134414188D01*
X106260000Y-134401928D01*
X104560000Y-134401928D01*
X104435518Y-134414188D01*
X104315820Y-134450498D01*
X104205506Y-134509463D01*
X104108815Y-134588815D01*
X104029463Y-134685506D01*
X103970498Y-134795820D01*
X103934188Y-134915518D01*
X103921928Y-135040000D01*
X103921928Y-136740000D01*
X103934188Y-136864482D01*
X103970498Y-136984180D01*
X104029463Y-137094494D01*
X104108815Y-137191185D01*
X104205506Y-137270537D01*
X104315820Y-137329502D01*
X104388380Y-137351513D01*
X104256525Y-137483368D01*
X104094010Y-137726589D01*
X103982068Y-137996842D01*
X103958294Y-138116363D01*
X103852600Y-138010669D01*
X103852600Y-127233529D01*
X104074815Y-127011314D01*
X104214822Y-127246355D01*
X104409731Y-127462588D01*
X104643080Y-127636641D01*
X104905901Y-127761825D01*
X105053110Y-127806476D01*
X105283000Y-127685155D01*
X105283000Y-126492000D01*
X105263000Y-126492000D01*
X105263000Y-126238000D01*
X105283000Y-126238000D01*
X105283000Y-126218000D01*
X105537000Y-126218000D01*
X105537000Y-126238000D01*
G37*
X105537000Y-126238000D02*
X105557000Y-126238000D01*
X105557000Y-126492000D01*
X105537000Y-126492000D01*
X105537000Y-127685155D01*
X105766890Y-127806476D01*
X105914099Y-127761825D01*
X106176920Y-127636641D01*
X106410269Y-127462588D01*
X106605178Y-127246355D01*
X106674805Y-127129466D01*
X106796525Y-127311632D01*
X106815000Y-127330107D01*
X106815000Y-127511330D01*
X106809509Y-127567081D01*
X106815001Y-127622842D01*
X106815000Y-134731273D01*
X106790537Y-134685506D01*
X106711185Y-134588815D01*
X106614494Y-134509463D01*
X106504180Y-134450498D01*
X106384482Y-134414188D01*
X106260000Y-134401928D01*
X104560000Y-134401928D01*
X104435518Y-134414188D01*
X104315820Y-134450498D01*
X104205506Y-134509463D01*
X104108815Y-134588815D01*
X104029463Y-134685506D01*
X103970498Y-134795820D01*
X103934188Y-134915518D01*
X103921928Y-135040000D01*
X103921928Y-136740000D01*
X103934188Y-136864482D01*
X103970498Y-136984180D01*
X104029463Y-137094494D01*
X104108815Y-137191185D01*
X104205506Y-137270537D01*
X104315820Y-137329502D01*
X104388380Y-137351513D01*
X104256525Y-137483368D01*
X104094010Y-137726589D01*
X103982068Y-137996842D01*
X103958294Y-138116363D01*
X103852600Y-138010669D01*
X103852600Y-127233529D01*
X104074815Y-127011314D01*
X104214822Y-127246355D01*
X104409731Y-127462588D01*
X104643080Y-127636641D01*
X104905901Y-127761825D01*
X105053110Y-127806476D01*
X105283000Y-127685155D01*
X105283000Y-126492000D01*
X105263000Y-126492000D01*
X105263000Y-126238000D01*
X105283000Y-126238000D01*
X105283000Y-126218000D01*
X105537000Y-126218000D01*
X105537000Y-126238000D01*
G36*
X197265001Y-123395649D02*
G01*
X197010881Y-123208724D01*
X194489605Y-125730000D01*
X197010881Y-128251276D01*
X197265001Y-128064351D01*
X197265001Y-131861928D01*
X196000000Y-131861928D01*
X195875518Y-131874188D01*
X195755820Y-131910498D01*
X195645506Y-131969463D01*
X195548815Y-132048815D01*
X195469463Y-132145506D01*
X195432317Y-132215000D01*
X187896732Y-132215000D01*
X184112613Y-128430881D01*
X191788724Y-128430881D01*
X192148912Y-128920548D01*
X192812882Y-129280849D01*
X193534385Y-129504694D01*
X194285695Y-129583480D01*
X195037938Y-129514178D01*
X195762208Y-129299452D01*
X196430670Y-128947555D01*
X196471088Y-128920548D01*
X196831276Y-128430881D01*
X194310000Y-125909605D01*
X191788724Y-128430881D01*
X184112613Y-128430881D01*
X180992400Y-125310669D01*
X180992400Y-123730980D01*
X182440223Y-123730980D01*
X182440223Y-124131840D01*
X182518427Y-124524997D01*
X182671830Y-124895344D01*
X182894536Y-125228647D01*
X183177986Y-125512097D01*
X183511289Y-125734803D01*
X183881636Y-125888206D01*
X184274793Y-125966410D01*
X184675653Y-125966410D01*
X185068810Y-125888206D01*
X185439157Y-125734803D01*
X185482720Y-125705695D01*
X190456520Y-125705695D01*
X190525822Y-126457938D01*
X190740548Y-127182208D01*
X191092445Y-127850670D01*
X191119452Y-127891088D01*
X191609119Y-128251276D01*
X194130395Y-125730000D01*
X191609119Y-123208724D01*
X191119452Y-123568912D01*
X190759151Y-124232882D01*
X190535306Y-124954385D01*
X190456520Y-125705695D01*
X185482720Y-125705695D01*
X185772460Y-125512097D01*
X186055910Y-125228647D01*
X186278616Y-124895344D01*
X186432019Y-124524997D01*
X186510223Y-124131840D01*
X186510223Y-123730980D01*
X186432019Y-123337823D01*
X186304150Y-123029119D01*
X191788724Y-123029119D01*
X194310000Y-125550395D01*
X196831276Y-123029119D01*
X196471088Y-122539452D01*
X195807118Y-122179151D01*
X195085615Y-121955306D01*
X194334305Y-121876520D01*
X193582062Y-121945822D01*
X192857792Y-122160548D01*
X192189330Y-122512445D01*
X192148912Y-122539452D01*
X191788724Y-123029119D01*
X186304150Y-123029119D01*
X186278616Y-122967476D01*
X186055910Y-122634173D01*
X185772460Y-122350723D01*
X185439157Y-122128017D01*
X185068810Y-121974614D01*
X184675653Y-121896410D01*
X184274793Y-121896410D01*
X183881636Y-121974614D01*
X183511289Y-122128017D01*
X183177986Y-122350723D01*
X182894536Y-122634173D01*
X182671830Y-122967476D01*
X182518427Y-123337823D01*
X182440223Y-123730980D01*
X180992400Y-123730980D01*
X180992400Y-112235670D01*
X192327748Y-112235670D01*
X192471725Y-112540993D01*
X192829482Y-112721820D01*
X193215643Y-112829378D01*
X193615367Y-112859533D01*
X194013294Y-112811127D01*
X194394130Y-112686018D01*
X194665455Y-112540993D01*
X194809432Y-112235670D01*
X193568590Y-110994828D01*
X192327748Y-112235670D01*
X180992400Y-112235670D01*
X180992400Y-110862000D01*
X191524280Y-110862000D01*
X191572686Y-111259927D01*
X191697795Y-111640763D01*
X191842820Y-111912088D01*
X192148143Y-112056065D01*
X193388985Y-110815223D01*
X193748195Y-110815223D01*
X194989037Y-112056065D01*
X195294360Y-111912088D01*
X195475187Y-111554331D01*
X195582745Y-111168170D01*
X195612900Y-110768446D01*
X195564494Y-110370519D01*
X195439385Y-109989683D01*
X195294360Y-109718358D01*
X194989037Y-109574381D01*
X193748195Y-110815223D01*
X193388985Y-110815223D01*
X192148143Y-109574381D01*
X191842820Y-109718358D01*
X191661993Y-110076115D01*
X191554435Y-110462276D01*
X191524280Y-110862000D01*
X180992400Y-110862000D01*
X180992400Y-109394776D01*
X192327748Y-109394776D01*
X193568590Y-110635618D01*
X194809432Y-109394776D01*
X194665455Y-109089453D01*
X194307698Y-108908626D01*
X193921537Y-108801068D01*
X193521813Y-108770913D01*
X193123886Y-108819319D01*
X192743050Y-108944428D01*
X192471725Y-109089453D01*
X192327748Y-109394776D01*
X180992400Y-109394776D01*
X180992400Y-108742352D01*
X180997891Y-108686600D01*
X180975977Y-108464101D01*
X180911076Y-108250153D01*
X180805684Y-108052977D01*
X180699389Y-107923456D01*
X180699387Y-107923454D01*
X180663849Y-107880151D01*
X180620546Y-107844613D01*
X176914796Y-104138865D01*
X176879249Y-104095551D01*
X176768913Y-104005000D01*
X193640910Y-104005000D01*
X193749313Y-104167237D01*
X194032763Y-104450687D01*
X194366066Y-104673393D01*
X194736413Y-104826796D01*
X195129570Y-104905000D01*
X195530430Y-104905000D01*
X195923587Y-104826796D01*
X196293934Y-104673393D01*
X196627237Y-104450687D01*
X196910687Y-104167237D01*
X197133393Y-103833934D01*
X197265002Y-103516202D01*
X197265001Y-123395649D01*
G37*
X197265001Y-123395649D02*
X197010881Y-123208724D01*
X194489605Y-125730000D01*
X197010881Y-128251276D01*
X197265001Y-128064351D01*
X197265001Y-131861928D01*
X196000000Y-131861928D01*
X195875518Y-131874188D01*
X195755820Y-131910498D01*
X195645506Y-131969463D01*
X195548815Y-132048815D01*
X195469463Y-132145506D01*
X195432317Y-132215000D01*
X187896732Y-132215000D01*
X184112613Y-128430881D01*
X191788724Y-128430881D01*
X192148912Y-128920548D01*
X192812882Y-129280849D01*
X193534385Y-129504694D01*
X194285695Y-129583480D01*
X195037938Y-129514178D01*
X195762208Y-129299452D01*
X196430670Y-128947555D01*
X196471088Y-128920548D01*
X196831276Y-128430881D01*
X194310000Y-125909605D01*
X191788724Y-128430881D01*
X184112613Y-128430881D01*
X180992400Y-125310669D01*
X180992400Y-123730980D01*
X182440223Y-123730980D01*
X182440223Y-124131840D01*
X182518427Y-124524997D01*
X182671830Y-124895344D01*
X182894536Y-125228647D01*
X183177986Y-125512097D01*
X183511289Y-125734803D01*
X183881636Y-125888206D01*
X184274793Y-125966410D01*
X184675653Y-125966410D01*
X185068810Y-125888206D01*
X185439157Y-125734803D01*
X185482720Y-125705695D01*
X190456520Y-125705695D01*
X190525822Y-126457938D01*
X190740548Y-127182208D01*
X191092445Y-127850670D01*
X191119452Y-127891088D01*
X191609119Y-128251276D01*
X194130395Y-125730000D01*
X191609119Y-123208724D01*
X191119452Y-123568912D01*
X190759151Y-124232882D01*
X190535306Y-124954385D01*
X190456520Y-125705695D01*
X185482720Y-125705695D01*
X185772460Y-125512097D01*
X186055910Y-125228647D01*
X186278616Y-124895344D01*
X186432019Y-124524997D01*
X186510223Y-124131840D01*
X186510223Y-123730980D01*
X186432019Y-123337823D01*
X186304150Y-123029119D01*
X191788724Y-123029119D01*
X194310000Y-125550395D01*
X196831276Y-123029119D01*
X196471088Y-122539452D01*
X195807118Y-122179151D01*
X195085615Y-121955306D01*
X194334305Y-121876520D01*
X193582062Y-121945822D01*
X192857792Y-122160548D01*
X192189330Y-122512445D01*
X192148912Y-122539452D01*
X191788724Y-123029119D01*
X186304150Y-123029119D01*
X186278616Y-122967476D01*
X186055910Y-122634173D01*
X185772460Y-122350723D01*
X185439157Y-122128017D01*
X185068810Y-121974614D01*
X184675653Y-121896410D01*
X184274793Y-121896410D01*
X183881636Y-121974614D01*
X183511289Y-122128017D01*
X183177986Y-122350723D01*
X182894536Y-122634173D01*
X182671830Y-122967476D01*
X182518427Y-123337823D01*
X182440223Y-123730980D01*
X180992400Y-123730980D01*
X180992400Y-112235670D01*
X192327748Y-112235670D01*
X192471725Y-112540993D01*
X192829482Y-112721820D01*
X193215643Y-112829378D01*
X193615367Y-112859533D01*
X194013294Y-112811127D01*
X194394130Y-112686018D01*
X194665455Y-112540993D01*
X194809432Y-112235670D01*
X193568590Y-110994828D01*
X192327748Y-112235670D01*
X180992400Y-112235670D01*
X180992400Y-110862000D01*
X191524280Y-110862000D01*
X191572686Y-111259927D01*
X191697795Y-111640763D01*
X191842820Y-111912088D01*
X192148143Y-112056065D01*
X193388985Y-110815223D01*
X193748195Y-110815223D01*
X194989037Y-112056065D01*
X195294360Y-111912088D01*
X195475187Y-111554331D01*
X195582745Y-111168170D01*
X195612900Y-110768446D01*
X195564494Y-110370519D01*
X195439385Y-109989683D01*
X195294360Y-109718358D01*
X194989037Y-109574381D01*
X193748195Y-110815223D01*
X193388985Y-110815223D01*
X192148143Y-109574381D01*
X191842820Y-109718358D01*
X191661993Y-110076115D01*
X191554435Y-110462276D01*
X191524280Y-110862000D01*
X180992400Y-110862000D01*
X180992400Y-109394776D01*
X192327748Y-109394776D01*
X193568590Y-110635618D01*
X194809432Y-109394776D01*
X194665455Y-109089453D01*
X194307698Y-108908626D01*
X193921537Y-108801068D01*
X193521813Y-108770913D01*
X193123886Y-108819319D01*
X192743050Y-108944428D01*
X192471725Y-109089453D01*
X192327748Y-109394776D01*
X180992400Y-109394776D01*
X180992400Y-108742352D01*
X180997891Y-108686600D01*
X180975977Y-108464101D01*
X180911076Y-108250153D01*
X180805684Y-108052977D01*
X180699389Y-107923456D01*
X180699387Y-107923454D01*
X180663849Y-107880151D01*
X180620546Y-107844613D01*
X176914796Y-104138865D01*
X176879249Y-104095551D01*
X176768913Y-104005000D01*
X193640910Y-104005000D01*
X193749313Y-104167237D01*
X194032763Y-104450687D01*
X194366066Y-104673393D01*
X194736413Y-104826796D01*
X195129570Y-104905000D01*
X195530430Y-104905000D01*
X195923587Y-104826796D01*
X196293934Y-104673393D01*
X196627237Y-104450687D01*
X196910687Y-104167237D01*
X197133393Y-103833934D01*
X197265002Y-103516202D01*
X197265001Y-123395649D01*
G36*
X157580465Y-124024404D02*
G01*
X157537151Y-124059951D01*
X157395316Y-124232777D01*
X157326829Y-124360909D01*
X157289924Y-124429954D01*
X157287213Y-124438890D01*
X157239452Y-124277792D01*
X156887555Y-123609330D01*
X156860548Y-123568912D01*
X156370881Y-123208724D01*
X153849605Y-125730000D01*
X153863748Y-125744143D01*
X153684143Y-125923748D01*
X153670000Y-125909605D01*
X151148724Y-128430881D01*
X151195889Y-128495001D01*
X146738128Y-128495001D01*
X149850386Y-125382743D01*
X149816520Y-125705695D01*
X149885822Y-126457938D01*
X150100548Y-127182208D01*
X150452445Y-127850670D01*
X150479452Y-127891088D01*
X150969119Y-128251276D01*
X153490395Y-125730000D01*
X153476253Y-125715858D01*
X153655858Y-125536253D01*
X153670000Y-125550395D01*
X156191276Y-123029119D01*
X156121463Y-122934210D01*
X158670659Y-122934210D01*
X157580465Y-124024404D01*
G37*
X157580465Y-124024404D02*
X157537151Y-124059951D01*
X157395316Y-124232777D01*
X157326829Y-124360909D01*
X157289924Y-124429954D01*
X157287213Y-124438890D01*
X157239452Y-124277792D01*
X156887555Y-123609330D01*
X156860548Y-123568912D01*
X156370881Y-123208724D01*
X153849605Y-125730000D01*
X153863748Y-125744143D01*
X153684143Y-125923748D01*
X153670000Y-125909605D01*
X151148724Y-128430881D01*
X151195889Y-128495001D01*
X146738128Y-128495001D01*
X149850386Y-125382743D01*
X149816520Y-125705695D01*
X149885822Y-126457938D01*
X150100548Y-127182208D01*
X150452445Y-127850670D01*
X150479452Y-127891088D01*
X150969119Y-128251276D01*
X153490395Y-125730000D01*
X153476253Y-125715858D01*
X153655858Y-125536253D01*
X153670000Y-125550395D01*
X156191276Y-123029119D01*
X156121463Y-122934210D01*
X158670659Y-122934210D01*
X157580465Y-124024404D01*
G36*
X141671725Y-109089453D02*
G01*
X141527748Y-109394776D01*
X142768590Y-110635618D01*
X144009432Y-109394776D01*
X143865455Y-109089453D01*
X143856645Y-109085000D01*
X161142317Y-109085000D01*
X161179463Y-109154494D01*
X161258815Y-109251185D01*
X161355506Y-109330537D01*
X161401272Y-109355000D01*
X151871552Y-109355000D01*
X151815800Y-109349509D01*
X151760048Y-109355000D01*
X151593301Y-109371423D01*
X151379353Y-109436324D01*
X151182177Y-109541716D01*
X151009351Y-109683551D01*
X150973809Y-109726859D01*
X141236469Y-119464200D01*
X131830952Y-119464200D01*
X131775200Y-119458709D01*
X131552701Y-119480623D01*
X131338753Y-119545524D01*
X131141577Y-119650916D01*
X131012056Y-119757211D01*
X131012054Y-119757213D01*
X130968751Y-119792751D01*
X130933213Y-119836054D01*
X127328116Y-123441152D01*
X127533393Y-123133934D01*
X127686796Y-122763587D01*
X127765000Y-122370430D01*
X127765000Y-121969570D01*
X127686796Y-121576413D01*
X127533393Y-121206066D01*
X127310687Y-120872763D01*
X127027237Y-120589313D01*
X126865000Y-120480910D01*
X126865000Y-114558952D01*
X126870491Y-114503200D01*
X126848577Y-114280701D01*
X126783676Y-114066753D01*
X126678284Y-113869577D01*
X126536449Y-113696751D01*
X126493141Y-113661209D01*
X125067602Y-112235670D01*
X141527748Y-112235670D01*
X141671725Y-112540993D01*
X142029482Y-112721820D01*
X142415643Y-112829378D01*
X142815367Y-112859533D01*
X143213294Y-112811127D01*
X143594130Y-112686018D01*
X143865455Y-112540993D01*
X144009432Y-112235670D01*
X142768590Y-110994828D01*
X141527748Y-112235670D01*
X125067602Y-112235670D01*
X123693932Y-110862000D01*
X140724280Y-110862000D01*
X140772686Y-111259927D01*
X140897795Y-111640763D01*
X141042820Y-111912088D01*
X141348143Y-112056065D01*
X142588985Y-110815223D01*
X142948195Y-110815223D01*
X144189037Y-112056065D01*
X144494360Y-111912088D01*
X144675187Y-111554331D01*
X144782745Y-111168170D01*
X144812900Y-110768446D01*
X144764494Y-110370519D01*
X144639385Y-109989683D01*
X144494360Y-109718358D01*
X144189037Y-109574381D01*
X142948195Y-110815223D01*
X142588985Y-110815223D01*
X141348143Y-109574381D01*
X141042820Y-109718358D01*
X140861993Y-110076115D01*
X140754435Y-110462276D01*
X140724280Y-110862000D01*
X123693932Y-110862000D01*
X122558796Y-109726865D01*
X122523249Y-109683551D01*
X122350423Y-109541716D01*
X122153247Y-109436324D01*
X121939299Y-109371423D01*
X121772552Y-109355000D01*
X121772551Y-109355000D01*
X121716800Y-109349509D01*
X121661049Y-109355000D01*
X106568728Y-109355000D01*
X106614494Y-109330537D01*
X106711185Y-109251185D01*
X106790537Y-109154494D01*
X106827683Y-109085000D01*
X141680056Y-109085000D01*
X141671725Y-109089453D01*
G37*
X141671725Y-109089453D02*
X141527748Y-109394776D01*
X142768590Y-110635618D01*
X144009432Y-109394776D01*
X143865455Y-109089453D01*
X143856645Y-109085000D01*
X161142317Y-109085000D01*
X161179463Y-109154494D01*
X161258815Y-109251185D01*
X161355506Y-109330537D01*
X161401272Y-109355000D01*
X151871552Y-109355000D01*
X151815800Y-109349509D01*
X151760048Y-109355000D01*
X151593301Y-109371423D01*
X151379353Y-109436324D01*
X151182177Y-109541716D01*
X151009351Y-109683551D01*
X150973809Y-109726859D01*
X141236469Y-119464200D01*
X131830952Y-119464200D01*
X131775200Y-119458709D01*
X131552701Y-119480623D01*
X131338753Y-119545524D01*
X131141577Y-119650916D01*
X131012056Y-119757211D01*
X131012054Y-119757213D01*
X130968751Y-119792751D01*
X130933213Y-119836054D01*
X127328116Y-123441152D01*
X127533393Y-123133934D01*
X127686796Y-122763587D01*
X127765000Y-122370430D01*
X127765000Y-121969570D01*
X127686796Y-121576413D01*
X127533393Y-121206066D01*
X127310687Y-120872763D01*
X127027237Y-120589313D01*
X126865000Y-120480910D01*
X126865000Y-114558952D01*
X126870491Y-114503200D01*
X126848577Y-114280701D01*
X126783676Y-114066753D01*
X126678284Y-113869577D01*
X126536449Y-113696751D01*
X126493141Y-113661209D01*
X125067602Y-112235670D01*
X141527748Y-112235670D01*
X141671725Y-112540993D01*
X142029482Y-112721820D01*
X142415643Y-112829378D01*
X142815367Y-112859533D01*
X143213294Y-112811127D01*
X143594130Y-112686018D01*
X143865455Y-112540993D01*
X144009432Y-112235670D01*
X142768590Y-110994828D01*
X141527748Y-112235670D01*
X125067602Y-112235670D01*
X123693932Y-110862000D01*
X140724280Y-110862000D01*
X140772686Y-111259927D01*
X140897795Y-111640763D01*
X141042820Y-111912088D01*
X141348143Y-112056065D01*
X142588985Y-110815223D01*
X142948195Y-110815223D01*
X144189037Y-112056065D01*
X144494360Y-111912088D01*
X144675187Y-111554331D01*
X144782745Y-111168170D01*
X144812900Y-110768446D01*
X144764494Y-110370519D01*
X144639385Y-109989683D01*
X144494360Y-109718358D01*
X144189037Y-109574381D01*
X142948195Y-110815223D01*
X142588985Y-110815223D01*
X141348143Y-109574381D01*
X141042820Y-109718358D01*
X140861993Y-110076115D01*
X140754435Y-110462276D01*
X140724280Y-110862000D01*
X123693932Y-110862000D01*
X122558796Y-109726865D01*
X122523249Y-109683551D01*
X122350423Y-109541716D01*
X122153247Y-109436324D01*
X121939299Y-109371423D01*
X121772552Y-109355000D01*
X121772551Y-109355000D01*
X121716800Y-109349509D01*
X121661049Y-109355000D01*
X106568728Y-109355000D01*
X106614494Y-109330537D01*
X106711185Y-109251185D01*
X106790537Y-109154494D01*
X106827683Y-109085000D01*
X141680056Y-109085000D01*
X141671725Y-109089453D01*
G36*
X119401609Y-103633141D02*
G01*
X119437151Y-103676449D01*
X119567499Y-103783423D01*
X119609977Y-103818284D01*
X119641253Y-103835001D01*
X106533894Y-103835001D01*
X106681641Y-103636920D01*
X106806825Y-103374099D01*
X106851476Y-103226890D01*
X106730155Y-102997000D01*
X105537000Y-102997000D01*
X105537000Y-103017000D01*
X105283000Y-103017000D01*
X105283000Y-102997000D01*
X105263000Y-102997000D01*
X105263000Y-102743000D01*
X105283000Y-102743000D01*
X105283000Y-102723000D01*
X105537000Y-102723000D01*
X105537000Y-102743000D01*
X106730155Y-102743000D01*
X106851476Y-102513110D01*
X106806825Y-102365901D01*
X106681641Y-102103080D01*
X106507588Y-101869731D01*
X106423534Y-101793966D01*
X106504180Y-101769502D01*
X106614494Y-101710537D01*
X106711185Y-101631185D01*
X106790537Y-101534494D01*
X106849502Y-101424180D01*
X106885812Y-101304482D01*
X106898072Y-101180000D01*
X106898072Y-99480000D01*
X106885812Y-99355518D01*
X106849502Y-99235820D01*
X106790537Y-99125506D01*
X106711185Y-99028815D01*
X106615636Y-98950400D01*
X114718869Y-98950400D01*
X119401609Y-103633141D01*
G37*
X119401609Y-103633141D02*
X119437151Y-103676449D01*
X119567499Y-103783423D01*
X119609977Y-103818284D01*
X119641253Y-103835001D01*
X106533894Y-103835001D01*
X106681641Y-103636920D01*
X106806825Y-103374099D01*
X106851476Y-103226890D01*
X106730155Y-102997000D01*
X105537000Y-102997000D01*
X105537000Y-103017000D01*
X105283000Y-103017000D01*
X105283000Y-102997000D01*
X105263000Y-102997000D01*
X105263000Y-102743000D01*
X105283000Y-102743000D01*
X105283000Y-102723000D01*
X105537000Y-102723000D01*
X105537000Y-102743000D01*
X106730155Y-102743000D01*
X106851476Y-102513110D01*
X106806825Y-102365901D01*
X106681641Y-102103080D01*
X106507588Y-101869731D01*
X106423534Y-101793966D01*
X106504180Y-101769502D01*
X106614494Y-101710537D01*
X106711185Y-101631185D01*
X106790537Y-101534494D01*
X106849502Y-101424180D01*
X106885812Y-101304482D01*
X106898072Y-101180000D01*
X106898072Y-99480000D01*
X106885812Y-99355518D01*
X106849502Y-99235820D01*
X106790537Y-99125506D01*
X106711185Y-99028815D01*
X106615636Y-98950400D01*
X114718869Y-98950400D01*
X119401609Y-103633141D01*
G36*
X194884263Y-100883795D02*
G01*
X194736413Y-100913204D01*
X194366066Y-101066607D01*
X194032763Y-101289313D01*
X193749313Y-101572763D01*
X193640910Y-101735000D01*
X148069532Y-101735000D01*
X143240340Y-96905808D01*
X143362177Y-96881573D01*
X143732524Y-96728170D01*
X144065827Y-96505464D01*
X144349277Y-96222014D01*
X144372967Y-96186560D01*
X190187029Y-96186560D01*
X194884263Y-100883795D01*
G37*
X194884263Y-100883795D02*
X194736413Y-100913204D01*
X194366066Y-101066607D01*
X194032763Y-101289313D01*
X193749313Y-101572763D01*
X193640910Y-101735000D01*
X148069532Y-101735000D01*
X143240340Y-96905808D01*
X143362177Y-96881573D01*
X143732524Y-96728170D01*
X144065827Y-96505464D01*
X144349277Y-96222014D01*
X144372967Y-96186560D01*
X190187029Y-96186560D01*
X194884263Y-100883795D01*
G36*
X144020705Y-100896437D02*
G01*
X143936413Y-100913204D01*
X143566066Y-101066607D01*
X143232763Y-101289313D01*
X142949313Y-101572763D01*
X142840910Y-101735000D01*
X120713732Y-101735000D01*
X116030996Y-97052265D01*
X115995449Y-97008951D01*
X115822623Y-96867116D01*
X115625447Y-96761724D01*
X115411499Y-96696823D01*
X115244752Y-96680400D01*
X115244751Y-96680400D01*
X115189000Y-96674909D01*
X115133249Y-96680400D01*
X106151530Y-96680400D01*
X106056314Y-96585185D01*
X106291355Y-96445178D01*
X106507588Y-96250269D01*
X106681641Y-96016920D01*
X106806825Y-95754099D01*
X106851476Y-95606890D01*
X106730155Y-95377000D01*
X105537000Y-95377000D01*
X105537000Y-95397000D01*
X105283000Y-95397000D01*
X105283000Y-95377000D01*
X105263000Y-95377000D01*
X105263000Y-95123000D01*
X105283000Y-95123000D01*
X105283000Y-95103000D01*
X105537000Y-95103000D01*
X105537000Y-95123000D01*
X106730155Y-95123000D01*
X106851476Y-94893110D01*
X106806825Y-94745901D01*
X106681641Y-94483080D01*
X106507588Y-94249731D01*
X106423534Y-94173966D01*
X106504180Y-94149502D01*
X106614494Y-94090537D01*
X106711185Y-94011185D01*
X106790537Y-93914494D01*
X106827683Y-93845000D01*
X136969269Y-93845000D01*
X144020705Y-100896437D01*
G37*
X144020705Y-100896437D02*
X143936413Y-100913204D01*
X143566066Y-101066607D01*
X143232763Y-101289313D01*
X142949313Y-101572763D01*
X142840910Y-101735000D01*
X120713732Y-101735000D01*
X116030996Y-97052265D01*
X115995449Y-97008951D01*
X115822623Y-96867116D01*
X115625447Y-96761724D01*
X115411499Y-96696823D01*
X115244752Y-96680400D01*
X115244751Y-96680400D01*
X115189000Y-96674909D01*
X115133249Y-96680400D01*
X106151530Y-96680400D01*
X106056314Y-96585185D01*
X106291355Y-96445178D01*
X106507588Y-96250269D01*
X106681641Y-96016920D01*
X106806825Y-95754099D01*
X106851476Y-95606890D01*
X106730155Y-95377000D01*
X105537000Y-95377000D01*
X105537000Y-95397000D01*
X105283000Y-95397000D01*
X105283000Y-95377000D01*
X105263000Y-95377000D01*
X105263000Y-95123000D01*
X105283000Y-95123000D01*
X105283000Y-95103000D01*
X105537000Y-95103000D01*
X105537000Y-95123000D01*
X106730155Y-95123000D01*
X106851476Y-94893110D01*
X106806825Y-94745901D01*
X106681641Y-94483080D01*
X106507588Y-94249731D01*
X106423534Y-94173966D01*
X106504180Y-94149502D01*
X106614494Y-94090537D01*
X106711185Y-94011185D01*
X106790537Y-93914494D01*
X106827683Y-93845000D01*
X136969269Y-93845000D01*
X144020705Y-100896437D01*
G36*
X200000001Y-99715869D02*
G01*
X195571361Y-95287230D01*
X195603590Y-95125207D01*
X195603590Y-94724347D01*
X195525386Y-94331190D01*
X195371983Y-93960843D01*
X195149277Y-93627540D01*
X194865827Y-93344090D01*
X194532524Y-93121384D01*
X194162177Y-92967981D01*
X193769020Y-92889777D01*
X193368160Y-92889777D01*
X192975003Y-92967981D01*
X192604656Y-93121384D01*
X192271353Y-93344090D01*
X191987903Y-93627540D01*
X191765197Y-93960843D01*
X191611794Y-94331190D01*
X191600201Y-94389470D01*
X191499156Y-94288425D01*
X191463609Y-94245111D01*
X191290783Y-94103276D01*
X191093607Y-93997884D01*
X190879659Y-93932983D01*
X190712912Y-93916560D01*
X190712911Y-93916560D01*
X190657160Y-93911069D01*
X190601409Y-93916560D01*
X144542394Y-93916560D01*
X144349277Y-93627540D01*
X144065827Y-93344090D01*
X143732524Y-93121384D01*
X143362177Y-92967981D01*
X142969020Y-92889777D01*
X142568160Y-92889777D01*
X142175003Y-92967981D01*
X141804656Y-93121384D01*
X141471353Y-93344090D01*
X141187903Y-93627540D01*
X140965197Y-93960843D01*
X140811794Y-94331190D01*
X140787559Y-94453028D01*
X138281396Y-91946865D01*
X138245849Y-91903551D01*
X138073023Y-91761716D01*
X137875847Y-91656324D01*
X137661899Y-91591423D01*
X137495152Y-91575000D01*
X137495151Y-91575000D01*
X137439400Y-91569509D01*
X137383649Y-91575000D01*
X106827683Y-91575000D01*
X106790537Y-91505506D01*
X106711185Y-91408815D01*
X106614494Y-91329463D01*
X106504180Y-91270498D01*
X106384482Y-91234188D01*
X106260000Y-91221928D01*
X104994999Y-91221928D01*
X104994999Y-89050868D01*
X105053109Y-89071481D01*
X105283000Y-88950814D01*
X105283000Y-87757000D01*
X105537000Y-87757000D01*
X105537000Y-88950814D01*
X105766891Y-89071481D01*
X106041252Y-88974157D01*
X106291355Y-88825178D01*
X106507588Y-88630269D01*
X106681641Y-88396920D01*
X106806825Y-88134099D01*
X106851476Y-87986890D01*
X106730155Y-87757000D01*
X105537000Y-87757000D01*
X105283000Y-87757000D01*
X105263000Y-87757000D01*
X105263000Y-87503000D01*
X105283000Y-87503000D01*
X105283000Y-85217000D01*
X105537000Y-85217000D01*
X105537000Y-87503000D01*
X106730155Y-87503000D01*
X106851476Y-87273110D01*
X106806825Y-87125901D01*
X106681641Y-86863080D01*
X106507588Y-86629731D01*
X106291355Y-86434822D01*
X106165745Y-86360000D01*
X106291355Y-86285178D01*
X106507588Y-86090269D01*
X106681641Y-85856920D01*
X106806825Y-85594099D01*
X106851476Y-85446890D01*
X106730155Y-85217000D01*
X105537000Y-85217000D01*
X105283000Y-85217000D01*
X105263000Y-85217000D01*
X105263000Y-84963000D01*
X105283000Y-84963000D01*
X105283000Y-84943000D01*
X105537000Y-84943000D01*
X105537000Y-84963000D01*
X106730155Y-84963000D01*
X106851476Y-84733110D01*
X106806825Y-84585901D01*
X106681641Y-84323080D01*
X106507588Y-84089731D01*
X106291355Y-83894822D01*
X106174466Y-83825195D01*
X106356632Y-83703475D01*
X106563475Y-83496632D01*
X106725990Y-83253411D01*
X106837932Y-82983158D01*
X106895000Y-82696260D01*
X106895000Y-82403740D01*
X106837932Y-82116842D01*
X106725990Y-81846589D01*
X106563475Y-81603368D01*
X106431620Y-81471513D01*
X106504180Y-81449502D01*
X106614494Y-81390537D01*
X106711185Y-81311185D01*
X106790537Y-81214494D01*
X106849502Y-81104180D01*
X106885812Y-80984482D01*
X106898072Y-80860000D01*
X106898072Y-79593652D01*
X116009068Y-88704649D01*
X116036781Y-88738417D01*
X116070549Y-88766130D01*
X116070551Y-88766132D01*
X116171539Y-88849011D01*
X116325284Y-88931189D01*
X116466929Y-88974157D01*
X116492108Y-88981795D01*
X116622121Y-88994600D01*
X116622129Y-88994600D01*
X116665598Y-88998881D01*
X116709067Y-88994600D01*
X117599946Y-88994600D01*
X117648144Y-89026805D01*
X117836502Y-89104826D01*
X118036461Y-89144600D01*
X118240339Y-89144600D01*
X118440298Y-89104826D01*
X118628656Y-89026805D01*
X118798174Y-88913537D01*
X118942337Y-88769374D01*
X119055605Y-88599856D01*
X119133626Y-88411498D01*
X119173400Y-88211539D01*
X119173400Y-88007661D01*
X119133626Y-87807702D01*
X119055605Y-87619344D01*
X118942337Y-87449826D01*
X118798174Y-87305663D01*
X118628656Y-87192395D01*
X118440298Y-87114374D01*
X118240339Y-87074600D01*
X118036461Y-87074600D01*
X117836502Y-87114374D01*
X117648144Y-87192395D01*
X117599946Y-87224600D01*
X117032177Y-87224600D01*
X112479277Y-82671700D01*
X166739621Y-82671700D01*
X166781384Y-82772524D01*
X167004090Y-83105827D01*
X167287540Y-83389277D01*
X167620843Y-83611983D01*
X167991190Y-83765386D01*
X168384347Y-83843590D01*
X168785207Y-83843590D01*
X169178364Y-83765386D01*
X169548711Y-83611983D01*
X169882014Y-83389277D01*
X170165464Y-83105827D01*
X170388170Y-82772524D01*
X170541573Y-82402177D01*
X170619777Y-82009020D01*
X170619777Y-81608160D01*
X170541573Y-81215003D01*
X170388170Y-80844656D01*
X170205786Y-80571699D01*
X172226568Y-80571699D01*
X174590214Y-82935346D01*
X174573204Y-82976413D01*
X174495000Y-83369570D01*
X174495000Y-83770430D01*
X174573204Y-84163587D01*
X174726607Y-84533934D01*
X174949313Y-84867237D01*
X175232763Y-85150687D01*
X175566066Y-85373393D01*
X175936413Y-85526796D01*
X176329570Y-85605000D01*
X176730430Y-85605000D01*
X177123587Y-85526796D01*
X177493934Y-85373393D01*
X177827237Y-85150687D01*
X178110687Y-84867237D01*
X178333393Y-84533934D01*
X178486796Y-84163587D01*
X178565000Y-83770430D01*
X178565000Y-83369570D01*
X178486796Y-82976413D01*
X178333393Y-82606066D01*
X178110687Y-82272763D01*
X177827237Y-81989313D01*
X177493934Y-81766607D01*
X177123587Y-81613204D01*
X176730430Y-81535000D01*
X176400132Y-81535000D01*
X173876531Y-79011400D01*
X180218009Y-79011400D01*
X182502364Y-81295756D01*
X182440223Y-81608160D01*
X182440223Y-82009020D01*
X182518427Y-82402177D01*
X182671830Y-82772524D01*
X182894536Y-83105827D01*
X183177986Y-83389277D01*
X183511289Y-83611983D01*
X183881636Y-83765386D01*
X184274793Y-83843590D01*
X184675653Y-83843590D01*
X185068810Y-83765386D01*
X185439157Y-83611983D01*
X185772460Y-83389277D01*
X186055910Y-83105827D01*
X186278616Y-82772524D01*
X186432019Y-82402177D01*
X186510223Y-82009020D01*
X186510223Y-81608160D01*
X186432019Y-81215003D01*
X186278616Y-80844656D01*
X186055910Y-80511353D01*
X185772460Y-80227903D01*
X185439157Y-80005197D01*
X185068810Y-79851794D01*
X184675653Y-79773590D01*
X184274793Y-79773590D01*
X184204453Y-79787581D01*
X181530136Y-77113265D01*
X181494589Y-77069951D01*
X181321763Y-76928116D01*
X181124587Y-76822724D01*
X180910639Y-76757823D01*
X180743892Y-76741400D01*
X180743891Y-76741400D01*
X180688140Y-76735909D01*
X180632389Y-76741400D01*
X127528404Y-76741400D01*
X127533393Y-76733934D01*
X127686796Y-76363587D01*
X127765000Y-75970430D01*
X127765000Y-75569570D01*
X127686796Y-75176413D01*
X127533393Y-74806066D01*
X127310687Y-74472763D01*
X127027237Y-74189313D01*
X126887359Y-74095849D01*
X129194999Y-74095849D01*
X129194999Y-74496709D01*
X129273203Y-74889866D01*
X129426606Y-75260213D01*
X129649312Y-75593516D01*
X129932762Y-75876966D01*
X130266065Y-76099672D01*
X130636412Y-76253075D01*
X131029569Y-76331279D01*
X131430429Y-76331279D01*
X131823586Y-76253075D01*
X132193933Y-76099672D01*
X132527236Y-75876966D01*
X132810686Y-75593516D01*
X133033392Y-75260213D01*
X133186795Y-74889866D01*
X133207904Y-74783740D01*
X149645000Y-74783740D01*
X149645000Y-75076260D01*
X149702068Y-75363158D01*
X149814010Y-75633411D01*
X149976525Y-75876632D01*
X150183368Y-76083475D01*
X150426589Y-76245990D01*
X150696842Y-76357932D01*
X150983740Y-76415000D01*
X151276260Y-76415000D01*
X151563158Y-76357932D01*
X151833411Y-76245990D01*
X152076632Y-76083475D01*
X152095107Y-76065000D01*
X152252317Y-76065000D01*
X152289463Y-76134494D01*
X152368815Y-76231185D01*
X152465506Y-76310537D01*
X152575820Y-76369502D01*
X152695518Y-76405812D01*
X152820000Y-76418072D01*
X154520000Y-76418072D01*
X154644482Y-76405812D01*
X154764180Y-76369502D01*
X154874494Y-76310537D01*
X154971185Y-76231185D01*
X155050537Y-76134494D01*
X155087683Y-76065000D01*
X161594893Y-76065000D01*
X161613368Y-76083475D01*
X161856589Y-76245990D01*
X162126842Y-76357932D01*
X162413740Y-76415000D01*
X162706260Y-76415000D01*
X162993158Y-76357932D01*
X163263411Y-76245990D01*
X163506632Y-76083475D01*
X163525107Y-76065000D01*
X163682317Y-76065000D01*
X163719463Y-76134494D01*
X163798815Y-76231185D01*
X163895506Y-76310537D01*
X164005820Y-76369502D01*
X164125518Y-76405812D01*
X164250000Y-76418072D01*
X165950000Y-76418072D01*
X166074482Y-76405812D01*
X166194180Y-76369502D01*
X166304494Y-76310537D01*
X166401185Y-76231185D01*
X166480537Y-76134494D01*
X166539502Y-76024180D01*
X166575812Y-75904482D01*
X166588072Y-75780000D01*
X166588072Y-74080000D01*
X166575812Y-73955518D01*
X166539502Y-73835820D01*
X166480537Y-73725506D01*
X166401185Y-73628815D01*
X166304494Y-73549463D01*
X166194180Y-73490498D01*
X166113534Y-73466034D01*
X166197588Y-73390269D01*
X166371641Y-73156920D01*
X166496825Y-72894099D01*
X166541476Y-72746890D01*
X166420155Y-72517000D01*
X165227000Y-72517000D01*
X165227000Y-72537000D01*
X164973000Y-72537000D01*
X164973000Y-72517000D01*
X162687000Y-72517000D01*
X162687000Y-72537000D01*
X162433000Y-72537000D01*
X162433000Y-72517000D01*
X161239845Y-72517000D01*
X161118524Y-72746890D01*
X161163175Y-72894099D01*
X161288359Y-73156920D01*
X161462412Y-73390269D01*
X161678645Y-73585178D01*
X161795534Y-73654805D01*
X161613368Y-73776525D01*
X161594893Y-73795000D01*
X155087683Y-73795000D01*
X155050537Y-73725506D01*
X154971185Y-73628815D01*
X154874494Y-73549463D01*
X154764180Y-73490498D01*
X154683534Y-73466034D01*
X154767588Y-73390269D01*
X154941641Y-73156920D01*
X155066825Y-72894099D01*
X155111476Y-72746890D01*
X154990155Y-72517000D01*
X153797000Y-72517000D01*
X153797000Y-72537000D01*
X153543000Y-72537000D01*
X153543000Y-72517000D01*
X151257000Y-72517000D01*
X151257000Y-72537000D01*
X151003000Y-72537000D01*
X151003000Y-72517000D01*
X149809845Y-72517000D01*
X149688524Y-72746890D01*
X149733175Y-72894099D01*
X149858359Y-73156920D01*
X150032412Y-73390269D01*
X150248645Y-73585178D01*
X150365534Y-73654805D01*
X150183368Y-73776525D01*
X149976525Y-73983368D01*
X149814010Y-74226589D01*
X149702068Y-74496842D01*
X149645000Y-74783740D01*
X133207904Y-74783740D01*
X133264999Y-74496709D01*
X133264999Y-74095849D01*
X133186795Y-73702692D01*
X133033392Y-73332345D01*
X132810686Y-72999042D01*
X132527236Y-72715592D01*
X132193933Y-72492886D01*
X131823586Y-72339483D01*
X131430429Y-72261279D01*
X131029569Y-72261279D01*
X130636412Y-72339483D01*
X130266065Y-72492886D01*
X129932762Y-72715592D01*
X129649312Y-72999042D01*
X129426606Y-73332345D01*
X129273203Y-73702692D01*
X129194999Y-74095849D01*
X126887359Y-74095849D01*
X126693934Y-73966607D01*
X126323587Y-73813204D01*
X125930430Y-73735000D01*
X125529570Y-73735000D01*
X125136413Y-73813204D01*
X124766066Y-73966607D01*
X124432763Y-74189313D01*
X124149313Y-74472763D01*
X123926607Y-74806066D01*
X123773204Y-75176413D01*
X123695000Y-75569570D01*
X123695000Y-75970430D01*
X123741114Y-76202261D01*
X122226934Y-74688081D01*
X122265000Y-74496709D01*
X122265000Y-74095849D01*
X122186796Y-73702692D01*
X122033393Y-73332345D01*
X121810687Y-72999042D01*
X121527237Y-72715592D01*
X121365000Y-72607189D01*
X121365000Y-70069569D01*
X133221279Y-70069569D01*
X133221279Y-70470429D01*
X133299483Y-70863586D01*
X133452886Y-71233933D01*
X133675592Y-71567236D01*
X133959042Y-71850686D01*
X134292345Y-72073392D01*
X134662692Y-72226795D01*
X135055849Y-72304999D01*
X135456709Y-72304999D01*
X135849866Y-72226795D01*
X136220213Y-72073392D01*
X136553516Y-71850686D01*
X136836966Y-71567236D01*
X137059672Y-71233933D01*
X137213075Y-70863586D01*
X137291279Y-70470429D01*
X137291279Y-70206890D01*
X149688524Y-70206890D01*
X149733175Y-70354099D01*
X149858359Y-70616920D01*
X150032412Y-70850269D01*
X150248645Y-71045178D01*
X150374255Y-71120000D01*
X150248645Y-71194822D01*
X150032412Y-71389731D01*
X149858359Y-71623080D01*
X149733175Y-71885901D01*
X149688524Y-72033110D01*
X149809845Y-72263000D01*
X151003000Y-72263000D01*
X151003000Y-69977000D01*
X151257000Y-69977000D01*
X151257000Y-72263000D01*
X153543000Y-72263000D01*
X153543000Y-69977000D01*
X153797000Y-69977000D01*
X153797000Y-72263000D01*
X154990155Y-72263000D01*
X155111476Y-72033110D01*
X155066825Y-71885901D01*
X154941641Y-71623080D01*
X154767588Y-71389731D01*
X154551355Y-71194822D01*
X154425745Y-71120000D01*
X154551355Y-71045178D01*
X154767588Y-70850269D01*
X154941641Y-70616920D01*
X155066825Y-70354099D01*
X155111476Y-70206890D01*
X161118524Y-70206890D01*
X161163175Y-70354099D01*
X161288359Y-70616920D01*
X161462412Y-70850269D01*
X161678645Y-71045178D01*
X161804255Y-71120000D01*
X161678645Y-71194822D01*
X161462412Y-71389731D01*
X161288359Y-71623080D01*
X161163175Y-71885901D01*
X161118524Y-72033110D01*
X161239845Y-72263000D01*
X162433000Y-72263000D01*
X162433000Y-69977000D01*
X162687000Y-69977000D01*
X162687000Y-72263000D01*
X164973000Y-72263000D01*
X164973000Y-69977000D01*
X165227000Y-69977000D01*
X165227000Y-72263000D01*
X166420155Y-72263000D01*
X166541476Y-72033110D01*
X166496825Y-71885901D01*
X166371641Y-71623080D01*
X166197588Y-71389731D01*
X165981355Y-71194822D01*
X165855745Y-71120000D01*
X165981355Y-71045178D01*
X166197588Y-70850269D01*
X166371641Y-70616920D01*
X166496825Y-70354099D01*
X166541476Y-70206890D01*
X166420155Y-69977000D01*
X165227000Y-69977000D01*
X164973000Y-69977000D01*
X162687000Y-69977000D01*
X162433000Y-69977000D01*
X161239845Y-69977000D01*
X161118524Y-70206890D01*
X155111476Y-70206890D01*
X154990155Y-69977000D01*
X153797000Y-69977000D01*
X153543000Y-69977000D01*
X151257000Y-69977000D01*
X151003000Y-69977000D01*
X149809845Y-69977000D01*
X149688524Y-70206890D01*
X137291279Y-70206890D01*
X137291279Y-70069569D01*
X137213075Y-69676412D01*
X137059672Y-69306065D01*
X136836966Y-68972762D01*
X136553516Y-68689312D01*
X136220213Y-68466606D01*
X135849866Y-68313203D01*
X135456709Y-68234999D01*
X135055849Y-68234999D01*
X134662692Y-68313203D01*
X134292345Y-68466606D01*
X133959042Y-68689312D01*
X133675592Y-68972762D01*
X133452886Y-69306065D01*
X133299483Y-69676412D01*
X133221279Y-70069569D01*
X121365000Y-70069569D01*
X121365000Y-67666890D01*
X149688524Y-67666890D01*
X149733175Y-67814099D01*
X149858359Y-68076920D01*
X150032412Y-68310269D01*
X150248645Y-68505178D01*
X150374255Y-68580000D01*
X150248645Y-68654822D01*
X150032412Y-68849731D01*
X149858359Y-69083080D01*
X149733175Y-69345901D01*
X149688524Y-69493110D01*
X149809845Y-69723000D01*
X151003000Y-69723000D01*
X151003000Y-67437000D01*
X151257000Y-67437000D01*
X151257000Y-69723000D01*
X153543000Y-69723000D01*
X153543000Y-67437000D01*
X153797000Y-67437000D01*
X153797000Y-69723000D01*
X154990155Y-69723000D01*
X155111476Y-69493110D01*
X155066825Y-69345901D01*
X154941641Y-69083080D01*
X154767588Y-68849731D01*
X154551355Y-68654822D01*
X154425745Y-68580000D01*
X154551355Y-68505178D01*
X154767588Y-68310269D01*
X154941641Y-68076920D01*
X155066825Y-67814099D01*
X155111476Y-67666890D01*
X161118524Y-67666890D01*
X161163175Y-67814099D01*
X161288359Y-68076920D01*
X161462412Y-68310269D01*
X161678645Y-68505178D01*
X161804255Y-68580000D01*
X161678645Y-68654822D01*
X161462412Y-68849731D01*
X161288359Y-69083080D01*
X161163175Y-69345901D01*
X161118524Y-69493110D01*
X161239845Y-69723000D01*
X162433000Y-69723000D01*
X162433000Y-67437000D01*
X162687000Y-67437000D01*
X162687000Y-69723000D01*
X164973000Y-69723000D01*
X164973000Y-67437000D01*
X165227000Y-67437000D01*
X165227000Y-69723000D01*
X166420155Y-69723000D01*
X166541476Y-69493110D01*
X166496825Y-69345901D01*
X166371641Y-69083080D01*
X166197588Y-68849731D01*
X165981355Y-68654822D01*
X165855745Y-68580000D01*
X165981355Y-68505178D01*
X166197588Y-68310269D01*
X166371641Y-68076920D01*
X166496825Y-67814099D01*
X166541476Y-67666890D01*
X166420155Y-67437000D01*
X165227000Y-67437000D01*
X164973000Y-67437000D01*
X162687000Y-67437000D01*
X162433000Y-67437000D01*
X161239845Y-67437000D01*
X161118524Y-67666890D01*
X155111476Y-67666890D01*
X154990155Y-67437000D01*
X153797000Y-67437000D01*
X153543000Y-67437000D01*
X151257000Y-67437000D01*
X151003000Y-67437000D01*
X149809845Y-67437000D01*
X149688524Y-67666890D01*
X121365000Y-67666890D01*
X121365000Y-66361552D01*
X121370491Y-66305800D01*
X121348577Y-66083301D01*
X121283676Y-65869353D01*
X121178284Y-65672177D01*
X121135463Y-65620000D01*
X121036449Y-65499351D01*
X120993141Y-65463809D01*
X118098902Y-62569570D01*
X127159102Y-62569570D01*
X127159102Y-62970430D01*
X127237306Y-63363587D01*
X127390709Y-63733934D01*
X127613415Y-64067237D01*
X127896865Y-64350687D01*
X128230168Y-64573393D01*
X128600515Y-64726796D01*
X128993672Y-64805000D01*
X129394532Y-64805000D01*
X129787689Y-64726796D01*
X130158036Y-64573393D01*
X130163757Y-64569570D01*
X134695000Y-64569570D01*
X134695000Y-64970430D01*
X134773204Y-65363587D01*
X134926607Y-65733934D01*
X135149313Y-66067237D01*
X135432763Y-66350687D01*
X135766066Y-66573393D01*
X136136413Y-66726796D01*
X136529570Y-66805000D01*
X136930430Y-66805000D01*
X137323587Y-66726796D01*
X137693934Y-66573393D01*
X138027237Y-66350687D01*
X138310687Y-66067237D01*
X138533393Y-65733934D01*
X138686796Y-65363587D01*
X138765000Y-64970430D01*
X138765000Y-64623740D01*
X149645000Y-64623740D01*
X149645000Y-64916260D01*
X149702068Y-65203158D01*
X149814010Y-65473411D01*
X149976525Y-65716632D01*
X150183368Y-65923475D01*
X150365534Y-66045195D01*
X150248645Y-66114822D01*
X150032412Y-66309731D01*
X149858359Y-66543080D01*
X149733175Y-66805901D01*
X149688524Y-66953110D01*
X149809845Y-67183000D01*
X151003000Y-67183000D01*
X151003000Y-67163000D01*
X151257000Y-67163000D01*
X151257000Y-67183000D01*
X153543000Y-67183000D01*
X153543000Y-67163000D01*
X153797000Y-67163000D01*
X153797000Y-67183000D01*
X154990155Y-67183000D01*
X155111476Y-66953110D01*
X155066825Y-66805901D01*
X154941641Y-66543080D01*
X154767588Y-66309731D01*
X154551355Y-66114822D01*
X154434466Y-66045195D01*
X154616632Y-65923475D01*
X154635107Y-65905000D01*
X161594893Y-65905000D01*
X161613368Y-65923475D01*
X161795534Y-66045195D01*
X161678645Y-66114822D01*
X161462412Y-66309731D01*
X161288359Y-66543080D01*
X161163175Y-66805901D01*
X161118524Y-66953110D01*
X161239845Y-67183000D01*
X162433000Y-67183000D01*
X162433000Y-67163000D01*
X162687000Y-67163000D01*
X162687000Y-67183000D01*
X164973000Y-67183000D01*
X164973000Y-67163000D01*
X165227000Y-67163000D01*
X165227000Y-67183000D01*
X166420155Y-67183000D01*
X166541476Y-66953110D01*
X166496825Y-66805901D01*
X166371641Y-66543080D01*
X166197588Y-66309731D01*
X165981355Y-66114822D01*
X165864466Y-66045195D01*
X166046632Y-65923475D01*
X166253475Y-65716632D01*
X166415990Y-65473411D01*
X166527932Y-65203158D01*
X166585000Y-64916260D01*
X166585000Y-64623740D01*
X166527932Y-64336842D01*
X166415990Y-64066589D01*
X166253475Y-63823368D01*
X166046632Y-63616525D01*
X165803411Y-63454010D01*
X165533158Y-63342068D01*
X165246260Y-63285000D01*
X164953740Y-63285000D01*
X164666842Y-63342068D01*
X164396589Y-63454010D01*
X164153368Y-63616525D01*
X164134893Y-63635000D01*
X163525107Y-63635000D01*
X163506632Y-63616525D01*
X163263411Y-63454010D01*
X162993158Y-63342068D01*
X162706260Y-63285000D01*
X162413740Y-63285000D01*
X162126842Y-63342068D01*
X161856589Y-63454010D01*
X161613368Y-63616525D01*
X161594893Y-63635000D01*
X154635107Y-63635000D01*
X154616632Y-63616525D01*
X154373411Y-63454010D01*
X154103158Y-63342068D01*
X153816260Y-63285000D01*
X153523740Y-63285000D01*
X153236842Y-63342068D01*
X152966589Y-63454010D01*
X152723368Y-63616525D01*
X152704893Y-63635000D01*
X152095107Y-63635000D01*
X152076632Y-63616525D01*
X151833411Y-63454010D01*
X151563158Y-63342068D01*
X151276260Y-63285000D01*
X150983740Y-63285000D01*
X150696842Y-63342068D01*
X150426589Y-63454010D01*
X150183368Y-63616525D01*
X149976525Y-63823368D01*
X149814010Y-64066589D01*
X149702068Y-64336842D01*
X149645000Y-64623740D01*
X138765000Y-64623740D01*
X138765000Y-64569570D01*
X138686796Y-64176413D01*
X138533393Y-63806066D01*
X138310687Y-63472763D01*
X138027237Y-63189313D01*
X137693934Y-62966607D01*
X137323587Y-62813204D01*
X136930430Y-62735000D01*
X136529570Y-62735000D01*
X136136413Y-62813204D01*
X135766066Y-62966607D01*
X135432763Y-63189313D01*
X135149313Y-63472763D01*
X134926607Y-63806066D01*
X134773204Y-64176413D01*
X134695000Y-64569570D01*
X130163757Y-64569570D01*
X130491339Y-64350687D01*
X130774789Y-64067237D01*
X130997495Y-63733934D01*
X131150898Y-63363587D01*
X131229102Y-62970430D01*
X131229102Y-62569570D01*
X131150898Y-62176413D01*
X130997495Y-61806066D01*
X130774789Y-61472763D01*
X130491339Y-61189313D01*
X130158036Y-60966607D01*
X129787689Y-60813204D01*
X129394532Y-60735000D01*
X128993672Y-60735000D01*
X128600515Y-60813204D01*
X128230168Y-60966607D01*
X127896865Y-61189313D01*
X127613415Y-61472763D01*
X127390709Y-61806066D01*
X127237306Y-62176413D01*
X127159102Y-62569570D01*
X118098902Y-62569570D01*
X116792996Y-61263665D01*
X116767590Y-61232707D01*
X116797308Y-61226796D01*
X117167655Y-61073393D01*
X117500958Y-60850687D01*
X117784408Y-60567237D01*
X118007114Y-60233934D01*
X118160517Y-59863587D01*
X118238721Y-59470430D01*
X118238721Y-59069570D01*
X133221279Y-59069570D01*
X133221279Y-59470430D01*
X133299483Y-59863587D01*
X133452886Y-60233934D01*
X133675592Y-60567237D01*
X133959042Y-60850687D01*
X134292345Y-61073393D01*
X134662692Y-61226796D01*
X135055849Y-61305000D01*
X135456709Y-61305000D01*
X135849866Y-61226796D01*
X136220213Y-61073393D01*
X136553516Y-60850687D01*
X136836966Y-60567237D01*
X137059672Y-60233934D01*
X137213075Y-59863587D01*
X137215602Y-59850881D01*
X151148724Y-59850881D01*
X151508912Y-60340548D01*
X152172882Y-60700849D01*
X152894385Y-60924694D01*
X153645695Y-61003480D01*
X154397938Y-60934178D01*
X155122208Y-60719452D01*
X155790670Y-60367555D01*
X155831088Y-60340548D01*
X156191276Y-59850881D01*
X191788724Y-59850881D01*
X192148912Y-60340548D01*
X192812882Y-60700849D01*
X193534385Y-60924694D01*
X194285695Y-61003480D01*
X195037938Y-60934178D01*
X195762208Y-60719452D01*
X196430670Y-60367555D01*
X196471088Y-60340548D01*
X196831276Y-59850881D01*
X194310000Y-57329605D01*
X191788724Y-59850881D01*
X156191276Y-59850881D01*
X153670000Y-57329605D01*
X151148724Y-59850881D01*
X137215602Y-59850881D01*
X137291279Y-59470430D01*
X137291279Y-59069570D01*
X137213075Y-58676413D01*
X137059672Y-58306066D01*
X136836966Y-57972763D01*
X136553516Y-57689313D01*
X136220213Y-57466607D01*
X135849866Y-57313204D01*
X135456709Y-57235000D01*
X135055849Y-57235000D01*
X134662692Y-57313204D01*
X134292345Y-57466607D01*
X133959042Y-57689313D01*
X133675592Y-57972763D01*
X133452886Y-58306066D01*
X133299483Y-58676413D01*
X133221279Y-59069570D01*
X118238721Y-59069570D01*
X118160517Y-58676413D01*
X118007114Y-58306066D01*
X117784408Y-57972763D01*
X117500958Y-57689313D01*
X117167655Y-57466607D01*
X116797308Y-57313204D01*
X116404151Y-57235000D01*
X116003291Y-57235000D01*
X115610134Y-57313204D01*
X115239787Y-57466607D01*
X114906484Y-57689313D01*
X114623034Y-57972763D01*
X114400328Y-58306066D01*
X114246925Y-58676413D01*
X114168721Y-59069570D01*
X114168721Y-59470430D01*
X114246925Y-59863587D01*
X114400328Y-60233934D01*
X114623034Y-60567237D01*
X114906484Y-60850687D01*
X114968014Y-60891800D01*
X105248949Y-60891800D01*
X105193197Y-60886309D01*
X104970698Y-60908223D01*
X104778234Y-60966607D01*
X104756751Y-60973124D01*
X104559575Y-61078516D01*
X104386749Y-61220351D01*
X104351206Y-61263660D01*
X103096859Y-62518008D01*
X103053551Y-62553550D01*
X102911716Y-62726376D01*
X102865306Y-62813204D01*
X102806323Y-62923553D01*
X102741422Y-63137501D01*
X102719508Y-63359999D01*
X102725000Y-63415760D01*
X102724999Y-68244247D01*
X102719508Y-68299999D01*
X102724999Y-68355750D01*
X102741422Y-68522497D01*
X102806323Y-68736445D01*
X102911715Y-68933622D01*
X103053550Y-69106448D01*
X103096864Y-69141995D01*
X103925000Y-69970132D01*
X103925000Y-69996260D01*
X103982068Y-70283158D01*
X104094010Y-70553411D01*
X104256525Y-70796632D01*
X104463368Y-71003475D01*
X104645534Y-71125195D01*
X104528645Y-71194822D01*
X104312412Y-71389731D01*
X104138359Y-71623080D01*
X104013175Y-71885901D01*
X104009000Y-71899665D01*
X104009000Y-71658454D01*
X104041205Y-71610256D01*
X104119226Y-71421898D01*
X104159000Y-71221939D01*
X104159000Y-71018061D01*
X104119226Y-70818102D01*
X104041205Y-70629744D01*
X103927937Y-70460226D01*
X103783774Y-70316063D01*
X103614256Y-70202795D01*
X103425898Y-70124774D01*
X103225939Y-70085000D01*
X103022061Y-70085000D01*
X102822102Y-70124774D01*
X102633744Y-70202795D01*
X102464226Y-70316063D01*
X102320063Y-70460226D01*
X102260000Y-70550117D01*
X102260000Y-55043291D01*
X118195000Y-55043291D01*
X118195000Y-55444151D01*
X118273204Y-55837308D01*
X118426607Y-56207655D01*
X118649313Y-56540958D01*
X118932763Y-56824408D01*
X119266066Y-57047114D01*
X119636413Y-57200517D01*
X120029570Y-57278721D01*
X120430430Y-57278721D01*
X120823587Y-57200517D01*
X121193934Y-57047114D01*
X121527237Y-56824408D01*
X121810687Y-56540958D01*
X122033393Y-56207655D01*
X122186796Y-55837308D01*
X122265000Y-55444151D01*
X122265000Y-55043291D01*
X122186796Y-54650134D01*
X122033393Y-54279787D01*
X121810687Y-53946484D01*
X121527237Y-53663034D01*
X121387359Y-53569570D01*
X123695000Y-53569570D01*
X123695000Y-53970430D01*
X123773204Y-54363587D01*
X123926607Y-54733934D01*
X124149313Y-55067237D01*
X124432763Y-55350687D01*
X124766066Y-55573393D01*
X125136413Y-55726796D01*
X125529570Y-55805000D01*
X125930430Y-55805000D01*
X126323587Y-55726796D01*
X126419950Y-55686881D01*
X129243839Y-55686881D01*
X129332357Y-55978700D01*
X129512207Y-56334789D01*
X129758071Y-56648949D01*
X130060500Y-56909107D01*
X130407872Y-57105265D01*
X130786838Y-57229885D01*
X131102999Y-57116008D01*
X131102999Y-55370721D01*
X131356999Y-55370721D01*
X131356999Y-57116008D01*
X131673160Y-57229885D01*
X131989998Y-57125695D01*
X149816520Y-57125695D01*
X149885822Y-57877938D01*
X150100548Y-58602208D01*
X150452445Y-59270670D01*
X150479452Y-59311088D01*
X150969119Y-59671276D01*
X153490395Y-57150000D01*
X153849605Y-57150000D01*
X156370881Y-59671276D01*
X156860548Y-59311088D01*
X157220849Y-58647118D01*
X157444694Y-57925615D01*
X157523480Y-57174305D01*
X157519002Y-57125695D01*
X190456520Y-57125695D01*
X190525822Y-57877938D01*
X190740548Y-58602208D01*
X191092445Y-59270670D01*
X191119452Y-59311088D01*
X191609119Y-59671276D01*
X194130395Y-57150000D01*
X194489605Y-57150000D01*
X197010881Y-59671276D01*
X197500548Y-59311088D01*
X197860849Y-58647118D01*
X198084694Y-57925615D01*
X198163480Y-57174305D01*
X198094178Y-56422062D01*
X197879452Y-55697792D01*
X197527555Y-55029330D01*
X197500548Y-54988912D01*
X197010881Y-54628724D01*
X194489605Y-57150000D01*
X194130395Y-57150000D01*
X191609119Y-54628724D01*
X191119452Y-54988912D01*
X190759151Y-55652882D01*
X190535306Y-56374385D01*
X190456520Y-57125695D01*
X157519002Y-57125695D01*
X157454178Y-56422062D01*
X157239452Y-55697792D01*
X156887555Y-55029330D01*
X156860548Y-54988912D01*
X156370881Y-54628724D01*
X153849605Y-57150000D01*
X153490395Y-57150000D01*
X150969119Y-54628724D01*
X150479452Y-54988912D01*
X150119151Y-55652882D01*
X149895306Y-56374385D01*
X149816520Y-57125695D01*
X131989998Y-57125695D01*
X132052126Y-57105265D01*
X132399498Y-56909107D01*
X132701927Y-56648949D01*
X132947791Y-56334789D01*
X133127641Y-55978700D01*
X133216159Y-55686881D01*
X133101946Y-55370721D01*
X131356999Y-55370721D01*
X131102999Y-55370721D01*
X129358052Y-55370721D01*
X129243839Y-55686881D01*
X126419950Y-55686881D01*
X126693934Y-55573393D01*
X127027237Y-55350687D01*
X127310687Y-55067237D01*
X127488874Y-54800561D01*
X129243839Y-54800561D01*
X129358052Y-55116721D01*
X131102999Y-55116721D01*
X131102999Y-53371434D01*
X131356999Y-53371434D01*
X131356999Y-55116721D01*
X133101946Y-55116721D01*
X133216159Y-54800561D01*
X133127641Y-54508742D01*
X133097528Y-54449119D01*
X151148724Y-54449119D01*
X153670000Y-56970395D01*
X156191276Y-54449119D01*
X191788724Y-54449119D01*
X194310000Y-56970395D01*
X196831276Y-54449119D01*
X196471088Y-53959452D01*
X195807118Y-53599151D01*
X195085615Y-53375306D01*
X194334305Y-53296520D01*
X193582062Y-53365822D01*
X192857792Y-53580548D01*
X192189330Y-53932445D01*
X192148912Y-53959452D01*
X191788724Y-54449119D01*
X156191276Y-54449119D01*
X155831088Y-53959452D01*
X155167118Y-53599151D01*
X154445615Y-53375306D01*
X153694305Y-53296520D01*
X152942062Y-53365822D01*
X152217792Y-53580548D01*
X151549330Y-53932445D01*
X151508912Y-53959452D01*
X151148724Y-54449119D01*
X133097528Y-54449119D01*
X132947791Y-54152653D01*
X132701927Y-53838493D01*
X132399498Y-53578335D01*
X132052126Y-53382177D01*
X131673160Y-53257557D01*
X131356999Y-53371434D01*
X131102999Y-53371434D01*
X130786838Y-53257557D01*
X130407872Y-53382177D01*
X130060500Y-53578335D01*
X129758071Y-53838493D01*
X129512207Y-54152653D01*
X129332357Y-54508742D01*
X129243839Y-54800561D01*
X127488874Y-54800561D01*
X127533393Y-54733934D01*
X127686796Y-54363587D01*
X127765000Y-53970430D01*
X127765000Y-53569570D01*
X127686796Y-53176413D01*
X127533393Y-52806066D01*
X127310687Y-52472763D01*
X127027237Y-52189313D01*
X126693934Y-51966607D01*
X126323587Y-51813204D01*
X125930430Y-51735000D01*
X125529570Y-51735000D01*
X125136413Y-51813204D01*
X124766066Y-51966607D01*
X124432763Y-52189313D01*
X124149313Y-52472763D01*
X123926607Y-52806066D01*
X123773204Y-53176413D01*
X123695000Y-53569570D01*
X121387359Y-53569570D01*
X121193934Y-53440328D01*
X120823587Y-53286925D01*
X120430430Y-53208721D01*
X120029570Y-53208721D01*
X119636413Y-53286925D01*
X119266066Y-53440328D01*
X118932763Y-53663034D01*
X118649313Y-53946484D01*
X118426607Y-54279787D01*
X118273204Y-54650134D01*
X118195000Y-55043291D01*
X102260000Y-55043291D01*
X102260000Y-51460000D01*
X200000001Y-51460000D01*
X200000001Y-99715869D01*
G37*
X200000001Y-99715869D02*
X195571361Y-95287230D01*
X195603590Y-95125207D01*
X195603590Y-94724347D01*
X195525386Y-94331190D01*
X195371983Y-93960843D01*
X195149277Y-93627540D01*
X194865827Y-93344090D01*
X194532524Y-93121384D01*
X194162177Y-92967981D01*
X193769020Y-92889777D01*
X193368160Y-92889777D01*
X192975003Y-92967981D01*
X192604656Y-93121384D01*
X192271353Y-93344090D01*
X191987903Y-93627540D01*
X191765197Y-93960843D01*
X191611794Y-94331190D01*
X191600201Y-94389470D01*
X191499156Y-94288425D01*
X191463609Y-94245111D01*
X191290783Y-94103276D01*
X191093607Y-93997884D01*
X190879659Y-93932983D01*
X190712912Y-93916560D01*
X190712911Y-93916560D01*
X190657160Y-93911069D01*
X190601409Y-93916560D01*
X144542394Y-93916560D01*
X144349277Y-93627540D01*
X144065827Y-93344090D01*
X143732524Y-93121384D01*
X143362177Y-92967981D01*
X142969020Y-92889777D01*
X142568160Y-92889777D01*
X142175003Y-92967981D01*
X141804656Y-93121384D01*
X141471353Y-93344090D01*
X141187903Y-93627540D01*
X140965197Y-93960843D01*
X140811794Y-94331190D01*
X140787559Y-94453028D01*
X138281396Y-91946865D01*
X138245849Y-91903551D01*
X138073023Y-91761716D01*
X137875847Y-91656324D01*
X137661899Y-91591423D01*
X137495152Y-91575000D01*
X137495151Y-91575000D01*
X137439400Y-91569509D01*
X137383649Y-91575000D01*
X106827683Y-91575000D01*
X106790537Y-91505506D01*
X106711185Y-91408815D01*
X106614494Y-91329463D01*
X106504180Y-91270498D01*
X106384482Y-91234188D01*
X106260000Y-91221928D01*
X104994999Y-91221928D01*
X104994999Y-89050868D01*
X105053109Y-89071481D01*
X105283000Y-88950814D01*
X105283000Y-87757000D01*
X105537000Y-87757000D01*
X105537000Y-88950814D01*
X105766891Y-89071481D01*
X106041252Y-88974157D01*
X106291355Y-88825178D01*
X106507588Y-88630269D01*
X106681641Y-88396920D01*
X106806825Y-88134099D01*
X106851476Y-87986890D01*
X106730155Y-87757000D01*
X105537000Y-87757000D01*
X105283000Y-87757000D01*
X105263000Y-87757000D01*
X105263000Y-87503000D01*
X105283000Y-87503000D01*
X105283000Y-85217000D01*
X105537000Y-85217000D01*
X105537000Y-87503000D01*
X106730155Y-87503000D01*
X106851476Y-87273110D01*
X106806825Y-87125901D01*
X106681641Y-86863080D01*
X106507588Y-86629731D01*
X106291355Y-86434822D01*
X106165745Y-86360000D01*
X106291355Y-86285178D01*
X106507588Y-86090269D01*
X106681641Y-85856920D01*
X106806825Y-85594099D01*
X106851476Y-85446890D01*
X106730155Y-85217000D01*
X105537000Y-85217000D01*
X105283000Y-85217000D01*
X105263000Y-85217000D01*
X105263000Y-84963000D01*
X105283000Y-84963000D01*
X105283000Y-84943000D01*
X105537000Y-84943000D01*
X105537000Y-84963000D01*
X106730155Y-84963000D01*
X106851476Y-84733110D01*
X106806825Y-84585901D01*
X106681641Y-84323080D01*
X106507588Y-84089731D01*
X106291355Y-83894822D01*
X106174466Y-83825195D01*
X106356632Y-83703475D01*
X106563475Y-83496632D01*
X106725990Y-83253411D01*
X106837932Y-82983158D01*
X106895000Y-82696260D01*
X106895000Y-82403740D01*
X106837932Y-82116842D01*
X106725990Y-81846589D01*
X106563475Y-81603368D01*
X106431620Y-81471513D01*
X106504180Y-81449502D01*
X106614494Y-81390537D01*
X106711185Y-81311185D01*
X106790537Y-81214494D01*
X106849502Y-81104180D01*
X106885812Y-80984482D01*
X106898072Y-80860000D01*
X106898072Y-79593652D01*
X116009068Y-88704649D01*
X116036781Y-88738417D01*
X116070549Y-88766130D01*
X116070551Y-88766132D01*
X116171539Y-88849011D01*
X116325284Y-88931189D01*
X116466929Y-88974157D01*
X116492108Y-88981795D01*
X116622121Y-88994600D01*
X116622129Y-88994600D01*
X116665598Y-88998881D01*
X116709067Y-88994600D01*
X117599946Y-88994600D01*
X117648144Y-89026805D01*
X117836502Y-89104826D01*
X118036461Y-89144600D01*
X118240339Y-89144600D01*
X118440298Y-89104826D01*
X118628656Y-89026805D01*
X118798174Y-88913537D01*
X118942337Y-88769374D01*
X119055605Y-88599856D01*
X119133626Y-88411498D01*
X119173400Y-88211539D01*
X119173400Y-88007661D01*
X119133626Y-87807702D01*
X119055605Y-87619344D01*
X118942337Y-87449826D01*
X118798174Y-87305663D01*
X118628656Y-87192395D01*
X118440298Y-87114374D01*
X118240339Y-87074600D01*
X118036461Y-87074600D01*
X117836502Y-87114374D01*
X117648144Y-87192395D01*
X117599946Y-87224600D01*
X117032177Y-87224600D01*
X112479277Y-82671700D01*
X166739621Y-82671700D01*
X166781384Y-82772524D01*
X167004090Y-83105827D01*
X167287540Y-83389277D01*
X167620843Y-83611983D01*
X167991190Y-83765386D01*
X168384347Y-83843590D01*
X168785207Y-83843590D01*
X169178364Y-83765386D01*
X169548711Y-83611983D01*
X169882014Y-83389277D01*
X170165464Y-83105827D01*
X170388170Y-82772524D01*
X170541573Y-82402177D01*
X170619777Y-82009020D01*
X170619777Y-81608160D01*
X170541573Y-81215003D01*
X170388170Y-80844656D01*
X170205786Y-80571699D01*
X172226568Y-80571699D01*
X174590214Y-82935346D01*
X174573204Y-82976413D01*
X174495000Y-83369570D01*
X174495000Y-83770430D01*
X174573204Y-84163587D01*
X174726607Y-84533934D01*
X174949313Y-84867237D01*
X175232763Y-85150687D01*
X175566066Y-85373393D01*
X175936413Y-85526796D01*
X176329570Y-85605000D01*
X176730430Y-85605000D01*
X177123587Y-85526796D01*
X177493934Y-85373393D01*
X177827237Y-85150687D01*
X178110687Y-84867237D01*
X178333393Y-84533934D01*
X178486796Y-84163587D01*
X178565000Y-83770430D01*
X178565000Y-83369570D01*
X178486796Y-82976413D01*
X178333393Y-82606066D01*
X178110687Y-82272763D01*
X177827237Y-81989313D01*
X177493934Y-81766607D01*
X177123587Y-81613204D01*
X176730430Y-81535000D01*
X176400132Y-81535000D01*
X173876531Y-79011400D01*
X180218009Y-79011400D01*
X182502364Y-81295756D01*
X182440223Y-81608160D01*
X182440223Y-82009020D01*
X182518427Y-82402177D01*
X182671830Y-82772524D01*
X182894536Y-83105827D01*
X183177986Y-83389277D01*
X183511289Y-83611983D01*
X183881636Y-83765386D01*
X184274793Y-83843590D01*
X184675653Y-83843590D01*
X185068810Y-83765386D01*
X185439157Y-83611983D01*
X185772460Y-83389277D01*
X186055910Y-83105827D01*
X186278616Y-82772524D01*
X186432019Y-82402177D01*
X186510223Y-82009020D01*
X186510223Y-81608160D01*
X186432019Y-81215003D01*
X186278616Y-80844656D01*
X186055910Y-80511353D01*
X185772460Y-80227903D01*
X185439157Y-80005197D01*
X185068810Y-79851794D01*
X184675653Y-79773590D01*
X184274793Y-79773590D01*
X184204453Y-79787581D01*
X181530136Y-77113265D01*
X181494589Y-77069951D01*
X181321763Y-76928116D01*
X181124587Y-76822724D01*
X180910639Y-76757823D01*
X180743892Y-76741400D01*
X180743891Y-76741400D01*
X180688140Y-76735909D01*
X180632389Y-76741400D01*
X127528404Y-76741400D01*
X127533393Y-76733934D01*
X127686796Y-76363587D01*
X127765000Y-75970430D01*
X127765000Y-75569570D01*
X127686796Y-75176413D01*
X127533393Y-74806066D01*
X127310687Y-74472763D01*
X127027237Y-74189313D01*
X126887359Y-74095849D01*
X129194999Y-74095849D01*
X129194999Y-74496709D01*
X129273203Y-74889866D01*
X129426606Y-75260213D01*
X129649312Y-75593516D01*
X129932762Y-75876966D01*
X130266065Y-76099672D01*
X130636412Y-76253075D01*
X131029569Y-76331279D01*
X131430429Y-76331279D01*
X131823586Y-76253075D01*
X132193933Y-76099672D01*
X132527236Y-75876966D01*
X132810686Y-75593516D01*
X133033392Y-75260213D01*
X133186795Y-74889866D01*
X133207904Y-74783740D01*
X149645000Y-74783740D01*
X149645000Y-75076260D01*
X149702068Y-75363158D01*
X149814010Y-75633411D01*
X149976525Y-75876632D01*
X150183368Y-76083475D01*
X150426589Y-76245990D01*
X150696842Y-76357932D01*
X150983740Y-76415000D01*
X151276260Y-76415000D01*
X151563158Y-76357932D01*
X151833411Y-76245990D01*
X152076632Y-76083475D01*
X152095107Y-76065000D01*
X152252317Y-76065000D01*
X152289463Y-76134494D01*
X152368815Y-76231185D01*
X152465506Y-76310537D01*
X152575820Y-76369502D01*
X152695518Y-76405812D01*
X152820000Y-76418072D01*
X154520000Y-76418072D01*
X154644482Y-76405812D01*
X154764180Y-76369502D01*
X154874494Y-76310537D01*
X154971185Y-76231185D01*
X155050537Y-76134494D01*
X155087683Y-76065000D01*
X161594893Y-76065000D01*
X161613368Y-76083475D01*
X161856589Y-76245990D01*
X162126842Y-76357932D01*
X162413740Y-76415000D01*
X162706260Y-76415000D01*
X162993158Y-76357932D01*
X163263411Y-76245990D01*
X163506632Y-76083475D01*
X163525107Y-76065000D01*
X163682317Y-76065000D01*
X163719463Y-76134494D01*
X163798815Y-76231185D01*
X163895506Y-76310537D01*
X164005820Y-76369502D01*
X164125518Y-76405812D01*
X164250000Y-76418072D01*
X165950000Y-76418072D01*
X166074482Y-76405812D01*
X166194180Y-76369502D01*
X166304494Y-76310537D01*
X166401185Y-76231185D01*
X166480537Y-76134494D01*
X166539502Y-76024180D01*
X166575812Y-75904482D01*
X166588072Y-75780000D01*
X166588072Y-74080000D01*
X166575812Y-73955518D01*
X166539502Y-73835820D01*
X166480537Y-73725506D01*
X166401185Y-73628815D01*
X166304494Y-73549463D01*
X166194180Y-73490498D01*
X166113534Y-73466034D01*
X166197588Y-73390269D01*
X166371641Y-73156920D01*
X166496825Y-72894099D01*
X166541476Y-72746890D01*
X166420155Y-72517000D01*
X165227000Y-72517000D01*
X165227000Y-72537000D01*
X164973000Y-72537000D01*
X164973000Y-72517000D01*
X162687000Y-72517000D01*
X162687000Y-72537000D01*
X162433000Y-72537000D01*
X162433000Y-72517000D01*
X161239845Y-72517000D01*
X161118524Y-72746890D01*
X161163175Y-72894099D01*
X161288359Y-73156920D01*
X161462412Y-73390269D01*
X161678645Y-73585178D01*
X161795534Y-73654805D01*
X161613368Y-73776525D01*
X161594893Y-73795000D01*
X155087683Y-73795000D01*
X155050537Y-73725506D01*
X154971185Y-73628815D01*
X154874494Y-73549463D01*
X154764180Y-73490498D01*
X154683534Y-73466034D01*
X154767588Y-73390269D01*
X154941641Y-73156920D01*
X155066825Y-72894099D01*
X155111476Y-72746890D01*
X154990155Y-72517000D01*
X153797000Y-72517000D01*
X153797000Y-72537000D01*
X153543000Y-72537000D01*
X153543000Y-72517000D01*
X151257000Y-72517000D01*
X151257000Y-72537000D01*
X151003000Y-72537000D01*
X151003000Y-72517000D01*
X149809845Y-72517000D01*
X149688524Y-72746890D01*
X149733175Y-72894099D01*
X149858359Y-73156920D01*
X150032412Y-73390269D01*
X150248645Y-73585178D01*
X150365534Y-73654805D01*
X150183368Y-73776525D01*
X149976525Y-73983368D01*
X149814010Y-74226589D01*
X149702068Y-74496842D01*
X149645000Y-74783740D01*
X133207904Y-74783740D01*
X133264999Y-74496709D01*
X133264999Y-74095849D01*
X133186795Y-73702692D01*
X133033392Y-73332345D01*
X132810686Y-72999042D01*
X132527236Y-72715592D01*
X132193933Y-72492886D01*
X131823586Y-72339483D01*
X131430429Y-72261279D01*
X131029569Y-72261279D01*
X130636412Y-72339483D01*
X130266065Y-72492886D01*
X129932762Y-72715592D01*
X129649312Y-72999042D01*
X129426606Y-73332345D01*
X129273203Y-73702692D01*
X129194999Y-74095849D01*
X126887359Y-74095849D01*
X126693934Y-73966607D01*
X126323587Y-73813204D01*
X125930430Y-73735000D01*
X125529570Y-73735000D01*
X125136413Y-73813204D01*
X124766066Y-73966607D01*
X124432763Y-74189313D01*
X124149313Y-74472763D01*
X123926607Y-74806066D01*
X123773204Y-75176413D01*
X123695000Y-75569570D01*
X123695000Y-75970430D01*
X123741114Y-76202261D01*
X122226934Y-74688081D01*
X122265000Y-74496709D01*
X122265000Y-74095849D01*
X122186796Y-73702692D01*
X122033393Y-73332345D01*
X121810687Y-72999042D01*
X121527237Y-72715592D01*
X121365000Y-72607189D01*
X121365000Y-70069569D01*
X133221279Y-70069569D01*
X133221279Y-70470429D01*
X133299483Y-70863586D01*
X133452886Y-71233933D01*
X133675592Y-71567236D01*
X133959042Y-71850686D01*
X134292345Y-72073392D01*
X134662692Y-72226795D01*
X135055849Y-72304999D01*
X135456709Y-72304999D01*
X135849866Y-72226795D01*
X136220213Y-72073392D01*
X136553516Y-71850686D01*
X136836966Y-71567236D01*
X137059672Y-71233933D01*
X137213075Y-70863586D01*
X137291279Y-70470429D01*
X137291279Y-70206890D01*
X149688524Y-70206890D01*
X149733175Y-70354099D01*
X149858359Y-70616920D01*
X150032412Y-70850269D01*
X150248645Y-71045178D01*
X150374255Y-71120000D01*
X150248645Y-71194822D01*
X150032412Y-71389731D01*
X149858359Y-71623080D01*
X149733175Y-71885901D01*
X149688524Y-72033110D01*
X149809845Y-72263000D01*
X151003000Y-72263000D01*
X151003000Y-69977000D01*
X151257000Y-69977000D01*
X151257000Y-72263000D01*
X153543000Y-72263000D01*
X153543000Y-69977000D01*
X153797000Y-69977000D01*
X153797000Y-72263000D01*
X154990155Y-72263000D01*
X155111476Y-72033110D01*
X155066825Y-71885901D01*
X154941641Y-71623080D01*
X154767588Y-71389731D01*
X154551355Y-71194822D01*
X154425745Y-71120000D01*
X154551355Y-71045178D01*
X154767588Y-70850269D01*
X154941641Y-70616920D01*
X155066825Y-70354099D01*
X155111476Y-70206890D01*
X161118524Y-70206890D01*
X161163175Y-70354099D01*
X161288359Y-70616920D01*
X161462412Y-70850269D01*
X161678645Y-71045178D01*
X161804255Y-71120000D01*
X161678645Y-71194822D01*
X161462412Y-71389731D01*
X161288359Y-71623080D01*
X161163175Y-71885901D01*
X161118524Y-72033110D01*
X161239845Y-72263000D01*
X162433000Y-72263000D01*
X162433000Y-69977000D01*
X162687000Y-69977000D01*
X162687000Y-72263000D01*
X164973000Y-72263000D01*
X164973000Y-69977000D01*
X165227000Y-69977000D01*
X165227000Y-72263000D01*
X166420155Y-72263000D01*
X166541476Y-72033110D01*
X166496825Y-71885901D01*
X166371641Y-71623080D01*
X166197588Y-71389731D01*
X165981355Y-71194822D01*
X165855745Y-71120000D01*
X165981355Y-71045178D01*
X166197588Y-70850269D01*
X166371641Y-70616920D01*
X166496825Y-70354099D01*
X166541476Y-70206890D01*
X166420155Y-69977000D01*
X165227000Y-69977000D01*
X164973000Y-69977000D01*
X162687000Y-69977000D01*
X162433000Y-69977000D01*
X161239845Y-69977000D01*
X161118524Y-70206890D01*
X155111476Y-70206890D01*
X154990155Y-69977000D01*
X153797000Y-69977000D01*
X153543000Y-69977000D01*
X151257000Y-69977000D01*
X151003000Y-69977000D01*
X149809845Y-69977000D01*
X149688524Y-70206890D01*
X137291279Y-70206890D01*
X137291279Y-70069569D01*
X137213075Y-69676412D01*
X137059672Y-69306065D01*
X136836966Y-68972762D01*
X136553516Y-68689312D01*
X136220213Y-68466606D01*
X135849866Y-68313203D01*
X135456709Y-68234999D01*
X135055849Y-68234999D01*
X134662692Y-68313203D01*
X134292345Y-68466606D01*
X133959042Y-68689312D01*
X133675592Y-68972762D01*
X133452886Y-69306065D01*
X133299483Y-69676412D01*
X133221279Y-70069569D01*
X121365000Y-70069569D01*
X121365000Y-67666890D01*
X149688524Y-67666890D01*
X149733175Y-67814099D01*
X149858359Y-68076920D01*
X150032412Y-68310269D01*
X150248645Y-68505178D01*
X150374255Y-68580000D01*
X150248645Y-68654822D01*
X150032412Y-68849731D01*
X149858359Y-69083080D01*
X149733175Y-69345901D01*
X149688524Y-69493110D01*
X149809845Y-69723000D01*
X151003000Y-69723000D01*
X151003000Y-67437000D01*
X151257000Y-67437000D01*
X151257000Y-69723000D01*
X153543000Y-69723000D01*
X153543000Y-67437000D01*
X153797000Y-67437000D01*
X153797000Y-69723000D01*
X154990155Y-69723000D01*
X155111476Y-69493110D01*
X155066825Y-69345901D01*
X154941641Y-69083080D01*
X154767588Y-68849731D01*
X154551355Y-68654822D01*
X154425745Y-68580000D01*
X154551355Y-68505178D01*
X154767588Y-68310269D01*
X154941641Y-68076920D01*
X155066825Y-67814099D01*
X155111476Y-67666890D01*
X161118524Y-67666890D01*
X161163175Y-67814099D01*
X161288359Y-68076920D01*
X161462412Y-68310269D01*
X161678645Y-68505178D01*
X161804255Y-68580000D01*
X161678645Y-68654822D01*
X161462412Y-68849731D01*
X161288359Y-69083080D01*
X161163175Y-69345901D01*
X161118524Y-69493110D01*
X161239845Y-69723000D01*
X162433000Y-69723000D01*
X162433000Y-67437000D01*
X162687000Y-67437000D01*
X162687000Y-69723000D01*
X164973000Y-69723000D01*
X164973000Y-67437000D01*
X165227000Y-67437000D01*
X165227000Y-69723000D01*
X166420155Y-69723000D01*
X166541476Y-69493110D01*
X166496825Y-69345901D01*
X166371641Y-69083080D01*
X166197588Y-68849731D01*
X165981355Y-68654822D01*
X165855745Y-68580000D01*
X165981355Y-68505178D01*
X166197588Y-68310269D01*
X166371641Y-68076920D01*
X166496825Y-67814099D01*
X166541476Y-67666890D01*
X166420155Y-67437000D01*
X165227000Y-67437000D01*
X164973000Y-67437000D01*
X162687000Y-67437000D01*
X162433000Y-67437000D01*
X161239845Y-67437000D01*
X161118524Y-67666890D01*
X155111476Y-67666890D01*
X154990155Y-67437000D01*
X153797000Y-67437000D01*
X153543000Y-67437000D01*
X151257000Y-67437000D01*
X151003000Y-67437000D01*
X149809845Y-67437000D01*
X149688524Y-67666890D01*
X121365000Y-67666890D01*
X121365000Y-66361552D01*
X121370491Y-66305800D01*
X121348577Y-66083301D01*
X121283676Y-65869353D01*
X121178284Y-65672177D01*
X121135463Y-65620000D01*
X121036449Y-65499351D01*
X120993141Y-65463809D01*
X118098902Y-62569570D01*
X127159102Y-62569570D01*
X127159102Y-62970430D01*
X127237306Y-63363587D01*
X127390709Y-63733934D01*
X127613415Y-64067237D01*
X127896865Y-64350687D01*
X128230168Y-64573393D01*
X128600515Y-64726796D01*
X128993672Y-64805000D01*
X129394532Y-64805000D01*
X129787689Y-64726796D01*
X130158036Y-64573393D01*
X130163757Y-64569570D01*
X134695000Y-64569570D01*
X134695000Y-64970430D01*
X134773204Y-65363587D01*
X134926607Y-65733934D01*
X135149313Y-66067237D01*
X135432763Y-66350687D01*
X135766066Y-66573393D01*
X136136413Y-66726796D01*
X136529570Y-66805000D01*
X136930430Y-66805000D01*
X137323587Y-66726796D01*
X137693934Y-66573393D01*
X138027237Y-66350687D01*
X138310687Y-66067237D01*
X138533393Y-65733934D01*
X138686796Y-65363587D01*
X138765000Y-64970430D01*
X138765000Y-64623740D01*
X149645000Y-64623740D01*
X149645000Y-64916260D01*
X149702068Y-65203158D01*
X149814010Y-65473411D01*
X149976525Y-65716632D01*
X150183368Y-65923475D01*
X150365534Y-66045195D01*
X150248645Y-66114822D01*
X150032412Y-66309731D01*
X149858359Y-66543080D01*
X149733175Y-66805901D01*
X149688524Y-66953110D01*
X149809845Y-67183000D01*
X151003000Y-67183000D01*
X151003000Y-67163000D01*
X151257000Y-67163000D01*
X151257000Y-67183000D01*
X153543000Y-67183000D01*
X153543000Y-67163000D01*
X153797000Y-67163000D01*
X153797000Y-67183000D01*
X154990155Y-67183000D01*
X155111476Y-66953110D01*
X155066825Y-66805901D01*
X154941641Y-66543080D01*
X154767588Y-66309731D01*
X154551355Y-66114822D01*
X154434466Y-66045195D01*
X154616632Y-65923475D01*
X154635107Y-65905000D01*
X161594893Y-65905000D01*
X161613368Y-65923475D01*
X161795534Y-66045195D01*
X161678645Y-66114822D01*
X161462412Y-66309731D01*
X161288359Y-66543080D01*
X161163175Y-66805901D01*
X161118524Y-66953110D01*
X161239845Y-67183000D01*
X162433000Y-67183000D01*
X162433000Y-67163000D01*
X162687000Y-67163000D01*
X162687000Y-67183000D01*
X164973000Y-67183000D01*
X164973000Y-67163000D01*
X165227000Y-67163000D01*
X165227000Y-67183000D01*
X166420155Y-67183000D01*
X166541476Y-66953110D01*
X166496825Y-66805901D01*
X166371641Y-66543080D01*
X166197588Y-66309731D01*
X165981355Y-66114822D01*
X165864466Y-66045195D01*
X166046632Y-65923475D01*
X166253475Y-65716632D01*
X166415990Y-65473411D01*
X166527932Y-65203158D01*
X166585000Y-64916260D01*
X166585000Y-64623740D01*
X166527932Y-64336842D01*
X166415990Y-64066589D01*
X166253475Y-63823368D01*
X166046632Y-63616525D01*
X165803411Y-63454010D01*
X165533158Y-63342068D01*
X165246260Y-63285000D01*
X164953740Y-63285000D01*
X164666842Y-63342068D01*
X164396589Y-63454010D01*
X164153368Y-63616525D01*
X164134893Y-63635000D01*
X163525107Y-63635000D01*
X163506632Y-63616525D01*
X163263411Y-63454010D01*
X162993158Y-63342068D01*
X162706260Y-63285000D01*
X162413740Y-63285000D01*
X162126842Y-63342068D01*
X161856589Y-63454010D01*
X161613368Y-63616525D01*
X161594893Y-63635000D01*
X154635107Y-63635000D01*
X154616632Y-63616525D01*
X154373411Y-63454010D01*
X154103158Y-63342068D01*
X153816260Y-63285000D01*
X153523740Y-63285000D01*
X153236842Y-63342068D01*
X152966589Y-63454010D01*
X152723368Y-63616525D01*
X152704893Y-63635000D01*
X152095107Y-63635000D01*
X152076632Y-63616525D01*
X151833411Y-63454010D01*
X151563158Y-63342068D01*
X151276260Y-63285000D01*
X150983740Y-63285000D01*
X150696842Y-63342068D01*
X150426589Y-63454010D01*
X150183368Y-63616525D01*
X149976525Y-63823368D01*
X149814010Y-64066589D01*
X149702068Y-64336842D01*
X149645000Y-64623740D01*
X138765000Y-64623740D01*
X138765000Y-64569570D01*
X138686796Y-64176413D01*
X138533393Y-63806066D01*
X138310687Y-63472763D01*
X138027237Y-63189313D01*
X137693934Y-62966607D01*
X137323587Y-62813204D01*
X136930430Y-62735000D01*
X136529570Y-62735000D01*
X136136413Y-62813204D01*
X135766066Y-62966607D01*
X135432763Y-63189313D01*
X135149313Y-63472763D01*
X134926607Y-63806066D01*
X134773204Y-64176413D01*
X134695000Y-64569570D01*
X130163757Y-64569570D01*
X130491339Y-64350687D01*
X130774789Y-64067237D01*
X130997495Y-63733934D01*
X131150898Y-63363587D01*
X131229102Y-62970430D01*
X131229102Y-62569570D01*
X131150898Y-62176413D01*
X130997495Y-61806066D01*
X130774789Y-61472763D01*
X130491339Y-61189313D01*
X130158036Y-60966607D01*
X129787689Y-60813204D01*
X129394532Y-60735000D01*
X128993672Y-60735000D01*
X128600515Y-60813204D01*
X128230168Y-60966607D01*
X127896865Y-61189313D01*
X127613415Y-61472763D01*
X127390709Y-61806066D01*
X127237306Y-62176413D01*
X127159102Y-62569570D01*
X118098902Y-62569570D01*
X116792996Y-61263665D01*
X116767590Y-61232707D01*
X116797308Y-61226796D01*
X117167655Y-61073393D01*
X117500958Y-60850687D01*
X117784408Y-60567237D01*
X118007114Y-60233934D01*
X118160517Y-59863587D01*
X118238721Y-59470430D01*
X118238721Y-59069570D01*
X133221279Y-59069570D01*
X133221279Y-59470430D01*
X133299483Y-59863587D01*
X133452886Y-60233934D01*
X133675592Y-60567237D01*
X133959042Y-60850687D01*
X134292345Y-61073393D01*
X134662692Y-61226796D01*
X135055849Y-61305000D01*
X135456709Y-61305000D01*
X135849866Y-61226796D01*
X136220213Y-61073393D01*
X136553516Y-60850687D01*
X136836966Y-60567237D01*
X137059672Y-60233934D01*
X137213075Y-59863587D01*
X137215602Y-59850881D01*
X151148724Y-59850881D01*
X151508912Y-60340548D01*
X152172882Y-60700849D01*
X152894385Y-60924694D01*
X153645695Y-61003480D01*
X154397938Y-60934178D01*
X155122208Y-60719452D01*
X155790670Y-60367555D01*
X155831088Y-60340548D01*
X156191276Y-59850881D01*
X191788724Y-59850881D01*
X192148912Y-60340548D01*
X192812882Y-60700849D01*
X193534385Y-60924694D01*
X194285695Y-61003480D01*
X195037938Y-60934178D01*
X195762208Y-60719452D01*
X196430670Y-60367555D01*
X196471088Y-60340548D01*
X196831276Y-59850881D01*
X194310000Y-57329605D01*
X191788724Y-59850881D01*
X156191276Y-59850881D01*
X153670000Y-57329605D01*
X151148724Y-59850881D01*
X137215602Y-59850881D01*
X137291279Y-59470430D01*
X137291279Y-59069570D01*
X137213075Y-58676413D01*
X137059672Y-58306066D01*
X136836966Y-57972763D01*
X136553516Y-57689313D01*
X136220213Y-57466607D01*
X135849866Y-57313204D01*
X135456709Y-57235000D01*
X135055849Y-57235000D01*
X134662692Y-57313204D01*
X134292345Y-57466607D01*
X133959042Y-57689313D01*
X133675592Y-57972763D01*
X133452886Y-58306066D01*
X133299483Y-58676413D01*
X133221279Y-59069570D01*
X118238721Y-59069570D01*
X118160517Y-58676413D01*
X118007114Y-58306066D01*
X117784408Y-57972763D01*
X117500958Y-57689313D01*
X117167655Y-57466607D01*
X116797308Y-57313204D01*
X116404151Y-57235000D01*
X116003291Y-57235000D01*
X115610134Y-57313204D01*
X115239787Y-57466607D01*
X114906484Y-57689313D01*
X114623034Y-57972763D01*
X114400328Y-58306066D01*
X114246925Y-58676413D01*
X114168721Y-59069570D01*
X114168721Y-59470430D01*
X114246925Y-59863587D01*
X114400328Y-60233934D01*
X114623034Y-60567237D01*
X114906484Y-60850687D01*
X114968014Y-60891800D01*
X105248949Y-60891800D01*
X105193197Y-60886309D01*
X104970698Y-60908223D01*
X104778234Y-60966607D01*
X104756751Y-60973124D01*
X104559575Y-61078516D01*
X104386749Y-61220351D01*
X104351206Y-61263660D01*
X103096859Y-62518008D01*
X103053551Y-62553550D01*
X102911716Y-62726376D01*
X102865306Y-62813204D01*
X102806323Y-62923553D01*
X102741422Y-63137501D01*
X102719508Y-63359999D01*
X102725000Y-63415760D01*
X102724999Y-68244247D01*
X102719508Y-68299999D01*
X102724999Y-68355750D01*
X102741422Y-68522497D01*
X102806323Y-68736445D01*
X102911715Y-68933622D01*
X103053550Y-69106448D01*
X103096864Y-69141995D01*
X103925000Y-69970132D01*
X103925000Y-69996260D01*
X103982068Y-70283158D01*
X104094010Y-70553411D01*
X104256525Y-70796632D01*
X104463368Y-71003475D01*
X104645534Y-71125195D01*
X104528645Y-71194822D01*
X104312412Y-71389731D01*
X104138359Y-71623080D01*
X104013175Y-71885901D01*
X104009000Y-71899665D01*
X104009000Y-71658454D01*
X104041205Y-71610256D01*
X104119226Y-71421898D01*
X104159000Y-71221939D01*
X104159000Y-71018061D01*
X104119226Y-70818102D01*
X104041205Y-70629744D01*
X103927937Y-70460226D01*
X103783774Y-70316063D01*
X103614256Y-70202795D01*
X103425898Y-70124774D01*
X103225939Y-70085000D01*
X103022061Y-70085000D01*
X102822102Y-70124774D01*
X102633744Y-70202795D01*
X102464226Y-70316063D01*
X102320063Y-70460226D01*
X102260000Y-70550117D01*
X102260000Y-55043291D01*
X118195000Y-55043291D01*
X118195000Y-55444151D01*
X118273204Y-55837308D01*
X118426607Y-56207655D01*
X118649313Y-56540958D01*
X118932763Y-56824408D01*
X119266066Y-57047114D01*
X119636413Y-57200517D01*
X120029570Y-57278721D01*
X120430430Y-57278721D01*
X120823587Y-57200517D01*
X121193934Y-57047114D01*
X121527237Y-56824408D01*
X121810687Y-56540958D01*
X122033393Y-56207655D01*
X122186796Y-55837308D01*
X122265000Y-55444151D01*
X122265000Y-55043291D01*
X122186796Y-54650134D01*
X122033393Y-54279787D01*
X121810687Y-53946484D01*
X121527237Y-53663034D01*
X121387359Y-53569570D01*
X123695000Y-53569570D01*
X123695000Y-53970430D01*
X123773204Y-54363587D01*
X123926607Y-54733934D01*
X124149313Y-55067237D01*
X124432763Y-55350687D01*
X124766066Y-55573393D01*
X125136413Y-55726796D01*
X125529570Y-55805000D01*
X125930430Y-55805000D01*
X126323587Y-55726796D01*
X126419950Y-55686881D01*
X129243839Y-55686881D01*
X129332357Y-55978700D01*
X129512207Y-56334789D01*
X129758071Y-56648949D01*
X130060500Y-56909107D01*
X130407872Y-57105265D01*
X130786838Y-57229885D01*
X131102999Y-57116008D01*
X131102999Y-55370721D01*
X131356999Y-55370721D01*
X131356999Y-57116008D01*
X131673160Y-57229885D01*
X131989998Y-57125695D01*
X149816520Y-57125695D01*
X149885822Y-57877938D01*
X150100548Y-58602208D01*
X150452445Y-59270670D01*
X150479452Y-59311088D01*
X150969119Y-59671276D01*
X153490395Y-57150000D01*
X153849605Y-57150000D01*
X156370881Y-59671276D01*
X156860548Y-59311088D01*
X157220849Y-58647118D01*
X157444694Y-57925615D01*
X157523480Y-57174305D01*
X157519002Y-57125695D01*
X190456520Y-57125695D01*
X190525822Y-57877938D01*
X190740548Y-58602208D01*
X191092445Y-59270670D01*
X191119452Y-59311088D01*
X191609119Y-59671276D01*
X194130395Y-57150000D01*
X194489605Y-57150000D01*
X197010881Y-59671276D01*
X197500548Y-59311088D01*
X197860849Y-58647118D01*
X198084694Y-57925615D01*
X198163480Y-57174305D01*
X198094178Y-56422062D01*
X197879452Y-55697792D01*
X197527555Y-55029330D01*
X197500548Y-54988912D01*
X197010881Y-54628724D01*
X194489605Y-57150000D01*
X194130395Y-57150000D01*
X191609119Y-54628724D01*
X191119452Y-54988912D01*
X190759151Y-55652882D01*
X190535306Y-56374385D01*
X190456520Y-57125695D01*
X157519002Y-57125695D01*
X157454178Y-56422062D01*
X157239452Y-55697792D01*
X156887555Y-55029330D01*
X156860548Y-54988912D01*
X156370881Y-54628724D01*
X153849605Y-57150000D01*
X153490395Y-57150000D01*
X150969119Y-54628724D01*
X150479452Y-54988912D01*
X150119151Y-55652882D01*
X149895306Y-56374385D01*
X149816520Y-57125695D01*
X131989998Y-57125695D01*
X132052126Y-57105265D01*
X132399498Y-56909107D01*
X132701927Y-56648949D01*
X132947791Y-56334789D01*
X133127641Y-55978700D01*
X133216159Y-55686881D01*
X133101946Y-55370721D01*
X131356999Y-55370721D01*
X131102999Y-55370721D01*
X129358052Y-55370721D01*
X129243839Y-55686881D01*
X126419950Y-55686881D01*
X126693934Y-55573393D01*
X127027237Y-55350687D01*
X127310687Y-55067237D01*
X127488874Y-54800561D01*
X129243839Y-54800561D01*
X129358052Y-55116721D01*
X131102999Y-55116721D01*
X131102999Y-53371434D01*
X131356999Y-53371434D01*
X131356999Y-55116721D01*
X133101946Y-55116721D01*
X133216159Y-54800561D01*
X133127641Y-54508742D01*
X133097528Y-54449119D01*
X151148724Y-54449119D01*
X153670000Y-56970395D01*
X156191276Y-54449119D01*
X191788724Y-54449119D01*
X194310000Y-56970395D01*
X196831276Y-54449119D01*
X196471088Y-53959452D01*
X195807118Y-53599151D01*
X195085615Y-53375306D01*
X194334305Y-53296520D01*
X193582062Y-53365822D01*
X192857792Y-53580548D01*
X192189330Y-53932445D01*
X192148912Y-53959452D01*
X191788724Y-54449119D01*
X156191276Y-54449119D01*
X155831088Y-53959452D01*
X155167118Y-53599151D01*
X154445615Y-53375306D01*
X153694305Y-53296520D01*
X152942062Y-53365822D01*
X152217792Y-53580548D01*
X151549330Y-53932445D01*
X151508912Y-53959452D01*
X151148724Y-54449119D01*
X133097528Y-54449119D01*
X132947791Y-54152653D01*
X132701927Y-53838493D01*
X132399498Y-53578335D01*
X132052126Y-53382177D01*
X131673160Y-53257557D01*
X131356999Y-53371434D01*
X131102999Y-53371434D01*
X130786838Y-53257557D01*
X130407872Y-53382177D01*
X130060500Y-53578335D01*
X129758071Y-53838493D01*
X129512207Y-54152653D01*
X129332357Y-54508742D01*
X129243839Y-54800561D01*
X127488874Y-54800561D01*
X127533393Y-54733934D01*
X127686796Y-54363587D01*
X127765000Y-53970430D01*
X127765000Y-53569570D01*
X127686796Y-53176413D01*
X127533393Y-52806066D01*
X127310687Y-52472763D01*
X127027237Y-52189313D01*
X126693934Y-51966607D01*
X126323587Y-51813204D01*
X125930430Y-51735000D01*
X125529570Y-51735000D01*
X125136413Y-51813204D01*
X124766066Y-51966607D01*
X124432763Y-52189313D01*
X124149313Y-52472763D01*
X123926607Y-52806066D01*
X123773204Y-53176413D01*
X123695000Y-53569570D01*
X121387359Y-53569570D01*
X121193934Y-53440328D01*
X120823587Y-53286925D01*
X120430430Y-53208721D01*
X120029570Y-53208721D01*
X119636413Y-53286925D01*
X119266066Y-53440328D01*
X118932763Y-53663034D01*
X118649313Y-53946484D01*
X118426607Y-54279787D01*
X118273204Y-54650134D01*
X118195000Y-55043291D01*
X102260000Y-55043291D01*
X102260000Y-51460000D01*
X200000001Y-51460000D01*
X200000001Y-99715869D01*
G36*
X116694708Y-80199840D02*
G01*
X116730250Y-80243148D01*
X116903076Y-80384983D01*
X116934352Y-80401700D01*
X112486832Y-80401700D01*
X106895000Y-74809869D01*
X106895000Y-74783740D01*
X106837932Y-74496842D01*
X106725990Y-74226589D01*
X106563475Y-73983368D01*
X106356632Y-73776525D01*
X106174466Y-73654805D01*
X106291355Y-73585178D01*
X106507588Y-73390269D01*
X106681641Y-73156920D01*
X106806825Y-72894099D01*
X106851476Y-72746890D01*
X106730155Y-72517000D01*
X105537000Y-72517000D01*
X105537000Y-72537000D01*
X105283000Y-72537000D01*
X105283000Y-72517000D01*
X105263000Y-72517000D01*
X105263000Y-72263000D01*
X105283000Y-72263000D01*
X105283000Y-72243000D01*
X105537000Y-72243000D01*
X105537000Y-72263000D01*
X106730155Y-72263000D01*
X106851476Y-72033110D01*
X106806825Y-71885901D01*
X106681641Y-71623080D01*
X106507588Y-71389731D01*
X106291355Y-71194822D01*
X106174466Y-71125195D01*
X106356632Y-71003475D01*
X106563475Y-70796632D01*
X106725990Y-70553411D01*
X106820386Y-70325517D01*
X116694708Y-80199840D01*
G37*
X116694708Y-80199840D02*
X116730250Y-80243148D01*
X116903076Y-80384983D01*
X116934352Y-80401700D01*
X112486832Y-80401700D01*
X106895000Y-74809869D01*
X106895000Y-74783740D01*
X106837932Y-74496842D01*
X106725990Y-74226589D01*
X106563475Y-73983368D01*
X106356632Y-73776525D01*
X106174466Y-73654805D01*
X106291355Y-73585178D01*
X106507588Y-73390269D01*
X106681641Y-73156920D01*
X106806825Y-72894099D01*
X106851476Y-72746890D01*
X106730155Y-72517000D01*
X105537000Y-72517000D01*
X105537000Y-72537000D01*
X105283000Y-72537000D01*
X105283000Y-72517000D01*
X105263000Y-72517000D01*
X105263000Y-72263000D01*
X105283000Y-72263000D01*
X105283000Y-72243000D01*
X105537000Y-72243000D01*
X105537000Y-72263000D01*
X106730155Y-72263000D01*
X106851476Y-72033110D01*
X106806825Y-71885901D01*
X106681641Y-71623080D01*
X106507588Y-71389731D01*
X106291355Y-71194822D01*
X106174466Y-71125195D01*
X106356632Y-71003475D01*
X106563475Y-70796632D01*
X106725990Y-70553411D01*
X106820386Y-70325517D01*
X116694708Y-80199840D01*
M02*
