G04 #@! TF.GenerationSoftware,KiCad,Pcbnew,5.1.6-c6e7f7d~86~ubuntu18.04.1*
G04 #@! TF.CreationDate,2020-06-20T10:33:53-04:00*
G04 #@! TF.ProjectId,oscillator_carrier_board,6f736369-6c6c-4617-946f-725f63617272,1*
G04 #@! TF.SameCoordinates,Original*
G04 #@! TF.FileFunction,Soldermask,Bot*
G04 #@! TF.FilePolarity,Negative*
%FSLAX46Y46*%
G04 Gerber Fmt 4.6, Leading zero omitted, Abs format (unit mm)*
G04 Created by KiCad (PCBNEW 5.1.6-c6e7f7d~86~ubuntu18.04.1) date 2020-06-20 10:33:53*
%MOMM*%
%LPD*%
G01*
G04 APERTURE LIST*
%ADD10C,0.100000*%
G04 APERTURE END LIST*
D10*
G36*
X196963512Y-145153927D02*
G01*
X197112812Y-145183624D01*
X197276784Y-145251544D01*
X197424354Y-145350147D01*
X197549853Y-145475646D01*
X197648456Y-145623216D01*
X197716376Y-145787188D01*
X197751000Y-145961259D01*
X197751000Y-146138741D01*
X197716376Y-146312812D01*
X197648456Y-146476784D01*
X197549853Y-146624354D01*
X197424354Y-146749853D01*
X197276784Y-146848456D01*
X197112812Y-146916376D01*
X196963512Y-146946073D01*
X196938742Y-146951000D01*
X196761258Y-146951000D01*
X196736488Y-146946073D01*
X196587188Y-146916376D01*
X196423216Y-146848456D01*
X196275646Y-146749853D01*
X196150147Y-146624354D01*
X196051544Y-146476784D01*
X195983624Y-146312812D01*
X195949000Y-146138741D01*
X195949000Y-145961259D01*
X195983624Y-145787188D01*
X196051544Y-145623216D01*
X196150147Y-145475646D01*
X196275646Y-145350147D01*
X196423216Y-145251544D01*
X196587188Y-145183624D01*
X196736488Y-145153927D01*
X196761258Y-145149000D01*
X196938742Y-145149000D01*
X196963512Y-145153927D01*
G37*
G36*
X105523512Y-145153927D02*
G01*
X105672812Y-145183624D01*
X105836784Y-145251544D01*
X105984354Y-145350147D01*
X106109853Y-145475646D01*
X106208456Y-145623216D01*
X106276376Y-145787188D01*
X106311000Y-145961259D01*
X106311000Y-146138741D01*
X106276376Y-146312812D01*
X106208456Y-146476784D01*
X106109853Y-146624354D01*
X105984354Y-146749853D01*
X105836784Y-146848456D01*
X105672812Y-146916376D01*
X105523512Y-146946073D01*
X105498742Y-146951000D01*
X105321258Y-146951000D01*
X105296488Y-146946073D01*
X105147188Y-146916376D01*
X104983216Y-146848456D01*
X104835646Y-146749853D01*
X104710147Y-146624354D01*
X104611544Y-146476784D01*
X104543624Y-146312812D01*
X104509000Y-146138741D01*
X104509000Y-145961259D01*
X104543624Y-145787188D01*
X104611544Y-145623216D01*
X104710147Y-145475646D01*
X104835646Y-145350147D01*
X104983216Y-145251544D01*
X105147188Y-145183624D01*
X105296488Y-145153927D01*
X105321258Y-145149000D01*
X105498742Y-145149000D01*
X105523512Y-145153927D01*
G37*
G36*
X124766564Y-143769389D02*
G01*
X124957833Y-143848615D01*
X124957835Y-143848616D01*
X125129973Y-143963635D01*
X125276365Y-144110027D01*
X125343067Y-144209853D01*
X125391385Y-144282167D01*
X125470611Y-144473436D01*
X125511000Y-144676484D01*
X125511000Y-144883516D01*
X125470611Y-145086564D01*
X125430407Y-145183625D01*
X125391384Y-145277835D01*
X125276365Y-145449973D01*
X125129973Y-145596365D01*
X124957835Y-145711384D01*
X124957834Y-145711385D01*
X124957833Y-145711385D01*
X124766564Y-145790611D01*
X124563516Y-145831000D01*
X124356484Y-145831000D01*
X124153436Y-145790611D01*
X123962167Y-145711385D01*
X123962166Y-145711385D01*
X123962165Y-145711384D01*
X123790027Y-145596365D01*
X123643635Y-145449973D01*
X123528616Y-145277835D01*
X123489593Y-145183625D01*
X123449389Y-145086564D01*
X123409000Y-144883516D01*
X123409000Y-144676484D01*
X123449389Y-144473436D01*
X123528615Y-144282167D01*
X123576934Y-144209853D01*
X123643635Y-144110027D01*
X123790027Y-143963635D01*
X123962165Y-143848616D01*
X123962167Y-143848615D01*
X124153436Y-143769389D01*
X124356484Y-143729000D01*
X124563516Y-143729000D01*
X124766564Y-143769389D01*
G37*
G36*
X149973512Y-143883927D02*
G01*
X150122812Y-143913624D01*
X150286784Y-143981544D01*
X150434354Y-144080147D01*
X150559853Y-144205646D01*
X150658456Y-144353216D01*
X150726376Y-144517188D01*
X150761000Y-144691259D01*
X150761000Y-144868741D01*
X150726376Y-145042812D01*
X150658456Y-145206784D01*
X150559853Y-145354354D01*
X150434354Y-145479853D01*
X150286784Y-145578456D01*
X150122812Y-145646376D01*
X149973512Y-145676073D01*
X149948742Y-145681000D01*
X149771258Y-145681000D01*
X149746488Y-145676073D01*
X149597188Y-145646376D01*
X149433216Y-145578456D01*
X149285646Y-145479853D01*
X149160147Y-145354354D01*
X149061544Y-145206784D01*
X148993624Y-145042812D01*
X148959000Y-144868741D01*
X148959000Y-144691259D01*
X148993624Y-144517188D01*
X149061544Y-144353216D01*
X149160147Y-144205646D01*
X149285646Y-144080147D01*
X149433216Y-143981544D01*
X149597188Y-143913624D01*
X149746488Y-143883927D01*
X149771258Y-143879000D01*
X149948742Y-143879000D01*
X149973512Y-143883927D01*
G37*
G36*
X152513512Y-143883927D02*
G01*
X152662812Y-143913624D01*
X152826784Y-143981544D01*
X152974354Y-144080147D01*
X153099853Y-144205646D01*
X153198456Y-144353216D01*
X153266376Y-144517188D01*
X153301000Y-144691259D01*
X153301000Y-144868741D01*
X153266376Y-145042812D01*
X153198456Y-145206784D01*
X153099853Y-145354354D01*
X152974354Y-145479853D01*
X152826784Y-145578456D01*
X152662812Y-145646376D01*
X152513512Y-145676073D01*
X152488742Y-145681000D01*
X152311258Y-145681000D01*
X152286488Y-145676073D01*
X152137188Y-145646376D01*
X151973216Y-145578456D01*
X151825646Y-145479853D01*
X151700147Y-145354354D01*
X151601544Y-145206784D01*
X151533624Y-145042812D01*
X151499000Y-144868741D01*
X151499000Y-144691259D01*
X151533624Y-144517188D01*
X151601544Y-144353216D01*
X151700147Y-144205646D01*
X151825646Y-144080147D01*
X151973216Y-143981544D01*
X152137188Y-143913624D01*
X152286488Y-143883927D01*
X152311258Y-143879000D01*
X152488742Y-143879000D01*
X152513512Y-143883927D01*
G37*
G36*
X155053512Y-143883927D02*
G01*
X155202812Y-143913624D01*
X155366784Y-143981544D01*
X155514354Y-144080147D01*
X155639853Y-144205646D01*
X155738456Y-144353216D01*
X155806376Y-144517188D01*
X155841000Y-144691259D01*
X155841000Y-144868741D01*
X155806376Y-145042812D01*
X155738456Y-145206784D01*
X155639853Y-145354354D01*
X155514354Y-145479853D01*
X155366784Y-145578456D01*
X155202812Y-145646376D01*
X155053512Y-145676073D01*
X155028742Y-145681000D01*
X154851258Y-145681000D01*
X154826488Y-145676073D01*
X154677188Y-145646376D01*
X154513216Y-145578456D01*
X154365646Y-145479853D01*
X154240147Y-145354354D01*
X154141544Y-145206784D01*
X154073624Y-145042812D01*
X154039000Y-144868741D01*
X154039000Y-144691259D01*
X154073624Y-144517188D01*
X154141544Y-144353216D01*
X154240147Y-144205646D01*
X154365646Y-144080147D01*
X154513216Y-143981544D01*
X154677188Y-143913624D01*
X154826488Y-143883927D01*
X154851258Y-143879000D01*
X155028742Y-143879000D01*
X155053512Y-143883927D01*
G37*
G36*
X147433512Y-143883927D02*
G01*
X147582812Y-143913624D01*
X147746784Y-143981544D01*
X147894354Y-144080147D01*
X148019853Y-144205646D01*
X148118456Y-144353216D01*
X148186376Y-144517188D01*
X148221000Y-144691259D01*
X148221000Y-144868741D01*
X148186376Y-145042812D01*
X148118456Y-145206784D01*
X148019853Y-145354354D01*
X147894354Y-145479853D01*
X147746784Y-145578456D01*
X147582812Y-145646376D01*
X147433512Y-145676073D01*
X147408742Y-145681000D01*
X147231258Y-145681000D01*
X147206488Y-145676073D01*
X147057188Y-145646376D01*
X146893216Y-145578456D01*
X146745646Y-145479853D01*
X146620147Y-145354354D01*
X146521544Y-145206784D01*
X146453624Y-145042812D01*
X146419000Y-144868741D01*
X146419000Y-144691259D01*
X146453624Y-144517188D01*
X146521544Y-144353216D01*
X146620147Y-144205646D01*
X146745646Y-144080147D01*
X146893216Y-143981544D01*
X147057188Y-143913624D01*
X147206488Y-143883927D01*
X147231258Y-143879000D01*
X147408742Y-143879000D01*
X147433512Y-143883927D01*
G37*
G36*
X158381000Y-145681000D02*
G01*
X156579000Y-145681000D01*
X156579000Y-143879000D01*
X158381000Y-143879000D01*
X158381000Y-145681000D01*
G37*
G36*
X196963512Y-142613927D02*
G01*
X197112812Y-142643624D01*
X197276784Y-142711544D01*
X197424354Y-142810147D01*
X197549853Y-142935646D01*
X197648456Y-143083216D01*
X197716376Y-143247188D01*
X197751000Y-143421259D01*
X197751000Y-143598741D01*
X197716376Y-143772812D01*
X197648456Y-143936784D01*
X197549853Y-144084354D01*
X197424354Y-144209853D01*
X197276784Y-144308456D01*
X197112812Y-144376376D01*
X196963512Y-144406073D01*
X196938742Y-144411000D01*
X196761258Y-144411000D01*
X196736488Y-144406073D01*
X196587188Y-144376376D01*
X196423216Y-144308456D01*
X196275646Y-144209853D01*
X196150147Y-144084354D01*
X196051544Y-143936784D01*
X195983624Y-143772812D01*
X195949000Y-143598741D01*
X195949000Y-143421259D01*
X195983624Y-143247188D01*
X196051544Y-143083216D01*
X196150147Y-142935646D01*
X196275646Y-142810147D01*
X196423216Y-142711544D01*
X196587188Y-142643624D01*
X196736488Y-142613927D01*
X196761258Y-142609000D01*
X196938742Y-142609000D01*
X196963512Y-142613927D01*
G37*
G36*
X105523512Y-142613927D02*
G01*
X105672812Y-142643624D01*
X105836784Y-142711544D01*
X105984354Y-142810147D01*
X106109853Y-142935646D01*
X106208456Y-143083216D01*
X106276376Y-143247188D01*
X106311000Y-143421259D01*
X106311000Y-143598741D01*
X106276376Y-143772812D01*
X106208456Y-143936784D01*
X106109853Y-144084354D01*
X105984354Y-144209853D01*
X105836784Y-144308456D01*
X105672812Y-144376376D01*
X105523512Y-144406073D01*
X105498742Y-144411000D01*
X105321258Y-144411000D01*
X105296488Y-144406073D01*
X105147188Y-144376376D01*
X104983216Y-144308456D01*
X104835646Y-144209853D01*
X104710147Y-144084354D01*
X104611544Y-143936784D01*
X104543624Y-143772812D01*
X104509000Y-143598741D01*
X104509000Y-143421259D01*
X104543624Y-143247188D01*
X104611544Y-143083216D01*
X104710147Y-142935646D01*
X104835646Y-142810147D01*
X104983216Y-142711544D01*
X105147188Y-142643624D01*
X105296488Y-142613927D01*
X105321258Y-142609000D01*
X105498742Y-142609000D01*
X105523512Y-142613927D01*
G37*
G36*
X152513512Y-141343927D02*
G01*
X152662812Y-141373624D01*
X152826784Y-141441544D01*
X152974354Y-141540147D01*
X153099853Y-141665646D01*
X153198456Y-141813216D01*
X153266376Y-141977188D01*
X153301000Y-142151259D01*
X153301000Y-142328741D01*
X153266376Y-142502812D01*
X153198456Y-142666784D01*
X153099853Y-142814354D01*
X152974354Y-142939853D01*
X152826784Y-143038456D01*
X152662812Y-143106376D01*
X152513512Y-143136073D01*
X152488742Y-143141000D01*
X152311258Y-143141000D01*
X152286488Y-143136073D01*
X152137188Y-143106376D01*
X151973216Y-143038456D01*
X151825646Y-142939853D01*
X151700147Y-142814354D01*
X151601544Y-142666784D01*
X151533624Y-142502812D01*
X151499000Y-142328741D01*
X151499000Y-142151259D01*
X151533624Y-141977188D01*
X151601544Y-141813216D01*
X151700147Y-141665646D01*
X151825646Y-141540147D01*
X151973216Y-141441544D01*
X152137188Y-141373624D01*
X152286488Y-141343927D01*
X152311258Y-141339000D01*
X152488742Y-141339000D01*
X152513512Y-141343927D01*
G37*
G36*
X157593512Y-141343927D02*
G01*
X157742812Y-141373624D01*
X157906784Y-141441544D01*
X158054354Y-141540147D01*
X158179853Y-141665646D01*
X158278456Y-141813216D01*
X158346376Y-141977188D01*
X158381000Y-142151259D01*
X158381000Y-142328741D01*
X158346376Y-142502812D01*
X158278456Y-142666784D01*
X158179853Y-142814354D01*
X158054354Y-142939853D01*
X157906784Y-143038456D01*
X157742812Y-143106376D01*
X157593512Y-143136073D01*
X157568742Y-143141000D01*
X157391258Y-143141000D01*
X157366488Y-143136073D01*
X157217188Y-143106376D01*
X157053216Y-143038456D01*
X156905646Y-142939853D01*
X156780147Y-142814354D01*
X156681544Y-142666784D01*
X156613624Y-142502812D01*
X156579000Y-142328741D01*
X156579000Y-142151259D01*
X156613624Y-141977188D01*
X156681544Y-141813216D01*
X156780147Y-141665646D01*
X156905646Y-141540147D01*
X157053216Y-141441544D01*
X157217188Y-141373624D01*
X157366488Y-141343927D01*
X157391258Y-141339000D01*
X157568742Y-141339000D01*
X157593512Y-141343927D01*
G37*
G36*
X155053512Y-141343927D02*
G01*
X155202812Y-141373624D01*
X155366784Y-141441544D01*
X155514354Y-141540147D01*
X155639853Y-141665646D01*
X155738456Y-141813216D01*
X155806376Y-141977188D01*
X155841000Y-142151259D01*
X155841000Y-142328741D01*
X155806376Y-142502812D01*
X155738456Y-142666784D01*
X155639853Y-142814354D01*
X155514354Y-142939853D01*
X155366784Y-143038456D01*
X155202812Y-143106376D01*
X155053512Y-143136073D01*
X155028742Y-143141000D01*
X154851258Y-143141000D01*
X154826488Y-143136073D01*
X154677188Y-143106376D01*
X154513216Y-143038456D01*
X154365646Y-142939853D01*
X154240147Y-142814354D01*
X154141544Y-142666784D01*
X154073624Y-142502812D01*
X154039000Y-142328741D01*
X154039000Y-142151259D01*
X154073624Y-141977188D01*
X154141544Y-141813216D01*
X154240147Y-141665646D01*
X154365646Y-141540147D01*
X154513216Y-141441544D01*
X154677188Y-141373624D01*
X154826488Y-141343927D01*
X154851258Y-141339000D01*
X155028742Y-141339000D01*
X155053512Y-141343927D01*
G37*
G36*
X149973512Y-141343927D02*
G01*
X150122812Y-141373624D01*
X150286784Y-141441544D01*
X150434354Y-141540147D01*
X150559853Y-141665646D01*
X150658456Y-141813216D01*
X150726376Y-141977188D01*
X150761000Y-142151259D01*
X150761000Y-142328741D01*
X150726376Y-142502812D01*
X150658456Y-142666784D01*
X150559853Y-142814354D01*
X150434354Y-142939853D01*
X150286784Y-143038456D01*
X150122812Y-143106376D01*
X149973512Y-143136073D01*
X149948742Y-143141000D01*
X149771258Y-143141000D01*
X149746488Y-143136073D01*
X149597188Y-143106376D01*
X149433216Y-143038456D01*
X149285646Y-142939853D01*
X149160147Y-142814354D01*
X149061544Y-142666784D01*
X148993624Y-142502812D01*
X148959000Y-142328741D01*
X148959000Y-142151259D01*
X148993624Y-141977188D01*
X149061544Y-141813216D01*
X149160147Y-141665646D01*
X149285646Y-141540147D01*
X149433216Y-141441544D01*
X149597188Y-141373624D01*
X149746488Y-141343927D01*
X149771258Y-141339000D01*
X149948742Y-141339000D01*
X149973512Y-141343927D01*
G37*
G36*
X147433512Y-141343927D02*
G01*
X147582812Y-141373624D01*
X147746784Y-141441544D01*
X147894354Y-141540147D01*
X148019853Y-141665646D01*
X148118456Y-141813216D01*
X148186376Y-141977188D01*
X148221000Y-142151259D01*
X148221000Y-142328741D01*
X148186376Y-142502812D01*
X148118456Y-142666784D01*
X148019853Y-142814354D01*
X147894354Y-142939853D01*
X147746784Y-143038456D01*
X147582812Y-143106376D01*
X147433512Y-143136073D01*
X147408742Y-143141000D01*
X147231258Y-143141000D01*
X147206488Y-143136073D01*
X147057188Y-143106376D01*
X146893216Y-143038456D01*
X146745646Y-142939853D01*
X146620147Y-142814354D01*
X146521544Y-142666784D01*
X146453624Y-142502812D01*
X146419000Y-142328741D01*
X146419000Y-142151259D01*
X146453624Y-141977188D01*
X146521544Y-141813216D01*
X146620147Y-141665646D01*
X146745646Y-141540147D01*
X146893216Y-141441544D01*
X147057188Y-141373624D01*
X147206488Y-141343927D01*
X147231258Y-141339000D01*
X147408742Y-141339000D01*
X147433512Y-141343927D01*
G37*
G36*
X196963512Y-140073927D02*
G01*
X197112812Y-140103624D01*
X197276784Y-140171544D01*
X197424354Y-140270147D01*
X197549853Y-140395646D01*
X197648456Y-140543216D01*
X197716376Y-140707188D01*
X197751000Y-140881259D01*
X197751000Y-141058741D01*
X197716376Y-141232812D01*
X197648456Y-141396784D01*
X197549853Y-141544354D01*
X197424354Y-141669853D01*
X197276784Y-141768456D01*
X197112812Y-141836376D01*
X196963512Y-141866073D01*
X196938742Y-141871000D01*
X196761258Y-141871000D01*
X196736488Y-141866073D01*
X196587188Y-141836376D01*
X196423216Y-141768456D01*
X196275646Y-141669853D01*
X196150147Y-141544354D01*
X196051544Y-141396784D01*
X195983624Y-141232812D01*
X195949000Y-141058741D01*
X195949000Y-140881259D01*
X195983624Y-140707188D01*
X196051544Y-140543216D01*
X196150147Y-140395646D01*
X196275646Y-140270147D01*
X196423216Y-140171544D01*
X196587188Y-140103624D01*
X196736488Y-140073927D01*
X196761258Y-140069000D01*
X196938742Y-140069000D01*
X196963512Y-140073927D01*
G37*
G36*
X105523512Y-140073927D02*
G01*
X105672812Y-140103624D01*
X105836784Y-140171544D01*
X105984354Y-140270147D01*
X106109853Y-140395646D01*
X106208456Y-140543216D01*
X106276376Y-140707188D01*
X106311000Y-140881259D01*
X106311000Y-141058741D01*
X106276376Y-141232812D01*
X106208456Y-141396784D01*
X106109853Y-141544354D01*
X105984354Y-141669853D01*
X105836784Y-141768456D01*
X105672812Y-141836376D01*
X105523512Y-141866073D01*
X105498742Y-141871000D01*
X105321258Y-141871000D01*
X105296488Y-141866073D01*
X105147188Y-141836376D01*
X104983216Y-141768456D01*
X104835646Y-141669853D01*
X104710147Y-141544354D01*
X104611544Y-141396784D01*
X104543624Y-141232812D01*
X104509000Y-141058741D01*
X104509000Y-140881259D01*
X104543624Y-140707188D01*
X104611544Y-140543216D01*
X104710147Y-140395646D01*
X104835646Y-140270147D01*
X104983216Y-140171544D01*
X105147188Y-140103624D01*
X105296488Y-140073927D01*
X105321258Y-140069000D01*
X105498742Y-140069000D01*
X105523512Y-140073927D01*
G37*
G36*
X137285589Y-138938876D02*
G01*
X137384893Y-138958629D01*
X137525206Y-139016748D01*
X137651484Y-139101125D01*
X137758875Y-139208516D01*
X137843252Y-139334794D01*
X137901371Y-139475107D01*
X137931000Y-139624063D01*
X137931000Y-139775937D01*
X137901371Y-139924893D01*
X137843252Y-140065206D01*
X137758875Y-140191484D01*
X137651484Y-140298875D01*
X137525206Y-140383252D01*
X137384893Y-140441371D01*
X137285589Y-140461124D01*
X137235938Y-140471000D01*
X137084062Y-140471000D01*
X137034411Y-140461124D01*
X136935107Y-140441371D01*
X136794794Y-140383252D01*
X136668516Y-140298875D01*
X136561125Y-140191484D01*
X136476748Y-140065206D01*
X136418629Y-139924893D01*
X136389000Y-139775937D01*
X136389000Y-139624063D01*
X136418629Y-139475107D01*
X136476748Y-139334794D01*
X136561125Y-139208516D01*
X136668516Y-139101125D01*
X136794794Y-139016748D01*
X136935107Y-138958629D01*
X137034411Y-138938876D01*
X137084062Y-138929000D01*
X137235938Y-138929000D01*
X137285589Y-138938876D01*
G37*
G36*
X196963512Y-137533927D02*
G01*
X197112812Y-137563624D01*
X197276784Y-137631544D01*
X197424354Y-137730147D01*
X197549853Y-137855646D01*
X197648456Y-138003216D01*
X197716376Y-138167188D01*
X197751000Y-138341259D01*
X197751000Y-138518741D01*
X197716376Y-138692812D01*
X197648456Y-138856784D01*
X197549853Y-139004354D01*
X197424354Y-139129853D01*
X197276784Y-139228456D01*
X197112812Y-139296376D01*
X196963512Y-139326073D01*
X196938742Y-139331000D01*
X196761258Y-139331000D01*
X196736488Y-139326073D01*
X196587188Y-139296376D01*
X196423216Y-139228456D01*
X196275646Y-139129853D01*
X196150147Y-139004354D01*
X196051544Y-138856784D01*
X195983624Y-138692812D01*
X195949000Y-138518741D01*
X195949000Y-138341259D01*
X195983624Y-138167188D01*
X196051544Y-138003216D01*
X196150147Y-137855646D01*
X196275646Y-137730147D01*
X196423216Y-137631544D01*
X196587188Y-137563624D01*
X196736488Y-137533927D01*
X196761258Y-137529000D01*
X196938742Y-137529000D01*
X196963512Y-137533927D01*
G37*
G36*
X105523512Y-137533927D02*
G01*
X105672812Y-137563624D01*
X105836784Y-137631544D01*
X105984354Y-137730147D01*
X106109853Y-137855646D01*
X106208456Y-138003216D01*
X106276376Y-138167188D01*
X106311000Y-138341259D01*
X106311000Y-138518741D01*
X106276376Y-138692812D01*
X106208456Y-138856784D01*
X106109853Y-139004354D01*
X105984354Y-139129853D01*
X105836784Y-139228456D01*
X105672812Y-139296376D01*
X105523512Y-139326073D01*
X105498742Y-139331000D01*
X105321258Y-139331000D01*
X105296488Y-139326073D01*
X105147188Y-139296376D01*
X104983216Y-139228456D01*
X104835646Y-139129853D01*
X104710147Y-139004354D01*
X104611544Y-138856784D01*
X104543624Y-138692812D01*
X104509000Y-138518741D01*
X104509000Y-138341259D01*
X104543624Y-138167188D01*
X104611544Y-138003216D01*
X104710147Y-137855646D01*
X104835646Y-137730147D01*
X104983216Y-137631544D01*
X105147188Y-137563624D01*
X105296488Y-137533927D01*
X105321258Y-137529000D01*
X105498742Y-137529000D01*
X105523512Y-137533927D01*
G37*
G36*
X137285589Y-136398876D02*
G01*
X137384893Y-136418629D01*
X137525206Y-136476748D01*
X137651484Y-136561125D01*
X137758875Y-136668516D01*
X137843252Y-136794794D01*
X137901371Y-136935107D01*
X137931000Y-137084063D01*
X137931000Y-137235937D01*
X137901371Y-137384893D01*
X137843252Y-137525206D01*
X137758875Y-137651484D01*
X137651484Y-137758875D01*
X137525206Y-137843252D01*
X137384893Y-137901371D01*
X137285589Y-137921124D01*
X137235938Y-137931000D01*
X137084062Y-137931000D01*
X137034411Y-137921124D01*
X136935107Y-137901371D01*
X136794794Y-137843252D01*
X136668516Y-137758875D01*
X136561125Y-137651484D01*
X136476748Y-137525206D01*
X136418629Y-137384893D01*
X136389000Y-137235937D01*
X136389000Y-137084063D01*
X136418629Y-136935107D01*
X136476748Y-136794794D01*
X136561125Y-136668516D01*
X136668516Y-136561125D01*
X136794794Y-136476748D01*
X136935107Y-136418629D01*
X137034411Y-136398876D01*
X137084062Y-136389000D01*
X137235938Y-136389000D01*
X137285589Y-136398876D01*
G37*
G36*
X196963512Y-134993927D02*
G01*
X197112812Y-135023624D01*
X197276784Y-135091544D01*
X197424354Y-135190147D01*
X197549853Y-135315646D01*
X197648456Y-135463216D01*
X197716376Y-135627188D01*
X197751000Y-135801259D01*
X197751000Y-135978741D01*
X197716376Y-136152812D01*
X197648456Y-136316784D01*
X197549853Y-136464354D01*
X197424354Y-136589853D01*
X197276784Y-136688456D01*
X197112812Y-136756376D01*
X196963512Y-136786073D01*
X196938742Y-136791000D01*
X196761258Y-136791000D01*
X196736488Y-136786073D01*
X196587188Y-136756376D01*
X196423216Y-136688456D01*
X196275646Y-136589853D01*
X196150147Y-136464354D01*
X196051544Y-136316784D01*
X195983624Y-136152812D01*
X195949000Y-135978741D01*
X195949000Y-135801259D01*
X195983624Y-135627188D01*
X196051544Y-135463216D01*
X196150147Y-135315646D01*
X196275646Y-135190147D01*
X196423216Y-135091544D01*
X196587188Y-135023624D01*
X196736488Y-134993927D01*
X196761258Y-134989000D01*
X196938742Y-134989000D01*
X196963512Y-134993927D01*
G37*
G36*
X106311000Y-136791000D02*
G01*
X104509000Y-136791000D01*
X104509000Y-134989000D01*
X106311000Y-134989000D01*
X106311000Y-136791000D01*
G37*
G36*
X124766564Y-133609389D02*
G01*
X124957833Y-133688615D01*
X124957835Y-133688616D01*
X125129973Y-133803635D01*
X125276365Y-133950027D01*
X125391385Y-134122167D01*
X125470611Y-134313436D01*
X125511000Y-134516484D01*
X125511000Y-134723516D01*
X125470611Y-134926564D01*
X125430407Y-135023625D01*
X125391384Y-135117835D01*
X125276365Y-135289973D01*
X125129973Y-135436365D01*
X124957835Y-135551384D01*
X124957834Y-135551385D01*
X124957833Y-135551385D01*
X124766564Y-135630611D01*
X124563516Y-135671000D01*
X124356484Y-135671000D01*
X124153436Y-135630611D01*
X123962167Y-135551385D01*
X123962166Y-135551385D01*
X123962165Y-135551384D01*
X123790027Y-135436365D01*
X123643635Y-135289973D01*
X123528616Y-135117835D01*
X123489593Y-135023625D01*
X123449389Y-134926564D01*
X123409000Y-134723516D01*
X123409000Y-134516484D01*
X123449389Y-134313436D01*
X123528615Y-134122167D01*
X123643635Y-133950027D01*
X123790027Y-133803635D01*
X123962165Y-133688616D01*
X123962167Y-133688615D01*
X124153436Y-133609389D01*
X124356484Y-133569000D01*
X124563516Y-133569000D01*
X124766564Y-133609389D01*
G37*
G36*
X137285589Y-133858876D02*
G01*
X137384893Y-133878629D01*
X137525206Y-133936748D01*
X137651484Y-134021125D01*
X137758875Y-134128516D01*
X137843252Y-134254794D01*
X137901371Y-134395107D01*
X137931000Y-134544063D01*
X137931000Y-134695937D01*
X137901371Y-134844893D01*
X137843252Y-134985206D01*
X137758875Y-135111484D01*
X137651484Y-135218875D01*
X137525206Y-135303252D01*
X137384893Y-135361371D01*
X137285589Y-135381124D01*
X137235938Y-135391000D01*
X137084062Y-135391000D01*
X137034411Y-135381124D01*
X136935107Y-135361371D01*
X136794794Y-135303252D01*
X136668516Y-135218875D01*
X136561125Y-135111484D01*
X136476748Y-134985206D01*
X136418629Y-134844893D01*
X136389000Y-134695937D01*
X136389000Y-134544063D01*
X136418629Y-134395107D01*
X136476748Y-134254794D01*
X136561125Y-134128516D01*
X136668516Y-134021125D01*
X136794794Y-133936748D01*
X136935107Y-133878629D01*
X137034411Y-133858876D01*
X137084062Y-133849000D01*
X137235938Y-133849000D01*
X137285589Y-133858876D01*
G37*
G36*
X197751000Y-134251000D02*
G01*
X195949000Y-134251000D01*
X195949000Y-132449000D01*
X197751000Y-132449000D01*
X197751000Y-134251000D01*
G37*
G36*
X162673512Y-127373927D02*
G01*
X162822812Y-127403624D01*
X162986784Y-127471544D01*
X163134354Y-127570147D01*
X163259853Y-127695646D01*
X163358456Y-127843216D01*
X163426376Y-128007188D01*
X163461000Y-128181259D01*
X163461000Y-128358741D01*
X163426376Y-128532812D01*
X163358456Y-128696784D01*
X163259853Y-128844354D01*
X163134354Y-128969853D01*
X162986784Y-129068456D01*
X162822812Y-129136376D01*
X162673512Y-129166073D01*
X162648742Y-129171000D01*
X162471258Y-129171000D01*
X162446488Y-129166073D01*
X162297188Y-129136376D01*
X162133216Y-129068456D01*
X161985646Y-128969853D01*
X161860147Y-128844354D01*
X161761544Y-128696784D01*
X161693624Y-128532812D01*
X161659000Y-128358741D01*
X161659000Y-128181259D01*
X161693624Y-128007188D01*
X161761544Y-127843216D01*
X161860147Y-127695646D01*
X161985646Y-127570147D01*
X162133216Y-127471544D01*
X162297188Y-127403624D01*
X162446488Y-127373927D01*
X162471258Y-127369000D01*
X162648742Y-127369000D01*
X162673512Y-127373927D01*
G37*
G36*
X194917609Y-122536170D02*
G01*
X195258282Y-122603934D01*
X195849926Y-122849001D01*
X196382392Y-123204784D01*
X196835216Y-123657608D01*
X197190999Y-124190074D01*
X197368548Y-124618716D01*
X197436066Y-124781719D01*
X197561000Y-125409803D01*
X197561000Y-126050197D01*
X197516033Y-126276259D01*
X197436066Y-126678282D01*
X197190999Y-127269926D01*
X196835216Y-127802392D01*
X196382392Y-128255216D01*
X195849926Y-128610999D01*
X195258282Y-128856066D01*
X194944239Y-128918533D01*
X194630197Y-128981000D01*
X193989803Y-128981000D01*
X193675761Y-128918533D01*
X193361718Y-128856066D01*
X192770074Y-128610999D01*
X192237608Y-128255216D01*
X191784784Y-127802392D01*
X191429001Y-127269926D01*
X191183934Y-126678282D01*
X191103967Y-126276259D01*
X191059000Y-126050197D01*
X191059000Y-125409803D01*
X191183934Y-124781719D01*
X191251452Y-124618716D01*
X191429001Y-124190074D01*
X191784784Y-123657608D01*
X192237608Y-123204784D01*
X192770074Y-122849001D01*
X193361718Y-122603934D01*
X193702391Y-122536170D01*
X193989803Y-122479000D01*
X194630197Y-122479000D01*
X194917609Y-122536170D01*
G37*
G36*
X154277609Y-122536170D02*
G01*
X154618282Y-122603934D01*
X155209926Y-122849001D01*
X155742392Y-123204784D01*
X156195216Y-123657608D01*
X156550999Y-124190074D01*
X156728548Y-124618716D01*
X156796066Y-124781719D01*
X156921000Y-125409803D01*
X156921000Y-126050197D01*
X156876033Y-126276259D01*
X156796066Y-126678282D01*
X156550999Y-127269926D01*
X156195216Y-127802392D01*
X155742392Y-128255216D01*
X155209926Y-128610999D01*
X154618282Y-128856066D01*
X154304239Y-128918533D01*
X153990197Y-128981000D01*
X153349803Y-128981000D01*
X153035761Y-128918533D01*
X152721718Y-128856066D01*
X152130074Y-128610999D01*
X151597608Y-128255216D01*
X151144784Y-127802392D01*
X150789001Y-127269926D01*
X150543934Y-126678282D01*
X150463967Y-126276259D01*
X150419000Y-126050197D01*
X150419000Y-125409803D01*
X150543934Y-124781719D01*
X150611452Y-124618716D01*
X150789001Y-124190074D01*
X151144784Y-123657608D01*
X151597608Y-123204784D01*
X152130074Y-122849001D01*
X152721718Y-122603934D01*
X153062391Y-122536170D01*
X153349803Y-122479000D01*
X153990197Y-122479000D01*
X154277609Y-122536170D01*
G37*
G36*
X108054769Y-125467188D02*
G01*
X108212812Y-125498624D01*
X108376784Y-125566544D01*
X108524354Y-125665147D01*
X108649853Y-125790646D01*
X108748456Y-125938216D01*
X108816376Y-126102188D01*
X108851000Y-126276259D01*
X108851000Y-126453741D01*
X108816376Y-126627812D01*
X108748456Y-126791784D01*
X108649853Y-126939354D01*
X108524354Y-127064853D01*
X108376784Y-127163456D01*
X108212812Y-127231376D01*
X108063512Y-127261073D01*
X108038742Y-127266000D01*
X107861258Y-127266000D01*
X107836488Y-127261073D01*
X107687188Y-127231376D01*
X107523216Y-127163456D01*
X107375646Y-127064853D01*
X107250147Y-126939354D01*
X107151544Y-126791784D01*
X107083624Y-126627812D01*
X107049000Y-126453741D01*
X107049000Y-126276259D01*
X107083624Y-126102188D01*
X107151544Y-125938216D01*
X107250147Y-125790646D01*
X107375646Y-125665147D01*
X107523216Y-125566544D01*
X107687188Y-125498624D01*
X107845231Y-125467188D01*
X107861258Y-125464000D01*
X108038742Y-125464000D01*
X108054769Y-125467188D01*
G37*
G36*
X105514769Y-125467188D02*
G01*
X105672812Y-125498624D01*
X105836784Y-125566544D01*
X105984354Y-125665147D01*
X106109853Y-125790646D01*
X106208456Y-125938216D01*
X106276376Y-126102188D01*
X106311000Y-126276259D01*
X106311000Y-126453741D01*
X106276376Y-126627812D01*
X106208456Y-126791784D01*
X106109853Y-126939354D01*
X105984354Y-127064853D01*
X105836784Y-127163456D01*
X105672812Y-127231376D01*
X105523512Y-127261073D01*
X105498742Y-127266000D01*
X105321258Y-127266000D01*
X105296488Y-127261073D01*
X105147188Y-127231376D01*
X104983216Y-127163456D01*
X104835646Y-127064853D01*
X104710147Y-126939354D01*
X104611544Y-126791784D01*
X104543624Y-126627812D01*
X104509000Y-126453741D01*
X104509000Y-126276259D01*
X104543624Y-126102188D01*
X104611544Y-125938216D01*
X104710147Y-125790646D01*
X104835646Y-125665147D01*
X104983216Y-125566544D01*
X105147188Y-125498624D01*
X105305231Y-125467188D01*
X105321258Y-125464000D01*
X105498742Y-125464000D01*
X105514769Y-125467188D01*
G37*
G36*
X110594769Y-125467188D02*
G01*
X110752812Y-125498624D01*
X110916784Y-125566544D01*
X111064354Y-125665147D01*
X111189853Y-125790646D01*
X111288456Y-125938216D01*
X111356376Y-126102188D01*
X111391000Y-126276259D01*
X111391000Y-126453741D01*
X111356376Y-126627812D01*
X111288456Y-126791784D01*
X111189853Y-126939354D01*
X111064354Y-127064853D01*
X110916784Y-127163456D01*
X110752812Y-127231376D01*
X110603512Y-127261073D01*
X110578742Y-127266000D01*
X110401258Y-127266000D01*
X110376488Y-127261073D01*
X110227188Y-127231376D01*
X110063216Y-127163456D01*
X109915646Y-127064853D01*
X109790147Y-126939354D01*
X109691544Y-126791784D01*
X109623624Y-126627812D01*
X109589000Y-126453741D01*
X109589000Y-126276259D01*
X109623624Y-126102188D01*
X109691544Y-125938216D01*
X109790147Y-125790646D01*
X109915646Y-125665147D01*
X110063216Y-125566544D01*
X110227188Y-125498624D01*
X110385231Y-125467188D01*
X110401258Y-125464000D01*
X110578742Y-125464000D01*
X110594769Y-125467188D01*
G37*
G36*
X116471000Y-127266000D02*
G01*
X114669000Y-127266000D01*
X114669000Y-125464000D01*
X116471000Y-125464000D01*
X116471000Y-127266000D01*
G37*
G36*
X113134769Y-125467188D02*
G01*
X113292812Y-125498624D01*
X113456784Y-125566544D01*
X113604354Y-125665147D01*
X113729853Y-125790646D01*
X113828456Y-125938216D01*
X113896376Y-126102188D01*
X113931000Y-126276259D01*
X113931000Y-126453741D01*
X113896376Y-126627812D01*
X113828456Y-126791784D01*
X113729853Y-126939354D01*
X113604354Y-127064853D01*
X113456784Y-127163456D01*
X113292812Y-127231376D01*
X113143512Y-127261073D01*
X113118742Y-127266000D01*
X112941258Y-127266000D01*
X112916488Y-127261073D01*
X112767188Y-127231376D01*
X112603216Y-127163456D01*
X112455646Y-127064853D01*
X112330147Y-126939354D01*
X112231544Y-126791784D01*
X112163624Y-126627812D01*
X112129000Y-126453741D01*
X112129000Y-126276259D01*
X112163624Y-126102188D01*
X112231544Y-125938216D01*
X112330147Y-125790646D01*
X112455646Y-125665147D01*
X112603216Y-125566544D01*
X112767188Y-125498624D01*
X112925231Y-125467188D01*
X112941258Y-125464000D01*
X113118742Y-125464000D01*
X113134769Y-125467188D01*
G37*
G36*
X162673512Y-124833927D02*
G01*
X162822812Y-124863624D01*
X162986784Y-124931544D01*
X163134354Y-125030147D01*
X163259853Y-125155646D01*
X163358456Y-125303216D01*
X163426376Y-125467188D01*
X163461000Y-125641259D01*
X163461000Y-125818741D01*
X163426376Y-125992812D01*
X163358456Y-126156784D01*
X163259853Y-126304354D01*
X163134354Y-126429853D01*
X162986784Y-126528456D01*
X162822812Y-126596376D01*
X162673512Y-126626073D01*
X162648742Y-126631000D01*
X162471258Y-126631000D01*
X162446488Y-126626073D01*
X162297188Y-126596376D01*
X162133216Y-126528456D01*
X161985646Y-126429853D01*
X161860147Y-126304354D01*
X161761544Y-126156784D01*
X161693624Y-125992812D01*
X161659000Y-125818741D01*
X161659000Y-125641259D01*
X161693624Y-125467188D01*
X161761544Y-125303216D01*
X161860147Y-125155646D01*
X161985646Y-125030147D01*
X162133216Y-124931544D01*
X162297188Y-124863624D01*
X162446488Y-124833927D01*
X162471258Y-124829000D01*
X162648742Y-124829000D01*
X162673512Y-124833927D01*
G37*
G36*
X184898464Y-122536170D02*
G01*
X185162528Y-122645549D01*
X185400181Y-122804344D01*
X185602289Y-123006452D01*
X185761084Y-123244105D01*
X185870463Y-123508169D01*
X185926223Y-123788498D01*
X185926223Y-124074322D01*
X185870463Y-124354651D01*
X185761084Y-124618715D01*
X185602289Y-124856368D01*
X185400181Y-125058476D01*
X185162528Y-125217271D01*
X184898464Y-125326650D01*
X184618135Y-125382410D01*
X184332311Y-125382410D01*
X184051982Y-125326650D01*
X183787918Y-125217271D01*
X183550265Y-125058476D01*
X183348157Y-124856368D01*
X183189362Y-124618715D01*
X183079983Y-124354651D01*
X183024223Y-124074322D01*
X183024223Y-123788498D01*
X183079983Y-123508169D01*
X183189362Y-123244105D01*
X183348157Y-123006452D01*
X183550265Y-122804344D01*
X183787918Y-122645549D01*
X184051982Y-122536170D01*
X184332311Y-122480410D01*
X184618135Y-122480410D01*
X184898464Y-122536170D01*
G37*
G36*
X134098464Y-122536170D02*
G01*
X134362528Y-122645549D01*
X134600181Y-122804344D01*
X134802289Y-123006452D01*
X134961084Y-123244105D01*
X135070463Y-123508169D01*
X135126223Y-123788498D01*
X135126223Y-124074322D01*
X135070463Y-124354651D01*
X134961084Y-124618715D01*
X134802289Y-124856368D01*
X134600181Y-125058476D01*
X134362528Y-125217271D01*
X134098464Y-125326650D01*
X133818135Y-125382410D01*
X133532311Y-125382410D01*
X133251982Y-125326650D01*
X132987918Y-125217271D01*
X132750265Y-125058476D01*
X132548157Y-124856368D01*
X132389362Y-124618715D01*
X132279983Y-124354651D01*
X132224223Y-124074322D01*
X132224223Y-123788498D01*
X132279983Y-123508169D01*
X132389362Y-123244105D01*
X132548157Y-123006452D01*
X132750265Y-122804344D01*
X132987918Y-122645549D01*
X133251982Y-122536170D01*
X133532311Y-122480410D01*
X133818135Y-122480410D01*
X134098464Y-122536170D01*
G37*
G36*
X169008018Y-122536170D02*
G01*
X169272082Y-122645549D01*
X169509735Y-122804344D01*
X169711843Y-123006452D01*
X169870638Y-123244105D01*
X169980017Y-123508169D01*
X170035777Y-123788498D01*
X170035777Y-124074322D01*
X169980017Y-124354651D01*
X169870638Y-124618715D01*
X169711843Y-124856368D01*
X169509735Y-125058476D01*
X169272082Y-125217271D01*
X169008018Y-125326650D01*
X168727689Y-125382410D01*
X168441865Y-125382410D01*
X168161536Y-125326650D01*
X167897472Y-125217271D01*
X167659819Y-125058476D01*
X167457711Y-124856368D01*
X167298916Y-124618715D01*
X167189537Y-124354651D01*
X167133777Y-124074322D01*
X167133777Y-123788498D01*
X167189537Y-123508169D01*
X167298916Y-123244105D01*
X167457711Y-123006452D01*
X167659819Y-122804344D01*
X167897472Y-122645549D01*
X168161536Y-122536170D01*
X168441865Y-122480410D01*
X168727689Y-122480410D01*
X169008018Y-122536170D01*
G37*
G36*
X118208018Y-122536170D02*
G01*
X118472082Y-122645549D01*
X118709735Y-122804344D01*
X118911843Y-123006452D01*
X119070638Y-123244105D01*
X119180017Y-123508169D01*
X119235777Y-123788498D01*
X119235777Y-124074322D01*
X119180017Y-124354651D01*
X119070638Y-124618715D01*
X118911843Y-124856368D01*
X118709735Y-125058476D01*
X118472082Y-125217271D01*
X118208018Y-125326650D01*
X117927689Y-125382410D01*
X117641865Y-125382410D01*
X117361536Y-125326650D01*
X117097472Y-125217271D01*
X116859819Y-125058476D01*
X116657711Y-124856368D01*
X116498916Y-124618715D01*
X116389537Y-124354651D01*
X116333777Y-124074322D01*
X116333777Y-123788498D01*
X116389537Y-123508169D01*
X116498916Y-123244105D01*
X116657711Y-123006452D01*
X116859819Y-122804344D01*
X117097472Y-122645549D01*
X117361536Y-122536170D01*
X117641865Y-122480410D01*
X117927689Y-122480410D01*
X118208018Y-122536170D01*
G37*
G36*
X162673512Y-122293927D02*
G01*
X162822812Y-122323624D01*
X162986784Y-122391544D01*
X163134354Y-122490147D01*
X163259853Y-122615646D01*
X163358456Y-122763216D01*
X163426376Y-122927188D01*
X163461000Y-123101259D01*
X163461000Y-123278741D01*
X163426376Y-123452812D01*
X163358456Y-123616784D01*
X163259853Y-123764354D01*
X163134354Y-123889853D01*
X162986784Y-123988456D01*
X162822812Y-124056376D01*
X162673512Y-124086073D01*
X162648742Y-124091000D01*
X162471258Y-124091000D01*
X162446488Y-124086073D01*
X162297188Y-124056376D01*
X162133216Y-123988456D01*
X161985646Y-123889853D01*
X161860147Y-123764354D01*
X161761544Y-123616784D01*
X161693624Y-123452812D01*
X161659000Y-123278741D01*
X161659000Y-123101259D01*
X161693624Y-122927188D01*
X161761544Y-122763216D01*
X161860147Y-122615646D01*
X161985646Y-122490147D01*
X162133216Y-122391544D01*
X162297188Y-122323624D01*
X162446488Y-122293927D01*
X162471258Y-122289000D01*
X162648742Y-122289000D01*
X162673512Y-122293927D01*
G37*
G36*
X176953241Y-120774760D02*
G01*
X177217305Y-120884139D01*
X177454958Y-121042934D01*
X177657066Y-121245042D01*
X177815861Y-121482695D01*
X177925240Y-121746759D01*
X177981000Y-122027088D01*
X177981000Y-122312912D01*
X177925240Y-122593241D01*
X177815861Y-122857305D01*
X177657066Y-123094958D01*
X177454958Y-123297066D01*
X177217305Y-123455861D01*
X176953241Y-123565240D01*
X176672912Y-123621000D01*
X176387088Y-123621000D01*
X176106759Y-123565240D01*
X175842695Y-123455861D01*
X175605042Y-123297066D01*
X175402934Y-123094958D01*
X175244139Y-122857305D01*
X175134760Y-122593241D01*
X175079000Y-122312912D01*
X175079000Y-122027088D01*
X175134760Y-121746759D01*
X175244139Y-121482695D01*
X175402934Y-121245042D01*
X175605042Y-121042934D01*
X175842695Y-120884139D01*
X176106759Y-120774760D01*
X176387088Y-120719000D01*
X176672912Y-120719000D01*
X176953241Y-120774760D01*
G37*
G36*
X126153241Y-120774760D02*
G01*
X126417305Y-120884139D01*
X126654958Y-121042934D01*
X126857066Y-121245042D01*
X127015861Y-121482695D01*
X127125240Y-121746759D01*
X127181000Y-122027088D01*
X127181000Y-122312912D01*
X127125240Y-122593241D01*
X127015861Y-122857305D01*
X126857066Y-123094958D01*
X126654958Y-123297066D01*
X126417305Y-123455861D01*
X126153241Y-123565240D01*
X125872912Y-123621000D01*
X125587088Y-123621000D01*
X125306759Y-123565240D01*
X125042695Y-123455861D01*
X124805042Y-123297066D01*
X124602934Y-123094958D01*
X124444139Y-122857305D01*
X124334760Y-122593241D01*
X124279000Y-122312912D01*
X124279000Y-122027088D01*
X124334760Y-121746759D01*
X124444139Y-121482695D01*
X124602934Y-121245042D01*
X124805042Y-121042934D01*
X125042695Y-120884139D01*
X125306759Y-120774760D01*
X125587088Y-120719000D01*
X125872912Y-120719000D01*
X126153241Y-120774760D01*
G37*
G36*
X162673512Y-119753927D02*
G01*
X162822812Y-119783624D01*
X162986784Y-119851544D01*
X163134354Y-119950147D01*
X163259853Y-120075646D01*
X163358456Y-120223216D01*
X163426376Y-120387188D01*
X163461000Y-120561259D01*
X163461000Y-120738741D01*
X163426376Y-120912812D01*
X163358456Y-121076784D01*
X163259853Y-121224354D01*
X163134354Y-121349853D01*
X162986784Y-121448456D01*
X162822812Y-121516376D01*
X162673512Y-121546073D01*
X162648742Y-121551000D01*
X162471258Y-121551000D01*
X162446488Y-121546073D01*
X162297188Y-121516376D01*
X162133216Y-121448456D01*
X161985646Y-121349853D01*
X161860147Y-121224354D01*
X161761544Y-121076784D01*
X161693624Y-120912812D01*
X161659000Y-120738741D01*
X161659000Y-120561259D01*
X161693624Y-120387188D01*
X161761544Y-120223216D01*
X161860147Y-120075646D01*
X161985646Y-119950147D01*
X162133216Y-119851544D01*
X162297188Y-119783624D01*
X162446488Y-119753927D01*
X162471258Y-119749000D01*
X162648742Y-119749000D01*
X162673512Y-119753927D01*
G37*
G36*
X163461000Y-119011000D02*
G01*
X161659000Y-119011000D01*
X161659000Y-117209000D01*
X163461000Y-117209000D01*
X163461000Y-119011000D01*
G37*
G36*
X105523512Y-117213927D02*
G01*
X105672812Y-117243624D01*
X105836784Y-117311544D01*
X105984354Y-117410147D01*
X106109853Y-117535646D01*
X106208456Y-117683216D01*
X106276376Y-117847188D01*
X106311000Y-118021259D01*
X106311000Y-118198741D01*
X106276376Y-118372812D01*
X106208456Y-118536784D01*
X106109853Y-118684354D01*
X105984354Y-118809853D01*
X105836784Y-118908456D01*
X105672812Y-118976376D01*
X105523512Y-119006073D01*
X105498742Y-119011000D01*
X105321258Y-119011000D01*
X105296488Y-119006073D01*
X105147188Y-118976376D01*
X104983216Y-118908456D01*
X104835646Y-118809853D01*
X104710147Y-118684354D01*
X104611544Y-118536784D01*
X104543624Y-118372812D01*
X104509000Y-118198741D01*
X104509000Y-118021259D01*
X104543624Y-117847188D01*
X104611544Y-117683216D01*
X104710147Y-117535646D01*
X104835646Y-117410147D01*
X104983216Y-117311544D01*
X105147188Y-117243624D01*
X105296488Y-117213927D01*
X105321258Y-117209000D01*
X105498742Y-117209000D01*
X105523512Y-117213927D01*
G37*
G36*
X105523512Y-114673927D02*
G01*
X105672812Y-114703624D01*
X105836784Y-114771544D01*
X105984354Y-114870147D01*
X106109853Y-114995646D01*
X106208456Y-115143216D01*
X106276376Y-115307188D01*
X106311000Y-115481259D01*
X106311000Y-115658741D01*
X106276376Y-115832812D01*
X106208456Y-115996784D01*
X106109853Y-116144354D01*
X105984354Y-116269853D01*
X105836784Y-116368456D01*
X105672812Y-116436376D01*
X105523512Y-116466073D01*
X105498742Y-116471000D01*
X105321258Y-116471000D01*
X105296488Y-116466073D01*
X105147188Y-116436376D01*
X104983216Y-116368456D01*
X104835646Y-116269853D01*
X104710147Y-116144354D01*
X104611544Y-115996784D01*
X104543624Y-115832812D01*
X104509000Y-115658741D01*
X104509000Y-115481259D01*
X104543624Y-115307188D01*
X104611544Y-115143216D01*
X104710147Y-114995646D01*
X104835646Y-114870147D01*
X104983216Y-114771544D01*
X105147188Y-114703624D01*
X105296488Y-114673927D01*
X105321258Y-114669000D01*
X105498742Y-114669000D01*
X105523512Y-114673927D01*
G37*
G36*
X105523512Y-112133927D02*
G01*
X105672812Y-112163624D01*
X105836784Y-112231544D01*
X105984354Y-112330147D01*
X106109853Y-112455646D01*
X106208456Y-112603216D01*
X106276376Y-112767188D01*
X106311000Y-112941259D01*
X106311000Y-113118741D01*
X106276376Y-113292812D01*
X106208456Y-113456784D01*
X106109853Y-113604354D01*
X105984354Y-113729853D01*
X105836784Y-113828456D01*
X105672812Y-113896376D01*
X105523512Y-113926073D01*
X105498742Y-113931000D01*
X105321258Y-113931000D01*
X105296488Y-113926073D01*
X105147188Y-113896376D01*
X104983216Y-113828456D01*
X104835646Y-113729853D01*
X104710147Y-113604354D01*
X104611544Y-113456784D01*
X104543624Y-113292812D01*
X104509000Y-113118741D01*
X104509000Y-112941259D01*
X104543624Y-112767188D01*
X104611544Y-112603216D01*
X104710147Y-112455646D01*
X104835646Y-112330147D01*
X104983216Y-112231544D01*
X105147188Y-112163624D01*
X105296488Y-112133927D01*
X105321258Y-112129000D01*
X105498742Y-112129000D01*
X105523512Y-112133927D01*
G37*
G36*
X162673512Y-112133927D02*
G01*
X162822812Y-112163624D01*
X162986784Y-112231544D01*
X163134354Y-112330147D01*
X163259853Y-112455646D01*
X163358456Y-112603216D01*
X163426376Y-112767188D01*
X163461000Y-112941259D01*
X163461000Y-113118741D01*
X163426376Y-113292812D01*
X163358456Y-113456784D01*
X163259853Y-113604354D01*
X163134354Y-113729853D01*
X162986784Y-113828456D01*
X162822812Y-113896376D01*
X162673512Y-113926073D01*
X162648742Y-113931000D01*
X162471258Y-113931000D01*
X162446488Y-113926073D01*
X162297188Y-113896376D01*
X162133216Y-113828456D01*
X161985646Y-113729853D01*
X161860147Y-113604354D01*
X161761544Y-113456784D01*
X161693624Y-113292812D01*
X161659000Y-113118741D01*
X161659000Y-112941259D01*
X161693624Y-112767188D01*
X161761544Y-112603216D01*
X161860147Y-112455646D01*
X161985646Y-112330147D01*
X162133216Y-112231544D01*
X162297188Y-112163624D01*
X162446488Y-112133927D01*
X162471258Y-112129000D01*
X162648742Y-112129000D01*
X162673512Y-112133927D01*
G37*
G36*
X143191831Y-109419983D02*
G01*
X143455895Y-109529362D01*
X143693548Y-109688157D01*
X143895656Y-109890265D01*
X144054451Y-110127918D01*
X144163830Y-110391982D01*
X144219590Y-110672311D01*
X144219590Y-110958135D01*
X144163830Y-111238464D01*
X144054451Y-111502528D01*
X143895656Y-111740181D01*
X143693548Y-111942289D01*
X143455895Y-112101084D01*
X143191831Y-112210463D01*
X142911502Y-112266223D01*
X142625678Y-112266223D01*
X142345349Y-112210463D01*
X142081285Y-112101084D01*
X141843632Y-111942289D01*
X141641524Y-111740181D01*
X141482729Y-111502528D01*
X141373350Y-111238464D01*
X141317590Y-110958135D01*
X141317590Y-110672311D01*
X141373350Y-110391982D01*
X141482729Y-110127918D01*
X141641524Y-109890265D01*
X141843632Y-109688157D01*
X142081285Y-109529362D01*
X142345349Y-109419983D01*
X142625678Y-109364223D01*
X142911502Y-109364223D01*
X143191831Y-109419983D01*
G37*
G36*
X193991831Y-109419983D02*
G01*
X194255895Y-109529362D01*
X194493548Y-109688157D01*
X194695656Y-109890265D01*
X194854451Y-110127918D01*
X194963830Y-110391982D01*
X195019590Y-110672311D01*
X195019590Y-110958135D01*
X194963830Y-111238464D01*
X194854451Y-111502528D01*
X194695656Y-111740181D01*
X194493548Y-111942289D01*
X194255895Y-112101084D01*
X193991831Y-112210463D01*
X193711502Y-112266223D01*
X193425678Y-112266223D01*
X193145349Y-112210463D01*
X192881285Y-112101084D01*
X192643632Y-111942289D01*
X192441524Y-111740181D01*
X192282729Y-111502528D01*
X192173350Y-111238464D01*
X192117590Y-110958135D01*
X192117590Y-110672311D01*
X192173350Y-110391982D01*
X192282729Y-110127918D01*
X192441524Y-109890265D01*
X192643632Y-109688157D01*
X192881285Y-109529362D01*
X193145349Y-109419983D01*
X193425678Y-109364223D01*
X193711502Y-109364223D01*
X193991831Y-109419983D01*
G37*
G36*
X105523512Y-109593927D02*
G01*
X105672812Y-109623624D01*
X105836784Y-109691544D01*
X105984354Y-109790147D01*
X106109853Y-109915646D01*
X106208456Y-110063216D01*
X106276376Y-110227188D01*
X106311000Y-110401259D01*
X106311000Y-110578741D01*
X106276376Y-110752812D01*
X106208456Y-110916784D01*
X106109853Y-111064354D01*
X105984354Y-111189853D01*
X105836784Y-111288456D01*
X105672812Y-111356376D01*
X105523512Y-111386073D01*
X105498742Y-111391000D01*
X105321258Y-111391000D01*
X105296488Y-111386073D01*
X105147188Y-111356376D01*
X104983216Y-111288456D01*
X104835646Y-111189853D01*
X104710147Y-111064354D01*
X104611544Y-110916784D01*
X104543624Y-110752812D01*
X104509000Y-110578741D01*
X104509000Y-110401259D01*
X104543624Y-110227188D01*
X104611544Y-110063216D01*
X104710147Y-109915646D01*
X104835646Y-109790147D01*
X104983216Y-109691544D01*
X105147188Y-109623624D01*
X105296488Y-109593927D01*
X105321258Y-109589000D01*
X105498742Y-109589000D01*
X105523512Y-109593927D01*
G37*
G36*
X162673512Y-109593927D02*
G01*
X162822812Y-109623624D01*
X162986784Y-109691544D01*
X163134354Y-109790147D01*
X163259853Y-109915646D01*
X163358456Y-110063216D01*
X163426376Y-110227188D01*
X163461000Y-110401259D01*
X163461000Y-110578741D01*
X163426376Y-110752812D01*
X163358456Y-110916784D01*
X163259853Y-111064354D01*
X163134354Y-111189853D01*
X162986784Y-111288456D01*
X162822812Y-111356376D01*
X162673512Y-111386073D01*
X162648742Y-111391000D01*
X162471258Y-111391000D01*
X162446488Y-111386073D01*
X162297188Y-111356376D01*
X162133216Y-111288456D01*
X161985646Y-111189853D01*
X161860147Y-111064354D01*
X161761544Y-110916784D01*
X161693624Y-110752812D01*
X161659000Y-110578741D01*
X161659000Y-110401259D01*
X161693624Y-110227188D01*
X161761544Y-110063216D01*
X161860147Y-109915646D01*
X161985646Y-109790147D01*
X162133216Y-109691544D01*
X162297188Y-109623624D01*
X162446488Y-109593927D01*
X162471258Y-109589000D01*
X162648742Y-109589000D01*
X162673512Y-109593927D01*
G37*
G36*
X106311000Y-108851000D02*
G01*
X104509000Y-108851000D01*
X104509000Y-107049000D01*
X106311000Y-107049000D01*
X106311000Y-108851000D01*
G37*
G36*
X163461000Y-108851000D02*
G01*
X161659000Y-108851000D01*
X161659000Y-107049000D01*
X163461000Y-107049000D01*
X163461000Y-108851000D01*
G37*
G36*
X195753241Y-101474760D02*
G01*
X196017305Y-101584139D01*
X196254958Y-101742934D01*
X196457066Y-101945042D01*
X196615861Y-102182695D01*
X196725240Y-102446759D01*
X196781000Y-102727088D01*
X196781000Y-103012912D01*
X196725240Y-103293241D01*
X196615861Y-103557305D01*
X196457066Y-103794958D01*
X196254958Y-103997066D01*
X196017305Y-104155861D01*
X195753241Y-104265240D01*
X195472912Y-104321000D01*
X195187088Y-104321000D01*
X194906759Y-104265240D01*
X194642695Y-104155861D01*
X194405042Y-103997066D01*
X194202934Y-103794958D01*
X194044139Y-103557305D01*
X193934760Y-103293241D01*
X193879000Y-103012912D01*
X193879000Y-102727088D01*
X193934760Y-102446759D01*
X194044139Y-102182695D01*
X194202934Y-101945042D01*
X194405042Y-101742934D01*
X194642695Y-101584139D01*
X194906759Y-101474760D01*
X195187088Y-101419000D01*
X195472912Y-101419000D01*
X195753241Y-101474760D01*
G37*
G36*
X144953241Y-101474760D02*
G01*
X145217305Y-101584139D01*
X145454958Y-101742934D01*
X145657066Y-101945042D01*
X145815861Y-102182695D01*
X145925240Y-102446759D01*
X145981000Y-102727088D01*
X145981000Y-103012912D01*
X145925240Y-103293241D01*
X145815861Y-103557305D01*
X145657066Y-103794958D01*
X145454958Y-103997066D01*
X145217305Y-104155861D01*
X144953241Y-104265240D01*
X144672912Y-104321000D01*
X144387088Y-104321000D01*
X144106759Y-104265240D01*
X143842695Y-104155861D01*
X143605042Y-103997066D01*
X143402934Y-103794958D01*
X143244139Y-103557305D01*
X143134760Y-103293241D01*
X143079000Y-103012912D01*
X143079000Y-102727088D01*
X143134760Y-102446759D01*
X143244139Y-102182695D01*
X143402934Y-101945042D01*
X143605042Y-101742934D01*
X143842695Y-101584139D01*
X144106759Y-101474760D01*
X144387088Y-101419000D01*
X144672912Y-101419000D01*
X144953241Y-101474760D01*
G37*
G36*
X105523512Y-101973927D02*
G01*
X105672812Y-102003624D01*
X105836784Y-102071544D01*
X105984354Y-102170147D01*
X106109853Y-102295646D01*
X106208456Y-102443216D01*
X106276376Y-102607188D01*
X106311000Y-102781259D01*
X106311000Y-102958741D01*
X106276376Y-103132812D01*
X106208456Y-103296784D01*
X106109853Y-103444354D01*
X105984354Y-103569853D01*
X105836784Y-103668456D01*
X105672812Y-103736376D01*
X105523512Y-103766073D01*
X105498742Y-103771000D01*
X105321258Y-103771000D01*
X105296488Y-103766073D01*
X105147188Y-103736376D01*
X104983216Y-103668456D01*
X104835646Y-103569853D01*
X104710147Y-103444354D01*
X104611544Y-103296784D01*
X104543624Y-103132812D01*
X104509000Y-102958741D01*
X104509000Y-102781259D01*
X104543624Y-102607188D01*
X104611544Y-102443216D01*
X104710147Y-102295646D01*
X104835646Y-102170147D01*
X104983216Y-102071544D01*
X105147188Y-102003624D01*
X105296488Y-101973927D01*
X105321258Y-101969000D01*
X105498742Y-101969000D01*
X105523512Y-101973927D01*
G37*
G36*
X106311000Y-101231000D02*
G01*
X104509000Y-101231000D01*
X104509000Y-99429000D01*
X106311000Y-99429000D01*
X106311000Y-101231000D01*
G37*
G36*
X193991831Y-93529537D02*
G01*
X194255895Y-93638916D01*
X194493548Y-93797711D01*
X194695656Y-93999819D01*
X194854451Y-94237472D01*
X194963830Y-94501536D01*
X195019590Y-94781865D01*
X195019590Y-95067689D01*
X194963830Y-95348018D01*
X194854451Y-95612082D01*
X194695656Y-95849735D01*
X194493548Y-96051843D01*
X194255895Y-96210638D01*
X193991831Y-96320017D01*
X193711502Y-96375777D01*
X193425678Y-96375777D01*
X193145349Y-96320017D01*
X192881285Y-96210638D01*
X192643632Y-96051843D01*
X192441524Y-95849735D01*
X192282729Y-95612082D01*
X192173350Y-95348018D01*
X192117590Y-95067689D01*
X192117590Y-94781865D01*
X192173350Y-94501536D01*
X192282729Y-94237472D01*
X192441524Y-93999819D01*
X192643632Y-93797711D01*
X192881285Y-93638916D01*
X193145349Y-93529537D01*
X193425678Y-93473777D01*
X193711502Y-93473777D01*
X193991831Y-93529537D01*
G37*
G36*
X143191831Y-93529537D02*
G01*
X143455895Y-93638916D01*
X143693548Y-93797711D01*
X143895656Y-93999819D01*
X144054451Y-94237472D01*
X144163830Y-94501536D01*
X144219590Y-94781865D01*
X144219590Y-95067689D01*
X144163830Y-95348018D01*
X144054451Y-95612082D01*
X143895656Y-95849735D01*
X143693548Y-96051843D01*
X143455895Y-96210638D01*
X143191831Y-96320017D01*
X142911502Y-96375777D01*
X142625678Y-96375777D01*
X142345349Y-96320017D01*
X142081285Y-96210638D01*
X141843632Y-96051843D01*
X141641524Y-95849735D01*
X141482729Y-95612082D01*
X141373350Y-95348018D01*
X141317590Y-95067689D01*
X141317590Y-94781865D01*
X141373350Y-94501536D01*
X141482729Y-94237472D01*
X141641524Y-93999819D01*
X141843632Y-93797711D01*
X142081285Y-93638916D01*
X142345349Y-93529537D01*
X142625678Y-93473777D01*
X142911502Y-93473777D01*
X143191831Y-93529537D01*
G37*
G36*
X105523512Y-94353927D02*
G01*
X105672812Y-94383624D01*
X105836784Y-94451544D01*
X105984354Y-94550147D01*
X106109853Y-94675646D01*
X106208456Y-94823216D01*
X106276376Y-94987188D01*
X106311000Y-95161259D01*
X106311000Y-95338741D01*
X106276376Y-95512812D01*
X106208456Y-95676784D01*
X106109853Y-95824354D01*
X105984354Y-95949853D01*
X105836784Y-96048456D01*
X105672812Y-96116376D01*
X105523512Y-96146073D01*
X105498742Y-96151000D01*
X105321258Y-96151000D01*
X105296488Y-96146073D01*
X105147188Y-96116376D01*
X104983216Y-96048456D01*
X104835646Y-95949853D01*
X104710147Y-95824354D01*
X104611544Y-95676784D01*
X104543624Y-95512812D01*
X104509000Y-95338741D01*
X104509000Y-95161259D01*
X104543624Y-94987188D01*
X104611544Y-94823216D01*
X104710147Y-94675646D01*
X104835646Y-94550147D01*
X104983216Y-94451544D01*
X105147188Y-94383624D01*
X105296488Y-94353927D01*
X105321258Y-94349000D01*
X105498742Y-94349000D01*
X105523512Y-94353927D01*
G37*
G36*
X106311000Y-93611000D02*
G01*
X104509000Y-93611000D01*
X104509000Y-91809000D01*
X106311000Y-91809000D01*
X106311000Y-93611000D01*
G37*
G36*
X123552074Y-89829865D02*
G01*
X123589767Y-89841299D01*
X123624503Y-89859866D01*
X123654948Y-89884852D01*
X123679934Y-89915297D01*
X123698501Y-89950033D01*
X123709935Y-89987726D01*
X123714400Y-90033061D01*
X123714400Y-91119739D01*
X123709935Y-91165074D01*
X123698501Y-91202767D01*
X123679934Y-91237503D01*
X123654948Y-91267948D01*
X123624503Y-91292934D01*
X123589767Y-91311501D01*
X123552074Y-91322935D01*
X123506739Y-91327400D01*
X122670061Y-91327400D01*
X122624726Y-91322935D01*
X122587033Y-91311501D01*
X122552297Y-91292934D01*
X122521852Y-91267948D01*
X122496866Y-91237503D01*
X122478299Y-91202767D01*
X122466865Y-91165074D01*
X122462400Y-91119739D01*
X122462400Y-90033061D01*
X122466865Y-89987726D01*
X122478299Y-89950033D01*
X122496866Y-89915297D01*
X122521852Y-89884852D01*
X122552297Y-89859866D01*
X122587033Y-89841299D01*
X122624726Y-89829865D01*
X122670061Y-89825400D01*
X123506739Y-89825400D01*
X123552074Y-89829865D01*
G37*
G36*
X121502074Y-89829865D02*
G01*
X121539767Y-89841299D01*
X121574503Y-89859866D01*
X121604948Y-89884852D01*
X121629934Y-89915297D01*
X121648501Y-89950033D01*
X121659935Y-89987726D01*
X121664400Y-90033061D01*
X121664400Y-91119739D01*
X121659935Y-91165074D01*
X121648501Y-91202767D01*
X121629934Y-91237503D01*
X121604948Y-91267948D01*
X121574503Y-91292934D01*
X121539767Y-91311501D01*
X121502074Y-91322935D01*
X121456739Y-91327400D01*
X120620061Y-91327400D01*
X120574726Y-91322935D01*
X120537033Y-91311501D01*
X120502297Y-91292934D01*
X120471852Y-91267948D01*
X120446866Y-91237503D01*
X120428299Y-91202767D01*
X120416865Y-91165074D01*
X120412400Y-91119739D01*
X120412400Y-90033061D01*
X120416865Y-89987726D01*
X120428299Y-89950033D01*
X120446866Y-89915297D01*
X120471852Y-89884852D01*
X120502297Y-89859866D01*
X120537033Y-89841299D01*
X120574726Y-89829865D01*
X120620061Y-89825400D01*
X121456739Y-89825400D01*
X121502074Y-89829865D01*
G37*
G36*
X105523512Y-86733927D02*
G01*
X105672812Y-86763624D01*
X105836784Y-86831544D01*
X105984354Y-86930147D01*
X106109853Y-87055646D01*
X106208456Y-87203216D01*
X106276376Y-87367188D01*
X106311000Y-87541259D01*
X106311000Y-87718741D01*
X106276376Y-87892812D01*
X106208456Y-88056784D01*
X106109853Y-88204354D01*
X105984354Y-88329853D01*
X105836784Y-88428456D01*
X105672812Y-88496376D01*
X105523512Y-88526073D01*
X105498742Y-88531000D01*
X105321258Y-88531000D01*
X105296488Y-88526073D01*
X105147188Y-88496376D01*
X104983216Y-88428456D01*
X104835646Y-88329853D01*
X104710147Y-88204354D01*
X104611544Y-88056784D01*
X104543624Y-87892812D01*
X104509000Y-87718741D01*
X104509000Y-87541259D01*
X104543624Y-87367188D01*
X104611544Y-87203216D01*
X104710147Y-87055646D01*
X104835646Y-86930147D01*
X104983216Y-86831544D01*
X105147188Y-86763624D01*
X105296488Y-86733927D01*
X105321258Y-86729000D01*
X105498742Y-86729000D01*
X105523512Y-86733927D01*
G37*
G36*
X124023328Y-86976964D02*
G01*
X124044409Y-86983360D01*
X124063845Y-86993748D01*
X124080876Y-87007724D01*
X124094852Y-87024755D01*
X124105240Y-87044191D01*
X124111636Y-87065272D01*
X124114400Y-87093340D01*
X124114400Y-87557060D01*
X124111636Y-87585128D01*
X124105240Y-87606209D01*
X124094852Y-87625645D01*
X124080876Y-87642676D01*
X124063845Y-87656652D01*
X124044409Y-87667040D01*
X124023328Y-87673436D01*
X123995260Y-87676200D01*
X122181540Y-87676200D01*
X122153472Y-87673436D01*
X122132391Y-87667040D01*
X122112955Y-87656652D01*
X122095924Y-87642676D01*
X122081948Y-87625645D01*
X122071560Y-87606209D01*
X122065164Y-87585128D01*
X122062400Y-87557060D01*
X122062400Y-87093340D01*
X122065164Y-87065272D01*
X122071560Y-87044191D01*
X122081948Y-87024755D01*
X122095924Y-87007724D01*
X122112955Y-86993748D01*
X122132391Y-86983360D01*
X122153472Y-86976964D01*
X122181540Y-86974200D01*
X123995260Y-86974200D01*
X124023328Y-86976964D01*
G37*
G36*
X119073328Y-86976964D02*
G01*
X119094409Y-86983360D01*
X119113845Y-86993748D01*
X119130876Y-87007724D01*
X119144852Y-87024755D01*
X119155240Y-87044191D01*
X119161636Y-87065272D01*
X119164400Y-87093340D01*
X119164400Y-87557060D01*
X119161636Y-87585128D01*
X119155240Y-87606209D01*
X119144852Y-87625645D01*
X119130876Y-87642676D01*
X119113845Y-87656652D01*
X119094409Y-87667040D01*
X119073328Y-87673436D01*
X119045260Y-87676200D01*
X117231540Y-87676200D01*
X117203472Y-87673436D01*
X117182391Y-87667040D01*
X117162955Y-87656652D01*
X117145924Y-87642676D01*
X117131948Y-87625645D01*
X117121560Y-87606209D01*
X117115164Y-87585128D01*
X117112400Y-87557060D01*
X117112400Y-87093340D01*
X117115164Y-87065272D01*
X117121560Y-87044191D01*
X117131948Y-87024755D01*
X117145924Y-87007724D01*
X117162955Y-86993748D01*
X117182391Y-86983360D01*
X117203472Y-86976964D01*
X117231540Y-86974200D01*
X119045260Y-86974200D01*
X119073328Y-86976964D01*
G37*
G36*
X113983674Y-85359465D02*
G01*
X114021367Y-85370899D01*
X114056103Y-85389466D01*
X114086548Y-85414452D01*
X114111534Y-85444897D01*
X114130101Y-85479633D01*
X114141535Y-85517326D01*
X114146000Y-85562661D01*
X114146000Y-86649339D01*
X114141535Y-86694674D01*
X114130101Y-86732367D01*
X114111534Y-86767103D01*
X114086548Y-86797548D01*
X114056103Y-86822534D01*
X114021367Y-86841101D01*
X113983674Y-86852535D01*
X113938339Y-86857000D01*
X113101661Y-86857000D01*
X113056326Y-86852535D01*
X113018633Y-86841101D01*
X112983897Y-86822534D01*
X112953452Y-86797548D01*
X112928466Y-86767103D01*
X112909899Y-86732367D01*
X112898465Y-86694674D01*
X112894000Y-86649339D01*
X112894000Y-85562661D01*
X112898465Y-85517326D01*
X112909899Y-85479633D01*
X112928466Y-85444897D01*
X112953452Y-85414452D01*
X112983897Y-85389466D01*
X113018633Y-85370899D01*
X113056326Y-85359465D01*
X113101661Y-85355000D01*
X113938339Y-85355000D01*
X113983674Y-85359465D01*
G37*
G36*
X116033674Y-85359465D02*
G01*
X116071367Y-85370899D01*
X116106103Y-85389466D01*
X116136548Y-85414452D01*
X116161534Y-85444897D01*
X116180101Y-85479633D01*
X116191535Y-85517326D01*
X116196000Y-85562661D01*
X116196000Y-86649339D01*
X116191535Y-86694674D01*
X116180101Y-86732367D01*
X116161534Y-86767103D01*
X116136548Y-86797548D01*
X116106103Y-86822534D01*
X116071367Y-86841101D01*
X116033674Y-86852535D01*
X115988339Y-86857000D01*
X115151661Y-86857000D01*
X115106326Y-86852535D01*
X115068633Y-86841101D01*
X115033897Y-86822534D01*
X115003452Y-86797548D01*
X114978466Y-86767103D01*
X114959899Y-86732367D01*
X114948465Y-86694674D01*
X114944000Y-86649339D01*
X114944000Y-85562661D01*
X114948465Y-85517326D01*
X114959899Y-85479633D01*
X114978466Y-85444897D01*
X115003452Y-85414452D01*
X115033897Y-85389466D01*
X115068633Y-85370899D01*
X115106326Y-85359465D01*
X115151661Y-85355000D01*
X115988339Y-85355000D01*
X116033674Y-85359465D01*
G37*
G36*
X119073328Y-85706964D02*
G01*
X119094409Y-85713360D01*
X119113845Y-85723748D01*
X119130876Y-85737724D01*
X119144852Y-85754755D01*
X119155240Y-85774191D01*
X119161636Y-85795272D01*
X119164400Y-85823340D01*
X119164400Y-86287060D01*
X119161636Y-86315128D01*
X119155240Y-86336209D01*
X119144852Y-86355645D01*
X119130876Y-86372676D01*
X119113845Y-86386652D01*
X119094409Y-86397040D01*
X119073328Y-86403436D01*
X119045260Y-86406200D01*
X117231540Y-86406200D01*
X117203472Y-86403436D01*
X117182391Y-86397040D01*
X117162955Y-86386652D01*
X117145924Y-86372676D01*
X117131948Y-86355645D01*
X117121560Y-86336209D01*
X117115164Y-86315128D01*
X117112400Y-86287060D01*
X117112400Y-85823340D01*
X117115164Y-85795272D01*
X117121560Y-85774191D01*
X117131948Y-85754755D01*
X117145924Y-85737724D01*
X117162955Y-85723748D01*
X117182391Y-85713360D01*
X117203472Y-85706964D01*
X117231540Y-85704200D01*
X119045260Y-85704200D01*
X119073328Y-85706964D01*
G37*
G36*
X124023328Y-85706964D02*
G01*
X124044409Y-85713360D01*
X124063845Y-85723748D01*
X124080876Y-85737724D01*
X124094852Y-85754755D01*
X124105240Y-85774191D01*
X124111636Y-85795272D01*
X124114400Y-85823340D01*
X124114400Y-86287060D01*
X124111636Y-86315128D01*
X124105240Y-86336209D01*
X124094852Y-86355645D01*
X124080876Y-86372676D01*
X124063845Y-86386652D01*
X124044409Y-86397040D01*
X124023328Y-86403436D01*
X123995260Y-86406200D01*
X122181540Y-86406200D01*
X122153472Y-86403436D01*
X122132391Y-86397040D01*
X122112955Y-86386652D01*
X122095924Y-86372676D01*
X122081948Y-86355645D01*
X122071560Y-86336209D01*
X122065164Y-86315128D01*
X122062400Y-86287060D01*
X122062400Y-85823340D01*
X122065164Y-85795272D01*
X122071560Y-85774191D01*
X122081948Y-85754755D01*
X122095924Y-85737724D01*
X122112955Y-85723748D01*
X122132391Y-85713360D01*
X122153472Y-85706964D01*
X122181540Y-85704200D01*
X123995260Y-85704200D01*
X124023328Y-85706964D01*
G37*
G36*
X105523512Y-84193927D02*
G01*
X105672812Y-84223624D01*
X105836784Y-84291544D01*
X105984354Y-84390147D01*
X106109853Y-84515646D01*
X106208456Y-84663216D01*
X106276376Y-84827188D01*
X106311000Y-85001259D01*
X106311000Y-85178741D01*
X106276376Y-85352812D01*
X106208456Y-85516784D01*
X106109853Y-85664354D01*
X105984354Y-85789853D01*
X105836784Y-85888456D01*
X105672812Y-85956376D01*
X105523512Y-85986073D01*
X105498742Y-85991000D01*
X105321258Y-85991000D01*
X105296488Y-85986073D01*
X105147188Y-85956376D01*
X104983216Y-85888456D01*
X104835646Y-85789853D01*
X104710147Y-85664354D01*
X104611544Y-85516784D01*
X104543624Y-85352812D01*
X104509000Y-85178741D01*
X104509000Y-85001259D01*
X104543624Y-84827188D01*
X104611544Y-84663216D01*
X104710147Y-84515646D01*
X104835646Y-84390147D01*
X104983216Y-84291544D01*
X105147188Y-84223624D01*
X105296488Y-84193927D01*
X105321258Y-84189000D01*
X105498742Y-84189000D01*
X105523512Y-84193927D01*
G37*
G36*
X124023328Y-84436964D02*
G01*
X124044409Y-84443360D01*
X124063845Y-84453748D01*
X124080876Y-84467724D01*
X124094852Y-84484755D01*
X124105240Y-84504191D01*
X124111636Y-84525272D01*
X124114400Y-84553340D01*
X124114400Y-85017060D01*
X124111636Y-85045128D01*
X124105240Y-85066209D01*
X124094852Y-85085645D01*
X124080876Y-85102676D01*
X124063845Y-85116652D01*
X124044409Y-85127040D01*
X124023328Y-85133436D01*
X123995260Y-85136200D01*
X122181540Y-85136200D01*
X122153472Y-85133436D01*
X122132391Y-85127040D01*
X122112955Y-85116652D01*
X122095924Y-85102676D01*
X122081948Y-85085645D01*
X122071560Y-85066209D01*
X122065164Y-85045128D01*
X122062400Y-85017060D01*
X122062400Y-84553340D01*
X122065164Y-84525272D01*
X122071560Y-84504191D01*
X122081948Y-84484755D01*
X122095924Y-84467724D01*
X122112955Y-84453748D01*
X122132391Y-84443360D01*
X122153472Y-84436964D01*
X122181540Y-84434200D01*
X123995260Y-84434200D01*
X124023328Y-84436964D01*
G37*
G36*
X119073328Y-84436964D02*
G01*
X119094409Y-84443360D01*
X119113845Y-84453748D01*
X119130876Y-84467724D01*
X119144852Y-84484755D01*
X119155240Y-84504191D01*
X119161636Y-84525272D01*
X119164400Y-84553340D01*
X119164400Y-85017060D01*
X119161636Y-85045128D01*
X119155240Y-85066209D01*
X119144852Y-85085645D01*
X119130876Y-85102676D01*
X119113845Y-85116652D01*
X119094409Y-85127040D01*
X119073328Y-85133436D01*
X119045260Y-85136200D01*
X117231540Y-85136200D01*
X117203472Y-85133436D01*
X117182391Y-85127040D01*
X117162955Y-85116652D01*
X117145924Y-85102676D01*
X117131948Y-85085645D01*
X117121560Y-85066209D01*
X117115164Y-85045128D01*
X117112400Y-85017060D01*
X117112400Y-84553340D01*
X117115164Y-84525272D01*
X117121560Y-84504191D01*
X117131948Y-84484755D01*
X117145924Y-84467724D01*
X117162955Y-84453748D01*
X117182391Y-84443360D01*
X117203472Y-84436964D01*
X117231540Y-84434200D01*
X119045260Y-84434200D01*
X119073328Y-84436964D01*
G37*
G36*
X176953241Y-82174760D02*
G01*
X177217305Y-82284139D01*
X177454958Y-82442934D01*
X177657066Y-82645042D01*
X177815861Y-82882695D01*
X177925240Y-83146759D01*
X177981000Y-83427088D01*
X177981000Y-83712912D01*
X177925240Y-83993241D01*
X177815861Y-84257305D01*
X177657066Y-84494958D01*
X177454958Y-84697066D01*
X177217305Y-84855861D01*
X176953241Y-84965240D01*
X176672912Y-85021000D01*
X176387088Y-85021000D01*
X176106759Y-84965240D01*
X175842695Y-84855861D01*
X175605042Y-84697066D01*
X175402934Y-84494958D01*
X175244139Y-84257305D01*
X175134760Y-83993241D01*
X175079000Y-83712912D01*
X175079000Y-83427088D01*
X175134760Y-83146759D01*
X175244139Y-82882695D01*
X175402934Y-82645042D01*
X175605042Y-82442934D01*
X175842695Y-82284139D01*
X176106759Y-82174760D01*
X176387088Y-82119000D01*
X176672912Y-82119000D01*
X176953241Y-82174760D01*
G37*
G36*
X119073328Y-83166964D02*
G01*
X119094409Y-83173360D01*
X119113845Y-83183748D01*
X119130876Y-83197724D01*
X119144852Y-83214755D01*
X119155240Y-83234191D01*
X119161636Y-83255272D01*
X119164400Y-83283340D01*
X119164400Y-83747060D01*
X119161636Y-83775128D01*
X119155240Y-83796209D01*
X119144852Y-83815645D01*
X119130876Y-83832676D01*
X119113845Y-83846652D01*
X119094409Y-83857040D01*
X119073328Y-83863436D01*
X119045260Y-83866200D01*
X117231540Y-83866200D01*
X117203472Y-83863436D01*
X117182391Y-83857040D01*
X117162955Y-83846652D01*
X117145924Y-83832676D01*
X117131948Y-83815645D01*
X117121560Y-83796209D01*
X117115164Y-83775128D01*
X117112400Y-83747060D01*
X117112400Y-83283340D01*
X117115164Y-83255272D01*
X117121560Y-83234191D01*
X117131948Y-83214755D01*
X117145924Y-83197724D01*
X117162955Y-83183748D01*
X117182391Y-83173360D01*
X117203472Y-83166964D01*
X117231540Y-83164200D01*
X119045260Y-83164200D01*
X119073328Y-83166964D01*
G37*
G36*
X124023328Y-83166964D02*
G01*
X124044409Y-83173360D01*
X124063845Y-83183748D01*
X124080876Y-83197724D01*
X124094852Y-83214755D01*
X124105240Y-83234191D01*
X124111636Y-83255272D01*
X124114400Y-83283340D01*
X124114400Y-83747060D01*
X124111636Y-83775128D01*
X124105240Y-83796209D01*
X124094852Y-83815645D01*
X124080876Y-83832676D01*
X124063845Y-83846652D01*
X124044409Y-83857040D01*
X124023328Y-83863436D01*
X123995260Y-83866200D01*
X122181540Y-83866200D01*
X122153472Y-83863436D01*
X122132391Y-83857040D01*
X122112955Y-83846652D01*
X122095924Y-83832676D01*
X122081948Y-83815645D01*
X122071560Y-83796209D01*
X122065164Y-83775128D01*
X122062400Y-83747060D01*
X122062400Y-83283340D01*
X122065164Y-83255272D01*
X122071560Y-83234191D01*
X122081948Y-83214755D01*
X122095924Y-83197724D01*
X122112955Y-83183748D01*
X122132391Y-83173360D01*
X122153472Y-83166964D01*
X122181540Y-83164200D01*
X123995260Y-83164200D01*
X124023328Y-83166964D01*
G37*
G36*
X105523512Y-81653927D02*
G01*
X105672812Y-81683624D01*
X105836784Y-81751544D01*
X105984354Y-81850147D01*
X106109853Y-81975646D01*
X106208456Y-82123216D01*
X106276376Y-82287188D01*
X106311000Y-82461259D01*
X106311000Y-82638741D01*
X106276376Y-82812812D01*
X106208456Y-82976784D01*
X106109853Y-83124354D01*
X105984354Y-83249853D01*
X105836784Y-83348456D01*
X105672812Y-83416376D01*
X105523512Y-83446073D01*
X105498742Y-83451000D01*
X105321258Y-83451000D01*
X105296488Y-83446073D01*
X105147188Y-83416376D01*
X104983216Y-83348456D01*
X104835646Y-83249853D01*
X104710147Y-83124354D01*
X104611544Y-82976784D01*
X104543624Y-82812812D01*
X104509000Y-82638741D01*
X104509000Y-82461259D01*
X104543624Y-82287188D01*
X104611544Y-82123216D01*
X104710147Y-81975646D01*
X104835646Y-81850147D01*
X104983216Y-81751544D01*
X105147188Y-81683624D01*
X105296488Y-81653927D01*
X105321258Y-81649000D01*
X105498742Y-81649000D01*
X105523512Y-81653927D01*
G37*
G36*
X184898464Y-80413350D02*
G01*
X185162528Y-80522729D01*
X185400181Y-80681524D01*
X185602289Y-80883632D01*
X185761084Y-81121285D01*
X185870463Y-81385349D01*
X185926223Y-81665678D01*
X185926223Y-81951502D01*
X185870463Y-82231831D01*
X185761084Y-82495895D01*
X185602289Y-82733548D01*
X185400181Y-82935656D01*
X185162528Y-83094451D01*
X184898464Y-83203830D01*
X184618135Y-83259590D01*
X184332311Y-83259590D01*
X184051982Y-83203830D01*
X183787918Y-83094451D01*
X183550265Y-82935656D01*
X183348157Y-82733548D01*
X183189362Y-82495895D01*
X183079983Y-82231831D01*
X183024223Y-81951502D01*
X183024223Y-81665678D01*
X183079983Y-81385349D01*
X183189362Y-81121285D01*
X183348157Y-80883632D01*
X183550265Y-80681524D01*
X183787918Y-80522729D01*
X184051982Y-80413350D01*
X184332311Y-80357590D01*
X184618135Y-80357590D01*
X184898464Y-80413350D01*
G37*
G36*
X169008018Y-80413350D02*
G01*
X169272082Y-80522729D01*
X169509735Y-80681524D01*
X169711843Y-80883632D01*
X169870638Y-81121285D01*
X169980017Y-81385349D01*
X170035777Y-81665678D01*
X170035777Y-81951502D01*
X169980017Y-82231831D01*
X169870638Y-82495895D01*
X169711843Y-82733548D01*
X169509735Y-82935656D01*
X169272082Y-83094451D01*
X169008018Y-83203830D01*
X168727689Y-83259590D01*
X168441865Y-83259590D01*
X168161536Y-83203830D01*
X167897472Y-83094451D01*
X167659819Y-82935656D01*
X167457711Y-82733548D01*
X167298916Y-82495895D01*
X167189537Y-82231831D01*
X167133777Y-81951502D01*
X167133777Y-81665678D01*
X167189537Y-81385349D01*
X167298916Y-81121285D01*
X167457711Y-80883632D01*
X167659819Y-80681524D01*
X167897472Y-80522729D01*
X168161536Y-80413350D01*
X168441865Y-80357590D01*
X168727689Y-80357590D01*
X169008018Y-80413350D01*
G37*
G36*
X120674474Y-80584265D02*
G01*
X120712167Y-80595699D01*
X120746903Y-80614266D01*
X120777348Y-80639252D01*
X120802334Y-80669697D01*
X120820901Y-80704433D01*
X120832335Y-80742126D01*
X120836800Y-80787461D01*
X120836800Y-81874139D01*
X120832335Y-81919474D01*
X120820901Y-81957167D01*
X120802334Y-81991903D01*
X120777348Y-82022348D01*
X120746903Y-82047334D01*
X120712167Y-82065901D01*
X120674474Y-82077335D01*
X120629139Y-82081800D01*
X119792461Y-82081800D01*
X119747126Y-82077335D01*
X119709433Y-82065901D01*
X119674697Y-82047334D01*
X119644252Y-82022348D01*
X119619266Y-81991903D01*
X119600699Y-81957167D01*
X119589265Y-81919474D01*
X119584800Y-81874139D01*
X119584800Y-80787461D01*
X119589265Y-80742126D01*
X119600699Y-80704433D01*
X119619266Y-80669697D01*
X119644252Y-80639252D01*
X119674697Y-80614266D01*
X119709433Y-80595699D01*
X119747126Y-80584265D01*
X119792461Y-80579800D01*
X120629139Y-80579800D01*
X120674474Y-80584265D01*
G37*
G36*
X118624474Y-80584265D02*
G01*
X118662167Y-80595699D01*
X118696903Y-80614266D01*
X118727348Y-80639252D01*
X118752334Y-80669697D01*
X118770901Y-80704433D01*
X118782335Y-80742126D01*
X118786800Y-80787461D01*
X118786800Y-81874139D01*
X118782335Y-81919474D01*
X118770901Y-81957167D01*
X118752334Y-81991903D01*
X118727348Y-82022348D01*
X118696903Y-82047334D01*
X118662167Y-82065901D01*
X118624474Y-82077335D01*
X118579139Y-82081800D01*
X117742461Y-82081800D01*
X117697126Y-82077335D01*
X117659433Y-82065901D01*
X117624697Y-82047334D01*
X117594252Y-82022348D01*
X117569266Y-81991903D01*
X117550699Y-81957167D01*
X117539265Y-81919474D01*
X117534800Y-81874139D01*
X117534800Y-80787461D01*
X117539265Y-80742126D01*
X117550699Y-80704433D01*
X117569266Y-80669697D01*
X117594252Y-80639252D01*
X117624697Y-80614266D01*
X117659433Y-80595699D01*
X117697126Y-80584265D01*
X117742461Y-80579800D01*
X118579139Y-80579800D01*
X118624474Y-80584265D01*
G37*
G36*
X106311000Y-80911000D02*
G01*
X104509000Y-80911000D01*
X104509000Y-79109000D01*
X106311000Y-79109000D01*
X106311000Y-80911000D01*
G37*
G36*
X128487824Y-76782583D02*
G01*
X128526184Y-76791527D01*
X128562057Y-76807782D01*
X128594077Y-76830726D01*
X128620996Y-76859469D01*
X128641797Y-76892919D01*
X128657842Y-76935550D01*
X128674539Y-76997865D01*
X128674540Y-76997867D01*
X128918680Y-77909009D01*
X128939097Y-77985209D01*
X128946517Y-78030152D01*
X128945229Y-78069516D01*
X128936284Y-78107877D01*
X128920030Y-78143752D01*
X128897087Y-78175768D01*
X128868343Y-78202689D01*
X128834896Y-78223488D01*
X128792255Y-78239537D01*
X128729943Y-78256233D01*
X128729944Y-78256233D01*
X128046403Y-78439388D01*
X128046386Y-78439391D01*
X127984082Y-78456085D01*
X127939141Y-78463505D01*
X127899776Y-78462217D01*
X127861416Y-78453273D01*
X127825543Y-78437018D01*
X127793523Y-78414074D01*
X127766604Y-78385331D01*
X127745803Y-78351881D01*
X127729758Y-78309250D01*
X127706778Y-78223488D01*
X127465201Y-77321910D01*
X127465201Y-77321907D01*
X127448503Y-77259591D01*
X127441083Y-77214648D01*
X127442371Y-77175284D01*
X127451316Y-77136923D01*
X127467570Y-77101048D01*
X127490513Y-77069032D01*
X127519257Y-77042111D01*
X127552704Y-77021312D01*
X127595345Y-77005263D01*
X127687956Y-76980448D01*
X128341197Y-76805412D01*
X128341214Y-76805409D01*
X128403518Y-76788715D01*
X128448459Y-76781295D01*
X128487824Y-76782583D01*
G37*
G36*
X123158082Y-76712515D02*
G01*
X123220386Y-76729209D01*
X123220403Y-76729212D01*
X123831363Y-76892919D01*
X123966255Y-76929063D01*
X124008896Y-76945112D01*
X124042343Y-76965911D01*
X124071086Y-76992830D01*
X124094030Y-77024850D01*
X124110285Y-77060723D01*
X124119229Y-77099083D01*
X124120517Y-77138448D01*
X124113097Y-77183391D01*
X124096399Y-77245707D01*
X124096399Y-77245710D01*
X123854822Y-78147288D01*
X123831842Y-78233050D01*
X123815797Y-78275681D01*
X123794996Y-78309131D01*
X123768075Y-78337875D01*
X123736059Y-78360818D01*
X123700184Y-78377072D01*
X123661823Y-78386017D01*
X123622459Y-78387305D01*
X123577518Y-78379885D01*
X123515214Y-78363191D01*
X123515197Y-78363188D01*
X122831656Y-78180033D01*
X122831657Y-78180033D01*
X122769345Y-78163337D01*
X122726704Y-78147288D01*
X122693257Y-78126489D01*
X122664514Y-78099570D01*
X122641570Y-78067550D01*
X122625315Y-78031677D01*
X122616371Y-77993317D01*
X122615083Y-77953952D01*
X122622503Y-77909009D01*
X122642975Y-77832608D01*
X122887060Y-76921667D01*
X122887061Y-76921665D01*
X122903758Y-76859350D01*
X122919803Y-76816719D01*
X122940604Y-76783269D01*
X122967525Y-76754525D01*
X122999541Y-76731582D01*
X123035416Y-76715328D01*
X123073777Y-76706383D01*
X123113141Y-76705095D01*
X123158082Y-76712515D01*
G37*
G36*
X130467972Y-76252003D02*
G01*
X130506332Y-76260947D01*
X130542205Y-76277202D01*
X130574225Y-76300146D01*
X130601144Y-76328889D01*
X130621945Y-76362339D01*
X130637990Y-76404970D01*
X130654687Y-76467285D01*
X130654688Y-76467287D01*
X130898828Y-77378429D01*
X130919245Y-77454629D01*
X130926665Y-77499572D01*
X130925377Y-77538936D01*
X130916432Y-77577297D01*
X130900178Y-77613172D01*
X130877235Y-77645188D01*
X130848491Y-77672109D01*
X130815044Y-77692908D01*
X130772403Y-77708957D01*
X130710091Y-77725653D01*
X130710092Y-77725653D01*
X130026551Y-77908808D01*
X130026534Y-77908811D01*
X129964230Y-77925505D01*
X129919289Y-77932925D01*
X129879924Y-77931637D01*
X129841564Y-77922693D01*
X129805691Y-77906438D01*
X129773671Y-77883494D01*
X129746752Y-77854751D01*
X129725951Y-77821301D01*
X129709906Y-77778670D01*
X129686926Y-77692908D01*
X129445349Y-76791330D01*
X129445349Y-76791327D01*
X129428651Y-76729011D01*
X129421231Y-76684068D01*
X129422519Y-76644704D01*
X129431464Y-76606343D01*
X129447718Y-76570468D01*
X129470661Y-76538452D01*
X129499405Y-76511531D01*
X129532852Y-76490732D01*
X129575493Y-76474683D01*
X129668104Y-76449868D01*
X130321345Y-76274832D01*
X130321362Y-76274829D01*
X130383666Y-76258135D01*
X130428607Y-76250715D01*
X130467972Y-76252003D01*
G37*
G36*
X121177934Y-76181935D02*
G01*
X121240238Y-76198629D01*
X121240255Y-76198632D01*
X121851215Y-76362339D01*
X121986107Y-76398483D01*
X122028748Y-76414532D01*
X122062195Y-76435331D01*
X122090938Y-76462250D01*
X122113882Y-76494270D01*
X122130137Y-76530143D01*
X122139081Y-76568503D01*
X122140369Y-76607868D01*
X122132949Y-76652811D01*
X122116251Y-76715127D01*
X122116251Y-76715130D01*
X121874674Y-77616708D01*
X121851694Y-77702470D01*
X121835649Y-77745101D01*
X121814848Y-77778551D01*
X121787927Y-77807295D01*
X121755911Y-77830238D01*
X121720036Y-77846492D01*
X121681675Y-77855437D01*
X121642311Y-77856725D01*
X121597370Y-77849305D01*
X121535066Y-77832611D01*
X121535049Y-77832608D01*
X120851508Y-77649453D01*
X120851509Y-77649453D01*
X120789197Y-77632757D01*
X120746556Y-77616708D01*
X120713109Y-77595909D01*
X120684366Y-77568990D01*
X120661422Y-77536970D01*
X120645167Y-77501097D01*
X120636223Y-77462737D01*
X120634935Y-77423372D01*
X120642355Y-77378429D01*
X120674198Y-77259591D01*
X120906912Y-76391087D01*
X120906913Y-76391085D01*
X120923610Y-76328770D01*
X120939655Y-76286139D01*
X120960456Y-76252689D01*
X120987377Y-76223945D01*
X121019393Y-76201002D01*
X121055268Y-76184748D01*
X121093629Y-76175803D01*
X121132993Y-76174515D01*
X121177934Y-76181935D01*
G37*
G36*
X126153241Y-74374760D02*
G01*
X126417305Y-74484139D01*
X126654958Y-74642934D01*
X126857066Y-74845042D01*
X127015861Y-75082695D01*
X127125240Y-75346759D01*
X127181000Y-75627088D01*
X127181000Y-75912912D01*
X127125240Y-76193241D01*
X127015861Y-76457305D01*
X126857066Y-76694958D01*
X126654958Y-76897066D01*
X126417305Y-77055861D01*
X126153241Y-77165240D01*
X125872912Y-77221000D01*
X125587088Y-77221000D01*
X125306759Y-77165240D01*
X125042695Y-77055861D01*
X124805042Y-76897066D01*
X124602934Y-76694958D01*
X124444139Y-76457305D01*
X124334760Y-76193241D01*
X124279000Y-75912912D01*
X124279000Y-75627088D01*
X124334760Y-75346759D01*
X124444139Y-75082695D01*
X124602934Y-74845042D01*
X124805042Y-74642934D01*
X125042695Y-74484139D01*
X125306759Y-74374760D01*
X125587088Y-74319000D01*
X125872912Y-74319000D01*
X126153241Y-74374760D01*
G37*
G36*
X154571000Y-75831000D02*
G01*
X152769000Y-75831000D01*
X152769000Y-74029000D01*
X154571000Y-74029000D01*
X154571000Y-75831000D01*
G37*
G36*
X105523512Y-74033927D02*
G01*
X105672812Y-74063624D01*
X105836784Y-74131544D01*
X105984354Y-74230147D01*
X106109853Y-74355646D01*
X106208456Y-74503216D01*
X106276376Y-74667188D01*
X106311000Y-74841259D01*
X106311000Y-75018741D01*
X106276376Y-75192812D01*
X106208456Y-75356784D01*
X106109853Y-75504354D01*
X105984354Y-75629853D01*
X105836784Y-75728456D01*
X105672812Y-75796376D01*
X105523512Y-75826073D01*
X105498742Y-75831000D01*
X105321258Y-75831000D01*
X105296488Y-75826073D01*
X105147188Y-75796376D01*
X104983216Y-75728456D01*
X104835646Y-75629853D01*
X104710147Y-75504354D01*
X104611544Y-75356784D01*
X104543624Y-75192812D01*
X104509000Y-75018741D01*
X104509000Y-74841259D01*
X104543624Y-74667188D01*
X104611544Y-74503216D01*
X104710147Y-74355646D01*
X104835646Y-74230147D01*
X104983216Y-74131544D01*
X105147188Y-74063624D01*
X105296488Y-74033927D01*
X105321258Y-74029000D01*
X105498742Y-74029000D01*
X105523512Y-74033927D01*
G37*
G36*
X166001000Y-75831000D02*
G01*
X164199000Y-75831000D01*
X164199000Y-74029000D01*
X166001000Y-74029000D01*
X166001000Y-75831000D01*
G37*
G36*
X162673512Y-74033927D02*
G01*
X162822812Y-74063624D01*
X162986784Y-74131544D01*
X163134354Y-74230147D01*
X163259853Y-74355646D01*
X163358456Y-74503216D01*
X163426376Y-74667188D01*
X163461000Y-74841259D01*
X163461000Y-75018741D01*
X163426376Y-75192812D01*
X163358456Y-75356784D01*
X163259853Y-75504354D01*
X163134354Y-75629853D01*
X162986784Y-75728456D01*
X162822812Y-75796376D01*
X162673512Y-75826073D01*
X162648742Y-75831000D01*
X162471258Y-75831000D01*
X162446488Y-75826073D01*
X162297188Y-75796376D01*
X162133216Y-75728456D01*
X161985646Y-75629853D01*
X161860147Y-75504354D01*
X161761544Y-75356784D01*
X161693624Y-75192812D01*
X161659000Y-75018741D01*
X161659000Y-74841259D01*
X161693624Y-74667188D01*
X161761544Y-74503216D01*
X161860147Y-74355646D01*
X161985646Y-74230147D01*
X162133216Y-74131544D01*
X162297188Y-74063624D01*
X162446488Y-74033927D01*
X162471258Y-74029000D01*
X162648742Y-74029000D01*
X162673512Y-74033927D01*
G37*
G36*
X151243512Y-74033927D02*
G01*
X151392812Y-74063624D01*
X151556784Y-74131544D01*
X151704354Y-74230147D01*
X151829853Y-74355646D01*
X151928456Y-74503216D01*
X151996376Y-74667188D01*
X152031000Y-74841259D01*
X152031000Y-75018741D01*
X151996376Y-75192812D01*
X151928456Y-75356784D01*
X151829853Y-75504354D01*
X151704354Y-75629853D01*
X151556784Y-75728456D01*
X151392812Y-75796376D01*
X151243512Y-75826073D01*
X151218742Y-75831000D01*
X151041258Y-75831000D01*
X151016488Y-75826073D01*
X150867188Y-75796376D01*
X150703216Y-75728456D01*
X150555646Y-75629853D01*
X150430147Y-75504354D01*
X150331544Y-75356784D01*
X150263624Y-75192812D01*
X150229000Y-75018741D01*
X150229000Y-74841259D01*
X150263624Y-74667188D01*
X150331544Y-74503216D01*
X150430147Y-74355646D01*
X150555646Y-74230147D01*
X150703216Y-74131544D01*
X150867188Y-74063624D01*
X151016488Y-74033927D01*
X151041258Y-74029000D01*
X151218742Y-74029000D01*
X151243512Y-74033927D01*
G37*
G36*
X131653240Y-72901039D02*
G01*
X131917304Y-73010418D01*
X132154957Y-73169213D01*
X132357065Y-73371321D01*
X132515860Y-73608974D01*
X132625239Y-73873038D01*
X132680999Y-74153367D01*
X132680999Y-74439191D01*
X132625239Y-74719520D01*
X132515860Y-74983584D01*
X132357065Y-75221237D01*
X132154957Y-75423345D01*
X131917304Y-75582140D01*
X131653240Y-75691519D01*
X131372911Y-75747279D01*
X131087087Y-75747279D01*
X130806758Y-75691519D01*
X130542694Y-75582140D01*
X130305041Y-75423345D01*
X130102933Y-75221237D01*
X129944138Y-74983584D01*
X129834759Y-74719520D01*
X129778999Y-74439191D01*
X129778999Y-74153367D01*
X129834759Y-73873038D01*
X129944138Y-73608974D01*
X130102933Y-73371321D01*
X130305041Y-73169213D01*
X130542694Y-73010418D01*
X130806758Y-72901039D01*
X131087087Y-72845279D01*
X131372911Y-72845279D01*
X131653240Y-72901039D01*
G37*
G36*
X120653241Y-72901039D02*
G01*
X120917305Y-73010418D01*
X121154958Y-73169213D01*
X121357066Y-73371321D01*
X121515861Y-73608974D01*
X121625240Y-73873038D01*
X121681000Y-74153367D01*
X121681000Y-74439191D01*
X121625240Y-74719520D01*
X121515861Y-74983584D01*
X121357066Y-75221237D01*
X121154958Y-75423345D01*
X120917305Y-75582140D01*
X120653241Y-75691519D01*
X120372912Y-75747279D01*
X120087088Y-75747279D01*
X119806759Y-75691519D01*
X119542695Y-75582140D01*
X119305042Y-75423345D01*
X119102934Y-75221237D01*
X118944139Y-74983584D01*
X118834760Y-74719520D01*
X118779000Y-74439191D01*
X118779000Y-74153367D01*
X118834760Y-73873038D01*
X118944139Y-73608974D01*
X119102934Y-73371321D01*
X119305042Y-73169213D01*
X119542695Y-73010418D01*
X119806759Y-72901039D01*
X120087088Y-72845279D01*
X120372912Y-72845279D01*
X120653241Y-72901039D01*
G37*
G36*
X134113607Y-73764852D02*
G01*
X134151300Y-73776286D01*
X134186036Y-73794853D01*
X134221249Y-73823751D01*
X134989649Y-74592151D01*
X135018547Y-74627364D01*
X135037114Y-74662100D01*
X135048548Y-74699793D01*
X135052408Y-74738988D01*
X135048548Y-74778183D01*
X135037114Y-74815876D01*
X135018547Y-74850612D01*
X134989649Y-74885825D01*
X134398025Y-75477449D01*
X134362812Y-75506347D01*
X134328076Y-75524914D01*
X134290383Y-75536348D01*
X134251188Y-75540208D01*
X134211993Y-75536348D01*
X134174300Y-75524914D01*
X134139564Y-75506347D01*
X134104351Y-75477449D01*
X133335951Y-74709049D01*
X133307053Y-74673836D01*
X133288486Y-74639100D01*
X133277052Y-74601407D01*
X133273192Y-74562212D01*
X133277052Y-74523017D01*
X133288486Y-74485324D01*
X133307053Y-74450588D01*
X133335951Y-74415375D01*
X133927575Y-73823751D01*
X133962788Y-73794853D01*
X133997524Y-73776286D01*
X134035217Y-73764852D01*
X134074412Y-73760992D01*
X134113607Y-73764852D01*
G37*
G36*
X135563175Y-72315284D02*
G01*
X135600868Y-72326718D01*
X135635604Y-72345285D01*
X135670817Y-72374183D01*
X136439217Y-73142583D01*
X136468115Y-73177796D01*
X136486682Y-73212532D01*
X136498116Y-73250225D01*
X136501976Y-73289420D01*
X136498116Y-73328615D01*
X136486682Y-73366308D01*
X136468115Y-73401044D01*
X136439217Y-73436257D01*
X135847593Y-74027881D01*
X135812380Y-74056779D01*
X135777644Y-74075346D01*
X135739951Y-74086780D01*
X135700756Y-74090640D01*
X135661561Y-74086780D01*
X135623868Y-74075346D01*
X135589132Y-74056779D01*
X135553919Y-74027881D01*
X134785519Y-73259481D01*
X134756621Y-73224268D01*
X134738054Y-73189532D01*
X134726620Y-73151839D01*
X134722760Y-73112644D01*
X134726620Y-73073449D01*
X134738054Y-73035756D01*
X134756621Y-73001020D01*
X134785519Y-72965807D01*
X135377143Y-72374183D01*
X135412356Y-72345285D01*
X135447092Y-72326718D01*
X135484785Y-72315284D01*
X135523980Y-72311424D01*
X135563175Y-72315284D01*
G37*
G36*
X153783512Y-71493927D02*
G01*
X153932812Y-71523624D01*
X154096784Y-71591544D01*
X154244354Y-71690147D01*
X154369853Y-71815646D01*
X154468456Y-71963216D01*
X154536376Y-72127188D01*
X154571000Y-72301259D01*
X154571000Y-72478741D01*
X154536376Y-72652812D01*
X154468456Y-72816784D01*
X154369853Y-72964354D01*
X154244354Y-73089853D01*
X154096784Y-73188456D01*
X153932812Y-73256376D01*
X153783512Y-73286073D01*
X153758742Y-73291000D01*
X153581258Y-73291000D01*
X153556488Y-73286073D01*
X153407188Y-73256376D01*
X153243216Y-73188456D01*
X153095646Y-73089853D01*
X152970147Y-72964354D01*
X152871544Y-72816784D01*
X152803624Y-72652812D01*
X152769000Y-72478741D01*
X152769000Y-72301259D01*
X152803624Y-72127188D01*
X152871544Y-71963216D01*
X152970147Y-71815646D01*
X153095646Y-71690147D01*
X153243216Y-71591544D01*
X153407188Y-71523624D01*
X153556488Y-71493927D01*
X153581258Y-71489000D01*
X153758742Y-71489000D01*
X153783512Y-71493927D01*
G37*
G36*
X162673512Y-71493927D02*
G01*
X162822812Y-71523624D01*
X162986784Y-71591544D01*
X163134354Y-71690147D01*
X163259853Y-71815646D01*
X163358456Y-71963216D01*
X163426376Y-72127188D01*
X163461000Y-72301259D01*
X163461000Y-72478741D01*
X163426376Y-72652812D01*
X163358456Y-72816784D01*
X163259853Y-72964354D01*
X163134354Y-73089853D01*
X162986784Y-73188456D01*
X162822812Y-73256376D01*
X162673512Y-73286073D01*
X162648742Y-73291000D01*
X162471258Y-73291000D01*
X162446488Y-73286073D01*
X162297188Y-73256376D01*
X162133216Y-73188456D01*
X161985646Y-73089853D01*
X161860147Y-72964354D01*
X161761544Y-72816784D01*
X161693624Y-72652812D01*
X161659000Y-72478741D01*
X161659000Y-72301259D01*
X161693624Y-72127188D01*
X161761544Y-71963216D01*
X161860147Y-71815646D01*
X161985646Y-71690147D01*
X162133216Y-71591544D01*
X162297188Y-71523624D01*
X162446488Y-71493927D01*
X162471258Y-71489000D01*
X162648742Y-71489000D01*
X162673512Y-71493927D01*
G37*
G36*
X151243512Y-71493927D02*
G01*
X151392812Y-71523624D01*
X151556784Y-71591544D01*
X151704354Y-71690147D01*
X151829853Y-71815646D01*
X151928456Y-71963216D01*
X151996376Y-72127188D01*
X152031000Y-72301259D01*
X152031000Y-72478741D01*
X151996376Y-72652812D01*
X151928456Y-72816784D01*
X151829853Y-72964354D01*
X151704354Y-73089853D01*
X151556784Y-73188456D01*
X151392812Y-73256376D01*
X151243512Y-73286073D01*
X151218742Y-73291000D01*
X151041258Y-73291000D01*
X151016488Y-73286073D01*
X150867188Y-73256376D01*
X150703216Y-73188456D01*
X150555646Y-73089853D01*
X150430147Y-72964354D01*
X150331544Y-72816784D01*
X150263624Y-72652812D01*
X150229000Y-72478741D01*
X150229000Y-72301259D01*
X150263624Y-72127188D01*
X150331544Y-71963216D01*
X150430147Y-71815646D01*
X150555646Y-71690147D01*
X150703216Y-71591544D01*
X150867188Y-71523624D01*
X151016488Y-71493927D01*
X151041258Y-71489000D01*
X151218742Y-71489000D01*
X151243512Y-71493927D01*
G37*
G36*
X165213512Y-71493927D02*
G01*
X165362812Y-71523624D01*
X165526784Y-71591544D01*
X165674354Y-71690147D01*
X165799853Y-71815646D01*
X165898456Y-71963216D01*
X165966376Y-72127188D01*
X166001000Y-72301259D01*
X166001000Y-72478741D01*
X165966376Y-72652812D01*
X165898456Y-72816784D01*
X165799853Y-72964354D01*
X165674354Y-73089853D01*
X165526784Y-73188456D01*
X165362812Y-73256376D01*
X165213512Y-73286073D01*
X165188742Y-73291000D01*
X165011258Y-73291000D01*
X164986488Y-73286073D01*
X164837188Y-73256376D01*
X164673216Y-73188456D01*
X164525646Y-73089853D01*
X164400147Y-72964354D01*
X164301544Y-72816784D01*
X164233624Y-72652812D01*
X164199000Y-72478741D01*
X164199000Y-72301259D01*
X164233624Y-72127188D01*
X164301544Y-71963216D01*
X164400147Y-71815646D01*
X164525646Y-71690147D01*
X164673216Y-71591544D01*
X164837188Y-71523624D01*
X164986488Y-71493927D01*
X165011258Y-71489000D01*
X165188742Y-71489000D01*
X165213512Y-71493927D01*
G37*
G36*
X105523512Y-71493927D02*
G01*
X105672812Y-71523624D01*
X105836784Y-71591544D01*
X105984354Y-71690147D01*
X106109853Y-71815646D01*
X106208456Y-71963216D01*
X106276376Y-72127188D01*
X106311000Y-72301259D01*
X106311000Y-72478741D01*
X106276376Y-72652812D01*
X106208456Y-72816784D01*
X106109853Y-72964354D01*
X105984354Y-73089853D01*
X105836784Y-73188456D01*
X105672812Y-73256376D01*
X105523512Y-73286073D01*
X105498742Y-73291000D01*
X105321258Y-73291000D01*
X105296488Y-73286073D01*
X105147188Y-73256376D01*
X104983216Y-73188456D01*
X104835646Y-73089853D01*
X104710147Y-72964354D01*
X104611544Y-72816784D01*
X104543624Y-72652812D01*
X104509000Y-72478741D01*
X104509000Y-72301259D01*
X104543624Y-72127188D01*
X104611544Y-71963216D01*
X104710147Y-71815646D01*
X104835646Y-71690147D01*
X104983216Y-71591544D01*
X105147188Y-71523624D01*
X105296488Y-71493927D01*
X105321258Y-71489000D01*
X105498742Y-71489000D01*
X105523512Y-71493927D01*
G37*
G36*
X116626962Y-68874760D02*
G01*
X116891026Y-68984139D01*
X117128679Y-69142934D01*
X117330787Y-69345042D01*
X117489582Y-69582695D01*
X117598961Y-69846759D01*
X117654721Y-70127088D01*
X117654721Y-70412912D01*
X117598961Y-70693241D01*
X117489582Y-70957305D01*
X117330787Y-71194958D01*
X117128679Y-71397066D01*
X116891026Y-71555861D01*
X116626962Y-71665240D01*
X116346633Y-71721000D01*
X116060809Y-71721000D01*
X115780480Y-71665240D01*
X115516416Y-71555861D01*
X115278763Y-71397066D01*
X115076655Y-71194958D01*
X114917860Y-70957305D01*
X114808481Y-70693241D01*
X114752721Y-70412912D01*
X114752721Y-70127088D01*
X114808481Y-69846759D01*
X114917860Y-69582695D01*
X115076655Y-69345042D01*
X115278763Y-69142934D01*
X115516416Y-68984139D01*
X115780480Y-68874760D01*
X116060809Y-68819000D01*
X116346633Y-68819000D01*
X116626962Y-68874760D01*
G37*
G36*
X135679520Y-68874759D02*
G01*
X135943584Y-68984138D01*
X136181237Y-69142933D01*
X136383345Y-69345041D01*
X136542140Y-69582694D01*
X136651519Y-69846758D01*
X136707279Y-70127087D01*
X136707279Y-70412911D01*
X136651519Y-70693240D01*
X136542140Y-70957304D01*
X136383345Y-71194957D01*
X136181237Y-71397065D01*
X135943584Y-71555860D01*
X135679520Y-71665239D01*
X135399191Y-71720999D01*
X135113367Y-71720999D01*
X134833038Y-71665239D01*
X134568974Y-71555860D01*
X134331321Y-71397065D01*
X134129213Y-71194957D01*
X133970418Y-70957304D01*
X133861039Y-70693240D01*
X133805279Y-70412911D01*
X133805279Y-70127087D01*
X133861039Y-69846758D01*
X133970418Y-69582694D01*
X134129213Y-69345041D01*
X134331321Y-69142933D01*
X134568974Y-68984138D01*
X134833038Y-68874759D01*
X135113367Y-68818999D01*
X135399191Y-68818999D01*
X135679520Y-68874759D01*
G37*
G36*
X151243512Y-68953927D02*
G01*
X151392812Y-68983624D01*
X151556784Y-69051544D01*
X151704354Y-69150147D01*
X151829853Y-69275646D01*
X151928456Y-69423216D01*
X151996376Y-69587188D01*
X152031000Y-69761259D01*
X152031000Y-69938741D01*
X151996376Y-70112812D01*
X151928456Y-70276784D01*
X151829853Y-70424354D01*
X151704354Y-70549853D01*
X151556784Y-70648456D01*
X151392812Y-70716376D01*
X151243512Y-70746073D01*
X151218742Y-70751000D01*
X151041258Y-70751000D01*
X151016488Y-70746073D01*
X150867188Y-70716376D01*
X150703216Y-70648456D01*
X150555646Y-70549853D01*
X150430147Y-70424354D01*
X150331544Y-70276784D01*
X150263624Y-70112812D01*
X150229000Y-69938741D01*
X150229000Y-69761259D01*
X150263624Y-69587188D01*
X150331544Y-69423216D01*
X150430147Y-69275646D01*
X150555646Y-69150147D01*
X150703216Y-69051544D01*
X150867188Y-68983624D01*
X151016488Y-68953927D01*
X151041258Y-68949000D01*
X151218742Y-68949000D01*
X151243512Y-68953927D01*
G37*
G36*
X165213512Y-68953927D02*
G01*
X165362812Y-68983624D01*
X165526784Y-69051544D01*
X165674354Y-69150147D01*
X165799853Y-69275646D01*
X165898456Y-69423216D01*
X165966376Y-69587188D01*
X166001000Y-69761259D01*
X166001000Y-69938741D01*
X165966376Y-70112812D01*
X165898456Y-70276784D01*
X165799853Y-70424354D01*
X165674354Y-70549853D01*
X165526784Y-70648456D01*
X165362812Y-70716376D01*
X165213512Y-70746073D01*
X165188742Y-70751000D01*
X165011258Y-70751000D01*
X164986488Y-70746073D01*
X164837188Y-70716376D01*
X164673216Y-70648456D01*
X164525646Y-70549853D01*
X164400147Y-70424354D01*
X164301544Y-70276784D01*
X164233624Y-70112812D01*
X164199000Y-69938741D01*
X164199000Y-69761259D01*
X164233624Y-69587188D01*
X164301544Y-69423216D01*
X164400147Y-69275646D01*
X164525646Y-69150147D01*
X164673216Y-69051544D01*
X164837188Y-68983624D01*
X164986488Y-68953927D01*
X165011258Y-68949000D01*
X165188742Y-68949000D01*
X165213512Y-68953927D01*
G37*
G36*
X162673512Y-68953927D02*
G01*
X162822812Y-68983624D01*
X162986784Y-69051544D01*
X163134354Y-69150147D01*
X163259853Y-69275646D01*
X163358456Y-69423216D01*
X163426376Y-69587188D01*
X163461000Y-69761259D01*
X163461000Y-69938741D01*
X163426376Y-70112812D01*
X163358456Y-70276784D01*
X163259853Y-70424354D01*
X163134354Y-70549853D01*
X162986784Y-70648456D01*
X162822812Y-70716376D01*
X162673512Y-70746073D01*
X162648742Y-70751000D01*
X162471258Y-70751000D01*
X162446488Y-70746073D01*
X162297188Y-70716376D01*
X162133216Y-70648456D01*
X161985646Y-70549853D01*
X161860147Y-70424354D01*
X161761544Y-70276784D01*
X161693624Y-70112812D01*
X161659000Y-69938741D01*
X161659000Y-69761259D01*
X161693624Y-69587188D01*
X161761544Y-69423216D01*
X161860147Y-69275646D01*
X161985646Y-69150147D01*
X162133216Y-69051544D01*
X162297188Y-68983624D01*
X162446488Y-68953927D01*
X162471258Y-68949000D01*
X162648742Y-68949000D01*
X162673512Y-68953927D01*
G37*
G36*
X153783512Y-68953927D02*
G01*
X153932812Y-68983624D01*
X154096784Y-69051544D01*
X154244354Y-69150147D01*
X154369853Y-69275646D01*
X154468456Y-69423216D01*
X154536376Y-69587188D01*
X154571000Y-69761259D01*
X154571000Y-69938741D01*
X154536376Y-70112812D01*
X154468456Y-70276784D01*
X154369853Y-70424354D01*
X154244354Y-70549853D01*
X154096784Y-70648456D01*
X153932812Y-70716376D01*
X153783512Y-70746073D01*
X153758742Y-70751000D01*
X153581258Y-70751000D01*
X153556488Y-70746073D01*
X153407188Y-70716376D01*
X153243216Y-70648456D01*
X153095646Y-70549853D01*
X152970147Y-70424354D01*
X152871544Y-70276784D01*
X152803624Y-70112812D01*
X152769000Y-69938741D01*
X152769000Y-69761259D01*
X152803624Y-69587188D01*
X152871544Y-69423216D01*
X152970147Y-69275646D01*
X153095646Y-69150147D01*
X153243216Y-69051544D01*
X153407188Y-68983624D01*
X153556488Y-68953927D01*
X153581258Y-68949000D01*
X153758742Y-68949000D01*
X153783512Y-68953927D01*
G37*
G36*
X105523512Y-68953927D02*
G01*
X105672812Y-68983624D01*
X105836784Y-69051544D01*
X105984354Y-69150147D01*
X106109853Y-69275646D01*
X106208456Y-69423216D01*
X106276376Y-69587188D01*
X106311000Y-69761259D01*
X106311000Y-69938741D01*
X106276376Y-70112812D01*
X106208456Y-70276784D01*
X106109853Y-70424354D01*
X105984354Y-70549853D01*
X105836784Y-70648456D01*
X105672812Y-70716376D01*
X105523512Y-70746073D01*
X105498742Y-70751000D01*
X105321258Y-70751000D01*
X105296488Y-70746073D01*
X105147188Y-70716376D01*
X104983216Y-70648456D01*
X104835646Y-70549853D01*
X104710147Y-70424354D01*
X104611544Y-70276784D01*
X104543624Y-70112812D01*
X104509000Y-69938741D01*
X104509000Y-69761259D01*
X104543624Y-69587188D01*
X104611544Y-69423216D01*
X104710147Y-69275646D01*
X104835646Y-69150147D01*
X104983216Y-69051544D01*
X105147188Y-68983624D01*
X105296488Y-68953927D01*
X105321258Y-68949000D01*
X105498742Y-68949000D01*
X105523512Y-68953927D01*
G37*
G36*
X137609991Y-68418903D02*
G01*
X137672307Y-68435601D01*
X137672310Y-68435601D01*
X138597333Y-68683460D01*
X138597335Y-68683461D01*
X138659650Y-68700158D01*
X138702281Y-68716203D01*
X138735731Y-68737004D01*
X138764475Y-68763925D01*
X138787418Y-68795941D01*
X138803672Y-68831816D01*
X138812617Y-68870177D01*
X138813905Y-68909541D01*
X138806485Y-68954482D01*
X138789791Y-69016786D01*
X138789788Y-69016803D01*
X138614752Y-69670044D01*
X138589937Y-69762655D01*
X138573888Y-69805296D01*
X138553089Y-69838743D01*
X138526170Y-69867486D01*
X138494150Y-69890430D01*
X138458277Y-69906685D01*
X138419917Y-69915629D01*
X138380552Y-69916917D01*
X138335609Y-69909497D01*
X138273293Y-69892799D01*
X138273290Y-69892799D01*
X137348267Y-69644940D01*
X137348265Y-69644939D01*
X137285950Y-69628242D01*
X137243319Y-69612197D01*
X137209869Y-69591396D01*
X137181125Y-69564475D01*
X137158182Y-69532459D01*
X137141928Y-69496584D01*
X137132983Y-69458223D01*
X137131695Y-69418859D01*
X137139115Y-69373918D01*
X137155809Y-69311614D01*
X137155812Y-69311597D01*
X137338967Y-68628056D01*
X137355663Y-68565745D01*
X137371712Y-68523104D01*
X137392511Y-68489657D01*
X137419430Y-68460914D01*
X137451450Y-68437970D01*
X137487323Y-68421715D01*
X137525683Y-68412771D01*
X137565048Y-68411483D01*
X137609991Y-68418903D01*
G37*
G36*
X109928674Y-67833465D02*
G01*
X109966367Y-67844899D01*
X110001103Y-67863466D01*
X110031548Y-67888452D01*
X110056534Y-67918897D01*
X110075101Y-67953633D01*
X110086535Y-67991326D01*
X110091000Y-68036661D01*
X110091000Y-69123339D01*
X110086535Y-69168674D01*
X110075101Y-69206367D01*
X110056534Y-69241103D01*
X110031548Y-69271548D01*
X110001103Y-69296534D01*
X109966367Y-69315101D01*
X109928674Y-69326535D01*
X109883339Y-69331000D01*
X109046661Y-69331000D01*
X109001326Y-69326535D01*
X108963633Y-69315101D01*
X108928897Y-69296534D01*
X108898452Y-69271548D01*
X108873466Y-69241103D01*
X108854899Y-69206367D01*
X108843465Y-69168674D01*
X108839000Y-69123339D01*
X108839000Y-68036661D01*
X108843465Y-67991326D01*
X108854899Y-67953633D01*
X108873466Y-67918897D01*
X108898452Y-67888452D01*
X108928897Y-67863466D01*
X108963633Y-67844899D01*
X109001326Y-67833465D01*
X109046661Y-67829000D01*
X109883339Y-67829000D01*
X109928674Y-67833465D01*
G37*
G36*
X111978674Y-67833465D02*
G01*
X112016367Y-67844899D01*
X112051103Y-67863466D01*
X112081548Y-67888452D01*
X112106534Y-67918897D01*
X112125101Y-67953633D01*
X112136535Y-67991326D01*
X112141000Y-68036661D01*
X112141000Y-69123339D01*
X112136535Y-69168674D01*
X112125101Y-69206367D01*
X112106534Y-69241103D01*
X112081548Y-69271548D01*
X112051103Y-69296534D01*
X112016367Y-69315101D01*
X111978674Y-69326535D01*
X111933339Y-69331000D01*
X111096661Y-69331000D01*
X111051326Y-69326535D01*
X111013633Y-69315101D01*
X110978897Y-69296534D01*
X110948452Y-69271548D01*
X110923466Y-69241103D01*
X110904899Y-69206367D01*
X110893465Y-69168674D01*
X110889000Y-69123339D01*
X110889000Y-68036661D01*
X110893465Y-67991326D01*
X110904899Y-67953633D01*
X110923466Y-67918897D01*
X110948452Y-67888452D01*
X110978897Y-67863466D01*
X111013633Y-67844899D01*
X111051326Y-67833465D01*
X111096661Y-67829000D01*
X111933339Y-67829000D01*
X111978674Y-67833465D01*
G37*
G36*
X151243512Y-66413927D02*
G01*
X151392812Y-66443624D01*
X151556784Y-66511544D01*
X151704354Y-66610147D01*
X151829853Y-66735646D01*
X151928456Y-66883216D01*
X151996376Y-67047188D01*
X152031000Y-67221259D01*
X152031000Y-67398741D01*
X151996376Y-67572812D01*
X151928456Y-67736784D01*
X151829853Y-67884354D01*
X151704354Y-68009853D01*
X151556784Y-68108456D01*
X151392812Y-68176376D01*
X151243512Y-68206073D01*
X151218742Y-68211000D01*
X151041258Y-68211000D01*
X151016488Y-68206073D01*
X150867188Y-68176376D01*
X150703216Y-68108456D01*
X150555646Y-68009853D01*
X150430147Y-67884354D01*
X150331544Y-67736784D01*
X150263624Y-67572812D01*
X150229000Y-67398741D01*
X150229000Y-67221259D01*
X150263624Y-67047188D01*
X150331544Y-66883216D01*
X150430147Y-66735646D01*
X150555646Y-66610147D01*
X150703216Y-66511544D01*
X150867188Y-66443624D01*
X151016488Y-66413927D01*
X151041258Y-66409000D01*
X151218742Y-66409000D01*
X151243512Y-66413927D01*
G37*
G36*
X105523512Y-66413927D02*
G01*
X105672812Y-66443624D01*
X105836784Y-66511544D01*
X105984354Y-66610147D01*
X106109853Y-66735646D01*
X106208456Y-66883216D01*
X106276376Y-67047188D01*
X106311000Y-67221259D01*
X106311000Y-67398741D01*
X106276376Y-67572812D01*
X106208456Y-67736784D01*
X106109853Y-67884354D01*
X105984354Y-68009853D01*
X105836784Y-68108456D01*
X105672812Y-68176376D01*
X105523512Y-68206073D01*
X105498742Y-68211000D01*
X105321258Y-68211000D01*
X105296488Y-68206073D01*
X105147188Y-68176376D01*
X104983216Y-68108456D01*
X104835646Y-68009853D01*
X104710147Y-67884354D01*
X104611544Y-67736784D01*
X104543624Y-67572812D01*
X104509000Y-67398741D01*
X104509000Y-67221259D01*
X104543624Y-67047188D01*
X104611544Y-66883216D01*
X104710147Y-66735646D01*
X104835646Y-66610147D01*
X104983216Y-66511544D01*
X105147188Y-66443624D01*
X105296488Y-66413927D01*
X105321258Y-66409000D01*
X105498742Y-66409000D01*
X105523512Y-66413927D01*
G37*
G36*
X165213512Y-66413927D02*
G01*
X165362812Y-66443624D01*
X165526784Y-66511544D01*
X165674354Y-66610147D01*
X165799853Y-66735646D01*
X165898456Y-66883216D01*
X165966376Y-67047188D01*
X166001000Y-67221259D01*
X166001000Y-67398741D01*
X165966376Y-67572812D01*
X165898456Y-67736784D01*
X165799853Y-67884354D01*
X165674354Y-68009853D01*
X165526784Y-68108456D01*
X165362812Y-68176376D01*
X165213512Y-68206073D01*
X165188742Y-68211000D01*
X165011258Y-68211000D01*
X164986488Y-68206073D01*
X164837188Y-68176376D01*
X164673216Y-68108456D01*
X164525646Y-68009853D01*
X164400147Y-67884354D01*
X164301544Y-67736784D01*
X164233624Y-67572812D01*
X164199000Y-67398741D01*
X164199000Y-67221259D01*
X164233624Y-67047188D01*
X164301544Y-66883216D01*
X164400147Y-66735646D01*
X164525646Y-66610147D01*
X164673216Y-66511544D01*
X164837188Y-66443624D01*
X164986488Y-66413927D01*
X165011258Y-66409000D01*
X165188742Y-66409000D01*
X165213512Y-66413927D01*
G37*
G36*
X153783512Y-66413927D02*
G01*
X153932812Y-66443624D01*
X154096784Y-66511544D01*
X154244354Y-66610147D01*
X154369853Y-66735646D01*
X154468456Y-66883216D01*
X154536376Y-67047188D01*
X154571000Y-67221259D01*
X154571000Y-67398741D01*
X154536376Y-67572812D01*
X154468456Y-67736784D01*
X154369853Y-67884354D01*
X154244354Y-68009853D01*
X154096784Y-68108456D01*
X153932812Y-68176376D01*
X153783512Y-68206073D01*
X153758742Y-68211000D01*
X153581258Y-68211000D01*
X153556488Y-68206073D01*
X153407188Y-68176376D01*
X153243216Y-68108456D01*
X153095646Y-68009853D01*
X152970147Y-67884354D01*
X152871544Y-67736784D01*
X152803624Y-67572812D01*
X152769000Y-67398741D01*
X152769000Y-67221259D01*
X152803624Y-67047188D01*
X152871544Y-66883216D01*
X152970147Y-66735646D01*
X153095646Y-66610147D01*
X153243216Y-66511544D01*
X153407188Y-66443624D01*
X153556488Y-66413927D01*
X153581258Y-66409000D01*
X153758742Y-66409000D01*
X153783512Y-66413927D01*
G37*
G36*
X162673512Y-66413927D02*
G01*
X162822812Y-66443624D01*
X162986784Y-66511544D01*
X163134354Y-66610147D01*
X163259853Y-66735646D01*
X163358456Y-66883216D01*
X163426376Y-67047188D01*
X163461000Y-67221259D01*
X163461000Y-67398741D01*
X163426376Y-67572812D01*
X163358456Y-67736784D01*
X163259853Y-67884354D01*
X163134354Y-68009853D01*
X162986784Y-68108456D01*
X162822812Y-68176376D01*
X162673512Y-68206073D01*
X162648742Y-68211000D01*
X162471258Y-68211000D01*
X162446488Y-68206073D01*
X162297188Y-68176376D01*
X162133216Y-68108456D01*
X161985646Y-68009853D01*
X161860147Y-67884354D01*
X161761544Y-67736784D01*
X161693624Y-67572812D01*
X161659000Y-67398741D01*
X161659000Y-67221259D01*
X161693624Y-67047188D01*
X161761544Y-66883216D01*
X161860147Y-66735646D01*
X161985646Y-66610147D01*
X162133216Y-66511544D01*
X162297188Y-66443624D01*
X162446488Y-66413927D01*
X162471258Y-66409000D01*
X162648742Y-66409000D01*
X162673512Y-66413927D01*
G37*
G36*
X138140571Y-66438755D02*
G01*
X138202887Y-66455453D01*
X138202890Y-66455453D01*
X139127913Y-66703312D01*
X139127915Y-66703313D01*
X139190230Y-66720010D01*
X139232861Y-66736055D01*
X139266311Y-66756856D01*
X139295055Y-66783777D01*
X139317998Y-66815793D01*
X139334252Y-66851668D01*
X139343197Y-66890029D01*
X139344485Y-66929393D01*
X139337065Y-66974334D01*
X139320371Y-67036638D01*
X139320368Y-67036655D01*
X139145332Y-67689896D01*
X139120517Y-67782507D01*
X139104468Y-67825148D01*
X139083669Y-67858595D01*
X139056750Y-67887338D01*
X139024730Y-67910282D01*
X138988857Y-67926537D01*
X138950497Y-67935481D01*
X138911132Y-67936769D01*
X138866189Y-67929349D01*
X138803873Y-67912651D01*
X138803870Y-67912651D01*
X137878847Y-67664792D01*
X137878845Y-67664791D01*
X137816530Y-67648094D01*
X137773899Y-67632049D01*
X137740449Y-67611248D01*
X137711705Y-67584327D01*
X137688762Y-67552311D01*
X137672508Y-67516436D01*
X137663563Y-67478075D01*
X137662275Y-67438711D01*
X137669695Y-67393770D01*
X137686389Y-67331466D01*
X137686392Y-67331449D01*
X137869547Y-66647908D01*
X137886243Y-66585597D01*
X137902292Y-66542956D01*
X137923091Y-66509509D01*
X137950010Y-66480766D01*
X137982030Y-66457822D01*
X138017903Y-66441567D01*
X138056263Y-66432623D01*
X138095628Y-66431335D01*
X138140571Y-66438755D01*
G37*
G36*
X115153241Y-63374760D02*
G01*
X115417305Y-63484139D01*
X115654958Y-63642934D01*
X115857066Y-63845042D01*
X116015861Y-64082695D01*
X116125240Y-64346759D01*
X116181000Y-64627088D01*
X116181000Y-64912912D01*
X116125240Y-65193241D01*
X116015861Y-65457305D01*
X115857066Y-65694958D01*
X115654958Y-65897066D01*
X115417305Y-66055861D01*
X115153241Y-66165240D01*
X114872912Y-66221000D01*
X114587088Y-66221000D01*
X114306759Y-66165240D01*
X114042695Y-66055861D01*
X113805042Y-65897066D01*
X113602934Y-65694958D01*
X113444139Y-65457305D01*
X113334760Y-65193241D01*
X113279000Y-64912912D01*
X113279000Y-64627088D01*
X113334760Y-64346759D01*
X113444139Y-64082695D01*
X113602934Y-63845042D01*
X113805042Y-63642934D01*
X114042695Y-63484139D01*
X114306759Y-63374760D01*
X114587088Y-63319000D01*
X114872912Y-63319000D01*
X115153241Y-63374760D01*
G37*
G36*
X137153241Y-63374760D02*
G01*
X137417305Y-63484139D01*
X137654958Y-63642934D01*
X137857066Y-63845042D01*
X138015861Y-64082695D01*
X138125240Y-64346759D01*
X138181000Y-64627088D01*
X138181000Y-64912912D01*
X138125240Y-65193241D01*
X138015861Y-65457305D01*
X137857066Y-65694958D01*
X137654958Y-65897066D01*
X137417305Y-66055861D01*
X137153241Y-66165240D01*
X136872912Y-66221000D01*
X136587088Y-66221000D01*
X136306759Y-66165240D01*
X136042695Y-66055861D01*
X135805042Y-65897066D01*
X135602934Y-65694958D01*
X135444139Y-65457305D01*
X135334760Y-65193241D01*
X135279000Y-64912912D01*
X135279000Y-64627088D01*
X135334760Y-64346759D01*
X135444139Y-64082695D01*
X135602934Y-63845042D01*
X135805042Y-63642934D01*
X136042695Y-63484139D01*
X136306759Y-63374760D01*
X136587088Y-63319000D01*
X136872912Y-63319000D01*
X137153241Y-63374760D01*
G37*
G36*
X153783512Y-63873927D02*
G01*
X153932812Y-63903624D01*
X154096784Y-63971544D01*
X154244354Y-64070147D01*
X154369853Y-64195646D01*
X154468456Y-64343216D01*
X154536376Y-64507188D01*
X154571000Y-64681259D01*
X154571000Y-64858741D01*
X154536376Y-65032812D01*
X154468456Y-65196784D01*
X154369853Y-65344354D01*
X154244354Y-65469853D01*
X154096784Y-65568456D01*
X153932812Y-65636376D01*
X153783512Y-65666073D01*
X153758742Y-65671000D01*
X153581258Y-65671000D01*
X153556488Y-65666073D01*
X153407188Y-65636376D01*
X153243216Y-65568456D01*
X153095646Y-65469853D01*
X152970147Y-65344354D01*
X152871544Y-65196784D01*
X152803624Y-65032812D01*
X152769000Y-64858741D01*
X152769000Y-64681259D01*
X152803624Y-64507188D01*
X152871544Y-64343216D01*
X152970147Y-64195646D01*
X153095646Y-64070147D01*
X153243216Y-63971544D01*
X153407188Y-63903624D01*
X153556488Y-63873927D01*
X153581258Y-63869000D01*
X153758742Y-63869000D01*
X153783512Y-63873927D01*
G37*
G36*
X162673512Y-63873927D02*
G01*
X162822812Y-63903624D01*
X162986784Y-63971544D01*
X163134354Y-64070147D01*
X163259853Y-64195646D01*
X163358456Y-64343216D01*
X163426376Y-64507188D01*
X163461000Y-64681259D01*
X163461000Y-64858741D01*
X163426376Y-65032812D01*
X163358456Y-65196784D01*
X163259853Y-65344354D01*
X163134354Y-65469853D01*
X162986784Y-65568456D01*
X162822812Y-65636376D01*
X162673512Y-65666073D01*
X162648742Y-65671000D01*
X162471258Y-65671000D01*
X162446488Y-65666073D01*
X162297188Y-65636376D01*
X162133216Y-65568456D01*
X161985646Y-65469853D01*
X161860147Y-65344354D01*
X161761544Y-65196784D01*
X161693624Y-65032812D01*
X161659000Y-64858741D01*
X161659000Y-64681259D01*
X161693624Y-64507188D01*
X161761544Y-64343216D01*
X161860147Y-64195646D01*
X161985646Y-64070147D01*
X162133216Y-63971544D01*
X162297188Y-63903624D01*
X162446488Y-63873927D01*
X162471258Y-63869000D01*
X162648742Y-63869000D01*
X162673512Y-63873927D01*
G37*
G36*
X106311000Y-65671000D02*
G01*
X104509000Y-65671000D01*
X104509000Y-63869000D01*
X106311000Y-63869000D01*
X106311000Y-65671000D01*
G37*
G36*
X165213512Y-63873927D02*
G01*
X165362812Y-63903624D01*
X165526784Y-63971544D01*
X165674354Y-64070147D01*
X165799853Y-64195646D01*
X165898456Y-64343216D01*
X165966376Y-64507188D01*
X166001000Y-64681259D01*
X166001000Y-64858741D01*
X165966376Y-65032812D01*
X165898456Y-65196784D01*
X165799853Y-65344354D01*
X165674354Y-65469853D01*
X165526784Y-65568456D01*
X165362812Y-65636376D01*
X165213512Y-65666073D01*
X165188742Y-65671000D01*
X165011258Y-65671000D01*
X164986488Y-65666073D01*
X164837188Y-65636376D01*
X164673216Y-65568456D01*
X164525646Y-65469853D01*
X164400147Y-65344354D01*
X164301544Y-65196784D01*
X164233624Y-65032812D01*
X164199000Y-64858741D01*
X164199000Y-64681259D01*
X164233624Y-64507188D01*
X164301544Y-64343216D01*
X164400147Y-64195646D01*
X164525646Y-64070147D01*
X164673216Y-63971544D01*
X164837188Y-63903624D01*
X164986488Y-63873927D01*
X165011258Y-63869000D01*
X165188742Y-63869000D01*
X165213512Y-63873927D01*
G37*
G36*
X151243512Y-63873927D02*
G01*
X151392812Y-63903624D01*
X151556784Y-63971544D01*
X151704354Y-64070147D01*
X151829853Y-64195646D01*
X151928456Y-64343216D01*
X151996376Y-64507188D01*
X152031000Y-64681259D01*
X152031000Y-64858741D01*
X151996376Y-65032812D01*
X151928456Y-65196784D01*
X151829853Y-65344354D01*
X151704354Y-65469853D01*
X151556784Y-65568456D01*
X151392812Y-65636376D01*
X151243512Y-65666073D01*
X151218742Y-65671000D01*
X151041258Y-65671000D01*
X151016488Y-65666073D01*
X150867188Y-65636376D01*
X150703216Y-65568456D01*
X150555646Y-65469853D01*
X150430147Y-65344354D01*
X150331544Y-65196784D01*
X150263624Y-65032812D01*
X150229000Y-64858741D01*
X150229000Y-64681259D01*
X150263624Y-64507188D01*
X150331544Y-64343216D01*
X150430147Y-64195646D01*
X150555646Y-64070147D01*
X150703216Y-63971544D01*
X150867188Y-63903624D01*
X151016488Y-63873927D01*
X151041258Y-63869000D01*
X151218742Y-63869000D01*
X151243512Y-63873927D01*
G37*
G36*
X129617343Y-61374760D02*
G01*
X129881407Y-61484139D01*
X130119060Y-61642934D01*
X130321168Y-61845042D01*
X130479963Y-62082695D01*
X130589342Y-62346759D01*
X130645102Y-62627088D01*
X130645102Y-62912912D01*
X130589342Y-63193241D01*
X130479963Y-63457305D01*
X130321168Y-63694958D01*
X130119060Y-63897066D01*
X129881407Y-64055861D01*
X129617343Y-64165240D01*
X129337014Y-64221000D01*
X129051190Y-64221000D01*
X128770861Y-64165240D01*
X128506797Y-64055861D01*
X128269144Y-63897066D01*
X128067036Y-63694958D01*
X127908241Y-63457305D01*
X127798862Y-63193241D01*
X127743102Y-62912912D01*
X127743102Y-62627088D01*
X127798862Y-62346759D01*
X127908241Y-62082695D01*
X128067036Y-61845042D01*
X128269144Y-61642934D01*
X128506797Y-61484139D01*
X128770861Y-61374760D01*
X129051190Y-61319000D01*
X129337014Y-61319000D01*
X129617343Y-61374760D01*
G37*
G36*
X138939206Y-61655845D02*
G01*
X138977567Y-61664790D01*
X139013442Y-61681044D01*
X139045458Y-61703987D01*
X139072379Y-61732731D01*
X139093178Y-61766178D01*
X139109227Y-61808819D01*
X139125923Y-61871130D01*
X139309078Y-62554671D01*
X139309081Y-62554688D01*
X139325775Y-62616992D01*
X139333195Y-62661933D01*
X139331907Y-62701298D01*
X139322963Y-62739658D01*
X139306708Y-62775531D01*
X139283764Y-62807551D01*
X139255021Y-62834470D01*
X139221571Y-62855271D01*
X139178940Y-62871316D01*
X139116625Y-62888013D01*
X139116623Y-62888014D01*
X138191600Y-63135873D01*
X138191597Y-63135873D01*
X138129281Y-63152571D01*
X138084338Y-63159991D01*
X138044974Y-63158703D01*
X138006613Y-63149758D01*
X137970738Y-63133504D01*
X137938722Y-63110561D01*
X137911801Y-63081817D01*
X137891002Y-63048370D01*
X137874953Y-63005729D01*
X137850083Y-62912911D01*
X137675102Y-62259877D01*
X137675099Y-62259860D01*
X137658405Y-62197556D01*
X137650985Y-62152615D01*
X137652273Y-62113250D01*
X137661217Y-62074890D01*
X137677472Y-62039017D01*
X137700416Y-62006997D01*
X137729159Y-61980078D01*
X137762609Y-61959277D01*
X137805240Y-61943232D01*
X137867555Y-61926535D01*
X137867557Y-61926534D01*
X138792580Y-61678675D01*
X138792583Y-61678675D01*
X138854899Y-61661977D01*
X138899842Y-61654557D01*
X138939206Y-61655845D01*
G37*
G36*
X138408626Y-59675697D02*
G01*
X138446987Y-59684642D01*
X138482862Y-59700896D01*
X138514878Y-59723839D01*
X138541799Y-59752583D01*
X138562598Y-59786030D01*
X138578647Y-59828671D01*
X138595343Y-59890982D01*
X138778498Y-60574523D01*
X138778501Y-60574540D01*
X138795195Y-60636844D01*
X138802615Y-60681785D01*
X138801327Y-60721150D01*
X138792383Y-60759510D01*
X138776128Y-60795383D01*
X138753184Y-60827403D01*
X138724441Y-60854322D01*
X138690991Y-60875123D01*
X138648360Y-60891168D01*
X138586045Y-60907865D01*
X138586043Y-60907866D01*
X137661020Y-61155725D01*
X137661017Y-61155725D01*
X137598701Y-61172423D01*
X137553758Y-61179843D01*
X137514394Y-61178555D01*
X137476033Y-61169610D01*
X137440158Y-61153356D01*
X137408142Y-61130413D01*
X137381221Y-61101669D01*
X137360422Y-61068222D01*
X137344373Y-61025581D01*
X137319558Y-60932970D01*
X137144522Y-60279729D01*
X137144519Y-60279712D01*
X137127825Y-60217408D01*
X137120405Y-60172467D01*
X137121693Y-60133102D01*
X137130637Y-60094742D01*
X137146892Y-60058869D01*
X137169836Y-60026849D01*
X137198579Y-59999930D01*
X137232029Y-59979129D01*
X137274660Y-59963084D01*
X137336975Y-59946387D01*
X137336977Y-59946386D01*
X138262000Y-59698527D01*
X138262003Y-59698527D01*
X138324319Y-59681829D01*
X138369262Y-59674409D01*
X138408626Y-59675697D01*
G37*
G36*
X116626962Y-57874760D02*
G01*
X116891026Y-57984139D01*
X117128679Y-58142934D01*
X117330787Y-58345042D01*
X117489582Y-58582695D01*
X117598961Y-58846759D01*
X117654721Y-59127088D01*
X117654721Y-59412912D01*
X117598961Y-59693241D01*
X117489582Y-59957305D01*
X117330787Y-60194958D01*
X117128679Y-60397066D01*
X116891026Y-60555861D01*
X116626962Y-60665240D01*
X116346633Y-60721000D01*
X116060809Y-60721000D01*
X115780480Y-60665240D01*
X115516416Y-60555861D01*
X115278763Y-60397066D01*
X115076655Y-60194958D01*
X114917860Y-59957305D01*
X114808481Y-59693241D01*
X114752721Y-59412912D01*
X114752721Y-59127088D01*
X114808481Y-58846759D01*
X114917860Y-58582695D01*
X115076655Y-58345042D01*
X115278763Y-58142934D01*
X115516416Y-57984139D01*
X115780480Y-57874760D01*
X116060809Y-57819000D01*
X116346633Y-57819000D01*
X116626962Y-57874760D01*
G37*
G36*
X135679520Y-57874760D02*
G01*
X135943584Y-57984139D01*
X136181237Y-58142934D01*
X136383345Y-58345042D01*
X136542140Y-58582695D01*
X136651519Y-58846759D01*
X136707279Y-59127088D01*
X136707279Y-59412912D01*
X136651519Y-59693241D01*
X136542140Y-59957305D01*
X136383345Y-60194958D01*
X136181237Y-60397066D01*
X135943584Y-60555861D01*
X135679520Y-60665240D01*
X135399191Y-60721000D01*
X135113367Y-60721000D01*
X134833038Y-60665240D01*
X134568974Y-60555861D01*
X134331321Y-60397066D01*
X134129213Y-60194958D01*
X133970418Y-59957305D01*
X133861039Y-59693241D01*
X133805279Y-59412912D01*
X133805279Y-59127088D01*
X133861039Y-58846759D01*
X133970418Y-58582695D01*
X134129213Y-58345042D01*
X134331321Y-58142934D01*
X134568974Y-57984139D01*
X134833038Y-57874760D01*
X135113367Y-57819000D01*
X135399191Y-57819000D01*
X135679520Y-57874760D01*
G37*
G36*
X130003674Y-58943465D02*
G01*
X130041367Y-58954899D01*
X130076103Y-58973466D01*
X130106548Y-58998452D01*
X130131534Y-59028897D01*
X130150101Y-59063633D01*
X130161535Y-59101326D01*
X130166000Y-59146661D01*
X130166000Y-60233339D01*
X130161535Y-60278674D01*
X130150101Y-60316367D01*
X130131534Y-60351103D01*
X130106548Y-60381548D01*
X130076103Y-60406534D01*
X130041367Y-60425101D01*
X130003674Y-60436535D01*
X129958339Y-60441000D01*
X129121661Y-60441000D01*
X129076326Y-60436535D01*
X129038633Y-60425101D01*
X129003897Y-60406534D01*
X128973452Y-60381548D01*
X128948466Y-60351103D01*
X128929899Y-60316367D01*
X128918465Y-60278674D01*
X128914000Y-60233339D01*
X128914000Y-59146661D01*
X128918465Y-59101326D01*
X128929899Y-59063633D01*
X128948466Y-59028897D01*
X128973452Y-58998452D01*
X129003897Y-58973466D01*
X129038633Y-58954899D01*
X129076326Y-58943465D01*
X129121661Y-58939000D01*
X129958339Y-58939000D01*
X130003674Y-58943465D01*
G37*
G36*
X132053674Y-58943465D02*
G01*
X132091367Y-58954899D01*
X132126103Y-58973466D01*
X132156548Y-58998452D01*
X132181534Y-59028897D01*
X132200101Y-59063633D01*
X132211535Y-59101326D01*
X132216000Y-59146661D01*
X132216000Y-60233339D01*
X132211535Y-60278674D01*
X132200101Y-60316367D01*
X132181534Y-60351103D01*
X132156548Y-60381548D01*
X132126103Y-60406534D01*
X132091367Y-60425101D01*
X132053674Y-60436535D01*
X132008339Y-60441000D01*
X131171661Y-60441000D01*
X131126326Y-60436535D01*
X131088633Y-60425101D01*
X131053897Y-60406534D01*
X131023452Y-60381548D01*
X130998466Y-60351103D01*
X130979899Y-60316367D01*
X130968465Y-60278674D01*
X130964000Y-60233339D01*
X130964000Y-59146661D01*
X130968465Y-59101326D01*
X130979899Y-59063633D01*
X130998466Y-59028897D01*
X131023452Y-58998452D01*
X131053897Y-58973466D01*
X131088633Y-58954899D01*
X131126326Y-58943465D01*
X131171661Y-58939000D01*
X132008339Y-58939000D01*
X132053674Y-58943465D01*
G37*
G36*
X194926105Y-53957860D02*
G01*
X195258282Y-54023934D01*
X195849926Y-54269001D01*
X196139523Y-54462504D01*
X196382391Y-54624783D01*
X196835217Y-55077609D01*
X196905986Y-55183523D01*
X197190999Y-55610074D01*
X197436066Y-56201718D01*
X197466151Y-56352968D01*
X197561000Y-56829803D01*
X197561000Y-57470197D01*
X197498533Y-57784239D01*
X197436066Y-58098282D01*
X197190999Y-58689926D01*
X196917664Y-59099000D01*
X196835217Y-59222391D01*
X196382391Y-59675217D01*
X196309623Y-59723839D01*
X195849926Y-60030999D01*
X195258282Y-60276066D01*
X194944239Y-60338533D01*
X194630197Y-60401000D01*
X193989803Y-60401000D01*
X193675761Y-60338533D01*
X193361718Y-60276066D01*
X192770074Y-60030999D01*
X192310377Y-59723839D01*
X192237609Y-59675217D01*
X191784783Y-59222391D01*
X191702336Y-59099000D01*
X191429001Y-58689926D01*
X191183934Y-58098282D01*
X191121467Y-57784239D01*
X191059000Y-57470197D01*
X191059000Y-56829803D01*
X191153849Y-56352968D01*
X191183934Y-56201718D01*
X191429001Y-55610074D01*
X191714014Y-55183523D01*
X191784783Y-55077609D01*
X192237609Y-54624783D01*
X192480477Y-54462504D01*
X192770074Y-54269001D01*
X193361718Y-54023934D01*
X193693895Y-53957860D01*
X193989803Y-53899000D01*
X194630197Y-53899000D01*
X194926105Y-53957860D01*
G37*
G36*
X154286105Y-53957860D02*
G01*
X154618282Y-54023934D01*
X155209926Y-54269001D01*
X155499523Y-54462504D01*
X155742391Y-54624783D01*
X156195217Y-55077609D01*
X156265986Y-55183523D01*
X156550999Y-55610074D01*
X156796066Y-56201718D01*
X156826151Y-56352968D01*
X156921000Y-56829803D01*
X156921000Y-57470197D01*
X156858533Y-57784239D01*
X156796066Y-58098282D01*
X156550999Y-58689926D01*
X156277664Y-59099000D01*
X156195217Y-59222391D01*
X155742391Y-59675217D01*
X155669623Y-59723839D01*
X155209926Y-60030999D01*
X154618282Y-60276066D01*
X154304239Y-60338533D01*
X153990197Y-60401000D01*
X153349803Y-60401000D01*
X153035761Y-60338533D01*
X152721718Y-60276066D01*
X152130074Y-60030999D01*
X151670377Y-59723839D01*
X151597609Y-59675217D01*
X151144783Y-59222391D01*
X151062336Y-59099000D01*
X150789001Y-58689926D01*
X150543934Y-58098282D01*
X150481467Y-57784239D01*
X150419000Y-57470197D01*
X150419000Y-56829803D01*
X150513849Y-56352968D01*
X150543934Y-56201718D01*
X150789001Y-55610074D01*
X151074014Y-55183523D01*
X151144783Y-55077609D01*
X151597609Y-54624783D01*
X151840477Y-54462504D01*
X152130074Y-54269001D01*
X152721718Y-54023934D01*
X153053895Y-53957860D01*
X153349803Y-53899000D01*
X153990197Y-53899000D01*
X154286105Y-53957860D01*
G37*
G36*
X135763583Y-55451452D02*
G01*
X135801276Y-55462886D01*
X135836012Y-55481453D01*
X135871225Y-55510351D01*
X136462849Y-56101975D01*
X136491747Y-56137188D01*
X136510314Y-56171924D01*
X136521748Y-56209617D01*
X136525608Y-56248812D01*
X136521748Y-56288007D01*
X136510314Y-56325700D01*
X136491747Y-56360436D01*
X136462849Y-56395649D01*
X135694449Y-57164049D01*
X135659236Y-57192947D01*
X135624500Y-57211514D01*
X135586807Y-57222948D01*
X135547612Y-57226808D01*
X135508417Y-57222948D01*
X135470724Y-57211514D01*
X135435988Y-57192947D01*
X135400775Y-57164049D01*
X134809151Y-56572425D01*
X134780253Y-56537212D01*
X134761686Y-56502476D01*
X134750252Y-56464783D01*
X134746392Y-56425588D01*
X134750252Y-56386393D01*
X134761686Y-56348700D01*
X134780253Y-56313964D01*
X134809151Y-56278751D01*
X135577551Y-55510351D01*
X135612764Y-55481453D01*
X135647500Y-55462886D01*
X135685193Y-55451452D01*
X135724388Y-55447592D01*
X135763583Y-55451452D01*
G37*
G36*
X131653240Y-53848481D02*
G01*
X131917304Y-53957860D01*
X132154957Y-54116655D01*
X132357065Y-54318763D01*
X132515860Y-54556416D01*
X132625239Y-54820480D01*
X132680999Y-55100809D01*
X132680999Y-55386633D01*
X132625239Y-55666962D01*
X132515860Y-55931026D01*
X132357065Y-56168679D01*
X132154957Y-56370787D01*
X131917304Y-56529582D01*
X131653240Y-56638961D01*
X131372911Y-56694721D01*
X131087087Y-56694721D01*
X130806758Y-56638961D01*
X130542694Y-56529582D01*
X130305041Y-56370787D01*
X130102933Y-56168679D01*
X129944138Y-55931026D01*
X129834759Y-55666962D01*
X129778999Y-55386633D01*
X129778999Y-55100809D01*
X129834759Y-54820480D01*
X129944138Y-54556416D01*
X130102933Y-54318763D01*
X130305041Y-54116655D01*
X130542694Y-53957860D01*
X130806758Y-53848481D01*
X131087087Y-53792721D01*
X131372911Y-53792721D01*
X131653240Y-53848481D01*
G37*
G36*
X120653241Y-53848481D02*
G01*
X120917305Y-53957860D01*
X121154958Y-54116655D01*
X121357066Y-54318763D01*
X121515861Y-54556416D01*
X121625240Y-54820480D01*
X121681000Y-55100809D01*
X121681000Y-55386633D01*
X121625240Y-55666962D01*
X121515861Y-55931026D01*
X121357066Y-56168679D01*
X121154958Y-56370787D01*
X120917305Y-56529582D01*
X120653241Y-56638961D01*
X120372912Y-56694721D01*
X120087088Y-56694721D01*
X119806759Y-56638961D01*
X119542695Y-56529582D01*
X119305042Y-56370787D01*
X119102934Y-56168679D01*
X118944139Y-55931026D01*
X118834760Y-55666962D01*
X118779000Y-55386633D01*
X118779000Y-55100809D01*
X118834760Y-54820480D01*
X118944139Y-54556416D01*
X119102934Y-54318763D01*
X119305042Y-54116655D01*
X119542695Y-53957860D01*
X119806759Y-53848481D01*
X120087088Y-53792721D01*
X120372912Y-53792721D01*
X120653241Y-53848481D01*
G37*
G36*
X134314015Y-54001884D02*
G01*
X134351708Y-54013318D01*
X134386444Y-54031885D01*
X134421657Y-54060783D01*
X135013281Y-54652407D01*
X135042179Y-54687620D01*
X135060746Y-54722356D01*
X135072180Y-54760049D01*
X135076040Y-54799244D01*
X135072180Y-54838439D01*
X135060746Y-54876132D01*
X135042179Y-54910868D01*
X135013281Y-54946081D01*
X134244881Y-55714481D01*
X134209668Y-55743379D01*
X134174932Y-55761946D01*
X134137239Y-55773380D01*
X134098044Y-55777240D01*
X134058849Y-55773380D01*
X134021156Y-55761946D01*
X133986420Y-55743379D01*
X133951207Y-55714481D01*
X133359583Y-55122857D01*
X133330685Y-55087644D01*
X133312118Y-55052908D01*
X133300684Y-55015215D01*
X133296824Y-54976020D01*
X133300684Y-54936825D01*
X133312118Y-54899132D01*
X133330685Y-54864396D01*
X133359583Y-54829183D01*
X134127983Y-54060783D01*
X134163196Y-54031885D01*
X134197932Y-54013318D01*
X134235625Y-54001884D01*
X134274820Y-53998024D01*
X134314015Y-54001884D01*
G37*
G36*
X126153241Y-52374760D02*
G01*
X126417305Y-52484139D01*
X126654958Y-52642934D01*
X126857066Y-52845042D01*
X127015861Y-53082695D01*
X127125240Y-53346759D01*
X127181000Y-53627088D01*
X127181000Y-53912912D01*
X127125240Y-54193241D01*
X127015861Y-54457305D01*
X126857066Y-54694958D01*
X126654958Y-54897066D01*
X126417305Y-55055861D01*
X126153241Y-55165240D01*
X125872912Y-55221000D01*
X125587088Y-55221000D01*
X125306759Y-55165240D01*
X125042695Y-55055861D01*
X124805042Y-54897066D01*
X124602934Y-54694958D01*
X124444139Y-54457305D01*
X124334760Y-54193241D01*
X124279000Y-53912912D01*
X124279000Y-53627088D01*
X124334760Y-53346759D01*
X124444139Y-53082695D01*
X124602934Y-52845042D01*
X124805042Y-52642934D01*
X125042695Y-52484139D01*
X125306759Y-52374760D01*
X125587088Y-52319000D01*
X125872912Y-52319000D01*
X126153241Y-52374760D01*
G37*
M02*
