G04 #@! TF.GenerationSoftware,KiCad,Pcbnew,5.1.6-c6e7f7d~86~ubuntu18.04.1*
G04 #@! TF.CreationDate,2020-06-21T16:53:52-04:00*
G04 #@! TF.ProjectId,dual_ADSR,6475616c-5f41-4445-9352-2e6b69636164,rev?*
G04 #@! TF.SameCoordinates,Original*
G04 #@! TF.FileFunction,Soldermask,Bot*
G04 #@! TF.FilePolarity,Negative*
%FSLAX46Y46*%
G04 Gerber Fmt 4.6, Leading zero omitted, Abs format (unit mm)*
G04 Created by KiCad (PCBNEW 5.1.6-c6e7f7d~86~ubuntu18.04.1) date 2020-06-21 16:53:52*
%MOMM*%
%LPD*%
G01*
G04 APERTURE LIST*
%ADD10R,2.000000X0.900000*%
%ADD11O,1.700000X1.700000*%
%ADD12R,1.700000X1.700000*%
%ADD13R,1.300000X1.000000*%
%ADD14O,1.800000X1.800000*%
%ADD15R,1.800000X1.800000*%
%ADD16C,2.600000*%
%ADD17O,2.820000X3.340000*%
%ADD18C,1.900000*%
%ADD19R,1.900000X1.900000*%
%ADD20C,1.700000*%
G04 APERTURE END LIST*
D10*
X131648000Y-135658000D03*
X128648000Y-134708000D03*
X128648000Y-136608000D03*
X131699000Y-128397000D03*
X128699000Y-127447000D03*
X128699000Y-129347000D03*
X131699000Y-121031000D03*
X128699000Y-120081000D03*
X128699000Y-121981000D03*
X131572000Y-113919000D03*
X128572000Y-112969000D03*
X128572000Y-114869000D03*
D11*
X139954000Y-61468000D03*
X132334000Y-69088000D03*
X137414000Y-61468000D03*
X134874000Y-69088000D03*
X134874000Y-61468000D03*
X137414000Y-69088000D03*
X132334000Y-61468000D03*
D12*
X139954000Y-69088000D03*
D11*
X120650000Y-61722000D03*
X113030000Y-69342000D03*
X118110000Y-61722000D03*
X115570000Y-69342000D03*
X115570000Y-61722000D03*
X118110000Y-69342000D03*
X113030000Y-61722000D03*
D12*
X120650000Y-69342000D03*
G36*
G01*
X138400262Y-73006000D02*
X137443738Y-73006000D01*
G75*
G02*
X137172000Y-72734262I0J271738D01*
G01*
X137172000Y-72027738D01*
G75*
G02*
X137443738Y-71756000I271738J0D01*
G01*
X138400262Y-71756000D01*
G75*
G02*
X138672000Y-72027738I0J-271738D01*
G01*
X138672000Y-72734262D01*
G75*
G02*
X138400262Y-73006000I-271738J0D01*
G01*
G37*
G36*
G01*
X138400262Y-75056000D02*
X137443738Y-75056000D01*
G75*
G02*
X137172000Y-74784262I0J271738D01*
G01*
X137172000Y-74077738D01*
G75*
G02*
X137443738Y-73806000I271738J0D01*
G01*
X138400262Y-73806000D01*
G75*
G02*
X138672000Y-74077738I0J-271738D01*
G01*
X138672000Y-74784262D01*
G75*
G02*
X138400262Y-75056000I-271738J0D01*
G01*
G37*
G36*
G01*
X118842262Y-72761000D02*
X117885738Y-72761000D01*
G75*
G02*
X117614000Y-72489262I0J271738D01*
G01*
X117614000Y-71782738D01*
G75*
G02*
X117885738Y-71511000I271738J0D01*
G01*
X118842262Y-71511000D01*
G75*
G02*
X119114000Y-71782738I0J-271738D01*
G01*
X119114000Y-72489262D01*
G75*
G02*
X118842262Y-72761000I-271738J0D01*
G01*
G37*
G36*
G01*
X118842262Y-74811000D02*
X117885738Y-74811000D01*
G75*
G02*
X117614000Y-74539262I0J271738D01*
G01*
X117614000Y-73832738D01*
G75*
G02*
X117885738Y-73561000I271738J0D01*
G01*
X118842262Y-73561000D01*
G75*
G02*
X119114000Y-73832738I0J-271738D01*
G01*
X119114000Y-74539262D01*
G75*
G02*
X118842262Y-74811000I-271738J0D01*
G01*
G37*
G36*
G01*
X135352262Y-72997000D02*
X134395738Y-72997000D01*
G75*
G02*
X134124000Y-72725262I0J271738D01*
G01*
X134124000Y-72018738D01*
G75*
G02*
X134395738Y-71747000I271738J0D01*
G01*
X135352262Y-71747000D01*
G75*
G02*
X135624000Y-72018738I0J-271738D01*
G01*
X135624000Y-72725262D01*
G75*
G02*
X135352262Y-72997000I-271738J0D01*
G01*
G37*
G36*
G01*
X135352262Y-75047000D02*
X134395738Y-75047000D01*
G75*
G02*
X134124000Y-74775262I0J271738D01*
G01*
X134124000Y-74068738D01*
G75*
G02*
X134395738Y-73797000I271738J0D01*
G01*
X135352262Y-73797000D01*
G75*
G02*
X135624000Y-74068738I0J-271738D01*
G01*
X135624000Y-74775262D01*
G75*
G02*
X135352262Y-75047000I-271738J0D01*
G01*
G37*
G36*
G01*
X116048262Y-72761000D02*
X115091738Y-72761000D01*
G75*
G02*
X114820000Y-72489262I0J271738D01*
G01*
X114820000Y-71782738D01*
G75*
G02*
X115091738Y-71511000I271738J0D01*
G01*
X116048262Y-71511000D01*
G75*
G02*
X116320000Y-71782738I0J-271738D01*
G01*
X116320000Y-72489262D01*
G75*
G02*
X116048262Y-72761000I-271738J0D01*
G01*
G37*
G36*
G01*
X116048262Y-74811000D02*
X115091738Y-74811000D01*
G75*
G02*
X114820000Y-74539262I0J271738D01*
G01*
X114820000Y-73832738D01*
G75*
G02*
X115091738Y-73561000I271738J0D01*
G01*
X116048262Y-73561000D01*
G75*
G02*
X116320000Y-73832738I0J-271738D01*
G01*
X116320000Y-74539262D01*
G75*
G02*
X116048262Y-74811000I-271738J0D01*
G01*
G37*
G36*
G01*
X131347738Y-73797000D02*
X132304262Y-73797000D01*
G75*
G02*
X132576000Y-74068738I0J-271738D01*
G01*
X132576000Y-74775262D01*
G75*
G02*
X132304262Y-75047000I-271738J0D01*
G01*
X131347738Y-75047000D01*
G75*
G02*
X131076000Y-74775262I0J271738D01*
G01*
X131076000Y-74068738D01*
G75*
G02*
X131347738Y-73797000I271738J0D01*
G01*
G37*
G36*
G01*
X131347738Y-71747000D02*
X132304262Y-71747000D01*
G75*
G02*
X132576000Y-72018738I0J-271738D01*
G01*
X132576000Y-72725262D01*
G75*
G02*
X132304262Y-72997000I-271738J0D01*
G01*
X131347738Y-72997000D01*
G75*
G02*
X131076000Y-72725262I0J271738D01*
G01*
X131076000Y-72018738D01*
G75*
G02*
X131347738Y-71747000I271738J0D01*
G01*
G37*
G36*
G01*
X112297738Y-73561000D02*
X113254262Y-73561000D01*
G75*
G02*
X113526000Y-73832738I0J-271738D01*
G01*
X113526000Y-74539262D01*
G75*
G02*
X113254262Y-74811000I-271738J0D01*
G01*
X112297738Y-74811000D01*
G75*
G02*
X112026000Y-74539262I0J271738D01*
G01*
X112026000Y-73832738D01*
G75*
G02*
X112297738Y-73561000I271738J0D01*
G01*
G37*
G36*
G01*
X112297738Y-71511000D02*
X113254262Y-71511000D01*
G75*
G02*
X113526000Y-71782738I0J-271738D01*
G01*
X113526000Y-72489262D01*
G75*
G02*
X113254262Y-72761000I-271738J0D01*
G01*
X112297738Y-72761000D01*
G75*
G02*
X112026000Y-72489262I0J271738D01*
G01*
X112026000Y-71782738D01*
G75*
G02*
X112297738Y-71511000I271738J0D01*
G01*
G37*
G36*
G01*
X142777738Y-58067000D02*
X143734262Y-58067000D01*
G75*
G02*
X144006000Y-58338738I0J-271738D01*
G01*
X144006000Y-59045262D01*
G75*
G02*
X143734262Y-59317000I-271738J0D01*
G01*
X142777738Y-59317000D01*
G75*
G02*
X142506000Y-59045262I0J271738D01*
G01*
X142506000Y-58338738D01*
G75*
G02*
X142777738Y-58067000I271738J0D01*
G01*
G37*
G36*
G01*
X142777738Y-56017000D02*
X143734262Y-56017000D01*
G75*
G02*
X144006000Y-56288738I0J-271738D01*
G01*
X144006000Y-56995262D01*
G75*
G02*
X143734262Y-57267000I-271738J0D01*
G01*
X142777738Y-57267000D01*
G75*
G02*
X142506000Y-56995262I0J271738D01*
G01*
X142506000Y-56288738D01*
G75*
G02*
X142777738Y-56017000I271738J0D01*
G01*
G37*
G36*
G01*
X123473738Y-58049000D02*
X124430262Y-58049000D01*
G75*
G02*
X124702000Y-58320738I0J-271738D01*
G01*
X124702000Y-59027262D01*
G75*
G02*
X124430262Y-59299000I-271738J0D01*
G01*
X123473738Y-59299000D01*
G75*
G02*
X123202000Y-59027262I0J271738D01*
G01*
X123202000Y-58320738D01*
G75*
G02*
X123473738Y-58049000I271738J0D01*
G01*
G37*
G36*
G01*
X123473738Y-55999000D02*
X124430262Y-55999000D01*
G75*
G02*
X124702000Y-56270738I0J-271738D01*
G01*
X124702000Y-56977262D01*
G75*
G02*
X124430262Y-57249000I-271738J0D01*
G01*
X123473738Y-57249000D01*
G75*
G02*
X123202000Y-56977262I0J271738D01*
G01*
X123202000Y-56270738D01*
G75*
G02*
X123473738Y-55999000I271738J0D01*
G01*
G37*
G36*
G01*
X139983738Y-58058000D02*
X140940262Y-58058000D01*
G75*
G02*
X141212000Y-58329738I0J-271738D01*
G01*
X141212000Y-59036262D01*
G75*
G02*
X140940262Y-59308000I-271738J0D01*
G01*
X139983738Y-59308000D01*
G75*
G02*
X139712000Y-59036262I0J271738D01*
G01*
X139712000Y-58329738D01*
G75*
G02*
X139983738Y-58058000I271738J0D01*
G01*
G37*
G36*
G01*
X139983738Y-56008000D02*
X140940262Y-56008000D01*
G75*
G02*
X141212000Y-56279738I0J-271738D01*
G01*
X141212000Y-56986262D01*
G75*
G02*
X140940262Y-57258000I-271738J0D01*
G01*
X139983738Y-57258000D01*
G75*
G02*
X139712000Y-56986262I0J271738D01*
G01*
X139712000Y-56279738D01*
G75*
G02*
X139983738Y-56008000I271738J0D01*
G01*
G37*
G36*
G01*
X120679738Y-58058000D02*
X121636262Y-58058000D01*
G75*
G02*
X121908000Y-58329738I0J-271738D01*
G01*
X121908000Y-59036262D01*
G75*
G02*
X121636262Y-59308000I-271738J0D01*
G01*
X120679738Y-59308000D01*
G75*
G02*
X120408000Y-59036262I0J271738D01*
G01*
X120408000Y-58329738D01*
G75*
G02*
X120679738Y-58058000I271738J0D01*
G01*
G37*
G36*
G01*
X120679738Y-56008000D02*
X121636262Y-56008000D01*
G75*
G02*
X121908000Y-56279738I0J-271738D01*
G01*
X121908000Y-56986262D01*
G75*
G02*
X121636262Y-57258000I-271738J0D01*
G01*
X120679738Y-57258000D01*
G75*
G02*
X120408000Y-56986262I0J271738D01*
G01*
X120408000Y-56279738D01*
G75*
G02*
X120679738Y-56008000I271738J0D01*
G01*
G37*
G36*
G01*
X137189738Y-58058000D02*
X138146262Y-58058000D01*
G75*
G02*
X138418000Y-58329738I0J-271738D01*
G01*
X138418000Y-59036262D01*
G75*
G02*
X138146262Y-59308000I-271738J0D01*
G01*
X137189738Y-59308000D01*
G75*
G02*
X136918000Y-59036262I0J271738D01*
G01*
X136918000Y-58329738D01*
G75*
G02*
X137189738Y-58058000I271738J0D01*
G01*
G37*
G36*
G01*
X137189738Y-56008000D02*
X138146262Y-56008000D01*
G75*
G02*
X138418000Y-56279738I0J-271738D01*
G01*
X138418000Y-56986262D01*
G75*
G02*
X138146262Y-57258000I-271738J0D01*
G01*
X137189738Y-57258000D01*
G75*
G02*
X136918000Y-56986262I0J271738D01*
G01*
X136918000Y-56279738D01*
G75*
G02*
X137189738Y-56008000I271738J0D01*
G01*
G37*
G36*
G01*
X117885738Y-58049000D02*
X118842262Y-58049000D01*
G75*
G02*
X119114000Y-58320738I0J-271738D01*
G01*
X119114000Y-59027262D01*
G75*
G02*
X118842262Y-59299000I-271738J0D01*
G01*
X117885738Y-59299000D01*
G75*
G02*
X117614000Y-59027262I0J271738D01*
G01*
X117614000Y-58320738D01*
G75*
G02*
X117885738Y-58049000I271738J0D01*
G01*
G37*
G36*
G01*
X117885738Y-55999000D02*
X118842262Y-55999000D01*
G75*
G02*
X119114000Y-56270738I0J-271738D01*
G01*
X119114000Y-56977262D01*
G75*
G02*
X118842262Y-57249000I-271738J0D01*
G01*
X117885738Y-57249000D01*
G75*
G02*
X117614000Y-56977262I0J271738D01*
G01*
X117614000Y-56270738D01*
G75*
G02*
X117885738Y-55999000I271738J0D01*
G01*
G37*
G36*
G01*
X132558262Y-57267000D02*
X131601738Y-57267000D01*
G75*
G02*
X131330000Y-56995262I0J271738D01*
G01*
X131330000Y-56288738D01*
G75*
G02*
X131601738Y-56017000I271738J0D01*
G01*
X132558262Y-56017000D01*
G75*
G02*
X132830000Y-56288738I0J-271738D01*
G01*
X132830000Y-56995262D01*
G75*
G02*
X132558262Y-57267000I-271738J0D01*
G01*
G37*
G36*
G01*
X132558262Y-59317000D02*
X131601738Y-59317000D01*
G75*
G02*
X131330000Y-59045262I0J271738D01*
G01*
X131330000Y-58338738D01*
G75*
G02*
X131601738Y-58067000I271738J0D01*
G01*
X132558262Y-58067000D01*
G75*
G02*
X132830000Y-58338738I0J-271738D01*
G01*
X132830000Y-59045262D01*
G75*
G02*
X132558262Y-59317000I-271738J0D01*
G01*
G37*
G36*
G01*
X113254262Y-57249000D02*
X112297738Y-57249000D01*
G75*
G02*
X112026000Y-56977262I0J271738D01*
G01*
X112026000Y-56270738D01*
G75*
G02*
X112297738Y-55999000I271738J0D01*
G01*
X113254262Y-55999000D01*
G75*
G02*
X113526000Y-56270738I0J-271738D01*
G01*
X113526000Y-56977262D01*
G75*
G02*
X113254262Y-57249000I-271738J0D01*
G01*
G37*
G36*
G01*
X113254262Y-59299000D02*
X112297738Y-59299000D01*
G75*
G02*
X112026000Y-59027262I0J271738D01*
G01*
X112026000Y-58320738D01*
G75*
G02*
X112297738Y-58049000I271738J0D01*
G01*
X113254262Y-58049000D01*
G75*
G02*
X113526000Y-58320738I0J-271738D01*
G01*
X113526000Y-59027262D01*
G75*
G02*
X113254262Y-59299000I-271738J0D01*
G01*
G37*
G36*
G01*
X126013738Y-58067000D02*
X126970262Y-58067000D01*
G75*
G02*
X127242000Y-58338738I0J-271738D01*
G01*
X127242000Y-59045262D01*
G75*
G02*
X126970262Y-59317000I-271738J0D01*
G01*
X126013738Y-59317000D01*
G75*
G02*
X125742000Y-59045262I0J271738D01*
G01*
X125742000Y-58338738D01*
G75*
G02*
X126013738Y-58067000I271738J0D01*
G01*
G37*
G36*
G01*
X126013738Y-56017000D02*
X126970262Y-56017000D01*
G75*
G02*
X127242000Y-56288738I0J-271738D01*
G01*
X127242000Y-56995262D01*
G75*
G02*
X126970262Y-57267000I-271738J0D01*
G01*
X126013738Y-57267000D01*
G75*
G02*
X125742000Y-56995262I0J271738D01*
G01*
X125742000Y-56288738D01*
G75*
G02*
X126013738Y-56017000I271738J0D01*
G01*
G37*
G36*
G01*
X106709738Y-58049000D02*
X107666262Y-58049000D01*
G75*
G02*
X107938000Y-58320738I0J-271738D01*
G01*
X107938000Y-59027262D01*
G75*
G02*
X107666262Y-59299000I-271738J0D01*
G01*
X106709738Y-59299000D01*
G75*
G02*
X106438000Y-59027262I0J271738D01*
G01*
X106438000Y-58320738D01*
G75*
G02*
X106709738Y-58049000I271738J0D01*
G01*
G37*
G36*
G01*
X106709738Y-55999000D02*
X107666262Y-55999000D01*
G75*
G02*
X107938000Y-56270738I0J-271738D01*
G01*
X107938000Y-56977262D01*
G75*
G02*
X107666262Y-57249000I-271738J0D01*
G01*
X106709738Y-57249000D01*
G75*
G02*
X106438000Y-56977262I0J271738D01*
G01*
X106438000Y-56270738D01*
G75*
G02*
X106709738Y-55999000I271738J0D01*
G01*
G37*
G36*
G01*
X134971262Y-134211000D02*
X134014738Y-134211000D01*
G75*
G02*
X133743000Y-133939262I0J271738D01*
G01*
X133743000Y-133232738D01*
G75*
G02*
X134014738Y-132961000I271738J0D01*
G01*
X134971262Y-132961000D01*
G75*
G02*
X135243000Y-133232738I0J-271738D01*
G01*
X135243000Y-133939262D01*
G75*
G02*
X134971262Y-134211000I-271738J0D01*
G01*
G37*
G36*
G01*
X134971262Y-136261000D02*
X134014738Y-136261000D01*
G75*
G02*
X133743000Y-135989262I0J271738D01*
G01*
X133743000Y-135282738D01*
G75*
G02*
X134014738Y-135011000I271738J0D01*
G01*
X134971262Y-135011000D01*
G75*
G02*
X135243000Y-135282738I0J-271738D01*
G01*
X135243000Y-135989262D01*
G75*
G02*
X134971262Y-136261000I-271738J0D01*
G01*
G37*
G36*
G01*
X134971262Y-126972000D02*
X134014738Y-126972000D01*
G75*
G02*
X133743000Y-126700262I0J271738D01*
G01*
X133743000Y-125993738D01*
G75*
G02*
X134014738Y-125722000I271738J0D01*
G01*
X134971262Y-125722000D01*
G75*
G02*
X135243000Y-125993738I0J-271738D01*
G01*
X135243000Y-126700262D01*
G75*
G02*
X134971262Y-126972000I-271738J0D01*
G01*
G37*
G36*
G01*
X134971262Y-129022000D02*
X134014738Y-129022000D01*
G75*
G02*
X133743000Y-128750262I0J271738D01*
G01*
X133743000Y-128043738D01*
G75*
G02*
X134014738Y-127772000I271738J0D01*
G01*
X134971262Y-127772000D01*
G75*
G02*
X135243000Y-128043738I0J-271738D01*
G01*
X135243000Y-128750262D01*
G75*
G02*
X134971262Y-129022000I-271738J0D01*
G01*
G37*
G36*
G01*
X134971262Y-119606000D02*
X134014738Y-119606000D01*
G75*
G02*
X133743000Y-119334262I0J271738D01*
G01*
X133743000Y-118627738D01*
G75*
G02*
X134014738Y-118356000I271738J0D01*
G01*
X134971262Y-118356000D01*
G75*
G02*
X135243000Y-118627738I0J-271738D01*
G01*
X135243000Y-119334262D01*
G75*
G02*
X134971262Y-119606000I-271738J0D01*
G01*
G37*
G36*
G01*
X134971262Y-121656000D02*
X134014738Y-121656000D01*
G75*
G02*
X133743000Y-121384262I0J271738D01*
G01*
X133743000Y-120677738D01*
G75*
G02*
X134014738Y-120406000I271738J0D01*
G01*
X134971262Y-120406000D01*
G75*
G02*
X135243000Y-120677738I0J-271738D01*
G01*
X135243000Y-121384262D01*
G75*
G02*
X134971262Y-121656000I-271738J0D01*
G01*
G37*
G36*
G01*
X134971262Y-112494000D02*
X134014738Y-112494000D01*
G75*
G02*
X133743000Y-112222262I0J271738D01*
G01*
X133743000Y-111515738D01*
G75*
G02*
X134014738Y-111244000I271738J0D01*
G01*
X134971262Y-111244000D01*
G75*
G02*
X135243000Y-111515738I0J-271738D01*
G01*
X135243000Y-112222262D01*
G75*
G02*
X134971262Y-112494000I-271738J0D01*
G01*
G37*
G36*
G01*
X134971262Y-114544000D02*
X134014738Y-114544000D01*
G75*
G02*
X133743000Y-114272262I0J271738D01*
G01*
X133743000Y-113565738D01*
G75*
G02*
X134014738Y-113294000I271738J0D01*
G01*
X134971262Y-113294000D01*
G75*
G02*
X135243000Y-113565738I0J-271738D01*
G01*
X135243000Y-114272262D01*
G75*
G02*
X134971262Y-114544000I-271738J0D01*
G01*
G37*
G36*
G01*
X123287262Y-135100000D02*
X122330738Y-135100000D01*
G75*
G02*
X122059000Y-134828262I0J271738D01*
G01*
X122059000Y-134121738D01*
G75*
G02*
X122330738Y-133850000I271738J0D01*
G01*
X123287262Y-133850000D01*
G75*
G02*
X123559000Y-134121738I0J-271738D01*
G01*
X123559000Y-134828262D01*
G75*
G02*
X123287262Y-135100000I-271738J0D01*
G01*
G37*
G36*
G01*
X123287262Y-137150000D02*
X122330738Y-137150000D01*
G75*
G02*
X122059000Y-136878262I0J271738D01*
G01*
X122059000Y-136171738D01*
G75*
G02*
X122330738Y-135900000I271738J0D01*
G01*
X123287262Y-135900000D01*
G75*
G02*
X123559000Y-136171738I0J-271738D01*
G01*
X123559000Y-136878262D01*
G75*
G02*
X123287262Y-137150000I-271738J0D01*
G01*
G37*
G36*
G01*
X123287262Y-127861000D02*
X122330738Y-127861000D01*
G75*
G02*
X122059000Y-127589262I0J271738D01*
G01*
X122059000Y-126882738D01*
G75*
G02*
X122330738Y-126611000I271738J0D01*
G01*
X123287262Y-126611000D01*
G75*
G02*
X123559000Y-126882738I0J-271738D01*
G01*
X123559000Y-127589262D01*
G75*
G02*
X123287262Y-127861000I-271738J0D01*
G01*
G37*
G36*
G01*
X123287262Y-129911000D02*
X122330738Y-129911000D01*
G75*
G02*
X122059000Y-129639262I0J271738D01*
G01*
X122059000Y-128932738D01*
G75*
G02*
X122330738Y-128661000I271738J0D01*
G01*
X123287262Y-128661000D01*
G75*
G02*
X123559000Y-128932738I0J-271738D01*
G01*
X123559000Y-129639262D01*
G75*
G02*
X123287262Y-129911000I-271738J0D01*
G01*
G37*
G36*
G01*
X123160262Y-120495000D02*
X122203738Y-120495000D01*
G75*
G02*
X121932000Y-120223262I0J271738D01*
G01*
X121932000Y-119516738D01*
G75*
G02*
X122203738Y-119245000I271738J0D01*
G01*
X123160262Y-119245000D01*
G75*
G02*
X123432000Y-119516738I0J-271738D01*
G01*
X123432000Y-120223262D01*
G75*
G02*
X123160262Y-120495000I-271738J0D01*
G01*
G37*
G36*
G01*
X123160262Y-122545000D02*
X122203738Y-122545000D01*
G75*
G02*
X121932000Y-122273262I0J271738D01*
G01*
X121932000Y-121566738D01*
G75*
G02*
X122203738Y-121295000I271738J0D01*
G01*
X123160262Y-121295000D01*
G75*
G02*
X123432000Y-121566738I0J-271738D01*
G01*
X123432000Y-122273262D01*
G75*
G02*
X123160262Y-122545000I-271738J0D01*
G01*
G37*
G36*
G01*
X123160262Y-113510000D02*
X122203738Y-113510000D01*
G75*
G02*
X121932000Y-113238262I0J271738D01*
G01*
X121932000Y-112531738D01*
G75*
G02*
X122203738Y-112260000I271738J0D01*
G01*
X123160262Y-112260000D01*
G75*
G02*
X123432000Y-112531738I0J-271738D01*
G01*
X123432000Y-113238262D01*
G75*
G02*
X123160262Y-113510000I-271738J0D01*
G01*
G37*
G36*
G01*
X123160262Y-115560000D02*
X122203738Y-115560000D01*
G75*
G02*
X121932000Y-115288262I0J271738D01*
G01*
X121932000Y-114581738D01*
G75*
G02*
X122203738Y-114310000I271738J0D01*
G01*
X123160262Y-114310000D01*
G75*
G02*
X123432000Y-114581738I0J-271738D01*
G01*
X123432000Y-115288262D01*
G75*
G02*
X123160262Y-115560000I-271738J0D01*
G01*
G37*
D13*
X125730000Y-133352000D03*
X125730000Y-136652000D03*
X125730000Y-126113000D03*
X125730000Y-129413000D03*
X125730000Y-118747000D03*
X125730000Y-122047000D03*
X125603000Y-111762000D03*
X125603000Y-115062000D03*
G36*
G01*
X135352262Y-57267000D02*
X134395738Y-57267000D01*
G75*
G02*
X134124000Y-56995262I0J271738D01*
G01*
X134124000Y-56288738D01*
G75*
G02*
X134395738Y-56017000I271738J0D01*
G01*
X135352262Y-56017000D01*
G75*
G02*
X135624000Y-56288738I0J-271738D01*
G01*
X135624000Y-56995262D01*
G75*
G02*
X135352262Y-57267000I-271738J0D01*
G01*
G37*
G36*
G01*
X135352262Y-59317000D02*
X134395738Y-59317000D01*
G75*
G02*
X134124000Y-59045262I0J271738D01*
G01*
X134124000Y-58338738D01*
G75*
G02*
X134395738Y-58067000I271738J0D01*
G01*
X135352262Y-58067000D01*
G75*
G02*
X135624000Y-58338738I0J-271738D01*
G01*
X135624000Y-59045262D01*
G75*
G02*
X135352262Y-59317000I-271738J0D01*
G01*
G37*
G36*
G01*
X116048262Y-57258000D02*
X115091738Y-57258000D01*
G75*
G02*
X114820000Y-56986262I0J271738D01*
G01*
X114820000Y-56279738D01*
G75*
G02*
X115091738Y-56008000I271738J0D01*
G01*
X116048262Y-56008000D01*
G75*
G02*
X116320000Y-56279738I0J-271738D01*
G01*
X116320000Y-56986262D01*
G75*
G02*
X116048262Y-57258000I-271738J0D01*
G01*
G37*
G36*
G01*
X116048262Y-59308000D02*
X115091738Y-59308000D01*
G75*
G02*
X114820000Y-59036262I0J271738D01*
G01*
X114820000Y-58329738D01*
G75*
G02*
X115091738Y-58058000I271738J0D01*
G01*
X116048262Y-58058000D01*
G75*
G02*
X116320000Y-58329738I0J-271738D01*
G01*
X116320000Y-59036262D01*
G75*
G02*
X116048262Y-59308000I-271738J0D01*
G01*
G37*
G36*
G01*
X129764262Y-57267000D02*
X128807738Y-57267000D01*
G75*
G02*
X128536000Y-56995262I0J271738D01*
G01*
X128536000Y-56288738D01*
G75*
G02*
X128807738Y-56017000I271738J0D01*
G01*
X129764262Y-56017000D01*
G75*
G02*
X130036000Y-56288738I0J-271738D01*
G01*
X130036000Y-56995262D01*
G75*
G02*
X129764262Y-57267000I-271738J0D01*
G01*
G37*
G36*
G01*
X129764262Y-59317000D02*
X128807738Y-59317000D01*
G75*
G02*
X128536000Y-59045262I0J271738D01*
G01*
X128536000Y-58338738D01*
G75*
G02*
X128807738Y-58067000I271738J0D01*
G01*
X129764262Y-58067000D01*
G75*
G02*
X130036000Y-58338738I0J-271738D01*
G01*
X130036000Y-59045262D01*
G75*
G02*
X129764262Y-59317000I-271738J0D01*
G01*
G37*
G36*
G01*
X110460262Y-57249000D02*
X109503738Y-57249000D01*
G75*
G02*
X109232000Y-56977262I0J271738D01*
G01*
X109232000Y-56270738D01*
G75*
G02*
X109503738Y-55999000I271738J0D01*
G01*
X110460262Y-55999000D01*
G75*
G02*
X110732000Y-56270738I0J-271738D01*
G01*
X110732000Y-56977262D01*
G75*
G02*
X110460262Y-57249000I-271738J0D01*
G01*
G37*
G36*
G01*
X110460262Y-59299000D02*
X109503738Y-59299000D01*
G75*
G02*
X109232000Y-59027262I0J271738D01*
G01*
X109232000Y-58320738D01*
G75*
G02*
X109503738Y-58049000I271738J0D01*
G01*
X110460262Y-58049000D01*
G75*
G02*
X110732000Y-58320738I0J-271738D01*
G01*
X110732000Y-59027262D01*
G75*
G02*
X110460262Y-59299000I-271738J0D01*
G01*
G37*
G36*
G01*
X129764262Y-67935000D02*
X128807738Y-67935000D01*
G75*
G02*
X128536000Y-67663262I0J271738D01*
G01*
X128536000Y-66956738D01*
G75*
G02*
X128807738Y-66685000I271738J0D01*
G01*
X129764262Y-66685000D01*
G75*
G02*
X130036000Y-66956738I0J-271738D01*
G01*
X130036000Y-67663262D01*
G75*
G02*
X129764262Y-67935000I-271738J0D01*
G01*
G37*
G36*
G01*
X129764262Y-69985000D02*
X128807738Y-69985000D01*
G75*
G02*
X128536000Y-69713262I0J271738D01*
G01*
X128536000Y-69006738D01*
G75*
G02*
X128807738Y-68735000I271738J0D01*
G01*
X129764262Y-68735000D01*
G75*
G02*
X130036000Y-69006738I0J-271738D01*
G01*
X130036000Y-69713262D01*
G75*
G02*
X129764262Y-69985000I-271738J0D01*
G01*
G37*
G36*
G01*
X129764262Y-61830000D02*
X128807738Y-61830000D01*
G75*
G02*
X128536000Y-61558262I0J271738D01*
G01*
X128536000Y-60851738D01*
G75*
G02*
X128807738Y-60580000I271738J0D01*
G01*
X129764262Y-60580000D01*
G75*
G02*
X130036000Y-60851738I0J-271738D01*
G01*
X130036000Y-61558262D01*
G75*
G02*
X129764262Y-61830000I-271738J0D01*
G01*
G37*
G36*
G01*
X129764262Y-63880000D02*
X128807738Y-63880000D01*
G75*
G02*
X128536000Y-63608262I0J271738D01*
G01*
X128536000Y-62901738D01*
G75*
G02*
X128807738Y-62630000I271738J0D01*
G01*
X129764262Y-62630000D01*
G75*
G02*
X130036000Y-62901738I0J-271738D01*
G01*
X130036000Y-63608262D01*
G75*
G02*
X129764262Y-63880000I-271738J0D01*
G01*
G37*
G36*
G01*
X110460262Y-68189000D02*
X109503738Y-68189000D01*
G75*
G02*
X109232000Y-67917262I0J271738D01*
G01*
X109232000Y-67210738D01*
G75*
G02*
X109503738Y-66939000I271738J0D01*
G01*
X110460262Y-66939000D01*
G75*
G02*
X110732000Y-67210738I0J-271738D01*
G01*
X110732000Y-67917262D01*
G75*
G02*
X110460262Y-68189000I-271738J0D01*
G01*
G37*
G36*
G01*
X110460262Y-70239000D02*
X109503738Y-70239000D01*
G75*
G02*
X109232000Y-69967262I0J271738D01*
G01*
X109232000Y-69260738D01*
G75*
G02*
X109503738Y-68989000I271738J0D01*
G01*
X110460262Y-68989000D01*
G75*
G02*
X110732000Y-69260738I0J-271738D01*
G01*
X110732000Y-69967262D01*
G75*
G02*
X110460262Y-70239000I-271738J0D01*
G01*
G37*
G36*
G01*
X110460262Y-62093000D02*
X109503738Y-62093000D01*
G75*
G02*
X109232000Y-61821262I0J271738D01*
G01*
X109232000Y-61114738D01*
G75*
G02*
X109503738Y-60843000I271738J0D01*
G01*
X110460262Y-60843000D01*
G75*
G02*
X110732000Y-61114738I0J-271738D01*
G01*
X110732000Y-61821262D01*
G75*
G02*
X110460262Y-62093000I-271738J0D01*
G01*
G37*
G36*
G01*
X110460262Y-64143000D02*
X109503738Y-64143000D01*
G75*
G02*
X109232000Y-63871262I0J271738D01*
G01*
X109232000Y-63164738D01*
G75*
G02*
X109503738Y-62893000I271738J0D01*
G01*
X110460262Y-62893000D01*
G75*
G02*
X110732000Y-63164738I0J-271738D01*
G01*
X110732000Y-63871262D01*
G75*
G02*
X110460262Y-64143000I-271738J0D01*
G01*
G37*
G36*
G01*
X142230000Y-105566738D02*
X142230000Y-106523262D01*
G75*
G02*
X141958262Y-106795000I-271738J0D01*
G01*
X141251738Y-106795000D01*
G75*
G02*
X140980000Y-106523262I0J271738D01*
G01*
X140980000Y-105566738D01*
G75*
G02*
X141251738Y-105295000I271738J0D01*
G01*
X141958262Y-105295000D01*
G75*
G02*
X142230000Y-105566738I0J-271738D01*
G01*
G37*
G36*
G01*
X144280000Y-105566738D02*
X144280000Y-106523262D01*
G75*
G02*
X144008262Y-106795000I-271738J0D01*
G01*
X143301738Y-106795000D01*
G75*
G02*
X143030000Y-106523262I0J271738D01*
G01*
X143030000Y-105566738D01*
G75*
G02*
X143301738Y-105295000I271738J0D01*
G01*
X144008262Y-105295000D01*
G75*
G02*
X144280000Y-105566738I0J-271738D01*
G01*
G37*
G36*
G01*
X147330000Y-106523262D02*
X147330000Y-105566738D01*
G75*
G02*
X147601738Y-105295000I271738J0D01*
G01*
X148308262Y-105295000D01*
G75*
G02*
X148580000Y-105566738I0J-271738D01*
G01*
X148580000Y-106523262D01*
G75*
G02*
X148308262Y-106795000I-271738J0D01*
G01*
X147601738Y-106795000D01*
G75*
G02*
X147330000Y-106523262I0J271738D01*
G01*
G37*
G36*
G01*
X145280000Y-106523262D02*
X145280000Y-105566738D01*
G75*
G02*
X145551738Y-105295000I271738J0D01*
G01*
X146258262Y-105295000D01*
G75*
G02*
X146530000Y-105566738I0J-271738D01*
G01*
X146530000Y-106523262D01*
G75*
G02*
X146258262Y-106795000I-271738J0D01*
G01*
X145551738Y-106795000D01*
G75*
G02*
X145280000Y-106523262I0J271738D01*
G01*
G37*
G36*
G01*
X138910000Y-88421738D02*
X138910000Y-89378262D01*
G75*
G02*
X138638262Y-89650000I-271738J0D01*
G01*
X137931738Y-89650000D01*
G75*
G02*
X137660000Y-89378262I0J271738D01*
G01*
X137660000Y-88421738D01*
G75*
G02*
X137931738Y-88150000I271738J0D01*
G01*
X138638262Y-88150000D01*
G75*
G02*
X138910000Y-88421738I0J-271738D01*
G01*
G37*
G36*
G01*
X140960000Y-88421738D02*
X140960000Y-89378262D01*
G75*
G02*
X140688262Y-89650000I-271738J0D01*
G01*
X139981738Y-89650000D01*
G75*
G02*
X139710000Y-89378262I0J271738D01*
G01*
X139710000Y-88421738D01*
G75*
G02*
X139981738Y-88150000I271738J0D01*
G01*
X140688262Y-88150000D01*
G75*
G02*
X140960000Y-88421738I0J-271738D01*
G01*
G37*
G36*
G01*
X150650000Y-89378262D02*
X150650000Y-88421738D01*
G75*
G02*
X150921738Y-88150000I271738J0D01*
G01*
X151628262Y-88150000D01*
G75*
G02*
X151900000Y-88421738I0J-271738D01*
G01*
X151900000Y-89378262D01*
G75*
G02*
X151628262Y-89650000I-271738J0D01*
G01*
X150921738Y-89650000D01*
G75*
G02*
X150650000Y-89378262I0J271738D01*
G01*
G37*
G36*
G01*
X148600000Y-89378262D02*
X148600000Y-88421738D01*
G75*
G02*
X148871738Y-88150000I271738J0D01*
G01*
X149578262Y-88150000D01*
G75*
G02*
X149850000Y-88421738I0J-271738D01*
G01*
X149850000Y-89378262D01*
G75*
G02*
X149578262Y-89650000I-271738J0D01*
G01*
X148871738Y-89650000D01*
G75*
G02*
X148600000Y-89378262I0J271738D01*
G01*
G37*
G36*
G01*
X138910000Y-83341738D02*
X138910000Y-84298262D01*
G75*
G02*
X138638262Y-84570000I-271738J0D01*
G01*
X137931738Y-84570000D01*
G75*
G02*
X137660000Y-84298262I0J271738D01*
G01*
X137660000Y-83341738D01*
G75*
G02*
X137931738Y-83070000I271738J0D01*
G01*
X138638262Y-83070000D01*
G75*
G02*
X138910000Y-83341738I0J-271738D01*
G01*
G37*
G36*
G01*
X140960000Y-83341738D02*
X140960000Y-84298262D01*
G75*
G02*
X140688262Y-84570000I-271738J0D01*
G01*
X139981738Y-84570000D01*
G75*
G02*
X139710000Y-84298262I0J271738D01*
G01*
X139710000Y-83341738D01*
G75*
G02*
X139981738Y-83070000I271738J0D01*
G01*
X140688262Y-83070000D01*
G75*
G02*
X140960000Y-83341738I0J-271738D01*
G01*
G37*
G36*
G01*
X150650000Y-84298262D02*
X150650000Y-83341738D01*
G75*
G02*
X150921738Y-83070000I271738J0D01*
G01*
X151628262Y-83070000D01*
G75*
G02*
X151900000Y-83341738I0J-271738D01*
G01*
X151900000Y-84298262D01*
G75*
G02*
X151628262Y-84570000I-271738J0D01*
G01*
X150921738Y-84570000D01*
G75*
G02*
X150650000Y-84298262I0J271738D01*
G01*
G37*
G36*
G01*
X148600000Y-84298262D02*
X148600000Y-83341738D01*
G75*
G02*
X148871738Y-83070000I271738J0D01*
G01*
X149578262Y-83070000D01*
G75*
G02*
X149850000Y-83341738I0J-271738D01*
G01*
X149850000Y-84298262D01*
G75*
G02*
X149578262Y-84570000I-271738J0D01*
G01*
X148871738Y-84570000D01*
G75*
G02*
X148600000Y-84298262I0J271738D01*
G01*
G37*
G36*
G01*
X138910000Y-80801738D02*
X138910000Y-81758262D01*
G75*
G02*
X138638262Y-82030000I-271738J0D01*
G01*
X137931738Y-82030000D01*
G75*
G02*
X137660000Y-81758262I0J271738D01*
G01*
X137660000Y-80801738D01*
G75*
G02*
X137931738Y-80530000I271738J0D01*
G01*
X138638262Y-80530000D01*
G75*
G02*
X138910000Y-80801738I0J-271738D01*
G01*
G37*
G36*
G01*
X140960000Y-80801738D02*
X140960000Y-81758262D01*
G75*
G02*
X140688262Y-82030000I-271738J0D01*
G01*
X139981738Y-82030000D01*
G75*
G02*
X139710000Y-81758262I0J271738D01*
G01*
X139710000Y-80801738D01*
G75*
G02*
X139981738Y-80530000I271738J0D01*
G01*
X140688262Y-80530000D01*
G75*
G02*
X140960000Y-80801738I0J-271738D01*
G01*
G37*
G36*
G01*
X150650000Y-81758262D02*
X150650000Y-80801738D01*
G75*
G02*
X150921738Y-80530000I271738J0D01*
G01*
X151628262Y-80530000D01*
G75*
G02*
X151900000Y-80801738I0J-271738D01*
G01*
X151900000Y-81758262D01*
G75*
G02*
X151628262Y-82030000I-271738J0D01*
G01*
X150921738Y-82030000D01*
G75*
G02*
X150650000Y-81758262I0J271738D01*
G01*
G37*
G36*
G01*
X148600000Y-81758262D02*
X148600000Y-80801738D01*
G75*
G02*
X148871738Y-80530000I271738J0D01*
G01*
X149578262Y-80530000D01*
G75*
G02*
X149850000Y-80801738I0J-271738D01*
G01*
X149850000Y-81758262D01*
G75*
G02*
X149578262Y-82030000I-271738J0D01*
G01*
X148871738Y-82030000D01*
G75*
G02*
X148600000Y-81758262I0J271738D01*
G01*
G37*
D14*
X143510000Y-154940000D03*
X146050000Y-154940000D03*
X143510000Y-152400000D03*
X146050000Y-152400000D03*
X143510000Y-149860000D03*
X146050000Y-149860000D03*
X143510000Y-147320000D03*
X146050000Y-147320000D03*
X143510000Y-144780000D03*
X146050000Y-144780000D03*
X143510000Y-142240000D03*
X146050000Y-142240000D03*
X143510000Y-139700000D03*
X146050000Y-139700000D03*
X143510000Y-137160000D03*
D15*
X146050000Y-137160000D03*
D14*
X143510000Y-127000000D03*
X146050000Y-127000000D03*
X143510000Y-124460000D03*
X146050000Y-124460000D03*
X143510000Y-121920000D03*
X146050000Y-121920000D03*
X143510000Y-119380000D03*
X146050000Y-119380000D03*
X143510000Y-116840000D03*
X146050000Y-116840000D03*
X143510000Y-114300000D03*
X146050000Y-114300000D03*
X143510000Y-111760000D03*
X146050000Y-111760000D03*
X143510000Y-109220000D03*
D15*
X146050000Y-109220000D03*
D14*
X143510000Y-99060000D03*
X146050000Y-99060000D03*
X143510000Y-96520000D03*
X146050000Y-96520000D03*
X143510000Y-93980000D03*
X146050000Y-93980000D03*
X143510000Y-91440000D03*
X146050000Y-91440000D03*
X143510000Y-88900000D03*
X146050000Y-88900000D03*
X143510000Y-86360000D03*
X146050000Y-86360000D03*
X143510000Y-83820000D03*
X146050000Y-83820000D03*
X143510000Y-81280000D03*
D15*
X146050000Y-81280000D03*
D16*
X119380000Y-152020000D03*
X119380000Y-147320000D03*
X119380000Y-142620000D03*
X132080000Y-152020000D03*
X132080000Y-147320000D03*
X132080000Y-142620000D03*
D17*
X152680000Y-147440000D03*
X162280000Y-147440000D03*
D18*
X159980000Y-154940000D03*
X157480000Y-154940000D03*
D19*
X154980000Y-154940000D03*
D17*
X152680000Y-109340000D03*
X162280000Y-109340000D03*
D18*
X159980000Y-116840000D03*
X157480000Y-116840000D03*
D19*
X154980000Y-116840000D03*
D17*
X152680000Y-71240000D03*
X162280000Y-71240000D03*
D18*
X159980000Y-78740000D03*
X157480000Y-78740000D03*
D19*
X154980000Y-78740000D03*
D17*
X152680000Y-33140000D03*
X162280000Y-33140000D03*
D18*
X159980000Y-40640000D03*
X157480000Y-40640000D03*
D19*
X154980000Y-40640000D03*
D17*
X89180000Y-147440000D03*
X98780000Y-147440000D03*
D18*
X96480000Y-154940000D03*
X93980000Y-154940000D03*
D19*
X91480000Y-154940000D03*
D17*
X89180000Y-109340000D03*
X98780000Y-109340000D03*
D18*
X96480000Y-116840000D03*
X93980000Y-116840000D03*
D19*
X91480000Y-116840000D03*
D17*
X89180000Y-71240000D03*
X98780000Y-71240000D03*
D18*
X96480000Y-78740000D03*
X93980000Y-78740000D03*
D19*
X91480000Y-78740000D03*
D17*
X89180000Y-33140000D03*
X98780000Y-33140000D03*
D18*
X96480000Y-40640000D03*
X93980000Y-40640000D03*
D19*
X91480000Y-40640000D03*
D14*
X105410000Y-132080000D03*
X105410000Y-129540000D03*
X105410000Y-127000000D03*
X105410000Y-124460000D03*
D15*
X105410000Y-121920000D03*
D14*
X105410000Y-114300000D03*
X105410000Y-111760000D03*
X105410000Y-109220000D03*
X105410000Y-106680000D03*
D15*
X105410000Y-104140000D03*
D14*
X105410000Y-83820000D03*
D15*
X105410000Y-81280000D03*
D14*
X170180000Y-132080000D03*
X170180000Y-129540000D03*
X170180000Y-127000000D03*
X170180000Y-124460000D03*
D15*
X170180000Y-121920000D03*
D14*
X124460000Y-43180000D03*
X127000000Y-43180000D03*
X124460000Y-40640000D03*
X127000000Y-40640000D03*
X124460000Y-38100000D03*
X127000000Y-38100000D03*
X124460000Y-35560000D03*
X127000000Y-35560000D03*
X124460000Y-33020000D03*
D15*
X127000000Y-33020000D03*
D14*
X81280000Y-134620000D03*
X81280000Y-132080000D03*
X81280000Y-129540000D03*
X81280000Y-127000000D03*
D15*
X81280000Y-124460000D03*
D20*
X104140000Y-43140000D03*
D12*
X104140000Y-40640000D03*
D20*
X104140000Y-35520000D03*
D12*
X104140000Y-33020000D03*
M02*
