M48
; DRILL file {KiCad 5.1.6-c6e7f7d~86~ubuntu18.04.1} date Sat Jun 20 10:00:19 2020
; FORMAT={-:-/ absolute / metric / decimal}
; #@! TF.CreationDate,2020-06-20T10:00:19-04:00
; #@! TF.GenerationSoftware,Kicad,Pcbnew,5.1.6-c6e7f7d~86~ubuntu18.04.1
; #@! TF.FileFunction,Plated,1,2,PTH
FMAT,2
METRIC
T1C0.400
T2C0.800
T3C0.900
T4C1.000
T5C1.100
T6C1.850
%
G90
G05
T1
X103.85Y-119.675
X104.5Y-136.1
X104.6Y-101.075
X104.623Y-63.932
X105.55Y-83.6
X106.807Y-71.603
X108.925Y-146.95
X110.338Y-128.016
X110.363Y-126.035
X111.15Y-81.28
X111.862Y-83.185
X113.58Y-129.184
X114.402Y-121.158
X114.546Y-90.828
X115.214Y-117.805
X115.519Y-76.505
X116.205Y-127.61
X116.375Y-146.8
X118.008Y-123.266
X118.925Y-115.7
X119.532Y-116.992
X119.939Y-120.574
X119.964Y-133.172
X120.7Y-137.15
X120.725Y-144.075
X120.752Y-128.194
X120.853Y-82.474
X121.539Y-107.975
X122.758Y-116.002
X123.065Y-100.201
X123.393Y-135.484
X124.175Y-141.775
X124.257Y-144.526
X124.993Y-80.493
X125.325Y-96.175
X125.387Y-90.797
X125.425Y-107.95
X125.501Y-106.02
X125.603Y-57.404
X126.06Y-114.249
X126.238Y-133.02
X126.39Y-129.235
X127.0Y-100.101
X127.6Y-112.525
X127.711Y-86.563
X127.882Y-94.082
X129.032Y-119.761
X129.108Y-121.742
X129.184Y-80.213
X129.21Y-124.663
X129.464Y-134.188
X130.378Y-93.243
X130.454Y-128.321
X130.581Y-116.154
X132.029Y-78.765
X132.436Y-95.286
X132.664Y-132.182
X133.006Y-110.23
X133.045Y-118.161
X133.375Y-92.1
X133.426Y-139.979
X133.435Y-102.378
X133.502Y-108.204
X133.528Y-105.359
X133.655Y-88.798
X133.731Y-113.157
X133.772Y-98.257
X133.833Y-126.086
X133.909Y-123.088
X134.44Y-115.748
X134.798Y-133.502
X135.165Y-112.471
X135.915Y-73.787
X135.966Y-80.162
X137.16Y-140.97
X137.211Y-111.328
X137.225Y-99.55
X137.262Y-144.272
X137.287Y-120.625
X137.312Y-114.071
X137.338Y-128.245
X137.414Y-133.985
X137.439Y-116.865
X137.516Y-124.663
X137.881Y-105.359
X137.881Y-108.229
X138.355Y-82.856
X138.405Y-63.5
X138.506Y-58.471
X138.619Y-93.98
X139.331Y-112.943
X139.548Y-53.569
X140.106Y-86.589
X140.284Y-81.331
X140.284Y-127.991
X140.335Y-140.97
X140.437Y-134.798
X140.513Y-84.074
X140.781Y-88.798
X141.275Y-121.336
X141.776Y-109.029
X141.961Y-124.333
X142.215Y-115.621
X142.392Y-88.417
X142.748Y-110.109
X142.875Y-103.556
X143.054Y-82.856
X144.247Y-123.723
X146.4Y-69.65
X146.66Y-118.034
X146.825Y-60.875
X146.95Y-74.45
X146.964Y-126.162
X147.295Y-93.726
X147.645Y-107.569
X149.047Y-82.499
X149.911Y-93.066
X150.05Y-102.95
X150.45Y-87.2
X150.575Y-95.125
X151.55Y-113.175
X151.562Y-53.696
X151.6Y-122.925
X151.689Y-89.789
X151.867Y-93.32
X152.121Y-107.086
X152.55Y-146.575
X153.086Y-83.896
X153.975Y-132.105
X154.127Y-89.586
X154.229Y-95.25
X156.55Y-104.45
X156.7Y-113.4
X156.925Y-122.2
X158.8Y-75.8
X159.41Y-85.369
X161.075Y-61.425
X162.408Y-148.514
X162.484Y-81.813
X162.563Y-93.759
X162.662Y-97.815
X162.865Y-94.945
X163.322Y-53.696
X163.373Y-101.625
X163.398Y-85.192
X163.5Y-116.205
X163.703Y-119.583
X163.754Y-113.767
X163.779Y-128.245
X163.85Y-88.036
X164.47Y-97.655
X164.649Y-94.737
X165.075Y-123.774
X165.405Y-81.483
X165.7Y-73.525
X165.989Y-119.736
X166.4Y-87.7
X166.497Y-134.452
X167.945Y-116.383
X169.088Y-134.391
X169.306Y-98.306
X169.327Y-94.899
X170.637Y-141.554
X170.829Y-94.915
X171.018Y-131.648
X171.033Y-79.843
X172.75Y-123.185
X172.862Y-130.907
X172.883Y-97.551
X172.901Y-105.843
X173.1Y-70.125
X173.203Y-118.466
X173.431Y-108.102
X174.777Y-119.609
X175.031Y-116.434
X175.687Y-100.191
X175.743Y-88.951
X175.755Y-107.861
X175.895Y-102.032
X175.9Y-94.762
X176.403Y-145.72
X176.53Y-138.151
X176.606Y-142.748
X176.759Y-111.252
X177.925Y-97.65
X178.013Y-111.399
X178.13Y-79.807
X178.15Y-95.275
X178.196Y-133.42
X178.308Y-124.587
X178.486Y-108.991
X178.664Y-55.118
X178.791Y-119.405
X179.222Y-129.591
X179.344Y-116.55
X179.426Y-100.508
X179.476Y-138.862
X179.827Y-114.178
X180.416Y-83.337
X180.442Y-89.916
X180.873Y-95.275
X182.194Y-144.602
X182.296Y-77.851
X183.159Y-128.477
X183.185Y-84.531
X183.47Y-119.558
X184.861Y-100.457
X185.826Y-81.813
X186.162Y-115.735
X186.279Y-87.008
X186.789Y-106.561
X186.969Y-119.106
X187.554Y-83.896
X187.884Y-74.651
X187.935Y-88.24
X190.096Y-91.163
X190.5Y-69.215
X190.713Y-129.024
X191.541Y-89.002
X192.95Y-146.675
X194.277Y-87.846
X195.428Y-75.311
X196.4Y-86.439
X196.675Y-108.925
X196.975Y-120.65
X197.079Y-55.626
X198.12Y-65.1
X198.35Y-83.375
X198.6Y-137.075
T2
X129.057Y-71.069
X130.073Y-104.14
X144.78Y-82.296
X144.78Y-84.836
X144.78Y-87.376
X157.48Y-82.296
X157.48Y-84.836
X157.48Y-87.376
X166.37Y-56.515
X166.37Y-59.015
X166.37Y-64.135
X166.37Y-66.635
T3
X198.755Y-76.2
X198.755Y-78.74
X103.505Y-76.2
X103.505Y-78.74
T4
X165.1Y-147.32
X167.64Y-147.32
X170.18Y-147.32
X172.72Y-147.32
X175.26Y-147.32
X177.8Y-147.32
X180.34Y-147.32
X110.53Y-104.14
X113.03Y-104.14
X115.53Y-104.14
X186.73Y-66.04
X189.23Y-66.04
X191.73Y-66.04
X121.92Y-147.32
X124.46Y-147.32
X127.0Y-147.32
X129.54Y-147.32
X132.08Y-147.32
X134.62Y-147.32
X137.16Y-147.32
X186.73Y-104.14
X189.23Y-104.14
X191.73Y-104.14
X110.53Y-142.24
X113.03Y-142.24
X115.53Y-142.24
X177.8Y-60.96
X177.8Y-63.5
X177.8Y-66.04
X177.8Y-68.58
X177.8Y-71.12
X180.34Y-60.96
X180.34Y-63.5
X180.34Y-66.04
X180.34Y-68.58
X180.34Y-71.12
X110.53Y-66.04
X113.03Y-66.04
X115.53Y-66.04
X186.73Y-142.24
X189.23Y-142.24
X191.73Y-142.24
T6
X157.48Y-53.72
X157.48Y-58.42
X157.48Y-63.12
X144.78Y-53.72
X144.78Y-58.42
X144.78Y-63.12
X157.48Y-91.82
X157.48Y-96.52
X157.48Y-101.22
X157.48Y-129.92
X157.48Y-134.62
X157.48Y-139.32
X144.78Y-91.82
X144.78Y-96.52
X144.78Y-101.22
X144.78Y-129.92
X144.78Y-134.62
X144.78Y-139.32
T5
G00X108.23Y-96.99
M15
G01X108.23Y-96.29
M16
G05
G00X117.83Y-96.99
M15
G01X117.83Y-96.29
M16
G05
G00X184.43Y-58.89
M15
G01X184.43Y-58.19
M16
G05
G00X194.03Y-58.89
M15
G01X194.03Y-58.19
M16
G05
G00X184.43Y-96.99
M15
G01X184.43Y-96.29
M16
G05
G00X194.03Y-96.99
M15
G01X194.03Y-96.29
M16
G05
G00X108.23Y-135.09
M15
G01X108.23Y-134.39
M16
G05
G00X117.83Y-135.09
M15
G01X117.83Y-134.39
M16
G05
G00X108.23Y-58.89
M15
G01X108.23Y-58.19
M16
G05
G00X117.83Y-58.89
M15
G01X117.83Y-58.19
M16
G05
G00X184.43Y-135.09
M15
G01X184.43Y-134.39
M16
G05
G00X194.03Y-135.09
M15
G01X194.03Y-134.39
M16
G05
T0
M30
