G04 #@! TF.GenerationSoftware,KiCad,Pcbnew,5.1.6-c6e7f7d~86~ubuntu18.04.1*
G04 #@! TF.CreationDate,2020-06-20T09:53:32-04:00*
G04 #@! TF.ProjectId,filter_carrier_board,66696c74-6572-45f6-9361-72726965725f,rev?*
G04 #@! TF.SameCoordinates,Original*
G04 #@! TF.FileFunction,Legend,Top*
G04 #@! TF.FilePolarity,Positive*
%FSLAX46Y46*%
G04 Gerber Fmt 4.6, Leading zero omitted, Abs format (unit mm)*
G04 Created by KiCad (PCBNEW 5.1.6-c6e7f7d~86~ubuntu18.04.1) date 2020-06-20 09:53:32*
%MOMM*%
%LPD*%
G01*
G04 APERTURE LIST*
%ADD10C,0.120000*%
%ADD11C,0.150000*%
G04 APERTURE END LIST*
D10*
X190890000Y-124850000D02*
X190060000Y-124850000D01*
X188440000Y-124850000D02*
X187910000Y-124850000D01*
X185540000Y-124850000D02*
X184360000Y-124850000D01*
X194100000Y-124850000D02*
X194100000Y-120130000D01*
X184360000Y-116320000D02*
X184360000Y-113260000D01*
X184350000Y-124850000D02*
X184350000Y-120130000D01*
X194100000Y-116320000D02*
X194100000Y-113260000D01*
X194100000Y-124850000D02*
X192610000Y-124850000D01*
X194100000Y-113260000D02*
X184360000Y-113260000D01*
X152750000Y-143900000D02*
X151920000Y-143900000D01*
X150300000Y-143900000D02*
X149770000Y-143900000D01*
X147400000Y-143900000D02*
X146220000Y-143900000D01*
X155960000Y-143900000D02*
X155960000Y-139180000D01*
X146220000Y-135370000D02*
X146220000Y-132310000D01*
X146210000Y-143900000D02*
X146210000Y-139180000D01*
X155960000Y-135370000D02*
X155960000Y-132310000D01*
X155960000Y-143900000D02*
X154470000Y-143900000D01*
X155960000Y-132310000D02*
X146220000Y-132310000D01*
X152750000Y-105800000D02*
X151920000Y-105800000D01*
X150300000Y-105800000D02*
X149770000Y-105800000D01*
X147400000Y-105800000D02*
X146220000Y-105800000D01*
X155960000Y-105800000D02*
X155960000Y-101080000D01*
X146220000Y-97270000D02*
X146220000Y-94210000D01*
X146210000Y-105800000D02*
X146210000Y-101080000D01*
X155960000Y-97270000D02*
X155960000Y-94210000D01*
X155960000Y-105800000D02*
X154470000Y-105800000D01*
X155960000Y-94210000D02*
X146220000Y-94210000D01*
X152750000Y-67700000D02*
X151920000Y-67700000D01*
X150300000Y-67700000D02*
X149770000Y-67700000D01*
X147400000Y-67700000D02*
X146220000Y-67700000D01*
X155960000Y-67700000D02*
X155960000Y-62980000D01*
X146220000Y-59170000D02*
X146220000Y-56110000D01*
X146210000Y-67700000D02*
X146210000Y-62980000D01*
X155960000Y-59170000D02*
X155960000Y-56110000D01*
X155960000Y-67700000D02*
X154470000Y-67700000D01*
X155960000Y-56110000D02*
X146220000Y-56110000D01*
X190890000Y-86750000D02*
X190060000Y-86750000D01*
X188440000Y-86750000D02*
X187910000Y-86750000D01*
X185540000Y-86750000D02*
X184360000Y-86750000D01*
X194100000Y-86750000D02*
X194100000Y-82030000D01*
X184360000Y-78220000D02*
X184360000Y-75160000D01*
X184350000Y-86750000D02*
X184350000Y-82030000D01*
X194100000Y-78220000D02*
X194100000Y-75160000D01*
X194100000Y-86750000D02*
X192610000Y-86750000D01*
X194100000Y-75160000D02*
X184360000Y-75160000D01*
X114650000Y-143900000D02*
X113820000Y-143900000D01*
X112200000Y-143900000D02*
X111670000Y-143900000D01*
X109300000Y-143900000D02*
X108120000Y-143900000D01*
X117860000Y-143900000D02*
X117860000Y-139180000D01*
X108120000Y-135370000D02*
X108120000Y-132310000D01*
X108110000Y-143900000D02*
X108110000Y-139180000D01*
X117860000Y-135370000D02*
X117860000Y-132310000D01*
X117860000Y-143900000D02*
X116370000Y-143900000D01*
X117860000Y-132310000D02*
X108120000Y-132310000D01*
X114650000Y-105800000D02*
X113820000Y-105800000D01*
X112200000Y-105800000D02*
X111670000Y-105800000D01*
X109300000Y-105800000D02*
X108120000Y-105800000D01*
X117860000Y-105800000D02*
X117860000Y-101080000D01*
X108120000Y-97270000D02*
X108120000Y-94210000D01*
X108110000Y-105800000D02*
X108110000Y-101080000D01*
X117860000Y-97270000D02*
X117860000Y-94210000D01*
X117860000Y-105800000D02*
X116370000Y-105800000D01*
X117860000Y-94210000D02*
X108120000Y-94210000D01*
X114730000Y-67700000D02*
X113900000Y-67700000D01*
X112280000Y-67700000D02*
X111750000Y-67700000D01*
X109380000Y-67700000D02*
X108200000Y-67700000D01*
X117940000Y-67700000D02*
X117940000Y-62980000D01*
X108200000Y-59170000D02*
X108200000Y-56110000D01*
X108190000Y-67700000D02*
X108190000Y-62980000D01*
X117940000Y-59170000D02*
X117940000Y-56110000D01*
X117940000Y-67700000D02*
X116450000Y-67700000D01*
X117940000Y-56110000D02*
X108200000Y-56110000D01*
D11*
X188674761Y-112212380D02*
X188341428Y-111736190D01*
X188103333Y-112212380D02*
X188103333Y-111212380D01*
X188484285Y-111212380D01*
X188579523Y-111260000D01*
X188627142Y-111307619D01*
X188674761Y-111402857D01*
X188674761Y-111545714D01*
X188627142Y-111640952D01*
X188579523Y-111688571D01*
X188484285Y-111736190D01*
X188103333Y-111736190D01*
X188960476Y-111212380D02*
X189293809Y-112212380D01*
X189627142Y-111212380D01*
X190103333Y-111640952D02*
X190008095Y-111593333D01*
X189960476Y-111545714D01*
X189912857Y-111450476D01*
X189912857Y-111402857D01*
X189960476Y-111307619D01*
X190008095Y-111260000D01*
X190103333Y-111212380D01*
X190293809Y-111212380D01*
X190389047Y-111260000D01*
X190436666Y-111307619D01*
X190484285Y-111402857D01*
X190484285Y-111450476D01*
X190436666Y-111545714D01*
X190389047Y-111593333D01*
X190293809Y-111640952D01*
X190103333Y-111640952D01*
X190008095Y-111688571D01*
X189960476Y-111736190D01*
X189912857Y-111831428D01*
X189912857Y-112021904D01*
X189960476Y-112117142D01*
X190008095Y-112164761D01*
X190103333Y-112212380D01*
X190293809Y-112212380D01*
X190389047Y-112164761D01*
X190436666Y-112117142D01*
X190484285Y-112021904D01*
X190484285Y-111831428D01*
X190436666Y-111736190D01*
X190389047Y-111688571D01*
X190293809Y-111640952D01*
X150534761Y-131262380D02*
X150201428Y-130786190D01*
X149963333Y-131262380D02*
X149963333Y-130262380D01*
X150344285Y-130262380D01*
X150439523Y-130310000D01*
X150487142Y-130357619D01*
X150534761Y-130452857D01*
X150534761Y-130595714D01*
X150487142Y-130690952D01*
X150439523Y-130738571D01*
X150344285Y-130786190D01*
X149963333Y-130786190D01*
X150820476Y-130262380D02*
X151153809Y-131262380D01*
X151487142Y-130262380D01*
X151725238Y-130262380D02*
X152391904Y-130262380D01*
X151963333Y-131262380D01*
X150534761Y-93162380D02*
X150201428Y-92686190D01*
X149963333Y-93162380D02*
X149963333Y-92162380D01*
X150344285Y-92162380D01*
X150439523Y-92210000D01*
X150487142Y-92257619D01*
X150534761Y-92352857D01*
X150534761Y-92495714D01*
X150487142Y-92590952D01*
X150439523Y-92638571D01*
X150344285Y-92686190D01*
X149963333Y-92686190D01*
X150820476Y-92162380D02*
X151153809Y-93162380D01*
X151487142Y-92162380D01*
X152249047Y-92162380D02*
X152058571Y-92162380D01*
X151963333Y-92210000D01*
X151915714Y-92257619D01*
X151820476Y-92400476D01*
X151772857Y-92590952D01*
X151772857Y-92971904D01*
X151820476Y-93067142D01*
X151868095Y-93114761D01*
X151963333Y-93162380D01*
X152153809Y-93162380D01*
X152249047Y-93114761D01*
X152296666Y-93067142D01*
X152344285Y-92971904D01*
X152344285Y-92733809D01*
X152296666Y-92638571D01*
X152249047Y-92590952D01*
X152153809Y-92543333D01*
X151963333Y-92543333D01*
X151868095Y-92590952D01*
X151820476Y-92638571D01*
X151772857Y-92733809D01*
X150534761Y-55062380D02*
X150201428Y-54586190D01*
X149963333Y-55062380D02*
X149963333Y-54062380D01*
X150344285Y-54062380D01*
X150439523Y-54110000D01*
X150487142Y-54157619D01*
X150534761Y-54252857D01*
X150534761Y-54395714D01*
X150487142Y-54490952D01*
X150439523Y-54538571D01*
X150344285Y-54586190D01*
X149963333Y-54586190D01*
X150820476Y-54062380D02*
X151153809Y-55062380D01*
X151487142Y-54062380D01*
X152296666Y-54062380D02*
X151820476Y-54062380D01*
X151772857Y-54538571D01*
X151820476Y-54490952D01*
X151915714Y-54443333D01*
X152153809Y-54443333D01*
X152249047Y-54490952D01*
X152296666Y-54538571D01*
X152344285Y-54633809D01*
X152344285Y-54871904D01*
X152296666Y-54967142D01*
X152249047Y-55014761D01*
X152153809Y-55062380D01*
X151915714Y-55062380D01*
X151820476Y-55014761D01*
X151772857Y-54967142D01*
X188674761Y-74112380D02*
X188341428Y-73636190D01*
X188103333Y-74112380D02*
X188103333Y-73112380D01*
X188484285Y-73112380D01*
X188579523Y-73160000D01*
X188627142Y-73207619D01*
X188674761Y-73302857D01*
X188674761Y-73445714D01*
X188627142Y-73540952D01*
X188579523Y-73588571D01*
X188484285Y-73636190D01*
X188103333Y-73636190D01*
X188960476Y-73112380D02*
X189293809Y-74112380D01*
X189627142Y-73112380D01*
X190389047Y-73445714D02*
X190389047Y-74112380D01*
X190150952Y-73064761D02*
X189912857Y-73779047D01*
X190531904Y-73779047D01*
X112434761Y-131262380D02*
X112101428Y-130786190D01*
X111863333Y-131262380D02*
X111863333Y-130262380D01*
X112244285Y-130262380D01*
X112339523Y-130310000D01*
X112387142Y-130357619D01*
X112434761Y-130452857D01*
X112434761Y-130595714D01*
X112387142Y-130690952D01*
X112339523Y-130738571D01*
X112244285Y-130786190D01*
X111863333Y-130786190D01*
X112720476Y-130262380D02*
X113053809Y-131262380D01*
X113387142Y-130262380D01*
X113625238Y-130262380D02*
X114244285Y-130262380D01*
X113910952Y-130643333D01*
X114053809Y-130643333D01*
X114149047Y-130690952D01*
X114196666Y-130738571D01*
X114244285Y-130833809D01*
X114244285Y-131071904D01*
X114196666Y-131167142D01*
X114149047Y-131214761D01*
X114053809Y-131262380D01*
X113768095Y-131262380D01*
X113672857Y-131214761D01*
X113625238Y-131167142D01*
X112434761Y-93162380D02*
X112101428Y-92686190D01*
X111863333Y-93162380D02*
X111863333Y-92162380D01*
X112244285Y-92162380D01*
X112339523Y-92210000D01*
X112387142Y-92257619D01*
X112434761Y-92352857D01*
X112434761Y-92495714D01*
X112387142Y-92590952D01*
X112339523Y-92638571D01*
X112244285Y-92686190D01*
X111863333Y-92686190D01*
X112720476Y-92162380D02*
X113053809Y-93162380D01*
X113387142Y-92162380D01*
X113672857Y-92257619D02*
X113720476Y-92210000D01*
X113815714Y-92162380D01*
X114053809Y-92162380D01*
X114149047Y-92210000D01*
X114196666Y-92257619D01*
X114244285Y-92352857D01*
X114244285Y-92448095D01*
X114196666Y-92590952D01*
X113625238Y-93162380D01*
X114244285Y-93162380D01*
X112434761Y-55062380D02*
X112101428Y-54586190D01*
X111863333Y-55062380D02*
X111863333Y-54062380D01*
X112244285Y-54062380D01*
X112339523Y-54110000D01*
X112387142Y-54157619D01*
X112434761Y-54252857D01*
X112434761Y-54395714D01*
X112387142Y-54490952D01*
X112339523Y-54538571D01*
X112244285Y-54586190D01*
X111863333Y-54586190D01*
X112720476Y-54062380D02*
X113053809Y-55062380D01*
X113387142Y-54062380D01*
X114244285Y-55062380D02*
X113672857Y-55062380D01*
X113958571Y-55062380D02*
X113958571Y-54062380D01*
X113863333Y-54205238D01*
X113768095Y-54300476D01*
X113672857Y-54348095D01*
M02*
