G04 #@! TF.GenerationSoftware,KiCad,Pcbnew,5.1.6-c6e7f7d~86~ubuntu18.04.1*
G04 #@! TF.CreationDate,2020-06-20T09:53:32-04:00*
G04 #@! TF.ProjectId,filter_carrier_board,66696c74-6572-45f6-9361-72726965725f,rev?*
G04 #@! TF.SameCoordinates,Original*
G04 #@! TF.FileFunction,Soldermask,Bot*
G04 #@! TF.FilePolarity,Negative*
%FSLAX46Y46*%
G04 Gerber Fmt 4.6, Leading zero omitted, Abs format (unit mm)*
G04 Created by KiCad (PCBNEW 5.1.6-c6e7f7d~86~ubuntu18.04.1) date 2020-06-20 09:53:32*
%MOMM*%
%LPD*%
G01*
G04 APERTURE LIST*
%ADD10R,0.900000X2.000000*%
%ADD11O,1.700000X1.700000*%
%ADD12R,1.700000X1.700000*%
%ADD13C,1.700000*%
%ADD14O,2.820000X3.340000*%
%ADD15C,1.900000*%
%ADD16R,1.900000X1.900000*%
%ADD17O,1.800000X1.800000*%
%ADD18R,1.800000X1.800000*%
G04 APERTURE END LIST*
D10*
X188026000Y-135430000D03*
X187076000Y-138430000D03*
X188976000Y-138430000D03*
D11*
X172720000Y-125730000D03*
X180340000Y-118110000D03*
X175260000Y-125730000D03*
X177800000Y-118110000D03*
X177800000Y-125730000D03*
X175260000Y-118110000D03*
X180340000Y-125730000D03*
D12*
X172720000Y-118110000D03*
D11*
X177800000Y-128270000D03*
D13*
X177800000Y-138430000D03*
D11*
X180975000Y-138430000D03*
D13*
X180975000Y-128270000D03*
D11*
X197358000Y-114808000D03*
D13*
X197358000Y-107308000D03*
D11*
X197612000Y-130182000D03*
D13*
X197612000Y-122682000D03*
D11*
X174625000Y-138310000D03*
D13*
X174625000Y-130810000D03*
D11*
X194698000Y-141986000D03*
D13*
X187198000Y-141986000D03*
D11*
X129540000Y-125730000D03*
X137160000Y-118110000D03*
X132080000Y-125730000D03*
X134620000Y-118110000D03*
X134620000Y-125730000D03*
X132080000Y-118110000D03*
X137160000Y-125730000D03*
D12*
X129540000Y-118110000D03*
D11*
X154940000Y-125730000D03*
X162560000Y-118110000D03*
X157480000Y-125730000D03*
X160020000Y-118110000D03*
X160020000Y-125730000D03*
X157480000Y-118110000D03*
X162560000Y-125730000D03*
D12*
X154940000Y-118110000D03*
D14*
X184430000Y-118230000D03*
X194030000Y-118230000D03*
D15*
X191730000Y-125730000D03*
X189230000Y-125730000D03*
D16*
X186730000Y-125730000D03*
D14*
X146290000Y-137280000D03*
X155890000Y-137280000D03*
D15*
X153590000Y-144780000D03*
X151090000Y-144780000D03*
D16*
X148590000Y-144780000D03*
D14*
X146290000Y-99180000D03*
X155890000Y-99180000D03*
D15*
X153590000Y-106680000D03*
X151090000Y-106680000D03*
D16*
X148590000Y-106680000D03*
D14*
X146290000Y-61080000D03*
X155890000Y-61080000D03*
D15*
X153590000Y-68580000D03*
X151090000Y-68580000D03*
D16*
X148590000Y-68580000D03*
D14*
X184430000Y-80130000D03*
X194030000Y-80130000D03*
D15*
X191730000Y-87630000D03*
X189230000Y-87630000D03*
D16*
X186730000Y-87630000D03*
D14*
X108190000Y-137280000D03*
X117790000Y-137280000D03*
D15*
X115490000Y-144780000D03*
X112990000Y-144780000D03*
D16*
X110490000Y-144780000D03*
D14*
X108190000Y-99180000D03*
X117790000Y-99180000D03*
D15*
X115490000Y-106680000D03*
X112990000Y-106680000D03*
D16*
X110490000Y-106680000D03*
D14*
X108270000Y-61080000D03*
X117870000Y-61080000D03*
D15*
X115570000Y-68580000D03*
X113070000Y-68580000D03*
D16*
X110570000Y-68580000D03*
D11*
X184150000Y-128270000D03*
D13*
X184150000Y-138430000D03*
D11*
X123190000Y-128270000D03*
D13*
X123190000Y-138430000D03*
D11*
X158750000Y-128270000D03*
D13*
X158750000Y-138430000D03*
D11*
X162560000Y-128270000D03*
D13*
X162560000Y-138430000D03*
D11*
X130810000Y-128270000D03*
D13*
X130810000Y-138430000D03*
D11*
X142240000Y-128270000D03*
D13*
X142240000Y-138430000D03*
D11*
X166370000Y-138430000D03*
D13*
X166370000Y-128270000D03*
D11*
X134620000Y-138430000D03*
D13*
X134620000Y-128270000D03*
D11*
X138430000Y-138430000D03*
D13*
X138430000Y-128270000D03*
D11*
X128270000Y-115570000D03*
D13*
X128270000Y-105410000D03*
D11*
X158750000Y-115570000D03*
D13*
X158750000Y-105410000D03*
D11*
X143510000Y-105410000D03*
D13*
X143510000Y-115570000D03*
D11*
X139700000Y-105410000D03*
D13*
X139700000Y-115570000D03*
D11*
X135890000Y-105410000D03*
D13*
X135890000Y-115570000D03*
D11*
X132080000Y-105410000D03*
D13*
X132080000Y-115570000D03*
D11*
X170180000Y-105410000D03*
D13*
X170180000Y-115570000D03*
D11*
X166370000Y-105410000D03*
D13*
X166370000Y-115570000D03*
D11*
X162560000Y-105410000D03*
D13*
X162560000Y-115570000D03*
D17*
X193040000Y-66040000D03*
X195580000Y-66040000D03*
X193040000Y-63500000D03*
X195580000Y-63500000D03*
X193040000Y-60960000D03*
X195580000Y-60960000D03*
X193040000Y-58420000D03*
X195580000Y-58420000D03*
X193040000Y-55880000D03*
D18*
X195580000Y-55880000D03*
D17*
X125730000Y-147320000D03*
D18*
X125730000Y-144780000D03*
D17*
X124460000Y-114300000D03*
X124460000Y-111760000D03*
X124460000Y-109220000D03*
X124460000Y-106680000D03*
X124460000Y-104140000D03*
X124460000Y-101600000D03*
X124460000Y-99060000D03*
D18*
X124460000Y-96520000D03*
D17*
X124460000Y-76200000D03*
X124460000Y-73660000D03*
X124460000Y-71120000D03*
D18*
X124460000Y-68580000D03*
D17*
X162560000Y-147320000D03*
D18*
X162560000Y-144780000D03*
D17*
X177800000Y-114300000D03*
X177800000Y-111760000D03*
X177800000Y-109220000D03*
D18*
X177800000Y-106680000D03*
D17*
X177800000Y-76200000D03*
X177800000Y-73660000D03*
X177800000Y-71120000D03*
D18*
X177800000Y-68580000D03*
D17*
X139700000Y-147320000D03*
D18*
X139700000Y-144780000D03*
D17*
X105410000Y-86360000D03*
X105410000Y-83820000D03*
X105410000Y-81280000D03*
D18*
X105410000Y-78740000D03*
D17*
X106680000Y-121920000D03*
X106680000Y-119380000D03*
X106680000Y-116840000D03*
D18*
X106680000Y-114300000D03*
D11*
X123190000Y-120650000D03*
D13*
X115690000Y-120650000D03*
D11*
X126359920Y-133255400D03*
D13*
X126359920Y-125755400D03*
D11*
X148590000Y-119786400D03*
D13*
X148590000Y-112286400D03*
D11*
X148590000Y-130690000D03*
D13*
X148590000Y-123190000D03*
X182245000Y-64095000D03*
D12*
X182245000Y-61595000D03*
D13*
X182245000Y-56515000D03*
D12*
X182245000Y-54015000D03*
M02*
