M48
; DRILL file {KiCad 5.1.6-c6e7f7d~86~ubuntu18.04.1} date Sat Jun 20 09:53:18 2020
; FORMAT={-:-/ absolute / metric / decimal}
; #@! TF.CreationDate,2020-06-20T09:53:18-04:00
; #@! TF.GenerationSoftware,Kicad,Pcbnew,5.1.6-c6e7f7d~86~ubuntu18.04.1
; #@! TF.FileFunction,Plated,1,2,PTH
FMAT,2
METRIC
T1C0.400
T2C0.800
T3C1.000
T4C1.100
%
G90
G05
T1
X103.353Y-143.688
X104.628Y-142.636
X105.918Y-67.056
X119.385Y-81.961
X126.492Y-116.84
X127.01Y-112.41
X132.258Y-89.774
X153.162Y-128.321
X158.852Y-76.454
X165.1Y-84.633
X172.527Y-143.525
X173.954Y-87.528
X175.194Y-104.17
X177.394Y-140.513
X178.643Y-123.927
X182.372Y-91.186
T2
X158.75Y-128.27
X158.75Y-138.43
X166.37Y-105.41
X166.37Y-115.57
X187.198Y-141.986
X194.698Y-141.986
X126.36Y-125.755
X126.36Y-133.255
X170.18Y-105.41
X170.18Y-115.57
X197.612Y-122.682
X197.612Y-130.182
X139.7Y-105.41
X139.7Y-115.57
X172.72Y-118.11
X172.72Y-125.73
X175.26Y-118.11
X175.26Y-125.73
X177.8Y-118.11
X177.8Y-125.73
X180.34Y-118.11
X180.34Y-125.73
X177.8Y-128.27
X177.8Y-138.43
X142.24Y-128.27
X142.24Y-138.43
X148.59Y-112.286
X148.59Y-119.786
X143.51Y-105.41
X143.51Y-115.57
X197.358Y-107.308
X197.358Y-114.808
X132.08Y-105.41
X132.08Y-115.57
X182.245Y-61.595
X182.245Y-64.095
X162.56Y-128.27
X162.56Y-138.43
X182.245Y-54.015
X182.245Y-56.515
X158.75Y-105.41
X158.75Y-115.57
X162.56Y-105.41
X162.56Y-115.57
X154.94Y-118.11
X154.94Y-125.73
X157.48Y-118.11
X157.48Y-125.73
X160.02Y-118.11
X160.02Y-125.73
X162.56Y-118.11
X162.56Y-125.73
X184.15Y-128.27
X184.15Y-138.43
X123.19Y-128.27
X123.19Y-138.43
X115.69Y-120.65
X123.19Y-120.65
X135.89Y-105.41
X135.89Y-115.57
X129.54Y-118.11
X129.54Y-125.73
X132.08Y-118.11
X132.08Y-125.73
X134.62Y-118.11
X134.62Y-125.73
X137.16Y-118.11
X137.16Y-125.73
X128.27Y-105.41
X128.27Y-115.57
X130.81Y-128.27
X130.81Y-138.43
X134.62Y-128.27
X134.62Y-138.43
X180.975Y-128.27
X180.975Y-138.43
X166.37Y-128.27
X166.37Y-138.43
X138.43Y-128.27
X138.43Y-138.43
X174.625Y-130.81
X174.625Y-138.31
X148.59Y-123.19
X148.59Y-130.69
T3
X110.49Y-106.68
X112.99Y-106.68
X115.49Y-106.68
X148.59Y-68.58
X151.09Y-68.58
X153.59Y-68.58
X148.59Y-144.78
X151.09Y-144.78
X153.59Y-144.78
X177.8Y-68.58
X177.8Y-71.12
X177.8Y-73.66
X177.8Y-76.2
X177.8Y-106.68
X177.8Y-109.22
X177.8Y-111.76
X177.8Y-114.3
X186.73Y-87.63
X189.23Y-87.63
X191.73Y-87.63
X125.73Y-144.78
X125.73Y-147.32
X106.68Y-114.3
X106.68Y-116.84
X106.68Y-119.38
X106.68Y-121.92
X186.73Y-125.73
X189.23Y-125.73
X191.73Y-125.73
X124.46Y-96.52
X124.46Y-99.06
X124.46Y-101.6
X124.46Y-104.14
X124.46Y-106.68
X124.46Y-109.22
X124.46Y-111.76
X124.46Y-114.3
X110.49Y-144.78
X112.99Y-144.78
X115.49Y-144.78
X110.57Y-68.58
X113.07Y-68.58
X115.57Y-68.58
X148.59Y-106.68
X151.09Y-106.68
X153.59Y-106.68
X105.41Y-78.74
X105.41Y-81.28
X105.41Y-83.82
X105.41Y-86.36
X193.04Y-55.88
X193.04Y-58.42
X193.04Y-60.96
X193.04Y-63.5
X193.04Y-66.04
X195.58Y-55.88
X195.58Y-58.42
X195.58Y-60.96
X195.58Y-63.5
X195.58Y-66.04
X124.46Y-68.58
X124.46Y-71.12
X124.46Y-73.66
X124.46Y-76.2
X162.56Y-144.78
X162.56Y-147.32
X139.7Y-144.78
X139.7Y-147.32
T4
G00X146.29Y-137.63
M15
G01X146.29Y-136.93
M16
G05
G00X155.89Y-137.63
M15
G01X155.89Y-136.93
M16
G05
G00X184.43Y-80.48
M15
G01X184.43Y-79.78
M16
G05
G00X194.03Y-80.48
M15
G01X194.03Y-79.78
M16
G05
G00X184.43Y-118.58
M15
G01X184.43Y-117.88
M16
G05
G00X194.03Y-118.58
M15
G01X194.03Y-117.88
M16
G05
G00X108.19Y-137.63
M15
G01X108.19Y-136.93
M16
G05
G00X117.79Y-137.63
M15
G01X117.79Y-136.93
M16
G05
G00X108.27Y-61.43
M15
G01X108.27Y-60.73
M16
G05
G00X117.87Y-61.43
M15
G01X117.87Y-60.73
M16
G05
G00X146.29Y-99.53
M15
G01X146.29Y-98.83
M16
G05
G00X155.89Y-99.53
M15
G01X155.89Y-98.83
M16
G05
G00X108.19Y-99.53
M15
G01X108.19Y-98.83
M16
G05
G00X117.79Y-99.53
M15
G01X117.79Y-98.83
M16
G05
G00X146.29Y-61.43
M15
G01X146.29Y-60.73
M16
G05
G00X155.89Y-61.43
M15
G01X155.89Y-60.73
M16
G05
T0
M30
