%TF.GenerationSoftware,KiCad,Pcbnew,5.1.6-c6e7f7d~86~ubuntu18.04.1*%
%TF.CreationDate,2020-06-20T09:42:55-04:00*%
%TF.ProjectId,dual_MS20_VCF,6475616c-5f4d-4533-9230-5f5643462e6b,rev?*%
%TF.SameCoordinates,Original*%
%TF.FileFunction,Soldermask,Bot*%
%TF.FilePolarity,Negative*%
%FSLAX46Y46*%
G04 Gerber Fmt 4.6, Leading zero omitted, Abs format (unit mm)*
G04 Created by KiCad (PCBNEW 5.1.6-c6e7f7d~86~ubuntu18.04.1) date 2020-06-20 09:42:55*
%MOMM*%
%LPD*%
G01*
G04 APERTURE LIST*
%ADD10O,1.800000X1.800000*%
%ADD11R,1.800000X1.800000*%
%ADD12O,1.700000X1.700000*%
%ADD13R,1.700000X1.700000*%
%ADD14O,2.820000X3.340000*%
%ADD15C,1.900000*%
%ADD16R,1.900000X1.900000*%
%ADD17C,1.700000*%
%ADD18R,1.150000X1.600000*%
%ADD19O,1.150000X1.600000*%
G04 APERTURE END LIST*
D10*
%TO.C,J4*%
X108585000Y-120015000D03*
D11*
X106045000Y-120015000D03*
%TD*%
D10*
%TO.C,J3*%
X105410000Y-68580000D03*
X107950000Y-68580000D03*
X105410000Y-66040000D03*
X107950000Y-66040000D03*
X105410000Y-63500000D03*
X107950000Y-63500000D03*
X105410000Y-60960000D03*
X107950000Y-60960000D03*
X105410000Y-58420000D03*
D11*
X107950000Y-58420000D03*
%TD*%
D12*
%TO.C,U7*%
X114808000Y-93726000D03*
X107188000Y-101346000D03*
X112268000Y-93726000D03*
X109728000Y-101346000D03*
X109728000Y-93726000D03*
X112268000Y-101346000D03*
X107188000Y-93726000D03*
D13*
X114808000Y-101346000D03*
%TD*%
D12*
%TO.C,U6*%
X156210000Y-143256000D03*
X148590000Y-135636000D03*
X156210000Y-140716000D03*
X148590000Y-138176000D03*
X156210000Y-138176000D03*
X148590000Y-140716000D03*
X156210000Y-135636000D03*
D13*
X148590000Y-143256000D03*
%TD*%
D12*
%TO.C,U5*%
X156210000Y-108458000D03*
X148590000Y-100838000D03*
X156210000Y-105918000D03*
X148590000Y-103378000D03*
X156210000Y-103378000D03*
X148590000Y-105918000D03*
X156210000Y-100838000D03*
D13*
X148590000Y-108458000D03*
%TD*%
D12*
%TO.C,U4*%
X156210000Y-130810000D03*
X148590000Y-113030000D03*
X156210000Y-128270000D03*
X148590000Y-115570000D03*
X156210000Y-125730000D03*
X148590000Y-118110000D03*
X156210000Y-123190000D03*
X148590000Y-120650000D03*
X156210000Y-120650000D03*
X148590000Y-123190000D03*
X156210000Y-118110000D03*
X148590000Y-125730000D03*
X156210000Y-115570000D03*
X148590000Y-128270000D03*
X156210000Y-113030000D03*
D13*
X148590000Y-130810000D03*
%TD*%
D12*
%TO.C,U3*%
X156210000Y-95885000D03*
X148590000Y-88265000D03*
X156210000Y-93345000D03*
X148590000Y-90805000D03*
X156210000Y-90805000D03*
X148590000Y-93345000D03*
X156210000Y-88265000D03*
D13*
X148590000Y-95885000D03*
%TD*%
D12*
%TO.C,U2*%
X156210000Y-61595000D03*
X148590000Y-53975000D03*
X156210000Y-59055000D03*
X148590000Y-56515000D03*
X156210000Y-56515000D03*
X148590000Y-59055000D03*
X156210000Y-53975000D03*
D13*
X148590000Y-61595000D03*
%TD*%
D12*
%TO.C,U1*%
X156210000Y-83820000D03*
X148590000Y-66040000D03*
X156210000Y-81280000D03*
X148590000Y-68580000D03*
X156210000Y-78740000D03*
X148590000Y-71120000D03*
X156210000Y-76200000D03*
X148590000Y-73660000D03*
X156210000Y-73660000D03*
X148590000Y-76200000D03*
X156210000Y-71120000D03*
X148590000Y-78740000D03*
X156210000Y-68580000D03*
X148590000Y-81280000D03*
X156210000Y-66040000D03*
D13*
X148590000Y-83820000D03*
%TD*%
D14*
%TO.C,RV6*%
X171770000Y-134740000D03*
X181370000Y-134740000D03*
D15*
X179070000Y-142240000D03*
X176570000Y-142240000D03*
D16*
X174070000Y-142240000D03*
%TD*%
D14*
%TO.C,RV5*%
X120970000Y-134740000D03*
X130570000Y-134740000D03*
D15*
X128270000Y-142240000D03*
X125770000Y-142240000D03*
D16*
X123270000Y-142240000D03*
%TD*%
D14*
%TO.C,RV4*%
X171770000Y-58540000D03*
X181370000Y-58540000D03*
D15*
X179070000Y-66040000D03*
X176570000Y-66040000D03*
D16*
X174070000Y-66040000D03*
%TD*%
D14*
%TO.C,RV3*%
X120890000Y-58540000D03*
X130490000Y-58540000D03*
D15*
X128190000Y-66040000D03*
X125690000Y-66040000D03*
D16*
X123190000Y-66040000D03*
%TD*%
D14*
%TO.C,RV2*%
X171730000Y-96640000D03*
X181330000Y-96640000D03*
D15*
X179030000Y-104140000D03*
X176530000Y-104140000D03*
D16*
X174030000Y-104140000D03*
%TD*%
D14*
%TO.C,RV1*%
X120890000Y-96640000D03*
X130490000Y-96640000D03*
D15*
X128190000Y-104140000D03*
X125690000Y-104140000D03*
D16*
X123190000Y-104140000D03*
%TD*%
D12*
%TO.C,R42*%
X195072000Y-122174000D03*
D17*
X195072000Y-132334000D03*
%TD*%
D12*
%TO.C,R41*%
X113030000Y-80772000D03*
D17*
X113030000Y-90932000D03*
%TD*%
D12*
%TO.C,R40*%
X115570000Y-119380000D03*
D17*
X115570000Y-129540000D03*
%TD*%
D12*
%TO.C,R39*%
X108204000Y-80772000D03*
D17*
X108204000Y-90932000D03*
%TD*%
D12*
%TO.C,R38*%
X115062000Y-104394000D03*
D17*
X115062000Y-114554000D03*
%TD*%
D12*
%TO.C,R37*%
X106172000Y-114554000D03*
D17*
X106172000Y-104394000D03*
%TD*%
D12*
%TO.C,R36*%
X110744000Y-114554000D03*
D17*
X110744000Y-104394000D03*
%TD*%
D12*
%TO.C,R35*%
X169164000Y-131064000D03*
D17*
X159004000Y-131064000D03*
%TD*%
D12*
%TO.C,R34*%
X135636000Y-136652000D03*
D17*
X145796000Y-136652000D03*
%TD*%
D12*
%TO.C,R33*%
X169164000Y-117348000D03*
D17*
X159004000Y-117348000D03*
%TD*%
D12*
%TO.C,R32*%
X159004000Y-112903000D03*
D17*
X169164000Y-112903000D03*
%TD*%
D12*
%TO.C,R31*%
X135636000Y-141224000D03*
D17*
X145796000Y-141224000D03*
%TD*%
D12*
%TO.C,R30*%
X169164000Y-121920000D03*
D17*
X159004000Y-121920000D03*
%TD*%
D12*
%TO.C,R29*%
X169164000Y-126492000D03*
D17*
X159004000Y-126492000D03*
%TD*%
D12*
%TO.C,R28*%
X169164000Y-143256000D03*
D17*
X159004000Y-143256000D03*
%TD*%
D12*
%TO.C,R27*%
X191008000Y-109220000D03*
D17*
X180848000Y-109220000D03*
%TD*%
D12*
%TO.C,R26*%
X191008000Y-113792000D03*
D17*
X180848000Y-113792000D03*
%TD*%
D12*
%TO.C,R25*%
X145796000Y-131572000D03*
D17*
X135636000Y-131572000D03*
%TD*%
D12*
%TO.C,R24*%
X191008000Y-118364000D03*
D17*
X180848000Y-118364000D03*
%TD*%
D12*
%TO.C,R23*%
X191008000Y-122936000D03*
D17*
X180848000Y-122936000D03*
%TD*%
D12*
%TO.C,R22*%
X191008000Y-127508000D03*
D17*
X180848000Y-127508000D03*
%TD*%
D12*
%TO.C,R21*%
X135636000Y-127000000D03*
D17*
X145796000Y-127000000D03*
%TD*%
D12*
%TO.C,R20*%
X145796000Y-111760000D03*
D17*
X135636000Y-111760000D03*
%TD*%
D12*
%TO.C,R19*%
X135636000Y-121920000D03*
D17*
X145796000Y-121920000D03*
%TD*%
D12*
%TO.C,R18*%
X135636000Y-116840000D03*
D17*
X145796000Y-116840000D03*
%TD*%
D12*
%TO.C,R17*%
X158750000Y-86360000D03*
D17*
X168910000Y-86360000D03*
%TD*%
D12*
%TO.C,R16*%
X135890000Y-90170000D03*
D17*
X146050000Y-90170000D03*
%TD*%
D12*
%TO.C,R15*%
X168910000Y-76200000D03*
D17*
X158750000Y-76200000D03*
%TD*%
D12*
%TO.C,R14*%
X158750000Y-66040000D03*
D17*
X168910000Y-66040000D03*
%TD*%
D12*
%TO.C,R13*%
X135890000Y-95250000D03*
D17*
X146050000Y-95250000D03*
%TD*%
D12*
%TO.C,R12*%
X168910000Y-71120000D03*
D17*
X158750000Y-71120000D03*
%TD*%
D12*
%TO.C,R11*%
X168910000Y-81280000D03*
D17*
X158750000Y-81280000D03*
%TD*%
D12*
%TO.C,R10*%
X169164000Y-96012000D03*
D17*
X159004000Y-96012000D03*
%TD*%
D12*
%TO.C,R9*%
X191516000Y-71120000D03*
D17*
X181356000Y-71120000D03*
%TD*%
D12*
%TO.C,R8*%
X191516000Y-75692000D03*
D17*
X181356000Y-75692000D03*
%TD*%
D12*
%TO.C,R7*%
X146050000Y-85090000D03*
D17*
X135890000Y-85090000D03*
%TD*%
D12*
%TO.C,R6*%
X191516000Y-80264000D03*
D17*
X181356000Y-80264000D03*
%TD*%
D12*
%TO.C,R5*%
X191516000Y-84836000D03*
D17*
X181356000Y-84836000D03*
%TD*%
D12*
%TO.C,R4*%
X191516000Y-89408000D03*
D17*
X181356000Y-89408000D03*
%TD*%
D12*
%TO.C,R3*%
X135890000Y-80010000D03*
D17*
X146050000Y-80010000D03*
%TD*%
D12*
%TO.C,R2*%
X146050000Y-69850000D03*
D17*
X135890000Y-69850000D03*
%TD*%
D12*
%TO.C,R1*%
X135890000Y-74930000D03*
D17*
X146050000Y-74930000D03*
%TD*%
D18*
%TO.C,Q4*%
X177292000Y-110236000D03*
D19*
X174752000Y-110236000D03*
X176022000Y-110236000D03*
%TD*%
D18*
%TO.C,Q3*%
X177292000Y-115316000D03*
D19*
X174752000Y-115316000D03*
X176022000Y-115316000D03*
%TD*%
D18*
%TO.C,Q2*%
X177800000Y-72136000D03*
D19*
X175260000Y-72136000D03*
X176530000Y-72136000D03*
%TD*%
D18*
%TO.C,Q1*%
X177800000Y-77216000D03*
D19*
X175260000Y-77216000D03*
X176530000Y-77216000D03*
%TD*%
D10*
%TO.C,J2*%
X116840000Y-144780000D03*
X114300000Y-144780000D03*
X111760000Y-144780000D03*
X109220000Y-144780000D03*
D11*
X106680000Y-144780000D03*
%TD*%
D10*
%TO.C,J1*%
X185420000Y-144780000D03*
X187960000Y-144780000D03*
X190500000Y-144780000D03*
X193040000Y-144780000D03*
D11*
X195580000Y-144780000D03*
%TD*%
D15*
%TO.C,D4*%
X128524000Y-121920000D03*
D16*
X128524000Y-124460000D03*
%TD*%
D15*
%TO.C,D3*%
X121412000Y-124460000D03*
D16*
X121412000Y-121920000D03*
%TD*%
D15*
%TO.C,D2*%
X129540000Y-84455000D03*
D16*
X129540000Y-86995000D03*
%TD*%
D15*
%TO.C,D1*%
X122555000Y-86995000D03*
D16*
X122555000Y-84455000D03*
%TD*%
D17*
%TO.C,C10*%
X118808500Y-69051800D03*
D13*
X118808500Y-71551800D03*
%TD*%
D17*
%TO.C,C9*%
X116900000Y-53500000D03*
D13*
X116900000Y-56000000D03*
%TD*%
D17*
%TO.C,C8*%
X159084000Y-106680000D03*
X164084000Y-106680000D03*
%TD*%
%TO.C,C7*%
X164512000Y-101092000D03*
X159512000Y-101092000D03*
%TD*%
%TO.C,C6*%
X159084000Y-138176000D03*
X164084000Y-138176000D03*
%TD*%
%TO.C,C5*%
X140415000Y-103505000D03*
X145415000Y-103505000D03*
%TD*%
%TO.C,C4*%
X159465000Y-60325000D03*
X164465000Y-60325000D03*
%TD*%
%TO.C,C3*%
X164385000Y-54610000D03*
X159385000Y-54610000D03*
%TD*%
%TO.C,C2*%
X159004000Y-91440000D03*
X164004000Y-91440000D03*
%TD*%
%TO.C,C1*%
X140415000Y-56515000D03*
X145415000Y-56515000D03*
%TD*%
M02*
