G04 #@! TF.GenerationSoftware,KiCad,Pcbnew,5.1.6-c6e7f7d~86~ubuntu18.04.1*
G04 #@! TF.CreationDate,2020-06-20T10:04:16-04:00*
G04 #@! TF.ProjectId,wave_folder,77617665-5f66-46f6-9c64-65722e6b6963,rev?*
G04 #@! TF.SameCoordinates,Original*
G04 #@! TF.FileFunction,Legend,Bot*
G04 #@! TF.FilePolarity,Positive*
%FSLAX46Y46*%
G04 Gerber Fmt 4.6, Leading zero omitted, Abs format (unit mm)*
G04 Created by KiCad (PCBNEW 5.1.6-c6e7f7d~86~ubuntu18.04.1) date 2020-06-20 10:04:16*
%MOMM*%
%LPD*%
G01*
G04 APERTURE LIST*
%ADD10C,0.150000*%
%ADD11C,0.120000*%
G04 APERTURE END LIST*
D10*
X151121428Y-91654761D02*
X151026190Y-91702380D01*
X150835714Y-91702380D01*
X150740476Y-91654761D01*
X150692857Y-91559523D01*
X150692857Y-91511904D01*
X150740476Y-91416666D01*
X150835714Y-91369047D01*
X150978571Y-91369047D01*
X151073809Y-91321428D01*
X151121428Y-91226190D01*
X151121428Y-91178571D01*
X151073809Y-91083333D01*
X150978571Y-91035714D01*
X150835714Y-91035714D01*
X150740476Y-91083333D01*
X149883333Y-91654761D02*
X149978571Y-91702380D01*
X150169047Y-91702380D01*
X150264285Y-91654761D01*
X150311904Y-91559523D01*
X150311904Y-91178571D01*
X150264285Y-91083333D01*
X150169047Y-91035714D01*
X149978571Y-91035714D01*
X149883333Y-91083333D01*
X149835714Y-91178571D01*
X149835714Y-91273809D01*
X150311904Y-91369047D01*
X148978571Y-91654761D02*
X149073809Y-91702380D01*
X149264285Y-91702380D01*
X149359523Y-91654761D01*
X149407142Y-91607142D01*
X149454761Y-91511904D01*
X149454761Y-91226190D01*
X149407142Y-91130952D01*
X149359523Y-91083333D01*
X149264285Y-91035714D01*
X149073809Y-91035714D01*
X148978571Y-91083333D01*
X148550000Y-91702380D02*
X148550000Y-91035714D01*
X148550000Y-91226190D02*
X148502380Y-91130952D01*
X148454761Y-91083333D01*
X148359523Y-91035714D01*
X148264285Y-91035714D01*
X147550000Y-91654761D02*
X147645238Y-91702380D01*
X147835714Y-91702380D01*
X147930952Y-91654761D01*
X147978571Y-91559523D01*
X147978571Y-91178571D01*
X147930952Y-91083333D01*
X147835714Y-91035714D01*
X147645238Y-91035714D01*
X147550000Y-91083333D01*
X147502380Y-91178571D01*
X147502380Y-91273809D01*
X147978571Y-91369047D01*
X147216666Y-91035714D02*
X146835714Y-91035714D01*
X147073809Y-90702380D02*
X147073809Y-91559523D01*
X147026190Y-91654761D01*
X146930952Y-91702380D01*
X146835714Y-91702380D01*
X145740476Y-91702380D02*
X145740476Y-90702380D01*
X145740476Y-91083333D02*
X145645238Y-91035714D01*
X145454761Y-91035714D01*
X145359523Y-91083333D01*
X145311904Y-91130952D01*
X145264285Y-91226190D01*
X145264285Y-91511904D01*
X145311904Y-91607142D01*
X145359523Y-91654761D01*
X145454761Y-91702380D01*
X145645238Y-91702380D01*
X145740476Y-91654761D01*
X144692857Y-91702380D02*
X144788095Y-91654761D01*
X144835714Y-91607142D01*
X144883333Y-91511904D01*
X144883333Y-91226190D01*
X144835714Y-91130952D01*
X144788095Y-91083333D01*
X144692857Y-91035714D01*
X144550000Y-91035714D01*
X144454761Y-91083333D01*
X144407142Y-91130952D01*
X144359523Y-91226190D01*
X144359523Y-91511904D01*
X144407142Y-91607142D01*
X144454761Y-91654761D01*
X144550000Y-91702380D01*
X144692857Y-91702380D01*
X143930952Y-91035714D02*
X143930952Y-91702380D01*
X143930952Y-91130952D02*
X143883333Y-91083333D01*
X143788095Y-91035714D01*
X143645238Y-91035714D01*
X143550000Y-91083333D01*
X143502380Y-91178571D01*
X143502380Y-91702380D01*
X142597619Y-91035714D02*
X142597619Y-91702380D01*
X143026190Y-91035714D02*
X143026190Y-91559523D01*
X142978571Y-91654761D01*
X142883333Y-91702380D01*
X142740476Y-91702380D01*
X142645238Y-91654761D01*
X142597619Y-91607142D01*
X142169047Y-91654761D02*
X142073809Y-91702380D01*
X141883333Y-91702380D01*
X141788095Y-91654761D01*
X141740476Y-91559523D01*
X141740476Y-91511904D01*
X141788095Y-91416666D01*
X141883333Y-91369047D01*
X142026190Y-91369047D01*
X142121428Y-91321428D01*
X142169047Y-91226190D01*
X142169047Y-91178571D01*
X142121428Y-91083333D01*
X142026190Y-91035714D01*
X141883333Y-91035714D01*
X141788095Y-91083333D01*
X149454761Y-93352380D02*
X149454761Y-92685714D01*
X149454761Y-92876190D02*
X149407142Y-92780952D01*
X149359523Y-92733333D01*
X149264285Y-92685714D01*
X149169047Y-92685714D01*
X148835714Y-93352380D02*
X148835714Y-92685714D01*
X148835714Y-92352380D02*
X148883333Y-92400000D01*
X148835714Y-92447619D01*
X148788095Y-92400000D01*
X148835714Y-92352380D01*
X148835714Y-92447619D01*
X148359523Y-92685714D02*
X148359523Y-93352380D01*
X148359523Y-92780952D02*
X148311904Y-92733333D01*
X148216666Y-92685714D01*
X148073809Y-92685714D01*
X147978571Y-92733333D01*
X147930952Y-92828571D01*
X147930952Y-93352380D01*
X147026190Y-92685714D02*
X147026190Y-93495238D01*
X147073809Y-93590476D01*
X147121428Y-93638095D01*
X147216666Y-93685714D01*
X147359523Y-93685714D01*
X147454761Y-93638095D01*
X147026190Y-93304761D02*
X147121428Y-93352380D01*
X147311904Y-93352380D01*
X147407142Y-93304761D01*
X147454761Y-93257142D01*
X147502380Y-93161904D01*
X147502380Y-92876190D01*
X147454761Y-92780952D01*
X147407142Y-92733333D01*
X147311904Y-92685714D01*
X147121428Y-92685714D01*
X147026190Y-92733333D01*
X146550000Y-92971428D02*
X145788095Y-92971428D01*
X145311904Y-93352380D02*
X145311904Y-92685714D01*
X145311904Y-92780952D02*
X145264285Y-92733333D01*
X145169047Y-92685714D01*
X145026190Y-92685714D01*
X144930952Y-92733333D01*
X144883333Y-92828571D01*
X144883333Y-93352380D01*
X144883333Y-92828571D02*
X144835714Y-92733333D01*
X144740476Y-92685714D01*
X144597619Y-92685714D01*
X144502380Y-92733333D01*
X144454761Y-92828571D01*
X144454761Y-93352380D01*
X143835714Y-93352380D02*
X143930952Y-93304761D01*
X143978571Y-93257142D01*
X144026190Y-93161904D01*
X144026190Y-92876190D01*
X143978571Y-92780952D01*
X143930952Y-92733333D01*
X143835714Y-92685714D01*
X143692857Y-92685714D01*
X143597619Y-92733333D01*
X143550000Y-92780952D01*
X143502380Y-92876190D01*
X143502380Y-93161904D01*
X143550000Y-93257142D01*
X143597619Y-93304761D01*
X143692857Y-93352380D01*
X143835714Y-93352380D01*
X142645238Y-93352380D02*
X142645238Y-92352380D01*
X142645238Y-93304761D02*
X142740476Y-93352380D01*
X142930952Y-93352380D01*
X143026190Y-93304761D01*
X143073809Y-93257142D01*
X143121428Y-93161904D01*
X143121428Y-92876190D01*
X143073809Y-92780952D01*
X143026190Y-92733333D01*
X142930952Y-92685714D01*
X142740476Y-92685714D01*
X142645238Y-92733333D01*
X222009642Y-54015714D02*
X221819166Y-54682380D01*
X221628690Y-54206190D01*
X221438214Y-54682380D01*
X221247738Y-54015714D01*
X220438214Y-54682380D02*
X220438214Y-54158571D01*
X220485833Y-54063333D01*
X220581071Y-54015714D01*
X220771547Y-54015714D01*
X220866785Y-54063333D01*
X220438214Y-54634761D02*
X220533452Y-54682380D01*
X220771547Y-54682380D01*
X220866785Y-54634761D01*
X220914404Y-54539523D01*
X220914404Y-54444285D01*
X220866785Y-54349047D01*
X220771547Y-54301428D01*
X220533452Y-54301428D01*
X220438214Y-54253809D01*
X220057261Y-54015714D02*
X219819166Y-54682380D01*
X219581071Y-54015714D01*
X218819166Y-54634761D02*
X218914404Y-54682380D01*
X219104880Y-54682380D01*
X219200119Y-54634761D01*
X219247738Y-54539523D01*
X219247738Y-54158571D01*
X219200119Y-54063333D01*
X219104880Y-54015714D01*
X218914404Y-54015714D01*
X218819166Y-54063333D01*
X218771547Y-54158571D01*
X218771547Y-54253809D01*
X219247738Y-54349047D01*
X218485833Y-54015714D02*
X218104880Y-54015714D01*
X218342976Y-54682380D02*
X218342976Y-53825238D01*
X218295357Y-53730000D01*
X218200119Y-53682380D01*
X218104880Y-53682380D01*
X217628690Y-54682380D02*
X217723928Y-54634761D01*
X217771547Y-54587142D01*
X217819166Y-54491904D01*
X217819166Y-54206190D01*
X217771547Y-54110952D01*
X217723928Y-54063333D01*
X217628690Y-54015714D01*
X217485833Y-54015714D01*
X217390595Y-54063333D01*
X217342976Y-54110952D01*
X217295357Y-54206190D01*
X217295357Y-54491904D01*
X217342976Y-54587142D01*
X217390595Y-54634761D01*
X217485833Y-54682380D01*
X217628690Y-54682380D01*
X216723928Y-54682380D02*
X216819166Y-54634761D01*
X216866785Y-54539523D01*
X216866785Y-53682380D01*
X215914404Y-54682380D02*
X215914404Y-53682380D01*
X215914404Y-54634761D02*
X216009642Y-54682380D01*
X216200119Y-54682380D01*
X216295357Y-54634761D01*
X216342976Y-54587142D01*
X216390595Y-54491904D01*
X216390595Y-54206190D01*
X216342976Y-54110952D01*
X216295357Y-54063333D01*
X216200119Y-54015714D01*
X216009642Y-54015714D01*
X215914404Y-54063333D01*
X215057261Y-54634761D02*
X215152500Y-54682380D01*
X215342976Y-54682380D01*
X215438214Y-54634761D01*
X215485833Y-54539523D01*
X215485833Y-54158571D01*
X215438214Y-54063333D01*
X215342976Y-54015714D01*
X215152500Y-54015714D01*
X215057261Y-54063333D01*
X215009642Y-54158571D01*
X215009642Y-54253809D01*
X215485833Y-54349047D01*
X214581071Y-54682380D02*
X214581071Y-54015714D01*
X214581071Y-54206190D02*
X214533452Y-54110952D01*
X214485833Y-54063333D01*
X214390595Y-54015714D01*
X214295357Y-54015714D01*
X221914404Y-56332380D02*
X221914404Y-55665714D01*
X221914404Y-55856190D02*
X221866785Y-55760952D01*
X221819166Y-55713333D01*
X221723928Y-55665714D01*
X221628690Y-55665714D01*
X220914404Y-56284761D02*
X221009642Y-56332380D01*
X221200119Y-56332380D01*
X221295357Y-56284761D01*
X221342976Y-56189523D01*
X221342976Y-55808571D01*
X221295357Y-55713333D01*
X221200119Y-55665714D01*
X221009642Y-55665714D01*
X220914404Y-55713333D01*
X220866785Y-55808571D01*
X220866785Y-55903809D01*
X221342976Y-55999047D01*
X220533452Y-55665714D02*
X220295357Y-56332380D01*
X220057261Y-55665714D01*
X218723928Y-55332380D02*
X218628690Y-55332380D01*
X218533452Y-55380000D01*
X218485833Y-55427619D01*
X218438214Y-55522857D01*
X218390595Y-55713333D01*
X218390595Y-55951428D01*
X218438214Y-56141904D01*
X218485833Y-56237142D01*
X218533452Y-56284761D01*
X218628690Y-56332380D01*
X218723928Y-56332380D01*
X218819166Y-56284761D01*
X218866785Y-56237142D01*
X218914404Y-56141904D01*
X218962023Y-55951428D01*
X218962023Y-55713333D01*
X218914404Y-55522857D01*
X218866785Y-55427619D01*
X218819166Y-55380000D01*
X218723928Y-55332380D01*
X221962023Y-57077619D02*
X221914404Y-57030000D01*
X221819166Y-56982380D01*
X221581071Y-56982380D01*
X221485833Y-57030000D01*
X221438214Y-57077619D01*
X221390595Y-57172857D01*
X221390595Y-57268095D01*
X221438214Y-57410952D01*
X222009642Y-57982380D01*
X221390595Y-57982380D01*
X220771547Y-56982380D02*
X220676309Y-56982380D01*
X220581071Y-57030000D01*
X220533452Y-57077619D01*
X220485833Y-57172857D01*
X220438214Y-57363333D01*
X220438214Y-57601428D01*
X220485833Y-57791904D01*
X220533452Y-57887142D01*
X220581071Y-57934761D01*
X220676309Y-57982380D01*
X220771547Y-57982380D01*
X220866785Y-57934761D01*
X220914404Y-57887142D01*
X220962023Y-57791904D01*
X221009642Y-57601428D01*
X221009642Y-57363333D01*
X220962023Y-57172857D01*
X220914404Y-57077619D01*
X220866785Y-57030000D01*
X220771547Y-56982380D01*
X220057261Y-57077619D02*
X220009642Y-57030000D01*
X219914404Y-56982380D01*
X219676309Y-56982380D01*
X219581071Y-57030000D01*
X219533452Y-57077619D01*
X219485833Y-57172857D01*
X219485833Y-57268095D01*
X219533452Y-57410952D01*
X220104880Y-57982380D01*
X219485833Y-57982380D01*
X218866785Y-56982380D02*
X218771547Y-56982380D01*
X218676309Y-57030000D01*
X218628690Y-57077619D01*
X218581071Y-57172857D01*
X218533452Y-57363333D01*
X218533452Y-57601428D01*
X218581071Y-57791904D01*
X218628690Y-57887142D01*
X218676309Y-57934761D01*
X218771547Y-57982380D01*
X218866785Y-57982380D01*
X218962023Y-57934761D01*
X219009642Y-57887142D01*
X219057261Y-57791904D01*
X219104880Y-57601428D01*
X219104880Y-57363333D01*
X219057261Y-57172857D01*
X219009642Y-57077619D01*
X218962023Y-57030000D01*
X218866785Y-56982380D01*
X218104880Y-57601428D02*
X217342976Y-57601428D01*
X216676309Y-56982380D02*
X216581071Y-56982380D01*
X216485833Y-57030000D01*
X216438214Y-57077619D01*
X216390595Y-57172857D01*
X216342976Y-57363333D01*
X216342976Y-57601428D01*
X216390595Y-57791904D01*
X216438214Y-57887142D01*
X216485833Y-57934761D01*
X216581071Y-57982380D01*
X216676309Y-57982380D01*
X216771547Y-57934761D01*
X216819166Y-57887142D01*
X216866785Y-57791904D01*
X216914404Y-57601428D01*
X216914404Y-57363333D01*
X216866785Y-57172857D01*
X216819166Y-57077619D01*
X216771547Y-57030000D01*
X216676309Y-56982380D01*
X215485833Y-56982380D02*
X215676309Y-56982380D01*
X215771547Y-57030000D01*
X215819166Y-57077619D01*
X215914404Y-57220476D01*
X215962023Y-57410952D01*
X215962023Y-57791904D01*
X215914404Y-57887142D01*
X215866785Y-57934761D01*
X215771547Y-57982380D01*
X215581071Y-57982380D01*
X215485833Y-57934761D01*
X215438214Y-57887142D01*
X215390595Y-57791904D01*
X215390595Y-57553809D01*
X215438214Y-57458571D01*
X215485833Y-57410952D01*
X215581071Y-57363333D01*
X215771547Y-57363333D01*
X215866785Y-57410952D01*
X215914404Y-57458571D01*
X215962023Y-57553809D01*
X214962023Y-57601428D02*
X214200119Y-57601428D01*
X213200119Y-57982380D02*
X213771547Y-57982380D01*
X213485833Y-57982380D02*
X213485833Y-56982380D01*
X213581071Y-57125238D01*
X213676309Y-57220476D01*
X213771547Y-57268095D01*
X212866785Y-56982380D02*
X212200119Y-56982380D01*
X212628690Y-57982380D01*
X143797500Y-67095714D02*
X143559404Y-67762380D01*
X143321309Y-67095714D01*
X142940357Y-67381428D02*
X142178452Y-67381428D01*
X140940357Y-67762380D02*
X140940357Y-67095714D01*
X140940357Y-66762380D02*
X140987976Y-66810000D01*
X140940357Y-66857619D01*
X140892738Y-66810000D01*
X140940357Y-66762380D01*
X140940357Y-66857619D01*
X140464166Y-67095714D02*
X140464166Y-67762380D01*
X140464166Y-67190952D02*
X140416547Y-67143333D01*
X140321309Y-67095714D01*
X140178452Y-67095714D01*
X140083214Y-67143333D01*
X140035595Y-67238571D01*
X140035595Y-67762380D01*
X141845119Y-64555714D02*
X141845119Y-65365238D01*
X141892738Y-65460476D01*
X141940357Y-65508095D01*
X142035595Y-65555714D01*
X142178452Y-65555714D01*
X142273690Y-65508095D01*
X141845119Y-65174761D02*
X141940357Y-65222380D01*
X142130833Y-65222380D01*
X142226071Y-65174761D01*
X142273690Y-65127142D01*
X142321309Y-65031904D01*
X142321309Y-64746190D01*
X142273690Y-64650952D01*
X142226071Y-64603333D01*
X142130833Y-64555714D01*
X141940357Y-64555714D01*
X141845119Y-64603333D01*
X141368928Y-64555714D02*
X141368928Y-65222380D01*
X141368928Y-64650952D02*
X141321309Y-64603333D01*
X141226071Y-64555714D01*
X141083214Y-64555714D01*
X140987976Y-64603333D01*
X140940357Y-64698571D01*
X140940357Y-65222380D01*
X140035595Y-65222380D02*
X140035595Y-64222380D01*
X140035595Y-65174761D02*
X140130833Y-65222380D01*
X140321309Y-65222380D01*
X140416547Y-65174761D01*
X140464166Y-65127142D01*
X140511785Y-65031904D01*
X140511785Y-64746190D01*
X140464166Y-64650952D01*
X140416547Y-64603333D01*
X140321309Y-64555714D01*
X140130833Y-64555714D01*
X140035595Y-64603333D01*
X141845119Y-62015714D02*
X141845119Y-62825238D01*
X141892738Y-62920476D01*
X141940357Y-62968095D01*
X142035595Y-63015714D01*
X142178452Y-63015714D01*
X142273690Y-62968095D01*
X141845119Y-62634761D02*
X141940357Y-62682380D01*
X142130833Y-62682380D01*
X142226071Y-62634761D01*
X142273690Y-62587142D01*
X142321309Y-62491904D01*
X142321309Y-62206190D01*
X142273690Y-62110952D01*
X142226071Y-62063333D01*
X142130833Y-62015714D01*
X141940357Y-62015714D01*
X141845119Y-62063333D01*
X141368928Y-62015714D02*
X141368928Y-62682380D01*
X141368928Y-62110952D02*
X141321309Y-62063333D01*
X141226071Y-62015714D01*
X141083214Y-62015714D01*
X140987976Y-62063333D01*
X140940357Y-62158571D01*
X140940357Y-62682380D01*
X140035595Y-62682380D02*
X140035595Y-61682380D01*
X140035595Y-62634761D02*
X140130833Y-62682380D01*
X140321309Y-62682380D01*
X140416547Y-62634761D01*
X140464166Y-62587142D01*
X140511785Y-62491904D01*
X140511785Y-62206190D01*
X140464166Y-62110952D01*
X140416547Y-62063333D01*
X140321309Y-62015714D01*
X140130833Y-62015714D01*
X140035595Y-62063333D01*
X141845119Y-59475714D02*
X141845119Y-60285238D01*
X141892738Y-60380476D01*
X141940357Y-60428095D01*
X142035595Y-60475714D01*
X142178452Y-60475714D01*
X142273690Y-60428095D01*
X141845119Y-60094761D02*
X141940357Y-60142380D01*
X142130833Y-60142380D01*
X142226071Y-60094761D01*
X142273690Y-60047142D01*
X142321309Y-59951904D01*
X142321309Y-59666190D01*
X142273690Y-59570952D01*
X142226071Y-59523333D01*
X142130833Y-59475714D01*
X141940357Y-59475714D01*
X141845119Y-59523333D01*
X141368928Y-59475714D02*
X141368928Y-60142380D01*
X141368928Y-59570952D02*
X141321309Y-59523333D01*
X141226071Y-59475714D01*
X141083214Y-59475714D01*
X140987976Y-59523333D01*
X140940357Y-59618571D01*
X140940357Y-60142380D01*
X140035595Y-60142380D02*
X140035595Y-59142380D01*
X140035595Y-60094761D02*
X140130833Y-60142380D01*
X140321309Y-60142380D01*
X140416547Y-60094761D01*
X140464166Y-60047142D01*
X140511785Y-59951904D01*
X140511785Y-59666190D01*
X140464166Y-59570952D01*
X140416547Y-59523333D01*
X140321309Y-59475714D01*
X140130833Y-59475714D01*
X140035595Y-59523333D01*
X143797500Y-56935714D02*
X143559404Y-57602380D01*
X143321309Y-56935714D01*
X142940357Y-57221428D02*
X142178452Y-57221428D01*
X142559404Y-57602380D02*
X142559404Y-56840476D01*
X140940357Y-57602380D02*
X140940357Y-56935714D01*
X140940357Y-56602380D02*
X140987976Y-56650000D01*
X140940357Y-56697619D01*
X140892738Y-56650000D01*
X140940357Y-56602380D01*
X140940357Y-56697619D01*
X140464166Y-56935714D02*
X140464166Y-57602380D01*
X140464166Y-57030952D02*
X140416547Y-56983333D01*
X140321309Y-56935714D01*
X140178452Y-56935714D01*
X140083214Y-56983333D01*
X140035595Y-57078571D01*
X140035595Y-57602380D01*
X136765119Y-103925714D02*
X136765119Y-104735238D01*
X136812738Y-104830476D01*
X136860357Y-104878095D01*
X136955595Y-104925714D01*
X137098452Y-104925714D01*
X137193690Y-104878095D01*
X136765119Y-104544761D02*
X136860357Y-104592380D01*
X137050833Y-104592380D01*
X137146071Y-104544761D01*
X137193690Y-104497142D01*
X137241309Y-104401904D01*
X137241309Y-104116190D01*
X137193690Y-104020952D01*
X137146071Y-103973333D01*
X137050833Y-103925714D01*
X136860357Y-103925714D01*
X136765119Y-103973333D01*
X136288928Y-103925714D02*
X136288928Y-104592380D01*
X136288928Y-104020952D02*
X136241309Y-103973333D01*
X136146071Y-103925714D01*
X136003214Y-103925714D01*
X135907976Y-103973333D01*
X135860357Y-104068571D01*
X135860357Y-104592380D01*
X134955595Y-104592380D02*
X134955595Y-103592380D01*
X134955595Y-104544761D02*
X135050833Y-104592380D01*
X135241309Y-104592380D01*
X135336547Y-104544761D01*
X135384166Y-104497142D01*
X135431785Y-104401904D01*
X135431785Y-104116190D01*
X135384166Y-104020952D01*
X135336547Y-103973333D01*
X135241309Y-103925714D01*
X135050833Y-103925714D01*
X134955595Y-103973333D01*
X144431785Y-102052380D02*
X144431785Y-101385714D01*
X144431785Y-101576190D02*
X144384166Y-101480952D01*
X144336547Y-101433333D01*
X144241309Y-101385714D01*
X144146071Y-101385714D01*
X143812738Y-102052380D02*
X143812738Y-101385714D01*
X143812738Y-101052380D02*
X143860357Y-101100000D01*
X143812738Y-101147619D01*
X143765119Y-101100000D01*
X143812738Y-101052380D01*
X143812738Y-101147619D01*
X143336547Y-101385714D02*
X143336547Y-102052380D01*
X143336547Y-101480952D02*
X143288928Y-101433333D01*
X143193690Y-101385714D01*
X143050833Y-101385714D01*
X142955595Y-101433333D01*
X142907976Y-101528571D01*
X142907976Y-102052380D01*
X142003214Y-101385714D02*
X142003214Y-102195238D01*
X142050833Y-102290476D01*
X142098452Y-102338095D01*
X142193690Y-102385714D01*
X142336547Y-102385714D01*
X142431785Y-102338095D01*
X142003214Y-102004761D02*
X142098452Y-102052380D01*
X142288928Y-102052380D01*
X142384166Y-102004761D01*
X142431785Y-101957142D01*
X142479404Y-101861904D01*
X142479404Y-101576190D01*
X142431785Y-101480952D01*
X142384166Y-101433333D01*
X142288928Y-101385714D01*
X142098452Y-101385714D01*
X142003214Y-101433333D01*
X140765119Y-102052380D02*
X140765119Y-101385714D01*
X140765119Y-101480952D02*
X140717500Y-101433333D01*
X140622261Y-101385714D01*
X140479404Y-101385714D01*
X140384166Y-101433333D01*
X140336547Y-101528571D01*
X140336547Y-102052380D01*
X140336547Y-101528571D02*
X140288928Y-101433333D01*
X140193690Y-101385714D01*
X140050833Y-101385714D01*
X139955595Y-101433333D01*
X139907976Y-101528571D01*
X139907976Y-102052380D01*
X139288928Y-102052380D02*
X139384166Y-102004761D01*
X139431785Y-101957142D01*
X139479404Y-101861904D01*
X139479404Y-101576190D01*
X139431785Y-101480952D01*
X139384166Y-101433333D01*
X139288928Y-101385714D01*
X139146071Y-101385714D01*
X139050833Y-101433333D01*
X139003214Y-101480952D01*
X138955595Y-101576190D01*
X138955595Y-101861904D01*
X139003214Y-101957142D01*
X139050833Y-102004761D01*
X139146071Y-102052380D01*
X139288928Y-102052380D01*
X138098452Y-102052380D02*
X138098452Y-101052380D01*
X138098452Y-102004761D02*
X138193690Y-102052380D01*
X138384166Y-102052380D01*
X138479404Y-102004761D01*
X138527023Y-101957142D01*
X138574642Y-101861904D01*
X138574642Y-101576190D01*
X138527023Y-101480952D01*
X138479404Y-101433333D01*
X138384166Y-101385714D01*
X138193690Y-101385714D01*
X138098452Y-101433333D01*
X136717500Y-102052380D02*
X136812738Y-102004761D01*
X136860357Y-101957142D01*
X136907976Y-101861904D01*
X136907976Y-101576190D01*
X136860357Y-101480952D01*
X136812738Y-101433333D01*
X136717500Y-101385714D01*
X136574642Y-101385714D01*
X136479404Y-101433333D01*
X136431785Y-101480952D01*
X136384166Y-101576190D01*
X136384166Y-101861904D01*
X136431785Y-101957142D01*
X136479404Y-102004761D01*
X136574642Y-102052380D01*
X136717500Y-102052380D01*
X135527023Y-101385714D02*
X135527023Y-102052380D01*
X135955595Y-101385714D02*
X135955595Y-101909523D01*
X135907976Y-102004761D01*
X135812738Y-102052380D01*
X135669880Y-102052380D01*
X135574642Y-102004761D01*
X135527023Y-101957142D01*
X135193690Y-101385714D02*
X134812738Y-101385714D01*
X135050833Y-101052380D02*
X135050833Y-101909523D01*
X135003214Y-102004761D01*
X134907976Y-102052380D01*
X134812738Y-102052380D01*
X144955595Y-99512380D02*
X144955595Y-98845714D01*
X144955595Y-99036190D02*
X144907976Y-98940952D01*
X144860357Y-98893333D01*
X144765119Y-98845714D01*
X144669880Y-98845714D01*
X144336547Y-99512380D02*
X144336547Y-98845714D01*
X144336547Y-98512380D02*
X144384166Y-98560000D01*
X144336547Y-98607619D01*
X144288928Y-98560000D01*
X144336547Y-98512380D01*
X144336547Y-98607619D01*
X143860357Y-98845714D02*
X143860357Y-99512380D01*
X143860357Y-98940952D02*
X143812738Y-98893333D01*
X143717500Y-98845714D01*
X143574642Y-98845714D01*
X143479404Y-98893333D01*
X143431785Y-98988571D01*
X143431785Y-99512380D01*
X142527023Y-98845714D02*
X142527023Y-99655238D01*
X142574642Y-99750476D01*
X142622261Y-99798095D01*
X142717500Y-99845714D01*
X142860357Y-99845714D01*
X142955595Y-99798095D01*
X142527023Y-99464761D02*
X142622261Y-99512380D01*
X142812738Y-99512380D01*
X142907976Y-99464761D01*
X142955595Y-99417142D01*
X143003214Y-99321904D01*
X143003214Y-99036190D01*
X142955595Y-98940952D01*
X142907976Y-98893333D01*
X142812738Y-98845714D01*
X142622261Y-98845714D01*
X142527023Y-98893333D01*
X141288928Y-99512380D02*
X141288928Y-98845714D01*
X141288928Y-98940952D02*
X141241309Y-98893333D01*
X141146071Y-98845714D01*
X141003214Y-98845714D01*
X140907976Y-98893333D01*
X140860357Y-98988571D01*
X140860357Y-99512380D01*
X140860357Y-98988571D02*
X140812738Y-98893333D01*
X140717500Y-98845714D01*
X140574642Y-98845714D01*
X140479404Y-98893333D01*
X140431785Y-98988571D01*
X140431785Y-99512380D01*
X139812738Y-99512380D02*
X139907976Y-99464761D01*
X139955595Y-99417142D01*
X140003214Y-99321904D01*
X140003214Y-99036190D01*
X139955595Y-98940952D01*
X139907976Y-98893333D01*
X139812738Y-98845714D01*
X139669880Y-98845714D01*
X139574642Y-98893333D01*
X139527023Y-98940952D01*
X139479404Y-99036190D01*
X139479404Y-99321904D01*
X139527023Y-99417142D01*
X139574642Y-99464761D01*
X139669880Y-99512380D01*
X139812738Y-99512380D01*
X138622261Y-99512380D02*
X138622261Y-98512380D01*
X138622261Y-99464761D02*
X138717500Y-99512380D01*
X138907976Y-99512380D01*
X139003214Y-99464761D01*
X139050833Y-99417142D01*
X139098452Y-99321904D01*
X139098452Y-99036190D01*
X139050833Y-98940952D01*
X139003214Y-98893333D01*
X138907976Y-98845714D01*
X138717500Y-98845714D01*
X138622261Y-98893333D01*
X137479404Y-98845714D02*
X137241309Y-99512380D01*
X137003214Y-98845714D02*
X137241309Y-99512380D01*
X137336547Y-99750476D01*
X137384166Y-99798095D01*
X137479404Y-99845714D01*
X135860357Y-99512380D02*
X135860357Y-98845714D01*
X135860357Y-98512380D02*
X135907976Y-98560000D01*
X135860357Y-98607619D01*
X135812738Y-98560000D01*
X135860357Y-98512380D01*
X135860357Y-98607619D01*
X135384166Y-98845714D02*
X135384166Y-99512380D01*
X135384166Y-98940952D02*
X135336547Y-98893333D01*
X135241309Y-98845714D01*
X135098452Y-98845714D01*
X135003214Y-98893333D01*
X134955595Y-98988571D01*
X134955595Y-99512380D01*
X145003214Y-96972380D02*
X145003214Y-96305714D01*
X145003214Y-96496190D02*
X144955595Y-96400952D01*
X144907976Y-96353333D01*
X144812738Y-96305714D01*
X144717500Y-96305714D01*
X144384166Y-96972380D02*
X144384166Y-96305714D01*
X144384166Y-95972380D02*
X144431785Y-96020000D01*
X144384166Y-96067619D01*
X144336547Y-96020000D01*
X144384166Y-95972380D01*
X144384166Y-96067619D01*
X143907976Y-96305714D02*
X143907976Y-96972380D01*
X143907976Y-96400952D02*
X143860357Y-96353333D01*
X143765119Y-96305714D01*
X143622261Y-96305714D01*
X143527023Y-96353333D01*
X143479404Y-96448571D01*
X143479404Y-96972380D01*
X142574642Y-96305714D02*
X142574642Y-97115238D01*
X142622261Y-97210476D01*
X142669880Y-97258095D01*
X142765119Y-97305714D01*
X142907976Y-97305714D01*
X143003214Y-97258095D01*
X142574642Y-96924761D02*
X142669880Y-96972380D01*
X142860357Y-96972380D01*
X142955595Y-96924761D01*
X143003214Y-96877142D01*
X143050833Y-96781904D01*
X143050833Y-96496190D01*
X143003214Y-96400952D01*
X142955595Y-96353333D01*
X142860357Y-96305714D01*
X142669880Y-96305714D01*
X142574642Y-96353333D01*
X141336547Y-96972380D02*
X141336547Y-96305714D01*
X141336547Y-96400952D02*
X141288928Y-96353333D01*
X141193690Y-96305714D01*
X141050833Y-96305714D01*
X140955595Y-96353333D01*
X140907976Y-96448571D01*
X140907976Y-96972380D01*
X140907976Y-96448571D02*
X140860357Y-96353333D01*
X140765119Y-96305714D01*
X140622261Y-96305714D01*
X140527023Y-96353333D01*
X140479404Y-96448571D01*
X140479404Y-96972380D01*
X139860357Y-96972380D02*
X139955595Y-96924761D01*
X140003214Y-96877142D01*
X140050833Y-96781904D01*
X140050833Y-96496190D01*
X140003214Y-96400952D01*
X139955595Y-96353333D01*
X139860357Y-96305714D01*
X139717500Y-96305714D01*
X139622261Y-96353333D01*
X139574642Y-96400952D01*
X139527023Y-96496190D01*
X139527023Y-96781904D01*
X139574642Y-96877142D01*
X139622261Y-96924761D01*
X139717500Y-96972380D01*
X139860357Y-96972380D01*
X138669880Y-96972380D02*
X138669880Y-95972380D01*
X138669880Y-96924761D02*
X138765119Y-96972380D01*
X138955595Y-96972380D01*
X139050833Y-96924761D01*
X139098452Y-96877142D01*
X139146071Y-96781904D01*
X139146071Y-96496190D01*
X139098452Y-96400952D01*
X139050833Y-96353333D01*
X138955595Y-96305714D01*
X138765119Y-96305714D01*
X138669880Y-96353333D01*
X137527023Y-96972380D02*
X137003214Y-96305714D01*
X137527023Y-96305714D02*
X137003214Y-96972380D01*
X135860357Y-96972380D02*
X135860357Y-96305714D01*
X135860357Y-95972380D02*
X135907976Y-96020000D01*
X135860357Y-96067619D01*
X135812738Y-96020000D01*
X135860357Y-95972380D01*
X135860357Y-96067619D01*
X135384166Y-96305714D02*
X135384166Y-96972380D01*
X135384166Y-96400952D02*
X135336547Y-96353333D01*
X135241309Y-96305714D01*
X135098452Y-96305714D01*
X135003214Y-96353333D01*
X134955595Y-96448571D01*
X134955595Y-96972380D01*
X136765119Y-128055714D02*
X136765119Y-128865238D01*
X136812738Y-128960476D01*
X136860357Y-129008095D01*
X136955595Y-129055714D01*
X137098452Y-129055714D01*
X137193690Y-129008095D01*
X136765119Y-128674761D02*
X136860357Y-128722380D01*
X137050833Y-128722380D01*
X137146071Y-128674761D01*
X137193690Y-128627142D01*
X137241309Y-128531904D01*
X137241309Y-128246190D01*
X137193690Y-128150952D01*
X137146071Y-128103333D01*
X137050833Y-128055714D01*
X136860357Y-128055714D01*
X136765119Y-128103333D01*
X136288928Y-128055714D02*
X136288928Y-128722380D01*
X136288928Y-128150952D02*
X136241309Y-128103333D01*
X136146071Y-128055714D01*
X136003214Y-128055714D01*
X135907976Y-128103333D01*
X135860357Y-128198571D01*
X135860357Y-128722380D01*
X134955595Y-128722380D02*
X134955595Y-127722380D01*
X134955595Y-128674761D02*
X135050833Y-128722380D01*
X135241309Y-128722380D01*
X135336547Y-128674761D01*
X135384166Y-128627142D01*
X135431785Y-128531904D01*
X135431785Y-128246190D01*
X135384166Y-128150952D01*
X135336547Y-128103333D01*
X135241309Y-128055714D01*
X135050833Y-128055714D01*
X134955595Y-128103333D01*
X144193690Y-126134761D02*
X144098452Y-126182380D01*
X143907976Y-126182380D01*
X143812738Y-126134761D01*
X143765119Y-126039523D01*
X143765119Y-125991904D01*
X143812738Y-125896666D01*
X143907976Y-125849047D01*
X144050833Y-125849047D01*
X144146071Y-125801428D01*
X144193690Y-125706190D01*
X144193690Y-125658571D01*
X144146071Y-125563333D01*
X144050833Y-125515714D01*
X143907976Y-125515714D01*
X143812738Y-125563333D01*
X143431785Y-125515714D02*
X143193690Y-126182380D01*
X142955595Y-125515714D02*
X143193690Y-126182380D01*
X143288928Y-126420476D01*
X143336547Y-126468095D01*
X143431785Y-126515714D01*
X142574642Y-126182380D02*
X142574642Y-125515714D01*
X142574642Y-125610952D02*
X142527023Y-125563333D01*
X142431785Y-125515714D01*
X142288928Y-125515714D01*
X142193690Y-125563333D01*
X142146071Y-125658571D01*
X142146071Y-126182380D01*
X142146071Y-125658571D02*
X142098452Y-125563333D01*
X142003214Y-125515714D01*
X141860357Y-125515714D01*
X141765119Y-125563333D01*
X141717500Y-125658571D01*
X141717500Y-126182380D01*
X141241309Y-126182380D02*
X141241309Y-125515714D01*
X141241309Y-125610952D02*
X141193690Y-125563333D01*
X141098452Y-125515714D01*
X140955595Y-125515714D01*
X140860357Y-125563333D01*
X140812738Y-125658571D01*
X140812738Y-126182380D01*
X140812738Y-125658571D02*
X140765119Y-125563333D01*
X140669880Y-125515714D01*
X140527023Y-125515714D01*
X140431785Y-125563333D01*
X140384166Y-125658571D01*
X140384166Y-126182380D01*
X139527023Y-126134761D02*
X139622261Y-126182380D01*
X139812738Y-126182380D01*
X139907976Y-126134761D01*
X139955595Y-126039523D01*
X139955595Y-125658571D01*
X139907976Y-125563333D01*
X139812738Y-125515714D01*
X139622261Y-125515714D01*
X139527023Y-125563333D01*
X139479404Y-125658571D01*
X139479404Y-125753809D01*
X139955595Y-125849047D01*
X139193690Y-125515714D02*
X138812738Y-125515714D01*
X139050833Y-125182380D02*
X139050833Y-126039523D01*
X139003214Y-126134761D01*
X138907976Y-126182380D01*
X138812738Y-126182380D01*
X138479404Y-126182380D02*
X138479404Y-125515714D01*
X138479404Y-125706190D02*
X138431785Y-125610952D01*
X138384166Y-125563333D01*
X138288928Y-125515714D01*
X138193690Y-125515714D01*
X137955595Y-125515714D02*
X137717500Y-126182380D01*
X137479404Y-125515714D02*
X137717500Y-126182380D01*
X137812738Y-126420476D01*
X137860357Y-126468095D01*
X137955595Y-126515714D01*
X135765119Y-126087142D02*
X135812738Y-126134761D01*
X135955595Y-126182380D01*
X136050833Y-126182380D01*
X136193690Y-126134761D01*
X136288928Y-126039523D01*
X136336547Y-125944285D01*
X136384166Y-125753809D01*
X136384166Y-125610952D01*
X136336547Y-125420476D01*
X136288928Y-125325238D01*
X136193690Y-125230000D01*
X136050833Y-125182380D01*
X135955595Y-125182380D01*
X135812738Y-125230000D01*
X135765119Y-125277619D01*
X135479404Y-125182380D02*
X135146071Y-126182380D01*
X134812738Y-125182380D01*
X141527023Y-123594761D02*
X141431785Y-123642380D01*
X141241309Y-123642380D01*
X141146071Y-123594761D01*
X141098452Y-123499523D01*
X141098452Y-123451904D01*
X141146071Y-123356666D01*
X141241309Y-123309047D01*
X141384166Y-123309047D01*
X141479404Y-123261428D01*
X141527023Y-123166190D01*
X141527023Y-123118571D01*
X141479404Y-123023333D01*
X141384166Y-122975714D01*
X141241309Y-122975714D01*
X141146071Y-123023333D01*
X140669880Y-123642380D02*
X140669880Y-122642380D01*
X140241309Y-123642380D02*
X140241309Y-123118571D01*
X140288928Y-123023333D01*
X140384166Y-122975714D01*
X140527023Y-122975714D01*
X140622261Y-123023333D01*
X140669880Y-123070952D01*
X139336547Y-123642380D02*
X139336547Y-123118571D01*
X139384166Y-123023333D01*
X139479404Y-122975714D01*
X139669880Y-122975714D01*
X139765119Y-123023333D01*
X139336547Y-123594761D02*
X139431785Y-123642380D01*
X139669880Y-123642380D01*
X139765119Y-123594761D01*
X139812738Y-123499523D01*
X139812738Y-123404285D01*
X139765119Y-123309047D01*
X139669880Y-123261428D01*
X139431785Y-123261428D01*
X139336547Y-123213809D01*
X138860357Y-122975714D02*
X138860357Y-123975714D01*
X138860357Y-123023333D02*
X138765119Y-122975714D01*
X138574642Y-122975714D01*
X138479404Y-123023333D01*
X138431785Y-123070952D01*
X138384166Y-123166190D01*
X138384166Y-123451904D01*
X138431785Y-123547142D01*
X138479404Y-123594761D01*
X138574642Y-123642380D01*
X138765119Y-123642380D01*
X138860357Y-123594761D01*
X137574642Y-123594761D02*
X137669880Y-123642380D01*
X137860357Y-123642380D01*
X137955595Y-123594761D01*
X138003214Y-123499523D01*
X138003214Y-123118571D01*
X137955595Y-123023333D01*
X137860357Y-122975714D01*
X137669880Y-122975714D01*
X137574642Y-123023333D01*
X137527023Y-123118571D01*
X137527023Y-123213809D01*
X138003214Y-123309047D01*
X135765119Y-123547142D02*
X135812738Y-123594761D01*
X135955595Y-123642380D01*
X136050833Y-123642380D01*
X136193690Y-123594761D01*
X136288928Y-123499523D01*
X136336547Y-123404285D01*
X136384166Y-123213809D01*
X136384166Y-123070952D01*
X136336547Y-122880476D01*
X136288928Y-122785238D01*
X136193690Y-122690000D01*
X136050833Y-122642380D01*
X135955595Y-122642380D01*
X135812738Y-122690000D01*
X135765119Y-122737619D01*
X135479404Y-122642380D02*
X135146071Y-123642380D01*
X134812738Y-122642380D01*
X140146071Y-120435714D02*
X139765119Y-120435714D01*
X140003214Y-121102380D02*
X140003214Y-120245238D01*
X139955595Y-120150000D01*
X139860357Y-120102380D01*
X139765119Y-120102380D01*
X139288928Y-121102380D02*
X139384166Y-121054761D01*
X139431785Y-121007142D01*
X139479404Y-120911904D01*
X139479404Y-120626190D01*
X139431785Y-120530952D01*
X139384166Y-120483333D01*
X139288928Y-120435714D01*
X139146071Y-120435714D01*
X139050833Y-120483333D01*
X139003214Y-120530952D01*
X138955595Y-120626190D01*
X138955595Y-120911904D01*
X139003214Y-121007142D01*
X139050833Y-121054761D01*
X139146071Y-121102380D01*
X139288928Y-121102380D01*
X138384166Y-121102380D02*
X138479404Y-121054761D01*
X138527023Y-120959523D01*
X138527023Y-120102380D01*
X137574642Y-121102380D02*
X137574642Y-120102380D01*
X137574642Y-121054761D02*
X137669880Y-121102380D01*
X137860357Y-121102380D01*
X137955595Y-121054761D01*
X138003214Y-121007142D01*
X138050833Y-120911904D01*
X138050833Y-120626190D01*
X138003214Y-120530952D01*
X137955595Y-120483333D01*
X137860357Y-120435714D01*
X137669880Y-120435714D01*
X137574642Y-120483333D01*
X135765119Y-121007142D02*
X135812738Y-121054761D01*
X135955595Y-121102380D01*
X136050833Y-121102380D01*
X136193690Y-121054761D01*
X136288928Y-120959523D01*
X136336547Y-120864285D01*
X136384166Y-120673809D01*
X136384166Y-120530952D01*
X136336547Y-120340476D01*
X136288928Y-120245238D01*
X136193690Y-120150000D01*
X136050833Y-120102380D01*
X135955595Y-120102380D01*
X135812738Y-120150000D01*
X135765119Y-120197619D01*
X135479404Y-120102380D02*
X135146071Y-121102380D01*
X134812738Y-120102380D01*
X136765119Y-143295714D02*
X136765119Y-144105238D01*
X136812738Y-144200476D01*
X136860357Y-144248095D01*
X136955595Y-144295714D01*
X137098452Y-144295714D01*
X137193690Y-144248095D01*
X136765119Y-143914761D02*
X136860357Y-143962380D01*
X137050833Y-143962380D01*
X137146071Y-143914761D01*
X137193690Y-143867142D01*
X137241309Y-143771904D01*
X137241309Y-143486190D01*
X137193690Y-143390952D01*
X137146071Y-143343333D01*
X137050833Y-143295714D01*
X136860357Y-143295714D01*
X136765119Y-143343333D01*
X136288928Y-143295714D02*
X136288928Y-143962380D01*
X136288928Y-143390952D02*
X136241309Y-143343333D01*
X136146071Y-143295714D01*
X136003214Y-143295714D01*
X135907976Y-143343333D01*
X135860357Y-143438571D01*
X135860357Y-143962380D01*
X134955595Y-143962380D02*
X134955595Y-142962380D01*
X134955595Y-143914761D02*
X135050833Y-143962380D01*
X135241309Y-143962380D01*
X135336547Y-143914761D01*
X135384166Y-143867142D01*
X135431785Y-143771904D01*
X135431785Y-143486190D01*
X135384166Y-143390952D01*
X135336547Y-143343333D01*
X135241309Y-143295714D01*
X135050833Y-143295714D01*
X134955595Y-143343333D01*
X146431785Y-140755714D02*
X146241309Y-141422380D01*
X146050833Y-140946190D01*
X145860357Y-141422380D01*
X145669880Y-140755714D01*
X144860357Y-141422380D02*
X144860357Y-140898571D01*
X144907976Y-140803333D01*
X145003214Y-140755714D01*
X145193690Y-140755714D01*
X145288928Y-140803333D01*
X144860357Y-141374761D02*
X144955595Y-141422380D01*
X145193690Y-141422380D01*
X145288928Y-141374761D01*
X145336547Y-141279523D01*
X145336547Y-141184285D01*
X145288928Y-141089047D01*
X145193690Y-141041428D01*
X144955595Y-141041428D01*
X144860357Y-140993809D01*
X144479404Y-140755714D02*
X144241309Y-141422380D01*
X144003214Y-140755714D01*
X143241309Y-141374761D02*
X143336547Y-141422380D01*
X143527023Y-141422380D01*
X143622261Y-141374761D01*
X143669880Y-141279523D01*
X143669880Y-140898571D01*
X143622261Y-140803333D01*
X143527023Y-140755714D01*
X143336547Y-140755714D01*
X143241309Y-140803333D01*
X143193690Y-140898571D01*
X143193690Y-140993809D01*
X143669880Y-141089047D01*
X142146071Y-140755714D02*
X141765119Y-140755714D01*
X142003214Y-141422380D02*
X142003214Y-140565238D01*
X141955595Y-140470000D01*
X141860357Y-140422380D01*
X141765119Y-140422380D01*
X141288928Y-141422380D02*
X141384166Y-141374761D01*
X141431785Y-141327142D01*
X141479404Y-141231904D01*
X141479404Y-140946190D01*
X141431785Y-140850952D01*
X141384166Y-140803333D01*
X141288928Y-140755714D01*
X141146071Y-140755714D01*
X141050833Y-140803333D01*
X141003214Y-140850952D01*
X140955595Y-140946190D01*
X140955595Y-141231904D01*
X141003214Y-141327142D01*
X141050833Y-141374761D01*
X141146071Y-141422380D01*
X141288928Y-141422380D01*
X140384166Y-141422380D02*
X140479404Y-141374761D01*
X140527023Y-141279523D01*
X140527023Y-140422380D01*
X139574642Y-141422380D02*
X139574642Y-140422380D01*
X139574642Y-141374761D02*
X139669880Y-141422380D01*
X139860357Y-141422380D01*
X139955595Y-141374761D01*
X140003214Y-141327142D01*
X140050833Y-141231904D01*
X140050833Y-140946190D01*
X140003214Y-140850952D01*
X139955595Y-140803333D01*
X139860357Y-140755714D01*
X139669880Y-140755714D01*
X139574642Y-140803333D01*
X138717500Y-141374761D02*
X138812738Y-141422380D01*
X139003214Y-141422380D01*
X139098452Y-141374761D01*
X139146071Y-141279523D01*
X139146071Y-140898571D01*
X139098452Y-140803333D01*
X139003214Y-140755714D01*
X138812738Y-140755714D01*
X138717500Y-140803333D01*
X138669880Y-140898571D01*
X138669880Y-140993809D01*
X139146071Y-141089047D01*
X138241309Y-141422380D02*
X138241309Y-140755714D01*
X138241309Y-140946190D02*
X138193690Y-140850952D01*
X138146071Y-140803333D01*
X138050833Y-140755714D01*
X137955595Y-140755714D01*
X136717500Y-141422380D02*
X136812738Y-141374761D01*
X136860357Y-141327142D01*
X136907976Y-141231904D01*
X136907976Y-140946190D01*
X136860357Y-140850952D01*
X136812738Y-140803333D01*
X136717500Y-140755714D01*
X136574642Y-140755714D01*
X136479404Y-140803333D01*
X136431785Y-140850952D01*
X136384166Y-140946190D01*
X136384166Y-141231904D01*
X136431785Y-141327142D01*
X136479404Y-141374761D01*
X136574642Y-141422380D01*
X136717500Y-141422380D01*
X135527023Y-140755714D02*
X135527023Y-141422380D01*
X135955595Y-140755714D02*
X135955595Y-141279523D01*
X135907976Y-141374761D01*
X135812738Y-141422380D01*
X135669880Y-141422380D01*
X135574642Y-141374761D01*
X135527023Y-141327142D01*
X135193690Y-140755714D02*
X134812738Y-140755714D01*
X135050833Y-140422380D02*
X135050833Y-141279523D01*
X135003214Y-141374761D01*
X134907976Y-141422380D01*
X134812738Y-141422380D01*
X145431785Y-138215714D02*
X145241309Y-138882380D01*
X145050833Y-138406190D01*
X144860357Y-138882380D01*
X144669880Y-138215714D01*
X143860357Y-138882380D02*
X143860357Y-138358571D01*
X143907976Y-138263333D01*
X144003214Y-138215714D01*
X144193690Y-138215714D01*
X144288928Y-138263333D01*
X143860357Y-138834761D02*
X143955595Y-138882380D01*
X144193690Y-138882380D01*
X144288928Y-138834761D01*
X144336547Y-138739523D01*
X144336547Y-138644285D01*
X144288928Y-138549047D01*
X144193690Y-138501428D01*
X143955595Y-138501428D01*
X143860357Y-138453809D01*
X143479404Y-138215714D02*
X143241309Y-138882380D01*
X143003214Y-138215714D01*
X142241309Y-138834761D02*
X142336547Y-138882380D01*
X142527023Y-138882380D01*
X142622261Y-138834761D01*
X142669880Y-138739523D01*
X142669880Y-138358571D01*
X142622261Y-138263333D01*
X142527023Y-138215714D01*
X142336547Y-138215714D01*
X142241309Y-138263333D01*
X142193690Y-138358571D01*
X142193690Y-138453809D01*
X142669880Y-138549047D01*
X141146071Y-138215714D02*
X140765119Y-138215714D01*
X141003214Y-138882380D02*
X141003214Y-138025238D01*
X140955595Y-137930000D01*
X140860357Y-137882380D01*
X140765119Y-137882380D01*
X140288928Y-138882380D02*
X140384166Y-138834761D01*
X140431785Y-138787142D01*
X140479404Y-138691904D01*
X140479404Y-138406190D01*
X140431785Y-138310952D01*
X140384166Y-138263333D01*
X140288928Y-138215714D01*
X140146071Y-138215714D01*
X140050833Y-138263333D01*
X140003214Y-138310952D01*
X139955595Y-138406190D01*
X139955595Y-138691904D01*
X140003214Y-138787142D01*
X140050833Y-138834761D01*
X140146071Y-138882380D01*
X140288928Y-138882380D01*
X139384166Y-138882380D02*
X139479404Y-138834761D01*
X139527023Y-138739523D01*
X139527023Y-137882380D01*
X138574642Y-138882380D02*
X138574642Y-137882380D01*
X138574642Y-138834761D02*
X138669880Y-138882380D01*
X138860357Y-138882380D01*
X138955595Y-138834761D01*
X139003214Y-138787142D01*
X139050833Y-138691904D01*
X139050833Y-138406190D01*
X139003214Y-138310952D01*
X138955595Y-138263333D01*
X138860357Y-138215714D01*
X138669880Y-138215714D01*
X138574642Y-138263333D01*
X137717500Y-138834761D02*
X137812738Y-138882380D01*
X138003214Y-138882380D01*
X138098452Y-138834761D01*
X138146071Y-138739523D01*
X138146071Y-138358571D01*
X138098452Y-138263333D01*
X138003214Y-138215714D01*
X137812738Y-138215714D01*
X137717500Y-138263333D01*
X137669880Y-138358571D01*
X137669880Y-138453809D01*
X138146071Y-138549047D01*
X137241309Y-138882380D02*
X137241309Y-138215714D01*
X137241309Y-138406190D02*
X137193690Y-138310952D01*
X137146071Y-138263333D01*
X137050833Y-138215714D01*
X136955595Y-138215714D01*
X135860357Y-138882380D02*
X135860357Y-138215714D01*
X135860357Y-137882380D02*
X135907976Y-137930000D01*
X135860357Y-137977619D01*
X135812738Y-137930000D01*
X135860357Y-137882380D01*
X135860357Y-137977619D01*
X135384166Y-138215714D02*
X135384166Y-138882380D01*
X135384166Y-138310952D02*
X135336547Y-138263333D01*
X135241309Y-138215714D01*
X135098452Y-138215714D01*
X135003214Y-138263333D01*
X134955595Y-138358571D01*
X134955595Y-138882380D01*
D11*
X143400000Y-72330000D02*
X145050000Y-72330000D01*
X143400000Y-90230000D02*
X143400000Y-72330000D01*
X148700000Y-90230000D02*
X143400000Y-90230000D01*
X148700000Y-72330000D02*
X148700000Y-90230000D01*
X147050000Y-72330000D02*
X148700000Y-72330000D01*
X145050000Y-72330000D02*
G75*
G03*
X147050000Y-72330000I1000000J0D01*
G01*
X179434000Y-142046000D02*
X177784000Y-142046000D01*
X179434000Y-131766000D02*
X179434000Y-142046000D01*
X174134000Y-131766000D02*
X179434000Y-131766000D01*
X174134000Y-142046000D02*
X174134000Y-131766000D01*
X175784000Y-142046000D02*
X174134000Y-142046000D01*
X177784000Y-142046000D02*
G75*
G03*
X175784000Y-142046000I-1000000J0D01*
G01*
X179561000Y-129346000D02*
X177911000Y-129346000D01*
X179561000Y-119066000D02*
X179561000Y-129346000D01*
X174261000Y-119066000D02*
X179561000Y-119066000D01*
X174261000Y-129346000D02*
X174261000Y-119066000D01*
X175911000Y-129346000D02*
X174261000Y-129346000D01*
X177911000Y-129346000D02*
G75*
G03*
X175911000Y-129346000I-1000000J0D01*
G01*
X179053000Y-97850000D02*
X177403000Y-97850000D01*
X179053000Y-87570000D02*
X179053000Y-97850000D01*
X173753000Y-87570000D02*
X179053000Y-87570000D01*
X173753000Y-97850000D02*
X173753000Y-87570000D01*
X175403000Y-97850000D02*
X173753000Y-97850000D01*
X177403000Y-97850000D02*
G75*
G03*
X175403000Y-97850000I-1000000J0D01*
G01*
X179307000Y-79816000D02*
X177657000Y-79816000D01*
X179307000Y-59376000D02*
X179307000Y-79816000D01*
X174007000Y-59376000D02*
X179307000Y-59376000D01*
X174007000Y-79816000D02*
X174007000Y-59376000D01*
X175657000Y-79816000D02*
X174007000Y-79816000D01*
X177657000Y-79816000D02*
G75*
G03*
X175657000Y-79816000I-1000000J0D01*
G01*
X184047000Y-60960000D02*
X184817000Y-60960000D01*
X192127000Y-60960000D02*
X191357000Y-60960000D01*
X184817000Y-59590000D02*
X191357000Y-59590000D01*
X184817000Y-62330000D02*
X184817000Y-59590000D01*
X191357000Y-62330000D02*
X184817000Y-62330000D01*
X191357000Y-59590000D02*
X191357000Y-62330000D01*
X184047000Y-70104000D02*
X184817000Y-70104000D01*
X192127000Y-70104000D02*
X191357000Y-70104000D01*
X184817000Y-68734000D02*
X191357000Y-68734000D01*
X184817000Y-71474000D02*
X184817000Y-68734000D01*
X191357000Y-71474000D02*
X184817000Y-71474000D01*
X191357000Y-68734000D02*
X191357000Y-71474000D01*
X192127000Y-65532000D02*
X191357000Y-65532000D01*
X184047000Y-65532000D02*
X184817000Y-65532000D01*
X191357000Y-66902000D02*
X184817000Y-66902000D01*
X191357000Y-64162000D02*
X191357000Y-66902000D01*
X184817000Y-64162000D02*
X191357000Y-64162000D01*
X184817000Y-66902000D02*
X184817000Y-64162000D01*
X185469400Y-74371200D02*
X186239400Y-74371200D01*
X193549400Y-74371200D02*
X192779400Y-74371200D01*
X186239400Y-73001200D02*
X192779400Y-73001200D01*
X186239400Y-75741200D02*
X186239400Y-73001200D01*
X192779400Y-75741200D02*
X186239400Y-75741200D01*
X192779400Y-73001200D02*
X192779400Y-75741200D01*
X183793000Y-96520000D02*
X184563000Y-96520000D01*
X191873000Y-96520000D02*
X191103000Y-96520000D01*
X184563000Y-95150000D02*
X191103000Y-95150000D01*
X184563000Y-97890000D02*
X184563000Y-95150000D01*
X191103000Y-97890000D02*
X184563000Y-97890000D01*
X191103000Y-95150000D02*
X191103000Y-97890000D01*
X191873000Y-83312000D02*
X191103000Y-83312000D01*
X183793000Y-83312000D02*
X184563000Y-83312000D01*
X191103000Y-84682000D02*
X184563000Y-84682000D01*
X191103000Y-81942000D02*
X191103000Y-84682000D01*
X184563000Y-81942000D02*
X191103000Y-81942000D01*
X184563000Y-84682000D02*
X184563000Y-81942000D01*
X191873000Y-87630000D02*
X191103000Y-87630000D01*
X183793000Y-87630000D02*
X184563000Y-87630000D01*
X191103000Y-89000000D02*
X184563000Y-89000000D01*
X191103000Y-86260000D02*
X191103000Y-89000000D01*
X184563000Y-86260000D02*
X191103000Y-86260000D01*
X184563000Y-89000000D02*
X184563000Y-86260000D01*
X191873000Y-91948000D02*
X191103000Y-91948000D01*
X183793000Y-91948000D02*
X184563000Y-91948000D01*
X191103000Y-93318000D02*
X184563000Y-93318000D01*
X191103000Y-90578000D02*
X191103000Y-93318000D01*
X184563000Y-90578000D02*
X191103000Y-90578000D01*
X184563000Y-93318000D02*
X184563000Y-90578000D01*
X138430000Y-79780000D02*
X138430000Y-80550000D01*
X138430000Y-87860000D02*
X138430000Y-87090000D01*
X139800000Y-80550000D02*
X139800000Y-87090000D01*
X137060000Y-80550000D02*
X139800000Y-80550000D01*
X137060000Y-87090000D02*
X137060000Y-80550000D01*
X139800000Y-87090000D02*
X137060000Y-87090000D01*
X153670000Y-87860000D02*
X153670000Y-87090000D01*
X153670000Y-79780000D02*
X153670000Y-80550000D01*
X152300000Y-87090000D02*
X152300000Y-80550000D01*
X155040000Y-87090000D02*
X152300000Y-87090000D01*
X155040000Y-80550000D02*
X155040000Y-87090000D01*
X152300000Y-80550000D02*
X155040000Y-80550000D01*
X180951000Y-115570000D02*
X180181000Y-115570000D01*
X172871000Y-115570000D02*
X173641000Y-115570000D01*
X180181000Y-116940000D02*
X173641000Y-116940000D01*
X180181000Y-114200000D02*
X180181000Y-116940000D01*
X173641000Y-114200000D02*
X180181000Y-114200000D01*
X173641000Y-116940000D02*
X173641000Y-114200000D01*
X169394000Y-124460000D02*
X168624000Y-124460000D01*
X161314000Y-124460000D02*
X162084000Y-124460000D01*
X168624000Y-125830000D02*
X162084000Y-125830000D01*
X168624000Y-123090000D02*
X168624000Y-125830000D01*
X162084000Y-123090000D02*
X168624000Y-123090000D01*
X162084000Y-125830000D02*
X162084000Y-123090000D01*
X169394000Y-128778000D02*
X168624000Y-128778000D01*
X161314000Y-128778000D02*
X162084000Y-128778000D01*
X168624000Y-130148000D02*
X162084000Y-130148000D01*
X168624000Y-127408000D02*
X168624000Y-130148000D01*
X162084000Y-127408000D02*
X168624000Y-127408000D01*
X162084000Y-130148000D02*
X162084000Y-127408000D01*
X161060000Y-106680000D02*
X161830000Y-106680000D01*
X169140000Y-106680000D02*
X168370000Y-106680000D01*
X161830000Y-105310000D02*
X168370000Y-105310000D01*
X161830000Y-108050000D02*
X161830000Y-105310000D01*
X168370000Y-108050000D02*
X161830000Y-108050000D01*
X168370000Y-105310000D02*
X168370000Y-108050000D01*
X161060000Y-110998000D02*
X161830000Y-110998000D01*
X169140000Y-110998000D02*
X168370000Y-110998000D01*
X161830000Y-109628000D02*
X168370000Y-109628000D01*
X161830000Y-112368000D02*
X161830000Y-109628000D01*
X168370000Y-112368000D02*
X161830000Y-112368000D01*
X168370000Y-109628000D02*
X168370000Y-112368000D01*
X161060000Y-142240000D02*
X161830000Y-142240000D01*
X169140000Y-142240000D02*
X168370000Y-142240000D01*
X161830000Y-140870000D02*
X168370000Y-140870000D01*
X161830000Y-143610000D02*
X161830000Y-140870000D01*
X168370000Y-143610000D02*
X161830000Y-143610000D01*
X168370000Y-140870000D02*
X168370000Y-143610000D01*
X161060000Y-137922000D02*
X161830000Y-137922000D01*
X169140000Y-137922000D02*
X168370000Y-137922000D01*
X161830000Y-136552000D02*
X168370000Y-136552000D01*
X161830000Y-139292000D02*
X161830000Y-136552000D01*
X168370000Y-139292000D02*
X161830000Y-139292000D01*
X168370000Y-136552000D02*
X168370000Y-139292000D01*
X169140000Y-133350000D02*
X168370000Y-133350000D01*
X161060000Y-133350000D02*
X161830000Y-133350000D01*
X168370000Y-134720000D02*
X161830000Y-134720000D01*
X168370000Y-131980000D02*
X168370000Y-134720000D01*
X161830000Y-131980000D02*
X168370000Y-131980000D01*
X161830000Y-134720000D02*
X161830000Y-131980000D01*
X169267000Y-74422000D02*
X168497000Y-74422000D01*
X161187000Y-74422000D02*
X161957000Y-74422000D01*
X168497000Y-75792000D02*
X161957000Y-75792000D01*
X168497000Y-73052000D02*
X168497000Y-75792000D01*
X161957000Y-73052000D02*
X168497000Y-73052000D01*
X161957000Y-75792000D02*
X161957000Y-73052000D01*
X169267000Y-65532000D02*
X168497000Y-65532000D01*
X161187000Y-65532000D02*
X161957000Y-65532000D01*
X168497000Y-66902000D02*
X161957000Y-66902000D01*
X168497000Y-64162000D02*
X168497000Y-66902000D01*
X161957000Y-64162000D02*
X168497000Y-64162000D01*
X161957000Y-66902000D02*
X161957000Y-64162000D01*
X161187000Y-82550000D02*
X161957000Y-82550000D01*
X169267000Y-82550000D02*
X168497000Y-82550000D01*
X161957000Y-81180000D02*
X168497000Y-81180000D01*
X161957000Y-83920000D02*
X161957000Y-81180000D01*
X168497000Y-83920000D02*
X161957000Y-83920000D01*
X168497000Y-81180000D02*
X168497000Y-83920000D01*
X169267000Y-60960000D02*
X168497000Y-60960000D01*
X161187000Y-60960000D02*
X161957000Y-60960000D01*
X168497000Y-62330000D02*
X161957000Y-62330000D01*
X168497000Y-59590000D02*
X168497000Y-62330000D01*
X161957000Y-59590000D02*
X168497000Y-59590000D01*
X161957000Y-62330000D02*
X161957000Y-59590000D01*
X169267000Y-69977000D02*
X168497000Y-69977000D01*
X161187000Y-69977000D02*
X161957000Y-69977000D01*
X168497000Y-71347000D02*
X161957000Y-71347000D01*
X168497000Y-68607000D02*
X168497000Y-71347000D01*
X161957000Y-68607000D02*
X168497000Y-68607000D01*
X161957000Y-71347000D02*
X161957000Y-68607000D01*
X161187000Y-87376000D02*
X161957000Y-87376000D01*
X169267000Y-87376000D02*
X168497000Y-87376000D01*
X161957000Y-86006000D02*
X168497000Y-86006000D01*
X161957000Y-88746000D02*
X161957000Y-86006000D01*
X168497000Y-88746000D02*
X161957000Y-88746000D01*
X168497000Y-86006000D02*
X168497000Y-88746000D01*
X160856800Y-91948000D02*
X161626800Y-91948000D01*
X168936800Y-91948000D02*
X168166800Y-91948000D01*
X161626800Y-90578000D02*
X168166800Y-90578000D01*
X161626800Y-93318000D02*
X161626800Y-90578000D01*
X168166800Y-93318000D02*
X161626800Y-93318000D01*
X168166800Y-90578000D02*
X168166800Y-93318000D01*
X160399600Y-96774000D02*
X161169600Y-96774000D01*
X168479600Y-96774000D02*
X167709600Y-96774000D01*
X161169600Y-95404000D02*
X167709600Y-95404000D01*
X161169600Y-98144000D02*
X161169600Y-95404000D01*
X167709600Y-98144000D02*
X161169600Y-98144000D01*
X167709600Y-95404000D02*
X167709600Y-98144000D01*
X184428000Y-133858000D02*
X185198000Y-133858000D01*
X192508000Y-133858000D02*
X191738000Y-133858000D01*
X185198000Y-132488000D02*
X191738000Y-132488000D01*
X185198000Y-135228000D02*
X185198000Y-132488000D01*
X191738000Y-135228000D02*
X185198000Y-135228000D01*
X191738000Y-132488000D02*
X191738000Y-135228000D01*
X192508000Y-129540000D02*
X191738000Y-129540000D01*
X184428000Y-129540000D02*
X185198000Y-129540000D01*
X191738000Y-130910000D02*
X185198000Y-130910000D01*
X191738000Y-128170000D02*
X191738000Y-130910000D01*
X185198000Y-128170000D02*
X191738000Y-128170000D01*
X185198000Y-130910000D02*
X185198000Y-128170000D01*
X205970000Y-128270000D02*
X205200000Y-128270000D01*
X197890000Y-128270000D02*
X198660000Y-128270000D01*
X205200000Y-129640000D02*
X198660000Y-129640000D01*
X205200000Y-126900000D02*
X205200000Y-129640000D01*
X198660000Y-126900000D02*
X205200000Y-126900000D01*
X198660000Y-129640000D02*
X198660000Y-126900000D01*
X205970000Y-121920000D02*
X205200000Y-121920000D01*
X197890000Y-121920000D02*
X198660000Y-121920000D01*
X205200000Y-123290000D02*
X198660000Y-123290000D01*
X205200000Y-120550000D02*
X205200000Y-123290000D01*
X198660000Y-120550000D02*
X205200000Y-120550000D01*
X198660000Y-123290000D02*
X198660000Y-120550000D01*
X205970000Y-115570000D02*
X205200000Y-115570000D01*
X197890000Y-115570000D02*
X198660000Y-115570000D01*
X205200000Y-116940000D02*
X198660000Y-116940000D01*
X205200000Y-114200000D02*
X205200000Y-116940000D01*
X198660000Y-114200000D02*
X205200000Y-114200000D01*
X198660000Y-116940000D02*
X198660000Y-114200000D01*
X205970000Y-109220000D02*
X205200000Y-109220000D01*
X197890000Y-109220000D02*
X198660000Y-109220000D01*
X205200000Y-110590000D02*
X198660000Y-110590000D01*
X205200000Y-107850000D02*
X205200000Y-110590000D01*
X198660000Y-107850000D02*
X205200000Y-107850000D01*
X198660000Y-110590000D02*
X198660000Y-107850000D01*
X184428000Y-125222000D02*
X185198000Y-125222000D01*
X192508000Y-125222000D02*
X191738000Y-125222000D01*
X185198000Y-123852000D02*
X191738000Y-123852000D01*
X185198000Y-126592000D02*
X185198000Y-123852000D01*
X191738000Y-126592000D02*
X185198000Y-126592000D01*
X191738000Y-123852000D02*
X191738000Y-126592000D01*
X199160000Y-87630000D02*
X199930000Y-87630000D01*
X207240000Y-87630000D02*
X206470000Y-87630000D01*
X199930000Y-86260000D02*
X206470000Y-86260000D01*
X199930000Y-89000000D02*
X199930000Y-86260000D01*
X206470000Y-89000000D02*
X199930000Y-89000000D01*
X206470000Y-86260000D02*
X206470000Y-89000000D01*
X199160000Y-82550000D02*
X199930000Y-82550000D01*
X207240000Y-82550000D02*
X206470000Y-82550000D01*
X199930000Y-81180000D02*
X206470000Y-81180000D01*
X199930000Y-83920000D02*
X199930000Y-81180000D01*
X206470000Y-83920000D02*
X199930000Y-83920000D01*
X206470000Y-81180000D02*
X206470000Y-83920000D01*
X199160000Y-77470000D02*
X199930000Y-77470000D01*
X207240000Y-77470000D02*
X206470000Y-77470000D01*
X199930000Y-76100000D02*
X206470000Y-76100000D01*
X199930000Y-78840000D02*
X199930000Y-76100000D01*
X206470000Y-78840000D02*
X199930000Y-78840000D01*
X206470000Y-76100000D02*
X206470000Y-78840000D01*
X199160000Y-72390000D02*
X199930000Y-72390000D01*
X207240000Y-72390000D02*
X206470000Y-72390000D01*
X199930000Y-71020000D02*
X206470000Y-71020000D01*
X199930000Y-73760000D02*
X199930000Y-71020000D01*
X206470000Y-73760000D02*
X199930000Y-73760000D01*
X206470000Y-71020000D02*
X206470000Y-73760000D01*
X137220000Y-55820000D02*
X135890000Y-55820000D01*
X137220000Y-57150000D02*
X137220000Y-55820000D01*
X134620000Y-55820000D02*
X132020000Y-55820000D01*
X134620000Y-58420000D02*
X134620000Y-55820000D01*
X137220000Y-58420000D02*
X134620000Y-58420000D01*
X132020000Y-55820000D02*
X132020000Y-68640000D01*
X137220000Y-58420000D02*
X137220000Y-68640000D01*
X137220000Y-68640000D02*
X132020000Y-68640000D01*
X133410000Y-95190000D02*
X132080000Y-95190000D01*
X133410000Y-96520000D02*
X133410000Y-95190000D01*
X133410000Y-97790000D02*
X130750000Y-97790000D01*
X130750000Y-97790000D02*
X130750000Y-105470000D01*
X133410000Y-97790000D02*
X133410000Y-105470000D01*
X133410000Y-105470000D02*
X130750000Y-105470000D01*
X133410000Y-119320000D02*
X132080000Y-119320000D01*
X133410000Y-120650000D02*
X133410000Y-119320000D01*
X133410000Y-121920000D02*
X130750000Y-121920000D01*
X130750000Y-121920000D02*
X130750000Y-129600000D01*
X133410000Y-121920000D02*
X133410000Y-129600000D01*
X133410000Y-129600000D02*
X130750000Y-129600000D01*
X133410000Y-137100000D02*
X132080000Y-137100000D01*
X133410000Y-138430000D02*
X133410000Y-137100000D01*
X133410000Y-139700000D02*
X130750000Y-139700000D01*
X130750000Y-139700000D02*
X130750000Y-144840000D01*
X133410000Y-139700000D02*
X133410000Y-144840000D01*
X133410000Y-144840000D02*
X130750000Y-144840000D01*
X133550000Y-82585000D02*
X130610000Y-82585000D01*
X133550000Y-82345000D02*
X130610000Y-82345000D01*
X133550000Y-82465000D02*
X130610000Y-82465000D01*
X130610000Y-77925000D02*
X130940000Y-77925000D01*
X130610000Y-83365000D02*
X130610000Y-77925000D01*
X130940000Y-83365000D02*
X130610000Y-83365000D01*
X133550000Y-77925000D02*
X133220000Y-77925000D01*
X133550000Y-83365000D02*
X133550000Y-77925000D01*
X133220000Y-83365000D02*
X133550000Y-83365000D01*
X163033000Y-121612000D02*
X163033000Y-118672000D01*
X163273000Y-121612000D02*
X163273000Y-118672000D01*
X163153000Y-121612000D02*
X163153000Y-118672000D01*
X167693000Y-118672000D02*
X167693000Y-119002000D01*
X162253000Y-118672000D02*
X167693000Y-118672000D01*
X162253000Y-119002000D02*
X162253000Y-118672000D01*
X167693000Y-121612000D02*
X167693000Y-121282000D01*
X162253000Y-121612000D02*
X167693000Y-121612000D01*
X162253000Y-121282000D02*
X162253000Y-121612000D01*
X166913000Y-114100000D02*
X166913000Y-117040000D01*
X166673000Y-114100000D02*
X166673000Y-117040000D01*
X166793000Y-114100000D02*
X166793000Y-117040000D01*
X162253000Y-117040000D02*
X162253000Y-116710000D01*
X167693000Y-117040000D02*
X162253000Y-117040000D01*
X167693000Y-116710000D02*
X167693000Y-117040000D01*
X162253000Y-114100000D02*
X162253000Y-114430000D01*
X167693000Y-114100000D02*
X162253000Y-114100000D01*
X167693000Y-114430000D02*
X167693000Y-114100000D01*
X190408000Y-136960000D02*
X190408000Y-139900000D01*
X190168000Y-136960000D02*
X190168000Y-139900000D01*
X190288000Y-136960000D02*
X190288000Y-139900000D01*
X185748000Y-139900000D02*
X185748000Y-139570000D01*
X191188000Y-139900000D02*
X185748000Y-139900000D01*
X191188000Y-139570000D02*
X191188000Y-139900000D01*
X185748000Y-136960000D02*
X185748000Y-137290000D01*
X191188000Y-136960000D02*
X185748000Y-136960000D01*
X191188000Y-137290000D02*
X191188000Y-136960000D01*
X186528000Y-144726000D02*
X186528000Y-141786000D01*
X186768000Y-144726000D02*
X186768000Y-141786000D01*
X186648000Y-144726000D02*
X186648000Y-141786000D01*
X191188000Y-141786000D02*
X191188000Y-142116000D01*
X185748000Y-141786000D02*
X191188000Y-141786000D01*
X185748000Y-142116000D02*
X185748000Y-141786000D01*
X191188000Y-144726000D02*
X191188000Y-144396000D01*
X185748000Y-144726000D02*
X191188000Y-144726000D01*
X185748000Y-144396000D02*
X185748000Y-144726000D01*
X221180000Y-139100000D02*
X218240000Y-139100000D01*
X221180000Y-138860000D02*
X218240000Y-138860000D01*
X221180000Y-138980000D02*
X218240000Y-138980000D01*
X218240000Y-134440000D02*
X218570000Y-134440000D01*
X218240000Y-139880000D02*
X218240000Y-134440000D01*
X218570000Y-139880000D02*
X218240000Y-139880000D01*
X221180000Y-134440000D02*
X220850000Y-134440000D01*
X221180000Y-139880000D02*
X221180000Y-134440000D01*
X220850000Y-139880000D02*
X221180000Y-139880000D01*
X221136000Y-128940000D02*
X218196000Y-128940000D01*
X221136000Y-128700000D02*
X218196000Y-128700000D01*
X221136000Y-128820000D02*
X218196000Y-128820000D01*
X218196000Y-124280000D02*
X218526000Y-124280000D01*
X218196000Y-129720000D02*
X218196000Y-124280000D01*
X218526000Y-129720000D02*
X218196000Y-129720000D01*
X221136000Y-124280000D02*
X220806000Y-124280000D01*
X221136000Y-129720000D02*
X221136000Y-124280000D01*
X220806000Y-129720000D02*
X221136000Y-129720000D01*
X221180000Y-118780000D02*
X218240000Y-118780000D01*
X221180000Y-118540000D02*
X218240000Y-118540000D01*
X221180000Y-118660000D02*
X218240000Y-118660000D01*
X218240000Y-114120000D02*
X218570000Y-114120000D01*
X218240000Y-119560000D02*
X218240000Y-114120000D01*
X218570000Y-119560000D02*
X218240000Y-119560000D01*
X221180000Y-114120000D02*
X220850000Y-114120000D01*
X221180000Y-119560000D02*
X221180000Y-114120000D01*
X220850000Y-119560000D02*
X221180000Y-119560000D01*
X221180000Y-108620000D02*
X218240000Y-108620000D01*
X221180000Y-108380000D02*
X218240000Y-108380000D01*
X221180000Y-108500000D02*
X218240000Y-108500000D01*
X218240000Y-103960000D02*
X218570000Y-103960000D01*
X218240000Y-109400000D02*
X218240000Y-103960000D01*
X218570000Y-109400000D02*
X218240000Y-109400000D01*
X221180000Y-103960000D02*
X220850000Y-103960000D01*
X221180000Y-109400000D02*
X221180000Y-103960000D01*
X220850000Y-109400000D02*
X221180000Y-109400000D01*
X221180000Y-98460000D02*
X218240000Y-98460000D01*
X221180000Y-98220000D02*
X218240000Y-98220000D01*
X221180000Y-98340000D02*
X218240000Y-98340000D01*
X218240000Y-93800000D02*
X218570000Y-93800000D01*
X218240000Y-99240000D02*
X218240000Y-93800000D01*
X218570000Y-99240000D02*
X218240000Y-99240000D01*
X221180000Y-93800000D02*
X220850000Y-93800000D01*
X221180000Y-99240000D02*
X221180000Y-93800000D01*
X220850000Y-99240000D02*
X221180000Y-99240000D01*
X221180000Y-88300000D02*
X218240000Y-88300000D01*
X221180000Y-88060000D02*
X218240000Y-88060000D01*
X221180000Y-88180000D02*
X218240000Y-88180000D01*
X218240000Y-83640000D02*
X218570000Y-83640000D01*
X218240000Y-89080000D02*
X218240000Y-83640000D01*
X218570000Y-89080000D02*
X218240000Y-89080000D01*
X221180000Y-83640000D02*
X220850000Y-83640000D01*
X221180000Y-89080000D02*
X221180000Y-83640000D01*
X220850000Y-89080000D02*
X221180000Y-89080000D01*
X221180000Y-78140000D02*
X218240000Y-78140000D01*
X221180000Y-77900000D02*
X218240000Y-77900000D01*
X221180000Y-78020000D02*
X218240000Y-78020000D01*
X218240000Y-73480000D02*
X218570000Y-73480000D01*
X218240000Y-78920000D02*
X218240000Y-73480000D01*
X218570000Y-78920000D02*
X218240000Y-78920000D01*
X221180000Y-73480000D02*
X220850000Y-73480000D01*
X221180000Y-78920000D02*
X221180000Y-73480000D01*
X220850000Y-78920000D02*
X221180000Y-78920000D01*
X221180000Y-67980000D02*
X218240000Y-67980000D01*
X221180000Y-67740000D02*
X218240000Y-67740000D01*
X221180000Y-67860000D02*
X218240000Y-67860000D01*
X218240000Y-63320000D02*
X218570000Y-63320000D01*
X218240000Y-68760000D02*
X218240000Y-63320000D01*
X218570000Y-68760000D02*
X218240000Y-68760000D01*
X221180000Y-63320000D02*
X220850000Y-63320000D01*
X221180000Y-68760000D02*
X221180000Y-63320000D01*
X220850000Y-68760000D02*
X221180000Y-68760000D01*
X214430000Y-135220000D02*
X217370000Y-135220000D01*
X214430000Y-135460000D02*
X217370000Y-135460000D01*
X214430000Y-135340000D02*
X217370000Y-135340000D01*
X217370000Y-139880000D02*
X217040000Y-139880000D01*
X217370000Y-134440000D02*
X217370000Y-139880000D01*
X217040000Y-134440000D02*
X217370000Y-134440000D01*
X214430000Y-139880000D02*
X214760000Y-139880000D01*
X214430000Y-134440000D02*
X214430000Y-139880000D01*
X214760000Y-134440000D02*
X214430000Y-134440000D01*
X214430000Y-125060000D02*
X217370000Y-125060000D01*
X214430000Y-125300000D02*
X217370000Y-125300000D01*
X214430000Y-125180000D02*
X217370000Y-125180000D01*
X217370000Y-129720000D02*
X217040000Y-129720000D01*
X217370000Y-124280000D02*
X217370000Y-129720000D01*
X217040000Y-124280000D02*
X217370000Y-124280000D01*
X214430000Y-129720000D02*
X214760000Y-129720000D01*
X214430000Y-124280000D02*
X214430000Y-129720000D01*
X214760000Y-124280000D02*
X214430000Y-124280000D01*
X214430000Y-114900000D02*
X217370000Y-114900000D01*
X214430000Y-115140000D02*
X217370000Y-115140000D01*
X214430000Y-115020000D02*
X217370000Y-115020000D01*
X217370000Y-119560000D02*
X217040000Y-119560000D01*
X217370000Y-114120000D02*
X217370000Y-119560000D01*
X217040000Y-114120000D02*
X217370000Y-114120000D01*
X214430000Y-119560000D02*
X214760000Y-119560000D01*
X214430000Y-114120000D02*
X214430000Y-119560000D01*
X214760000Y-114120000D02*
X214430000Y-114120000D01*
X214430000Y-104740000D02*
X217370000Y-104740000D01*
X214430000Y-104980000D02*
X217370000Y-104980000D01*
X214430000Y-104860000D02*
X217370000Y-104860000D01*
X217370000Y-109400000D02*
X217040000Y-109400000D01*
X217370000Y-103960000D02*
X217370000Y-109400000D01*
X217040000Y-103960000D02*
X217370000Y-103960000D01*
X214430000Y-109400000D02*
X214760000Y-109400000D01*
X214430000Y-103960000D02*
X214430000Y-109400000D01*
X214760000Y-103960000D02*
X214430000Y-103960000D01*
X214430000Y-94580000D02*
X217370000Y-94580000D01*
X214430000Y-94820000D02*
X217370000Y-94820000D01*
X214430000Y-94700000D02*
X217370000Y-94700000D01*
X217370000Y-99240000D02*
X217040000Y-99240000D01*
X217370000Y-93800000D02*
X217370000Y-99240000D01*
X217040000Y-93800000D02*
X217370000Y-93800000D01*
X214430000Y-99240000D02*
X214760000Y-99240000D01*
X214430000Y-93800000D02*
X214430000Y-99240000D01*
X214760000Y-93800000D02*
X214430000Y-93800000D01*
X214430000Y-84420000D02*
X217370000Y-84420000D01*
X214430000Y-84660000D02*
X217370000Y-84660000D01*
X214430000Y-84540000D02*
X217370000Y-84540000D01*
X217370000Y-89080000D02*
X217040000Y-89080000D01*
X217370000Y-83640000D02*
X217370000Y-89080000D01*
X217040000Y-83640000D02*
X217370000Y-83640000D01*
X214430000Y-89080000D02*
X214760000Y-89080000D01*
X214430000Y-83640000D02*
X214430000Y-89080000D01*
X214760000Y-83640000D02*
X214430000Y-83640000D01*
X214430000Y-74260000D02*
X217370000Y-74260000D01*
X214430000Y-74500000D02*
X217370000Y-74500000D01*
X214430000Y-74380000D02*
X217370000Y-74380000D01*
X217370000Y-78920000D02*
X217040000Y-78920000D01*
X217370000Y-73480000D02*
X217370000Y-78920000D01*
X217040000Y-73480000D02*
X217370000Y-73480000D01*
X214430000Y-78920000D02*
X214760000Y-78920000D01*
X214430000Y-73480000D02*
X214430000Y-78920000D01*
X214760000Y-73480000D02*
X214430000Y-73480000D01*
X214430000Y-64100000D02*
X217370000Y-64100000D01*
X214430000Y-64340000D02*
X217370000Y-64340000D01*
X214430000Y-64220000D02*
X217370000Y-64220000D01*
X217370000Y-68760000D02*
X217040000Y-68760000D01*
X217370000Y-63320000D02*
X217370000Y-68760000D01*
X217040000Y-63320000D02*
X217370000Y-63320000D01*
X214430000Y-68760000D02*
X214760000Y-68760000D01*
X214430000Y-63320000D02*
X214430000Y-68760000D01*
X214760000Y-63320000D02*
X214430000Y-63320000D01*
X169514759Y-57399000D02*
X169514759Y-56769000D01*
X169199759Y-57084000D02*
X169829759Y-57084000D01*
X175941000Y-55647000D02*
X175941000Y-54843000D01*
X175901000Y-55878000D02*
X175901000Y-54612000D01*
X175861000Y-56047000D02*
X175861000Y-54443000D01*
X175821000Y-56185000D02*
X175821000Y-54305000D01*
X175781000Y-56304000D02*
X175781000Y-54186000D01*
X175741000Y-56410000D02*
X175741000Y-54080000D01*
X175701000Y-56507000D02*
X175701000Y-53983000D01*
X175661000Y-56595000D02*
X175661000Y-53895000D01*
X175621000Y-56677000D02*
X175621000Y-53813000D01*
X175581000Y-56754000D02*
X175581000Y-53736000D01*
X175541000Y-56826000D02*
X175541000Y-53664000D01*
X175501000Y-56895000D02*
X175501000Y-53595000D01*
X175461000Y-56959000D02*
X175461000Y-53531000D01*
X175421000Y-57021000D02*
X175421000Y-53469000D01*
X175381000Y-57079000D02*
X175381000Y-53411000D01*
X175341000Y-57135000D02*
X175341000Y-53355000D01*
X175301000Y-57189000D02*
X175301000Y-53301000D01*
X175261000Y-57240000D02*
X175261000Y-53250000D01*
X175221000Y-57289000D02*
X175221000Y-53201000D01*
X175181000Y-57337000D02*
X175181000Y-53153000D01*
X175141000Y-57382000D02*
X175141000Y-53108000D01*
X175101000Y-57427000D02*
X175101000Y-53063000D01*
X175061000Y-57469000D02*
X175061000Y-53021000D01*
X175021000Y-57510000D02*
X175021000Y-52980000D01*
X174981000Y-54205000D02*
X174981000Y-52940000D01*
X174981000Y-57550000D02*
X174981000Y-56285000D01*
X174941000Y-54205000D02*
X174941000Y-52902000D01*
X174941000Y-57588000D02*
X174941000Y-56285000D01*
X174901000Y-54205000D02*
X174901000Y-52865000D01*
X174901000Y-57625000D02*
X174901000Y-56285000D01*
X174861000Y-54205000D02*
X174861000Y-52829000D01*
X174861000Y-57661000D02*
X174861000Y-56285000D01*
X174821000Y-54205000D02*
X174821000Y-52795000D01*
X174821000Y-57695000D02*
X174821000Y-56285000D01*
X174781000Y-54205000D02*
X174781000Y-52761000D01*
X174781000Y-57729000D02*
X174781000Y-56285000D01*
X174741000Y-54205000D02*
X174741000Y-52729000D01*
X174741000Y-57761000D02*
X174741000Y-56285000D01*
X174701000Y-54205000D02*
X174701000Y-52697000D01*
X174701000Y-57793000D02*
X174701000Y-56285000D01*
X174661000Y-54205000D02*
X174661000Y-52667000D01*
X174661000Y-57823000D02*
X174661000Y-56285000D01*
X174621000Y-54205000D02*
X174621000Y-52638000D01*
X174621000Y-57852000D02*
X174621000Y-56285000D01*
X174581000Y-54205000D02*
X174581000Y-52609000D01*
X174581000Y-57881000D02*
X174581000Y-56285000D01*
X174541000Y-54205000D02*
X174541000Y-52581000D01*
X174541000Y-57909000D02*
X174541000Y-56285000D01*
X174501000Y-54205000D02*
X174501000Y-52555000D01*
X174501000Y-57935000D02*
X174501000Y-56285000D01*
X174461000Y-54205000D02*
X174461000Y-52529000D01*
X174461000Y-57961000D02*
X174461000Y-56285000D01*
X174421000Y-54205000D02*
X174421000Y-52503000D01*
X174421000Y-57987000D02*
X174421000Y-56285000D01*
X174381000Y-54205000D02*
X174381000Y-52479000D01*
X174381000Y-58011000D02*
X174381000Y-56285000D01*
X174341000Y-54205000D02*
X174341000Y-52455000D01*
X174341000Y-58035000D02*
X174341000Y-56285000D01*
X174301000Y-54205000D02*
X174301000Y-52433000D01*
X174301000Y-58057000D02*
X174301000Y-56285000D01*
X174261000Y-54205000D02*
X174261000Y-52411000D01*
X174261000Y-58079000D02*
X174261000Y-56285000D01*
X174221000Y-54205000D02*
X174221000Y-52389000D01*
X174221000Y-58101000D02*
X174221000Y-56285000D01*
X174181000Y-54205000D02*
X174181000Y-52369000D01*
X174181000Y-58121000D02*
X174181000Y-56285000D01*
X174141000Y-54205000D02*
X174141000Y-52349000D01*
X174141000Y-58141000D02*
X174141000Y-56285000D01*
X174101000Y-54205000D02*
X174101000Y-52329000D01*
X174101000Y-58161000D02*
X174101000Y-56285000D01*
X174061000Y-54205000D02*
X174061000Y-52311000D01*
X174061000Y-58179000D02*
X174061000Y-56285000D01*
X174021000Y-54205000D02*
X174021000Y-52293000D01*
X174021000Y-58197000D02*
X174021000Y-56285000D01*
X173981000Y-54205000D02*
X173981000Y-52275000D01*
X173981000Y-58215000D02*
X173981000Y-56285000D01*
X173941000Y-54205000D02*
X173941000Y-52259000D01*
X173941000Y-58231000D02*
X173941000Y-56285000D01*
X173901000Y-54205000D02*
X173901000Y-52243000D01*
X173901000Y-58247000D02*
X173901000Y-56285000D01*
X173861000Y-54205000D02*
X173861000Y-52227000D01*
X173861000Y-58263000D02*
X173861000Y-56285000D01*
X173821000Y-54205000D02*
X173821000Y-52212000D01*
X173821000Y-58278000D02*
X173821000Y-56285000D01*
X173781000Y-54205000D02*
X173781000Y-52198000D01*
X173781000Y-58292000D02*
X173781000Y-56285000D01*
X173741000Y-54205000D02*
X173741000Y-52184000D01*
X173741000Y-58306000D02*
X173741000Y-56285000D01*
X173701000Y-54205000D02*
X173701000Y-52171000D01*
X173701000Y-58319000D02*
X173701000Y-56285000D01*
X173661000Y-54205000D02*
X173661000Y-52159000D01*
X173661000Y-58331000D02*
X173661000Y-56285000D01*
X173621000Y-54205000D02*
X173621000Y-52147000D01*
X173621000Y-58343000D02*
X173621000Y-56285000D01*
X173581000Y-54205000D02*
X173581000Y-52135000D01*
X173581000Y-58355000D02*
X173581000Y-56285000D01*
X173541000Y-54205000D02*
X173541000Y-52124000D01*
X173541000Y-58366000D02*
X173541000Y-56285000D01*
X173501000Y-54205000D02*
X173501000Y-52114000D01*
X173501000Y-58376000D02*
X173501000Y-56285000D01*
X173461000Y-54205000D02*
X173461000Y-52104000D01*
X173461000Y-58386000D02*
X173461000Y-56285000D01*
X173421000Y-54205000D02*
X173421000Y-52095000D01*
X173421000Y-58395000D02*
X173421000Y-56285000D01*
X173380000Y-54205000D02*
X173380000Y-52086000D01*
X173380000Y-58404000D02*
X173380000Y-56285000D01*
X173340000Y-54205000D02*
X173340000Y-52078000D01*
X173340000Y-58412000D02*
X173340000Y-56285000D01*
X173300000Y-54205000D02*
X173300000Y-52070000D01*
X173300000Y-58420000D02*
X173300000Y-56285000D01*
X173260000Y-54205000D02*
X173260000Y-52063000D01*
X173260000Y-58427000D02*
X173260000Y-56285000D01*
X173220000Y-54205000D02*
X173220000Y-52056000D01*
X173220000Y-58434000D02*
X173220000Y-56285000D01*
X173180000Y-54205000D02*
X173180000Y-52050000D01*
X173180000Y-58440000D02*
X173180000Y-56285000D01*
X173140000Y-54205000D02*
X173140000Y-52044000D01*
X173140000Y-58446000D02*
X173140000Y-56285000D01*
X173100000Y-54205000D02*
X173100000Y-52039000D01*
X173100000Y-58451000D02*
X173100000Y-56285000D01*
X173060000Y-54205000D02*
X173060000Y-52034000D01*
X173060000Y-58456000D02*
X173060000Y-56285000D01*
X173020000Y-54205000D02*
X173020000Y-52030000D01*
X173020000Y-58460000D02*
X173020000Y-56285000D01*
X172980000Y-54205000D02*
X172980000Y-52027000D01*
X172980000Y-58463000D02*
X172980000Y-56285000D01*
X172940000Y-54205000D02*
X172940000Y-52023000D01*
X172940000Y-58467000D02*
X172940000Y-56285000D01*
X172900000Y-58469000D02*
X172900000Y-52021000D01*
X172860000Y-58472000D02*
X172860000Y-52018000D01*
X172820000Y-58473000D02*
X172820000Y-52017000D01*
X172780000Y-58475000D02*
X172780000Y-52015000D01*
X172740000Y-58475000D02*
X172740000Y-52015000D01*
X172700000Y-58475000D02*
X172700000Y-52015000D01*
X175970000Y-55245000D02*
G75*
G03*
X175970000Y-55245000I-3270000J0D01*
G01*
X177809759Y-57399000D02*
X177809759Y-56769000D01*
X177494759Y-57084000D02*
X178124759Y-57084000D01*
X184236000Y-55647000D02*
X184236000Y-54843000D01*
X184196000Y-55878000D02*
X184196000Y-54612000D01*
X184156000Y-56047000D02*
X184156000Y-54443000D01*
X184116000Y-56185000D02*
X184116000Y-54305000D01*
X184076000Y-56304000D02*
X184076000Y-54186000D01*
X184036000Y-56410000D02*
X184036000Y-54080000D01*
X183996000Y-56507000D02*
X183996000Y-53983000D01*
X183956000Y-56595000D02*
X183956000Y-53895000D01*
X183916000Y-56677000D02*
X183916000Y-53813000D01*
X183876000Y-56754000D02*
X183876000Y-53736000D01*
X183836000Y-56826000D02*
X183836000Y-53664000D01*
X183796000Y-56895000D02*
X183796000Y-53595000D01*
X183756000Y-56959000D02*
X183756000Y-53531000D01*
X183716000Y-57021000D02*
X183716000Y-53469000D01*
X183676000Y-57079000D02*
X183676000Y-53411000D01*
X183636000Y-57135000D02*
X183636000Y-53355000D01*
X183596000Y-57189000D02*
X183596000Y-53301000D01*
X183556000Y-57240000D02*
X183556000Y-53250000D01*
X183516000Y-57289000D02*
X183516000Y-53201000D01*
X183476000Y-57337000D02*
X183476000Y-53153000D01*
X183436000Y-57382000D02*
X183436000Y-53108000D01*
X183396000Y-57427000D02*
X183396000Y-53063000D01*
X183356000Y-57469000D02*
X183356000Y-53021000D01*
X183316000Y-57510000D02*
X183316000Y-52980000D01*
X183276000Y-54205000D02*
X183276000Y-52940000D01*
X183276000Y-57550000D02*
X183276000Y-56285000D01*
X183236000Y-54205000D02*
X183236000Y-52902000D01*
X183236000Y-57588000D02*
X183236000Y-56285000D01*
X183196000Y-54205000D02*
X183196000Y-52865000D01*
X183196000Y-57625000D02*
X183196000Y-56285000D01*
X183156000Y-54205000D02*
X183156000Y-52829000D01*
X183156000Y-57661000D02*
X183156000Y-56285000D01*
X183116000Y-54205000D02*
X183116000Y-52795000D01*
X183116000Y-57695000D02*
X183116000Y-56285000D01*
X183076000Y-54205000D02*
X183076000Y-52761000D01*
X183076000Y-57729000D02*
X183076000Y-56285000D01*
X183036000Y-54205000D02*
X183036000Y-52729000D01*
X183036000Y-57761000D02*
X183036000Y-56285000D01*
X182996000Y-54205000D02*
X182996000Y-52697000D01*
X182996000Y-57793000D02*
X182996000Y-56285000D01*
X182956000Y-54205000D02*
X182956000Y-52667000D01*
X182956000Y-57823000D02*
X182956000Y-56285000D01*
X182916000Y-54205000D02*
X182916000Y-52638000D01*
X182916000Y-57852000D02*
X182916000Y-56285000D01*
X182876000Y-54205000D02*
X182876000Y-52609000D01*
X182876000Y-57881000D02*
X182876000Y-56285000D01*
X182836000Y-54205000D02*
X182836000Y-52581000D01*
X182836000Y-57909000D02*
X182836000Y-56285000D01*
X182796000Y-54205000D02*
X182796000Y-52555000D01*
X182796000Y-57935000D02*
X182796000Y-56285000D01*
X182756000Y-54205000D02*
X182756000Y-52529000D01*
X182756000Y-57961000D02*
X182756000Y-56285000D01*
X182716000Y-54205000D02*
X182716000Y-52503000D01*
X182716000Y-57987000D02*
X182716000Y-56285000D01*
X182676000Y-54205000D02*
X182676000Y-52479000D01*
X182676000Y-58011000D02*
X182676000Y-56285000D01*
X182636000Y-54205000D02*
X182636000Y-52455000D01*
X182636000Y-58035000D02*
X182636000Y-56285000D01*
X182596000Y-54205000D02*
X182596000Y-52433000D01*
X182596000Y-58057000D02*
X182596000Y-56285000D01*
X182556000Y-54205000D02*
X182556000Y-52411000D01*
X182556000Y-58079000D02*
X182556000Y-56285000D01*
X182516000Y-54205000D02*
X182516000Y-52389000D01*
X182516000Y-58101000D02*
X182516000Y-56285000D01*
X182476000Y-54205000D02*
X182476000Y-52369000D01*
X182476000Y-58121000D02*
X182476000Y-56285000D01*
X182436000Y-54205000D02*
X182436000Y-52349000D01*
X182436000Y-58141000D02*
X182436000Y-56285000D01*
X182396000Y-54205000D02*
X182396000Y-52329000D01*
X182396000Y-58161000D02*
X182396000Y-56285000D01*
X182356000Y-54205000D02*
X182356000Y-52311000D01*
X182356000Y-58179000D02*
X182356000Y-56285000D01*
X182316000Y-54205000D02*
X182316000Y-52293000D01*
X182316000Y-58197000D02*
X182316000Y-56285000D01*
X182276000Y-54205000D02*
X182276000Y-52275000D01*
X182276000Y-58215000D02*
X182276000Y-56285000D01*
X182236000Y-54205000D02*
X182236000Y-52259000D01*
X182236000Y-58231000D02*
X182236000Y-56285000D01*
X182196000Y-54205000D02*
X182196000Y-52243000D01*
X182196000Y-58247000D02*
X182196000Y-56285000D01*
X182156000Y-54205000D02*
X182156000Y-52227000D01*
X182156000Y-58263000D02*
X182156000Y-56285000D01*
X182116000Y-54205000D02*
X182116000Y-52212000D01*
X182116000Y-58278000D02*
X182116000Y-56285000D01*
X182076000Y-54205000D02*
X182076000Y-52198000D01*
X182076000Y-58292000D02*
X182076000Y-56285000D01*
X182036000Y-54205000D02*
X182036000Y-52184000D01*
X182036000Y-58306000D02*
X182036000Y-56285000D01*
X181996000Y-54205000D02*
X181996000Y-52171000D01*
X181996000Y-58319000D02*
X181996000Y-56285000D01*
X181956000Y-54205000D02*
X181956000Y-52159000D01*
X181956000Y-58331000D02*
X181956000Y-56285000D01*
X181916000Y-54205000D02*
X181916000Y-52147000D01*
X181916000Y-58343000D02*
X181916000Y-56285000D01*
X181876000Y-54205000D02*
X181876000Y-52135000D01*
X181876000Y-58355000D02*
X181876000Y-56285000D01*
X181836000Y-54205000D02*
X181836000Y-52124000D01*
X181836000Y-58366000D02*
X181836000Y-56285000D01*
X181796000Y-54205000D02*
X181796000Y-52114000D01*
X181796000Y-58376000D02*
X181796000Y-56285000D01*
X181756000Y-54205000D02*
X181756000Y-52104000D01*
X181756000Y-58386000D02*
X181756000Y-56285000D01*
X181716000Y-54205000D02*
X181716000Y-52095000D01*
X181716000Y-58395000D02*
X181716000Y-56285000D01*
X181675000Y-54205000D02*
X181675000Y-52086000D01*
X181675000Y-58404000D02*
X181675000Y-56285000D01*
X181635000Y-54205000D02*
X181635000Y-52078000D01*
X181635000Y-58412000D02*
X181635000Y-56285000D01*
X181595000Y-54205000D02*
X181595000Y-52070000D01*
X181595000Y-58420000D02*
X181595000Y-56285000D01*
X181555000Y-54205000D02*
X181555000Y-52063000D01*
X181555000Y-58427000D02*
X181555000Y-56285000D01*
X181515000Y-54205000D02*
X181515000Y-52056000D01*
X181515000Y-58434000D02*
X181515000Y-56285000D01*
X181475000Y-54205000D02*
X181475000Y-52050000D01*
X181475000Y-58440000D02*
X181475000Y-56285000D01*
X181435000Y-54205000D02*
X181435000Y-52044000D01*
X181435000Y-58446000D02*
X181435000Y-56285000D01*
X181395000Y-54205000D02*
X181395000Y-52039000D01*
X181395000Y-58451000D02*
X181395000Y-56285000D01*
X181355000Y-54205000D02*
X181355000Y-52034000D01*
X181355000Y-58456000D02*
X181355000Y-56285000D01*
X181315000Y-54205000D02*
X181315000Y-52030000D01*
X181315000Y-58460000D02*
X181315000Y-56285000D01*
X181275000Y-54205000D02*
X181275000Y-52027000D01*
X181275000Y-58463000D02*
X181275000Y-56285000D01*
X181235000Y-54205000D02*
X181235000Y-52023000D01*
X181235000Y-58467000D02*
X181235000Y-56285000D01*
X181195000Y-58469000D02*
X181195000Y-52021000D01*
X181155000Y-58472000D02*
X181155000Y-52018000D01*
X181115000Y-58473000D02*
X181115000Y-52017000D01*
X181075000Y-58475000D02*
X181075000Y-52015000D01*
X181035000Y-58475000D02*
X181035000Y-52015000D01*
X180995000Y-58475000D02*
X180995000Y-52015000D01*
X184265000Y-55245000D02*
G75*
G03*
X184265000Y-55245000I-3270000J0D01*
G01*
X186285000Y-57697000D02*
X186285000Y-57712000D01*
X186285000Y-55572000D02*
X186285000Y-55587000D01*
X190825000Y-57697000D02*
X190825000Y-57712000D01*
X190825000Y-55572000D02*
X190825000Y-55587000D01*
X190825000Y-57712000D02*
X186285000Y-57712000D01*
X190825000Y-55572000D02*
X186285000Y-55572000D01*
X186111000Y-79541000D02*
X186111000Y-79556000D01*
X186111000Y-77416000D02*
X186111000Y-77431000D01*
X190651000Y-79541000D02*
X190651000Y-79556000D01*
X190651000Y-77416000D02*
X190651000Y-77431000D01*
X190651000Y-79556000D02*
X186111000Y-79556000D01*
X190651000Y-77416000D02*
X186111000Y-77416000D01*
X185857000Y-101639000D02*
X185857000Y-101654000D01*
X185857000Y-99514000D02*
X185857000Y-99529000D01*
X190397000Y-101639000D02*
X190397000Y-101654000D01*
X190397000Y-99514000D02*
X190397000Y-99529000D01*
X190397000Y-101654000D02*
X185857000Y-101654000D01*
X190397000Y-99514000D02*
X185857000Y-99514000D01*
X167537000Y-77431000D02*
X167537000Y-77416000D01*
X167537000Y-79556000D02*
X167537000Y-79541000D01*
X162997000Y-77431000D02*
X162997000Y-77416000D01*
X162997000Y-79556000D02*
X162997000Y-79541000D01*
X162997000Y-77416000D02*
X167537000Y-77416000D01*
X162997000Y-79556000D02*
X167537000Y-79556000D01*
X167791000Y-55841000D02*
X167791000Y-55826000D01*
X167791000Y-57966000D02*
X167791000Y-57951000D01*
X163251000Y-55841000D02*
X163251000Y-55826000D01*
X163251000Y-57966000D02*
X163251000Y-57951000D01*
X163251000Y-55826000D02*
X167791000Y-55826000D01*
X163251000Y-57966000D02*
X167791000Y-57966000D01*
X167029000Y-100037000D02*
X167029000Y-100022000D01*
X167029000Y-102162000D02*
X167029000Y-102147000D01*
X162489000Y-100037000D02*
X162489000Y-100022000D01*
X162489000Y-102162000D02*
X162489000Y-102147000D01*
X162489000Y-100022000D02*
X167029000Y-100022000D01*
X162489000Y-102162000D02*
X167029000Y-102162000D01*
D10*
X146811904Y-70782380D02*
X146811904Y-71591904D01*
X146764285Y-71687142D01*
X146716666Y-71734761D01*
X146621428Y-71782380D01*
X146430952Y-71782380D01*
X146335714Y-71734761D01*
X146288095Y-71687142D01*
X146240476Y-71591904D01*
X146240476Y-70782380D01*
X145288095Y-70782380D02*
X145764285Y-70782380D01*
X145811904Y-71258571D01*
X145764285Y-71210952D01*
X145669047Y-71163333D01*
X145430952Y-71163333D01*
X145335714Y-71210952D01*
X145288095Y-71258571D01*
X145240476Y-71353809D01*
X145240476Y-71591904D01*
X145288095Y-71687142D01*
X145335714Y-71734761D01*
X145430952Y-71782380D01*
X145669047Y-71782380D01*
X145764285Y-71734761D01*
X145811904Y-71687142D01*
X177545904Y-142498380D02*
X177545904Y-143307904D01*
X177498285Y-143403142D01*
X177450666Y-143450761D01*
X177355428Y-143498380D01*
X177164952Y-143498380D01*
X177069714Y-143450761D01*
X177022095Y-143403142D01*
X176974476Y-143307904D01*
X176974476Y-142498380D01*
X176069714Y-142831714D02*
X176069714Y-143498380D01*
X176307809Y-142450761D02*
X176545904Y-143165047D01*
X175926857Y-143165047D01*
X177672904Y-129798380D02*
X177672904Y-130607904D01*
X177625285Y-130703142D01*
X177577666Y-130750761D01*
X177482428Y-130798380D01*
X177291952Y-130798380D01*
X177196714Y-130750761D01*
X177149095Y-130703142D01*
X177101476Y-130607904D01*
X177101476Y-129798380D01*
X176720523Y-129798380D02*
X176101476Y-129798380D01*
X176434809Y-130179333D01*
X176291952Y-130179333D01*
X176196714Y-130226952D01*
X176149095Y-130274571D01*
X176101476Y-130369809D01*
X176101476Y-130607904D01*
X176149095Y-130703142D01*
X176196714Y-130750761D01*
X176291952Y-130798380D01*
X176577666Y-130798380D01*
X176672904Y-130750761D01*
X176720523Y-130703142D01*
X177164904Y-98302380D02*
X177164904Y-99111904D01*
X177117285Y-99207142D01*
X177069666Y-99254761D01*
X176974428Y-99302380D01*
X176783952Y-99302380D01*
X176688714Y-99254761D01*
X176641095Y-99207142D01*
X176593476Y-99111904D01*
X176593476Y-98302380D01*
X176164904Y-98397619D02*
X176117285Y-98350000D01*
X176022047Y-98302380D01*
X175783952Y-98302380D01*
X175688714Y-98350000D01*
X175641095Y-98397619D01*
X175593476Y-98492857D01*
X175593476Y-98588095D01*
X175641095Y-98730952D01*
X176212523Y-99302380D01*
X175593476Y-99302380D01*
X177418904Y-80268380D02*
X177418904Y-81077904D01*
X177371285Y-81173142D01*
X177323666Y-81220761D01*
X177228428Y-81268380D01*
X177037952Y-81268380D01*
X176942714Y-81220761D01*
X176895095Y-81173142D01*
X176847476Y-81077904D01*
X176847476Y-80268380D01*
X175847476Y-81268380D02*
X176418904Y-81268380D01*
X176133190Y-81268380D02*
X176133190Y-80268380D01*
X176228428Y-80411238D01*
X176323666Y-80506476D01*
X176418904Y-80554095D01*
X188729857Y-59126380D02*
X189063190Y-58650190D01*
X189301285Y-59126380D02*
X189301285Y-58126380D01*
X188920333Y-58126380D01*
X188825095Y-58174000D01*
X188777476Y-58221619D01*
X188729857Y-58316857D01*
X188729857Y-58459714D01*
X188777476Y-58554952D01*
X188825095Y-58602571D01*
X188920333Y-58650190D01*
X189301285Y-58650190D01*
X188396523Y-58126380D02*
X187777476Y-58126380D01*
X188110809Y-58507333D01*
X187967952Y-58507333D01*
X187872714Y-58554952D01*
X187825095Y-58602571D01*
X187777476Y-58697809D01*
X187777476Y-58935904D01*
X187825095Y-59031142D01*
X187872714Y-59078761D01*
X187967952Y-59126380D01*
X188253666Y-59126380D01*
X188348904Y-59078761D01*
X188396523Y-59031142D01*
X187444142Y-58126380D02*
X186777476Y-58126380D01*
X187206047Y-59126380D01*
X188729857Y-68270380D02*
X189063190Y-67794190D01*
X189301285Y-68270380D02*
X189301285Y-67270380D01*
X188920333Y-67270380D01*
X188825095Y-67318000D01*
X188777476Y-67365619D01*
X188729857Y-67460857D01*
X188729857Y-67603714D01*
X188777476Y-67698952D01*
X188825095Y-67746571D01*
X188920333Y-67794190D01*
X189301285Y-67794190D01*
X188396523Y-67270380D02*
X187777476Y-67270380D01*
X188110809Y-67651333D01*
X187967952Y-67651333D01*
X187872714Y-67698952D01*
X187825095Y-67746571D01*
X187777476Y-67841809D01*
X187777476Y-68079904D01*
X187825095Y-68175142D01*
X187872714Y-68222761D01*
X187967952Y-68270380D01*
X188253666Y-68270380D01*
X188348904Y-68222761D01*
X188396523Y-68175142D01*
X186920333Y-67270380D02*
X187110809Y-67270380D01*
X187206047Y-67318000D01*
X187253666Y-67365619D01*
X187348904Y-67508476D01*
X187396523Y-67698952D01*
X187396523Y-68079904D01*
X187348904Y-68175142D01*
X187301285Y-68222761D01*
X187206047Y-68270380D01*
X187015571Y-68270380D01*
X186920333Y-68222761D01*
X186872714Y-68175142D01*
X186825095Y-68079904D01*
X186825095Y-67841809D01*
X186872714Y-67746571D01*
X186920333Y-67698952D01*
X187015571Y-67651333D01*
X187206047Y-67651333D01*
X187301285Y-67698952D01*
X187348904Y-67746571D01*
X187396523Y-67841809D01*
X188729857Y-63698380D02*
X189063190Y-63222190D01*
X189301285Y-63698380D02*
X189301285Y-62698380D01*
X188920333Y-62698380D01*
X188825095Y-62746000D01*
X188777476Y-62793619D01*
X188729857Y-62888857D01*
X188729857Y-63031714D01*
X188777476Y-63126952D01*
X188825095Y-63174571D01*
X188920333Y-63222190D01*
X189301285Y-63222190D01*
X188396523Y-62698380D02*
X187777476Y-62698380D01*
X188110809Y-63079333D01*
X187967952Y-63079333D01*
X187872714Y-63126952D01*
X187825095Y-63174571D01*
X187777476Y-63269809D01*
X187777476Y-63507904D01*
X187825095Y-63603142D01*
X187872714Y-63650761D01*
X187967952Y-63698380D01*
X188253666Y-63698380D01*
X188348904Y-63650761D01*
X188396523Y-63603142D01*
X186872714Y-62698380D02*
X187348904Y-62698380D01*
X187396523Y-63174571D01*
X187348904Y-63126952D01*
X187253666Y-63079333D01*
X187015571Y-63079333D01*
X186920333Y-63126952D01*
X186872714Y-63174571D01*
X186825095Y-63269809D01*
X186825095Y-63507904D01*
X186872714Y-63603142D01*
X186920333Y-63650761D01*
X187015571Y-63698380D01*
X187253666Y-63698380D01*
X187348904Y-63650761D01*
X187396523Y-63603142D01*
X190152257Y-72537580D02*
X190485590Y-72061390D01*
X190723685Y-72537580D02*
X190723685Y-71537580D01*
X190342733Y-71537580D01*
X190247495Y-71585200D01*
X190199876Y-71632819D01*
X190152257Y-71728057D01*
X190152257Y-71870914D01*
X190199876Y-71966152D01*
X190247495Y-72013771D01*
X190342733Y-72061390D01*
X190723685Y-72061390D01*
X189818923Y-71537580D02*
X189199876Y-71537580D01*
X189533209Y-71918533D01*
X189390352Y-71918533D01*
X189295114Y-71966152D01*
X189247495Y-72013771D01*
X189199876Y-72109009D01*
X189199876Y-72347104D01*
X189247495Y-72442342D01*
X189295114Y-72489961D01*
X189390352Y-72537580D01*
X189676066Y-72537580D01*
X189771304Y-72489961D01*
X189818923Y-72442342D01*
X188342733Y-71870914D02*
X188342733Y-72537580D01*
X188580828Y-71489961D02*
X188818923Y-72204247D01*
X188199876Y-72204247D01*
X188475857Y-94940380D02*
X188809190Y-94464190D01*
X189047285Y-94940380D02*
X189047285Y-93940380D01*
X188666333Y-93940380D01*
X188571095Y-93988000D01*
X188523476Y-94035619D01*
X188475857Y-94130857D01*
X188475857Y-94273714D01*
X188523476Y-94368952D01*
X188571095Y-94416571D01*
X188666333Y-94464190D01*
X189047285Y-94464190D01*
X188142523Y-93940380D02*
X187523476Y-93940380D01*
X187856809Y-94321333D01*
X187713952Y-94321333D01*
X187618714Y-94368952D01*
X187571095Y-94416571D01*
X187523476Y-94511809D01*
X187523476Y-94749904D01*
X187571095Y-94845142D01*
X187618714Y-94892761D01*
X187713952Y-94940380D01*
X187999666Y-94940380D01*
X188094904Y-94892761D01*
X188142523Y-94845142D01*
X187190142Y-93940380D02*
X186571095Y-93940380D01*
X186904428Y-94321333D01*
X186761571Y-94321333D01*
X186666333Y-94368952D01*
X186618714Y-94416571D01*
X186571095Y-94511809D01*
X186571095Y-94749904D01*
X186618714Y-94845142D01*
X186666333Y-94892761D01*
X186761571Y-94940380D01*
X187047285Y-94940380D01*
X187142523Y-94892761D01*
X187190142Y-94845142D01*
X188475857Y-81732380D02*
X188809190Y-81256190D01*
X189047285Y-81732380D02*
X189047285Y-80732380D01*
X188666333Y-80732380D01*
X188571095Y-80780000D01*
X188523476Y-80827619D01*
X188475857Y-80922857D01*
X188475857Y-81065714D01*
X188523476Y-81160952D01*
X188571095Y-81208571D01*
X188666333Y-81256190D01*
X189047285Y-81256190D01*
X188142523Y-80732380D02*
X187523476Y-80732380D01*
X187856809Y-81113333D01*
X187713952Y-81113333D01*
X187618714Y-81160952D01*
X187571095Y-81208571D01*
X187523476Y-81303809D01*
X187523476Y-81541904D01*
X187571095Y-81637142D01*
X187618714Y-81684761D01*
X187713952Y-81732380D01*
X187999666Y-81732380D01*
X188094904Y-81684761D01*
X188142523Y-81637142D01*
X187142523Y-80827619D02*
X187094904Y-80780000D01*
X186999666Y-80732380D01*
X186761571Y-80732380D01*
X186666333Y-80780000D01*
X186618714Y-80827619D01*
X186571095Y-80922857D01*
X186571095Y-81018095D01*
X186618714Y-81160952D01*
X187190142Y-81732380D01*
X186571095Y-81732380D01*
X188475857Y-86050380D02*
X188809190Y-85574190D01*
X189047285Y-86050380D02*
X189047285Y-85050380D01*
X188666333Y-85050380D01*
X188571095Y-85098000D01*
X188523476Y-85145619D01*
X188475857Y-85240857D01*
X188475857Y-85383714D01*
X188523476Y-85478952D01*
X188571095Y-85526571D01*
X188666333Y-85574190D01*
X189047285Y-85574190D01*
X188142523Y-85050380D02*
X187523476Y-85050380D01*
X187856809Y-85431333D01*
X187713952Y-85431333D01*
X187618714Y-85478952D01*
X187571095Y-85526571D01*
X187523476Y-85621809D01*
X187523476Y-85859904D01*
X187571095Y-85955142D01*
X187618714Y-86002761D01*
X187713952Y-86050380D01*
X187999666Y-86050380D01*
X188094904Y-86002761D01*
X188142523Y-85955142D01*
X186571095Y-86050380D02*
X187142523Y-86050380D01*
X186856809Y-86050380D02*
X186856809Y-85050380D01*
X186952047Y-85193238D01*
X187047285Y-85288476D01*
X187142523Y-85336095D01*
X188475857Y-90368380D02*
X188809190Y-89892190D01*
X189047285Y-90368380D02*
X189047285Y-89368380D01*
X188666333Y-89368380D01*
X188571095Y-89416000D01*
X188523476Y-89463619D01*
X188475857Y-89558857D01*
X188475857Y-89701714D01*
X188523476Y-89796952D01*
X188571095Y-89844571D01*
X188666333Y-89892190D01*
X189047285Y-89892190D01*
X188142523Y-89368380D02*
X187523476Y-89368380D01*
X187856809Y-89749333D01*
X187713952Y-89749333D01*
X187618714Y-89796952D01*
X187571095Y-89844571D01*
X187523476Y-89939809D01*
X187523476Y-90177904D01*
X187571095Y-90273142D01*
X187618714Y-90320761D01*
X187713952Y-90368380D01*
X187999666Y-90368380D01*
X188094904Y-90320761D01*
X188142523Y-90273142D01*
X186904428Y-89368380D02*
X186809190Y-89368380D01*
X186713952Y-89416000D01*
X186666333Y-89463619D01*
X186618714Y-89558857D01*
X186571095Y-89749333D01*
X186571095Y-89987428D01*
X186618714Y-90177904D01*
X186666333Y-90273142D01*
X186713952Y-90320761D01*
X186809190Y-90368380D01*
X186904428Y-90368380D01*
X186999666Y-90320761D01*
X187047285Y-90273142D01*
X187094904Y-90177904D01*
X187142523Y-89987428D01*
X187142523Y-89749333D01*
X187094904Y-89558857D01*
X187047285Y-89463619D01*
X186999666Y-89416000D01*
X186904428Y-89368380D01*
X139072857Y-76652380D02*
X139406190Y-76176190D01*
X139644285Y-76652380D02*
X139644285Y-75652380D01*
X139263333Y-75652380D01*
X139168095Y-75700000D01*
X139120476Y-75747619D01*
X139072857Y-75842857D01*
X139072857Y-75985714D01*
X139120476Y-76080952D01*
X139168095Y-76128571D01*
X139263333Y-76176190D01*
X139644285Y-76176190D01*
X138691904Y-75747619D02*
X138644285Y-75700000D01*
X138549047Y-75652380D01*
X138310952Y-75652380D01*
X138215714Y-75700000D01*
X138168095Y-75747619D01*
X138120476Y-75842857D01*
X138120476Y-75938095D01*
X138168095Y-76080952D01*
X138739523Y-76652380D01*
X138120476Y-76652380D01*
X137644285Y-76652380D02*
X137453809Y-76652380D01*
X137358571Y-76604761D01*
X137310952Y-76557142D01*
X137215714Y-76414285D01*
X137168095Y-76223809D01*
X137168095Y-75842857D01*
X137215714Y-75747619D01*
X137263333Y-75700000D01*
X137358571Y-75652380D01*
X137549047Y-75652380D01*
X137644285Y-75700000D01*
X137691904Y-75747619D01*
X137739523Y-75842857D01*
X137739523Y-76080952D01*
X137691904Y-76176190D01*
X137644285Y-76223809D01*
X137549047Y-76271428D01*
X137358571Y-76271428D01*
X137263333Y-76223809D01*
X137215714Y-76176190D01*
X137168095Y-76080952D01*
X154312857Y-76652380D02*
X154646190Y-76176190D01*
X154884285Y-76652380D02*
X154884285Y-75652380D01*
X154503333Y-75652380D01*
X154408095Y-75700000D01*
X154360476Y-75747619D01*
X154312857Y-75842857D01*
X154312857Y-75985714D01*
X154360476Y-76080952D01*
X154408095Y-76128571D01*
X154503333Y-76176190D01*
X154884285Y-76176190D01*
X153931904Y-75747619D02*
X153884285Y-75700000D01*
X153789047Y-75652380D01*
X153550952Y-75652380D01*
X153455714Y-75700000D01*
X153408095Y-75747619D01*
X153360476Y-75842857D01*
X153360476Y-75938095D01*
X153408095Y-76080952D01*
X153979523Y-76652380D01*
X153360476Y-76652380D01*
X152789047Y-76080952D02*
X152884285Y-76033333D01*
X152931904Y-75985714D01*
X152979523Y-75890476D01*
X152979523Y-75842857D01*
X152931904Y-75747619D01*
X152884285Y-75700000D01*
X152789047Y-75652380D01*
X152598571Y-75652380D01*
X152503333Y-75700000D01*
X152455714Y-75747619D01*
X152408095Y-75842857D01*
X152408095Y-75890476D01*
X152455714Y-75985714D01*
X152503333Y-76033333D01*
X152598571Y-76080952D01*
X152789047Y-76080952D01*
X152884285Y-76128571D01*
X152931904Y-76176190D01*
X152979523Y-76271428D01*
X152979523Y-76461904D01*
X152931904Y-76557142D01*
X152884285Y-76604761D01*
X152789047Y-76652380D01*
X152598571Y-76652380D01*
X152503333Y-76604761D01*
X152455714Y-76557142D01*
X152408095Y-76461904D01*
X152408095Y-76271428D01*
X152455714Y-76176190D01*
X152503333Y-76128571D01*
X152598571Y-76080952D01*
X177553857Y-118392380D02*
X177887190Y-117916190D01*
X178125285Y-118392380D02*
X178125285Y-117392380D01*
X177744333Y-117392380D01*
X177649095Y-117440000D01*
X177601476Y-117487619D01*
X177553857Y-117582857D01*
X177553857Y-117725714D01*
X177601476Y-117820952D01*
X177649095Y-117868571D01*
X177744333Y-117916190D01*
X178125285Y-117916190D01*
X177172904Y-117487619D02*
X177125285Y-117440000D01*
X177030047Y-117392380D01*
X176791952Y-117392380D01*
X176696714Y-117440000D01*
X176649095Y-117487619D01*
X176601476Y-117582857D01*
X176601476Y-117678095D01*
X176649095Y-117820952D01*
X177220523Y-118392380D01*
X176601476Y-118392380D01*
X176268142Y-117392380D02*
X175601476Y-117392380D01*
X176030047Y-118392380D01*
X165996857Y-122880380D02*
X166330190Y-122404190D01*
X166568285Y-122880380D02*
X166568285Y-121880380D01*
X166187333Y-121880380D01*
X166092095Y-121928000D01*
X166044476Y-121975619D01*
X165996857Y-122070857D01*
X165996857Y-122213714D01*
X166044476Y-122308952D01*
X166092095Y-122356571D01*
X166187333Y-122404190D01*
X166568285Y-122404190D01*
X165615904Y-121975619D02*
X165568285Y-121928000D01*
X165473047Y-121880380D01*
X165234952Y-121880380D01*
X165139714Y-121928000D01*
X165092095Y-121975619D01*
X165044476Y-122070857D01*
X165044476Y-122166095D01*
X165092095Y-122308952D01*
X165663523Y-122880380D01*
X165044476Y-122880380D01*
X164187333Y-121880380D02*
X164377809Y-121880380D01*
X164473047Y-121928000D01*
X164520666Y-121975619D01*
X164615904Y-122118476D01*
X164663523Y-122308952D01*
X164663523Y-122689904D01*
X164615904Y-122785142D01*
X164568285Y-122832761D01*
X164473047Y-122880380D01*
X164282571Y-122880380D01*
X164187333Y-122832761D01*
X164139714Y-122785142D01*
X164092095Y-122689904D01*
X164092095Y-122451809D01*
X164139714Y-122356571D01*
X164187333Y-122308952D01*
X164282571Y-122261333D01*
X164473047Y-122261333D01*
X164568285Y-122308952D01*
X164615904Y-122356571D01*
X164663523Y-122451809D01*
X165996857Y-127198380D02*
X166330190Y-126722190D01*
X166568285Y-127198380D02*
X166568285Y-126198380D01*
X166187333Y-126198380D01*
X166092095Y-126246000D01*
X166044476Y-126293619D01*
X165996857Y-126388857D01*
X165996857Y-126531714D01*
X166044476Y-126626952D01*
X166092095Y-126674571D01*
X166187333Y-126722190D01*
X166568285Y-126722190D01*
X165615904Y-126293619D02*
X165568285Y-126246000D01*
X165473047Y-126198380D01*
X165234952Y-126198380D01*
X165139714Y-126246000D01*
X165092095Y-126293619D01*
X165044476Y-126388857D01*
X165044476Y-126484095D01*
X165092095Y-126626952D01*
X165663523Y-127198380D01*
X165044476Y-127198380D01*
X164139714Y-126198380D02*
X164615904Y-126198380D01*
X164663523Y-126674571D01*
X164615904Y-126626952D01*
X164520666Y-126579333D01*
X164282571Y-126579333D01*
X164187333Y-126626952D01*
X164139714Y-126674571D01*
X164092095Y-126769809D01*
X164092095Y-127007904D01*
X164139714Y-127103142D01*
X164187333Y-127150761D01*
X164282571Y-127198380D01*
X164520666Y-127198380D01*
X164615904Y-127150761D01*
X164663523Y-127103142D01*
X165742857Y-104973380D02*
X166076190Y-104497190D01*
X166314285Y-104973380D02*
X166314285Y-103973380D01*
X165933333Y-103973380D01*
X165838095Y-104021000D01*
X165790476Y-104068619D01*
X165742857Y-104163857D01*
X165742857Y-104306714D01*
X165790476Y-104401952D01*
X165838095Y-104449571D01*
X165933333Y-104497190D01*
X166314285Y-104497190D01*
X165361904Y-104068619D02*
X165314285Y-104021000D01*
X165219047Y-103973380D01*
X164980952Y-103973380D01*
X164885714Y-104021000D01*
X164838095Y-104068619D01*
X164790476Y-104163857D01*
X164790476Y-104259095D01*
X164838095Y-104401952D01*
X165409523Y-104973380D01*
X164790476Y-104973380D01*
X163933333Y-104306714D02*
X163933333Y-104973380D01*
X164171428Y-103925761D02*
X164409523Y-104640047D01*
X163790476Y-104640047D01*
X165742857Y-109291380D02*
X166076190Y-108815190D01*
X166314285Y-109291380D02*
X166314285Y-108291380D01*
X165933333Y-108291380D01*
X165838095Y-108339000D01*
X165790476Y-108386619D01*
X165742857Y-108481857D01*
X165742857Y-108624714D01*
X165790476Y-108719952D01*
X165838095Y-108767571D01*
X165933333Y-108815190D01*
X166314285Y-108815190D01*
X165361904Y-108386619D02*
X165314285Y-108339000D01*
X165219047Y-108291380D01*
X164980952Y-108291380D01*
X164885714Y-108339000D01*
X164838095Y-108386619D01*
X164790476Y-108481857D01*
X164790476Y-108577095D01*
X164838095Y-108719952D01*
X165409523Y-109291380D01*
X164790476Y-109291380D01*
X164457142Y-108291380D02*
X163838095Y-108291380D01*
X164171428Y-108672333D01*
X164028571Y-108672333D01*
X163933333Y-108719952D01*
X163885714Y-108767571D01*
X163838095Y-108862809D01*
X163838095Y-109100904D01*
X163885714Y-109196142D01*
X163933333Y-109243761D01*
X164028571Y-109291380D01*
X164314285Y-109291380D01*
X164409523Y-109243761D01*
X164457142Y-109196142D01*
X165742857Y-140660380D02*
X166076190Y-140184190D01*
X166314285Y-140660380D02*
X166314285Y-139660380D01*
X165933333Y-139660380D01*
X165838095Y-139708000D01*
X165790476Y-139755619D01*
X165742857Y-139850857D01*
X165742857Y-139993714D01*
X165790476Y-140088952D01*
X165838095Y-140136571D01*
X165933333Y-140184190D01*
X166314285Y-140184190D01*
X165361904Y-139755619D02*
X165314285Y-139708000D01*
X165219047Y-139660380D01*
X164980952Y-139660380D01*
X164885714Y-139708000D01*
X164838095Y-139755619D01*
X164790476Y-139850857D01*
X164790476Y-139946095D01*
X164838095Y-140088952D01*
X165409523Y-140660380D01*
X164790476Y-140660380D01*
X164409523Y-139755619D02*
X164361904Y-139708000D01*
X164266666Y-139660380D01*
X164028571Y-139660380D01*
X163933333Y-139708000D01*
X163885714Y-139755619D01*
X163838095Y-139850857D01*
X163838095Y-139946095D01*
X163885714Y-140088952D01*
X164457142Y-140660380D01*
X163838095Y-140660380D01*
X165742857Y-136088380D02*
X166076190Y-135612190D01*
X166314285Y-136088380D02*
X166314285Y-135088380D01*
X165933333Y-135088380D01*
X165838095Y-135136000D01*
X165790476Y-135183619D01*
X165742857Y-135278857D01*
X165742857Y-135421714D01*
X165790476Y-135516952D01*
X165838095Y-135564571D01*
X165933333Y-135612190D01*
X166314285Y-135612190D01*
X165361904Y-135183619D02*
X165314285Y-135136000D01*
X165219047Y-135088380D01*
X164980952Y-135088380D01*
X164885714Y-135136000D01*
X164838095Y-135183619D01*
X164790476Y-135278857D01*
X164790476Y-135374095D01*
X164838095Y-135516952D01*
X165409523Y-136088380D01*
X164790476Y-136088380D01*
X163838095Y-136088380D02*
X164409523Y-136088380D01*
X164123809Y-136088380D02*
X164123809Y-135088380D01*
X164219047Y-135231238D01*
X164314285Y-135326476D01*
X164409523Y-135374095D01*
X166250857Y-131516380D02*
X166584190Y-131040190D01*
X166822285Y-131516380D02*
X166822285Y-130516380D01*
X166441333Y-130516380D01*
X166346095Y-130564000D01*
X166298476Y-130611619D01*
X166250857Y-130706857D01*
X166250857Y-130849714D01*
X166298476Y-130944952D01*
X166346095Y-130992571D01*
X166441333Y-131040190D01*
X166822285Y-131040190D01*
X165869904Y-130611619D02*
X165822285Y-130564000D01*
X165727047Y-130516380D01*
X165488952Y-130516380D01*
X165393714Y-130564000D01*
X165346095Y-130611619D01*
X165298476Y-130706857D01*
X165298476Y-130802095D01*
X165346095Y-130944952D01*
X165917523Y-131516380D01*
X165298476Y-131516380D01*
X164679428Y-130516380D02*
X164584190Y-130516380D01*
X164488952Y-130564000D01*
X164441333Y-130611619D01*
X164393714Y-130706857D01*
X164346095Y-130897333D01*
X164346095Y-131135428D01*
X164393714Y-131325904D01*
X164441333Y-131421142D01*
X164488952Y-131468761D01*
X164584190Y-131516380D01*
X164679428Y-131516380D01*
X164774666Y-131468761D01*
X164822285Y-131421142D01*
X164869904Y-131325904D01*
X164917523Y-131135428D01*
X164917523Y-130897333D01*
X164869904Y-130706857D01*
X164822285Y-130611619D01*
X164774666Y-130564000D01*
X164679428Y-130516380D01*
X165869857Y-72715380D02*
X166203190Y-72239190D01*
X166441285Y-72715380D02*
X166441285Y-71715380D01*
X166060333Y-71715380D01*
X165965095Y-71763000D01*
X165917476Y-71810619D01*
X165869857Y-71905857D01*
X165869857Y-72048714D01*
X165917476Y-72143952D01*
X165965095Y-72191571D01*
X166060333Y-72239190D01*
X166441285Y-72239190D01*
X164917476Y-72715380D02*
X165488904Y-72715380D01*
X165203190Y-72715380D02*
X165203190Y-71715380D01*
X165298428Y-71858238D01*
X165393666Y-71953476D01*
X165488904Y-72001095D01*
X164441285Y-72715380D02*
X164250809Y-72715380D01*
X164155571Y-72667761D01*
X164107952Y-72620142D01*
X164012714Y-72477285D01*
X163965095Y-72286809D01*
X163965095Y-71905857D01*
X164012714Y-71810619D01*
X164060333Y-71763000D01*
X164155571Y-71715380D01*
X164346047Y-71715380D01*
X164441285Y-71763000D01*
X164488904Y-71810619D01*
X164536523Y-71905857D01*
X164536523Y-72143952D01*
X164488904Y-72239190D01*
X164441285Y-72286809D01*
X164346047Y-72334428D01*
X164155571Y-72334428D01*
X164060333Y-72286809D01*
X164012714Y-72239190D01*
X163965095Y-72143952D01*
X165869857Y-63825380D02*
X166203190Y-63349190D01*
X166441285Y-63825380D02*
X166441285Y-62825380D01*
X166060333Y-62825380D01*
X165965095Y-62873000D01*
X165917476Y-62920619D01*
X165869857Y-63015857D01*
X165869857Y-63158714D01*
X165917476Y-63253952D01*
X165965095Y-63301571D01*
X166060333Y-63349190D01*
X166441285Y-63349190D01*
X164917476Y-63825380D02*
X165488904Y-63825380D01*
X165203190Y-63825380D02*
X165203190Y-62825380D01*
X165298428Y-62968238D01*
X165393666Y-63063476D01*
X165488904Y-63111095D01*
X164346047Y-63253952D02*
X164441285Y-63206333D01*
X164488904Y-63158714D01*
X164536523Y-63063476D01*
X164536523Y-63015857D01*
X164488904Y-62920619D01*
X164441285Y-62873000D01*
X164346047Y-62825380D01*
X164155571Y-62825380D01*
X164060333Y-62873000D01*
X164012714Y-62920619D01*
X163965095Y-63015857D01*
X163965095Y-63063476D01*
X164012714Y-63158714D01*
X164060333Y-63206333D01*
X164155571Y-63253952D01*
X164346047Y-63253952D01*
X164441285Y-63301571D01*
X164488904Y-63349190D01*
X164536523Y-63444428D01*
X164536523Y-63634904D01*
X164488904Y-63730142D01*
X164441285Y-63777761D01*
X164346047Y-63825380D01*
X164155571Y-63825380D01*
X164060333Y-63777761D01*
X164012714Y-63730142D01*
X163965095Y-63634904D01*
X163965095Y-63444428D01*
X164012714Y-63349190D01*
X164060333Y-63301571D01*
X164155571Y-63253952D01*
X165869857Y-80970380D02*
X166203190Y-80494190D01*
X166441285Y-80970380D02*
X166441285Y-79970380D01*
X166060333Y-79970380D01*
X165965095Y-80018000D01*
X165917476Y-80065619D01*
X165869857Y-80160857D01*
X165869857Y-80303714D01*
X165917476Y-80398952D01*
X165965095Y-80446571D01*
X166060333Y-80494190D01*
X166441285Y-80494190D01*
X164917476Y-80970380D02*
X165488904Y-80970380D01*
X165203190Y-80970380D02*
X165203190Y-79970380D01*
X165298428Y-80113238D01*
X165393666Y-80208476D01*
X165488904Y-80256095D01*
X164584142Y-79970380D02*
X163917476Y-79970380D01*
X164346047Y-80970380D01*
X165869857Y-59253380D02*
X166203190Y-58777190D01*
X166441285Y-59253380D02*
X166441285Y-58253380D01*
X166060333Y-58253380D01*
X165965095Y-58301000D01*
X165917476Y-58348619D01*
X165869857Y-58443857D01*
X165869857Y-58586714D01*
X165917476Y-58681952D01*
X165965095Y-58729571D01*
X166060333Y-58777190D01*
X166441285Y-58777190D01*
X164917476Y-59253380D02*
X165488904Y-59253380D01*
X165203190Y-59253380D02*
X165203190Y-58253380D01*
X165298428Y-58396238D01*
X165393666Y-58491476D01*
X165488904Y-58539095D01*
X164060333Y-58253380D02*
X164250809Y-58253380D01*
X164346047Y-58301000D01*
X164393666Y-58348619D01*
X164488904Y-58491476D01*
X164536523Y-58681952D01*
X164536523Y-59062904D01*
X164488904Y-59158142D01*
X164441285Y-59205761D01*
X164346047Y-59253380D01*
X164155571Y-59253380D01*
X164060333Y-59205761D01*
X164012714Y-59158142D01*
X163965095Y-59062904D01*
X163965095Y-58824809D01*
X164012714Y-58729571D01*
X164060333Y-58681952D01*
X164155571Y-58634333D01*
X164346047Y-58634333D01*
X164441285Y-58681952D01*
X164488904Y-58729571D01*
X164536523Y-58824809D01*
X165869857Y-68270380D02*
X166203190Y-67794190D01*
X166441285Y-68270380D02*
X166441285Y-67270380D01*
X166060333Y-67270380D01*
X165965095Y-67318000D01*
X165917476Y-67365619D01*
X165869857Y-67460857D01*
X165869857Y-67603714D01*
X165917476Y-67698952D01*
X165965095Y-67746571D01*
X166060333Y-67794190D01*
X166441285Y-67794190D01*
X164917476Y-68270380D02*
X165488904Y-68270380D01*
X165203190Y-68270380D02*
X165203190Y-67270380D01*
X165298428Y-67413238D01*
X165393666Y-67508476D01*
X165488904Y-67556095D01*
X164012714Y-67270380D02*
X164488904Y-67270380D01*
X164536523Y-67746571D01*
X164488904Y-67698952D01*
X164393666Y-67651333D01*
X164155571Y-67651333D01*
X164060333Y-67698952D01*
X164012714Y-67746571D01*
X163965095Y-67841809D01*
X163965095Y-68079904D01*
X164012714Y-68175142D01*
X164060333Y-68222761D01*
X164155571Y-68270380D01*
X164393666Y-68270380D01*
X164488904Y-68222761D01*
X164536523Y-68175142D01*
X165869857Y-85458380D02*
X166203190Y-84982190D01*
X166441285Y-85458380D02*
X166441285Y-84458380D01*
X166060333Y-84458380D01*
X165965095Y-84506000D01*
X165917476Y-84553619D01*
X165869857Y-84648857D01*
X165869857Y-84791714D01*
X165917476Y-84886952D01*
X165965095Y-84934571D01*
X166060333Y-84982190D01*
X166441285Y-84982190D01*
X164917476Y-85458380D02*
X165488904Y-85458380D01*
X165203190Y-85458380D02*
X165203190Y-84458380D01*
X165298428Y-84601238D01*
X165393666Y-84696476D01*
X165488904Y-84744095D01*
X164060333Y-84791714D02*
X164060333Y-85458380D01*
X164298428Y-84410761D02*
X164536523Y-85125047D01*
X163917476Y-85125047D01*
X165539657Y-90114380D02*
X165872990Y-89638190D01*
X166111085Y-90114380D02*
X166111085Y-89114380D01*
X165730133Y-89114380D01*
X165634895Y-89162000D01*
X165587276Y-89209619D01*
X165539657Y-89304857D01*
X165539657Y-89447714D01*
X165587276Y-89542952D01*
X165634895Y-89590571D01*
X165730133Y-89638190D01*
X166111085Y-89638190D01*
X164587276Y-90114380D02*
X165158704Y-90114380D01*
X164872990Y-90114380D02*
X164872990Y-89114380D01*
X164968228Y-89257238D01*
X165063466Y-89352476D01*
X165158704Y-89400095D01*
X164253942Y-89114380D02*
X163634895Y-89114380D01*
X163968228Y-89495333D01*
X163825371Y-89495333D01*
X163730133Y-89542952D01*
X163682514Y-89590571D01*
X163634895Y-89685809D01*
X163634895Y-89923904D01*
X163682514Y-90019142D01*
X163730133Y-90066761D01*
X163825371Y-90114380D01*
X164111085Y-90114380D01*
X164206323Y-90066761D01*
X164253942Y-90019142D01*
X165082457Y-94940380D02*
X165415790Y-94464190D01*
X165653885Y-94940380D02*
X165653885Y-93940380D01*
X165272933Y-93940380D01*
X165177695Y-93988000D01*
X165130076Y-94035619D01*
X165082457Y-94130857D01*
X165082457Y-94273714D01*
X165130076Y-94368952D01*
X165177695Y-94416571D01*
X165272933Y-94464190D01*
X165653885Y-94464190D01*
X164130076Y-94940380D02*
X164701504Y-94940380D01*
X164415790Y-94940380D02*
X164415790Y-93940380D01*
X164511028Y-94083238D01*
X164606266Y-94178476D01*
X164701504Y-94226095D01*
X163749123Y-94035619D02*
X163701504Y-93988000D01*
X163606266Y-93940380D01*
X163368171Y-93940380D01*
X163272933Y-93988000D01*
X163225314Y-94035619D01*
X163177695Y-94130857D01*
X163177695Y-94226095D01*
X163225314Y-94368952D01*
X163796742Y-94940380D01*
X163177695Y-94940380D01*
X189110857Y-132278380D02*
X189444190Y-131802190D01*
X189682285Y-132278380D02*
X189682285Y-131278380D01*
X189301333Y-131278380D01*
X189206095Y-131326000D01*
X189158476Y-131373619D01*
X189110857Y-131468857D01*
X189110857Y-131611714D01*
X189158476Y-131706952D01*
X189206095Y-131754571D01*
X189301333Y-131802190D01*
X189682285Y-131802190D01*
X188158476Y-132278380D02*
X188729904Y-132278380D01*
X188444190Y-132278380D02*
X188444190Y-131278380D01*
X188539428Y-131421238D01*
X188634666Y-131516476D01*
X188729904Y-131564095D01*
X187206095Y-132278380D02*
X187777523Y-132278380D01*
X187491809Y-132278380D02*
X187491809Y-131278380D01*
X187587047Y-131421238D01*
X187682285Y-131516476D01*
X187777523Y-131564095D01*
X189110857Y-127960380D02*
X189444190Y-127484190D01*
X189682285Y-127960380D02*
X189682285Y-126960380D01*
X189301333Y-126960380D01*
X189206095Y-127008000D01*
X189158476Y-127055619D01*
X189110857Y-127150857D01*
X189110857Y-127293714D01*
X189158476Y-127388952D01*
X189206095Y-127436571D01*
X189301333Y-127484190D01*
X189682285Y-127484190D01*
X188158476Y-127960380D02*
X188729904Y-127960380D01*
X188444190Y-127960380D02*
X188444190Y-126960380D01*
X188539428Y-127103238D01*
X188634666Y-127198476D01*
X188729904Y-127246095D01*
X187539428Y-126960380D02*
X187444190Y-126960380D01*
X187348952Y-127008000D01*
X187301333Y-127055619D01*
X187253714Y-127150857D01*
X187206095Y-127341333D01*
X187206095Y-127579428D01*
X187253714Y-127769904D01*
X187301333Y-127865142D01*
X187348952Y-127912761D01*
X187444190Y-127960380D01*
X187539428Y-127960380D01*
X187634666Y-127912761D01*
X187682285Y-127865142D01*
X187729904Y-127769904D01*
X187777523Y-127579428D01*
X187777523Y-127341333D01*
X187729904Y-127150857D01*
X187682285Y-127055619D01*
X187634666Y-127008000D01*
X187539428Y-126960380D01*
X202096666Y-126182380D02*
X202430000Y-125706190D01*
X202668095Y-126182380D02*
X202668095Y-125182380D01*
X202287142Y-125182380D01*
X202191904Y-125230000D01*
X202144285Y-125277619D01*
X202096666Y-125372857D01*
X202096666Y-125515714D01*
X202144285Y-125610952D01*
X202191904Y-125658571D01*
X202287142Y-125706190D01*
X202668095Y-125706190D01*
X201620476Y-126182380D02*
X201430000Y-126182380D01*
X201334761Y-126134761D01*
X201287142Y-126087142D01*
X201191904Y-125944285D01*
X201144285Y-125753809D01*
X201144285Y-125372857D01*
X201191904Y-125277619D01*
X201239523Y-125230000D01*
X201334761Y-125182380D01*
X201525238Y-125182380D01*
X201620476Y-125230000D01*
X201668095Y-125277619D01*
X201715714Y-125372857D01*
X201715714Y-125610952D01*
X201668095Y-125706190D01*
X201620476Y-125753809D01*
X201525238Y-125801428D01*
X201334761Y-125801428D01*
X201239523Y-125753809D01*
X201191904Y-125706190D01*
X201144285Y-125610952D01*
X202096666Y-119832380D02*
X202430000Y-119356190D01*
X202668095Y-119832380D02*
X202668095Y-118832380D01*
X202287142Y-118832380D01*
X202191904Y-118880000D01*
X202144285Y-118927619D01*
X202096666Y-119022857D01*
X202096666Y-119165714D01*
X202144285Y-119260952D01*
X202191904Y-119308571D01*
X202287142Y-119356190D01*
X202668095Y-119356190D01*
X201525238Y-119260952D02*
X201620476Y-119213333D01*
X201668095Y-119165714D01*
X201715714Y-119070476D01*
X201715714Y-119022857D01*
X201668095Y-118927619D01*
X201620476Y-118880000D01*
X201525238Y-118832380D01*
X201334761Y-118832380D01*
X201239523Y-118880000D01*
X201191904Y-118927619D01*
X201144285Y-119022857D01*
X201144285Y-119070476D01*
X201191904Y-119165714D01*
X201239523Y-119213333D01*
X201334761Y-119260952D01*
X201525238Y-119260952D01*
X201620476Y-119308571D01*
X201668095Y-119356190D01*
X201715714Y-119451428D01*
X201715714Y-119641904D01*
X201668095Y-119737142D01*
X201620476Y-119784761D01*
X201525238Y-119832380D01*
X201334761Y-119832380D01*
X201239523Y-119784761D01*
X201191904Y-119737142D01*
X201144285Y-119641904D01*
X201144285Y-119451428D01*
X201191904Y-119356190D01*
X201239523Y-119308571D01*
X201334761Y-119260952D01*
X202096666Y-113482380D02*
X202430000Y-113006190D01*
X202668095Y-113482380D02*
X202668095Y-112482380D01*
X202287142Y-112482380D01*
X202191904Y-112530000D01*
X202144285Y-112577619D01*
X202096666Y-112672857D01*
X202096666Y-112815714D01*
X202144285Y-112910952D01*
X202191904Y-112958571D01*
X202287142Y-113006190D01*
X202668095Y-113006190D01*
X201763333Y-112482380D02*
X201096666Y-112482380D01*
X201525238Y-113482380D01*
X202096666Y-107132380D02*
X202430000Y-106656190D01*
X202668095Y-107132380D02*
X202668095Y-106132380D01*
X202287142Y-106132380D01*
X202191904Y-106180000D01*
X202144285Y-106227619D01*
X202096666Y-106322857D01*
X202096666Y-106465714D01*
X202144285Y-106560952D01*
X202191904Y-106608571D01*
X202287142Y-106656190D01*
X202668095Y-106656190D01*
X201239523Y-106132380D02*
X201430000Y-106132380D01*
X201525238Y-106180000D01*
X201572857Y-106227619D01*
X201668095Y-106370476D01*
X201715714Y-106560952D01*
X201715714Y-106941904D01*
X201668095Y-107037142D01*
X201620476Y-107084761D01*
X201525238Y-107132380D01*
X201334761Y-107132380D01*
X201239523Y-107084761D01*
X201191904Y-107037142D01*
X201144285Y-106941904D01*
X201144285Y-106703809D01*
X201191904Y-106608571D01*
X201239523Y-106560952D01*
X201334761Y-106513333D01*
X201525238Y-106513333D01*
X201620476Y-106560952D01*
X201668095Y-106608571D01*
X201715714Y-106703809D01*
X188634666Y-123642380D02*
X188968000Y-123166190D01*
X189206095Y-123642380D02*
X189206095Y-122642380D01*
X188825142Y-122642380D01*
X188729904Y-122690000D01*
X188682285Y-122737619D01*
X188634666Y-122832857D01*
X188634666Y-122975714D01*
X188682285Y-123070952D01*
X188729904Y-123118571D01*
X188825142Y-123166190D01*
X189206095Y-123166190D01*
X187729904Y-122642380D02*
X188206095Y-122642380D01*
X188253714Y-123118571D01*
X188206095Y-123070952D01*
X188110857Y-123023333D01*
X187872761Y-123023333D01*
X187777523Y-123070952D01*
X187729904Y-123118571D01*
X187682285Y-123213809D01*
X187682285Y-123451904D01*
X187729904Y-123547142D01*
X187777523Y-123594761D01*
X187872761Y-123642380D01*
X188110857Y-123642380D01*
X188206095Y-123594761D01*
X188253714Y-123547142D01*
X203366666Y-85712380D02*
X203700000Y-85236190D01*
X203938095Y-85712380D02*
X203938095Y-84712380D01*
X203557142Y-84712380D01*
X203461904Y-84760000D01*
X203414285Y-84807619D01*
X203366666Y-84902857D01*
X203366666Y-85045714D01*
X203414285Y-85140952D01*
X203461904Y-85188571D01*
X203557142Y-85236190D01*
X203938095Y-85236190D01*
X202509523Y-85045714D02*
X202509523Y-85712380D01*
X202747619Y-84664761D02*
X202985714Y-85379047D01*
X202366666Y-85379047D01*
X203366666Y-80632380D02*
X203700000Y-80156190D01*
X203938095Y-80632380D02*
X203938095Y-79632380D01*
X203557142Y-79632380D01*
X203461904Y-79680000D01*
X203414285Y-79727619D01*
X203366666Y-79822857D01*
X203366666Y-79965714D01*
X203414285Y-80060952D01*
X203461904Y-80108571D01*
X203557142Y-80156190D01*
X203938095Y-80156190D01*
X203033333Y-79632380D02*
X202414285Y-79632380D01*
X202747619Y-80013333D01*
X202604761Y-80013333D01*
X202509523Y-80060952D01*
X202461904Y-80108571D01*
X202414285Y-80203809D01*
X202414285Y-80441904D01*
X202461904Y-80537142D01*
X202509523Y-80584761D01*
X202604761Y-80632380D01*
X202890476Y-80632380D01*
X202985714Y-80584761D01*
X203033333Y-80537142D01*
X203366666Y-75552380D02*
X203700000Y-75076190D01*
X203938095Y-75552380D02*
X203938095Y-74552380D01*
X203557142Y-74552380D01*
X203461904Y-74600000D01*
X203414285Y-74647619D01*
X203366666Y-74742857D01*
X203366666Y-74885714D01*
X203414285Y-74980952D01*
X203461904Y-75028571D01*
X203557142Y-75076190D01*
X203938095Y-75076190D01*
X202985714Y-74647619D02*
X202938095Y-74600000D01*
X202842857Y-74552380D01*
X202604761Y-74552380D01*
X202509523Y-74600000D01*
X202461904Y-74647619D01*
X202414285Y-74742857D01*
X202414285Y-74838095D01*
X202461904Y-74980952D01*
X203033333Y-75552380D01*
X202414285Y-75552380D01*
X203366666Y-70472380D02*
X203700000Y-69996190D01*
X203938095Y-70472380D02*
X203938095Y-69472380D01*
X203557142Y-69472380D01*
X203461904Y-69520000D01*
X203414285Y-69567619D01*
X203366666Y-69662857D01*
X203366666Y-69805714D01*
X203414285Y-69900952D01*
X203461904Y-69948571D01*
X203557142Y-69996190D01*
X203938095Y-69996190D01*
X202414285Y-70472380D02*
X202985714Y-70472380D01*
X202700000Y-70472380D02*
X202700000Y-69472380D01*
X202795238Y-69615238D01*
X202890476Y-69710476D01*
X202985714Y-69758095D01*
X134953333Y-54272380D02*
X134953333Y-54986666D01*
X135000952Y-55129523D01*
X135096190Y-55224761D01*
X135239047Y-55272380D01*
X135334285Y-55272380D01*
X134048571Y-54605714D02*
X134048571Y-55272380D01*
X134286666Y-54224761D02*
X134524761Y-54939047D01*
X133905714Y-54939047D01*
X132413333Y-93642380D02*
X132413333Y-94356666D01*
X132460952Y-94499523D01*
X132556190Y-94594761D01*
X132699047Y-94642380D01*
X132794285Y-94642380D01*
X132032380Y-93642380D02*
X131413333Y-93642380D01*
X131746666Y-94023333D01*
X131603809Y-94023333D01*
X131508571Y-94070952D01*
X131460952Y-94118571D01*
X131413333Y-94213809D01*
X131413333Y-94451904D01*
X131460952Y-94547142D01*
X131508571Y-94594761D01*
X131603809Y-94642380D01*
X131889523Y-94642380D01*
X131984761Y-94594761D01*
X132032380Y-94547142D01*
X132413333Y-117772380D02*
X132413333Y-118486666D01*
X132460952Y-118629523D01*
X132556190Y-118724761D01*
X132699047Y-118772380D01*
X132794285Y-118772380D01*
X131984761Y-117867619D02*
X131937142Y-117820000D01*
X131841904Y-117772380D01*
X131603809Y-117772380D01*
X131508571Y-117820000D01*
X131460952Y-117867619D01*
X131413333Y-117962857D01*
X131413333Y-118058095D01*
X131460952Y-118200952D01*
X132032380Y-118772380D01*
X131413333Y-118772380D01*
X132413333Y-135552380D02*
X132413333Y-136266666D01*
X132460952Y-136409523D01*
X132556190Y-136504761D01*
X132699047Y-136552380D01*
X132794285Y-136552380D01*
X131413333Y-136552380D02*
X131984761Y-136552380D01*
X131699047Y-136552380D02*
X131699047Y-135552380D01*
X131794285Y-135695238D01*
X131889523Y-135790476D01*
X131984761Y-135838095D01*
X135002380Y-79430714D02*
X134002380Y-79430714D01*
X134002380Y-79668809D01*
X134050000Y-79811666D01*
X134145238Y-79906904D01*
X134240476Y-79954523D01*
X134430952Y-80002142D01*
X134573809Y-80002142D01*
X134764285Y-79954523D01*
X134859523Y-79906904D01*
X134954761Y-79811666D01*
X135002380Y-79668809D01*
X135002380Y-79430714D01*
X134097619Y-80383095D02*
X134050000Y-80430714D01*
X134002380Y-80525952D01*
X134002380Y-80764047D01*
X134050000Y-80859285D01*
X134097619Y-80906904D01*
X134192857Y-80954523D01*
X134288095Y-80954523D01*
X134430952Y-80906904D01*
X135002380Y-80335476D01*
X135002380Y-80954523D01*
X135002380Y-81906904D02*
X135002380Y-81335476D01*
X135002380Y-81621190D02*
X134002380Y-81621190D01*
X134145238Y-81525952D01*
X134240476Y-81430714D01*
X134288095Y-81335476D01*
X134432380Y-84193095D02*
X133432380Y-84193095D01*
X134432380Y-84764523D02*
X133860952Y-84335952D01*
X133432380Y-84764523D02*
X134003809Y-84193095D01*
X166187285Y-118308380D02*
X166187285Y-117308380D01*
X165949190Y-117308380D01*
X165806333Y-117356000D01*
X165711095Y-117451238D01*
X165663476Y-117546476D01*
X165615857Y-117736952D01*
X165615857Y-117879809D01*
X165663476Y-118070285D01*
X165711095Y-118165523D01*
X165806333Y-118260761D01*
X165949190Y-118308380D01*
X166187285Y-118308380D01*
X165234904Y-117403619D02*
X165187285Y-117356000D01*
X165092047Y-117308380D01*
X164853952Y-117308380D01*
X164758714Y-117356000D01*
X164711095Y-117403619D01*
X164663476Y-117498857D01*
X164663476Y-117594095D01*
X164711095Y-117736952D01*
X165282523Y-118308380D01*
X164663476Y-118308380D01*
X164044428Y-117308380D02*
X163949190Y-117308380D01*
X163853952Y-117356000D01*
X163806333Y-117403619D01*
X163758714Y-117498857D01*
X163711095Y-117689333D01*
X163711095Y-117927428D01*
X163758714Y-118117904D01*
X163806333Y-118213142D01*
X163853952Y-118260761D01*
X163949190Y-118308380D01*
X164044428Y-118308380D01*
X164139666Y-118260761D01*
X164187285Y-118213142D01*
X164234904Y-118117904D01*
X164282523Y-117927428D01*
X164282523Y-117689333D01*
X164234904Y-117498857D01*
X164187285Y-117403619D01*
X164139666Y-117356000D01*
X164044428Y-117308380D01*
X161424904Y-122494380D02*
X161424904Y-121494380D01*
X160853476Y-122494380D02*
X161282047Y-121922952D01*
X160853476Y-121494380D02*
X161424904Y-122065809D01*
X166187285Y-113736380D02*
X166187285Y-112736380D01*
X165949190Y-112736380D01*
X165806333Y-112784000D01*
X165711095Y-112879238D01*
X165663476Y-112974476D01*
X165615857Y-113164952D01*
X165615857Y-113307809D01*
X165663476Y-113498285D01*
X165711095Y-113593523D01*
X165806333Y-113688761D01*
X165949190Y-113736380D01*
X166187285Y-113736380D01*
X164663476Y-113736380D02*
X165234904Y-113736380D01*
X164949190Y-113736380D02*
X164949190Y-112736380D01*
X165044428Y-112879238D01*
X165139666Y-112974476D01*
X165234904Y-113022095D01*
X164187285Y-113736380D02*
X163996809Y-113736380D01*
X163901571Y-113688761D01*
X163853952Y-113641142D01*
X163758714Y-113498285D01*
X163711095Y-113307809D01*
X163711095Y-112926857D01*
X163758714Y-112831619D01*
X163806333Y-112784000D01*
X163901571Y-112736380D01*
X164092047Y-112736380D01*
X164187285Y-112784000D01*
X164234904Y-112831619D01*
X164282523Y-112926857D01*
X164282523Y-113164952D01*
X164234904Y-113260190D01*
X164187285Y-113307809D01*
X164092047Y-113355428D01*
X163901571Y-113355428D01*
X163806333Y-113307809D01*
X163758714Y-113260190D01*
X163711095Y-113164952D01*
X169044904Y-114122380D02*
X169044904Y-113122380D01*
X168473476Y-114122380D02*
X168902047Y-113550952D01*
X168473476Y-113122380D02*
X169044904Y-113693809D01*
X189682285Y-136596380D02*
X189682285Y-135596380D01*
X189444190Y-135596380D01*
X189301333Y-135644000D01*
X189206095Y-135739238D01*
X189158476Y-135834476D01*
X189110857Y-136024952D01*
X189110857Y-136167809D01*
X189158476Y-136358285D01*
X189206095Y-136453523D01*
X189301333Y-136548761D01*
X189444190Y-136596380D01*
X189682285Y-136596380D01*
X188158476Y-136596380D02*
X188729904Y-136596380D01*
X188444190Y-136596380D02*
X188444190Y-135596380D01*
X188539428Y-135739238D01*
X188634666Y-135834476D01*
X188729904Y-135882095D01*
X187587047Y-136024952D02*
X187682285Y-135977333D01*
X187729904Y-135929714D01*
X187777523Y-135834476D01*
X187777523Y-135786857D01*
X187729904Y-135691619D01*
X187682285Y-135644000D01*
X187587047Y-135596380D01*
X187396571Y-135596380D01*
X187301333Y-135644000D01*
X187253714Y-135691619D01*
X187206095Y-135786857D01*
X187206095Y-135834476D01*
X187253714Y-135929714D01*
X187301333Y-135977333D01*
X187396571Y-136024952D01*
X187587047Y-136024952D01*
X187682285Y-136072571D01*
X187729904Y-136120190D01*
X187777523Y-136215428D01*
X187777523Y-136405904D01*
X187729904Y-136501142D01*
X187682285Y-136548761D01*
X187587047Y-136596380D01*
X187396571Y-136596380D01*
X187301333Y-136548761D01*
X187253714Y-136501142D01*
X187206095Y-136405904D01*
X187206095Y-136215428D01*
X187253714Y-136120190D01*
X187301333Y-136072571D01*
X187396571Y-136024952D01*
X192539904Y-136982380D02*
X192539904Y-135982380D01*
X191968476Y-136982380D02*
X192397047Y-136410952D01*
X191968476Y-135982380D02*
X192539904Y-136553809D01*
X189682285Y-141422380D02*
X189682285Y-140422380D01*
X189444190Y-140422380D01*
X189301333Y-140470000D01*
X189206095Y-140565238D01*
X189158476Y-140660476D01*
X189110857Y-140850952D01*
X189110857Y-140993809D01*
X189158476Y-141184285D01*
X189206095Y-141279523D01*
X189301333Y-141374761D01*
X189444190Y-141422380D01*
X189682285Y-141422380D01*
X188158476Y-141422380D02*
X188729904Y-141422380D01*
X188444190Y-141422380D02*
X188444190Y-140422380D01*
X188539428Y-140565238D01*
X188634666Y-140660476D01*
X188729904Y-140708095D01*
X187825142Y-140422380D02*
X187158476Y-140422380D01*
X187587047Y-141422380D01*
X184919904Y-145608380D02*
X184919904Y-144608380D01*
X184348476Y-145608380D02*
X184777047Y-145036952D01*
X184348476Y-144608380D02*
X184919904Y-145179809D01*
X224734285Y-137612380D02*
X224734285Y-136612380D01*
X224496190Y-136612380D01*
X224353333Y-136660000D01*
X224258095Y-136755238D01*
X224210476Y-136850476D01*
X224162857Y-137040952D01*
X224162857Y-137183809D01*
X224210476Y-137374285D01*
X224258095Y-137469523D01*
X224353333Y-137564761D01*
X224496190Y-137612380D01*
X224734285Y-137612380D01*
X223210476Y-137612380D02*
X223781904Y-137612380D01*
X223496190Y-137612380D02*
X223496190Y-136612380D01*
X223591428Y-136755238D01*
X223686666Y-136850476D01*
X223781904Y-136898095D01*
X222353333Y-136612380D02*
X222543809Y-136612380D01*
X222639047Y-136660000D01*
X222686666Y-136707619D01*
X222781904Y-136850476D01*
X222829523Y-137040952D01*
X222829523Y-137421904D01*
X222781904Y-137517142D01*
X222734285Y-137564761D01*
X222639047Y-137612380D01*
X222448571Y-137612380D01*
X222353333Y-137564761D01*
X222305714Y-137517142D01*
X222258095Y-137421904D01*
X222258095Y-137183809D01*
X222305714Y-137088571D01*
X222353333Y-137040952D01*
X222448571Y-136993333D01*
X222639047Y-136993333D01*
X222734285Y-137040952D01*
X222781904Y-137088571D01*
X222829523Y-137183809D01*
X222062380Y-140708095D02*
X221062380Y-140708095D01*
X222062380Y-141279523D02*
X221490952Y-140850952D01*
X221062380Y-141279523D02*
X221633809Y-140708095D01*
X224734285Y-127452380D02*
X224734285Y-126452380D01*
X224496190Y-126452380D01*
X224353333Y-126500000D01*
X224258095Y-126595238D01*
X224210476Y-126690476D01*
X224162857Y-126880952D01*
X224162857Y-127023809D01*
X224210476Y-127214285D01*
X224258095Y-127309523D01*
X224353333Y-127404761D01*
X224496190Y-127452380D01*
X224734285Y-127452380D01*
X223210476Y-127452380D02*
X223781904Y-127452380D01*
X223496190Y-127452380D02*
X223496190Y-126452380D01*
X223591428Y-126595238D01*
X223686666Y-126690476D01*
X223781904Y-126738095D01*
X222305714Y-126452380D02*
X222781904Y-126452380D01*
X222829523Y-126928571D01*
X222781904Y-126880952D01*
X222686666Y-126833333D01*
X222448571Y-126833333D01*
X222353333Y-126880952D01*
X222305714Y-126928571D01*
X222258095Y-127023809D01*
X222258095Y-127261904D01*
X222305714Y-127357142D01*
X222353333Y-127404761D01*
X222448571Y-127452380D01*
X222686666Y-127452380D01*
X222781904Y-127404761D01*
X222829523Y-127357142D01*
X222018380Y-130548095D02*
X221018380Y-130548095D01*
X222018380Y-131119523D02*
X221446952Y-130690952D01*
X221018380Y-131119523D02*
X221589809Y-130548095D01*
X224734285Y-117292380D02*
X224734285Y-116292380D01*
X224496190Y-116292380D01*
X224353333Y-116340000D01*
X224258095Y-116435238D01*
X224210476Y-116530476D01*
X224162857Y-116720952D01*
X224162857Y-116863809D01*
X224210476Y-117054285D01*
X224258095Y-117149523D01*
X224353333Y-117244761D01*
X224496190Y-117292380D01*
X224734285Y-117292380D01*
X223210476Y-117292380D02*
X223781904Y-117292380D01*
X223496190Y-117292380D02*
X223496190Y-116292380D01*
X223591428Y-116435238D01*
X223686666Y-116530476D01*
X223781904Y-116578095D01*
X222353333Y-116625714D02*
X222353333Y-117292380D01*
X222591428Y-116244761D02*
X222829523Y-116959047D01*
X222210476Y-116959047D01*
X222062380Y-120388095D02*
X221062380Y-120388095D01*
X222062380Y-120959523D02*
X221490952Y-120530952D01*
X221062380Y-120959523D02*
X221633809Y-120388095D01*
X224734285Y-107132380D02*
X224734285Y-106132380D01*
X224496190Y-106132380D01*
X224353333Y-106180000D01*
X224258095Y-106275238D01*
X224210476Y-106370476D01*
X224162857Y-106560952D01*
X224162857Y-106703809D01*
X224210476Y-106894285D01*
X224258095Y-106989523D01*
X224353333Y-107084761D01*
X224496190Y-107132380D01*
X224734285Y-107132380D01*
X223210476Y-107132380D02*
X223781904Y-107132380D01*
X223496190Y-107132380D02*
X223496190Y-106132380D01*
X223591428Y-106275238D01*
X223686666Y-106370476D01*
X223781904Y-106418095D01*
X222877142Y-106132380D02*
X222258095Y-106132380D01*
X222591428Y-106513333D01*
X222448571Y-106513333D01*
X222353333Y-106560952D01*
X222305714Y-106608571D01*
X222258095Y-106703809D01*
X222258095Y-106941904D01*
X222305714Y-107037142D01*
X222353333Y-107084761D01*
X222448571Y-107132380D01*
X222734285Y-107132380D01*
X222829523Y-107084761D01*
X222877142Y-107037142D01*
X222062380Y-110228095D02*
X221062380Y-110228095D01*
X222062380Y-110799523D02*
X221490952Y-110370952D01*
X221062380Y-110799523D02*
X221633809Y-110228095D01*
X224734285Y-96972380D02*
X224734285Y-95972380D01*
X224496190Y-95972380D01*
X224353333Y-96020000D01*
X224258095Y-96115238D01*
X224210476Y-96210476D01*
X224162857Y-96400952D01*
X224162857Y-96543809D01*
X224210476Y-96734285D01*
X224258095Y-96829523D01*
X224353333Y-96924761D01*
X224496190Y-96972380D01*
X224734285Y-96972380D01*
X223210476Y-96972380D02*
X223781904Y-96972380D01*
X223496190Y-96972380D02*
X223496190Y-95972380D01*
X223591428Y-96115238D01*
X223686666Y-96210476D01*
X223781904Y-96258095D01*
X222829523Y-96067619D02*
X222781904Y-96020000D01*
X222686666Y-95972380D01*
X222448571Y-95972380D01*
X222353333Y-96020000D01*
X222305714Y-96067619D01*
X222258095Y-96162857D01*
X222258095Y-96258095D01*
X222305714Y-96400952D01*
X222877142Y-96972380D01*
X222258095Y-96972380D01*
X222062380Y-100068095D02*
X221062380Y-100068095D01*
X222062380Y-100639523D02*
X221490952Y-100210952D01*
X221062380Y-100639523D02*
X221633809Y-100068095D01*
X224734285Y-86812380D02*
X224734285Y-85812380D01*
X224496190Y-85812380D01*
X224353333Y-85860000D01*
X224258095Y-85955238D01*
X224210476Y-86050476D01*
X224162857Y-86240952D01*
X224162857Y-86383809D01*
X224210476Y-86574285D01*
X224258095Y-86669523D01*
X224353333Y-86764761D01*
X224496190Y-86812380D01*
X224734285Y-86812380D01*
X223210476Y-86812380D02*
X223781904Y-86812380D01*
X223496190Y-86812380D02*
X223496190Y-85812380D01*
X223591428Y-85955238D01*
X223686666Y-86050476D01*
X223781904Y-86098095D01*
X222258095Y-86812380D02*
X222829523Y-86812380D01*
X222543809Y-86812380D02*
X222543809Y-85812380D01*
X222639047Y-85955238D01*
X222734285Y-86050476D01*
X222829523Y-86098095D01*
X222062380Y-89908095D02*
X221062380Y-89908095D01*
X222062380Y-90479523D02*
X221490952Y-90050952D01*
X221062380Y-90479523D02*
X221633809Y-89908095D01*
X224734285Y-76652380D02*
X224734285Y-75652380D01*
X224496190Y-75652380D01*
X224353333Y-75700000D01*
X224258095Y-75795238D01*
X224210476Y-75890476D01*
X224162857Y-76080952D01*
X224162857Y-76223809D01*
X224210476Y-76414285D01*
X224258095Y-76509523D01*
X224353333Y-76604761D01*
X224496190Y-76652380D01*
X224734285Y-76652380D01*
X223210476Y-76652380D02*
X223781904Y-76652380D01*
X223496190Y-76652380D02*
X223496190Y-75652380D01*
X223591428Y-75795238D01*
X223686666Y-75890476D01*
X223781904Y-75938095D01*
X222591428Y-75652380D02*
X222496190Y-75652380D01*
X222400952Y-75700000D01*
X222353333Y-75747619D01*
X222305714Y-75842857D01*
X222258095Y-76033333D01*
X222258095Y-76271428D01*
X222305714Y-76461904D01*
X222353333Y-76557142D01*
X222400952Y-76604761D01*
X222496190Y-76652380D01*
X222591428Y-76652380D01*
X222686666Y-76604761D01*
X222734285Y-76557142D01*
X222781904Y-76461904D01*
X222829523Y-76271428D01*
X222829523Y-76033333D01*
X222781904Y-75842857D01*
X222734285Y-75747619D01*
X222686666Y-75700000D01*
X222591428Y-75652380D01*
X222062380Y-79748095D02*
X221062380Y-79748095D01*
X222062380Y-80319523D02*
X221490952Y-79890952D01*
X221062380Y-80319523D02*
X221633809Y-79748095D01*
X224258095Y-66492380D02*
X224258095Y-65492380D01*
X224020000Y-65492380D01*
X223877142Y-65540000D01*
X223781904Y-65635238D01*
X223734285Y-65730476D01*
X223686666Y-65920952D01*
X223686666Y-66063809D01*
X223734285Y-66254285D01*
X223781904Y-66349523D01*
X223877142Y-66444761D01*
X224020000Y-66492380D01*
X224258095Y-66492380D01*
X223210476Y-66492380D02*
X223020000Y-66492380D01*
X222924761Y-66444761D01*
X222877142Y-66397142D01*
X222781904Y-66254285D01*
X222734285Y-66063809D01*
X222734285Y-65682857D01*
X222781904Y-65587619D01*
X222829523Y-65540000D01*
X222924761Y-65492380D01*
X223115238Y-65492380D01*
X223210476Y-65540000D01*
X223258095Y-65587619D01*
X223305714Y-65682857D01*
X223305714Y-65920952D01*
X223258095Y-66016190D01*
X223210476Y-66063809D01*
X223115238Y-66111428D01*
X222924761Y-66111428D01*
X222829523Y-66063809D01*
X222781904Y-66016190D01*
X222734285Y-65920952D01*
X222062380Y-69588095D02*
X221062380Y-69588095D01*
X222062380Y-70159523D02*
X221490952Y-69730952D01*
X221062380Y-70159523D02*
X221633809Y-69588095D01*
X212828095Y-137612380D02*
X212828095Y-136612380D01*
X212590000Y-136612380D01*
X212447142Y-136660000D01*
X212351904Y-136755238D01*
X212304285Y-136850476D01*
X212256666Y-137040952D01*
X212256666Y-137183809D01*
X212304285Y-137374285D01*
X212351904Y-137469523D01*
X212447142Y-137564761D01*
X212590000Y-137612380D01*
X212828095Y-137612380D01*
X211685238Y-137040952D02*
X211780476Y-136993333D01*
X211828095Y-136945714D01*
X211875714Y-136850476D01*
X211875714Y-136802857D01*
X211828095Y-136707619D01*
X211780476Y-136660000D01*
X211685238Y-136612380D01*
X211494761Y-136612380D01*
X211399523Y-136660000D01*
X211351904Y-136707619D01*
X211304285Y-136802857D01*
X211304285Y-136850476D01*
X211351904Y-136945714D01*
X211399523Y-136993333D01*
X211494761Y-137040952D01*
X211685238Y-137040952D01*
X211780476Y-137088571D01*
X211828095Y-137136190D01*
X211875714Y-137231428D01*
X211875714Y-137421904D01*
X211828095Y-137517142D01*
X211780476Y-137564761D01*
X211685238Y-137612380D01*
X211494761Y-137612380D01*
X211399523Y-137564761D01*
X211351904Y-137517142D01*
X211304285Y-137421904D01*
X211304285Y-137231428D01*
X211351904Y-137136190D01*
X211399523Y-137088571D01*
X211494761Y-137040952D01*
X214452380Y-133088095D02*
X213452380Y-133088095D01*
X214452380Y-133659523D02*
X213880952Y-133230952D01*
X213452380Y-133659523D02*
X214023809Y-133088095D01*
X212828095Y-127452380D02*
X212828095Y-126452380D01*
X212590000Y-126452380D01*
X212447142Y-126500000D01*
X212351904Y-126595238D01*
X212304285Y-126690476D01*
X212256666Y-126880952D01*
X212256666Y-127023809D01*
X212304285Y-127214285D01*
X212351904Y-127309523D01*
X212447142Y-127404761D01*
X212590000Y-127452380D01*
X212828095Y-127452380D01*
X211923333Y-126452380D02*
X211256666Y-126452380D01*
X211685238Y-127452380D01*
X214452380Y-122928095D02*
X213452380Y-122928095D01*
X214452380Y-123499523D02*
X213880952Y-123070952D01*
X213452380Y-123499523D02*
X214023809Y-122928095D01*
X212828095Y-117292380D02*
X212828095Y-116292380D01*
X212590000Y-116292380D01*
X212447142Y-116340000D01*
X212351904Y-116435238D01*
X212304285Y-116530476D01*
X212256666Y-116720952D01*
X212256666Y-116863809D01*
X212304285Y-117054285D01*
X212351904Y-117149523D01*
X212447142Y-117244761D01*
X212590000Y-117292380D01*
X212828095Y-117292380D01*
X211399523Y-116292380D02*
X211590000Y-116292380D01*
X211685238Y-116340000D01*
X211732857Y-116387619D01*
X211828095Y-116530476D01*
X211875714Y-116720952D01*
X211875714Y-117101904D01*
X211828095Y-117197142D01*
X211780476Y-117244761D01*
X211685238Y-117292380D01*
X211494761Y-117292380D01*
X211399523Y-117244761D01*
X211351904Y-117197142D01*
X211304285Y-117101904D01*
X211304285Y-116863809D01*
X211351904Y-116768571D01*
X211399523Y-116720952D01*
X211494761Y-116673333D01*
X211685238Y-116673333D01*
X211780476Y-116720952D01*
X211828095Y-116768571D01*
X211875714Y-116863809D01*
X214452380Y-112768095D02*
X213452380Y-112768095D01*
X214452380Y-113339523D02*
X213880952Y-112910952D01*
X213452380Y-113339523D02*
X214023809Y-112768095D01*
X212828095Y-107132380D02*
X212828095Y-106132380D01*
X212590000Y-106132380D01*
X212447142Y-106180000D01*
X212351904Y-106275238D01*
X212304285Y-106370476D01*
X212256666Y-106560952D01*
X212256666Y-106703809D01*
X212304285Y-106894285D01*
X212351904Y-106989523D01*
X212447142Y-107084761D01*
X212590000Y-107132380D01*
X212828095Y-107132380D01*
X211351904Y-106132380D02*
X211828095Y-106132380D01*
X211875714Y-106608571D01*
X211828095Y-106560952D01*
X211732857Y-106513333D01*
X211494761Y-106513333D01*
X211399523Y-106560952D01*
X211351904Y-106608571D01*
X211304285Y-106703809D01*
X211304285Y-106941904D01*
X211351904Y-107037142D01*
X211399523Y-107084761D01*
X211494761Y-107132380D01*
X211732857Y-107132380D01*
X211828095Y-107084761D01*
X211875714Y-107037142D01*
X214452380Y-102608095D02*
X213452380Y-102608095D01*
X214452380Y-103179523D02*
X213880952Y-102750952D01*
X213452380Y-103179523D02*
X214023809Y-102608095D01*
X212828095Y-96972380D02*
X212828095Y-95972380D01*
X212590000Y-95972380D01*
X212447142Y-96020000D01*
X212351904Y-96115238D01*
X212304285Y-96210476D01*
X212256666Y-96400952D01*
X212256666Y-96543809D01*
X212304285Y-96734285D01*
X212351904Y-96829523D01*
X212447142Y-96924761D01*
X212590000Y-96972380D01*
X212828095Y-96972380D01*
X211399523Y-96305714D02*
X211399523Y-96972380D01*
X211637619Y-95924761D02*
X211875714Y-96639047D01*
X211256666Y-96639047D01*
X214452380Y-92448095D02*
X213452380Y-92448095D01*
X214452380Y-93019523D02*
X213880952Y-92590952D01*
X213452380Y-93019523D02*
X214023809Y-92448095D01*
X212828095Y-86812380D02*
X212828095Y-85812380D01*
X212590000Y-85812380D01*
X212447142Y-85860000D01*
X212351904Y-85955238D01*
X212304285Y-86050476D01*
X212256666Y-86240952D01*
X212256666Y-86383809D01*
X212304285Y-86574285D01*
X212351904Y-86669523D01*
X212447142Y-86764761D01*
X212590000Y-86812380D01*
X212828095Y-86812380D01*
X211923333Y-85812380D02*
X211304285Y-85812380D01*
X211637619Y-86193333D01*
X211494761Y-86193333D01*
X211399523Y-86240952D01*
X211351904Y-86288571D01*
X211304285Y-86383809D01*
X211304285Y-86621904D01*
X211351904Y-86717142D01*
X211399523Y-86764761D01*
X211494761Y-86812380D01*
X211780476Y-86812380D01*
X211875714Y-86764761D01*
X211923333Y-86717142D01*
X214452380Y-82288095D02*
X213452380Y-82288095D01*
X214452380Y-82859523D02*
X213880952Y-82430952D01*
X213452380Y-82859523D02*
X214023809Y-82288095D01*
X212828095Y-76652380D02*
X212828095Y-75652380D01*
X212590000Y-75652380D01*
X212447142Y-75700000D01*
X212351904Y-75795238D01*
X212304285Y-75890476D01*
X212256666Y-76080952D01*
X212256666Y-76223809D01*
X212304285Y-76414285D01*
X212351904Y-76509523D01*
X212447142Y-76604761D01*
X212590000Y-76652380D01*
X212828095Y-76652380D01*
X211875714Y-75747619D02*
X211828095Y-75700000D01*
X211732857Y-75652380D01*
X211494761Y-75652380D01*
X211399523Y-75700000D01*
X211351904Y-75747619D01*
X211304285Y-75842857D01*
X211304285Y-75938095D01*
X211351904Y-76080952D01*
X211923333Y-76652380D01*
X211304285Y-76652380D01*
X214452380Y-72128095D02*
X213452380Y-72128095D01*
X214452380Y-72699523D02*
X213880952Y-72270952D01*
X213452380Y-72699523D02*
X214023809Y-72128095D01*
X212828095Y-66492380D02*
X212828095Y-65492380D01*
X212590000Y-65492380D01*
X212447142Y-65540000D01*
X212351904Y-65635238D01*
X212304285Y-65730476D01*
X212256666Y-65920952D01*
X212256666Y-66063809D01*
X212304285Y-66254285D01*
X212351904Y-66349523D01*
X212447142Y-66444761D01*
X212590000Y-66492380D01*
X212828095Y-66492380D01*
X211304285Y-66492380D02*
X211875714Y-66492380D01*
X211590000Y-66492380D02*
X211590000Y-65492380D01*
X211685238Y-65635238D01*
X211780476Y-65730476D01*
X211875714Y-65778095D01*
X214452380Y-61968095D02*
X213452380Y-61968095D01*
X214452380Y-62539523D02*
X213880952Y-62110952D01*
X213452380Y-62539523D02*
X214023809Y-61968095D01*
X169076666Y-52427142D02*
X169124285Y-52474761D01*
X169267142Y-52522380D01*
X169362380Y-52522380D01*
X169505238Y-52474761D01*
X169600476Y-52379523D01*
X169648095Y-52284285D01*
X169695714Y-52093809D01*
X169695714Y-51950952D01*
X169648095Y-51760476D01*
X169600476Y-51665238D01*
X169505238Y-51570000D01*
X169362380Y-51522380D01*
X169267142Y-51522380D01*
X169124285Y-51570000D01*
X169076666Y-51617619D01*
X168505238Y-51950952D02*
X168600476Y-51903333D01*
X168648095Y-51855714D01*
X168695714Y-51760476D01*
X168695714Y-51712857D01*
X168648095Y-51617619D01*
X168600476Y-51570000D01*
X168505238Y-51522380D01*
X168314761Y-51522380D01*
X168219523Y-51570000D01*
X168171904Y-51617619D01*
X168124285Y-51712857D01*
X168124285Y-51760476D01*
X168171904Y-51855714D01*
X168219523Y-51903333D01*
X168314761Y-51950952D01*
X168505238Y-51950952D01*
X168600476Y-51998571D01*
X168648095Y-52046190D01*
X168695714Y-52141428D01*
X168695714Y-52331904D01*
X168648095Y-52427142D01*
X168600476Y-52474761D01*
X168505238Y-52522380D01*
X168314761Y-52522380D01*
X168219523Y-52474761D01*
X168171904Y-52427142D01*
X168124285Y-52331904D01*
X168124285Y-52141428D01*
X168171904Y-52046190D01*
X168219523Y-51998571D01*
X168314761Y-51950952D01*
X177966666Y-52427142D02*
X178014285Y-52474761D01*
X178157142Y-52522380D01*
X178252380Y-52522380D01*
X178395238Y-52474761D01*
X178490476Y-52379523D01*
X178538095Y-52284285D01*
X178585714Y-52093809D01*
X178585714Y-51950952D01*
X178538095Y-51760476D01*
X178490476Y-51665238D01*
X178395238Y-51570000D01*
X178252380Y-51522380D01*
X178157142Y-51522380D01*
X178014285Y-51570000D01*
X177966666Y-51617619D01*
X177633333Y-51522380D02*
X176966666Y-51522380D01*
X177395238Y-52522380D01*
X188721666Y-55221142D02*
X188769285Y-55268761D01*
X188912142Y-55316380D01*
X189007380Y-55316380D01*
X189150238Y-55268761D01*
X189245476Y-55173523D01*
X189293095Y-55078285D01*
X189340714Y-54887809D01*
X189340714Y-54744952D01*
X189293095Y-54554476D01*
X189245476Y-54459238D01*
X189150238Y-54364000D01*
X189007380Y-54316380D01*
X188912142Y-54316380D01*
X188769285Y-54364000D01*
X188721666Y-54411619D01*
X187864523Y-54316380D02*
X188055000Y-54316380D01*
X188150238Y-54364000D01*
X188197857Y-54411619D01*
X188293095Y-54554476D01*
X188340714Y-54744952D01*
X188340714Y-55125904D01*
X188293095Y-55221142D01*
X188245476Y-55268761D01*
X188150238Y-55316380D01*
X187959761Y-55316380D01*
X187864523Y-55268761D01*
X187816904Y-55221142D01*
X187769285Y-55125904D01*
X187769285Y-54887809D01*
X187816904Y-54792571D01*
X187864523Y-54744952D01*
X187959761Y-54697333D01*
X188150238Y-54697333D01*
X188245476Y-54744952D01*
X188293095Y-54792571D01*
X188340714Y-54887809D01*
X188547666Y-77065142D02*
X188595285Y-77112761D01*
X188738142Y-77160380D01*
X188833380Y-77160380D01*
X188976238Y-77112761D01*
X189071476Y-77017523D01*
X189119095Y-76922285D01*
X189166714Y-76731809D01*
X189166714Y-76588952D01*
X189119095Y-76398476D01*
X189071476Y-76303238D01*
X188976238Y-76208000D01*
X188833380Y-76160380D01*
X188738142Y-76160380D01*
X188595285Y-76208000D01*
X188547666Y-76255619D01*
X187642904Y-76160380D02*
X188119095Y-76160380D01*
X188166714Y-76636571D01*
X188119095Y-76588952D01*
X188023857Y-76541333D01*
X187785761Y-76541333D01*
X187690523Y-76588952D01*
X187642904Y-76636571D01*
X187595285Y-76731809D01*
X187595285Y-76969904D01*
X187642904Y-77065142D01*
X187690523Y-77112761D01*
X187785761Y-77160380D01*
X188023857Y-77160380D01*
X188119095Y-77112761D01*
X188166714Y-77065142D01*
X188293666Y-99163142D02*
X188341285Y-99210761D01*
X188484142Y-99258380D01*
X188579380Y-99258380D01*
X188722238Y-99210761D01*
X188817476Y-99115523D01*
X188865095Y-99020285D01*
X188912714Y-98829809D01*
X188912714Y-98686952D01*
X188865095Y-98496476D01*
X188817476Y-98401238D01*
X188722238Y-98306000D01*
X188579380Y-98258380D01*
X188484142Y-98258380D01*
X188341285Y-98306000D01*
X188293666Y-98353619D01*
X187436523Y-98591714D02*
X187436523Y-99258380D01*
X187674619Y-98210761D02*
X187912714Y-98925047D01*
X187293666Y-98925047D01*
X165393666Y-77065142D02*
X165441285Y-77112761D01*
X165584142Y-77160380D01*
X165679380Y-77160380D01*
X165822238Y-77112761D01*
X165917476Y-77017523D01*
X165965095Y-76922285D01*
X166012714Y-76731809D01*
X166012714Y-76588952D01*
X165965095Y-76398476D01*
X165917476Y-76303238D01*
X165822238Y-76208000D01*
X165679380Y-76160380D01*
X165584142Y-76160380D01*
X165441285Y-76208000D01*
X165393666Y-76255619D01*
X165060333Y-76160380D02*
X164441285Y-76160380D01*
X164774619Y-76541333D01*
X164631761Y-76541333D01*
X164536523Y-76588952D01*
X164488904Y-76636571D01*
X164441285Y-76731809D01*
X164441285Y-76969904D01*
X164488904Y-77065142D01*
X164536523Y-77112761D01*
X164631761Y-77160380D01*
X164917476Y-77160380D01*
X165012714Y-77112761D01*
X165060333Y-77065142D01*
X165687666Y-55475142D02*
X165735285Y-55522761D01*
X165878142Y-55570380D01*
X165973380Y-55570380D01*
X166116238Y-55522761D01*
X166211476Y-55427523D01*
X166259095Y-55332285D01*
X166306714Y-55141809D01*
X166306714Y-54998952D01*
X166259095Y-54808476D01*
X166211476Y-54713238D01*
X166116238Y-54618000D01*
X165973380Y-54570380D01*
X165878142Y-54570380D01*
X165735285Y-54618000D01*
X165687666Y-54665619D01*
X165306714Y-54665619D02*
X165259095Y-54618000D01*
X165163857Y-54570380D01*
X164925761Y-54570380D01*
X164830523Y-54618000D01*
X164782904Y-54665619D01*
X164735285Y-54760857D01*
X164735285Y-54856095D01*
X164782904Y-54998952D01*
X165354333Y-55570380D01*
X164735285Y-55570380D01*
X164965666Y-99544142D02*
X165013285Y-99591761D01*
X165156142Y-99639380D01*
X165251380Y-99639380D01*
X165394238Y-99591761D01*
X165489476Y-99496523D01*
X165537095Y-99401285D01*
X165584714Y-99210809D01*
X165584714Y-99067952D01*
X165537095Y-98877476D01*
X165489476Y-98782238D01*
X165394238Y-98687000D01*
X165251380Y-98639380D01*
X165156142Y-98639380D01*
X165013285Y-98687000D01*
X164965666Y-98734619D01*
X164013285Y-99639380D02*
X164584714Y-99639380D01*
X164299000Y-99639380D02*
X164299000Y-98639380D01*
X164394238Y-98782238D01*
X164489476Y-98877476D01*
X164584714Y-98925095D01*
M02*
