G04 #@! TF.GenerationSoftware,KiCad,Pcbnew,5.1.6-c6e7f7d~86~ubuntu18.04.1*
G04 #@! TF.CreationDate,2020-06-20T10:33:53-04:00*
G04 #@! TF.ProjectId,oscillator_carrier_board,6f736369-6c6c-4617-946f-725f63617272,1*
G04 #@! TF.SameCoordinates,Original*
G04 #@! TF.FileFunction,Legend,Bot*
G04 #@! TF.FilePolarity,Positive*
%FSLAX46Y46*%
G04 Gerber Fmt 4.6, Leading zero omitted, Abs format (unit mm)*
G04 Created by KiCad (PCBNEW 5.1.6-c6e7f7d~86~ubuntu18.04.1) date 2020-06-20 10:33:53*
%MOMM*%
%LPD*%
G01*
G04 APERTURE LIST*
%ADD10C,0.120000*%
%ADD11C,0.150000*%
G04 APERTURE END LIST*
D10*
X123444000Y-147574000D02*
X125476000Y-147574000D01*
X124460000Y-147574000D02*
X124460000Y-146050000D01*
X123825000Y-147955000D02*
X125095000Y-147955000D01*
X124206000Y-148336000D02*
X124714000Y-148336000D01*
D11*
X129221904Y-136787380D02*
X129317142Y-136739761D01*
X129364761Y-136692142D01*
X129412380Y-136596904D01*
X129412380Y-136311190D01*
X129364761Y-136215952D01*
X129317142Y-136168333D01*
X129221904Y-136120714D01*
X129079047Y-136120714D01*
X128983809Y-136168333D01*
X128936190Y-136215952D01*
X128888571Y-136311190D01*
X128888571Y-136596904D01*
X128936190Y-136692142D01*
X128983809Y-136739761D01*
X129079047Y-136787380D01*
X129221904Y-136787380D01*
X128031428Y-136739761D02*
X128126666Y-136787380D01*
X128317142Y-136787380D01*
X128412380Y-136739761D01*
X128460000Y-136692142D01*
X128507619Y-136596904D01*
X128507619Y-136311190D01*
X128460000Y-136215952D01*
X128412380Y-136168333D01*
X128317142Y-136120714D01*
X128126666Y-136120714D01*
X128031428Y-136168333D01*
X127745714Y-136120714D02*
X127364761Y-136120714D01*
X127602857Y-135787380D02*
X127602857Y-136644523D01*
X127555238Y-136739761D01*
X127460000Y-136787380D01*
X127364761Y-136787380D01*
X126602857Y-136787380D02*
X126602857Y-136263571D01*
X126650476Y-136168333D01*
X126745714Y-136120714D01*
X126936190Y-136120714D01*
X127031428Y-136168333D01*
X126602857Y-136739761D02*
X126698095Y-136787380D01*
X126936190Y-136787380D01*
X127031428Y-136739761D01*
X127079047Y-136644523D01*
X127079047Y-136549285D01*
X127031428Y-136454047D01*
X126936190Y-136406428D01*
X126698095Y-136406428D01*
X126602857Y-136358809D01*
X126221904Y-136120714D02*
X125983809Y-136787380D01*
X125745714Y-136120714D01*
X124983809Y-136739761D02*
X125079047Y-136787380D01*
X125269523Y-136787380D01*
X125364761Y-136739761D01*
X125412380Y-136644523D01*
X125412380Y-136263571D01*
X125364761Y-136168333D01*
X125269523Y-136120714D01*
X125079047Y-136120714D01*
X124983809Y-136168333D01*
X124936190Y-136263571D01*
X124936190Y-136358809D01*
X125412380Y-136454047D01*
X123793333Y-136739761D02*
X123698095Y-136787380D01*
X123507619Y-136787380D01*
X123412380Y-136739761D01*
X123364761Y-136644523D01*
X123364761Y-136596904D01*
X123412380Y-136501666D01*
X123507619Y-136454047D01*
X123650476Y-136454047D01*
X123745714Y-136406428D01*
X123793333Y-136311190D01*
X123793333Y-136263571D01*
X123745714Y-136168333D01*
X123650476Y-136120714D01*
X123507619Y-136120714D01*
X123412380Y-136168333D01*
X123031428Y-136120714D02*
X122840952Y-136787380D01*
X122650476Y-136311190D01*
X122460000Y-136787380D01*
X122269523Y-136120714D01*
X121888571Y-136787380D02*
X121888571Y-136120714D01*
X121888571Y-135787380D02*
X121936190Y-135835000D01*
X121888571Y-135882619D01*
X121840952Y-135835000D01*
X121888571Y-135787380D01*
X121888571Y-135882619D01*
X121555238Y-136120714D02*
X121174285Y-136120714D01*
X121412380Y-135787380D02*
X121412380Y-136644523D01*
X121364761Y-136739761D01*
X121269523Y-136787380D01*
X121174285Y-136787380D01*
X120412380Y-136739761D02*
X120507619Y-136787380D01*
X120698095Y-136787380D01*
X120793333Y-136739761D01*
X120840952Y-136692142D01*
X120888571Y-136596904D01*
X120888571Y-136311190D01*
X120840952Y-136215952D01*
X120793333Y-136168333D01*
X120698095Y-136120714D01*
X120507619Y-136120714D01*
X120412380Y-136168333D01*
X119983809Y-136787380D02*
X119983809Y-135787380D01*
X119555238Y-136787380D02*
X119555238Y-136263571D01*
X119602857Y-136168333D01*
X119698095Y-136120714D01*
X119840952Y-136120714D01*
X119936190Y-136168333D01*
X119983809Y-136215952D01*
X128031428Y-137770714D02*
X127650476Y-137770714D01*
X127888571Y-137437380D02*
X127888571Y-138294523D01*
X127840952Y-138389761D01*
X127745714Y-138437380D01*
X127650476Y-138437380D01*
X126936190Y-138389761D02*
X127031428Y-138437380D01*
X127221904Y-138437380D01*
X127317142Y-138389761D01*
X127364761Y-138294523D01*
X127364761Y-137913571D01*
X127317142Y-137818333D01*
X127221904Y-137770714D01*
X127031428Y-137770714D01*
X126936190Y-137818333D01*
X126888571Y-137913571D01*
X126888571Y-138008809D01*
X127364761Y-138104047D01*
X126507619Y-138389761D02*
X126412380Y-138437380D01*
X126221904Y-138437380D01*
X126126666Y-138389761D01*
X126079047Y-138294523D01*
X126079047Y-138246904D01*
X126126666Y-138151666D01*
X126221904Y-138104047D01*
X126364761Y-138104047D01*
X126460000Y-138056428D01*
X126507619Y-137961190D01*
X126507619Y-137913571D01*
X126460000Y-137818333D01*
X126364761Y-137770714D01*
X126221904Y-137770714D01*
X126126666Y-137818333D01*
X125793333Y-137770714D02*
X125412380Y-137770714D01*
X125650476Y-137437380D02*
X125650476Y-138294523D01*
X125602857Y-138389761D01*
X125507619Y-138437380D01*
X125412380Y-138437380D01*
X124317142Y-137770714D02*
X124317142Y-138770714D01*
X124317142Y-137818333D02*
X124221904Y-137770714D01*
X124031428Y-137770714D01*
X123936190Y-137818333D01*
X123888571Y-137865952D01*
X123840952Y-137961190D01*
X123840952Y-138246904D01*
X123888571Y-138342142D01*
X123936190Y-138389761D01*
X124031428Y-138437380D01*
X124221904Y-138437380D01*
X124317142Y-138389761D01*
X123269523Y-138437380D02*
X123364761Y-138389761D01*
X123412380Y-138342142D01*
X123460000Y-138246904D01*
X123460000Y-137961190D01*
X123412380Y-137865952D01*
X123364761Y-137818333D01*
X123269523Y-137770714D01*
X123126666Y-137770714D01*
X123031428Y-137818333D01*
X122983809Y-137865952D01*
X122936190Y-137961190D01*
X122936190Y-138246904D01*
X122983809Y-138342142D01*
X123031428Y-138389761D01*
X123126666Y-138437380D01*
X123269523Y-138437380D01*
X122507619Y-138437380D02*
X122507619Y-137770714D01*
X122507619Y-137437380D02*
X122555238Y-137485000D01*
X122507619Y-137532619D01*
X122460000Y-137485000D01*
X122507619Y-137437380D01*
X122507619Y-137532619D01*
X122031428Y-137770714D02*
X122031428Y-138437380D01*
X122031428Y-137865952D02*
X121983809Y-137818333D01*
X121888571Y-137770714D01*
X121745714Y-137770714D01*
X121650476Y-137818333D01*
X121602857Y-137913571D01*
X121602857Y-138437380D01*
X121269523Y-137770714D02*
X120888571Y-137770714D01*
X121126666Y-137437380D02*
X121126666Y-138294523D01*
X121079047Y-138389761D01*
X120983809Y-138437380D01*
X120888571Y-138437380D01*
X113964404Y-143295714D02*
X113964404Y-144295714D01*
X113964404Y-143343333D02*
X113869166Y-143295714D01*
X113678690Y-143295714D01*
X113583452Y-143343333D01*
X113535833Y-143390952D01*
X113488214Y-143486190D01*
X113488214Y-143771904D01*
X113535833Y-143867142D01*
X113583452Y-143914761D01*
X113678690Y-143962380D01*
X113869166Y-143962380D01*
X113964404Y-143914761D01*
X112631071Y-143295714D02*
X112631071Y-143962380D01*
X113059642Y-143295714D02*
X113059642Y-143819523D01*
X113012023Y-143914761D01*
X112916785Y-143962380D01*
X112773928Y-143962380D01*
X112678690Y-143914761D01*
X112631071Y-143867142D01*
X112012023Y-143962380D02*
X112107261Y-143914761D01*
X112154880Y-143819523D01*
X112154880Y-142962380D01*
X111678690Y-143914761D02*
X111583452Y-143962380D01*
X111392976Y-143962380D01*
X111297738Y-143914761D01*
X111250119Y-143819523D01*
X111250119Y-143771904D01*
X111297738Y-143676666D01*
X111392976Y-143629047D01*
X111535833Y-143629047D01*
X111631071Y-143581428D01*
X111678690Y-143486190D01*
X111678690Y-143438571D01*
X111631071Y-143343333D01*
X111535833Y-143295714D01*
X111392976Y-143295714D01*
X111297738Y-143343333D01*
X110440595Y-143914761D02*
X110535833Y-143962380D01*
X110726309Y-143962380D01*
X110821547Y-143914761D01*
X110869166Y-143819523D01*
X110869166Y-143438571D01*
X110821547Y-143343333D01*
X110726309Y-143295714D01*
X110535833Y-143295714D01*
X110440595Y-143343333D01*
X110392976Y-143438571D01*
X110392976Y-143533809D01*
X110869166Y-143629047D01*
X109059642Y-143962380D02*
X109154880Y-143914761D01*
X109202500Y-143867142D01*
X109250119Y-143771904D01*
X109250119Y-143486190D01*
X109202500Y-143390952D01*
X109154880Y-143343333D01*
X109059642Y-143295714D01*
X108916785Y-143295714D01*
X108821547Y-143343333D01*
X108773928Y-143390952D01*
X108726309Y-143486190D01*
X108726309Y-143771904D01*
X108773928Y-143867142D01*
X108821547Y-143914761D01*
X108916785Y-143962380D01*
X109059642Y-143962380D01*
X107869166Y-143295714D02*
X107869166Y-143962380D01*
X108297738Y-143295714D02*
X108297738Y-143819523D01*
X108250119Y-143914761D01*
X108154880Y-143962380D01*
X108012023Y-143962380D01*
X107916785Y-143914761D01*
X107869166Y-143867142D01*
X107535833Y-143295714D02*
X107154880Y-143295714D01*
X107392976Y-142962380D02*
X107392976Y-143819523D01*
X107345357Y-143914761D01*
X107250119Y-143962380D01*
X107154880Y-143962380D01*
X134141547Y-133422380D02*
X134236785Y-133374761D01*
X134284404Y-133327142D01*
X134332023Y-133231904D01*
X134332023Y-132946190D01*
X134284404Y-132850952D01*
X134236785Y-132803333D01*
X134141547Y-132755714D01*
X133998690Y-132755714D01*
X133903452Y-132803333D01*
X133855833Y-132850952D01*
X133808214Y-132946190D01*
X133808214Y-133231904D01*
X133855833Y-133327142D01*
X133903452Y-133374761D01*
X133998690Y-133422380D01*
X134141547Y-133422380D01*
X132951071Y-133374761D02*
X133046309Y-133422380D01*
X133236785Y-133422380D01*
X133332023Y-133374761D01*
X133379642Y-133327142D01*
X133427261Y-133231904D01*
X133427261Y-132946190D01*
X133379642Y-132850952D01*
X133332023Y-132803333D01*
X133236785Y-132755714D01*
X133046309Y-132755714D01*
X132951071Y-132803333D01*
X132665357Y-132755714D02*
X132284404Y-132755714D01*
X132522500Y-132422380D02*
X132522500Y-133279523D01*
X132474880Y-133374761D01*
X132379642Y-133422380D01*
X132284404Y-133422380D01*
X131522500Y-133422380D02*
X131522500Y-132898571D01*
X131570119Y-132803333D01*
X131665357Y-132755714D01*
X131855833Y-132755714D01*
X131951071Y-132803333D01*
X131522500Y-133374761D02*
X131617738Y-133422380D01*
X131855833Y-133422380D01*
X131951071Y-133374761D01*
X131998690Y-133279523D01*
X131998690Y-133184285D01*
X131951071Y-133089047D01*
X131855833Y-133041428D01*
X131617738Y-133041428D01*
X131522500Y-132993809D01*
X131141547Y-132755714D02*
X130903452Y-133422380D01*
X130665357Y-132755714D01*
X129903452Y-133374761D02*
X129998690Y-133422380D01*
X130189166Y-133422380D01*
X130284404Y-133374761D01*
X130332023Y-133279523D01*
X130332023Y-132898571D01*
X130284404Y-132803333D01*
X130189166Y-132755714D01*
X129998690Y-132755714D01*
X129903452Y-132803333D01*
X129855833Y-132898571D01*
X129855833Y-132993809D01*
X130332023Y-133089047D01*
X134332023Y-135024761D02*
X134236785Y-135072380D01*
X134046309Y-135072380D01*
X133951071Y-135024761D01*
X133903452Y-134929523D01*
X133903452Y-134881904D01*
X133951071Y-134786666D01*
X134046309Y-134739047D01*
X134189166Y-134739047D01*
X134284404Y-134691428D01*
X134332023Y-134596190D01*
X134332023Y-134548571D01*
X134284404Y-134453333D01*
X134189166Y-134405714D01*
X134046309Y-134405714D01*
X133951071Y-134453333D01*
X133570119Y-134405714D02*
X133379642Y-135072380D01*
X133189166Y-134596190D01*
X132998690Y-135072380D01*
X132808214Y-134405714D01*
X132427261Y-135072380D02*
X132427261Y-134405714D01*
X132427261Y-134072380D02*
X132474880Y-134120000D01*
X132427261Y-134167619D01*
X132379642Y-134120000D01*
X132427261Y-134072380D01*
X132427261Y-134167619D01*
X132093928Y-134405714D02*
X131712976Y-134405714D01*
X131951071Y-134072380D02*
X131951071Y-134929523D01*
X131903452Y-135024761D01*
X131808214Y-135072380D01*
X131712976Y-135072380D01*
X130951071Y-135024761D02*
X131046309Y-135072380D01*
X131236785Y-135072380D01*
X131332023Y-135024761D01*
X131379642Y-134977142D01*
X131427261Y-134881904D01*
X131427261Y-134596190D01*
X131379642Y-134500952D01*
X131332023Y-134453333D01*
X131236785Y-134405714D01*
X131046309Y-134405714D01*
X130951071Y-134453333D01*
X130522500Y-135072380D02*
X130522500Y-134072380D01*
X130093928Y-135072380D02*
X130093928Y-134548571D01*
X130141547Y-134453333D01*
X130236785Y-134405714D01*
X130379642Y-134405714D01*
X130474880Y-134453333D01*
X130522500Y-134500952D01*
X134427261Y-136055714D02*
X134046309Y-136055714D01*
X134284404Y-135722380D02*
X134284404Y-136579523D01*
X134236785Y-136674761D01*
X134141547Y-136722380D01*
X134046309Y-136722380D01*
X133712976Y-136722380D02*
X133712976Y-136055714D01*
X133712976Y-136246190D02*
X133665357Y-136150952D01*
X133617738Y-136103333D01*
X133522500Y-136055714D01*
X133427261Y-136055714D01*
X133093928Y-136722380D02*
X133093928Y-136055714D01*
X133093928Y-135722380D02*
X133141547Y-135770000D01*
X133093928Y-135817619D01*
X133046309Y-135770000D01*
X133093928Y-135722380D01*
X133093928Y-135817619D01*
X132617738Y-136722380D02*
X132617738Y-136055714D01*
X132617738Y-136150952D02*
X132570119Y-136103333D01*
X132474880Y-136055714D01*
X132332023Y-136055714D01*
X132236785Y-136103333D01*
X132189166Y-136198571D01*
X132189166Y-136722380D01*
X132189166Y-136198571D02*
X132141547Y-136103333D01*
X132046309Y-136055714D01*
X131903452Y-136055714D01*
X131808214Y-136103333D01*
X131760595Y-136198571D01*
X131760595Y-136722380D01*
X147534285Y-139459642D02*
X146867619Y-139221547D01*
X147534285Y-138983452D01*
X147248571Y-138602500D02*
X147248571Y-137840595D01*
X146867619Y-138221547D02*
X147629523Y-138221547D01*
X146867619Y-136602500D02*
X147534285Y-136602500D01*
X147867619Y-136602500D02*
X147820000Y-136650119D01*
X147772380Y-136602500D01*
X147820000Y-136554880D01*
X147867619Y-136602500D01*
X147772380Y-136602500D01*
X147534285Y-136126309D02*
X146867619Y-136126309D01*
X147439047Y-136126309D02*
X147486666Y-136078690D01*
X147534285Y-135983452D01*
X147534285Y-135840595D01*
X147486666Y-135745357D01*
X147391428Y-135697738D01*
X146867619Y-135697738D01*
X157694285Y-139459642D02*
X157027619Y-139221547D01*
X157694285Y-138983452D01*
X157408571Y-138602500D02*
X157408571Y-137840595D01*
X157027619Y-136602500D02*
X157694285Y-136602500D01*
X158027619Y-136602500D02*
X157980000Y-136650119D01*
X157932380Y-136602500D01*
X157980000Y-136554880D01*
X158027619Y-136602500D01*
X157932380Y-136602500D01*
X157694285Y-136126309D02*
X157027619Y-136126309D01*
X157599047Y-136126309D02*
X157646666Y-136078690D01*
X157694285Y-135983452D01*
X157694285Y-135840595D01*
X157646666Y-135745357D01*
X157551428Y-135697738D01*
X157027619Y-135697738D01*
D10*
X149225000Y-139065000D02*
X150495000Y-139065000D01*
X149606000Y-139446000D02*
X150114000Y-139446000D01*
X149860000Y-138684000D02*
X149860000Y-137160000D01*
X148844000Y-138684000D02*
X150876000Y-138684000D01*
X151765000Y-139065000D02*
X153035000Y-139065000D01*
X152146000Y-139446000D02*
X152654000Y-139446000D01*
X152400000Y-138684000D02*
X152400000Y-137160000D01*
X151384000Y-138684000D02*
X153416000Y-138684000D01*
X154305000Y-139065000D02*
X155575000Y-139065000D01*
X154686000Y-139446000D02*
X155194000Y-139446000D01*
X154940000Y-138684000D02*
X154940000Y-137160000D01*
X153924000Y-138684000D02*
X155956000Y-138684000D01*
D11*
X193974404Y-143962380D02*
X193974404Y-142962380D01*
X193593452Y-142962380D01*
X193498214Y-143010000D01*
X193450595Y-143057619D01*
X193402976Y-143152857D01*
X193402976Y-143295714D01*
X193450595Y-143390952D01*
X193498214Y-143438571D01*
X193593452Y-143486190D01*
X193974404Y-143486190D01*
X193069642Y-142962380D02*
X192831547Y-143962380D01*
X192641071Y-143248095D01*
X192450595Y-143962380D01*
X192212500Y-142962380D01*
X191831547Y-143962380D02*
X191831547Y-142962380D01*
X191498214Y-143676666D01*
X191164880Y-142962380D01*
X191164880Y-143962380D01*
X189926785Y-143962380D02*
X189926785Y-143295714D01*
X189926785Y-142962380D02*
X189974404Y-143010000D01*
X189926785Y-143057619D01*
X189879166Y-143010000D01*
X189926785Y-142962380D01*
X189926785Y-143057619D01*
X189450595Y-143295714D02*
X189450595Y-143962380D01*
X189450595Y-143390952D02*
X189402976Y-143343333D01*
X189307738Y-143295714D01*
X189164880Y-143295714D01*
X189069642Y-143343333D01*
X189022023Y-143438571D01*
X189022023Y-143962380D01*
X194022023Y-141374761D02*
X193926785Y-141422380D01*
X193736309Y-141422380D01*
X193641071Y-141374761D01*
X193593452Y-141279523D01*
X193593452Y-141231904D01*
X193641071Y-141136666D01*
X193736309Y-141089047D01*
X193879166Y-141089047D01*
X193974404Y-141041428D01*
X194022023Y-140946190D01*
X194022023Y-140898571D01*
X193974404Y-140803333D01*
X193879166Y-140755714D01*
X193736309Y-140755714D01*
X193641071Y-140803333D01*
X193260119Y-140755714D02*
X193022023Y-141422380D01*
X192783928Y-140755714D02*
X193022023Y-141422380D01*
X193117261Y-141660476D01*
X193164880Y-141708095D01*
X193260119Y-141755714D01*
X192402976Y-140755714D02*
X192402976Y-141422380D01*
X192402976Y-140850952D02*
X192355357Y-140803333D01*
X192260119Y-140755714D01*
X192117261Y-140755714D01*
X192022023Y-140803333D01*
X191974404Y-140898571D01*
X191974404Y-141422380D01*
X191069642Y-141374761D02*
X191164880Y-141422380D01*
X191355357Y-141422380D01*
X191450595Y-141374761D01*
X191498214Y-141327142D01*
X191545833Y-141231904D01*
X191545833Y-140946190D01*
X191498214Y-140850952D01*
X191450595Y-140803333D01*
X191355357Y-140755714D01*
X191164880Y-140755714D01*
X191069642Y-140803333D01*
X189879166Y-141422380D02*
X189879166Y-140755714D01*
X189879166Y-140422380D02*
X189926785Y-140470000D01*
X189879166Y-140517619D01*
X189831547Y-140470000D01*
X189879166Y-140422380D01*
X189879166Y-140517619D01*
X189402976Y-140755714D02*
X189402976Y-141422380D01*
X189402976Y-140850952D02*
X189355357Y-140803333D01*
X189260119Y-140755714D01*
X189117261Y-140755714D01*
X189022023Y-140803333D01*
X188974404Y-140898571D01*
X188974404Y-141422380D01*
X193831547Y-138882380D02*
X193926785Y-138834761D01*
X193974404Y-138739523D01*
X193974404Y-137882380D01*
X193450595Y-138882380D02*
X193450595Y-138215714D01*
X193450595Y-137882380D02*
X193498214Y-137930000D01*
X193450595Y-137977619D01*
X193402976Y-137930000D01*
X193450595Y-137882380D01*
X193450595Y-137977619D01*
X192974404Y-138215714D02*
X192974404Y-138882380D01*
X192974404Y-138310952D02*
X192926785Y-138263333D01*
X192831547Y-138215714D01*
X192688690Y-138215714D01*
X192593452Y-138263333D01*
X192545833Y-138358571D01*
X192545833Y-138882380D01*
X190974404Y-138358571D02*
X191307738Y-138358571D01*
X191307738Y-138882380D02*
X191307738Y-137882380D01*
X190831547Y-137882380D01*
X190450595Y-138882380D02*
X190450595Y-137882380D01*
X190117261Y-138596666D01*
X189783928Y-137882380D01*
X189783928Y-138882380D01*
X188545833Y-138882380D02*
X188545833Y-138215714D01*
X188545833Y-137882380D02*
X188593452Y-137930000D01*
X188545833Y-137977619D01*
X188498214Y-137930000D01*
X188545833Y-137882380D01*
X188545833Y-137977619D01*
X188069642Y-138215714D02*
X188069642Y-138882380D01*
X188069642Y-138310952D02*
X188022023Y-138263333D01*
X187926785Y-138215714D01*
X187783928Y-138215714D01*
X187688690Y-138263333D01*
X187641071Y-138358571D01*
X187641071Y-138882380D01*
X193593452Y-136294761D02*
X193688690Y-136342380D01*
X193879166Y-136342380D01*
X193974404Y-136294761D01*
X194022023Y-136199523D01*
X194022023Y-135818571D01*
X193974404Y-135723333D01*
X193879166Y-135675714D01*
X193688690Y-135675714D01*
X193593452Y-135723333D01*
X193545833Y-135818571D01*
X193545833Y-135913809D01*
X194022023Y-136009047D01*
X193212500Y-136342380D02*
X192688690Y-135675714D01*
X193212500Y-135675714D02*
X192688690Y-136342380D01*
X192307738Y-135675714D02*
X192307738Y-136675714D01*
X192307738Y-135723333D02*
X192212500Y-135675714D01*
X192022023Y-135675714D01*
X191926785Y-135723333D01*
X191879166Y-135770952D01*
X191831547Y-135866190D01*
X191831547Y-136151904D01*
X191879166Y-136247142D01*
X191926785Y-136294761D01*
X192022023Y-136342380D01*
X192212500Y-136342380D01*
X192307738Y-136294761D01*
X191260119Y-136342380D02*
X191355357Y-136294761D01*
X191402976Y-136247142D01*
X191450595Y-136151904D01*
X191450595Y-135866190D01*
X191402976Y-135770952D01*
X191355357Y-135723333D01*
X191260119Y-135675714D01*
X191117261Y-135675714D01*
X191022023Y-135723333D01*
X190974404Y-135770952D01*
X190926785Y-135866190D01*
X190926785Y-136151904D01*
X190974404Y-136247142D01*
X191022023Y-136294761D01*
X191117261Y-136342380D01*
X191260119Y-136342380D01*
X189402976Y-135818571D02*
X189736309Y-135818571D01*
X189736309Y-136342380D02*
X189736309Y-135342380D01*
X189260119Y-135342380D01*
X188879166Y-136342380D02*
X188879166Y-135342380D01*
X188545833Y-136056666D01*
X188212500Y-135342380D01*
X188212500Y-136342380D01*
X186974404Y-136342380D02*
X186974404Y-135675714D01*
X186974404Y-135342380D02*
X187022023Y-135390000D01*
X186974404Y-135437619D01*
X186926785Y-135390000D01*
X186974404Y-135342380D01*
X186974404Y-135437619D01*
X186498214Y-135675714D02*
X186498214Y-136342380D01*
X186498214Y-135770952D02*
X186450595Y-135723333D01*
X186355357Y-135675714D01*
X186212500Y-135675714D01*
X186117261Y-135723333D01*
X186069642Y-135818571D01*
X186069642Y-136342380D01*
X193450595Y-133802380D02*
X194022023Y-133802380D01*
X193736309Y-133802380D02*
X193736309Y-132802380D01*
X193831547Y-132945238D01*
X193926785Y-133040476D01*
X194022023Y-133088095D01*
X193117261Y-133135714D02*
X192879166Y-133802380D01*
X192641071Y-133135714D01*
X191545833Y-132754761D02*
X192402976Y-134040476D01*
X191069642Y-133802380D02*
X191164880Y-133754761D01*
X191212500Y-133707142D01*
X191260119Y-133611904D01*
X191260119Y-133326190D01*
X191212500Y-133230952D01*
X191164880Y-133183333D01*
X191069642Y-133135714D01*
X190926785Y-133135714D01*
X190831547Y-133183333D01*
X190783928Y-133230952D01*
X190736309Y-133326190D01*
X190736309Y-133611904D01*
X190783928Y-133707142D01*
X190831547Y-133754761D01*
X190926785Y-133802380D01*
X191069642Y-133802380D01*
X189879166Y-133754761D02*
X189974404Y-133802380D01*
X190164880Y-133802380D01*
X190260119Y-133754761D01*
X190307738Y-133707142D01*
X190355357Y-133611904D01*
X190355357Y-133326190D01*
X190307738Y-133230952D01*
X190260119Y-133183333D01*
X190164880Y-133135714D01*
X189974404Y-133135714D01*
X189879166Y-133183333D01*
X189593452Y-133135714D02*
X189212500Y-133135714D01*
X189450595Y-132802380D02*
X189450595Y-133659523D01*
X189402976Y-133754761D01*
X189307738Y-133802380D01*
X189212500Y-133802380D01*
X188117261Y-133802380D02*
X188117261Y-133135714D01*
X188117261Y-132802380D02*
X188164880Y-132850000D01*
X188117261Y-132897619D01*
X188069642Y-132850000D01*
X188117261Y-132802380D01*
X188117261Y-132897619D01*
X187641071Y-133135714D02*
X187641071Y-133802380D01*
X187641071Y-133230952D02*
X187593452Y-133183333D01*
X187498214Y-133135714D01*
X187355357Y-133135714D01*
X187260119Y-133183333D01*
X187212500Y-133278571D01*
X187212500Y-133802380D01*
D10*
X193040000Y-146177000D02*
X193040000Y-144653000D01*
X192024000Y-146177000D02*
X194056000Y-146177000D01*
X192786000Y-146939000D02*
X193294000Y-146939000D01*
X192405000Y-146558000D02*
X193675000Y-146558000D01*
X108966000Y-147320000D02*
X109474000Y-147320000D01*
X108585000Y-146939000D02*
X109855000Y-146939000D01*
X109220000Y-146558000D02*
X109220000Y-145034000D01*
X108204000Y-146558000D02*
X110236000Y-146558000D01*
D11*
X114012023Y-141374761D02*
X113916785Y-141422380D01*
X113726309Y-141422380D01*
X113631071Y-141374761D01*
X113583452Y-141279523D01*
X113583452Y-141231904D01*
X113631071Y-141136666D01*
X113726309Y-141089047D01*
X113869166Y-141089047D01*
X113964404Y-141041428D01*
X114012023Y-140946190D01*
X114012023Y-140898571D01*
X113964404Y-140803333D01*
X113869166Y-140755714D01*
X113726309Y-140755714D01*
X113631071Y-140803333D01*
X112726309Y-141422380D02*
X112726309Y-140898571D01*
X112773928Y-140803333D01*
X112869166Y-140755714D01*
X113059642Y-140755714D01*
X113154880Y-140803333D01*
X112726309Y-141374761D02*
X112821547Y-141422380D01*
X113059642Y-141422380D01*
X113154880Y-141374761D01*
X113202500Y-141279523D01*
X113202500Y-141184285D01*
X113154880Y-141089047D01*
X113059642Y-141041428D01*
X112821547Y-141041428D01*
X112726309Y-140993809D01*
X112345357Y-140755714D02*
X112154880Y-141422380D01*
X111964404Y-140946190D01*
X111773928Y-141422380D01*
X111583452Y-140755714D01*
X110297738Y-141422380D02*
X110392976Y-141374761D01*
X110440595Y-141327142D01*
X110488214Y-141231904D01*
X110488214Y-140946190D01*
X110440595Y-140850952D01*
X110392976Y-140803333D01*
X110297738Y-140755714D01*
X110154880Y-140755714D01*
X110059642Y-140803333D01*
X110012023Y-140850952D01*
X109964404Y-140946190D01*
X109964404Y-141231904D01*
X110012023Y-141327142D01*
X110059642Y-141374761D01*
X110154880Y-141422380D01*
X110297738Y-141422380D01*
X109107261Y-140755714D02*
X109107261Y-141422380D01*
X109535833Y-140755714D02*
X109535833Y-141279523D01*
X109488214Y-141374761D01*
X109392976Y-141422380D01*
X109250119Y-141422380D01*
X109154880Y-141374761D01*
X109107261Y-141327142D01*
X108773928Y-140755714D02*
X108392976Y-140755714D01*
X108631071Y-140422380D02*
X108631071Y-141279523D01*
X108583452Y-141374761D01*
X108488214Y-141422380D01*
X108392976Y-141422380D01*
X114107261Y-138215714D02*
X113726309Y-138215714D01*
X113964404Y-137882380D02*
X113964404Y-138739523D01*
X113916785Y-138834761D01*
X113821547Y-138882380D01*
X113726309Y-138882380D01*
X113392976Y-138882380D02*
X113392976Y-138215714D01*
X113392976Y-138406190D02*
X113345357Y-138310952D01*
X113297738Y-138263333D01*
X113202500Y-138215714D01*
X113107261Y-138215714D01*
X112773928Y-138882380D02*
X112773928Y-138215714D01*
X112773928Y-137882380D02*
X112821547Y-137930000D01*
X112773928Y-137977619D01*
X112726309Y-137930000D01*
X112773928Y-137882380D01*
X112773928Y-137977619D01*
X111392976Y-138882380D02*
X111488214Y-138834761D01*
X111535833Y-138787142D01*
X111583452Y-138691904D01*
X111583452Y-138406190D01*
X111535833Y-138310952D01*
X111488214Y-138263333D01*
X111392976Y-138215714D01*
X111250119Y-138215714D01*
X111154880Y-138263333D01*
X111107261Y-138310952D01*
X111059642Y-138406190D01*
X111059642Y-138691904D01*
X111107261Y-138787142D01*
X111154880Y-138834761D01*
X111250119Y-138882380D01*
X111392976Y-138882380D01*
X110202500Y-138215714D02*
X110202500Y-138882380D01*
X110631071Y-138215714D02*
X110631071Y-138739523D01*
X110583452Y-138834761D01*
X110488214Y-138882380D01*
X110345357Y-138882380D01*
X110250119Y-138834761D01*
X110202500Y-138787142D01*
X109869166Y-138215714D02*
X109488214Y-138215714D01*
X109726309Y-137882380D02*
X109726309Y-138739523D01*
X109678690Y-138834761D01*
X109583452Y-138882380D01*
X109488214Y-138882380D01*
X114012023Y-136294761D02*
X113916785Y-136342380D01*
X113726309Y-136342380D01*
X113631071Y-136294761D01*
X113583452Y-136199523D01*
X113583452Y-136151904D01*
X113631071Y-136056666D01*
X113726309Y-136009047D01*
X113869166Y-136009047D01*
X113964404Y-135961428D01*
X114012023Y-135866190D01*
X114012023Y-135818571D01*
X113964404Y-135723333D01*
X113869166Y-135675714D01*
X113726309Y-135675714D01*
X113631071Y-135723333D01*
X113154880Y-136342380D02*
X113154880Y-135675714D01*
X113154880Y-135342380D02*
X113202500Y-135390000D01*
X113154880Y-135437619D01*
X113107261Y-135390000D01*
X113154880Y-135342380D01*
X113154880Y-135437619D01*
X112678690Y-135675714D02*
X112678690Y-136342380D01*
X112678690Y-135770952D02*
X112631071Y-135723333D01*
X112535833Y-135675714D01*
X112392976Y-135675714D01*
X112297738Y-135723333D01*
X112250119Y-135818571D01*
X112250119Y-136342380D01*
X111392976Y-136294761D02*
X111488214Y-136342380D01*
X111678690Y-136342380D01*
X111773928Y-136294761D01*
X111821547Y-136199523D01*
X111821547Y-135818571D01*
X111773928Y-135723333D01*
X111678690Y-135675714D01*
X111488214Y-135675714D01*
X111392976Y-135723333D01*
X111345357Y-135818571D01*
X111345357Y-135913809D01*
X111821547Y-136009047D01*
X110012023Y-136342380D02*
X110107261Y-136294761D01*
X110154880Y-136247142D01*
X110202500Y-136151904D01*
X110202500Y-135866190D01*
X110154880Y-135770952D01*
X110107261Y-135723333D01*
X110012023Y-135675714D01*
X109869166Y-135675714D01*
X109773928Y-135723333D01*
X109726309Y-135770952D01*
X109678690Y-135866190D01*
X109678690Y-136151904D01*
X109726309Y-136247142D01*
X109773928Y-136294761D01*
X109869166Y-136342380D01*
X110012023Y-136342380D01*
X108821547Y-135675714D02*
X108821547Y-136342380D01*
X109250119Y-135675714D02*
X109250119Y-136199523D01*
X109202500Y-136294761D01*
X109107261Y-136342380D01*
X108964404Y-136342380D01*
X108869166Y-136294761D01*
X108821547Y-136247142D01*
X108488214Y-135675714D02*
X108107261Y-135675714D01*
X108345357Y-135342380D02*
X108345357Y-136199523D01*
X108297738Y-136294761D01*
X108202500Y-136342380D01*
X108107261Y-136342380D01*
X196350000Y-110082857D02*
X196350000Y-108654285D01*
X195492857Y-110368571D02*
X198492857Y-109368571D01*
X195492857Y-108368571D01*
X197492857Y-106082857D02*
X195492857Y-106082857D01*
X197492857Y-107368571D02*
X195921428Y-107368571D01*
X195635714Y-107225714D01*
X195492857Y-106940000D01*
X195492857Y-106511428D01*
X195635714Y-106225714D01*
X195778571Y-106082857D01*
X195492857Y-104940000D02*
X197492857Y-103368571D01*
X197492857Y-104940000D02*
X195492857Y-103368571D01*
X198492857Y-100225714D02*
X195492857Y-99511428D01*
X197635714Y-98940000D01*
X195492857Y-98368571D01*
X198492857Y-97654285D01*
X195492857Y-95225714D02*
X197064285Y-95225714D01*
X197350000Y-95368571D01*
X197492857Y-95654285D01*
X197492857Y-96225714D01*
X197350000Y-96511428D01*
X195635714Y-95225714D02*
X195492857Y-95511428D01*
X195492857Y-96225714D01*
X195635714Y-96511428D01*
X195921428Y-96654285D01*
X196207142Y-96654285D01*
X196492857Y-96511428D01*
X196635714Y-96225714D01*
X196635714Y-95511428D01*
X196778571Y-95225714D01*
X197492857Y-94082857D02*
X195492857Y-93368571D01*
X197492857Y-92654285D01*
X195635714Y-90368571D02*
X195492857Y-90654285D01*
X195492857Y-91225714D01*
X195635714Y-91511428D01*
X195921428Y-91654285D01*
X197064285Y-91654285D01*
X197350000Y-91511428D01*
X197492857Y-91225714D01*
X197492857Y-90654285D01*
X197350000Y-90368571D01*
X197064285Y-90225714D01*
X196778571Y-90225714D01*
X196492857Y-91654285D01*
X195635714Y-89082857D02*
X195492857Y-88797142D01*
X195492857Y-88225714D01*
X195635714Y-87940000D01*
X195921428Y-87797142D01*
X196064285Y-87797142D01*
X196350000Y-87940000D01*
X196492857Y-88225714D01*
X196492857Y-88654285D01*
X196635714Y-88940000D01*
X196921428Y-89082857D01*
X197064285Y-89082857D01*
X197350000Y-88940000D01*
X197492857Y-88654285D01*
X197492857Y-88225714D01*
X197350000Y-87940000D01*
X195492857Y-86511428D02*
X198492857Y-86511428D01*
X195492857Y-85225714D02*
X197064285Y-85225714D01*
X197350000Y-85368571D01*
X197492857Y-85654285D01*
X197492857Y-86082857D01*
X197350000Y-86368571D01*
X197207142Y-86511428D01*
X195492857Y-82511428D02*
X197064285Y-82511428D01*
X197350000Y-82654285D01*
X197492857Y-82940000D01*
X197492857Y-83511428D01*
X197350000Y-83797142D01*
X195635714Y-82511428D02*
X195492857Y-82797142D01*
X195492857Y-83511428D01*
X195635714Y-83797142D01*
X195921428Y-83940000D01*
X196207142Y-83940000D01*
X196492857Y-83797142D01*
X196635714Y-83511428D01*
X196635714Y-82797142D01*
X196778571Y-82511428D01*
X197492857Y-81082857D02*
X194492857Y-81082857D01*
X197350000Y-81082857D02*
X197492857Y-80797142D01*
X197492857Y-80225714D01*
X197350000Y-79940000D01*
X197207142Y-79797142D01*
X196921428Y-79654285D01*
X196064285Y-79654285D01*
X195778571Y-79797142D01*
X195635714Y-79940000D01*
X195492857Y-80225714D01*
X195492857Y-80797142D01*
X195635714Y-81082857D01*
X195635714Y-77225714D02*
X195492857Y-77511428D01*
X195492857Y-78082857D01*
X195635714Y-78368571D01*
X195921428Y-78511428D01*
X197064285Y-78511428D01*
X197350000Y-78368571D01*
X197492857Y-78082857D01*
X197492857Y-77511428D01*
X197350000Y-77225714D01*
X197064285Y-77082857D01*
X196778571Y-77082857D01*
X196492857Y-78511428D01*
X195492857Y-75797142D02*
X197492857Y-75797142D01*
X196921428Y-75797142D02*
X197207142Y-75654285D01*
X197350000Y-75511428D01*
X197492857Y-75225714D01*
X197492857Y-74940000D01*
X195635714Y-74082857D02*
X195492857Y-73797142D01*
X195492857Y-73225714D01*
X195635714Y-72940000D01*
X195921428Y-72797142D01*
X196064285Y-72797142D01*
X196350000Y-72940000D01*
X196492857Y-73225714D01*
X196492857Y-73654285D01*
X196635714Y-73940000D01*
X196921428Y-74082857D01*
X197064285Y-74082857D01*
X197350000Y-73940000D01*
X197492857Y-73654285D01*
X197492857Y-73225714D01*
X197350000Y-72940000D01*
X157852857Y-100455714D02*
X154852857Y-99455714D01*
X157852857Y-98455714D01*
X155138571Y-95741428D02*
X154995714Y-95884285D01*
X154852857Y-96312857D01*
X154852857Y-96598571D01*
X154995714Y-97027142D01*
X155281428Y-97312857D01*
X155567142Y-97455714D01*
X156138571Y-97598571D01*
X156567142Y-97598571D01*
X157138571Y-97455714D01*
X157424285Y-97312857D01*
X157710000Y-97027142D01*
X157852857Y-96598571D01*
X157852857Y-96312857D01*
X157710000Y-95884285D01*
X157567142Y-95741428D01*
X157852857Y-93884285D02*
X157852857Y-93312857D01*
X157710000Y-93027142D01*
X157424285Y-92741428D01*
X156852857Y-92598571D01*
X155852857Y-92598571D01*
X155281428Y-92741428D01*
X154995714Y-93027142D01*
X154852857Y-93312857D01*
X154852857Y-93884285D01*
X154995714Y-94170000D01*
X155281428Y-94455714D01*
X155852857Y-94598571D01*
X156852857Y-94598571D01*
X157424285Y-94455714D01*
X157710000Y-94170000D01*
X157852857Y-93884285D01*
X155138571Y-87312857D02*
X154995714Y-87455714D01*
X154852857Y-87884285D01*
X154852857Y-88170000D01*
X154995714Y-88598571D01*
X155281428Y-88884285D01*
X155567142Y-89027142D01*
X156138571Y-89170000D01*
X156567142Y-89170000D01*
X157138571Y-89027142D01*
X157424285Y-88884285D01*
X157710000Y-88598571D01*
X157852857Y-88170000D01*
X157852857Y-87884285D01*
X157710000Y-87455714D01*
X157567142Y-87312857D01*
X154852857Y-85598571D02*
X154995714Y-85884285D01*
X155138571Y-86027142D01*
X155424285Y-86170000D01*
X156281428Y-86170000D01*
X156567142Y-86027142D01*
X156710000Y-85884285D01*
X156852857Y-85598571D01*
X156852857Y-85170000D01*
X156710000Y-84884285D01*
X156567142Y-84741428D01*
X156281428Y-84598571D01*
X155424285Y-84598571D01*
X155138571Y-84741428D01*
X154995714Y-84884285D01*
X154852857Y-85170000D01*
X154852857Y-85598571D01*
X154852857Y-83312857D02*
X156852857Y-83312857D01*
X156281428Y-83312857D02*
X156567142Y-83170000D01*
X156710000Y-83027142D01*
X156852857Y-82741428D01*
X156852857Y-82455714D01*
X154995714Y-80312857D02*
X154852857Y-80598571D01*
X154852857Y-81170000D01*
X154995714Y-81455714D01*
X155281428Y-81598571D01*
X156424285Y-81598571D01*
X156710000Y-81455714D01*
X156852857Y-81170000D01*
X156852857Y-80598571D01*
X156710000Y-80312857D01*
X156424285Y-80170000D01*
X156138571Y-80170000D01*
X155852857Y-81598571D01*
D10*
X199390000Y-52070000D02*
X160020000Y-52070000D01*
X199390000Y-130810000D02*
X199390000Y-52070000D01*
X160020000Y-130810000D02*
X199390000Y-130810000D01*
X160020000Y-52070000D02*
X160020000Y-130810000D01*
X158750000Y-130810000D02*
X102870000Y-130810000D01*
X158750000Y-128270000D02*
X158750000Y-130810000D01*
X158750000Y-52070000D02*
X158750000Y-128270000D01*
X102870000Y-52070000D02*
X158750000Y-52070000D01*
X102870000Y-130810000D02*
X102870000Y-52070000D01*
X120613400Y-87980200D02*
X117163400Y-87980200D01*
X120613400Y-87980200D02*
X122563400Y-87980200D01*
X120613400Y-82860200D02*
X118663400Y-82860200D01*
X120613400Y-82860200D02*
X122563400Y-82860200D01*
X119447052Y-82040800D02*
X118924548Y-82040800D01*
X119447052Y-80620800D02*
X118924548Y-80620800D01*
X122324652Y-91286400D02*
X121802148Y-91286400D01*
X122324652Y-89866400D02*
X121802148Y-89866400D01*
X198180000Y-132020000D02*
X196850000Y-132020000D01*
X198180000Y-133350000D02*
X198180000Y-132020000D01*
X198180000Y-134620000D02*
X195520000Y-134620000D01*
X195520000Y-134620000D02*
X195520000Y-147380000D01*
X198180000Y-134620000D02*
X198180000Y-147380000D01*
X198180000Y-147380000D02*
X195520000Y-147380000D01*
X114806252Y-85396000D02*
X114283748Y-85396000D01*
X114806252Y-86816000D02*
X114283748Y-86816000D01*
X134224437Y-55929729D02*
X134593903Y-56299195D01*
X135228529Y-54925637D02*
X135597995Y-55295103D01*
X137473376Y-61348611D02*
X137608610Y-61853312D01*
X138844990Y-60981088D02*
X138980224Y-61485789D01*
X137619900Y-67738014D02*
X137484666Y-68242715D01*
X138991514Y-68105537D02*
X138856280Y-68610238D01*
X134570271Y-73239037D02*
X134200805Y-73608503D01*
X135574363Y-74243129D02*
X135204897Y-74612595D01*
X129252463Y-76603686D02*
X128747762Y-76738920D01*
X129619986Y-77975300D02*
X129115285Y-78110534D01*
X122813838Y-76662720D02*
X122309137Y-76527486D01*
X122446315Y-78034334D02*
X121941614Y-77899100D01*
X110228748Y-69290000D02*
X110751252Y-69290000D01*
X110228748Y-67870000D02*
X110751252Y-67870000D01*
X130303748Y-60400000D02*
X130826252Y-60400000D01*
X130303748Y-58980000D02*
X130826252Y-58980000D01*
X165100000Y-76260000D02*
X166430000Y-76260000D01*
X166430000Y-76260000D02*
X166430000Y-74930000D01*
X163830000Y-76260000D02*
X163830000Y-73660000D01*
X163830000Y-73660000D02*
X166430000Y-73660000D01*
X166430000Y-73660000D02*
X166430000Y-63440000D01*
X161230000Y-63440000D02*
X166430000Y-63440000D01*
X161230000Y-76260000D02*
X161230000Y-63440000D01*
X161230000Y-76260000D02*
X163830000Y-76260000D01*
X162560000Y-106620000D02*
X161230000Y-106620000D01*
X161230000Y-106620000D02*
X161230000Y-107950000D01*
X161230000Y-109220000D02*
X161230000Y-114360000D01*
X163890000Y-114360000D02*
X161230000Y-114360000D01*
X163890000Y-109220000D02*
X163890000Y-114360000D01*
X163890000Y-109220000D02*
X161230000Y-109220000D01*
X162560000Y-116780000D02*
X161230000Y-116780000D01*
X161230000Y-116780000D02*
X161230000Y-118110000D01*
X161230000Y-119380000D02*
X161230000Y-129600000D01*
X163890000Y-129600000D02*
X161230000Y-129600000D01*
X163890000Y-119380000D02*
X163890000Y-129600000D01*
X163890000Y-119380000D02*
X161230000Y-119380000D01*
X158810000Y-146110000D02*
X158810000Y-144780000D01*
X157480000Y-146110000D02*
X158810000Y-146110000D01*
X158810000Y-143510000D02*
X158810000Y-140910000D01*
X156210000Y-143510000D02*
X158810000Y-143510000D01*
X156210000Y-146110000D02*
X156210000Y-143510000D01*
X158810000Y-140910000D02*
X145990000Y-140910000D01*
X156210000Y-146110000D02*
X145990000Y-146110000D01*
X145990000Y-146110000D02*
X145990000Y-140910000D01*
X106740000Y-134560000D02*
X105410000Y-134560000D01*
X106740000Y-135890000D02*
X106740000Y-134560000D01*
X106740000Y-137160000D02*
X104080000Y-137160000D01*
X104080000Y-137160000D02*
X104080000Y-147380000D01*
X106740000Y-137160000D02*
X106740000Y-147380000D01*
X106740000Y-147380000D02*
X104080000Y-147380000D01*
X134630000Y-142045000D02*
X139700000Y-142045000D01*
X134630000Y-132275000D02*
X139700000Y-132275000D01*
X139700000Y-132275000D02*
X139700000Y-142045000D01*
X134630000Y-132275000D02*
X134630000Y-142045000D01*
X105410000Y-63440000D02*
X104080000Y-63440000D01*
X104080000Y-63440000D02*
X104080000Y-64770000D01*
X104080000Y-66040000D02*
X104080000Y-76260000D01*
X106740000Y-76260000D02*
X104080000Y-76260000D01*
X106740000Y-66040000D02*
X106740000Y-76260000D01*
X106740000Y-66040000D02*
X104080000Y-66040000D01*
X116900000Y-126365000D02*
X116900000Y-125035000D01*
X116900000Y-125035000D02*
X115570000Y-125035000D01*
X114300000Y-125035000D02*
X104080000Y-125035000D01*
X104080000Y-127695000D02*
X104080000Y-125035000D01*
X114300000Y-127695000D02*
X104080000Y-127695000D01*
X114300000Y-127695000D02*
X114300000Y-125035000D01*
X153670000Y-76260000D02*
X155000000Y-76260000D01*
X155000000Y-76260000D02*
X155000000Y-74930000D01*
X152400000Y-76260000D02*
X152400000Y-73660000D01*
X152400000Y-73660000D02*
X155000000Y-73660000D01*
X155000000Y-73660000D02*
X155000000Y-63440000D01*
X149800000Y-63440000D02*
X155000000Y-63440000D01*
X149800000Y-76260000D02*
X149800000Y-63440000D01*
X149800000Y-76260000D02*
X152400000Y-76260000D01*
X105410000Y-106620000D02*
X104080000Y-106620000D01*
X104080000Y-106620000D02*
X104080000Y-107950000D01*
X104080000Y-109220000D02*
X104080000Y-119440000D01*
X106740000Y-119440000D02*
X104080000Y-119440000D01*
X106740000Y-109220000D02*
X106740000Y-119440000D01*
X106740000Y-109220000D02*
X104080000Y-109220000D01*
X105410000Y-99000000D02*
X104080000Y-99000000D01*
X104080000Y-99000000D02*
X104080000Y-100330000D01*
X104080000Y-101600000D02*
X104080000Y-104200000D01*
X106740000Y-104200000D02*
X104080000Y-104200000D01*
X106740000Y-101600000D02*
X106740000Y-104200000D01*
X106740000Y-101600000D02*
X104080000Y-101600000D01*
X105410000Y-91380000D02*
X104080000Y-91380000D01*
X104080000Y-91380000D02*
X104080000Y-92710000D01*
X104080000Y-93980000D02*
X104080000Y-96580000D01*
X106740000Y-96580000D02*
X104080000Y-96580000D01*
X106740000Y-93980000D02*
X106740000Y-96580000D01*
X106740000Y-93980000D02*
X104080000Y-93980000D01*
X105410000Y-78680000D02*
X104080000Y-78680000D01*
X104080000Y-78680000D02*
X104080000Y-80010000D01*
X104080000Y-81280000D02*
X104080000Y-88960000D01*
X106740000Y-88960000D02*
X104080000Y-88960000D01*
X106740000Y-81280000D02*
X106740000Y-88960000D01*
X106740000Y-81280000D02*
X104080000Y-81280000D01*
D11*
X121375304Y-88272580D02*
X121375304Y-89082104D01*
X121327685Y-89177342D01*
X121280066Y-89224961D01*
X121184828Y-89272580D01*
X120994352Y-89272580D01*
X120899114Y-89224961D01*
X120851495Y-89177342D01*
X120803876Y-89082104D01*
X120803876Y-88272580D01*
X119803876Y-89272580D02*
X120375304Y-89272580D01*
X120089590Y-89272580D02*
X120089590Y-88272580D01*
X120184828Y-88415438D01*
X120280066Y-88510676D01*
X120375304Y-88558295D01*
X119352466Y-80037942D02*
X119400085Y-80085561D01*
X119542942Y-80133180D01*
X119638180Y-80133180D01*
X119781038Y-80085561D01*
X119876276Y-79990323D01*
X119923895Y-79895085D01*
X119971514Y-79704609D01*
X119971514Y-79561752D01*
X119923895Y-79371276D01*
X119876276Y-79276038D01*
X119781038Y-79180800D01*
X119638180Y-79133180D01*
X119542942Y-79133180D01*
X119400085Y-79180800D01*
X119352466Y-79228419D01*
X118495323Y-79466514D02*
X118495323Y-80133180D01*
X118733419Y-79085561D02*
X118971514Y-79799847D01*
X118352466Y-79799847D01*
X122293566Y-92648042D02*
X122341185Y-92695661D01*
X122484042Y-92743280D01*
X122579280Y-92743280D01*
X122722138Y-92695661D01*
X122817376Y-92600423D01*
X122864995Y-92505185D01*
X122912614Y-92314709D01*
X122912614Y-92171852D01*
X122864995Y-91981376D01*
X122817376Y-91886138D01*
X122722138Y-91790900D01*
X122579280Y-91743280D01*
X122484042Y-91743280D01*
X122341185Y-91790900D01*
X122293566Y-91838519D01*
X121960233Y-91743280D02*
X121341185Y-91743280D01*
X121674519Y-92124233D01*
X121531661Y-92124233D01*
X121436423Y-92171852D01*
X121388804Y-92219471D01*
X121341185Y-92314709D01*
X121341185Y-92552804D01*
X121388804Y-92648042D01*
X121436423Y-92695661D01*
X121531661Y-92743280D01*
X121817376Y-92743280D01*
X121912614Y-92695661D01*
X121960233Y-92648042D01*
X114711666Y-84908380D02*
X115045000Y-84432190D01*
X115283095Y-84908380D02*
X115283095Y-83908380D01*
X114902142Y-83908380D01*
X114806904Y-83956000D01*
X114759285Y-84003619D01*
X114711666Y-84098857D01*
X114711666Y-84241714D01*
X114759285Y-84336952D01*
X114806904Y-84384571D01*
X114902142Y-84432190D01*
X115283095Y-84432190D01*
X114378333Y-83908380D02*
X113711666Y-83908380D01*
X114140238Y-84908380D01*
X135840369Y-54946132D02*
X136412789Y-54845117D01*
X136244430Y-55350193D02*
X136951537Y-54643087D01*
X136682163Y-54373712D01*
X136581148Y-54340041D01*
X136513804Y-54340041D01*
X136412789Y-54373712D01*
X136311774Y-54474728D01*
X136278102Y-54575743D01*
X136278102Y-54643087D01*
X136311774Y-54744102D01*
X136581148Y-55013476D01*
X135941384Y-53632934D02*
X136076071Y-53767621D01*
X136109743Y-53868636D01*
X136109743Y-53935980D01*
X136076071Y-54104338D01*
X135975056Y-54272697D01*
X135705682Y-54542071D01*
X135604667Y-54575743D01*
X135537323Y-54575743D01*
X135436308Y-54542071D01*
X135301621Y-54407384D01*
X135267949Y-54306369D01*
X135267949Y-54239025D01*
X135301621Y-54138010D01*
X135469980Y-53969651D01*
X135570995Y-53935980D01*
X135638338Y-53935980D01*
X135739354Y-53969651D01*
X135874041Y-54104338D01*
X135907712Y-54205354D01*
X135907712Y-54272697D01*
X135874041Y-54373712D01*
X139356970Y-61339672D02*
X139903207Y-61538400D01*
X139504866Y-61891630D02*
X140470792Y-61632811D01*
X140372194Y-61264839D01*
X140301548Y-61185171D01*
X140243227Y-61151499D01*
X140138910Y-61130152D01*
X140000920Y-61167126D01*
X139921252Y-61237772D01*
X139887580Y-61296093D01*
X139866233Y-61400411D01*
X139964831Y-61768382D01*
X140088726Y-60206920D02*
X140211973Y-60666885D01*
X139764333Y-60836128D01*
X139798005Y-60777807D01*
X139819352Y-60673489D01*
X139757728Y-60443507D01*
X139687082Y-60363839D01*
X139628761Y-60330167D01*
X139524443Y-60308820D01*
X139294461Y-60370444D01*
X139214793Y-60441090D01*
X139181121Y-60499411D01*
X139159774Y-60603728D01*
X139221398Y-60833711D01*
X139292044Y-60913379D01*
X139350365Y-60947051D01*
X140357902Y-68612297D02*
X139984211Y-68167074D01*
X140505799Y-68060339D02*
X139539873Y-67801520D01*
X139441275Y-68169492D01*
X139462623Y-68273809D01*
X139496294Y-68332131D01*
X139575962Y-68402776D01*
X139713952Y-68439751D01*
X139818270Y-68418404D01*
X139876591Y-68384732D01*
X139947237Y-68305064D01*
X140045834Y-67937092D01*
X139492107Y-69267687D02*
X140136058Y-69440233D01*
X139185759Y-68939107D02*
X139937329Y-68893995D01*
X139777108Y-69491949D01*
X136454732Y-75335230D02*
X136353717Y-74762810D01*
X136858793Y-74931169D02*
X136151687Y-74224062D01*
X135882312Y-74493436D01*
X135848641Y-74594451D01*
X135848641Y-74661795D01*
X135882312Y-74762810D01*
X135983328Y-74863825D01*
X136084343Y-74897497D01*
X136151687Y-74897497D01*
X136252702Y-74863825D01*
X136522076Y-74594451D01*
X135511923Y-74863825D02*
X135074190Y-75301558D01*
X135579267Y-75335230D01*
X135478251Y-75436245D01*
X135444580Y-75537261D01*
X135444580Y-75604604D01*
X135478251Y-75705619D01*
X135646610Y-75873978D01*
X135747625Y-75907650D01*
X135814969Y-75907650D01*
X135915984Y-75873978D01*
X136118015Y-75671948D01*
X136151687Y-75570932D01*
X136151687Y-75503589D01*
X129919672Y-79337029D02*
X130118400Y-78790792D01*
X130471630Y-79189133D02*
X130212811Y-78223207D01*
X129844839Y-78321805D01*
X129765171Y-78392451D01*
X129731499Y-78450772D01*
X129710152Y-78555089D01*
X129747126Y-78693079D01*
X129817772Y-78772747D01*
X129876093Y-78806419D01*
X129980411Y-78827766D01*
X130348382Y-78729168D01*
X129317531Y-78561694D02*
X129259209Y-78528023D01*
X129154892Y-78506675D01*
X128924909Y-78568299D01*
X128845241Y-78638945D01*
X128811569Y-78697266D01*
X128790222Y-78801584D01*
X128814872Y-78893577D01*
X128897842Y-79019241D01*
X129597697Y-79423302D01*
X128999743Y-79583524D01*
X121988504Y-79340312D02*
X122433727Y-78966621D01*
X122540462Y-79488209D02*
X122799281Y-78522283D01*
X122431309Y-78423685D01*
X122326992Y-78445033D01*
X122268670Y-78478704D01*
X122198025Y-78558372D01*
X122161050Y-78696362D01*
X122182397Y-78800680D01*
X122216069Y-78859001D01*
X122295737Y-78929647D01*
X122663709Y-79028244D01*
X121068575Y-79093818D02*
X121620533Y-79241715D01*
X121344554Y-79167766D02*
X121603373Y-78201841D01*
X121658392Y-78364479D01*
X121725735Y-78481122D01*
X121805403Y-78551768D01*
X110656666Y-70587142D02*
X110704285Y-70634761D01*
X110847142Y-70682380D01*
X110942380Y-70682380D01*
X111085238Y-70634761D01*
X111180476Y-70539523D01*
X111228095Y-70444285D01*
X111275714Y-70253809D01*
X111275714Y-70110952D01*
X111228095Y-69920476D01*
X111180476Y-69825238D01*
X111085238Y-69730000D01*
X110942380Y-69682380D01*
X110847142Y-69682380D01*
X110704285Y-69730000D01*
X110656666Y-69777619D01*
X110275714Y-69777619D02*
X110228095Y-69730000D01*
X110132857Y-69682380D01*
X109894761Y-69682380D01*
X109799523Y-69730000D01*
X109751904Y-69777619D01*
X109704285Y-69872857D01*
X109704285Y-69968095D01*
X109751904Y-70110952D01*
X110323333Y-70682380D01*
X109704285Y-70682380D01*
X127166666Y-60047142D02*
X127214285Y-60094761D01*
X127357142Y-60142380D01*
X127452380Y-60142380D01*
X127595238Y-60094761D01*
X127690476Y-59999523D01*
X127738095Y-59904285D01*
X127785714Y-59713809D01*
X127785714Y-59570952D01*
X127738095Y-59380476D01*
X127690476Y-59285238D01*
X127595238Y-59190000D01*
X127452380Y-59142380D01*
X127357142Y-59142380D01*
X127214285Y-59190000D01*
X127166666Y-59237619D01*
X126214285Y-60142380D02*
X126785714Y-60142380D01*
X126500000Y-60142380D02*
X126500000Y-59142380D01*
X126595238Y-59285238D01*
X126690476Y-59380476D01*
X126785714Y-59428095D01*
M02*
