%TF.GenerationSoftware,KiCad,Pcbnew,5.1.6-c6e7f7d~86~ubuntu18.04.1*%
%TF.CreationDate,2020-06-20T09:42:55-04:00*%
%TF.ProjectId,dual_MS20_VCF,6475616c-5f4d-4533-9230-5f5643462e6b,rev?*%
%TF.SameCoordinates,Original*%
%TF.FileFunction,Paste,Top*%
%TF.FilePolarity,Positive*%
%FSLAX46Y46*%
G04 Gerber Fmt 4.6, Leading zero omitted, Abs format (unit mm)*
G04 Created by KiCad (PCBNEW 5.1.6-c6e7f7d~86~ubuntu18.04.1) date 2020-06-20 09:42:55*
%MOMM*%
%LPD*%
G01*
G04 APERTURE LIST*
G04 APERTURE END LIST*
%TO.C,C24*%
G36*
G01*
X104725000Y-101800001D02*
X104725000Y-100899999D01*
G75*
G02*
X104974999Y-100650000I249999J0D01*
G01*
X105625001Y-100650000D01*
G75*
G02*
X105875000Y-100899999I0J-249999D01*
G01*
X105875000Y-101800001D01*
G75*
G02*
X105625001Y-102050000I-249999J0D01*
G01*
X104974999Y-102050000D01*
G75*
G02*
X104725000Y-101800001I0J249999D01*
G01*
G37*
G36*
G01*
X102675000Y-101800001D02*
X102675000Y-100899999D01*
G75*
G02*
X102924999Y-100650000I249999J0D01*
G01*
X103575001Y-100650000D01*
G75*
G02*
X103825000Y-100899999I0J-249999D01*
G01*
X103825000Y-101800001D01*
G75*
G02*
X103575001Y-102050000I-249999J0D01*
G01*
X102924999Y-102050000D01*
G75*
G02*
X102675000Y-101800001I0J249999D01*
G01*
G37*
%TD*%
%TO.C,C23*%
G36*
G01*
X116500000Y-91450001D02*
X116500000Y-90549999D01*
G75*
G02*
X116749999Y-90300000I249999J0D01*
G01*
X117400001Y-90300000D01*
G75*
G02*
X117650000Y-90549999I0J-249999D01*
G01*
X117650000Y-91450001D01*
G75*
G02*
X117400001Y-91700000I-249999J0D01*
G01*
X116749999Y-91700000D01*
G75*
G02*
X116500000Y-91450001I0J249999D01*
G01*
G37*
G36*
G01*
X114450000Y-91450001D02*
X114450000Y-90549999D01*
G75*
G02*
X114699999Y-90300000I249999J0D01*
G01*
X115350001Y-90300000D01*
G75*
G02*
X115600000Y-90549999I0J-249999D01*
G01*
X115600000Y-91450001D01*
G75*
G02*
X115350001Y-91700000I-249999J0D01*
G01*
X114699999Y-91700000D01*
G75*
G02*
X114450000Y-91450001I0J249999D01*
G01*
G37*
%TD*%
%TO.C,C22*%
G36*
G01*
X146025000Y-135100001D02*
X146025000Y-134199999D01*
G75*
G02*
X146274999Y-133950000I249999J0D01*
G01*
X146925001Y-133950000D01*
G75*
G02*
X147175000Y-134199999I0J-249999D01*
G01*
X147175000Y-135100001D01*
G75*
G02*
X146925001Y-135350000I-249999J0D01*
G01*
X146274999Y-135350000D01*
G75*
G02*
X146025000Y-135100001I0J249999D01*
G01*
G37*
G36*
G01*
X143975000Y-135100001D02*
X143975000Y-134199999D01*
G75*
G02*
X144224999Y-133950000I249999J0D01*
G01*
X144875001Y-133950000D01*
G75*
G02*
X145125000Y-134199999I0J-249999D01*
G01*
X145125000Y-135100001D01*
G75*
G02*
X144875001Y-135350000I-249999J0D01*
G01*
X144224999Y-135350000D01*
G75*
G02*
X143975000Y-135100001I0J249999D01*
G01*
G37*
%TD*%
%TO.C,C21*%
G36*
G01*
X160075000Y-141450001D02*
X160075000Y-140549999D01*
G75*
G02*
X160324999Y-140300000I249999J0D01*
G01*
X160975001Y-140300000D01*
G75*
G02*
X161225000Y-140549999I0J-249999D01*
G01*
X161225000Y-141450001D01*
G75*
G02*
X160975001Y-141700000I-249999J0D01*
G01*
X160324999Y-141700000D01*
G75*
G02*
X160075000Y-141450001I0J249999D01*
G01*
G37*
G36*
G01*
X158025000Y-141450001D02*
X158025000Y-140549999D01*
G75*
G02*
X158274999Y-140300000I249999J0D01*
G01*
X158925001Y-140300000D01*
G75*
G02*
X159175000Y-140549999I0J-249999D01*
G01*
X159175000Y-141450001D01*
G75*
G02*
X158925001Y-141700000I-249999J0D01*
G01*
X158274999Y-141700000D01*
G75*
G02*
X158025000Y-141450001I0J249999D01*
G01*
G37*
%TD*%
%TO.C,C20*%
G36*
G01*
X143375000Y-118550001D02*
X143375000Y-117649999D01*
G75*
G02*
X143624999Y-117400000I249999J0D01*
G01*
X144275001Y-117400000D01*
G75*
G02*
X144525000Y-117649999I0J-249999D01*
G01*
X144525000Y-118550001D01*
G75*
G02*
X144275001Y-118800000I-249999J0D01*
G01*
X143624999Y-118800000D01*
G75*
G02*
X143375000Y-118550001I0J249999D01*
G01*
G37*
G36*
G01*
X141325000Y-118550001D02*
X141325000Y-117649999D01*
G75*
G02*
X141574999Y-117400000I249999J0D01*
G01*
X142225001Y-117400000D01*
G75*
G02*
X142475000Y-117649999I0J-249999D01*
G01*
X142475000Y-118550001D01*
G75*
G02*
X142225001Y-118800000I-249999J0D01*
G01*
X141574999Y-118800000D01*
G75*
G02*
X141325000Y-118550001I0J249999D01*
G01*
G37*
%TD*%
%TO.C,C19*%
G36*
G01*
X159775000Y-115750001D02*
X159775000Y-114849999D01*
G75*
G02*
X160024999Y-114600000I249999J0D01*
G01*
X160675001Y-114600000D01*
G75*
G02*
X160925000Y-114849999I0J-249999D01*
G01*
X160925000Y-115750001D01*
G75*
G02*
X160675001Y-116000000I-249999J0D01*
G01*
X160024999Y-116000000D01*
G75*
G02*
X159775000Y-115750001I0J249999D01*
G01*
G37*
G36*
G01*
X157725000Y-115750001D02*
X157725000Y-114849999D01*
G75*
G02*
X157974999Y-114600000I249999J0D01*
G01*
X158625001Y-114600000D01*
G75*
G02*
X158875000Y-114849999I0J-249999D01*
G01*
X158875000Y-115750001D01*
G75*
G02*
X158625001Y-116000000I-249999J0D01*
G01*
X157974999Y-116000000D01*
G75*
G02*
X157725000Y-115750001I0J249999D01*
G01*
G37*
%TD*%
%TO.C,C18*%
G36*
G01*
X146375000Y-99700001D02*
X146375000Y-98799999D01*
G75*
G02*
X146624999Y-98550000I249999J0D01*
G01*
X147275001Y-98550000D01*
G75*
G02*
X147525000Y-98799999I0J-249999D01*
G01*
X147525000Y-99700001D01*
G75*
G02*
X147275001Y-99950000I-249999J0D01*
G01*
X146624999Y-99950000D01*
G75*
G02*
X146375000Y-99700001I0J249999D01*
G01*
G37*
G36*
G01*
X144325000Y-99700001D02*
X144325000Y-98799999D01*
G75*
G02*
X144574999Y-98550000I249999J0D01*
G01*
X145225001Y-98550000D01*
G75*
G02*
X145475000Y-98799999I0J-249999D01*
G01*
X145475000Y-99700001D01*
G75*
G02*
X145225001Y-99950000I-249999J0D01*
G01*
X144574999Y-99950000D01*
G75*
G02*
X144325000Y-99700001I0J249999D01*
G01*
G37*
%TD*%
%TO.C,C17*%
G36*
G01*
X157775000Y-110950001D02*
X157775000Y-110049999D01*
G75*
G02*
X158024999Y-109800000I249999J0D01*
G01*
X158675001Y-109800000D01*
G75*
G02*
X158925000Y-110049999I0J-249999D01*
G01*
X158925000Y-110950001D01*
G75*
G02*
X158675001Y-111200000I-249999J0D01*
G01*
X158024999Y-111200000D01*
G75*
G02*
X157775000Y-110950001I0J249999D01*
G01*
G37*
G36*
G01*
X155725000Y-110950001D02*
X155725000Y-110049999D01*
G75*
G02*
X155974999Y-109800000I249999J0D01*
G01*
X156625001Y-109800000D01*
G75*
G02*
X156875000Y-110049999I0J-249999D01*
G01*
X156875000Y-110950001D01*
G75*
G02*
X156625001Y-111200000I-249999J0D01*
G01*
X155974999Y-111200000D01*
G75*
G02*
X155725000Y-110950001I0J249999D01*
G01*
G37*
%TD*%
%TO.C,C16*%
G36*
G01*
X151925000Y-87849999D02*
X151925000Y-88750001D01*
G75*
G02*
X151675001Y-89000000I-249999J0D01*
G01*
X151024999Y-89000000D01*
G75*
G02*
X150775000Y-88750001I0J249999D01*
G01*
X150775000Y-87849999D01*
G75*
G02*
X151024999Y-87600000I249999J0D01*
G01*
X151675001Y-87600000D01*
G75*
G02*
X151925000Y-87849999I0J-249999D01*
G01*
G37*
G36*
G01*
X153975000Y-87849999D02*
X153975000Y-88750001D01*
G75*
G02*
X153725001Y-89000000I-249999J0D01*
G01*
X153074999Y-89000000D01*
G75*
G02*
X152825000Y-88750001I0J249999D01*
G01*
X152825000Y-87849999D01*
G75*
G02*
X153074999Y-87600000I249999J0D01*
G01*
X153725001Y-87600000D01*
G75*
G02*
X153975000Y-87849999I0J-249999D01*
G01*
G37*
%TD*%
%TO.C,C15*%
G36*
G01*
X157825000Y-98650001D02*
X157825000Y-97749999D01*
G75*
G02*
X158074999Y-97500000I249999J0D01*
G01*
X158725001Y-97500000D01*
G75*
G02*
X158975000Y-97749999I0J-249999D01*
G01*
X158975000Y-98650001D01*
G75*
G02*
X158725001Y-98900000I-249999J0D01*
G01*
X158074999Y-98900000D01*
G75*
G02*
X157825000Y-98650001I0J249999D01*
G01*
G37*
G36*
G01*
X155775000Y-98650001D02*
X155775000Y-97749999D01*
G75*
G02*
X156024999Y-97500000I249999J0D01*
G01*
X156675001Y-97500000D01*
G75*
G02*
X156925000Y-97749999I0J-249999D01*
G01*
X156925000Y-98650001D01*
G75*
G02*
X156675001Y-98900000I-249999J0D01*
G01*
X156024999Y-98900000D01*
G75*
G02*
X155775000Y-98650001I0J249999D01*
G01*
G37*
%TD*%
%TO.C,C14*%
G36*
G01*
X146025000Y-72950001D02*
X146025000Y-72049999D01*
G75*
G02*
X146274999Y-71800000I249999J0D01*
G01*
X146925001Y-71800000D01*
G75*
G02*
X147175000Y-72049999I0J-249999D01*
G01*
X147175000Y-72950001D01*
G75*
G02*
X146925001Y-73200000I-249999J0D01*
G01*
X146274999Y-73200000D01*
G75*
G02*
X146025000Y-72950001I0J249999D01*
G01*
G37*
G36*
G01*
X143975000Y-72950001D02*
X143975000Y-72049999D01*
G75*
G02*
X144224999Y-71800000I249999J0D01*
G01*
X144875001Y-71800000D01*
G75*
G02*
X145125000Y-72049999I0J-249999D01*
G01*
X145125000Y-72950001D01*
G75*
G02*
X144875001Y-73200000I-249999J0D01*
G01*
X144224999Y-73200000D01*
G75*
G02*
X143975000Y-72950001I0J249999D01*
G01*
G37*
%TD*%
%TO.C,C13*%
G36*
G01*
X160025000Y-69550001D02*
X160025000Y-68649999D01*
G75*
G02*
X160274999Y-68400000I249999J0D01*
G01*
X160925001Y-68400000D01*
G75*
G02*
X161175000Y-68649999I0J-249999D01*
G01*
X161175000Y-69550001D01*
G75*
G02*
X160925001Y-69800000I-249999J0D01*
G01*
X160274999Y-69800000D01*
G75*
G02*
X160025000Y-69550001I0J249999D01*
G01*
G37*
G36*
G01*
X157975000Y-69550001D02*
X157975000Y-68649999D01*
G75*
G02*
X158224999Y-68400000I249999J0D01*
G01*
X158875001Y-68400000D01*
G75*
G02*
X159125000Y-68649999I0J-249999D01*
G01*
X159125000Y-69550001D01*
G75*
G02*
X158875001Y-69800000I-249999J0D01*
G01*
X158224999Y-69800000D01*
G75*
G02*
X157975000Y-69550001I0J249999D01*
G01*
G37*
%TD*%
%TO.C,C12*%
G36*
G01*
X146125000Y-54450001D02*
X146125000Y-53549999D01*
G75*
G02*
X146374999Y-53300000I249999J0D01*
G01*
X147025001Y-53300000D01*
G75*
G02*
X147275000Y-53549999I0J-249999D01*
G01*
X147275000Y-54450001D01*
G75*
G02*
X147025001Y-54700000I-249999J0D01*
G01*
X146374999Y-54700000D01*
G75*
G02*
X146125000Y-54450001I0J249999D01*
G01*
G37*
G36*
G01*
X144075000Y-54450001D02*
X144075000Y-53549999D01*
G75*
G02*
X144324999Y-53300000I249999J0D01*
G01*
X144975001Y-53300000D01*
G75*
G02*
X145225000Y-53549999I0J-249999D01*
G01*
X145225000Y-54450001D01*
G75*
G02*
X144975001Y-54700000I-249999J0D01*
G01*
X144324999Y-54700000D01*
G75*
G02*
X144075000Y-54450001I0J249999D01*
G01*
G37*
%TD*%
%TO.C,C11*%
G36*
G01*
X157725000Y-64250001D02*
X157725000Y-63349999D01*
G75*
G02*
X157974999Y-63100000I249999J0D01*
G01*
X158625001Y-63100000D01*
G75*
G02*
X158875000Y-63349999I0J-249999D01*
G01*
X158875000Y-64250001D01*
G75*
G02*
X158625001Y-64500000I-249999J0D01*
G01*
X157974999Y-64500000D01*
G75*
G02*
X157725000Y-64250001I0J249999D01*
G01*
G37*
G36*
G01*
X155675000Y-64250001D02*
X155675000Y-63349999D01*
G75*
G02*
X155924999Y-63100000I249999J0D01*
G01*
X156575001Y-63100000D01*
G75*
G02*
X156825000Y-63349999I0J-249999D01*
G01*
X156825000Y-64250001D01*
G75*
G02*
X156575001Y-64500000I-249999J0D01*
G01*
X155924999Y-64500000D01*
G75*
G02*
X155675000Y-64250001I0J249999D01*
G01*
G37*
%TD*%
M02*
