%TF.GenerationSoftware,KiCad,Pcbnew,5.1.6-c6e7f7d~86~ubuntu18.04.1*%
%TF.CreationDate,2020-06-20T09:42:55-04:00*%
%TF.ProjectId,dual_MS20_VCF,6475616c-5f4d-4533-9230-5f5643462e6b,rev?*%
%TF.SameCoordinates,Original*%
%TF.FileFunction,Legend,Bot*%
%TF.FilePolarity,Positive*%
%FSLAX46Y46*%
G04 Gerber Fmt 4.6, Leading zero omitted, Abs format (unit mm)*
G04 Created by KiCad (PCBNEW 5.1.6-c6e7f7d~86~ubuntu18.04.1) date 2020-06-20 09:42:55*
%MOMM*%
%LPD*%
G01*
G04 APERTURE LIST*
%ADD10C,0.150000*%
%ADD11C,0.120000*%
G04 APERTURE END LIST*
D10*
X106497380Y-122398452D02*
X106449761Y-122303214D01*
X106354523Y-122255595D01*
X105497380Y-122255595D01*
X105830714Y-122779404D02*
X106830714Y-122779404D01*
X105878333Y-122779404D02*
X105830714Y-122874642D01*
X105830714Y-123065119D01*
X105878333Y-123160357D01*
X105925952Y-123207976D01*
X106021190Y-123255595D01*
X106306904Y-123255595D01*
X106402142Y-123207976D01*
X106449761Y-123160357D01*
X106497380Y-123065119D01*
X106497380Y-122874642D01*
X106449761Y-122779404D01*
X105830714Y-123541309D02*
X105830714Y-123922261D01*
X106497380Y-123684166D02*
X105640238Y-123684166D01*
X105545000Y-123731785D01*
X105497380Y-123827023D01*
X105497380Y-123922261D01*
X106497380Y-125160357D02*
X106449761Y-125065119D01*
X106402142Y-125017500D01*
X106306904Y-124969880D01*
X106021190Y-124969880D01*
X105925952Y-125017500D01*
X105878333Y-125065119D01*
X105830714Y-125160357D01*
X105830714Y-125303214D01*
X105878333Y-125398452D01*
X105925952Y-125446071D01*
X106021190Y-125493690D01*
X106306904Y-125493690D01*
X106402142Y-125446071D01*
X106449761Y-125398452D01*
X106497380Y-125303214D01*
X106497380Y-125160357D01*
X105830714Y-126350833D02*
X106497380Y-126350833D01*
X105830714Y-125922261D02*
X106354523Y-125922261D01*
X106449761Y-125969880D01*
X106497380Y-126065119D01*
X106497380Y-126207976D01*
X106449761Y-126303214D01*
X106402142Y-126350833D01*
X105830714Y-126684166D02*
X105830714Y-127065119D01*
X105497380Y-126827023D02*
X106354523Y-126827023D01*
X106449761Y-126874642D01*
X106497380Y-126969880D01*
X106497380Y-127065119D01*
X105830714Y-127398452D02*
X106830714Y-127398452D01*
X105878333Y-127398452D02*
X105830714Y-127493690D01*
X105830714Y-127684166D01*
X105878333Y-127779404D01*
X105925952Y-127827023D01*
X106021190Y-127874642D01*
X106306904Y-127874642D01*
X106402142Y-127827023D01*
X106449761Y-127779404D01*
X106497380Y-127684166D01*
X106497380Y-127493690D01*
X106449761Y-127398452D01*
X105830714Y-128731785D02*
X106497380Y-128731785D01*
X105830714Y-128303214D02*
X106354523Y-128303214D01*
X106449761Y-128350833D01*
X106497380Y-128446071D01*
X106497380Y-128588928D01*
X106449761Y-128684166D01*
X106402142Y-128731785D01*
X105830714Y-129065119D02*
X105830714Y-129446071D01*
X105497380Y-129207976D02*
X106354523Y-129207976D01*
X106449761Y-129255595D01*
X106497380Y-129350833D01*
X106497380Y-129446071D01*
X105830714Y-130541309D02*
X106497380Y-130541309D01*
X105925952Y-130541309D02*
X105878333Y-130588928D01*
X105830714Y-130684166D01*
X105830714Y-130827023D01*
X105878333Y-130922261D01*
X105973571Y-130969880D01*
X106497380Y-130969880D01*
X106497380Y-131588928D02*
X106449761Y-131493690D01*
X106402142Y-131446071D01*
X106306904Y-131398452D01*
X106021190Y-131398452D01*
X105925952Y-131446071D01*
X105878333Y-131493690D01*
X105830714Y-131588928D01*
X105830714Y-131731785D01*
X105878333Y-131827023D01*
X105925952Y-131874642D01*
X106021190Y-131922261D01*
X106306904Y-131922261D01*
X106402142Y-131874642D01*
X106449761Y-131827023D01*
X106497380Y-131731785D01*
X106497380Y-131588928D01*
X106497380Y-132350833D02*
X105830714Y-132350833D01*
X106021190Y-132350833D02*
X105925952Y-132398452D01*
X105878333Y-132446071D01*
X105830714Y-132541309D01*
X105830714Y-132636547D01*
X106497380Y-132969880D02*
X105830714Y-132969880D01*
X105925952Y-132969880D02*
X105878333Y-133017500D01*
X105830714Y-133112738D01*
X105830714Y-133255595D01*
X105878333Y-133350833D01*
X105973571Y-133398452D01*
X106497380Y-133398452D01*
X105973571Y-133398452D02*
X105878333Y-133446071D01*
X105830714Y-133541309D01*
X105830714Y-133684166D01*
X105878333Y-133779404D01*
X105973571Y-133827023D01*
X106497380Y-133827023D01*
X106497380Y-134731785D02*
X105973571Y-134731785D01*
X105878333Y-134684166D01*
X105830714Y-134588928D01*
X105830714Y-134398452D01*
X105878333Y-134303214D01*
X106449761Y-134731785D02*
X106497380Y-134636547D01*
X106497380Y-134398452D01*
X106449761Y-134303214D01*
X106354523Y-134255595D01*
X106259285Y-134255595D01*
X106164047Y-134303214D01*
X106116428Y-134398452D01*
X106116428Y-134636547D01*
X106068809Y-134731785D01*
X106497380Y-135350833D02*
X106449761Y-135255595D01*
X106354523Y-135207976D01*
X105497380Y-135207976D01*
X108370714Y-122684166D02*
X109180238Y-122684166D01*
X109275476Y-122636547D01*
X109323095Y-122588928D01*
X109370714Y-122493690D01*
X109370714Y-122350833D01*
X109323095Y-122255595D01*
X108989761Y-122684166D02*
X109037380Y-122588928D01*
X109037380Y-122398452D01*
X108989761Y-122303214D01*
X108942142Y-122255595D01*
X108846904Y-122207976D01*
X108561190Y-122207976D01*
X108465952Y-122255595D01*
X108418333Y-122303214D01*
X108370714Y-122398452D01*
X108370714Y-122588928D01*
X108418333Y-122684166D01*
X108370714Y-123160357D02*
X109037380Y-123160357D01*
X108465952Y-123160357D02*
X108418333Y-123207976D01*
X108370714Y-123303214D01*
X108370714Y-123446071D01*
X108418333Y-123541309D01*
X108513571Y-123588928D01*
X109037380Y-123588928D01*
X109037380Y-124493690D02*
X108037380Y-124493690D01*
X108989761Y-124493690D02*
X109037380Y-124398452D01*
X109037380Y-124207976D01*
X108989761Y-124112738D01*
X108942142Y-124065119D01*
X108846904Y-124017500D01*
X108561190Y-124017500D01*
X108465952Y-124065119D01*
X108418333Y-124112738D01*
X108370714Y-124207976D01*
X108370714Y-124398452D01*
X108418333Y-124493690D01*
X197355833Y-54682380D02*
X197355833Y-53682380D01*
X197355833Y-54634761D02*
X197451071Y-54682380D01*
X197641547Y-54682380D01*
X197736785Y-54634761D01*
X197784404Y-54587142D01*
X197832023Y-54491904D01*
X197832023Y-54206190D01*
X197784404Y-54110952D01*
X197736785Y-54063333D01*
X197641547Y-54015714D01*
X197451071Y-54015714D01*
X197355833Y-54063333D01*
X196451071Y-54015714D02*
X196451071Y-54682380D01*
X196879642Y-54015714D02*
X196879642Y-54539523D01*
X196832023Y-54634761D01*
X196736785Y-54682380D01*
X196593928Y-54682380D01*
X196498690Y-54634761D01*
X196451071Y-54587142D01*
X195546309Y-54682380D02*
X195546309Y-54158571D01*
X195593928Y-54063333D01*
X195689166Y-54015714D01*
X195879642Y-54015714D01*
X195974880Y-54063333D01*
X195546309Y-54634761D02*
X195641547Y-54682380D01*
X195879642Y-54682380D01*
X195974880Y-54634761D01*
X196022500Y-54539523D01*
X196022500Y-54444285D01*
X195974880Y-54349047D01*
X195879642Y-54301428D01*
X195641547Y-54301428D01*
X195546309Y-54253809D01*
X194927261Y-54682380D02*
X195022500Y-54634761D01*
X195070119Y-54539523D01*
X195070119Y-53682380D01*
X193784404Y-54682380D02*
X193784404Y-53682380D01*
X193451071Y-54396666D01*
X193117738Y-53682380D01*
X193117738Y-54682380D01*
X192689166Y-54634761D02*
X192546309Y-54682380D01*
X192308214Y-54682380D01*
X192212976Y-54634761D01*
X192165357Y-54587142D01*
X192117738Y-54491904D01*
X192117738Y-54396666D01*
X192165357Y-54301428D01*
X192212976Y-54253809D01*
X192308214Y-54206190D01*
X192498690Y-54158571D01*
X192593928Y-54110952D01*
X192641547Y-54063333D01*
X192689166Y-53968095D01*
X192689166Y-53872857D01*
X192641547Y-53777619D01*
X192593928Y-53730000D01*
X192498690Y-53682380D01*
X192260595Y-53682380D01*
X192117738Y-53730000D01*
X191736785Y-53777619D02*
X191689166Y-53730000D01*
X191593928Y-53682380D01*
X191355833Y-53682380D01*
X191260595Y-53730000D01*
X191212976Y-53777619D01*
X191165357Y-53872857D01*
X191165357Y-53968095D01*
X191212976Y-54110952D01*
X191784404Y-54682380D01*
X191165357Y-54682380D01*
X190546309Y-53682380D02*
X190451071Y-53682380D01*
X190355833Y-53730000D01*
X190308214Y-53777619D01*
X190260595Y-53872857D01*
X190212976Y-54063333D01*
X190212976Y-54301428D01*
X190260595Y-54491904D01*
X190308214Y-54587142D01*
X190355833Y-54634761D01*
X190451071Y-54682380D01*
X190546309Y-54682380D01*
X190641547Y-54634761D01*
X190689166Y-54587142D01*
X190736785Y-54491904D01*
X190784404Y-54301428D01*
X190784404Y-54063333D01*
X190736785Y-53872857D01*
X190689166Y-53777619D01*
X190641547Y-53730000D01*
X190546309Y-53682380D01*
X189070119Y-54634761D02*
X188974880Y-54682380D01*
X188784404Y-54682380D01*
X188689166Y-54634761D01*
X188641547Y-54539523D01*
X188641547Y-54491904D01*
X188689166Y-54396666D01*
X188784404Y-54349047D01*
X188927261Y-54349047D01*
X189022500Y-54301428D01*
X189070119Y-54206190D01*
X189070119Y-54158571D01*
X189022500Y-54063333D01*
X188927261Y-54015714D01*
X188784404Y-54015714D01*
X188689166Y-54063333D01*
X188355833Y-54015714D02*
X187974880Y-54015714D01*
X188212976Y-53682380D02*
X188212976Y-54539523D01*
X188165357Y-54634761D01*
X188070119Y-54682380D01*
X187974880Y-54682380D01*
X187736785Y-54015714D02*
X187498690Y-54682380D01*
X187260595Y-54015714D02*
X187498690Y-54682380D01*
X187593928Y-54920476D01*
X187641547Y-54968095D01*
X187736785Y-55015714D01*
X186736785Y-54682380D02*
X186832023Y-54634761D01*
X186879642Y-54539523D01*
X186879642Y-53682380D01*
X185974880Y-54634761D02*
X186070119Y-54682380D01*
X186260595Y-54682380D01*
X186355833Y-54634761D01*
X186403452Y-54539523D01*
X186403452Y-54158571D01*
X186355833Y-54063333D01*
X186260595Y-54015714D01*
X186070119Y-54015714D01*
X185974880Y-54063333D01*
X185927261Y-54158571D01*
X185927261Y-54253809D01*
X186403452Y-54349047D01*
X184879642Y-53682380D02*
X184546309Y-54682380D01*
X184212976Y-53682380D01*
X183308214Y-54587142D02*
X183355833Y-54634761D01*
X183498690Y-54682380D01*
X183593928Y-54682380D01*
X183736785Y-54634761D01*
X183832023Y-54539523D01*
X183879642Y-54444285D01*
X183927261Y-54253809D01*
X183927261Y-54110952D01*
X183879642Y-53920476D01*
X183832023Y-53825238D01*
X183736785Y-53730000D01*
X183593928Y-53682380D01*
X183498690Y-53682380D01*
X183355833Y-53730000D01*
X183308214Y-53777619D01*
X182546309Y-54158571D02*
X182879642Y-54158571D01*
X182879642Y-54682380D02*
X182879642Y-53682380D01*
X182403452Y-53682380D01*
X197784404Y-56332380D02*
X197784404Y-55665714D01*
X197784404Y-55856190D02*
X197736785Y-55760952D01*
X197689166Y-55713333D01*
X197593928Y-55665714D01*
X197498690Y-55665714D01*
X196784404Y-56284761D02*
X196879642Y-56332380D01*
X197070119Y-56332380D01*
X197165357Y-56284761D01*
X197212976Y-56189523D01*
X197212976Y-55808571D01*
X197165357Y-55713333D01*
X197070119Y-55665714D01*
X196879642Y-55665714D01*
X196784404Y-55713333D01*
X196736785Y-55808571D01*
X196736785Y-55903809D01*
X197212976Y-55999047D01*
X196403452Y-55665714D02*
X196165357Y-56332380D01*
X195927261Y-55665714D01*
X194593928Y-55332380D02*
X194498690Y-55332380D01*
X194403452Y-55380000D01*
X194355833Y-55427619D01*
X194308214Y-55522857D01*
X194260595Y-55713333D01*
X194260595Y-55951428D01*
X194308214Y-56141904D01*
X194355833Y-56237142D01*
X194403452Y-56284761D01*
X194498690Y-56332380D01*
X194593928Y-56332380D01*
X194689166Y-56284761D01*
X194736785Y-56237142D01*
X194784404Y-56141904D01*
X194832023Y-55951428D01*
X194832023Y-55713333D01*
X194784404Y-55522857D01*
X194736785Y-55427619D01*
X194689166Y-55380000D01*
X194593928Y-55332380D01*
X197832023Y-57077619D02*
X197784404Y-57030000D01*
X197689166Y-56982380D01*
X197451071Y-56982380D01*
X197355833Y-57030000D01*
X197308214Y-57077619D01*
X197260595Y-57172857D01*
X197260595Y-57268095D01*
X197308214Y-57410952D01*
X197879642Y-57982380D01*
X197260595Y-57982380D01*
X196641547Y-56982380D02*
X196546309Y-56982380D01*
X196451071Y-57030000D01*
X196403452Y-57077619D01*
X196355833Y-57172857D01*
X196308214Y-57363333D01*
X196308214Y-57601428D01*
X196355833Y-57791904D01*
X196403452Y-57887142D01*
X196451071Y-57934761D01*
X196546309Y-57982380D01*
X196641547Y-57982380D01*
X196736785Y-57934761D01*
X196784404Y-57887142D01*
X196832023Y-57791904D01*
X196879642Y-57601428D01*
X196879642Y-57363333D01*
X196832023Y-57172857D01*
X196784404Y-57077619D01*
X196736785Y-57030000D01*
X196641547Y-56982380D01*
X195927261Y-57077619D02*
X195879642Y-57030000D01*
X195784404Y-56982380D01*
X195546309Y-56982380D01*
X195451071Y-57030000D01*
X195403452Y-57077619D01*
X195355833Y-57172857D01*
X195355833Y-57268095D01*
X195403452Y-57410952D01*
X195974880Y-57982380D01*
X195355833Y-57982380D01*
X194736785Y-56982380D02*
X194641547Y-56982380D01*
X194546309Y-57030000D01*
X194498690Y-57077619D01*
X194451071Y-57172857D01*
X194403452Y-57363333D01*
X194403452Y-57601428D01*
X194451071Y-57791904D01*
X194498690Y-57887142D01*
X194546309Y-57934761D01*
X194641547Y-57982380D01*
X194736785Y-57982380D01*
X194832023Y-57934761D01*
X194879642Y-57887142D01*
X194927261Y-57791904D01*
X194974880Y-57601428D01*
X194974880Y-57363333D01*
X194927261Y-57172857D01*
X194879642Y-57077619D01*
X194832023Y-57030000D01*
X194736785Y-56982380D01*
X193974880Y-57601428D02*
X193212976Y-57601428D01*
X192546309Y-56982380D02*
X192451071Y-56982380D01*
X192355833Y-57030000D01*
X192308214Y-57077619D01*
X192260595Y-57172857D01*
X192212976Y-57363333D01*
X192212976Y-57601428D01*
X192260595Y-57791904D01*
X192308214Y-57887142D01*
X192355833Y-57934761D01*
X192451071Y-57982380D01*
X192546309Y-57982380D01*
X192641547Y-57934761D01*
X192689166Y-57887142D01*
X192736785Y-57791904D01*
X192784404Y-57601428D01*
X192784404Y-57363333D01*
X192736785Y-57172857D01*
X192689166Y-57077619D01*
X192641547Y-57030000D01*
X192546309Y-56982380D01*
X191355833Y-56982380D02*
X191546309Y-56982380D01*
X191641547Y-57030000D01*
X191689166Y-57077619D01*
X191784404Y-57220476D01*
X191832023Y-57410952D01*
X191832023Y-57791904D01*
X191784404Y-57887142D01*
X191736785Y-57934761D01*
X191641547Y-57982380D01*
X191451071Y-57982380D01*
X191355833Y-57934761D01*
X191308214Y-57887142D01*
X191260595Y-57791904D01*
X191260595Y-57553809D01*
X191308214Y-57458571D01*
X191355833Y-57410952D01*
X191451071Y-57363333D01*
X191641547Y-57363333D01*
X191736785Y-57410952D01*
X191784404Y-57458571D01*
X191832023Y-57553809D01*
X190832023Y-57601428D02*
X190070119Y-57601428D01*
X189070119Y-57982380D02*
X189641547Y-57982380D01*
X189355833Y-57982380D02*
X189355833Y-56982380D01*
X189451071Y-57125238D01*
X189546309Y-57220476D01*
X189641547Y-57268095D01*
X188736785Y-56982380D02*
X188070119Y-56982380D01*
X188498690Y-57982380D01*
X114059642Y-68365714D02*
X113821547Y-69032380D01*
X113583452Y-68365714D01*
X113202500Y-68651428D02*
X112440595Y-68651428D01*
X111202500Y-69032380D02*
X111202500Y-68365714D01*
X111202500Y-68032380D02*
X111250119Y-68080000D01*
X111202500Y-68127619D01*
X111154880Y-68080000D01*
X111202500Y-68032380D01*
X111202500Y-68127619D01*
X110726309Y-68365714D02*
X110726309Y-69032380D01*
X110726309Y-68460952D02*
X110678690Y-68413333D01*
X110583452Y-68365714D01*
X110440595Y-68365714D01*
X110345357Y-68413333D01*
X110297738Y-68508571D01*
X110297738Y-69032380D01*
X113535833Y-65825714D02*
X113535833Y-66635238D01*
X113583452Y-66730476D01*
X113631071Y-66778095D01*
X113726309Y-66825714D01*
X113869166Y-66825714D01*
X113964404Y-66778095D01*
X113535833Y-66444761D02*
X113631071Y-66492380D01*
X113821547Y-66492380D01*
X113916785Y-66444761D01*
X113964404Y-66397142D01*
X114012023Y-66301904D01*
X114012023Y-66016190D01*
X113964404Y-65920952D01*
X113916785Y-65873333D01*
X113821547Y-65825714D01*
X113631071Y-65825714D01*
X113535833Y-65873333D01*
X113059642Y-65825714D02*
X113059642Y-66492380D01*
X113059642Y-65920952D02*
X113012023Y-65873333D01*
X112916785Y-65825714D01*
X112773928Y-65825714D01*
X112678690Y-65873333D01*
X112631071Y-65968571D01*
X112631071Y-66492380D01*
X111726309Y-66492380D02*
X111726309Y-65492380D01*
X111726309Y-66444761D02*
X111821547Y-66492380D01*
X112012023Y-66492380D01*
X112107261Y-66444761D01*
X112154880Y-66397142D01*
X112202500Y-66301904D01*
X112202500Y-66016190D01*
X112154880Y-65920952D01*
X112107261Y-65873333D01*
X112012023Y-65825714D01*
X111821547Y-65825714D01*
X111726309Y-65873333D01*
X113535833Y-63285714D02*
X113535833Y-64095238D01*
X113583452Y-64190476D01*
X113631071Y-64238095D01*
X113726309Y-64285714D01*
X113869166Y-64285714D01*
X113964404Y-64238095D01*
X113535833Y-63904761D02*
X113631071Y-63952380D01*
X113821547Y-63952380D01*
X113916785Y-63904761D01*
X113964404Y-63857142D01*
X114012023Y-63761904D01*
X114012023Y-63476190D01*
X113964404Y-63380952D01*
X113916785Y-63333333D01*
X113821547Y-63285714D01*
X113631071Y-63285714D01*
X113535833Y-63333333D01*
X113059642Y-63285714D02*
X113059642Y-63952380D01*
X113059642Y-63380952D02*
X113012023Y-63333333D01*
X112916785Y-63285714D01*
X112773928Y-63285714D01*
X112678690Y-63333333D01*
X112631071Y-63428571D01*
X112631071Y-63952380D01*
X111726309Y-63952380D02*
X111726309Y-62952380D01*
X111726309Y-63904761D02*
X111821547Y-63952380D01*
X112012023Y-63952380D01*
X112107261Y-63904761D01*
X112154880Y-63857142D01*
X112202500Y-63761904D01*
X112202500Y-63476190D01*
X112154880Y-63380952D01*
X112107261Y-63333333D01*
X112012023Y-63285714D01*
X111821547Y-63285714D01*
X111726309Y-63333333D01*
X113535833Y-60745714D02*
X113535833Y-61555238D01*
X113583452Y-61650476D01*
X113631071Y-61698095D01*
X113726309Y-61745714D01*
X113869166Y-61745714D01*
X113964404Y-61698095D01*
X113535833Y-61364761D02*
X113631071Y-61412380D01*
X113821547Y-61412380D01*
X113916785Y-61364761D01*
X113964404Y-61317142D01*
X114012023Y-61221904D01*
X114012023Y-60936190D01*
X113964404Y-60840952D01*
X113916785Y-60793333D01*
X113821547Y-60745714D01*
X113631071Y-60745714D01*
X113535833Y-60793333D01*
X113059642Y-60745714D02*
X113059642Y-61412380D01*
X113059642Y-60840952D02*
X113012023Y-60793333D01*
X112916785Y-60745714D01*
X112773928Y-60745714D01*
X112678690Y-60793333D01*
X112631071Y-60888571D01*
X112631071Y-61412380D01*
X111726309Y-61412380D02*
X111726309Y-60412380D01*
X111726309Y-61364761D02*
X111821547Y-61412380D01*
X112012023Y-61412380D01*
X112107261Y-61364761D01*
X112154880Y-61317142D01*
X112202500Y-61221904D01*
X112202500Y-60936190D01*
X112154880Y-60840952D01*
X112107261Y-60793333D01*
X112012023Y-60745714D01*
X111821547Y-60745714D01*
X111726309Y-60793333D01*
X114059642Y-58205714D02*
X113821547Y-58872380D01*
X113583452Y-58205714D01*
X113202500Y-58491428D02*
X112440595Y-58491428D01*
X112821547Y-58872380D02*
X112821547Y-58110476D01*
X111202500Y-58872380D02*
X111202500Y-58205714D01*
X111202500Y-57872380D02*
X111250119Y-57920000D01*
X111202500Y-57967619D01*
X111154880Y-57920000D01*
X111202500Y-57872380D01*
X111202500Y-57967619D01*
X110726309Y-58205714D02*
X110726309Y-58872380D01*
X110726309Y-58300952D02*
X110678690Y-58253333D01*
X110583452Y-58205714D01*
X110440595Y-58205714D01*
X110345357Y-58253333D01*
X110297738Y-58348571D01*
X110297738Y-58872380D01*
X193492380Y-137495595D02*
X192492380Y-137495595D01*
X193492380Y-137924166D02*
X192968571Y-137924166D01*
X192873333Y-137876547D01*
X192825714Y-137781309D01*
X192825714Y-137638452D01*
X192873333Y-137543214D01*
X192920952Y-137495595D01*
X192825714Y-138400357D02*
X193825714Y-138400357D01*
X192873333Y-138400357D02*
X192825714Y-138495595D01*
X192825714Y-138686071D01*
X192873333Y-138781309D01*
X192920952Y-138828928D01*
X193016190Y-138876547D01*
X193301904Y-138876547D01*
X193397142Y-138828928D01*
X193444761Y-138781309D01*
X193492380Y-138686071D01*
X193492380Y-138495595D01*
X193444761Y-138400357D01*
X192825714Y-139162261D02*
X192825714Y-139543214D01*
X193492380Y-139305119D02*
X192635238Y-139305119D01*
X192540000Y-139352738D01*
X192492380Y-139447976D01*
X192492380Y-139543214D01*
X193492380Y-140781309D02*
X193444761Y-140686071D01*
X193397142Y-140638452D01*
X193301904Y-140590833D01*
X193016190Y-140590833D01*
X192920952Y-140638452D01*
X192873333Y-140686071D01*
X192825714Y-140781309D01*
X192825714Y-140924166D01*
X192873333Y-141019404D01*
X192920952Y-141067023D01*
X193016190Y-141114642D01*
X193301904Y-141114642D01*
X193397142Y-141067023D01*
X193444761Y-141019404D01*
X193492380Y-140924166D01*
X193492380Y-140781309D01*
X192825714Y-141971785D02*
X193492380Y-141971785D01*
X192825714Y-141543214D02*
X193349523Y-141543214D01*
X193444761Y-141590833D01*
X193492380Y-141686071D01*
X193492380Y-141828928D01*
X193444761Y-141924166D01*
X193397142Y-141971785D01*
X192825714Y-142305119D02*
X192825714Y-142686071D01*
X192492380Y-142447976D02*
X193349523Y-142447976D01*
X193444761Y-142495595D01*
X193492380Y-142590833D01*
X193492380Y-142686071D01*
X196032380Y-137495595D02*
X195032380Y-137495595D01*
X196032380Y-137924166D02*
X195508571Y-137924166D01*
X195413333Y-137876547D01*
X195365714Y-137781309D01*
X195365714Y-137638452D01*
X195413333Y-137543214D01*
X195460952Y-137495595D01*
X195365714Y-138400357D02*
X196365714Y-138400357D01*
X195413333Y-138400357D02*
X195365714Y-138495595D01*
X195365714Y-138686071D01*
X195413333Y-138781309D01*
X195460952Y-138828928D01*
X195556190Y-138876547D01*
X195841904Y-138876547D01*
X195937142Y-138828928D01*
X195984761Y-138781309D01*
X196032380Y-138686071D01*
X196032380Y-138495595D01*
X195984761Y-138400357D01*
X195365714Y-139162261D02*
X195365714Y-139543214D01*
X196032380Y-139305119D02*
X195175238Y-139305119D01*
X195080000Y-139352738D01*
X195032380Y-139447976D01*
X195032380Y-139543214D01*
X196032380Y-140638452D02*
X195365714Y-140638452D01*
X195032380Y-140638452D02*
X195080000Y-140590833D01*
X195127619Y-140638452D01*
X195080000Y-140686071D01*
X195032380Y-140638452D01*
X195127619Y-140638452D01*
X195365714Y-141114642D02*
X196032380Y-141114642D01*
X195460952Y-141114642D02*
X195413333Y-141162261D01*
X195365714Y-141257500D01*
X195365714Y-141400357D01*
X195413333Y-141495595D01*
X195508571Y-141543214D01*
X196032380Y-141543214D01*
X185205714Y-137924166D02*
X186015238Y-137924166D01*
X186110476Y-137876547D01*
X186158095Y-137828928D01*
X186205714Y-137733690D01*
X186205714Y-137590833D01*
X186158095Y-137495595D01*
X185824761Y-137924166D02*
X185872380Y-137828928D01*
X185872380Y-137638452D01*
X185824761Y-137543214D01*
X185777142Y-137495595D01*
X185681904Y-137447976D01*
X185396190Y-137447976D01*
X185300952Y-137495595D01*
X185253333Y-137543214D01*
X185205714Y-137638452D01*
X185205714Y-137828928D01*
X185253333Y-137924166D01*
X185205714Y-138400357D02*
X185872380Y-138400357D01*
X185300952Y-138400357D02*
X185253333Y-138447976D01*
X185205714Y-138543214D01*
X185205714Y-138686071D01*
X185253333Y-138781309D01*
X185348571Y-138828928D01*
X185872380Y-138828928D01*
X185872380Y-139733690D02*
X184872380Y-139733690D01*
X185824761Y-139733690D02*
X185872380Y-139638452D01*
X185872380Y-139447976D01*
X185824761Y-139352738D01*
X185777142Y-139305119D01*
X185681904Y-139257500D01*
X185396190Y-139257500D01*
X185300952Y-139305119D01*
X185253333Y-139352738D01*
X185205714Y-139447976D01*
X185205714Y-139638452D01*
X185253333Y-139733690D01*
X188412380Y-137495595D02*
X187412380Y-137495595D01*
X188412380Y-137924166D02*
X187888571Y-137924166D01*
X187793333Y-137876547D01*
X187745714Y-137781309D01*
X187745714Y-137638452D01*
X187793333Y-137543214D01*
X187840952Y-137495595D01*
X187745714Y-138400357D02*
X188745714Y-138400357D01*
X187793333Y-138400357D02*
X187745714Y-138495595D01*
X187745714Y-138686071D01*
X187793333Y-138781309D01*
X187840952Y-138828928D01*
X187936190Y-138876547D01*
X188221904Y-138876547D01*
X188317142Y-138828928D01*
X188364761Y-138781309D01*
X188412380Y-138686071D01*
X188412380Y-138495595D01*
X188364761Y-138400357D01*
X188317142Y-140638452D02*
X188364761Y-140590833D01*
X188412380Y-140447976D01*
X188412380Y-140352738D01*
X188364761Y-140209880D01*
X188269523Y-140114642D01*
X188174285Y-140067023D01*
X187983809Y-140019404D01*
X187840952Y-140019404D01*
X187650476Y-140067023D01*
X187555238Y-140114642D01*
X187460000Y-140209880D01*
X187412380Y-140352738D01*
X187412380Y-140447976D01*
X187460000Y-140590833D01*
X187507619Y-140638452D01*
X187412380Y-140924166D02*
X188412380Y-141257500D01*
X187412380Y-141590833D01*
X187507619Y-142638452D02*
X187460000Y-142686071D01*
X187412380Y-142781309D01*
X187412380Y-143019404D01*
X187460000Y-143114642D01*
X187507619Y-143162261D01*
X187602857Y-143209880D01*
X187698095Y-143209880D01*
X187840952Y-143162261D01*
X188412380Y-142590833D01*
X188412380Y-143209880D01*
X190952380Y-137495595D02*
X189952380Y-137495595D01*
X190952380Y-137924166D02*
X190428571Y-137924166D01*
X190333333Y-137876547D01*
X190285714Y-137781309D01*
X190285714Y-137638452D01*
X190333333Y-137543214D01*
X190380952Y-137495595D01*
X190285714Y-138400357D02*
X191285714Y-138400357D01*
X190333333Y-138400357D02*
X190285714Y-138495595D01*
X190285714Y-138686071D01*
X190333333Y-138781309D01*
X190380952Y-138828928D01*
X190476190Y-138876547D01*
X190761904Y-138876547D01*
X190857142Y-138828928D01*
X190904761Y-138781309D01*
X190952380Y-138686071D01*
X190952380Y-138495595D01*
X190904761Y-138400357D01*
X190857142Y-140638452D02*
X190904761Y-140590833D01*
X190952380Y-140447976D01*
X190952380Y-140352738D01*
X190904761Y-140209880D01*
X190809523Y-140114642D01*
X190714285Y-140067023D01*
X190523809Y-140019404D01*
X190380952Y-140019404D01*
X190190476Y-140067023D01*
X190095238Y-140114642D01*
X190000000Y-140209880D01*
X189952380Y-140352738D01*
X189952380Y-140447976D01*
X190000000Y-140590833D01*
X190047619Y-140638452D01*
X189952380Y-140924166D02*
X190952380Y-141257500D01*
X189952380Y-141590833D01*
X190952380Y-143209880D02*
X190952380Y-142638452D01*
X190952380Y-142924166D02*
X189952380Y-142924166D01*
X190095238Y-142828928D01*
X190190476Y-142733690D01*
X190238095Y-142638452D01*
X114752380Y-137638452D02*
X114704761Y-137543214D01*
X114609523Y-137495595D01*
X113752380Y-137495595D01*
X114085714Y-138019404D02*
X115085714Y-138019404D01*
X114133333Y-138019404D02*
X114085714Y-138114642D01*
X114085714Y-138305119D01*
X114133333Y-138400357D01*
X114180952Y-138447976D01*
X114276190Y-138495595D01*
X114561904Y-138495595D01*
X114657142Y-138447976D01*
X114704761Y-138400357D01*
X114752380Y-138305119D01*
X114752380Y-138114642D01*
X114704761Y-138019404D01*
X114657142Y-140257500D02*
X114704761Y-140209880D01*
X114752380Y-140067023D01*
X114752380Y-139971785D01*
X114704761Y-139828928D01*
X114609523Y-139733690D01*
X114514285Y-139686071D01*
X114323809Y-139638452D01*
X114180952Y-139638452D01*
X113990476Y-139686071D01*
X113895238Y-139733690D01*
X113800000Y-139828928D01*
X113752380Y-139971785D01*
X113752380Y-140067023D01*
X113800000Y-140209880D01*
X113847619Y-140257500D01*
X113752380Y-140543214D02*
X114752380Y-140876547D01*
X113752380Y-141209880D01*
X113847619Y-142257500D02*
X113800000Y-142305119D01*
X113752380Y-142400357D01*
X113752380Y-142638452D01*
X113800000Y-142733690D01*
X113847619Y-142781309D01*
X113942857Y-142828928D01*
X114038095Y-142828928D01*
X114180952Y-142781309D01*
X114752380Y-142209880D01*
X114752380Y-142828928D01*
X112212380Y-137638452D02*
X112164761Y-137543214D01*
X112069523Y-137495595D01*
X111212380Y-137495595D01*
X111545714Y-138019404D02*
X112545714Y-138019404D01*
X111593333Y-138019404D02*
X111545714Y-138114642D01*
X111545714Y-138305119D01*
X111593333Y-138400357D01*
X111640952Y-138447976D01*
X111736190Y-138495595D01*
X112021904Y-138495595D01*
X112117142Y-138447976D01*
X112164761Y-138400357D01*
X112212380Y-138305119D01*
X112212380Y-138114642D01*
X112164761Y-138019404D01*
X112117142Y-140257500D02*
X112164761Y-140209880D01*
X112212380Y-140067023D01*
X112212380Y-139971785D01*
X112164761Y-139828928D01*
X112069523Y-139733690D01*
X111974285Y-139686071D01*
X111783809Y-139638452D01*
X111640952Y-139638452D01*
X111450476Y-139686071D01*
X111355238Y-139733690D01*
X111260000Y-139828928D01*
X111212380Y-139971785D01*
X111212380Y-140067023D01*
X111260000Y-140209880D01*
X111307619Y-140257500D01*
X111212380Y-140543214D02*
X112212380Y-140876547D01*
X111212380Y-141209880D01*
X112212380Y-142828928D02*
X112212380Y-142257500D01*
X112212380Y-142543214D02*
X111212380Y-142543214D01*
X111355238Y-142447976D01*
X111450476Y-142352738D01*
X111498095Y-142257500D01*
X109672380Y-137638452D02*
X109624761Y-137543214D01*
X109529523Y-137495595D01*
X108672380Y-137495595D01*
X109005714Y-138019404D02*
X110005714Y-138019404D01*
X109053333Y-138019404D02*
X109005714Y-138114642D01*
X109005714Y-138305119D01*
X109053333Y-138400357D01*
X109100952Y-138447976D01*
X109196190Y-138495595D01*
X109481904Y-138495595D01*
X109577142Y-138447976D01*
X109624761Y-138400357D01*
X109672380Y-138305119D01*
X109672380Y-138114642D01*
X109624761Y-138019404D01*
X109005714Y-138781309D02*
X109005714Y-139162261D01*
X109672380Y-138924166D02*
X108815238Y-138924166D01*
X108720000Y-138971785D01*
X108672380Y-139067023D01*
X108672380Y-139162261D01*
X109672380Y-140400357D02*
X109624761Y-140305119D01*
X109577142Y-140257500D01*
X109481904Y-140209880D01*
X109196190Y-140209880D01*
X109100952Y-140257500D01*
X109053333Y-140305119D01*
X109005714Y-140400357D01*
X109005714Y-140543214D01*
X109053333Y-140638452D01*
X109100952Y-140686071D01*
X109196190Y-140733690D01*
X109481904Y-140733690D01*
X109577142Y-140686071D01*
X109624761Y-140638452D01*
X109672380Y-140543214D01*
X109672380Y-140400357D01*
X109005714Y-141590833D02*
X109672380Y-141590833D01*
X109005714Y-141162261D02*
X109529523Y-141162261D01*
X109624761Y-141209880D01*
X109672380Y-141305119D01*
X109672380Y-141447976D01*
X109624761Y-141543214D01*
X109577142Y-141590833D01*
X109005714Y-141924166D02*
X109005714Y-142305119D01*
X108672380Y-142067023D02*
X109529523Y-142067023D01*
X109624761Y-142114642D01*
X109672380Y-142209880D01*
X109672380Y-142305119D01*
X107132380Y-137638452D02*
X107084761Y-137543214D01*
X106989523Y-137495595D01*
X106132380Y-137495595D01*
X106465714Y-138019404D02*
X107465714Y-138019404D01*
X106513333Y-138019404D02*
X106465714Y-138114642D01*
X106465714Y-138305119D01*
X106513333Y-138400357D01*
X106560952Y-138447976D01*
X106656190Y-138495595D01*
X106941904Y-138495595D01*
X107037142Y-138447976D01*
X107084761Y-138400357D01*
X107132380Y-138305119D01*
X107132380Y-138114642D01*
X107084761Y-138019404D01*
X106465714Y-138781309D02*
X106465714Y-139162261D01*
X107132380Y-138924166D02*
X106275238Y-138924166D01*
X106180000Y-138971785D01*
X106132380Y-139067023D01*
X106132380Y-139162261D01*
X107132380Y-140257500D02*
X106465714Y-140257500D01*
X106132380Y-140257500D02*
X106180000Y-140209880D01*
X106227619Y-140257500D01*
X106180000Y-140305119D01*
X106132380Y-140257500D01*
X106227619Y-140257500D01*
X106465714Y-140733690D02*
X107132380Y-140733690D01*
X106560952Y-140733690D02*
X106513333Y-140781309D01*
X106465714Y-140876547D01*
X106465714Y-141019404D01*
X106513333Y-141114642D01*
X106608571Y-141162261D01*
X107132380Y-141162261D01*
X116625714Y-137924166D02*
X117435238Y-137924166D01*
X117530476Y-137876547D01*
X117578095Y-137828928D01*
X117625714Y-137733690D01*
X117625714Y-137590833D01*
X117578095Y-137495595D01*
X117244761Y-137924166D02*
X117292380Y-137828928D01*
X117292380Y-137638452D01*
X117244761Y-137543214D01*
X117197142Y-137495595D01*
X117101904Y-137447976D01*
X116816190Y-137447976D01*
X116720952Y-137495595D01*
X116673333Y-137543214D01*
X116625714Y-137638452D01*
X116625714Y-137828928D01*
X116673333Y-137924166D01*
X116625714Y-138400357D02*
X117292380Y-138400357D01*
X116720952Y-138400357D02*
X116673333Y-138447976D01*
X116625714Y-138543214D01*
X116625714Y-138686071D01*
X116673333Y-138781309D01*
X116768571Y-138828928D01*
X117292380Y-138828928D01*
X117292380Y-139733690D02*
X116292380Y-139733690D01*
X117244761Y-139733690D02*
X117292380Y-139638452D01*
X117292380Y-139447976D01*
X117244761Y-139352738D01*
X117197142Y-139305119D01*
X117101904Y-139257500D01*
X116816190Y-139257500D01*
X116720952Y-139305119D01*
X116673333Y-139352738D01*
X116625714Y-139447976D01*
X116625714Y-139638452D01*
X116673333Y-139733690D01*
D11*
%TO.C,J4*%
X104715000Y-118685000D02*
X104715000Y-120015000D01*
X106045000Y-118685000D02*
X104715000Y-118685000D01*
X107315000Y-118685000D02*
X107315000Y-121345000D01*
X107315000Y-121345000D02*
X109915000Y-121345000D01*
X107315000Y-118685000D02*
X109915000Y-118685000D01*
X109915000Y-118685000D02*
X109915000Y-121345000D01*
%TO.C,J3*%
X109280000Y-57090000D02*
X107950000Y-57090000D01*
X109280000Y-58420000D02*
X109280000Y-57090000D01*
X106680000Y-57090000D02*
X104080000Y-57090000D01*
X106680000Y-59690000D02*
X106680000Y-57090000D01*
X109280000Y-59690000D02*
X106680000Y-59690000D01*
X104080000Y-57090000D02*
X104080000Y-69910000D01*
X109280000Y-59690000D02*
X109280000Y-69910000D01*
X109280000Y-69910000D02*
X104080000Y-69910000D01*
%TO.C,U7*%
X116138000Y-94886000D02*
X116138000Y-96536000D01*
X105858000Y-94886000D02*
X116138000Y-94886000D01*
X105858000Y-100186000D02*
X105858000Y-94886000D01*
X116138000Y-100186000D02*
X105858000Y-100186000D01*
X116138000Y-98536000D02*
X116138000Y-100186000D01*
X116138000Y-96536000D02*
G75*
G03*
X116138000Y-98536000I0J-1000000D01*
G01*
%TO.C,U6*%
X155050000Y-144586000D02*
X153400000Y-144586000D01*
X155050000Y-134306000D02*
X155050000Y-144586000D01*
X149750000Y-134306000D02*
X155050000Y-134306000D01*
X149750000Y-144586000D02*
X149750000Y-134306000D01*
X151400000Y-144586000D02*
X149750000Y-144586000D01*
X153400000Y-144586000D02*
G75*
G03*
X151400000Y-144586000I-1000000J0D01*
G01*
%TO.C,U5*%
X155050000Y-109788000D02*
X153400000Y-109788000D01*
X155050000Y-99508000D02*
X155050000Y-109788000D01*
X149750000Y-99508000D02*
X155050000Y-99508000D01*
X149750000Y-109788000D02*
X149750000Y-99508000D01*
X151400000Y-109788000D02*
X149750000Y-109788000D01*
X153400000Y-109788000D02*
G75*
G03*
X151400000Y-109788000I-1000000J0D01*
G01*
%TO.C,U4*%
X155050000Y-132140000D02*
X153400000Y-132140000D01*
X155050000Y-111700000D02*
X155050000Y-132140000D01*
X149750000Y-111700000D02*
X155050000Y-111700000D01*
X149750000Y-132140000D02*
X149750000Y-111700000D01*
X151400000Y-132140000D02*
X149750000Y-132140000D01*
X153400000Y-132140000D02*
G75*
G03*
X151400000Y-132140000I-1000000J0D01*
G01*
%TO.C,U3*%
X155050000Y-97215000D02*
X153400000Y-97215000D01*
X155050000Y-86935000D02*
X155050000Y-97215000D01*
X149750000Y-86935000D02*
X155050000Y-86935000D01*
X149750000Y-97215000D02*
X149750000Y-86935000D01*
X151400000Y-97215000D02*
X149750000Y-97215000D01*
X153400000Y-97215000D02*
G75*
G03*
X151400000Y-97215000I-1000000J0D01*
G01*
%TO.C,U2*%
X155050000Y-62925000D02*
X153400000Y-62925000D01*
X155050000Y-52645000D02*
X155050000Y-62925000D01*
X149750000Y-52645000D02*
X155050000Y-52645000D01*
X149750000Y-62925000D02*
X149750000Y-52645000D01*
X151400000Y-62925000D02*
X149750000Y-62925000D01*
X153400000Y-62925000D02*
G75*
G03*
X151400000Y-62925000I-1000000J0D01*
G01*
%TO.C,U1*%
X155050000Y-85150000D02*
X153400000Y-85150000D01*
X155050000Y-64710000D02*
X155050000Y-85150000D01*
X149750000Y-64710000D02*
X155050000Y-64710000D01*
X149750000Y-85150000D02*
X149750000Y-64710000D01*
X151400000Y-85150000D02*
X149750000Y-85150000D01*
X153400000Y-85150000D02*
G75*
G03*
X151400000Y-85150000I-1000000J0D01*
G01*
%TO.C,R42*%
X195072000Y-123214000D02*
X195072000Y-123984000D01*
X195072000Y-131294000D02*
X195072000Y-130524000D01*
X196442000Y-123984000D02*
X196442000Y-130524000D01*
X193702000Y-123984000D02*
X196442000Y-123984000D01*
X193702000Y-130524000D02*
X193702000Y-123984000D01*
X196442000Y-130524000D02*
X193702000Y-130524000D01*
%TO.C,R41*%
X113030000Y-81812000D02*
X113030000Y-82582000D01*
X113030000Y-89892000D02*
X113030000Y-89122000D01*
X114400000Y-82582000D02*
X114400000Y-89122000D01*
X111660000Y-82582000D02*
X114400000Y-82582000D01*
X111660000Y-89122000D02*
X111660000Y-82582000D01*
X114400000Y-89122000D02*
X111660000Y-89122000D01*
%TO.C,R40*%
X115570000Y-120420000D02*
X115570000Y-121190000D01*
X115570000Y-128500000D02*
X115570000Y-127730000D01*
X116940000Y-121190000D02*
X116940000Y-127730000D01*
X114200000Y-121190000D02*
X116940000Y-121190000D01*
X114200000Y-127730000D02*
X114200000Y-121190000D01*
X116940000Y-127730000D02*
X114200000Y-127730000D01*
%TO.C,R39*%
X108204000Y-81812000D02*
X108204000Y-82582000D01*
X108204000Y-89892000D02*
X108204000Y-89122000D01*
X109574000Y-82582000D02*
X109574000Y-89122000D01*
X106834000Y-82582000D02*
X109574000Y-82582000D01*
X106834000Y-89122000D02*
X106834000Y-82582000D01*
X109574000Y-89122000D02*
X106834000Y-89122000D01*
%TO.C,R38*%
X115062000Y-105434000D02*
X115062000Y-106204000D01*
X115062000Y-113514000D02*
X115062000Y-112744000D01*
X116432000Y-106204000D02*
X116432000Y-112744000D01*
X113692000Y-106204000D02*
X116432000Y-106204000D01*
X113692000Y-112744000D02*
X113692000Y-106204000D01*
X116432000Y-112744000D02*
X113692000Y-112744000D01*
%TO.C,R37*%
X106172000Y-113514000D02*
X106172000Y-112744000D01*
X106172000Y-105434000D02*
X106172000Y-106204000D01*
X104802000Y-112744000D02*
X104802000Y-106204000D01*
X107542000Y-112744000D02*
X104802000Y-112744000D01*
X107542000Y-106204000D02*
X107542000Y-112744000D01*
X104802000Y-106204000D02*
X107542000Y-106204000D01*
%TO.C,R36*%
X110744000Y-113514000D02*
X110744000Y-112744000D01*
X110744000Y-105434000D02*
X110744000Y-106204000D01*
X109374000Y-112744000D02*
X109374000Y-106204000D01*
X112114000Y-112744000D02*
X109374000Y-112744000D01*
X112114000Y-106204000D02*
X112114000Y-112744000D01*
X109374000Y-106204000D02*
X112114000Y-106204000D01*
%TO.C,R35*%
X168124000Y-131064000D02*
X167354000Y-131064000D01*
X160044000Y-131064000D02*
X160814000Y-131064000D01*
X167354000Y-132434000D02*
X160814000Y-132434000D01*
X167354000Y-129694000D02*
X167354000Y-132434000D01*
X160814000Y-129694000D02*
X167354000Y-129694000D01*
X160814000Y-132434000D02*
X160814000Y-129694000D01*
%TO.C,R34*%
X136676000Y-136652000D02*
X137446000Y-136652000D01*
X144756000Y-136652000D02*
X143986000Y-136652000D01*
X137446000Y-135282000D02*
X143986000Y-135282000D01*
X137446000Y-138022000D02*
X137446000Y-135282000D01*
X143986000Y-138022000D02*
X137446000Y-138022000D01*
X143986000Y-135282000D02*
X143986000Y-138022000D01*
%TO.C,R33*%
X168124000Y-117348000D02*
X167354000Y-117348000D01*
X160044000Y-117348000D02*
X160814000Y-117348000D01*
X167354000Y-118718000D02*
X160814000Y-118718000D01*
X167354000Y-115978000D02*
X167354000Y-118718000D01*
X160814000Y-115978000D02*
X167354000Y-115978000D01*
X160814000Y-118718000D02*
X160814000Y-115978000D01*
%TO.C,R32*%
X160044000Y-112903000D02*
X160814000Y-112903000D01*
X168124000Y-112903000D02*
X167354000Y-112903000D01*
X160814000Y-111533000D02*
X167354000Y-111533000D01*
X160814000Y-114273000D02*
X160814000Y-111533000D01*
X167354000Y-114273000D02*
X160814000Y-114273000D01*
X167354000Y-111533000D02*
X167354000Y-114273000D01*
%TO.C,R31*%
X136676000Y-141224000D02*
X137446000Y-141224000D01*
X144756000Y-141224000D02*
X143986000Y-141224000D01*
X137446000Y-139854000D02*
X143986000Y-139854000D01*
X137446000Y-142594000D02*
X137446000Y-139854000D01*
X143986000Y-142594000D02*
X137446000Y-142594000D01*
X143986000Y-139854000D02*
X143986000Y-142594000D01*
%TO.C,R30*%
X168124000Y-121920000D02*
X167354000Y-121920000D01*
X160044000Y-121920000D02*
X160814000Y-121920000D01*
X167354000Y-123290000D02*
X160814000Y-123290000D01*
X167354000Y-120550000D02*
X167354000Y-123290000D01*
X160814000Y-120550000D02*
X167354000Y-120550000D01*
X160814000Y-123290000D02*
X160814000Y-120550000D01*
%TO.C,R29*%
X168124000Y-126492000D02*
X167354000Y-126492000D01*
X160044000Y-126492000D02*
X160814000Y-126492000D01*
X167354000Y-127862000D02*
X160814000Y-127862000D01*
X167354000Y-125122000D02*
X167354000Y-127862000D01*
X160814000Y-125122000D02*
X167354000Y-125122000D01*
X160814000Y-127862000D02*
X160814000Y-125122000D01*
%TO.C,R28*%
X168124000Y-143256000D02*
X167354000Y-143256000D01*
X160044000Y-143256000D02*
X160814000Y-143256000D01*
X167354000Y-144626000D02*
X160814000Y-144626000D01*
X167354000Y-141886000D02*
X167354000Y-144626000D01*
X160814000Y-141886000D02*
X167354000Y-141886000D01*
X160814000Y-144626000D02*
X160814000Y-141886000D01*
%TO.C,R27*%
X189968000Y-109220000D02*
X189198000Y-109220000D01*
X181888000Y-109220000D02*
X182658000Y-109220000D01*
X189198000Y-110590000D02*
X182658000Y-110590000D01*
X189198000Y-107850000D02*
X189198000Y-110590000D01*
X182658000Y-107850000D02*
X189198000Y-107850000D01*
X182658000Y-110590000D02*
X182658000Y-107850000D01*
%TO.C,R26*%
X189968000Y-113792000D02*
X189198000Y-113792000D01*
X181888000Y-113792000D02*
X182658000Y-113792000D01*
X189198000Y-115162000D02*
X182658000Y-115162000D01*
X189198000Y-112422000D02*
X189198000Y-115162000D01*
X182658000Y-112422000D02*
X189198000Y-112422000D01*
X182658000Y-115162000D02*
X182658000Y-112422000D01*
%TO.C,R25*%
X144756000Y-131572000D02*
X143986000Y-131572000D01*
X136676000Y-131572000D02*
X137446000Y-131572000D01*
X143986000Y-132942000D02*
X137446000Y-132942000D01*
X143986000Y-130202000D02*
X143986000Y-132942000D01*
X137446000Y-130202000D02*
X143986000Y-130202000D01*
X137446000Y-132942000D02*
X137446000Y-130202000D01*
%TO.C,R24*%
X189968000Y-118364000D02*
X189198000Y-118364000D01*
X181888000Y-118364000D02*
X182658000Y-118364000D01*
X189198000Y-119734000D02*
X182658000Y-119734000D01*
X189198000Y-116994000D02*
X189198000Y-119734000D01*
X182658000Y-116994000D02*
X189198000Y-116994000D01*
X182658000Y-119734000D02*
X182658000Y-116994000D01*
%TO.C,R23*%
X189968000Y-122936000D02*
X189198000Y-122936000D01*
X181888000Y-122936000D02*
X182658000Y-122936000D01*
X189198000Y-124306000D02*
X182658000Y-124306000D01*
X189198000Y-121566000D02*
X189198000Y-124306000D01*
X182658000Y-121566000D02*
X189198000Y-121566000D01*
X182658000Y-124306000D02*
X182658000Y-121566000D01*
%TO.C,R22*%
X189968000Y-127508000D02*
X189198000Y-127508000D01*
X181888000Y-127508000D02*
X182658000Y-127508000D01*
X189198000Y-128878000D02*
X182658000Y-128878000D01*
X189198000Y-126138000D02*
X189198000Y-128878000D01*
X182658000Y-126138000D02*
X189198000Y-126138000D01*
X182658000Y-128878000D02*
X182658000Y-126138000D01*
%TO.C,R21*%
X136676000Y-127000000D02*
X137446000Y-127000000D01*
X144756000Y-127000000D02*
X143986000Y-127000000D01*
X137446000Y-125630000D02*
X143986000Y-125630000D01*
X137446000Y-128370000D02*
X137446000Y-125630000D01*
X143986000Y-128370000D02*
X137446000Y-128370000D01*
X143986000Y-125630000D02*
X143986000Y-128370000D01*
%TO.C,R20*%
X144756000Y-111760000D02*
X143986000Y-111760000D01*
X136676000Y-111760000D02*
X137446000Y-111760000D01*
X143986000Y-113130000D02*
X137446000Y-113130000D01*
X143986000Y-110390000D02*
X143986000Y-113130000D01*
X137446000Y-110390000D02*
X143986000Y-110390000D01*
X137446000Y-113130000D02*
X137446000Y-110390000D01*
%TO.C,R19*%
X136676000Y-121920000D02*
X137446000Y-121920000D01*
X144756000Y-121920000D02*
X143986000Y-121920000D01*
X137446000Y-120550000D02*
X143986000Y-120550000D01*
X137446000Y-123290000D02*
X137446000Y-120550000D01*
X143986000Y-123290000D02*
X137446000Y-123290000D01*
X143986000Y-120550000D02*
X143986000Y-123290000D01*
%TO.C,R18*%
X136676000Y-116840000D02*
X137446000Y-116840000D01*
X144756000Y-116840000D02*
X143986000Y-116840000D01*
X137446000Y-115470000D02*
X143986000Y-115470000D01*
X137446000Y-118210000D02*
X137446000Y-115470000D01*
X143986000Y-118210000D02*
X137446000Y-118210000D01*
X143986000Y-115470000D02*
X143986000Y-118210000D01*
%TO.C,R17*%
X159790000Y-86360000D02*
X160560000Y-86360000D01*
X167870000Y-86360000D02*
X167100000Y-86360000D01*
X160560000Y-84990000D02*
X167100000Y-84990000D01*
X160560000Y-87730000D02*
X160560000Y-84990000D01*
X167100000Y-87730000D02*
X160560000Y-87730000D01*
X167100000Y-84990000D02*
X167100000Y-87730000D01*
%TO.C,R16*%
X136930000Y-90170000D02*
X137700000Y-90170000D01*
X145010000Y-90170000D02*
X144240000Y-90170000D01*
X137700000Y-88800000D02*
X144240000Y-88800000D01*
X137700000Y-91540000D02*
X137700000Y-88800000D01*
X144240000Y-91540000D02*
X137700000Y-91540000D01*
X144240000Y-88800000D02*
X144240000Y-91540000D01*
%TO.C,R15*%
X167870000Y-76200000D02*
X167100000Y-76200000D01*
X159790000Y-76200000D02*
X160560000Y-76200000D01*
X167100000Y-77570000D02*
X160560000Y-77570000D01*
X167100000Y-74830000D02*
X167100000Y-77570000D01*
X160560000Y-74830000D02*
X167100000Y-74830000D01*
X160560000Y-77570000D02*
X160560000Y-74830000D01*
%TO.C,R14*%
X159790000Y-66040000D02*
X160560000Y-66040000D01*
X167870000Y-66040000D02*
X167100000Y-66040000D01*
X160560000Y-64670000D02*
X167100000Y-64670000D01*
X160560000Y-67410000D02*
X160560000Y-64670000D01*
X167100000Y-67410000D02*
X160560000Y-67410000D01*
X167100000Y-64670000D02*
X167100000Y-67410000D01*
%TO.C,R13*%
X136930000Y-95250000D02*
X137700000Y-95250000D01*
X145010000Y-95250000D02*
X144240000Y-95250000D01*
X137700000Y-93880000D02*
X144240000Y-93880000D01*
X137700000Y-96620000D02*
X137700000Y-93880000D01*
X144240000Y-96620000D02*
X137700000Y-96620000D01*
X144240000Y-93880000D02*
X144240000Y-96620000D01*
%TO.C,R12*%
X167870000Y-71120000D02*
X167100000Y-71120000D01*
X159790000Y-71120000D02*
X160560000Y-71120000D01*
X167100000Y-72490000D02*
X160560000Y-72490000D01*
X167100000Y-69750000D02*
X167100000Y-72490000D01*
X160560000Y-69750000D02*
X167100000Y-69750000D01*
X160560000Y-72490000D02*
X160560000Y-69750000D01*
%TO.C,R11*%
X167870000Y-81280000D02*
X167100000Y-81280000D01*
X159790000Y-81280000D02*
X160560000Y-81280000D01*
X167100000Y-82650000D02*
X160560000Y-82650000D01*
X167100000Y-79910000D02*
X167100000Y-82650000D01*
X160560000Y-79910000D02*
X167100000Y-79910000D01*
X160560000Y-82650000D02*
X160560000Y-79910000D01*
%TO.C,R10*%
X168124000Y-96012000D02*
X167354000Y-96012000D01*
X160044000Y-96012000D02*
X160814000Y-96012000D01*
X167354000Y-97382000D02*
X160814000Y-97382000D01*
X167354000Y-94642000D02*
X167354000Y-97382000D01*
X160814000Y-94642000D02*
X167354000Y-94642000D01*
X160814000Y-97382000D02*
X160814000Y-94642000D01*
%TO.C,R9*%
X190476000Y-71120000D02*
X189706000Y-71120000D01*
X182396000Y-71120000D02*
X183166000Y-71120000D01*
X189706000Y-72490000D02*
X183166000Y-72490000D01*
X189706000Y-69750000D02*
X189706000Y-72490000D01*
X183166000Y-69750000D02*
X189706000Y-69750000D01*
X183166000Y-72490000D02*
X183166000Y-69750000D01*
%TO.C,R8*%
X190476000Y-75692000D02*
X189706000Y-75692000D01*
X182396000Y-75692000D02*
X183166000Y-75692000D01*
X189706000Y-77062000D02*
X183166000Y-77062000D01*
X189706000Y-74322000D02*
X189706000Y-77062000D01*
X183166000Y-74322000D02*
X189706000Y-74322000D01*
X183166000Y-77062000D02*
X183166000Y-74322000D01*
%TO.C,R7*%
X145010000Y-85090000D02*
X144240000Y-85090000D01*
X136930000Y-85090000D02*
X137700000Y-85090000D01*
X144240000Y-86460000D02*
X137700000Y-86460000D01*
X144240000Y-83720000D02*
X144240000Y-86460000D01*
X137700000Y-83720000D02*
X144240000Y-83720000D01*
X137700000Y-86460000D02*
X137700000Y-83720000D01*
%TO.C,R6*%
X190476000Y-80264000D02*
X189706000Y-80264000D01*
X182396000Y-80264000D02*
X183166000Y-80264000D01*
X189706000Y-81634000D02*
X183166000Y-81634000D01*
X189706000Y-78894000D02*
X189706000Y-81634000D01*
X183166000Y-78894000D02*
X189706000Y-78894000D01*
X183166000Y-81634000D02*
X183166000Y-78894000D01*
%TO.C,R5*%
X190476000Y-84836000D02*
X189706000Y-84836000D01*
X182396000Y-84836000D02*
X183166000Y-84836000D01*
X189706000Y-86206000D02*
X183166000Y-86206000D01*
X189706000Y-83466000D02*
X189706000Y-86206000D01*
X183166000Y-83466000D02*
X189706000Y-83466000D01*
X183166000Y-86206000D02*
X183166000Y-83466000D01*
%TO.C,R4*%
X190476000Y-89408000D02*
X189706000Y-89408000D01*
X182396000Y-89408000D02*
X183166000Y-89408000D01*
X189706000Y-90778000D02*
X183166000Y-90778000D01*
X189706000Y-88038000D02*
X189706000Y-90778000D01*
X183166000Y-88038000D02*
X189706000Y-88038000D01*
X183166000Y-90778000D02*
X183166000Y-88038000D01*
%TO.C,R3*%
X136930000Y-80010000D02*
X137700000Y-80010000D01*
X145010000Y-80010000D02*
X144240000Y-80010000D01*
X137700000Y-78640000D02*
X144240000Y-78640000D01*
X137700000Y-81380000D02*
X137700000Y-78640000D01*
X144240000Y-81380000D02*
X137700000Y-81380000D01*
X144240000Y-78640000D02*
X144240000Y-81380000D01*
%TO.C,R2*%
X145010000Y-69850000D02*
X144240000Y-69850000D01*
X136930000Y-69850000D02*
X137700000Y-69850000D01*
X144240000Y-71220000D02*
X137700000Y-71220000D01*
X144240000Y-68480000D02*
X144240000Y-71220000D01*
X137700000Y-68480000D02*
X144240000Y-68480000D01*
X137700000Y-71220000D02*
X137700000Y-68480000D01*
%TO.C,R1*%
X136930000Y-74930000D02*
X137700000Y-74930000D01*
X145010000Y-74930000D02*
X144240000Y-74930000D01*
X137700000Y-73560000D02*
X144240000Y-73560000D01*
X137700000Y-76300000D02*
X137700000Y-73560000D01*
X144240000Y-76300000D02*
X137700000Y-76300000D01*
X144240000Y-73560000D02*
X144240000Y-76300000D01*
%TO.C,Q4*%
X177822000Y-112086000D02*
X174222000Y-112086000D01*
X174183522Y-112074478D02*
G75*
G02*
X176022000Y-107636000I1838478J1838478D01*
G01*
X177860478Y-112074478D02*
G75*
G03*
X176022000Y-107636000I-1838478J1838478D01*
G01*
%TO.C,Q3*%
X177822000Y-117166000D02*
X174222000Y-117166000D01*
X174183522Y-117154478D02*
G75*
G02*
X176022000Y-112716000I1838478J1838478D01*
G01*
X177860478Y-117154478D02*
G75*
G03*
X176022000Y-112716000I-1838478J1838478D01*
G01*
%TO.C,Q2*%
X178330000Y-73986000D02*
X174730000Y-73986000D01*
X174691522Y-73974478D02*
G75*
G02*
X176530000Y-69536000I1838478J1838478D01*
G01*
X178368478Y-73974478D02*
G75*
G03*
X176530000Y-69536000I-1838478J1838478D01*
G01*
%TO.C,Q1*%
X178330000Y-79066000D02*
X174730000Y-79066000D01*
X174691522Y-79054478D02*
G75*
G02*
X176530000Y-74616000I1838478J1838478D01*
G01*
X178368478Y-79054478D02*
G75*
G03*
X176530000Y-74616000I-1838478J1838478D01*
G01*
%TO.C,J2*%
X105350000Y-143450000D02*
X105350000Y-144780000D01*
X106680000Y-143450000D02*
X105350000Y-143450000D01*
X107950000Y-143450000D02*
X107950000Y-146110000D01*
X107950000Y-146110000D02*
X118170000Y-146110000D01*
X107950000Y-143450000D02*
X118170000Y-143450000D01*
X118170000Y-143450000D02*
X118170000Y-146110000D01*
%TO.C,J1*%
X196910000Y-146110000D02*
X196910000Y-144780000D01*
X195580000Y-146110000D02*
X196910000Y-146110000D01*
X194310000Y-146110000D02*
X194310000Y-143450000D01*
X194310000Y-143450000D02*
X184090000Y-143450000D01*
X194310000Y-146110000D02*
X184090000Y-146110000D01*
X184090000Y-146110000D02*
X184090000Y-143450000D01*
%TO.C,D4*%
X130069000Y-125750000D02*
X126979000Y-125750000D01*
X131024000Y-123190000D02*
G75*
G03*
X131024000Y-123190000I-2500000J0D01*
G01*
X128524462Y-120200000D02*
G75*
G03*
X126979170Y-125750000I-462J-2990000D01*
G01*
X128523538Y-120200000D02*
G75*
G02*
X130068830Y-125750000I462J-2990000D01*
G01*
%TO.C,D3*%
X119867000Y-120630000D02*
X122957000Y-120630000D01*
X123912000Y-123190000D02*
G75*
G03*
X123912000Y-123190000I-2500000J0D01*
G01*
X121411538Y-126180000D02*
G75*
G03*
X122956830Y-120630000I462J2990000D01*
G01*
X121412462Y-126180000D02*
G75*
G02*
X119867170Y-120630000I-462J2990000D01*
G01*
%TO.C,D2*%
X131085000Y-88285000D02*
X127995000Y-88285000D01*
X132040000Y-85725000D02*
G75*
G03*
X132040000Y-85725000I-2500000J0D01*
G01*
X129540462Y-82735000D02*
G75*
G03*
X127995170Y-88285000I-462J-2990000D01*
G01*
X129539538Y-82735000D02*
G75*
G02*
X131084830Y-88285000I462J-2990000D01*
G01*
%TO.C,D1*%
X121010000Y-83165000D02*
X124100000Y-83165000D01*
X125055000Y-85725000D02*
G75*
G03*
X125055000Y-85725000I-2500000J0D01*
G01*
X122554538Y-88715000D02*
G75*
G03*
X124099830Y-83165000I462J2990000D01*
G01*
X122555462Y-88715000D02*
G75*
G02*
X121010170Y-83165000I-462J2990000D01*
G01*
%TO.C,C10*%
X120962500Y-73487041D02*
X120332500Y-73487041D01*
X120647500Y-73802041D02*
X120647500Y-73172041D01*
X119210500Y-67060800D02*
X118406500Y-67060800D01*
X119441500Y-67100800D02*
X118175500Y-67100800D01*
X119610500Y-67140800D02*
X118006500Y-67140800D01*
X119748500Y-67180800D02*
X117868500Y-67180800D01*
X119867500Y-67220800D02*
X117749500Y-67220800D01*
X119973500Y-67260800D02*
X117643500Y-67260800D01*
X120070500Y-67300800D02*
X117546500Y-67300800D01*
X120158500Y-67340800D02*
X117458500Y-67340800D01*
X120240500Y-67380800D02*
X117376500Y-67380800D01*
X120317500Y-67420800D02*
X117299500Y-67420800D01*
X120389500Y-67460800D02*
X117227500Y-67460800D01*
X120458500Y-67500800D02*
X117158500Y-67500800D01*
X120522500Y-67540800D02*
X117094500Y-67540800D01*
X120584500Y-67580800D02*
X117032500Y-67580800D01*
X120642500Y-67620800D02*
X116974500Y-67620800D01*
X120698500Y-67660800D02*
X116918500Y-67660800D01*
X120752500Y-67700800D02*
X116864500Y-67700800D01*
X120803500Y-67740800D02*
X116813500Y-67740800D01*
X120852500Y-67780800D02*
X116764500Y-67780800D01*
X120900500Y-67820800D02*
X116716500Y-67820800D01*
X120945500Y-67860800D02*
X116671500Y-67860800D01*
X120990500Y-67900800D02*
X116626500Y-67900800D01*
X121032500Y-67940800D02*
X116584500Y-67940800D01*
X121073500Y-67980800D02*
X116543500Y-67980800D01*
X117768500Y-68020800D02*
X116503500Y-68020800D01*
X121113500Y-68020800D02*
X119848500Y-68020800D01*
X117768500Y-68060800D02*
X116465500Y-68060800D01*
X121151500Y-68060800D02*
X119848500Y-68060800D01*
X117768500Y-68100800D02*
X116428500Y-68100800D01*
X121188500Y-68100800D02*
X119848500Y-68100800D01*
X117768500Y-68140800D02*
X116392500Y-68140800D01*
X121224500Y-68140800D02*
X119848500Y-68140800D01*
X117768500Y-68180800D02*
X116358500Y-68180800D01*
X121258500Y-68180800D02*
X119848500Y-68180800D01*
X117768500Y-68220800D02*
X116324500Y-68220800D01*
X121292500Y-68220800D02*
X119848500Y-68220800D01*
X117768500Y-68260800D02*
X116292500Y-68260800D01*
X121324500Y-68260800D02*
X119848500Y-68260800D01*
X117768500Y-68300800D02*
X116260500Y-68300800D01*
X121356500Y-68300800D02*
X119848500Y-68300800D01*
X117768500Y-68340800D02*
X116230500Y-68340800D01*
X121386500Y-68340800D02*
X119848500Y-68340800D01*
X117768500Y-68380800D02*
X116201500Y-68380800D01*
X121415500Y-68380800D02*
X119848500Y-68380800D01*
X117768500Y-68420800D02*
X116172500Y-68420800D01*
X121444500Y-68420800D02*
X119848500Y-68420800D01*
X117768500Y-68460800D02*
X116144500Y-68460800D01*
X121472500Y-68460800D02*
X119848500Y-68460800D01*
X117768500Y-68500800D02*
X116118500Y-68500800D01*
X121498500Y-68500800D02*
X119848500Y-68500800D01*
X117768500Y-68540800D02*
X116092500Y-68540800D01*
X121524500Y-68540800D02*
X119848500Y-68540800D01*
X117768500Y-68580800D02*
X116066500Y-68580800D01*
X121550500Y-68580800D02*
X119848500Y-68580800D01*
X117768500Y-68620800D02*
X116042500Y-68620800D01*
X121574500Y-68620800D02*
X119848500Y-68620800D01*
X117768500Y-68660800D02*
X116018500Y-68660800D01*
X121598500Y-68660800D02*
X119848500Y-68660800D01*
X117768500Y-68700800D02*
X115996500Y-68700800D01*
X121620500Y-68700800D02*
X119848500Y-68700800D01*
X117768500Y-68740800D02*
X115974500Y-68740800D01*
X121642500Y-68740800D02*
X119848500Y-68740800D01*
X117768500Y-68780800D02*
X115952500Y-68780800D01*
X121664500Y-68780800D02*
X119848500Y-68780800D01*
X117768500Y-68820800D02*
X115932500Y-68820800D01*
X121684500Y-68820800D02*
X119848500Y-68820800D01*
X117768500Y-68860800D02*
X115912500Y-68860800D01*
X121704500Y-68860800D02*
X119848500Y-68860800D01*
X117768500Y-68900800D02*
X115892500Y-68900800D01*
X121724500Y-68900800D02*
X119848500Y-68900800D01*
X117768500Y-68940800D02*
X115874500Y-68940800D01*
X121742500Y-68940800D02*
X119848500Y-68940800D01*
X117768500Y-68980800D02*
X115856500Y-68980800D01*
X121760500Y-68980800D02*
X119848500Y-68980800D01*
X117768500Y-69020800D02*
X115838500Y-69020800D01*
X121778500Y-69020800D02*
X119848500Y-69020800D01*
X117768500Y-69060800D02*
X115822500Y-69060800D01*
X121794500Y-69060800D02*
X119848500Y-69060800D01*
X117768500Y-69100800D02*
X115806500Y-69100800D01*
X121810500Y-69100800D02*
X119848500Y-69100800D01*
X117768500Y-69140800D02*
X115790500Y-69140800D01*
X121826500Y-69140800D02*
X119848500Y-69140800D01*
X117768500Y-69180800D02*
X115775500Y-69180800D01*
X121841500Y-69180800D02*
X119848500Y-69180800D01*
X117768500Y-69220800D02*
X115761500Y-69220800D01*
X121855500Y-69220800D02*
X119848500Y-69220800D01*
X117768500Y-69260800D02*
X115747500Y-69260800D01*
X121869500Y-69260800D02*
X119848500Y-69260800D01*
X117768500Y-69300800D02*
X115734500Y-69300800D01*
X121882500Y-69300800D02*
X119848500Y-69300800D01*
X117768500Y-69340800D02*
X115722500Y-69340800D01*
X121894500Y-69340800D02*
X119848500Y-69340800D01*
X117768500Y-69380800D02*
X115710500Y-69380800D01*
X121906500Y-69380800D02*
X119848500Y-69380800D01*
X117768500Y-69420800D02*
X115698500Y-69420800D01*
X121918500Y-69420800D02*
X119848500Y-69420800D01*
X117768500Y-69460800D02*
X115687500Y-69460800D01*
X121929500Y-69460800D02*
X119848500Y-69460800D01*
X117768500Y-69500800D02*
X115677500Y-69500800D01*
X121939500Y-69500800D02*
X119848500Y-69500800D01*
X117768500Y-69540800D02*
X115667500Y-69540800D01*
X121949500Y-69540800D02*
X119848500Y-69540800D01*
X117768500Y-69580800D02*
X115658500Y-69580800D01*
X121958500Y-69580800D02*
X119848500Y-69580800D01*
X117768500Y-69621800D02*
X115649500Y-69621800D01*
X121967500Y-69621800D02*
X119848500Y-69621800D01*
X117768500Y-69661800D02*
X115641500Y-69661800D01*
X121975500Y-69661800D02*
X119848500Y-69661800D01*
X117768500Y-69701800D02*
X115633500Y-69701800D01*
X121983500Y-69701800D02*
X119848500Y-69701800D01*
X117768500Y-69741800D02*
X115626500Y-69741800D01*
X121990500Y-69741800D02*
X119848500Y-69741800D01*
X117768500Y-69781800D02*
X115619500Y-69781800D01*
X121997500Y-69781800D02*
X119848500Y-69781800D01*
X117768500Y-69821800D02*
X115613500Y-69821800D01*
X122003500Y-69821800D02*
X119848500Y-69821800D01*
X117768500Y-69861800D02*
X115607500Y-69861800D01*
X122009500Y-69861800D02*
X119848500Y-69861800D01*
X117768500Y-69901800D02*
X115602500Y-69901800D01*
X122014500Y-69901800D02*
X119848500Y-69901800D01*
X117768500Y-69941800D02*
X115597500Y-69941800D01*
X122019500Y-69941800D02*
X119848500Y-69941800D01*
X117768500Y-69981800D02*
X115593500Y-69981800D01*
X122023500Y-69981800D02*
X119848500Y-69981800D01*
X117768500Y-70021800D02*
X115590500Y-70021800D01*
X122026500Y-70021800D02*
X119848500Y-70021800D01*
X117768500Y-70061800D02*
X115586500Y-70061800D01*
X122030500Y-70061800D02*
X119848500Y-70061800D01*
X122032500Y-70101800D02*
X115584500Y-70101800D01*
X122035500Y-70141800D02*
X115581500Y-70141800D01*
X122036500Y-70181800D02*
X115580500Y-70181800D01*
X122038500Y-70221800D02*
X115578500Y-70221800D01*
X122038500Y-70261800D02*
X115578500Y-70261800D01*
X122038500Y-70301800D02*
X115578500Y-70301800D01*
X122078500Y-70301800D02*
G75*
G03*
X122078500Y-70301800I-3270000J0D01*
G01*
%TO.C,C9*%
X119054000Y-57935241D02*
X118424000Y-57935241D01*
X118739000Y-58250241D02*
X118739000Y-57620241D01*
X117302000Y-51509000D02*
X116498000Y-51509000D01*
X117533000Y-51549000D02*
X116267000Y-51549000D01*
X117702000Y-51589000D02*
X116098000Y-51589000D01*
X117840000Y-51629000D02*
X115960000Y-51629000D01*
X117959000Y-51669000D02*
X115841000Y-51669000D01*
X118065000Y-51709000D02*
X115735000Y-51709000D01*
X118162000Y-51749000D02*
X115638000Y-51749000D01*
X118250000Y-51789000D02*
X115550000Y-51789000D01*
X118332000Y-51829000D02*
X115468000Y-51829000D01*
X118409000Y-51869000D02*
X115391000Y-51869000D01*
X118481000Y-51909000D02*
X115319000Y-51909000D01*
X118550000Y-51949000D02*
X115250000Y-51949000D01*
X118614000Y-51989000D02*
X115186000Y-51989000D01*
X118676000Y-52029000D02*
X115124000Y-52029000D01*
X118734000Y-52069000D02*
X115066000Y-52069000D01*
X118790000Y-52109000D02*
X115010000Y-52109000D01*
X118844000Y-52149000D02*
X114956000Y-52149000D01*
X118895000Y-52189000D02*
X114905000Y-52189000D01*
X118944000Y-52229000D02*
X114856000Y-52229000D01*
X118992000Y-52269000D02*
X114808000Y-52269000D01*
X119037000Y-52309000D02*
X114763000Y-52309000D01*
X119082000Y-52349000D02*
X114718000Y-52349000D01*
X119124000Y-52389000D02*
X114676000Y-52389000D01*
X119165000Y-52429000D02*
X114635000Y-52429000D01*
X115860000Y-52469000D02*
X114595000Y-52469000D01*
X119205000Y-52469000D02*
X117940000Y-52469000D01*
X115860000Y-52509000D02*
X114557000Y-52509000D01*
X119243000Y-52509000D02*
X117940000Y-52509000D01*
X115860000Y-52549000D02*
X114520000Y-52549000D01*
X119280000Y-52549000D02*
X117940000Y-52549000D01*
X115860000Y-52589000D02*
X114484000Y-52589000D01*
X119316000Y-52589000D02*
X117940000Y-52589000D01*
X115860000Y-52629000D02*
X114450000Y-52629000D01*
X119350000Y-52629000D02*
X117940000Y-52629000D01*
X115860000Y-52669000D02*
X114416000Y-52669000D01*
X119384000Y-52669000D02*
X117940000Y-52669000D01*
X115860000Y-52709000D02*
X114384000Y-52709000D01*
X119416000Y-52709000D02*
X117940000Y-52709000D01*
X115860000Y-52749000D02*
X114352000Y-52749000D01*
X119448000Y-52749000D02*
X117940000Y-52749000D01*
X115860000Y-52789000D02*
X114322000Y-52789000D01*
X119478000Y-52789000D02*
X117940000Y-52789000D01*
X115860000Y-52829000D02*
X114293000Y-52829000D01*
X119507000Y-52829000D02*
X117940000Y-52829000D01*
X115860000Y-52869000D02*
X114264000Y-52869000D01*
X119536000Y-52869000D02*
X117940000Y-52869000D01*
X115860000Y-52909000D02*
X114236000Y-52909000D01*
X119564000Y-52909000D02*
X117940000Y-52909000D01*
X115860000Y-52949000D02*
X114210000Y-52949000D01*
X119590000Y-52949000D02*
X117940000Y-52949000D01*
X115860000Y-52989000D02*
X114184000Y-52989000D01*
X119616000Y-52989000D02*
X117940000Y-52989000D01*
X115860000Y-53029000D02*
X114158000Y-53029000D01*
X119642000Y-53029000D02*
X117940000Y-53029000D01*
X115860000Y-53069000D02*
X114134000Y-53069000D01*
X119666000Y-53069000D02*
X117940000Y-53069000D01*
X115860000Y-53109000D02*
X114110000Y-53109000D01*
X119690000Y-53109000D02*
X117940000Y-53109000D01*
X115860000Y-53149000D02*
X114088000Y-53149000D01*
X119712000Y-53149000D02*
X117940000Y-53149000D01*
X115860000Y-53189000D02*
X114066000Y-53189000D01*
X119734000Y-53189000D02*
X117940000Y-53189000D01*
X115860000Y-53229000D02*
X114044000Y-53229000D01*
X119756000Y-53229000D02*
X117940000Y-53229000D01*
X115860000Y-53269000D02*
X114024000Y-53269000D01*
X119776000Y-53269000D02*
X117940000Y-53269000D01*
X115860000Y-53309000D02*
X114004000Y-53309000D01*
X119796000Y-53309000D02*
X117940000Y-53309000D01*
X115860000Y-53349000D02*
X113984000Y-53349000D01*
X119816000Y-53349000D02*
X117940000Y-53349000D01*
X115860000Y-53389000D02*
X113966000Y-53389000D01*
X119834000Y-53389000D02*
X117940000Y-53389000D01*
X115860000Y-53429000D02*
X113948000Y-53429000D01*
X119852000Y-53429000D02*
X117940000Y-53429000D01*
X115860000Y-53469000D02*
X113930000Y-53469000D01*
X119870000Y-53469000D02*
X117940000Y-53469000D01*
X115860000Y-53509000D02*
X113914000Y-53509000D01*
X119886000Y-53509000D02*
X117940000Y-53509000D01*
X115860000Y-53549000D02*
X113898000Y-53549000D01*
X119902000Y-53549000D02*
X117940000Y-53549000D01*
X115860000Y-53589000D02*
X113882000Y-53589000D01*
X119918000Y-53589000D02*
X117940000Y-53589000D01*
X115860000Y-53629000D02*
X113867000Y-53629000D01*
X119933000Y-53629000D02*
X117940000Y-53629000D01*
X115860000Y-53669000D02*
X113853000Y-53669000D01*
X119947000Y-53669000D02*
X117940000Y-53669000D01*
X115860000Y-53709000D02*
X113839000Y-53709000D01*
X119961000Y-53709000D02*
X117940000Y-53709000D01*
X115860000Y-53749000D02*
X113826000Y-53749000D01*
X119974000Y-53749000D02*
X117940000Y-53749000D01*
X115860000Y-53789000D02*
X113814000Y-53789000D01*
X119986000Y-53789000D02*
X117940000Y-53789000D01*
X115860000Y-53829000D02*
X113802000Y-53829000D01*
X119998000Y-53829000D02*
X117940000Y-53829000D01*
X115860000Y-53869000D02*
X113790000Y-53869000D01*
X120010000Y-53869000D02*
X117940000Y-53869000D01*
X115860000Y-53909000D02*
X113779000Y-53909000D01*
X120021000Y-53909000D02*
X117940000Y-53909000D01*
X115860000Y-53949000D02*
X113769000Y-53949000D01*
X120031000Y-53949000D02*
X117940000Y-53949000D01*
X115860000Y-53989000D02*
X113759000Y-53989000D01*
X120041000Y-53989000D02*
X117940000Y-53989000D01*
X115860000Y-54029000D02*
X113750000Y-54029000D01*
X120050000Y-54029000D02*
X117940000Y-54029000D01*
X115860000Y-54070000D02*
X113741000Y-54070000D01*
X120059000Y-54070000D02*
X117940000Y-54070000D01*
X115860000Y-54110000D02*
X113733000Y-54110000D01*
X120067000Y-54110000D02*
X117940000Y-54110000D01*
X115860000Y-54150000D02*
X113725000Y-54150000D01*
X120075000Y-54150000D02*
X117940000Y-54150000D01*
X115860000Y-54190000D02*
X113718000Y-54190000D01*
X120082000Y-54190000D02*
X117940000Y-54190000D01*
X115860000Y-54230000D02*
X113711000Y-54230000D01*
X120089000Y-54230000D02*
X117940000Y-54230000D01*
X115860000Y-54270000D02*
X113705000Y-54270000D01*
X120095000Y-54270000D02*
X117940000Y-54270000D01*
X115860000Y-54310000D02*
X113699000Y-54310000D01*
X120101000Y-54310000D02*
X117940000Y-54310000D01*
X115860000Y-54350000D02*
X113694000Y-54350000D01*
X120106000Y-54350000D02*
X117940000Y-54350000D01*
X115860000Y-54390000D02*
X113689000Y-54390000D01*
X120111000Y-54390000D02*
X117940000Y-54390000D01*
X115860000Y-54430000D02*
X113685000Y-54430000D01*
X120115000Y-54430000D02*
X117940000Y-54430000D01*
X115860000Y-54470000D02*
X113682000Y-54470000D01*
X120118000Y-54470000D02*
X117940000Y-54470000D01*
X115860000Y-54510000D02*
X113678000Y-54510000D01*
X120122000Y-54510000D02*
X117940000Y-54510000D01*
X120124000Y-54550000D02*
X113676000Y-54550000D01*
X120127000Y-54590000D02*
X113673000Y-54590000D01*
X120128000Y-54630000D02*
X113672000Y-54630000D01*
X120130000Y-54670000D02*
X113670000Y-54670000D01*
X120130000Y-54710000D02*
X113670000Y-54710000D01*
X120130000Y-54750000D02*
X113670000Y-54750000D01*
X120170000Y-54750000D02*
G75*
G03*
X120170000Y-54750000I-3270000J0D01*
G01*
%TO.C,C8*%
X157964000Y-104810000D02*
X157964000Y-108550000D01*
X165204000Y-104810000D02*
X165204000Y-108550000D01*
X165204000Y-108550000D02*
X157964000Y-108550000D01*
X165204000Y-104810000D02*
X157964000Y-104810000D01*
%TO.C,C7*%
X165632000Y-102462000D02*
X165632000Y-99722000D01*
X158392000Y-102462000D02*
X158392000Y-99722000D01*
X158392000Y-99722000D02*
X165632000Y-99722000D01*
X158392000Y-102462000D02*
X165632000Y-102462000D01*
%TO.C,C6*%
X157964000Y-136806000D02*
X157964000Y-139546000D01*
X165204000Y-136806000D02*
X165204000Y-139546000D01*
X165204000Y-139546000D02*
X157964000Y-139546000D01*
X165204000Y-136806000D02*
X157964000Y-136806000D01*
%TO.C,C5*%
X139295000Y-102135000D02*
X139295000Y-104875000D01*
X146535000Y-102135000D02*
X146535000Y-104875000D01*
X146535000Y-104875000D02*
X139295000Y-104875000D01*
X146535000Y-102135000D02*
X139295000Y-102135000D01*
%TO.C,C4*%
X158345000Y-58455000D02*
X158345000Y-62195000D01*
X165585000Y-58455000D02*
X165585000Y-62195000D01*
X165585000Y-62195000D02*
X158345000Y-62195000D01*
X165585000Y-58455000D02*
X158345000Y-58455000D01*
%TO.C,C3*%
X165505000Y-55980000D02*
X165505000Y-53240000D01*
X158265000Y-55980000D02*
X158265000Y-53240000D01*
X158265000Y-53240000D02*
X165505000Y-53240000D01*
X158265000Y-55980000D02*
X165505000Y-55980000D01*
%TO.C,C2*%
X157884000Y-90070000D02*
X157884000Y-92810000D01*
X165124000Y-90070000D02*
X165124000Y-92810000D01*
X165124000Y-92810000D02*
X157884000Y-92810000D01*
X165124000Y-90070000D02*
X157884000Y-90070000D01*
%TO.C,C1*%
X139295000Y-55145000D02*
X139295000Y-57885000D01*
X146535000Y-55145000D02*
X146535000Y-57885000D01*
X146535000Y-57885000D02*
X139295000Y-57885000D01*
X146535000Y-55145000D02*
X139295000Y-55145000D01*
%TO.C,J4*%
D10*
X103711333Y-119467380D02*
X103711333Y-120181666D01*
X103758952Y-120324523D01*
X103854190Y-120419761D01*
X103997047Y-120467380D01*
X104092285Y-120467380D01*
X102806571Y-119800714D02*
X102806571Y-120467380D01*
X103044666Y-119419761D02*
X103282761Y-120134047D01*
X102663714Y-120134047D01*
%TO.C,J3*%
X107013333Y-70572380D02*
X107013333Y-71286666D01*
X107060952Y-71429523D01*
X107156190Y-71524761D01*
X107299047Y-71572380D01*
X107394285Y-71572380D01*
X106632380Y-70572380D02*
X106013333Y-70572380D01*
X106346666Y-70953333D01*
X106203809Y-70953333D01*
X106108571Y-71000952D01*
X106060952Y-71048571D01*
X106013333Y-71143809D01*
X106013333Y-71381904D01*
X106060952Y-71477142D01*
X106108571Y-71524761D01*
X106203809Y-71572380D01*
X106489523Y-71572380D01*
X106584761Y-71524761D01*
X106632380Y-71477142D01*
%TO.C,U7*%
X117899904Y-96988380D02*
X117899904Y-97797904D01*
X117852285Y-97893142D01*
X117804666Y-97940761D01*
X117709428Y-97988380D01*
X117518952Y-97988380D01*
X117423714Y-97940761D01*
X117376095Y-97893142D01*
X117328476Y-97797904D01*
X117328476Y-96988380D01*
X116947523Y-96988380D02*
X116280857Y-96988380D01*
X116709428Y-97988380D01*
%TO.C,U6*%
X153161904Y-145038380D02*
X153161904Y-145847904D01*
X153114285Y-145943142D01*
X153066666Y-145990761D01*
X152971428Y-146038380D01*
X152780952Y-146038380D01*
X152685714Y-145990761D01*
X152638095Y-145943142D01*
X152590476Y-145847904D01*
X152590476Y-145038380D01*
X151685714Y-145038380D02*
X151876190Y-145038380D01*
X151971428Y-145086000D01*
X152019047Y-145133619D01*
X152114285Y-145276476D01*
X152161904Y-145466952D01*
X152161904Y-145847904D01*
X152114285Y-145943142D01*
X152066666Y-145990761D01*
X151971428Y-146038380D01*
X151780952Y-146038380D01*
X151685714Y-145990761D01*
X151638095Y-145943142D01*
X151590476Y-145847904D01*
X151590476Y-145609809D01*
X151638095Y-145514571D01*
X151685714Y-145466952D01*
X151780952Y-145419333D01*
X151971428Y-145419333D01*
X152066666Y-145466952D01*
X152114285Y-145514571D01*
X152161904Y-145609809D01*
%TO.C,U5*%
X153161904Y-110240380D02*
X153161904Y-111049904D01*
X153114285Y-111145142D01*
X153066666Y-111192761D01*
X152971428Y-111240380D01*
X152780952Y-111240380D01*
X152685714Y-111192761D01*
X152638095Y-111145142D01*
X152590476Y-111049904D01*
X152590476Y-110240380D01*
X151638095Y-110240380D02*
X152114285Y-110240380D01*
X152161904Y-110716571D01*
X152114285Y-110668952D01*
X152019047Y-110621333D01*
X151780952Y-110621333D01*
X151685714Y-110668952D01*
X151638095Y-110716571D01*
X151590476Y-110811809D01*
X151590476Y-111049904D01*
X151638095Y-111145142D01*
X151685714Y-111192761D01*
X151780952Y-111240380D01*
X152019047Y-111240380D01*
X152114285Y-111192761D01*
X152161904Y-111145142D01*
%TO.C,U4*%
X153161904Y-132592380D02*
X153161904Y-133401904D01*
X153114285Y-133497142D01*
X153066666Y-133544761D01*
X152971428Y-133592380D01*
X152780952Y-133592380D01*
X152685714Y-133544761D01*
X152638095Y-133497142D01*
X152590476Y-133401904D01*
X152590476Y-132592380D01*
X151685714Y-132925714D02*
X151685714Y-133592380D01*
X151923809Y-132544761D02*
X152161904Y-133259047D01*
X151542857Y-133259047D01*
%TO.C,U3*%
X153161904Y-97667380D02*
X153161904Y-98476904D01*
X153114285Y-98572142D01*
X153066666Y-98619761D01*
X152971428Y-98667380D01*
X152780952Y-98667380D01*
X152685714Y-98619761D01*
X152638095Y-98572142D01*
X152590476Y-98476904D01*
X152590476Y-97667380D01*
X152209523Y-97667380D02*
X151590476Y-97667380D01*
X151923809Y-98048333D01*
X151780952Y-98048333D01*
X151685714Y-98095952D01*
X151638095Y-98143571D01*
X151590476Y-98238809D01*
X151590476Y-98476904D01*
X151638095Y-98572142D01*
X151685714Y-98619761D01*
X151780952Y-98667380D01*
X152066666Y-98667380D01*
X152161904Y-98619761D01*
X152209523Y-98572142D01*
%TO.C,U2*%
X153161904Y-63377380D02*
X153161904Y-64186904D01*
X153114285Y-64282142D01*
X153066666Y-64329761D01*
X152971428Y-64377380D01*
X152780952Y-64377380D01*
X152685714Y-64329761D01*
X152638095Y-64282142D01*
X152590476Y-64186904D01*
X152590476Y-63377380D01*
X152161904Y-63472619D02*
X152114285Y-63425000D01*
X152019047Y-63377380D01*
X151780952Y-63377380D01*
X151685714Y-63425000D01*
X151638095Y-63472619D01*
X151590476Y-63567857D01*
X151590476Y-63663095D01*
X151638095Y-63805952D01*
X152209523Y-64377380D01*
X151590476Y-64377380D01*
%TO.C,U1*%
X153161904Y-85602380D02*
X153161904Y-86411904D01*
X153114285Y-86507142D01*
X153066666Y-86554761D01*
X152971428Y-86602380D01*
X152780952Y-86602380D01*
X152685714Y-86554761D01*
X152638095Y-86507142D01*
X152590476Y-86411904D01*
X152590476Y-85602380D01*
X151590476Y-86602380D02*
X152161904Y-86602380D01*
X151876190Y-86602380D02*
X151876190Y-85602380D01*
X151971428Y-85745238D01*
X152066666Y-85840476D01*
X152161904Y-85888095D01*
%TO.C,R42*%
X197894380Y-126611142D02*
X197418190Y-126277809D01*
X197894380Y-126039714D02*
X196894380Y-126039714D01*
X196894380Y-126420666D01*
X196942000Y-126515904D01*
X196989619Y-126563523D01*
X197084857Y-126611142D01*
X197227714Y-126611142D01*
X197322952Y-126563523D01*
X197370571Y-126515904D01*
X197418190Y-126420666D01*
X197418190Y-126039714D01*
X197227714Y-127468285D02*
X197894380Y-127468285D01*
X196846761Y-127230190D02*
X197561047Y-126992095D01*
X197561047Y-127611142D01*
X196989619Y-127944476D02*
X196942000Y-127992095D01*
X196894380Y-128087333D01*
X196894380Y-128325428D01*
X196942000Y-128420666D01*
X196989619Y-128468285D01*
X197084857Y-128515904D01*
X197180095Y-128515904D01*
X197322952Y-128468285D01*
X197894380Y-127896857D01*
X197894380Y-128515904D01*
%TO.C,R41*%
X115852380Y-85209142D02*
X115376190Y-84875809D01*
X115852380Y-84637714D02*
X114852380Y-84637714D01*
X114852380Y-85018666D01*
X114900000Y-85113904D01*
X114947619Y-85161523D01*
X115042857Y-85209142D01*
X115185714Y-85209142D01*
X115280952Y-85161523D01*
X115328571Y-85113904D01*
X115376190Y-85018666D01*
X115376190Y-84637714D01*
X115185714Y-86066285D02*
X115852380Y-86066285D01*
X114804761Y-85828190D02*
X115519047Y-85590095D01*
X115519047Y-86209142D01*
X115852380Y-87113904D02*
X115852380Y-86542476D01*
X115852380Y-86828190D02*
X114852380Y-86828190D01*
X114995238Y-86732952D01*
X115090476Y-86637714D01*
X115138095Y-86542476D01*
%TO.C,R40*%
X118392380Y-123817142D02*
X117916190Y-123483809D01*
X118392380Y-123245714D02*
X117392380Y-123245714D01*
X117392380Y-123626666D01*
X117440000Y-123721904D01*
X117487619Y-123769523D01*
X117582857Y-123817142D01*
X117725714Y-123817142D01*
X117820952Y-123769523D01*
X117868571Y-123721904D01*
X117916190Y-123626666D01*
X117916190Y-123245714D01*
X117725714Y-124674285D02*
X118392380Y-124674285D01*
X117344761Y-124436190D02*
X118059047Y-124198095D01*
X118059047Y-124817142D01*
X117392380Y-125388571D02*
X117392380Y-125483809D01*
X117440000Y-125579047D01*
X117487619Y-125626666D01*
X117582857Y-125674285D01*
X117773333Y-125721904D01*
X118011428Y-125721904D01*
X118201904Y-125674285D01*
X118297142Y-125626666D01*
X118344761Y-125579047D01*
X118392380Y-125483809D01*
X118392380Y-125388571D01*
X118344761Y-125293333D01*
X118297142Y-125245714D01*
X118201904Y-125198095D01*
X118011428Y-125150476D01*
X117773333Y-125150476D01*
X117582857Y-125198095D01*
X117487619Y-125245714D01*
X117440000Y-125293333D01*
X117392380Y-125388571D01*
%TO.C,R39*%
X111026380Y-85209142D02*
X110550190Y-84875809D01*
X111026380Y-84637714D02*
X110026380Y-84637714D01*
X110026380Y-85018666D01*
X110074000Y-85113904D01*
X110121619Y-85161523D01*
X110216857Y-85209142D01*
X110359714Y-85209142D01*
X110454952Y-85161523D01*
X110502571Y-85113904D01*
X110550190Y-85018666D01*
X110550190Y-84637714D01*
X110026380Y-85542476D02*
X110026380Y-86161523D01*
X110407333Y-85828190D01*
X110407333Y-85971047D01*
X110454952Y-86066285D01*
X110502571Y-86113904D01*
X110597809Y-86161523D01*
X110835904Y-86161523D01*
X110931142Y-86113904D01*
X110978761Y-86066285D01*
X111026380Y-85971047D01*
X111026380Y-85685333D01*
X110978761Y-85590095D01*
X110931142Y-85542476D01*
X111026380Y-86637714D02*
X111026380Y-86828190D01*
X110978761Y-86923428D01*
X110931142Y-86971047D01*
X110788285Y-87066285D01*
X110597809Y-87113904D01*
X110216857Y-87113904D01*
X110121619Y-87066285D01*
X110074000Y-87018666D01*
X110026380Y-86923428D01*
X110026380Y-86732952D01*
X110074000Y-86637714D01*
X110121619Y-86590095D01*
X110216857Y-86542476D01*
X110454952Y-86542476D01*
X110550190Y-86590095D01*
X110597809Y-86637714D01*
X110645428Y-86732952D01*
X110645428Y-86923428D01*
X110597809Y-87018666D01*
X110550190Y-87066285D01*
X110454952Y-87113904D01*
%TO.C,R38*%
X117884380Y-108831142D02*
X117408190Y-108497809D01*
X117884380Y-108259714D02*
X116884380Y-108259714D01*
X116884380Y-108640666D01*
X116932000Y-108735904D01*
X116979619Y-108783523D01*
X117074857Y-108831142D01*
X117217714Y-108831142D01*
X117312952Y-108783523D01*
X117360571Y-108735904D01*
X117408190Y-108640666D01*
X117408190Y-108259714D01*
X116884380Y-109164476D02*
X116884380Y-109783523D01*
X117265333Y-109450190D01*
X117265333Y-109593047D01*
X117312952Y-109688285D01*
X117360571Y-109735904D01*
X117455809Y-109783523D01*
X117693904Y-109783523D01*
X117789142Y-109735904D01*
X117836761Y-109688285D01*
X117884380Y-109593047D01*
X117884380Y-109307333D01*
X117836761Y-109212095D01*
X117789142Y-109164476D01*
X117312952Y-110354952D02*
X117265333Y-110259714D01*
X117217714Y-110212095D01*
X117122476Y-110164476D01*
X117074857Y-110164476D01*
X116979619Y-110212095D01*
X116932000Y-110259714D01*
X116884380Y-110354952D01*
X116884380Y-110545428D01*
X116932000Y-110640666D01*
X116979619Y-110688285D01*
X117074857Y-110735904D01*
X117122476Y-110735904D01*
X117217714Y-110688285D01*
X117265333Y-110640666D01*
X117312952Y-110545428D01*
X117312952Y-110354952D01*
X117360571Y-110259714D01*
X117408190Y-110212095D01*
X117503428Y-110164476D01*
X117693904Y-110164476D01*
X117789142Y-110212095D01*
X117836761Y-110259714D01*
X117884380Y-110354952D01*
X117884380Y-110545428D01*
X117836761Y-110640666D01*
X117789142Y-110688285D01*
X117693904Y-110735904D01*
X117503428Y-110735904D01*
X117408190Y-110688285D01*
X117360571Y-110640666D01*
X117312952Y-110545428D01*
%TO.C,R37*%
X108910380Y-108831142D02*
X108434190Y-108497809D01*
X108910380Y-108259714D02*
X107910380Y-108259714D01*
X107910380Y-108640666D01*
X107958000Y-108735904D01*
X108005619Y-108783523D01*
X108100857Y-108831142D01*
X108243714Y-108831142D01*
X108338952Y-108783523D01*
X108386571Y-108735904D01*
X108434190Y-108640666D01*
X108434190Y-108259714D01*
X107910380Y-109164476D02*
X107910380Y-109783523D01*
X108291333Y-109450190D01*
X108291333Y-109593047D01*
X108338952Y-109688285D01*
X108386571Y-109735904D01*
X108481809Y-109783523D01*
X108719904Y-109783523D01*
X108815142Y-109735904D01*
X108862761Y-109688285D01*
X108910380Y-109593047D01*
X108910380Y-109307333D01*
X108862761Y-109212095D01*
X108815142Y-109164476D01*
X107910380Y-110116857D02*
X107910380Y-110783523D01*
X108910380Y-110354952D01*
%TO.C,R36*%
X113482380Y-108831142D02*
X113006190Y-108497809D01*
X113482380Y-108259714D02*
X112482380Y-108259714D01*
X112482380Y-108640666D01*
X112530000Y-108735904D01*
X112577619Y-108783523D01*
X112672857Y-108831142D01*
X112815714Y-108831142D01*
X112910952Y-108783523D01*
X112958571Y-108735904D01*
X113006190Y-108640666D01*
X113006190Y-108259714D01*
X112482380Y-109164476D02*
X112482380Y-109783523D01*
X112863333Y-109450190D01*
X112863333Y-109593047D01*
X112910952Y-109688285D01*
X112958571Y-109735904D01*
X113053809Y-109783523D01*
X113291904Y-109783523D01*
X113387142Y-109735904D01*
X113434761Y-109688285D01*
X113482380Y-109593047D01*
X113482380Y-109307333D01*
X113434761Y-109212095D01*
X113387142Y-109164476D01*
X112482380Y-110640666D02*
X112482380Y-110450190D01*
X112530000Y-110354952D01*
X112577619Y-110307333D01*
X112720476Y-110212095D01*
X112910952Y-110164476D01*
X113291904Y-110164476D01*
X113387142Y-110212095D01*
X113434761Y-110259714D01*
X113482380Y-110354952D01*
X113482380Y-110545428D01*
X113434761Y-110640666D01*
X113387142Y-110688285D01*
X113291904Y-110735904D01*
X113053809Y-110735904D01*
X112958571Y-110688285D01*
X112910952Y-110640666D01*
X112863333Y-110545428D01*
X112863333Y-110354952D01*
X112910952Y-110259714D01*
X112958571Y-110212095D01*
X113053809Y-110164476D01*
%TO.C,R35*%
X164726857Y-129484380D02*
X165060190Y-129008190D01*
X165298285Y-129484380D02*
X165298285Y-128484380D01*
X164917333Y-128484380D01*
X164822095Y-128532000D01*
X164774476Y-128579619D01*
X164726857Y-128674857D01*
X164726857Y-128817714D01*
X164774476Y-128912952D01*
X164822095Y-128960571D01*
X164917333Y-129008190D01*
X165298285Y-129008190D01*
X164393523Y-128484380D02*
X163774476Y-128484380D01*
X164107809Y-128865333D01*
X163964952Y-128865333D01*
X163869714Y-128912952D01*
X163822095Y-128960571D01*
X163774476Y-129055809D01*
X163774476Y-129293904D01*
X163822095Y-129389142D01*
X163869714Y-129436761D01*
X163964952Y-129484380D01*
X164250666Y-129484380D01*
X164345904Y-129436761D01*
X164393523Y-129389142D01*
X162869714Y-128484380D02*
X163345904Y-128484380D01*
X163393523Y-128960571D01*
X163345904Y-128912952D01*
X163250666Y-128865333D01*
X163012571Y-128865333D01*
X162917333Y-128912952D01*
X162869714Y-128960571D01*
X162822095Y-129055809D01*
X162822095Y-129293904D01*
X162869714Y-129389142D01*
X162917333Y-129436761D01*
X163012571Y-129484380D01*
X163250666Y-129484380D01*
X163345904Y-129436761D01*
X163393523Y-129389142D01*
%TO.C,R34*%
X141358857Y-134734380D02*
X141692190Y-134258190D01*
X141930285Y-134734380D02*
X141930285Y-133734380D01*
X141549333Y-133734380D01*
X141454095Y-133782000D01*
X141406476Y-133829619D01*
X141358857Y-133924857D01*
X141358857Y-134067714D01*
X141406476Y-134162952D01*
X141454095Y-134210571D01*
X141549333Y-134258190D01*
X141930285Y-134258190D01*
X141025523Y-133734380D02*
X140406476Y-133734380D01*
X140739809Y-134115333D01*
X140596952Y-134115333D01*
X140501714Y-134162952D01*
X140454095Y-134210571D01*
X140406476Y-134305809D01*
X140406476Y-134543904D01*
X140454095Y-134639142D01*
X140501714Y-134686761D01*
X140596952Y-134734380D01*
X140882666Y-134734380D01*
X140977904Y-134686761D01*
X141025523Y-134639142D01*
X139549333Y-134067714D02*
X139549333Y-134734380D01*
X139787428Y-133686761D02*
X140025523Y-134401047D01*
X139406476Y-134401047D01*
%TO.C,R33*%
X164726857Y-115768380D02*
X165060190Y-115292190D01*
X165298285Y-115768380D02*
X165298285Y-114768380D01*
X164917333Y-114768380D01*
X164822095Y-114816000D01*
X164774476Y-114863619D01*
X164726857Y-114958857D01*
X164726857Y-115101714D01*
X164774476Y-115196952D01*
X164822095Y-115244571D01*
X164917333Y-115292190D01*
X165298285Y-115292190D01*
X164393523Y-114768380D02*
X163774476Y-114768380D01*
X164107809Y-115149333D01*
X163964952Y-115149333D01*
X163869714Y-115196952D01*
X163822095Y-115244571D01*
X163774476Y-115339809D01*
X163774476Y-115577904D01*
X163822095Y-115673142D01*
X163869714Y-115720761D01*
X163964952Y-115768380D01*
X164250666Y-115768380D01*
X164345904Y-115720761D01*
X164393523Y-115673142D01*
X163441142Y-114768380D02*
X162822095Y-114768380D01*
X163155428Y-115149333D01*
X163012571Y-115149333D01*
X162917333Y-115196952D01*
X162869714Y-115244571D01*
X162822095Y-115339809D01*
X162822095Y-115577904D01*
X162869714Y-115673142D01*
X162917333Y-115720761D01*
X163012571Y-115768380D01*
X163298285Y-115768380D01*
X163393523Y-115720761D01*
X163441142Y-115673142D01*
%TO.C,R32*%
X164726857Y-110985380D02*
X165060190Y-110509190D01*
X165298285Y-110985380D02*
X165298285Y-109985380D01*
X164917333Y-109985380D01*
X164822095Y-110033000D01*
X164774476Y-110080619D01*
X164726857Y-110175857D01*
X164726857Y-110318714D01*
X164774476Y-110413952D01*
X164822095Y-110461571D01*
X164917333Y-110509190D01*
X165298285Y-110509190D01*
X164393523Y-109985380D02*
X163774476Y-109985380D01*
X164107809Y-110366333D01*
X163964952Y-110366333D01*
X163869714Y-110413952D01*
X163822095Y-110461571D01*
X163774476Y-110556809D01*
X163774476Y-110794904D01*
X163822095Y-110890142D01*
X163869714Y-110937761D01*
X163964952Y-110985380D01*
X164250666Y-110985380D01*
X164345904Y-110937761D01*
X164393523Y-110890142D01*
X163393523Y-110080619D02*
X163345904Y-110033000D01*
X163250666Y-109985380D01*
X163012571Y-109985380D01*
X162917333Y-110033000D01*
X162869714Y-110080619D01*
X162822095Y-110175857D01*
X162822095Y-110271095D01*
X162869714Y-110413952D01*
X163441142Y-110985380D01*
X162822095Y-110985380D01*
%TO.C,R31*%
X141358857Y-139644380D02*
X141692190Y-139168190D01*
X141930285Y-139644380D02*
X141930285Y-138644380D01*
X141549333Y-138644380D01*
X141454095Y-138692000D01*
X141406476Y-138739619D01*
X141358857Y-138834857D01*
X141358857Y-138977714D01*
X141406476Y-139072952D01*
X141454095Y-139120571D01*
X141549333Y-139168190D01*
X141930285Y-139168190D01*
X141025523Y-138644380D02*
X140406476Y-138644380D01*
X140739809Y-139025333D01*
X140596952Y-139025333D01*
X140501714Y-139072952D01*
X140454095Y-139120571D01*
X140406476Y-139215809D01*
X140406476Y-139453904D01*
X140454095Y-139549142D01*
X140501714Y-139596761D01*
X140596952Y-139644380D01*
X140882666Y-139644380D01*
X140977904Y-139596761D01*
X141025523Y-139549142D01*
X139454095Y-139644380D02*
X140025523Y-139644380D01*
X139739809Y-139644380D02*
X139739809Y-138644380D01*
X139835047Y-138787238D01*
X139930285Y-138882476D01*
X140025523Y-138930095D01*
%TO.C,R30*%
X164726857Y-120340380D02*
X165060190Y-119864190D01*
X165298285Y-120340380D02*
X165298285Y-119340380D01*
X164917333Y-119340380D01*
X164822095Y-119388000D01*
X164774476Y-119435619D01*
X164726857Y-119530857D01*
X164726857Y-119673714D01*
X164774476Y-119768952D01*
X164822095Y-119816571D01*
X164917333Y-119864190D01*
X165298285Y-119864190D01*
X164393523Y-119340380D02*
X163774476Y-119340380D01*
X164107809Y-119721333D01*
X163964952Y-119721333D01*
X163869714Y-119768952D01*
X163822095Y-119816571D01*
X163774476Y-119911809D01*
X163774476Y-120149904D01*
X163822095Y-120245142D01*
X163869714Y-120292761D01*
X163964952Y-120340380D01*
X164250666Y-120340380D01*
X164345904Y-120292761D01*
X164393523Y-120245142D01*
X163155428Y-119340380D02*
X163060190Y-119340380D01*
X162964952Y-119388000D01*
X162917333Y-119435619D01*
X162869714Y-119530857D01*
X162822095Y-119721333D01*
X162822095Y-119959428D01*
X162869714Y-120149904D01*
X162917333Y-120245142D01*
X162964952Y-120292761D01*
X163060190Y-120340380D01*
X163155428Y-120340380D01*
X163250666Y-120292761D01*
X163298285Y-120245142D01*
X163345904Y-120149904D01*
X163393523Y-119959428D01*
X163393523Y-119721333D01*
X163345904Y-119530857D01*
X163298285Y-119435619D01*
X163250666Y-119388000D01*
X163155428Y-119340380D01*
%TO.C,R29*%
X164853857Y-124912380D02*
X165187190Y-124436190D01*
X165425285Y-124912380D02*
X165425285Y-123912380D01*
X165044333Y-123912380D01*
X164949095Y-123960000D01*
X164901476Y-124007619D01*
X164853857Y-124102857D01*
X164853857Y-124245714D01*
X164901476Y-124340952D01*
X164949095Y-124388571D01*
X165044333Y-124436190D01*
X165425285Y-124436190D01*
X164472904Y-124007619D02*
X164425285Y-123960000D01*
X164330047Y-123912380D01*
X164091952Y-123912380D01*
X163996714Y-123960000D01*
X163949095Y-124007619D01*
X163901476Y-124102857D01*
X163901476Y-124198095D01*
X163949095Y-124340952D01*
X164520523Y-124912380D01*
X163901476Y-124912380D01*
X163425285Y-124912380D02*
X163234809Y-124912380D01*
X163139571Y-124864761D01*
X163091952Y-124817142D01*
X162996714Y-124674285D01*
X162949095Y-124483809D01*
X162949095Y-124102857D01*
X162996714Y-124007619D01*
X163044333Y-123960000D01*
X163139571Y-123912380D01*
X163330047Y-123912380D01*
X163425285Y-123960000D01*
X163472904Y-124007619D01*
X163520523Y-124102857D01*
X163520523Y-124340952D01*
X163472904Y-124436190D01*
X163425285Y-124483809D01*
X163330047Y-124531428D01*
X163139571Y-124531428D01*
X163044333Y-124483809D01*
X162996714Y-124436190D01*
X162949095Y-124340952D01*
%TO.C,R28*%
X164726857Y-141676380D02*
X165060190Y-141200190D01*
X165298285Y-141676380D02*
X165298285Y-140676380D01*
X164917333Y-140676380D01*
X164822095Y-140724000D01*
X164774476Y-140771619D01*
X164726857Y-140866857D01*
X164726857Y-141009714D01*
X164774476Y-141104952D01*
X164822095Y-141152571D01*
X164917333Y-141200190D01*
X165298285Y-141200190D01*
X164345904Y-140771619D02*
X164298285Y-140724000D01*
X164203047Y-140676380D01*
X163964952Y-140676380D01*
X163869714Y-140724000D01*
X163822095Y-140771619D01*
X163774476Y-140866857D01*
X163774476Y-140962095D01*
X163822095Y-141104952D01*
X164393523Y-141676380D01*
X163774476Y-141676380D01*
X163203047Y-141104952D02*
X163298285Y-141057333D01*
X163345904Y-141009714D01*
X163393523Y-140914476D01*
X163393523Y-140866857D01*
X163345904Y-140771619D01*
X163298285Y-140724000D01*
X163203047Y-140676380D01*
X163012571Y-140676380D01*
X162917333Y-140724000D01*
X162869714Y-140771619D01*
X162822095Y-140866857D01*
X162822095Y-140914476D01*
X162869714Y-141009714D01*
X162917333Y-141057333D01*
X163012571Y-141104952D01*
X163203047Y-141104952D01*
X163298285Y-141152571D01*
X163345904Y-141200190D01*
X163393523Y-141295428D01*
X163393523Y-141485904D01*
X163345904Y-141581142D01*
X163298285Y-141628761D01*
X163203047Y-141676380D01*
X163012571Y-141676380D01*
X162917333Y-141628761D01*
X162869714Y-141581142D01*
X162822095Y-141485904D01*
X162822095Y-141295428D01*
X162869714Y-141200190D01*
X162917333Y-141152571D01*
X163012571Y-141104952D01*
%TO.C,R27*%
X186570857Y-107640380D02*
X186904190Y-107164190D01*
X187142285Y-107640380D02*
X187142285Y-106640380D01*
X186761333Y-106640380D01*
X186666095Y-106688000D01*
X186618476Y-106735619D01*
X186570857Y-106830857D01*
X186570857Y-106973714D01*
X186618476Y-107068952D01*
X186666095Y-107116571D01*
X186761333Y-107164190D01*
X187142285Y-107164190D01*
X186189904Y-106735619D02*
X186142285Y-106688000D01*
X186047047Y-106640380D01*
X185808952Y-106640380D01*
X185713714Y-106688000D01*
X185666095Y-106735619D01*
X185618476Y-106830857D01*
X185618476Y-106926095D01*
X185666095Y-107068952D01*
X186237523Y-107640380D01*
X185618476Y-107640380D01*
X185285142Y-106640380D02*
X184618476Y-106640380D01*
X185047047Y-107640380D01*
%TO.C,R26*%
X186570857Y-112212380D02*
X186904190Y-111736190D01*
X187142285Y-112212380D02*
X187142285Y-111212380D01*
X186761333Y-111212380D01*
X186666095Y-111260000D01*
X186618476Y-111307619D01*
X186570857Y-111402857D01*
X186570857Y-111545714D01*
X186618476Y-111640952D01*
X186666095Y-111688571D01*
X186761333Y-111736190D01*
X187142285Y-111736190D01*
X186189904Y-111307619D02*
X186142285Y-111260000D01*
X186047047Y-111212380D01*
X185808952Y-111212380D01*
X185713714Y-111260000D01*
X185666095Y-111307619D01*
X185618476Y-111402857D01*
X185618476Y-111498095D01*
X185666095Y-111640952D01*
X186237523Y-112212380D01*
X185618476Y-112212380D01*
X184761333Y-111212380D02*
X184951809Y-111212380D01*
X185047047Y-111260000D01*
X185094666Y-111307619D01*
X185189904Y-111450476D01*
X185237523Y-111640952D01*
X185237523Y-112021904D01*
X185189904Y-112117142D01*
X185142285Y-112164761D01*
X185047047Y-112212380D01*
X184856571Y-112212380D01*
X184761333Y-112164761D01*
X184713714Y-112117142D01*
X184666095Y-112021904D01*
X184666095Y-111783809D01*
X184713714Y-111688571D01*
X184761333Y-111640952D01*
X184856571Y-111593333D01*
X185047047Y-111593333D01*
X185142285Y-111640952D01*
X185189904Y-111688571D01*
X185237523Y-111783809D01*
%TO.C,R25*%
X141358857Y-129992380D02*
X141692190Y-129516190D01*
X141930285Y-129992380D02*
X141930285Y-128992380D01*
X141549333Y-128992380D01*
X141454095Y-129040000D01*
X141406476Y-129087619D01*
X141358857Y-129182857D01*
X141358857Y-129325714D01*
X141406476Y-129420952D01*
X141454095Y-129468571D01*
X141549333Y-129516190D01*
X141930285Y-129516190D01*
X140977904Y-129087619D02*
X140930285Y-129040000D01*
X140835047Y-128992380D01*
X140596952Y-128992380D01*
X140501714Y-129040000D01*
X140454095Y-129087619D01*
X140406476Y-129182857D01*
X140406476Y-129278095D01*
X140454095Y-129420952D01*
X141025523Y-129992380D01*
X140406476Y-129992380D01*
X139501714Y-128992380D02*
X139977904Y-128992380D01*
X140025523Y-129468571D01*
X139977904Y-129420952D01*
X139882666Y-129373333D01*
X139644571Y-129373333D01*
X139549333Y-129420952D01*
X139501714Y-129468571D01*
X139454095Y-129563809D01*
X139454095Y-129801904D01*
X139501714Y-129897142D01*
X139549333Y-129944761D01*
X139644571Y-129992380D01*
X139882666Y-129992380D01*
X139977904Y-129944761D01*
X140025523Y-129897142D01*
%TO.C,R24*%
X186570857Y-116784380D02*
X186904190Y-116308190D01*
X187142285Y-116784380D02*
X187142285Y-115784380D01*
X186761333Y-115784380D01*
X186666095Y-115832000D01*
X186618476Y-115879619D01*
X186570857Y-115974857D01*
X186570857Y-116117714D01*
X186618476Y-116212952D01*
X186666095Y-116260571D01*
X186761333Y-116308190D01*
X187142285Y-116308190D01*
X186189904Y-115879619D02*
X186142285Y-115832000D01*
X186047047Y-115784380D01*
X185808952Y-115784380D01*
X185713714Y-115832000D01*
X185666095Y-115879619D01*
X185618476Y-115974857D01*
X185618476Y-116070095D01*
X185666095Y-116212952D01*
X186237523Y-116784380D01*
X185618476Y-116784380D01*
X184761333Y-116117714D02*
X184761333Y-116784380D01*
X184999428Y-115736761D02*
X185237523Y-116451047D01*
X184618476Y-116451047D01*
%TO.C,R23*%
X186570857Y-121356380D02*
X186904190Y-120880190D01*
X187142285Y-121356380D02*
X187142285Y-120356380D01*
X186761333Y-120356380D01*
X186666095Y-120404000D01*
X186618476Y-120451619D01*
X186570857Y-120546857D01*
X186570857Y-120689714D01*
X186618476Y-120784952D01*
X186666095Y-120832571D01*
X186761333Y-120880190D01*
X187142285Y-120880190D01*
X186189904Y-120451619D02*
X186142285Y-120404000D01*
X186047047Y-120356380D01*
X185808952Y-120356380D01*
X185713714Y-120404000D01*
X185666095Y-120451619D01*
X185618476Y-120546857D01*
X185618476Y-120642095D01*
X185666095Y-120784952D01*
X186237523Y-121356380D01*
X185618476Y-121356380D01*
X185285142Y-120356380D02*
X184666095Y-120356380D01*
X184999428Y-120737333D01*
X184856571Y-120737333D01*
X184761333Y-120784952D01*
X184713714Y-120832571D01*
X184666095Y-120927809D01*
X184666095Y-121165904D01*
X184713714Y-121261142D01*
X184761333Y-121308761D01*
X184856571Y-121356380D01*
X185142285Y-121356380D01*
X185237523Y-121308761D01*
X185285142Y-121261142D01*
%TO.C,R22*%
X186570857Y-125928380D02*
X186904190Y-125452190D01*
X187142285Y-125928380D02*
X187142285Y-124928380D01*
X186761333Y-124928380D01*
X186666095Y-124976000D01*
X186618476Y-125023619D01*
X186570857Y-125118857D01*
X186570857Y-125261714D01*
X186618476Y-125356952D01*
X186666095Y-125404571D01*
X186761333Y-125452190D01*
X187142285Y-125452190D01*
X186189904Y-125023619D02*
X186142285Y-124976000D01*
X186047047Y-124928380D01*
X185808952Y-124928380D01*
X185713714Y-124976000D01*
X185666095Y-125023619D01*
X185618476Y-125118857D01*
X185618476Y-125214095D01*
X185666095Y-125356952D01*
X186237523Y-125928380D01*
X185618476Y-125928380D01*
X185237523Y-125023619D02*
X185189904Y-124976000D01*
X185094666Y-124928380D01*
X184856571Y-124928380D01*
X184761333Y-124976000D01*
X184713714Y-125023619D01*
X184666095Y-125118857D01*
X184666095Y-125214095D01*
X184713714Y-125356952D01*
X185285142Y-125928380D01*
X184666095Y-125928380D01*
%TO.C,R21*%
X141358857Y-125420380D02*
X141692190Y-124944190D01*
X141930285Y-125420380D02*
X141930285Y-124420380D01*
X141549333Y-124420380D01*
X141454095Y-124468000D01*
X141406476Y-124515619D01*
X141358857Y-124610857D01*
X141358857Y-124753714D01*
X141406476Y-124848952D01*
X141454095Y-124896571D01*
X141549333Y-124944190D01*
X141930285Y-124944190D01*
X140977904Y-124515619D02*
X140930285Y-124468000D01*
X140835047Y-124420380D01*
X140596952Y-124420380D01*
X140501714Y-124468000D01*
X140454095Y-124515619D01*
X140406476Y-124610857D01*
X140406476Y-124706095D01*
X140454095Y-124848952D01*
X141025523Y-125420380D01*
X140406476Y-125420380D01*
X139454095Y-125420380D02*
X140025523Y-125420380D01*
X139739809Y-125420380D02*
X139739809Y-124420380D01*
X139835047Y-124563238D01*
X139930285Y-124658476D01*
X140025523Y-124706095D01*
%TO.C,R20*%
X141358857Y-110180380D02*
X141692190Y-109704190D01*
X141930285Y-110180380D02*
X141930285Y-109180380D01*
X141549333Y-109180380D01*
X141454095Y-109228000D01*
X141406476Y-109275619D01*
X141358857Y-109370857D01*
X141358857Y-109513714D01*
X141406476Y-109608952D01*
X141454095Y-109656571D01*
X141549333Y-109704190D01*
X141930285Y-109704190D01*
X140977904Y-109275619D02*
X140930285Y-109228000D01*
X140835047Y-109180380D01*
X140596952Y-109180380D01*
X140501714Y-109228000D01*
X140454095Y-109275619D01*
X140406476Y-109370857D01*
X140406476Y-109466095D01*
X140454095Y-109608952D01*
X141025523Y-110180380D01*
X140406476Y-110180380D01*
X139787428Y-109180380D02*
X139692190Y-109180380D01*
X139596952Y-109228000D01*
X139549333Y-109275619D01*
X139501714Y-109370857D01*
X139454095Y-109561333D01*
X139454095Y-109799428D01*
X139501714Y-109989904D01*
X139549333Y-110085142D01*
X139596952Y-110132761D01*
X139692190Y-110180380D01*
X139787428Y-110180380D01*
X139882666Y-110132761D01*
X139930285Y-110085142D01*
X139977904Y-109989904D01*
X140025523Y-109799428D01*
X140025523Y-109561333D01*
X139977904Y-109370857D01*
X139930285Y-109275619D01*
X139882666Y-109228000D01*
X139787428Y-109180380D01*
%TO.C,R19*%
X141358857Y-120002380D02*
X141692190Y-119526190D01*
X141930285Y-120002380D02*
X141930285Y-119002380D01*
X141549333Y-119002380D01*
X141454095Y-119050000D01*
X141406476Y-119097619D01*
X141358857Y-119192857D01*
X141358857Y-119335714D01*
X141406476Y-119430952D01*
X141454095Y-119478571D01*
X141549333Y-119526190D01*
X141930285Y-119526190D01*
X140406476Y-120002380D02*
X140977904Y-120002380D01*
X140692190Y-120002380D02*
X140692190Y-119002380D01*
X140787428Y-119145238D01*
X140882666Y-119240476D01*
X140977904Y-119288095D01*
X139930285Y-120002380D02*
X139739809Y-120002380D01*
X139644571Y-119954761D01*
X139596952Y-119907142D01*
X139501714Y-119764285D01*
X139454095Y-119573809D01*
X139454095Y-119192857D01*
X139501714Y-119097619D01*
X139549333Y-119050000D01*
X139644571Y-119002380D01*
X139835047Y-119002380D01*
X139930285Y-119050000D01*
X139977904Y-119097619D01*
X140025523Y-119192857D01*
X140025523Y-119430952D01*
X139977904Y-119526190D01*
X139930285Y-119573809D01*
X139835047Y-119621428D01*
X139644571Y-119621428D01*
X139549333Y-119573809D01*
X139501714Y-119526190D01*
X139454095Y-119430952D01*
%TO.C,R18*%
X141358857Y-115260380D02*
X141692190Y-114784190D01*
X141930285Y-115260380D02*
X141930285Y-114260380D01*
X141549333Y-114260380D01*
X141454095Y-114308000D01*
X141406476Y-114355619D01*
X141358857Y-114450857D01*
X141358857Y-114593714D01*
X141406476Y-114688952D01*
X141454095Y-114736571D01*
X141549333Y-114784190D01*
X141930285Y-114784190D01*
X140406476Y-115260380D02*
X140977904Y-115260380D01*
X140692190Y-115260380D02*
X140692190Y-114260380D01*
X140787428Y-114403238D01*
X140882666Y-114498476D01*
X140977904Y-114546095D01*
X139835047Y-114688952D02*
X139930285Y-114641333D01*
X139977904Y-114593714D01*
X140025523Y-114498476D01*
X140025523Y-114450857D01*
X139977904Y-114355619D01*
X139930285Y-114308000D01*
X139835047Y-114260380D01*
X139644571Y-114260380D01*
X139549333Y-114308000D01*
X139501714Y-114355619D01*
X139454095Y-114450857D01*
X139454095Y-114498476D01*
X139501714Y-114593714D01*
X139549333Y-114641333D01*
X139644571Y-114688952D01*
X139835047Y-114688952D01*
X139930285Y-114736571D01*
X139977904Y-114784190D01*
X140025523Y-114879428D01*
X140025523Y-115069904D01*
X139977904Y-115165142D01*
X139930285Y-115212761D01*
X139835047Y-115260380D01*
X139644571Y-115260380D01*
X139549333Y-115212761D01*
X139501714Y-115165142D01*
X139454095Y-115069904D01*
X139454095Y-114879428D01*
X139501714Y-114784190D01*
X139549333Y-114736571D01*
X139644571Y-114688952D01*
%TO.C,R17*%
X164472857Y-84442380D02*
X164806190Y-83966190D01*
X165044285Y-84442380D02*
X165044285Y-83442380D01*
X164663333Y-83442380D01*
X164568095Y-83490000D01*
X164520476Y-83537619D01*
X164472857Y-83632857D01*
X164472857Y-83775714D01*
X164520476Y-83870952D01*
X164568095Y-83918571D01*
X164663333Y-83966190D01*
X165044285Y-83966190D01*
X163520476Y-84442380D02*
X164091904Y-84442380D01*
X163806190Y-84442380D02*
X163806190Y-83442380D01*
X163901428Y-83585238D01*
X163996666Y-83680476D01*
X164091904Y-83728095D01*
X163187142Y-83442380D02*
X162520476Y-83442380D01*
X162949047Y-84442380D01*
%TO.C,R16*%
X141612857Y-88252380D02*
X141946190Y-87776190D01*
X142184285Y-88252380D02*
X142184285Y-87252380D01*
X141803333Y-87252380D01*
X141708095Y-87300000D01*
X141660476Y-87347619D01*
X141612857Y-87442857D01*
X141612857Y-87585714D01*
X141660476Y-87680952D01*
X141708095Y-87728571D01*
X141803333Y-87776190D01*
X142184285Y-87776190D01*
X140660476Y-88252380D02*
X141231904Y-88252380D01*
X140946190Y-88252380D02*
X140946190Y-87252380D01*
X141041428Y-87395238D01*
X141136666Y-87490476D01*
X141231904Y-87538095D01*
X139803333Y-87252380D02*
X139993809Y-87252380D01*
X140089047Y-87300000D01*
X140136666Y-87347619D01*
X140231904Y-87490476D01*
X140279523Y-87680952D01*
X140279523Y-88061904D01*
X140231904Y-88157142D01*
X140184285Y-88204761D01*
X140089047Y-88252380D01*
X139898571Y-88252380D01*
X139803333Y-88204761D01*
X139755714Y-88157142D01*
X139708095Y-88061904D01*
X139708095Y-87823809D01*
X139755714Y-87728571D01*
X139803333Y-87680952D01*
X139898571Y-87633333D01*
X140089047Y-87633333D01*
X140184285Y-87680952D01*
X140231904Y-87728571D01*
X140279523Y-87823809D01*
%TO.C,R15*%
X164472857Y-74112380D02*
X164806190Y-73636190D01*
X165044285Y-74112380D02*
X165044285Y-73112380D01*
X164663333Y-73112380D01*
X164568095Y-73160000D01*
X164520476Y-73207619D01*
X164472857Y-73302857D01*
X164472857Y-73445714D01*
X164520476Y-73540952D01*
X164568095Y-73588571D01*
X164663333Y-73636190D01*
X165044285Y-73636190D01*
X163520476Y-74112380D02*
X164091904Y-74112380D01*
X163806190Y-74112380D02*
X163806190Y-73112380D01*
X163901428Y-73255238D01*
X163996666Y-73350476D01*
X164091904Y-73398095D01*
X162615714Y-73112380D02*
X163091904Y-73112380D01*
X163139523Y-73588571D01*
X163091904Y-73540952D01*
X162996666Y-73493333D01*
X162758571Y-73493333D01*
X162663333Y-73540952D01*
X162615714Y-73588571D01*
X162568095Y-73683809D01*
X162568095Y-73921904D01*
X162615714Y-74017142D01*
X162663333Y-74064761D01*
X162758571Y-74112380D01*
X162996666Y-74112380D01*
X163091904Y-74064761D01*
X163139523Y-74017142D01*
%TO.C,R14*%
X164472857Y-64122380D02*
X164806190Y-63646190D01*
X165044285Y-64122380D02*
X165044285Y-63122380D01*
X164663333Y-63122380D01*
X164568095Y-63170000D01*
X164520476Y-63217619D01*
X164472857Y-63312857D01*
X164472857Y-63455714D01*
X164520476Y-63550952D01*
X164568095Y-63598571D01*
X164663333Y-63646190D01*
X165044285Y-63646190D01*
X163520476Y-64122380D02*
X164091904Y-64122380D01*
X163806190Y-64122380D02*
X163806190Y-63122380D01*
X163901428Y-63265238D01*
X163996666Y-63360476D01*
X164091904Y-63408095D01*
X162663333Y-63455714D02*
X162663333Y-64122380D01*
X162901428Y-63074761D02*
X163139523Y-63789047D01*
X162520476Y-63789047D01*
%TO.C,R13*%
X141612857Y-93332380D02*
X141946190Y-92856190D01*
X142184285Y-93332380D02*
X142184285Y-92332380D01*
X141803333Y-92332380D01*
X141708095Y-92380000D01*
X141660476Y-92427619D01*
X141612857Y-92522857D01*
X141612857Y-92665714D01*
X141660476Y-92760952D01*
X141708095Y-92808571D01*
X141803333Y-92856190D01*
X142184285Y-92856190D01*
X140660476Y-93332380D02*
X141231904Y-93332380D01*
X140946190Y-93332380D02*
X140946190Y-92332380D01*
X141041428Y-92475238D01*
X141136666Y-92570476D01*
X141231904Y-92618095D01*
X140327142Y-92332380D02*
X139708095Y-92332380D01*
X140041428Y-92713333D01*
X139898571Y-92713333D01*
X139803333Y-92760952D01*
X139755714Y-92808571D01*
X139708095Y-92903809D01*
X139708095Y-93141904D01*
X139755714Y-93237142D01*
X139803333Y-93284761D01*
X139898571Y-93332380D01*
X140184285Y-93332380D01*
X140279523Y-93284761D01*
X140327142Y-93237142D01*
%TO.C,R12*%
X164472857Y-69032380D02*
X164806190Y-68556190D01*
X165044285Y-69032380D02*
X165044285Y-68032380D01*
X164663333Y-68032380D01*
X164568095Y-68080000D01*
X164520476Y-68127619D01*
X164472857Y-68222857D01*
X164472857Y-68365714D01*
X164520476Y-68460952D01*
X164568095Y-68508571D01*
X164663333Y-68556190D01*
X165044285Y-68556190D01*
X163520476Y-69032380D02*
X164091904Y-69032380D01*
X163806190Y-69032380D02*
X163806190Y-68032380D01*
X163901428Y-68175238D01*
X163996666Y-68270476D01*
X164091904Y-68318095D01*
X163139523Y-68127619D02*
X163091904Y-68080000D01*
X162996666Y-68032380D01*
X162758571Y-68032380D01*
X162663333Y-68080000D01*
X162615714Y-68127619D01*
X162568095Y-68222857D01*
X162568095Y-68318095D01*
X162615714Y-68460952D01*
X163187142Y-69032380D01*
X162568095Y-69032380D01*
%TO.C,R11*%
X164472857Y-79192380D02*
X164806190Y-78716190D01*
X165044285Y-79192380D02*
X165044285Y-78192380D01*
X164663333Y-78192380D01*
X164568095Y-78240000D01*
X164520476Y-78287619D01*
X164472857Y-78382857D01*
X164472857Y-78525714D01*
X164520476Y-78620952D01*
X164568095Y-78668571D01*
X164663333Y-78716190D01*
X165044285Y-78716190D01*
X163520476Y-79192380D02*
X164091904Y-79192380D01*
X163806190Y-79192380D02*
X163806190Y-78192380D01*
X163901428Y-78335238D01*
X163996666Y-78430476D01*
X164091904Y-78478095D01*
X162568095Y-79192380D02*
X163139523Y-79192380D01*
X162853809Y-79192380D02*
X162853809Y-78192380D01*
X162949047Y-78335238D01*
X163044285Y-78430476D01*
X163139523Y-78478095D01*
%TO.C,R10*%
X164218857Y-94432380D02*
X164552190Y-93956190D01*
X164790285Y-94432380D02*
X164790285Y-93432380D01*
X164409333Y-93432380D01*
X164314095Y-93480000D01*
X164266476Y-93527619D01*
X164218857Y-93622857D01*
X164218857Y-93765714D01*
X164266476Y-93860952D01*
X164314095Y-93908571D01*
X164409333Y-93956190D01*
X164790285Y-93956190D01*
X163266476Y-94432380D02*
X163837904Y-94432380D01*
X163552190Y-94432380D02*
X163552190Y-93432380D01*
X163647428Y-93575238D01*
X163742666Y-93670476D01*
X163837904Y-93718095D01*
X162647428Y-93432380D02*
X162552190Y-93432380D01*
X162456952Y-93480000D01*
X162409333Y-93527619D01*
X162361714Y-93622857D01*
X162314095Y-93813333D01*
X162314095Y-94051428D01*
X162361714Y-94241904D01*
X162409333Y-94337142D01*
X162456952Y-94384761D01*
X162552190Y-94432380D01*
X162647428Y-94432380D01*
X162742666Y-94384761D01*
X162790285Y-94337142D01*
X162837904Y-94241904D01*
X162885523Y-94051428D01*
X162885523Y-93813333D01*
X162837904Y-93622857D01*
X162790285Y-93527619D01*
X162742666Y-93480000D01*
X162647428Y-93432380D01*
%TO.C,R9*%
X186602666Y-69032380D02*
X186936000Y-68556190D01*
X187174095Y-69032380D02*
X187174095Y-68032380D01*
X186793142Y-68032380D01*
X186697904Y-68080000D01*
X186650285Y-68127619D01*
X186602666Y-68222857D01*
X186602666Y-68365714D01*
X186650285Y-68460952D01*
X186697904Y-68508571D01*
X186793142Y-68556190D01*
X187174095Y-68556190D01*
X186126476Y-69032380D02*
X185936000Y-69032380D01*
X185840761Y-68984761D01*
X185793142Y-68937142D01*
X185697904Y-68794285D01*
X185650285Y-68603809D01*
X185650285Y-68222857D01*
X185697904Y-68127619D01*
X185745523Y-68080000D01*
X185840761Y-68032380D01*
X186031238Y-68032380D01*
X186126476Y-68080000D01*
X186174095Y-68127619D01*
X186221714Y-68222857D01*
X186221714Y-68460952D01*
X186174095Y-68556190D01*
X186126476Y-68603809D01*
X186031238Y-68651428D01*
X185840761Y-68651428D01*
X185745523Y-68603809D01*
X185697904Y-68556190D01*
X185650285Y-68460952D01*
%TO.C,R8*%
X186602666Y-74112380D02*
X186936000Y-73636190D01*
X187174095Y-74112380D02*
X187174095Y-73112380D01*
X186793142Y-73112380D01*
X186697904Y-73160000D01*
X186650285Y-73207619D01*
X186602666Y-73302857D01*
X186602666Y-73445714D01*
X186650285Y-73540952D01*
X186697904Y-73588571D01*
X186793142Y-73636190D01*
X187174095Y-73636190D01*
X186031238Y-73540952D02*
X186126476Y-73493333D01*
X186174095Y-73445714D01*
X186221714Y-73350476D01*
X186221714Y-73302857D01*
X186174095Y-73207619D01*
X186126476Y-73160000D01*
X186031238Y-73112380D01*
X185840761Y-73112380D01*
X185745523Y-73160000D01*
X185697904Y-73207619D01*
X185650285Y-73302857D01*
X185650285Y-73350476D01*
X185697904Y-73445714D01*
X185745523Y-73493333D01*
X185840761Y-73540952D01*
X186031238Y-73540952D01*
X186126476Y-73588571D01*
X186174095Y-73636190D01*
X186221714Y-73731428D01*
X186221714Y-73921904D01*
X186174095Y-74017142D01*
X186126476Y-74064761D01*
X186031238Y-74112380D01*
X185840761Y-74112380D01*
X185745523Y-74064761D01*
X185697904Y-74017142D01*
X185650285Y-73921904D01*
X185650285Y-73731428D01*
X185697904Y-73636190D01*
X185745523Y-73588571D01*
X185840761Y-73540952D01*
%TO.C,R7*%
X141136666Y-83002380D02*
X141470000Y-82526190D01*
X141708095Y-83002380D02*
X141708095Y-82002380D01*
X141327142Y-82002380D01*
X141231904Y-82050000D01*
X141184285Y-82097619D01*
X141136666Y-82192857D01*
X141136666Y-82335714D01*
X141184285Y-82430952D01*
X141231904Y-82478571D01*
X141327142Y-82526190D01*
X141708095Y-82526190D01*
X140803333Y-82002380D02*
X140136666Y-82002380D01*
X140565238Y-83002380D01*
%TO.C,R6*%
X186602666Y-78684380D02*
X186936000Y-78208190D01*
X187174095Y-78684380D02*
X187174095Y-77684380D01*
X186793142Y-77684380D01*
X186697904Y-77732000D01*
X186650285Y-77779619D01*
X186602666Y-77874857D01*
X186602666Y-78017714D01*
X186650285Y-78112952D01*
X186697904Y-78160571D01*
X186793142Y-78208190D01*
X187174095Y-78208190D01*
X185745523Y-77684380D02*
X185936000Y-77684380D01*
X186031238Y-77732000D01*
X186078857Y-77779619D01*
X186174095Y-77922476D01*
X186221714Y-78112952D01*
X186221714Y-78493904D01*
X186174095Y-78589142D01*
X186126476Y-78636761D01*
X186031238Y-78684380D01*
X185840761Y-78684380D01*
X185745523Y-78636761D01*
X185697904Y-78589142D01*
X185650285Y-78493904D01*
X185650285Y-78255809D01*
X185697904Y-78160571D01*
X185745523Y-78112952D01*
X185840761Y-78065333D01*
X186031238Y-78065333D01*
X186126476Y-78112952D01*
X186174095Y-78160571D01*
X186221714Y-78255809D01*
%TO.C,R5*%
X186602666Y-83256380D02*
X186936000Y-82780190D01*
X187174095Y-83256380D02*
X187174095Y-82256380D01*
X186793142Y-82256380D01*
X186697904Y-82304000D01*
X186650285Y-82351619D01*
X186602666Y-82446857D01*
X186602666Y-82589714D01*
X186650285Y-82684952D01*
X186697904Y-82732571D01*
X186793142Y-82780190D01*
X187174095Y-82780190D01*
X185697904Y-82256380D02*
X186174095Y-82256380D01*
X186221714Y-82732571D01*
X186174095Y-82684952D01*
X186078857Y-82637333D01*
X185840761Y-82637333D01*
X185745523Y-82684952D01*
X185697904Y-82732571D01*
X185650285Y-82827809D01*
X185650285Y-83065904D01*
X185697904Y-83161142D01*
X185745523Y-83208761D01*
X185840761Y-83256380D01*
X186078857Y-83256380D01*
X186174095Y-83208761D01*
X186221714Y-83161142D01*
%TO.C,R4*%
X186602666Y-87828380D02*
X186936000Y-87352190D01*
X187174095Y-87828380D02*
X187174095Y-86828380D01*
X186793142Y-86828380D01*
X186697904Y-86876000D01*
X186650285Y-86923619D01*
X186602666Y-87018857D01*
X186602666Y-87161714D01*
X186650285Y-87256952D01*
X186697904Y-87304571D01*
X186793142Y-87352190D01*
X187174095Y-87352190D01*
X185745523Y-87161714D02*
X185745523Y-87828380D01*
X185983619Y-86780761D02*
X186221714Y-87495047D01*
X185602666Y-87495047D01*
%TO.C,R3*%
X141136666Y-78092380D02*
X141470000Y-77616190D01*
X141708095Y-78092380D02*
X141708095Y-77092380D01*
X141327142Y-77092380D01*
X141231904Y-77140000D01*
X141184285Y-77187619D01*
X141136666Y-77282857D01*
X141136666Y-77425714D01*
X141184285Y-77520952D01*
X141231904Y-77568571D01*
X141327142Y-77616190D01*
X141708095Y-77616190D01*
X140803333Y-77092380D02*
X140184285Y-77092380D01*
X140517619Y-77473333D01*
X140374761Y-77473333D01*
X140279523Y-77520952D01*
X140231904Y-77568571D01*
X140184285Y-77663809D01*
X140184285Y-77901904D01*
X140231904Y-77997142D01*
X140279523Y-78044761D01*
X140374761Y-78092380D01*
X140660476Y-78092380D01*
X140755714Y-78044761D01*
X140803333Y-77997142D01*
%TO.C,R2*%
X141136666Y-67762380D02*
X141470000Y-67286190D01*
X141708095Y-67762380D02*
X141708095Y-66762380D01*
X141327142Y-66762380D01*
X141231904Y-66810000D01*
X141184285Y-66857619D01*
X141136666Y-66952857D01*
X141136666Y-67095714D01*
X141184285Y-67190952D01*
X141231904Y-67238571D01*
X141327142Y-67286190D01*
X141708095Y-67286190D01*
X140755714Y-66857619D02*
X140708095Y-66810000D01*
X140612857Y-66762380D01*
X140374761Y-66762380D01*
X140279523Y-66810000D01*
X140231904Y-66857619D01*
X140184285Y-66952857D01*
X140184285Y-67048095D01*
X140231904Y-67190952D01*
X140803333Y-67762380D01*
X140184285Y-67762380D01*
%TO.C,R1*%
X141136666Y-73012380D02*
X141470000Y-72536190D01*
X141708095Y-73012380D02*
X141708095Y-72012380D01*
X141327142Y-72012380D01*
X141231904Y-72060000D01*
X141184285Y-72107619D01*
X141136666Y-72202857D01*
X141136666Y-72345714D01*
X141184285Y-72440952D01*
X141231904Y-72488571D01*
X141327142Y-72536190D01*
X141708095Y-72536190D01*
X140184285Y-73012380D02*
X140755714Y-73012380D01*
X140470000Y-73012380D02*
X140470000Y-72012380D01*
X140565238Y-72155238D01*
X140660476Y-72250476D01*
X140755714Y-72298095D01*
%TO.C,Q4*%
X176117238Y-107223619D02*
X176212476Y-107176000D01*
X176307714Y-107080761D01*
X176450571Y-106937904D01*
X176545809Y-106890285D01*
X176641047Y-106890285D01*
X176593428Y-107128380D02*
X176688666Y-107080761D01*
X176783904Y-106985523D01*
X176831523Y-106795047D01*
X176831523Y-106461714D01*
X176783904Y-106271238D01*
X176688666Y-106176000D01*
X176593428Y-106128380D01*
X176402952Y-106128380D01*
X176307714Y-106176000D01*
X176212476Y-106271238D01*
X176164857Y-106461714D01*
X176164857Y-106795047D01*
X176212476Y-106985523D01*
X176307714Y-107080761D01*
X176402952Y-107128380D01*
X176593428Y-107128380D01*
X175307714Y-106461714D02*
X175307714Y-107128380D01*
X175545809Y-106080761D02*
X175783904Y-106795047D01*
X175164857Y-106795047D01*
%TO.C,Q3*%
X176117238Y-118911619D02*
X176212476Y-118864000D01*
X176307714Y-118768761D01*
X176450571Y-118625904D01*
X176545809Y-118578285D01*
X176641047Y-118578285D01*
X176593428Y-118816380D02*
X176688666Y-118768761D01*
X176783904Y-118673523D01*
X176831523Y-118483047D01*
X176831523Y-118149714D01*
X176783904Y-117959238D01*
X176688666Y-117864000D01*
X176593428Y-117816380D01*
X176402952Y-117816380D01*
X176307714Y-117864000D01*
X176212476Y-117959238D01*
X176164857Y-118149714D01*
X176164857Y-118483047D01*
X176212476Y-118673523D01*
X176307714Y-118768761D01*
X176402952Y-118816380D01*
X176593428Y-118816380D01*
X175831523Y-117816380D02*
X175212476Y-117816380D01*
X175545809Y-118197333D01*
X175402952Y-118197333D01*
X175307714Y-118244952D01*
X175260095Y-118292571D01*
X175212476Y-118387809D01*
X175212476Y-118625904D01*
X175260095Y-118721142D01*
X175307714Y-118768761D01*
X175402952Y-118816380D01*
X175688666Y-118816380D01*
X175783904Y-118768761D01*
X175831523Y-118721142D01*
%TO.C,Q2*%
X176625238Y-69123619D02*
X176720476Y-69076000D01*
X176815714Y-68980761D01*
X176958571Y-68837904D01*
X177053809Y-68790285D01*
X177149047Y-68790285D01*
X177101428Y-69028380D02*
X177196666Y-68980761D01*
X177291904Y-68885523D01*
X177339523Y-68695047D01*
X177339523Y-68361714D01*
X177291904Y-68171238D01*
X177196666Y-68076000D01*
X177101428Y-68028380D01*
X176910952Y-68028380D01*
X176815714Y-68076000D01*
X176720476Y-68171238D01*
X176672857Y-68361714D01*
X176672857Y-68695047D01*
X176720476Y-68885523D01*
X176815714Y-68980761D01*
X176910952Y-69028380D01*
X177101428Y-69028380D01*
X176291904Y-68123619D02*
X176244285Y-68076000D01*
X176149047Y-68028380D01*
X175910952Y-68028380D01*
X175815714Y-68076000D01*
X175768095Y-68123619D01*
X175720476Y-68218857D01*
X175720476Y-68314095D01*
X175768095Y-68456952D01*
X176339523Y-69028380D01*
X175720476Y-69028380D01*
%TO.C,Q1*%
X176625238Y-80811619D02*
X176720476Y-80764000D01*
X176815714Y-80668761D01*
X176958571Y-80525904D01*
X177053809Y-80478285D01*
X177149047Y-80478285D01*
X177101428Y-80716380D02*
X177196666Y-80668761D01*
X177291904Y-80573523D01*
X177339523Y-80383047D01*
X177339523Y-80049714D01*
X177291904Y-79859238D01*
X177196666Y-79764000D01*
X177101428Y-79716380D01*
X176910952Y-79716380D01*
X176815714Y-79764000D01*
X176720476Y-79859238D01*
X176672857Y-80049714D01*
X176672857Y-80383047D01*
X176720476Y-80573523D01*
X176815714Y-80668761D01*
X176910952Y-80716380D01*
X177101428Y-80716380D01*
X175720476Y-80716380D02*
X176291904Y-80716380D01*
X176006190Y-80716380D02*
X176006190Y-79716380D01*
X176101428Y-79859238D01*
X176196666Y-79954476D01*
X176291904Y-80002095D01*
%TO.C,J2*%
X104683333Y-144232380D02*
X104683333Y-144946666D01*
X104730952Y-145089523D01*
X104826190Y-145184761D01*
X104969047Y-145232380D01*
X105064285Y-145232380D01*
X104254761Y-144327619D02*
X104207142Y-144280000D01*
X104111904Y-144232380D01*
X103873809Y-144232380D01*
X103778571Y-144280000D01*
X103730952Y-144327619D01*
X103683333Y-144422857D01*
X103683333Y-144518095D01*
X103730952Y-144660952D01*
X104302380Y-145232380D01*
X103683333Y-145232380D01*
%TO.C,J1*%
X198243333Y-144232380D02*
X198243333Y-144946666D01*
X198290952Y-145089523D01*
X198386190Y-145184761D01*
X198529047Y-145232380D01*
X198624285Y-145232380D01*
X197243333Y-145232380D02*
X197814761Y-145232380D01*
X197529047Y-145232380D02*
X197529047Y-144232380D01*
X197624285Y-144375238D01*
X197719523Y-144470476D01*
X197814761Y-144518095D01*
%TO.C,D4*%
X129262095Y-119832380D02*
X129262095Y-118832380D01*
X129024000Y-118832380D01*
X128881142Y-118880000D01*
X128785904Y-118975238D01*
X128738285Y-119070476D01*
X128690666Y-119260952D01*
X128690666Y-119403809D01*
X128738285Y-119594285D01*
X128785904Y-119689523D01*
X128881142Y-119784761D01*
X129024000Y-119832380D01*
X129262095Y-119832380D01*
X127833523Y-119165714D02*
X127833523Y-119832380D01*
X128071619Y-118784761D02*
X128309714Y-119499047D01*
X127690666Y-119499047D01*
%TO.C,D3*%
X122150095Y-119832380D02*
X122150095Y-118832380D01*
X121912000Y-118832380D01*
X121769142Y-118880000D01*
X121673904Y-118975238D01*
X121626285Y-119070476D01*
X121578666Y-119260952D01*
X121578666Y-119403809D01*
X121626285Y-119594285D01*
X121673904Y-119689523D01*
X121769142Y-119784761D01*
X121912000Y-119832380D01*
X122150095Y-119832380D01*
X121245333Y-118832380D02*
X120626285Y-118832380D01*
X120959619Y-119213333D01*
X120816761Y-119213333D01*
X120721523Y-119260952D01*
X120673904Y-119308571D01*
X120626285Y-119403809D01*
X120626285Y-119641904D01*
X120673904Y-119737142D01*
X120721523Y-119784761D01*
X120816761Y-119832380D01*
X121102476Y-119832380D01*
X121197714Y-119784761D01*
X121245333Y-119737142D01*
%TO.C,D2*%
X130278095Y-82367380D02*
X130278095Y-81367380D01*
X130040000Y-81367380D01*
X129897142Y-81415000D01*
X129801904Y-81510238D01*
X129754285Y-81605476D01*
X129706666Y-81795952D01*
X129706666Y-81938809D01*
X129754285Y-82129285D01*
X129801904Y-82224523D01*
X129897142Y-82319761D01*
X130040000Y-82367380D01*
X130278095Y-82367380D01*
X129325714Y-81462619D02*
X129278095Y-81415000D01*
X129182857Y-81367380D01*
X128944761Y-81367380D01*
X128849523Y-81415000D01*
X128801904Y-81462619D01*
X128754285Y-81557857D01*
X128754285Y-81653095D01*
X128801904Y-81795952D01*
X129373333Y-82367380D01*
X128754285Y-82367380D01*
%TO.C,D1*%
X123293095Y-82367380D02*
X123293095Y-81367380D01*
X123055000Y-81367380D01*
X122912142Y-81415000D01*
X122816904Y-81510238D01*
X122769285Y-81605476D01*
X122721666Y-81795952D01*
X122721666Y-81938809D01*
X122769285Y-82129285D01*
X122816904Y-82224523D01*
X122912142Y-82319761D01*
X123055000Y-82367380D01*
X123293095Y-82367380D01*
X121769285Y-82367380D02*
X122340714Y-82367380D01*
X122055000Y-82367380D02*
X122055000Y-81367380D01*
X122150238Y-81510238D01*
X122245476Y-81605476D01*
X122340714Y-81653095D01*
%TO.C,C10*%
X119476757Y-74989962D02*
X119524376Y-75037581D01*
X119667233Y-75085200D01*
X119762471Y-75085200D01*
X119905328Y-75037581D01*
X120000566Y-74942343D01*
X120048185Y-74847105D01*
X120095804Y-74656629D01*
X120095804Y-74513772D01*
X120048185Y-74323296D01*
X120000566Y-74228058D01*
X119905328Y-74132820D01*
X119762471Y-74085200D01*
X119667233Y-74085200D01*
X119524376Y-74132820D01*
X119476757Y-74180439D01*
X118524376Y-75085200D02*
X119095804Y-75085200D01*
X118810090Y-75085200D02*
X118810090Y-74085200D01*
X118905328Y-74228058D01*
X119000566Y-74323296D01*
X119095804Y-74370915D01*
X117905328Y-74085200D02*
X117810090Y-74085200D01*
X117714852Y-74132820D01*
X117667233Y-74180439D01*
X117619614Y-74275677D01*
X117571995Y-74466153D01*
X117571995Y-74704248D01*
X117619614Y-74894724D01*
X117667233Y-74989962D01*
X117714852Y-75037581D01*
X117810090Y-75085200D01*
X117905328Y-75085200D01*
X118000566Y-75037581D01*
X118048185Y-74989962D01*
X118095804Y-74894724D01*
X118143423Y-74704248D01*
X118143423Y-74466153D01*
X118095804Y-74275677D01*
X118048185Y-74180439D01*
X118000566Y-74132820D01*
X117905328Y-74085200D01*
%TO.C,C9*%
X120366666Y-52057142D02*
X120414285Y-52104761D01*
X120557142Y-52152380D01*
X120652380Y-52152380D01*
X120795238Y-52104761D01*
X120890476Y-52009523D01*
X120938095Y-51914285D01*
X120985714Y-51723809D01*
X120985714Y-51580952D01*
X120938095Y-51390476D01*
X120890476Y-51295238D01*
X120795238Y-51200000D01*
X120652380Y-51152380D01*
X120557142Y-51152380D01*
X120414285Y-51200000D01*
X120366666Y-51247619D01*
X119890476Y-52152380D02*
X119700000Y-52152380D01*
X119604761Y-52104761D01*
X119557142Y-52057142D01*
X119461904Y-51914285D01*
X119414285Y-51723809D01*
X119414285Y-51342857D01*
X119461904Y-51247619D01*
X119509523Y-51200000D01*
X119604761Y-51152380D01*
X119795238Y-51152380D01*
X119890476Y-51200000D01*
X119938095Y-51247619D01*
X119985714Y-51342857D01*
X119985714Y-51580952D01*
X119938095Y-51676190D01*
X119890476Y-51723809D01*
X119795238Y-51771428D01*
X119604761Y-51771428D01*
X119509523Y-51723809D01*
X119461904Y-51676190D01*
X119414285Y-51580952D01*
%TO.C,C8*%
X161750666Y-104037142D02*
X161798285Y-104084761D01*
X161941142Y-104132380D01*
X162036380Y-104132380D01*
X162179238Y-104084761D01*
X162274476Y-103989523D01*
X162322095Y-103894285D01*
X162369714Y-103703809D01*
X162369714Y-103560952D01*
X162322095Y-103370476D01*
X162274476Y-103275238D01*
X162179238Y-103180000D01*
X162036380Y-103132380D01*
X161941142Y-103132380D01*
X161798285Y-103180000D01*
X161750666Y-103227619D01*
X161179238Y-103560952D02*
X161274476Y-103513333D01*
X161322095Y-103465714D01*
X161369714Y-103370476D01*
X161369714Y-103322857D01*
X161322095Y-103227619D01*
X161274476Y-103180000D01*
X161179238Y-103132380D01*
X160988761Y-103132380D01*
X160893523Y-103180000D01*
X160845904Y-103227619D01*
X160798285Y-103322857D01*
X160798285Y-103370476D01*
X160845904Y-103465714D01*
X160893523Y-103513333D01*
X160988761Y-103560952D01*
X161179238Y-103560952D01*
X161274476Y-103608571D01*
X161322095Y-103656190D01*
X161369714Y-103751428D01*
X161369714Y-103941904D01*
X161322095Y-104037142D01*
X161274476Y-104084761D01*
X161179238Y-104132380D01*
X160988761Y-104132380D01*
X160893523Y-104084761D01*
X160845904Y-104037142D01*
X160798285Y-103941904D01*
X160798285Y-103751428D01*
X160845904Y-103656190D01*
X160893523Y-103608571D01*
X160988761Y-103560952D01*
%TO.C,C7*%
X162218666Y-98909142D02*
X162266285Y-98956761D01*
X162409142Y-99004380D01*
X162504380Y-99004380D01*
X162647238Y-98956761D01*
X162742476Y-98861523D01*
X162790095Y-98766285D01*
X162837714Y-98575809D01*
X162837714Y-98432952D01*
X162790095Y-98242476D01*
X162742476Y-98147238D01*
X162647238Y-98052000D01*
X162504380Y-98004380D01*
X162409142Y-98004380D01*
X162266285Y-98052000D01*
X162218666Y-98099619D01*
X161885333Y-98004380D02*
X161218666Y-98004380D01*
X161647238Y-99004380D01*
%TO.C,C6*%
X161750666Y-136033142D02*
X161798285Y-136080761D01*
X161941142Y-136128380D01*
X162036380Y-136128380D01*
X162179238Y-136080761D01*
X162274476Y-135985523D01*
X162322095Y-135890285D01*
X162369714Y-135699809D01*
X162369714Y-135556952D01*
X162322095Y-135366476D01*
X162274476Y-135271238D01*
X162179238Y-135176000D01*
X162036380Y-135128380D01*
X161941142Y-135128380D01*
X161798285Y-135176000D01*
X161750666Y-135223619D01*
X160893523Y-135128380D02*
X161084000Y-135128380D01*
X161179238Y-135176000D01*
X161226857Y-135223619D01*
X161322095Y-135366476D01*
X161369714Y-135556952D01*
X161369714Y-135937904D01*
X161322095Y-136033142D01*
X161274476Y-136080761D01*
X161179238Y-136128380D01*
X160988761Y-136128380D01*
X160893523Y-136080761D01*
X160845904Y-136033142D01*
X160798285Y-135937904D01*
X160798285Y-135699809D01*
X160845904Y-135604571D01*
X160893523Y-135556952D01*
X160988761Y-135509333D01*
X161179238Y-135509333D01*
X161274476Y-135556952D01*
X161322095Y-135604571D01*
X161369714Y-135699809D01*
%TO.C,C5*%
X142914666Y-101449142D02*
X142962285Y-101496761D01*
X143105142Y-101544380D01*
X143200380Y-101544380D01*
X143343238Y-101496761D01*
X143438476Y-101401523D01*
X143486095Y-101306285D01*
X143533714Y-101115809D01*
X143533714Y-100972952D01*
X143486095Y-100782476D01*
X143438476Y-100687238D01*
X143343238Y-100592000D01*
X143200380Y-100544380D01*
X143105142Y-100544380D01*
X142962285Y-100592000D01*
X142914666Y-100639619D01*
X142009904Y-100544380D02*
X142486095Y-100544380D01*
X142533714Y-101020571D01*
X142486095Y-100972952D01*
X142390857Y-100925333D01*
X142152761Y-100925333D01*
X142057523Y-100972952D01*
X142009904Y-101020571D01*
X141962285Y-101115809D01*
X141962285Y-101353904D01*
X142009904Y-101449142D01*
X142057523Y-101496761D01*
X142152761Y-101544380D01*
X142390857Y-101544380D01*
X142486095Y-101496761D01*
X142533714Y-101449142D01*
%TO.C,C4*%
X162131666Y-57682142D02*
X162179285Y-57729761D01*
X162322142Y-57777380D01*
X162417380Y-57777380D01*
X162560238Y-57729761D01*
X162655476Y-57634523D01*
X162703095Y-57539285D01*
X162750714Y-57348809D01*
X162750714Y-57205952D01*
X162703095Y-57015476D01*
X162655476Y-56920238D01*
X162560238Y-56825000D01*
X162417380Y-56777380D01*
X162322142Y-56777380D01*
X162179285Y-56825000D01*
X162131666Y-56872619D01*
X161274523Y-57110714D02*
X161274523Y-57777380D01*
X161512619Y-56729761D02*
X161750714Y-57444047D01*
X161131666Y-57444047D01*
%TO.C,C3*%
X162051666Y-52427142D02*
X162099285Y-52474761D01*
X162242142Y-52522380D01*
X162337380Y-52522380D01*
X162480238Y-52474761D01*
X162575476Y-52379523D01*
X162623095Y-52284285D01*
X162670714Y-52093809D01*
X162670714Y-51950952D01*
X162623095Y-51760476D01*
X162575476Y-51665238D01*
X162480238Y-51570000D01*
X162337380Y-51522380D01*
X162242142Y-51522380D01*
X162099285Y-51570000D01*
X162051666Y-51617619D01*
X161718333Y-51522380D02*
X161099285Y-51522380D01*
X161432619Y-51903333D01*
X161289761Y-51903333D01*
X161194523Y-51950952D01*
X161146904Y-51998571D01*
X161099285Y-52093809D01*
X161099285Y-52331904D01*
X161146904Y-52427142D01*
X161194523Y-52474761D01*
X161289761Y-52522380D01*
X161575476Y-52522380D01*
X161670714Y-52474761D01*
X161718333Y-52427142D01*
%TO.C,C2*%
X161670666Y-89297142D02*
X161718285Y-89344761D01*
X161861142Y-89392380D01*
X161956380Y-89392380D01*
X162099238Y-89344761D01*
X162194476Y-89249523D01*
X162242095Y-89154285D01*
X162289714Y-88963809D01*
X162289714Y-88820952D01*
X162242095Y-88630476D01*
X162194476Y-88535238D01*
X162099238Y-88440000D01*
X161956380Y-88392380D01*
X161861142Y-88392380D01*
X161718285Y-88440000D01*
X161670666Y-88487619D01*
X161289714Y-88487619D02*
X161242095Y-88440000D01*
X161146857Y-88392380D01*
X160908761Y-88392380D01*
X160813523Y-88440000D01*
X160765904Y-88487619D01*
X160718285Y-88582857D01*
X160718285Y-88678095D01*
X160765904Y-88820952D01*
X161337333Y-89392380D01*
X160718285Y-89392380D01*
%TO.C,C1*%
X143081666Y-54372142D02*
X143129285Y-54419761D01*
X143272142Y-54467380D01*
X143367380Y-54467380D01*
X143510238Y-54419761D01*
X143605476Y-54324523D01*
X143653095Y-54229285D01*
X143700714Y-54038809D01*
X143700714Y-53895952D01*
X143653095Y-53705476D01*
X143605476Y-53610238D01*
X143510238Y-53515000D01*
X143367380Y-53467380D01*
X143272142Y-53467380D01*
X143129285Y-53515000D01*
X143081666Y-53562619D01*
X142129285Y-54467380D02*
X142700714Y-54467380D01*
X142415000Y-54467380D02*
X142415000Y-53467380D01*
X142510238Y-53610238D01*
X142605476Y-53705476D01*
X142700714Y-53753095D01*
%TD*%
M02*
