M48
; DRILL file {KiCad 5.1.6-c6e7f7d~86~ubuntu18.04.1} date Sat Jun 20 09:42:47 2020
; FORMAT={-:-/ absolute / metric / decimal}
; #@! TF.CreationDate,2020-06-20T09:42:47-04:00
; #@! TF.GenerationSoftware,Kicad,Pcbnew,5.1.6-c6e7f7d~86~ubuntu18.04.1
; #@! TF.FileFunction,Plated,1,2,PTH
FMAT,2
METRIC
T1C0.400
T2C0.750
T3C0.800
T4C0.900
T5C1.000
T6C1.100
%
G90
G05
T1
X111.709Y-130.15
X124.409Y-71.73
X124.866Y-83.109
X128.803Y-113.462
X129.616Y-147.041
X133.121Y-58.496
X136.652Y-124.689
X137.262Y-134.341
X143.078Y-120.98
X144.983Y-106.07
X146.152Y-101.397
X159.35Y-134.5
X159.65Y-63.8
X161.2Y-138.5
X161.315Y-120.345
X162.15Y-69.2
X162.484Y-116.078
X162.8Y-65.8
X164.592Y-118.897
X165.0Y-142.15
X165.25Y-134.35
X166.649Y-62.611
X171.475Y-129.235
X178.232Y-89.51
X194.035Y-142.447
X195.25Y-98.628
T2
X175.26Y-72.136
X176.53Y-72.136
X177.8Y-72.136
X174.752Y-110.236
X176.022Y-110.236
X177.292Y-110.236
X175.26Y-77.216
X176.53Y-77.216
X177.8Y-77.216
X174.752Y-115.316
X176.022Y-115.316
X177.292Y-115.316
T3
X135.89Y-74.93
X146.05Y-74.93
X158.75Y-71.12
X168.91Y-71.12
X180.848Y-122.936
X191.008Y-122.936
X110.744Y-104.394
X110.744Y-114.554
X181.356Y-75.692
X191.516Y-75.692
X148.59Y-113.03
X148.59Y-115.57
X148.59Y-118.11
X148.59Y-120.65
X148.59Y-123.19
X148.59Y-125.73
X148.59Y-128.27
X148.59Y-130.81
X156.21Y-113.03
X156.21Y-115.57
X156.21Y-118.11
X156.21Y-120.65
X156.21Y-123.19
X156.21Y-125.73
X156.21Y-128.27
X156.21Y-130.81
X140.415Y-103.505
X145.415Y-103.505
X106.172Y-104.394
X106.172Y-114.554
X159.004Y-91.44
X164.004Y-91.44
X148.59Y-66.04
X148.59Y-68.58
X148.59Y-71.12
X148.59Y-73.66
X148.59Y-76.2
X148.59Y-78.74
X148.59Y-81.28
X148.59Y-83.82
X156.21Y-66.04
X156.21Y-68.58
X156.21Y-71.12
X156.21Y-73.66
X156.21Y-76.2
X156.21Y-78.74
X156.21Y-81.28
X156.21Y-83.82
X159.004Y-112.903
X169.164Y-112.903
X158.75Y-86.36
X168.91Y-86.36
X159.004Y-126.492
X169.164Y-126.492
X181.356Y-89.408
X191.516Y-89.408
X148.59Y-135.636
X148.59Y-138.176
X148.59Y-140.716
X148.59Y-143.256
X156.21Y-135.636
X156.21Y-138.176
X156.21Y-140.716
X156.21Y-143.256
X158.75Y-76.2
X168.91Y-76.2
X159.004Y-131.064
X169.164Y-131.064
X159.004Y-143.256
X169.164Y-143.256
X135.89Y-95.25
X146.05Y-95.25
X181.356Y-71.12
X191.516Y-71.12
X135.636Y-136.652
X145.796Y-136.652
X180.848Y-109.22
X191.008Y-109.22
X180.848Y-113.792
X191.008Y-113.792
X135.636Y-127.0
X145.796Y-127.0
X135.636Y-121.92
X145.796Y-121.92
X135.636Y-131.572
X145.796Y-131.572
X135.89Y-69.85
X146.05Y-69.85
X158.75Y-81.28
X168.91Y-81.28
X140.415Y-56.515
X145.415Y-56.515
X135.89Y-85.09
X146.05Y-85.09
X116.9Y-53.5
X116.9Y-56.0
X159.084Y-138.176
X164.084Y-138.176
X159.004Y-121.92
X169.164Y-121.92
X159.385Y-54.61
X164.385Y-54.61
X115.062Y-104.394
X115.062Y-114.554
X180.848Y-118.364
X191.008Y-118.364
X107.188Y-93.726
X107.188Y-101.346
X109.728Y-93.726
X109.728Y-101.346
X112.268Y-93.726
X112.268Y-101.346
X114.808Y-93.726
X114.808Y-101.346
X113.03Y-80.772
X113.03Y-90.932
X148.59Y-88.265
X148.59Y-90.805
X148.59Y-93.345
X148.59Y-95.885
X156.21Y-88.265
X156.21Y-90.805
X156.21Y-93.345
X156.21Y-95.885
X159.465Y-60.325
X164.465Y-60.325
X108.204Y-80.772
X108.204Y-90.932
X195.072Y-122.174
X195.072Y-132.334
X135.89Y-90.17
X146.05Y-90.17
X181.356Y-84.836
X191.516Y-84.836
X115.57Y-119.38
X115.57Y-129.54
X158.75Y-66.04
X168.91Y-66.04
X135.636Y-141.224
X145.796Y-141.224
X180.848Y-127.508
X191.008Y-127.508
X159.004Y-117.348
X169.164Y-117.348
X118.808Y-69.052
X118.808Y-71.552
X181.356Y-80.264
X191.516Y-80.264
X159.084Y-106.68
X164.084Y-106.68
X135.89Y-80.01
X146.05Y-80.01
X159.004Y-96.012
X169.164Y-96.012
X148.59Y-53.975
X148.59Y-56.515
X148.59Y-59.055
X148.59Y-61.595
X156.21Y-53.975
X156.21Y-56.515
X156.21Y-59.055
X156.21Y-61.595
X159.512Y-101.092
X164.512Y-101.092
X148.59Y-100.838
X148.59Y-103.378
X148.59Y-105.918
X148.59Y-108.458
X156.21Y-100.838
X156.21Y-103.378
X156.21Y-105.918
X156.21Y-108.458
X135.636Y-111.76
X145.796Y-111.76
X135.636Y-116.84
X145.796Y-116.84
T4
X122.555Y-84.455
X122.555Y-86.995
X128.524Y-121.92
X128.524Y-124.46
X129.54Y-84.455
X129.54Y-86.995
X121.412Y-121.92
X121.412Y-124.46
T5
X123.19Y-104.14
X125.69Y-104.14
X128.19Y-104.14
X123.27Y-142.24
X125.77Y-142.24
X128.27Y-142.24
X105.41Y-58.42
X105.41Y-60.96
X105.41Y-63.5
X105.41Y-66.04
X105.41Y-68.58
X107.95Y-58.42
X107.95Y-60.96
X107.95Y-63.5
X107.95Y-66.04
X107.95Y-68.58
X123.19Y-66.04
X125.69Y-66.04
X128.19Y-66.04
X106.68Y-144.78
X109.22Y-144.78
X111.76Y-144.78
X114.3Y-144.78
X116.84Y-144.78
X174.03Y-104.14
X176.53Y-104.14
X179.03Y-104.14
X106.045Y-120.015
X108.585Y-120.015
X174.07Y-142.24
X176.57Y-142.24
X179.07Y-142.24
X185.42Y-144.78
X187.96Y-144.78
X190.5Y-144.78
X193.04Y-144.78
X195.58Y-144.78
X174.07Y-66.04
X176.57Y-66.04
X179.07Y-66.04
T6
G00X171.77Y-135.09
M15
G01X171.77Y-134.39
M16
G05
G00X181.37Y-135.09
M15
G01X181.37Y-134.39
M16
G05
G00X171.77Y-58.89
M15
G01X171.77Y-58.19
M16
G05
G00X181.37Y-58.89
M15
G01X181.37Y-58.19
M16
G05
G00X120.89Y-96.99
M15
G01X120.89Y-96.29
M16
G05
G00X130.49Y-96.99
M15
G01X130.49Y-96.29
M16
G05
G00X120.97Y-135.09
M15
G01X120.97Y-134.39
M16
G05
G00X130.57Y-135.09
M15
G01X130.57Y-134.39
M16
G05
G00X120.89Y-58.89
M15
G01X120.89Y-58.19
M16
G05
G00X130.49Y-58.89
M15
G01X130.49Y-58.19
M16
G05
G00X171.73Y-96.99
M15
G01X171.73Y-96.29
M16
G05
G00X181.33Y-96.99
M15
G01X181.33Y-96.29
M16
G05
T0
M30
