<?xml version="1.0" encoding="UTF-8"?>
<svg xmlns="http://www.w3.org/2000/svg" xmlns:xlink="http://www.w3.org/1999/xlink" width="595.275591pt" height="841.889764pt" viewBox="0 0 595.275591 841.889764" version="1.2">
<g id="surface10648">
<rect x="0" y="0" width="595.275591" height="841.889764" style="fill:rgb(100%,100%,100%);fill-opacity:1;stroke:none;"/>
<path style="fill:none;stroke-width:9;stroke-linecap:round;stroke-linejoin:round;stroke:rgb(0%,0%,0%);stroke-opacity:1;stroke-miterlimit:10;" d="M 29440.885417 47864.583333 C 29440.885417 48079.166667 29326.5625 48277.34375 29140.625 48384.635417 C 28954.947917 48491.927083 28726.041667 48491.927083 28540.364583 48384.635417 C 28354.427083 48277.34375 28240.104167 48079.166667 28240.104167 47864.583333 C 28240.104167 47650 28354.427083 47451.822917 28540.364583 47344.53125 C 28726.041667 47237.239583 28954.947917 47237.239583 29140.625 47344.53125 C 29326.5625 47451.822917 29440.885417 47650 29440.885417 47864.583333 Z M 29440.885417 47864.583333 " transform="matrix(0.015,0,0,0.015,0,0)"/>
<path style="fill:none;stroke-width:9;stroke-linecap:round;stroke-linejoin:round;stroke:rgb(0%,0%,0%);stroke-opacity:1;stroke-miterlimit:10;" d="M 11440.885417 8264.583333 C 11440.885417 8479.166667 11326.5625 8677.34375 11140.625 8784.635417 C 10954.947917 8891.927083 10726.041667 8891.927083 10540.364583 8784.635417 C 10354.427083 8677.34375 10240.104167 8479.166667 10240.104167 8264.583333 C 10240.104167 8050 10354.427083 7851.822917 10540.364583 7744.53125 C 10726.041667 7637.239583 10954.947917 7637.239583 11140.625 7744.53125 C 11326.5625 7851.822917 11440.885417 8050 11440.885417 8264.583333 Z M 11440.885417 8264.583333 " transform="matrix(0.015,0,0,0.015,0,0)"/>
<path style="fill:none;stroke-width:9;stroke-linecap:round;stroke-linejoin:round;stroke:rgb(0%,0%,0%);stroke-opacity:1;stroke-miterlimit:10;" d="M 30040.104167 7064.0625 L 30040.104167 49064.0625 " transform="matrix(0.015,0,0,0.015,0,0)"/>
<path style="fill:none;stroke-width:9;stroke-linecap:round;stroke-linejoin:round;stroke:rgb(0%,0%,0%);stroke-opacity:1;stroke-miterlimit:10;" d="M 9640.104167 49064.0625 L 30040.104167 49064.0625 " transform="matrix(0.015,0,0,0.015,0,0)"/>
<path style="fill:none;stroke-width:9;stroke-linecap:round;stroke-linejoin:round;stroke:rgb(0%,0%,0%);stroke-opacity:1;stroke-miterlimit:10;" d="M 9640.104167 7064.0625 L 9640.104167 49064.0625 " transform="matrix(0.015,0,0,0.015,0,0)"/>
<path style="fill:none;stroke-width:9;stroke-linecap:round;stroke-linejoin:round;stroke:rgb(0%,0%,0%);stroke-opacity:1;stroke-miterlimit:10;" d="M 9640.104167 7064.0625 L 30040.104167 7064.0625 " transform="matrix(0.015,0,0,0.015,0,0)"/>
<path style="fill:none;stroke-width:76;stroke-linecap:round;stroke-linejoin:round;stroke:rgb(0%,0%,0%);stroke-opacity:1;stroke-miterlimit:10;" d="M 26302.083333 41414.0625 L 26265.885417 41450 L 26158.072917 41485.9375 L 26085.9375 41485.9375 L 25978.125 41450 L 25905.989583 41378.125 L 25870.052083 41305.989583 L 25834.114583 41161.979167 L 25834.114583 41053.90625 L 25870.052083 40909.895833 L 25905.989583 40838.020833 L 25978.125 40765.885417 L 26085.9375 40729.947917 L 26158.072917 40729.947917 L 26265.885417 40765.885417 L 26302.083333 40802.083333 " transform="matrix(0.015,0,0,0.015,0,0)"/>
<path style="fill:none;stroke-width:76;stroke-linecap:round;stroke-linejoin:round;stroke:rgb(0%,0%,0%);stroke-opacity:1;stroke-miterlimit:10;" d="M 26517.96875 40729.947917 L 26770.052083 41485.9375 L 27021.875 40729.947917 " transform="matrix(0.015,0,0,0.015,0,0)"/>
<path style="fill:none;stroke-width:76;stroke-linecap:round;stroke-linejoin:round;stroke:rgb(0%,0%,0%);stroke-opacity:1;stroke-miterlimit:10;" d="M 27814.0625 40802.083333 L 27850 40765.885417 L 27921.875 40729.947917 L 28102.083333 40729.947917 L 28173.958333 40765.885417 L 28209.895833 40802.083333 L 28246.09375 40873.958333 L 28246.09375 40946.09375 L 28209.895833 41053.90625 L 27778.125 41485.9375 L 28246.09375 41485.9375 " transform="matrix(0.015,0,0,0.015,0,0)"/>
<path style="fill:none;stroke-width:23;stroke-linecap:round;stroke-linejoin:round;stroke:rgb(0%,0%,0%);stroke-opacity:1;stroke-miterlimit:10;" d="M 27640.104167 40184.114583 L 26440.104167 40184.114583 " transform="matrix(0.015,0,0,0.015,0,0)"/>
<path style="fill:none;stroke-width:23;stroke-linecap:round;stroke-linejoin:round;stroke:rgb(0%,0%,0%);stroke-opacity:1;stroke-miterlimit:10;" d="M 28359.895833 39464.0625 L 27640.104167 40184.114583 " transform="matrix(0.015,0,0,0.015,0,0)"/>
<path style="fill:none;stroke-width:23;stroke-linecap:round;stroke-linejoin:round;stroke:rgb(0%,0%,0%);stroke-opacity:1;stroke-miterlimit:10;" d="M 28359.895833 38264.0625 L 28359.895833 39464.0625 " transform="matrix(0.015,0,0,0.015,0,0)"/>
<path style="fill:none;stroke-width:23;stroke-linecap:round;stroke-linejoin:round;stroke:rgb(0%,0%,0%);stroke-opacity:1;stroke-miterlimit:10;" d="M 27640.104167 37544.010417 L 28359.895833 38264.0625 " transform="matrix(0.015,0,0,0.015,0,0)"/>
<path style="fill:none;stroke-width:23;stroke-linecap:round;stroke-linejoin:round;stroke:rgb(0%,0%,0%);stroke-opacity:1;stroke-miterlimit:10;" d="M 26440.104167 37544.010417 L 27640.104167 37544.010417 " transform="matrix(0.015,0,0,0.015,0,0)"/>
<path style="fill:none;stroke-width:23;stroke-linecap:round;stroke-linejoin:round;stroke:rgb(0%,0%,0%);stroke-opacity:1;stroke-miterlimit:10;" d="M 27940.885417 38864.583333 C 27940.885417 39186.197917 27769.270833 39483.59375 27490.625 39644.270833 C 27212.239583 39805.208333 26868.75 39805.208333 26590.364583 39644.270833 C 26311.71875 39483.59375 26140.104167 39186.197917 26140.104167 38864.583333 C 26140.104167 38542.708333 26311.71875 38245.572917 26590.364583 38084.635417 C 26868.75 37923.697917 27212.239583 37923.697917 27490.625 38084.635417 C 27769.270833 38245.572917 27940.885417 38542.708333 27940.885417 38864.583333 Z M 27940.885417 38864.583333 " transform="matrix(0.015,0,0,0.015,0,0)"/>
<path style="fill:none;stroke-width:23;stroke-linecap:round;stroke-linejoin:round;stroke:rgb(0%,0%,0%);stroke-opacity:1;stroke-miterlimit:10;" d="M 28690.885417 38864.583333 C 28690.885417 39454.166667 28376.302083 39998.958333 27865.625 40293.75 C 27355.208333 40588.802083 26726.041667 40588.802083 26215.364583 40293.75 C 25704.6875 39998.958333 25390.104167 39454.166667 25390.104167 38864.583333 C 25390.104167 38274.739583 25704.6875 37729.947917 26215.364583 37435.15625 C 26726.041667 37140.364583 27355.208333 37140.364583 27865.625 37435.15625 C 28376.302083 37729.947917 28690.885417 38274.739583 28690.885417 38864.583333 Z M 28690.885417 38864.583333 " transform="matrix(0.015,0,0,0.015,0,0)"/>
<path style="fill:none;stroke-width:23;stroke-linecap:round;stroke-linejoin:round;stroke:rgb(0%,0%,0%);stroke-opacity:1;stroke-miterlimit:10;" d="M 16120.052083 38264.0625 L 16840.104167 37544.010417 " transform="matrix(0.015,0,0,0.015,0,0)"/>
<path style="fill:none;stroke-width:23;stroke-linecap:round;stroke-linejoin:round;stroke:rgb(0%,0%,0%);stroke-opacity:1;stroke-miterlimit:10;" d="M 18040.104167 37544.010417 L 18759.895833 38264.0625 " transform="matrix(0.015,0,0,0.015,0,0)"/>
<path style="fill:none;stroke-width:23;stroke-linecap:round;stroke-linejoin:round;stroke:rgb(0%,0%,0%);stroke-opacity:1;stroke-miterlimit:10;" d="M 16840.104167 37544.010417 L 18040.104167 37544.010417 " transform="matrix(0.015,0,0,0.015,0,0)"/>
<path style="fill:none;stroke-width:23;stroke-linecap:round;stroke-linejoin:round;stroke:rgb(0%,0%,0%);stroke-opacity:1;stroke-miterlimit:10;" d="M 20920.052083 38264.0625 L 21640.104167 37544.010417 " transform="matrix(0.015,0,0,0.015,0,0)"/>
<path style="fill:none;stroke-width:23;stroke-linecap:round;stroke-linejoin:round;stroke:rgb(0%,0%,0%);stroke-opacity:1;stroke-miterlimit:10;" d="M 21640.104167 37544.010417 L 22840.104167 37544.010417 " transform="matrix(0.015,0,0,0.015,0,0)"/>
<path style="fill:none;stroke-width:23;stroke-linecap:round;stroke-linejoin:round;stroke:rgb(0%,0%,0%);stroke-opacity:1;stroke-miterlimit:10;" d="M 23559.895833 38264.0625 L 23559.895833 39464.0625 " transform="matrix(0.015,0,0,0.015,0,0)"/>
<path style="fill:none;stroke-width:23;stroke-linecap:round;stroke-linejoin:round;stroke:rgb(0%,0%,0%);stroke-opacity:1;stroke-miterlimit:10;" d="M 25720.052083 38264.0625 L 26440.104167 37544.010417 " transform="matrix(0.015,0,0,0.015,0,0)"/>
<path style="fill:none;stroke-width:23;stroke-linecap:round;stroke-linejoin:round;stroke:rgb(0%,0%,0%);stroke-opacity:1;stroke-miterlimit:10;" d="M 25720.052083 39464.0625 L 25720.052083 38264.0625 " transform="matrix(0.015,0,0,0.015,0,0)"/>
<path style="fill:none;stroke-width:23;stroke-linecap:round;stroke-linejoin:round;stroke:rgb(0%,0%,0%);stroke-opacity:1;stroke-miterlimit:10;" d="M 26440.104167 40184.114583 L 25720.052083 39464.0625 " transform="matrix(0.015,0,0,0.015,0,0)"/>
<path style="fill:none;stroke-width:76;stroke-linecap:round;stroke-linejoin:round;stroke:rgb(0%,0%,0%);stroke-opacity:1;stroke-miterlimit:10;" d="M 14590.104167 29894.010417 L 14553.90625 29929.947917 L 14446.09375 29965.885417 L 14373.958333 29965.885417 L 14265.885417 29929.947917 L 14194.010417 29858.072917 L 14158.072917 29785.9375 L 14121.875 29641.927083 L 14121.875 29534.114583 L 14158.072917 29390.104167 L 14194.010417 29317.96875 L 14265.885417 29246.09375 L 14373.958333 29209.895833 L 14446.09375 29209.895833 L 14553.90625 29246.09375 L 14590.104167 29282.03125 " transform="matrix(0.015,0,0,0.015,0,0)"/>
<path style="fill:none;stroke-width:76;stroke-linecap:round;stroke-linejoin:round;stroke:rgb(0%,0%,0%);stroke-opacity:1;stroke-miterlimit:10;" d="M 14805.989583 29209.895833 L 15058.072917 29965.885417 L 15309.895833 29209.895833 " transform="matrix(0.015,0,0,0.015,0,0)"/>
<path style="fill:none;stroke-width:76;stroke-linecap:round;stroke-linejoin:round;stroke:rgb(0%,0%,0%);stroke-opacity:1;stroke-miterlimit:10;" d="M 15958.072917 29965.885417 L 15526.041667 29965.885417 " transform="matrix(0.015,0,0,0.015,0,0)"/>
<path style="fill:none;stroke-width:76;stroke-linecap:round;stroke-linejoin:round;stroke:rgb(0%,0%,0%);stroke-opacity:1;stroke-miterlimit:10;" d="M 15741.927083 29965.885417 L 15741.927083 29209.895833 L 15670.052083 29317.96875 L 15597.916667 29390.104167 L 15526.041667 29426.041667 " transform="matrix(0.015,0,0,0.015,0,0)"/>
<path style="fill:none;stroke-width:23;stroke-linecap:round;stroke-linejoin:round;stroke:rgb(0%,0%,0%);stroke-opacity:1;stroke-miterlimit:10;" d="M 23890.104167 27563.020833 L 23320.052083 28423.958333 " transform="matrix(0.015,0,0,0.015,0,0)"/>
<path style="fill:none;stroke-width:23;stroke-linecap:round;stroke-linejoin:round;stroke:rgb(0%,0%,0%);stroke-opacity:1;stroke-miterlimit:10;" d="M 14290.104167 27563.020833 L 13720.052083 28423.958333 " transform="matrix(0.015,0,0,0.015,0,0)"/>
<path style="fill:none;stroke-width:9;stroke-linecap:round;stroke-linejoin:round;stroke:rgb(0%,0%,0%);stroke-opacity:1;stroke-miterlimit:10;" d="M 16540.885417 26264.583333 C 16540.885417 26800.520833 16254.947917 27295.833333 15790.625 27564.0625 C 15326.5625 27832.03125 14754.427083 27832.03125 14290.364583 27564.0625 C 13826.041667 27295.833333 13540.104167 26800.520833 13540.104167 26264.583333 C 13540.104167 25728.385417 13826.041667 25233.072917 14290.364583 24965.104167 C 14754.427083 24696.875 15326.5625 24696.875 15790.625 24965.104167 C 16254.947917 25233.072917 16540.885417 25728.385417 16540.885417 26264.583333 Z M 16540.885417 26264.583333 " transform="matrix(0.015,0,0,0.015,0,0)"/>
<path style="fill:none;stroke-width:9;stroke-linecap:round;stroke-linejoin:round;stroke:rgb(0%,0%,0%);stroke-opacity:1;stroke-miterlimit:10;" d="M 26140.885417 26264.583333 C 26140.885417 26800.520833 25854.947917 27295.833333 25390.625 27564.0625 C 24926.5625 27832.03125 24354.427083 27832.03125 23890.364583 27564.0625 C 23426.041667 27295.833333 23140.104167 26800.520833 23140.104167 26264.583333 C 23140.104167 25728.385417 23426.041667 25233.072917 23890.364583 24965.104167 C 24354.427083 24696.875 24926.5625 24696.875 25390.625 24965.104167 C 25854.947917 25233.072917 26140.885417 25728.385417 26140.885417 26264.583333 Z M 26140.885417 26264.583333 " transform="matrix(0.015,0,0,0.015,0,0)"/>
<path style="fill:none;stroke-width:9;stroke-linecap:round;stroke-linejoin:round;stroke:rgb(0%,0%,0%);stroke-opacity:1;stroke-miterlimit:10;" d="M 17590.885417 26264.583333 C 17590.885417 27175.78125 17104.947917 28017.708333 16315.625 28473.177083 C 15526.5625 28928.90625 14554.427083 28928.90625 13765.364583 28473.177083 C 12976.041667 28017.708333 12490.104167 27175.78125 12490.104167 26264.583333 C 12490.104167 25353.385417 12976.041667 24511.197917 13765.364583 24055.729167 C 14554.427083 23600 15526.5625 23600 16315.625 24055.729167 C 17104.947917 24511.197917 17590.885417 25353.385417 17590.885417 26264.583333 Z M 17590.885417 26264.583333 " transform="matrix(0.015,0,0,0.015,0,0)"/>
<path style="fill:none;stroke-width:76;stroke-linecap:round;stroke-linejoin:round;stroke:rgb(0%,0%,0%);stroke-opacity:1;stroke-miterlimit:10;" d="M 20673.958333 46885.9375 L 20673.958333 46129.947917 " transform="matrix(0.015,0,0,0.015,0,0)"/>
<path style="fill:none;stroke-width:76;stroke-linecap:round;stroke-linejoin:round;stroke:rgb(0%,0%,0%);stroke-opacity:1;stroke-miterlimit:10;" d="M 21034.114583 46885.9375 L 21034.114583 46129.947917 L 21465.885417 46885.9375 L 21465.885417 46129.947917 " transform="matrix(0.015,0,0,0.015,0,0)"/>
<path style="fill:none;stroke-width:76;stroke-linecap:round;stroke-linejoin:round;stroke:rgb(0%,0%,0%);stroke-opacity:1;stroke-miterlimit:10;" d="M 22617.96875 47173.958333 L 22582.03125 47138.020833 L 22509.895833 47029.947917 L 22473.958333 46958.072917 L 22438.020833 46850 L 22402.083333 46670.052083 L 22402.083333 46526.041667 L 22438.020833 46346.09375 L 22473.958333 46238.020833 L 22509.895833 46165.885417 L 22582.03125 46058.072917 L 22617.96875 46021.875 " transform="matrix(0.015,0,0,0.015,0,0)"/>
<path style="fill:none;stroke-width:76;stroke-linecap:round;stroke-linejoin:round;stroke:rgb(0%,0%,0%);stroke-opacity:1;stroke-miterlimit:10;" d="M 22905.989583 46885.9375 L 22905.989583 46129.947917 L 23194.010417 46129.947917 L 23265.885417 46165.885417 L 23302.083333 46202.083333 L 23338.020833 46273.958333 L 23338.020833 46382.03125 L 23302.083333 46453.90625 L 23265.885417 46490.104167 L 23194.010417 46526.041667 L 22905.989583 46526.041667 " transform="matrix(0.015,0,0,0.015,0,0)"/>
<path style="fill:none;stroke-width:76;stroke-linecap:round;stroke-linejoin:round;stroke:rgb(0%,0%,0%);stroke-opacity:1;stroke-miterlimit:10;" d="M 23590.104167 47173.958333 L 23626.041667 47138.020833 L 23697.916667 47029.947917 L 23734.114583 46958.072917 L 23770.052083 46850 L 23805.989583 46670.052083 L 23805.989583 46526.041667 L 23770.052083 46346.09375 L 23734.114583 46238.020833 L 23697.916667 46165.885417 L 23626.041667 46058.072917 L 23590.104167 46021.875 " transform="matrix(0.015,0,0,0.015,0,0)"/>
<path style="fill:none;stroke-width:23;stroke-linecap:round;stroke-linejoin:round;stroke:rgb(0%,0%,0%);stroke-opacity:1;stroke-miterlimit:10;" d="M 21640.104167 45584.114583 L 20920.052083 44864.0625 " transform="matrix(0.015,0,0,0.015,0,0)"/>
<path style="fill:none;stroke-width:23;stroke-linecap:round;stroke-linejoin:round;stroke:rgb(0%,0%,0%);stroke-opacity:1;stroke-miterlimit:10;" d="M 22840.104167 45584.114583 L 21640.104167 45584.114583 " transform="matrix(0.015,0,0,0.015,0,0)"/>
<path style="fill:none;stroke-width:23;stroke-linecap:round;stroke-linejoin:round;stroke:rgb(0%,0%,0%);stroke-opacity:1;stroke-miterlimit:10;" d="M 23559.895833 44864.0625 L 22840.104167 45584.114583 " transform="matrix(0.015,0,0,0.015,0,0)"/>
<path style="fill:none;stroke-width:76;stroke-linecap:round;stroke-linejoin:round;stroke:rgb(0%,0%,0%);stroke-opacity:1;stroke-miterlimit:10;" d="M 15514.0625 46129.947917 L 15658.072917 46129.947917 L 15729.947917 46165.885417 L 15802.083333 46238.020833 L 15838.020833 46382.03125 L 15838.020833 46634.114583 L 15802.083333 46778.125 L 15729.947917 46850 L 15658.072917 46885.9375 L 15514.0625 46885.9375 L 15441.927083 46850 L 15370.052083 46778.125 L 15334.114583 46634.114583 L 15334.114583 46382.03125 L 15370.052083 46238.020833 L 15441.927083 46165.885417 L 15514.0625 46129.947917 " transform="matrix(0.015,0,0,0.015,0,0)"/>
<path style="fill:none;stroke-width:76;stroke-linecap:round;stroke-linejoin:round;stroke:rgb(0%,0%,0%);stroke-opacity:1;stroke-miterlimit:10;" d="M 16161.979167 46129.947917 L 16161.979167 46741.927083 L 16197.916667 46814.0625 L 16234.114583 46850 L 16305.989583 46885.9375 L 16450 46885.9375 L 16521.875 46850 L 16558.072917 46814.0625 L 16594.010417 46741.927083 L 16594.010417 46129.947917 " transform="matrix(0.015,0,0,0.015,0,0)"/>
<path style="fill:none;stroke-width:76;stroke-linecap:round;stroke-linejoin:round;stroke:rgb(0%,0%,0%);stroke-opacity:1;stroke-miterlimit:10;" d="M 16846.09375 46129.947917 L 17278.125 46129.947917 " transform="matrix(0.015,0,0,0.015,0,0)"/>
<path style="fill:none;stroke-width:76;stroke-linecap:round;stroke-linejoin:round;stroke:rgb(0%,0%,0%);stroke-opacity:1;stroke-miterlimit:10;" d="M 17061.979167 46885.9375 L 17061.979167 46129.947917 " transform="matrix(0.015,0,0,0.015,0,0)"/>
<path style="fill:none;stroke-width:76;stroke-linecap:round;stroke-linejoin:round;stroke:rgb(0%,0%,0%);stroke-opacity:1;stroke-miterlimit:10;" d="M 18321.875 47173.958333 L 18285.9375 47138.020833 L 18214.0625 47029.947917 L 18178.125 46958.072917 L 18141.927083 46850 L 18105.989583 46670.052083 L 18105.989583 46526.041667 L 18141.927083 46346.09375 L 18178.125 46238.020833 L 18214.0625 46165.885417 L 18285.9375 46058.072917 L 18321.875 46021.875 " transform="matrix(0.015,0,0,0.015,0,0)"/>
<path style="fill:none;stroke-width:76;stroke-linecap:round;stroke-linejoin:round;stroke:rgb(0%,0%,0%);stroke-opacity:1;stroke-miterlimit:10;" d="M 18609.895833 46885.9375 L 18609.895833 46129.947917 L 18897.916667 46129.947917 L 18970.052083 46165.885417 L 19005.989583 46202.083333 L 19041.927083 46273.958333 L 19041.927083 46382.03125 L 19005.989583 46453.90625 L 18970.052083 46490.104167 L 18897.916667 46526.041667 L 18609.895833 46526.041667 " transform="matrix(0.015,0,0,0.015,0,0)"/>
<path style="fill:none;stroke-width:76;stroke-linecap:round;stroke-linejoin:round;stroke:rgb(0%,0%,0%);stroke-opacity:1;stroke-miterlimit:10;" d="M 19294.010417 47173.958333 L 19329.947917 47138.020833 L 19402.083333 47029.947917 L 19438.020833 46958.072917 L 19473.958333 46850 L 19509.895833 46670.052083 L 19509.895833 46526.041667 L 19473.958333 46346.09375 L 19438.020833 46238.020833 L 19402.083333 46165.885417 L 19329.947917 46058.072917 L 19294.010417 46021.875 " transform="matrix(0.015,0,0,0.015,0,0)"/>
<path style="fill:none;stroke-width:76;stroke-linecap:round;stroke-linejoin:round;stroke:rgb(0%,0%,0%);stroke-opacity:1;stroke-miterlimit:10;" d="M 11091.927083 46885.9375 L 11091.927083 46129.947917 " transform="matrix(0.015,0,0,0.015,0,0)"/>
<path style="fill:none;stroke-width:76;stroke-linecap:round;stroke-linejoin:round;stroke:rgb(0%,0%,0%);stroke-opacity:1;stroke-miterlimit:10;" d="M 11452.083333 46885.9375 L 11452.083333 46129.947917 L 11884.114583 46885.9375 L 11884.114583 46129.947917 " transform="matrix(0.015,0,0,0.015,0,0)"/>
<path style="fill:none;stroke-width:76;stroke-linecap:round;stroke-linejoin:round;stroke:rgb(0%,0%,0%);stroke-opacity:1;stroke-miterlimit:10;" d="M 13035.9375 47173.958333 L 13000 47138.020833 L 12928.125 47029.947917 L 12891.927083 46958.072917 L 12855.989583 46850 L 12820.052083 46670.052083 L 12820.052083 46526.041667 L 12855.989583 46346.09375 L 12891.927083 46238.020833 L 12928.125 46165.885417 L 13000 46058.072917 L 13035.9375 46021.875 " transform="matrix(0.015,0,0,0.015,0,0)"/>
<path style="fill:none;stroke-width:76;stroke-linecap:round;stroke-linejoin:round;stroke:rgb(0%,0%,0%);stroke-opacity:1;stroke-miterlimit:10;" d="M 13288.020833 46850 L 13396.09375 46885.9375 L 13576.041667 46885.9375 L 13647.916667 46850 L 13684.114583 46814.0625 L 13720.052083 46741.927083 L 13720.052083 46670.052083 L 13684.114583 46597.916667 L 13647.916667 46561.979167 L 13576.041667 46526.041667 L 13432.03125 46490.104167 L 13359.895833 46453.90625 L 13323.958333 46417.96875 L 13288.020833 46346.09375 L 13288.020833 46273.958333 L 13323.958333 46202.083333 L 13359.895833 46165.885417 L 13432.03125 46129.947917 L 13611.979167 46129.947917 L 13720.052083 46165.885417 " transform="matrix(0.015,0,0,0.015,0,0)"/>
<path style="fill:none;stroke-width:76;stroke-linecap:round;stroke-linejoin:round;stroke:rgb(0%,0%,0%);stroke-opacity:1;stroke-miterlimit:10;" d="M 13971.875 47173.958333 L 14008.072917 47138.020833 L 14079.947917 47029.947917 L 14115.885417 46958.072917 L 14152.083333 46850 L 14188.020833 46670.052083 L 14188.020833 46526.041667 L 14152.083333 46346.09375 L 14115.885417 46238.020833 L 14079.947917 46165.885417 L 14008.072917 46058.072917 L 13971.875 46021.875 " transform="matrix(0.015,0,0,0.015,0,0)"/>
<path style="fill:none;stroke-width:23;stroke-linecap:round;stroke-linejoin:round;stroke:rgb(0%,0%,0%);stroke-opacity:1;stroke-miterlimit:10;" d="M 16840.104167 45584.114583 L 16120.052083 44864.0625 " transform="matrix(0.015,0,0,0.015,0,0)"/>
<path style="fill:none;stroke-width:23;stroke-linecap:round;stroke-linejoin:round;stroke:rgb(0%,0%,0%);stroke-opacity:1;stroke-miterlimit:10;" d="M 13959.895833 43664.0625 L 13959.895833 44864.0625 " transform="matrix(0.015,0,0,0.015,0,0)"/>
<path style="fill:none;stroke-width:23;stroke-linecap:round;stroke-linejoin:round;stroke:rgb(0%,0%,0%);stroke-opacity:1;stroke-miterlimit:10;" d="M 19090.885417 44264.583333 C 19090.885417 44854.166667 18776.302083 45398.958333 18265.625 45693.75 C 17755.208333 45988.802083 17126.041667 45988.802083 16615.364583 45693.75 C 16104.6875 45398.958333 15790.104167 44854.166667 15790.104167 44264.583333 C 15790.104167 43674.739583 16104.6875 43129.947917 16615.364583 42835.15625 C 17126.041667 42540.364583 17755.208333 42540.364583 18265.625 42835.15625 C 18776.302083 43129.947917 19090.885417 43674.739583 19090.885417 44264.583333 Z M 19090.885417 44264.583333 " transform="matrix(0.015,0,0,0.015,0,0)"/>
<path style="fill:none;stroke-width:23;stroke-linecap:round;stroke-linejoin:round;stroke:rgb(0%,0%,0%);stroke-opacity:1;stroke-miterlimit:10;" d="M 14290.885417 44264.583333 C 14290.885417 44854.166667 13976.302083 45398.958333 13465.625 45693.75 C 12955.208333 45988.802083 12326.041667 45988.802083 11815.364583 45693.75 C 11304.6875 45398.958333 10990.104167 44854.166667 10990.104167 44264.583333 C 10990.104167 43674.739583 11304.6875 43129.947917 11815.364583 42835.15625 C 12326.041667 42540.364583 12955.208333 42540.364583 13465.625 42835.15625 C 13976.302083 43129.947917 14290.885417 43674.739583 14290.885417 44264.583333 Z M 14290.885417 44264.583333 " transform="matrix(0.015,0,0,0.015,0,0)"/>
<path style="fill:none;stroke-width:76;stroke-linecap:round;stroke-linejoin:round;stroke:rgb(0%,0%,0%);stroke-opacity:1;stroke-miterlimit:10;" d="M 25132.03125 46129.947917 L 25276.041667 46129.947917 L 25347.916667 46165.885417 L 25420.052083 46238.020833 L 25455.989583 46382.03125 L 25455.989583 46634.114583 L 25420.052083 46778.125 L 25347.916667 46850 L 25276.041667 46885.9375 L 25132.03125 46885.9375 L 25059.895833 46850 L 24988.020833 46778.125 L 24952.083333 46634.114583 L 24952.083333 46382.03125 L 24988.020833 46238.020833 L 25059.895833 46165.885417 L 25132.03125 46129.947917 " transform="matrix(0.015,0,0,0.015,0,0)"/>
<path style="fill:none;stroke-width:76;stroke-linecap:round;stroke-linejoin:round;stroke:rgb(0%,0%,0%);stroke-opacity:1;stroke-miterlimit:10;" d="M 25779.947917 46129.947917 L 25779.947917 46741.927083 L 25815.885417 46814.0625 L 25852.083333 46850 L 25923.958333 46885.9375 L 26067.96875 46885.9375 L 26140.104167 46850 L 26176.041667 46814.0625 L 26211.979167 46741.927083 L 26211.979167 46129.947917 " transform="matrix(0.015,0,0,0.015,0,0)"/>
<path style="fill:none;stroke-width:76;stroke-linecap:round;stroke-linejoin:round;stroke:rgb(0%,0%,0%);stroke-opacity:1;stroke-miterlimit:10;" d="M 26464.0625 46129.947917 L 26896.09375 46129.947917 " transform="matrix(0.015,0,0,0.015,0,0)"/>
<path style="fill:none;stroke-width:76;stroke-linecap:round;stroke-linejoin:round;stroke:rgb(0%,0%,0%);stroke-opacity:1;stroke-miterlimit:10;" d="M 26679.947917 46885.9375 L 26679.947917 46129.947917 " transform="matrix(0.015,0,0,0.015,0,0)"/>
<path style="fill:none;stroke-width:76;stroke-linecap:round;stroke-linejoin:round;stroke:rgb(0%,0%,0%);stroke-opacity:1;stroke-miterlimit:10;" d="M 27940.104167 47173.958333 L 27903.90625 47138.020833 L 27832.03125 47029.947917 L 27796.09375 46958.072917 L 27759.895833 46850 L 27723.958333 46670.052083 L 27723.958333 46526.041667 L 27759.895833 46346.09375 L 27796.09375 46238.020833 L 27832.03125 46165.885417 L 27903.90625 46058.072917 L 27940.104167 46021.875 " transform="matrix(0.015,0,0,0.015,0,0)"/>
<path style="fill:none;stroke-width:76;stroke-linecap:round;stroke-linejoin:round;stroke:rgb(0%,0%,0%);stroke-opacity:1;stroke-miterlimit:10;" d="M 28191.927083 46850 L 28300 46885.9375 L 28479.947917 46885.9375 L 28552.083333 46850 L 28588.020833 46814.0625 L 28623.958333 46741.927083 L 28623.958333 46670.052083 L 28588.020833 46597.916667 L 28552.083333 46561.979167 L 28479.947917 46526.041667 L 28335.9375 46490.104167 L 28264.0625 46453.90625 L 28228.125 46417.96875 L 28191.927083 46346.09375 L 28191.927083 46273.958333 L 28228.125 46202.083333 L 28264.0625 46165.885417 L 28335.9375 46129.947917 L 28515.885417 46129.947917 L 28623.958333 46165.885417 " transform="matrix(0.015,0,0,0.015,0,0)"/>
<path style="fill:none;stroke-width:76;stroke-linecap:round;stroke-linejoin:round;stroke:rgb(0%,0%,0%);stroke-opacity:1;stroke-miterlimit:10;" d="M 28876.041667 47173.958333 L 28911.979167 47138.020833 L 28984.114583 47029.947917 L 29020.052083 46958.072917 L 29055.989583 46850 L 29091.927083 46670.052083 L 29091.927083 46526.041667 L 29055.989583 46346.09375 L 29020.052083 46238.020833 L 28984.114583 46165.885417 L 28911.979167 46058.072917 L 28876.041667 46021.875 " transform="matrix(0.015,0,0,0.015,0,0)"/>
<path style="fill:none;stroke-width:23;stroke-linecap:round;stroke-linejoin:round;stroke:rgb(0%,0%,0%);stroke-opacity:1;stroke-miterlimit:10;" d="M 27640.104167 42944.010417 L 28359.895833 43664.0625 " transform="matrix(0.015,0,0,0.015,0,0)"/>
<path style="fill:none;stroke-width:23;stroke-linecap:round;stroke-linejoin:round;stroke:rgb(0%,0%,0%);stroke-opacity:1;stroke-miterlimit:10;" d="M 27640.104167 45584.114583 L 26440.104167 45584.114583 " transform="matrix(0.015,0,0,0.015,0,0)"/>
<path style="fill:none;stroke-width:23;stroke-linecap:round;stroke-linejoin:round;stroke:rgb(0%,0%,0%);stroke-opacity:1;stroke-miterlimit:10;" d="M 28359.895833 43664.0625 L 28359.895833 44864.0625 " transform="matrix(0.015,0,0,0.015,0,0)"/>
<path style="fill:none;stroke-width:23;stroke-linecap:round;stroke-linejoin:round;stroke:rgb(0%,0%,0%);stroke-opacity:1;stroke-miterlimit:10;" d="M 28359.895833 44864.0625 L 27640.104167 45584.114583 " transform="matrix(0.015,0,0,0.015,0,0)"/>
<path style="fill:none;stroke-width:23;stroke-linecap:round;stroke-linejoin:round;stroke:rgb(0%,0%,0%);stroke-opacity:1;stroke-miterlimit:10;" d="M 26440.104167 42944.010417 L 27640.104167 42944.010417 " transform="matrix(0.015,0,0,0.015,0,0)"/>
<path style="fill:none;stroke-width:23;stroke-linecap:round;stroke-linejoin:round;stroke:rgb(0%,0%,0%);stroke-opacity:1;stroke-miterlimit:10;" d="M 28690.885417 44264.583333 C 28690.885417 44854.166667 28376.302083 45398.958333 27865.625 45693.75 C 27355.208333 45988.802083 26726.041667 45988.802083 26215.364583 45693.75 C 25704.6875 45398.958333 25390.104167 44854.166667 25390.104167 44264.583333 C 25390.104167 43674.739583 25704.6875 43129.947917 26215.364583 42835.15625 C 26726.041667 42540.364583 27355.208333 42540.364583 27865.625 42835.15625 C 28376.302083 43129.947917 28690.885417 43674.739583 28690.885417 44264.583333 Z M 28690.885417 44264.583333 " transform="matrix(0.015,0,0,0.015,0,0)"/>
<path style="fill:none;stroke-width:23;stroke-linecap:round;stroke-linejoin:round;stroke:rgb(0%,0%,0%);stroke-opacity:1;stroke-miterlimit:10;" d="M 27940.885417 44264.583333 C 27940.885417 44586.197917 27769.270833 44883.59375 27490.625 45044.270833 C 27212.239583 45205.208333 26868.75 45205.208333 26590.364583 45044.270833 C 26311.71875 44883.59375 26140.104167 44586.197917 26140.104167 44264.583333 C 26140.104167 43942.708333 26311.71875 43645.572917 26590.364583 43484.635417 C 26868.75 43323.697917 27212.239583 43323.697917 27490.625 43484.635417 C 27769.270833 43645.572917 27940.885417 43942.708333 27940.885417 44264.583333 Z M 27940.885417 44264.583333 " transform="matrix(0.015,0,0,0.015,0,0)"/>
<path style="fill:none;stroke-width:23;stroke-linecap:round;stroke-linejoin:round;stroke:rgb(0%,0%,0%);stroke-opacity:1;stroke-miterlimit:10;" d="M 26440.104167 45584.114583 L 25720.052083 44864.0625 " transform="matrix(0.015,0,0,0.015,0,0)"/>
<path style="fill:none;stroke-width:23;stroke-linecap:round;stroke-linejoin:round;stroke:rgb(0%,0%,0%);stroke-opacity:1;stroke-miterlimit:10;" d="M 25720.052083 43664.0625 L 26440.104167 42944.010417 " transform="matrix(0.015,0,0,0.015,0,0)"/>
<path style="fill:none;stroke-width:23;stroke-linecap:round;stroke-linejoin:round;stroke:rgb(0%,0%,0%);stroke-opacity:1;stroke-miterlimit:10;" d="M 25720.052083 44864.0625 L 25720.052083 43664.0625 " transform="matrix(0.015,0,0,0.015,0,0)"/>
<path style="fill:none;stroke-width:23;stroke-linecap:round;stroke-linejoin:round;stroke:rgb(0%,0%,0%);stroke-opacity:1;stroke-miterlimit:10;" d="M 23559.895833 43664.0625 L 23559.895833 44864.0625 " transform="matrix(0.015,0,0,0.015,0,0)"/>
<path style="fill:none;stroke-width:23;stroke-linecap:round;stroke-linejoin:round;stroke:rgb(0%,0%,0%);stroke-opacity:1;stroke-miterlimit:10;" d="M 12040.104167 45584.114583 L 11320.052083 44864.0625 " transform="matrix(0.015,0,0,0.015,0,0)"/>
<path style="fill:none;stroke-width:23;stroke-linecap:round;stroke-linejoin:round;stroke:rgb(0%,0%,0%);stroke-opacity:1;stroke-miterlimit:10;" d="M 13240.104167 42944.010417 L 13959.895833 43664.0625 " transform="matrix(0.015,0,0,0.015,0,0)"/>
<path style="fill:none;stroke-width:23;stroke-linecap:round;stroke-linejoin:round;stroke:rgb(0%,0%,0%);stroke-opacity:1;stroke-miterlimit:10;" d="M 13240.104167 45584.114583 L 12040.104167 45584.114583 " transform="matrix(0.015,0,0,0.015,0,0)"/>
<path style="fill:none;stroke-width:23;stroke-linecap:round;stroke-linejoin:round;stroke:rgb(0%,0%,0%);stroke-opacity:1;stroke-miterlimit:10;" d="M 13959.895833 44864.0625 L 13240.104167 45584.114583 " transform="matrix(0.015,0,0,0.015,0,0)"/>
<path style="fill:none;stroke-width:23;stroke-linecap:round;stroke-linejoin:round;stroke:rgb(0%,0%,0%);stroke-opacity:1;stroke-miterlimit:10;" d="M 11320.052083 44864.0625 L 11320.052083 43664.0625 " transform="matrix(0.015,0,0,0.015,0,0)"/>
<path style="fill:none;stroke-width:23;stroke-linecap:round;stroke-linejoin:round;stroke:rgb(0%,0%,0%);stroke-opacity:1;stroke-miterlimit:10;" d="M 20920.052083 43664.0625 L 21640.104167 42944.010417 " transform="matrix(0.015,0,0,0.015,0,0)"/>
<path style="fill:none;stroke-width:23;stroke-linecap:round;stroke-linejoin:round;stroke:rgb(0%,0%,0%);stroke-opacity:1;stroke-miterlimit:10;" d="M 22840.104167 42944.010417 L 23559.895833 43664.0625 " transform="matrix(0.015,0,0,0.015,0,0)"/>
<path style="fill:none;stroke-width:23;stroke-linecap:round;stroke-linejoin:round;stroke:rgb(0%,0%,0%);stroke-opacity:1;stroke-miterlimit:10;" d="M 20920.052083 44864.0625 L 20920.052083 43664.0625 " transform="matrix(0.015,0,0,0.015,0,0)"/>
<path style="fill:none;stroke-width:23;stroke-linecap:round;stroke-linejoin:round;stroke:rgb(0%,0%,0%);stroke-opacity:1;stroke-miterlimit:10;" d="M 21640.104167 42944.010417 L 22840.104167 42944.010417 " transform="matrix(0.015,0,0,0.015,0,0)"/>
<path style="fill:none;stroke-width:23;stroke-linecap:round;stroke-linejoin:round;stroke:rgb(0%,0%,0%);stroke-opacity:1;stroke-miterlimit:10;" d="M 23890.885417 44264.583333 C 23890.885417 44854.166667 23576.302083 45398.958333 23065.625 45693.75 C 22555.208333 45988.802083 21926.041667 45988.802083 21415.364583 45693.75 C 20904.6875 45398.958333 20590.104167 44854.166667 20590.104167 44264.583333 C 20590.104167 43674.739583 20904.6875 43129.947917 21415.364583 42835.15625 C 21926.041667 42540.364583 22555.208333 42540.364583 23065.625 42835.15625 C 23576.302083 43129.947917 23890.885417 43674.739583 23890.885417 44264.583333 Z M 23890.885417 44264.583333 " transform="matrix(0.015,0,0,0.015,0,0)"/>
<path style="fill:none;stroke-width:76;stroke-linecap:round;stroke-linejoin:round;stroke:rgb(0%,0%,0%);stroke-opacity:1;stroke-miterlimit:10;" d="M 16990.104167 41414.0625 L 16953.90625 41450 L 16846.09375 41485.9375 L 16773.958333 41485.9375 L 16665.885417 41450 L 16594.010417 41378.125 L 16558.072917 41305.989583 L 16521.875 41161.979167 L 16521.875 41053.90625 L 16558.072917 40909.895833 L 16594.010417 40838.020833 L 16665.885417 40765.885417 L 16773.958333 40729.947917 L 16846.09375 40729.947917 L 16953.90625 40765.885417 L 16990.104167 40802.083333 " transform="matrix(0.015,0,0,0.015,0,0)"/>
<path style="fill:none;stroke-width:76;stroke-linecap:round;stroke-linejoin:round;stroke:rgb(0%,0%,0%);stroke-opacity:1;stroke-miterlimit:10;" d="M 17205.989583 40729.947917 L 17458.072917 41485.9375 L 17709.895833 40729.947917 " transform="matrix(0.015,0,0,0.015,0,0)"/>
<path style="fill:none;stroke-width:76;stroke-linecap:round;stroke-linejoin:round;stroke:rgb(0%,0%,0%);stroke-opacity:1;stroke-miterlimit:10;" d="M 17926.041667 40802.083333 L 17961.979167 40765.885417 L 18034.114583 40729.947917 L 18214.0625 40729.947917 L 18285.9375 40765.885417 L 18321.875 40802.083333 L 18358.072917 40873.958333 L 18358.072917 40946.09375 L 18321.875 41053.90625 L 17890.104167 41485.9375 L 18358.072917 41485.9375 " transform="matrix(0.015,0,0,0.015,0,0)"/>
<path style="fill:none;stroke-width:23;stroke-linecap:round;stroke-linejoin:round;stroke:rgb(0%,0%,0%);stroke-opacity:1;stroke-miterlimit:10;" d="M 16120.052083 43664.0625 L 16840.104167 42944.010417 " transform="matrix(0.015,0,0,0.015,0,0)"/>
<path style="fill:none;stroke-width:23;stroke-linecap:round;stroke-linejoin:round;stroke:rgb(0%,0%,0%);stroke-opacity:1;stroke-miterlimit:10;" d="M 18040.104167 42944.010417 L 18759.895833 43664.0625 " transform="matrix(0.015,0,0,0.015,0,0)"/>
<path style="fill:none;stroke-width:23;stroke-linecap:round;stroke-linejoin:round;stroke:rgb(0%,0%,0%);stroke-opacity:1;stroke-miterlimit:10;" d="M 16840.104167 42944.010417 L 18040.104167 42944.010417 " transform="matrix(0.015,0,0,0.015,0,0)"/>
<path style="fill:none;stroke-width:76;stroke-linecap:round;stroke-linejoin:round;stroke:rgb(0%,0%,0%);stroke-opacity:1;stroke-miterlimit:10;" d="M 12190.104167 41414.0625 L 12153.90625 41450 L 12046.09375 41485.9375 L 11973.958333 41485.9375 L 11865.885417 41450 L 11794.010417 41378.125 L 11758.072917 41305.989583 L 11721.875 41161.979167 L 11721.875 41053.90625 L 11758.072917 40909.895833 L 11794.010417 40838.020833 L 11865.885417 40765.885417 L 11973.958333 40729.947917 L 12046.09375 40729.947917 L 12153.90625 40765.885417 L 12190.104167 40802.083333 " transform="matrix(0.015,0,0,0.015,0,0)"/>
<path style="fill:none;stroke-width:76;stroke-linecap:round;stroke-linejoin:round;stroke:rgb(0%,0%,0%);stroke-opacity:1;stroke-miterlimit:10;" d="M 12405.989583 40729.947917 L 12658.072917 41485.9375 L 12909.895833 40729.947917 " transform="matrix(0.015,0,0,0.015,0,0)"/>
<path style="fill:none;stroke-width:76;stroke-linecap:round;stroke-linejoin:round;stroke:rgb(0%,0%,0%);stroke-opacity:1;stroke-miterlimit:10;" d="M 13558.072917 41485.9375 L 13126.041667 41485.9375 " transform="matrix(0.015,0,0,0.015,0,0)"/>
<path style="fill:none;stroke-width:76;stroke-linecap:round;stroke-linejoin:round;stroke:rgb(0%,0%,0%);stroke-opacity:1;stroke-miterlimit:10;" d="M 13341.927083 41485.9375 L 13341.927083 40729.947917 L 13270.052083 40838.020833 L 13197.916667 40909.895833 L 13126.041667 40946.09375 " transform="matrix(0.015,0,0,0.015,0,0)"/>
<path style="fill:none;stroke-width:23;stroke-linecap:round;stroke-linejoin:round;stroke:rgb(0%,0%,0%);stroke-opacity:1;stroke-miterlimit:10;" d="M 11320.052083 43664.0625 L 12040.104167 42944.010417 " transform="matrix(0.015,0,0,0.015,0,0)"/>
<path style="fill:none;stroke-width:23;stroke-linecap:round;stroke-linejoin:round;stroke:rgb(0%,0%,0%);stroke-opacity:1;stroke-miterlimit:10;" d="M 12040.104167 42944.010417 L 13240.104167 42944.010417 " transform="matrix(0.015,0,0,0.015,0,0)"/>
<path style="fill:none;stroke-width:23;stroke-linecap:round;stroke-linejoin:round;stroke:rgb(0%,0%,0%);stroke-opacity:1;stroke-miterlimit:10;" d="M 13240.104167 40184.114583 L 12040.104167 40184.114583 " transform="matrix(0.015,0,0,0.015,0,0)"/>
<path style="fill:none;stroke-width:23;stroke-linecap:round;stroke-linejoin:round;stroke:rgb(0%,0%,0%);stroke-opacity:1;stroke-miterlimit:10;" d="M 13540.885417 44264.583333 C 13540.885417 44586.197917 13369.270833 44883.59375 13090.625 45044.270833 C 12812.239583 45205.208333 12468.75 45205.208333 12190.364583 45044.270833 C 11911.71875 44883.59375 11740.104167 44586.197917 11740.104167 44264.583333 C 11740.104167 43942.708333 11911.71875 43645.572917 12190.364583 43484.635417 C 12468.75 43323.697917 12812.239583 43323.697917 13090.625 43484.635417 C 13369.270833 43645.572917 13540.885417 43942.708333 13540.885417 44264.583333 Z M 13540.885417 44264.583333 " transform="matrix(0.015,0,0,0.015,0,0)"/>
<path style="fill:none;stroke-width:23;stroke-linecap:round;stroke-linejoin:round;stroke:rgb(0%,0%,0%);stroke-opacity:1;stroke-miterlimit:10;" d="M 11320.052083 38264.0625 L 12040.104167 37544.010417 " transform="matrix(0.015,0,0,0.015,0,0)"/>
<path style="fill:none;stroke-width:23;stroke-linecap:round;stroke-linejoin:round;stroke:rgb(0%,0%,0%);stroke-opacity:1;stroke-miterlimit:10;" d="M 11320.052083 39464.0625 L 11320.052083 38264.0625 " transform="matrix(0.015,0,0,0.015,0,0)"/>
<path style="fill:none;stroke-width:23;stroke-linecap:round;stroke-linejoin:round;stroke:rgb(0%,0%,0%);stroke-opacity:1;stroke-miterlimit:10;" d="M 12040.104167 40184.114583 L 11320.052083 39464.0625 " transform="matrix(0.015,0,0,0.015,0,0)"/>
<path style="fill:none;stroke-width:23;stroke-linecap:round;stroke-linejoin:round;stroke:rgb(0%,0%,0%);stroke-opacity:1;stroke-miterlimit:10;" d="M 13540.885417 38864.583333 C 13540.885417 39186.197917 13369.270833 39483.59375 13090.625 39644.270833 C 12812.239583 39805.208333 12468.75 39805.208333 12190.364583 39644.270833 C 11911.71875 39483.59375 11740.104167 39186.197917 11740.104167 38864.583333 C 11740.104167 38542.708333 11911.71875 38245.572917 12190.364583 38084.635417 C 12468.75 37923.697917 12812.239583 37923.697917 13090.625 38084.635417 C 13369.270833 38245.572917 13540.885417 38542.708333 13540.885417 38864.583333 Z M 13540.885417 38864.583333 " transform="matrix(0.015,0,0,0.015,0,0)"/>
<path style="fill:none;stroke-width:23;stroke-linecap:round;stroke-linejoin:round;stroke:rgb(0%,0%,0%);stroke-opacity:1;stroke-miterlimit:10;" d="M 16120.052083 39464.0625 L 16120.052083 38264.0625 " transform="matrix(0.015,0,0,0.015,0,0)"/>
<path style="fill:none;stroke-width:23;stroke-linecap:round;stroke-linejoin:round;stroke:rgb(0%,0%,0%);stroke-opacity:1;stroke-miterlimit:10;" d="M 16840.104167 40184.114583 L 16120.052083 39464.0625 " transform="matrix(0.015,0,0,0.015,0,0)"/>
<path style="fill:none;stroke-width:23;stroke-linecap:round;stroke-linejoin:round;stroke:rgb(0%,0%,0%);stroke-opacity:1;stroke-miterlimit:10;" d="M 18040.104167 40184.114583 L 16840.104167 40184.114583 " transform="matrix(0.015,0,0,0.015,0,0)"/>
<path style="fill:none;stroke-width:23;stroke-linecap:round;stroke-linejoin:round;stroke:rgb(0%,0%,0%);stroke-opacity:1;stroke-miterlimit:10;" d="M 18759.895833 39464.0625 L 18040.104167 40184.114583 " transform="matrix(0.015,0,0,0.015,0,0)"/>
<path style="fill:none;stroke-width:23;stroke-linecap:round;stroke-linejoin:round;stroke:rgb(0%,0%,0%);stroke-opacity:1;stroke-miterlimit:10;" d="M 18759.895833 38264.0625 L 18759.895833 39464.0625 " transform="matrix(0.015,0,0,0.015,0,0)"/>
<path style="fill:none;stroke-width:23;stroke-linecap:round;stroke-linejoin:round;stroke:rgb(0%,0%,0%);stroke-opacity:1;stroke-miterlimit:10;" d="M 19090.885417 38864.583333 C 19090.885417 39454.166667 18776.302083 39998.958333 18265.625 40293.75 C 17755.208333 40588.802083 17126.041667 40588.802083 16615.364583 40293.75 C 16104.6875 39998.958333 15790.104167 39454.166667 15790.104167 38864.583333 C 15790.104167 38274.739583 16104.6875 37729.947917 16615.364583 37435.15625 C 17126.041667 37140.364583 17755.208333 37140.364583 18265.625 37435.15625 C 18776.302083 37729.947917 19090.885417 38274.739583 19090.885417 38864.583333 Z M 19090.885417 38864.583333 " transform="matrix(0.015,0,0,0.015,0,0)"/>
<path style="fill:none;stroke-width:23;stroke-linecap:round;stroke-linejoin:round;stroke:rgb(0%,0%,0%);stroke-opacity:1;stroke-miterlimit:10;" d="M 18340.885417 38864.583333 C 18340.885417 39186.197917 18169.270833 39483.59375 17890.625 39644.270833 C 17612.239583 39805.208333 17268.75 39805.208333 16990.364583 39644.270833 C 16711.71875 39483.59375 16540.104167 39186.197917 16540.104167 38864.583333 C 16540.104167 38542.708333 16711.71875 38245.572917 16990.364583 38084.635417 C 17268.75 37923.697917 17612.239583 37923.697917 17890.625 38084.635417 C 18169.270833 38245.572917 18340.885417 38542.708333 18340.885417 38864.583333 Z M 18340.885417 38864.583333 " transform="matrix(0.015,0,0,0.015,0,0)"/>
<path style="fill:none;stroke-width:76;stroke-linecap:round;stroke-linejoin:round;stroke:rgb(0%,0%,0%);stroke-opacity:1;stroke-miterlimit:10;" d="M 21790.104167 41414.0625 L 21753.90625 41450 L 21646.09375 41485.9375 L 21573.958333 41485.9375 L 21465.885417 41450 L 21394.010417 41378.125 L 21358.072917 41305.989583 L 21321.875 41161.979167 L 21321.875 41053.90625 L 21358.072917 40909.895833 L 21394.010417 40838.020833 L 21465.885417 40765.885417 L 21573.958333 40729.947917 L 21646.09375 40729.947917 L 21753.90625 40765.885417 L 21790.104167 40802.083333 " transform="matrix(0.015,0,0,0.015,0,0)"/>
<path style="fill:none;stroke-width:76;stroke-linecap:round;stroke-linejoin:round;stroke:rgb(0%,0%,0%);stroke-opacity:1;stroke-miterlimit:10;" d="M 22005.989583 40729.947917 L 22258.072917 41485.9375 L 22509.895833 40729.947917 " transform="matrix(0.015,0,0,0.015,0,0)"/>
<path style="fill:none;stroke-width:76;stroke-linecap:round;stroke-linejoin:round;stroke:rgb(0%,0%,0%);stroke-opacity:1;stroke-miterlimit:10;" d="M 23158.072917 41485.9375 L 22726.041667 41485.9375 " transform="matrix(0.015,0,0,0.015,0,0)"/>
<path style="fill:none;stroke-width:76;stroke-linecap:round;stroke-linejoin:round;stroke:rgb(0%,0%,0%);stroke-opacity:1;stroke-miterlimit:10;" d="M 22941.927083 41485.9375 L 22941.927083 40729.947917 L 22870.052083 40838.020833 L 22797.916667 40909.895833 L 22726.041667 40946.09375 " transform="matrix(0.015,0,0,0.015,0,0)"/>
<path style="fill:none;stroke-width:23;stroke-linecap:round;stroke-linejoin:round;stroke:rgb(0%,0%,0%);stroke-opacity:1;stroke-miterlimit:10;" d="M 20920.052083 39464.0625 L 20920.052083 38264.0625 " transform="matrix(0.015,0,0,0.015,0,0)"/>
<path style="fill:none;stroke-width:23;stroke-linecap:round;stroke-linejoin:round;stroke:rgb(0%,0%,0%);stroke-opacity:1;stroke-miterlimit:10;" d="M 21640.104167 40184.114583 L 20920.052083 39464.0625 " transform="matrix(0.015,0,0,0.015,0,0)"/>
<path style="fill:none;stroke-width:23;stroke-linecap:round;stroke-linejoin:round;stroke:rgb(0%,0%,0%);stroke-opacity:1;stroke-miterlimit:10;" d="M 22840.104167 40184.114583 L 21640.104167 40184.114583 " transform="matrix(0.015,0,0,0.015,0,0)"/>
<path style="fill:none;stroke-width:23;stroke-linecap:round;stroke-linejoin:round;stroke:rgb(0%,0%,0%);stroke-opacity:1;stroke-miterlimit:10;" d="M 23559.895833 39464.0625 L 22840.104167 40184.114583 " transform="matrix(0.015,0,0,0.015,0,0)"/>
<path style="fill:none;stroke-width:23;stroke-linecap:round;stroke-linejoin:round;stroke:rgb(0%,0%,0%);stroke-opacity:1;stroke-miterlimit:10;" d="M 23140.885417 44264.583333 C 23140.885417 44586.197917 22969.270833 44883.59375 22690.625 45044.270833 C 22412.239583 45205.208333 22068.75 45205.208333 21790.364583 45044.270833 C 21511.71875 44883.59375 21340.104167 44586.197917 21340.104167 44264.583333 C 21340.104167 43942.708333 21511.71875 43645.572917 21790.364583 43484.635417 C 22068.75 43323.697917 22412.239583 43323.697917 22690.625 43484.635417 C 22969.270833 43645.572917 23140.885417 43942.708333 23140.885417 44264.583333 Z M 23140.885417 44264.583333 " transform="matrix(0.015,0,0,0.015,0,0)"/>
<path style="fill:none;stroke-width:23;stroke-linecap:round;stroke-linejoin:round;stroke:rgb(0%,0%,0%);stroke-opacity:1;stroke-miterlimit:10;" d="M 23140.885417 38864.583333 C 23140.885417 39186.197917 22969.270833 39483.59375 22690.625 39644.270833 C 22412.239583 39805.208333 22068.75 39805.208333 21790.364583 39644.270833 C 21511.71875 39483.59375 21340.104167 39186.197917 21340.104167 38864.583333 C 21340.104167 38542.708333 21511.71875 38245.572917 21790.364583 38084.635417 C 22068.75 37923.697917 22412.239583 37923.697917 22690.625 38084.635417 C 22969.270833 38245.572917 23140.885417 38542.708333 23140.885417 38864.583333 Z M 23140.885417 38864.583333 " transform="matrix(0.015,0,0,0.015,0,0)"/>
<path style="fill:none;stroke-width:23;stroke-linecap:round;stroke-linejoin:round;stroke:rgb(0%,0%,0%);stroke-opacity:1;stroke-miterlimit:10;" d="M 18040.104167 45584.114583 L 16840.104167 45584.114583 " transform="matrix(0.015,0,0,0.015,0,0)"/>
<path style="fill:none;stroke-width:23;stroke-linecap:round;stroke-linejoin:round;stroke:rgb(0%,0%,0%);stroke-opacity:1;stroke-miterlimit:10;" d="M 18759.895833 43664.0625 L 18759.895833 44864.0625 " transform="matrix(0.015,0,0,0.015,0,0)"/>
<path style="fill:none;stroke-width:23;stroke-linecap:round;stroke-linejoin:round;stroke:rgb(0%,0%,0%);stroke-opacity:1;stroke-miterlimit:10;" d="M 18759.895833 44864.0625 L 18040.104167 45584.114583 " transform="matrix(0.015,0,0,0.015,0,0)"/>
<path style="fill:none;stroke-width:23;stroke-linecap:round;stroke-linejoin:round;stroke:rgb(0%,0%,0%);stroke-opacity:1;stroke-miterlimit:10;" d="M 16120.052083 44864.0625 L 16120.052083 43664.0625 " transform="matrix(0.015,0,0,0.015,0,0)"/>
<path style="fill:none;stroke-width:23;stroke-linecap:round;stroke-linejoin:round;stroke:rgb(0%,0%,0%);stroke-opacity:1;stroke-miterlimit:10;" d="M 18340.885417 44264.583333 C 18340.885417 44586.197917 18169.270833 44883.59375 17890.625 45044.270833 C 17612.239583 45205.208333 17268.75 45205.208333 16990.364583 45044.270833 C 16711.71875 44883.59375 16540.104167 44586.197917 16540.104167 44264.583333 C 16540.104167 43942.708333 16711.71875 43645.572917 16990.364583 43484.635417 C 17268.75 43323.697917 17612.239583 43323.697917 17890.625 43484.635417 C 18169.270833 43645.572917 18340.885417 43942.708333 18340.885417 44264.583333 Z M 18340.885417 44264.583333 " transform="matrix(0.015,0,0,0.015,0,0)"/>
<path style="fill:none;stroke-width:23;stroke-linecap:round;stroke-linejoin:round;stroke:rgb(0%,0%,0%);stroke-opacity:1;stroke-miterlimit:10;" d="M 13959.895833 39464.0625 L 13240.104167 40184.114583 " transform="matrix(0.015,0,0,0.015,0,0)"/>
<path style="fill:none;stroke-width:23;stroke-linecap:round;stroke-linejoin:round;stroke:rgb(0%,0%,0%);stroke-opacity:1;stroke-miterlimit:10;" d="M 13959.895833 38264.0625 L 13959.895833 39464.0625 " transform="matrix(0.015,0,0,0.015,0,0)"/>
<path style="fill:none;stroke-width:23;stroke-linecap:round;stroke-linejoin:round;stroke:rgb(0%,0%,0%);stroke-opacity:1;stroke-miterlimit:10;" d="M 13240.104167 37544.010417 L 13959.895833 38264.0625 " transform="matrix(0.015,0,0,0.015,0,0)"/>
<path style="fill:none;stroke-width:23;stroke-linecap:round;stroke-linejoin:round;stroke:rgb(0%,0%,0%);stroke-opacity:1;stroke-miterlimit:10;" d="M 12040.104167 37544.010417 L 13240.104167 37544.010417 " transform="matrix(0.015,0,0,0.015,0,0)"/>
<path style="fill:none;stroke-width:23;stroke-linecap:round;stroke-linejoin:round;stroke:rgb(0%,0%,0%);stroke-opacity:1;stroke-miterlimit:10;" d="M 14290.885417 38864.583333 C 14290.885417 39454.166667 13976.302083 39998.958333 13465.625 40293.75 C 12955.208333 40588.802083 12326.041667 40588.802083 11815.364583 40293.75 C 11304.6875 39998.958333 10990.104167 39454.166667 10990.104167 38864.583333 C 10990.104167 38274.739583 11304.6875 37729.947917 11815.364583 37435.15625 C 12326.041667 37140.364583 12955.208333 37140.364583 13465.625 37435.15625 C 13976.302083 37729.947917 14290.885417 38274.739583 14290.885417 38864.583333 Z M 14290.885417 38864.583333 " transform="matrix(0.015,0,0,0.015,0,0)"/>
<path style="fill:none;stroke-width:76;stroke-linecap:round;stroke-linejoin:round;stroke:rgb(0%,0%,0%);stroke-opacity:1;stroke-miterlimit:10;" d="M 23002.083333 7609.895833 L 23253.90625 8365.885417 L 23505.989583 7609.895833 " transform="matrix(0.015,0,0,0.015,0,0)"/>
<path style="fill:none;stroke-width:76;stroke-linecap:round;stroke-linejoin:round;stroke:rgb(0%,0%,0%);stroke-opacity:1;stroke-miterlimit:10;" d="M 24190.104167 8294.010417 L 24153.90625 8329.947917 L 24046.09375 8365.885417 L 23973.958333 8365.885417 L 23865.885417 8329.947917 L 23794.010417 8258.072917 L 23758.072917 8185.9375 L 23721.875 8041.927083 L 23721.875 7934.114583 L 23758.072917 7790.104167 L 23794.010417 7717.96875 L 23865.885417 7646.09375 L 23973.958333 7609.895833 L 24046.09375 7609.895833 L 24153.90625 7646.09375 L 24190.104167 7682.03125 " transform="matrix(0.015,0,0,0.015,0,0)"/>
<path style="fill:none;stroke-width:76;stroke-linecap:round;stroke-linejoin:round;stroke:rgb(0%,0%,0%);stroke-opacity:1;stroke-miterlimit:10;" d="M 24873.958333 8365.885417 L 24514.0625 8365.885417 L 24514.0625 7609.895833 " transform="matrix(0.015,0,0,0.015,0,0)"/>
<path style="fill:none;stroke-width:76;stroke-linecap:round;stroke-linejoin:round;stroke:rgb(0%,0%,0%);stroke-opacity:1;stroke-miterlimit:10;" d="M 25126.041667 8365.885417 L 25126.041667 7609.895833 L 25414.0625 7609.895833 L 25485.9375 7646.09375 L 25521.875 7682.03125 L 25558.072917 7753.90625 L 25558.072917 7861.979167 L 25521.875 7934.114583 L 25485.9375 7970.052083 L 25414.0625 8005.989583 L 25126.041667 8005.989583 " transform="matrix(0.015,0,0,0.015,0,0)"/>
<path style="fill:none;stroke-width:76;stroke-linecap:round;stroke-linejoin:round;stroke:rgb(0%,0%,0%);stroke-opacity:1;stroke-miterlimit:10;" d="M 26134.114583 7970.052083 L 25882.03125 7970.052083 " transform="matrix(0.015,0,0,0.015,0,0)"/>
<path style="fill:none;stroke-width:76;stroke-linecap:round;stroke-linejoin:round;stroke:rgb(0%,0%,0%);stroke-opacity:1;stroke-miterlimit:10;" d="M 25882.03125 8365.885417 L 25882.03125 7609.895833 L 26241.927083 7609.895833 " transform="matrix(0.015,0,0,0.015,0,0)"/>
<path style="fill:none;stroke-width:76;stroke-linecap:round;stroke-linejoin:round;stroke:rgb(0%,0%,0%);stroke-opacity:1;stroke-miterlimit:10;" d="M 23146.09375 15494.010417 L 23109.895833 15529.947917 L 23002.083333 15565.885417 L 22929.947917 15565.885417 L 22821.875 15529.947917 L 22750 15458.072917 L 22714.0625 15385.9375 L 22678.125 15241.927083 L 22678.125 15134.114583 L 22714.0625 14990.104167 L 22750 14917.96875 L 22821.875 14846.09375 L 22929.947917 14809.895833 L 23002.083333 14809.895833 L 23109.895833 14846.09375 L 23146.09375 14882.03125 " transform="matrix(0.015,0,0,0.015,0,0)"/>
<path style="fill:none;stroke-width:76;stroke-linecap:round;stroke-linejoin:round;stroke:rgb(0%,0%,0%);stroke-opacity:1;stroke-miterlimit:10;" d="M 23470.052083 14809.895833 L 23470.052083 15421.875 L 23505.989583 15494.010417 L 23541.927083 15529.947917 L 23614.0625 15565.885417 L 23758.072917 15565.885417 L 23829.947917 15529.947917 L 23865.885417 15494.010417 L 23902.083333 15421.875 L 23902.083333 14809.895833 " transform="matrix(0.015,0,0,0.015,0,0)"/>
<path style="fill:none;stroke-width:76;stroke-linecap:round;stroke-linejoin:round;stroke:rgb(0%,0%,0%);stroke-opacity:1;stroke-miterlimit:10;" d="M 24153.90625 14809.895833 L 24585.9375 14809.895833 " transform="matrix(0.015,0,0,0.015,0,0)"/>
<path style="fill:none;stroke-width:76;stroke-linecap:round;stroke-linejoin:round;stroke:rgb(0%,0%,0%);stroke-opacity:1;stroke-miterlimit:10;" d="M 24370.052083 15565.885417 L 24370.052083 14809.895833 " transform="matrix(0.015,0,0,0.015,0,0)"/>
<path style="fill:none;stroke-width:76;stroke-linecap:round;stroke-linejoin:round;stroke:rgb(0%,0%,0%);stroke-opacity:1;stroke-miterlimit:10;" d="M 24982.03125 14809.895833 L 25126.041667 14809.895833 L 25197.916667 14846.09375 L 25270.052083 14917.96875 L 25305.989583 15061.979167 L 25305.989583 15314.0625 L 25270.052083 15458.072917 L 25197.916667 15529.947917 L 25126.041667 15565.885417 L 24982.03125 15565.885417 L 24909.895833 15529.947917 L 24838.020833 15458.072917 L 24802.083333 15314.0625 L 24802.083333 15061.979167 L 24838.020833 14917.96875 L 24909.895833 14846.09375 L 24982.03125 14809.895833 " transform="matrix(0.015,0,0,0.015,0,0)"/>
<path style="fill:none;stroke-width:76;stroke-linecap:round;stroke-linejoin:round;stroke:rgb(0%,0%,0%);stroke-opacity:1;stroke-miterlimit:10;" d="M 25882.03125 15170.052083 L 25629.947917 15170.052083 " transform="matrix(0.015,0,0,0.015,0,0)"/>
<path style="fill:none;stroke-width:76;stroke-linecap:round;stroke-linejoin:round;stroke:rgb(0%,0%,0%);stroke-opacity:1;stroke-miterlimit:10;" d="M 25629.947917 15565.885417 L 25629.947917 14809.895833 L 25990.104167 14809.895833 " transform="matrix(0.015,0,0,0.015,0,0)"/>
<path style="fill:none;stroke-width:76;stroke-linecap:round;stroke-linejoin:round;stroke:rgb(0%,0%,0%);stroke-opacity:1;stroke-miterlimit:10;" d="M 26529.947917 15170.052083 L 26278.125 15170.052083 " transform="matrix(0.015,0,0,0.015,0,0)"/>
<path style="fill:none;stroke-width:76;stroke-linecap:round;stroke-linejoin:round;stroke:rgb(0%,0%,0%);stroke-opacity:1;stroke-miterlimit:10;" d="M 26278.125 15565.885417 L 26278.125 14809.895833 L 26638.020833 14809.895833 " transform="matrix(0.015,0,0,0.015,0,0)"/>
<path style="fill:none;stroke-width:23;stroke-linecap:round;stroke-linejoin:round;stroke:rgb(0%,0%,0%);stroke-opacity:1;stroke-miterlimit:10;" d="M 23890.104167 13163.020833 L 23320.052083 14023.958333 " transform="matrix(0.015,0,0,0.015,0,0)"/>
<path style="fill:none;stroke-width:9;stroke-linecap:round;stroke-linejoin:round;stroke:rgb(0%,0%,0%);stroke-opacity:1;stroke-miterlimit:10;" d="M 26140.885417 11864.583333 C 26140.885417 12400.520833 25854.947917 12895.833333 25390.625 13164.0625 C 24926.5625 13432.03125 24354.427083 13432.03125 23890.364583 13164.0625 C 23426.041667 12895.833333 23140.104167 12400.520833 23140.104167 11864.583333 C 23140.104167 11328.385417 23426.041667 10833.072917 23890.364583 10565.104167 C 24354.427083 10296.875 24926.5625 10296.875 25390.625 10565.104167 C 25854.947917 10833.072917 26140.885417 11328.385417 26140.885417 11864.583333 Z M 26140.885417 11864.583333 " transform="matrix(0.015,0,0,0.015,0,0)"/>
<path style="fill:none;stroke-width:9;stroke-linecap:round;stroke-linejoin:round;stroke:rgb(0%,0%,0%);stroke-opacity:1;stroke-miterlimit:10;" d="M 27190.885417 11864.583333 C 27190.885417 12775.78125 26704.947917 13617.708333 25915.625 14073.177083 C 25126.5625 14528.90625 24154.427083 14528.90625 23365.364583 14073.177083 C 22576.041667 13617.708333 22090.104167 12775.78125 22090.104167 11864.583333 C 22090.104167 10953.385417 22576.041667 10111.197917 23365.364583 9655.729167 C 24154.427083 9200 25126.5625 9200 25915.625 9655.729167 C 26704.947917 10111.197917 27190.885417 10953.385417 27190.885417 11864.583333 Z M 27190.885417 11864.583333 " transform="matrix(0.015,0,0,0.015,0,0)"/>
<path style="fill:none;stroke-width:23;stroke-linecap:round;stroke-linejoin:round;stroke:rgb(0%,0%,0%);stroke-opacity:1;stroke-miterlimit:10;" d="M 19840.104167 7064.0625 L 19840.104167 49064.0625 " transform="matrix(0.015,0,0,0.015,0,0)"/>
<path style="fill:none;stroke-width:76;stroke-linecap:round;stroke-linejoin:round;stroke:rgb(0%,0%,0%);stroke-opacity:1;stroke-miterlimit:10;" d="M 24190.104167 29894.010417 L 24153.90625 29929.947917 L 24046.09375 29965.885417 L 23973.958333 29965.885417 L 23865.885417 29929.947917 L 23794.010417 29858.072917 L 23758.072917 29785.9375 L 23721.875 29641.927083 L 23721.875 29534.114583 L 23758.072917 29390.104167 L 23794.010417 29317.96875 L 23865.885417 29246.09375 L 23973.958333 29209.895833 L 24046.09375 29209.895833 L 24153.90625 29246.09375 L 24190.104167 29282.03125 " transform="matrix(0.015,0,0,0.015,0,0)"/>
<path style="fill:none;stroke-width:76;stroke-linecap:round;stroke-linejoin:round;stroke:rgb(0%,0%,0%);stroke-opacity:1;stroke-miterlimit:10;" d="M 24405.989583 29209.895833 L 24658.072917 29965.885417 L 24909.895833 29209.895833 " transform="matrix(0.015,0,0,0.015,0,0)"/>
<path style="fill:none;stroke-width:76;stroke-linecap:round;stroke-linejoin:round;stroke:rgb(0%,0%,0%);stroke-opacity:1;stroke-miterlimit:10;" d="M 25558.072917 29965.885417 L 25126.041667 29965.885417 " transform="matrix(0.015,0,0,0.015,0,0)"/>
<path style="fill:none;stroke-width:76;stroke-linecap:round;stroke-linejoin:round;stroke:rgb(0%,0%,0%);stroke-opacity:1;stroke-miterlimit:10;" d="M 25341.927083 29965.885417 L 25341.927083 29209.895833 L 25270.052083 29317.96875 L 25197.916667 29390.104167 L 25126.041667 29426.041667 " transform="matrix(0.015,0,0,0.015,0,0)"/>
<path style="fill:none;stroke-width:23;stroke-linecap:round;stroke-linejoin:round;stroke:rgb(0%,0%,0%);stroke-opacity:1;stroke-miterlimit:10;" d="M 22840.104167 37544.010417 L 23559.895833 38264.0625 " transform="matrix(0.015,0,0,0.015,0,0)"/>
<path style="fill:none;stroke-width:23;stroke-linecap:round;stroke-linejoin:round;stroke:rgb(0%,0%,0%);stroke-opacity:1;stroke-miterlimit:10;" d="M 23890.885417 38864.583333 C 23890.885417 39454.166667 23576.302083 39998.958333 23065.625 40293.75 C 22555.208333 40588.802083 21926.041667 40588.802083 21415.364583 40293.75 C 20904.6875 39998.958333 20590.104167 39454.166667 20590.104167 38864.583333 C 20590.104167 38274.739583 20904.6875 37729.947917 21415.364583 37435.15625 C 21926.041667 37140.364583 22555.208333 37140.364583 23065.625 37435.15625 C 23576.302083 37729.947917 23890.885417 38274.739583 23890.885417 38864.583333 Z M 23890.885417 38864.583333 " transform="matrix(0.015,0,0,0.015,0,0)"/>
<path style="fill:none;stroke-width:9;stroke-linecap:round;stroke-linejoin:round;stroke:rgb(0%,0%,0%);stroke-opacity:1;stroke-miterlimit:10;" d="M 27190.885417 26264.583333 C 27190.885417 27175.78125 26704.947917 28017.708333 25915.625 28473.177083 C 25126.5625 28928.90625 24154.427083 28928.90625 23365.364583 28473.177083 C 22576.041667 28017.708333 22090.104167 27175.78125 22090.104167 26264.583333 C 22090.104167 25353.385417 22576.041667 24511.197917 23365.364583 24055.729167 C 24154.427083 23600 25126.5625 23600 25915.625 24055.729167 C 26704.947917 24511.197917 27190.885417 25353.385417 27190.885417 26264.583333 Z M 27190.885417 26264.583333 " transform="matrix(0.015,0,0,0.015,0,0)"/>
<path style="fill:none;stroke-width:76;stroke-linecap:round;stroke-linejoin:round;stroke:rgb(0%,0%,0%);stroke-opacity:1;stroke-miterlimit:10;" d="M 12628.125 22370.052083 L 12376.041667 22370.052083 " transform="matrix(0.015,0,0,0.015,0,0)"/>
<path style="fill:none;stroke-width:76;stroke-linecap:round;stroke-linejoin:round;stroke:rgb(0%,0%,0%);stroke-opacity:1;stroke-miterlimit:10;" d="M 12376.041667 22765.885417 L 12376.041667 22009.895833 L 12735.9375 22009.895833 " transform="matrix(0.015,0,0,0.015,0,0)"/>
<path style="fill:none;stroke-width:76;stroke-linecap:round;stroke-linejoin:round;stroke:rgb(0%,0%,0%);stroke-opacity:1;stroke-miterlimit:10;" d="M 13023.958333 22370.052083 L 13276.041667 22370.052083 " transform="matrix(0.015,0,0,0.015,0,0)"/>
<path style="fill:none;stroke-width:76;stroke-linecap:round;stroke-linejoin:round;stroke:rgb(0%,0%,0%);stroke-opacity:1;stroke-miterlimit:10;" d="M 13384.114583 22765.885417 L 13023.958333 22765.885417 L 13023.958333 22009.895833 L 13384.114583 22009.895833 " transform="matrix(0.015,0,0,0.015,0,0)"/>
<path style="fill:none;stroke-width:76;stroke-linecap:round;stroke-linejoin:round;stroke:rgb(0%,0%,0%);stroke-opacity:1;stroke-miterlimit:10;" d="M 13708.072917 22370.052083 L 13959.895833 22370.052083 " transform="matrix(0.015,0,0,0.015,0,0)"/>
<path style="fill:none;stroke-width:76;stroke-linecap:round;stroke-linejoin:round;stroke:rgb(0%,0%,0%);stroke-opacity:1;stroke-miterlimit:10;" d="M 14067.96875 22765.885417 L 13708.072917 22765.885417 L 13708.072917 22009.895833 L 14067.96875 22009.895833 " transform="matrix(0.015,0,0,0.015,0,0)"/>
<path style="fill:none;stroke-width:76;stroke-linecap:round;stroke-linejoin:round;stroke:rgb(0%,0%,0%);stroke-opacity:1;stroke-miterlimit:10;" d="M 14391.927083 22765.885417 L 14391.927083 22009.895833 L 14571.875 22009.895833 L 14679.947917 22046.09375 L 14752.083333 22117.96875 L 14788.020833 22190.104167 L 14823.958333 22334.114583 L 14823.958333 22441.927083 L 14788.020833 22585.9375 L 14752.083333 22658.072917 L 14679.947917 22729.947917 L 14571.875 22765.885417 L 14391.927083 22765.885417 " transform="matrix(0.015,0,0,0.015,0,0)"/>
<path style="fill:none;stroke-width:76;stroke-linecap:round;stroke-linejoin:round;stroke:rgb(0%,0%,0%);stroke-opacity:1;stroke-miterlimit:10;" d="M 15400 22370.052083 L 15508.072917 22405.989583 L 15544.010417 22441.927083 L 15579.947917 22514.0625 L 15579.947917 22621.875 L 15544.010417 22694.010417 L 15508.072917 22729.947917 L 15435.9375 22765.885417 L 15147.916667 22765.885417 L 15147.916667 22009.895833 L 15400 22009.895833 L 15471.875 22046.09375 L 15508.072917 22082.03125 L 15544.010417 22153.90625 L 15544.010417 22226.041667 L 15508.072917 22297.916667 L 15471.875 22334.114583 L 15400 22370.052083 L 15147.916667 22370.052083 " transform="matrix(0.015,0,0,0.015,0,0)"/>
<path style="fill:none;stroke-width:76;stroke-linecap:round;stroke-linejoin:round;stroke:rgb(0%,0%,0%);stroke-opacity:1;stroke-miterlimit:10;" d="M 15867.96875 22550 L 16228.125 22550 " transform="matrix(0.015,0,0,0.015,0,0)"/>
<path style="fill:none;stroke-width:76;stroke-linecap:round;stroke-linejoin:round;stroke:rgb(0%,0%,0%);stroke-opacity:1;stroke-miterlimit:10;" d="M 15796.09375 22765.885417 L 16047.916667 22009.895833 L 16300 22765.885417 " transform="matrix(0.015,0,0,0.015,0,0)"/>
<path style="fill:none;stroke-width:76;stroke-linecap:round;stroke-linejoin:round;stroke:rgb(0%,0%,0%);stroke-opacity:1;stroke-miterlimit:10;" d="M 16984.114583 22694.010417 L 16947.916667 22729.947917 L 16840.104167 22765.885417 L 16767.96875 22765.885417 L 16659.895833 22729.947917 L 16588.020833 22658.072917 L 16552.083333 22585.9375 L 16515.885417 22441.927083 L 16515.885417 22334.114583 L 16552.083333 22190.104167 L 16588.020833 22117.96875 L 16659.895833 22046.09375 L 16767.96875 22009.895833 L 16840.104167 22009.895833 L 16947.916667 22046.09375 L 16984.114583 22082.03125 " transform="matrix(0.015,0,0,0.015,0,0)"/>
<path style="fill:none;stroke-width:76;stroke-linecap:round;stroke-linejoin:round;stroke:rgb(0%,0%,0%);stroke-opacity:1;stroke-miterlimit:10;" d="M 17308.072917 22765.885417 L 17308.072917 22009.895833 " transform="matrix(0.015,0,0,0.015,0,0)"/>
<path style="fill:none;stroke-width:76;stroke-linecap:round;stroke-linejoin:round;stroke:rgb(0%,0%,0%);stroke-opacity:1;stroke-miterlimit:10;" d="M 17740.104167 22765.885417 L 17415.885417 22334.114583 " transform="matrix(0.015,0,0,0.015,0,0)"/>
<path style="fill:none;stroke-width:76;stroke-linecap:round;stroke-linejoin:round;stroke:rgb(0%,0%,0%);stroke-opacity:1;stroke-miterlimit:10;" d="M 17740.104167 22009.895833 L 17308.072917 22441.927083 " transform="matrix(0.015,0,0,0.015,0,0)"/>
<path style="fill:none;stroke-width:23;stroke-linecap:round;stroke-linejoin:round;stroke:rgb(0%,0%,0%);stroke-opacity:1;stroke-miterlimit:10;" d="M 14290.104167 20363.020833 L 13720.052083 21223.958333 " transform="matrix(0.015,0,0,0.015,0,0)"/>
<path style="fill:none;stroke-width:9;stroke-linecap:round;stroke-linejoin:round;stroke:rgb(0%,0%,0%);stroke-opacity:1;stroke-miterlimit:10;" d="M 16540.885417 19064.583333 C 16540.885417 19600.520833 16254.947917 20095.833333 15790.625 20364.0625 C 15326.5625 20632.03125 14754.427083 20632.03125 14290.364583 20364.0625 C 13826.041667 20095.833333 13540.104167 19600.520833 13540.104167 19064.583333 C 13540.104167 18528.385417 13826.041667 18033.072917 14290.364583 17765.104167 C 14754.427083 17496.875 15326.5625 17496.875 15790.625 17765.104167 C 16254.947917 18033.072917 16540.885417 18528.385417 16540.885417 19064.583333 Z M 16540.885417 19064.583333 " transform="matrix(0.015,0,0,0.015,0,0)"/>
<path style="fill:none;stroke-width:9;stroke-linecap:round;stroke-linejoin:round;stroke:rgb(0%,0%,0%);stroke-opacity:1;stroke-miterlimit:10;" d="M 17590.885417 19064.583333 C 17590.885417 19975.78125 17104.947917 20817.708333 16315.625 21273.177083 C 15526.5625 21728.90625 14554.427083 21728.90625 13765.364583 21273.177083 C 12976.041667 20817.708333 12490.104167 19975.78125 12490.104167 19064.583333 C 12490.104167 18153.385417 12976.041667 17311.197917 13765.364583 16855.729167 C 14554.427083 16400 15526.5625 16400 16315.625 16855.729167 C 17104.947917 17311.197917 17590.885417 18153.385417 17590.885417 19064.583333 Z M 17590.885417 19064.583333 " transform="matrix(0.015,0,0,0.015,0,0)"/>
<path style="fill:none;stroke-width:76;stroke-linecap:round;stroke-linejoin:round;stroke:rgb(0%,0%,0%);stroke-opacity:1;stroke-miterlimit:10;" d="M 13546.09375 15494.010417 L 13509.895833 15529.947917 L 13402.083333 15565.885417 L 13329.947917 15565.885417 L 13221.875 15529.947917 L 13150 15458.072917 L 13114.0625 15385.9375 L 13078.125 15241.927083 L 13078.125 15134.114583 L 13114.0625 14990.104167 L 13150 14917.96875 L 13221.875 14846.09375 L 13329.947917 14809.895833 L 13402.083333 14809.895833 L 13509.895833 14846.09375 L 13546.09375 14882.03125 " transform="matrix(0.015,0,0,0.015,0,0)"/>
<path style="fill:none;stroke-width:76;stroke-linecap:round;stroke-linejoin:round;stroke:rgb(0%,0%,0%);stroke-opacity:1;stroke-miterlimit:10;" d="M 13870.052083 14809.895833 L 13870.052083 15421.875 L 13905.989583 15494.010417 L 13941.927083 15529.947917 L 14014.0625 15565.885417 L 14158.072917 15565.885417 L 14229.947917 15529.947917 L 14265.885417 15494.010417 L 14302.083333 15421.875 L 14302.083333 14809.895833 " transform="matrix(0.015,0,0,0.015,0,0)"/>
<path style="fill:none;stroke-width:76;stroke-linecap:round;stroke-linejoin:round;stroke:rgb(0%,0%,0%);stroke-opacity:1;stroke-miterlimit:10;" d="M 14553.90625 14809.895833 L 14985.9375 14809.895833 " transform="matrix(0.015,0,0,0.015,0,0)"/>
<path style="fill:none;stroke-width:76;stroke-linecap:round;stroke-linejoin:round;stroke:rgb(0%,0%,0%);stroke-opacity:1;stroke-miterlimit:10;" d="M 14770.052083 15565.885417 L 14770.052083 14809.895833 " transform="matrix(0.015,0,0,0.015,0,0)"/>
<path style="fill:none;stroke-width:76;stroke-linecap:round;stroke-linejoin:round;stroke:rgb(0%,0%,0%);stroke-opacity:1;stroke-miterlimit:10;" d="M 15382.03125 14809.895833 L 15526.041667 14809.895833 L 15597.916667 14846.09375 L 15670.052083 14917.96875 L 15705.989583 15061.979167 L 15705.989583 15314.0625 L 15670.052083 15458.072917 L 15597.916667 15529.947917 L 15526.041667 15565.885417 L 15382.03125 15565.885417 L 15309.895833 15529.947917 L 15238.020833 15458.072917 L 15202.083333 15314.0625 L 15202.083333 15061.979167 L 15238.020833 14917.96875 L 15309.895833 14846.09375 L 15382.03125 14809.895833 " transform="matrix(0.015,0,0,0.015,0,0)"/>
<path style="fill:none;stroke-width:76;stroke-linecap:round;stroke-linejoin:round;stroke:rgb(0%,0%,0%);stroke-opacity:1;stroke-miterlimit:10;" d="M 16282.03125 15170.052083 L 16029.947917 15170.052083 " transform="matrix(0.015,0,0,0.015,0,0)"/>
<path style="fill:none;stroke-width:76;stroke-linecap:round;stroke-linejoin:round;stroke:rgb(0%,0%,0%);stroke-opacity:1;stroke-miterlimit:10;" d="M 16029.947917 15565.885417 L 16029.947917 14809.895833 L 16390.104167 14809.895833 " transform="matrix(0.015,0,0,0.015,0,0)"/>
<path style="fill:none;stroke-width:76;stroke-linecap:round;stroke-linejoin:round;stroke:rgb(0%,0%,0%);stroke-opacity:1;stroke-miterlimit:10;" d="M 16929.947917 15170.052083 L 16678.125 15170.052083 " transform="matrix(0.015,0,0,0.015,0,0)"/>
<path style="fill:none;stroke-width:76;stroke-linecap:round;stroke-linejoin:round;stroke:rgb(0%,0%,0%);stroke-opacity:1;stroke-miterlimit:10;" d="M 16678.125 15565.885417 L 16678.125 14809.895833 L 17038.020833 14809.895833 " transform="matrix(0.015,0,0,0.015,0,0)"/>
<path style="fill:none;stroke-width:76;stroke-linecap:round;stroke-linejoin:round;stroke:rgb(0%,0%,0%);stroke-opacity:1;stroke-miterlimit:10;" d="M 13311.979167 7609.895833 L 13564.0625 8365.885417 L 13815.885417 7609.895833 " transform="matrix(0.015,0,0,0.015,0,0)"/>
<path style="fill:none;stroke-width:76;stroke-linecap:round;stroke-linejoin:round;stroke:rgb(0%,0%,0%);stroke-opacity:1;stroke-miterlimit:10;" d="M 14500 8294.010417 L 14464.0625 8329.947917 L 14355.989583 8365.885417 L 14284.114583 8365.885417 L 14176.041667 8329.947917 L 14103.90625 8258.072917 L 14067.96875 8185.9375 L 14032.03125 8041.927083 L 14032.03125 7934.114583 L 14067.96875 7790.104167 L 14103.90625 7717.96875 L 14176.041667 7646.09375 L 14284.114583 7609.895833 L 14355.989583 7609.895833 L 14464.0625 7646.09375 L 14500 7682.03125 " transform="matrix(0.015,0,0,0.015,0,0)"/>
<path style="fill:none;stroke-width:76;stroke-linecap:round;stroke-linejoin:round;stroke:rgb(0%,0%,0%);stroke-opacity:1;stroke-miterlimit:10;" d="M 14823.958333 8365.885417 L 14823.958333 7609.895833 " transform="matrix(0.015,0,0,0.015,0,0)"/>
<path style="fill:none;stroke-width:76;stroke-linecap:round;stroke-linejoin:round;stroke:rgb(0%,0%,0%);stroke-opacity:1;stroke-miterlimit:10;" d="M 14823.958333 7970.052083 L 15255.989583 7970.052083 " transform="matrix(0.015,0,0,0.015,0,0)"/>
<path style="fill:none;stroke-width:76;stroke-linecap:round;stroke-linejoin:round;stroke:rgb(0%,0%,0%);stroke-opacity:1;stroke-miterlimit:10;" d="M 15255.989583 8365.885417 L 15255.989583 7609.895833 " transform="matrix(0.015,0,0,0.015,0,0)"/>
<path style="fill:none;stroke-width:76;stroke-linecap:round;stroke-linejoin:round;stroke:rgb(0%,0%,0%);stroke-opacity:1;stroke-miterlimit:10;" d="M 15615.885417 8365.885417 L 15615.885417 7609.895833 L 15903.90625 7609.895833 L 15976.041667 7646.09375 L 16011.979167 7682.03125 L 16047.916667 7753.90625 L 16047.916667 7861.979167 L 16011.979167 7934.114583 L 15976.041667 7970.052083 L 15903.90625 8005.989583 L 15615.885417 8005.989583 " transform="matrix(0.015,0,0,0.015,0,0)"/>
<path style="fill:none;stroke-width:76;stroke-linecap:round;stroke-linejoin:round;stroke:rgb(0%,0%,0%);stroke-opacity:1;stroke-miterlimit:10;" d="M 16623.958333 7970.052083 L 16371.875 7970.052083 " transform="matrix(0.015,0,0,0.015,0,0)"/>
<path style="fill:none;stroke-width:76;stroke-linecap:round;stroke-linejoin:round;stroke:rgb(0%,0%,0%);stroke-opacity:1;stroke-miterlimit:10;" d="M 16371.875 8365.885417 L 16371.875 7609.895833 L 16732.03125 7609.895833 " transform="matrix(0.015,0,0,0.015,0,0)"/>
<path style="fill:none;stroke-width:23;stroke-linecap:round;stroke-linejoin:round;stroke:rgb(0%,0%,0%);stroke-opacity:1;stroke-miterlimit:10;" d="M 14290.104167 13163.020833 L 13720.052083 14023.958333 " transform="matrix(0.015,0,0,0.015,0,0)"/>
<path style="fill:none;stroke-width:9;stroke-linecap:round;stroke-linejoin:round;stroke:rgb(0%,0%,0%);stroke-opacity:1;stroke-miterlimit:10;" d="M 16540.885417 11864.583333 C 16540.885417 12400.520833 16254.947917 12895.833333 15790.625 13164.0625 C 15326.5625 13432.03125 14754.427083 13432.03125 14290.364583 13164.0625 C 13826.041667 12895.833333 13540.104167 12400.520833 13540.104167 11864.583333 C 13540.104167 11328.385417 13826.041667 10833.072917 14290.364583 10565.104167 C 14754.427083 10296.875 15326.5625 10296.875 15790.625 10565.104167 C 16254.947917 10833.072917 16540.885417 11328.385417 16540.885417 11864.583333 Z M 16540.885417 11864.583333 " transform="matrix(0.015,0,0,0.015,0,0)"/>
<path style="fill:none;stroke-width:9;stroke-linecap:round;stroke-linejoin:round;stroke:rgb(0%,0%,0%);stroke-opacity:1;stroke-miterlimit:10;" d="M 17590.885417 11864.583333 C 17590.885417 12775.78125 17104.947917 13617.708333 16315.625 14073.177083 C 15526.5625 14528.90625 14554.427083 14528.90625 13765.364583 14073.177083 C 12976.041667 13617.708333 12490.104167 12775.78125 12490.104167 11864.583333 C 12490.104167 10953.385417 12976.041667 10111.197917 13765.364583 9655.729167 C 14554.427083 9200 15526.5625 9200 16315.625 9655.729167 C 17104.947917 10111.197917 17590.885417 10953.385417 17590.885417 11864.583333 Z M 17590.885417 11864.583333 " transform="matrix(0.015,0,0,0.015,0,0)"/>
<path style="fill:none;stroke-width:76;stroke-linecap:round;stroke-linejoin:round;stroke:rgb(0%,0%,0%);stroke-opacity:1;stroke-miterlimit:10;" d="M 22228.125 22370.052083 L 21976.041667 22370.052083 " transform="matrix(0.015,0,0,0.015,0,0)"/>
<path style="fill:none;stroke-width:76;stroke-linecap:round;stroke-linejoin:round;stroke:rgb(0%,0%,0%);stroke-opacity:1;stroke-miterlimit:10;" d="M 21976.041667 22765.885417 L 21976.041667 22009.895833 L 22335.9375 22009.895833 " transform="matrix(0.015,0,0,0.015,0,0)"/>
<path style="fill:none;stroke-width:76;stroke-linecap:round;stroke-linejoin:round;stroke:rgb(0%,0%,0%);stroke-opacity:1;stroke-miterlimit:10;" d="M 22623.958333 22370.052083 L 22876.041667 22370.052083 " transform="matrix(0.015,0,0,0.015,0,0)"/>
<path style="fill:none;stroke-width:76;stroke-linecap:round;stroke-linejoin:round;stroke:rgb(0%,0%,0%);stroke-opacity:1;stroke-miterlimit:10;" d="M 22984.114583 22765.885417 L 22623.958333 22765.885417 L 22623.958333 22009.895833 L 22984.114583 22009.895833 " transform="matrix(0.015,0,0,0.015,0,0)"/>
<path style="fill:none;stroke-width:76;stroke-linecap:round;stroke-linejoin:round;stroke:rgb(0%,0%,0%);stroke-opacity:1;stroke-miterlimit:10;" d="M 23308.072917 22370.052083 L 23559.895833 22370.052083 " transform="matrix(0.015,0,0,0.015,0,0)"/>
<path style="fill:none;stroke-width:76;stroke-linecap:round;stroke-linejoin:round;stroke:rgb(0%,0%,0%);stroke-opacity:1;stroke-miterlimit:10;" d="M 23667.96875 22765.885417 L 23308.072917 22765.885417 L 23308.072917 22009.895833 L 23667.96875 22009.895833 " transform="matrix(0.015,0,0,0.015,0,0)"/>
<path style="fill:none;stroke-width:76;stroke-linecap:round;stroke-linejoin:round;stroke:rgb(0%,0%,0%);stroke-opacity:1;stroke-miterlimit:10;" d="M 23991.927083 22765.885417 L 23991.927083 22009.895833 L 24171.875 22009.895833 L 24279.947917 22046.09375 L 24352.083333 22117.96875 L 24388.020833 22190.104167 L 24423.958333 22334.114583 L 24423.958333 22441.927083 L 24388.020833 22585.9375 L 24352.083333 22658.072917 L 24279.947917 22729.947917 L 24171.875 22765.885417 L 23991.927083 22765.885417 " transform="matrix(0.015,0,0,0.015,0,0)"/>
<path style="fill:none;stroke-width:76;stroke-linecap:round;stroke-linejoin:round;stroke:rgb(0%,0%,0%);stroke-opacity:1;stroke-miterlimit:10;" d="M 25000 22370.052083 L 25108.072917 22405.989583 L 25144.010417 22441.927083 L 25179.947917 22514.0625 L 25179.947917 22621.875 L 25144.010417 22694.010417 L 25108.072917 22729.947917 L 25035.9375 22765.885417 L 24747.916667 22765.885417 L 24747.916667 22009.895833 L 25000 22009.895833 L 25071.875 22046.09375 L 25108.072917 22082.03125 L 25144.010417 22153.90625 L 25144.010417 22226.041667 L 25108.072917 22297.916667 L 25071.875 22334.114583 L 25000 22370.052083 L 24747.916667 22370.052083 " transform="matrix(0.015,0,0,0.015,0,0)"/>
<path style="fill:none;stroke-width:76;stroke-linecap:round;stroke-linejoin:round;stroke:rgb(0%,0%,0%);stroke-opacity:1;stroke-miterlimit:10;" d="M 25467.96875 22550 L 25828.125 22550 " transform="matrix(0.015,0,0,0.015,0,0)"/>
<path style="fill:none;stroke-width:76;stroke-linecap:round;stroke-linejoin:round;stroke:rgb(0%,0%,0%);stroke-opacity:1;stroke-miterlimit:10;" d="M 25396.09375 22765.885417 L 25647.916667 22009.895833 L 25900 22765.885417 " transform="matrix(0.015,0,0,0.015,0,0)"/>
<path style="fill:none;stroke-width:76;stroke-linecap:round;stroke-linejoin:round;stroke:rgb(0%,0%,0%);stroke-opacity:1;stroke-miterlimit:10;" d="M 26584.114583 22694.010417 L 26547.916667 22729.947917 L 26440.104167 22765.885417 L 26367.96875 22765.885417 L 26259.895833 22729.947917 L 26188.020833 22658.072917 L 26152.083333 22585.9375 L 26115.885417 22441.927083 L 26115.885417 22334.114583 L 26152.083333 22190.104167 L 26188.020833 22117.96875 L 26259.895833 22046.09375 L 26367.96875 22009.895833 L 26440.104167 22009.895833 L 26547.916667 22046.09375 L 26584.114583 22082.03125 " transform="matrix(0.015,0,0,0.015,0,0)"/>
<path style="fill:none;stroke-width:76;stroke-linecap:round;stroke-linejoin:round;stroke:rgb(0%,0%,0%);stroke-opacity:1;stroke-miterlimit:10;" d="M 26908.072917 22765.885417 L 26908.072917 22009.895833 " transform="matrix(0.015,0,0,0.015,0,0)"/>
<path style="fill:none;stroke-width:76;stroke-linecap:round;stroke-linejoin:round;stroke:rgb(0%,0%,0%);stroke-opacity:1;stroke-miterlimit:10;" d="M 27340.104167 22765.885417 L 27015.885417 22334.114583 " transform="matrix(0.015,0,0,0.015,0,0)"/>
<path style="fill:none;stroke-width:76;stroke-linecap:round;stroke-linejoin:round;stroke:rgb(0%,0%,0%);stroke-opacity:1;stroke-miterlimit:10;" d="M 27340.104167 22009.895833 L 26908.072917 22441.927083 " transform="matrix(0.015,0,0,0.015,0,0)"/>
<path style="fill:none;stroke-width:23;stroke-linecap:round;stroke-linejoin:round;stroke:rgb(0%,0%,0%);stroke-opacity:1;stroke-miterlimit:10;" d="M 23890.104167 20363.020833 L 23320.052083 21223.958333 " transform="matrix(0.015,0,0,0.015,0,0)"/>
<path style="fill:none;stroke-width:9;stroke-linecap:round;stroke-linejoin:round;stroke:rgb(0%,0%,0%);stroke-opacity:1;stroke-miterlimit:10;" d="M 26140.885417 19064.583333 C 26140.885417 19600.520833 25854.947917 20095.833333 25390.625 20364.0625 C 24926.5625 20632.03125 24354.427083 20632.03125 23890.364583 20364.0625 C 23426.041667 20095.833333 23140.104167 19600.520833 23140.104167 19064.583333 C 23140.104167 18528.385417 23426.041667 18033.072917 23890.364583 17765.104167 C 24354.427083 17496.875 24926.5625 17496.875 25390.625 17765.104167 C 25854.947917 18033.072917 26140.885417 18528.385417 26140.885417 19064.583333 Z M 26140.885417 19064.583333 " transform="matrix(0.015,0,0,0.015,0,0)"/>
<path style="fill:none;stroke-width:9;stroke-linecap:round;stroke-linejoin:round;stroke:rgb(0%,0%,0%);stroke-opacity:1;stroke-miterlimit:10;" d="M 27190.885417 19064.583333 C 27190.885417 19975.78125 26704.947917 20817.708333 25915.625 21273.177083 C 25126.5625 21728.90625 24154.427083 21728.90625 23365.364583 21273.177083 C 22576.041667 20817.708333 22090.104167 19975.78125 22090.104167 19064.583333 C 22090.104167 18153.385417 22576.041667 17311.197917 23365.364583 16855.729167 C 24154.427083 16400 25126.5625 16400 25915.625 16855.729167 C 26704.947917 17311.197917 27190.885417 18153.385417 27190.885417 19064.583333 Z M 27190.885417 19064.583333 " transform="matrix(0.015,0,0,0.015,0,0)"/>
</g>
</svg>
