<?xml version="1.0" encoding="UTF-8"?>
<svg xmlns="http://www.w3.org/2000/svg" xmlns:xlink="http://www.w3.org/1999/xlink" width="595.275591pt" height="841.889764pt" viewBox="0 0 595.275591 841.889764" version="1.2">
<g id="surface10875">
<rect x="0" y="0" width="595.275591" height="841.889764" style="fill:rgb(100%,100%,100%);fill-opacity:1;stroke:none;"/>
<path style="fill:none;stroke-width:9;stroke-linecap:round;stroke-linejoin:round;stroke:rgb(0%,0%,0%);stroke-opacity:1;stroke-miterlimit:10;" d="M 29440.885417 47864.583333 C 29440.885417 48079.166667 29326.5625 48277.34375 29140.625 48384.635417 C 28954.947917 48491.927083 28726.041667 48491.927083 28540.364583 48384.635417 C 28354.427083 48277.34375 28240.104167 48079.166667 28240.104167 47864.583333 C 28240.104167 47650 28354.427083 47451.822917 28540.364583 47344.53125 C 28726.041667 47237.239583 28954.947917 47237.239583 29140.625 47344.53125 C 29326.5625 47451.822917 29440.885417 47650 29440.885417 47864.583333 Z M 29440.885417 47864.583333 " transform="matrix(0.015,0,0,0.015,0,0)"/>
<path style="fill:none;stroke-width:9;stroke-linecap:round;stroke-linejoin:round;stroke:rgb(0%,0%,0%);stroke-opacity:1;stroke-miterlimit:10;" d="M 11440.885417 8264.583333 C 11440.885417 8479.166667 11326.5625 8677.34375 11140.625 8784.635417 C 10954.947917 8891.927083 10726.041667 8891.927083 10540.364583 8784.635417 C 10354.427083 8677.34375 10240.104167 8479.166667 10240.104167 8264.583333 C 10240.104167 8050 10354.427083 7851.822917 10540.364583 7744.53125 C 10726.041667 7637.239583 10954.947917 7637.239583 11140.625 7744.53125 C 11326.5625 7851.822917 11440.885417 8050 11440.885417 8264.583333 Z M 11440.885417 8264.583333 " transform="matrix(0.015,0,0,0.015,0,0)"/>
<path style="fill:none;stroke-width:9;stroke-linecap:round;stroke-linejoin:round;stroke:rgb(0%,0%,0%);stroke-opacity:1;stroke-miterlimit:10;" d="M 30040.104167 7064.0625 L 30040.104167 49064.0625 " transform="matrix(0.015,0,0,0.015,0,0)"/>
<path style="fill:none;stroke-width:9;stroke-linecap:round;stroke-linejoin:round;stroke:rgb(0%,0%,0%);stroke-opacity:1;stroke-miterlimit:10;" d="M 9640.104167 49064.0625 L 30040.104167 49064.0625 " transform="matrix(0.015,0,0,0.015,0,0)"/>
<path style="fill:none;stroke-width:9;stroke-linecap:round;stroke-linejoin:round;stroke:rgb(0%,0%,0%);stroke-opacity:1;stroke-miterlimit:10;" d="M 9640.104167 7064.0625 L 9640.104167 49064.0625 " transform="matrix(0.015,0,0,0.015,0,0)"/>
<path style="fill:none;stroke-width:9;stroke-linecap:round;stroke-linejoin:round;stroke:rgb(0%,0%,0%);stroke-opacity:1;stroke-miterlimit:10;" d="M 9640.104167 7064.0625 L 30040.104167 7064.0625 " transform="matrix(0.015,0,0,0.015,0,0)"/>
<path style="fill:none;stroke-width:23;stroke-linecap:round;stroke-linejoin:round;stroke:rgb(0%,0%,0%);stroke-opacity:1;stroke-miterlimit:10;" d="M 19240.104167 23023.958333 L 20440.104167 23023.958333 " transform="matrix(0.015,0,0,0.015,0,0)"/>
<path style="fill:none;stroke-width:23;stroke-linecap:round;stroke-linejoin:round;stroke:rgb(0%,0%,0%);stroke-opacity:1;stroke-miterlimit:10;" d="M 18520.052083 24944.010417 L 18520.052083 23744.010417 " transform="matrix(0.015,0,0,0.015,0,0)"/>
<path style="fill:none;stroke-width:23;stroke-linecap:round;stroke-linejoin:round;stroke:rgb(0%,0%,0%);stroke-opacity:1;stroke-miterlimit:10;" d="M 21159.895833 24944.010417 L 20440.104167 25664.0625 " transform="matrix(0.015,0,0,0.015,0,0)"/>
<path style="fill:none;stroke-width:23;stroke-linecap:round;stroke-linejoin:round;stroke:rgb(0%,0%,0%);stroke-opacity:1;stroke-miterlimit:10;" d="M 20440.104167 25664.0625 L 19240.104167 25664.0625 " transform="matrix(0.015,0,0,0.015,0,0)"/>
<path style="fill:none;stroke-width:23;stroke-linecap:round;stroke-linejoin:round;stroke:rgb(0%,0%,0%);stroke-opacity:1;stroke-miterlimit:10;" d="M 18520.052083 23744.010417 L 19240.104167 23023.958333 " transform="matrix(0.015,0,0,0.015,0,0)"/>
<path style="fill:none;stroke-width:76;stroke-linecap:round;stroke-linejoin:round;stroke:rgb(0%,0%,0%);stroke-opacity:1;stroke-miterlimit:10;" d="M 18796.09375 21685.9375 L 18796.09375 20929.947917 " transform="matrix(0.015,0,0,0.015,0,0)"/>
<path style="fill:none;stroke-width:76;stroke-linecap:round;stroke-linejoin:round;stroke:rgb(0%,0%,0%);stroke-opacity:1;stroke-miterlimit:10;" d="M 19155.989583 21685.9375 L 19155.989583 20929.947917 L 19588.020833 21685.9375 L 19588.020833 20929.947917 " transform="matrix(0.015,0,0,0.015,0,0)"/>
<path style="fill:none;stroke-width:76;stroke-linecap:round;stroke-linejoin:round;stroke:rgb(0%,0%,0%);stroke-opacity:1;stroke-miterlimit:10;" d="M 20488.020833 21002.083333 L 20523.958333 20965.885417 L 20596.09375 20929.947917 L 20776.041667 20929.947917 L 20847.916667 20965.885417 L 20884.114583 21002.083333 L 20920.052083 21073.958333 L 20920.052083 21146.09375 L 20884.114583 21253.90625 L 20452.083333 21685.9375 L 20920.052083 21685.9375 " transform="matrix(0.015,0,0,0.015,0,0)"/>
<path style="fill:none;stroke-width:23;stroke-linecap:round;stroke-linejoin:round;stroke:rgb(0%,0%,0%);stroke-opacity:1;stroke-miterlimit:10;" d="M 19240.104167 25664.0625 L 18520.052083 24944.010417 " transform="matrix(0.015,0,0,0.015,0,0)"/>
<path style="fill:none;stroke-width:23;stroke-linecap:round;stroke-linejoin:round;stroke:rgb(0%,0%,0%);stroke-opacity:1;stroke-miterlimit:10;" d="M 20740.885417 24344.53125 C 20740.885417 24666.145833 20569.270833 24963.541667 20290.625 25124.479167 C 20012.239583 25285.15625 19668.75 25285.15625 19390.364583 25124.479167 C 19111.71875 24963.541667 18940.104167 24666.145833 18940.104167 24344.53125 C 18940.104167 24022.65625 19111.71875 23725.520833 19390.364583 23564.583333 C 19668.75 23403.90625 20012.239583 23403.90625 20290.625 23564.583333 C 20569.270833 23725.520833 20740.885417 24022.65625 20740.885417 24344.53125 Z M 20740.885417 24344.53125 " transform="matrix(0.015,0,0,0.015,0,0)"/>
<path style="fill:none;stroke-width:76;stroke-linecap:round;stroke-linejoin:round;stroke:rgb(0%,0%,0%);stroke-opacity:1;stroke-miterlimit:10;" d="M 11596.09375 21685.9375 L 11596.09375 20929.947917 " transform="matrix(0.015,0,0,0.015,0,0)"/>
<path style="fill:none;stroke-width:76;stroke-linecap:round;stroke-linejoin:round;stroke:rgb(0%,0%,0%);stroke-opacity:1;stroke-miterlimit:10;" d="M 11955.989583 21685.9375 L 11955.989583 20929.947917 L 12388.020833 21685.9375 L 12388.020833 20929.947917 " transform="matrix(0.015,0,0,0.015,0,0)"/>
<path style="fill:none;stroke-width:76;stroke-linecap:round;stroke-linejoin:round;stroke:rgb(0%,0%,0%);stroke-opacity:1;stroke-miterlimit:10;" d="M 13720.052083 21685.9375 L 13288.020833 21685.9375 " transform="matrix(0.015,0,0,0.015,0,0)"/>
<path style="fill:none;stroke-width:76;stroke-linecap:round;stroke-linejoin:round;stroke:rgb(0%,0%,0%);stroke-opacity:1;stroke-miterlimit:10;" d="M 13503.90625 21685.9375 L 13503.90625 20929.947917 L 13432.03125 21038.020833 L 13359.895833 21109.895833 L 13288.020833 21146.09375 " transform="matrix(0.015,0,0,0.015,0,0)"/>
<path style="fill:none;stroke-width:23;stroke-linecap:round;stroke-linejoin:round;stroke:rgb(0%,0%,0%);stroke-opacity:1;stroke-miterlimit:10;" d="M 12040.104167 23023.958333 L 13240.104167 23023.958333 " transform="matrix(0.015,0,0,0.015,0,0)"/>
<path style="fill:none;stroke-width:23;stroke-linecap:round;stroke-linejoin:round;stroke:rgb(0%,0%,0%);stroke-opacity:1;stroke-miterlimit:10;" d="M 13240.104167 25664.0625 L 12040.104167 25664.0625 " transform="matrix(0.015,0,0,0.015,0,0)"/>
<path style="fill:none;stroke-width:23;stroke-linecap:round;stroke-linejoin:round;stroke:rgb(0%,0%,0%);stroke-opacity:1;stroke-miterlimit:10;" d="M 13240.104167 23023.958333 L 13959.895833 23744.010417 " transform="matrix(0.015,0,0,0.015,0,0)"/>
<path style="fill:none;stroke-width:23;stroke-linecap:round;stroke-linejoin:round;stroke:rgb(0%,0%,0%);stroke-opacity:1;stroke-miterlimit:10;" d="M 13540.885417 24344.53125 C 13540.885417 24666.145833 13369.270833 24963.541667 13090.625 25124.479167 C 12812.239583 25285.15625 12468.75 25285.15625 12190.364583 25124.479167 C 11911.71875 24963.541667 11740.104167 24666.145833 11740.104167 24344.53125 C 11740.104167 24022.65625 11911.71875 23725.520833 12190.364583 23564.583333 C 12468.75 23403.90625 12812.239583 23403.90625 13090.625 23564.583333 C 13369.270833 23725.520833 13540.885417 24022.65625 13540.885417 24344.53125 Z M 13540.885417 24344.53125 " transform="matrix(0.015,0,0,0.015,0,0)"/>
<path style="fill:none;stroke-width:23;stroke-linecap:round;stroke-linejoin:round;stroke:rgb(0%,0%,0%);stroke-opacity:1;stroke-miterlimit:10;" d="M 28690.885417 24344.53125 C 28690.885417 24934.114583 28376.302083 25479.166667 27865.625 25773.958333 C 27355.208333 26068.75 26726.041667 26068.75 26215.364583 25773.958333 C 25704.6875 25479.166667 25390.104167 24934.114583 25390.104167 24344.53125 C 25390.104167 23754.947917 25704.6875 23209.895833 26215.364583 22915.104167 C 26726.041667 22620.3125 27355.208333 22620.3125 27865.625 22915.104167 C 28376.302083 23209.895833 28690.885417 23754.947917 28690.885417 24344.53125 Z M 28690.885417 24344.53125 " transform="matrix(0.015,0,0,0.015,0,0)"/>
<path style="fill:none;stroke-width:76;stroke-linecap:round;stroke-linejoin:round;stroke:rgb(0%,0%,0%);stroke-opacity:1;stroke-miterlimit:10;" d="M 24952.083333 27085.9375 L 24952.083333 26329.947917 " transform="matrix(0.015,0,0,0.015,0,0)"/>
<path style="fill:none;stroke-width:76;stroke-linecap:round;stroke-linejoin:round;stroke:rgb(0%,0%,0%);stroke-opacity:1;stroke-miterlimit:10;" d="M 25311.979167 27085.9375 L 25311.979167 26329.947917 L 25744.010417 27085.9375 L 25744.010417 26329.947917 " transform="matrix(0.015,0,0,0.015,0,0)"/>
<path style="fill:none;stroke-width:76;stroke-linecap:round;stroke-linejoin:round;stroke:rgb(0%,0%,0%);stroke-opacity:1;stroke-miterlimit:10;" d="M 25996.09375 26329.947917 L 26247.916667 27085.9375 L 26500 26329.947917 " transform="matrix(0.015,0,0,0.015,0,0)"/>
<path style="fill:none;stroke-width:76;stroke-linecap:round;stroke-linejoin:round;stroke:rgb(0%,0%,0%);stroke-opacity:1;stroke-miterlimit:10;" d="M 27471.875 26329.947917 L 27615.885417 26329.947917 L 27688.020833 26365.885417 L 27759.895833 26438.020833 L 27796.09375 26582.03125 L 27796.09375 26834.114583 L 27759.895833 26978.125 L 27688.020833 27050 L 27615.885417 27085.9375 L 27471.875 27085.9375 L 27400 27050 L 27328.125 26978.125 L 27291.927083 26834.114583 L 27291.927083 26582.03125 L 27328.125 26438.020833 L 27400 26365.885417 L 27471.875 26329.947917 " transform="matrix(0.015,0,0,0.015,0,0)"/>
<path style="fill:none;stroke-width:76;stroke-linecap:round;stroke-linejoin:round;stroke:rgb(0%,0%,0%);stroke-opacity:1;stroke-miterlimit:10;" d="M 28120.052083 26329.947917 L 28120.052083 26941.927083 L 28155.989583 27014.0625 L 28191.927083 27050 L 28264.0625 27085.9375 L 28408.072917 27085.9375 L 28479.947917 27050 L 28515.885417 27014.0625 L 28552.083333 26941.927083 L 28552.083333 26329.947917 " transform="matrix(0.015,0,0,0.015,0,0)"/>
<path style="fill:none;stroke-width:76;stroke-linecap:round;stroke-linejoin:round;stroke:rgb(0%,0%,0%);stroke-opacity:1;stroke-miterlimit:10;" d="M 28803.90625 26329.947917 L 29235.9375 26329.947917 " transform="matrix(0.015,0,0,0.015,0,0)"/>
<path style="fill:none;stroke-width:76;stroke-linecap:round;stroke-linejoin:round;stroke:rgb(0%,0%,0%);stroke-opacity:1;stroke-miterlimit:10;" d="M 29020.052083 27085.9375 L 29020.052083 26329.947917 " transform="matrix(0.015,0,0,0.015,0,0)"/>
<path style="fill:none;stroke-width:23;stroke-linecap:round;stroke-linejoin:round;stroke:rgb(0%,0%,0%);stroke-opacity:1;stroke-miterlimit:10;" d="M 28359.895833 24944.010417 L 27640.104167 25664.0625 " transform="matrix(0.015,0,0,0.015,0,0)"/>
<path style="fill:none;stroke-width:23;stroke-linecap:round;stroke-linejoin:round;stroke:rgb(0%,0%,0%);stroke-opacity:1;stroke-miterlimit:10;" d="M 27640.104167 25664.0625 L 26440.104167 25664.0625 " transform="matrix(0.015,0,0,0.015,0,0)"/>
<path style="fill:none;stroke-width:23;stroke-linecap:round;stroke-linejoin:round;stroke:rgb(0%,0%,0%);stroke-opacity:1;stroke-miterlimit:10;" d="M 26440.104167 25664.0625 L 25720.052083 24944.010417 " transform="matrix(0.015,0,0,0.015,0,0)"/>
<path style="fill:none;stroke-width:23;stroke-linecap:round;stroke-linejoin:round;stroke:rgb(0%,0%,0%);stroke-opacity:1;stroke-miterlimit:10;" d="M 9640.104167 28064.0625 L 30040.104167 28064.0625 " transform="matrix(0.015,0,0,0.015,0,0)"/>
<path style="fill:none;stroke-width:23;stroke-linecap:round;stroke-linejoin:round;stroke:rgb(0%,0%,0%);stroke-opacity:1;stroke-miterlimit:10;" d="M 21159.895833 23744.010417 L 21159.895833 24944.010417 " transform="matrix(0.015,0,0,0.015,0,0)"/>
<path style="fill:none;stroke-width:23;stroke-linecap:round;stroke-linejoin:round;stroke:rgb(0%,0%,0%);stroke-opacity:1;stroke-miterlimit:10;" d="M 20440.104167 23023.958333 L 21159.895833 23744.010417 " transform="matrix(0.015,0,0,0.015,0,0)"/>
<path style="fill:none;stroke-width:23;stroke-linecap:round;stroke-linejoin:round;stroke:rgb(0%,0%,0%);stroke-opacity:1;stroke-miterlimit:10;" d="M 21490.885417 24344.53125 C 21490.885417 24934.114583 21176.302083 25479.166667 20665.625 25773.958333 C 20155.208333 26068.75 19526.041667 26068.75 19015.364583 25773.958333 C 18504.6875 25479.166667 18190.104167 24934.114583 18190.104167 24344.53125 C 18190.104167 23754.947917 18504.6875 23209.895833 19015.364583 22915.104167 C 19526.041667 22620.3125 20155.208333 22620.3125 20665.625 22915.104167 C 21176.302083 23209.895833 21490.885417 23754.947917 21490.885417 24344.53125 Z M 21490.885417 24344.53125 " transform="matrix(0.015,0,0,0.015,0,0)"/>
<path style="fill:none;stroke-width:9;stroke-linecap:round;stroke-linejoin:round;stroke:rgb(0%,0%,0%);stroke-opacity:1;stroke-miterlimit:10;" d="M 29590.885417 32024.479167 C 29590.885417 32935.677083 29104.947917 33777.604167 28315.625 34233.333333 C 27526.5625 34688.802083 26554.427083 34688.802083 25765.364583 34233.333333 C 24976.041667 33777.604167 24490.104167 32935.677083 24490.104167 32024.479167 C 24490.104167 31113.28125 24976.041667 30271.354167 25765.364583 29815.625 C 26554.427083 29360.15625 27526.5625 29360.15625 28315.625 29815.625 C 29104.947917 30271.354167 29590.885417 31113.28125 29590.885417 32024.479167 Z M 29590.885417 32024.479167 " transform="matrix(0.015,0,0,0.015,0,0)"/>
<path style="fill:none;stroke-width:9;stroke-linecap:round;stroke-linejoin:round;stroke:rgb(0%,0%,0%);stroke-opacity:1;stroke-miterlimit:10;" d="M 15190.885417 32024.479167 C 15190.885417 32935.677083 14704.947917 33777.604167 13915.625 34233.333333 C 13126.5625 34688.802083 12154.427083 34688.802083 11365.364583 34233.333333 C 10576.041667 33777.604167 10090.104167 32935.677083 10090.104167 32024.479167 C 10090.104167 31113.28125 10576.041667 30271.354167 11365.364583 29815.625 C 12154.427083 29360.15625 13126.5625 29360.15625 13915.625 29815.625 C 14704.947917 30271.354167 15190.885417 31113.28125 15190.885417 32024.479167 Z M 15190.885417 32024.479167 " transform="matrix(0.015,0,0,0.015,0,0)"/>
<path style="fill:none;stroke-width:9;stroke-linecap:round;stroke-linejoin:round;stroke:rgb(0%,0%,0%);stroke-opacity:1;stroke-miterlimit:10;" d="M 22390.885417 32024.479167 C 22390.885417 32935.677083 21904.947917 33777.604167 21115.625 34233.333333 C 20326.5625 34688.802083 19354.427083 34688.802083 18565.364583 34233.333333 C 17776.041667 33777.604167 17290.104167 32935.677083 17290.104167 32024.479167 C 17290.104167 31113.28125 17776.041667 30271.354167 18565.364583 29815.625 C 19354.427083 29360.15625 20326.5625 29360.15625 21115.625 29815.625 C 21904.947917 30271.354167 22390.885417 31113.28125 22390.885417 32024.479167 Z M 22390.885417 32024.479167 " transform="matrix(0.015,0,0,0.015,0,0)"/>
<path style="fill:none;stroke-width:23;stroke-linecap:round;stroke-linejoin:round;stroke:rgb(0%,0%,0%);stroke-opacity:1;stroke-miterlimit:10;" d="M 27940.885417 24344.53125 C 27940.885417 24666.145833 27769.270833 24963.541667 27490.625 25124.479167 C 27212.239583 25285.15625 26868.75 25285.15625 26590.364583 25124.479167 C 26311.71875 24963.541667 26140.104167 24666.145833 26140.104167 24344.53125 C 26140.104167 24022.65625 26311.71875 23725.520833 26590.364583 23564.583333 C 26868.75 23403.90625 27212.239583 23403.90625 27490.625 23564.583333 C 27769.270833 23725.520833 27940.885417 24022.65625 27940.885417 24344.53125 Z M 27940.885417 24344.53125 " transform="matrix(0.015,0,0,0.015,0,0)"/>
<path style="fill:none;stroke-width:23;stroke-linecap:round;stroke-linejoin:round;stroke:rgb(0%,0%,0%);stroke-opacity:1;stroke-miterlimit:10;" d="M 26440.104167 23023.958333 L 27640.104167 23023.958333 " transform="matrix(0.015,0,0,0.015,0,0)"/>
<path style="fill:none;stroke-width:23;stroke-linecap:round;stroke-linejoin:round;stroke:rgb(0%,0%,0%);stroke-opacity:1;stroke-miterlimit:10;" d="M 25720.052083 24944.010417 L 25720.052083 23744.010417 " transform="matrix(0.015,0,0,0.015,0,0)"/>
<path style="fill:none;stroke-width:23;stroke-linecap:round;stroke-linejoin:round;stroke:rgb(0%,0%,0%);stroke-opacity:1;stroke-miterlimit:10;" d="M 28359.895833 23744.010417 L 28359.895833 24944.010417 " transform="matrix(0.015,0,0,0.015,0,0)"/>
<path style="fill:none;stroke-width:23;stroke-linecap:round;stroke-linejoin:round;stroke:rgb(0%,0%,0%);stroke-opacity:1;stroke-miterlimit:10;" d="M 27640.104167 23023.958333 L 28359.895833 23744.010417 " transform="matrix(0.015,0,0,0.015,0,0)"/>
<path style="fill:none;stroke-width:23;stroke-linecap:round;stroke-linejoin:round;stroke:rgb(0%,0%,0%);stroke-opacity:1;stroke-miterlimit:10;" d="M 25720.052083 23744.010417 L 26440.104167 23023.958333 " transform="matrix(0.015,0,0,0.015,0,0)"/>
<path style="fill:none;stroke-width:23;stroke-linecap:round;stroke-linejoin:round;stroke:rgb(0%,0%,0%);stroke-opacity:1;stroke-miterlimit:10;" d="M 20440.104167 17623.958333 L 21159.895833 18344.010417 " transform="matrix(0.015,0,0,0.015,0,0)"/>
<path style="fill:none;stroke-width:23;stroke-linecap:round;stroke-linejoin:round;stroke:rgb(0%,0%,0%);stroke-opacity:1;stroke-miterlimit:10;" d="M 21159.895833 18344.010417 L 21159.895833 19544.010417 " transform="matrix(0.015,0,0,0.015,0,0)"/>
<path style="fill:none;stroke-width:23;stroke-linecap:round;stroke-linejoin:round;stroke:rgb(0%,0%,0%);stroke-opacity:1;stroke-miterlimit:10;" d="M 25720.052083 19544.010417 L 25720.052083 18344.010417 " transform="matrix(0.015,0,0,0.015,0,0)"/>
<path style="fill:none;stroke-width:23;stroke-linecap:round;stroke-linejoin:round;stroke:rgb(0%,0%,0%);stroke-opacity:1;stroke-miterlimit:10;" d="M 25720.052083 18344.010417 L 26440.104167 17623.958333 " transform="matrix(0.015,0,0,0.015,0,0)"/>
<path style="fill:none;stroke-width:23;stroke-linecap:round;stroke-linejoin:round;stroke:rgb(0%,0%,0%);stroke-opacity:1;stroke-miterlimit:10;" d="M 26440.104167 20264.0625 L 25720.052083 19544.010417 " transform="matrix(0.015,0,0,0.015,0,0)"/>
<path style="fill:none;stroke-width:23;stroke-linecap:round;stroke-linejoin:round;stroke:rgb(0%,0%,0%);stroke-opacity:1;stroke-miterlimit:10;" d="M 28359.895833 18344.010417 L 28359.895833 19544.010417 " transform="matrix(0.015,0,0,0.015,0,0)"/>
<path style="fill:none;stroke-width:23;stroke-linecap:round;stroke-linejoin:round;stroke:rgb(0%,0%,0%);stroke-opacity:1;stroke-miterlimit:10;" d="M 28359.895833 19544.010417 L 27640.104167 20264.0625 " transform="matrix(0.015,0,0,0.015,0,0)"/>
<path style="fill:none;stroke-width:23;stroke-linecap:round;stroke-linejoin:round;stroke:rgb(0%,0%,0%);stroke-opacity:1;stroke-miterlimit:10;" d="M 27640.104167 20264.0625 L 26440.104167 20264.0625 " transform="matrix(0.015,0,0,0.015,0,0)"/>
<path style="fill:none;stroke-width:76;stroke-linecap:round;stroke-linejoin:round;stroke:rgb(0%,0%,0%);stroke-opacity:1;stroke-miterlimit:10;" d="M 25996.09375 21685.9375 L 25996.09375 20929.947917 " transform="matrix(0.015,0,0,0.015,0,0)"/>
<path style="fill:none;stroke-width:76;stroke-linecap:round;stroke-linejoin:round;stroke:rgb(0%,0%,0%);stroke-opacity:1;stroke-miterlimit:10;" d="M 26355.989583 21685.9375 L 26355.989583 20929.947917 L 26788.020833 21685.9375 L 26788.020833 20929.947917 " transform="matrix(0.015,0,0,0.015,0,0)"/>
<path style="fill:none;stroke-width:76;stroke-linecap:round;stroke-linejoin:round;stroke:rgb(0%,0%,0%);stroke-opacity:1;stroke-miterlimit:10;" d="M 27652.083333 20929.947917 L 28120.052083 20929.947917 L 27867.96875 21217.96875 L 27976.041667 21217.96875 L 28047.916667 21253.90625 L 28084.114583 21290.104167 L 28120.052083 21361.979167 L 28120.052083 21541.927083 L 28084.114583 21614.0625 L 28047.916667 21650 L 27976.041667 21685.9375 L 27759.895833 21685.9375 L 27688.020833 21650 L 27652.083333 21614.0625 " transform="matrix(0.015,0,0,0.015,0,0)"/>
<path style="fill:none;stroke-width:23;stroke-linecap:round;stroke-linejoin:round;stroke:rgb(0%,0%,0%);stroke-opacity:1;stroke-miterlimit:10;" d="M 19240.104167 17623.958333 L 20440.104167 17623.958333 " transform="matrix(0.015,0,0,0.015,0,0)"/>
<path style="fill:none;stroke-width:23;stroke-linecap:round;stroke-linejoin:round;stroke:rgb(0%,0%,0%);stroke-opacity:1;stroke-miterlimit:10;" d="M 18520.052083 18344.010417 L 19240.104167 17623.958333 " transform="matrix(0.015,0,0,0.015,0,0)"/>
<path style="fill:none;stroke-width:9;stroke-linecap:round;stroke-linejoin:round;stroke:rgb(0%,0%,0%);stroke-opacity:1;stroke-miterlimit:10;" d="M 22390.885417 12584.375 C 22390.885417 13495.833333 21904.947917 14337.760417 21115.625 14793.229167 C 20326.5625 15248.958333 19354.427083 15248.958333 18565.364583 14793.229167 C 17776.041667 14337.760417 17290.104167 13495.833333 17290.104167 12584.375 C 17290.104167 11673.177083 17776.041667 10831.25 18565.364583 10375.78125 C 19354.427083 9920.052083 20326.5625 9920.052083 21115.625 10375.78125 C 21904.947917 10831.25 22390.885417 11673.177083 22390.885417 12584.375 Z M 22390.885417 12584.375 " transform="matrix(0.015,0,0,0.015,0,0)"/>
<path style="fill:none;stroke-width:23;stroke-linecap:round;stroke-linejoin:round;stroke:rgb(0%,0%,0%);stroke-opacity:1;stroke-miterlimit:10;" d="M 19090.104167 13883.072917 L 18520.052083 14744.010417 " transform="matrix(0.015,0,0,0.015,0,0)"/>
<path style="fill:none;stroke-width:9;stroke-linecap:round;stroke-linejoin:round;stroke:rgb(0%,0%,0%);stroke-opacity:1;stroke-miterlimit:10;" d="M 21340.885417 12584.375 C 21340.885417 13120.572917 21054.947917 13615.885417 20590.625 13883.854167 C 20126.5625 14152.083333 19554.427083 14152.083333 19090.364583 13883.854167 C 18626.041667 13615.885417 18340.104167 13120.572917 18340.104167 12584.375 C 18340.104167 12048.4375 18626.041667 11553.125 19090.364583 11285.15625 C 19554.427083 11016.927083 20126.5625 11016.927083 20590.625 11285.15625 C 21054.947917 11553.125 21340.885417 12048.4375 21340.885417 12584.375 Z M 21340.885417 12584.375 " transform="matrix(0.015,0,0,0.015,0,0)"/>
<path style="fill:none;stroke-width:76;stroke-linecap:round;stroke-linejoin:round;stroke:rgb(0%,0%,0%);stroke-opacity:1;stroke-miterlimit:10;" d="M 16276.041667 8605.989583 L 16276.041667 7850 L 16455.989583 7850 L 16564.0625 7885.9375 L 16635.9375 7958.072917 L 16671.875 8029.947917 L 16708.072917 8173.958333 L 16708.072917 8282.03125 L 16671.875 8426.041667 L 16635.9375 8497.916667 L 16564.0625 8570.052083 L 16455.989583 8605.989583 L 16276.041667 8605.989583 " transform="matrix(0.015,0,0,0.015,0,0)"/>
<path style="fill:none;stroke-width:76;stroke-linecap:round;stroke-linejoin:round;stroke:rgb(0%,0%,0%);stroke-opacity:1;stroke-miterlimit:10;" d="M 17464.0625 8534.114583 L 17428.125 8570.052083 L 17320.052083 8605.989583 L 17247.916667 8605.989583 L 17140.104167 8570.052083 L 17067.96875 8497.916667 L 17032.03125 8426.041667 L 16996.09375 8282.03125 L 16996.09375 8173.958333 L 17032.03125 8029.947917 L 17067.96875 7958.072917 L 17140.104167 7885.9375 L 17247.916667 7850 L 17320.052083 7850 L 17428.125 7885.9375 L 17464.0625 7921.875 " transform="matrix(0.015,0,0,0.015,0,0)"/>
<path style="fill:none;stroke-width:76;stroke-linecap:round;stroke-linejoin:round;stroke:rgb(0%,0%,0%);stroke-opacity:1;stroke-miterlimit:10;" d="M 18364.0625 8605.989583 L 18364.0625 7850 L 18615.885417 8390.104167 L 18867.96875 7850 L 18867.96875 8605.989583 " transform="matrix(0.015,0,0,0.015,0,0)"/>
<path style="fill:none;stroke-width:76;stroke-linecap:round;stroke-linejoin:round;stroke:rgb(0%,0%,0%);stroke-opacity:1;stroke-miterlimit:10;" d="M 19228.125 8605.989583 L 19228.125 7850 " transform="matrix(0.015,0,0,0.015,0,0)"/>
<path style="fill:none;stroke-width:76;stroke-linecap:round;stroke-linejoin:round;stroke:rgb(0%,0%,0%);stroke-opacity:1;stroke-miterlimit:10;" d="M 19515.885417 7850 L 20020.052083 8605.989583 " transform="matrix(0.015,0,0,0.015,0,0)"/>
<path style="fill:none;stroke-width:76;stroke-linecap:round;stroke-linejoin:round;stroke:rgb(0%,0%,0%);stroke-opacity:1;stroke-miterlimit:10;" d="M 20020.052083 7850 L 19515.885417 8605.989583 " transform="matrix(0.015,0,0,0.015,0,0)"/>
<path style="fill:none;stroke-width:76;stroke-linecap:round;stroke-linejoin:round;stroke:rgb(0%,0%,0%);stroke-opacity:1;stroke-miterlimit:10;" d="M 20308.072917 8209.895833 L 20559.895833 8209.895833 " transform="matrix(0.015,0,0,0.015,0,0)"/>
<path style="fill:none;stroke-width:76;stroke-linecap:round;stroke-linejoin:round;stroke:rgb(0%,0%,0%);stroke-opacity:1;stroke-miterlimit:10;" d="M 20667.96875 8605.989583 L 20308.072917 8605.989583 L 20308.072917 7850 L 20667.96875 7850 " transform="matrix(0.015,0,0,0.015,0,0)"/>
<path style="fill:none;stroke-width:76;stroke-linecap:round;stroke-linejoin:round;stroke:rgb(0%,0%,0%);stroke-opacity:1;stroke-miterlimit:10;" d="M 21423.958333 8605.989583 L 21171.875 8246.09375 " transform="matrix(0.015,0,0,0.015,0,0)"/>
<path style="fill:none;stroke-width:76;stroke-linecap:round;stroke-linejoin:round;stroke:rgb(0%,0%,0%);stroke-opacity:1;stroke-miterlimit:10;" d="M 20991.927083 8605.989583 L 20991.927083 7850 L 21279.947917 7850 L 21352.083333 7885.9375 L 21388.020833 7921.875 L 21423.958333 7994.010417 L 21423.958333 8102.083333 L 21388.020833 8173.958333 L 21352.083333 8209.895833 L 21279.947917 8246.09375 L 20991.927083 8246.09375 " transform="matrix(0.015,0,0,0.015,0,0)"/>
<path style="fill:none;stroke-width:76;stroke-linecap:round;stroke-linejoin:round;stroke:rgb(0%,0%,0%);stroke-opacity:1;stroke-miterlimit:10;" d="M 22252.083333 7850 L 22755.989583 8605.989583 " transform="matrix(0.015,0,0,0.015,0,0)"/>
<path style="fill:none;stroke-width:76;stroke-linecap:round;stroke-linejoin:round;stroke:rgb(0%,0%,0%);stroke-opacity:1;stroke-miterlimit:10;" d="M 22755.989583 7850 L 22252.083333 8605.989583 " transform="matrix(0.015,0,0,0.015,0,0)"/>
<path style="fill:none;stroke-width:76;stroke-linecap:round;stroke-linejoin:round;stroke:rgb(0%,0%,0%);stroke-opacity:1;stroke-miterlimit:10;" d="M 23008.072917 7921.875 L 23044.010417 7885.9375 L 23115.885417 7850 L 23296.09375 7850 L 23367.96875 7885.9375 L 23403.90625 7921.875 L 23440.104167 7994.010417 L 23440.104167 8065.885417 L 23403.90625 8173.958333 L 22971.875 8605.989583 L 23440.104167 8605.989583 " transform="matrix(0.015,0,0,0.015,0,0)"/>
<path style="fill:none;stroke-width:23;stroke-linecap:round;stroke-linejoin:round;stroke:rgb(0%,0%,0%);stroke-opacity:1;stroke-miterlimit:10;" d="M 26440.104167 17623.958333 L 27640.104167 17623.958333 " transform="matrix(0.015,0,0,0.015,0,0)"/>
<path style="fill:none;stroke-width:23;stroke-linecap:round;stroke-linejoin:round;stroke:rgb(0%,0%,0%);stroke-opacity:1;stroke-miterlimit:10;" d="M 27640.104167 17623.958333 L 28359.895833 18344.010417 " transform="matrix(0.015,0,0,0.015,0,0)"/>
<path style="fill:none;stroke-width:76;stroke-linecap:round;stroke-linejoin:round;stroke:rgb(0%,0%,0%);stroke-opacity:1;stroke-miterlimit:10;" d="M 24447.916667 16285.9375 L 24447.916667 15529.947917 " transform="matrix(0.015,0,0,0.015,0,0)"/>
<path style="fill:none;stroke-width:76;stroke-linecap:round;stroke-linejoin:round;stroke:rgb(0%,0%,0%);stroke-opacity:1;stroke-miterlimit:10;" d="M 24808.072917 16285.9375 L 24808.072917 15529.947917 L 25240.104167 16285.9375 L 25240.104167 15529.947917 " transform="matrix(0.015,0,0,0.015,0,0)"/>
<path style="fill:none;stroke-width:76;stroke-linecap:round;stroke-linejoin:round;stroke:rgb(0%,0%,0%);stroke-opacity:1;stroke-miterlimit:10;" d="M 26103.90625 15529.947917 L 26571.875 15529.947917 L 26320.052083 15817.96875 L 26428.125 15817.96875 L 26500 15853.90625 L 26535.9375 15890.104167 L 26571.875 15961.979167 L 26571.875 16141.927083 L 26535.9375 16214.0625 L 26500 16250 L 26428.125 16285.9375 L 26211.979167 16285.9375 L 26140.104167 16250 L 26103.90625 16214.0625 " transform="matrix(0.015,0,0,0.015,0,0)"/>
<path style="fill:none;stroke-width:76;stroke-linecap:round;stroke-linejoin:round;stroke:rgb(0%,0%,0%);stroke-opacity:1;stroke-miterlimit:10;" d="M 27688.020833 16573.958333 L 27652.083333 16538.020833 L 27579.947917 16429.947917 L 27544.010417 16358.072917 L 27508.072917 16250 L 27471.875 16070.052083 L 27471.875 15926.041667 L 27508.072917 15746.09375 L 27544.010417 15638.020833 L 27579.947917 15565.885417 L 27652.083333 15458.072917 L 27688.020833 15421.875 " transform="matrix(0.015,0,0,0.015,0,0)"/>
<path style="fill:none;stroke-width:76;stroke-linecap:round;stroke-linejoin:round;stroke:rgb(0%,0%,0%);stroke-opacity:1;stroke-miterlimit:10;" d="M 27903.90625 15782.03125 L 28084.114583 16285.9375 L 28264.0625 15782.03125 " transform="matrix(0.015,0,0,0.015,0,0)"/>
<path style="fill:none;stroke-width:76;stroke-linecap:round;stroke-linejoin:round;stroke:rgb(0%,0%,0%);stroke-opacity:1;stroke-miterlimit:10;" d="M 28552.083333 15997.916667 L 29128.125 15997.916667 " transform="matrix(0.015,0,0,0.015,0,0)"/>
<path style="fill:none;stroke-width:76;stroke-linecap:round;stroke-linejoin:round;stroke:rgb(0%,0%,0%);stroke-opacity:1;stroke-miterlimit:10;" d="M 28840.104167 16285.9375 L 28840.104167 15709.895833 " transform="matrix(0.015,0,0,0.015,0,0)"/>
<path style="fill:none;stroke-width:76;stroke-linecap:round;stroke-linejoin:round;stroke:rgb(0%,0%,0%);stroke-opacity:1;stroke-miterlimit:10;" d="M 29415.885417 16573.958333 L 29452.083333 16538.020833 L 29523.958333 16429.947917 L 29559.895833 16358.072917 L 29596.09375 16250 L 29632.03125 16070.052083 L 29632.03125 15926.041667 L 29596.09375 15746.09375 L 29559.895833 15638.020833 L 29523.958333 15565.885417 L 29452.083333 15458.072917 L 29415.885417 15421.875 " transform="matrix(0.015,0,0,0.015,0,0)"/>
<path style="fill:none;stroke-width:23;stroke-linecap:round;stroke-linejoin:round;stroke:rgb(0%,0%,0%);stroke-opacity:1;stroke-miterlimit:10;" d="M 27940.885417 18944.53125 C 27940.885417 19266.145833 27769.270833 19563.541667 27490.625 19724.479167 C 27212.239583 19885.15625 26868.75 19885.15625 26590.364583 19724.479167 C 26311.71875 19563.541667 26140.104167 19266.145833 26140.104167 18944.53125 C 26140.104167 18622.65625 26311.71875 18325.520833 26590.364583 18164.583333 C 26868.75 18003.90625 27212.239583 18003.90625 27490.625 18164.583333 C 27769.270833 18325.520833 27940.885417 18622.65625 27940.885417 18944.53125 Z M 27940.885417 18944.53125 " transform="matrix(0.015,0,0,0.015,0,0)"/>
<path style="fill:none;stroke-width:23;stroke-linecap:round;stroke-linejoin:round;stroke:rgb(0%,0%,0%);stroke-opacity:1;stroke-miterlimit:10;" d="M 28690.885417 18944.53125 C 28690.885417 19534.114583 28376.302083 20079.166667 27865.625 20373.958333 C 27355.208333 20668.75 26726.041667 20668.75 26215.364583 20373.958333 C 25704.6875 20079.166667 25390.104167 19534.114583 25390.104167 18944.53125 C 25390.104167 18354.947917 25704.6875 17809.895833 26215.364583 17515.104167 C 26726.041667 17220.3125 27355.208333 17220.3125 27865.625 17515.104167 C 28376.302083 17809.895833 28690.885417 18354.947917 28690.885417 18944.53125 Z M 28690.885417 18944.53125 " transform="matrix(0.015,0,0,0.015,0,0)"/>
<path style="fill:none;stroke-width:9;stroke-linecap:round;stroke-linejoin:round;stroke:rgb(0%,0%,0%);stroke-opacity:1;stroke-miterlimit:10;" d="M 28540.885417 12584.375 C 28540.885417 13120.572917 28254.947917 13615.885417 27790.625 13883.854167 C 27326.5625 14152.083333 26754.427083 14152.083333 26290.364583 13883.854167 C 25826.041667 13615.885417 25540.104167 13120.572917 25540.104167 12584.375 C 25540.104167 12048.4375 25826.041667 11553.125 26290.364583 11285.15625 C 26754.427083 11016.927083 27326.5625 11016.927083 27790.625 11285.15625 C 28254.947917 11553.125 28540.885417 12048.4375 28540.885417 12584.375 Z M 28540.885417 12584.375 " transform="matrix(0.015,0,0,0.015,0,0)"/>
<path style="fill:none;stroke-width:9;stroke-linecap:round;stroke-linejoin:round;stroke:rgb(0%,0%,0%);stroke-opacity:1;stroke-miterlimit:10;" d="M 29590.885417 12584.375 C 29590.885417 13495.833333 29104.947917 14337.760417 28315.625 14793.229167 C 27526.5625 15248.958333 26554.427083 15248.958333 25765.364583 14793.229167 C 24976.041667 14337.760417 24490.104167 13495.833333 24490.104167 12584.375 C 24490.104167 11673.177083 24976.041667 10831.25 25765.364583 10375.78125 C 26554.427083 9920.052083 27526.5625 9920.052083 28315.625 10375.78125 C 29104.947917 10831.25 29590.885417 11673.177083 29590.885417 12584.375 Z M 29590.885417 12584.375 " transform="matrix(0.015,0,0,0.015,0,0)"/>
<path style="fill:none;stroke-width:23;stroke-linecap:round;stroke-linejoin:round;stroke:rgb(0%,0%,0%);stroke-opacity:1;stroke-miterlimit:10;" d="M 26290.104167 13883.072917 L 25720.052083 14744.010417 " transform="matrix(0.015,0,0,0.015,0,0)"/>
<path style="fill:none;stroke-width:23;stroke-linecap:round;stroke-linejoin:round;stroke:rgb(0%,0%,0%);stroke-opacity:1;stroke-miterlimit:10;" d="M 21159.895833 19544.010417 L 20440.104167 20264.0625 " transform="matrix(0.015,0,0,0.015,0,0)"/>
<path style="fill:none;stroke-width:23;stroke-linecap:round;stroke-linejoin:round;stroke:rgb(0%,0%,0%);stroke-opacity:1;stroke-miterlimit:10;" d="M 20440.104167 20264.0625 L 19240.104167 20264.0625 " transform="matrix(0.015,0,0,0.015,0,0)"/>
<path style="fill:none;stroke-width:23;stroke-linecap:round;stroke-linejoin:round;stroke:rgb(0%,0%,0%);stroke-opacity:1;stroke-miterlimit:10;" d="M 19240.104167 20264.0625 L 18520.052083 19544.010417 " transform="matrix(0.015,0,0,0.015,0,0)"/>
<path style="fill:none;stroke-width:23;stroke-linecap:round;stroke-linejoin:round;stroke:rgb(0%,0%,0%);stroke-opacity:1;stroke-miterlimit:10;" d="M 20740.885417 18944.53125 C 20740.885417 19266.145833 20569.270833 19563.541667 20290.625 19724.479167 C 20012.239583 19885.15625 19668.75 19885.15625 19390.364583 19724.479167 C 19111.71875 19563.541667 18940.104167 19266.145833 18940.104167 18944.53125 C 18940.104167 18622.65625 19111.71875 18325.520833 19390.364583 18164.583333 C 19668.75 18003.90625 20012.239583 18003.90625 20290.625 18164.583333 C 20569.270833 18325.520833 20740.885417 18622.65625 20740.885417 18944.53125 Z M 20740.885417 18944.53125 " transform="matrix(0.015,0,0,0.015,0,0)"/>
<path style="fill:none;stroke-width:23;stroke-linecap:round;stroke-linejoin:round;stroke:rgb(0%,0%,0%);stroke-opacity:1;stroke-miterlimit:10;" d="M 21490.885417 18944.53125 C 21490.885417 19534.114583 21176.302083 20079.166667 20665.625 20373.958333 C 20155.208333 20668.75 19526.041667 20668.75 19015.364583 20373.958333 C 18504.6875 20079.166667 18190.104167 19534.114583 18190.104167 18944.53125 C 18190.104167 18354.947917 18504.6875 17809.895833 19015.364583 17515.104167 C 19526.041667 17220.3125 20155.208333 17220.3125 20665.625 17515.104167 C 21176.302083 17809.895833 21490.885417 18354.947917 21490.885417 18944.53125 Z M 21490.885417 18944.53125 " transform="matrix(0.015,0,0,0.015,0,0)"/>
<path style="fill:none;stroke-width:76;stroke-linecap:round;stroke-linejoin:round;stroke:rgb(0%,0%,0%);stroke-opacity:1;stroke-miterlimit:10;" d="M 18796.09375 16285.9375 L 18796.09375 15529.947917 " transform="matrix(0.015,0,0,0.015,0,0)"/>
<path style="fill:none;stroke-width:76;stroke-linecap:round;stroke-linejoin:round;stroke:rgb(0%,0%,0%);stroke-opacity:1;stroke-miterlimit:10;" d="M 19155.989583 16285.9375 L 19155.989583 15529.947917 L 19588.020833 16285.9375 L 19588.020833 15529.947917 " transform="matrix(0.015,0,0,0.015,0,0)"/>
<path style="fill:none;stroke-width:76;stroke-linecap:round;stroke-linejoin:round;stroke:rgb(0%,0%,0%);stroke-opacity:1;stroke-miterlimit:10;" d="M 20488.020833 15602.083333 L 20523.958333 15565.885417 L 20596.09375 15529.947917 L 20776.041667 15529.947917 L 20847.916667 15565.885417 L 20884.114583 15602.083333 L 20920.052083 15673.958333 L 20920.052083 15746.09375 L 20884.114583 15853.90625 L 20452.083333 16285.9375 L 20920.052083 16285.9375 " transform="matrix(0.015,0,0,0.015,0,0)"/>
<path style="fill:none;stroke-width:23;stroke-linecap:round;stroke-linejoin:round;stroke:rgb(0%,0%,0%);stroke-opacity:1;stroke-miterlimit:10;" d="M 18520.052083 19544.010417 L 18520.052083 18344.010417 " transform="matrix(0.015,0,0,0.015,0,0)"/>
<path style="fill:none;stroke-width:23;stroke-linecap:round;stroke-linejoin:round;stroke:rgb(0%,0%,0%);stroke-opacity:1;stroke-miterlimit:10;" d="M 13240.104167 17623.958333 L 13959.895833 18344.010417 " transform="matrix(0.015,0,0,0.015,0,0)"/>
<path style="fill:none;stroke-width:23;stroke-linecap:round;stroke-linejoin:round;stroke:rgb(0%,0%,0%);stroke-opacity:1;stroke-miterlimit:10;" d="M 13959.895833 18344.010417 L 13959.895833 19544.010417 " transform="matrix(0.015,0,0,0.015,0,0)"/>
<path style="fill:none;stroke-width:23;stroke-linecap:round;stroke-linejoin:round;stroke:rgb(0%,0%,0%);stroke-opacity:1;stroke-miterlimit:10;" d="M 13959.895833 19544.010417 L 13240.104167 20264.0625 " transform="matrix(0.015,0,0,0.015,0,0)"/>
<path style="fill:none;stroke-width:23;stroke-linecap:round;stroke-linejoin:round;stroke:rgb(0%,0%,0%);stroke-opacity:1;stroke-miterlimit:10;" d="M 12040.104167 17623.958333 L 13240.104167 17623.958333 " transform="matrix(0.015,0,0,0.015,0,0)"/>
<path style="fill:none;stroke-width:9;stroke-linecap:round;stroke-linejoin:round;stroke:rgb(0%,0%,0%);stroke-opacity:1;stroke-miterlimit:10;" d="M 14140.885417 12584.375 C 14140.885417 13120.572917 13854.947917 13615.885417 13390.625 13883.854167 C 12926.5625 14152.083333 12354.427083 14152.083333 11890.364583 13883.854167 C 11426.041667 13615.885417 11140.104167 13120.572917 11140.104167 12584.375 C 11140.104167 12048.4375 11426.041667 11553.125 11890.364583 11285.15625 C 12354.427083 11016.927083 12926.5625 11016.927083 13390.625 11285.15625 C 13854.947917 11553.125 14140.885417 12048.4375 14140.885417 12584.375 Z M 14140.885417 12584.375 " transform="matrix(0.015,0,0,0.015,0,0)"/>
<path style="fill:none;stroke-width:23;stroke-linecap:round;stroke-linejoin:round;stroke:rgb(0%,0%,0%);stroke-opacity:1;stroke-miterlimit:10;" d="M 11890.104167 13883.072917 L 11320.052083 14744.010417 " transform="matrix(0.015,0,0,0.015,0,0)"/>
<path style="fill:none;stroke-width:9;stroke-linecap:round;stroke-linejoin:round;stroke:rgb(0%,0%,0%);stroke-opacity:1;stroke-miterlimit:10;" d="M 15190.885417 12584.375 C 15190.885417 13495.833333 14704.947917 14337.760417 13915.625 14793.229167 C 13126.5625 15248.958333 12154.427083 15248.958333 11365.364583 14793.229167 C 10576.041667 14337.760417 10090.104167 13495.833333 10090.104167 12584.375 C 10090.104167 11673.177083 10576.041667 10831.25 11365.364583 10375.78125 C 12154.427083 9920.052083 13126.5625 9920.052083 13915.625 10375.78125 C 14704.947917 10831.25 15190.885417 11673.177083 15190.885417 12584.375 Z M 15190.885417 12584.375 " transform="matrix(0.015,0,0,0.015,0,0)"/>
<path style="fill:none;stroke-width:76;stroke-linecap:round;stroke-linejoin:round;stroke:rgb(0%,0%,0%);stroke-opacity:1;stroke-miterlimit:10;" d="M 11596.09375 16285.9375 L 11596.09375 15529.947917 " transform="matrix(0.015,0,0,0.015,0,0)"/>
<path style="fill:none;stroke-width:76;stroke-linecap:round;stroke-linejoin:round;stroke:rgb(0%,0%,0%);stroke-opacity:1;stroke-miterlimit:10;" d="M 11955.989583 16285.9375 L 11955.989583 15529.947917 L 12388.020833 16285.9375 L 12388.020833 15529.947917 " transform="matrix(0.015,0,0,0.015,0,0)"/>
<path style="fill:none;stroke-width:76;stroke-linecap:round;stroke-linejoin:round;stroke:rgb(0%,0%,0%);stroke-opacity:1;stroke-miterlimit:10;" d="M 13720.052083 16285.9375 L 13288.020833 16285.9375 " transform="matrix(0.015,0,0,0.015,0,0)"/>
<path style="fill:none;stroke-width:76;stroke-linecap:round;stroke-linejoin:round;stroke:rgb(0%,0%,0%);stroke-opacity:1;stroke-miterlimit:10;" d="M 13503.90625 16285.9375 L 13503.90625 15529.947917 L 13432.03125 15638.020833 L 13359.895833 15709.895833 L 13288.020833 15746.09375 " transform="matrix(0.015,0,0,0.015,0,0)"/>
<path style="fill:none;stroke-width:23;stroke-linecap:round;stroke-linejoin:round;stroke:rgb(0%,0%,0%);stroke-opacity:1;stroke-miterlimit:10;" d="M 13540.885417 18944.53125 C 13540.885417 19266.145833 13369.270833 19563.541667 13090.625 19724.479167 C 12812.239583 19885.15625 12468.75 19885.15625 12190.364583 19724.479167 C 11911.71875 19563.541667 11740.104167 19266.145833 11740.104167 18944.53125 C 11740.104167 18622.65625 11911.71875 18325.520833 12190.364583 18164.583333 C 12468.75 18003.90625 12812.239583 18003.90625 13090.625 18164.583333 C 13369.270833 18325.520833 13540.885417 18622.65625 13540.885417 18944.53125 Z M 13540.885417 18944.53125 " transform="matrix(0.015,0,0,0.015,0,0)"/>
<path style="fill:none;stroke-width:23;stroke-linecap:round;stroke-linejoin:round;stroke:rgb(0%,0%,0%);stroke-opacity:1;stroke-miterlimit:10;" d="M 14290.885417 18944.53125 C 14290.885417 19534.114583 13976.302083 20079.166667 13465.625 20373.958333 C 12955.208333 20668.75 12326.041667 20668.75 11815.364583 20373.958333 C 11304.6875 20079.166667 10990.104167 19534.114583 10990.104167 18944.53125 C 10990.104167 18354.947917 11304.6875 17809.895833 11815.364583 17515.104167 C 12326.041667 17220.3125 12955.208333 17220.3125 13465.625 17515.104167 C 13976.302083 17809.895833 14290.885417 18354.947917 14290.885417 18944.53125 Z M 14290.885417 18944.53125 " transform="matrix(0.015,0,0,0.015,0,0)"/>
<path style="fill:none;stroke-width:23;stroke-linecap:round;stroke-linejoin:round;stroke:rgb(0%,0%,0%);stroke-opacity:1;stroke-miterlimit:10;" d="M 13240.104167 20264.0625 L 12040.104167 20264.0625 " transform="matrix(0.015,0,0,0.015,0,0)"/>
<path style="fill:none;stroke-width:23;stroke-linecap:round;stroke-linejoin:round;stroke:rgb(0%,0%,0%);stroke-opacity:1;stroke-miterlimit:10;" d="M 12040.104167 20264.0625 L 11320.052083 19544.010417 " transform="matrix(0.015,0,0,0.015,0,0)"/>
<path style="fill:none;stroke-width:23;stroke-linecap:round;stroke-linejoin:round;stroke:rgb(0%,0%,0%);stroke-opacity:1;stroke-miterlimit:10;" d="M 11320.052083 19544.010417 L 11320.052083 18344.010417 " transform="matrix(0.015,0,0,0.015,0,0)"/>
<path style="fill:none;stroke-width:23;stroke-linecap:round;stroke-linejoin:round;stroke:rgb(0%,0%,0%);stroke-opacity:1;stroke-miterlimit:10;" d="M 11320.052083 18344.010417 L 12040.104167 17623.958333 " transform="matrix(0.015,0,0,0.015,0,0)"/>
<path style="fill:none;stroke-width:76;stroke-linecap:round;stroke-linejoin:round;stroke:rgb(0%,0%,0%);stroke-opacity:1;stroke-miterlimit:10;" d="M 11884.114583 26329.947917 L 12028.125 26329.947917 L 12100 26365.885417 L 12171.875 26438.020833 L 12208.072917 26582.03125 L 12208.072917 26834.114583 L 12171.875 26978.125 L 12100 27050 L 12028.125 27085.9375 L 11884.114583 27085.9375 L 11811.979167 27050 L 11740.104167 26978.125 L 11703.90625 26834.114583 L 11703.90625 26582.03125 L 11740.104167 26438.020833 L 11811.979167 26365.885417 L 11884.114583 26329.947917 " transform="matrix(0.015,0,0,0.015,0,0)"/>
<path style="fill:none;stroke-width:76;stroke-linecap:round;stroke-linejoin:round;stroke:rgb(0%,0%,0%);stroke-opacity:1;stroke-miterlimit:10;" d="M 12532.03125 26329.947917 L 12532.03125 26941.927083 L 12567.96875 27014.0625 L 12603.90625 27050 L 12676.041667 27085.9375 L 12820.052083 27085.9375 L 12891.927083 27050 L 12928.125 27014.0625 L 12964.0625 26941.927083 L 12964.0625 26329.947917 " transform="matrix(0.015,0,0,0.015,0,0)"/>
<path style="fill:none;stroke-width:76;stroke-linecap:round;stroke-linejoin:round;stroke:rgb(0%,0%,0%);stroke-opacity:1;stroke-miterlimit:10;" d="M 13215.885417 26329.947917 L 13647.916667 26329.947917 " transform="matrix(0.015,0,0,0.015,0,0)"/>
<path style="fill:none;stroke-width:76;stroke-linecap:round;stroke-linejoin:round;stroke:rgb(0%,0%,0%);stroke-opacity:1;stroke-miterlimit:10;" d="M 13432.03125 27085.9375 L 13432.03125 26329.947917 " transform="matrix(0.015,0,0,0.015,0,0)"/>
<path style="fill:none;stroke-width:76;stroke-linecap:round;stroke-linejoin:round;stroke:rgb(0%,0%,0%);stroke-opacity:1;stroke-miterlimit:10;" d="M 19084.114583 26329.947917 L 19228.125 26329.947917 L 19300 26365.885417 L 19371.875 26438.020833 L 19408.072917 26582.03125 L 19408.072917 26834.114583 L 19371.875 26978.125 L 19300 27050 L 19228.125 27085.9375 L 19084.114583 27085.9375 L 19011.979167 27050 L 18940.104167 26978.125 L 18903.90625 26834.114583 L 18903.90625 26582.03125 L 18940.104167 26438.020833 L 19011.979167 26365.885417 L 19084.114583 26329.947917 " transform="matrix(0.015,0,0,0.015,0,0)"/>
<path style="fill:none;stroke-width:76;stroke-linecap:round;stroke-linejoin:round;stroke:rgb(0%,0%,0%);stroke-opacity:1;stroke-miterlimit:10;" d="M 19732.03125 26329.947917 L 19732.03125 26941.927083 L 19767.96875 27014.0625 L 19803.90625 27050 L 19876.041667 27085.9375 L 20020.052083 27085.9375 L 20091.927083 27050 L 20128.125 27014.0625 L 20164.0625 26941.927083 L 20164.0625 26329.947917 " transform="matrix(0.015,0,0,0.015,0,0)"/>
<path style="fill:none;stroke-width:76;stroke-linecap:round;stroke-linejoin:round;stroke:rgb(0%,0%,0%);stroke-opacity:1;stroke-miterlimit:10;" d="M 20415.885417 26329.947917 L 20847.916667 26329.947917 " transform="matrix(0.015,0,0,0.015,0,0)"/>
<path style="fill:none;stroke-width:76;stroke-linecap:round;stroke-linejoin:round;stroke:rgb(0%,0%,0%);stroke-opacity:1;stroke-miterlimit:10;" d="M 20632.03125 27085.9375 L 20632.03125 26329.947917 " transform="matrix(0.015,0,0,0.015,0,0)"/>
<path style="fill:none;stroke-width:23;stroke-linecap:round;stroke-linejoin:round;stroke:rgb(0%,0%,0%);stroke-opacity:1;stroke-miterlimit:10;" d="M 13959.895833 24944.010417 L 13240.104167 25664.0625 " transform="matrix(0.015,0,0,0.015,0,0)"/>
<path style="fill:none;stroke-width:23;stroke-linecap:round;stroke-linejoin:round;stroke:rgb(0%,0%,0%);stroke-opacity:1;stroke-miterlimit:10;" d="M 13959.895833 23744.010417 L 13959.895833 24944.010417 " transform="matrix(0.015,0,0,0.015,0,0)"/>
<path style="fill:none;stroke-width:23;stroke-linecap:round;stroke-linejoin:round;stroke:rgb(0%,0%,0%);stroke-opacity:1;stroke-miterlimit:10;" d="M 11320.052083 24944.010417 L 11320.052083 23744.010417 " transform="matrix(0.015,0,0,0.015,0,0)"/>
<path style="fill:none;stroke-width:23;stroke-linecap:round;stroke-linejoin:round;stroke:rgb(0%,0%,0%);stroke-opacity:1;stroke-miterlimit:10;" d="M 11320.052083 23744.010417 L 12040.104167 23023.958333 " transform="matrix(0.015,0,0,0.015,0,0)"/>
<path style="fill:none;stroke-width:23;stroke-linecap:round;stroke-linejoin:round;stroke:rgb(0%,0%,0%);stroke-opacity:1;stroke-miterlimit:10;" d="M 12040.104167 25664.0625 L 11320.052083 24944.010417 " transform="matrix(0.015,0,0,0.015,0,0)"/>
<path style="fill:none;stroke-width:23;stroke-linecap:round;stroke-linejoin:round;stroke:rgb(0%,0%,0%);stroke-opacity:1;stroke-miterlimit:10;" d="M 14290.885417 24344.53125 C 14290.885417 24934.114583 13976.302083 25479.166667 13465.625 25773.958333 C 12955.208333 26068.75 12326.041667 26068.75 11815.364583 25773.958333 C 11304.6875 25479.166667 10990.104167 24934.114583 10990.104167 24344.53125 C 10990.104167 23754.947917 11304.6875 23209.895833 11815.364583 22915.104167 C 12326.041667 22620.3125 12955.208333 22620.3125 13465.625 22915.104167 C 13976.302083 23209.895833 14290.885417 23754.947917 14290.885417 24344.53125 Z M 14290.885417 24344.53125 " transform="matrix(0.015,0,0,0.015,0,0)"/>
<path style="fill:none;stroke-width:76;stroke-linecap:round;stroke-linejoin:round;stroke:rgb(0%,0%,0%);stroke-opacity:1;stroke-miterlimit:10;" d="M 11596.09375 35726.041667 L 11596.09375 34970.052083 " transform="matrix(0.015,0,0,0.015,0,0)"/>
<path style="fill:none;stroke-width:76;stroke-linecap:round;stroke-linejoin:round;stroke:rgb(0%,0%,0%);stroke-opacity:1;stroke-miterlimit:10;" d="M 11955.989583 35726.041667 L 11955.989583 34970.052083 L 12388.020833 35726.041667 L 12388.020833 34970.052083 " transform="matrix(0.015,0,0,0.015,0,0)"/>
<path style="fill:none;stroke-width:76;stroke-linecap:round;stroke-linejoin:round;stroke:rgb(0%,0%,0%);stroke-opacity:1;stroke-miterlimit:10;" d="M 13720.052083 35726.041667 L 13288.020833 35726.041667 " transform="matrix(0.015,0,0,0.015,0,0)"/>
<path style="fill:none;stroke-width:76;stroke-linecap:round;stroke-linejoin:round;stroke:rgb(0%,0%,0%);stroke-opacity:1;stroke-miterlimit:10;" d="M 13503.90625 35726.041667 L 13503.90625 34970.052083 L 13432.03125 35078.125 L 13359.895833 35150 L 13288.020833 35185.9375 " transform="matrix(0.015,0,0,0.015,0,0)"/>
<path style="fill:none;stroke-width:23;stroke-linecap:round;stroke-linejoin:round;stroke:rgb(0%,0%,0%);stroke-opacity:1;stroke-miterlimit:10;" d="M 11320.052083 37784.114583 L 12040.104167 37064.0625 " transform="matrix(0.015,0,0,0.015,0,0)"/>
<path style="fill:none;stroke-width:23;stroke-linecap:round;stroke-linejoin:round;stroke:rgb(0%,0%,0%);stroke-opacity:1;stroke-miterlimit:10;" d="M 13240.104167 37064.0625 L 13959.895833 37784.114583 " transform="matrix(0.015,0,0,0.015,0,0)"/>
<path style="fill:none;stroke-width:23;stroke-linecap:round;stroke-linejoin:round;stroke:rgb(0%,0%,0%);stroke-opacity:1;stroke-miterlimit:10;" d="M 12040.104167 37064.0625 L 13240.104167 37064.0625 " transform="matrix(0.015,0,0,0.015,0,0)"/>
<path style="fill:none;stroke-width:23;stroke-linecap:round;stroke-linejoin:round;stroke:rgb(0%,0%,0%);stroke-opacity:1;stroke-miterlimit:10;" d="M 13240.104167 39703.90625 L 12040.104167 39703.90625 " transform="matrix(0.015,0,0,0.015,0,0)"/>
<path style="fill:none;stroke-width:23;stroke-linecap:round;stroke-linejoin:round;stroke:rgb(0%,0%,0%);stroke-opacity:1;stroke-miterlimit:10;" d="M 13959.895833 37784.114583 L 13959.895833 38984.114583 " transform="matrix(0.015,0,0,0.015,0,0)"/>
<path style="fill:none;stroke-width:23;stroke-linecap:round;stroke-linejoin:round;stroke:rgb(0%,0%,0%);stroke-opacity:1;stroke-miterlimit:10;" d="M 20740.885417 38384.375 C 20740.885417 38706.25 20569.270833 39003.385417 20290.625 39164.322917 C 20012.239583 39325.260417 19668.75 39325.260417 19390.364583 39164.322917 C 19111.71875 39003.385417 18940.104167 38706.25 18940.104167 38384.375 C 18940.104167 38062.760417 19111.71875 37765.625 19390.364583 37604.6875 C 19668.75 37443.75 20012.239583 37443.75 20290.625 37604.6875 C 20569.270833 37765.625 20740.885417 38062.760417 20740.885417 38384.375 Z M 20740.885417 38384.375 " transform="matrix(0.015,0,0,0.015,0,0)"/>
<path style="fill:none;stroke-width:23;stroke-linecap:round;stroke-linejoin:round;stroke:rgb(0%,0%,0%);stroke-opacity:1;stroke-miterlimit:10;" d="M 19090.104167 33322.916667 L 18520.052083 34184.114583 " transform="matrix(0.015,0,0,0.015,0,0)"/>
<path style="fill:none;stroke-width:23;stroke-linecap:round;stroke-linejoin:round;stroke:rgb(0%,0%,0%);stroke-opacity:1;stroke-miterlimit:10;" d="M 11320.052083 38984.114583 L 11320.052083 37784.114583 " transform="matrix(0.015,0,0,0.015,0,0)"/>
<path style="fill:none;stroke-width:23;stroke-linecap:round;stroke-linejoin:round;stroke:rgb(0%,0%,0%);stroke-opacity:1;stroke-miterlimit:10;" d="M 12040.104167 39703.90625 L 11320.052083 38984.114583 " transform="matrix(0.015,0,0,0.015,0,0)"/>
<path style="fill:none;stroke-width:23;stroke-linecap:round;stroke-linejoin:round;stroke:rgb(0%,0%,0%);stroke-opacity:1;stroke-miterlimit:10;" d="M 14290.885417 38384.375 C 14290.885417 38974.21875 13976.302083 39519.010417 13465.625 39813.802083 C 12955.208333 40108.59375 12326.041667 40108.59375 11815.364583 39813.802083 C 11304.6875 39519.010417 10990.104167 38974.21875 10990.104167 38384.375 C 10990.104167 37794.791667 11304.6875 37250 11815.364583 36955.208333 C 12326.041667 36660.416667 12955.208333 36660.416667 13465.625 36955.208333 C 13976.302083 37250 14290.885417 37794.791667 14290.885417 38384.375 Z M 14290.885417 38384.375 " transform="matrix(0.015,0,0,0.015,0,0)"/>
<path style="fill:none;stroke-width:23;stroke-linecap:round;stroke-linejoin:round;stroke:rgb(0%,0%,0%);stroke-opacity:1;stroke-miterlimit:10;" d="M 13540.885417 38384.375 C 13540.885417 38706.25 13369.270833 39003.385417 13090.625 39164.322917 C 12812.239583 39325.260417 12468.75 39325.260417 12190.364583 39164.322917 C 11911.71875 39003.385417 11740.104167 38706.25 11740.104167 38384.375 C 11740.104167 38062.760417 11911.71875 37765.625 12190.364583 37604.6875 C 12468.75 37443.75 12812.239583 37443.75 13090.625 37604.6875 C 13369.270833 37765.625 13540.885417 38062.760417 13540.885417 38384.375 Z M 13540.885417 38384.375 " transform="matrix(0.015,0,0,0.015,0,0)"/>
<path style="fill:none;stroke-width:23;stroke-linecap:round;stroke-linejoin:round;stroke:rgb(0%,0%,0%);stroke-opacity:1;stroke-miterlimit:10;" d="M 11890.104167 33322.916667 L 11320.052083 34184.114583 " transform="matrix(0.015,0,0,0.015,0,0)"/>
<path style="fill:none;stroke-width:9;stroke-linecap:round;stroke-linejoin:round;stroke:rgb(0%,0%,0%);stroke-opacity:1;stroke-miterlimit:10;" d="M 14140.885417 32024.479167 C 14140.885417 32560.677083 13854.947917 33055.989583 13390.625 33323.958333 C 12926.5625 33591.927083 12354.427083 33591.927083 11890.364583 33323.958333 C 11426.041667 33055.989583 11140.104167 32560.677083 11140.104167 32024.479167 C 11140.104167 31488.541667 11426.041667 30992.96875 11890.364583 30725 C 12354.427083 30457.03125 12926.5625 30457.03125 13390.625 30725 C 13854.947917 30992.96875 14140.885417 31488.541667 14140.885417 32024.479167 Z M 14140.885417 32024.479167 " transform="matrix(0.015,0,0,0.015,0,0)"/>
<path style="fill:none;stroke-width:76;stroke-linecap:round;stroke-linejoin:round;stroke:rgb(0%,0%,0%);stroke-opacity:1;stroke-miterlimit:10;" d="M 19084.114583 45770.052083 L 19228.125 45770.052083 L 19300 45805.989583 L 19371.875 45878.125 L 19408.072917 46021.875 L 19408.072917 46273.958333 L 19371.875 46417.96875 L 19300 46490.104167 L 19228.125 46526.041667 L 19084.114583 46526.041667 L 19011.979167 46490.104167 L 18940.104167 46417.96875 L 18903.90625 46273.958333 L 18903.90625 46021.875 L 18940.104167 45878.125 L 19011.979167 45805.989583 L 19084.114583 45770.052083 " transform="matrix(0.015,0,0,0.015,0,0)"/>
<path style="fill:none;stroke-width:76;stroke-linecap:round;stroke-linejoin:round;stroke:rgb(0%,0%,0%);stroke-opacity:1;stroke-miterlimit:10;" d="M 19732.03125 45770.052083 L 19732.03125 46382.03125 L 19767.96875 46453.90625 L 19803.90625 46490.104167 L 19876.041667 46526.041667 L 20020.052083 46526.041667 L 20091.927083 46490.104167 L 20128.125 46453.90625 L 20164.0625 46382.03125 L 20164.0625 45770.052083 " transform="matrix(0.015,0,0,0.015,0,0)"/>
<path style="fill:none;stroke-width:76;stroke-linecap:round;stroke-linejoin:round;stroke:rgb(0%,0%,0%);stroke-opacity:1;stroke-miterlimit:10;" d="M 20415.885417 45770.052083 L 20847.916667 45770.052083 " transform="matrix(0.015,0,0,0.015,0,0)"/>
<path style="fill:none;stroke-width:76;stroke-linecap:round;stroke-linejoin:round;stroke:rgb(0%,0%,0%);stroke-opacity:1;stroke-miterlimit:10;" d="M 20632.03125 46526.041667 L 20632.03125 45770.052083 " transform="matrix(0.015,0,0,0.015,0,0)"/>
<path style="fill:none;stroke-width:23;stroke-linecap:round;stroke-linejoin:round;stroke:rgb(0%,0%,0%);stroke-opacity:1;stroke-miterlimit:10;" d="M 19240.104167 45103.90625 L 18520.052083 44384.114583 " transform="matrix(0.015,0,0,0.015,0,0)"/>
<path style="fill:none;stroke-width:23;stroke-linecap:round;stroke-linejoin:round;stroke:rgb(0%,0%,0%);stroke-opacity:1;stroke-miterlimit:10;" d="M 20440.104167 45103.90625 L 19240.104167 45103.90625 " transform="matrix(0.015,0,0,0.015,0,0)"/>
<path style="fill:none;stroke-width:23;stroke-linecap:round;stroke-linejoin:round;stroke:rgb(0%,0%,0%);stroke-opacity:1;stroke-miterlimit:10;" d="M 21159.895833 44384.114583 L 20440.104167 45103.90625 " transform="matrix(0.015,0,0,0.015,0,0)"/>
<path style="fill:none;stroke-width:76;stroke-linecap:round;stroke-linejoin:round;stroke:rgb(0%,0%,0%);stroke-opacity:1;stroke-miterlimit:10;" d="M 24952.083333 46526.041667 L 24952.083333 45770.052083 " transform="matrix(0.015,0,0,0.015,0,0)"/>
<path style="fill:none;stroke-width:76;stroke-linecap:round;stroke-linejoin:round;stroke:rgb(0%,0%,0%);stroke-opacity:1;stroke-miterlimit:10;" d="M 25311.979167 46526.041667 L 25311.979167 45770.052083 L 25744.010417 46526.041667 L 25744.010417 45770.052083 " transform="matrix(0.015,0,0,0.015,0,0)"/>
<path style="fill:none;stroke-width:76;stroke-linecap:round;stroke-linejoin:round;stroke:rgb(0%,0%,0%);stroke-opacity:1;stroke-miterlimit:10;" d="M 25996.09375 45770.052083 L 26247.916667 46526.041667 L 26500 45770.052083 " transform="matrix(0.015,0,0,0.015,0,0)"/>
<path style="fill:none;stroke-width:76;stroke-linecap:round;stroke-linejoin:round;stroke:rgb(0%,0%,0%);stroke-opacity:1;stroke-miterlimit:10;" d="M 27471.875 45770.052083 L 27615.885417 45770.052083 L 27688.020833 45805.989583 L 27759.895833 45878.125 L 27796.09375 46021.875 L 27796.09375 46273.958333 L 27759.895833 46417.96875 L 27688.020833 46490.104167 L 27615.885417 46526.041667 L 27471.875 46526.041667 L 27400 46490.104167 L 27328.125 46417.96875 L 27291.927083 46273.958333 L 27291.927083 46021.875 L 27328.125 45878.125 L 27400 45805.989583 L 27471.875 45770.052083 " transform="matrix(0.015,0,0,0.015,0,0)"/>
<path style="fill:none;stroke-width:76;stroke-linecap:round;stroke-linejoin:round;stroke:rgb(0%,0%,0%);stroke-opacity:1;stroke-miterlimit:10;" d="M 28120.052083 45770.052083 L 28120.052083 46382.03125 L 28155.989583 46453.90625 L 28191.927083 46490.104167 L 28264.0625 46526.041667 L 28408.072917 46526.041667 L 28479.947917 46490.104167 L 28515.885417 46453.90625 L 28552.083333 46382.03125 L 28552.083333 45770.052083 " transform="matrix(0.015,0,0,0.015,0,0)"/>
<path style="fill:none;stroke-width:76;stroke-linecap:round;stroke-linejoin:round;stroke:rgb(0%,0%,0%);stroke-opacity:1;stroke-miterlimit:10;" d="M 28803.90625 45770.052083 L 29235.9375 45770.052083 " transform="matrix(0.015,0,0,0.015,0,0)"/>
<path style="fill:none;stroke-width:76;stroke-linecap:round;stroke-linejoin:round;stroke:rgb(0%,0%,0%);stroke-opacity:1;stroke-miterlimit:10;" d="M 29020.052083 46526.041667 L 29020.052083 45770.052083 " transform="matrix(0.015,0,0,0.015,0,0)"/>
<path style="fill:none;stroke-width:23;stroke-linecap:round;stroke-linejoin:round;stroke:rgb(0%,0%,0%);stroke-opacity:1;stroke-miterlimit:10;" d="M 26440.104167 45103.90625 L 25720.052083 44384.114583 " transform="matrix(0.015,0,0,0.015,0,0)"/>
<path style="fill:none;stroke-width:23;stroke-linecap:round;stroke-linejoin:round;stroke:rgb(0%,0%,0%);stroke-opacity:1;stroke-miterlimit:10;" d="M 27640.104167 45103.90625 L 26440.104167 45103.90625 " transform="matrix(0.015,0,0,0.015,0,0)"/>
<path style="fill:none;stroke-width:23;stroke-linecap:round;stroke-linejoin:round;stroke:rgb(0%,0%,0%);stroke-opacity:1;stroke-miterlimit:10;" d="M 28359.895833 44384.114583 L 27640.104167 45103.90625 " transform="matrix(0.015,0,0,0.015,0,0)"/>
<path style="fill:none;stroke-width:23;stroke-linecap:round;stroke-linejoin:round;stroke:rgb(0%,0%,0%);stroke-opacity:1;stroke-miterlimit:10;" d="M 25720.052083 44384.114583 L 25720.052083 43184.114583 " transform="matrix(0.015,0,0,0.015,0,0)"/>
<path style="fill:none;stroke-width:23;stroke-linecap:round;stroke-linejoin:round;stroke:rgb(0%,0%,0%);stroke-opacity:1;stroke-miterlimit:10;" d="M 28690.885417 43784.375 C 28690.885417 44374.21875 28376.302083 44919.010417 27865.625 45213.802083 C 27355.208333 45508.59375 26726.041667 45508.59375 26215.364583 45213.802083 C 25704.6875 44919.010417 25390.104167 44374.21875 25390.104167 43784.375 C 25390.104167 43194.791667 25704.6875 42650 26215.364583 42355.208333 C 26726.041667 42060.416667 27355.208333 42060.416667 27865.625 42355.208333 C 28376.302083 42650 28690.885417 43194.791667 28690.885417 43784.375 Z M 28690.885417 43784.375 " transform="matrix(0.015,0,0,0.015,0,0)"/>
<path style="fill:none;stroke-width:23;stroke-linecap:round;stroke-linejoin:round;stroke:rgb(0%,0%,0%);stroke-opacity:1;stroke-miterlimit:10;" d="M 27940.885417 43784.375 C 27940.885417 44106.25 27769.270833 44403.385417 27490.625 44564.322917 C 27212.239583 44725.260417 26868.75 44725.260417 26590.364583 44564.322917 C 26311.71875 44403.385417 26140.104167 44106.25 26140.104167 43784.375 C 26140.104167 43462.760417 26311.71875 43165.625 26590.364583 43004.6875 C 26868.75 42843.75 27212.239583 42843.75 27490.625 43004.6875 C 27769.270833 43165.625 27940.885417 43462.760417 27940.885417 43784.375 Z M 27940.885417 43784.375 " transform="matrix(0.015,0,0,0.015,0,0)"/>
<path style="fill:none;stroke-width:76;stroke-linecap:round;stroke-linejoin:round;stroke:rgb(0%,0%,0%);stroke-opacity:1;stroke-miterlimit:10;" d="M 25996.09375 41126.041667 L 25996.09375 40370.052083 " transform="matrix(0.015,0,0,0.015,0,0)"/>
<path style="fill:none;stroke-width:76;stroke-linecap:round;stroke-linejoin:round;stroke:rgb(0%,0%,0%);stroke-opacity:1;stroke-miterlimit:10;" d="M 26355.989583 41126.041667 L 26355.989583 40370.052083 L 26788.020833 41126.041667 L 26788.020833 40370.052083 " transform="matrix(0.015,0,0,0.015,0,0)"/>
<path style="fill:none;stroke-width:76;stroke-linecap:round;stroke-linejoin:round;stroke:rgb(0%,0%,0%);stroke-opacity:1;stroke-miterlimit:10;" d="M 27652.083333 40370.052083 L 28120.052083 40370.052083 L 27867.96875 40658.072917 L 27976.041667 40658.072917 L 28047.916667 40694.010417 L 28084.114583 40729.947917 L 28120.052083 40802.083333 L 28120.052083 40982.03125 L 28084.114583 41053.90625 L 28047.916667 41090.104167 L 27976.041667 41126.041667 L 27759.895833 41126.041667 L 27688.020833 41090.104167 L 27652.083333 41053.90625 " transform="matrix(0.015,0,0,0.015,0,0)"/>
<path style="fill:none;stroke-width:23;stroke-linecap:round;stroke-linejoin:round;stroke:rgb(0%,0%,0%);stroke-opacity:1;stroke-miterlimit:10;" d="M 25720.052083 43184.114583 L 26440.104167 42464.0625 " transform="matrix(0.015,0,0,0.015,0,0)"/>
<path style="fill:none;stroke-width:23;stroke-linecap:round;stroke-linejoin:round;stroke:rgb(0%,0%,0%);stroke-opacity:1;stroke-miterlimit:10;" d="M 27640.104167 42464.0625 L 28359.895833 43184.114583 " transform="matrix(0.015,0,0,0.015,0,0)"/>
<path style="fill:none;stroke-width:23;stroke-linecap:round;stroke-linejoin:round;stroke:rgb(0%,0%,0%);stroke-opacity:1;stroke-miterlimit:10;" d="M 28359.895833 43184.114583 L 28359.895833 44384.114583 " transform="matrix(0.015,0,0,0.015,0,0)"/>
<path style="fill:none;stroke-width:23;stroke-linecap:round;stroke-linejoin:round;stroke:rgb(0%,0%,0%);stroke-opacity:1;stroke-miterlimit:10;" d="M 26440.104167 42464.0625 L 27640.104167 42464.0625 " transform="matrix(0.015,0,0,0.015,0,0)"/>
<path style="fill:none;stroke-width:76;stroke-linecap:round;stroke-linejoin:round;stroke:rgb(0%,0%,0%);stroke-opacity:1;stroke-miterlimit:10;" d="M 11884.114583 45770.052083 L 12028.125 45770.052083 L 12100 45805.989583 L 12171.875 45878.125 L 12208.072917 46021.875 L 12208.072917 46273.958333 L 12171.875 46417.96875 L 12100 46490.104167 L 12028.125 46526.041667 L 11884.114583 46526.041667 L 11811.979167 46490.104167 L 11740.104167 46417.96875 L 11703.90625 46273.958333 L 11703.90625 46021.875 L 11740.104167 45878.125 L 11811.979167 45805.989583 L 11884.114583 45770.052083 " transform="matrix(0.015,0,0,0.015,0,0)"/>
<path style="fill:none;stroke-width:76;stroke-linecap:round;stroke-linejoin:round;stroke:rgb(0%,0%,0%);stroke-opacity:1;stroke-miterlimit:10;" d="M 12532.03125 45770.052083 L 12532.03125 46382.03125 L 12567.96875 46453.90625 L 12603.90625 46490.104167 L 12676.041667 46526.041667 L 12820.052083 46526.041667 L 12891.927083 46490.104167 L 12928.125 46453.90625 L 12964.0625 46382.03125 L 12964.0625 45770.052083 " transform="matrix(0.015,0,0,0.015,0,0)"/>
<path style="fill:none;stroke-width:76;stroke-linecap:round;stroke-linejoin:round;stroke:rgb(0%,0%,0%);stroke-opacity:1;stroke-miterlimit:10;" d="M 13215.885417 45770.052083 L 13647.916667 45770.052083 " transform="matrix(0.015,0,0,0.015,0,0)"/>
<path style="fill:none;stroke-width:76;stroke-linecap:round;stroke-linejoin:round;stroke:rgb(0%,0%,0%);stroke-opacity:1;stroke-miterlimit:10;" d="M 13432.03125 46526.041667 L 13432.03125 45770.052083 " transform="matrix(0.015,0,0,0.015,0,0)"/>
<path style="fill:none;stroke-width:23;stroke-linecap:round;stroke-linejoin:round;stroke:rgb(0%,0%,0%);stroke-opacity:1;stroke-miterlimit:10;" d="M 12040.104167 45103.90625 L 11320.052083 44384.114583 " transform="matrix(0.015,0,0,0.015,0,0)"/>
<path style="fill:none;stroke-width:23;stroke-linecap:round;stroke-linejoin:round;stroke:rgb(0%,0%,0%);stroke-opacity:1;stroke-miterlimit:10;" d="M 13240.104167 45103.90625 L 12040.104167 45103.90625 " transform="matrix(0.015,0,0,0.015,0,0)"/>
<path style="fill:none;stroke-width:23;stroke-linecap:round;stroke-linejoin:round;stroke:rgb(0%,0%,0%);stroke-opacity:1;stroke-miterlimit:10;" d="M 13959.895833 44384.114583 L 13240.104167 45103.90625 " transform="matrix(0.015,0,0,0.015,0,0)"/>
<path style="fill:none;stroke-width:23;stroke-linecap:round;stroke-linejoin:round;stroke:rgb(0%,0%,0%);stroke-opacity:1;stroke-miterlimit:10;" d="M 18520.052083 43184.114583 L 19240.104167 42464.0625 " transform="matrix(0.015,0,0,0.015,0,0)"/>
<path style="fill:none;stroke-width:23;stroke-linecap:round;stroke-linejoin:round;stroke:rgb(0%,0%,0%);stroke-opacity:1;stroke-miterlimit:10;" d="M 20440.104167 42464.0625 L 21159.895833 43184.114583 " transform="matrix(0.015,0,0,0.015,0,0)"/>
<path style="fill:none;stroke-width:23;stroke-linecap:round;stroke-linejoin:round;stroke:rgb(0%,0%,0%);stroke-opacity:1;stroke-miterlimit:10;" d="M 21159.895833 43184.114583 L 21159.895833 44384.114583 " transform="matrix(0.015,0,0,0.015,0,0)"/>
<path style="fill:none;stroke-width:23;stroke-linecap:round;stroke-linejoin:round;stroke:rgb(0%,0%,0%);stroke-opacity:1;stroke-miterlimit:10;" d="M 18520.052083 44384.114583 L 18520.052083 43184.114583 " transform="matrix(0.015,0,0,0.015,0,0)"/>
<path style="fill:none;stroke-width:23;stroke-linecap:round;stroke-linejoin:round;stroke:rgb(0%,0%,0%);stroke-opacity:1;stroke-miterlimit:10;" d="M 19240.104167 42464.0625 L 20440.104167 42464.0625 " transform="matrix(0.015,0,0,0.015,0,0)"/>
<path style="fill:none;stroke-width:23;stroke-linecap:round;stroke-linejoin:round;stroke:rgb(0%,0%,0%);stroke-opacity:1;stroke-miterlimit:10;" d="M 21490.885417 43784.375 C 21490.885417 44374.21875 21176.302083 44919.010417 20665.625 45213.802083 C 20155.208333 45508.59375 19526.041667 45508.59375 19015.364583 45213.802083 C 18504.6875 44919.010417 18190.104167 44374.21875 18190.104167 43784.375 C 18190.104167 43194.791667 18504.6875 42650 19015.364583 42355.208333 C 19526.041667 42060.416667 20155.208333 42060.416667 20665.625 42355.208333 C 21176.302083 42650 21490.885417 43194.791667 21490.885417 43784.375 Z M 21490.885417 43784.375 " transform="matrix(0.015,0,0,0.015,0,0)"/>
<path style="fill:none;stroke-width:23;stroke-linecap:round;stroke-linejoin:round;stroke:rgb(0%,0%,0%);stroke-opacity:1;stroke-miterlimit:10;" d="M 20740.885417 43784.375 C 20740.885417 44106.25 20569.270833 44403.385417 20290.625 44564.322917 C 20012.239583 44725.260417 19668.75 44725.260417 19390.364583 44564.322917 C 19111.71875 44403.385417 18940.104167 44106.25 18940.104167 43784.375 C 18940.104167 43462.760417 19111.71875 43165.625 19390.364583 43004.6875 C 19668.75 42843.75 20012.239583 42843.75 20290.625 43004.6875 C 20569.270833 43165.625 20740.885417 43462.760417 20740.885417 43784.375 Z M 20740.885417 43784.375 " transform="matrix(0.015,0,0,0.015,0,0)"/>
<path style="fill:none;stroke-width:23;stroke-linecap:round;stroke-linejoin:round;stroke:rgb(0%,0%,0%);stroke-opacity:1;stroke-miterlimit:10;" d="M 11320.052083 43184.114583 L 12040.104167 42464.0625 " transform="matrix(0.015,0,0,0.015,0,0)"/>
<path style="fill:none;stroke-width:23;stroke-linecap:round;stroke-linejoin:round;stroke:rgb(0%,0%,0%);stroke-opacity:1;stroke-miterlimit:10;" d="M 13959.895833 43184.114583 L 13959.895833 44384.114583 " transform="matrix(0.015,0,0,0.015,0,0)"/>
<path style="fill:none;stroke-width:23;stroke-linecap:round;stroke-linejoin:round;stroke:rgb(0%,0%,0%);stroke-opacity:1;stroke-miterlimit:10;" d="M 11320.052083 44384.114583 L 11320.052083 43184.114583 " transform="matrix(0.015,0,0,0.015,0,0)"/>
<path style="fill:none;stroke-width:23;stroke-linecap:round;stroke-linejoin:round;stroke:rgb(0%,0%,0%);stroke-opacity:1;stroke-miterlimit:10;" d="M 12040.104167 42464.0625 L 13240.104167 42464.0625 " transform="matrix(0.015,0,0,0.015,0,0)"/>
<path style="fill:none;stroke-width:23;stroke-linecap:round;stroke-linejoin:round;stroke:rgb(0%,0%,0%);stroke-opacity:1;stroke-miterlimit:10;" d="M 14290.885417 43784.375 C 14290.885417 44374.21875 13976.302083 44919.010417 13465.625 45213.802083 C 12955.208333 45508.59375 12326.041667 45508.59375 11815.364583 45213.802083 C 11304.6875 44919.010417 10990.104167 44374.21875 10990.104167 43784.375 C 10990.104167 43194.791667 11304.6875 42650 11815.364583 42355.208333 C 12326.041667 42060.416667 12955.208333 42060.416667 13465.625 42355.208333 C 13976.302083 42650 14290.885417 43194.791667 14290.885417 43784.375 Z M 14290.885417 43784.375 " transform="matrix(0.015,0,0,0.015,0,0)"/>
<path style="fill:none;stroke-width:23;stroke-linecap:round;stroke-linejoin:round;stroke:rgb(0%,0%,0%);stroke-opacity:1;stroke-miterlimit:10;" d="M 13540.885417 43784.375 C 13540.885417 44106.25 13369.270833 44403.385417 13090.625 44564.322917 C 12812.239583 44725.260417 12468.75 44725.260417 12190.364583 44564.322917 C 11911.71875 44403.385417 11740.104167 44106.25 11740.104167 43784.375 C 11740.104167 43462.760417 11911.71875 43165.625 12190.364583 43004.6875 C 12468.75 42843.75 12812.239583 42843.75 13090.625 43004.6875 C 13369.270833 43165.625 13540.885417 43462.760417 13540.885417 43784.375 Z M 13540.885417 43784.375 " transform="matrix(0.015,0,0,0.015,0,0)"/>
<path style="fill:none;stroke-width:23;stroke-linecap:round;stroke-linejoin:round;stroke:rgb(0%,0%,0%);stroke-opacity:1;stroke-miterlimit:10;" d="M 26290.104167 33322.916667 L 25720.052083 34184.114583 " transform="matrix(0.015,0,0,0.015,0,0)"/>
<path style="fill:none;stroke-width:9;stroke-linecap:round;stroke-linejoin:round;stroke:rgb(0%,0%,0%);stroke-opacity:1;stroke-miterlimit:10;" d="M 28540.885417 32024.479167 C 28540.885417 32560.677083 28254.947917 33055.989583 27790.625 33323.958333 C 27326.5625 33591.927083 26754.427083 33591.927083 26290.364583 33323.958333 C 25826.041667 33055.989583 25540.104167 32560.677083 25540.104167 32024.479167 C 25540.104167 31488.541667 25826.041667 30992.96875 26290.364583 30725 C 26754.427083 30457.03125 27326.5625 30457.03125 27790.625 30725 C 28254.947917 30992.96875 28540.885417 31488.541667 28540.885417 32024.479167 Z M 28540.885417 32024.479167 " transform="matrix(0.015,0,0,0.015,0,0)"/>
<path style="fill:none;stroke-width:76;stroke-linecap:round;stroke-linejoin:round;stroke:rgb(0%,0%,0%);stroke-opacity:1;stroke-miterlimit:10;" d="M 18796.09375 35726.041667 L 18796.09375 34970.052083 " transform="matrix(0.015,0,0,0.015,0,0)"/>
<path style="fill:none;stroke-width:76;stroke-linecap:round;stroke-linejoin:round;stroke:rgb(0%,0%,0%);stroke-opacity:1;stroke-miterlimit:10;" d="M 19155.989583 35726.041667 L 19155.989583 34970.052083 L 19588.020833 35726.041667 L 19588.020833 34970.052083 " transform="matrix(0.015,0,0,0.015,0,0)"/>
<path style="fill:none;stroke-width:76;stroke-linecap:round;stroke-linejoin:round;stroke:rgb(0%,0%,0%);stroke-opacity:1;stroke-miterlimit:10;" d="M 20488.020833 35041.927083 L 20523.958333 35005.989583 L 20596.09375 34970.052083 L 20776.041667 34970.052083 L 20847.916667 35005.989583 L 20884.114583 35041.927083 L 20920.052083 35114.0625 L 20920.052083 35185.9375 L 20884.114583 35294.010417 L 20452.083333 35726.041667 L 20920.052083 35726.041667 " transform="matrix(0.015,0,0,0.015,0,0)"/>
<path style="fill:none;stroke-width:23;stroke-linecap:round;stroke-linejoin:round;stroke:rgb(0%,0%,0%);stroke-opacity:1;stroke-miterlimit:10;" d="M 25720.052083 38984.114583 L 25720.052083 37784.114583 " transform="matrix(0.015,0,0,0.015,0,0)"/>
<path style="fill:none;stroke-width:9;stroke-linecap:round;stroke-linejoin:round;stroke:rgb(0%,0%,0%);stroke-opacity:1;stroke-miterlimit:10;" d="M 21340.885417 32024.479167 C 21340.885417 32560.677083 21054.947917 33055.989583 20590.625 33323.958333 C 20126.5625 33591.927083 19554.427083 33591.927083 19090.364583 33323.958333 C 18626.041667 33055.989583 18340.104167 32560.677083 18340.104167 32024.479167 C 18340.104167 31488.541667 18626.041667 30992.96875 19090.364583 30725 C 19554.427083 30457.03125 20126.5625 30457.03125 20590.625 30725 C 21054.947917 30992.96875 21340.885417 31488.541667 21340.885417 32024.479167 Z M 21340.885417 32024.479167 " transform="matrix(0.015,0,0,0.015,0,0)"/>
<path style="fill:none;stroke-width:76;stroke-linecap:round;stroke-linejoin:round;stroke:rgb(0%,0%,0%);stroke-opacity:1;stroke-miterlimit:10;" d="M 11596.09375 41126.041667 L 11596.09375 40370.052083 " transform="matrix(0.015,0,0,0.015,0,0)"/>
<path style="fill:none;stroke-width:76;stroke-linecap:round;stroke-linejoin:round;stroke:rgb(0%,0%,0%);stroke-opacity:1;stroke-miterlimit:10;" d="M 11955.989583 41126.041667 L 11955.989583 40370.052083 L 12388.020833 41126.041667 L 12388.020833 40370.052083 " transform="matrix(0.015,0,0,0.015,0,0)"/>
<path style="fill:none;stroke-width:76;stroke-linecap:round;stroke-linejoin:round;stroke:rgb(0%,0%,0%);stroke-opacity:1;stroke-miterlimit:10;" d="M 13720.052083 41126.041667 L 13288.020833 41126.041667 " transform="matrix(0.015,0,0,0.015,0,0)"/>
<path style="fill:none;stroke-width:76;stroke-linecap:round;stroke-linejoin:round;stroke:rgb(0%,0%,0%);stroke-opacity:1;stroke-miterlimit:10;" d="M 13503.90625 41126.041667 L 13503.90625 40370.052083 L 13432.03125 40478.125 L 13359.895833 40550 L 13288.020833 40585.9375 " transform="matrix(0.015,0,0,0.015,0,0)"/>
<path style="fill:none;stroke-width:23;stroke-linecap:round;stroke-linejoin:round;stroke:rgb(0%,0%,0%);stroke-opacity:1;stroke-miterlimit:10;" d="M 13240.104167 42464.0625 L 13959.895833 43184.114583 " transform="matrix(0.015,0,0,0.015,0,0)"/>
<path style="fill:none;stroke-width:23;stroke-linecap:round;stroke-linejoin:round;stroke:rgb(0%,0%,0%);stroke-opacity:1;stroke-miterlimit:10;" d="M 13959.895833 38984.114583 L 13240.104167 39703.90625 " transform="matrix(0.015,0,0,0.015,0,0)"/>
<path style="fill:none;stroke-width:23;stroke-linecap:round;stroke-linejoin:round;stroke:rgb(0%,0%,0%);stroke-opacity:1;stroke-miterlimit:10;" d="M 19240.104167 39703.90625 L 18520.052083 38984.114583 " transform="matrix(0.015,0,0,0.015,0,0)"/>
<path style="fill:none;stroke-width:76;stroke-linecap:round;stroke-linejoin:round;stroke:rgb(0%,0%,0%);stroke-opacity:1;stroke-miterlimit:10;" d="M 18796.09375 41126.041667 L 18796.09375 40370.052083 " transform="matrix(0.015,0,0,0.015,0,0)"/>
<path style="fill:none;stroke-width:76;stroke-linecap:round;stroke-linejoin:round;stroke:rgb(0%,0%,0%);stroke-opacity:1;stroke-miterlimit:10;" d="M 19155.989583 41126.041667 L 19155.989583 40370.052083 L 19588.020833 41126.041667 L 19588.020833 40370.052083 " transform="matrix(0.015,0,0,0.015,0,0)"/>
<path style="fill:none;stroke-width:76;stroke-linecap:round;stroke-linejoin:round;stroke:rgb(0%,0%,0%);stroke-opacity:1;stroke-miterlimit:10;" d="M 20488.020833 40441.927083 L 20523.958333 40405.989583 L 20596.09375 40370.052083 L 20776.041667 40370.052083 L 20847.916667 40405.989583 L 20884.114583 40441.927083 L 20920.052083 40514.0625 L 20920.052083 40585.9375 L 20884.114583 40694.010417 L 20452.083333 41126.041667 L 20920.052083 41126.041667 " transform="matrix(0.015,0,0,0.015,0,0)"/>
<path style="fill:none;stroke-width:23;stroke-linecap:round;stroke-linejoin:round;stroke:rgb(0%,0%,0%);stroke-opacity:1;stroke-miterlimit:10;" d="M 20440.104167 39703.90625 L 19240.104167 39703.90625 " transform="matrix(0.015,0,0,0.015,0,0)"/>
<path style="fill:none;stroke-width:23;stroke-linecap:round;stroke-linejoin:round;stroke:rgb(0%,0%,0%);stroke-opacity:1;stroke-miterlimit:10;" d="M 21159.895833 38984.114583 L 20440.104167 39703.90625 " transform="matrix(0.015,0,0,0.015,0,0)"/>
<path style="fill:none;stroke-width:23;stroke-linecap:round;stroke-linejoin:round;stroke:rgb(0%,0%,0%);stroke-opacity:1;stroke-miterlimit:10;" d="M 21159.895833 37784.114583 L 21159.895833 38984.114583 " transform="matrix(0.015,0,0,0.015,0,0)"/>
<path style="fill:none;stroke-width:76;stroke-linecap:round;stroke-linejoin:round;stroke:rgb(0%,0%,0%);stroke-opacity:1;stroke-miterlimit:10;" d="M 25996.09375 35726.041667 L 25996.09375 34970.052083 " transform="matrix(0.015,0,0,0.015,0,0)"/>
<path style="fill:none;stroke-width:76;stroke-linecap:round;stroke-linejoin:round;stroke:rgb(0%,0%,0%);stroke-opacity:1;stroke-miterlimit:10;" d="M 26355.989583 35726.041667 L 26355.989583 34970.052083 L 26788.020833 35726.041667 L 26788.020833 34970.052083 " transform="matrix(0.015,0,0,0.015,0,0)"/>
<path style="fill:none;stroke-width:76;stroke-linecap:round;stroke-linejoin:round;stroke:rgb(0%,0%,0%);stroke-opacity:1;stroke-miterlimit:10;" d="M 27652.083333 34970.052083 L 28120.052083 34970.052083 L 27867.96875 35258.072917 L 27976.041667 35258.072917 L 28047.916667 35294.010417 L 28084.114583 35329.947917 L 28120.052083 35402.083333 L 28120.052083 35582.03125 L 28084.114583 35653.90625 L 28047.916667 35690.104167 L 27976.041667 35726.041667 L 27759.895833 35726.041667 L 27688.020833 35690.104167 L 27652.083333 35653.90625 " transform="matrix(0.015,0,0,0.015,0,0)"/>
<path style="fill:none;stroke-width:23;stroke-linecap:round;stroke-linejoin:round;stroke:rgb(0%,0%,0%);stroke-opacity:1;stroke-miterlimit:10;" d="M 25720.052083 37784.114583 L 26440.104167 37064.0625 " transform="matrix(0.015,0,0,0.015,0,0)"/>
<path style="fill:none;stroke-width:23;stroke-linecap:round;stroke-linejoin:round;stroke:rgb(0%,0%,0%);stroke-opacity:1;stroke-miterlimit:10;" d="M 27640.104167 37064.0625 L 28359.895833 37784.114583 " transform="matrix(0.015,0,0,0.015,0,0)"/>
<path style="fill:none;stroke-width:23;stroke-linecap:round;stroke-linejoin:round;stroke:rgb(0%,0%,0%);stroke-opacity:1;stroke-miterlimit:10;" d="M 26440.104167 37064.0625 L 27640.104167 37064.0625 " transform="matrix(0.015,0,0,0.015,0,0)"/>
<path style="fill:none;stroke-width:23;stroke-linecap:round;stroke-linejoin:round;stroke:rgb(0%,0%,0%);stroke-opacity:1;stroke-miterlimit:10;" d="M 18520.052083 37784.114583 L 19240.104167 37064.0625 " transform="matrix(0.015,0,0,0.015,0,0)"/>
<path style="fill:none;stroke-width:23;stroke-linecap:round;stroke-linejoin:round;stroke:rgb(0%,0%,0%);stroke-opacity:1;stroke-miterlimit:10;" d="M 18520.052083 38984.114583 L 18520.052083 37784.114583 " transform="matrix(0.015,0,0,0.015,0,0)"/>
<path style="fill:none;stroke-width:23;stroke-linecap:round;stroke-linejoin:round;stroke:rgb(0%,0%,0%);stroke-opacity:1;stroke-miterlimit:10;" d="M 20440.104167 37064.0625 L 21159.895833 37784.114583 " transform="matrix(0.015,0,0,0.015,0,0)"/>
<path style="fill:none;stroke-width:23;stroke-linecap:round;stroke-linejoin:round;stroke:rgb(0%,0%,0%);stroke-opacity:1;stroke-miterlimit:10;" d="M 19240.104167 37064.0625 L 20440.104167 37064.0625 " transform="matrix(0.015,0,0,0.015,0,0)"/>
<path style="fill:none;stroke-width:23;stroke-linecap:round;stroke-linejoin:round;stroke:rgb(0%,0%,0%);stroke-opacity:1;stroke-miterlimit:10;" d="M 21490.885417 38384.375 C 21490.885417 38974.21875 21176.302083 39519.010417 20665.625 39813.802083 C 20155.208333 40108.59375 19526.041667 40108.59375 19015.364583 39813.802083 C 18504.6875 39519.010417 18190.104167 38974.21875 18190.104167 38384.375 C 18190.104167 37794.791667 18504.6875 37250 19015.364583 36955.208333 C 19526.041667 36660.416667 20155.208333 36660.416667 20665.625 36955.208333 C 21176.302083 37250 21490.885417 37794.791667 21490.885417 38384.375 Z M 21490.885417 38384.375 " transform="matrix(0.015,0,0,0.015,0,0)"/>
<path style="fill:none;stroke-width:23;stroke-linecap:round;stroke-linejoin:round;stroke:rgb(0%,0%,0%);stroke-opacity:1;stroke-miterlimit:10;" d="M 26440.104167 39703.90625 L 25720.052083 38984.114583 " transform="matrix(0.015,0,0,0.015,0,0)"/>
<path style="fill:none;stroke-width:23;stroke-linecap:round;stroke-linejoin:round;stroke:rgb(0%,0%,0%);stroke-opacity:1;stroke-miterlimit:10;" d="M 27640.104167 39703.90625 L 26440.104167 39703.90625 " transform="matrix(0.015,0,0,0.015,0,0)"/>
<path style="fill:none;stroke-width:23;stroke-linecap:round;stroke-linejoin:round;stroke:rgb(0%,0%,0%);stroke-opacity:1;stroke-miterlimit:10;" d="M 28359.895833 38984.114583 L 27640.104167 39703.90625 " transform="matrix(0.015,0,0,0.015,0,0)"/>
<path style="fill:none;stroke-width:23;stroke-linecap:round;stroke-linejoin:round;stroke:rgb(0%,0%,0%);stroke-opacity:1;stroke-miterlimit:10;" d="M 28359.895833 37784.114583 L 28359.895833 38984.114583 " transform="matrix(0.015,0,0,0.015,0,0)"/>
<path style="fill:none;stroke-width:23;stroke-linecap:round;stroke-linejoin:round;stroke:rgb(0%,0%,0%);stroke-opacity:1;stroke-miterlimit:10;" d="M 27940.885417 38384.375 C 27940.885417 38706.25 27769.270833 39003.385417 27490.625 39164.322917 C 27212.239583 39325.260417 26868.75 39325.260417 26590.364583 39164.322917 C 26311.71875 39003.385417 26140.104167 38706.25 26140.104167 38384.375 C 26140.104167 38062.760417 26311.71875 37765.625 26590.364583 37604.6875 C 26868.75 37443.75 27212.239583 37443.75 27490.625 37604.6875 C 27769.270833 37765.625 27940.885417 38062.760417 27940.885417 38384.375 Z M 27940.885417 38384.375 " transform="matrix(0.015,0,0,0.015,0,0)"/>
<path style="fill:none;stroke-width:23;stroke-linecap:round;stroke-linejoin:round;stroke:rgb(0%,0%,0%);stroke-opacity:1;stroke-miterlimit:10;" d="M 28690.885417 38384.375 C 28690.885417 38974.21875 28376.302083 39519.010417 27865.625 39813.802083 C 27355.208333 40108.59375 26726.041667 40108.59375 26215.364583 39813.802083 C 25704.6875 39519.010417 25390.104167 38974.21875 25390.104167 38384.375 C 25390.104167 37794.791667 25704.6875 37250 26215.364583 36955.208333 C 26726.041667 36660.416667 27355.208333 36660.416667 27865.625 36955.208333 C 28376.302083 37250 28690.885417 37794.791667 28690.885417 38384.375 Z M 28690.885417 38384.375 " transform="matrix(0.015,0,0,0.015,0,0)"/>
</g>
</svg>
