<?xml version="1.0" encoding="UTF-8"?>
<svg xmlns="http://www.w3.org/2000/svg" xmlns:xlink="http://www.w3.org/1999/xlink" width="595.275591pt" height="841.889764pt" viewBox="0 0 595.275591 841.889764" version="1.2">
<g id="surface9947">
<rect x="0" y="0" width="595.275591" height="841.889764" style="fill:rgb(100%,100%,100%);fill-opacity:1;stroke:none;"/>
<path style="fill:none;stroke-width:9;stroke-linecap:round;stroke-linejoin:round;stroke:rgb(0%,0%,0%);stroke-opacity:1;stroke-miterlimit:10;" d="M 29440.885417 47864.583333 C 29440.885417 48079.166667 29326.5625 48277.34375 29140.625 48384.635417 C 28954.947917 48491.927083 28726.041667 48491.927083 28540.364583 48384.635417 C 28354.427083 48277.34375 28240.104167 48079.166667 28240.104167 47864.583333 C 28240.104167 47650 28354.427083 47451.822917 28540.364583 47344.53125 C 28726.041667 47237.239583 28954.947917 47237.239583 29140.625 47344.53125 C 29326.5625 47451.822917 29440.885417 47650 29440.885417 47864.583333 Z M 29440.885417 47864.583333 " transform="matrix(0.015,0,0,0.015,0,0)"/>
<path style="fill:none;stroke-width:9;stroke-linecap:round;stroke-linejoin:round;stroke:rgb(0%,0%,0%);stroke-opacity:1;stroke-miterlimit:10;" d="M 11440.885417 8264.583333 C 11440.885417 8479.166667 11326.5625 8677.34375 11140.625 8784.635417 C 10954.947917 8891.927083 10726.041667 8891.927083 10540.364583 8784.635417 C 10354.427083 8677.34375 10240.104167 8479.166667 10240.104167 8264.583333 C 10240.104167 8050 10354.427083 7851.822917 10540.364583 7744.53125 C 10726.041667 7637.239583 10954.947917 7637.239583 11140.625 7744.53125 C 11326.5625 7851.822917 11440.885417 8050 11440.885417 8264.583333 Z M 11440.885417 8264.583333 " transform="matrix(0.015,0,0,0.015,0,0)"/>
<path style="fill:none;stroke-width:9;stroke-linecap:round;stroke-linejoin:round;stroke:rgb(0%,0%,0%);stroke-opacity:1;stroke-miterlimit:10;" d="M 30040.104167 7064.0625 L 30040.104167 49064.0625 " transform="matrix(0.015,0,0,0.015,0,0)"/>
<path style="fill:none;stroke-width:9;stroke-linecap:round;stroke-linejoin:round;stroke:rgb(0%,0%,0%);stroke-opacity:1;stroke-miterlimit:10;" d="M 9640.104167 49064.0625 L 30040.104167 49064.0625 " transform="matrix(0.015,0,0,0.015,0,0)"/>
<path style="fill:none;stroke-width:9;stroke-linecap:round;stroke-linejoin:round;stroke:rgb(0%,0%,0%);stroke-opacity:1;stroke-miterlimit:10;" d="M 9640.104167 7064.0625 L 9640.104167 49064.0625 " transform="matrix(0.015,0,0,0.015,0,0)"/>
<path style="fill:none;stroke-width:9;stroke-linecap:round;stroke-linejoin:round;stroke:rgb(0%,0%,0%);stroke-opacity:1;stroke-miterlimit:10;" d="M 9640.104167 7064.0625 L 30040.104167 7064.0625 " transform="matrix(0.015,0,0,0.015,0,0)"/>
<path style="fill:none;stroke-width:76;stroke-linecap:round;stroke-linejoin:round;stroke:rgb(0%,0%,0%);stroke-opacity:1;stroke-miterlimit:10;" d="M 22767.96875 8150 L 23128.125 8150 " transform="matrix(0.015,0,0,0.015,0,0)"/>
<path style="fill:none;stroke-width:76;stroke-linecap:round;stroke-linejoin:round;stroke:rgb(0%,0%,0%);stroke-opacity:1;stroke-miterlimit:10;" d="M 22696.09375 8365.885417 L 22947.916667 7609.895833 L 23200 8365.885417 " transform="matrix(0.015,0,0,0.015,0,0)"/>
<path style="fill:none;stroke-width:76;stroke-linecap:round;stroke-linejoin:round;stroke:rgb(0%,0%,0%);stroke-opacity:1;stroke-miterlimit:10;" d="M 23884.114583 8294.010417 L 23847.916667 8329.947917 L 23740.104167 8365.885417 L 23667.96875 8365.885417 L 23559.895833 8329.947917 L 23488.020833 8258.072917 L 23452.083333 8185.9375 L 23415.885417 8041.927083 L 23415.885417 7934.114583 L 23452.083333 7790.104167 L 23488.020833 7717.96875 L 23559.895833 7646.09375 L 23667.96875 7609.895833 L 23740.104167 7609.895833 L 23847.916667 7646.09375 L 23884.114583 7682.03125 " transform="matrix(0.015,0,0,0.015,0,0)"/>
<path style="fill:none;stroke-width:76;stroke-linecap:round;stroke-linejoin:round;stroke:rgb(0%,0%,0%);stroke-opacity:1;stroke-miterlimit:10;" d="M 24676.041667 7609.895833 L 24928.125 8365.885417 L 25179.947917 7609.895833 " transform="matrix(0.015,0,0,0.015,0,0)"/>
<path style="fill:none;stroke-width:76;stroke-linecap:round;stroke-linejoin:round;stroke:rgb(0%,0%,0%);stroke-opacity:1;stroke-miterlimit:10;" d="M 25864.0625 8294.010417 L 25828.125 8329.947917 L 25720.052083 8365.885417 L 25647.916667 8365.885417 L 25540.104167 8329.947917 L 25467.96875 8258.072917 L 25432.03125 8185.9375 L 25396.09375 8041.927083 L 25396.09375 7934.114583 L 25432.03125 7790.104167 L 25467.96875 7717.96875 L 25540.104167 7646.09375 L 25647.916667 7609.895833 L 25720.052083 7609.895833 L 25828.125 7646.09375 L 25864.0625 7682.03125 " transform="matrix(0.015,0,0,0.015,0,0)"/>
<path style="fill:none;stroke-width:76;stroke-linecap:round;stroke-linejoin:round;stroke:rgb(0%,0%,0%);stroke-opacity:1;stroke-miterlimit:10;" d="M 26152.083333 8150 L 26511.979167 8150 " transform="matrix(0.015,0,0,0.015,0,0)"/>
<path style="fill:none;stroke-width:76;stroke-linecap:round;stroke-linejoin:round;stroke:rgb(0%,0%,0%);stroke-opacity:1;stroke-miterlimit:10;" d="M 26079.947917 8365.885417 L 26332.03125 7609.895833 L 26584.114583 8365.885417 " transform="matrix(0.015,0,0,0.015,0,0)"/>
<path style="fill:none;stroke-width:76;stroke-linecap:round;stroke-linejoin:round;stroke:rgb(0%,0%,0%);stroke-opacity:1;stroke-miterlimit:10;" d="M 23902.083333 22694.010417 L 23865.885417 22729.947917 L 23758.072917 22765.885417 L 23685.9375 22765.885417 L 23578.125 22729.947917 L 23505.989583 22658.072917 L 23470.052083 22585.9375 L 23434.114583 22441.927083 L 23434.114583 22334.114583 L 23470.052083 22190.104167 L 23505.989583 22117.96875 L 23578.125 22046.09375 L 23685.9375 22009.895833 L 23758.072917 22009.895833 L 23865.885417 22046.09375 L 23902.083333 22082.03125 " transform="matrix(0.015,0,0,0.015,0,0)"/>
<path style="fill:none;stroke-width:76;stroke-linecap:round;stroke-linejoin:round;stroke:rgb(0%,0%,0%);stroke-opacity:1;stroke-miterlimit:10;" d="M 24117.96875 22009.895833 L 24370.052083 22765.885417 L 24621.875 22009.895833 " transform="matrix(0.015,0,0,0.015,0,0)"/>
<path style="fill:none;stroke-width:76;stroke-linecap:round;stroke-linejoin:round;stroke:rgb(0%,0%,0%);stroke-opacity:1;stroke-miterlimit:10;" d="M 25846.09375 22765.885417 L 25414.0625 22765.885417 " transform="matrix(0.015,0,0,0.015,0,0)"/>
<path style="fill:none;stroke-width:76;stroke-linecap:round;stroke-linejoin:round;stroke:rgb(0%,0%,0%);stroke-opacity:1;stroke-miterlimit:10;" d="M 25629.947917 22765.885417 L 25629.947917 22009.895833 L 25558.072917 22117.96875 L 25485.9375 22190.104167 L 25414.0625 22226.041667 " transform="matrix(0.015,0,0,0.015,0,0)"/>
<path style="fill:none;stroke-width:76;stroke-linecap:round;stroke-linejoin:round;stroke:rgb(0%,0%,0%);stroke-opacity:1;stroke-miterlimit:10;" d="M 22965.885417 15565.885417 L 22965.885417 14809.895833 " transform="matrix(0.015,0,0,0.015,0,0)"/>
<path style="fill:none;stroke-width:76;stroke-linecap:round;stroke-linejoin:round;stroke:rgb(0%,0%,0%);stroke-opacity:1;stroke-miterlimit:10;" d="M 23326.041667 15565.885417 L 23326.041667 14809.895833 L 23758.072917 15565.885417 L 23758.072917 14809.895833 " transform="matrix(0.015,0,0,0.015,0,0)"/>
<path style="fill:none;stroke-width:76;stroke-linecap:round;stroke-linejoin:round;stroke:rgb(0%,0%,0%);stroke-opacity:1;stroke-miterlimit:10;" d="M 24117.96875 15565.885417 L 24117.96875 14809.895833 " transform="matrix(0.015,0,0,0.015,0,0)"/>
<path style="fill:none;stroke-width:76;stroke-linecap:round;stroke-linejoin:round;stroke:rgb(0%,0%,0%);stroke-opacity:1;stroke-miterlimit:10;" d="M 24370.052083 14809.895833 L 24802.083333 14809.895833 " transform="matrix(0.015,0,0,0.015,0,0)"/>
<path style="fill:none;stroke-width:76;stroke-linecap:round;stroke-linejoin:round;stroke:rgb(0%,0%,0%);stroke-opacity:1;stroke-miterlimit:10;" d="M 24585.9375 15565.885417 L 24585.9375 14809.895833 " transform="matrix(0.015,0,0,0.015,0,0)"/>
<path style="fill:none;stroke-width:76;stroke-linecap:round;stroke-linejoin:round;stroke:rgb(0%,0%,0%);stroke-opacity:1;stroke-miterlimit:10;" d="M 25053.90625 15565.885417 L 25053.90625 14809.895833 " transform="matrix(0.015,0,0,0.015,0,0)"/>
<path style="fill:none;stroke-width:76;stroke-linecap:round;stroke-linejoin:round;stroke:rgb(0%,0%,0%);stroke-opacity:1;stroke-miterlimit:10;" d="M 25378.125 15350 L 25738.020833 15350 " transform="matrix(0.015,0,0,0.015,0,0)"/>
<path style="fill:none;stroke-width:76;stroke-linecap:round;stroke-linejoin:round;stroke:rgb(0%,0%,0%);stroke-opacity:1;stroke-miterlimit:10;" d="M 25305.989583 15565.885417 L 25558.072917 14809.895833 L 25809.895833 15565.885417 " transform="matrix(0.015,0,0,0.015,0,0)"/>
<path style="fill:none;stroke-width:76;stroke-linecap:round;stroke-linejoin:round;stroke:rgb(0%,0%,0%);stroke-opacity:1;stroke-miterlimit:10;" d="M 26421.875 15565.885417 L 26061.979167 15565.885417 L 26061.979167 14809.895833 " transform="matrix(0.015,0,0,0.015,0,0)"/>
<path style="fill:none;stroke-width:23;stroke-linecap:round;stroke-linejoin:round;stroke:rgb(0%,0%,0%);stroke-opacity:1;stroke-miterlimit:10;" d="M 23890.104167 20363.020833 L 23320.052083 21223.958333 " transform="matrix(0.015,0,0,0.015,0,0)"/>
<path style="fill:none;stroke-width:23;stroke-linecap:round;stroke-linejoin:round;stroke:rgb(0%,0%,0%);stroke-opacity:1;stroke-miterlimit:10;" d="M 23890.104167 13163.020833 L 23320.052083 14023.958333 " transform="matrix(0.015,0,0,0.015,0,0)"/>
<path style="fill:none;stroke-width:9;stroke-linecap:round;stroke-linejoin:round;stroke:rgb(0%,0%,0%);stroke-opacity:1;stroke-miterlimit:10;" d="M 26140.885417 19064.583333 C 26140.885417 19600.520833 25854.947917 20095.833333 25390.625 20364.0625 C 24926.5625 20632.03125 24354.427083 20632.03125 23890.364583 20364.0625 C 23426.041667 20095.833333 23140.104167 19600.520833 23140.104167 19064.583333 C 23140.104167 18528.385417 23426.041667 18033.072917 23890.364583 17765.104167 C 24354.427083 17496.875 24926.5625 17496.875 25390.625 17765.104167 C 25854.947917 18033.072917 26140.885417 18528.385417 26140.885417 19064.583333 Z M 26140.885417 19064.583333 " transform="matrix(0.015,0,0,0.015,0,0)"/>
<path style="fill:none;stroke-width:9;stroke-linecap:round;stroke-linejoin:round;stroke:rgb(0%,0%,0%);stroke-opacity:1;stroke-miterlimit:10;" d="M 26140.885417 11864.583333 C 26140.885417 12400.520833 25854.947917 12895.833333 25390.625 13164.0625 C 24926.5625 13432.03125 24354.427083 13432.03125 23890.364583 13164.0625 C 23426.041667 12895.833333 23140.104167 12400.520833 23140.104167 11864.583333 C 23140.104167 11328.385417 23426.041667 10833.072917 23890.364583 10565.104167 C 24354.427083 10296.875 24926.5625 10296.875 25390.625 10565.104167 C 25854.947917 10833.072917 26140.885417 11328.385417 26140.885417 11864.583333 Z M 26140.885417 11864.583333 " transform="matrix(0.015,0,0,0.015,0,0)"/>
<path style="fill:none;stroke-width:76;stroke-linecap:round;stroke-linejoin:round;stroke:rgb(0%,0%,0%);stroke-opacity:1;stroke-miterlimit:10;" d="M 12064.0625 33085.9375 L 12064.0625 32329.947917 L 12244.010417 32329.947917 L 12352.083333 32365.885417 L 12423.958333 32438.020833 L 12459.895833 32509.895833 L 12496.09375 32653.90625 L 12496.09375 32761.979167 L 12459.895833 32905.989583 L 12423.958333 32978.125 L 12352.083333 33050 L 12244.010417 33085.9375 L 12064.0625 33085.9375 " transform="matrix(0.015,0,0,0.015,0,0)"/>
<path style="fill:none;stroke-width:76;stroke-linecap:round;stroke-linejoin:round;stroke:rgb(0%,0%,0%);stroke-opacity:1;stroke-miterlimit:10;" d="M 13252.083333 33014.0625 L 13215.885417 33050 L 13108.072917 33085.9375 L 13035.9375 33085.9375 L 12928.125 33050 L 12855.989583 32978.125 L 12820.052083 32905.989583 L 12784.114583 32761.979167 L 12784.114583 32653.90625 L 12820.052083 32509.895833 L 12855.989583 32438.020833 L 12928.125 32365.885417 L 13035.9375 32329.947917 L 13108.072917 32329.947917 L 13215.885417 32365.885417 L 13252.083333 32402.083333 " transform="matrix(0.015,0,0,0.015,0,0)"/>
<path style="fill:none;stroke-width:76;stroke-linecap:round;stroke-linejoin:round;stroke:rgb(0%,0%,0%);stroke-opacity:1;stroke-miterlimit:10;" d="M 13959.895833 29965.885417 L 13600 29965.885417 L 13600 29209.895833 " transform="matrix(0.015,0,0,0.015,0,0)"/>
<path style="fill:none;stroke-width:76;stroke-linecap:round;stroke-linejoin:round;stroke:rgb(0%,0%,0%);stroke-opacity:1;stroke-miterlimit:10;" d="M 14211.979167 29570.052083 L 14464.0625 29570.052083 " transform="matrix(0.015,0,0,0.015,0,0)"/>
<path style="fill:none;stroke-width:76;stroke-linecap:round;stroke-linejoin:round;stroke:rgb(0%,0%,0%);stroke-opacity:1;stroke-miterlimit:10;" d="M 14571.875 29965.885417 L 14211.979167 29965.885417 L 14211.979167 29209.895833 L 14571.875 29209.895833 " transform="matrix(0.015,0,0,0.015,0,0)"/>
<path style="fill:none;stroke-width:76;stroke-linecap:round;stroke-linejoin:round;stroke:rgb(0%,0%,0%);stroke-opacity:1;stroke-miterlimit:10;" d="M 14788.020833 29209.895833 L 15040.104167 29965.885417 L 15291.927083 29209.895833 " transform="matrix(0.015,0,0,0.015,0,0)"/>
<path style="fill:none;stroke-width:76;stroke-linecap:round;stroke-linejoin:round;stroke:rgb(0%,0%,0%);stroke-opacity:1;stroke-miterlimit:10;" d="M 15544.010417 29570.052083 L 15796.09375 29570.052083 " transform="matrix(0.015,0,0,0.015,0,0)"/>
<path style="fill:none;stroke-width:76;stroke-linecap:round;stroke-linejoin:round;stroke:rgb(0%,0%,0%);stroke-opacity:1;stroke-miterlimit:10;" d="M 15903.90625 29965.885417 L 15544.010417 29965.885417 L 15544.010417 29209.895833 L 15903.90625 29209.895833 " transform="matrix(0.015,0,0,0.015,0,0)"/>
<path style="fill:none;stroke-width:76;stroke-linecap:round;stroke-linejoin:round;stroke:rgb(0%,0%,0%);stroke-opacity:1;stroke-miterlimit:10;" d="M 16588.020833 29965.885417 L 16228.125 29965.885417 L 16228.125 29209.895833 " transform="matrix(0.015,0,0,0.015,0,0)"/>
<path style="fill:none;stroke-width:23;stroke-linecap:round;stroke-linejoin:round;stroke:rgb(0%,0%,0%);stroke-opacity:1;stroke-miterlimit:10;" d="M 14920.572917 33464.583333 C 14920.572917 33332.03125 15027.864583 33224.479167 15160.416667 33224.479167 C 15292.96875 33224.479167 15400.520833 33332.03125 15400.520833 33464.583333 " transform="matrix(0.015,0,0,0.015,0,0)"/>
<path style="fill:none;stroke-width:23;stroke-linecap:round;stroke-linejoin:round;stroke:rgb(0%,0%,0%);stroke-opacity:1;stroke-miterlimit:10;" d="M 14320.052083 33103.90625 L 14800 32623.958333 " transform="matrix(0.015,0,0,0.015,0,0)"/>
<path style="fill:none;stroke-width:23;stroke-linecap:round;stroke-linejoin:round;stroke:rgb(0%,0%,0%);stroke-opacity:1;stroke-miterlimit:10;" d="M 14290.104167 27563.020833 L 13720.052083 28423.958333 " transform="matrix(0.015,0,0,0.015,0,0)"/>
<path style="fill:none;stroke-width:9;stroke-linecap:round;stroke-linejoin:round;stroke:rgb(0%,0%,0%);stroke-opacity:1;stroke-miterlimit:10;" d="M 16540.885417 26264.583333 C 16540.885417 26800.520833 16254.947917 27295.833333 15790.625 27564.0625 C 15326.5625 27832.03125 14754.427083 27832.03125 14290.364583 27564.0625 C 13826.041667 27295.833333 13540.104167 26800.520833 13540.104167 26264.583333 C 13540.104167 25728.385417 13826.041667 25233.072917 14290.364583 24965.104167 C 14754.427083 24696.875 15326.5625 24696.875 15790.625 24965.104167 C 16254.947917 25233.072917 16540.885417 25728.385417 16540.885417 26264.583333 Z M 16540.885417 26264.583333 " transform="matrix(0.015,0,0,0.015,0,0)"/>
<path style="fill:none;stroke-width:9;stroke-linecap:round;stroke-linejoin:round;stroke:rgb(0%,0%,0%);stroke-opacity:1;stroke-miterlimit:10;" d="M 17590.885417 26264.583333 C 17590.885417 27175.78125 17104.947917 28017.708333 16315.625 28473.177083 C 15526.5625 28928.90625 14554.427083 28928.90625 13765.364583 28473.177083 C 12976.041667 28017.708333 12490.104167 27175.78125 12490.104167 26264.583333 C 12490.104167 25353.385417 12976.041667 24511.197917 13765.364583 24055.729167 C 14554.427083 23600 15526.5625 23600 16315.625 24055.729167 C 17104.947917 24511.197917 17590.885417 25353.385417 17590.885417 26264.583333 Z M 17590.885417 26264.583333 " transform="matrix(0.015,0,0,0.015,0,0)"/>
<path style="fill:none;stroke-width:23;stroke-linecap:round;stroke-linejoin:round;stroke:rgb(0%,0%,0%);stroke-opacity:1;stroke-miterlimit:10;" d="M 14920.572917 34064.583333 C 14733.072917 33989.583333 14591.40625 33831.25 14537.760417 33636.71875 C 14483.854167 33442.1875 14523.958333 33233.854167 14646.354167 33073.177083 C 14768.489583 32912.5 14958.59375 32818.229167 15160.416667 32818.229167 C 15362.239583 32818.229167 15552.604167 32912.5 15674.739583 33073.177083 C 15796.875 33233.854167 15837.239583 33442.1875 15783.333333 33636.71875 C 15729.427083 33831.25 15588.020833 33989.583333 15400.520833 34064.583333 " transform="matrix(0.015,0,0,0.015,0,0)"/>
<path style="fill:none;stroke-width:23;stroke-linecap:round;stroke-linejoin:round;stroke:rgb(0%,0%,0%);stroke-opacity:1;stroke-miterlimit:10;" d="M 15520.052083 34303.90625 L 15400 34303.90625 " transform="matrix(0.015,0,0,0.015,0,0)"/>
<path style="fill:none;stroke-width:23;stroke-linecap:round;stroke-linejoin:round;stroke:rgb(0%,0%,0%);stroke-opacity:1;stroke-miterlimit:10;" d="M 16000 33823.958333 L 15520.052083 34303.90625 " transform="matrix(0.015,0,0,0.015,0,0)"/>
<path style="fill:none;stroke-width:23;stroke-linecap:round;stroke-linejoin:round;stroke:rgb(0%,0%,0%);stroke-opacity:1;stroke-miterlimit:10;" d="M 16000 33103.90625 L 16000 33823.958333 " transform="matrix(0.015,0,0,0.015,0,0)"/>
<path style="fill:none;stroke-width:23;stroke-linecap:round;stroke-linejoin:round;stroke:rgb(0%,0%,0%);stroke-opacity:1;stroke-miterlimit:10;" d="M 19840.104167 7064.0625 L 19840.104167 49064.0625 " transform="matrix(0.015,0,0,0.015,0,0)"/>
<path style="fill:none;stroke-width:76;stroke-linecap:round;stroke-linejoin:round;stroke:rgb(0%,0%,0%);stroke-opacity:1;stroke-miterlimit:10;" d="M 23559.895833 29965.885417 L 23200 29965.885417 L 23200 29209.895833 " transform="matrix(0.015,0,0,0.015,0,0)"/>
<path style="fill:none;stroke-width:76;stroke-linecap:round;stroke-linejoin:round;stroke:rgb(0%,0%,0%);stroke-opacity:1;stroke-miterlimit:10;" d="M 23811.979167 29570.052083 L 24064.0625 29570.052083 " transform="matrix(0.015,0,0,0.015,0,0)"/>
<path style="fill:none;stroke-width:76;stroke-linecap:round;stroke-linejoin:round;stroke:rgb(0%,0%,0%);stroke-opacity:1;stroke-miterlimit:10;" d="M 24171.875 29965.885417 L 23811.979167 29965.885417 L 23811.979167 29209.895833 L 24171.875 29209.895833 " transform="matrix(0.015,0,0,0.015,0,0)"/>
<path style="fill:none;stroke-width:76;stroke-linecap:round;stroke-linejoin:round;stroke:rgb(0%,0%,0%);stroke-opacity:1;stroke-miterlimit:10;" d="M 24388.020833 29209.895833 L 24640.104167 29965.885417 L 24891.927083 29209.895833 " transform="matrix(0.015,0,0,0.015,0,0)"/>
<path style="fill:none;stroke-width:76;stroke-linecap:round;stroke-linejoin:round;stroke:rgb(0%,0%,0%);stroke-opacity:1;stroke-miterlimit:10;" d="M 25144.010417 29570.052083 L 25396.09375 29570.052083 " transform="matrix(0.015,0,0,0.015,0,0)"/>
<path style="fill:none;stroke-width:76;stroke-linecap:round;stroke-linejoin:round;stroke:rgb(0%,0%,0%);stroke-opacity:1;stroke-miterlimit:10;" d="M 25503.90625 29965.885417 L 25144.010417 29965.885417 L 25144.010417 29209.895833 L 25503.90625 29209.895833 " transform="matrix(0.015,0,0,0.015,0,0)"/>
<path style="fill:none;stroke-width:76;stroke-linecap:round;stroke-linejoin:round;stroke:rgb(0%,0%,0%);stroke-opacity:1;stroke-miterlimit:10;" d="M 26188.020833 29965.885417 L 25828.125 29965.885417 L 25828.125 29209.895833 " transform="matrix(0.015,0,0,0.015,0,0)"/>
<path style="fill:none;stroke-width:23;stroke-linecap:round;stroke-linejoin:round;stroke:rgb(0%,0%,0%);stroke-opacity:1;stroke-miterlimit:10;" d="M 25720.052083 38264.0625 L 26440.104167 37544.010417 " transform="matrix(0.015,0,0,0.015,0,0)"/>
<path style="fill:none;stroke-width:23;stroke-linecap:round;stroke-linejoin:round;stroke:rgb(0%,0%,0%);stroke-opacity:1;stroke-miterlimit:10;" d="M 23890.104167 27563.020833 L 23320.052083 28423.958333 " transform="matrix(0.015,0,0,0.015,0,0)"/>
<path style="fill:none;stroke-width:9;stroke-linecap:round;stroke-linejoin:round;stroke:rgb(0%,0%,0%);stroke-opacity:1;stroke-miterlimit:10;" d="M 26140.885417 26264.583333 C 26140.885417 26800.520833 25854.947917 27295.833333 25390.625 27564.0625 C 24926.5625 27832.03125 24354.427083 27832.03125 23890.364583 27564.0625 C 23426.041667 27295.833333 23140.104167 26800.520833 23140.104167 26264.583333 C 23140.104167 25728.385417 23426.041667 25233.072917 23890.364583 24965.104167 C 24354.427083 24696.875 24926.5625 24696.875 25390.625 24965.104167 C 25854.947917 25233.072917 26140.885417 25728.385417 26140.885417 26264.583333 Z M 26140.885417 26264.583333 " transform="matrix(0.015,0,0,0.015,0,0)"/>
<path style="fill:none;stroke-width:9;stroke-linecap:round;stroke-linejoin:round;stroke:rgb(0%,0%,0%);stroke-opacity:1;stroke-miterlimit:10;" d="M 27190.885417 26264.583333 C 27190.885417 27175.78125 26704.947917 28017.708333 25915.625 28473.177083 C 25126.5625 28928.90625 24154.427083 28928.90625 23365.364583 28473.177083 C 22576.041667 28017.708333 22090.104167 27175.78125 22090.104167 26264.583333 C 22090.104167 25353.385417 22576.041667 24511.197917 23365.364583 24055.729167 C 24154.427083 23600 25126.5625 23600 25915.625 24055.729167 C 26704.947917 24511.197917 27190.885417 25353.385417 27190.885417 26264.583333 Z M 27190.885417 26264.583333 " transform="matrix(0.015,0,0,0.015,0,0)"/>
<path style="fill:none;stroke-width:9;stroke-linecap:round;stroke-linejoin:round;stroke:rgb(0%,0%,0%);stroke-opacity:1;stroke-miterlimit:10;" d="M 27190.885417 19064.583333 C 27190.885417 19975.78125 26704.947917 20817.708333 25915.625 21273.177083 C 25126.5625 21728.90625 24154.427083 21728.90625 23365.364583 21273.177083 C 22576.041667 20817.708333 22090.104167 19975.78125 22090.104167 19064.583333 C 22090.104167 18153.385417 22576.041667 17311.197917 23365.364583 16855.729167 C 24154.427083 16400 25126.5625 16400 25915.625 16855.729167 C 26704.947917 17311.197917 27190.885417 18153.385417 27190.885417 19064.583333 Z M 27190.885417 19064.583333 " transform="matrix(0.015,0,0,0.015,0,0)"/>
<path style="fill:none;stroke-width:9;stroke-linecap:round;stroke-linejoin:round;stroke:rgb(0%,0%,0%);stroke-opacity:1;stroke-miterlimit:10;" d="M 27190.885417 11864.583333 C 27190.885417 12775.78125 26704.947917 13617.708333 25915.625 14073.177083 C 25126.5625 14528.90625 24154.427083 14528.90625 23365.364583 14073.177083 C 22576.041667 13617.708333 22090.104167 12775.78125 22090.104167 11864.583333 C 22090.104167 10953.385417 22576.041667 10111.197917 23365.364583 9655.729167 C 24154.427083 9200 25126.5625 9200 25915.625 9655.729167 C 26704.947917 10111.197917 27190.885417 10953.385417 27190.885417 11864.583333 Z M 27190.885417 11864.583333 " transform="matrix(0.015,0,0,0.015,0,0)"/>
<path style="fill:none;stroke-width:76;stroke-linecap:round;stroke-linejoin:round;stroke:rgb(0%,0%,0%);stroke-opacity:1;stroke-miterlimit:10;" d="M 14302.083333 22694.010417 L 14265.885417 22729.947917 L 14158.072917 22765.885417 L 14085.9375 22765.885417 L 13978.125 22729.947917 L 13905.989583 22658.072917 L 13870.052083 22585.9375 L 13834.114583 22441.927083 L 13834.114583 22334.114583 L 13870.052083 22190.104167 L 13905.989583 22117.96875 L 13978.125 22046.09375 L 14085.9375 22009.895833 L 14158.072917 22009.895833 L 14265.885417 22046.09375 L 14302.083333 22082.03125 " transform="matrix(0.015,0,0,0.015,0,0)"/>
<path style="fill:none;stroke-width:76;stroke-linecap:round;stroke-linejoin:round;stroke:rgb(0%,0%,0%);stroke-opacity:1;stroke-miterlimit:10;" d="M 14517.96875 22009.895833 L 14770.052083 22765.885417 L 15021.875 22009.895833 " transform="matrix(0.015,0,0,0.015,0,0)"/>
<path style="fill:none;stroke-width:76;stroke-linecap:round;stroke-linejoin:round;stroke:rgb(0%,0%,0%);stroke-opacity:1;stroke-miterlimit:10;" d="M 16246.09375 22765.885417 L 15814.0625 22765.885417 " transform="matrix(0.015,0,0,0.015,0,0)"/>
<path style="fill:none;stroke-width:76;stroke-linecap:round;stroke-linejoin:round;stroke:rgb(0%,0%,0%);stroke-opacity:1;stroke-miterlimit:10;" d="M 16029.947917 22765.885417 L 16029.947917 22009.895833 L 15958.072917 22117.96875 L 15885.9375 22190.104167 L 15814.0625 22226.041667 " transform="matrix(0.015,0,0,0.015,0,0)"/>
<path style="fill:none;stroke-width:23;stroke-linecap:round;stroke-linejoin:round;stroke:rgb(0%,0%,0%);stroke-opacity:1;stroke-miterlimit:10;" d="M 14290.104167 20363.020833 L 13720.052083 21223.958333 " transform="matrix(0.015,0,0,0.015,0,0)"/>
<path style="fill:none;stroke-width:9;stroke-linecap:round;stroke-linejoin:round;stroke:rgb(0%,0%,0%);stroke-opacity:1;stroke-miterlimit:10;" d="M 16540.885417 19064.583333 C 16540.885417 19600.520833 16254.947917 20095.833333 15790.625 20364.0625 C 15326.5625 20632.03125 14754.427083 20632.03125 14290.364583 20364.0625 C 13826.041667 20095.833333 13540.104167 19600.520833 13540.104167 19064.583333 C 13540.104167 18528.385417 13826.041667 18033.072917 14290.364583 17765.104167 C 14754.427083 17496.875 15326.5625 17496.875 15790.625 17765.104167 C 16254.947917 18033.072917 16540.885417 18528.385417 16540.885417 19064.583333 Z M 16540.885417 19064.583333 " transform="matrix(0.015,0,0,0.015,0,0)"/>
<path style="fill:none;stroke-width:9;stroke-linecap:round;stroke-linejoin:round;stroke:rgb(0%,0%,0%);stroke-opacity:1;stroke-miterlimit:10;" d="M 17590.885417 19064.583333 C 17590.885417 19975.78125 17104.947917 20817.708333 16315.625 21273.177083 C 15526.5625 21728.90625 14554.427083 21728.90625 13765.364583 21273.177083 C 12976.041667 20817.708333 12490.104167 19975.78125 12490.104167 19064.583333 C 12490.104167 18153.385417 12976.041667 17311.197917 13765.364583 16855.729167 C 14554.427083 16400 15526.5625 16400 16315.625 16855.729167 C 17104.947917 17311.197917 17590.885417 18153.385417 17590.885417 19064.583333 Z M 17590.885417 19064.583333 " transform="matrix(0.015,0,0,0.015,0,0)"/>
<path style="fill:none;stroke-width:76;stroke-linecap:round;stroke-linejoin:round;stroke:rgb(0%,0%,0%);stroke-opacity:1;stroke-miterlimit:10;" d="M 13365.885417 15565.885417 L 13365.885417 14809.895833 " transform="matrix(0.015,0,0,0.015,0,0)"/>
<path style="fill:none;stroke-width:76;stroke-linecap:round;stroke-linejoin:round;stroke:rgb(0%,0%,0%);stroke-opacity:1;stroke-miterlimit:10;" d="M 13726.041667 15565.885417 L 13726.041667 14809.895833 L 14158.072917 15565.885417 L 14158.072917 14809.895833 " transform="matrix(0.015,0,0,0.015,0,0)"/>
<path style="fill:none;stroke-width:76;stroke-linecap:round;stroke-linejoin:round;stroke:rgb(0%,0%,0%);stroke-opacity:1;stroke-miterlimit:10;" d="M 14517.96875 15565.885417 L 14517.96875 14809.895833 " transform="matrix(0.015,0,0,0.015,0,0)"/>
<path style="fill:none;stroke-width:76;stroke-linecap:round;stroke-linejoin:round;stroke:rgb(0%,0%,0%);stroke-opacity:1;stroke-miterlimit:10;" d="M 14770.052083 14809.895833 L 15202.083333 14809.895833 " transform="matrix(0.015,0,0,0.015,0,0)"/>
<path style="fill:none;stroke-width:76;stroke-linecap:round;stroke-linejoin:round;stroke:rgb(0%,0%,0%);stroke-opacity:1;stroke-miterlimit:10;" d="M 14985.9375 15565.885417 L 14985.9375 14809.895833 " transform="matrix(0.015,0,0,0.015,0,0)"/>
<path style="fill:none;stroke-width:76;stroke-linecap:round;stroke-linejoin:round;stroke:rgb(0%,0%,0%);stroke-opacity:1;stroke-miterlimit:10;" d="M 15453.90625 15565.885417 L 15453.90625 14809.895833 " transform="matrix(0.015,0,0,0.015,0,0)"/>
<path style="fill:none;stroke-width:76;stroke-linecap:round;stroke-linejoin:round;stroke:rgb(0%,0%,0%);stroke-opacity:1;stroke-miterlimit:10;" d="M 15778.125 15350 L 16138.020833 15350 " transform="matrix(0.015,0,0,0.015,0,0)"/>
<path style="fill:none;stroke-width:76;stroke-linecap:round;stroke-linejoin:round;stroke:rgb(0%,0%,0%);stroke-opacity:1;stroke-miterlimit:10;" d="M 15705.989583 15565.885417 L 15958.072917 14809.895833 L 16209.895833 15565.885417 " transform="matrix(0.015,0,0,0.015,0,0)"/>
<path style="fill:none;stroke-width:76;stroke-linecap:round;stroke-linejoin:round;stroke:rgb(0%,0%,0%);stroke-opacity:1;stroke-miterlimit:10;" d="M 16821.875 15565.885417 L 16461.979167 15565.885417 L 16461.979167 14809.895833 " transform="matrix(0.015,0,0,0.015,0,0)"/>
<path style="fill:none;stroke-width:76;stroke-linecap:round;stroke-linejoin:round;stroke:rgb(0%,0%,0%);stroke-opacity:1;stroke-miterlimit:10;" d="M 12411.979167 8150 L 12771.875 8150 " transform="matrix(0.015,0,0,0.015,0,0)"/>
<path style="fill:none;stroke-width:76;stroke-linecap:round;stroke-linejoin:round;stroke:rgb(0%,0%,0%);stroke-opacity:1;stroke-miterlimit:10;" d="M 12340.104167 8365.885417 L 12591.927083 7609.895833 L 12844.010417 8365.885417 " transform="matrix(0.015,0,0,0.015,0,0)"/>
<path style="fill:none;stroke-width:76;stroke-linecap:round;stroke-linejoin:round;stroke:rgb(0%,0%,0%);stroke-opacity:1;stroke-miterlimit:10;" d="M 13528.125 8294.010417 L 13491.927083 8329.947917 L 13384.114583 8365.885417 L 13311.979167 8365.885417 L 13203.90625 8329.947917 L 13132.03125 8258.072917 L 13096.09375 8185.9375 L 13059.895833 8041.927083 L 13059.895833 7934.114583 L 13096.09375 7790.104167 L 13132.03125 7717.96875 L 13203.90625 7646.09375 L 13311.979167 7609.895833 L 13384.114583 7609.895833 L 13491.927083 7646.09375 L 13528.125 7682.03125 " transform="matrix(0.015,0,0,0.015,0,0)"/>
<path style="fill:none;stroke-width:76;stroke-linecap:round;stroke-linejoin:round;stroke:rgb(0%,0%,0%);stroke-opacity:1;stroke-miterlimit:10;" d="M 13852.083333 8365.885417 L 13852.083333 7609.895833 L 14032.03125 7609.895833 L 14140.104167 7646.09375 L 14211.979167 7717.96875 L 14247.916667 7790.104167 L 14284.114583 7934.114583 L 14284.114583 8041.927083 L 14247.916667 8185.9375 L 14211.979167 8258.072917 L 14140.104167 8329.947917 L 14032.03125 8365.885417 L 13852.083333 8365.885417 " transform="matrix(0.015,0,0,0.015,0,0)"/>
<path style="fill:none;stroke-width:76;stroke-linecap:round;stroke-linejoin:round;stroke:rgb(0%,0%,0%);stroke-opacity:1;stroke-miterlimit:10;" d="M 15040.104167 8294.010417 L 15003.90625 8329.947917 L 14896.09375 8365.885417 L 14823.958333 8365.885417 L 14715.885417 8329.947917 L 14644.010417 8258.072917 L 14608.072917 8185.9375 L 14571.875 8041.927083 L 14571.875 7934.114583 L 14608.072917 7790.104167 L 14644.010417 7717.96875 L 14715.885417 7646.09375 L 14823.958333 7609.895833 L 14896.09375 7609.895833 L 15003.90625 7646.09375 L 15040.104167 7682.03125 " transform="matrix(0.015,0,0,0.015,0,0)"/>
<path style="fill:none;stroke-width:76;stroke-linecap:round;stroke-linejoin:round;stroke:rgb(0%,0%,0%);stroke-opacity:1;stroke-miterlimit:10;" d="M 15832.03125 7609.895833 L 16084.114583 8365.885417 L 16335.9375 7609.895833 " transform="matrix(0.015,0,0,0.015,0,0)"/>
<path style="fill:none;stroke-width:76;stroke-linecap:round;stroke-linejoin:round;stroke:rgb(0%,0%,0%);stroke-opacity:1;stroke-miterlimit:10;" d="M 17020.052083 8294.010417 L 16984.114583 8329.947917 L 16876.041667 8365.885417 L 16803.90625 8365.885417 L 16696.09375 8329.947917 L 16623.958333 8258.072917 L 16588.020833 8185.9375 L 16552.083333 8041.927083 L 16552.083333 7934.114583 L 16588.020833 7790.104167 L 16623.958333 7717.96875 L 16696.09375 7646.09375 L 16803.90625 7609.895833 L 16876.041667 7609.895833 L 16984.114583 7646.09375 L 17020.052083 7682.03125 " transform="matrix(0.015,0,0,0.015,0,0)"/>
<path style="fill:none;stroke-width:76;stroke-linecap:round;stroke-linejoin:round;stroke:rgb(0%,0%,0%);stroke-opacity:1;stroke-miterlimit:10;" d="M 17308.072917 8150 L 17667.96875 8150 " transform="matrix(0.015,0,0,0.015,0,0)"/>
<path style="fill:none;stroke-width:76;stroke-linecap:round;stroke-linejoin:round;stroke:rgb(0%,0%,0%);stroke-opacity:1;stroke-miterlimit:10;" d="M 17235.9375 8365.885417 L 17488.020833 7609.895833 L 17740.104167 8365.885417 " transform="matrix(0.015,0,0,0.015,0,0)"/>
<path style="fill:none;stroke-width:23;stroke-linecap:round;stroke-linejoin:round;stroke:rgb(0%,0%,0%);stroke-opacity:1;stroke-miterlimit:10;" d="M 14290.104167 13163.020833 L 13720.052083 14023.958333 " transform="matrix(0.015,0,0,0.015,0,0)"/>
<path style="fill:none;stroke-width:9;stroke-linecap:round;stroke-linejoin:round;stroke:rgb(0%,0%,0%);stroke-opacity:1;stroke-miterlimit:10;" d="M 16540.885417 11864.583333 C 16540.885417 12400.520833 16254.947917 12895.833333 15790.625 13164.0625 C 15326.5625 13432.03125 14754.427083 13432.03125 14290.364583 13164.0625 C 13826.041667 12895.833333 13540.104167 12400.520833 13540.104167 11864.583333 C 13540.104167 11328.385417 13826.041667 10833.072917 14290.364583 10565.104167 C 14754.427083 10296.875 15326.5625 10296.875 15790.625 10565.104167 C 16254.947917 10833.072917 16540.885417 11328.385417 16540.885417 11864.583333 Z M 16540.885417 11864.583333 " transform="matrix(0.015,0,0,0.015,0,0)"/>
<path style="fill:none;stroke-width:9;stroke-linecap:round;stroke-linejoin:round;stroke:rgb(0%,0%,0%);stroke-opacity:1;stroke-miterlimit:10;" d="M 17590.885417 11864.583333 C 17590.885417 12775.78125 17104.947917 13617.708333 16315.625 14073.177083 C 15526.5625 14528.90625 14554.427083 14528.90625 13765.364583 14073.177083 C 12976.041667 13617.708333 12490.104167 12775.78125 12490.104167 11864.583333 C 12490.104167 10953.385417 12976.041667 10111.197917 13765.364583 9655.729167 C 14554.427083 9200 15526.5625 9200 16315.625 9655.729167 C 17104.947917 10111.197917 17590.885417 10953.385417 17590.885417 11864.583333 Z M 17590.885417 11864.583333 " transform="matrix(0.015,0,0,0.015,0,0)"/>
<path style="fill:none;stroke-width:76;stroke-linecap:round;stroke-linejoin:round;stroke:rgb(0%,0%,0%);stroke-opacity:1;stroke-miterlimit:10;" d="M 26284.114583 46129.947917 L 26428.125 46129.947917 L 26500 46165.885417 L 26571.875 46238.020833 L 26608.072917 46382.03125 L 26608.072917 46634.114583 L 26571.875 46778.125 L 26500 46850 L 26428.125 46885.9375 L 26284.114583 46885.9375 L 26211.979167 46850 L 26140.104167 46778.125 L 26103.90625 46634.114583 L 26103.90625 46382.03125 L 26140.104167 46238.020833 L 26211.979167 46165.885417 L 26284.114583 46129.947917 " transform="matrix(0.015,0,0,0.015,0,0)"/>
<path style="fill:none;stroke-width:76;stroke-linecap:round;stroke-linejoin:round;stroke:rgb(0%,0%,0%);stroke-opacity:1;stroke-miterlimit:10;" d="M 26932.03125 46129.947917 L 26932.03125 46741.927083 L 26967.96875 46814.0625 L 27003.90625 46850 L 27076.041667 46885.9375 L 27220.052083 46885.9375 L 27291.927083 46850 L 27328.125 46814.0625 L 27364.0625 46741.927083 L 27364.0625 46129.947917 " transform="matrix(0.015,0,0,0.015,0,0)"/>
<path style="fill:none;stroke-width:76;stroke-linecap:round;stroke-linejoin:round;stroke:rgb(0%,0%,0%);stroke-opacity:1;stroke-miterlimit:10;" d="M 27615.885417 46129.947917 L 28047.916667 46129.947917 " transform="matrix(0.015,0,0,0.015,0,0)"/>
<path style="fill:none;stroke-width:76;stroke-linecap:round;stroke-linejoin:round;stroke:rgb(0%,0%,0%);stroke-opacity:1;stroke-miterlimit:10;" d="M 27832.03125 46885.9375 L 27832.03125 46129.947917 " transform="matrix(0.015,0,0,0.015,0,0)"/>
<path style="fill:none;stroke-width:23;stroke-linecap:round;stroke-linejoin:round;stroke:rgb(0%,0%,0%);stroke-opacity:1;stroke-miterlimit:10;" d="M 26440.104167 45584.114583 L 25720.052083 44864.0625 " transform="matrix(0.015,0,0,0.015,0,0)"/>
<path style="fill:none;stroke-width:23;stroke-linecap:round;stroke-linejoin:round;stroke:rgb(0%,0%,0%);stroke-opacity:1;stroke-miterlimit:10;" d="M 25720.052083 43664.0625 L 26440.104167 42944.010417 " transform="matrix(0.015,0,0,0.015,0,0)"/>
<path style="fill:none;stroke-width:23;stroke-linecap:round;stroke-linejoin:round;stroke:rgb(0%,0%,0%);stroke-opacity:1;stroke-miterlimit:10;" d="M 27640.104167 45584.114583 L 26440.104167 45584.114583 " transform="matrix(0.015,0,0,0.015,0,0)"/>
<path style="fill:none;stroke-width:23;stroke-linecap:round;stroke-linejoin:round;stroke:rgb(0%,0%,0%);stroke-opacity:1;stroke-miterlimit:10;" d="M 25720.052083 44864.0625 L 25720.052083 43664.0625 " transform="matrix(0.015,0,0,0.015,0,0)"/>
<path style="fill:none;stroke-width:23;stroke-linecap:round;stroke-linejoin:round;stroke:rgb(0%,0%,0%);stroke-opacity:1;stroke-miterlimit:10;" d="M 26440.104167 42944.010417 L 27640.104167 42944.010417 " transform="matrix(0.015,0,0,0.015,0,0)"/>
<path style="fill:none;stroke-width:23;stroke-linecap:round;stroke-linejoin:round;stroke:rgb(0%,0%,0%);stroke-opacity:1;stroke-miterlimit:10;" d="M 27940.885417 44264.583333 C 27940.885417 44586.197917 27769.270833 44883.59375 27490.625 45044.270833 C 27212.239583 45205.208333 26868.75 45205.208333 26590.364583 45044.270833 C 26311.71875 44883.59375 26140.104167 44586.197917 26140.104167 44264.583333 C 26140.104167 43942.708333 26311.71875 43645.572917 26590.364583 43484.635417 C 26868.75 43323.697917 27212.239583 43323.697917 27490.625 43484.635417 C 27769.270833 43645.572917 27940.885417 43942.708333 27940.885417 44264.583333 Z M 27940.885417 44264.583333 " transform="matrix(0.015,0,0,0.015,0,0)"/>
<path style="fill:none;stroke-width:23;stroke-linecap:round;stroke-linejoin:round;stroke:rgb(0%,0%,0%);stroke-opacity:1;stroke-miterlimit:10;" d="M 27640.104167 42944.010417 L 28359.895833 43664.0625 " transform="matrix(0.015,0,0,0.015,0,0)"/>
<path style="fill:none;stroke-width:23;stroke-linecap:round;stroke-linejoin:round;stroke:rgb(0%,0%,0%);stroke-opacity:1;stroke-miterlimit:10;" d="M 28359.895833 43664.0625 L 28359.895833 44864.0625 " transform="matrix(0.015,0,0,0.015,0,0)"/>
<path style="fill:none;stroke-width:23;stroke-linecap:round;stroke-linejoin:round;stroke:rgb(0%,0%,0%);stroke-opacity:1;stroke-miterlimit:10;" d="M 28359.895833 44864.0625 L 27640.104167 45584.114583 " transform="matrix(0.015,0,0,0.015,0,0)"/>
<path style="fill:none;stroke-width:23;stroke-linecap:round;stroke-linejoin:round;stroke:rgb(0%,0%,0%);stroke-opacity:1;stroke-miterlimit:10;" d="M 22840.104167 42944.010417 L 23559.895833 43664.0625 " transform="matrix(0.015,0,0,0.015,0,0)"/>
<path style="fill:none;stroke-width:23;stroke-linecap:round;stroke-linejoin:round;stroke:rgb(0%,0%,0%);stroke-opacity:1;stroke-miterlimit:10;" d="M 23559.895833 43664.0625 L 23559.895833 44864.0625 " transform="matrix(0.015,0,0,0.015,0,0)"/>
<path style="fill:none;stroke-width:23;stroke-linecap:round;stroke-linejoin:round;stroke:rgb(0%,0%,0%);stroke-opacity:1;stroke-miterlimit:10;" d="M 23559.895833 44864.0625 L 22840.104167 45584.114583 " transform="matrix(0.015,0,0,0.015,0,0)"/>
<path style="fill:none;stroke-width:23;stroke-linecap:round;stroke-linejoin:round;stroke:rgb(0%,0%,0%);stroke-opacity:1;stroke-miterlimit:10;" d="M 28690.885417 44264.583333 C 28690.885417 44854.166667 28376.302083 45398.958333 27865.625 45693.75 C 27355.208333 45988.802083 26726.041667 45988.802083 26215.364583 45693.75 C 25704.6875 45398.958333 25390.104167 44854.166667 25390.104167 44264.583333 C 25390.104167 43674.739583 25704.6875 43129.947917 26215.364583 42835.15625 C 26726.041667 42540.364583 27355.208333 42540.364583 27865.625 42835.15625 C 28376.302083 43129.947917 28690.885417 43674.739583 28690.885417 44264.583333 Z M 28690.885417 44264.583333 " transform="matrix(0.015,0,0,0.015,0,0)"/>
<path style="fill:none;stroke-width:76;stroke-linecap:round;stroke-linejoin:round;stroke:rgb(0%,0%,0%);stroke-opacity:1;stroke-miterlimit:10;" d="M 21844.010417 46885.9375 L 21844.010417 46129.947917 " transform="matrix(0.015,0,0,0.015,0,0)"/>
<path style="fill:none;stroke-width:76;stroke-linecap:round;stroke-linejoin:round;stroke:rgb(0%,0%,0%);stroke-opacity:1;stroke-miterlimit:10;" d="M 22203.90625 46885.9375 L 22203.90625 46129.947917 L 22635.9375 46885.9375 L 22635.9375 46129.947917 " transform="matrix(0.015,0,0,0.015,0,0)"/>
<path style="fill:none;stroke-width:23;stroke-linecap:round;stroke-linejoin:round;stroke:rgb(0%,0%,0%);stroke-opacity:1;stroke-miterlimit:10;" d="M 21640.104167 45584.114583 L 20920.052083 44864.0625 " transform="matrix(0.015,0,0,0.015,0,0)"/>
<path style="fill:none;stroke-width:23;stroke-linecap:round;stroke-linejoin:round;stroke:rgb(0%,0%,0%);stroke-opacity:1;stroke-miterlimit:10;" d="M 20920.052083 43664.0625 L 21640.104167 42944.010417 " transform="matrix(0.015,0,0,0.015,0,0)"/>
<path style="fill:none;stroke-width:23;stroke-linecap:round;stroke-linejoin:round;stroke:rgb(0%,0%,0%);stroke-opacity:1;stroke-miterlimit:10;" d="M 22840.104167 45584.114583 L 21640.104167 45584.114583 " transform="matrix(0.015,0,0,0.015,0,0)"/>
<path style="fill:none;stroke-width:23;stroke-linecap:round;stroke-linejoin:round;stroke:rgb(0%,0%,0%);stroke-opacity:1;stroke-miterlimit:10;" d="M 21640.104167 42944.010417 L 22840.104167 42944.010417 " transform="matrix(0.015,0,0,0.015,0,0)"/>
<path style="fill:none;stroke-width:23;stroke-linecap:round;stroke-linejoin:round;stroke:rgb(0%,0%,0%);stroke-opacity:1;stroke-miterlimit:10;" d="M 23890.885417 44264.583333 C 23890.885417 44854.166667 23576.302083 45398.958333 23065.625 45693.75 C 22555.208333 45988.802083 21926.041667 45988.802083 21415.364583 45693.75 C 20904.6875 45398.958333 20590.104167 44854.166667 20590.104167 44264.583333 C 20590.104167 43674.739583 20904.6875 43129.947917 21415.364583 42835.15625 C 21926.041667 42540.364583 22555.208333 42540.364583 23065.625 42835.15625 C 23576.302083 43129.947917 23890.885417 43674.739583 23890.885417 44264.583333 Z M 23890.885417 44264.583333 " transform="matrix(0.015,0,0,0.015,0,0)"/>
<path style="fill:none;stroke-width:23;stroke-linecap:round;stroke-linejoin:round;stroke:rgb(0%,0%,0%);stroke-opacity:1;stroke-miterlimit:10;" d="M 23140.885417 44264.583333 C 23140.885417 44586.197917 22969.270833 44883.59375 22690.625 45044.270833 C 22412.239583 45205.208333 22068.75 45205.208333 21790.364583 45044.270833 C 21511.71875 44883.59375 21340.104167 44586.197917 21340.104167 44264.583333 C 21340.104167 43942.708333 21511.71875 43645.572917 21790.364583 43484.635417 C 22068.75 43323.697917 22412.239583 43323.697917 22690.625 43484.635417 C 22969.270833 43645.572917 23140.885417 43942.708333 23140.885417 44264.583333 Z M 23140.885417 44264.583333 " transform="matrix(0.015,0,0,0.015,0,0)"/>
<path style="fill:none;stroke-width:76;stroke-linecap:round;stroke-linejoin:round;stroke:rgb(0%,0%,0%);stroke-opacity:1;stroke-miterlimit:10;" d="M 16990.104167 41414.0625 L 16953.90625 41450 L 16846.09375 41485.9375 L 16773.958333 41485.9375 L 16665.885417 41450 L 16594.010417 41378.125 L 16558.072917 41305.989583 L 16521.875 41161.979167 L 16521.875 41053.90625 L 16558.072917 40909.895833 L 16594.010417 40838.020833 L 16665.885417 40765.885417 L 16773.958333 40729.947917 L 16846.09375 40729.947917 L 16953.90625 40765.885417 L 16990.104167 40802.083333 " transform="matrix(0.015,0,0,0.015,0,0)"/>
<path style="fill:none;stroke-width:76;stroke-linecap:round;stroke-linejoin:round;stroke:rgb(0%,0%,0%);stroke-opacity:1;stroke-miterlimit:10;" d="M 17205.989583 40729.947917 L 17458.072917 41485.9375 L 17709.895833 40729.947917 " transform="matrix(0.015,0,0,0.015,0,0)"/>
<path style="fill:none;stroke-width:76;stroke-linecap:round;stroke-linejoin:round;stroke:rgb(0%,0%,0%);stroke-opacity:1;stroke-miterlimit:10;" d="M 17926.041667 40802.083333 L 17961.979167 40765.885417 L 18034.114583 40729.947917 L 18214.0625 40729.947917 L 18285.9375 40765.885417 L 18321.875 40802.083333 L 18358.072917 40873.958333 L 18358.072917 40946.09375 L 18321.875 41053.90625 L 17890.104167 41485.9375 L 18358.072917 41485.9375 " transform="matrix(0.015,0,0,0.015,0,0)"/>
<path style="fill:none;stroke-width:23;stroke-linecap:round;stroke-linejoin:round;stroke:rgb(0%,0%,0%);stroke-opacity:1;stroke-miterlimit:10;" d="M 20920.052083 44864.0625 L 20920.052083 43664.0625 " transform="matrix(0.015,0,0,0.015,0,0)"/>
<path style="fill:none;stroke-width:23;stroke-linecap:round;stroke-linejoin:round;stroke:rgb(0%,0%,0%);stroke-opacity:1;stroke-miterlimit:10;" d="M 16120.052083 43664.0625 L 16840.104167 42944.010417 " transform="matrix(0.015,0,0,0.015,0,0)"/>
<path style="fill:none;stroke-width:23;stroke-linecap:round;stroke-linejoin:round;stroke:rgb(0%,0%,0%);stroke-opacity:1;stroke-miterlimit:10;" d="M 18040.104167 42944.010417 L 18759.895833 43664.0625 " transform="matrix(0.015,0,0,0.015,0,0)"/>
<path style="fill:none;stroke-width:23;stroke-linecap:round;stroke-linejoin:round;stroke:rgb(0%,0%,0%);stroke-opacity:1;stroke-miterlimit:10;" d="M 18759.895833 43664.0625 L 18759.895833 44864.0625 " transform="matrix(0.015,0,0,0.015,0,0)"/>
<path style="fill:none;stroke-width:23;stroke-linecap:round;stroke-linejoin:round;stroke:rgb(0%,0%,0%);stroke-opacity:1;stroke-miterlimit:10;" d="M 16120.052083 44864.0625 L 16120.052083 43664.0625 " transform="matrix(0.015,0,0,0.015,0,0)"/>
<path style="fill:none;stroke-width:23;stroke-linecap:round;stroke-linejoin:round;stroke:rgb(0%,0%,0%);stroke-opacity:1;stroke-miterlimit:10;" d="M 16840.104167 42944.010417 L 18040.104167 42944.010417 " transform="matrix(0.015,0,0,0.015,0,0)"/>
<path style="fill:none;stroke-width:23;stroke-linecap:round;stroke-linejoin:round;stroke:rgb(0%,0%,0%);stroke-opacity:1;stroke-miterlimit:10;" d="M 18340.885417 44264.583333 C 18340.885417 44586.197917 18169.270833 44883.59375 17890.625 45044.270833 C 17612.239583 45205.208333 17268.75 45205.208333 16990.364583 45044.270833 C 16711.71875 44883.59375 16540.104167 44586.197917 16540.104167 44264.583333 C 16540.104167 43942.708333 16711.71875 43645.572917 16990.364583 43484.635417 C 17268.75 43323.697917 17612.239583 43323.697917 17890.625 43484.635417 C 18169.270833 43645.572917 18340.885417 43942.708333 18340.885417 44264.583333 Z M 18340.885417 44264.583333 " transform="matrix(0.015,0,0,0.015,0,0)"/>
<path style="fill:none;stroke-width:76;stroke-linecap:round;stroke-linejoin:round;stroke:rgb(0%,0%,0%);stroke-opacity:1;stroke-miterlimit:10;" d="M 12190.104167 41414.0625 L 12153.90625 41450 L 12046.09375 41485.9375 L 11973.958333 41485.9375 L 11865.885417 41450 L 11794.010417 41378.125 L 11758.072917 41305.989583 L 11721.875 41161.979167 L 11721.875 41053.90625 L 11758.072917 40909.895833 L 11794.010417 40838.020833 L 11865.885417 40765.885417 L 11973.958333 40729.947917 L 12046.09375 40729.947917 L 12153.90625 40765.885417 L 12190.104167 40802.083333 " transform="matrix(0.015,0,0,0.015,0,0)"/>
<path style="fill:none;stroke-width:76;stroke-linecap:round;stroke-linejoin:round;stroke:rgb(0%,0%,0%);stroke-opacity:1;stroke-miterlimit:10;" d="M 12405.989583 40729.947917 L 12658.072917 41485.9375 L 12909.895833 40729.947917 " transform="matrix(0.015,0,0,0.015,0,0)"/>
<path style="fill:none;stroke-width:76;stroke-linecap:round;stroke-linejoin:round;stroke:rgb(0%,0%,0%);stroke-opacity:1;stroke-miterlimit:10;" d="M 13558.072917 41485.9375 L 13126.041667 41485.9375 " transform="matrix(0.015,0,0,0.015,0,0)"/>
<path style="fill:none;stroke-width:76;stroke-linecap:round;stroke-linejoin:round;stroke:rgb(0%,0%,0%);stroke-opacity:1;stroke-miterlimit:10;" d="M 13341.927083 41485.9375 L 13341.927083 40729.947917 L 13270.052083 40838.020833 L 13197.916667 40909.895833 L 13126.041667 40946.09375 " transform="matrix(0.015,0,0,0.015,0,0)"/>
<path style="fill:none;stroke-width:23;stroke-linecap:round;stroke-linejoin:round;stroke:rgb(0%,0%,0%);stroke-opacity:1;stroke-miterlimit:10;" d="M 11320.052083 39464.0625 L 11320.052083 38264.0625 " transform="matrix(0.015,0,0,0.015,0,0)"/>
<path style="fill:none;stroke-width:23;stroke-linecap:round;stroke-linejoin:round;stroke:rgb(0%,0%,0%);stroke-opacity:1;stroke-miterlimit:10;" d="M 12040.104167 40184.114583 L 11320.052083 39464.0625 " transform="matrix(0.015,0,0,0.015,0,0)"/>
<path style="fill:none;stroke-width:23;stroke-linecap:round;stroke-linejoin:round;stroke:rgb(0%,0%,0%);stroke-opacity:1;stroke-miterlimit:10;" d="M 13240.104167 40184.114583 L 12040.104167 40184.114583 " transform="matrix(0.015,0,0,0.015,0,0)"/>
<path style="fill:none;stroke-width:23;stroke-linecap:round;stroke-linejoin:round;stroke:rgb(0%,0%,0%);stroke-opacity:1;stroke-miterlimit:10;" d="M 13959.895833 39464.0625 L 13240.104167 40184.114583 " transform="matrix(0.015,0,0,0.015,0,0)"/>
<path style="fill:none;stroke-width:23;stroke-linecap:round;stroke-linejoin:round;stroke:rgb(0%,0%,0%);stroke-opacity:1;stroke-miterlimit:10;" d="M 13959.895833 38264.0625 L 13959.895833 39464.0625 " transform="matrix(0.015,0,0,0.015,0,0)"/>
<path style="fill:none;stroke-width:23;stroke-linecap:round;stroke-linejoin:round;stroke:rgb(0%,0%,0%);stroke-opacity:1;stroke-miterlimit:10;" d="M 14290.885417 38864.583333 C 14290.885417 39454.166667 13976.302083 39998.958333 13465.625 40293.75 C 12955.208333 40588.802083 12326.041667 40588.802083 11815.364583 40293.75 C 11304.6875 39998.958333 10990.104167 39454.166667 10990.104167 38864.583333 C 10990.104167 38274.739583 11304.6875 37729.947917 11815.364583 37435.15625 C 12326.041667 37140.364583 12955.208333 37140.364583 13465.625 37435.15625 C 13976.302083 37729.947917 14290.885417 38274.739583 14290.885417 38864.583333 Z M 14290.885417 38864.583333 " transform="matrix(0.015,0,0,0.015,0,0)"/>
<path style="fill:none;stroke-width:23;stroke-linecap:round;stroke-linejoin:round;stroke:rgb(0%,0%,0%);stroke-opacity:1;stroke-miterlimit:10;" d="M 13540.885417 38864.583333 C 13540.885417 39186.197917 13369.270833 39483.59375 13090.625 39644.270833 C 12812.239583 39805.208333 12468.75 39805.208333 12190.364583 39644.270833 C 11911.71875 39483.59375 11740.104167 39186.197917 11740.104167 38864.583333 C 11740.104167 38542.708333 11911.71875 38245.572917 12190.364583 38084.635417 C 12468.75 37923.697917 12812.239583 37923.697917 13090.625 38084.635417 C 13369.270833 38245.572917 13540.885417 38542.708333 13540.885417 38864.583333 Z M 13540.885417 38864.583333 " transform="matrix(0.015,0,0,0.015,0,0)"/>
<path style="fill:none;stroke-width:23;stroke-linecap:round;stroke-linejoin:round;stroke:rgb(0%,0%,0%);stroke-opacity:1;stroke-miterlimit:10;" d="M 14920.572917 34664.583333 C 14519.791667 34584.375 14185.677083 34309.635417 14029.6875 33932.03125 C 13873.4375 33554.427083 13916.145833 33123.958333 14143.229167 32784.375 C 14370.3125 32444.53125 14751.822917 32240.625 15160.416667 32240.625 C 15569.010417 32240.625 15950.78125 32444.53125 16177.864583 32784.375 C 16404.947917 33123.958333 16447.395833 33554.427083 16291.40625 33932.03125 C 16135.416667 34309.635417 15801.041667 34584.375 15400.520833 34664.583333 " transform="matrix(0.015,0,0,0.015,0,0)"/>
<path style="fill:none;stroke-width:23;stroke-linecap:round;stroke-linejoin:round;stroke:rgb(0%,0%,0%);stroke-opacity:1;stroke-miterlimit:10;" d="M 15400 33464.0625 L 15400 34903.90625 " transform="matrix(0.015,0,0,0.015,0,0)"/>
<path style="fill:none;stroke-width:23;stroke-linecap:round;stroke-linejoin:round;stroke:rgb(0%,0%,0%);stroke-opacity:1;stroke-miterlimit:10;" d="M 14920.052083 33464.0625 L 14920.052083 34903.90625 " transform="matrix(0.015,0,0,0.015,0,0)"/>
<path style="fill:none;stroke-width:23;stroke-linecap:round;stroke-linejoin:round;stroke:rgb(0%,0%,0%);stroke-opacity:1;stroke-miterlimit:10;" d="M 14320.052083 33823.958333 L 14320.052083 33103.90625 " transform="matrix(0.015,0,0,0.015,0,0)"/>
<path style="fill:none;stroke-width:23;stroke-linecap:round;stroke-linejoin:round;stroke:rgb(0%,0%,0%);stroke-opacity:1;stroke-miterlimit:10;" d="M 14800 34303.90625 L 14320.052083 33823.958333 " transform="matrix(0.015,0,0,0.015,0,0)"/>
<path style="fill:none;stroke-width:23;stroke-linecap:round;stroke-linejoin:round;stroke:rgb(0%,0%,0%);stroke-opacity:1;stroke-miterlimit:10;" d="M 15520.052083 32623.958333 L 16000 33103.90625 " transform="matrix(0.015,0,0,0.015,0,0)"/>
<path style="fill:none;stroke-width:23;stroke-linecap:round;stroke-linejoin:round;stroke:rgb(0%,0%,0%);stroke-opacity:1;stroke-miterlimit:10;" d="M 14800 32623.958333 L 15520.052083 32623.958333 " transform="matrix(0.015,0,0,0.015,0,0)"/>
<path style="fill:none;stroke-width:76;stroke-linecap:round;stroke-linejoin:round;stroke:rgb(0%,0%,0%);stroke-opacity:1;stroke-miterlimit:10;" d="M 16684.114583 46129.947917 L 16828.125 46129.947917 L 16900 46165.885417 L 16971.875 46238.020833 L 17008.072917 46382.03125 L 17008.072917 46634.114583 L 16971.875 46778.125 L 16900 46850 L 16828.125 46885.9375 L 16684.114583 46885.9375 L 16611.979167 46850 L 16540.104167 46778.125 L 16503.90625 46634.114583 L 16503.90625 46382.03125 L 16540.104167 46238.020833 L 16611.979167 46165.885417 L 16684.114583 46129.947917 " transform="matrix(0.015,0,0,0.015,0,0)"/>
<path style="fill:none;stroke-width:76;stroke-linecap:round;stroke-linejoin:round;stroke:rgb(0%,0%,0%);stroke-opacity:1;stroke-miterlimit:10;" d="M 17332.03125 46129.947917 L 17332.03125 46741.927083 L 17367.96875 46814.0625 L 17403.90625 46850 L 17476.041667 46885.9375 L 17620.052083 46885.9375 L 17691.927083 46850 L 17728.125 46814.0625 L 17764.0625 46741.927083 L 17764.0625 46129.947917 " transform="matrix(0.015,0,0,0.015,0,0)"/>
<path style="fill:none;stroke-width:76;stroke-linecap:round;stroke-linejoin:round;stroke:rgb(0%,0%,0%);stroke-opacity:1;stroke-miterlimit:10;" d="M 18015.885417 46129.947917 L 18447.916667 46129.947917 " transform="matrix(0.015,0,0,0.015,0,0)"/>
<path style="fill:none;stroke-width:76;stroke-linecap:round;stroke-linejoin:round;stroke:rgb(0%,0%,0%);stroke-opacity:1;stroke-miterlimit:10;" d="M 18232.03125 46885.9375 L 18232.03125 46129.947917 " transform="matrix(0.015,0,0,0.015,0,0)"/>
<path style="fill:none;stroke-width:23;stroke-linecap:round;stroke-linejoin:round;stroke:rgb(0%,0%,0%);stroke-opacity:1;stroke-miterlimit:10;" d="M 16840.104167 45584.114583 L 16120.052083 44864.0625 " transform="matrix(0.015,0,0,0.015,0,0)"/>
<path style="fill:none;stroke-width:23;stroke-linecap:round;stroke-linejoin:round;stroke:rgb(0%,0%,0%);stroke-opacity:1;stroke-miterlimit:10;" d="M 18040.104167 45584.114583 L 16840.104167 45584.114583 " transform="matrix(0.015,0,0,0.015,0,0)"/>
<path style="fill:none;stroke-width:23;stroke-linecap:round;stroke-linejoin:round;stroke:rgb(0%,0%,0%);stroke-opacity:1;stroke-miterlimit:10;" d="M 18759.895833 44864.0625 L 18040.104167 45584.114583 " transform="matrix(0.015,0,0,0.015,0,0)"/>
<path style="fill:none;stroke-width:76;stroke-linecap:round;stroke-linejoin:round;stroke:rgb(0%,0%,0%);stroke-opacity:1;stroke-miterlimit:10;" d="M 12244.010417 46885.9375 L 12244.010417 46129.947917 " transform="matrix(0.015,0,0,0.015,0,0)"/>
<path style="fill:none;stroke-width:76;stroke-linecap:round;stroke-linejoin:round;stroke:rgb(0%,0%,0%);stroke-opacity:1;stroke-miterlimit:10;" d="M 12603.90625 46885.9375 L 12603.90625 46129.947917 L 13035.9375 46885.9375 L 13035.9375 46129.947917 " transform="matrix(0.015,0,0,0.015,0,0)"/>
<path style="fill:none;stroke-width:23;stroke-linecap:round;stroke-linejoin:round;stroke:rgb(0%,0%,0%);stroke-opacity:1;stroke-miterlimit:10;" d="M 12040.104167 45584.114583 L 11320.052083 44864.0625 " transform="matrix(0.015,0,0,0.015,0,0)"/>
<path style="fill:none;stroke-width:23;stroke-linecap:round;stroke-linejoin:round;stroke:rgb(0%,0%,0%);stroke-opacity:1;stroke-miterlimit:10;" d="M 13240.104167 45584.114583 L 12040.104167 45584.114583 " transform="matrix(0.015,0,0,0.015,0,0)"/>
<path style="fill:none;stroke-width:23;stroke-linecap:round;stroke-linejoin:round;stroke:rgb(0%,0%,0%);stroke-opacity:1;stroke-miterlimit:10;" d="M 13959.895833 44864.0625 L 13240.104167 45584.114583 " transform="matrix(0.015,0,0,0.015,0,0)"/>
<path style="fill:none;stroke-width:23;stroke-linecap:round;stroke-linejoin:round;stroke:rgb(0%,0%,0%);stroke-opacity:1;stroke-miterlimit:10;" d="M 11320.052083 43664.0625 L 12040.104167 42944.010417 " transform="matrix(0.015,0,0,0.015,0,0)"/>
<path style="fill:none;stroke-width:23;stroke-linecap:round;stroke-linejoin:round;stroke:rgb(0%,0%,0%);stroke-opacity:1;stroke-miterlimit:10;" d="M 13240.104167 42944.010417 L 13959.895833 43664.0625 " transform="matrix(0.015,0,0,0.015,0,0)"/>
<path style="fill:none;stroke-width:23;stroke-linecap:round;stroke-linejoin:round;stroke:rgb(0%,0%,0%);stroke-opacity:1;stroke-miterlimit:10;" d="M 13959.895833 43664.0625 L 13959.895833 44864.0625 " transform="matrix(0.015,0,0,0.015,0,0)"/>
<path style="fill:none;stroke-width:23;stroke-linecap:round;stroke-linejoin:round;stroke:rgb(0%,0%,0%);stroke-opacity:1;stroke-miterlimit:10;" d="M 11320.052083 44864.0625 L 11320.052083 43664.0625 " transform="matrix(0.015,0,0,0.015,0,0)"/>
<path style="fill:none;stroke-width:23;stroke-linecap:round;stroke-linejoin:round;stroke:rgb(0%,0%,0%);stroke-opacity:1;stroke-miterlimit:10;" d="M 12040.104167 42944.010417 L 13240.104167 42944.010417 " transform="matrix(0.015,0,0,0.015,0,0)"/>
<path style="fill:none;stroke-width:23;stroke-linecap:round;stroke-linejoin:round;stroke:rgb(0%,0%,0%);stroke-opacity:1;stroke-miterlimit:10;" d="M 14290.885417 44264.583333 C 14290.885417 44854.166667 13976.302083 45398.958333 13465.625 45693.75 C 12955.208333 45988.802083 12326.041667 45988.802083 11815.364583 45693.75 C 11304.6875 45398.958333 10990.104167 44854.166667 10990.104167 44264.583333 C 10990.104167 43674.739583 11304.6875 43129.947917 11815.364583 42835.15625 C 12326.041667 42540.364583 12955.208333 42540.364583 13465.625 42835.15625 C 13976.302083 43129.947917 14290.885417 43674.739583 14290.885417 44264.583333 Z M 14290.885417 44264.583333 " transform="matrix(0.015,0,0,0.015,0,0)"/>
<path style="fill:none;stroke-width:23;stroke-linecap:round;stroke-linejoin:round;stroke:rgb(0%,0%,0%);stroke-opacity:1;stroke-miterlimit:10;" d="M 13540.885417 44264.583333 C 13540.885417 44586.197917 13369.270833 44883.59375 13090.625 45044.270833 C 12812.239583 45205.208333 12468.75 45205.208333 12190.364583 45044.270833 C 11911.71875 44883.59375 11740.104167 44586.197917 11740.104167 44264.583333 C 11740.104167 43942.708333 11911.71875 43645.572917 12190.364583 43484.635417 C 12468.75 43323.697917 12812.239583 43323.697917 13090.625 43484.635417 C 13369.270833 43645.572917 13540.885417 43942.708333 13540.885417 44264.583333 Z M 13540.885417 44264.583333 " transform="matrix(0.015,0,0,0.015,0,0)"/>
<path style="fill:none;stroke-width:76;stroke-linecap:round;stroke-linejoin:round;stroke:rgb(0%,0%,0%);stroke-opacity:1;stroke-miterlimit:10;" d="M 12082.03125 34550 L 12441.927083 34550 " transform="matrix(0.015,0,0,0.015,0,0)"/>
<path style="fill:none;stroke-width:76;stroke-linecap:round;stroke-linejoin:round;stroke:rgb(0%,0%,0%);stroke-opacity:1;stroke-miterlimit:10;" d="M 12009.895833 34765.885417 L 12261.979167 34009.895833 L 12514.0625 34765.885417 " transform="matrix(0.015,0,0,0.015,0,0)"/>
<path style="fill:none;stroke-width:76;stroke-linecap:round;stroke-linejoin:round;stroke:rgb(0%,0%,0%);stroke-opacity:1;stroke-miterlimit:10;" d="M 13197.916667 34694.010417 L 13161.979167 34729.947917 L 13053.90625 34765.885417 L 12982.03125 34765.885417 L 12873.958333 34729.947917 L 12802.083333 34658.072917 L 12765.885417 34585.9375 L 12729.947917 34441.927083 L 12729.947917 34334.114583 L 12765.885417 34190.104167 L 12802.083333 34117.96875 L 12873.958333 34046.09375 L 12982.03125 34009.895833 L 13053.90625 34009.895833 L 13161.979167 34046.09375 L 13197.916667 34082.03125 " transform="matrix(0.015,0,0,0.015,0,0)"/>
<path style="fill:none;stroke-width:23;stroke-linecap:round;stroke-linejoin:round;stroke:rgb(0%,0%,0%);stroke-opacity:1;stroke-miterlimit:10;" d="M 14800 34303.90625 L 14920.052083 34303.90625 " transform="matrix(0.015,0,0,0.015,0,0)"/>
<path style="fill:none;stroke-width:23;stroke-linecap:round;stroke-linejoin:round;stroke:rgb(0%,0%,0%);stroke-opacity:1;stroke-miterlimit:10;" d="M 15400.520833 34904.427083 C 15400.520833 35036.979167 15292.96875 35144.53125 15160.416667 35144.53125 C 15027.864583 35144.53125 14920.572917 35036.979167 14920.572917 34904.427083 " transform="matrix(0.015,0,0,0.015,0,0)"/>
<path style="fill:none;stroke-width:23;stroke-linecap:round;stroke-linejoin:round;stroke:rgb(0%,0%,0%);stroke-opacity:1;stroke-miterlimit:10;" d="M 11320.052083 38264.0625 L 12040.104167 37544.010417 " transform="matrix(0.015,0,0,0.015,0,0)"/>
<path style="fill:none;stroke-width:23;stroke-linecap:round;stroke-linejoin:round;stroke:rgb(0%,0%,0%);stroke-opacity:1;stroke-miterlimit:10;" d="M 12040.104167 37544.010417 L 13240.104167 37544.010417 " transform="matrix(0.015,0,0,0.015,0,0)"/>
<path style="fill:none;stroke-width:23;stroke-linecap:round;stroke-linejoin:round;stroke:rgb(0%,0%,0%);stroke-opacity:1;stroke-miterlimit:10;" d="M 13240.104167 37544.010417 L 13959.895833 38264.0625 " transform="matrix(0.015,0,0,0.015,0,0)"/>
<path style="fill:none;stroke-width:23;stroke-linecap:round;stroke-linejoin:round;stroke:rgb(0%,0%,0%);stroke-opacity:1;stroke-miterlimit:10;" d="M 16120.052083 38264.0625 L 16840.104167 37544.010417 " transform="matrix(0.015,0,0,0.015,0,0)"/>
<path style="fill:none;stroke-width:23;stroke-linecap:round;stroke-linejoin:round;stroke:rgb(0%,0%,0%);stroke-opacity:1;stroke-miterlimit:10;" d="M 16120.052083 39464.0625 L 16120.052083 38264.0625 " transform="matrix(0.015,0,0,0.015,0,0)"/>
<path style="fill:none;stroke-width:23;stroke-linecap:round;stroke-linejoin:round;stroke:rgb(0%,0%,0%);stroke-opacity:1;stroke-miterlimit:10;" d="M 16840.104167 40184.114583 L 16120.052083 39464.0625 " transform="matrix(0.015,0,0,0.015,0,0)"/>
<path style="fill:none;stroke-width:23;stroke-linecap:round;stroke-linejoin:round;stroke:rgb(0%,0%,0%);stroke-opacity:1;stroke-miterlimit:10;" d="M 18040.104167 40184.114583 L 16840.104167 40184.114583 " transform="matrix(0.015,0,0,0.015,0,0)"/>
<path style="fill:none;stroke-width:23;stroke-linecap:round;stroke-linejoin:round;stroke:rgb(0%,0%,0%);stroke-opacity:1;stroke-miterlimit:10;" d="M 18759.895833 39464.0625 L 18040.104167 40184.114583 " transform="matrix(0.015,0,0,0.015,0,0)"/>
<path style="fill:none;stroke-width:23;stroke-linecap:round;stroke-linejoin:round;stroke:rgb(0%,0%,0%);stroke-opacity:1;stroke-miterlimit:10;" d="M 18759.895833 38264.0625 L 18759.895833 39464.0625 " transform="matrix(0.015,0,0,0.015,0,0)"/>
<path style="fill:none;stroke-width:23;stroke-linecap:round;stroke-linejoin:round;stroke:rgb(0%,0%,0%);stroke-opacity:1;stroke-miterlimit:10;" d="M 18040.104167 37544.010417 L 18759.895833 38264.0625 " transform="matrix(0.015,0,0,0.015,0,0)"/>
<path style="fill:none;stroke-width:23;stroke-linecap:round;stroke-linejoin:round;stroke:rgb(0%,0%,0%);stroke-opacity:1;stroke-miterlimit:10;" d="M 16840.104167 37544.010417 L 18040.104167 37544.010417 " transform="matrix(0.015,0,0,0.015,0,0)"/>
<path style="fill:none;stroke-width:23;stroke-linecap:round;stroke-linejoin:round;stroke:rgb(0%,0%,0%);stroke-opacity:1;stroke-miterlimit:10;" d="M 18340.885417 38864.583333 C 18340.885417 39186.197917 18169.270833 39483.59375 17890.625 39644.270833 C 17612.239583 39805.208333 17268.75 39805.208333 16990.364583 39644.270833 C 16711.71875 39483.59375 16540.104167 39186.197917 16540.104167 38864.583333 C 16540.104167 38542.708333 16711.71875 38245.572917 16990.364583 38084.635417 C 17268.75 37923.697917 17612.239583 37923.697917 17890.625 38084.635417 C 18169.270833 38245.572917 18340.885417 38542.708333 18340.885417 38864.583333 Z M 18340.885417 38864.583333 " transform="matrix(0.015,0,0,0.015,0,0)"/>
<path style="fill:none;stroke-width:76;stroke-linecap:round;stroke-linejoin:round;stroke:rgb(0%,0%,0%);stroke-opacity:1;stroke-miterlimit:10;" d="M 21790.104167 41414.0625 L 21753.90625 41450 L 21646.09375 41485.9375 L 21573.958333 41485.9375 L 21465.885417 41450 L 21394.010417 41378.125 L 21358.072917 41305.989583 L 21321.875 41161.979167 L 21321.875 41053.90625 L 21358.072917 40909.895833 L 21394.010417 40838.020833 L 21465.885417 40765.885417 L 21573.958333 40729.947917 L 21646.09375 40729.947917 L 21753.90625 40765.885417 L 21790.104167 40802.083333 " transform="matrix(0.015,0,0,0.015,0,0)"/>
<path style="fill:none;stroke-width:76;stroke-linecap:round;stroke-linejoin:round;stroke:rgb(0%,0%,0%);stroke-opacity:1;stroke-miterlimit:10;" d="M 22005.989583 40729.947917 L 22258.072917 41485.9375 L 22509.895833 40729.947917 " transform="matrix(0.015,0,0,0.015,0,0)"/>
<path style="fill:none;stroke-width:76;stroke-linecap:round;stroke-linejoin:round;stroke:rgb(0%,0%,0%);stroke-opacity:1;stroke-miterlimit:10;" d="M 23158.072917 41485.9375 L 22726.041667 41485.9375 " transform="matrix(0.015,0,0,0.015,0,0)"/>
<path style="fill:none;stroke-width:76;stroke-linecap:round;stroke-linejoin:round;stroke:rgb(0%,0%,0%);stroke-opacity:1;stroke-miterlimit:10;" d="M 22941.927083 41485.9375 L 22941.927083 40729.947917 L 22870.052083 40838.020833 L 22797.916667 40909.895833 L 22726.041667 40946.09375 " transform="matrix(0.015,0,0,0.015,0,0)"/>
<path style="fill:none;stroke-width:23;stroke-linecap:round;stroke-linejoin:round;stroke:rgb(0%,0%,0%);stroke-opacity:1;stroke-miterlimit:10;" d="M 21640.104167 40184.114583 L 20920.052083 39464.0625 " transform="matrix(0.015,0,0,0.015,0,0)"/>
<path style="fill:none;stroke-width:23;stroke-linecap:round;stroke-linejoin:round;stroke:rgb(0%,0%,0%);stroke-opacity:1;stroke-miterlimit:10;" d="M 22840.104167 40184.114583 L 21640.104167 40184.114583 " transform="matrix(0.015,0,0,0.015,0,0)"/>
<path style="fill:none;stroke-width:23;stroke-linecap:round;stroke-linejoin:round;stroke:rgb(0%,0%,0%);stroke-opacity:1;stroke-miterlimit:10;" d="M 23559.895833 39464.0625 L 22840.104167 40184.114583 " transform="matrix(0.015,0,0,0.015,0,0)"/>
<path style="fill:none;stroke-width:23;stroke-linecap:round;stroke-linejoin:round;stroke:rgb(0%,0%,0%);stroke-opacity:1;stroke-miterlimit:10;" d="M 21640.104167 37544.010417 L 22840.104167 37544.010417 " transform="matrix(0.015,0,0,0.015,0,0)"/>
<path style="fill:none;stroke-width:23;stroke-linecap:round;stroke-linejoin:round;stroke:rgb(0%,0%,0%);stroke-opacity:1;stroke-miterlimit:10;" d="M 19090.885417 44264.583333 C 19090.885417 44854.166667 18776.302083 45398.958333 18265.625 45693.75 C 17755.208333 45988.802083 17126.041667 45988.802083 16615.364583 45693.75 C 16104.6875 45398.958333 15790.104167 44854.166667 15790.104167 44264.583333 C 15790.104167 43674.739583 16104.6875 43129.947917 16615.364583 42835.15625 C 17126.041667 42540.364583 17755.208333 42540.364583 18265.625 42835.15625 C 18776.302083 43129.947917 19090.885417 43674.739583 19090.885417 44264.583333 Z M 19090.885417 44264.583333 " transform="matrix(0.015,0,0,0.015,0,0)"/>
<path style="fill:none;stroke-width:23;stroke-linecap:round;stroke-linejoin:round;stroke:rgb(0%,0%,0%);stroke-opacity:1;stroke-miterlimit:10;" d="M 19090.885417 38864.583333 C 19090.885417 39454.166667 18776.302083 39998.958333 18265.625 40293.75 C 17755.208333 40588.802083 17126.041667 40588.802083 16615.364583 40293.75 C 16104.6875 39998.958333 15790.104167 39454.166667 15790.104167 38864.583333 C 15790.104167 38274.739583 16104.6875 37729.947917 16615.364583 37435.15625 C 17126.041667 37140.364583 17755.208333 37140.364583 18265.625 37435.15625 C 18776.302083 37729.947917 19090.885417 38274.739583 19090.885417 38864.583333 Z M 19090.885417 38864.583333 " transform="matrix(0.015,0,0,0.015,0,0)"/>
<path style="fill:none;stroke-width:23;stroke-linecap:round;stroke-linejoin:round;stroke:rgb(0%,0%,0%);stroke-opacity:1;stroke-miterlimit:10;" d="M 23890.885417 38864.583333 C 23890.885417 39454.166667 23576.302083 39998.958333 23065.625 40293.75 C 22555.208333 40588.802083 21926.041667 40588.802083 21415.364583 40293.75 C 20904.6875 39998.958333 20590.104167 39454.166667 20590.104167 38864.583333 C 20590.104167 38274.739583 20904.6875 37729.947917 21415.364583 37435.15625 C 21926.041667 37140.364583 22555.208333 37140.364583 23065.625 37435.15625 C 23576.302083 37729.947917 23890.885417 38274.739583 23890.885417 38864.583333 Z M 23890.885417 38864.583333 " transform="matrix(0.015,0,0,0.015,0,0)"/>
<path style="fill:none;stroke-width:23;stroke-linecap:round;stroke-linejoin:round;stroke:rgb(0%,0%,0%);stroke-opacity:1;stroke-miterlimit:10;" d="M 23140.885417 38864.583333 C 23140.885417 39186.197917 22969.270833 39483.59375 22690.625 39644.270833 C 22412.239583 39805.208333 22068.75 39805.208333 21790.364583 39644.270833 C 21511.71875 39483.59375 21340.104167 39186.197917 21340.104167 38864.583333 C 21340.104167 38542.708333 21511.71875 38245.572917 21790.364583 38084.635417 C 22068.75 37923.697917 22412.239583 37923.697917 22690.625 38084.635417 C 22969.270833 38245.572917 23140.885417 38542.708333 23140.885417 38864.583333 Z M 23140.885417 38864.583333 " transform="matrix(0.015,0,0,0.015,0,0)"/>
<path style="fill:none;stroke-width:23;stroke-linecap:round;stroke-linejoin:round;stroke:rgb(0%,0%,0%);stroke-opacity:1;stroke-miterlimit:10;" d="M 20920.052083 38264.0625 L 21640.104167 37544.010417 " transform="matrix(0.015,0,0,0.015,0,0)"/>
<path style="fill:none;stroke-width:23;stroke-linecap:round;stroke-linejoin:round;stroke:rgb(0%,0%,0%);stroke-opacity:1;stroke-miterlimit:10;" d="M 20920.052083 39464.0625 L 20920.052083 38264.0625 " transform="matrix(0.015,0,0,0.015,0,0)"/>
<path style="fill:none;stroke-width:23;stroke-linecap:round;stroke-linejoin:round;stroke:rgb(0%,0%,0%);stroke-opacity:1;stroke-miterlimit:10;" d="M 23559.895833 38264.0625 L 23559.895833 39464.0625 " transform="matrix(0.015,0,0,0.015,0,0)"/>
<path style="fill:none;stroke-width:23;stroke-linecap:round;stroke-linejoin:round;stroke:rgb(0%,0%,0%);stroke-opacity:1;stroke-miterlimit:10;" d="M 22840.104167 37544.010417 L 23559.895833 38264.0625 " transform="matrix(0.015,0,0,0.015,0,0)"/>
<path style="fill:none;stroke-width:23;stroke-linecap:round;stroke-linejoin:round;stroke:rgb(0%,0%,0%);stroke-opacity:1;stroke-miterlimit:10;" d="M 25720.052083 39464.0625 L 25720.052083 38264.0625 " transform="matrix(0.015,0,0,0.015,0,0)"/>
<path style="fill:none;stroke-width:76;stroke-linecap:round;stroke-linejoin:round;stroke:rgb(0%,0%,0%);stroke-opacity:1;stroke-miterlimit:10;" d="M 26302.083333 41414.0625 L 26265.885417 41450 L 26158.072917 41485.9375 L 26085.9375 41485.9375 L 25978.125 41450 L 25905.989583 41378.125 L 25870.052083 41305.989583 L 25834.114583 41161.979167 L 25834.114583 41053.90625 L 25870.052083 40909.895833 L 25905.989583 40838.020833 L 25978.125 40765.885417 L 26085.9375 40729.947917 L 26158.072917 40729.947917 L 26265.885417 40765.885417 L 26302.083333 40802.083333 " transform="matrix(0.015,0,0,0.015,0,0)"/>
<path style="fill:none;stroke-width:76;stroke-linecap:round;stroke-linejoin:round;stroke:rgb(0%,0%,0%);stroke-opacity:1;stroke-miterlimit:10;" d="M 26517.96875 40729.947917 L 26770.052083 41485.9375 L 27021.875 40729.947917 " transform="matrix(0.015,0,0,0.015,0,0)"/>
<path style="fill:none;stroke-width:76;stroke-linecap:round;stroke-linejoin:round;stroke:rgb(0%,0%,0%);stroke-opacity:1;stroke-miterlimit:10;" d="M 27814.0625 40802.083333 L 27850 40765.885417 L 27921.875 40729.947917 L 28102.083333 40729.947917 L 28173.958333 40765.885417 L 28209.895833 40802.083333 L 28246.09375 40873.958333 L 28246.09375 40946.09375 L 28209.895833 41053.90625 L 27778.125 41485.9375 L 28246.09375 41485.9375 " transform="matrix(0.015,0,0,0.015,0,0)"/>
<path style="fill:none;stroke-width:23;stroke-linecap:round;stroke-linejoin:round;stroke:rgb(0%,0%,0%);stroke-opacity:1;stroke-miterlimit:10;" d="M 26440.104167 40184.114583 L 25720.052083 39464.0625 " transform="matrix(0.015,0,0,0.015,0,0)"/>
<path style="fill:none;stroke-width:23;stroke-linecap:round;stroke-linejoin:round;stroke:rgb(0%,0%,0%);stroke-opacity:1;stroke-miterlimit:10;" d="M 27640.104167 40184.114583 L 26440.104167 40184.114583 " transform="matrix(0.015,0,0,0.015,0,0)"/>
<path style="fill:none;stroke-width:23;stroke-linecap:round;stroke-linejoin:round;stroke:rgb(0%,0%,0%);stroke-opacity:1;stroke-miterlimit:10;" d="M 28359.895833 39464.0625 L 27640.104167 40184.114583 " transform="matrix(0.015,0,0,0.015,0,0)"/>
<path style="fill:none;stroke-width:23;stroke-linecap:round;stroke-linejoin:round;stroke:rgb(0%,0%,0%);stroke-opacity:1;stroke-miterlimit:10;" d="M 28359.895833 38264.0625 L 28359.895833 39464.0625 " transform="matrix(0.015,0,0,0.015,0,0)"/>
<path style="fill:none;stroke-width:23;stroke-linecap:round;stroke-linejoin:round;stroke:rgb(0%,0%,0%);stroke-opacity:1;stroke-miterlimit:10;" d="M 27640.104167 37544.010417 L 28359.895833 38264.0625 " transform="matrix(0.015,0,0,0.015,0,0)"/>
<path style="fill:none;stroke-width:23;stroke-linecap:round;stroke-linejoin:round;stroke:rgb(0%,0%,0%);stroke-opacity:1;stroke-miterlimit:10;" d="M 26440.104167 37544.010417 L 27640.104167 37544.010417 " transform="matrix(0.015,0,0,0.015,0,0)"/>
<path style="fill:none;stroke-width:23;stroke-linecap:round;stroke-linejoin:round;stroke:rgb(0%,0%,0%);stroke-opacity:1;stroke-miterlimit:10;" d="M 27940.885417 38864.583333 C 27940.885417 39186.197917 27769.270833 39483.59375 27490.625 39644.270833 C 27212.239583 39805.208333 26868.75 39805.208333 26590.364583 39644.270833 C 26311.71875 39483.59375 26140.104167 39186.197917 26140.104167 38864.583333 C 26140.104167 38542.708333 26311.71875 38245.572917 26590.364583 38084.635417 C 26868.75 37923.697917 27212.239583 37923.697917 27490.625 38084.635417 C 27769.270833 38245.572917 27940.885417 38542.708333 27940.885417 38864.583333 Z M 27940.885417 38864.583333 " transform="matrix(0.015,0,0,0.015,0,0)"/>
<path style="fill:none;stroke-width:23;stroke-linecap:round;stroke-linejoin:round;stroke:rgb(0%,0%,0%);stroke-opacity:1;stroke-miterlimit:10;" d="M 28690.885417 38864.583333 C 28690.885417 39454.166667 28376.302083 39998.958333 27865.625 40293.75 C 27355.208333 40588.802083 26726.041667 40588.802083 26215.364583 40293.75 C 25704.6875 39998.958333 25390.104167 39454.166667 25390.104167 38864.583333 C 25390.104167 38274.739583 25704.6875 37729.947917 26215.364583 37435.15625 C 26726.041667 37140.364583 27355.208333 37140.364583 27865.625 37435.15625 C 28376.302083 37729.947917 28690.885417 38274.739583 28690.885417 38864.583333 Z M 28690.885417 38864.583333 " transform="matrix(0.015,0,0,0.015,0,0)"/>
</g>
</svg>
