<?xml version="1.0" encoding="UTF-8"?>
<svg xmlns="http://www.w3.org/2000/svg" xmlns:xlink="http://www.w3.org/1999/xlink" width="595.275591pt" height="841.889764pt" viewBox="0 0 595.275591 841.889764" version="1.2">
<g id="surface11235">
<rect x="0" y="0" width="595.275591" height="841.889764" style="fill:rgb(100%,100%,100%);fill-opacity:1;stroke:none;"/>
<path style="fill:none;stroke-width:9;stroke-linecap:round;stroke-linejoin:round;stroke:rgb(0%,0%,0%);stroke-opacity:1;stroke-miterlimit:10;" d="M 29440.885417 47864.583333 C 29440.885417 48079.166667 29326.5625 48277.34375 29140.625 48384.635417 C 28954.947917 48491.927083 28726.041667 48491.927083 28540.364583 48384.635417 C 28354.427083 48277.34375 28240.104167 48079.166667 28240.104167 47864.583333 C 28240.104167 47650 28354.427083 47451.822917 28540.364583 47344.53125 C 28726.041667 47237.239583 28954.947917 47237.239583 29140.625 47344.53125 C 29326.5625 47451.822917 29440.885417 47650 29440.885417 47864.583333 Z M 29440.885417 47864.583333 " transform="matrix(0.015,0,0,0.015,0,0)"/>
<path style="fill:none;stroke-width:9;stroke-linecap:round;stroke-linejoin:round;stroke:rgb(0%,0%,0%);stroke-opacity:1;stroke-miterlimit:10;" d="M 11440.885417 8264.583333 C 11440.885417 8479.166667 11326.5625 8677.34375 11140.625 8784.635417 C 10954.947917 8891.927083 10726.041667 8891.927083 10540.364583 8784.635417 C 10354.427083 8677.34375 10240.104167 8479.166667 10240.104167 8264.583333 C 10240.104167 8050 10354.427083 7851.822917 10540.364583 7744.53125 C 10726.041667 7637.239583 10954.947917 7637.239583 11140.625 7744.53125 C 11326.5625 7851.822917 11440.885417 8050 11440.885417 8264.583333 Z M 11440.885417 8264.583333 " transform="matrix(0.015,0,0,0.015,0,0)"/>
<path style="fill:none;stroke-width:9;stroke-linecap:round;stroke-linejoin:round;stroke:rgb(0%,0%,0%);stroke-opacity:1;stroke-miterlimit:10;" d="M 30040.104167 7064.0625 L 30040.104167 49064.0625 " transform="matrix(0.015,0,0,0.015,0,0)"/>
<path style="fill:none;stroke-width:9;stroke-linecap:round;stroke-linejoin:round;stroke:rgb(0%,0%,0%);stroke-opacity:1;stroke-miterlimit:10;" d="M 9640.104167 49064.0625 L 30040.104167 49064.0625 " transform="matrix(0.015,0,0,0.015,0,0)"/>
<path style="fill:none;stroke-width:9;stroke-linecap:round;stroke-linejoin:round;stroke:rgb(0%,0%,0%);stroke-opacity:1;stroke-miterlimit:10;" d="M 9640.104167 7064.0625 L 9640.104167 49064.0625 " transform="matrix(0.015,0,0,0.015,0,0)"/>
<path style="fill:none;stroke-width:9;stroke-linecap:round;stroke-linejoin:round;stroke:rgb(0%,0%,0%);stroke-opacity:1;stroke-miterlimit:10;" d="M 9640.104167 7064.0625 L 30040.104167 7064.0625 " transform="matrix(0.015,0,0,0.015,0,0)"/>
<path style="fill:none;stroke-width:76;stroke-linecap:round;stroke-linejoin:round;stroke:rgb(0%,0%,0%);stroke-opacity:1;stroke-miterlimit:10;" d="M 16665.885417 46370.052083 L 17097.916667 46370.052083 " transform="matrix(0.015,0,0,0.015,0,0)"/>
<path style="fill:none;stroke-width:76;stroke-linecap:round;stroke-linejoin:round;stroke:rgb(0%,0%,0%);stroke-opacity:1;stroke-miterlimit:10;" d="M 16882.03125 47126.041667 L 16882.03125 46370.052083 " transform="matrix(0.015,0,0,0.015,0,0)"/>
<path style="fill:none;stroke-width:76;stroke-linecap:round;stroke-linejoin:round;stroke:rgb(0%,0%,0%);stroke-opacity:1;stroke-miterlimit:10;" d="M 17782.03125 47126.041667 L 17529.947917 46765.885417 " transform="matrix(0.015,0,0,0.015,0,0)"/>
<path style="fill:none;stroke-width:76;stroke-linecap:round;stroke-linejoin:round;stroke:rgb(0%,0%,0%);stroke-opacity:1;stroke-miterlimit:10;" d="M 17350 47126.041667 L 17350 46370.052083 L 17638.020833 46370.052083 L 17709.895833 46405.989583 L 17746.09375 46441.927083 L 17782.03125 46514.0625 L 17782.03125 46621.875 L 17746.09375 46694.010417 L 17709.895833 46729.947917 L 17638.020833 46765.885417 L 17350 46765.885417 " transform="matrix(0.015,0,0,0.015,0,0)"/>
<path style="fill:none;stroke-width:76;stroke-linecap:round;stroke-linejoin:round;stroke:rgb(0%,0%,0%);stroke-opacity:1;stroke-miterlimit:10;" d="M 18105.989583 47126.041667 L 18105.989583 46370.052083 " transform="matrix(0.015,0,0,0.015,0,0)"/>
<path style="fill:none;stroke-width:76;stroke-linecap:round;stroke-linejoin:round;stroke:rgb(0%,0%,0%);stroke-opacity:1;stroke-miterlimit:10;" d="M 11505.989583 47090.104167 L 11614.0625 47126.041667 L 11794.010417 47126.041667 L 11865.885417 47090.104167 L 11902.083333 47053.90625 L 11938.020833 46982.03125 L 11938.020833 46909.895833 L 11902.083333 46838.020833 L 11865.885417 46802.083333 L 11794.010417 46765.885417 L 11650 46729.947917 L 11578.125 46694.010417 L 11541.927083 46658.072917 L 11505.989583 46585.9375 L 11505.989583 46514.0625 L 11541.927083 46441.927083 L 11578.125 46405.989583 L 11650 46370.052083 L 11829.947917 46370.052083 L 11938.020833 46405.989583 " transform="matrix(0.015,0,0,0.015,0,0)"/>
<path style="fill:none;stroke-width:76;stroke-linecap:round;stroke-linejoin:round;stroke:rgb(0%,0%,0%);stroke-opacity:1;stroke-miterlimit:10;" d="M 12261.979167 47126.041667 L 12261.979167 46370.052083 " transform="matrix(0.015,0,0,0.015,0,0)"/>
<path style="fill:none;stroke-width:76;stroke-linecap:round;stroke-linejoin:round;stroke:rgb(0%,0%,0%);stroke-opacity:1;stroke-miterlimit:10;" d="M 12621.875 47126.041667 L 12621.875 46370.052083 L 13053.90625 47126.041667 L 13053.90625 46370.052083 " transform="matrix(0.015,0,0,0.015,0,0)"/>
<path style="fill:none;stroke-width:76;stroke-linecap:round;stroke-linejoin:round;stroke:rgb(0%,0%,0%);stroke-opacity:1;stroke-miterlimit:10;" d="M 13414.0625 46729.947917 L 13665.885417 46729.947917 " transform="matrix(0.015,0,0,0.015,0,0)"/>
<path style="fill:none;stroke-width:76;stroke-linecap:round;stroke-linejoin:round;stroke:rgb(0%,0%,0%);stroke-opacity:1;stroke-miterlimit:10;" d="M 13773.958333 47126.041667 L 13414.0625 47126.041667 L 13414.0625 46370.052083 L 13773.958333 46370.052083 " transform="matrix(0.015,0,0,0.015,0,0)"/>
<path style="fill:none;stroke-width:23;stroke-linecap:round;stroke-linejoin:round;stroke:rgb(0%,0%,0%);stroke-opacity:1;stroke-miterlimit:10;" d="M 16840.104167 45584.114583 L 16120.052083 44864.0625 " transform="matrix(0.015,0,0,0.015,0,0)"/>
<path style="fill:none;stroke-width:23;stroke-linecap:round;stroke-linejoin:round;stroke:rgb(0%,0%,0%);stroke-opacity:1;stroke-miterlimit:10;" d="M 13959.895833 43664.0625 L 13959.895833 44864.0625 " transform="matrix(0.015,0,0,0.015,0,0)"/>
<path style="fill:none;stroke-width:76;stroke-linecap:round;stroke-linejoin:round;stroke:rgb(0%,0%,0%);stroke-opacity:1;stroke-miterlimit:10;" d="M 21267.96875 47090.104167 L 21376.041667 47126.041667 L 21555.989583 47126.041667 L 21628.125 47090.104167 L 21664.0625 47053.90625 L 21700 46982.03125 L 21700 46909.895833 L 21664.0625 46838.020833 L 21628.125 46802.083333 L 21555.989583 46765.885417 L 21411.979167 46729.947917 L 21340.104167 46694.010417 L 21303.90625 46658.072917 L 21267.96875 46585.9375 L 21267.96875 46514.0625 L 21303.90625 46441.927083 L 21340.104167 46405.989583 L 21411.979167 46370.052083 L 21591.927083 46370.052083 L 21700 46405.989583 " transform="matrix(0.015,0,0,0.015,0,0)"/>
<path style="fill:none;stroke-width:76;stroke-linecap:round;stroke-linejoin:round;stroke:rgb(0%,0%,0%);stroke-opacity:1;stroke-miterlimit:10;" d="M 21988.020833 46909.895833 L 22347.916667 46909.895833 " transform="matrix(0.015,0,0,0.015,0,0)"/>
<path style="fill:none;stroke-width:76;stroke-linecap:round;stroke-linejoin:round;stroke:rgb(0%,0%,0%);stroke-opacity:1;stroke-miterlimit:10;" d="M 21915.885417 47126.041667 L 22167.96875 46370.052083 L 22420.052083 47126.041667 " transform="matrix(0.015,0,0,0.015,0,0)"/>
<path style="fill:none;stroke-width:76;stroke-linecap:round;stroke-linejoin:round;stroke:rgb(0%,0%,0%);stroke-opacity:1;stroke-miterlimit:10;" d="M 22600 46370.052083 L 22779.947917 47126.041667 L 22923.958333 46585.9375 L 23067.96875 47126.041667 L 23247.916667 46370.052083 " transform="matrix(0.015,0,0,0.015,0,0)"/>
<path style="fill:none;stroke-width:23;stroke-linecap:round;stroke-linejoin:round;stroke:rgb(0%,0%,0%);stroke-opacity:1;stroke-miterlimit:10;" d="M 21640.104167 45584.114583 L 20920.052083 44864.0625 " transform="matrix(0.015,0,0,0.015,0,0)"/>
<path style="fill:none;stroke-width:23;stroke-linecap:round;stroke-linejoin:round;stroke:rgb(0%,0%,0%);stroke-opacity:1;stroke-miterlimit:10;" d="M 20920.052083 43664.0625 L 21640.104167 42944.010417 " transform="matrix(0.015,0,0,0.015,0,0)"/>
<path style="fill:none;stroke-width:23;stroke-linecap:round;stroke-linejoin:round;stroke:rgb(0%,0%,0%);stroke-opacity:1;stroke-miterlimit:10;" d="M 22840.104167 42944.010417 L 23559.895833 43664.0625 " transform="matrix(0.015,0,0,0.015,0,0)"/>
<path style="fill:none;stroke-width:23;stroke-linecap:round;stroke-linejoin:round;stroke:rgb(0%,0%,0%);stroke-opacity:1;stroke-miterlimit:10;" d="M 22840.104167 45584.114583 L 21640.104167 45584.114583 " transform="matrix(0.015,0,0,0.015,0,0)"/>
<path style="fill:none;stroke-width:23;stroke-linecap:round;stroke-linejoin:round;stroke:rgb(0%,0%,0%);stroke-opacity:1;stroke-miterlimit:10;" d="M 23559.895833 44864.0625 L 22840.104167 45584.114583 " transform="matrix(0.015,0,0,0.015,0,0)"/>
<path style="fill:none;stroke-width:23;stroke-linecap:round;stroke-linejoin:round;stroke:rgb(0%,0%,0%);stroke-opacity:1;stroke-miterlimit:10;" d="M 20920.052083 44864.0625 L 20920.052083 43664.0625 " transform="matrix(0.015,0,0,0.015,0,0)"/>
<path style="fill:none;stroke-width:23;stroke-linecap:round;stroke-linejoin:round;stroke:rgb(0%,0%,0%);stroke-opacity:1;stroke-miterlimit:10;" d="M 21640.104167 42944.010417 L 22840.104167 42944.010417 " transform="matrix(0.015,0,0,0.015,0,0)"/>
<path style="fill:none;stroke-width:76;stroke-linecap:round;stroke-linejoin:round;stroke:rgb(0%,0%,0%);stroke-opacity:1;stroke-miterlimit:10;" d="M 16540.104167 41329.947917 L 16791.927083 41329.947917 " transform="matrix(0.015,0,0,0.015,0,0)"/>
<path style="fill:none;stroke-width:76;stroke-linecap:round;stroke-linejoin:round;stroke:rgb(0%,0%,0%);stroke-opacity:1;stroke-miterlimit:10;" d="M 16900 41726.041667 L 16540.104167 41726.041667 L 16540.104167 40970.052083 L 16900 40970.052083 " transform="matrix(0.015,0,0,0.015,0,0)"/>
<path style="fill:none;stroke-width:76;stroke-linecap:round;stroke-linejoin:round;stroke:rgb(0%,0%,0%);stroke-opacity:1;stroke-miterlimit:10;" d="M 17152.083333 40970.052083 L 17655.989583 41726.041667 " transform="matrix(0.015,0,0,0.015,0,0)"/>
<path style="fill:none;stroke-width:76;stroke-linecap:round;stroke-linejoin:round;stroke:rgb(0%,0%,0%);stroke-opacity:1;stroke-miterlimit:10;" d="M 17655.989583 40970.052083 L 17152.083333 41726.041667 " transform="matrix(0.015,0,0,0.015,0,0)"/>
<path style="fill:none;stroke-width:76;stroke-linecap:round;stroke-linejoin:round;stroke:rgb(0%,0%,0%);stroke-opacity:1;stroke-miterlimit:10;" d="M 17944.010417 41726.041667 L 17944.010417 40970.052083 L 18232.03125 40970.052083 L 18303.90625 41005.989583 L 18340.104167 41041.927083 L 18376.041667 41114.0625 L 18376.041667 41221.875 L 18340.104167 41294.010417 L 18303.90625 41329.947917 L 18232.03125 41365.885417 L 17944.010417 41365.885417 " transform="matrix(0.015,0,0,0.015,0,0)"/>
<path style="fill:none;stroke-width:23;stroke-linecap:round;stroke-linejoin:round;stroke:rgb(0%,0%,0%);stroke-opacity:1;stroke-miterlimit:10;" d="M 16120.052083 43664.0625 L 16840.104167 42944.010417 " transform="matrix(0.015,0,0,0.015,0,0)"/>
<path style="fill:none;stroke-width:23;stroke-linecap:round;stroke-linejoin:round;stroke:rgb(0%,0%,0%);stroke-opacity:1;stroke-miterlimit:10;" d="M 18040.104167 42944.010417 L 18759.895833 43664.0625 " transform="matrix(0.015,0,0,0.015,0,0)"/>
<path style="fill:none;stroke-width:23;stroke-linecap:round;stroke-linejoin:round;stroke:rgb(0%,0%,0%);stroke-opacity:1;stroke-miterlimit:10;" d="M 16840.104167 42944.010417 L 18040.104167 42944.010417 " transform="matrix(0.015,0,0,0.015,0,0)"/>
<path style="fill:none;stroke-width:76;stroke-linecap:round;stroke-linejoin:round;stroke:rgb(0%,0%,0%);stroke-opacity:1;stroke-miterlimit:10;" d="M 11200 41726.041667 L 11200 40970.052083 L 11488.020833 40970.052083 L 11559.895833 41005.989583 L 11596.09375 41041.927083 L 11632.03125 41114.0625 L 11632.03125 41221.875 L 11596.09375 41294.010417 L 11559.895833 41329.947917 L 11488.020833 41365.885417 L 11200 41365.885417 " transform="matrix(0.015,0,0,0.015,0,0)"/>
<path style="fill:none;stroke-width:76;stroke-linecap:round;stroke-linejoin:round;stroke:rgb(0%,0%,0%);stroke-opacity:1;stroke-miterlimit:10;" d="M 11955.989583 41726.041667 L 11955.989583 40970.052083 " transform="matrix(0.015,0,0,0.015,0,0)"/>
<path style="fill:none;stroke-width:76;stroke-linecap:round;stroke-linejoin:round;stroke:rgb(0%,0%,0%);stroke-opacity:1;stroke-miterlimit:10;" d="M 12208.072917 40970.052083 L 12640.104167 40970.052083 " transform="matrix(0.015,0,0,0.015,0,0)"/>
<path style="fill:none;stroke-width:76;stroke-linecap:round;stroke-linejoin:round;stroke:rgb(0%,0%,0%);stroke-opacity:1;stroke-miterlimit:10;" d="M 12423.958333 41726.041667 L 12423.958333 40970.052083 " transform="matrix(0.015,0,0,0.015,0,0)"/>
<path style="fill:none;stroke-width:76;stroke-linecap:round;stroke-linejoin:round;stroke:rgb(0%,0%,0%);stroke-opacity:1;stroke-miterlimit:10;" d="M 13323.958333 41653.90625 L 13288.020833 41690.104167 L 13179.947917 41726.041667 L 13108.072917 41726.041667 L 13000 41690.104167 L 12928.125 41617.96875 L 12891.927083 41546.09375 L 12855.989583 41402.083333 L 12855.989583 41294.010417 L 12891.927083 41150 L 12928.125 41078.125 L 13000 41005.989583 L 13108.072917 40970.052083 L 13179.947917 40970.052083 L 13288.020833 41005.989583 L 13323.958333 41041.927083 " transform="matrix(0.015,0,0,0.015,0,0)"/>
<path style="fill:none;stroke-width:76;stroke-linecap:round;stroke-linejoin:round;stroke:rgb(0%,0%,0%);stroke-opacity:1;stroke-miterlimit:10;" d="M 13647.916667 41726.041667 L 13647.916667 40970.052083 " transform="matrix(0.015,0,0,0.015,0,0)"/>
<path style="fill:none;stroke-width:76;stroke-linecap:round;stroke-linejoin:round;stroke:rgb(0%,0%,0%);stroke-opacity:1;stroke-miterlimit:10;" d="M 13647.916667 41329.947917 L 14079.947917 41329.947917 " transform="matrix(0.015,0,0,0.015,0,0)"/>
<path style="fill:none;stroke-width:76;stroke-linecap:round;stroke-linejoin:round;stroke:rgb(0%,0%,0%);stroke-opacity:1;stroke-miterlimit:10;" d="M 14079.947917 41726.041667 L 14079.947917 40970.052083 " transform="matrix(0.015,0,0,0.015,0,0)"/>
<path style="fill:none;stroke-width:23;stroke-linecap:round;stroke-linejoin:round;stroke:rgb(0%,0%,0%);stroke-opacity:1;stroke-miterlimit:10;" d="M 11320.052083 43664.0625 L 12040.104167 42944.010417 " transform="matrix(0.015,0,0,0.015,0,0)"/>
<path style="fill:none;stroke-width:23;stroke-linecap:round;stroke-linejoin:round;stroke:rgb(0%,0%,0%);stroke-opacity:1;stroke-miterlimit:10;" d="M 13240.104167 42944.010417 L 13959.895833 43664.0625 " transform="matrix(0.015,0,0,0.015,0,0)"/>
<path style="fill:none;stroke-width:23;stroke-linecap:round;stroke-linejoin:round;stroke:rgb(0%,0%,0%);stroke-opacity:1;stroke-miterlimit:10;" d="M 12040.104167 42944.010417 L 13240.104167 42944.010417 " transform="matrix(0.015,0,0,0.015,0,0)"/>
<path style="fill:none;stroke-width:23;stroke-linecap:round;stroke-linejoin:round;stroke:rgb(0%,0%,0%);stroke-opacity:1;stroke-miterlimit:10;" d="M 18040.104167 45584.114583 L 16840.104167 45584.114583 " transform="matrix(0.015,0,0,0.015,0,0)"/>
<path style="fill:none;stroke-width:23;stroke-linecap:round;stroke-linejoin:round;stroke:rgb(0%,0%,0%);stroke-opacity:1;stroke-miterlimit:10;" d="M 18759.895833 43664.0625 L 18759.895833 44864.0625 " transform="matrix(0.015,0,0,0.015,0,0)"/>
<path style="fill:none;stroke-width:23;stroke-linecap:round;stroke-linejoin:round;stroke:rgb(0%,0%,0%);stroke-opacity:1;stroke-miterlimit:10;" d="M 18759.895833 44864.0625 L 18040.104167 45584.114583 " transform="matrix(0.015,0,0,0.015,0,0)"/>
<path style="fill:none;stroke-width:23;stroke-linecap:round;stroke-linejoin:round;stroke:rgb(0%,0%,0%);stroke-opacity:1;stroke-miterlimit:10;" d="M 16120.052083 44864.0625 L 16120.052083 43664.0625 " transform="matrix(0.015,0,0,0.015,0,0)"/>
<path style="fill:none;stroke-width:23;stroke-linecap:round;stroke-linejoin:round;stroke:rgb(0%,0%,0%);stroke-opacity:1;stroke-miterlimit:10;" d="M 19090.885417 44264.583333 C 19090.885417 44854.166667 18776.302083 45398.958333 18265.625 45693.75 C 17755.208333 45988.802083 17126.041667 45988.802083 16615.364583 45693.75 C 16104.6875 45398.958333 15790.104167 44854.166667 15790.104167 44264.583333 C 15790.104167 43674.739583 16104.6875 43129.947917 16615.364583 42835.15625 C 17126.041667 42540.364583 17755.208333 42540.364583 18265.625 42835.15625 C 18776.302083 43129.947917 19090.885417 43674.739583 19090.885417 44264.583333 Z M 19090.885417 44264.583333 " transform="matrix(0.015,0,0,0.015,0,0)"/>
<path style="fill:none;stroke-width:23;stroke-linecap:round;stroke-linejoin:round;stroke:rgb(0%,0%,0%);stroke-opacity:1;stroke-miterlimit:10;" d="M 18340.885417 44264.583333 C 18340.885417 44586.197917 18169.270833 44883.59375 17890.625 45044.270833 C 17612.239583 45205.208333 17268.75 45205.208333 16990.364583 45044.270833 C 16711.71875 44883.59375 16540.104167 44586.197917 16540.104167 44264.583333 C 16540.104167 43942.708333 16711.71875 43645.572917 16990.364583 43484.635417 C 17268.75 43323.697917 17612.239583 43323.697917 17890.625 43484.635417 C 18169.270833 43645.572917 18340.885417 43942.708333 18340.885417 44264.583333 Z M 18340.885417 44264.583333 " transform="matrix(0.015,0,0,0.015,0,0)"/>
<path style="fill:none;stroke-width:23;stroke-linecap:round;stroke-linejoin:round;stroke:rgb(0%,0%,0%);stroke-opacity:1;stroke-miterlimit:10;" d="M 12040.104167 45584.114583 L 11320.052083 44864.0625 " transform="matrix(0.015,0,0,0.015,0,0)"/>
<path style="fill:none;stroke-width:23;stroke-linecap:round;stroke-linejoin:round;stroke:rgb(0%,0%,0%);stroke-opacity:1;stroke-miterlimit:10;" d="M 13240.104167 45584.114583 L 12040.104167 45584.114583 " transform="matrix(0.015,0,0,0.015,0,0)"/>
<path style="fill:none;stroke-width:23;stroke-linecap:round;stroke-linejoin:round;stroke:rgb(0%,0%,0%);stroke-opacity:1;stroke-miterlimit:10;" d="M 13959.895833 44864.0625 L 13240.104167 45584.114583 " transform="matrix(0.015,0,0,0.015,0,0)"/>
<path style="fill:none;stroke-width:23;stroke-linecap:round;stroke-linejoin:round;stroke:rgb(0%,0%,0%);stroke-opacity:1;stroke-miterlimit:10;" d="M 11320.052083 44864.0625 L 11320.052083 43664.0625 " transform="matrix(0.015,0,0,0.015,0,0)"/>
<path style="fill:none;stroke-width:23;stroke-linecap:round;stroke-linejoin:round;stroke:rgb(0%,0%,0%);stroke-opacity:1;stroke-miterlimit:10;" d="M 14290.885417 44264.583333 C 14290.885417 44854.166667 13976.302083 45398.958333 13465.625 45693.75 C 12955.208333 45988.802083 12326.041667 45988.802083 11815.364583 45693.75 C 11304.6875 45398.958333 10990.104167 44854.166667 10990.104167 44264.583333 C 10990.104167 43674.739583 11304.6875 43129.947917 11815.364583 42835.15625 C 12326.041667 42540.364583 12955.208333 42540.364583 13465.625 42835.15625 C 13976.302083 43129.947917 14290.885417 43674.739583 14290.885417 44264.583333 Z M 14290.885417 44264.583333 " transform="matrix(0.015,0,0,0.015,0,0)"/>
<path style="fill:none;stroke-width:23;stroke-linecap:round;stroke-linejoin:round;stroke:rgb(0%,0%,0%);stroke-opacity:1;stroke-miterlimit:10;" d="M 13540.885417 44264.583333 C 13540.885417 44586.197917 13369.270833 44883.59375 13090.625 45044.270833 C 12812.239583 45205.208333 12468.75 45205.208333 12190.364583 45044.270833 C 11911.71875 44883.59375 11740.104167 44586.197917 11740.104167 44264.583333 C 11740.104167 43942.708333 11911.71875 43645.572917 12190.364583 43484.635417 C 12468.75 43323.697917 12812.239583 43323.697917 13090.625 43484.635417 C 13369.270833 43645.572917 13540.885417 43942.708333 13540.885417 44264.583333 Z M 13540.885417 44264.583333 " transform="matrix(0.015,0,0,0.015,0,0)"/>
<path style="fill:none;stroke-width:76;stroke-linecap:round;stroke-linejoin:round;stroke:rgb(0%,0%,0%);stroke-opacity:1;stroke-miterlimit:10;" d="M 23373.958333 22765.885417 L 23014.0625 22765.885417 L 23014.0625 22009.895833 " transform="matrix(0.015,0,0,0.015,0,0)"/>
<path style="fill:none;stroke-width:76;stroke-linecap:round;stroke-linejoin:round;stroke:rgb(0%,0%,0%);stroke-opacity:1;stroke-miterlimit:10;" d="M 23626.041667 22765.885417 L 23626.041667 22009.895833 " transform="matrix(0.015,0,0,0.015,0,0)"/>
<path style="fill:none;stroke-width:76;stroke-linecap:round;stroke-linejoin:round;stroke:rgb(0%,0%,0%);stroke-opacity:1;stroke-miterlimit:10;" d="M 23985.9375 22765.885417 L 23985.9375 22009.895833 L 24417.96875 22765.885417 L 24417.96875 22009.895833 " transform="matrix(0.015,0,0,0.015,0,0)"/>
<path style="fill:none;stroke-width:76;stroke-linecap:round;stroke-linejoin:round;stroke:rgb(0%,0%,0%);stroke-opacity:1;stroke-miterlimit:10;" d="M 25605.989583 22370.052083 L 25353.90625 22370.052083 " transform="matrix(0.015,0,0,0.015,0,0)"/>
<path style="fill:none;stroke-width:76;stroke-linecap:round;stroke-linejoin:round;stroke:rgb(0%,0%,0%);stroke-opacity:1;stroke-miterlimit:10;" d="M 25353.90625 22765.885417 L 25353.90625 22009.895833 L 25714.0625 22009.895833 " transform="matrix(0.015,0,0,0.015,0,0)"/>
<path style="fill:none;stroke-width:76;stroke-linecap:round;stroke-linejoin:round;stroke:rgb(0%,0%,0%);stroke-opacity:1;stroke-miterlimit:10;" d="M 26002.083333 22765.885417 L 26002.083333 22009.895833 L 26253.90625 22550 L 26505.989583 22009.895833 L 26505.989583 22765.885417 " transform="matrix(0.015,0,0,0.015,0,0)"/>
<path style="fill:none;stroke-width:76;stroke-linecap:round;stroke-linejoin:round;stroke:rgb(0%,0%,0%);stroke-opacity:1;stroke-miterlimit:10;" d="M 23409.895833 14809.895833 L 23841.927083 14809.895833 " transform="matrix(0.015,0,0,0.015,0,0)"/>
<path style="fill:none;stroke-width:76;stroke-linecap:round;stroke-linejoin:round;stroke:rgb(0%,0%,0%);stroke-opacity:1;stroke-miterlimit:10;" d="M 23626.041667 15565.885417 L 23626.041667 14809.895833 " transform="matrix(0.015,0,0,0.015,0,0)"/>
<path style="fill:none;stroke-width:76;stroke-linecap:round;stroke-linejoin:round;stroke:rgb(0%,0%,0%);stroke-opacity:1;stroke-miterlimit:10;" d="M 24094.010417 14809.895833 L 24094.010417 15421.875 L 24129.947917 15494.010417 L 24165.885417 15529.947917 L 24238.020833 15565.885417 L 24382.03125 15565.885417 L 24453.90625 15529.947917 L 24490.104167 15494.010417 L 24526.041667 15421.875 L 24526.041667 14809.895833 " transform="matrix(0.015,0,0,0.015,0,0)"/>
<path style="fill:none;stroke-width:76;stroke-linecap:round;stroke-linejoin:round;stroke:rgb(0%,0%,0%);stroke-opacity:1;stroke-miterlimit:10;" d="M 24885.9375 15565.885417 L 24885.9375 14809.895833 L 25317.96875 15565.885417 L 25317.96875 14809.895833 " transform="matrix(0.015,0,0,0.015,0,0)"/>
<path style="fill:none;stroke-width:76;stroke-linecap:round;stroke-linejoin:round;stroke:rgb(0%,0%,0%);stroke-opacity:1;stroke-miterlimit:10;" d="M 25678.125 15170.052083 L 25929.947917 15170.052083 " transform="matrix(0.015,0,0,0.015,0,0)"/>
<path style="fill:none;stroke-width:76;stroke-linecap:round;stroke-linejoin:round;stroke:rgb(0%,0%,0%);stroke-opacity:1;stroke-miterlimit:10;" d="M 26038.020833 15565.885417 L 25678.125 15565.885417 L 25678.125 14809.895833 L 26038.020833 14809.895833 " transform="matrix(0.015,0,0,0.015,0,0)"/>
<path style="fill:none;stroke-width:23;stroke-linecap:round;stroke-linejoin:round;stroke:rgb(0%,0%,0%);stroke-opacity:1;stroke-miterlimit:10;" d="M 23890.104167 20363.020833 L 23320.052083 21223.958333 " transform="matrix(0.015,0,0,0.015,0,0)"/>
<path style="fill:none;stroke-width:9;stroke-linecap:round;stroke-linejoin:round;stroke:rgb(0%,0%,0%);stroke-opacity:1;stroke-miterlimit:10;" d="M 26140.885417 19064.583333 C 26140.885417 19600.520833 25854.947917 20095.833333 25390.625 20364.0625 C 24926.5625 20632.03125 24354.427083 20632.03125 23890.364583 20364.0625 C 23426.041667 20095.833333 23140.104167 19600.520833 23140.104167 19064.583333 C 23140.104167 18528.385417 23426.041667 18033.072917 23890.364583 17765.104167 C 24354.427083 17496.875 24926.5625 17496.875 25390.625 17765.104167 C 25854.947917 18033.072917 26140.885417 18528.385417 26140.885417 19064.583333 Z M 26140.885417 19064.583333 " transform="matrix(0.015,0,0,0.015,0,0)"/>
<path style="fill:none;stroke-width:9;stroke-linecap:round;stroke-linejoin:round;stroke:rgb(0%,0%,0%);stroke-opacity:1;stroke-miterlimit:10;" d="M 27190.885417 19064.583333 C 27190.885417 19975.78125 26704.947917 20817.708333 25915.625 21273.177083 C 25126.5625 21728.90625 24154.427083 21728.90625 23365.364583 21273.177083 C 22576.041667 20817.708333 22090.104167 19975.78125 22090.104167 19064.583333 C 22090.104167 18153.385417 22576.041667 17311.197917 23365.364583 16855.729167 C 24154.427083 16400 25126.5625 16400 25915.625 16855.729167 C 26704.947917 17311.197917 27190.885417 18153.385417 27190.885417 19064.583333 Z M 27190.885417 19064.583333 " transform="matrix(0.015,0,0,0.015,0,0)"/>
<path style="fill:none;stroke-width:76;stroke-linecap:round;stroke-linejoin:round;stroke:rgb(0%,0%,0%);stroke-opacity:1;stroke-miterlimit:10;" d="M 24370.052083 29965.885417 L 24370.052083 29209.895833 L 24658.072917 29209.895833 L 24729.947917 29246.09375 L 24765.885417 29282.03125 L 24802.083333 29353.90625 L 24802.083333 29461.979167 L 24765.885417 29534.114583 L 24729.947917 29570.052083 L 24658.072917 29605.989583 L 24370.052083 29605.989583 " transform="matrix(0.015,0,0,0.015,0,0)"/>
<path style="fill:none;stroke-width:76;stroke-linecap:round;stroke-linejoin:round;stroke:rgb(0%,0%,0%);stroke-opacity:1;stroke-miterlimit:10;" d="M 25053.90625 29209.895833 L 25234.114583 29965.885417 L 25378.125 29426.041667 L 25521.875 29965.885417 L 25702.083333 29209.895833 " transform="matrix(0.015,0,0,0.015,0,0)"/>
<path style="fill:none;stroke-width:23;stroke-linecap:round;stroke-linejoin:round;stroke:rgb(0%,0%,0%);stroke-opacity:1;stroke-miterlimit:10;" d="M 22959.895833 32623.958333 L 23440.104167 33103.90625 " transform="matrix(0.015,0,0,0.015,0,0)"/>
<path style="fill:none;stroke-width:23;stroke-linecap:round;stroke-linejoin:round;stroke:rgb(0%,0%,0%);stroke-opacity:1;stroke-miterlimit:10;" d="M 23440.104167 33103.90625 L 23440.104167 33823.958333 " transform="matrix(0.015,0,0,0.015,0,0)"/>
<path style="fill:none;stroke-width:23;stroke-linecap:round;stroke-linejoin:round;stroke:rgb(0%,0%,0%);stroke-opacity:1;stroke-miterlimit:10;" d="M 21759.895833 33103.90625 L 22240.104167 32623.958333 " transform="matrix(0.015,0,0,0.015,0,0)"/>
<path style="fill:none;stroke-width:23;stroke-linecap:round;stroke-linejoin:round;stroke:rgb(0%,0%,0%);stroke-opacity:1;stroke-miterlimit:10;" d="M 25720.052083 32864.0625 L 26440.104167 32144.010417 " transform="matrix(0.015,0,0,0.015,0,0)"/>
<path style="fill:none;stroke-width:23;stroke-linecap:round;stroke-linejoin:round;stroke:rgb(0%,0%,0%);stroke-opacity:1;stroke-miterlimit:10;" d="M 23890.104167 27563.020833 L 23320.052083 28423.958333 " transform="matrix(0.015,0,0,0.015,0,0)"/>
<path style="fill:none;stroke-width:9;stroke-linecap:round;stroke-linejoin:round;stroke:rgb(0%,0%,0%);stroke-opacity:1;stroke-miterlimit:10;" d="M 26140.885417 26264.583333 C 26140.885417 26800.520833 25854.947917 27295.833333 25390.625 27564.0625 C 24926.5625 27832.03125 24354.427083 27832.03125 23890.364583 27564.0625 C 23426.041667 27295.833333 23140.104167 26800.520833 23140.104167 26264.583333 C 23140.104167 25728.385417 23426.041667 25233.072917 23890.364583 24965.104167 C 24354.427083 24696.875 24926.5625 24696.875 25390.625 24965.104167 C 25854.947917 25233.072917 26140.885417 25728.385417 26140.885417 26264.583333 Z M 26140.885417 26264.583333 " transform="matrix(0.015,0,0,0.015,0,0)"/>
<path style="fill:none;stroke-width:9;stroke-linecap:round;stroke-linejoin:round;stroke:rgb(0%,0%,0%);stroke-opacity:1;stroke-miterlimit:10;" d="M 27190.885417 26264.583333 C 27190.885417 27175.78125 26704.947917 28017.708333 25915.625 28473.177083 C 25126.5625 28928.90625 24154.427083 28928.90625 23365.364583 28473.177083 C 22576.041667 28017.708333 22090.104167 27175.78125 22090.104167 26264.583333 C 22090.104167 25353.385417 22576.041667 24511.197917 23365.364583 24055.729167 C 24154.427083 23600 25126.5625 23600 25915.625 24055.729167 C 26704.947917 24511.197917 27190.885417 25353.385417 27190.885417 26264.583333 Z M 27190.885417 26264.583333 " transform="matrix(0.015,0,0,0.015,0,0)"/>
<path style="fill:none;stroke-width:76;stroke-linecap:round;stroke-linejoin:round;stroke:rgb(0%,0%,0%);stroke-opacity:1;stroke-miterlimit:10;" d="M 14097.916667 29965.885417 L 14097.916667 29209.895833 L 14385.9375 29209.895833 L 14458.072917 29246.09375 L 14494.010417 29282.03125 L 14529.947917 29353.90625 L 14529.947917 29461.979167 L 14494.010417 29534.114583 L 14458.072917 29570.052083 L 14385.9375 29605.989583 L 14097.916667 29605.989583 " transform="matrix(0.015,0,0,0.015,0,0)"/>
<path style="fill:none;stroke-width:76;stroke-linecap:round;stroke-linejoin:round;stroke:rgb(0%,0%,0%);stroke-opacity:1;stroke-miterlimit:10;" d="M 14782.03125 29209.895833 L 14961.979167 29965.885417 L 15105.989583 29426.041667 L 15250 29965.885417 L 15429.947917 29209.895833 " transform="matrix(0.015,0,0,0.015,0,0)"/>
<path style="fill:none;stroke-width:76;stroke-linecap:round;stroke-linejoin:round;stroke:rgb(0%,0%,0%);stroke-opacity:1;stroke-miterlimit:10;" d="M 15717.96875 29965.885417 L 15717.96875 29209.895833 L 15970.052083 29750 L 16221.875 29209.895833 L 16221.875 29965.885417 " transform="matrix(0.015,0,0,0.015,0,0)"/>
<path style="fill:none;stroke-width:23;stroke-linecap:round;stroke-linejoin:round;stroke:rgb(0%,0%,0%);stroke-opacity:1;stroke-miterlimit:10;" d="M 18879.947917 32623.958333 L 19600 32623.958333 " transform="matrix(0.015,0,0,0.015,0,0)"/>
<path style="fill:none;stroke-width:23;stroke-linecap:round;stroke-linejoin:round;stroke:rgb(0%,0%,0%);stroke-opacity:1;stroke-miterlimit:10;" d="M 18879.947917 34303.90625 L 18400 33823.958333 " transform="matrix(0.015,0,0,0.015,0,0)"/>
<path style="fill:none;stroke-width:23;stroke-linecap:round;stroke-linejoin:round;stroke:rgb(0%,0%,0%);stroke-opacity:1;stroke-miterlimit:10;" d="M 18400 33823.958333 L 18400 33103.90625 " transform="matrix(0.015,0,0,0.015,0,0)"/>
<path style="fill:none;stroke-width:23;stroke-linecap:round;stroke-linejoin:round;stroke:rgb(0%,0%,0%);stroke-opacity:1;stroke-miterlimit:10;" d="M 14290.104167 27563.020833 L 13720.052083 28423.958333 " transform="matrix(0.015,0,0,0.015,0,0)"/>
<path style="fill:none;stroke-width:9;stroke-linecap:round;stroke-linejoin:round;stroke:rgb(0%,0%,0%);stroke-opacity:1;stroke-miterlimit:10;" d="M 16540.885417 26264.583333 C 16540.885417 26800.520833 16254.947917 27295.833333 15790.625 27564.0625 C 15326.5625 27832.03125 14754.427083 27832.03125 14290.364583 27564.0625 C 13826.041667 27295.833333 13540.104167 26800.520833 13540.104167 26264.583333 C 13540.104167 25728.385417 13826.041667 25233.072917 14290.364583 24965.104167 C 14754.427083 24696.875 15326.5625 24696.875 15790.625 24965.104167 C 16254.947917 25233.072917 16540.885417 25728.385417 16540.885417 26264.583333 Z M 16540.885417 26264.583333 " transform="matrix(0.015,0,0,0.015,0,0)"/>
<path style="fill:none;stroke-width:9;stroke-linecap:round;stroke-linejoin:round;stroke:rgb(0%,0%,0%);stroke-opacity:1;stroke-miterlimit:10;" d="M 17590.885417 26264.583333 C 17590.885417 27175.78125 17104.947917 28017.708333 16315.625 28473.177083 C 15526.5625 28928.90625 14554.427083 28928.90625 13765.364583 28473.177083 C 12976.041667 28017.708333 12490.104167 27175.78125 12490.104167 26264.583333 C 12490.104167 25353.385417 12976.041667 24511.197917 13765.364583 24055.729167 C 14554.427083 23600 15526.5625 23600 16315.625 24055.729167 C 17104.947917 24511.197917 17590.885417 25353.385417 17590.885417 26264.583333 Z M 17590.885417 26264.583333 " transform="matrix(0.015,0,0,0.015,0,0)"/>
<path style="fill:none;stroke-width:23;stroke-linecap:round;stroke-linejoin:round;stroke:rgb(0%,0%,0%);stroke-opacity:1;stroke-miterlimit:10;" d="M 19000.520833 34664.583333 C 18599.739583 34584.375 18265.625 34309.635417 18109.635417 33932.03125 C 17953.385417 33554.427083 17996.09375 33123.958333 18223.177083 32784.375 C 18450.260417 32444.53125 18832.03125 32240.625 19240.625 32240.625 C 19648.958333 32240.625 20030.729167 32444.53125 20257.8125 32784.375 C 20484.895833 33123.958333 20527.604167 33554.427083 20371.354167 33932.03125 C 20215.364583 34309.635417 19881.25 34584.375 19480.46875 34664.583333 " transform="matrix(0.015,0,0,0.015,0,0)"/>
<path style="fill:none;stroke-width:23;stroke-linecap:round;stroke-linejoin:round;stroke:rgb(0%,0%,0%);stroke-opacity:1;stroke-miterlimit:10;" d="M 19600 32623.958333 L 20079.947917 33103.90625 " transform="matrix(0.015,0,0,0.015,0,0)"/>
<path style="fill:none;stroke-width:23;stroke-linecap:round;stroke-linejoin:round;stroke:rgb(0%,0%,0%);stroke-opacity:1;stroke-miterlimit:10;" d="M 20079.947917 33103.90625 L 20079.947917 33823.958333 " transform="matrix(0.015,0,0,0.015,0,0)"/>
<path style="fill:none;stroke-width:23;stroke-linecap:round;stroke-linejoin:round;stroke:rgb(0%,0%,0%);stroke-opacity:1;stroke-miterlimit:10;" d="M 18400 33103.90625 L 18879.947917 32623.958333 " transform="matrix(0.015,0,0,0.015,0,0)"/>
<path style="fill:none;stroke-width:23;stroke-linecap:round;stroke-linejoin:round;stroke:rgb(0%,0%,0%);stroke-opacity:1;stroke-miterlimit:10;" d="M 19000.520833 34064.583333 C 18813.020833 33989.583333 18671.614583 33831.25 18617.708333 33636.71875 C 18563.802083 33442.1875 18603.90625 33233.854167 18726.302083 33073.177083 C 18848.4375 32912.5 19038.802083 32818.229167 19240.625 32818.229167 C 19442.447917 32818.229167 19632.552083 32912.5 19754.6875 33073.177083 C 19877.083333 33233.854167 19917.1875 33442.1875 19863.28125 33636.71875 C 19809.375 33831.25 19667.96875 33989.583333 19480.46875 34064.583333 " transform="matrix(0.015,0,0,0.015,0,0)"/>
<path style="fill:none;stroke-width:76;stroke-linecap:round;stroke-linejoin:round;stroke:rgb(0%,0%,0%);stroke-opacity:1;stroke-miterlimit:10;" d="M 16185.9375 7609.895833 L 15827.083333 7609.895833 L 15790.885417 7970.052083 L 15827.083333 7934.114583 L 15897.916667 7897.916667 L 16078.125 7897.916667 L 16150 7934.114583 L 16185.9375 7970.052083 L 16221.875 8041.927083 L 16221.875 8221.875 L 16185.9375 8294.010417 L 16150 8329.947917 L 16078.125 8365.885417 L 15897.916667 8365.885417 L 15827.083333 8329.947917 L 15790.885417 8294.010417 " transform="matrix(0.015,0,0,0.015,0,0)"/>
<path style="fill:none;stroke-width:76;stroke-linecap:round;stroke-linejoin:round;stroke:rgb(0%,0%,0%);stroke-opacity:1;stroke-miterlimit:10;" d="M 17121.875 8365.885417 L 17121.875 7609.895833 L 17409.895833 7609.895833 L 17482.03125 7646.09375 L 17517.96875 7682.03125 L 17553.90625 7753.90625 L 17553.90625 7861.979167 L 17517.96875 7934.114583 L 17482.03125 7970.052083 L 17409.895833 8005.989583 L 17121.875 8005.989583 " transform="matrix(0.015,0,0,0.015,0,0)"/>
<path style="fill:none;stroke-width:76;stroke-linecap:round;stroke-linejoin:round;stroke:rgb(0%,0%,0%);stroke-opacity:1;stroke-miterlimit:10;" d="M 17878.125 7609.895833 L 17878.125 8221.875 L 17914.0625 8294.010417 L 17950 8329.947917 L 18021.875 8365.885417 L 18165.885417 8365.885417 L 18238.020833 8329.947917 L 18273.958333 8294.010417 L 18309.895833 8221.875 L 18309.895833 7609.895833 " transform="matrix(0.015,0,0,0.015,0,0)"/>
<path style="fill:none;stroke-width:76;stroke-linecap:round;stroke-linejoin:round;stroke:rgb(0%,0%,0%);stroke-opacity:1;stroke-miterlimit:10;" d="M 19029.947917 8365.885417 L 18670.052083 8365.885417 L 18670.052083 7609.895833 " transform="matrix(0.015,0,0,0.015,0,0)"/>
<path style="fill:none;stroke-width:76;stroke-linecap:round;stroke-linejoin:round;stroke:rgb(0%,0%,0%);stroke-opacity:1;stroke-miterlimit:10;" d="M 19246.09375 8329.947917 L 19353.90625 8365.885417 L 19534.114583 8365.885417 L 19605.989583 8329.947917 L 19641.927083 8294.010417 L 19678.125 8221.875 L 19678.125 8150 L 19641.927083 8078.125 L 19605.989583 8041.927083 L 19534.114583 8005.989583 L 19390.104167 7970.052083 L 19317.96875 7934.114583 L 19282.03125 7897.916667 L 19246.09375 7826.041667 L 19246.09375 7753.90625 L 19282.03125 7682.03125 L 19317.96875 7646.09375 L 19390.104167 7609.895833 L 19570.052083 7609.895833 L 19678.125 7646.09375 " transform="matrix(0.015,0,0,0.015,0,0)"/>
<path style="fill:none;stroke-width:76;stroke-linecap:round;stroke-linejoin:round;stroke:rgb(0%,0%,0%);stroke-opacity:1;stroke-miterlimit:10;" d="M 20002.083333 7970.052083 L 20253.90625 7970.052083 " transform="matrix(0.015,0,0,0.015,0,0)"/>
<path style="fill:none;stroke-width:76;stroke-linecap:round;stroke-linejoin:round;stroke:rgb(0%,0%,0%);stroke-opacity:1;stroke-miterlimit:10;" d="M 20361.979167 8365.885417 L 20002.083333 8365.885417 L 20002.083333 7609.895833 L 20361.979167 7609.895833 " transform="matrix(0.015,0,0,0.015,0,0)"/>
<path style="fill:none;stroke-width:76;stroke-linecap:round;stroke-linejoin:round;stroke:rgb(0%,0%,0%);stroke-opacity:1;stroke-miterlimit:10;" d="M 21117.96875 8365.885417 L 20865.885417 8005.989583 " transform="matrix(0.015,0,0,0.015,0,0)"/>
<path style="fill:none;stroke-width:76;stroke-linecap:round;stroke-linejoin:round;stroke:rgb(0%,0%,0%);stroke-opacity:1;stroke-miterlimit:10;" d="M 20685.9375 8365.885417 L 20685.9375 7609.895833 L 20973.958333 7609.895833 L 21046.09375 7646.09375 L 21082.03125 7682.03125 L 21117.96875 7753.90625 L 21117.96875 7861.979167 L 21082.03125 7934.114583 L 21046.09375 7970.052083 L 20973.958333 8005.989583 L 20685.9375 8005.989583 " transform="matrix(0.015,0,0,0.015,0,0)"/>
<path style="fill:none;stroke-width:76;stroke-linecap:round;stroke-linejoin:round;stroke:rgb(0%,0%,0%);stroke-opacity:1;stroke-miterlimit:10;" d="M 21909.895833 7609.895833 L 22161.979167 8365.885417 L 22414.0625 7609.895833 " transform="matrix(0.015,0,0,0.015,0,0)"/>
<path style="fill:none;stroke-width:76;stroke-linecap:round;stroke-linejoin:round;stroke:rgb(0%,0%,0%);stroke-opacity:1;stroke-miterlimit:10;" d="M 23097.916667 8294.010417 L 23061.979167 8329.947917 L 22953.90625 8365.885417 L 22882.03125 8365.885417 L 22773.958333 8329.947917 L 22702.083333 8258.072917 L 22665.885417 8185.9375 L 22629.947917 8041.927083 L 22629.947917 7934.114583 L 22665.885417 7790.104167 L 22702.083333 7717.96875 L 22773.958333 7646.09375 L 22882.03125 7609.895833 L 22953.90625 7609.895833 L 23061.979167 7646.09375 L 23097.916667 7682.03125 " transform="matrix(0.015,0,0,0.015,0,0)"/>
<path style="fill:none;stroke-width:76;stroke-linecap:round;stroke-linejoin:round;stroke:rgb(0%,0%,0%);stroke-opacity:1;stroke-miterlimit:10;" d="M 23565.885417 7609.895833 L 23709.895833 7609.895833 L 23782.03125 7646.09375 L 23853.125 7717.96875 L 23889.0625 7861.979167 L 23889.0625 8114.0625 L 23853.125 8258.072917 L 23782.03125 8329.947917 L 23709.895833 8365.885417 L 23565.885417 8365.885417 L 23494.010417 8329.947917 L 23421.875 8258.072917 L 23385.9375 8114.0625 L 23385.9375 7861.979167 L 23421.875 7717.96875 L 23494.010417 7646.09375 L 23565.885417 7609.895833 " transform="matrix(0.015,0,0,0.015,0,0)"/>
<path style="fill:none;stroke-width:23;stroke-linecap:round;stroke-linejoin:round;stroke:rgb(0%,0%,0%);stroke-opacity:1;stroke-miterlimit:10;" d="M 17200 12944.010417 L 15640.104167 12584.114583 " transform="matrix(0.015,0,0,0.015,0,0)"/>
<path style="fill:none;stroke-width:23;stroke-linecap:round;stroke-linejoin:round;stroke:rgb(0%,0%,0%);stroke-opacity:1;stroke-miterlimit:10;" d="M 17200 10784.114583 L 15640.104167 11144.010417 " transform="matrix(0.015,0,0,0.015,0,0)"/>
<path style="fill:none;stroke-width:23;stroke-linecap:round;stroke-linejoin:round;stroke:rgb(0%,0%,0%);stroke-opacity:1;stroke-miterlimit:10;" d="M 17200 12944.010417 L 17200 10784.114583 " transform="matrix(0.015,0,0,0.015,0,0)"/>
<path style="fill:none;stroke-width:23;stroke-linecap:round;stroke-linejoin:round;stroke:rgb(0%,0%,0%);stroke-opacity:1;stroke-miterlimit:10;" d="M 23890.104167 13163.020833 L 23320.052083 14023.958333 " transform="matrix(0.015,0,0,0.015,0,0)"/>
<path style="fill:none;stroke-width:9;stroke-linecap:round;stroke-linejoin:round;stroke:rgb(0%,0%,0%);stroke-opacity:1;stroke-miterlimit:10;" d="M 26140.885417 11864.583333 C 26140.885417 12400.520833 25854.947917 12895.833333 25390.625 13164.0625 C 24926.5625 13432.03125 24354.427083 13432.03125 23890.364583 13164.0625 C 23426.041667 12895.833333 23140.104167 12400.520833 23140.104167 11864.583333 C 23140.104167 11328.385417 23426.041667 10833.072917 23890.364583 10565.104167 C 24354.427083 10296.875 24926.5625 10296.875 25390.625 10565.104167 C 25854.947917 10833.072917 26140.885417 11328.385417 26140.885417 11864.583333 Z M 26140.885417 11864.583333 " transform="matrix(0.015,0,0,0.015,0,0)"/>
<path style="fill:none;stroke-width:9;stroke-linecap:round;stroke-linejoin:round;stroke:rgb(0%,0%,0%);stroke-opacity:1;stroke-miterlimit:10;" d="M 27190.885417 11864.583333 C 27190.885417 12775.78125 26704.947917 13617.708333 25915.625 14073.177083 C 25126.5625 14528.90625 24154.427083 14528.90625 23365.364583 14073.177083 C 22576.041667 13617.708333 22090.104167 12775.78125 22090.104167 11864.583333 C 22090.104167 10953.385417 22576.041667 10111.197917 23365.364583 9655.729167 C 24154.427083 9200 25126.5625 9200 25915.625 9655.729167 C 26704.947917 10111.197917 27190.885417 10953.385417 27190.885417 11864.583333 Z M 27190.885417 11864.583333 " transform="matrix(0.015,0,0,0.015,0,0)"/>
<path style="fill:none;stroke-width:23;stroke-linecap:round;stroke-linejoin:round;stroke:rgb(0%,0%,0%);stroke-opacity:1;stroke-miterlimit:10;" d="M 12400 11744.010417 L 12400 11984.114583 " transform="matrix(0.015,0,0,0.015,0,0)"/>
<path style="fill:none;stroke-width:23;stroke-linecap:round;stroke-linejoin:round;stroke:rgb(0%,0%,0%);stroke-opacity:1;stroke-miterlimit:10;" d="M 12400 11744.010417 L 13959.895833 11384.114583 " transform="matrix(0.015,0,0,0.015,0,0)"/>
<path style="fill:none;stroke-width:23;stroke-linecap:round;stroke-linejoin:round;stroke:rgb(0%,0%,0%);stroke-opacity:1;stroke-miterlimit:10;" d="M 12400 11984.114583 L 13959.895833 12344.010417 " transform="matrix(0.015,0,0,0.015,0,0)"/>
<path style="fill:none;stroke-width:23;stroke-linecap:round;stroke-linejoin:round;stroke:rgb(0%,0%,0%);stroke-opacity:1;stroke-miterlimit:10;" d="M 13870.052083 11864.0625 L 12400 11864.0625 " transform="matrix(0.015,0,0,0.015,0,0)"/>
<path style="fill:none;stroke-width:9;stroke-linecap:round;stroke-linejoin:round;stroke:rgb(0%,0%,0%);stroke-opacity:1;stroke-miterlimit:10;" d="M 17471.09375 11864.583333 C 17471.09375 12775.78125 16984.895833 13617.708333 16195.833333 14073.177083 C 15406.510417 14528.90625 14434.375 14528.90625 13645.3125 14073.177083 C 12856.25 13617.708333 12370.052083 12775.78125 12370.052083 11864.583333 C 12370.052083 10953.385417 12856.25 10111.197917 13645.3125 9655.729167 C 14434.375 9200 15406.510417 9200 16195.833333 9655.729167 C 16984.895833 10111.197917 17471.09375 10953.385417 17471.09375 11864.583333 Z M 17471.09375 11864.583333 " transform="matrix(0.015,0,0,0.015,0,0)"/>
<path style="fill:none;stroke-width:9;stroke-linecap:round;stroke-linejoin:round;stroke:rgb(0%,0%,0%);stroke-opacity:1;stroke-miterlimit:10;" d="M 15971.09375 11864.583333 C 15971.09375 12239.84375 15770.833333 12586.71875 15445.833333 12774.21875 C 15120.833333 12961.979167 14720.3125 12961.979167 14395.3125 12774.21875 C 14070.3125 12586.71875 13870.052083 12239.84375 13870.052083 11864.583333 C 13870.052083 11489.0625 14070.3125 11142.447917 14395.3125 10954.6875 C 14720.3125 10767.1875 15120.833333 10767.1875 15445.833333 10954.6875 C 15770.833333 11142.447917 15971.09375 11489.0625 15971.09375 11864.583333 Z M 15971.09375 11864.583333 " transform="matrix(0.015,0,0,0.015,0,0)"/>
<path style="fill:none;stroke-width:76;stroke-linecap:round;stroke-linejoin:round;stroke:rgb(0%,0%,0%);stroke-opacity:1;stroke-miterlimit:10;" d="M 13215.885417 22370.052083 L 13467.96875 22370.052083 " transform="matrix(0.015,0,0,0.015,0,0)"/>
<path style="fill:none;stroke-width:76;stroke-linecap:round;stroke-linejoin:round;stroke:rgb(0%,0%,0%);stroke-opacity:1;stroke-miterlimit:10;" d="M 13576.041667 22765.885417 L 13215.885417 22765.885417 L 13215.885417 22009.895833 L 13576.041667 22009.895833 " transform="matrix(0.015,0,0,0.015,0,0)"/>
<path style="fill:none;stroke-width:76;stroke-linecap:round;stroke-linejoin:round;stroke:rgb(0%,0%,0%);stroke-opacity:1;stroke-miterlimit:10;" d="M 13828.125 22009.895833 L 14332.03125 22765.885417 " transform="matrix(0.015,0,0,0.015,0,0)"/>
<path style="fill:none;stroke-width:76;stroke-linecap:round;stroke-linejoin:round;stroke:rgb(0%,0%,0%);stroke-opacity:1;stroke-miterlimit:10;" d="M 14332.03125 22009.895833 L 13828.125 22765.885417 " transform="matrix(0.015,0,0,0.015,0,0)"/>
<path style="fill:none;stroke-width:76;stroke-linecap:round;stroke-linejoin:round;stroke:rgb(0%,0%,0%);stroke-opacity:1;stroke-miterlimit:10;" d="M 14620.052083 22765.885417 L 14620.052083 22009.895833 L 14908.072917 22009.895833 L 14979.947917 22046.09375 L 15015.885417 22082.03125 L 15052.083333 22153.90625 L 15052.083333 22261.979167 L 15015.885417 22334.114583 L 14979.947917 22370.052083 L 14908.072917 22405.989583 L 14620.052083 22405.989583 " transform="matrix(0.015,0,0,0.015,0,0)"/>
<path style="fill:none;stroke-width:76;stroke-linecap:round;stroke-linejoin:round;stroke:rgb(0%,0%,0%);stroke-opacity:1;stroke-miterlimit:10;" d="M 16203.90625 22370.052083 L 15952.083333 22370.052083 " transform="matrix(0.015,0,0,0.015,0,0)"/>
<path style="fill:none;stroke-width:76;stroke-linecap:round;stroke-linejoin:round;stroke:rgb(0%,0%,0%);stroke-opacity:1;stroke-miterlimit:10;" d="M 15952.083333 22765.885417 L 15952.083333 22009.895833 L 16311.979167 22009.895833 " transform="matrix(0.015,0,0,0.015,0,0)"/>
<path style="fill:none;stroke-width:76;stroke-linecap:round;stroke-linejoin:round;stroke:rgb(0%,0%,0%);stroke-opacity:1;stroke-miterlimit:10;" d="M 16600 22765.885417 L 16600 22009.895833 L 16852.083333 22550 L 17103.90625 22009.895833 L 17103.90625 22765.885417 " transform="matrix(0.015,0,0,0.015,0,0)"/>
<path style="fill:none;stroke-width:76;stroke-linecap:round;stroke-linejoin:round;stroke:rgb(0%,0%,0%);stroke-opacity:1;stroke-miterlimit:10;" d="M 13432.03125 14809.895833 L 13576.041667 14809.895833 L 13647.916667 14846.09375 L 13720.052083 14917.96875 L 13755.989583 15061.979167 L 13755.989583 15314.0625 L 13720.052083 15458.072917 L 13647.916667 15529.947917 L 13576.041667 15565.885417 L 13432.03125 15565.885417 L 13359.895833 15529.947917 L 13288.020833 15458.072917 L 13252.083333 15314.0625 L 13252.083333 15061.979167 L 13288.020833 14917.96875 L 13359.895833 14846.09375 L 13432.03125 14809.895833 " transform="matrix(0.015,0,0,0.015,0,0)"/>
<path style="fill:none;stroke-width:76;stroke-linecap:round;stroke-linejoin:round;stroke:rgb(0%,0%,0%);stroke-opacity:1;stroke-miterlimit:10;" d="M 14511.979167 15494.010417 L 14476.041667 15529.947917 L 14367.96875 15565.885417 L 14296.09375 15565.885417 L 14188.020833 15529.947917 L 14115.885417 15458.072917 L 14079.947917 15385.9375 L 14044.010417 15241.927083 L 14044.010417 15134.114583 L 14079.947917 14990.104167 L 14115.885417 14917.96875 L 14188.020833 14846.09375 L 14296.09375 14809.895833 L 14367.96875 14809.895833 L 14476.041667 14846.09375 L 14511.979167 14882.03125 " transform="matrix(0.015,0,0,0.015,0,0)"/>
<path style="fill:none;stroke-width:76;stroke-linecap:round;stroke-linejoin:round;stroke:rgb(0%,0%,0%);stroke-opacity:1;stroke-miterlimit:10;" d="M 14728.125 14809.895833 L 15159.895833 14809.895833 " transform="matrix(0.015,0,0,0.015,0,0)"/>
<path style="fill:none;stroke-width:76;stroke-linecap:round;stroke-linejoin:round;stroke:rgb(0%,0%,0%);stroke-opacity:1;stroke-miterlimit:10;" d="M 14944.010417 15565.885417 L 14944.010417 14809.895833 " transform="matrix(0.015,0,0,0.015,0,0)"/>
<path style="fill:none;stroke-width:76;stroke-linecap:round;stroke-linejoin:round;stroke:rgb(0%,0%,0%);stroke-opacity:1;stroke-miterlimit:10;" d="M 15376.041667 15350 L 15735.9375 15350 " transform="matrix(0.015,0,0,0.015,0,0)"/>
<path style="fill:none;stroke-width:76;stroke-linecap:round;stroke-linejoin:round;stroke:rgb(0%,0%,0%);stroke-opacity:1;stroke-miterlimit:10;" d="M 15303.90625 15565.885417 L 15555.989583 14809.895833 L 15808.072917 15565.885417 " transform="matrix(0.015,0,0,0.015,0,0)"/>
<path style="fill:none;stroke-width:76;stroke-linecap:round;stroke-linejoin:round;stroke:rgb(0%,0%,0%);stroke-opacity:1;stroke-miterlimit:10;" d="M 15952.083333 14809.895833 L 16203.90625 15565.885417 L 16455.989583 14809.895833 " transform="matrix(0.015,0,0,0.015,0,0)"/>
<path style="fill:none;stroke-width:76;stroke-linecap:round;stroke-linejoin:round;stroke:rgb(0%,0%,0%);stroke-opacity:1;stroke-miterlimit:10;" d="M 16708.072917 15170.052083 L 16959.895833 15170.052083 " transform="matrix(0.015,0,0,0.015,0,0)"/>
<path style="fill:none;stroke-width:76;stroke-linecap:round;stroke-linejoin:round;stroke:rgb(0%,0%,0%);stroke-opacity:1;stroke-miterlimit:10;" d="M 17067.96875 15565.885417 L 16708.072917 15565.885417 L 16708.072917 14809.895833 L 17067.96875 14809.895833 " transform="matrix(0.015,0,0,0.015,0,0)"/>
<path style="fill:none;stroke-width:23;stroke-linecap:round;stroke-linejoin:round;stroke:rgb(0%,0%,0%);stroke-opacity:1;stroke-miterlimit:10;" d="M 14290.104167 20363.020833 L 13720.052083 21223.958333 " transform="matrix(0.015,0,0,0.015,0,0)"/>
<path style="fill:none;stroke-width:9;stroke-linecap:round;stroke-linejoin:round;stroke:rgb(0%,0%,0%);stroke-opacity:1;stroke-miterlimit:10;" d="M 16540.885417 19064.583333 C 16540.885417 19600.520833 16254.947917 20095.833333 15790.625 20364.0625 C 15326.5625 20632.03125 14754.427083 20632.03125 14290.364583 20364.0625 C 13826.041667 20095.833333 13540.104167 19600.520833 13540.104167 19064.583333 C 13540.104167 18528.385417 13826.041667 18033.072917 14290.364583 17765.104167 C 14754.427083 17496.875 15326.5625 17496.875 15790.625 17765.104167 C 16254.947917 18033.072917 16540.885417 18528.385417 16540.885417 19064.583333 Z M 16540.885417 19064.583333 " transform="matrix(0.015,0,0,0.015,0,0)"/>
<path style="fill:none;stroke-width:9;stroke-linecap:round;stroke-linejoin:round;stroke:rgb(0%,0%,0%);stroke-opacity:1;stroke-miterlimit:10;" d="M 17590.885417 19064.583333 C 17590.885417 19975.78125 17104.947917 20817.708333 16315.625 21273.177083 C 15526.5625 21728.90625 14554.427083 21728.90625 13765.364583 21273.177083 C 12976.041667 20817.708333 12490.104167 19975.78125 12490.104167 19064.583333 C 12490.104167 18153.385417 12976.041667 17311.197917 13765.364583 16855.729167 C 14554.427083 16400 15526.5625 16400 16315.625 16855.729167 C 17104.947917 17311.197917 17590.885417 18153.385417 17590.885417 19064.583333 Z M 17590.885417 19064.583333 " transform="matrix(0.015,0,0,0.015,0,0)"/>
<path style="fill:none;stroke-width:23;stroke-linecap:round;stroke-linejoin:round;stroke:rgb(0%,0%,0%);stroke-opacity:1;stroke-miterlimit:10;" d="M 20079.947917 33823.958333 L 19600 34303.90625 " transform="matrix(0.015,0,0,0.015,0,0)"/>
<path style="fill:none;stroke-width:23;stroke-linecap:round;stroke-linejoin:round;stroke:rgb(0%,0%,0%);stroke-opacity:1;stroke-miterlimit:10;" d="M 19480.46875 34904.427083 C 19480.46875 35036.979167 19373.177083 35144.53125 19240.625 35144.53125 C 19108.072917 35144.53125 19000.520833 35036.979167 19000.520833 34904.427083 " transform="matrix(0.015,0,0,0.015,0,0)"/>
<path style="fill:none;stroke-width:23;stroke-linecap:round;stroke-linejoin:round;stroke:rgb(0%,0%,0%);stroke-opacity:1;stroke-miterlimit:10;" d="M 19600 34303.90625 L 19479.947917 34303.90625 " transform="matrix(0.015,0,0,0.015,0,0)"/>
<path style="fill:none;stroke-width:23;stroke-linecap:round;stroke-linejoin:round;stroke:rgb(0%,0%,0%);stroke-opacity:1;stroke-miterlimit:10;" d="M 19000.520833 33464.583333 C 19000.520833 33332.03125 19108.072917 33224.479167 19240.625 33224.479167 C 19373.177083 33224.479167 19480.46875 33332.03125 19480.46875 33464.583333 " transform="matrix(0.015,0,0,0.015,0,0)"/>
<path style="fill:none;stroke-width:23;stroke-linecap:round;stroke-linejoin:round;stroke:rgb(0%,0%,0%);stroke-opacity:1;stroke-miterlimit:10;" d="M 19479.947917 33464.0625 L 19479.947917 34903.90625 " transform="matrix(0.015,0,0,0.015,0,0)"/>
<path style="fill:none;stroke-width:23;stroke-linecap:round;stroke-linejoin:round;stroke:rgb(0%,0%,0%);stroke-opacity:1;stroke-miterlimit:10;" d="M 19000 33464.0625 L 19000 34903.90625 " transform="matrix(0.015,0,0,0.015,0,0)"/>
<path style="fill:none;stroke-width:23;stroke-linecap:round;stroke-linejoin:round;stroke:rgb(0%,0%,0%);stroke-opacity:1;stroke-miterlimit:10;" d="M 18879.947917 34303.90625 L 19000 34303.90625 " transform="matrix(0.015,0,0,0.015,0,0)"/>
<path style="fill:none;stroke-width:23;stroke-linecap:round;stroke-linejoin:round;stroke:rgb(0%,0%,0%);stroke-opacity:1;stroke-miterlimit:10;" d="M 16720.052083 33823.958333 L 16240.104167 34303.90625 " transform="matrix(0.015,0,0,0.015,0,0)"/>
<path style="fill:none;stroke-width:23;stroke-linecap:round;stroke-linejoin:round;stroke:rgb(0%,0%,0%);stroke-opacity:1;stroke-miterlimit:10;" d="M 15640.104167 33464.0625 L 15640.104167 34903.90625 " transform="matrix(0.015,0,0,0.015,0,0)"/>
<path style="fill:none;stroke-width:23;stroke-linecap:round;stroke-linejoin:round;stroke:rgb(0%,0%,0%);stroke-opacity:1;stroke-miterlimit:10;" d="M 16120.052083 33464.0625 L 16120.052083 34903.90625 " transform="matrix(0.015,0,0,0.015,0,0)"/>
<path style="fill:none;stroke-width:23;stroke-linecap:round;stroke-linejoin:round;stroke:rgb(0%,0%,0%);stroke-opacity:1;stroke-miterlimit:10;" d="M 15520.052083 32623.958333 L 16240.104167 32623.958333 " transform="matrix(0.015,0,0,0.015,0,0)"/>
<path style="fill:none;stroke-width:23;stroke-linecap:round;stroke-linejoin:round;stroke:rgb(0%,0%,0%);stroke-opacity:1;stroke-miterlimit:10;" d="M 16240.104167 32623.958333 L 16720.052083 33103.90625 " transform="matrix(0.015,0,0,0.015,0,0)"/>
<path style="fill:none;stroke-width:23;stroke-linecap:round;stroke-linejoin:round;stroke:rgb(0%,0%,0%);stroke-opacity:1;stroke-miterlimit:10;" d="M 16720.052083 33103.90625 L 16720.052083 33823.958333 " transform="matrix(0.015,0,0,0.015,0,0)"/>
<path style="fill:none;stroke-width:23;stroke-linecap:round;stroke-linejoin:round;stroke:rgb(0%,0%,0%);stroke-opacity:1;stroke-miterlimit:10;" d="M 15040.104167 33103.90625 L 15520.052083 32623.958333 " transform="matrix(0.015,0,0,0.015,0,0)"/>
<path style="fill:none;stroke-width:23;stroke-linecap:round;stroke-linejoin:round;stroke:rgb(0%,0%,0%);stroke-opacity:1;stroke-miterlimit:10;" d="M 15640.625 33464.583333 C 15640.625 33332.03125 15747.916667 33224.479167 15880.46875 33224.479167 C 16013.020833 33224.479167 16120.572917 33332.03125 16120.572917 33464.583333 " transform="matrix(0.015,0,0,0.015,0,0)"/>
<path style="fill:none;stroke-width:23;stroke-linecap:round;stroke-linejoin:round;stroke:rgb(0%,0%,0%);stroke-opacity:1;stroke-miterlimit:10;" d="M 15640.625 34664.583333 C 15239.84375 34584.375 14905.729167 34309.635417 14749.479167 33932.03125 C 14593.489583 33554.427083 14636.197917 33123.958333 14863.28125 32784.375 C 15090.364583 32444.53125 15471.875 32240.625 15880.46875 32240.625 C 16289.0625 32240.625 16670.572917 32444.53125 16897.65625 32784.375 C 17125 33123.958333 17167.447917 33554.427083 17011.458333 33932.03125 C 16855.46875 34309.635417 16521.09375 34584.375 16120.572917 34664.583333 " transform="matrix(0.015,0,0,0.015,0,0)"/>
<path style="fill:none;stroke-width:23;stroke-linecap:round;stroke-linejoin:round;stroke:rgb(0%,0%,0%);stroke-opacity:1;stroke-miterlimit:10;" d="M 15520.052083 34303.90625 L 15040.104167 33823.958333 " transform="matrix(0.015,0,0,0.015,0,0)"/>
<path style="fill:none;stroke-width:23;stroke-linecap:round;stroke-linejoin:round;stroke:rgb(0%,0%,0%);stroke-opacity:1;stroke-miterlimit:10;" d="M 15640.625 34064.583333 C 15453.125 33989.583333 15311.458333 33831.25 15257.552083 33636.71875 C 15203.90625 33442.1875 15244.010417 33233.854167 15366.145833 33073.177083 C 15488.541667 32912.5 15678.645833 32818.229167 15880.46875 32818.229167 C 16082.291667 32818.229167 16272.65625 32912.5 16394.791667 33073.177083 C 16516.927083 33233.854167 16557.03125 33442.1875 16503.385417 33636.71875 C 16449.479167 33831.25 16307.8125 33989.583333 16120.572917 34064.583333 " transform="matrix(0.015,0,0,0.015,0,0)"/>
<path style="fill:none;stroke-width:23;stroke-linecap:round;stroke-linejoin:round;stroke:rgb(0%,0%,0%);stroke-opacity:1;stroke-miterlimit:10;" d="M 15520.052083 34303.90625 L 15640.104167 34303.90625 " transform="matrix(0.015,0,0,0.015,0,0)"/>
<path style="fill:none;stroke-width:23;stroke-linecap:round;stroke-linejoin:round;stroke:rgb(0%,0%,0%);stroke-opacity:1;stroke-miterlimit:10;" d="M 16240.104167 34303.90625 L 16120.052083 34303.90625 " transform="matrix(0.015,0,0,0.015,0,0)"/>
<path style="fill:none;stroke-width:76;stroke-linecap:round;stroke-linejoin:round;stroke:rgb(0%,0%,0%);stroke-opacity:1;stroke-miterlimit:10;" d="M 15838.020833 36326.041667 L 15838.020833 35570.052083 L 16126.041667 35570.052083 L 16197.916667 35605.989583 L 16234.114583 35641.927083 L 16270.052083 35714.0625 L 16270.052083 35821.875 L 16234.114583 35894.010417 L 16197.916667 35929.947917 L 16126.041667 35965.885417 L 15838.020833 35965.885417 " transform="matrix(0.015,0,0,0.015,0,0)"/>
<path style="fill:none;stroke-width:76;stroke-linecap:round;stroke-linejoin:round;stroke:rgb(0%,0%,0%);stroke-opacity:1;stroke-miterlimit:10;" d="M 16594.010417 35570.052083 L 16594.010417 36182.03125 L 16629.947917 36253.90625 L 16665.885417 36290.104167 L 16738.020833 36326.041667 L 16882.03125 36326.041667 L 16953.90625 36290.104167 L 16990.104167 36253.90625 L 17026.041667 36182.03125 L 17026.041667 35570.052083 " transform="matrix(0.015,0,0,0.015,0,0)"/>
<path style="fill:none;stroke-width:76;stroke-linecap:round;stroke-linejoin:round;stroke:rgb(0%,0%,0%);stroke-opacity:1;stroke-miterlimit:10;" d="M 17746.09375 36326.041667 L 17385.9375 36326.041667 L 17385.9375 35570.052083 " transform="matrix(0.015,0,0,0.015,0,0)"/>
<path style="fill:none;stroke-width:76;stroke-linecap:round;stroke-linejoin:round;stroke:rgb(0%,0%,0%);stroke-opacity:1;stroke-miterlimit:10;" d="M 17961.979167 36290.104167 L 18070.052083 36326.041667 L 18250 36326.041667 L 18321.875 36290.104167 L 18358.072917 36253.90625 L 18394.010417 36182.03125 L 18394.010417 36109.895833 L 18358.072917 36038.020833 L 18321.875 36002.083333 L 18250 35965.885417 L 18105.989583 35929.947917 L 18034.114583 35894.010417 L 17997.916667 35858.072917 L 17961.979167 35785.9375 L 17961.979167 35714.0625 L 17997.916667 35641.927083 L 18034.114583 35605.989583 L 18105.989583 35570.052083 L 18285.9375 35570.052083 L 18394.010417 35605.989583 " transform="matrix(0.015,0,0,0.015,0,0)"/>
<path style="fill:none;stroke-width:76;stroke-linecap:round;stroke-linejoin:round;stroke:rgb(0%,0%,0%);stroke-opacity:1;stroke-miterlimit:10;" d="M 18717.96875 35929.947917 L 18970.052083 35929.947917 " transform="matrix(0.015,0,0,0.015,0,0)"/>
<path style="fill:none;stroke-width:76;stroke-linecap:round;stroke-linejoin:round;stroke:rgb(0%,0%,0%);stroke-opacity:1;stroke-miterlimit:10;" d="M 19078.125 36326.041667 L 18717.96875 36326.041667 L 18717.96875 35570.052083 L 19078.125 35570.052083 " transform="matrix(0.015,0,0,0.015,0,0)"/>
<path style="fill:none;stroke-width:76;stroke-linecap:round;stroke-linejoin:round;stroke:rgb(0%,0%,0%);stroke-opacity:1;stroke-miterlimit:10;" d="M 19365.885417 36290.104167 L 19473.958333 36326.041667 L 19653.90625 36326.041667 L 19726.041667 36290.104167 L 19761.979167 36253.90625 L 19797.916667 36182.03125 L 19797.916667 36109.895833 L 19761.979167 36038.020833 L 19726.041667 36002.083333 L 19653.90625 35965.885417 L 19509.895833 35929.947917 L 19438.020833 35894.010417 L 19402.083333 35858.072917 L 19365.885417 35785.9375 L 19365.885417 35714.0625 L 19402.083333 35641.927083 L 19438.020833 35605.989583 L 19509.895833 35570.052083 L 19690.104167 35570.052083 L 19797.916667 35605.989583 " transform="matrix(0.015,0,0,0.015,0,0)"/>
<path style="fill:none;stroke-width:23;stroke-linecap:round;stroke-linejoin:round;stroke:rgb(0%,0%,0%);stroke-opacity:1;stroke-miterlimit:10;" d="M 16120.572917 34904.427083 C 16120.572917 35036.979167 16013.020833 35144.53125 15880.46875 35144.53125 C 15747.916667 35144.53125 15640.625 35036.979167 15640.625 34904.427083 " transform="matrix(0.015,0,0,0.015,0,0)"/>
<path style="fill:none;stroke-width:23;stroke-linecap:round;stroke-linejoin:round;stroke:rgb(0%,0%,0%);stroke-opacity:1;stroke-miterlimit:10;" d="M 16120.052083 38264.0625 L 16840.104167 37544.010417 " transform="matrix(0.015,0,0,0.015,0,0)"/>
<path style="fill:none;stroke-width:23;stroke-linecap:round;stroke-linejoin:round;stroke:rgb(0%,0%,0%);stroke-opacity:1;stroke-miterlimit:10;" d="M 18040.104167 37544.010417 L 18759.895833 38264.0625 " transform="matrix(0.015,0,0,0.015,0,0)"/>
<path style="fill:none;stroke-width:23;stroke-linecap:round;stroke-linejoin:round;stroke:rgb(0%,0%,0%);stroke-opacity:1;stroke-miterlimit:10;" d="M 16840.104167 37544.010417 L 18040.104167 37544.010417 " transform="matrix(0.015,0,0,0.015,0,0)"/>
<path style="fill:none;stroke-width:23;stroke-linecap:round;stroke-linejoin:round;stroke:rgb(0%,0%,0%);stroke-opacity:1;stroke-miterlimit:10;" d="M 16120.052083 39464.0625 L 16120.052083 38264.0625 " transform="matrix(0.015,0,0,0.015,0,0)"/>
<path style="fill:none;stroke-width:23;stroke-linecap:round;stroke-linejoin:round;stroke:rgb(0%,0%,0%);stroke-opacity:1;stroke-miterlimit:10;" d="M 16840.104167 40184.114583 L 16120.052083 39464.0625 " transform="matrix(0.015,0,0,0.015,0,0)"/>
<path style="fill:none;stroke-width:23;stroke-linecap:round;stroke-linejoin:round;stroke:rgb(0%,0%,0%);stroke-opacity:1;stroke-miterlimit:10;" d="M 18040.104167 40184.114583 L 16840.104167 40184.114583 " transform="matrix(0.015,0,0,0.015,0,0)"/>
<path style="fill:none;stroke-width:23;stroke-linecap:round;stroke-linejoin:round;stroke:rgb(0%,0%,0%);stroke-opacity:1;stroke-miterlimit:10;" d="M 18759.895833 39464.0625 L 18040.104167 40184.114583 " transform="matrix(0.015,0,0,0.015,0,0)"/>
<path style="fill:none;stroke-width:23;stroke-linecap:round;stroke-linejoin:round;stroke:rgb(0%,0%,0%);stroke-opacity:1;stroke-miterlimit:10;" d="M 18759.895833 38264.0625 L 18759.895833 39464.0625 " transform="matrix(0.015,0,0,0.015,0,0)"/>
<path style="fill:none;stroke-width:23;stroke-linecap:round;stroke-linejoin:round;stroke:rgb(0%,0%,0%);stroke-opacity:1;stroke-miterlimit:10;" d="M 19090.885417 38864.583333 C 19090.885417 39454.166667 18776.302083 39998.958333 18265.625 40293.75 C 17755.208333 40588.802083 17126.041667 40588.802083 16615.364583 40293.75 C 16104.6875 39998.958333 15790.104167 39454.166667 15790.104167 38864.583333 C 15790.104167 38274.739583 16104.6875 37729.947917 16615.364583 37435.15625 C 17126.041667 37140.364583 17755.208333 37140.364583 18265.625 37435.15625 C 18776.302083 37729.947917 19090.885417 38274.739583 19090.885417 38864.583333 Z M 19090.885417 38864.583333 " transform="matrix(0.015,0,0,0.015,0,0)"/>
<path style="fill:none;stroke-width:23;stroke-linecap:round;stroke-linejoin:round;stroke:rgb(0%,0%,0%);stroke-opacity:1;stroke-miterlimit:10;" d="M 18340.885417 38864.583333 C 18340.885417 39186.197917 18169.270833 39483.59375 17890.625 39644.270833 C 17612.239583 39805.208333 17268.75 39805.208333 16990.364583 39644.270833 C 16711.71875 39483.59375 16540.104167 39186.197917 16540.104167 38864.583333 C 16540.104167 38542.708333 16711.71875 38245.572917 16990.364583 38084.635417 C 17268.75 37923.697917 17612.239583 37923.697917 17890.625 38084.635417 C 18169.270833 38245.572917 18340.885417 38542.708333 18340.885417 38864.583333 Z M 18340.885417 38864.583333 " transform="matrix(0.015,0,0,0.015,0,0)"/>
<path style="fill:none;stroke-width:76;stroke-linecap:round;stroke-linejoin:round;stroke:rgb(0%,0%,0%);stroke-opacity:1;stroke-miterlimit:10;" d="M 26050 47090.104167 L 26158.072917 47126.041667 L 26338.020833 47126.041667 L 26409.895833 47090.104167 L 26446.09375 47053.90625 L 26482.03125 46982.03125 L 26482.03125 46909.895833 L 26446.09375 46838.020833 L 26409.895833 46802.083333 L 26338.020833 46765.885417 L 26194.010417 46729.947917 L 26121.875 46694.010417 L 26085.9375 46658.072917 L 26050 46585.9375 L 26050 46514.0625 L 26085.9375 46441.927083 L 26121.875 46405.989583 L 26194.010417 46370.052083 L 26373.958333 46370.052083 L 26482.03125 46405.989583 " transform="matrix(0.015,0,0,0.015,0,0)"/>
<path style="fill:none;stroke-width:76;stroke-linecap:round;stroke-linejoin:round;stroke:rgb(0%,0%,0%);stroke-opacity:1;stroke-miterlimit:10;" d="M 27309.895833 47197.916667 L 27238.020833 47161.979167 L 27165.885417 47090.104167 L 27058.072917 46982.03125 L 26985.9375 46946.09375 L 26914.0625 46946.09375 " transform="matrix(0.015,0,0,0.015,0,0)"/>
<path style="fill:none;stroke-width:76;stroke-linecap:round;stroke-linejoin:round;stroke:rgb(0%,0%,0%);stroke-opacity:1;stroke-miterlimit:10;" d="M 26950 47126.041667 L 26878.125 47090.104167 L 26805.989583 47017.96875 L 26770.052083 46873.958333 L 26770.052083 46621.875 L 26805.989583 46478.125 L 26878.125 46405.989583 L 26950 46370.052083 L 27094.010417 46370.052083 L 27165.885417 46405.989583 L 27238.020833 46478.125 L 27273.958333 46621.875 L 27273.958333 46873.958333 L 27238.020833 47017.96875 L 27165.885417 47090.104167 L 27094.010417 47126.041667 L 26950 47126.041667 " transform="matrix(0.015,0,0,0.015,0,0)"/>
<path style="fill:none;stroke-width:76;stroke-linecap:round;stroke-linejoin:round;stroke:rgb(0%,0%,0%);stroke-opacity:1;stroke-miterlimit:10;" d="M 28029.947917 47126.041667 L 27778.125 46765.885417 " transform="matrix(0.015,0,0,0.015,0,0)"/>
<path style="fill:none;stroke-width:76;stroke-linecap:round;stroke-linejoin:round;stroke:rgb(0%,0%,0%);stroke-opacity:1;stroke-miterlimit:10;" d="M 27597.916667 47126.041667 L 27597.916667 46370.052083 L 27885.9375 46370.052083 L 27958.072917 46405.989583 L 27994.010417 46441.927083 L 28029.947917 46514.0625 L 28029.947917 46621.875 L 27994.010417 46694.010417 L 27958.072917 46729.947917 L 27885.9375 46765.885417 L 27597.916667 46765.885417 " transform="matrix(0.015,0,0,0.015,0,0)"/>
<path style="fill:none;stroke-width:23;stroke-linecap:round;stroke-linejoin:round;stroke:rgb(0%,0%,0%);stroke-opacity:1;stroke-miterlimit:10;" d="M 26440.104167 45584.114583 L 25720.052083 44864.0625 " transform="matrix(0.015,0,0,0.015,0,0)"/>
<path style="fill:none;stroke-width:23;stroke-linecap:round;stroke-linejoin:round;stroke:rgb(0%,0%,0%);stroke-opacity:1;stroke-miterlimit:10;" d="M 25720.052083 44864.0625 L 25720.052083 43664.0625 " transform="matrix(0.015,0,0,0.015,0,0)"/>
<path style="fill:none;stroke-width:23;stroke-linecap:round;stroke-linejoin:round;stroke:rgb(0%,0%,0%);stroke-opacity:1;stroke-miterlimit:10;" d="M 23559.895833 43664.0625 L 23559.895833 44864.0625 " transform="matrix(0.015,0,0,0.015,0,0)"/>
<path style="fill:none;stroke-width:76;stroke-linecap:round;stroke-linejoin:round;stroke:rgb(0%,0%,0%);stroke-opacity:1;stroke-miterlimit:10;" d="M 25978.125 41726.041667 L 25978.125 40970.052083 L 26265.885417 40970.052083 L 26338.020833 41005.989583 L 26373.958333 41041.927083 L 26409.895833 41114.0625 L 26409.895833 41221.875 L 26373.958333 41294.010417 L 26338.020833 41329.947917 L 26265.885417 41365.885417 L 25978.125 41365.885417 " transform="matrix(0.015,0,0,0.015,0,0)"/>
<path style="fill:none;stroke-width:76;stroke-linecap:round;stroke-linejoin:round;stroke:rgb(0%,0%,0%);stroke-opacity:1;stroke-miterlimit:10;" d="M 26661.979167 40970.052083 L 26841.927083 41726.041667 L 26985.9375 41185.9375 L 27129.947917 41726.041667 L 27309.895833 40970.052083 " transform="matrix(0.015,0,0,0.015,0,0)"/>
<path style="fill:none;stroke-width:76;stroke-linecap:round;stroke-linejoin:round;stroke:rgb(0%,0%,0%);stroke-opacity:1;stroke-miterlimit:10;" d="M 27597.916667 41726.041667 L 27597.916667 40970.052083 L 27850 41509.895833 L 28102.083333 40970.052083 L 28102.083333 41726.041667 " transform="matrix(0.015,0,0,0.015,0,0)"/>
<path style="fill:none;stroke-width:76;stroke-linecap:round;stroke-linejoin:round;stroke:rgb(0%,0%,0%);stroke-opacity:1;stroke-miterlimit:10;" d="M 21897.916667 41726.041667 L 21538.020833 41726.041667 L 21538.020833 40970.052083 " transform="matrix(0.015,0,0,0.015,0,0)"/>
<path style="fill:none;stroke-width:76;stroke-linecap:round;stroke-linejoin:round;stroke:rgb(0%,0%,0%);stroke-opacity:1;stroke-miterlimit:10;" d="M 22150 41726.041667 L 22150 40970.052083 " transform="matrix(0.015,0,0,0.015,0,0)"/>
<path style="fill:none;stroke-width:76;stroke-linecap:round;stroke-linejoin:round;stroke:rgb(0%,0%,0%);stroke-opacity:1;stroke-miterlimit:10;" d="M 22509.895833 41726.041667 L 22509.895833 40970.052083 L 22941.927083 41726.041667 L 22941.927083 40970.052083 " transform="matrix(0.015,0,0,0.015,0,0)"/>
<path style="fill:none;stroke-width:23;stroke-linecap:round;stroke-linejoin:round;stroke:rgb(0%,0%,0%);stroke-opacity:1;stroke-miterlimit:10;" d="M 27640.104167 42944.010417 L 28359.895833 43664.0625 " transform="matrix(0.015,0,0,0.015,0,0)"/>
<path style="fill:none;stroke-width:23;stroke-linecap:round;stroke-linejoin:round;stroke:rgb(0%,0%,0%);stroke-opacity:1;stroke-miterlimit:10;" d="M 26440.104167 40184.114583 L 25720.052083 39464.0625 " transform="matrix(0.015,0,0,0.015,0,0)"/>
<path style="fill:none;stroke-width:23;stroke-linecap:round;stroke-linejoin:round;stroke:rgb(0%,0%,0%);stroke-opacity:1;stroke-miterlimit:10;" d="M 23890.885417 44264.583333 C 23890.885417 44854.166667 23576.302083 45398.958333 23065.625 45693.75 C 22555.208333 45988.802083 21926.041667 45988.802083 21415.364583 45693.75 C 20904.6875 45398.958333 20590.104167 44854.166667 20590.104167 44264.583333 C 20590.104167 43674.739583 20904.6875 43129.947917 21415.364583 42835.15625 C 21926.041667 42540.364583 22555.208333 42540.364583 23065.625 42835.15625 C 23576.302083 43129.947917 23890.885417 43674.739583 23890.885417 44264.583333 Z M 23890.885417 44264.583333 " transform="matrix(0.015,0,0,0.015,0,0)"/>
<path style="fill:none;stroke-width:23;stroke-linecap:round;stroke-linejoin:round;stroke:rgb(0%,0%,0%);stroke-opacity:1;stroke-miterlimit:10;" d="M 23140.885417 44264.583333 C 23140.885417 44586.197917 22969.270833 44883.59375 22690.625 45044.270833 C 22412.239583 45205.208333 22068.75 45205.208333 21790.364583 45044.270833 C 21511.71875 44883.59375 21340.104167 44586.197917 21340.104167 44264.583333 C 21340.104167 43942.708333 21511.71875 43645.572917 21790.364583 43484.635417 C 22068.75 43323.697917 22412.239583 43323.697917 22690.625 43484.635417 C 22969.270833 43645.572917 23140.885417 43942.708333 23140.885417 44264.583333 Z M 23140.885417 44264.583333 " transform="matrix(0.015,0,0,0.015,0,0)"/>
<path style="fill:none;stroke-width:23;stroke-linecap:round;stroke-linejoin:round;stroke:rgb(0%,0%,0%);stroke-opacity:1;stroke-miterlimit:10;" d="M 28690.885417 38864.583333 C 28690.885417 39454.166667 28376.302083 39998.958333 27865.625 40293.75 C 27355.208333 40588.802083 26726.041667 40588.802083 26215.364583 40293.75 C 25704.6875 39998.958333 25390.104167 39454.166667 25390.104167 38864.583333 C 25390.104167 38274.739583 25704.6875 37729.947917 26215.364583 37435.15625 C 26726.041667 37140.364583 27355.208333 37140.364583 27865.625 37435.15625 C 28376.302083 37729.947917 28690.885417 38274.739583 28690.885417 38864.583333 Z M 28690.885417 38864.583333 " transform="matrix(0.015,0,0,0.015,0,0)"/>
<path style="fill:none;stroke-width:23;stroke-linecap:round;stroke-linejoin:round;stroke:rgb(0%,0%,0%);stroke-opacity:1;stroke-miterlimit:10;" d="M 25720.052083 43664.0625 L 26440.104167 42944.010417 " transform="matrix(0.015,0,0,0.015,0,0)"/>
<path style="fill:none;stroke-width:23;stroke-linecap:round;stroke-linejoin:round;stroke:rgb(0%,0%,0%);stroke-opacity:1;stroke-miterlimit:10;" d="M 27640.104167 45584.114583 L 26440.104167 45584.114583 " transform="matrix(0.015,0,0,0.015,0,0)"/>
<path style="fill:none;stroke-width:23;stroke-linecap:round;stroke-linejoin:round;stroke:rgb(0%,0%,0%);stroke-opacity:1;stroke-miterlimit:10;" d="M 28359.895833 43664.0625 L 28359.895833 44864.0625 " transform="matrix(0.015,0,0,0.015,0,0)"/>
<path style="fill:none;stroke-width:23;stroke-linecap:round;stroke-linejoin:round;stroke:rgb(0%,0%,0%);stroke-opacity:1;stroke-miterlimit:10;" d="M 28359.895833 44864.0625 L 27640.104167 45584.114583 " transform="matrix(0.015,0,0,0.015,0,0)"/>
<path style="fill:none;stroke-width:23;stroke-linecap:round;stroke-linejoin:round;stroke:rgb(0%,0%,0%);stroke-opacity:1;stroke-miterlimit:10;" d="M 26440.104167 42944.010417 L 27640.104167 42944.010417 " transform="matrix(0.015,0,0,0.015,0,0)"/>
<path style="fill:none;stroke-width:23;stroke-linecap:round;stroke-linejoin:round;stroke:rgb(0%,0%,0%);stroke-opacity:1;stroke-miterlimit:10;" d="M 28690.885417 44264.583333 C 28690.885417 44854.166667 28376.302083 45398.958333 27865.625 45693.75 C 27355.208333 45988.802083 26726.041667 45988.802083 26215.364583 45693.75 C 25704.6875 45398.958333 25390.104167 44854.166667 25390.104167 44264.583333 C 25390.104167 43674.739583 25704.6875 43129.947917 26215.364583 42835.15625 C 26726.041667 42540.364583 27355.208333 42540.364583 27865.625 42835.15625 C 28376.302083 43129.947917 28690.885417 43674.739583 28690.885417 44264.583333 Z M 28690.885417 44264.583333 " transform="matrix(0.015,0,0,0.015,0,0)"/>
<path style="fill:none;stroke-width:23;stroke-linecap:round;stroke-linejoin:round;stroke:rgb(0%,0%,0%);stroke-opacity:1;stroke-miterlimit:10;" d="M 27940.885417 44264.583333 C 27940.885417 44586.197917 27769.270833 44883.59375 27490.625 45044.270833 C 27212.239583 45205.208333 26868.75 45205.208333 26590.364583 45044.270833 C 26311.71875 44883.59375 26140.104167 44586.197917 26140.104167 44264.583333 C 26140.104167 43942.708333 26311.71875 43645.572917 26590.364583 43484.635417 C 26868.75 43323.697917 27212.239583 43323.697917 27490.625 43484.635417 C 27769.270833 43645.572917 27940.885417 43942.708333 27940.885417 44264.583333 Z M 27940.885417 44264.583333 " transform="matrix(0.015,0,0,0.015,0,0)"/>
<path style="fill:none;stroke-width:23;stroke-linecap:round;stroke-linejoin:round;stroke:rgb(0%,0%,0%);stroke-opacity:1;stroke-miterlimit:10;" d="M 20920.052083 38264.0625 L 21640.104167 37544.010417 " transform="matrix(0.015,0,0,0.015,0,0)"/>
<path style="fill:none;stroke-width:23;stroke-linecap:round;stroke-linejoin:round;stroke:rgb(0%,0%,0%);stroke-opacity:1;stroke-miterlimit:10;" d="M 20920.052083 39464.0625 L 20920.052083 38264.0625 " transform="matrix(0.015,0,0,0.015,0,0)"/>
<path style="fill:none;stroke-width:23;stroke-linecap:round;stroke-linejoin:round;stroke:rgb(0%,0%,0%);stroke-opacity:1;stroke-miterlimit:10;" d="M 21640.104167 40184.114583 L 20920.052083 39464.0625 " transform="matrix(0.015,0,0,0.015,0,0)"/>
<path style="fill:none;stroke-width:23;stroke-linecap:round;stroke-linejoin:round;stroke:rgb(0%,0%,0%);stroke-opacity:1;stroke-miterlimit:10;" d="M 22840.104167 40184.114583 L 21640.104167 40184.114583 " transform="matrix(0.015,0,0,0.015,0,0)"/>
<path style="fill:none;stroke-width:23;stroke-linecap:round;stroke-linejoin:round;stroke:rgb(0%,0%,0%);stroke-opacity:1;stroke-miterlimit:10;" d="M 23890.885417 38864.583333 C 23890.885417 39454.166667 23576.302083 39998.958333 23065.625 40293.75 C 22555.208333 40588.802083 21926.041667 40588.802083 21415.364583 40293.75 C 20904.6875 39998.958333 20590.104167 39454.166667 20590.104167 38864.583333 C 20590.104167 38274.739583 20904.6875 37729.947917 21415.364583 37435.15625 C 21926.041667 37140.364583 22555.208333 37140.364583 23065.625 37435.15625 C 23576.302083 37729.947917 23890.885417 38274.739583 23890.885417 38864.583333 Z M 23890.885417 38864.583333 " transform="matrix(0.015,0,0,0.015,0,0)"/>
<path style="fill:none;stroke-width:23;stroke-linecap:round;stroke-linejoin:round;stroke:rgb(0%,0%,0%);stroke-opacity:1;stroke-miterlimit:10;" d="M 23140.885417 38864.583333 C 23140.885417 39186.197917 22969.270833 39483.59375 22690.625 39644.270833 C 22412.239583 39805.208333 22068.75 39805.208333 21790.364583 39644.270833 C 21511.71875 39483.59375 21340.104167 39186.197917 21340.104167 38864.583333 C 21340.104167 38542.708333 21511.71875 38245.572917 21790.364583 38084.635417 C 22068.75 37923.697917 22412.239583 37923.697917 22690.625 38084.635417 C 22969.270833 38245.572917 23140.885417 38542.708333 23140.885417 38864.583333 Z M 23140.885417 38864.583333 " transform="matrix(0.015,0,0,0.015,0,0)"/>
<path style="fill:none;stroke-width:23;stroke-linecap:round;stroke-linejoin:round;stroke:rgb(0%,0%,0%);stroke-opacity:1;stroke-miterlimit:10;" d="M 23559.895833 39464.0625 L 22840.104167 40184.114583 " transform="matrix(0.015,0,0,0.015,0,0)"/>
<path style="fill:none;stroke-width:23;stroke-linecap:round;stroke-linejoin:round;stroke:rgb(0%,0%,0%);stroke-opacity:1;stroke-miterlimit:10;" d="M 23559.895833 38264.0625 L 23559.895833 39464.0625 " transform="matrix(0.015,0,0,0.015,0,0)"/>
<path style="fill:none;stroke-width:23;stroke-linecap:round;stroke-linejoin:round;stroke:rgb(0%,0%,0%);stroke-opacity:1;stroke-miterlimit:10;" d="M 22840.104167 37544.010417 L 23559.895833 38264.0625 " transform="matrix(0.015,0,0,0.015,0,0)"/>
<path style="fill:none;stroke-width:23;stroke-linecap:round;stroke-linejoin:round;stroke:rgb(0%,0%,0%);stroke-opacity:1;stroke-miterlimit:10;" d="M 21640.104167 37544.010417 L 22840.104167 37544.010417 " transform="matrix(0.015,0,0,0.015,0,0)"/>
<path style="fill:none;stroke-width:23;stroke-linecap:round;stroke-linejoin:round;stroke:rgb(0%,0%,0%);stroke-opacity:1;stroke-miterlimit:10;" d="M 15040.104167 33823.958333 L 15040.104167 33103.90625 " transform="matrix(0.015,0,0,0.015,0,0)"/>
<path style="fill:none;stroke-width:23;stroke-linecap:round;stroke-linejoin:round;stroke:rgb(0%,0%,0%);stroke-opacity:1;stroke-miterlimit:10;" d="M 12879.947917 32623.958333 L 13359.895833 33103.90625 " transform="matrix(0.015,0,0,0.015,0,0)"/>
<path style="fill:none;stroke-width:23;stroke-linecap:round;stroke-linejoin:round;stroke:rgb(0%,0%,0%);stroke-opacity:1;stroke-miterlimit:10;" d="M 13359.895833 33103.90625 L 13359.895833 33823.958333 " transform="matrix(0.015,0,0,0.015,0,0)"/>
<path style="fill:none;stroke-width:23;stroke-linecap:round;stroke-linejoin:round;stroke:rgb(0%,0%,0%);stroke-opacity:1;stroke-miterlimit:10;" d="M 13359.895833 33823.958333 L 12879.947917 34303.90625 " transform="matrix(0.015,0,0,0.015,0,0)"/>
<path style="fill:none;stroke-width:23;stroke-linecap:round;stroke-linejoin:round;stroke:rgb(0%,0%,0%);stroke-opacity:1;stroke-miterlimit:10;" d="M 12280.46875 34664.583333 C 11879.947917 34584.375 11545.572917 34309.635417 11389.583333 33932.03125 C 11233.59375 33554.427083 11276.041667 33123.958333 11503.125 32784.375 C 11730.208333 32444.53125 12111.979167 32240.625 12520.572917 32240.625 C 12929.166667 32240.625 13310.677083 32444.53125 13537.760417 32784.375 C 13764.84375 33123.958333 13807.552083 33554.427083 13651.5625 33932.03125 C 13495.3125 34309.635417 13161.197917 34584.375 12760.416667 34664.583333 " transform="matrix(0.015,0,0,0.015,0,0)"/>
<path style="fill:none;stroke-width:23;stroke-linecap:round;stroke-linejoin:round;stroke:rgb(0%,0%,0%);stroke-opacity:1;stroke-miterlimit:10;" d="M 12159.895833 32623.958333 L 12879.947917 32623.958333 " transform="matrix(0.015,0,0,0.015,0,0)"/>
<path style="fill:none;stroke-width:23;stroke-linecap:round;stroke-linejoin:round;stroke:rgb(0%,0%,0%);stroke-opacity:1;stroke-miterlimit:10;" d="M 11679.947917 33823.958333 L 11679.947917 33103.90625 " transform="matrix(0.015,0,0,0.015,0,0)"/>
<path style="fill:none;stroke-width:23;stroke-linecap:round;stroke-linejoin:round;stroke:rgb(0%,0%,0%);stroke-opacity:1;stroke-miterlimit:10;" d="M 11679.947917 33103.90625 L 12159.895833 32623.958333 " transform="matrix(0.015,0,0,0.015,0,0)"/>
<path style="fill:none;stroke-width:23;stroke-linecap:round;stroke-linejoin:round;stroke:rgb(0%,0%,0%);stroke-opacity:1;stroke-miterlimit:10;" d="M 12280.46875 34064.583333 C 12093.229167 33989.583333 11951.5625 33831.25 11897.65625 33636.71875 C 11843.75 33442.1875 11884.114583 33233.854167 12006.25 33073.177083 C 12128.385417 32912.5 12318.75 32818.229167 12520.572917 32818.229167 C 12722.395833 32818.229167 12912.5 32912.5 13034.895833 33073.177083 C 13157.03125 33233.854167 13197.135417 33442.1875 13143.229167 33636.71875 C 13089.583333 33831.25 12947.916667 33989.583333 12760.416667 34064.583333 " transform="matrix(0.015,0,0,0.015,0,0)"/>
<path style="fill:none;stroke-width:23;stroke-linecap:round;stroke-linejoin:round;stroke:rgb(0%,0%,0%);stroke-opacity:1;stroke-miterlimit:10;" d="M 12879.947917 34303.90625 L 12759.895833 34303.90625 " transform="matrix(0.015,0,0,0.015,0,0)"/>
<path style="fill:none;stroke-width:23;stroke-linecap:round;stroke-linejoin:round;stroke:rgb(0%,0%,0%);stroke-opacity:1;stroke-miterlimit:10;" d="M 12280.46875 33464.583333 C 12280.46875 33332.03125 12388.020833 33224.479167 12520.572917 33224.479167 C 12653.125 33224.479167 12760.416667 33332.03125 12760.416667 33464.583333 " transform="matrix(0.015,0,0,0.015,0,0)"/>
<path style="fill:none;stroke-width:23;stroke-linecap:round;stroke-linejoin:round;stroke:rgb(0%,0%,0%);stroke-opacity:1;stroke-miterlimit:10;" d="M 12159.895833 34303.90625 L 11679.947917 33823.958333 " transform="matrix(0.015,0,0,0.015,0,0)"/>
<path style="fill:none;stroke-width:23;stroke-linecap:round;stroke-linejoin:round;stroke:rgb(0%,0%,0%);stroke-opacity:1;stroke-miterlimit:10;" d="M 12279.947917 33464.0625 L 12279.947917 34903.90625 " transform="matrix(0.015,0,0,0.015,0,0)"/>
<path style="fill:none;stroke-width:23;stroke-linecap:round;stroke-linejoin:round;stroke:rgb(0%,0%,0%);stroke-opacity:1;stroke-miterlimit:10;" d="M 12159.895833 34303.90625 L 12279.947917 34303.90625 " transform="matrix(0.015,0,0,0.015,0,0)"/>
<path style="fill:none;stroke-width:23;stroke-linecap:round;stroke-linejoin:round;stroke:rgb(0%,0%,0%);stroke-opacity:1;stroke-miterlimit:10;" d="M 12760.416667 34904.427083 C 12760.416667 35036.979167 12653.125 35144.53125 12520.572917 35144.53125 C 12388.020833 35144.53125 12280.46875 35036.979167 12280.46875 34904.427083 " transform="matrix(0.015,0,0,0.015,0,0)"/>
<path style="fill:none;stroke-width:23;stroke-linecap:round;stroke-linejoin:round;stroke:rgb(0%,0%,0%);stroke-opacity:1;stroke-miterlimit:10;" d="M 12759.895833 33464.0625 L 12759.895833 34903.90625 " transform="matrix(0.015,0,0,0.015,0,0)"/>
<path style="fill:none;stroke-width:23;stroke-linecap:round;stroke-linejoin:round;stroke:rgb(0%,0%,0%);stroke-opacity:1;stroke-miterlimit:10;" d="M 11320.052083 38264.0625 L 12040.104167 37544.010417 " transform="matrix(0.015,0,0,0.015,0,0)"/>
<path style="fill:none;stroke-width:23;stroke-linecap:round;stroke-linejoin:round;stroke:rgb(0%,0%,0%);stroke-opacity:1;stroke-miterlimit:10;" d="M 11320.052083 39464.0625 L 11320.052083 38264.0625 " transform="matrix(0.015,0,0,0.015,0,0)"/>
<path style="fill:none;stroke-width:23;stroke-linecap:round;stroke-linejoin:round;stroke:rgb(0%,0%,0%);stroke-opacity:1;stroke-miterlimit:10;" d="M 12040.104167 40184.114583 L 11320.052083 39464.0625 " transform="matrix(0.015,0,0,0.015,0,0)"/>
<path style="fill:none;stroke-width:23;stroke-linecap:round;stroke-linejoin:round;stroke:rgb(0%,0%,0%);stroke-opacity:1;stroke-miterlimit:10;" d="M 13240.104167 40184.114583 L 12040.104167 40184.114583 " transform="matrix(0.015,0,0,0.015,0,0)"/>
<path style="fill:none;stroke-width:23;stroke-linecap:round;stroke-linejoin:round;stroke:rgb(0%,0%,0%);stroke-opacity:1;stroke-miterlimit:10;" d="M 14290.885417 38864.583333 C 14290.885417 39454.166667 13976.302083 39998.958333 13465.625 40293.75 C 12955.208333 40588.802083 12326.041667 40588.802083 11815.364583 40293.75 C 11304.6875 39998.958333 10990.104167 39454.166667 10990.104167 38864.583333 C 10990.104167 38274.739583 11304.6875 37729.947917 11815.364583 37435.15625 C 12326.041667 37140.364583 12955.208333 37140.364583 13465.625 37435.15625 C 13976.302083 37729.947917 14290.885417 38274.739583 14290.885417 38864.583333 Z M 14290.885417 38864.583333 " transform="matrix(0.015,0,0,0.015,0,0)"/>
<path style="fill:none;stroke-width:23;stroke-linecap:round;stroke-linejoin:round;stroke:rgb(0%,0%,0%);stroke-opacity:1;stroke-miterlimit:10;" d="M 13540.885417 38864.583333 C 13540.885417 39186.197917 13369.270833 39483.59375 13090.625 39644.270833 C 12812.239583 39805.208333 12468.75 39805.208333 12190.364583 39644.270833 C 11911.71875 39483.59375 11740.104167 39186.197917 11740.104167 38864.583333 C 11740.104167 38542.708333 11911.71875 38245.572917 12190.364583 38084.635417 C 12468.75 37923.697917 12812.239583 37923.697917 13090.625 38084.635417 C 13369.270833 38245.572917 13540.885417 38542.708333 13540.885417 38864.583333 Z M 13540.885417 38864.583333 " transform="matrix(0.015,0,0,0.015,0,0)"/>
<path style="fill:none;stroke-width:23;stroke-linecap:round;stroke-linejoin:round;stroke:rgb(0%,0%,0%);stroke-opacity:1;stroke-miterlimit:10;" d="M 13959.895833 39464.0625 L 13240.104167 40184.114583 " transform="matrix(0.015,0,0,0.015,0,0)"/>
<path style="fill:none;stroke-width:23;stroke-linecap:round;stroke-linejoin:round;stroke:rgb(0%,0%,0%);stroke-opacity:1;stroke-miterlimit:10;" d="M 13959.895833 38264.0625 L 13959.895833 39464.0625 " transform="matrix(0.015,0,0,0.015,0,0)"/>
<path style="fill:none;stroke-width:23;stroke-linecap:round;stroke-linejoin:round;stroke:rgb(0%,0%,0%);stroke-opacity:1;stroke-miterlimit:10;" d="M 13240.104167 37544.010417 L 13959.895833 38264.0625 " transform="matrix(0.015,0,0,0.015,0,0)"/>
<path style="fill:none;stroke-width:23;stroke-linecap:round;stroke-linejoin:round;stroke:rgb(0%,0%,0%);stroke-opacity:1;stroke-miterlimit:10;" d="M 12040.104167 37544.010417 L 13240.104167 37544.010417 " transform="matrix(0.015,0,0,0.015,0,0)"/>
<path style="fill:none;stroke-width:23;stroke-linecap:round;stroke-linejoin:round;stroke:rgb(0%,0%,0%);stroke-opacity:1;stroke-miterlimit:10;" d="M 22360.416667 34664.583333 C 21959.895833 34584.375 21625.520833 34309.635417 21469.53125 33932.03125 C 21313.541667 33554.427083 21355.989583 33123.958333 21583.333333 32784.375 C 21810.416667 32444.53125 22191.927083 32240.625 22600.520833 32240.625 C 23009.114583 32240.625 23390.625 32444.53125 23617.708333 32784.375 C 23844.791667 33123.958333 23887.5 33554.427083 23731.510417 33932.03125 C 23575.260417 34309.635417 23241.145833 34584.375 22840.625 34664.583333 " transform="matrix(0.015,0,0,0.015,0,0)"/>
<path style="fill:none;stroke-width:23;stroke-linecap:round;stroke-linejoin:round;stroke:rgb(0%,0%,0%);stroke-opacity:1;stroke-miterlimit:10;" d="M 21759.895833 33823.958333 L 21759.895833 33103.90625 " transform="matrix(0.015,0,0,0.015,0,0)"/>
<path style="fill:none;stroke-width:23;stroke-linecap:round;stroke-linejoin:round;stroke:rgb(0%,0%,0%);stroke-opacity:1;stroke-miterlimit:10;" d="M 22360.416667 34064.583333 C 22173.177083 33989.583333 22031.510417 33831.25 21977.604167 33636.71875 C 21923.958333 33442.1875 21964.0625 33233.854167 22086.197917 33073.177083 C 22208.333333 32912.5 22398.697917 32818.229167 22600.520833 32818.229167 C 22802.34375 32818.229167 22992.447917 32912.5 23114.84375 33073.177083 C 23236.979167 33233.854167 23277.083333 33442.1875 23223.4375 33636.71875 C 23169.53125 33831.25 23027.864583 33989.583333 22840.625 34064.583333 " transform="matrix(0.015,0,0,0.015,0,0)"/>
<path style="fill:none;stroke-width:23;stroke-linecap:round;stroke-linejoin:round;stroke:rgb(0%,0%,0%);stroke-opacity:1;stroke-miterlimit:10;" d="M 22240.104167 34303.90625 L 22359.895833 34303.90625 " transform="matrix(0.015,0,0,0.015,0,0)"/>
<path style="fill:none;stroke-width:23;stroke-linecap:round;stroke-linejoin:round;stroke:rgb(0%,0%,0%);stroke-opacity:1;stroke-miterlimit:10;" d="M 22360.416667 33464.583333 C 22360.416667 33332.03125 22467.96875 33224.479167 22600.520833 33224.479167 C 22733.072917 33224.479167 22840.625 33332.03125 22840.625 33464.583333 " transform="matrix(0.015,0,0,0.015,0,0)"/>
<path style="fill:none;stroke-width:23;stroke-linecap:round;stroke-linejoin:round;stroke:rgb(0%,0%,0%);stroke-opacity:1;stroke-miterlimit:10;" d="M 22240.104167 32623.958333 L 22959.895833 32623.958333 " transform="matrix(0.015,0,0,0.015,0,0)"/>
<path style="fill:none;stroke-width:23;stroke-linecap:round;stroke-linejoin:round;stroke:rgb(0%,0%,0%);stroke-opacity:1;stroke-miterlimit:10;" d="M 22240.104167 34303.90625 L 21759.895833 33823.958333 " transform="matrix(0.015,0,0,0.015,0,0)"/>
<path style="fill:none;stroke-width:23;stroke-linecap:round;stroke-linejoin:round;stroke:rgb(0%,0%,0%);stroke-opacity:1;stroke-miterlimit:10;" d="M 22359.895833 33464.0625 L 22359.895833 34903.90625 " transform="matrix(0.015,0,0,0.015,0,0)"/>
<path style="fill:none;stroke-width:23;stroke-linecap:round;stroke-linejoin:round;stroke:rgb(0%,0%,0%);stroke-opacity:1;stroke-miterlimit:10;" d="M 22840.625 34904.427083 C 22840.625 35036.979167 22733.072917 35144.53125 22600.520833 35144.53125 C 22467.96875 35144.53125 22360.416667 35036.979167 22360.416667 34904.427083 " transform="matrix(0.015,0,0,0.015,0,0)"/>
<path style="fill:none;stroke-width:23;stroke-linecap:round;stroke-linejoin:round;stroke:rgb(0%,0%,0%);stroke-opacity:1;stroke-miterlimit:10;" d="M 22840.104167 33464.0625 L 22840.104167 34903.90625 " transform="matrix(0.015,0,0,0.015,0,0)"/>
<path style="fill:none;stroke-width:23;stroke-linecap:round;stroke-linejoin:round;stroke:rgb(0%,0%,0%);stroke-opacity:1;stroke-miterlimit:10;" d="M 23440.104167 33823.958333 L 22959.895833 34303.90625 " transform="matrix(0.015,0,0,0.015,0,0)"/>
<path style="fill:none;stroke-width:23;stroke-linecap:round;stroke-linejoin:round;stroke:rgb(0%,0%,0%);stroke-opacity:1;stroke-miterlimit:10;" d="M 22959.895833 34303.90625 L 22840.104167 34303.90625 " transform="matrix(0.015,0,0,0.015,0,0)"/>
<path style="fill:none;stroke-width:23;stroke-linecap:round;stroke-linejoin:round;stroke:rgb(0%,0%,0%);stroke-opacity:1;stroke-miterlimit:10;" d="M 26440.104167 34784.114583 L 25720.052083 34064.0625 " transform="matrix(0.015,0,0,0.015,0,0)"/>
<path style="fill:none;stroke-width:23;stroke-linecap:round;stroke-linejoin:round;stroke:rgb(0%,0%,0%);stroke-opacity:1;stroke-miterlimit:10;" d="M 25720.052083 34064.0625 L 25720.052083 32864.0625 " transform="matrix(0.015,0,0,0.015,0,0)"/>
<path style="fill:none;stroke-width:23;stroke-linecap:round;stroke-linejoin:round;stroke:rgb(0%,0%,0%);stroke-opacity:1;stroke-miterlimit:10;" d="M 27640.104167 34784.114583 L 26440.104167 34784.114583 " transform="matrix(0.015,0,0,0.015,0,0)"/>
<path style="fill:none;stroke-width:23;stroke-linecap:round;stroke-linejoin:round;stroke:rgb(0%,0%,0%);stroke-opacity:1;stroke-miterlimit:10;" d="M 28359.895833 32864.0625 L 28359.895833 34064.0625 " transform="matrix(0.015,0,0,0.015,0,0)"/>
<path style="fill:none;stroke-width:23;stroke-linecap:round;stroke-linejoin:round;stroke:rgb(0%,0%,0%);stroke-opacity:1;stroke-miterlimit:10;" d="M 28359.895833 34064.0625 L 27640.104167 34784.114583 " transform="matrix(0.015,0,0,0.015,0,0)"/>
<path style="fill:none;stroke-width:23;stroke-linecap:round;stroke-linejoin:round;stroke:rgb(0%,0%,0%);stroke-opacity:1;stroke-miterlimit:10;" d="M 28690.885417 33464.583333 C 28690.885417 34054.166667 28376.302083 34598.958333 27865.625 34893.75 C 27355.208333 35188.802083 26726.041667 35188.802083 26215.364583 34893.75 C 25704.6875 34598.958333 25390.104167 34054.166667 25390.104167 33464.583333 C 25390.104167 32874.739583 25704.6875 32329.947917 26215.364583 32035.15625 C 26726.041667 31740.364583 27355.208333 31740.364583 27865.625 32035.15625 C 28376.302083 32329.947917 28690.885417 32874.739583 28690.885417 33464.583333 Z M 28690.885417 33464.583333 " transform="matrix(0.015,0,0,0.015,0,0)"/>
<path style="fill:none;stroke-width:23;stroke-linecap:round;stroke-linejoin:round;stroke:rgb(0%,0%,0%);stroke-opacity:1;stroke-miterlimit:10;" d="M 28690.885417 33464.583333 C 28690.885417 34054.166667 28376.302083 34598.958333 27865.625 34893.75 C 27355.208333 35188.802083 26726.041667 35188.802083 26215.364583 34893.75 C 25704.6875 34598.958333 25390.104167 34054.166667 25390.104167 33464.583333 C 25390.104167 32874.739583 25704.6875 32329.947917 26215.364583 32035.15625 C 26726.041667 31740.364583 27355.208333 31740.364583 27865.625 32035.15625 C 28376.302083 32329.947917 28690.885417 32874.739583 28690.885417 33464.583333 Z M 28690.885417 33464.583333 " transform="matrix(0.015,0,0,0.015,0,0)"/>
<path style="fill:none;stroke-width:76;stroke-linecap:round;stroke-linejoin:round;stroke:rgb(0%,0%,0%);stroke-opacity:1;stroke-miterlimit:10;" d="M 25726.041667 36290.104167 L 25834.114583 36326.041667 L 26014.0625 36326.041667 L 26085.9375 36290.104167 L 26121.875 36253.90625 L 26158.072917 36182.03125 L 26158.072917 36109.895833 L 26121.875 36038.020833 L 26085.9375 36002.083333 L 26014.0625 35965.885417 L 25870.052083 35929.947917 L 25797.916667 35894.010417 L 25761.979167 35858.072917 L 25726.041667 35785.9375 L 25726.041667 35714.0625 L 25761.979167 35641.927083 L 25797.916667 35605.989583 L 25870.052083 35570.052083 L 26050 35570.052083 L 26158.072917 35605.989583 " transform="matrix(0.015,0,0,0.015,0,0)"/>
<path style="fill:none;stroke-width:76;stroke-linecap:round;stroke-linejoin:round;stroke:rgb(0%,0%,0%);stroke-opacity:1;stroke-miterlimit:10;" d="M 26626.041667 35965.885417 L 26626.041667 36326.041667 " transform="matrix(0.015,0,0,0.015,0,0)"/>
<path style="fill:none;stroke-width:76;stroke-linecap:round;stroke-linejoin:round;stroke:rgb(0%,0%,0%);stroke-opacity:1;stroke-miterlimit:10;" d="M 26373.958333 35570.052083 L 26626.041667 35965.885417 L 26878.125 35570.052083 " transform="matrix(0.015,0,0,0.015,0,0)"/>
<path style="fill:none;stroke-width:76;stroke-linecap:round;stroke-linejoin:round;stroke:rgb(0%,0%,0%);stroke-opacity:1;stroke-miterlimit:10;" d="M 27129.947917 36326.041667 L 27129.947917 35570.052083 L 27561.979167 36326.041667 L 27561.979167 35570.052083 " transform="matrix(0.015,0,0,0.015,0,0)"/>
<path style="fill:none;stroke-width:76;stroke-linecap:round;stroke-linejoin:round;stroke:rgb(0%,0%,0%);stroke-opacity:1;stroke-miterlimit:10;" d="M 28353.90625 36253.90625 L 28317.96875 36290.104167 L 28209.895833 36326.041667 L 28138.020833 36326.041667 L 28029.947917 36290.104167 L 27958.072917 36217.96875 L 27921.875 36146.09375 L 27885.9375 36002.083333 L 27885.9375 35894.010417 L 27921.875 35750 L 27958.072917 35678.125 L 28029.947917 35605.989583 L 28138.020833 35570.052083 L 28209.895833 35570.052083 L 28317.96875 35605.989583 L 28353.90625 35641.927083 " transform="matrix(0.015,0,0,0.015,0,0)"/>
<path style="fill:none;stroke-width:23;stroke-linecap:round;stroke-linejoin:round;stroke:rgb(0%,0%,0%);stroke-opacity:1;stroke-miterlimit:10;" d="M 25720.052083 38264.0625 L 26440.104167 37544.010417 " transform="matrix(0.015,0,0,0.015,0,0)"/>
<path style="fill:none;stroke-width:23;stroke-linecap:round;stroke-linejoin:round;stroke:rgb(0%,0%,0%);stroke-opacity:1;stroke-miterlimit:10;" d="M 27640.104167 37544.010417 L 28359.895833 38264.0625 " transform="matrix(0.015,0,0,0.015,0,0)"/>
<path style="fill:none;stroke-width:23;stroke-linecap:round;stroke-linejoin:round;stroke:rgb(0%,0%,0%);stroke-opacity:1;stroke-miterlimit:10;" d="M 26440.104167 37544.010417 L 27640.104167 37544.010417 " transform="matrix(0.015,0,0,0.015,0,0)"/>
<path style="fill:none;stroke-width:23;stroke-linecap:round;stroke-linejoin:round;stroke:rgb(0%,0%,0%);stroke-opacity:1;stroke-miterlimit:10;" d="M 25720.052083 39464.0625 L 25720.052083 38264.0625 " transform="matrix(0.015,0,0,0.015,0,0)"/>
<path style="fill:none;stroke-width:23;stroke-linecap:round;stroke-linejoin:round;stroke:rgb(0%,0%,0%);stroke-opacity:1;stroke-miterlimit:10;" d="M 27640.104167 40184.114583 L 26440.104167 40184.114583 " transform="matrix(0.015,0,0,0.015,0,0)"/>
<path style="fill:none;stroke-width:23;stroke-linecap:round;stroke-linejoin:round;stroke:rgb(0%,0%,0%);stroke-opacity:1;stroke-miterlimit:10;" d="M 28359.895833 39464.0625 L 27640.104167 40184.114583 " transform="matrix(0.015,0,0,0.015,0,0)"/>
<path style="fill:none;stroke-width:23;stroke-linecap:round;stroke-linejoin:round;stroke:rgb(0%,0%,0%);stroke-opacity:1;stroke-miterlimit:10;" d="M 28359.895833 38264.0625 L 28359.895833 39464.0625 " transform="matrix(0.015,0,0,0.015,0,0)"/>
<path style="fill:none;stroke-width:23;stroke-linecap:round;stroke-linejoin:round;stroke:rgb(0%,0%,0%);stroke-opacity:1;stroke-miterlimit:10;" d="M 27940.885417 38864.583333 C 27940.885417 39186.197917 27769.270833 39483.59375 27490.625 39644.270833 C 27212.239583 39805.208333 26868.75 39805.208333 26590.364583 39644.270833 C 26311.71875 39483.59375 26140.104167 39186.197917 26140.104167 38864.583333 C 26140.104167 38542.708333 26311.71875 38245.572917 26590.364583 38084.635417 C 26868.75 37923.697917 27212.239583 37923.697917 27490.625 38084.635417 C 27769.270833 38245.572917 27940.885417 38542.708333 27940.885417 38864.583333 Z M 27940.885417 38864.583333 " transform="matrix(0.015,0,0,0.015,0,0)"/>
<path style="fill:none;stroke-width:23;stroke-linecap:round;stroke-linejoin:round;stroke:rgb(0%,0%,0%);stroke-opacity:1;stroke-miterlimit:10;" d="M 27640.104167 32144.010417 L 28359.895833 32864.0625 " transform="matrix(0.015,0,0,0.015,0,0)"/>
<path style="fill:none;stroke-width:23;stroke-linecap:round;stroke-linejoin:round;stroke:rgb(0%,0%,0%);stroke-opacity:1;stroke-miterlimit:10;" d="M 26440.104167 32144.010417 L 27640.104167 32144.010417 " transform="matrix(0.015,0,0,0.015,0,0)"/>
<path style="fill:none;stroke-width:23;stroke-linecap:round;stroke-linejoin:round;stroke:rgb(0%,0%,0%);stroke-opacity:1;stroke-miterlimit:10;" d="M 27940.885417 33464.583333 C 27940.885417 33786.197917 27769.270833 34083.59375 27490.625 34244.270833 C 27212.239583 34405.208333 26868.75 34405.208333 26590.364583 34244.270833 C 26311.71875 34083.59375 26140.104167 33786.197917 26140.104167 33464.583333 C 26140.104167 33142.708333 26311.71875 32845.572917 26590.364583 32684.635417 C 26868.75 32523.697917 27212.239583 32523.697917 27490.625 32684.635417 C 27769.270833 32845.572917 27940.885417 33142.708333 27940.885417 33464.583333 Z M 27940.885417 33464.583333 " transform="matrix(0.015,0,0,0.015,0,0)"/>
<path style="fill:none;stroke-width:23;stroke-linecap:round;stroke-linejoin:round;stroke:rgb(0%,0%,0%);stroke-opacity:1;stroke-miterlimit:10;" d="M 27940.885417 33464.583333 C 27940.885417 33786.197917 27769.270833 34083.59375 27490.625 34244.270833 C 27212.239583 34405.208333 26868.75 34405.208333 26590.364583 34244.270833 C 26311.71875 34083.59375 26140.104167 33786.197917 26140.104167 33464.583333 C 26140.104167 33142.708333 26311.71875 32845.572917 26590.364583 32684.635417 C 26868.75 32523.697917 27212.239583 32523.697917 27490.625 32684.635417 C 27769.270833 32845.572917 27940.885417 33142.708333 27940.885417 33464.583333 Z M 27940.885417 33464.583333 " transform="matrix(0.015,0,0,0.015,0,0)"/>
</g>
</svg>
