<?xml version="1.0" encoding="UTF-8"?>
<svg xmlns="http://www.w3.org/2000/svg" xmlns:xlink="http://www.w3.org/1999/xlink" width="595.275591pt" height="841.889764pt" viewBox="0 0 595.275591 841.889764" version="1.2">
<g id="surface10794">
<rect x="0" y="0" width="595.275591" height="841.889764" style="fill:rgb(100%,100%,100%);fill-opacity:1;stroke:none;"/>
<path style="fill:none;stroke-width:9;stroke-linecap:round;stroke-linejoin:round;stroke:rgb(0%,0%,0%);stroke-opacity:1;stroke-miterlimit:10;" d="M 29440.885417 47864.583333 C 29440.885417 48079.166667 29326.5625 48277.34375 29140.625 48384.635417 C 28954.947917 48491.927083 28726.041667 48491.927083 28540.364583 48384.635417 C 28354.427083 48277.34375 28240.104167 48079.166667 28240.104167 47864.583333 C 28240.104167 47650 28354.427083 47451.822917 28540.364583 47344.53125 C 28726.041667 47237.239583 28954.947917 47237.239583 29140.625 47344.53125 C 29326.5625 47451.822917 29440.885417 47650 29440.885417 47864.583333 Z M 29440.885417 47864.583333 " transform="matrix(0.015,0,0,0.015,0,0)"/>
<path style="fill:none;stroke-width:9;stroke-linecap:round;stroke-linejoin:round;stroke:rgb(0%,0%,0%);stroke-opacity:1;stroke-miterlimit:10;" d="M 11440.885417 8264.583333 C 11440.885417 8479.166667 11326.5625 8677.34375 11140.625 8784.635417 C 10954.947917 8891.927083 10726.041667 8891.927083 10540.364583 8784.635417 C 10354.427083 8677.34375 10240.104167 8479.166667 10240.104167 8264.583333 C 10240.104167 8050 10354.427083 7851.822917 10540.364583 7744.53125 C 10726.041667 7637.239583 10954.947917 7637.239583 11140.625 7744.53125 C 11326.5625 7851.822917 11440.885417 8050 11440.885417 8264.583333 Z M 11440.885417 8264.583333 " transform="matrix(0.015,0,0,0.015,0,0)"/>
<path style="fill:none;stroke-width:9;stroke-linecap:round;stroke-linejoin:round;stroke:rgb(0%,0%,0%);stroke-opacity:1;stroke-miterlimit:10;" d="M 30040.104167 7064.0625 L 30040.104167 49064.0625 " transform="matrix(0.015,0,0,0.015,0,0)"/>
<path style="fill:none;stroke-width:9;stroke-linecap:round;stroke-linejoin:round;stroke:rgb(0%,0%,0%);stroke-opacity:1;stroke-miterlimit:10;" d="M 9640.104167 49064.0625 L 30040.104167 49064.0625 " transform="matrix(0.015,0,0,0.015,0,0)"/>
<path style="fill:none;stroke-width:9;stroke-linecap:round;stroke-linejoin:round;stroke:rgb(0%,0%,0%);stroke-opacity:1;stroke-miterlimit:10;" d="M 9640.104167 7064.0625 L 9640.104167 49064.0625 " transform="matrix(0.015,0,0,0.015,0,0)"/>
<path style="fill:none;stroke-width:9;stroke-linecap:round;stroke-linejoin:round;stroke:rgb(0%,0%,0%);stroke-opacity:1;stroke-miterlimit:10;" d="M 9640.104167 7064.0625 L 30040.104167 7064.0625 " transform="matrix(0.015,0,0,0.015,0,0)"/>
<path style="fill:none;stroke-width:9;stroke-linecap:round;stroke-linejoin:round;stroke:rgb(0%,0%,0%);stroke-opacity:1;stroke-miterlimit:10;" d="M 29590.885417 15464.583333 C 29590.885417 16375.78125 29104.947917 17217.708333 28315.625 17673.177083 C 27526.5625 18128.90625 26554.427083 18128.90625 25765.364583 17673.177083 C 24976.041667 17217.708333 24490.104167 16375.78125 24490.104167 15464.583333 C 24490.104167 14553.385417 24976.041667 13711.197917 25765.364583 13255.729167 C 26554.427083 12800 27526.5625 12800 28315.625 13255.729167 C 29104.947917 13711.197917 29590.885417 14553.385417 29590.885417 15464.583333 Z M 29590.885417 15464.583333 " transform="matrix(0.015,0,0,0.015,0,0)"/>
<path style="fill:none;stroke-width:9;stroke-linecap:round;stroke-linejoin:round;stroke:rgb(0%,0%,0%);stroke-opacity:1;stroke-miterlimit:10;" d="M 29590.885417 22664.583333 C 29590.885417 23575.78125 29104.947917 24417.708333 28315.625 24873.177083 C 27526.5625 25328.90625 26554.427083 25328.90625 25765.364583 24873.177083 C 24976.041667 24417.708333 24490.104167 23575.78125 24490.104167 22664.583333 C 24490.104167 21753.385417 24976.041667 20911.197917 25765.364583 20455.729167 C 26554.427083 20000 27526.5625 20000 28315.625 20455.729167 C 29104.947917 20911.197917 29590.885417 21753.385417 29590.885417 22664.583333 Z M 29590.885417 22664.583333 " transform="matrix(0.015,0,0,0.015,0,0)"/>
<path style="fill:none;stroke-width:76;stroke-linecap:round;stroke-linejoin:round;stroke:rgb(0%,0%,0%);stroke-opacity:1;stroke-miterlimit:10;" d="M 25546.09375 19094.010417 L 25509.895833 19129.947917 L 25402.083333 19165.885417 L 25329.947917 19165.885417 L 25221.875 19129.947917 L 25150 19058.072917 L 25114.0625 18985.9375 L 25078.125 18841.927083 L 25078.125 18734.114583 L 25114.0625 18590.104167 L 25150 18517.96875 L 25221.875 18446.09375 L 25329.947917 18409.895833 L 25402.083333 18409.895833 L 25509.895833 18446.09375 L 25546.09375 18482.03125 " transform="matrix(0.015,0,0,0.015,0,0)"/>
<path style="fill:none;stroke-width:76;stroke-linecap:round;stroke-linejoin:round;stroke:rgb(0%,0%,0%);stroke-opacity:1;stroke-miterlimit:10;" d="M 25870.052083 18409.895833 L 25870.052083 19021.875 L 25905.989583 19094.010417 L 25941.927083 19129.947917 L 26014.0625 19165.885417 L 26158.072917 19165.885417 L 26229.947917 19129.947917 L 26265.885417 19094.010417 L 26302.083333 19021.875 L 26302.083333 18409.895833 " transform="matrix(0.015,0,0,0.015,0,0)"/>
<path style="fill:none;stroke-width:76;stroke-linecap:round;stroke-linejoin:round;stroke:rgb(0%,0%,0%);stroke-opacity:1;stroke-miterlimit:10;" d="M 26553.90625 18409.895833 L 26985.9375 18409.895833 " transform="matrix(0.015,0,0,0.015,0,0)"/>
<path style="fill:none;stroke-width:76;stroke-linecap:round;stroke-linejoin:round;stroke:rgb(0%,0%,0%);stroke-opacity:1;stroke-miterlimit:10;" d="M 26770.052083 19165.885417 L 26770.052083 18409.895833 " transform="matrix(0.015,0,0,0.015,0,0)"/>
<path style="fill:none;stroke-width:76;stroke-linecap:round;stroke-linejoin:round;stroke:rgb(0%,0%,0%);stroke-opacity:1;stroke-miterlimit:10;" d="M 27382.03125 18409.895833 L 27526.041667 18409.895833 L 27597.916667 18446.09375 L 27670.052083 18517.96875 L 27705.989583 18661.979167 L 27705.989583 18914.0625 L 27670.052083 19058.072917 L 27597.916667 19129.947917 L 27526.041667 19165.885417 L 27382.03125 19165.885417 L 27309.895833 19129.947917 L 27238.020833 19058.072917 L 27202.083333 18914.0625 L 27202.083333 18661.979167 L 27238.020833 18517.96875 L 27309.895833 18446.09375 L 27382.03125 18409.895833 " transform="matrix(0.015,0,0,0.015,0,0)"/>
<path style="fill:none;stroke-width:76;stroke-linecap:round;stroke-linejoin:round;stroke:rgb(0%,0%,0%);stroke-opacity:1;stroke-miterlimit:10;" d="M 28282.03125 18770.052083 L 28029.947917 18770.052083 " transform="matrix(0.015,0,0,0.015,0,0)"/>
<path style="fill:none;stroke-width:76;stroke-linecap:round;stroke-linejoin:round;stroke:rgb(0%,0%,0%);stroke-opacity:1;stroke-miterlimit:10;" d="M 28029.947917 19165.885417 L 28029.947917 18409.895833 L 28390.104167 18409.895833 " transform="matrix(0.015,0,0,0.015,0,0)"/>
<path style="fill:none;stroke-width:76;stroke-linecap:round;stroke-linejoin:round;stroke:rgb(0%,0%,0%);stroke-opacity:1;stroke-miterlimit:10;" d="M 28929.947917 18770.052083 L 28678.125 18770.052083 " transform="matrix(0.015,0,0,0.015,0,0)"/>
<path style="fill:none;stroke-width:76;stroke-linecap:round;stroke-linejoin:round;stroke:rgb(0%,0%,0%);stroke-opacity:1;stroke-miterlimit:10;" d="M 28678.125 19165.885417 L 28678.125 18409.895833 L 29038.020833 18409.895833 " transform="matrix(0.015,0,0,0.015,0,0)"/>
<path style="fill:none;stroke-width:23;stroke-linecap:round;stroke-linejoin:round;stroke:rgb(0%,0%,0%);stroke-opacity:1;stroke-miterlimit:10;" d="M 26290.104167 16763.020833 L 25720.052083 17623.958333 " transform="matrix(0.015,0,0,0.015,0,0)"/>
<path style="fill:none;stroke-width:9;stroke-linecap:round;stroke-linejoin:round;stroke:rgb(0%,0%,0%);stroke-opacity:1;stroke-miterlimit:10;" d="M 28540.885417 15464.583333 C 28540.885417 16000.520833 28254.947917 16495.833333 27790.625 16764.0625 C 27326.5625 17032.03125 26754.427083 17032.03125 26290.364583 16764.0625 C 25826.041667 16495.833333 25540.104167 16000.520833 25540.104167 15464.583333 C 25540.104167 14928.385417 25826.041667 14433.072917 26290.364583 14165.104167 C 26754.427083 13896.875 27326.5625 13896.875 27790.625 14165.104167 C 28254.947917 14433.072917 28540.885417 14928.385417 28540.885417 15464.583333 Z M 28540.885417 15464.583333 " transform="matrix(0.015,0,0,0.015,0,0)"/>
<path style="fill:none;stroke-width:76;stroke-linecap:round;stroke-linejoin:round;stroke:rgb(0%,0%,0%);stroke-opacity:1;stroke-miterlimit:10;" d="M 24628.125 25970.052083 L 24376.041667 25970.052083 " transform="matrix(0.015,0,0,0.015,0,0)"/>
<path style="fill:none;stroke-width:76;stroke-linecap:round;stroke-linejoin:round;stroke:rgb(0%,0%,0%);stroke-opacity:1;stroke-miterlimit:10;" d="M 24376.041667 26365.885417 L 24376.041667 25609.895833 L 24735.9375 25609.895833 " transform="matrix(0.015,0,0,0.015,0,0)"/>
<path style="fill:none;stroke-width:76;stroke-linecap:round;stroke-linejoin:round;stroke:rgb(0%,0%,0%);stroke-opacity:1;stroke-miterlimit:10;" d="M 25023.958333 25970.052083 L 25276.041667 25970.052083 " transform="matrix(0.015,0,0,0.015,0,0)"/>
<path style="fill:none;stroke-width:76;stroke-linecap:round;stroke-linejoin:round;stroke:rgb(0%,0%,0%);stroke-opacity:1;stroke-miterlimit:10;" d="M 25384.114583 26365.885417 L 25023.958333 26365.885417 L 25023.958333 25609.895833 L 25384.114583 25609.895833 " transform="matrix(0.015,0,0,0.015,0,0)"/>
<path style="fill:none;stroke-width:76;stroke-linecap:round;stroke-linejoin:round;stroke:rgb(0%,0%,0%);stroke-opacity:1;stroke-miterlimit:10;" d="M 25708.072917 25970.052083 L 25959.895833 25970.052083 " transform="matrix(0.015,0,0,0.015,0,0)"/>
<path style="fill:none;stroke-width:76;stroke-linecap:round;stroke-linejoin:round;stroke:rgb(0%,0%,0%);stroke-opacity:1;stroke-miterlimit:10;" d="M 26067.96875 26365.885417 L 25708.072917 26365.885417 L 25708.072917 25609.895833 L 26067.96875 25609.895833 " transform="matrix(0.015,0,0,0.015,0,0)"/>
<path style="fill:none;stroke-width:76;stroke-linecap:round;stroke-linejoin:round;stroke:rgb(0%,0%,0%);stroke-opacity:1;stroke-miterlimit:10;" d="M 26391.927083 26365.885417 L 26391.927083 25609.895833 L 26571.875 25609.895833 L 26679.947917 25646.09375 L 26752.083333 25717.96875 L 26788.020833 25790.104167 L 26823.958333 25934.114583 L 26823.958333 26041.927083 L 26788.020833 26185.9375 L 26752.083333 26258.072917 L 26679.947917 26329.947917 L 26571.875 26365.885417 L 26391.927083 26365.885417 " transform="matrix(0.015,0,0,0.015,0,0)"/>
<path style="fill:none;stroke-width:76;stroke-linecap:round;stroke-linejoin:round;stroke:rgb(0%,0%,0%);stroke-opacity:1;stroke-miterlimit:10;" d="M 27400 25970.052083 L 27508.072917 26005.989583 L 27544.010417 26041.927083 L 27579.947917 26114.0625 L 27579.947917 26221.875 L 27544.010417 26294.010417 L 27508.072917 26329.947917 L 27435.9375 26365.885417 L 27147.916667 26365.885417 L 27147.916667 25609.895833 L 27400 25609.895833 L 27471.875 25646.09375 L 27508.072917 25682.03125 L 27544.010417 25753.90625 L 27544.010417 25826.041667 L 27508.072917 25897.916667 L 27471.875 25934.114583 L 27400 25970.052083 L 27147.916667 25970.052083 " transform="matrix(0.015,0,0,0.015,0,0)"/>
<path style="fill:none;stroke-width:76;stroke-linecap:round;stroke-linejoin:round;stroke:rgb(0%,0%,0%);stroke-opacity:1;stroke-miterlimit:10;" d="M 27867.96875 26150 L 28228.125 26150 " transform="matrix(0.015,0,0,0.015,0,0)"/>
<path style="fill:none;stroke-width:76;stroke-linecap:round;stroke-linejoin:round;stroke:rgb(0%,0%,0%);stroke-opacity:1;stroke-miterlimit:10;" d="M 27796.09375 26365.885417 L 28047.916667 25609.895833 L 28300 26365.885417 " transform="matrix(0.015,0,0,0.015,0,0)"/>
<path style="fill:none;stroke-width:76;stroke-linecap:round;stroke-linejoin:round;stroke:rgb(0%,0%,0%);stroke-opacity:1;stroke-miterlimit:10;" d="M 28984.114583 26294.010417 L 28947.916667 26329.947917 L 28840.104167 26365.885417 L 28767.96875 26365.885417 L 28659.895833 26329.947917 L 28588.020833 26258.072917 L 28552.083333 26185.9375 L 28515.885417 26041.927083 L 28515.885417 25934.114583 L 28552.083333 25790.104167 L 28588.020833 25717.96875 L 28659.895833 25646.09375 L 28767.96875 25609.895833 L 28840.104167 25609.895833 L 28947.916667 25646.09375 L 28984.114583 25682.03125 " transform="matrix(0.015,0,0,0.015,0,0)"/>
<path style="fill:none;stroke-width:76;stroke-linecap:round;stroke-linejoin:round;stroke:rgb(0%,0%,0%);stroke-opacity:1;stroke-miterlimit:10;" d="M 29308.072917 26365.885417 L 29308.072917 25609.895833 " transform="matrix(0.015,0,0,0.015,0,0)"/>
<path style="fill:none;stroke-width:76;stroke-linecap:round;stroke-linejoin:round;stroke:rgb(0%,0%,0%);stroke-opacity:1;stroke-miterlimit:10;" d="M 29740.104167 26365.885417 L 29415.885417 25934.114583 " transform="matrix(0.015,0,0,0.015,0,0)"/>
<path style="fill:none;stroke-width:76;stroke-linecap:round;stroke-linejoin:round;stroke:rgb(0%,0%,0%);stroke-opacity:1;stroke-miterlimit:10;" d="M 29740.104167 25609.895833 L 29308.072917 26041.927083 " transform="matrix(0.015,0,0,0.015,0,0)"/>
<path style="fill:none;stroke-width:23;stroke-linecap:round;stroke-linejoin:round;stroke:rgb(0%,0%,0%);stroke-opacity:1;stroke-miterlimit:10;" d="M 26290.104167 23963.020833 L 25720.052083 24823.958333 " transform="matrix(0.015,0,0,0.015,0,0)"/>
<path style="fill:none;stroke-width:76;stroke-linecap:round;stroke-linejoin:round;stroke:rgb(0%,0%,0%);stroke-opacity:1;stroke-miterlimit:10;" d="M 24520.052083 36170.052083 L 24628.125 36205.989583 L 24808.072917 36205.989583 L 24879.947917 36170.052083 L 24915.885417 36134.114583 L 24952.083333 36061.979167 L 24952.083333 35990.104167 L 24915.885417 35917.96875 L 24879.947917 35882.03125 L 24808.072917 35846.09375 L 24664.0625 35809.895833 L 24591.927083 35773.958333 L 24555.989583 35738.020833 L 24520.052083 35665.885417 L 24520.052083 35594.010417 L 24555.989583 35521.875 L 24591.927083 35485.9375 L 24664.0625 35450 L 24844.010417 35450 L 24952.083333 35485.9375 " transform="matrix(0.015,0,0,0.015,0,0)"/>
<path style="fill:none;stroke-width:76;stroke-linecap:round;stroke-linejoin:round;stroke:rgb(0%,0%,0%);stroke-opacity:1;stroke-miterlimit:10;" d="M 25276.041667 36205.989583 L 25276.041667 35450 " transform="matrix(0.015,0,0,0.015,0,0)"/>
<path style="fill:none;stroke-width:76;stroke-linecap:round;stroke-linejoin:round;stroke:rgb(0%,0%,0%);stroke-opacity:1;stroke-miterlimit:10;" d="M 26032.03125 35485.9375 L 25959.895833 35450 L 25852.083333 35450 L 25744.010417 35485.9375 L 25671.875 35558.072917 L 25635.9375 35629.947917 L 25600 35773.958333 L 25600 35882.03125 L 25635.9375 36026.041667 L 25671.875 36097.916667 L 25744.010417 36170.052083 L 25852.083333 36205.989583 L 25923.958333 36205.989583 L 26032.03125 36170.052083 L 26067.96875 36134.114583 L 26067.96875 35882.03125 L 25923.958333 35882.03125 " transform="matrix(0.015,0,0,0.015,0,0)"/>
<path style="fill:none;stroke-width:76;stroke-linecap:round;stroke-linejoin:round;stroke:rgb(0%,0%,0%);stroke-opacity:1;stroke-miterlimit:10;" d="M 26859.895833 35450 L 27291.927083 35450 " transform="matrix(0.015,0,0,0.015,0,0)"/>
<path style="fill:none;stroke-width:76;stroke-linecap:round;stroke-linejoin:round;stroke:rgb(0%,0%,0%);stroke-opacity:1;stroke-miterlimit:10;" d="M 27076.041667 36205.989583 L 27076.041667 35450 " transform="matrix(0.015,0,0,0.015,0,0)"/>
<path style="fill:none;stroke-width:76;stroke-linecap:round;stroke-linejoin:round;stroke:rgb(0%,0%,0%);stroke-opacity:1;stroke-miterlimit:10;" d="M 27544.010417 36205.989583 L 27544.010417 35450 " transform="matrix(0.015,0,0,0.015,0,0)"/>
<path style="fill:none;stroke-width:76;stroke-linecap:round;stroke-linejoin:round;stroke:rgb(0%,0%,0%);stroke-opacity:1;stroke-miterlimit:10;" d="M 27544.010417 35809.895833 L 27976.041667 35809.895833 " transform="matrix(0.015,0,0,0.015,0,0)"/>
<path style="fill:none;stroke-width:76;stroke-linecap:round;stroke-linejoin:round;stroke:rgb(0%,0%,0%);stroke-opacity:1;stroke-miterlimit:10;" d="M 27976.041667 36205.989583 L 27976.041667 35450 " transform="matrix(0.015,0,0,0.015,0,0)"/>
<path style="fill:none;stroke-width:76;stroke-linecap:round;stroke-linejoin:round;stroke:rgb(0%,0%,0%);stroke-opacity:1;stroke-miterlimit:10;" d="M 28767.96875 36205.989583 L 28515.885417 35846.09375 " transform="matrix(0.015,0,0,0.015,0,0)"/>
<path style="fill:none;stroke-width:76;stroke-linecap:round;stroke-linejoin:round;stroke:rgb(0%,0%,0%);stroke-opacity:1;stroke-miterlimit:10;" d="M 28335.9375 36205.989583 L 28335.9375 35450 L 28623.958333 35450 L 28696.09375 35485.9375 L 28732.03125 35521.875 L 28767.96875 35594.010417 L 28767.96875 35702.083333 L 28732.03125 35773.958333 L 28696.09375 35809.895833 L 28623.958333 35846.09375 L 28335.9375 35846.09375 " transform="matrix(0.015,0,0,0.015,0,0)"/>
<path style="fill:none;stroke-width:76;stroke-linecap:round;stroke-linejoin:round;stroke:rgb(0%,0%,0%);stroke-opacity:1;stroke-miterlimit:10;" d="M 29091.927083 35450 L 29091.927083 36061.979167 L 29128.125 36134.114583 L 29164.0625 36170.052083 L 29235.9375 36205.989583 L 29379.947917 36205.989583 L 29452.083333 36170.052083 L 29488.020833 36134.114583 L 29523.958333 36061.979167 L 29523.958333 35450 " transform="matrix(0.015,0,0,0.015,0,0)"/>
<path style="fill:none;stroke-width:23;stroke-linecap:round;stroke-linejoin:round;stroke:rgb(0%,0%,0%);stroke-opacity:1;stroke-miterlimit:10;" d="M 20440.104167 32144.010417 L 21159.895833 32864.0625 " transform="matrix(0.015,0,0,0.015,0,0)"/>
<path style="fill:none;stroke-width:23;stroke-linecap:round;stroke-linejoin:round;stroke:rgb(0%,0%,0%);stroke-opacity:1;stroke-miterlimit:10;" d="M 28690.885417 33464.583333 C 28690.885417 34054.166667 28376.302083 34598.958333 27865.625 34893.75 C 27355.208333 35188.802083 26726.041667 35188.802083 26215.364583 34893.75 C 25704.6875 34598.958333 25390.104167 34054.166667 25390.104167 33464.583333 C 25390.104167 32874.739583 25704.6875 32329.947917 26215.364583 32035.15625 C 26726.041667 31740.364583 27355.208333 31740.364583 27865.625 32035.15625 C 28376.302083 32329.947917 28690.885417 32874.739583 28690.885417 33464.583333 Z M 28690.885417 33464.583333 " transform="matrix(0.015,0,0,0.015,0,0)"/>
<path style="fill:none;stroke-width:23;stroke-linecap:round;stroke-linejoin:round;stroke:rgb(0%,0%,0%);stroke-opacity:1;stroke-miterlimit:10;" d="M 28690.885417 33464.583333 C 28690.885417 34054.166667 28376.302083 34598.958333 27865.625 34893.75 C 27355.208333 35188.802083 26726.041667 35188.802083 26215.364583 34893.75 C 25704.6875 34598.958333 25390.104167 34054.166667 25390.104167 33464.583333 C 25390.104167 32874.739583 25704.6875 32329.947917 26215.364583 32035.15625 C 26726.041667 31740.364583 27355.208333 31740.364583 27865.625 32035.15625 C 28376.302083 32329.947917 28690.885417 32874.739583 28690.885417 33464.583333 Z M 28690.885417 33464.583333 " transform="matrix(0.015,0,0,0.015,0,0)"/>
<path style="fill:none;stroke-width:9;stroke-linecap:round;stroke-linejoin:round;stroke:rgb(0%,0%,0%);stroke-opacity:1;stroke-miterlimit:10;" d="M 28540.885417 22664.583333 C 28540.885417 23200.520833 28254.947917 23695.833333 27790.625 23964.0625 C 27326.5625 24232.03125 26754.427083 24232.03125 26290.364583 23964.0625 C 25826.041667 23695.833333 25540.104167 23200.520833 25540.104167 22664.583333 C 25540.104167 22128.385417 25826.041667 21633.072917 26290.364583 21365.104167 C 26754.427083 21096.875 27326.5625 21096.875 27790.625 21365.104167 C 28254.947917 21633.072917 28540.885417 22128.385417 28540.885417 22664.583333 Z M 28540.885417 22664.583333 " transform="matrix(0.015,0,0,0.015,0,0)"/>
<path style="fill:none;stroke-width:76;stroke-linecap:round;stroke-linejoin:round;stroke:rgb(0%,0%,0%);stroke-opacity:1;stroke-miterlimit:10;" d="M 19102.083333 29894.010417 L 19065.885417 29929.947917 L 18958.072917 29965.885417 L 18885.9375 29965.885417 L 18778.125 29929.947917 L 18705.989583 29858.072917 L 18670.052083 29785.9375 L 18634.114583 29641.927083 L 18634.114583 29534.114583 L 18670.052083 29390.104167 L 18705.989583 29317.96875 L 18778.125 29246.09375 L 18885.9375 29209.895833 L 18958.072917 29209.895833 L 19065.885417 29246.09375 L 19102.083333 29282.03125 " transform="matrix(0.015,0,0,0.015,0,0)"/>
<path style="fill:none;stroke-width:76;stroke-linecap:round;stroke-linejoin:round;stroke:rgb(0%,0%,0%);stroke-opacity:1;stroke-miterlimit:10;" d="M 19317.96875 29209.895833 L 19570.052083 29965.885417 L 19821.875 29209.895833 " transform="matrix(0.015,0,0,0.015,0,0)"/>
<path style="fill:none;stroke-width:76;stroke-linecap:round;stroke-linejoin:round;stroke:rgb(0%,0%,0%);stroke-opacity:1;stroke-miterlimit:10;" d="M 20578.125 29209.895833 L 21046.09375 29209.895833 L 20794.010417 29497.916667 L 20902.083333 29497.916667 L 20973.958333 29534.114583 L 21009.895833 29570.052083 L 21046.09375 29641.927083 L 21046.09375 29821.875 L 21009.895833 29894.010417 L 20973.958333 29929.947917 L 20902.083333 29965.885417 L 20685.9375 29965.885417 L 20614.0625 29929.947917 L 20578.125 29894.010417 " transform="matrix(0.015,0,0,0.015,0,0)"/>
<path style="fill:none;stroke-width:76;stroke-linecap:round;stroke-linejoin:round;stroke:rgb(0%,0%,0%);stroke-opacity:1;stroke-miterlimit:10;" d="M 19102.083333 22694.010417 L 19065.885417 22729.947917 L 18958.072917 22765.885417 L 18885.9375 22765.885417 L 18778.125 22729.947917 L 18705.989583 22658.072917 L 18670.052083 22585.9375 L 18634.114583 22441.927083 L 18634.114583 22334.114583 L 18670.052083 22190.104167 L 18705.989583 22117.96875 L 18778.125 22046.09375 L 18885.9375 22009.895833 L 18958.072917 22009.895833 L 19065.885417 22046.09375 L 19102.083333 22082.03125 " transform="matrix(0.015,0,0,0.015,0,0)"/>
<path style="fill:none;stroke-width:76;stroke-linecap:round;stroke-linejoin:round;stroke:rgb(0%,0%,0%);stroke-opacity:1;stroke-miterlimit:10;" d="M 19317.96875 22009.895833 L 19570.052083 22765.885417 L 19821.875 22009.895833 " transform="matrix(0.015,0,0,0.015,0,0)"/>
<path style="fill:none;stroke-width:76;stroke-linecap:round;stroke-linejoin:round;stroke:rgb(0%,0%,0%);stroke-opacity:1;stroke-miterlimit:10;" d="M 20614.0625 22082.03125 L 20650 22046.09375 L 20721.875 22009.895833 L 20902.083333 22009.895833 L 20973.958333 22046.09375 L 21009.895833 22082.03125 L 21046.09375 22153.90625 L 21046.09375 22226.041667 L 21009.895833 22334.114583 L 20578.125 22765.885417 L 21046.09375 22765.885417 " transform="matrix(0.015,0,0,0.015,0,0)"/>
<path style="fill:none;stroke-width:9;stroke-linecap:round;stroke-linejoin:round;stroke:rgb(0%,0%,0%);stroke-opacity:1;stroke-miterlimit:10;" d="M 21340.885417 26264.583333 C 21340.885417 26800.520833 21054.947917 27295.833333 20590.625 27564.0625 C 20126.5625 27832.03125 19554.427083 27832.03125 19090.364583 27564.0625 C 18626.041667 27295.833333 18340.104167 26800.520833 18340.104167 26264.583333 C 18340.104167 25728.385417 18626.041667 25233.072917 19090.364583 24965.104167 C 19554.427083 24696.875 20126.5625 24696.875 20590.625 24965.104167 C 21054.947917 25233.072917 21340.885417 25728.385417 21340.885417 26264.583333 Z M 21340.885417 26264.583333 " transform="matrix(0.015,0,0,0.015,0,0)"/>
<path style="fill:none;stroke-width:9;stroke-linecap:round;stroke-linejoin:round;stroke:rgb(0%,0%,0%);stroke-opacity:1;stroke-miterlimit:10;" d="M 22390.885417 26264.583333 C 22390.885417 27175.78125 21904.947917 28017.708333 21115.625 28473.177083 C 20326.5625 28928.90625 19354.427083 28928.90625 18565.364583 28473.177083 C 17776.041667 28017.708333 17290.104167 27175.78125 17290.104167 26264.583333 C 17290.104167 25353.385417 17776.041667 24511.197917 18565.364583 24055.729167 C 19354.427083 23600 20326.5625 23600 21115.625 24055.729167 C 21904.947917 24511.197917 22390.885417 25353.385417 22390.885417 26264.583333 Z M 22390.885417 26264.583333 " transform="matrix(0.015,0,0,0.015,0,0)"/>
<path style="fill:none;stroke-width:76;stroke-linecap:round;stroke-linejoin:round;stroke:rgb(0%,0%,0%);stroke-opacity:1;stroke-miterlimit:10;" d="M 19102.083333 36134.114583 L 19065.885417 36170.052083 L 18958.072917 36205.989583 L 18885.9375 36205.989583 L 18778.125 36170.052083 L 18705.989583 36097.916667 L 18670.052083 36026.041667 L 18634.114583 35882.03125 L 18634.114583 35773.958333 L 18670.052083 35629.947917 L 18705.989583 35558.072917 L 18778.125 35485.9375 L 18885.9375 35450 L 18958.072917 35450 L 19065.885417 35485.9375 L 19102.083333 35521.875 " transform="matrix(0.015,0,0,0.015,0,0)"/>
<path style="fill:none;stroke-width:76;stroke-linecap:round;stroke-linejoin:round;stroke:rgb(0%,0%,0%);stroke-opacity:1;stroke-miterlimit:10;" d="M 19317.96875 35450 L 19570.052083 36205.989583 L 19821.875 35450 " transform="matrix(0.015,0,0,0.015,0,0)"/>
<path style="fill:none;stroke-width:76;stroke-linecap:round;stroke-linejoin:round;stroke:rgb(0%,0%,0%);stroke-opacity:1;stroke-miterlimit:10;" d="M 21046.09375 36205.989583 L 20614.0625 36205.989583 " transform="matrix(0.015,0,0,0.015,0,0)"/>
<path style="fill:none;stroke-width:76;stroke-linecap:round;stroke-linejoin:round;stroke:rgb(0%,0%,0%);stroke-opacity:1;stroke-miterlimit:10;" d="M 20829.947917 36205.989583 L 20829.947917 35450 L 20758.072917 35558.072917 L 20685.9375 35629.947917 L 20614.0625 35665.885417 " transform="matrix(0.015,0,0,0.015,0,0)"/>
<path style="fill:none;stroke-width:23;stroke-linecap:round;stroke-linejoin:round;stroke:rgb(0%,0%,0%);stroke-opacity:1;stroke-miterlimit:10;" d="M 19240.104167 34784.114583 L 18520.052083 34064.0625 " transform="matrix(0.015,0,0,0.015,0,0)"/>
<path style="fill:none;stroke-width:23;stroke-linecap:round;stroke-linejoin:round;stroke:rgb(0%,0%,0%);stroke-opacity:1;stroke-miterlimit:10;" d="M 20440.104167 34784.114583 L 19240.104167 34784.114583 " transform="matrix(0.015,0,0,0.015,0,0)"/>
<path style="fill:none;stroke-width:23;stroke-linecap:round;stroke-linejoin:round;stroke:rgb(0%,0%,0%);stroke-opacity:1;stroke-miterlimit:10;" d="M 21159.895833 34064.0625 L 20440.104167 34784.114583 " transform="matrix(0.015,0,0,0.015,0,0)"/>
<path style="fill:none;stroke-width:23;stroke-linecap:round;stroke-linejoin:round;stroke:rgb(0%,0%,0%);stroke-opacity:1;stroke-miterlimit:10;" d="M 18520.052083 32864.0625 L 19240.104167 32144.010417 " transform="matrix(0.015,0,0,0.015,0,0)"/>
<path style="fill:none;stroke-width:23;stroke-linecap:round;stroke-linejoin:round;stroke:rgb(0%,0%,0%);stroke-opacity:1;stroke-miterlimit:10;" d="M 21159.895833 32864.0625 L 21159.895833 34064.0625 " transform="matrix(0.015,0,0,0.015,0,0)"/>
<path style="fill:none;stroke-width:23;stroke-linecap:round;stroke-linejoin:round;stroke:rgb(0%,0%,0%);stroke-opacity:1;stroke-miterlimit:10;" d="M 18520.052083 34064.0625 L 18520.052083 32864.0625 " transform="matrix(0.015,0,0,0.015,0,0)"/>
<path style="fill:none;stroke-width:23;stroke-linecap:round;stroke-linejoin:round;stroke:rgb(0%,0%,0%);stroke-opacity:1;stroke-miterlimit:10;" d="M 19240.104167 32144.010417 L 20440.104167 32144.010417 " transform="matrix(0.015,0,0,0.015,0,0)"/>
<path style="fill:none;stroke-width:23;stroke-linecap:round;stroke-linejoin:round;stroke:rgb(0%,0%,0%);stroke-opacity:1;stroke-miterlimit:10;" d="M 21490.885417 33464.583333 C 21490.885417 34054.166667 21176.302083 34598.958333 20665.625 34893.75 C 20155.208333 35188.802083 19526.041667 35188.802083 19015.364583 34893.75 C 18504.6875 34598.958333 18190.104167 34054.166667 18190.104167 33464.583333 C 18190.104167 32874.739583 18504.6875 32329.947917 19015.364583 32035.15625 C 19526.041667 31740.364583 20155.208333 31740.364583 20665.625 32035.15625 C 21176.302083 32329.947917 21490.885417 32874.739583 21490.885417 33464.583333 Z M 21490.885417 33464.583333 " transform="matrix(0.015,0,0,0.015,0,0)"/>
<path style="fill:none;stroke-width:76;stroke-linecap:round;stroke-linejoin:round;stroke:rgb(0%,0%,0%);stroke-opacity:1;stroke-miterlimit:10;" d="M 17355.989583 15494.010417 L 17320.052083 15529.947917 L 17211.979167 15565.885417 L 17140.104167 15565.885417 L 17032.03125 15529.947917 L 16959.895833 15458.072917 L 16923.958333 15385.9375 L 16888.020833 15241.927083 L 16888.020833 15134.114583 L 16923.958333 14990.104167 L 16959.895833 14917.96875 L 17032.03125 14846.09375 L 17140.104167 14809.895833 L 17211.979167 14809.895833 L 17320.052083 14846.09375 L 17355.989583 14882.03125 " transform="matrix(0.015,0,0,0.015,0,0)"/>
<path style="fill:none;stroke-width:76;stroke-linecap:round;stroke-linejoin:round;stroke:rgb(0%,0%,0%);stroke-opacity:1;stroke-miterlimit:10;" d="M 17571.875 14809.895833 L 17823.958333 15565.885417 L 18076.041667 14809.895833 " transform="matrix(0.015,0,0,0.015,0,0)"/>
<path style="fill:none;stroke-width:76;stroke-linecap:round;stroke-linejoin:round;stroke:rgb(0%,0%,0%);stroke-opacity:1;stroke-miterlimit:10;" d="M 19300 15565.885417 L 18867.96875 15565.885417 " transform="matrix(0.015,0,0,0.015,0,0)"/>
<path style="fill:none;stroke-width:76;stroke-linecap:round;stroke-linejoin:round;stroke:rgb(0%,0%,0%);stroke-opacity:1;stroke-miterlimit:10;" d="M 19084.114583 15565.885417 L 19084.114583 14809.895833 L 19011.979167 14917.96875 L 18940.104167 14990.104167 L 18867.96875 15026.041667 " transform="matrix(0.015,0,0,0.015,0,0)"/>
<path style="fill:none;stroke-width:76;stroke-linecap:round;stroke-linejoin:round;stroke:rgb(0%,0%,0%);stroke-opacity:1;stroke-miterlimit:10;" d="M 20415.885417 15853.90625 L 20379.947917 15817.96875 L 20308.072917 15709.895833 L 20271.875 15638.020833 L 20235.9375 15529.947917 L 20200 15350 L 20200 15205.989583 L 20235.9375 15026.041667 L 20271.875 14917.96875 L 20308.072917 14846.09375 L 20379.947917 14738.020833 L 20415.885417 14702.083333 " transform="matrix(0.015,0,0,0.015,0,0)"/>
<path style="fill:none;stroke-width:76;stroke-linecap:round;stroke-linejoin:round;stroke:rgb(0%,0%,0%);stroke-opacity:1;stroke-miterlimit:10;" d="M 20991.927083 15529.947917 L 20920.052083 15565.885417 L 20776.041667 15565.885417 L 20703.90625 15529.947917 L 20667.96875 15458.072917 L 20667.96875 15170.052083 L 20703.90625 15097.916667 L 20776.041667 15061.979167 L 20920.052083 15061.979167 L 20991.927083 15097.916667 L 21028.125 15170.052083 L 21028.125 15241.927083 L 20667.96875 15314.0625 " transform="matrix(0.015,0,0,0.015,0,0)"/>
<path style="fill:none;stroke-width:76;stroke-linecap:round;stroke-linejoin:round;stroke:rgb(0%,0%,0%);stroke-opacity:1;stroke-miterlimit:10;" d="M 21352.083333 15061.979167 L 21352.083333 15565.885417 " transform="matrix(0.015,0,0,0.015,0,0)"/>
<path style="fill:none;stroke-width:76;stroke-linecap:round;stroke-linejoin:round;stroke:rgb(0%,0%,0%);stroke-opacity:1;stroke-miterlimit:10;" d="M 21352.083333 15134.114583 L 21388.020833 15097.916667 L 21459.895833 15061.979167 L 21567.96875 15061.979167 L 21640.104167 15097.916667 L 21676.041667 15170.052083 L 21676.041667 15565.885417 " transform="matrix(0.015,0,0,0.015,0,0)"/>
<path style="fill:none;stroke-width:76;stroke-linecap:round;stroke-linejoin:round;stroke:rgb(0%,0%,0%);stroke-opacity:1;stroke-miterlimit:10;" d="M 21964.0625 15061.979167 L 22144.010417 15565.885417 L 22323.958333 15061.979167 " transform="matrix(0.015,0,0,0.015,0,0)"/>
<path style="fill:none;stroke-width:76;stroke-linecap:round;stroke-linejoin:round;stroke:rgb(0%,0%,0%);stroke-opacity:1;stroke-miterlimit:10;" d="M 22540.104167 15853.90625 L 22576.041667 15817.96875 L 22647.916667 15709.895833 L 22684.114583 15638.020833 L 22720.052083 15529.947917 L 22755.989583 15350 L 22755.989583 15205.989583 L 22720.052083 15026.041667 L 22684.114583 14917.96875 L 22647.916667 14846.09375 L 22576.041667 14738.020833 L 22540.104167 14702.083333 " transform="matrix(0.015,0,0,0.015,0,0)"/>
<path style="fill:none;stroke-width:76;stroke-linecap:round;stroke-linejoin:round;stroke:rgb(0%,0%,0%);stroke-opacity:1;stroke-miterlimit:10;" d="M 16564.0625 8102.083333 L 16564.0625 8605.989583 " transform="matrix(0.015,0,0,0.015,0,0)"/>
<path style="fill:none;stroke-width:76;stroke-linecap:round;stroke-linejoin:round;stroke:rgb(0%,0%,0%);stroke-opacity:1;stroke-miterlimit:10;" d="M 16384.114583 7814.0625 L 16203.90625 8353.90625 L 16671.875 8353.90625 " transform="matrix(0.015,0,0,0.015,0,0)"/>
<path style="fill:none;stroke-width:76;stroke-linecap:round;stroke-linejoin:round;stroke:rgb(0%,0%,0%);stroke-opacity:1;stroke-miterlimit:10;" d="M 16959.895833 8605.989583 L 16959.895833 7850 L 17247.916667 7850 L 17320.052083 7885.9375 L 17355.989583 7921.875 L 17391.927083 7994.010417 L 17391.927083 8102.083333 L 17355.989583 8173.958333 L 17320.052083 8209.895833 L 17247.916667 8246.09375 L 16959.895833 8246.09375 " transform="matrix(0.015,0,0,0.015,0,0)"/>
<path style="fill:none;stroke-width:76;stroke-linecap:round;stroke-linejoin:round;stroke:rgb(0%,0%,0%);stroke-opacity:1;stroke-miterlimit:10;" d="M 17859.895833 7850 L 18003.90625 7850 L 18076.041667 7885.9375 L 18147.916667 7958.072917 L 18184.114583 8102.083333 L 18184.114583 8353.90625 L 18147.916667 8497.916667 L 18076.041667 8570.052083 L 18003.90625 8605.989583 L 17859.895833 8605.989583 L 17788.020833 8570.052083 L 17715.885417 8497.916667 L 17679.947917 8353.90625 L 17679.947917 8102.083333 L 17715.885417 7958.072917 L 17788.020833 7885.9375 L 17859.895833 7850 " transform="matrix(0.015,0,0,0.015,0,0)"/>
<path style="fill:none;stroke-width:76;stroke-linecap:round;stroke-linejoin:round;stroke:rgb(0%,0%,0%);stroke-opacity:1;stroke-miterlimit:10;" d="M 18867.96875 8605.989583 L 18508.072917 8605.989583 L 18508.072917 7850 " transform="matrix(0.015,0,0,0.015,0,0)"/>
<path style="fill:none;stroke-width:76;stroke-linecap:round;stroke-linejoin:round;stroke:rgb(0%,0%,0%);stroke-opacity:1;stroke-miterlimit:10;" d="M 19120.052083 8209.895833 L 19371.875 8209.895833 " transform="matrix(0.015,0,0,0.015,0,0)"/>
<path style="fill:none;stroke-width:76;stroke-linecap:round;stroke-linejoin:round;stroke:rgb(0%,0%,0%);stroke-opacity:1;stroke-miterlimit:10;" d="M 19479.947917 8605.989583 L 19120.052083 8605.989583 L 19120.052083 7850 L 19479.947917 7850 " transform="matrix(0.015,0,0,0.015,0,0)"/>
<path style="fill:none;stroke-width:76;stroke-linecap:round;stroke-linejoin:round;stroke:rgb(0%,0%,0%);stroke-opacity:1;stroke-miterlimit:10;" d="M 20271.875 7850 L 20523.958333 8605.989583 L 20776.041667 7850 " transform="matrix(0.015,0,0,0.015,0,0)"/>
<path style="fill:none;stroke-width:76;stroke-linecap:round;stroke-linejoin:round;stroke:rgb(0%,0%,0%);stroke-opacity:1;stroke-miterlimit:10;" d="M 21459.895833 8534.114583 L 21423.958333 8570.052083 L 21315.885417 8605.989583 L 21244.010417 8605.989583 L 21135.9375 8570.052083 L 21064.0625 8497.916667 L 21028.125 8426.041667 L 20991.927083 8282.03125 L 20991.927083 8173.958333 L 21028.125 8029.947917 L 21064.0625 7958.072917 L 21135.9375 7885.9375 L 21244.010417 7850 L 21315.885417 7850 L 21423.958333 7885.9375 L 21459.895833 7921.875 " transform="matrix(0.015,0,0,0.015,0,0)"/>
<path style="fill:none;stroke-width:76;stroke-linecap:round;stroke-linejoin:round;stroke:rgb(0%,0%,0%);stroke-opacity:1;stroke-miterlimit:10;" d="M 22144.010417 8605.989583 L 21784.114583 8605.989583 L 21784.114583 7850 " transform="matrix(0.015,0,0,0.015,0,0)"/>
<path style="fill:none;stroke-width:76;stroke-linecap:round;stroke-linejoin:round;stroke:rgb(0%,0%,0%);stroke-opacity:1;stroke-miterlimit:10;" d="M 22396.09375 8605.989583 L 22396.09375 7850 L 22684.114583 7850 L 22755.989583 7885.9375 L 22791.927083 7921.875 L 22828.125 7994.010417 L 22828.125 8102.083333 L 22791.927083 8173.958333 L 22755.989583 8209.895833 L 22684.114583 8246.09375 L 22396.09375 8246.09375 " transform="matrix(0.015,0,0,0.015,0,0)"/>
<path style="fill:none;stroke-width:76;stroke-linecap:round;stroke-linejoin:round;stroke:rgb(0%,0%,0%);stroke-opacity:1;stroke-miterlimit:10;" d="M 23403.90625 8209.895833 L 23152.083333 8209.895833 " transform="matrix(0.015,0,0,0.015,0,0)"/>
<path style="fill:none;stroke-width:76;stroke-linecap:round;stroke-linejoin:round;stroke:rgb(0%,0%,0%);stroke-opacity:1;stroke-miterlimit:10;" d="M 23152.083333 8605.989583 L 23152.083333 7850 L 23511.979167 7850 " transform="matrix(0.015,0,0,0.015,0,0)"/>
<path style="fill:none;stroke-width:23;stroke-linecap:round;stroke-linejoin:round;stroke:rgb(0%,0%,0%);stroke-opacity:1;stroke-miterlimit:10;" d="M 19090.104167 13163.020833 L 18520.052083 14023.958333 " transform="matrix(0.015,0,0,0.015,0,0)"/>
<path style="fill:none;stroke-width:9;stroke-linecap:round;stroke-linejoin:round;stroke:rgb(0%,0%,0%);stroke-opacity:1;stroke-miterlimit:10;" d="M 14140.885417 11864.583333 C 14140.885417 12400.520833 13854.947917 12895.833333 13390.625 13164.0625 C 12926.5625 13432.03125 12354.427083 13432.03125 11890.364583 13164.0625 C 11426.041667 12895.833333 11140.104167 12400.520833 11140.104167 11864.583333 C 11140.104167 11328.385417 11426.041667 10833.072917 11890.364583 10565.104167 C 12354.427083 10296.875 12926.5625 10296.875 13390.625 10565.104167 C 13854.947917 10833.072917 14140.885417 11328.385417 14140.885417 11864.583333 Z M 14140.885417 11864.583333 " transform="matrix(0.015,0,0,0.015,0,0)"/>
<path style="fill:none;stroke-width:9;stroke-linecap:round;stroke-linejoin:round;stroke:rgb(0%,0%,0%);stroke-opacity:1;stroke-miterlimit:10;" d="M 21340.885417 11864.583333 C 21340.885417 12400.520833 21054.947917 12895.833333 20590.625 13164.0625 C 20126.5625 13432.03125 19554.427083 13432.03125 19090.364583 13164.0625 C 18626.041667 12895.833333 18340.104167 12400.520833 18340.104167 11864.583333 C 18340.104167 11328.385417 18626.041667 10833.072917 19090.364583 10565.104167 C 19554.427083 10296.875 20126.5625 10296.875 20590.625 10565.104167 C 21054.947917 10833.072917 21340.885417 11328.385417 21340.885417 11864.583333 Z M 21340.885417 11864.583333 " transform="matrix(0.015,0,0,0.015,0,0)"/>
<path style="fill:none;stroke-width:9;stroke-linecap:round;stroke-linejoin:round;stroke:rgb(0%,0%,0%);stroke-opacity:1;stroke-miterlimit:10;" d="M 15190.885417 11864.583333 C 15190.885417 12775.78125 14704.947917 13617.708333 13915.625 14073.177083 C 13126.5625 14528.90625 12154.427083 14528.90625 11365.364583 14073.177083 C 10576.041667 13617.708333 10090.104167 12775.78125 10090.104167 11864.583333 C 10090.104167 10953.385417 10576.041667 10111.197917 11365.364583 9655.729167 C 12154.427083 9200 13126.5625 9200 13915.625 9655.729167 C 14704.947917 10111.197917 15190.885417 10953.385417 15190.885417 11864.583333 Z M 15190.885417 11864.583333 " transform="matrix(0.015,0,0,0.015,0,0)"/>
<path style="fill:none;stroke-width:9;stroke-linecap:round;stroke-linejoin:round;stroke:rgb(0%,0%,0%);stroke-opacity:1;stroke-miterlimit:10;" d="M 22390.885417 11864.583333 C 22390.885417 12775.78125 21904.947917 13617.708333 21115.625 14073.177083 C 20326.5625 14528.90625 19354.427083 14528.90625 18565.364583 14073.177083 C 17776.041667 13617.708333 17290.104167 12775.78125 17290.104167 11864.583333 C 17290.104167 10953.385417 17776.041667 10111.197917 18565.364583 9655.729167 C 19354.427083 9200 20326.5625 9200 21115.625 9655.729167 C 21904.947917 10111.197917 22390.885417 10953.385417 22390.885417 11864.583333 Z M 22390.885417 11864.583333 " transform="matrix(0.015,0,0,0.015,0,0)"/>
<path style="fill:none;stroke-width:76;stroke-linecap:round;stroke-linejoin:round;stroke:rgb(0%,0%,0%);stroke-opacity:1;stroke-miterlimit:10;" d="M 11217.96875 15529.947917 L 11326.041667 15565.885417 L 11505.989583 15565.885417 L 11578.125 15529.947917 L 11614.0625 15494.010417 L 11650 15421.875 L 11650 15350 L 11614.0625 15278.125 L 11578.125 15241.927083 L 11505.989583 15205.989583 L 11361.979167 15170.052083 L 11290.104167 15134.114583 L 11253.90625 15097.916667 L 11217.96875 15026.041667 L 11217.96875 14953.90625 L 11253.90625 14882.03125 L 11290.104167 14846.09375 L 11361.979167 14809.895833 L 11541.927083 14809.895833 L 11650 14846.09375 " transform="matrix(0.015,0,0,0.015,0,0)"/>
<path style="fill:none;stroke-width:76;stroke-linecap:round;stroke-linejoin:round;stroke:rgb(0%,0%,0%);stroke-opacity:1;stroke-miterlimit:10;" d="M 11973.958333 15565.885417 L 11973.958333 14809.895833 " transform="matrix(0.015,0,0,0.015,0,0)"/>
<path style="fill:none;stroke-width:76;stroke-linecap:round;stroke-linejoin:round;stroke:rgb(0%,0%,0%);stroke-opacity:1;stroke-miterlimit:10;" d="M 12729.947917 14846.09375 L 12658.072917 14809.895833 L 12550 14809.895833 L 12441.927083 14846.09375 L 12370.052083 14917.96875 L 12334.114583 14990.104167 L 12297.916667 15134.114583 L 12297.916667 15241.927083 L 12334.114583 15385.9375 L 12370.052083 15458.072917 L 12441.927083 15529.947917 L 12550 15565.885417 L 12621.875 15565.885417 L 12729.947917 15529.947917 L 12765.885417 15494.010417 L 12765.885417 15241.927083 L 12621.875 15241.927083 " transform="matrix(0.015,0,0,0.015,0,0)"/>
<path style="fill:none;stroke-width:76;stroke-linecap:round;stroke-linejoin:round;stroke:rgb(0%,0%,0%);stroke-opacity:1;stroke-miterlimit:10;" d="M 14061.979167 15565.885417 L 13629.947917 15565.885417 " transform="matrix(0.015,0,0,0.015,0,0)"/>
<path style="fill:none;stroke-width:76;stroke-linecap:round;stroke-linejoin:round;stroke:rgb(0%,0%,0%);stroke-opacity:1;stroke-miterlimit:10;" d="M 13846.09375 15565.885417 L 13846.09375 14809.895833 L 13773.958333 14917.96875 L 13702.083333 14990.104167 L 13629.947917 15026.041667 " transform="matrix(0.015,0,0,0.015,0,0)"/>
<path style="fill:none;stroke-width:23;stroke-linecap:round;stroke-linejoin:round;stroke:rgb(0%,0%,0%);stroke-opacity:1;stroke-miterlimit:10;" d="M 19090.104167 20363.020833 L 18520.052083 21223.958333 " transform="matrix(0.015,0,0,0.015,0,0)"/>
<path style="fill:none;stroke-width:23;stroke-linecap:round;stroke-linejoin:round;stroke:rgb(0%,0%,0%);stroke-opacity:1;stroke-miterlimit:10;" d="M 11890.104167 20363.020833 L 11320.052083 21223.958333 " transform="matrix(0.015,0,0,0.015,0,0)"/>
<path style="fill:none;stroke-width:23;stroke-linecap:round;stroke-linejoin:round;stroke:rgb(0%,0%,0%);stroke-opacity:1;stroke-miterlimit:10;" d="M 11890.104167 13163.020833 L 11320.052083 14023.958333 " transform="matrix(0.015,0,0,0.015,0,0)"/>
<path style="fill:none;stroke-width:9;stroke-linecap:round;stroke-linejoin:round;stroke:rgb(0%,0%,0%);stroke-opacity:1;stroke-miterlimit:10;" d="M 14140.885417 19064.583333 C 14140.885417 19600.520833 13854.947917 20095.833333 13390.625 20364.0625 C 12926.5625 20632.03125 12354.427083 20632.03125 11890.364583 20364.0625 C 11426.041667 20095.833333 11140.104167 19600.520833 11140.104167 19064.583333 C 11140.104167 18528.385417 11426.041667 18033.072917 11890.364583 17765.104167 C 12354.427083 17496.875 12926.5625 17496.875 13390.625 17765.104167 C 13854.947917 18033.072917 14140.885417 18528.385417 14140.885417 19064.583333 Z M 14140.885417 19064.583333 " transform="matrix(0.015,0,0,0.015,0,0)"/>
<path style="fill:none;stroke-width:9;stroke-linecap:round;stroke-linejoin:round;stroke:rgb(0%,0%,0%);stroke-opacity:1;stroke-miterlimit:10;" d="M 21340.885417 19064.583333 C 21340.885417 19600.520833 21054.947917 20095.833333 20590.625 20364.0625 C 20126.5625 20632.03125 19554.427083 20632.03125 19090.364583 20364.0625 C 18626.041667 20095.833333 18340.104167 19600.520833 18340.104167 19064.583333 C 18340.104167 18528.385417 18626.041667 18033.072917 19090.364583 17765.104167 C 19554.427083 17496.875 20126.5625 17496.875 20590.625 17765.104167 C 21054.947917 18033.072917 21340.885417 18528.385417 21340.885417 19064.583333 Z M 21340.885417 19064.583333 " transform="matrix(0.015,0,0,0.015,0,0)"/>
<path style="fill:none;stroke-width:9;stroke-linecap:round;stroke-linejoin:round;stroke:rgb(0%,0%,0%);stroke-opacity:1;stroke-miterlimit:10;" d="M 15190.885417 19064.583333 C 15190.885417 19975.78125 14704.947917 20817.708333 13915.625 21273.177083 C 13126.5625 21728.90625 12154.427083 21728.90625 11365.364583 21273.177083 C 10576.041667 20817.708333 10090.104167 19975.78125 10090.104167 19064.583333 C 10090.104167 18153.385417 10576.041667 17311.197917 11365.364583 16855.729167 C 12154.427083 16400 13126.5625 16400 13915.625 16855.729167 C 14704.947917 17311.197917 15190.885417 18153.385417 15190.885417 19064.583333 Z M 15190.885417 19064.583333 " transform="matrix(0.015,0,0,0.015,0,0)"/>
<path style="fill:none;stroke-width:9;stroke-linecap:round;stroke-linejoin:round;stroke:rgb(0%,0%,0%);stroke-opacity:1;stroke-miterlimit:10;" d="M 22390.885417 19064.583333 C 22390.885417 19975.78125 21904.947917 20817.708333 21115.625 21273.177083 C 20326.5625 21728.90625 19354.427083 21728.90625 18565.364583 21273.177083 C 17776.041667 20817.708333 17290.104167 19975.78125 17290.104167 19064.583333 C 17290.104167 18153.385417 17776.041667 17311.197917 18565.364583 16855.729167 C 19354.427083 16400 20326.5625 16400 21115.625 16855.729167 C 21904.947917 17311.197917 22390.885417 18153.385417 22390.885417 19064.583333 Z M 22390.885417 19064.583333 " transform="matrix(0.015,0,0,0.015,0,0)"/>
<path style="fill:none;stroke-width:76;stroke-linecap:round;stroke-linejoin:round;stroke:rgb(0%,0%,0%);stroke-opacity:1;stroke-miterlimit:10;" d="M 11217.96875 22729.947917 L 11326.041667 22765.885417 L 11505.989583 22765.885417 L 11578.125 22729.947917 L 11614.0625 22694.010417 L 11650 22621.875 L 11650 22550 L 11614.0625 22478.125 L 11578.125 22441.927083 L 11505.989583 22405.989583 L 11361.979167 22370.052083 L 11290.104167 22334.114583 L 11253.90625 22297.916667 L 11217.96875 22226.041667 L 11217.96875 22153.90625 L 11253.90625 22082.03125 L 11290.104167 22046.09375 L 11361.979167 22009.895833 L 11541.927083 22009.895833 L 11650 22046.09375 " transform="matrix(0.015,0,0,0.015,0,0)"/>
<path style="fill:none;stroke-width:76;stroke-linecap:round;stroke-linejoin:round;stroke:rgb(0%,0%,0%);stroke-opacity:1;stroke-miterlimit:10;" d="M 11973.958333 22765.885417 L 11973.958333 22009.895833 " transform="matrix(0.015,0,0,0.015,0,0)"/>
<path style="fill:none;stroke-width:76;stroke-linecap:round;stroke-linejoin:round;stroke:rgb(0%,0%,0%);stroke-opacity:1;stroke-miterlimit:10;" d="M 12729.947917 22046.09375 L 12658.072917 22009.895833 L 12550 22009.895833 L 12441.927083 22046.09375 L 12370.052083 22117.96875 L 12334.114583 22190.104167 L 12297.916667 22334.114583 L 12297.916667 22441.927083 L 12334.114583 22585.9375 L 12370.052083 22658.072917 L 12441.927083 22729.947917 L 12550 22765.885417 L 12621.875 22765.885417 L 12729.947917 22729.947917 L 12765.885417 22694.010417 L 12765.885417 22441.927083 L 12621.875 22441.927083 " transform="matrix(0.015,0,0,0.015,0,0)"/>
<path style="fill:none;stroke-width:76;stroke-linecap:round;stroke-linejoin:round;stroke:rgb(0%,0%,0%);stroke-opacity:1;stroke-miterlimit:10;" d="M 13629.947917 22082.03125 L 13665.885417 22046.09375 L 13738.020833 22009.895833 L 13917.96875 22009.895833 L 13990.104167 22046.09375 L 14026.041667 22082.03125 L 14061.979167 22153.90625 L 14061.979167 22226.041667 L 14026.041667 22334.114583 L 13594.010417 22765.885417 L 14061.979167 22765.885417 " transform="matrix(0.015,0,0,0.015,0,0)"/>
<path style="fill:none;stroke-width:23;stroke-linecap:round;stroke-linejoin:round;stroke:rgb(0%,0%,0%);stroke-opacity:1;stroke-miterlimit:10;" d="M 19090.104167 27563.020833 L 18520.052083 28423.958333 " transform="matrix(0.015,0,0,0.015,0,0)"/>
<path style="fill:none;stroke-width:23;stroke-linecap:round;stroke-linejoin:round;stroke:rgb(0%,0%,0%);stroke-opacity:1;stroke-miterlimit:10;" d="M 11890.104167 27563.020833 L 11320.052083 28423.958333 " transform="matrix(0.015,0,0,0.015,0,0)"/>
<path style="fill:none;stroke-width:9;stroke-linecap:round;stroke-linejoin:round;stroke:rgb(0%,0%,0%);stroke-opacity:1;stroke-miterlimit:10;" d="M 14140.885417 26264.583333 C 14140.885417 26800.520833 13854.947917 27295.833333 13390.625 27564.0625 C 12926.5625 27832.03125 12354.427083 27832.03125 11890.364583 27564.0625 C 11426.041667 27295.833333 11140.104167 26800.520833 11140.104167 26264.583333 C 11140.104167 25728.385417 11426.041667 25233.072917 11890.364583 24965.104167 C 12354.427083 24696.875 12926.5625 24696.875 13390.625 24965.104167 C 13854.947917 25233.072917 14140.885417 25728.385417 14140.885417 26264.583333 Z M 14140.885417 26264.583333 " transform="matrix(0.015,0,0,0.015,0,0)"/>
<path style="fill:none;stroke-width:9;stroke-linecap:round;stroke-linejoin:round;stroke:rgb(0%,0%,0%);stroke-opacity:1;stroke-miterlimit:10;" d="M 15190.885417 26264.583333 C 15190.885417 27175.78125 14704.947917 28017.708333 13915.625 28473.177083 C 13126.5625 28928.90625 12154.427083 28928.90625 11365.364583 28473.177083 C 10576.041667 28017.708333 10090.104167 27175.78125 10090.104167 26264.583333 C 10090.104167 25353.385417 10576.041667 24511.197917 11365.364583 24055.729167 C 12154.427083 23600 13126.5625 23600 13915.625 24055.729167 C 14704.947917 24511.197917 15190.885417 25353.385417 15190.885417 26264.583333 Z M 15190.885417 26264.583333 " transform="matrix(0.015,0,0,0.015,0,0)"/>
<path style="fill:none;stroke-width:76;stroke-linecap:round;stroke-linejoin:round;stroke:rgb(0%,0%,0%);stroke-opacity:1;stroke-miterlimit:10;" d="M 11217.96875 46970.052083 L 11326.041667 47005.989583 L 11505.989583 47005.989583 L 11578.125 46970.052083 L 11614.0625 46934.114583 L 11650 46861.979167 L 11650 46790.104167 L 11614.0625 46717.96875 L 11578.125 46682.03125 L 11505.989583 46646.09375 L 11361.979167 46609.895833 L 11290.104167 46573.958333 L 11253.90625 46538.020833 L 11217.96875 46465.885417 L 11217.96875 46394.010417 L 11253.90625 46321.875 L 11290.104167 46285.9375 L 11361.979167 46250 L 11541.927083 46250 L 11650 46285.9375 " transform="matrix(0.015,0,0,0.015,0,0)"/>
<path style="fill:none;stroke-width:76;stroke-linecap:round;stroke-linejoin:round;stroke:rgb(0%,0%,0%);stroke-opacity:1;stroke-miterlimit:10;" d="M 11973.958333 47005.989583 L 11973.958333 46250 " transform="matrix(0.015,0,0,0.015,0,0)"/>
<path style="fill:none;stroke-width:76;stroke-linecap:round;stroke-linejoin:round;stroke:rgb(0%,0%,0%);stroke-opacity:1;stroke-miterlimit:10;" d="M 12729.947917 46285.9375 L 12658.072917 46250 L 12550 46250 L 12441.927083 46285.9375 L 12370.052083 46358.072917 L 12334.114583 46429.947917 L 12297.916667 46573.958333 L 12297.916667 46682.03125 L 12334.114583 46826.041667 L 12370.052083 46897.916667 L 12441.927083 46970.052083 L 12550 47005.989583 L 12621.875 47005.989583 L 12729.947917 46970.052083 L 12765.885417 46934.114583 L 12765.885417 46682.03125 L 12621.875 46682.03125 " transform="matrix(0.015,0,0,0.015,0,0)"/>
<path style="fill:none;stroke-width:76;stroke-linecap:round;stroke-linejoin:round;stroke:rgb(0%,0%,0%);stroke-opacity:1;stroke-miterlimit:10;" d="M 13594.010417 46250 L 14061.979167 46250 L 13809.895833 46538.020833 L 13917.96875 46538.020833 L 13990.104167 46573.958333 L 14026.041667 46609.895833 L 14061.979167 46682.03125 L 14061.979167 46861.979167 L 14026.041667 46934.114583 L 13990.104167 46970.052083 L 13917.96875 47005.989583 L 13702.083333 47005.989583 L 13629.947917 46970.052083 L 13594.010417 46934.114583 " transform="matrix(0.015,0,0,0.015,0,0)"/>
<path style="fill:none;stroke-width:23;stroke-linecap:round;stroke-linejoin:round;stroke:rgb(0%,0%,0%);stroke-opacity:1;stroke-miterlimit:10;" d="M 12040.104167 45584.114583 L 11320.052083 44864.0625 " transform="matrix(0.015,0,0,0.015,0,0)"/>
<path style="fill:none;stroke-width:23;stroke-linecap:round;stroke-linejoin:round;stroke:rgb(0%,0%,0%);stroke-opacity:1;stroke-miterlimit:10;" d="M 13240.104167 45584.114583 L 12040.104167 45584.114583 " transform="matrix(0.015,0,0,0.015,0,0)"/>
<path style="fill:none;stroke-width:23;stroke-linecap:round;stroke-linejoin:round;stroke:rgb(0%,0%,0%);stroke-opacity:1;stroke-miterlimit:10;" d="M 13959.895833 44864.0625 L 13240.104167 45584.114583 " transform="matrix(0.015,0,0,0.015,0,0)"/>
<path style="fill:none;stroke-width:23;stroke-linecap:round;stroke-linejoin:round;stroke:rgb(0%,0%,0%);stroke-opacity:1;stroke-miterlimit:10;" d="M 19240.104167 45584.114583 L 18520.052083 44864.0625 " transform="matrix(0.015,0,0,0.015,0,0)"/>
<path style="fill:none;stroke-width:23;stroke-linecap:round;stroke-linejoin:round;stroke:rgb(0%,0%,0%);stroke-opacity:1;stroke-miterlimit:10;" d="M 20440.104167 42944.010417 L 21159.895833 43664.0625 " transform="matrix(0.015,0,0,0.015,0,0)"/>
<path style="fill:none;stroke-width:23;stroke-linecap:round;stroke-linejoin:round;stroke:rgb(0%,0%,0%);stroke-opacity:1;stroke-miterlimit:10;" d="M 20440.104167 45584.114583 L 19240.104167 45584.114583 " transform="matrix(0.015,0,0,0.015,0,0)"/>
<path style="fill:none;stroke-width:23;stroke-linecap:round;stroke-linejoin:round;stroke:rgb(0%,0%,0%);stroke-opacity:1;stroke-miterlimit:10;" d="M 21159.895833 44864.0625 L 20440.104167 45584.114583 " transform="matrix(0.015,0,0,0.015,0,0)"/>
<path style="fill:none;stroke-width:23;stroke-linecap:round;stroke-linejoin:round;stroke:rgb(0%,0%,0%);stroke-opacity:1;stroke-miterlimit:10;" d="M 18520.052083 44864.0625 L 18520.052083 43664.0625 " transform="matrix(0.015,0,0,0.015,0,0)"/>
<path style="fill:none;stroke-width:76;stroke-linecap:round;stroke-linejoin:round;stroke:rgb(0%,0%,0%);stroke-opacity:1;stroke-miterlimit:10;" d="M 11217.96875 36170.052083 L 11326.041667 36205.989583 L 11505.989583 36205.989583 L 11578.125 36170.052083 L 11614.0625 36134.114583 L 11650 36061.979167 L 11650 35990.104167 L 11614.0625 35917.96875 L 11578.125 35882.03125 L 11505.989583 35846.09375 L 11361.979167 35809.895833 L 11290.104167 35773.958333 L 11253.90625 35738.020833 L 11217.96875 35665.885417 L 11217.96875 35594.010417 L 11253.90625 35521.875 L 11290.104167 35485.9375 L 11361.979167 35450 L 11541.927083 35450 L 11650 35485.9375 " transform="matrix(0.015,0,0,0.015,0,0)"/>
<path style="fill:none;stroke-width:76;stroke-linecap:round;stroke-linejoin:round;stroke:rgb(0%,0%,0%);stroke-opacity:1;stroke-miterlimit:10;" d="M 11973.958333 36205.989583 L 11973.958333 35450 " transform="matrix(0.015,0,0,0.015,0,0)"/>
<path style="fill:none;stroke-width:76;stroke-linecap:round;stroke-linejoin:round;stroke:rgb(0%,0%,0%);stroke-opacity:1;stroke-miterlimit:10;" d="M 12729.947917 35485.9375 L 12658.072917 35450 L 12550 35450 L 12441.927083 35485.9375 L 12370.052083 35558.072917 L 12334.114583 35629.947917 L 12297.916667 35773.958333 L 12297.916667 35882.03125 L 12334.114583 36026.041667 L 12370.052083 36097.916667 L 12441.927083 36170.052083 L 12550 36205.989583 L 12621.875 36205.989583 L 12729.947917 36170.052083 L 12765.885417 36134.114583 L 12765.885417 35882.03125 L 12621.875 35882.03125 " transform="matrix(0.015,0,0,0.015,0,0)"/>
<path style="fill:none;stroke-width:76;stroke-linecap:round;stroke-linejoin:round;stroke:rgb(0%,0%,0%);stroke-opacity:1;stroke-miterlimit:10;" d="M 14061.979167 36205.989583 L 13629.947917 36205.989583 " transform="matrix(0.015,0,0,0.015,0,0)"/>
<path style="fill:none;stroke-width:76;stroke-linecap:round;stroke-linejoin:round;stroke:rgb(0%,0%,0%);stroke-opacity:1;stroke-miterlimit:10;" d="M 13846.09375 36205.989583 L 13846.09375 35450 L 13773.958333 35558.072917 L 13702.083333 35629.947917 L 13629.947917 35665.885417 " transform="matrix(0.015,0,0,0.015,0,0)"/>
<path style="fill:none;stroke-width:23;stroke-linecap:round;stroke-linejoin:round;stroke:rgb(0%,0%,0%);stroke-opacity:1;stroke-miterlimit:10;" d="M 11320.052083 34064.0625 L 11320.052083 32864.0625 " transform="matrix(0.015,0,0,0.015,0,0)"/>
<path style="fill:none;stroke-width:23;stroke-linecap:round;stroke-linejoin:round;stroke:rgb(0%,0%,0%);stroke-opacity:1;stroke-miterlimit:10;" d="M 12040.104167 34784.114583 L 11320.052083 34064.0625 " transform="matrix(0.015,0,0,0.015,0,0)"/>
<path style="fill:none;stroke-width:23;stroke-linecap:round;stroke-linejoin:round;stroke:rgb(0%,0%,0%);stroke-opacity:1;stroke-miterlimit:10;" d="M 13240.104167 34784.114583 L 12040.104167 34784.114583 " transform="matrix(0.015,0,0,0.015,0,0)"/>
<path style="fill:none;stroke-width:23;stroke-linecap:round;stroke-linejoin:round;stroke:rgb(0%,0%,0%);stroke-opacity:1;stroke-miterlimit:10;" d="M 13959.895833 34064.0625 L 13240.104167 34784.114583 " transform="matrix(0.015,0,0,0.015,0,0)"/>
<path style="fill:none;stroke-width:23;stroke-linecap:round;stroke-linejoin:round;stroke:rgb(0%,0%,0%);stroke-opacity:1;stroke-miterlimit:10;" d="M 14290.885417 33464.583333 C 14290.885417 34054.166667 13976.302083 34598.958333 13465.625 34893.75 C 12955.208333 35188.802083 12326.041667 35188.802083 11815.364583 34893.75 C 11304.6875 34598.958333 10990.104167 34054.166667 10990.104167 33464.583333 C 10990.104167 32874.739583 11304.6875 32329.947917 11815.364583 32035.15625 C 12326.041667 31740.364583 12955.208333 31740.364583 13465.625 32035.15625 C 13976.302083 32329.947917 14290.885417 32874.739583 14290.885417 33464.583333 Z M 14290.885417 33464.583333 " transform="matrix(0.015,0,0,0.015,0,0)"/>
<path style="fill:none;stroke-width:23;stroke-linecap:round;stroke-linejoin:round;stroke:rgb(0%,0%,0%);stroke-opacity:1;stroke-miterlimit:10;" d="M 13540.885417 33464.583333 C 13540.885417 33786.197917 13369.270833 34083.59375 13090.625 34244.270833 C 12812.239583 34405.208333 12468.75 34405.208333 12190.364583 34244.270833 C 11911.71875 34083.59375 11740.104167 33786.197917 11740.104167 33464.583333 C 11740.104167 33142.708333 11911.71875 32845.572917 12190.364583 32684.635417 C 12468.75 32523.697917 12812.239583 32523.697917 13090.625 32684.635417 C 13369.270833 32845.572917 13540.885417 33142.708333 13540.885417 33464.583333 Z M 13540.885417 33464.583333 " transform="matrix(0.015,0,0,0.015,0,0)"/>
<path style="fill:none;stroke-width:76;stroke-linecap:round;stroke-linejoin:round;stroke:rgb(0%,0%,0%);stroke-opacity:1;stroke-miterlimit:10;" d="M 11217.96875 41570.052083 L 11326.041667 41605.989583 L 11505.989583 41605.989583 L 11578.125 41570.052083 L 11614.0625 41534.114583 L 11650 41461.979167 L 11650 41390.104167 L 11614.0625 41317.96875 L 11578.125 41282.03125 L 11505.989583 41246.09375 L 11361.979167 41209.895833 L 11290.104167 41173.958333 L 11253.90625 41138.020833 L 11217.96875 41065.885417 L 11217.96875 40994.010417 L 11253.90625 40921.875 L 11290.104167 40885.9375 L 11361.979167 40850 L 11541.927083 40850 L 11650 40885.9375 " transform="matrix(0.015,0,0,0.015,0,0)"/>
<path style="fill:none;stroke-width:76;stroke-linecap:round;stroke-linejoin:round;stroke:rgb(0%,0%,0%);stroke-opacity:1;stroke-miterlimit:10;" d="M 11973.958333 41605.989583 L 11973.958333 40850 " transform="matrix(0.015,0,0,0.015,0,0)"/>
<path style="fill:none;stroke-width:76;stroke-linecap:round;stroke-linejoin:round;stroke:rgb(0%,0%,0%);stroke-opacity:1;stroke-miterlimit:10;" d="M 12729.947917 40885.9375 L 12658.072917 40850 L 12550 40850 L 12441.927083 40885.9375 L 12370.052083 40958.072917 L 12334.114583 41029.947917 L 12297.916667 41173.958333 L 12297.916667 41282.03125 L 12334.114583 41426.041667 L 12370.052083 41497.916667 L 12441.927083 41570.052083 L 12550 41605.989583 L 12621.875 41605.989583 L 12729.947917 41570.052083 L 12765.885417 41534.114583 L 12765.885417 41282.03125 L 12621.875 41282.03125 " transform="matrix(0.015,0,0,0.015,0,0)"/>
<path style="fill:none;stroke-width:76;stroke-linecap:round;stroke-linejoin:round;stroke:rgb(0%,0%,0%);stroke-opacity:1;stroke-miterlimit:10;" d="M 13629.947917 40921.875 L 13665.885417 40885.9375 L 13738.020833 40850 L 13917.96875 40850 L 13990.104167 40885.9375 L 14026.041667 40921.875 L 14061.979167 40994.010417 L 14061.979167 41065.885417 L 14026.041667 41173.958333 L 13594.010417 41605.989583 L 14061.979167 41605.989583 " transform="matrix(0.015,0,0,0.015,0,0)"/>
<path style="fill:none;stroke-width:23;stroke-linecap:round;stroke-linejoin:round;stroke:rgb(0%,0%,0%);stroke-opacity:1;stroke-miterlimit:10;" d="M 13240.104167 42944.010417 L 13959.895833 43664.0625 " transform="matrix(0.015,0,0,0.015,0,0)"/>
<path style="fill:none;stroke-width:23;stroke-linecap:round;stroke-linejoin:round;stroke:rgb(0%,0%,0%);stroke-opacity:1;stroke-miterlimit:10;" d="M 12040.104167 40184.114583 L 11320.052083 39464.0625 " transform="matrix(0.015,0,0,0.015,0,0)"/>
<path style="fill:none;stroke-width:23;stroke-linecap:round;stroke-linejoin:round;stroke:rgb(0%,0%,0%);stroke-opacity:1;stroke-miterlimit:10;" d="M 13240.104167 40184.114583 L 12040.104167 40184.114583 " transform="matrix(0.015,0,0,0.015,0,0)"/>
<path style="fill:none;stroke-width:23;stroke-linecap:round;stroke-linejoin:round;stroke:rgb(0%,0%,0%);stroke-opacity:1;stroke-miterlimit:10;" d="M 13959.895833 39464.0625 L 13240.104167 40184.114583 " transform="matrix(0.015,0,0,0.015,0,0)"/>
<path style="fill:none;stroke-width:23;stroke-linecap:round;stroke-linejoin:round;stroke:rgb(0%,0%,0%);stroke-opacity:1;stroke-miterlimit:10;" d="M 11320.052083 38264.0625 L 12040.104167 37544.010417 " transform="matrix(0.015,0,0,0.015,0,0)"/>
<path style="fill:none;stroke-width:23;stroke-linecap:round;stroke-linejoin:round;stroke:rgb(0%,0%,0%);stroke-opacity:1;stroke-miterlimit:10;" d="M 11320.052083 39464.0625 L 11320.052083 38264.0625 " transform="matrix(0.015,0,0,0.015,0,0)"/>
<path style="fill:none;stroke-width:23;stroke-linecap:round;stroke-linejoin:round;stroke:rgb(0%,0%,0%);stroke-opacity:1;stroke-miterlimit:10;" d="M 13959.895833 38264.0625 L 13959.895833 39464.0625 " transform="matrix(0.015,0,0,0.015,0,0)"/>
<path style="fill:none;stroke-width:23;stroke-linecap:round;stroke-linejoin:round;stroke:rgb(0%,0%,0%);stroke-opacity:1;stroke-miterlimit:10;" d="M 13240.104167 37544.010417 L 13959.895833 38264.0625 " transform="matrix(0.015,0,0,0.015,0,0)"/>
<path style="fill:none;stroke-width:23;stroke-linecap:round;stroke-linejoin:round;stroke:rgb(0%,0%,0%);stroke-opacity:1;stroke-miterlimit:10;" d="M 12040.104167 37544.010417 L 13240.104167 37544.010417 " transform="matrix(0.015,0,0,0.015,0,0)"/>
<path style="fill:none;stroke-width:23;stroke-linecap:round;stroke-linejoin:round;stroke:rgb(0%,0%,0%);stroke-opacity:1;stroke-miterlimit:10;" d="M 14290.885417 38864.583333 C 14290.885417 39454.166667 13976.302083 39998.958333 13465.625 40293.75 C 12955.208333 40588.802083 12326.041667 40588.802083 11815.364583 40293.75 C 11304.6875 39998.958333 10990.104167 39454.166667 10990.104167 38864.583333 C 10990.104167 38274.739583 11304.6875 37729.947917 11815.364583 37435.15625 C 12326.041667 37140.364583 12955.208333 37140.364583 13465.625 37435.15625 C 13976.302083 37729.947917 14290.885417 38274.739583 14290.885417 38864.583333 Z M 14290.885417 38864.583333 " transform="matrix(0.015,0,0,0.015,0,0)"/>
<path style="fill:none;stroke-width:23;stroke-linecap:round;stroke-linejoin:round;stroke:rgb(0%,0%,0%);stroke-opacity:1;stroke-miterlimit:10;" d="M 13540.885417 38864.583333 C 13540.885417 39186.197917 13369.270833 39483.59375 13090.625 39644.270833 C 12812.239583 39805.208333 12468.75 39805.208333 12190.364583 39644.270833 C 11911.71875 39483.59375 11740.104167 39186.197917 11740.104167 38864.583333 C 11740.104167 38542.708333 11911.71875 38245.572917 12190.364583 38084.635417 C 12468.75 37923.697917 12812.239583 37923.697917 13090.625 38084.635417 C 13369.270833 38245.572917 13540.885417 38542.708333 13540.885417 38864.583333 Z M 13540.885417 38864.583333 " transform="matrix(0.015,0,0,0.015,0,0)"/>
<path style="fill:none;stroke-width:76;stroke-linecap:round;stroke-linejoin:round;stroke:rgb(0%,0%,0%);stroke-opacity:1;stroke-miterlimit:10;" d="M 11217.96875 29929.947917 L 11326.041667 29965.885417 L 11505.989583 29965.885417 L 11578.125 29929.947917 L 11614.0625 29894.010417 L 11650 29821.875 L 11650 29750 L 11614.0625 29678.125 L 11578.125 29641.927083 L 11505.989583 29605.989583 L 11361.979167 29570.052083 L 11290.104167 29534.114583 L 11253.90625 29497.916667 L 11217.96875 29426.041667 L 11217.96875 29353.90625 L 11253.90625 29282.03125 L 11290.104167 29246.09375 L 11361.979167 29209.895833 L 11541.927083 29209.895833 L 11650 29246.09375 " transform="matrix(0.015,0,0,0.015,0,0)"/>
<path style="fill:none;stroke-width:76;stroke-linecap:round;stroke-linejoin:round;stroke:rgb(0%,0%,0%);stroke-opacity:1;stroke-miterlimit:10;" d="M 11973.958333 29965.885417 L 11973.958333 29209.895833 " transform="matrix(0.015,0,0,0.015,0,0)"/>
<path style="fill:none;stroke-width:76;stroke-linecap:round;stroke-linejoin:round;stroke:rgb(0%,0%,0%);stroke-opacity:1;stroke-miterlimit:10;" d="M 12729.947917 29246.09375 L 12658.072917 29209.895833 L 12550 29209.895833 L 12441.927083 29246.09375 L 12370.052083 29317.96875 L 12334.114583 29390.104167 L 12297.916667 29534.114583 L 12297.916667 29641.927083 L 12334.114583 29785.9375 L 12370.052083 29858.072917 L 12441.927083 29929.947917 L 12550 29965.885417 L 12621.875 29965.885417 L 12729.947917 29929.947917 L 12765.885417 29894.010417 L 12765.885417 29641.927083 L 12621.875 29641.927083 " transform="matrix(0.015,0,0,0.015,0,0)"/>
<path style="fill:none;stroke-width:76;stroke-linecap:round;stroke-linejoin:round;stroke:rgb(0%,0%,0%);stroke-opacity:1;stroke-miterlimit:10;" d="M 13594.010417 29209.895833 L 14061.979167 29209.895833 L 13809.895833 29497.916667 L 13917.96875 29497.916667 L 13990.104167 29534.114583 L 14026.041667 29570.052083 L 14061.979167 29641.927083 L 14061.979167 29821.875 L 14026.041667 29894.010417 L 13990.104167 29929.947917 L 13917.96875 29965.885417 L 13702.083333 29965.885417 L 13629.947917 29929.947917 L 13594.010417 29894.010417 " transform="matrix(0.015,0,0,0.015,0,0)"/>
<path style="fill:none;stroke-width:23;stroke-linecap:round;stroke-linejoin:round;stroke:rgb(0%,0%,0%);stroke-opacity:1;stroke-miterlimit:10;" d="M 11320.052083 32864.0625 L 12040.104167 32144.010417 " transform="matrix(0.015,0,0,0.015,0,0)"/>
<path style="fill:none;stroke-width:23;stroke-linecap:round;stroke-linejoin:round;stroke:rgb(0%,0%,0%);stroke-opacity:1;stroke-miterlimit:10;" d="M 13959.895833 32864.0625 L 13959.895833 34064.0625 " transform="matrix(0.015,0,0,0.015,0,0)"/>
<path style="fill:none;stroke-width:23;stroke-linecap:round;stroke-linejoin:round;stroke:rgb(0%,0%,0%);stroke-opacity:1;stroke-miterlimit:10;" d="M 13240.104167 32144.010417 L 13959.895833 32864.0625 " transform="matrix(0.015,0,0,0.015,0,0)"/>
<path style="fill:none;stroke-width:23;stroke-linecap:round;stroke-linejoin:round;stroke:rgb(0%,0%,0%);stroke-opacity:1;stroke-miterlimit:10;" d="M 12040.104167 32144.010417 L 13240.104167 32144.010417 " transform="matrix(0.015,0,0,0.015,0,0)"/>
<path style="fill:none;stroke-width:23;stroke-linecap:round;stroke-linejoin:round;stroke:rgb(0%,0%,0%);stroke-opacity:1;stroke-miterlimit:10;" d="M 11320.052083 43664.0625 L 12040.104167 42944.010417 " transform="matrix(0.015,0,0,0.015,0,0)"/>
<path style="fill:none;stroke-width:23;stroke-linecap:round;stroke-linejoin:round;stroke:rgb(0%,0%,0%);stroke-opacity:1;stroke-miterlimit:10;" d="M 13959.895833 43664.0625 L 13959.895833 44864.0625 " transform="matrix(0.015,0,0,0.015,0,0)"/>
<path style="fill:none;stroke-width:23;stroke-linecap:round;stroke-linejoin:round;stroke:rgb(0%,0%,0%);stroke-opacity:1;stroke-miterlimit:10;" d="M 11320.052083 44864.0625 L 11320.052083 43664.0625 " transform="matrix(0.015,0,0,0.015,0,0)"/>
<path style="fill:none;stroke-width:23;stroke-linecap:round;stroke-linejoin:round;stroke:rgb(0%,0%,0%);stroke-opacity:1;stroke-miterlimit:10;" d="M 12040.104167 42944.010417 L 13240.104167 42944.010417 " transform="matrix(0.015,0,0,0.015,0,0)"/>
<path style="fill:none;stroke-width:23;stroke-linecap:round;stroke-linejoin:round;stroke:rgb(0%,0%,0%);stroke-opacity:1;stroke-miterlimit:10;" d="M 14290.885417 44264.583333 C 14290.885417 44854.166667 13976.302083 45398.958333 13465.625 45693.75 C 12955.208333 45988.802083 12326.041667 45988.802083 11815.364583 45693.75 C 11304.6875 45398.958333 10990.104167 44854.166667 10990.104167 44264.583333 C 10990.104167 43674.739583 11304.6875 43129.947917 11815.364583 42835.15625 C 12326.041667 42540.364583 12955.208333 42540.364583 13465.625 42835.15625 C 13976.302083 43129.947917 14290.885417 43674.739583 14290.885417 44264.583333 Z M 14290.885417 44264.583333 " transform="matrix(0.015,0,0,0.015,0,0)"/>
<path style="fill:none;stroke-width:23;stroke-linecap:round;stroke-linejoin:round;stroke:rgb(0%,0%,0%);stroke-opacity:1;stroke-miterlimit:10;" d="M 13540.885417 44264.583333 C 13540.885417 44586.197917 13369.270833 44883.59375 13090.625 45044.270833 C 12812.239583 45205.208333 12468.75 45205.208333 12190.364583 45044.270833 C 11911.71875 44883.59375 11740.104167 44586.197917 11740.104167 44264.583333 C 11740.104167 43942.708333 11911.71875 43645.572917 12190.364583 43484.635417 C 12468.75 43323.697917 12812.239583 43323.697917 13090.625 43484.635417 C 13369.270833 43645.572917 13540.885417 43942.708333 13540.885417 44264.583333 Z M 13540.885417 44264.583333 " transform="matrix(0.015,0,0,0.015,0,0)"/>
<path style="fill:none;stroke-width:76;stroke-linecap:round;stroke-linejoin:round;stroke:rgb(0%,0%,0%);stroke-opacity:1;stroke-miterlimit:10;" d="M 26284.114583 46250 L 26428.125 46250 L 26500 46285.9375 L 26571.875 46358.072917 L 26608.072917 46502.083333 L 26608.072917 46753.90625 L 26571.875 46897.916667 L 26500 46970.052083 L 26428.125 47005.989583 L 26284.114583 47005.989583 L 26211.979167 46970.052083 L 26140.104167 46897.916667 L 26103.90625 46753.90625 L 26103.90625 46502.083333 L 26140.104167 46358.072917 L 26211.979167 46285.9375 L 26284.114583 46250 " transform="matrix(0.015,0,0,0.015,0,0)"/>
<path style="fill:none;stroke-width:76;stroke-linecap:round;stroke-linejoin:round;stroke:rgb(0%,0%,0%);stroke-opacity:1;stroke-miterlimit:10;" d="M 26932.03125 46250 L 26932.03125 46861.979167 L 26967.96875 46934.114583 L 27003.90625 46970.052083 L 27076.041667 47005.989583 L 27220.052083 47005.989583 L 27291.927083 46970.052083 L 27328.125 46934.114583 L 27364.0625 46861.979167 L 27364.0625 46250 " transform="matrix(0.015,0,0,0.015,0,0)"/>
<path style="fill:none;stroke-width:76;stroke-linecap:round;stroke-linejoin:round;stroke:rgb(0%,0%,0%);stroke-opacity:1;stroke-miterlimit:10;" d="M 27615.885417 46250 L 28047.916667 46250 " transform="matrix(0.015,0,0,0.015,0,0)"/>
<path style="fill:none;stroke-width:76;stroke-linecap:round;stroke-linejoin:round;stroke:rgb(0%,0%,0%);stroke-opacity:1;stroke-miterlimit:10;" d="M 27832.03125 47005.989583 L 27832.03125 46250 " transform="matrix(0.015,0,0,0.015,0,0)"/>
<path style="fill:none;stroke-width:76;stroke-linecap:round;stroke-linejoin:round;stroke:rgb(0%,0%,0%);stroke-opacity:1;stroke-miterlimit:10;" d="M 19102.083333 46934.114583 L 19065.885417 46970.052083 L 18958.072917 47005.989583 L 18885.9375 47005.989583 L 18778.125 46970.052083 L 18705.989583 46897.916667 L 18670.052083 46826.041667 L 18634.114583 46682.03125 L 18634.114583 46573.958333 L 18670.052083 46429.947917 L 18705.989583 46358.072917 L 18778.125 46285.9375 L 18885.9375 46250 L 18958.072917 46250 L 19065.885417 46285.9375 L 19102.083333 46321.875 " transform="matrix(0.015,0,0,0.015,0,0)"/>
<path style="fill:none;stroke-width:76;stroke-linecap:round;stroke-linejoin:round;stroke:rgb(0%,0%,0%);stroke-opacity:1;stroke-miterlimit:10;" d="M 19317.96875 46250 L 19570.052083 47005.989583 L 19821.875 46250 " transform="matrix(0.015,0,0,0.015,0,0)"/>
<path style="fill:none;stroke-width:76;stroke-linecap:round;stroke-linejoin:round;stroke:rgb(0%,0%,0%);stroke-opacity:1;stroke-miterlimit:10;" d="M 20578.125 46250 L 21046.09375 46250 L 20794.010417 46538.020833 L 20902.083333 46538.020833 L 20973.958333 46573.958333 L 21009.895833 46609.895833 L 21046.09375 46682.03125 L 21046.09375 46861.979167 L 21009.895833 46934.114583 L 20973.958333 46970.052083 L 20902.083333 47005.989583 L 20685.9375 47005.989583 L 20614.0625 46970.052083 L 20578.125 46934.114583 " transform="matrix(0.015,0,0,0.015,0,0)"/>
<path style="fill:none;stroke-width:23;stroke-linecap:round;stroke-linejoin:round;stroke:rgb(0%,0%,0%);stroke-opacity:1;stroke-miterlimit:10;" d="M 26440.104167 45584.114583 L 25720.052083 44864.0625 " transform="matrix(0.015,0,0,0.015,0,0)"/>
<path style="fill:none;stroke-width:23;stroke-linecap:round;stroke-linejoin:round;stroke:rgb(0%,0%,0%);stroke-opacity:1;stroke-miterlimit:10;" d="M 21159.895833 43664.0625 L 21159.895833 44864.0625 " transform="matrix(0.015,0,0,0.015,0,0)"/>
<path style="fill:none;stroke-width:23;stroke-linecap:round;stroke-linejoin:round;stroke:rgb(0%,0%,0%);stroke-opacity:1;stroke-miterlimit:10;" d="M 21490.885417 44264.583333 C 21490.885417 44854.166667 21176.302083 45398.958333 20665.625 45693.75 C 20155.208333 45988.802083 19526.041667 45988.802083 19015.364583 45693.75 C 18504.6875 45398.958333 18190.104167 44854.166667 18190.104167 44264.583333 C 18190.104167 43674.739583 18504.6875 43129.947917 19015.364583 42835.15625 C 19526.041667 42540.364583 20155.208333 42540.364583 20665.625 42835.15625 C 21176.302083 43129.947917 21490.885417 43674.739583 21490.885417 44264.583333 Z M 21490.885417 44264.583333 " transform="matrix(0.015,0,0,0.015,0,0)"/>
<path style="fill:none;stroke-width:23;stroke-linecap:round;stroke-linejoin:round;stroke:rgb(0%,0%,0%);stroke-opacity:1;stroke-miterlimit:10;" d="M 20740.885417 44264.583333 C 20740.885417 44586.197917 20569.270833 44883.59375 20290.625 45044.270833 C 20012.239583 45205.208333 19668.75 45205.208333 19390.364583 45044.270833 C 19111.71875 44883.59375 18940.104167 44586.197917 18940.104167 44264.583333 C 18940.104167 43942.708333 19111.71875 43645.572917 19390.364583 43484.635417 C 19668.75 43323.697917 20012.239583 43323.697917 20290.625 43484.635417 C 20569.270833 43645.572917 20740.885417 43942.708333 20740.885417 44264.583333 Z M 20740.885417 44264.583333 " transform="matrix(0.015,0,0,0.015,0,0)"/>
<path style="fill:none;stroke-width:23;stroke-linecap:round;stroke-linejoin:round;stroke:rgb(0%,0%,0%);stroke-opacity:1;stroke-miterlimit:10;" d="M 27640.104167 42944.010417 L 28359.895833 43664.0625 " transform="matrix(0.015,0,0,0.015,0,0)"/>
<path style="fill:none;stroke-width:23;stroke-linecap:round;stroke-linejoin:round;stroke:rgb(0%,0%,0%);stroke-opacity:1;stroke-miterlimit:10;" d="M 27640.104167 45584.114583 L 26440.104167 45584.114583 " transform="matrix(0.015,0,0,0.015,0,0)"/>
<path style="fill:none;stroke-width:23;stroke-linecap:round;stroke-linejoin:round;stroke:rgb(0%,0%,0%);stroke-opacity:1;stroke-miterlimit:10;" d="M 28359.895833 43664.0625 L 28359.895833 44864.0625 " transform="matrix(0.015,0,0,0.015,0,0)"/>
<path style="fill:none;stroke-width:23;stroke-linecap:round;stroke-linejoin:round;stroke:rgb(0%,0%,0%);stroke-opacity:1;stroke-miterlimit:10;" d="M 28359.895833 44864.0625 L 27640.104167 45584.114583 " transform="matrix(0.015,0,0,0.015,0,0)"/>
<path style="fill:none;stroke-width:23;stroke-linecap:round;stroke-linejoin:round;stroke:rgb(0%,0%,0%);stroke-opacity:1;stroke-miterlimit:10;" d="M 25720.052083 44864.0625 L 25720.052083 43664.0625 " transform="matrix(0.015,0,0,0.015,0,0)"/>
<path style="fill:none;stroke-width:23;stroke-linecap:round;stroke-linejoin:round;stroke:rgb(0%,0%,0%);stroke-opacity:1;stroke-miterlimit:10;" d="M 28690.885417 44264.583333 C 28690.885417 44854.166667 28376.302083 45398.958333 27865.625 45693.75 C 27355.208333 45988.802083 26726.041667 45988.802083 26215.364583 45693.75 C 25704.6875 45398.958333 25390.104167 44854.166667 25390.104167 44264.583333 C 25390.104167 43674.739583 25704.6875 43129.947917 26215.364583 42835.15625 C 26726.041667 42540.364583 27355.208333 42540.364583 27865.625 42835.15625 C 28376.302083 43129.947917 28690.885417 43674.739583 28690.885417 44264.583333 Z M 28690.885417 44264.583333 " transform="matrix(0.015,0,0,0.015,0,0)"/>
<path style="fill:none;stroke-width:23;stroke-linecap:round;stroke-linejoin:round;stroke:rgb(0%,0%,0%);stroke-opacity:1;stroke-miterlimit:10;" d="M 27940.885417 44264.583333 C 27940.885417 44586.197917 27769.270833 44883.59375 27490.625 45044.270833 C 27212.239583 45205.208333 26868.75 45205.208333 26590.364583 45044.270833 C 26311.71875 44883.59375 26140.104167 44586.197917 26140.104167 44264.583333 C 26140.104167 43942.708333 26311.71875 43645.572917 26590.364583 43484.635417 C 26868.75 43323.697917 27212.239583 43323.697917 27490.625 43484.635417 C 27769.270833 43645.572917 27940.885417 43942.708333 27940.885417 44264.583333 Z M 27940.885417 44264.583333 " transform="matrix(0.015,0,0,0.015,0,0)"/>
<path style="fill:none;stroke-width:76;stroke-linecap:round;stroke-linejoin:round;stroke:rgb(0%,0%,0%);stroke-opacity:1;stroke-miterlimit:10;" d="M 25203.90625 41534.114583 L 25167.96875 41570.052083 L 25059.895833 41605.989583 L 24988.020833 41605.989583 L 24879.947917 41570.052083 L 24808.072917 41497.916667 L 24771.875 41426.041667 L 24735.9375 41282.03125 L 24735.9375 41173.958333 L 24771.875 41029.947917 L 24808.072917 40958.072917 L 24879.947917 40885.9375 L 24988.020833 40850 L 25059.895833 40850 L 25167.96875 40885.9375 L 25203.90625 40921.875 " transform="matrix(0.015,0,0,0.015,0,0)"/>
<path style="fill:none;stroke-width:76;stroke-linecap:round;stroke-linejoin:round;stroke:rgb(0%,0%,0%);stroke-opacity:1;stroke-miterlimit:10;" d="M 25420.052083 40850 L 25671.875 41605.989583 L 25923.958333 40850 " transform="matrix(0.015,0,0,0.015,0,0)"/>
<path style="fill:none;stroke-width:76;stroke-linecap:round;stroke-linejoin:round;stroke:rgb(0%,0%,0%);stroke-opacity:1;stroke-miterlimit:10;" d="M 26644.010417 40850 L 27076.041667 40850 " transform="matrix(0.015,0,0,0.015,0,0)"/>
<path style="fill:none;stroke-width:76;stroke-linecap:round;stroke-linejoin:round;stroke:rgb(0%,0%,0%);stroke-opacity:1;stroke-miterlimit:10;" d="M 26859.895833 41605.989583 L 26859.895833 40850 " transform="matrix(0.015,0,0,0.015,0,0)"/>
<path style="fill:none;stroke-width:76;stroke-linecap:round;stroke-linejoin:round;stroke:rgb(0%,0%,0%);stroke-opacity:1;stroke-miterlimit:10;" d="M 27328.125 41605.989583 L 27328.125 40850 " transform="matrix(0.015,0,0,0.015,0,0)"/>
<path style="fill:none;stroke-width:76;stroke-linecap:round;stroke-linejoin:round;stroke:rgb(0%,0%,0%);stroke-opacity:1;stroke-miterlimit:10;" d="M 27328.125 41209.895833 L 27759.895833 41209.895833 " transform="matrix(0.015,0,0,0.015,0,0)"/>
<path style="fill:none;stroke-width:76;stroke-linecap:round;stroke-linejoin:round;stroke:rgb(0%,0%,0%);stroke-opacity:1;stroke-miterlimit:10;" d="M 27759.895833 41605.989583 L 27759.895833 40850 " transform="matrix(0.015,0,0,0.015,0,0)"/>
<path style="fill:none;stroke-width:76;stroke-linecap:round;stroke-linejoin:round;stroke:rgb(0%,0%,0%);stroke-opacity:1;stroke-miterlimit:10;" d="M 28552.083333 41605.989583 L 28300 41246.09375 " transform="matrix(0.015,0,0,0.015,0,0)"/>
<path style="fill:none;stroke-width:76;stroke-linecap:round;stroke-linejoin:round;stroke:rgb(0%,0%,0%);stroke-opacity:1;stroke-miterlimit:10;" d="M 28120.052083 41605.989583 L 28120.052083 40850 L 28408.072917 40850 L 28479.947917 40885.9375 L 28515.885417 40921.875 L 28552.083333 40994.010417 L 28552.083333 41102.083333 L 28515.885417 41173.958333 L 28479.947917 41209.895833 L 28408.072917 41246.09375 L 28120.052083 41246.09375 " transform="matrix(0.015,0,0,0.015,0,0)"/>
<path style="fill:none;stroke-width:76;stroke-linecap:round;stroke-linejoin:round;stroke:rgb(0%,0%,0%);stroke-opacity:1;stroke-miterlimit:10;" d="M 28876.041667 40850 L 28876.041667 41461.979167 L 28911.979167 41534.114583 L 28947.916667 41570.052083 L 29020.052083 41605.989583 L 29164.0625 41605.989583 L 29235.9375 41570.052083 L 29271.875 41534.114583 L 29308.072917 41461.979167 L 29308.072917 40850 " transform="matrix(0.015,0,0,0.015,0,0)"/>
<path style="fill:none;stroke-width:23;stroke-linecap:round;stroke-linejoin:round;stroke:rgb(0%,0%,0%);stroke-opacity:1;stroke-miterlimit:10;" d="M 25720.052083 43664.0625 L 26440.104167 42944.010417 " transform="matrix(0.015,0,0,0.015,0,0)"/>
<path style="fill:none;stroke-width:23;stroke-linecap:round;stroke-linejoin:round;stroke:rgb(0%,0%,0%);stroke-opacity:1;stroke-miterlimit:10;" d="M 26440.104167 42944.010417 L 27640.104167 42944.010417 " transform="matrix(0.015,0,0,0.015,0,0)"/>
<path style="fill:none;stroke-width:23;stroke-linecap:round;stroke-linejoin:round;stroke:rgb(0%,0%,0%);stroke-opacity:1;stroke-miterlimit:10;" d="M 26440.104167 40184.114583 L 25720.052083 39464.0625 " transform="matrix(0.015,0,0,0.015,0,0)"/>
<path style="fill:none;stroke-width:23;stroke-linecap:round;stroke-linejoin:round;stroke:rgb(0%,0%,0%);stroke-opacity:1;stroke-miterlimit:10;" d="M 27640.104167 40184.114583 L 26440.104167 40184.114583 " transform="matrix(0.015,0,0,0.015,0,0)"/>
<path style="fill:none;stroke-width:76;stroke-linecap:round;stroke-linejoin:round;stroke:rgb(0%,0%,0%);stroke-opacity:1;stroke-miterlimit:10;" d="M 19102.083333 41534.114583 L 19065.885417 41570.052083 L 18958.072917 41605.989583 L 18885.9375 41605.989583 L 18778.125 41570.052083 L 18705.989583 41497.916667 L 18670.052083 41426.041667 L 18634.114583 41282.03125 L 18634.114583 41173.958333 L 18670.052083 41029.947917 L 18705.989583 40958.072917 L 18778.125 40885.9375 L 18885.9375 40850 L 18958.072917 40850 L 19065.885417 40885.9375 L 19102.083333 40921.875 " transform="matrix(0.015,0,0,0.015,0,0)"/>
<path style="fill:none;stroke-width:76;stroke-linecap:round;stroke-linejoin:round;stroke:rgb(0%,0%,0%);stroke-opacity:1;stroke-miterlimit:10;" d="M 19317.96875 40850 L 19570.052083 41605.989583 L 19821.875 40850 " transform="matrix(0.015,0,0,0.015,0,0)"/>
<path style="fill:none;stroke-width:76;stroke-linecap:round;stroke-linejoin:round;stroke:rgb(0%,0%,0%);stroke-opacity:1;stroke-miterlimit:10;" d="M 20614.0625 40921.875 L 20650 40885.9375 L 20721.875 40850 L 20902.083333 40850 L 20973.958333 40885.9375 L 21009.895833 40921.875 L 21046.09375 40994.010417 L 21046.09375 41065.885417 L 21009.895833 41173.958333 L 20578.125 41605.989583 L 21046.09375 41605.989583 " transform="matrix(0.015,0,0,0.015,0,0)"/>
<path style="fill:none;stroke-width:23;stroke-linecap:round;stroke-linejoin:round;stroke:rgb(0%,0%,0%);stroke-opacity:1;stroke-miterlimit:10;" d="M 18520.052083 43664.0625 L 19240.104167 42944.010417 " transform="matrix(0.015,0,0,0.015,0,0)"/>
<path style="fill:none;stroke-width:23;stroke-linecap:round;stroke-linejoin:round;stroke:rgb(0%,0%,0%);stroke-opacity:1;stroke-miterlimit:10;" d="M 19240.104167 42944.010417 L 20440.104167 42944.010417 " transform="matrix(0.015,0,0,0.015,0,0)"/>
<path style="fill:none;stroke-width:23;stroke-linecap:round;stroke-linejoin:round;stroke:rgb(0%,0%,0%);stroke-opacity:1;stroke-miterlimit:10;" d="M 20440.104167 40184.114583 L 19240.104167 40184.114583 " transform="matrix(0.015,0,0,0.015,0,0)"/>
<path style="fill:none;stroke-width:23;stroke-linecap:round;stroke-linejoin:round;stroke:rgb(0%,0%,0%);stroke-opacity:1;stroke-miterlimit:10;" d="M 25720.052083 39464.0625 L 25720.052083 38264.0625 " transform="matrix(0.015,0,0,0.015,0,0)"/>
<path style="fill:none;stroke-width:23;stroke-linecap:round;stroke-linejoin:round;stroke:rgb(0%,0%,0%);stroke-opacity:1;stroke-miterlimit:10;" d="M 28359.895833 39464.0625 L 27640.104167 40184.114583 " transform="matrix(0.015,0,0,0.015,0,0)"/>
<path style="fill:none;stroke-width:23;stroke-linecap:round;stroke-linejoin:round;stroke:rgb(0%,0%,0%);stroke-opacity:1;stroke-miterlimit:10;" d="M 28359.895833 38264.0625 L 28359.895833 39464.0625 " transform="matrix(0.015,0,0,0.015,0,0)"/>
<path style="fill:none;stroke-width:23;stroke-linecap:round;stroke-linejoin:round;stroke:rgb(0%,0%,0%);stroke-opacity:1;stroke-miterlimit:10;" d="M 27940.885417 38864.583333 C 27940.885417 39186.197917 27769.270833 39483.59375 27490.625 39644.270833 C 27212.239583 39805.208333 26868.75 39805.208333 26590.364583 39644.270833 C 26311.71875 39483.59375 26140.104167 39186.197917 26140.104167 38864.583333 C 26140.104167 38542.708333 26311.71875 38245.572917 26590.364583 38084.635417 C 26868.75 37923.697917 27212.239583 37923.697917 27490.625 38084.635417 C 27769.270833 38245.572917 27940.885417 38542.708333 27940.885417 38864.583333 Z M 27940.885417 38864.583333 " transform="matrix(0.015,0,0,0.015,0,0)"/>
<path style="fill:none;stroke-width:23;stroke-linecap:round;stroke-linejoin:round;stroke:rgb(0%,0%,0%);stroke-opacity:1;stroke-miterlimit:10;" d="M 28690.885417 38864.583333 C 28690.885417 39454.166667 28376.302083 39998.958333 27865.625 40293.75 C 27355.208333 40588.802083 26726.041667 40588.802083 26215.364583 40293.75 C 25704.6875 39998.958333 25390.104167 39454.166667 25390.104167 38864.583333 C 25390.104167 38274.739583 25704.6875 37729.947917 26215.364583 37435.15625 C 26726.041667 37140.364583 27355.208333 37140.364583 27865.625 37435.15625 C 28376.302083 37729.947917 28690.885417 38274.739583 28690.885417 38864.583333 Z M 28690.885417 38864.583333 " transform="matrix(0.015,0,0,0.015,0,0)"/>
<path style="fill:none;stroke-width:23;stroke-linecap:round;stroke-linejoin:round;stroke:rgb(0%,0%,0%);stroke-opacity:1;stroke-miterlimit:10;" d="M 25720.052083 32864.0625 L 26440.104167 32144.010417 " transform="matrix(0.015,0,0,0.015,0,0)"/>
<path style="fill:none;stroke-width:23;stroke-linecap:round;stroke-linejoin:round;stroke:rgb(0%,0%,0%);stroke-opacity:1;stroke-miterlimit:10;" d="M 25720.052083 34064.0625 L 25720.052083 32864.0625 " transform="matrix(0.015,0,0,0.015,0,0)"/>
<path style="fill:none;stroke-width:23;stroke-linecap:round;stroke-linejoin:round;stroke:rgb(0%,0%,0%);stroke-opacity:1;stroke-miterlimit:10;" d="M 26440.104167 32144.010417 L 27640.104167 32144.010417 " transform="matrix(0.015,0,0,0.015,0,0)"/>
<path style="fill:none;stroke-width:23;stroke-linecap:round;stroke-linejoin:round;stroke:rgb(0%,0%,0%);stroke-opacity:1;stroke-miterlimit:10;" d="M 27940.885417 33464.583333 C 27940.885417 33786.197917 27769.270833 34083.59375 27490.625 34244.270833 C 27212.239583 34405.208333 26868.75 34405.208333 26590.364583 34244.270833 C 26311.71875 34083.59375 26140.104167 33786.197917 26140.104167 33464.583333 C 26140.104167 33142.708333 26311.71875 32845.572917 26590.364583 32684.635417 C 26868.75 32523.697917 27212.239583 32523.697917 27490.625 32684.635417 C 27769.270833 32845.572917 27940.885417 33142.708333 27940.885417 33464.583333 Z M 27940.885417 33464.583333 " transform="matrix(0.015,0,0,0.015,0,0)"/>
<path style="fill:none;stroke-width:23;stroke-linecap:round;stroke-linejoin:round;stroke:rgb(0%,0%,0%);stroke-opacity:1;stroke-miterlimit:10;" d="M 27940.885417 33464.583333 C 27940.885417 33786.197917 27769.270833 34083.59375 27490.625 34244.270833 C 27212.239583 34405.208333 26868.75 34405.208333 26590.364583 34244.270833 C 26311.71875 34083.59375 26140.104167 33786.197917 26140.104167 33464.583333 C 26140.104167 33142.708333 26311.71875 32845.572917 26590.364583 32684.635417 C 26868.75 32523.697917 27212.239583 32523.697917 27490.625 32684.635417 C 27769.270833 32845.572917 27940.885417 33142.708333 27940.885417 33464.583333 Z M 27940.885417 33464.583333 " transform="matrix(0.015,0,0,0.015,0,0)"/>
<path style="fill:none;stroke-width:23;stroke-linecap:round;stroke-linejoin:round;stroke:rgb(0%,0%,0%);stroke-opacity:1;stroke-miterlimit:10;" d="M 18520.052083 39464.0625 L 18520.052083 38264.0625 " transform="matrix(0.015,0,0,0.015,0,0)"/>
<path style="fill:none;stroke-width:23;stroke-linecap:round;stroke-linejoin:round;stroke:rgb(0%,0%,0%);stroke-opacity:1;stroke-miterlimit:10;" d="M 19240.104167 40184.114583 L 18520.052083 39464.0625 " transform="matrix(0.015,0,0,0.015,0,0)"/>
<path style="fill:none;stroke-width:23;stroke-linecap:round;stroke-linejoin:round;stroke:rgb(0%,0%,0%);stroke-opacity:1;stroke-miterlimit:10;" d="M 21159.895833 39464.0625 L 20440.104167 40184.114583 " transform="matrix(0.015,0,0,0.015,0,0)"/>
<path style="fill:none;stroke-width:23;stroke-linecap:round;stroke-linejoin:round;stroke:rgb(0%,0%,0%);stroke-opacity:1;stroke-miterlimit:10;" d="M 21159.895833 38264.0625 L 21159.895833 39464.0625 " transform="matrix(0.015,0,0,0.015,0,0)"/>
<path style="fill:none;stroke-width:23;stroke-linecap:round;stroke-linejoin:round;stroke:rgb(0%,0%,0%);stroke-opacity:1;stroke-miterlimit:10;" d="M 21490.885417 38864.583333 C 21490.885417 39454.166667 21176.302083 39998.958333 20665.625 40293.75 C 20155.208333 40588.802083 19526.041667 40588.802083 19015.364583 40293.75 C 18504.6875 39998.958333 18190.104167 39454.166667 18190.104167 38864.583333 C 18190.104167 38274.739583 18504.6875 37729.947917 19015.364583 37435.15625 C 19526.041667 37140.364583 20155.208333 37140.364583 20665.625 37435.15625 C 21176.302083 37729.947917 21490.885417 38274.739583 21490.885417 38864.583333 Z M 21490.885417 38864.583333 " transform="matrix(0.015,0,0,0.015,0,0)"/>
<path style="fill:none;stroke-width:23;stroke-linecap:round;stroke-linejoin:round;stroke:rgb(0%,0%,0%);stroke-opacity:1;stroke-miterlimit:10;" d="M 20740.885417 38864.583333 C 20740.885417 39186.197917 20569.270833 39483.59375 20290.625 39644.270833 C 20012.239583 39805.208333 19668.75 39805.208333 19390.364583 39644.270833 C 19111.71875 39483.59375 18940.104167 39186.197917 18940.104167 38864.583333 C 18940.104167 38542.708333 19111.71875 38245.572917 19390.364583 38084.635417 C 19668.75 37923.697917 20012.239583 37923.697917 20290.625 38084.635417 C 20569.270833 38245.572917 20740.885417 38542.708333 20740.885417 38864.583333 Z M 20740.885417 38864.583333 " transform="matrix(0.015,0,0,0.015,0,0)"/>
<path style="fill:none;stroke-width:23;stroke-linecap:round;stroke-linejoin:round;stroke:rgb(0%,0%,0%);stroke-opacity:1;stroke-miterlimit:10;" d="M 27640.104167 34784.114583 L 26440.104167 34784.114583 " transform="matrix(0.015,0,0,0.015,0,0)"/>
<path style="fill:none;stroke-width:23;stroke-linecap:round;stroke-linejoin:round;stroke:rgb(0%,0%,0%);stroke-opacity:1;stroke-miterlimit:10;" d="M 25720.052083 38264.0625 L 26440.104167 37544.010417 " transform="matrix(0.015,0,0,0.015,0,0)"/>
<path style="fill:none;stroke-width:23;stroke-linecap:round;stroke-linejoin:round;stroke:rgb(0%,0%,0%);stroke-opacity:1;stroke-miterlimit:10;" d="M 27640.104167 37544.010417 L 28359.895833 38264.0625 " transform="matrix(0.015,0,0,0.015,0,0)"/>
<path style="fill:none;stroke-width:23;stroke-linecap:round;stroke-linejoin:round;stroke:rgb(0%,0%,0%);stroke-opacity:1;stroke-miterlimit:10;" d="M 26440.104167 37544.010417 L 27640.104167 37544.010417 " transform="matrix(0.015,0,0,0.015,0,0)"/>
<path style="fill:none;stroke-width:23;stroke-linecap:round;stroke-linejoin:round;stroke:rgb(0%,0%,0%);stroke-opacity:1;stroke-miterlimit:10;" d="M 18520.052083 38264.0625 L 19240.104167 37544.010417 " transform="matrix(0.015,0,0,0.015,0,0)"/>
<path style="fill:none;stroke-width:23;stroke-linecap:round;stroke-linejoin:round;stroke:rgb(0%,0%,0%);stroke-opacity:1;stroke-miterlimit:10;" d="M 20440.104167 37544.010417 L 21159.895833 38264.0625 " transform="matrix(0.015,0,0,0.015,0,0)"/>
<path style="fill:none;stroke-width:23;stroke-linecap:round;stroke-linejoin:round;stroke:rgb(0%,0%,0%);stroke-opacity:1;stroke-miterlimit:10;" d="M 19240.104167 37544.010417 L 20440.104167 37544.010417 " transform="matrix(0.015,0,0,0.015,0,0)"/>
<path style="fill:none;stroke-width:23;stroke-linecap:round;stroke-linejoin:round;stroke:rgb(0%,0%,0%);stroke-opacity:1;stroke-miterlimit:10;" d="M 20740.885417 33464.583333 C 20740.885417 33786.197917 20569.270833 34083.59375 20290.625 34244.270833 C 20012.239583 34405.208333 19668.75 34405.208333 19390.364583 34244.270833 C 19111.71875 34083.59375 18940.104167 33786.197917 18940.104167 33464.583333 C 18940.104167 33142.708333 19111.71875 32845.572917 19390.364583 32684.635417 C 19668.75 32523.697917 20012.239583 32523.697917 20290.625 32684.635417 C 20569.270833 32845.572917 20740.885417 33142.708333 20740.885417 33464.583333 Z M 20740.885417 33464.583333 " transform="matrix(0.015,0,0,0.015,0,0)"/>
<path style="fill:none;stroke-width:23;stroke-linecap:round;stroke-linejoin:round;stroke:rgb(0%,0%,0%);stroke-opacity:1;stroke-miterlimit:10;" d="M 26440.104167 34784.114583 L 25720.052083 34064.0625 " transform="matrix(0.015,0,0,0.015,0,0)"/>
<path style="fill:none;stroke-width:23;stroke-linecap:round;stroke-linejoin:round;stroke:rgb(0%,0%,0%);stroke-opacity:1;stroke-miterlimit:10;" d="M 27640.104167 32144.010417 L 28359.895833 32864.0625 " transform="matrix(0.015,0,0,0.015,0,0)"/>
<path style="fill:none;stroke-width:23;stroke-linecap:round;stroke-linejoin:round;stroke:rgb(0%,0%,0%);stroke-opacity:1;stroke-miterlimit:10;" d="M 28359.895833 32864.0625 L 28359.895833 34064.0625 " transform="matrix(0.015,0,0,0.015,0,0)"/>
<path style="fill:none;stroke-width:23;stroke-linecap:round;stroke-linejoin:round;stroke:rgb(0%,0%,0%);stroke-opacity:1;stroke-miterlimit:10;" d="M 28359.895833 34064.0625 L 27640.104167 34784.114583 " transform="matrix(0.015,0,0,0.015,0,0)"/>
</g>
</svg>
