<?xml version="1.0" encoding="UTF-8"?>
<svg xmlns="http://www.w3.org/2000/svg" xmlns:xlink="http://www.w3.org/1999/xlink" width="595.275591pt" height="841.889764pt" viewBox="0 0 595.275591 841.889764" version="1.2">
<g id="surface10984">
<rect x="0" y="0" width="595.275591" height="841.889764" style="fill:rgb(100%,100%,100%);fill-opacity:1;stroke:none;"/>
<path style="fill:none;stroke-width:9;stroke-linecap:round;stroke-linejoin:round;stroke:rgb(0%,0%,0%);stroke-opacity:1;stroke-miterlimit:10;" d="M 29440.885417 47864.583333 C 29440.885417 48079.166667 29326.5625 48277.34375 29140.625 48384.635417 C 28954.947917 48491.927083 28726.041667 48491.927083 28540.364583 48384.635417 C 28354.427083 48277.34375 28240.104167 48079.166667 28240.104167 47864.583333 C 28240.104167 47650 28354.427083 47451.822917 28540.364583 47344.53125 C 28726.041667 47237.239583 28954.947917 47237.239583 29140.625 47344.53125 C 29326.5625 47451.822917 29440.885417 47650 29440.885417 47864.583333 Z M 29440.885417 47864.583333 " transform="matrix(0.015,0,0,0.015,0,0)"/>
<path style="fill:none;stroke-width:9;stroke-linecap:round;stroke-linejoin:round;stroke:rgb(0%,0%,0%);stroke-opacity:1;stroke-miterlimit:10;" d="M 11440.885417 8264.583333 C 11440.885417 8479.166667 11326.5625 8677.34375 11140.625 8784.635417 C 10954.947917 8891.927083 10726.041667 8891.927083 10540.364583 8784.635417 C 10354.427083 8677.34375 10240.104167 8479.166667 10240.104167 8264.583333 C 10240.104167 8050 10354.427083 7851.822917 10540.364583 7744.53125 C 10726.041667 7637.239583 10954.947917 7637.239583 11140.625 7744.53125 C 11326.5625 7851.822917 11440.885417 8050 11440.885417 8264.583333 Z M 11440.885417 8264.583333 " transform="matrix(0.015,0,0,0.015,0,0)"/>
<path style="fill:none;stroke-width:9;stroke-linecap:round;stroke-linejoin:round;stroke:rgb(0%,0%,0%);stroke-opacity:1;stroke-miterlimit:10;" d="M 30040.104167 7064.0625 L 30040.104167 49064.0625 " transform="matrix(0.015,0,0,0.015,0,0)"/>
<path style="fill:none;stroke-width:9;stroke-linecap:round;stroke-linejoin:round;stroke:rgb(0%,0%,0%);stroke-opacity:1;stroke-miterlimit:10;" d="M 9640.104167 49064.0625 L 30040.104167 49064.0625 " transform="matrix(0.015,0,0,0.015,0,0)"/>
<path style="fill:none;stroke-width:9;stroke-linecap:round;stroke-linejoin:round;stroke:rgb(0%,0%,0%);stroke-opacity:1;stroke-miterlimit:10;" d="M 9640.104167 7064.0625 L 9640.104167 49064.0625 " transform="matrix(0.015,0,0,0.015,0,0)"/>
<path style="fill:none;stroke-width:9;stroke-linecap:round;stroke-linejoin:round;stroke:rgb(0%,0%,0%);stroke-opacity:1;stroke-miterlimit:10;" d="M 9640.104167 7064.0625 L 30040.104167 7064.0625 " transform="matrix(0.015,0,0,0.015,0,0)"/>
<path style="fill:none;stroke-width:76;stroke-linecap:round;stroke-linejoin:round;stroke:rgb(0%,0%,0%);stroke-opacity:1;stroke-miterlimit:10;" d="M 17626.041667 42085.9375 L 17373.958333 41726.041667 " transform="matrix(0.015,0,0,0.015,0,0)"/>
<path style="fill:none;stroke-width:76;stroke-linecap:round;stroke-linejoin:round;stroke:rgb(0%,0%,0%);stroke-opacity:1;stroke-miterlimit:10;" d="M 17194.010417 42085.9375 L 17194.010417 41329.947917 L 17482.03125 41329.947917 L 17553.90625 41365.885417 L 17590.104167 41402.083333 L 17626.041667 41473.958333 L 17626.041667 41582.03125 L 17590.104167 41653.90625 L 17553.90625 41690.104167 L 17482.03125 41726.041667 L 17194.010417 41726.041667 " transform="matrix(0.015,0,0,0.015,0,0)"/>
<path style="fill:none;stroke-width:76;stroke-linecap:round;stroke-linejoin:round;stroke:rgb(0%,0%,0%);stroke-opacity:1;stroke-miterlimit:10;" d="M 17950 42085.9375 L 17950 41329.947917 " transform="matrix(0.015,0,0,0.015,0,0)"/>
<path style="fill:none;stroke-width:76;stroke-linecap:round;stroke-linejoin:round;stroke:rgb(0%,0%,0%);stroke-opacity:1;stroke-miterlimit:10;" d="M 18309.895833 42085.9375 L 18309.895833 41329.947917 L 18741.927083 42085.9375 L 18741.927083 41329.947917 " transform="matrix(0.015,0,0,0.015,0,0)"/>
<path style="fill:none;stroke-width:76;stroke-linecap:round;stroke-linejoin:round;stroke:rgb(0%,0%,0%);stroke-opacity:1;stroke-miterlimit:10;" d="M 19497.916667 41365.885417 L 19426.041667 41329.947917 L 19317.96875 41329.947917 L 19209.895833 41365.885417 L 19138.020833 41438.020833 L 19102.083333 41509.895833 L 19065.885417 41653.90625 L 19065.885417 41761.979167 L 19102.083333 41905.989583 L 19138.020833 41978.125 L 19209.895833 42050 L 19317.96875 42085.9375 L 19390.104167 42085.9375 L 19497.916667 42050 L 19534.114583 42014.0625 L 19534.114583 41761.979167 L 19390.104167 41761.979167 " transform="matrix(0.015,0,0,0.015,0,0)"/>
<path style="fill:none;stroke-width:76;stroke-linecap:round;stroke-linejoin:round;stroke:rgb(0%,0%,0%);stroke-opacity:1;stroke-miterlimit:10;" d="M 20434.114583 42085.9375 L 20434.114583 41329.947917 L 20685.9375 41870.052083 L 20938.020833 41329.947917 L 20938.020833 42085.9375 " transform="matrix(0.015,0,0,0.015,0,0)"/>
<path style="fill:none;stroke-width:76;stroke-linecap:round;stroke-linejoin:round;stroke:rgb(0%,0%,0%);stroke-opacity:1;stroke-miterlimit:10;" d="M 21441.927083 41329.947917 L 21585.9375 41329.947917 L 21658.072917 41365.885417 L 21729.947917 41438.020833 L 21765.885417 41582.03125 L 21765.885417 41834.114583 L 21729.947917 41978.125 L 21658.072917 42050 L 21585.9375 42085.9375 L 21441.927083 42085.9375 L 21370.052083 42050 L 21297.916667 41978.125 L 21261.979167 41834.114583 L 21261.979167 41582.03125 L 21297.916667 41438.020833 L 21370.052083 41365.885417 L 21441.927083 41329.947917 " transform="matrix(0.015,0,0,0.015,0,0)"/>
<path style="fill:none;stroke-width:76;stroke-linecap:round;stroke-linejoin:round;stroke:rgb(0%,0%,0%);stroke-opacity:1;stroke-miterlimit:10;" d="M 22090.104167 42085.9375 L 22090.104167 41329.947917 L 22270.052083 41329.947917 L 22378.125 41365.885417 L 22450 41438.020833 L 22485.9375 41509.895833 L 22521.875 41653.90625 L 22521.875 41761.979167 L 22485.9375 41905.989583 L 22450 41978.125 L 22378.125 42050 L 22270.052083 42085.9375 L 22090.104167 42085.9375 " transform="matrix(0.015,0,0,0.015,0,0)"/>
<path style="fill:none;stroke-width:23;stroke-linecap:round;stroke-linejoin:round;stroke:rgb(0%,0%,0%);stroke-opacity:1;stroke-miterlimit:10;" d="M 20440.104167 42944.010417 L 21159.895833 43664.0625 " transform="matrix(0.015,0,0,0.015,0,0)"/>
<path style="fill:none;stroke-width:23;stroke-linecap:round;stroke-linejoin:round;stroke:rgb(0%,0%,0%);stroke-opacity:1;stroke-miterlimit:10;" d="M 18520.052083 44864.0625 L 18520.052083 43664.0625 " transform="matrix(0.015,0,0,0.015,0,0)"/>
<path style="fill:none;stroke-width:23;stroke-linecap:round;stroke-linejoin:round;stroke:rgb(0%,0%,0%);stroke-opacity:1;stroke-miterlimit:10;" d="M 19240.104167 42944.010417 L 20440.104167 42944.010417 " transform="matrix(0.015,0,0,0.015,0,0)"/>
<path style="fill:none;stroke-width:76;stroke-linecap:round;stroke-linejoin:round;stroke:rgb(0%,0%,0%);stroke-opacity:1;stroke-miterlimit:10;" d="M 25594.010417 46885.9375 L 25341.927083 46526.041667 " transform="matrix(0.015,0,0,0.015,0,0)"/>
<path style="fill:none;stroke-width:76;stroke-linecap:round;stroke-linejoin:round;stroke:rgb(0%,0%,0%);stroke-opacity:1;stroke-miterlimit:10;" d="M 25161.979167 46885.9375 L 25161.979167 46129.947917 L 25450 46129.947917 L 25521.875 46165.885417 L 25558.072917 46202.083333 L 25594.010417 46273.958333 L 25594.010417 46382.03125 L 25558.072917 46453.90625 L 25521.875 46490.104167 L 25450 46526.041667 L 25161.979167 46526.041667 " transform="matrix(0.015,0,0,0.015,0,0)"/>
<path style="fill:none;stroke-width:76;stroke-linecap:round;stroke-linejoin:round;stroke:rgb(0%,0%,0%);stroke-opacity:1;stroke-miterlimit:10;" d="M 25917.96875 46885.9375 L 25917.96875 46129.947917 L 26170.052083 46670.052083 L 26421.875 46129.947917 L 26421.875 46885.9375 " transform="matrix(0.015,0,0,0.015,0,0)"/>
<path style="fill:none;stroke-width:76;stroke-linecap:round;stroke-linejoin:round;stroke:rgb(0%,0%,0%);stroke-opacity:1;stroke-miterlimit:10;" d="M 27502.083333 46129.947917 L 27646.09375 46129.947917 L 27717.96875 46165.885417 L 27790.104167 46238.020833 L 27826.041667 46382.03125 L 27826.041667 46634.114583 L 27790.104167 46778.125 L 27717.96875 46850 L 27646.09375 46885.9375 L 27502.083333 46885.9375 L 27429.947917 46850 L 27358.072917 46778.125 L 27321.875 46634.114583 L 27321.875 46382.03125 L 27358.072917 46238.020833 L 27429.947917 46165.885417 L 27502.083333 46129.947917 " transform="matrix(0.015,0,0,0.015,0,0)"/>
<path style="fill:none;stroke-width:76;stroke-linecap:round;stroke-linejoin:round;stroke:rgb(0%,0%,0%);stroke-opacity:1;stroke-miterlimit:10;" d="M 28150 46129.947917 L 28150 46741.927083 L 28185.9375 46814.0625 L 28221.875 46850 L 28294.010417 46885.9375 L 28438.020833 46885.9375 L 28509.895833 46850 L 28546.09375 46814.0625 L 28582.03125 46741.927083 L 28582.03125 46129.947917 " transform="matrix(0.015,0,0,0.015,0,0)"/>
<path style="fill:none;stroke-width:76;stroke-linecap:round;stroke-linejoin:round;stroke:rgb(0%,0%,0%);stroke-opacity:1;stroke-miterlimit:10;" d="M 28834.114583 46129.947917 L 29265.885417 46129.947917 " transform="matrix(0.015,0,0,0.015,0,0)"/>
<path style="fill:none;stroke-width:76;stroke-linecap:round;stroke-linejoin:round;stroke:rgb(0%,0%,0%);stroke-opacity:1;stroke-miterlimit:10;" d="M 29050 46885.9375 L 29050 46129.947917 " transform="matrix(0.015,0,0,0.015,0,0)"/>
<path style="fill:none;stroke-width:23;stroke-linecap:round;stroke-linejoin:round;stroke:rgb(0%,0%,0%);stroke-opacity:1;stroke-miterlimit:10;" d="M 26440.104167 45584.114583 L 25720.052083 44864.0625 " transform="matrix(0.015,0,0,0.015,0,0)"/>
<path style="fill:none;stroke-width:23;stroke-linecap:round;stroke-linejoin:round;stroke:rgb(0%,0%,0%);stroke-opacity:1;stroke-miterlimit:10;" d="M 27640.104167 45584.114583 L 26440.104167 45584.114583 " transform="matrix(0.015,0,0,0.015,0,0)"/>
<path style="fill:none;stroke-width:23;stroke-linecap:round;stroke-linejoin:round;stroke:rgb(0%,0%,0%);stroke-opacity:1;stroke-miterlimit:10;" d="M 28359.895833 43664.0625 L 28359.895833 44864.0625 " transform="matrix(0.015,0,0,0.015,0,0)"/>
<path style="fill:none;stroke-width:23;stroke-linecap:round;stroke-linejoin:round;stroke:rgb(0%,0%,0%);stroke-opacity:1;stroke-miterlimit:10;" d="M 28359.895833 44864.0625 L 27640.104167 45584.114583 " transform="matrix(0.015,0,0,0.015,0,0)"/>
<path style="fill:none;stroke-width:23;stroke-linecap:round;stroke-linejoin:round;stroke:rgb(0%,0%,0%);stroke-opacity:1;stroke-miterlimit:10;" d="M 28690.885417 44264.583333 C 28690.885417 44854.166667 28376.302083 45398.958333 27865.625 45693.75 C 27355.208333 45988.802083 26726.041667 45988.802083 26215.364583 45693.75 C 25704.6875 45398.958333 25390.104167 44854.166667 25390.104167 44264.583333 C 25390.104167 43674.739583 25704.6875 43129.947917 26215.364583 42835.15625 C 26726.041667 42540.364583 27355.208333 42540.364583 27865.625 42835.15625 C 28376.302083 43129.947917 28690.885417 43674.739583 28690.885417 44264.583333 Z M 28690.885417 44264.583333 " transform="matrix(0.015,0,0,0.015,0,0)"/>
<path style="fill:none;stroke-width:23;stroke-linecap:round;stroke-linejoin:round;stroke:rgb(0%,0%,0%);stroke-opacity:1;stroke-miterlimit:10;" d="M 27940.885417 44264.583333 C 27940.885417 44586.197917 27769.270833 44883.59375 27490.625 45044.270833 C 27212.239583 45205.208333 26868.75 45205.208333 26590.364583 45044.270833 C 26311.71875 44883.59375 26140.104167 44586.197917 26140.104167 44264.583333 C 26140.104167 43942.708333 26311.71875 43645.572917 26590.364583 43484.635417 C 26868.75 43323.697917 27212.239583 43323.697917 27490.625 43484.635417 C 27769.270833 43645.572917 27940.885417 43942.708333 27940.885417 44264.583333 Z M 27940.885417 44264.583333 " transform="matrix(0.015,0,0,0.015,0,0)"/>
<path style="fill:none;stroke-width:76;stroke-linecap:round;stroke-linejoin:round;stroke:rgb(0%,0%,0%);stroke-opacity:1;stroke-miterlimit:10;" d="M 25023.958333 40729.947917 L 25203.90625 41485.9375 L 25347.916667 40946.09375 L 25491.927083 41485.9375 L 25671.875 40729.947917 " transform="matrix(0.015,0,0,0.015,0,0)"/>
<path style="fill:none;stroke-width:76;stroke-linecap:round;stroke-linejoin:round;stroke:rgb(0%,0%,0%);stroke-opacity:1;stroke-miterlimit:10;" d="M 26211.979167 41090.104167 L 25959.895833 41090.104167 " transform="matrix(0.015,0,0,0.015,0,0)"/>
<path style="fill:none;stroke-width:76;stroke-linecap:round;stroke-linejoin:round;stroke:rgb(0%,0%,0%);stroke-opacity:1;stroke-miterlimit:10;" d="M 25959.895833 41485.9375 L 25959.895833 40729.947917 L 26320.052083 40729.947917 " transform="matrix(0.015,0,0,0.015,0,0)"/>
<path style="fill:none;stroke-width:76;stroke-linecap:round;stroke-linejoin:round;stroke:rgb(0%,0%,0%);stroke-opacity:1;stroke-miterlimit:10;" d="M 27328.125 40729.947917 L 27471.875 40729.947917 L 27544.010417 40765.885417 L 27615.885417 40838.020833 L 27652.083333 40982.03125 L 27652.083333 41234.114583 L 27615.885417 41378.125 L 27544.010417 41450 L 27471.875 41485.9375 L 27328.125 41485.9375 L 27255.989583 41450 L 27184.114583 41378.125 L 27147.916667 41234.114583 L 27147.916667 40982.03125 L 27184.114583 40838.020833 L 27255.989583 40765.885417 L 27328.125 40729.947917 " transform="matrix(0.015,0,0,0.015,0,0)"/>
<path style="fill:none;stroke-width:76;stroke-linecap:round;stroke-linejoin:round;stroke:rgb(0%,0%,0%);stroke-opacity:1;stroke-miterlimit:10;" d="M 27976.041667 40729.947917 L 27976.041667 41341.927083 L 28011.979167 41414.0625 L 28047.916667 41450 L 28120.052083 41485.9375 L 28264.0625 41485.9375 L 28335.9375 41450 L 28371.875 41414.0625 L 28408.072917 41341.927083 L 28408.072917 40729.947917 " transform="matrix(0.015,0,0,0.015,0,0)"/>
<path style="fill:none;stroke-width:76;stroke-linecap:round;stroke-linejoin:round;stroke:rgb(0%,0%,0%);stroke-opacity:1;stroke-miterlimit:10;" d="M 28659.895833 40729.947917 L 29091.927083 40729.947917 " transform="matrix(0.015,0,0,0.015,0,0)"/>
<path style="fill:none;stroke-width:76;stroke-linecap:round;stroke-linejoin:round;stroke:rgb(0%,0%,0%);stroke-opacity:1;stroke-miterlimit:10;" d="M 28876.041667 41485.9375 L 28876.041667 40729.947917 " transform="matrix(0.015,0,0,0.015,0,0)"/>
<path style="fill:none;stroke-width:23;stroke-linecap:round;stroke-linejoin:round;stroke:rgb(0%,0%,0%);stroke-opacity:1;stroke-miterlimit:10;" d="M 27640.104167 42944.010417 L 28359.895833 43664.0625 " transform="matrix(0.015,0,0,0.015,0,0)"/>
<path style="fill:none;stroke-width:23;stroke-linecap:round;stroke-linejoin:round;stroke:rgb(0%,0%,0%);stroke-opacity:1;stroke-miterlimit:10;" d="M 25720.052083 44864.0625 L 25720.052083 43664.0625 " transform="matrix(0.015,0,0,0.015,0,0)"/>
<path style="fill:none;stroke-width:23;stroke-linecap:round;stroke-linejoin:round;stroke:rgb(0%,0%,0%);stroke-opacity:1;stroke-miterlimit:10;" d="M 26440.104167 42944.010417 L 27640.104167 42944.010417 " transform="matrix(0.015,0,0,0.015,0,0)"/>
<path style="fill:none;stroke-width:76;stroke-linecap:round;stroke-linejoin:round;stroke:rgb(0%,0%,0%);stroke-opacity:1;stroke-miterlimit:10;" d="M 11217.96875 46885.9375 L 10965.885417 46526.041667 " transform="matrix(0.015,0,0,0.015,0,0)"/>
<path style="fill:none;stroke-width:76;stroke-linecap:round;stroke-linejoin:round;stroke:rgb(0%,0%,0%);stroke-opacity:1;stroke-miterlimit:10;" d="M 10785.9375 46885.9375 L 10785.9375 46129.947917 L 11073.958333 46129.947917 L 11146.09375 46165.885417 L 11182.03125 46202.083333 L 11217.96875 46273.958333 L 11217.96875 46382.03125 L 11182.03125 46453.90625 L 11146.09375 46490.104167 L 11073.958333 46526.041667 L 10785.9375 46526.041667 " transform="matrix(0.015,0,0,0.015,0,0)"/>
<path style="fill:none;stroke-width:76;stroke-linecap:round;stroke-linejoin:round;stroke:rgb(0%,0%,0%);stroke-opacity:1;stroke-miterlimit:10;" d="M 11541.927083 46885.9375 L 11541.927083 46129.947917 L 11794.010417 46670.052083 L 12046.09375 46129.947917 L 12046.09375 46885.9375 " transform="matrix(0.015,0,0,0.015,0,0)"/>
<path style="fill:none;stroke-width:76;stroke-linecap:round;stroke-linejoin:round;stroke:rgb(0%,0%,0%);stroke-opacity:1;stroke-miterlimit:10;" d="M 12334.114583 46129.947917 L 12838.020833 46885.9375 " transform="matrix(0.015,0,0,0.015,0,0)"/>
<path style="fill:none;stroke-width:76;stroke-linecap:round;stroke-linejoin:round;stroke:rgb(0%,0%,0%);stroke-opacity:1;stroke-miterlimit:10;" d="M 12838.020833 46129.947917 L 12334.114583 46885.9375 " transform="matrix(0.015,0,0,0.015,0,0)"/>
<path style="fill:none;stroke-width:76;stroke-linecap:round;stroke-linejoin:round;stroke:rgb(0%,0%,0%);stroke-opacity:1;stroke-miterlimit:10;" d="M 13702.083333 46885.9375 L 13702.083333 46129.947917 " transform="matrix(0.015,0,0,0.015,0,0)"/>
<path style="fill:none;stroke-width:76;stroke-linecap:round;stroke-linejoin:round;stroke:rgb(0%,0%,0%);stroke-opacity:1;stroke-miterlimit:10;" d="M 14061.979167 46885.9375 L 14061.979167 46129.947917 L 14494.010417 46885.9375 L 14494.010417 46129.947917 " transform="matrix(0.015,0,0,0.015,0,0)"/>
<path style="fill:none;stroke-width:23;stroke-linecap:round;stroke-linejoin:round;stroke:rgb(0%,0%,0%);stroke-opacity:1;stroke-miterlimit:10;" d="M 12040.104167 45584.114583 L 11320.052083 44864.0625 " transform="matrix(0.015,0,0,0.015,0,0)"/>
<path style="fill:none;stroke-width:23;stroke-linecap:round;stroke-linejoin:round;stroke:rgb(0%,0%,0%);stroke-opacity:1;stroke-miterlimit:10;" d="M 13240.104167 45584.114583 L 12040.104167 45584.114583 " transform="matrix(0.015,0,0,0.015,0,0)"/>
<path style="fill:none;stroke-width:23;stroke-linecap:round;stroke-linejoin:round;stroke:rgb(0%,0%,0%);stroke-opacity:1;stroke-miterlimit:10;" d="M 14290.885417 44264.583333 C 14290.885417 44854.166667 13976.302083 45398.958333 13465.625 45693.75 C 12955.208333 45988.802083 12326.041667 45988.802083 11815.364583 45693.75 C 11304.6875 45398.958333 10990.104167 44854.166667 10990.104167 44264.583333 C 10990.104167 43674.739583 11304.6875 43129.947917 11815.364583 42835.15625 C 12326.041667 42540.364583 12955.208333 42540.364583 13465.625 42835.15625 C 13976.302083 43129.947917 14290.885417 43674.739583 14290.885417 44264.583333 Z M 14290.885417 44264.583333 " transform="matrix(0.015,0,0,0.015,0,0)"/>
<path style="fill:none;stroke-width:23;stroke-linecap:round;stroke-linejoin:round;stroke:rgb(0%,0%,0%);stroke-opacity:1;stroke-miterlimit:10;" d="M 13540.885417 44264.583333 C 13540.885417 44586.197917 13369.270833 44883.59375 13090.625 45044.270833 C 12812.239583 45205.208333 12468.75 45205.208333 12190.364583 45044.270833 C 11911.71875 44883.59375 11740.104167 44586.197917 11740.104167 44264.583333 C 11740.104167 43942.708333 11911.71875 43645.572917 12190.364583 43484.635417 C 12468.75 43323.697917 12812.239583 43323.697917 13090.625 43484.635417 C 13369.270833 43645.572917 13540.885417 43942.708333 13540.885417 44264.583333 Z M 13540.885417 44264.583333 " transform="matrix(0.015,0,0,0.015,0,0)"/>
<path style="fill:none;stroke-width:23;stroke-linecap:round;stroke-linejoin:round;stroke:rgb(0%,0%,0%);stroke-opacity:1;stroke-miterlimit:10;" d="M 19240.104167 45584.114583 L 18520.052083 44864.0625 " transform="matrix(0.015,0,0,0.015,0,0)"/>
<path style="fill:none;stroke-width:23;stroke-linecap:round;stroke-linejoin:round;stroke:rgb(0%,0%,0%);stroke-opacity:1;stroke-miterlimit:10;" d="M 18520.052083 43664.0625 L 19240.104167 42944.010417 " transform="matrix(0.015,0,0,0.015,0,0)"/>
<path style="fill:none;stroke-width:23;stroke-linecap:round;stroke-linejoin:round;stroke:rgb(0%,0%,0%);stroke-opacity:1;stroke-miterlimit:10;" d="M 13240.104167 42944.010417 L 13959.895833 43664.0625 " transform="matrix(0.015,0,0,0.015,0,0)"/>
<path style="fill:none;stroke-width:23;stroke-linecap:round;stroke-linejoin:round;stroke:rgb(0%,0%,0%);stroke-opacity:1;stroke-miterlimit:10;" d="M 13959.895833 43664.0625 L 13959.895833 44864.0625 " transform="matrix(0.015,0,0,0.015,0,0)"/>
<path style="fill:none;stroke-width:23;stroke-linecap:round;stroke-linejoin:round;stroke:rgb(0%,0%,0%);stroke-opacity:1;stroke-miterlimit:10;" d="M 13959.895833 44864.0625 L 13240.104167 45584.114583 " transform="matrix(0.015,0,0,0.015,0,0)"/>
<path style="fill:none;stroke-width:76;stroke-linecap:round;stroke-linejoin:round;stroke:rgb(0%,0%,0%);stroke-opacity:1;stroke-miterlimit:10;" d="M 18453.90625 46885.9375 L 18202.083333 46526.041667 " transform="matrix(0.015,0,0,0.015,0,0)"/>
<path style="fill:none;stroke-width:76;stroke-linecap:round;stroke-linejoin:round;stroke:rgb(0%,0%,0%);stroke-opacity:1;stroke-miterlimit:10;" d="M 18021.875 46885.9375 L 18021.875 46129.947917 L 18309.895833 46129.947917 L 18382.03125 46165.885417 L 18417.96875 46202.083333 L 18453.90625 46273.958333 L 18453.90625 46382.03125 L 18417.96875 46453.90625 L 18382.03125 46490.104167 L 18309.895833 46526.041667 L 18021.875 46526.041667 " transform="matrix(0.015,0,0,0.015,0,0)"/>
<path style="fill:none;stroke-width:76;stroke-linecap:round;stroke-linejoin:round;stroke:rgb(0%,0%,0%);stroke-opacity:1;stroke-miterlimit:10;" d="M 18778.125 46885.9375 L 18778.125 46129.947917 L 19029.947917 46670.052083 L 19282.03125 46129.947917 L 19282.03125 46885.9375 " transform="matrix(0.015,0,0,0.015,0,0)"/>
<path style="fill:none;stroke-width:76;stroke-linecap:round;stroke-linejoin:round;stroke:rgb(0%,0%,0%);stroke-opacity:1;stroke-miterlimit:10;" d="M 19785.9375 46526.041667 L 19785.9375 46885.9375 " transform="matrix(0.015,0,0,0.015,0,0)"/>
<path style="fill:none;stroke-width:76;stroke-linecap:round;stroke-linejoin:round;stroke:rgb(0%,0%,0%);stroke-opacity:1;stroke-miterlimit:10;" d="M 19534.114583 46129.947917 L 19785.9375 46526.041667 L 20038.020833 46129.947917 " transform="matrix(0.015,0,0,0.015,0,0)"/>
<path style="fill:none;stroke-width:76;stroke-linecap:round;stroke-linejoin:round;stroke:rgb(0%,0%,0%);stroke-opacity:1;stroke-miterlimit:10;" d="M 20865.885417 46885.9375 L 20865.885417 46129.947917 " transform="matrix(0.015,0,0,0.015,0,0)"/>
<path style="fill:none;stroke-width:76;stroke-linecap:round;stroke-linejoin:round;stroke:rgb(0%,0%,0%);stroke-opacity:1;stroke-miterlimit:10;" d="M 21226.041667 46885.9375 L 21226.041667 46129.947917 L 21658.072917 46885.9375 L 21658.072917 46129.947917 " transform="matrix(0.015,0,0,0.015,0,0)"/>
<path style="fill:none;stroke-width:23;stroke-linecap:round;stroke-linejoin:round;stroke:rgb(0%,0%,0%);stroke-opacity:1;stroke-miterlimit:10;" d="M 20440.104167 45584.114583 L 19240.104167 45584.114583 " transform="matrix(0.015,0,0,0.015,0,0)"/>
<path style="fill:none;stroke-width:23;stroke-linecap:round;stroke-linejoin:round;stroke:rgb(0%,0%,0%);stroke-opacity:1;stroke-miterlimit:10;" d="M 21159.895833 43664.0625 L 21159.895833 44864.0625 " transform="matrix(0.015,0,0,0.015,0,0)"/>
<path style="fill:none;stroke-width:23;stroke-linecap:round;stroke-linejoin:round;stroke:rgb(0%,0%,0%);stroke-opacity:1;stroke-miterlimit:10;" d="M 21159.895833 44864.0625 L 20440.104167 45584.114583 " transform="matrix(0.015,0,0,0.015,0,0)"/>
<path style="fill:none;stroke-width:23;stroke-linecap:round;stroke-linejoin:round;stroke:rgb(0%,0%,0%);stroke-opacity:1;stroke-miterlimit:10;" d="M 21490.885417 44264.583333 C 21490.885417 44854.166667 21176.302083 45398.958333 20665.625 45693.75 C 20155.208333 45988.802083 19526.041667 45988.802083 19015.364583 45693.75 C 18504.6875 45398.958333 18190.104167 44854.166667 18190.104167 44264.583333 C 18190.104167 43674.739583 18504.6875 43129.947917 19015.364583 42835.15625 C 19526.041667 42540.364583 20155.208333 42540.364583 20665.625 42835.15625 C 21176.302083 43129.947917 21490.885417 43674.739583 21490.885417 44264.583333 Z M 21490.885417 44264.583333 " transform="matrix(0.015,0,0,0.015,0,0)"/>
<path style="fill:none;stroke-width:23;stroke-linecap:round;stroke-linejoin:round;stroke:rgb(0%,0%,0%);stroke-opacity:1;stroke-miterlimit:10;" d="M 20740.885417 44264.583333 C 20740.885417 44586.197917 20569.270833 44883.59375 20290.625 45044.270833 C 20012.239583 45205.208333 19668.75 45205.208333 19390.364583 45044.270833 C 19111.71875 44883.59375 18940.104167 44586.197917 18940.104167 44264.583333 C 18940.104167 43942.708333 19111.71875 43645.572917 19390.364583 43484.635417 C 19668.75 43323.697917 20012.239583 43323.697917 20290.625 43484.635417 C 20569.270833 43645.572917 20740.885417 43942.708333 20740.885417 44264.583333 Z M 20740.885417 44264.583333 " transform="matrix(0.015,0,0,0.015,0,0)"/>
<path style="fill:none;stroke-width:76;stroke-linecap:round;stroke-linejoin:round;stroke:rgb(0%,0%,0%);stroke-opacity:1;stroke-miterlimit:10;" d="M 11128.125 40729.947917 L 11308.072917 41485.9375 L 11452.083333 40946.09375 L 11596.09375 41485.9375 L 11776.041667 40729.947917 " transform="matrix(0.015,0,0,0.015,0,0)"/>
<path style="fill:none;stroke-width:76;stroke-linecap:round;stroke-linejoin:round;stroke:rgb(0%,0%,0%);stroke-opacity:1;stroke-miterlimit:10;" d="M 12315.885417 41090.104167 L 12064.0625 41090.104167 " transform="matrix(0.015,0,0,0.015,0,0)"/>
<path style="fill:none;stroke-width:76;stroke-linecap:round;stroke-linejoin:round;stroke:rgb(0%,0%,0%);stroke-opacity:1;stroke-miterlimit:10;" d="M 12064.0625 41485.9375 L 12064.0625 40729.947917 L 12423.958333 40729.947917 " transform="matrix(0.015,0,0,0.015,0,0)"/>
<path style="fill:none;stroke-width:76;stroke-linecap:round;stroke-linejoin:round;stroke:rgb(0%,0%,0%);stroke-opacity:1;stroke-miterlimit:10;" d="M 13288.020833 41485.9375 L 13288.020833 40729.947917 " transform="matrix(0.015,0,0,0.015,0,0)"/>
<path style="fill:none;stroke-width:76;stroke-linecap:round;stroke-linejoin:round;stroke:rgb(0%,0%,0%);stroke-opacity:1;stroke-miterlimit:10;" d="M 13647.916667 41485.9375 L 13647.916667 40729.947917 L 14079.947917 41485.9375 L 14079.947917 40729.947917 " transform="matrix(0.015,0,0,0.015,0,0)"/>
<path style="fill:none;stroke-width:23;stroke-linecap:round;stroke-linejoin:round;stroke:rgb(0%,0%,0%);stroke-opacity:1;stroke-miterlimit:10;" d="M 11320.052083 43664.0625 L 12040.104167 42944.010417 " transform="matrix(0.015,0,0,0.015,0,0)"/>
<path style="fill:none;stroke-width:23;stroke-linecap:round;stroke-linejoin:round;stroke:rgb(0%,0%,0%);stroke-opacity:1;stroke-miterlimit:10;" d="M 11320.052083 44864.0625 L 11320.052083 43664.0625 " transform="matrix(0.015,0,0,0.015,0,0)"/>
<path style="fill:none;stroke-width:23;stroke-linecap:round;stroke-linejoin:round;stroke:rgb(0%,0%,0%);stroke-opacity:1;stroke-miterlimit:10;" d="M 12040.104167 42944.010417 L 13240.104167 42944.010417 " transform="matrix(0.015,0,0,0.015,0,0)"/>
<path style="fill:none;stroke-width:76;stroke-linecap:round;stroke-linejoin:round;stroke:rgb(0%,0%,0%);stroke-opacity:1;stroke-miterlimit:10;" d="M 13503.90625 22729.947917 L 13611.979167 22765.885417 L 13791.927083 22765.885417 L 13864.0625 22729.947917 L 13900 22694.010417 L 13935.9375 22621.875 L 13935.9375 22550 L 13900 22478.125 L 13864.0625 22441.927083 L 13791.927083 22405.989583 L 13647.916667 22370.052083 L 13576.041667 22334.114583 L 13540.104167 22297.916667 L 13503.90625 22226.041667 L 13503.90625 22153.90625 L 13540.104167 22082.03125 L 13576.041667 22046.09375 L 13647.916667 22009.895833 L 13828.125 22009.895833 L 13935.9375 22046.09375 " transform="matrix(0.015,0,0,0.015,0,0)"/>
<path style="fill:none;stroke-width:76;stroke-linecap:round;stroke-linejoin:round;stroke:rgb(0%,0%,0%);stroke-opacity:1;stroke-miterlimit:10;" d="M 14259.895833 22765.885417 L 14259.895833 22009.895833 " transform="matrix(0.015,0,0,0.015,0,0)"/>
<path style="fill:none;stroke-width:76;stroke-linecap:round;stroke-linejoin:round;stroke:rgb(0%,0%,0%);stroke-opacity:1;stroke-miterlimit:10;" d="M 14259.895833 22370.052083 L 14691.927083 22370.052083 " transform="matrix(0.015,0,0,0.015,0,0)"/>
<path style="fill:none;stroke-width:76;stroke-linecap:round;stroke-linejoin:round;stroke:rgb(0%,0%,0%);stroke-opacity:1;stroke-miterlimit:10;" d="M 14691.927083 22765.885417 L 14691.927083 22009.895833 " transform="matrix(0.015,0,0,0.015,0,0)"/>
<path style="fill:none;stroke-width:76;stroke-linecap:round;stroke-linejoin:round;stroke:rgb(0%,0%,0%);stroke-opacity:1;stroke-miterlimit:10;" d="M 15015.885417 22550 L 15376.041667 22550 " transform="matrix(0.015,0,0,0.015,0,0)"/>
<path style="fill:none;stroke-width:76;stroke-linecap:round;stroke-linejoin:round;stroke:rgb(0%,0%,0%);stroke-opacity:1;stroke-miterlimit:10;" d="M 14944.010417 22765.885417 L 15196.09375 22009.895833 L 15447.916667 22765.885417 " transform="matrix(0.015,0,0,0.015,0,0)"/>
<path style="fill:none;stroke-width:76;stroke-linecap:round;stroke-linejoin:round;stroke:rgb(0%,0%,0%);stroke-opacity:1;stroke-miterlimit:10;" d="M 15700 22765.885417 L 15700 22009.895833 L 15988.020833 22009.895833 L 16059.895833 22046.09375 L 16096.09375 22082.03125 L 16132.03125 22153.90625 L 16132.03125 22261.979167 L 16096.09375 22334.114583 L 16059.895833 22370.052083 L 15988.020833 22405.989583 L 15700 22405.989583 " transform="matrix(0.015,0,0,0.015,0,0)"/>
<path style="fill:none;stroke-width:76;stroke-linecap:round;stroke-linejoin:round;stroke:rgb(0%,0%,0%);stroke-opacity:1;stroke-miterlimit:10;" d="M 16455.989583 22370.052083 L 16708.072917 22370.052083 " transform="matrix(0.015,0,0,0.015,0,0)"/>
<path style="fill:none;stroke-width:76;stroke-linecap:round;stroke-linejoin:round;stroke:rgb(0%,0%,0%);stroke-opacity:1;stroke-miterlimit:10;" d="M 16815.885417 22765.885417 L 16455.989583 22765.885417 L 16455.989583 22009.895833 L 16815.885417 22009.895833 " transform="matrix(0.015,0,0,0.015,0,0)"/>
<path style="fill:none;stroke-width:76;stroke-linecap:round;stroke-linejoin:round;stroke:rgb(0%,0%,0%);stroke-opacity:1;stroke-miterlimit:10;" d="M 13828.125 15170.052083 L 13576.041667 15170.052083 " transform="matrix(0.015,0,0,0.015,0,0)"/>
<path style="fill:none;stroke-width:76;stroke-linecap:round;stroke-linejoin:round;stroke:rgb(0%,0%,0%);stroke-opacity:1;stroke-miterlimit:10;" d="M 13576.041667 15565.885417 L 13576.041667 14809.895833 L 13935.9375 14809.895833 " transform="matrix(0.015,0,0,0.015,0,0)"/>
<path style="fill:none;stroke-width:76;stroke-linecap:round;stroke-linejoin:round;stroke:rgb(0%,0%,0%);stroke-opacity:1;stroke-miterlimit:10;" d="M 14367.96875 14809.895833 L 14511.979167 14809.895833 L 14584.114583 14846.09375 L 14655.989583 14917.96875 L 14691.927083 15061.979167 L 14691.927083 15314.0625 L 14655.989583 15458.072917 L 14584.114583 15529.947917 L 14511.979167 15565.885417 L 14367.96875 15565.885417 L 14296.09375 15529.947917 L 14223.958333 15458.072917 L 14188.020833 15314.0625 L 14188.020833 15061.979167 L 14223.958333 14917.96875 L 14296.09375 14846.09375 L 14367.96875 14809.895833 " transform="matrix(0.015,0,0,0.015,0,0)"/>
<path style="fill:none;stroke-width:76;stroke-linecap:round;stroke-linejoin:round;stroke:rgb(0%,0%,0%);stroke-opacity:1;stroke-miterlimit:10;" d="M 15376.041667 15565.885417 L 15015.885417 15565.885417 L 15015.885417 14809.895833 " transform="matrix(0.015,0,0,0.015,0,0)"/>
<path style="fill:none;stroke-width:76;stroke-linecap:round;stroke-linejoin:round;stroke:rgb(0%,0%,0%);stroke-opacity:1;stroke-miterlimit:10;" d="M 15628.125 15565.885417 L 15628.125 14809.895833 L 15808.072917 14809.895833 L 15915.885417 14846.09375 L 15988.020833 14917.96875 L 16023.958333 14990.104167 L 16059.895833 15134.114583 L 16059.895833 15241.927083 L 16023.958333 15385.9375 L 15988.020833 15458.072917 L 15915.885417 15529.947917 L 15808.072917 15565.885417 L 15628.125 15565.885417 " transform="matrix(0.015,0,0,0.015,0,0)"/>
<path style="fill:none;stroke-width:76;stroke-linecap:round;stroke-linejoin:round;stroke:rgb(0%,0%,0%);stroke-opacity:1;stroke-miterlimit:10;" d="M 16347.916667 15529.947917 L 16455.989583 15565.885417 L 16635.9375 15565.885417 L 16708.072917 15529.947917 L 16744.010417 15494.010417 L 16779.947917 15421.875 L 16779.947917 15350 L 16744.010417 15278.125 L 16708.072917 15241.927083 L 16635.9375 15205.989583 L 16491.927083 15170.052083 L 16420.052083 15134.114583 L 16384.114583 15097.916667 L 16347.916667 15026.041667 L 16347.916667 14953.90625 L 16384.114583 14882.03125 L 16420.052083 14846.09375 L 16491.927083 14809.895833 L 16671.875 14809.895833 L 16779.947917 14846.09375 " transform="matrix(0.015,0,0,0.015,0,0)"/>
<path style="fill:none;stroke-width:23;stroke-linecap:round;stroke-linejoin:round;stroke:rgb(0%,0%,0%);stroke-opacity:1;stroke-miterlimit:10;" d="M 23890.104167 20363.020833 L 23320.052083 21223.958333 " transform="matrix(0.015,0,0,0.015,0,0)"/>
<path style="fill:none;stroke-width:23;stroke-linecap:round;stroke-linejoin:round;stroke:rgb(0%,0%,0%);stroke-opacity:1;stroke-miterlimit:10;" d="M 14290.104167 20363.020833 L 13720.052083 21223.958333 " transform="matrix(0.015,0,0,0.015,0,0)"/>
<path style="fill:none;stroke-width:9;stroke-linecap:round;stroke-linejoin:round;stroke:rgb(0%,0%,0%);stroke-opacity:1;stroke-miterlimit:10;" d="M 16540.885417 19064.583333 C 16540.885417 19600.520833 16254.947917 20095.833333 15790.625 20364.0625 C 15326.5625 20632.03125 14754.427083 20632.03125 14290.364583 20364.0625 C 13826.041667 20095.833333 13540.104167 19600.520833 13540.104167 19064.583333 C 13540.104167 18528.385417 13826.041667 18033.072917 14290.364583 17765.104167 C 14754.427083 17496.875 15326.5625 17496.875 15790.625 17765.104167 C 16254.947917 18033.072917 16540.885417 18528.385417 16540.885417 19064.583333 Z M 16540.885417 19064.583333 " transform="matrix(0.015,0,0,0.015,0,0)"/>
<path style="fill:none;stroke-width:9;stroke-linecap:round;stroke-linejoin:round;stroke:rgb(0%,0%,0%);stroke-opacity:1;stroke-miterlimit:10;" d="M 26140.885417 19064.583333 C 26140.885417 19600.520833 25854.947917 20095.833333 25390.625 20364.0625 C 24926.5625 20632.03125 24354.427083 20632.03125 23890.364583 20364.0625 C 23426.041667 20095.833333 23140.104167 19600.520833 23140.104167 19064.583333 C 23140.104167 18528.385417 23426.041667 18033.072917 23890.364583 17765.104167 C 24354.427083 17496.875 24926.5625 17496.875 25390.625 17765.104167 C 25854.947917 18033.072917 26140.885417 18528.385417 26140.885417 19064.583333 Z M 26140.885417 19064.583333 " transform="matrix(0.015,0,0,0.015,0,0)"/>
<path style="fill:none;stroke-width:9;stroke-linecap:round;stroke-linejoin:round;stroke:rgb(0%,0%,0%);stroke-opacity:1;stroke-miterlimit:10;" d="M 17590.885417 19064.583333 C 17590.885417 19975.78125 17104.947917 20817.708333 16315.625 21273.177083 C 15526.5625 21728.90625 14554.427083 21728.90625 13765.364583 21273.177083 C 12976.041667 20817.708333 12490.104167 19975.78125 12490.104167 19064.583333 C 12490.104167 18153.385417 12976.041667 17311.197917 13765.364583 16855.729167 C 14554.427083 16400 15526.5625 16400 16315.625 16855.729167 C 17104.947917 17311.197917 17590.885417 18153.385417 17590.885417 19064.583333 Z M 17590.885417 19064.583333 " transform="matrix(0.015,0,0,0.015,0,0)"/>
<path style="fill:none;stroke-width:9;stroke-linecap:round;stroke-linejoin:round;stroke:rgb(0%,0%,0%);stroke-opacity:1;stroke-miterlimit:10;" d="M 27190.885417 19064.583333 C 27190.885417 19975.78125 26704.947917 20817.708333 25915.625 21273.177083 C 25126.5625 21728.90625 24154.427083 21728.90625 23365.364583 21273.177083 C 22576.041667 20817.708333 22090.104167 19975.78125 22090.104167 19064.583333 C 22090.104167 18153.385417 22576.041667 17311.197917 23365.364583 16855.729167 C 24154.427083 16400 25126.5625 16400 25915.625 16855.729167 C 26704.947917 17311.197917 27190.885417 18153.385417 27190.885417 19064.583333 Z M 27190.885417 19064.583333 " transform="matrix(0.015,0,0,0.015,0,0)"/>
<path style="fill:none;stroke-width:76;stroke-linecap:round;stroke-linejoin:round;stroke:rgb(0%,0%,0%);stroke-opacity:1;stroke-miterlimit:10;" d="M 22797.916667 29929.947917 L 22905.989583 29965.885417 L 23085.9375 29965.885417 L 23158.072917 29929.947917 L 23194.010417 29894.010417 L 23229.947917 29821.875 L 23229.947917 29750 L 23194.010417 29678.125 L 23158.072917 29641.927083 L 23085.9375 29605.989583 L 22941.927083 29570.052083 L 22870.052083 29534.114583 L 22834.114583 29497.916667 L 22797.916667 29426.041667 L 22797.916667 29353.90625 L 22834.114583 29282.03125 L 22870.052083 29246.09375 L 22941.927083 29209.895833 L 23121.875 29209.895833 L 23229.947917 29246.09375 " transform="matrix(0.015,0,0,0.015,0,0)"/>
<path style="fill:none;stroke-width:76;stroke-linecap:round;stroke-linejoin:round;stroke:rgb(0%,0%,0%);stroke-opacity:1;stroke-miterlimit:10;" d="M 23697.916667 29605.989583 L 23697.916667 29965.885417 " transform="matrix(0.015,0,0,0.015,0,0)"/>
<path style="fill:none;stroke-width:76;stroke-linecap:round;stroke-linejoin:round;stroke:rgb(0%,0%,0%);stroke-opacity:1;stroke-miterlimit:10;" d="M 23446.09375 29209.895833 L 23697.916667 29605.989583 L 23950 29209.895833 " transform="matrix(0.015,0,0,0.015,0,0)"/>
<path style="fill:none;stroke-width:76;stroke-linecap:round;stroke-linejoin:round;stroke:rgb(0%,0%,0%);stroke-opacity:1;stroke-miterlimit:10;" d="M 24202.083333 29965.885417 L 24202.083333 29209.895833 L 24453.90625 29750 L 24705.989583 29209.895833 L 24705.989583 29965.885417 " transform="matrix(0.015,0,0,0.015,0,0)"/>
<path style="fill:none;stroke-width:76;stroke-linecap:round;stroke-linejoin:round;stroke:rgb(0%,0%,0%);stroke-opacity:1;stroke-miterlimit:10;" d="M 26073.958333 29894.010417 L 26038.020833 29929.947917 L 25929.947917 29965.885417 L 25858.072917 29965.885417 L 25750 29929.947917 L 25678.125 29858.072917 L 25641.927083 29785.9375 L 25605.989583 29641.927083 L 25605.989583 29534.114583 L 25641.927083 29390.104167 L 25678.125 29317.96875 L 25750 29246.09375 L 25858.072917 29209.895833 L 25929.947917 29209.895833 L 26038.020833 29246.09375 L 26073.958333 29282.03125 " transform="matrix(0.015,0,0,0.015,0,0)"/>
<path style="fill:none;stroke-width:76;stroke-linecap:round;stroke-linejoin:round;stroke:rgb(0%,0%,0%);stroke-opacity:1;stroke-miterlimit:10;" d="M 26290.104167 29209.895833 L 26541.927083 29965.885417 L 26794.010417 29209.895833 " transform="matrix(0.015,0,0,0.015,0,0)"/>
<path style="fill:none;stroke-width:76;stroke-linecap:round;stroke-linejoin:round;stroke:rgb(0%,0%,0%);stroke-opacity:1;stroke-miterlimit:10;" d="M 22114.0625 22729.947917 L 22221.875 22765.885417 L 22402.083333 22765.885417 L 22473.958333 22729.947917 L 22509.895833 22694.010417 L 22546.09375 22621.875 L 22546.09375 22550 L 22509.895833 22478.125 L 22473.958333 22441.927083 L 22402.083333 22405.989583 L 22258.072917 22370.052083 L 22185.9375 22334.114583 L 22150 22297.916667 L 22114.0625 22226.041667 L 22114.0625 22153.90625 L 22150 22082.03125 L 22185.9375 22046.09375 L 22258.072917 22009.895833 L 22438.020833 22009.895833 L 22546.09375 22046.09375 " transform="matrix(0.015,0,0,0.015,0,0)"/>
<path style="fill:none;stroke-width:76;stroke-linecap:round;stroke-linejoin:round;stroke:rgb(0%,0%,0%);stroke-opacity:1;stroke-miterlimit:10;" d="M 22870.052083 22765.885417 L 22870.052083 22009.895833 " transform="matrix(0.015,0,0,0.015,0,0)"/>
<path style="fill:none;stroke-width:76;stroke-linecap:round;stroke-linejoin:round;stroke:rgb(0%,0%,0%);stroke-opacity:1;stroke-miterlimit:10;" d="M 22870.052083 22370.052083 L 23302.083333 22370.052083 " transform="matrix(0.015,0,0,0.015,0,0)"/>
<path style="fill:none;stroke-width:76;stroke-linecap:round;stroke-linejoin:round;stroke:rgb(0%,0%,0%);stroke-opacity:1;stroke-miterlimit:10;" d="M 23302.083333 22765.885417 L 23302.083333 22009.895833 " transform="matrix(0.015,0,0,0.015,0,0)"/>
<path style="fill:none;stroke-width:76;stroke-linecap:round;stroke-linejoin:round;stroke:rgb(0%,0%,0%);stroke-opacity:1;stroke-miterlimit:10;" d="M 23626.041667 22550 L 23985.9375 22550 " transform="matrix(0.015,0,0,0.015,0,0)"/>
<path style="fill:none;stroke-width:76;stroke-linecap:round;stroke-linejoin:round;stroke:rgb(0%,0%,0%);stroke-opacity:1;stroke-miterlimit:10;" d="M 23553.90625 22765.885417 L 23805.989583 22009.895833 L 24058.072917 22765.885417 " transform="matrix(0.015,0,0,0.015,0,0)"/>
<path style="fill:none;stroke-width:76;stroke-linecap:round;stroke-linejoin:round;stroke:rgb(0%,0%,0%);stroke-opacity:1;stroke-miterlimit:10;" d="M 24309.895833 22765.885417 L 24309.895833 22009.895833 L 24597.916667 22009.895833 L 24670.052083 22046.09375 L 24705.989583 22082.03125 L 24741.927083 22153.90625 L 24741.927083 22261.979167 L 24705.989583 22334.114583 L 24670.052083 22370.052083 L 24597.916667 22405.989583 L 24309.895833 22405.989583 " transform="matrix(0.015,0,0,0.015,0,0)"/>
<path style="fill:none;stroke-width:76;stroke-linecap:round;stroke-linejoin:round;stroke:rgb(0%,0%,0%);stroke-opacity:1;stroke-miterlimit:10;" d="M 25065.885417 22370.052083 L 25317.96875 22370.052083 " transform="matrix(0.015,0,0,0.015,0,0)"/>
<path style="fill:none;stroke-width:76;stroke-linecap:round;stroke-linejoin:round;stroke:rgb(0%,0%,0%);stroke-opacity:1;stroke-miterlimit:10;" d="M 25426.041667 22765.885417 L 25065.885417 22765.885417 L 25065.885417 22009.895833 L 25426.041667 22009.895833 " transform="matrix(0.015,0,0,0.015,0,0)"/>
<path style="fill:none;stroke-width:76;stroke-linecap:round;stroke-linejoin:round;stroke:rgb(0%,0%,0%);stroke-opacity:1;stroke-miterlimit:10;" d="M 26758.072917 22694.010417 L 26721.875 22729.947917 L 26614.0625 22765.885417 L 26541.927083 22765.885417 L 26434.114583 22729.947917 L 26361.979167 22658.072917 L 26326.041667 22585.9375 L 26290.104167 22441.927083 L 26290.104167 22334.114583 L 26326.041667 22190.104167 L 26361.979167 22117.96875 L 26434.114583 22046.09375 L 26541.927083 22009.895833 L 26614.0625 22009.895833 L 26721.875 22046.09375 L 26758.072917 22082.03125 " transform="matrix(0.015,0,0,0.015,0,0)"/>
<path style="fill:none;stroke-width:76;stroke-linecap:round;stroke-linejoin:round;stroke:rgb(0%,0%,0%);stroke-opacity:1;stroke-miterlimit:10;" d="M 26973.958333 22009.895833 L 27226.041667 22765.885417 L 27478.125 22009.895833 " transform="matrix(0.015,0,0,0.015,0,0)"/>
<path style="fill:none;stroke-width:23;stroke-linecap:round;stroke-linejoin:round;stroke:rgb(0%,0%,0%);stroke-opacity:1;stroke-miterlimit:10;" d="M 25720.052083 32864.0625 L 26440.104167 32144.010417 " transform="matrix(0.015,0,0,0.015,0,0)"/>
<path style="fill:none;stroke-width:23;stroke-linecap:round;stroke-linejoin:round;stroke:rgb(0%,0%,0%);stroke-opacity:1;stroke-miterlimit:10;" d="M 23890.104167 27563.020833 L 23320.052083 28423.958333 " transform="matrix(0.015,0,0,0.015,0,0)"/>
<path style="fill:none;stroke-width:9;stroke-linecap:round;stroke-linejoin:round;stroke:rgb(0%,0%,0%);stroke-opacity:1;stroke-miterlimit:10;" d="M 26140.885417 26264.583333 C 26140.885417 26800.520833 25854.947917 27295.833333 25390.625 27564.0625 C 24926.5625 27832.03125 24354.427083 27832.03125 23890.364583 27564.0625 C 23426.041667 27295.833333 23140.104167 26800.520833 23140.104167 26264.583333 C 23140.104167 25728.385417 23426.041667 25233.072917 23890.364583 24965.104167 C 24354.427083 24696.875 24926.5625 24696.875 25390.625 24965.104167 C 25854.947917 25233.072917 26140.885417 25728.385417 26140.885417 26264.583333 Z M 26140.885417 26264.583333 " transform="matrix(0.015,0,0,0.015,0,0)"/>
<path style="fill:none;stroke-width:9;stroke-linecap:round;stroke-linejoin:round;stroke:rgb(0%,0%,0%);stroke-opacity:1;stroke-miterlimit:10;" d="M 27190.885417 26264.583333 C 27190.885417 27175.78125 26704.947917 28017.708333 25915.625 28473.177083 C 25126.5625 28928.90625 24154.427083 28928.90625 23365.364583 28473.177083 C 22576.041667 28017.708333 22090.104167 27175.78125 22090.104167 26264.583333 C 22090.104167 25353.385417 22576.041667 24511.197917 23365.364583 24055.729167 C 24154.427083 23600 25126.5625 23600 25915.625 24055.729167 C 26704.947917 24511.197917 27190.885417 25353.385417 27190.885417 26264.583333 Z M 27190.885417 26264.583333 " transform="matrix(0.015,0,0,0.015,0,0)"/>
<path style="fill:none;stroke-width:23;stroke-linecap:round;stroke-linejoin:round;stroke:rgb(0%,0%,0%);stroke-opacity:1;stroke-miterlimit:10;" d="M 11320.052083 32984.114583 L 12040.104167 32264.0625 " transform="matrix(0.015,0,0,0.015,0,0)"/>
<path style="fill:none;stroke-width:23;stroke-linecap:round;stroke-linejoin:round;stroke:rgb(0%,0%,0%);stroke-opacity:1;stroke-miterlimit:10;" d="M 11320.052083 34184.114583 L 11320.052083 32984.114583 " transform="matrix(0.015,0,0,0.015,0,0)"/>
<path style="fill:none;stroke-width:23;stroke-linecap:round;stroke-linejoin:round;stroke:rgb(0%,0%,0%);stroke-opacity:1;stroke-miterlimit:10;" d="M 12040.104167 34903.90625 L 11320.052083 34184.114583 " transform="matrix(0.015,0,0,0.015,0,0)"/>
<path style="fill:none;stroke-width:23;stroke-linecap:round;stroke-linejoin:round;stroke:rgb(0%,0%,0%);stroke-opacity:1;stroke-miterlimit:10;" d="M 13959.895833 34184.114583 L 13240.104167 34903.90625 " transform="matrix(0.015,0,0,0.015,0,0)"/>
<path style="fill:none;stroke-width:23;stroke-linecap:round;stroke-linejoin:round;stroke:rgb(0%,0%,0%);stroke-opacity:1;stroke-miterlimit:10;" d="M 13959.895833 32984.114583 L 13959.895833 34184.114583 " transform="matrix(0.015,0,0,0.015,0,0)"/>
<path style="fill:none;stroke-width:23;stroke-linecap:round;stroke-linejoin:round;stroke:rgb(0%,0%,0%);stroke-opacity:1;stroke-miterlimit:10;" d="M 13240.104167 32264.0625 L 13959.895833 32984.114583 " transform="matrix(0.015,0,0,0.015,0,0)"/>
<path style="fill:none;stroke-width:23;stroke-linecap:round;stroke-linejoin:round;stroke:rgb(0%,0%,0%);stroke-opacity:1;stroke-miterlimit:10;" d="M 12040.104167 32264.0625 L 13240.104167 32264.0625 " transform="matrix(0.015,0,0,0.015,0,0)"/>
<path style="fill:none;stroke-width:23;stroke-linecap:round;stroke-linejoin:round;stroke:rgb(0%,0%,0%);stroke-opacity:1;stroke-miterlimit:10;" d="M 18520.052083 32984.114583 L 19240.104167 32264.0625 " transform="matrix(0.015,0,0,0.015,0,0)"/>
<path style="fill:none;stroke-width:23;stroke-linecap:round;stroke-linejoin:round;stroke:rgb(0%,0%,0%);stroke-opacity:1;stroke-miterlimit:10;" d="M 18520.052083 34184.114583 L 18520.052083 32984.114583 " transform="matrix(0.015,0,0,0.015,0,0)"/>
<path style="fill:none;stroke-width:23;stroke-linecap:round;stroke-linejoin:round;stroke:rgb(0%,0%,0%);stroke-opacity:1;stroke-miterlimit:10;" d="M 19240.104167 34903.90625 L 18520.052083 34184.114583 " transform="matrix(0.015,0,0,0.015,0,0)"/>
<path style="fill:none;stroke-width:23;stroke-linecap:round;stroke-linejoin:round;stroke:rgb(0%,0%,0%);stroke-opacity:1;stroke-miterlimit:10;" d="M 20440.104167 34903.90625 L 19240.104167 34903.90625 " transform="matrix(0.015,0,0,0.015,0,0)"/>
<path style="fill:none;stroke-width:23;stroke-linecap:round;stroke-linejoin:round;stroke:rgb(0%,0%,0%);stroke-opacity:1;stroke-miterlimit:10;" d="M 21159.895833 34184.114583 L 20440.104167 34903.90625 " transform="matrix(0.015,0,0,0.015,0,0)"/>
<path style="fill:none;stroke-width:23;stroke-linecap:round;stroke-linejoin:round;stroke:rgb(0%,0%,0%);stroke-opacity:1;stroke-miterlimit:10;" d="M 21159.895833 32984.114583 L 21159.895833 34184.114583 " transform="matrix(0.015,0,0,0.015,0,0)"/>
<path style="fill:none;stroke-width:23;stroke-linecap:round;stroke-linejoin:round;stroke:rgb(0%,0%,0%);stroke-opacity:1;stroke-miterlimit:10;" d="M 20440.104167 32264.0625 L 21159.895833 32984.114583 " transform="matrix(0.015,0,0,0.015,0,0)"/>
<path style="fill:none;stroke-width:23;stroke-linecap:round;stroke-linejoin:round;stroke:rgb(0%,0%,0%);stroke-opacity:1;stroke-miterlimit:10;" d="M 19240.104167 32264.0625 L 20440.104167 32264.0625 " transform="matrix(0.015,0,0,0.015,0,0)"/>
<path style="fill:none;stroke-width:76;stroke-linecap:round;stroke-linejoin:round;stroke:rgb(0%,0%,0%);stroke-opacity:1;stroke-miterlimit:10;" d="M 22797.916667 15170.052083 L 22546.09375 15170.052083 " transform="matrix(0.015,0,0,0.015,0,0)"/>
<path style="fill:none;stroke-width:76;stroke-linecap:round;stroke-linejoin:round;stroke:rgb(0%,0%,0%);stroke-opacity:1;stroke-miterlimit:10;" d="M 22546.09375 15565.885417 L 22546.09375 14809.895833 L 22905.989583 14809.895833 " transform="matrix(0.015,0,0,0.015,0,0)"/>
<path style="fill:none;stroke-width:76;stroke-linecap:round;stroke-linejoin:round;stroke:rgb(0%,0%,0%);stroke-opacity:1;stroke-miterlimit:10;" d="M 23338.020833 14809.895833 L 23482.03125 14809.895833 L 23553.90625 14846.09375 L 23626.041667 14917.96875 L 23661.979167 15061.979167 L 23661.979167 15314.0625 L 23626.041667 15458.072917 L 23553.90625 15529.947917 L 23482.03125 15565.885417 L 23338.020833 15565.885417 L 23265.885417 15529.947917 L 23194.010417 15458.072917 L 23158.072917 15314.0625 L 23158.072917 15061.979167 L 23194.010417 14917.96875 L 23265.885417 14846.09375 L 23338.020833 14809.895833 " transform="matrix(0.015,0,0,0.015,0,0)"/>
<path style="fill:none;stroke-width:76;stroke-linecap:round;stroke-linejoin:round;stroke:rgb(0%,0%,0%);stroke-opacity:1;stroke-miterlimit:10;" d="M 24346.09375 15565.885417 L 23985.9375 15565.885417 L 23985.9375 14809.895833 " transform="matrix(0.015,0,0,0.015,0,0)"/>
<path style="fill:none;stroke-width:76;stroke-linecap:round;stroke-linejoin:round;stroke:rgb(0%,0%,0%);stroke-opacity:1;stroke-miterlimit:10;" d="M 24597.916667 15565.885417 L 24597.916667 14809.895833 L 24778.125 14809.895833 L 24885.9375 14846.09375 L 24958.072917 14917.96875 L 24994.010417 14990.104167 L 25029.947917 15134.114583 L 25029.947917 15241.927083 L 24994.010417 15385.9375 L 24958.072917 15458.072917 L 24885.9375 15529.947917 L 24778.125 15565.885417 L 24597.916667 15565.885417 " transform="matrix(0.015,0,0,0.015,0,0)"/>
<path style="fill:none;stroke-width:76;stroke-linecap:round;stroke-linejoin:round;stroke:rgb(0%,0%,0%);stroke-opacity:1;stroke-miterlimit:10;" d="M 26361.979167 15494.010417 L 26326.041667 15529.947917 L 26217.96875 15565.885417 L 26146.09375 15565.885417 L 26038.020833 15529.947917 L 25965.885417 15458.072917 L 25929.947917 15385.9375 L 25894.010417 15241.927083 L 25894.010417 15134.114583 L 25929.947917 14990.104167 L 25965.885417 14917.96875 L 26038.020833 14846.09375 L 26146.09375 14809.895833 L 26217.96875 14809.895833 L 26326.041667 14846.09375 L 26361.979167 14882.03125 " transform="matrix(0.015,0,0,0.015,0,0)"/>
<path style="fill:none;stroke-width:76;stroke-linecap:round;stroke-linejoin:round;stroke:rgb(0%,0%,0%);stroke-opacity:1;stroke-miterlimit:10;" d="M 26578.125 14809.895833 L 26829.947917 15565.885417 L 27082.03125 14809.895833 " transform="matrix(0.015,0,0,0.015,0,0)"/>
<path style="fill:none;stroke-width:76;stroke-linecap:round;stroke-linejoin:round;stroke:rgb(0%,0%,0%);stroke-opacity:1;stroke-miterlimit:10;" d="M 16114.0625 7609.895833 L 16294.010417 8365.885417 L 16438.020833 7826.041667 L 16582.03125 8365.885417 L 16761.979167 7609.895833 " transform="matrix(0.015,0,0,0.015,0,0)"/>
<path style="fill:none;stroke-width:76;stroke-linecap:round;stroke-linejoin:round;stroke:rgb(0%,0%,0%);stroke-opacity:1;stroke-miterlimit:10;" d="M 17014.0625 8150 L 17373.958333 8150 " transform="matrix(0.015,0,0,0.015,0,0)"/>
<path style="fill:none;stroke-width:76;stroke-linecap:round;stroke-linejoin:round;stroke:rgb(0%,0%,0%);stroke-opacity:1;stroke-miterlimit:10;" d="M 16941.927083 8365.885417 L 17194.010417 7609.895833 L 17446.09375 8365.885417 " transform="matrix(0.015,0,0,0.015,0,0)"/>
<path style="fill:none;stroke-width:76;stroke-linecap:round;stroke-linejoin:round;stroke:rgb(0%,0%,0%);stroke-opacity:1;stroke-miterlimit:10;" d="M 17590.104167 7609.895833 L 17841.927083 8365.885417 L 18094.010417 7609.895833 " transform="matrix(0.015,0,0,0.015,0,0)"/>
<path style="fill:none;stroke-width:76;stroke-linecap:round;stroke-linejoin:round;stroke:rgb(0%,0%,0%);stroke-opacity:1;stroke-miterlimit:10;" d="M 18346.09375 7970.052083 L 18597.916667 7970.052083 " transform="matrix(0.015,0,0,0.015,0,0)"/>
<path style="fill:none;stroke-width:76;stroke-linecap:round;stroke-linejoin:round;stroke:rgb(0%,0%,0%);stroke-opacity:1;stroke-miterlimit:10;" d="M 18705.989583 8365.885417 L 18346.09375 8365.885417 L 18346.09375 7609.895833 L 18705.989583 7609.895833 " transform="matrix(0.015,0,0,0.015,0,0)"/>
<path style="fill:none;stroke-width:76;stroke-linecap:round;stroke-linejoin:round;stroke:rgb(0%,0%,0%);stroke-opacity:1;stroke-miterlimit:10;" d="M 19858.072917 7970.052083 L 19605.989583 7970.052083 " transform="matrix(0.015,0,0,0.015,0,0)"/>
<path style="fill:none;stroke-width:76;stroke-linecap:round;stroke-linejoin:round;stroke:rgb(0%,0%,0%);stroke-opacity:1;stroke-miterlimit:10;" d="M 19605.989583 8365.885417 L 19605.989583 7609.895833 L 19965.885417 7609.895833 " transform="matrix(0.015,0,0,0.015,0,0)"/>
<path style="fill:none;stroke-width:76;stroke-linecap:round;stroke-linejoin:round;stroke:rgb(0%,0%,0%);stroke-opacity:1;stroke-miterlimit:10;" d="M 20397.916667 7609.895833 L 20541.927083 7609.895833 L 20614.0625 7646.09375 L 20685.9375 7717.96875 L 20721.875 7861.979167 L 20721.875 8114.0625 L 20685.9375 8258.072917 L 20614.0625 8329.947917 L 20541.927083 8365.885417 L 20397.916667 8365.885417 L 20326.041667 8329.947917 L 20253.90625 8258.072917 L 20217.96875 8114.0625 L 20217.96875 7861.979167 L 20253.90625 7717.96875 L 20326.041667 7646.09375 L 20397.916667 7609.895833 " transform="matrix(0.015,0,0,0.015,0,0)"/>
<path style="fill:none;stroke-width:76;stroke-linecap:round;stroke-linejoin:round;stroke:rgb(0%,0%,0%);stroke-opacity:1;stroke-miterlimit:10;" d="M 21405.989583 8365.885417 L 21046.09375 8365.885417 L 21046.09375 7609.895833 " transform="matrix(0.015,0,0,0.015,0,0)"/>
<path style="fill:none;stroke-width:76;stroke-linecap:round;stroke-linejoin:round;stroke:rgb(0%,0%,0%);stroke-opacity:1;stroke-miterlimit:10;" d="M 21658.072917 8365.885417 L 21658.072917 7609.895833 L 21838.020833 7609.895833 L 21946.09375 7646.09375 L 22017.96875 7717.96875 L 22053.90625 7790.104167 L 22090.104167 7934.114583 L 22090.104167 8041.927083 L 22053.90625 8185.9375 L 22017.96875 8258.072917 L 21946.09375 8329.947917 L 21838.020833 8365.885417 L 21658.072917 8365.885417 " transform="matrix(0.015,0,0,0.015,0,0)"/>
<path style="fill:none;stroke-width:76;stroke-linecap:round;stroke-linejoin:round;stroke:rgb(0%,0%,0%);stroke-opacity:1;stroke-miterlimit:10;" d="M 22414.0625 7970.052083 L 22665.885417 7970.052083 " transform="matrix(0.015,0,0,0.015,0,0)"/>
<path style="fill:none;stroke-width:76;stroke-linecap:round;stroke-linejoin:round;stroke:rgb(0%,0%,0%);stroke-opacity:1;stroke-miterlimit:10;" d="M 22773.958333 8365.885417 L 22414.0625 8365.885417 L 22414.0625 7609.895833 L 22773.958333 7609.895833 " transform="matrix(0.015,0,0,0.015,0,0)"/>
<path style="fill:none;stroke-width:76;stroke-linecap:round;stroke-linejoin:round;stroke:rgb(0%,0%,0%);stroke-opacity:1;stroke-miterlimit:10;" d="M 23529.947917 8365.885417 L 23278.125 8005.989583 " transform="matrix(0.015,0,0,0.015,0,0)"/>
<path style="fill:none;stroke-width:76;stroke-linecap:round;stroke-linejoin:round;stroke:rgb(0%,0%,0%);stroke-opacity:1;stroke-miterlimit:10;" d="M 23097.916667 8365.885417 L 23097.916667 7609.895833 L 23385.9375 7609.895833 L 23458.072917 7646.09375 L 23494.010417 7682.03125 L 23529.947917 7753.90625 L 23529.947917 7861.979167 L 23494.010417 7934.114583 L 23458.072917 7970.052083 L 23385.9375 8005.989583 L 23097.916667 8005.989583 " transform="matrix(0.015,0,0,0.015,0,0)"/>
<path style="fill:none;stroke-width:23;stroke-linecap:round;stroke-linejoin:round;stroke:rgb(0%,0%,0%);stroke-opacity:1;stroke-miterlimit:10;" d="M 23890.104167 13163.020833 L 23320.052083 14023.958333 " transform="matrix(0.015,0,0,0.015,0,0)"/>
<path style="fill:none;stroke-width:23;stroke-linecap:round;stroke-linejoin:round;stroke:rgb(0%,0%,0%);stroke-opacity:1;stroke-miterlimit:10;" d="M 14290.104167 13163.020833 L 13720.052083 14023.958333 " transform="matrix(0.015,0,0,0.015,0,0)"/>
<path style="fill:none;stroke-width:9;stroke-linecap:round;stroke-linejoin:round;stroke:rgb(0%,0%,0%);stroke-opacity:1;stroke-miterlimit:10;" d="M 16540.885417 11864.583333 C 16540.885417 12400.520833 16254.947917 12895.833333 15790.625 13164.0625 C 15326.5625 13432.03125 14754.427083 13432.03125 14290.364583 13164.0625 C 13826.041667 12895.833333 13540.104167 12400.520833 13540.104167 11864.583333 C 13540.104167 11328.385417 13826.041667 10833.072917 14290.364583 10565.104167 C 14754.427083 10296.875 15326.5625 10296.875 15790.625 10565.104167 C 16254.947917 10833.072917 16540.885417 11328.385417 16540.885417 11864.583333 Z M 16540.885417 11864.583333 " transform="matrix(0.015,0,0,0.015,0,0)"/>
<path style="fill:none;stroke-width:9;stroke-linecap:round;stroke-linejoin:round;stroke:rgb(0%,0%,0%);stroke-opacity:1;stroke-miterlimit:10;" d="M 26140.885417 11864.583333 C 26140.885417 12400.520833 25854.947917 12895.833333 25390.625 13164.0625 C 24926.5625 13432.03125 24354.427083 13432.03125 23890.364583 13164.0625 C 23426.041667 12895.833333 23140.104167 12400.520833 23140.104167 11864.583333 C 23140.104167 11328.385417 23426.041667 10833.072917 23890.364583 10565.104167 C 24354.427083 10296.875 24926.5625 10296.875 25390.625 10565.104167 C 25854.947917 10833.072917 26140.885417 11328.385417 26140.885417 11864.583333 Z M 26140.885417 11864.583333 " transform="matrix(0.015,0,0,0.015,0,0)"/>
<path style="fill:none;stroke-width:9;stroke-linecap:round;stroke-linejoin:round;stroke:rgb(0%,0%,0%);stroke-opacity:1;stroke-miterlimit:10;" d="M 17590.885417 11864.583333 C 17590.885417 12775.78125 17104.947917 13617.708333 16315.625 14073.177083 C 15526.5625 14528.90625 14554.427083 14528.90625 13765.364583 14073.177083 C 12976.041667 13617.708333 12490.104167 12775.78125 12490.104167 11864.583333 C 12490.104167 10953.385417 12976.041667 10111.197917 13765.364583 9655.729167 C 14554.427083 9200 15526.5625 9200 16315.625 9655.729167 C 17104.947917 10111.197917 17590.885417 10953.385417 17590.885417 11864.583333 Z M 17590.885417 11864.583333 " transform="matrix(0.015,0,0,0.015,0,0)"/>
<path style="fill:none;stroke-width:9;stroke-linecap:round;stroke-linejoin:round;stroke:rgb(0%,0%,0%);stroke-opacity:1;stroke-miterlimit:10;" d="M 27190.885417 11864.583333 C 27190.885417 12775.78125 26704.947917 13617.708333 25915.625 14073.177083 C 25126.5625 14528.90625 24154.427083 14528.90625 23365.364583 14073.177083 C 22576.041667 13617.708333 22090.104167 12775.78125 22090.104167 11864.583333 C 22090.104167 10953.385417 22576.041667 10111.197917 23365.364583 9655.729167 C 24154.427083 9200 25126.5625 9200 25915.625 9655.729167 C 26704.947917 10111.197917 27190.885417 10953.385417 27190.885417 11864.583333 Z M 27190.885417 11864.583333 " transform="matrix(0.015,0,0,0.015,0,0)"/>
<path style="fill:none;stroke-width:76;stroke-linecap:round;stroke-linejoin:round;stroke:rgb(0%,0%,0%);stroke-opacity:1;stroke-miterlimit:10;" d="M 14188.020833 29929.947917 L 14296.09375 29965.885417 L 14476.041667 29965.885417 L 14547.916667 29929.947917 L 14584.114583 29894.010417 L 14620.052083 29821.875 L 14620.052083 29750 L 14584.114583 29678.125 L 14547.916667 29641.927083 L 14476.041667 29605.989583 L 14332.03125 29570.052083 L 14259.895833 29534.114583 L 14223.958333 29497.916667 L 14188.020833 29426.041667 L 14188.020833 29353.90625 L 14223.958333 29282.03125 L 14259.895833 29246.09375 L 14332.03125 29209.895833 L 14511.979167 29209.895833 L 14620.052083 29246.09375 " transform="matrix(0.015,0,0,0.015,0,0)"/>
<path style="fill:none;stroke-width:76;stroke-linecap:round;stroke-linejoin:round;stroke:rgb(0%,0%,0%);stroke-opacity:1;stroke-miterlimit:10;" d="M 15088.020833 29605.989583 L 15088.020833 29965.885417 " transform="matrix(0.015,0,0,0.015,0,0)"/>
<path style="fill:none;stroke-width:76;stroke-linecap:round;stroke-linejoin:round;stroke:rgb(0%,0%,0%);stroke-opacity:1;stroke-miterlimit:10;" d="M 14835.9375 29209.895833 L 15088.020833 29605.989583 L 15340.104167 29209.895833 " transform="matrix(0.015,0,0,0.015,0,0)"/>
<path style="fill:none;stroke-width:76;stroke-linecap:round;stroke-linejoin:round;stroke:rgb(0%,0%,0%);stroke-opacity:1;stroke-miterlimit:10;" d="M 15591.927083 29965.885417 L 15591.927083 29209.895833 L 15844.010417 29750 L 16096.09375 29209.895833 L 16096.09375 29965.885417 " transform="matrix(0.015,0,0,0.015,0,0)"/>
<path style="fill:none;stroke-width:23;stroke-linecap:round;stroke-linejoin:round;stroke:rgb(0%,0%,0%);stroke-opacity:1;stroke-miterlimit:10;" d="M 14290.104167 27563.020833 L 13720.052083 28423.958333 " transform="matrix(0.015,0,0,0.015,0,0)"/>
<path style="fill:none;stroke-width:9;stroke-linecap:round;stroke-linejoin:round;stroke:rgb(0%,0%,0%);stroke-opacity:1;stroke-miterlimit:10;" d="M 16540.885417 26264.583333 C 16540.885417 26800.520833 16254.947917 27295.833333 15790.625 27564.0625 C 15326.5625 27832.03125 14754.427083 27832.03125 14290.364583 27564.0625 C 13826.041667 27295.833333 13540.104167 26800.520833 13540.104167 26264.583333 C 13540.104167 25728.385417 13826.041667 25233.072917 14290.364583 24965.104167 C 14754.427083 24696.875 15326.5625 24696.875 15790.625 24965.104167 C 16254.947917 25233.072917 16540.885417 25728.385417 16540.885417 26264.583333 Z M 16540.885417 26264.583333 " transform="matrix(0.015,0,0,0.015,0,0)"/>
<path style="fill:none;stroke-width:9;stroke-linecap:round;stroke-linejoin:round;stroke:rgb(0%,0%,0%);stroke-opacity:1;stroke-miterlimit:10;" d="M 17590.885417 26264.583333 C 17590.885417 27175.78125 17104.947917 28017.708333 16315.625 28473.177083 C 15526.5625 28928.90625 14554.427083 28928.90625 13765.364583 28473.177083 C 12976.041667 28017.708333 12490.104167 27175.78125 12490.104167 26264.583333 C 12490.104167 25353.385417 12976.041667 24511.197917 13765.364583 24055.729167 C 14554.427083 23600 15526.5625 23600 16315.625 24055.729167 C 17104.947917 24511.197917 17590.885417 25353.385417 17590.885417 26264.583333 Z M 17590.885417 26264.583333 " transform="matrix(0.015,0,0,0.015,0,0)"/>
<path style="fill:none;stroke-width:76;stroke-linecap:round;stroke-linejoin:round;stroke:rgb(0%,0%,0%);stroke-opacity:1;stroke-miterlimit:10;" d="M 25078.125 36170.052083 L 25185.9375 36205.989583 L 25365.885417 36205.989583 L 25438.020833 36170.052083 L 25473.958333 36134.114583 L 25509.895833 36061.979167 L 25509.895833 35990.104167 L 25473.958333 35917.96875 L 25438.020833 35882.03125 L 25365.885417 35846.09375 L 25221.875 35809.895833 L 25150 35773.958333 L 25114.0625 35738.020833 L 25078.125 35665.885417 L 25078.125 35594.010417 L 25114.0625 35521.875 L 25150 35485.9375 L 25221.875 35450 L 25402.083333 35450 L 25509.895833 35485.9375 " transform="matrix(0.015,0,0,0.015,0,0)"/>
<path style="fill:none;stroke-width:76;stroke-linecap:round;stroke-linejoin:round;stroke:rgb(0%,0%,0%);stroke-opacity:1;stroke-miterlimit:10;" d="M 25978.125 35846.09375 L 25978.125 36205.989583 " transform="matrix(0.015,0,0,0.015,0,0)"/>
<path style="fill:none;stroke-width:76;stroke-linecap:round;stroke-linejoin:round;stroke:rgb(0%,0%,0%);stroke-opacity:1;stroke-miterlimit:10;" d="M 25726.041667 35450 L 25978.125 35846.09375 L 26229.947917 35450 " transform="matrix(0.015,0,0,0.015,0,0)"/>
<path style="fill:none;stroke-width:76;stroke-linecap:round;stroke-linejoin:round;stroke:rgb(0%,0%,0%);stroke-opacity:1;stroke-miterlimit:10;" d="M 26482.03125 36205.989583 L 26482.03125 35450 L 26734.114583 35990.104167 L 26985.9375 35450 L 26985.9375 36205.989583 " transform="matrix(0.015,0,0,0.015,0,0)"/>
<path style="fill:none;stroke-width:76;stroke-linecap:round;stroke-linejoin:round;stroke:rgb(0%,0%,0%);stroke-opacity:1;stroke-miterlimit:10;" d="M 28353.90625 36134.114583 L 28317.96875 36170.052083 L 28209.895833 36205.989583 L 28138.020833 36205.989583 L 28029.947917 36170.052083 L 27958.072917 36097.916667 L 27921.875 36026.041667 L 27885.9375 35882.03125 L 27885.9375 35773.958333 L 27921.875 35629.947917 L 27958.072917 35558.072917 L 28029.947917 35485.9375 L 28138.020833 35450 L 28209.895833 35450 L 28317.96875 35485.9375 L 28353.90625 35521.875 " transform="matrix(0.015,0,0,0.015,0,0)"/>
<path style="fill:none;stroke-width:76;stroke-linecap:round;stroke-linejoin:round;stroke:rgb(0%,0%,0%);stroke-opacity:1;stroke-miterlimit:10;" d="M 28570.052083 35450 L 28821.875 36205.989583 L 29073.958333 35450 " transform="matrix(0.015,0,0,0.015,0,0)"/>
<path style="fill:none;stroke-width:23;stroke-linecap:round;stroke-linejoin:round;stroke:rgb(0%,0%,0%);stroke-opacity:1;stroke-miterlimit:10;" d="M 26440.104167 34784.114583 L 25720.052083 34064.0625 " transform="matrix(0.015,0,0,0.015,0,0)"/>
<path style="fill:none;stroke-width:23;stroke-linecap:round;stroke-linejoin:round;stroke:rgb(0%,0%,0%);stroke-opacity:1;stroke-miterlimit:10;" d="M 27640.104167 34784.114583 L 26440.104167 34784.114583 " transform="matrix(0.015,0,0,0.015,0,0)"/>
<path style="fill:none;stroke-width:23;stroke-linecap:round;stroke-linejoin:round;stroke:rgb(0%,0%,0%);stroke-opacity:1;stroke-miterlimit:10;" d="M 28359.895833 34064.0625 L 27640.104167 34784.114583 " transform="matrix(0.015,0,0,0.015,0,0)"/>
<path style="fill:none;stroke-width:23;stroke-linecap:round;stroke-linejoin:round;stroke:rgb(0%,0%,0%);stroke-opacity:1;stroke-miterlimit:10;" d="M 11320.052083 39464.0625 L 11320.052083 38264.0625 " transform="matrix(0.015,0,0,0.015,0,0)"/>
<path style="fill:none;stroke-width:23;stroke-linecap:round;stroke-linejoin:round;stroke:rgb(0%,0%,0%);stroke-opacity:1;stroke-miterlimit:10;" d="M 12040.104167 40184.114583 L 11320.052083 39464.0625 " transform="matrix(0.015,0,0,0.015,0,0)"/>
<path style="fill:none;stroke-width:23;stroke-linecap:round;stroke-linejoin:round;stroke:rgb(0%,0%,0%);stroke-opacity:1;stroke-miterlimit:10;" d="M 13240.104167 40184.114583 L 12040.104167 40184.114583 " transform="matrix(0.015,0,0,0.015,0,0)"/>
<path style="fill:none;stroke-width:23;stroke-linecap:round;stroke-linejoin:round;stroke:rgb(0%,0%,0%);stroke-opacity:1;stroke-miterlimit:10;" d="M 13959.895833 38264.0625 L 13959.895833 39464.0625 " transform="matrix(0.015,0,0,0.015,0,0)"/>
<path style="fill:none;stroke-width:23;stroke-linecap:round;stroke-linejoin:round;stroke:rgb(0%,0%,0%);stroke-opacity:1;stroke-miterlimit:10;" d="M 13240.104167 37544.010417 L 13959.895833 38264.0625 " transform="matrix(0.015,0,0,0.015,0,0)"/>
<path style="fill:none;stroke-width:23;stroke-linecap:round;stroke-linejoin:round;stroke:rgb(0%,0%,0%);stroke-opacity:1;stroke-miterlimit:10;" d="M 13540.885417 38864.583333 C 13540.885417 39186.197917 13369.270833 39483.59375 13090.625 39644.270833 C 12812.239583 39805.208333 12468.75 39805.208333 12190.364583 39644.270833 C 11911.71875 39483.59375 11740.104167 39186.197917 11740.104167 38864.583333 C 11740.104167 38542.708333 11911.71875 38245.572917 12190.364583 38084.635417 C 12468.75 37923.697917 12812.239583 37923.697917 13090.625 38084.635417 C 13369.270833 38245.572917 13540.885417 38542.708333 13540.885417 38864.583333 Z M 13540.885417 38864.583333 " transform="matrix(0.015,0,0,0.015,0,0)"/>
<path style="fill:none;stroke-width:23;stroke-linecap:round;stroke-linejoin:round;stroke:rgb(0%,0%,0%);stroke-opacity:1;stroke-miterlimit:10;" d="M 9640.104167 42344.010417 L 30040.104167 42344.010417 " transform="matrix(0.015,0,0,0.015,0,0)"/>
<path style="fill:none;stroke-width:76;stroke-linecap:round;stroke-linejoin:round;stroke:rgb(0%,0%,0%);stroke-opacity:1;stroke-miterlimit:10;" d="M 17859.895833 36170.052083 L 17967.96875 36205.989583 L 18147.916667 36205.989583 L 18220.052083 36170.052083 L 18255.989583 36134.114583 L 18291.927083 36061.979167 L 18291.927083 35990.104167 L 18255.989583 35917.96875 L 18220.052083 35882.03125 L 18147.916667 35846.09375 L 18003.90625 35809.895833 L 17932.03125 35773.958333 L 17896.09375 35738.020833 L 17859.895833 35665.885417 L 17859.895833 35594.010417 L 17896.09375 35521.875 L 17932.03125 35485.9375 L 18003.90625 35450 L 18184.114583 35450 L 18291.927083 35485.9375 " transform="matrix(0.015,0,0,0.015,0,0)"/>
<path style="fill:none;stroke-width:76;stroke-linecap:round;stroke-linejoin:round;stroke:rgb(0%,0%,0%);stroke-opacity:1;stroke-miterlimit:10;" d="M 18615.885417 36205.989583 L 18615.885417 35450 " transform="matrix(0.015,0,0,0.015,0,0)"/>
<path style="fill:none;stroke-width:76;stroke-linecap:round;stroke-linejoin:round;stroke:rgb(0%,0%,0%);stroke-opacity:1;stroke-miterlimit:10;" d="M 18615.885417 35809.895833 L 19047.916667 35809.895833 " transform="matrix(0.015,0,0,0.015,0,0)"/>
<path style="fill:none;stroke-width:76;stroke-linecap:round;stroke-linejoin:round;stroke:rgb(0%,0%,0%);stroke-opacity:1;stroke-miterlimit:10;" d="M 19047.916667 36205.989583 L 19047.916667 35450 " transform="matrix(0.015,0,0,0.015,0,0)"/>
<path style="fill:none;stroke-width:76;stroke-linecap:round;stroke-linejoin:round;stroke:rgb(0%,0%,0%);stroke-opacity:1;stroke-miterlimit:10;" d="M 19408.072917 36205.989583 L 19408.072917 35450 L 19696.09375 35450 L 19767.96875 35485.9375 L 19803.90625 35521.875 L 19840.104167 35594.010417 L 19840.104167 35702.083333 L 19803.90625 35773.958333 L 19767.96875 35809.895833 L 19696.09375 35846.09375 L 19408.072917 35846.09375 " transform="matrix(0.015,0,0,0.015,0,0)"/>
<path style="fill:none;stroke-width:76;stroke-linecap:round;stroke-linejoin:round;stroke:rgb(0%,0%,0%);stroke-opacity:1;stroke-miterlimit:10;" d="M 21171.875 36134.114583 L 21135.9375 36170.052083 L 21028.125 36205.989583 L 20955.989583 36205.989583 L 20847.916667 36170.052083 L 20776.041667 36097.916667 L 20740.104167 36026.041667 L 20703.90625 35882.03125 L 20703.90625 35773.958333 L 20740.104167 35629.947917 L 20776.041667 35558.072917 L 20847.916667 35485.9375 L 20955.989583 35450 L 21028.125 35450 L 21135.9375 35485.9375 L 21171.875 35521.875 " transform="matrix(0.015,0,0,0.015,0,0)"/>
<path style="fill:none;stroke-width:76;stroke-linecap:round;stroke-linejoin:round;stroke:rgb(0%,0%,0%);stroke-opacity:1;stroke-miterlimit:10;" d="M 21388.020833 35450 L 21640.104167 36205.989583 L 21891.927083 35450 " transform="matrix(0.015,0,0,0.015,0,0)"/>
<path style="fill:none;stroke-width:23;stroke-linecap:round;stroke-linejoin:round;stroke:rgb(0%,0%,0%);stroke-opacity:1;stroke-miterlimit:10;" d="M 13959.895833 39464.0625 L 13240.104167 40184.114583 " transform="matrix(0.015,0,0,0.015,0,0)"/>
<path style="fill:none;stroke-width:23;stroke-linecap:round;stroke-linejoin:round;stroke:rgb(0%,0%,0%);stroke-opacity:1;stroke-miterlimit:10;" d="M 14290.885417 38864.583333 C 14290.885417 39454.166667 13976.302083 39998.958333 13465.625 40293.75 C 12955.208333 40588.802083 12326.041667 40588.802083 11815.364583 40293.75 C 11304.6875 39998.958333 10990.104167 39454.166667 10990.104167 38864.583333 C 10990.104167 38274.739583 11304.6875 37729.947917 11815.364583 37435.15625 C 12326.041667 37140.364583 12955.208333 37140.364583 13465.625 37435.15625 C 13976.302083 37729.947917 14290.885417 38274.739583 14290.885417 38864.583333 Z M 14290.885417 38864.583333 " transform="matrix(0.015,0,0,0.015,0,0)"/>
<path style="fill:none;stroke-width:76;stroke-linecap:round;stroke-linejoin:round;stroke:rgb(0%,0%,0%);stroke-opacity:1;stroke-miterlimit:10;" d="M 11073.958333 35809.895833 L 10821.875 35809.895833 " transform="matrix(0.015,0,0,0.015,0,0)"/>
<path style="fill:none;stroke-width:76;stroke-linecap:round;stroke-linejoin:round;stroke:rgb(0%,0%,0%);stroke-opacity:1;stroke-miterlimit:10;" d="M 10821.875 36205.989583 L 10821.875 35450 L 11182.03125 35450 " transform="matrix(0.015,0,0,0.015,0,0)"/>
<path style="fill:none;stroke-width:76;stroke-linecap:round;stroke-linejoin:round;stroke:rgb(0%,0%,0%);stroke-opacity:1;stroke-miterlimit:10;" d="M 11829.947917 36205.989583 L 11470.052083 36205.989583 L 11470.052083 35450 " transform="matrix(0.015,0,0,0.015,0,0)"/>
<path style="fill:none;stroke-width:76;stroke-linecap:round;stroke-linejoin:round;stroke:rgb(0%,0%,0%);stroke-opacity:1;stroke-miterlimit:10;" d="M 12082.03125 36205.989583 L 12082.03125 35450 L 12261.979167 35450 L 12370.052083 35485.9375 L 12441.927083 35558.072917 L 12478.125 35629.947917 L 12514.0625 35773.958333 L 12514.0625 35882.03125 L 12478.125 36026.041667 L 12441.927083 36097.916667 L 12370.052083 36170.052083 L 12261.979167 36205.989583 L 12082.03125 36205.989583 " transform="matrix(0.015,0,0,0.015,0,0)"/>
<path style="fill:none;stroke-width:76;stroke-linecap:round;stroke-linejoin:round;stroke:rgb(0%,0%,0%);stroke-opacity:1;stroke-miterlimit:10;" d="M 13846.09375 36134.114583 L 13809.895833 36170.052083 L 13702.083333 36205.989583 L 13629.947917 36205.989583 L 13521.875 36170.052083 L 13450 36097.916667 L 13414.0625 36026.041667 L 13378.125 35882.03125 L 13378.125 35773.958333 L 13414.0625 35629.947917 L 13450 35558.072917 L 13521.875 35485.9375 L 13629.947917 35450 L 13702.083333 35450 L 13809.895833 35485.9375 L 13846.09375 35521.875 " transform="matrix(0.015,0,0,0.015,0,0)"/>
<path style="fill:none;stroke-width:76;stroke-linecap:round;stroke-linejoin:round;stroke:rgb(0%,0%,0%);stroke-opacity:1;stroke-miterlimit:10;" d="M 14061.979167 35450 L 14314.0625 36205.989583 L 14565.885417 35450 " transform="matrix(0.015,0,0,0.015,0,0)"/>
<path style="fill:none;stroke-width:23;stroke-linecap:round;stroke-linejoin:round;stroke:rgb(0%,0%,0%);stroke-opacity:1;stroke-miterlimit:10;" d="M 11320.052083 38264.0625 L 12040.104167 37544.010417 " transform="matrix(0.015,0,0,0.015,0,0)"/>
<path style="fill:none;stroke-width:23;stroke-linecap:round;stroke-linejoin:round;stroke:rgb(0%,0%,0%);stroke-opacity:1;stroke-miterlimit:10;" d="M 12040.104167 37544.010417 L 13240.104167 37544.010417 " transform="matrix(0.015,0,0,0.015,0,0)"/>
<path style="fill:none;stroke-width:23;stroke-linecap:round;stroke-linejoin:round;stroke:rgb(0%,0%,0%);stroke-opacity:1;stroke-miterlimit:10;" d="M 13240.104167 34903.90625 L 12040.104167 34903.90625 " transform="matrix(0.015,0,0,0.015,0,0)"/>
<path style="fill:none;stroke-width:23;stroke-linecap:round;stroke-linejoin:round;stroke:rgb(0%,0%,0%);stroke-opacity:1;stroke-miterlimit:10;" d="M 14290.885417 33584.375 C 14290.885417 34174.21875 13976.302083 34719.010417 13465.625 35013.802083 C 12955.208333 35308.59375 12326.041667 35308.59375 11815.364583 35013.802083 C 11304.6875 34719.010417 10990.104167 34174.21875 10990.104167 33584.375 C 10990.104167 32994.791667 11304.6875 32450 11815.364583 32155.208333 C 12326.041667 31860.416667 12955.208333 31860.416667 13465.625 32155.208333 C 13976.302083 32450 14290.885417 32994.791667 14290.885417 33584.375 Z M 14290.885417 33584.375 " transform="matrix(0.015,0,0,0.015,0,0)"/>
<path style="fill:none;stroke-width:23;stroke-linecap:round;stroke-linejoin:round;stroke:rgb(0%,0%,0%);stroke-opacity:1;stroke-miterlimit:10;" d="M 13540.885417 33584.375 C 13540.885417 33906.25 13369.270833 34203.385417 13090.625 34364.322917 C 12812.239583 34525.260417 12468.75 34525.260417 12190.364583 34364.322917 C 11911.71875 34203.385417 11740.104167 33906.25 11740.104167 33584.375 C 11740.104167 33262.760417 11911.71875 32965.625 12190.364583 32804.6875 C 12468.75 32643.75 12812.239583 32643.75 13090.625 32804.6875 C 13369.270833 32965.625 13540.885417 33262.760417 13540.885417 33584.375 Z M 13540.885417 33584.375 " transform="matrix(0.015,0,0,0.015,0,0)"/>
<path style="fill:none;stroke-width:23;stroke-linecap:round;stroke-linejoin:round;stroke:rgb(0%,0%,0%);stroke-opacity:1;stroke-miterlimit:10;" d="M 25720.052083 43664.0625 L 26440.104167 42944.010417 " transform="matrix(0.015,0,0,0.015,0,0)"/>
<path style="fill:none;stroke-width:23;stroke-linecap:round;stroke-linejoin:round;stroke:rgb(0%,0%,0%);stroke-opacity:1;stroke-miterlimit:10;" d="M 26440.104167 40184.114583 L 25720.052083 39464.0625 " transform="matrix(0.015,0,0,0.015,0,0)"/>
<path style="fill:none;stroke-width:23;stroke-linecap:round;stroke-linejoin:round;stroke:rgb(0%,0%,0%);stroke-opacity:1;stroke-miterlimit:10;" d="M 27640.104167 40184.114583 L 26440.104167 40184.114583 " transform="matrix(0.015,0,0,0.015,0,0)"/>
<path style="fill:none;stroke-width:23;stroke-linecap:round;stroke-linejoin:round;stroke:rgb(0%,0%,0%);stroke-opacity:1;stroke-miterlimit:10;" d="M 28359.895833 39464.0625 L 27640.104167 40184.114583 " transform="matrix(0.015,0,0,0.015,0,0)"/>
<path style="fill:none;stroke-width:23;stroke-linecap:round;stroke-linejoin:round;stroke:rgb(0%,0%,0%);stroke-opacity:1;stroke-miterlimit:10;" d="M 25720.052083 38264.0625 L 26440.104167 37544.010417 " transform="matrix(0.015,0,0,0.015,0,0)"/>
<path style="fill:none;stroke-width:23;stroke-linecap:round;stroke-linejoin:round;stroke:rgb(0%,0%,0%);stroke-opacity:1;stroke-miterlimit:10;" d="M 28359.895833 38264.0625 L 28359.895833 39464.0625 " transform="matrix(0.015,0,0,0.015,0,0)"/>
<path style="fill:none;stroke-width:23;stroke-linecap:round;stroke-linejoin:round;stroke:rgb(0%,0%,0%);stroke-opacity:1;stroke-miterlimit:10;" d="M 27640.104167 37544.010417 L 28359.895833 38264.0625 " transform="matrix(0.015,0,0,0.015,0,0)"/>
<path style="fill:none;stroke-width:23;stroke-linecap:round;stroke-linejoin:round;stroke:rgb(0%,0%,0%);stroke-opacity:1;stroke-miterlimit:10;" d="M 26440.104167 37544.010417 L 27640.104167 37544.010417 " transform="matrix(0.015,0,0,0.015,0,0)"/>
<path style="fill:none;stroke-width:23;stroke-linecap:round;stroke-linejoin:round;stroke:rgb(0%,0%,0%);stroke-opacity:1;stroke-miterlimit:10;" d="M 27940.885417 38864.583333 C 27940.885417 39186.197917 27769.270833 39483.59375 27490.625 39644.270833 C 27212.239583 39805.208333 26868.75 39805.208333 26590.364583 39644.270833 C 26311.71875 39483.59375 26140.104167 39186.197917 26140.104167 38864.583333 C 26140.104167 38542.708333 26311.71875 38245.572917 26590.364583 38084.635417 C 26868.75 37923.697917 27212.239583 37923.697917 27490.625 38084.635417 C 27769.270833 38245.572917 27940.885417 38542.708333 27940.885417 38864.583333 Z M 27940.885417 38864.583333 " transform="matrix(0.015,0,0,0.015,0,0)"/>
<path style="fill:none;stroke-width:23;stroke-linecap:round;stroke-linejoin:round;stroke:rgb(0%,0%,0%);stroke-opacity:1;stroke-miterlimit:10;" d="M 27640.104167 32144.010417 L 28359.895833 32864.0625 " transform="matrix(0.015,0,0,0.015,0,0)"/>
<path style="fill:none;stroke-width:23;stroke-linecap:round;stroke-linejoin:round;stroke:rgb(0%,0%,0%);stroke-opacity:1;stroke-miterlimit:10;" d="M 28359.895833 32864.0625 L 28359.895833 34064.0625 " transform="matrix(0.015,0,0,0.015,0,0)"/>
<path style="fill:none;stroke-width:23;stroke-linecap:round;stroke-linejoin:round;stroke:rgb(0%,0%,0%);stroke-opacity:1;stroke-miterlimit:10;" d="M 25720.052083 34064.0625 L 25720.052083 32864.0625 " transform="matrix(0.015,0,0,0.015,0,0)"/>
<path style="fill:none;stroke-width:23;stroke-linecap:round;stroke-linejoin:round;stroke:rgb(0%,0%,0%);stroke-opacity:1;stroke-miterlimit:10;" d="M 26440.104167 32144.010417 L 27640.104167 32144.010417 " transform="matrix(0.015,0,0,0.015,0,0)"/>
<path style="fill:none;stroke-width:23;stroke-linecap:round;stroke-linejoin:round;stroke:rgb(0%,0%,0%);stroke-opacity:1;stroke-miterlimit:10;" d="M 27940.885417 33464.583333 C 27940.885417 33786.197917 27769.270833 34083.59375 27490.625 34244.270833 C 27212.239583 34405.208333 26868.75 34405.208333 26590.364583 34244.270833 C 26311.71875 34083.59375 26140.104167 33786.197917 26140.104167 33464.583333 C 26140.104167 33142.708333 26311.71875 32845.572917 26590.364583 32684.635417 C 26868.75 32523.697917 27212.239583 32523.697917 27490.625 32684.635417 C 27769.270833 32845.572917 27940.885417 33142.708333 27940.885417 33464.583333 Z M 27940.885417 33464.583333 " transform="matrix(0.015,0,0,0.015,0,0)"/>
<path style="fill:none;stroke-width:23;stroke-linecap:round;stroke-linejoin:round;stroke:rgb(0%,0%,0%);stroke-opacity:1;stroke-miterlimit:10;" d="M 27940.885417 33464.583333 C 27940.885417 33786.197917 27769.270833 34083.59375 27490.625 34244.270833 C 27212.239583 34405.208333 26868.75 34405.208333 26590.364583 34244.270833 C 26311.71875 34083.59375 26140.104167 33786.197917 26140.104167 33464.583333 C 26140.104167 33142.708333 26311.71875 32845.572917 26590.364583 32684.635417 C 26868.75 32523.697917 27212.239583 32523.697917 27490.625 32684.635417 C 27769.270833 32845.572917 27940.885417 33142.708333 27940.885417 33464.583333 Z M 27940.885417 33464.583333 " transform="matrix(0.015,0,0,0.015,0,0)"/>
<path style="fill:none;stroke-width:23;stroke-linecap:round;stroke-linejoin:round;stroke:rgb(0%,0%,0%);stroke-opacity:1;stroke-miterlimit:10;" d="M 25720.052083 39464.0625 L 25720.052083 38264.0625 " transform="matrix(0.015,0,0,0.015,0,0)"/>
<path style="fill:none;stroke-width:23;stroke-linecap:round;stroke-linejoin:round;stroke:rgb(0%,0%,0%);stroke-opacity:1;stroke-miterlimit:10;" d="M 21490.885417 33584.375 C 21490.885417 34174.21875 21176.302083 34719.010417 20665.625 35013.802083 C 20155.208333 35308.59375 19526.041667 35308.59375 19015.364583 35013.802083 C 18504.6875 34719.010417 18190.104167 34174.21875 18190.104167 33584.375 C 18190.104167 32994.791667 18504.6875 32450 19015.364583 32155.208333 C 19526.041667 31860.416667 20155.208333 31860.416667 20665.625 32155.208333 C 21176.302083 32450 21490.885417 32994.791667 21490.885417 33584.375 Z M 21490.885417 33584.375 " transform="matrix(0.015,0,0,0.015,0,0)"/>
<path style="fill:none;stroke-width:23;stroke-linecap:round;stroke-linejoin:round;stroke:rgb(0%,0%,0%);stroke-opacity:1;stroke-miterlimit:10;" d="M 20740.885417 33584.375 C 20740.885417 33906.25 20569.270833 34203.385417 20290.625 34364.322917 C 20012.239583 34525.260417 19668.75 34525.260417 19390.364583 34364.322917 C 19111.71875 34203.385417 18940.104167 33906.25 18940.104167 33584.375 C 18940.104167 33262.760417 19111.71875 32965.625 19390.364583 32804.6875 C 19668.75 32643.75 20012.239583 32643.75 20290.625 32804.6875 C 20569.270833 32965.625 20740.885417 33262.760417 20740.885417 33584.375 Z M 20740.885417 33584.375 " transform="matrix(0.015,0,0,0.015,0,0)"/>
<path style="fill:none;stroke-width:23;stroke-linecap:round;stroke-linejoin:round;stroke:rgb(0%,0%,0%);stroke-opacity:1;stroke-miterlimit:10;" d="M 28690.885417 38864.583333 C 28690.885417 39454.166667 28376.302083 39998.958333 27865.625 40293.75 C 27355.208333 40588.802083 26726.041667 40588.802083 26215.364583 40293.75 C 25704.6875 39998.958333 25390.104167 39454.166667 25390.104167 38864.583333 C 25390.104167 38274.739583 25704.6875 37729.947917 26215.364583 37435.15625 C 26726.041667 37140.364583 27355.208333 37140.364583 27865.625 37435.15625 C 28376.302083 37729.947917 28690.885417 38274.739583 28690.885417 38864.583333 Z M 28690.885417 38864.583333 " transform="matrix(0.015,0,0,0.015,0,0)"/>
<path style="fill:none;stroke-width:23;stroke-linecap:round;stroke-linejoin:round;stroke:rgb(0%,0%,0%);stroke-opacity:1;stroke-miterlimit:10;" d="M 28690.885417 33464.583333 C 28690.885417 34054.166667 28376.302083 34598.958333 27865.625 34893.75 C 27355.208333 35188.802083 26726.041667 35188.802083 26215.364583 34893.75 C 25704.6875 34598.958333 25390.104167 34054.166667 25390.104167 33464.583333 C 25390.104167 32874.739583 25704.6875 32329.947917 26215.364583 32035.15625 C 26726.041667 31740.364583 27355.208333 31740.364583 27865.625 32035.15625 C 28376.302083 32329.947917 28690.885417 32874.739583 28690.885417 33464.583333 Z M 28690.885417 33464.583333 " transform="matrix(0.015,0,0,0.015,0,0)"/>
<path style="fill:none;stroke-width:23;stroke-linecap:round;stroke-linejoin:round;stroke:rgb(0%,0%,0%);stroke-opacity:1;stroke-miterlimit:10;" d="M 28690.885417 33464.583333 C 28690.885417 34054.166667 28376.302083 34598.958333 27865.625 34893.75 C 27355.208333 35188.802083 26726.041667 35188.802083 26215.364583 34893.75 C 25704.6875 34598.958333 25390.104167 34054.166667 25390.104167 33464.583333 C 25390.104167 32874.739583 25704.6875 32329.947917 26215.364583 32035.15625 C 26726.041667 31740.364583 27355.208333 31740.364583 27865.625 32035.15625 C 28376.302083 32329.947917 28690.885417 32874.739583 28690.885417 33464.583333 Z M 28690.885417 33464.583333 " transform="matrix(0.015,0,0,0.015,0,0)"/>
</g>
</svg>
