G04 #@! TF.GenerationSoftware,KiCad,Pcbnew,5.1.6-c6e7f7d~86~ubuntu18.04.1*
G04 #@! TF.CreationDate,2020-06-20T10:33:53-04:00*
G04 #@! TF.ProjectId,oscillator_carrier_board,6f736369-6c6c-4617-946f-725f63617272,1*
G04 #@! TF.SameCoordinates,Original*
G04 #@! TF.FileFunction,Legend,Top*
G04 #@! TF.FilePolarity,Positive*
%FSLAX46Y46*%
G04 Gerber Fmt 4.6, Leading zero omitted, Abs format (unit mm)*
G04 Created by KiCad (PCBNEW 5.1.6-c6e7f7d~86~ubuntu18.04.1) date 2020-06-20 10:33:53*
%MOMM*%
%LPD*%
G01*
G04 APERTURE LIST*
%ADD10C,0.150000*%
%ADD11C,0.120000*%
G04 APERTURE END LIST*
D10*
X125860000Y-134620000D02*
G75*
G03*
X125860000Y-134620000I-1400000J0D01*
G01*
X125860000Y-144780000D02*
G75*
G03*
X125860000Y-144780000I-1400000J0D01*
G01*
D11*
X186690000Y-71374000D02*
X186721098Y-82349645D01*
X166370000Y-71374000D02*
X166338902Y-82349645D01*
X188595668Y-64770000D02*
G75*
G03*
X188595668Y-64770000I-12065668J0D01*
G01*
X186721098Y-82349645D02*
G75*
G02*
X176530000Y-85090000I-10191098J17579645D01*
G01*
X166338902Y-82349645D02*
G75*
G03*
X176530000Y-85090000I10191098J17579645D01*
G01*
X166370000Y-134366000D02*
X166338902Y-123390355D01*
X186690000Y-134366000D02*
X186721098Y-123390355D01*
X188595668Y-140970000D02*
G75*
G03*
X188595668Y-140970000I-12065668J0D01*
G01*
X166338902Y-123390355D02*
G75*
G02*
X176530000Y-120650000I10191098J-17579645D01*
G01*
X186721098Y-123390355D02*
G75*
G03*
X176530000Y-120650000I-10191098J-17579645D01*
G01*
X115570000Y-134366000D02*
X115538902Y-123390355D01*
X135890000Y-134366000D02*
X135921098Y-123390355D01*
X137795668Y-140970000D02*
G75*
G03*
X137795668Y-140970000I-12065668J0D01*
G01*
X115538902Y-123390355D02*
G75*
G02*
X125730000Y-120650000I10191098J-17579645D01*
G01*
X135921098Y-123390355D02*
G75*
G03*
X125730000Y-120650000I-10191098J-17579645D01*
G01*
X183134000Y-92710000D02*
X194109645Y-92678902D01*
X183134000Y-113030000D02*
X194109645Y-113061098D01*
X188595668Y-102870000D02*
G75*
G03*
X188595668Y-102870000I-12065668J0D01*
G01*
X194109645Y-92678902D02*
G75*
G02*
X196850000Y-102870000I-17579645J-10191098D01*
G01*
X194109645Y-113061098D02*
G75*
G03*
X196850000Y-102870000I-17579645J10191098D01*
G01*
X132334000Y-92710000D02*
X143309645Y-92678902D01*
X132334000Y-113030000D02*
X143309645Y-113061098D01*
X137795668Y-102870000D02*
G75*
G03*
X137795668Y-102870000I-12065668J0D01*
G01*
X143309645Y-92678902D02*
G75*
G02*
X146050000Y-102870000I-17579645J-10191098D01*
G01*
X143309645Y-113061098D02*
G75*
G03*
X146050000Y-102870000I-17579645J10191098D01*
G01*
X138850000Y-64770000D02*
G75*
G03*
X138850000Y-64770000I-13120000J0D01*
G01*
D10*
X123198095Y-131572380D02*
X123769523Y-131572380D01*
X123483809Y-132572380D02*
X123483809Y-131572380D01*
X124102857Y-132572380D02*
X124102857Y-131572380D01*
X124483809Y-131572380D01*
X124579047Y-131620000D01*
X124626666Y-131667619D01*
X124674285Y-131762857D01*
X124674285Y-131905714D01*
X124626666Y-132000952D01*
X124579047Y-132048571D01*
X124483809Y-132096190D01*
X124102857Y-132096190D01*
X125055238Y-131667619D02*
X125102857Y-131620000D01*
X125198095Y-131572380D01*
X125436190Y-131572380D01*
X125531428Y-131620000D01*
X125579047Y-131667619D01*
X125626666Y-131762857D01*
X125626666Y-131858095D01*
X125579047Y-132000952D01*
X125007619Y-132572380D01*
X125626666Y-132572380D01*
X123198095Y-141732380D02*
X123769523Y-141732380D01*
X123483809Y-142732380D02*
X123483809Y-141732380D01*
X124102857Y-142732380D02*
X124102857Y-141732380D01*
X124483809Y-141732380D01*
X124579047Y-141780000D01*
X124626666Y-141827619D01*
X124674285Y-141922857D01*
X124674285Y-142065714D01*
X124626666Y-142160952D01*
X124579047Y-142208571D01*
X124483809Y-142256190D01*
X124102857Y-142256190D01*
X125626666Y-142732380D02*
X125055238Y-142732380D01*
X125340952Y-142732380D02*
X125340952Y-141732380D01*
X125245714Y-141875238D01*
X125150476Y-141970476D01*
X125055238Y-142018095D01*
X175934761Y-52522380D02*
X175601428Y-52046190D01*
X175363333Y-52522380D02*
X175363333Y-51522380D01*
X175744285Y-51522380D01*
X175839523Y-51570000D01*
X175887142Y-51617619D01*
X175934761Y-51712857D01*
X175934761Y-51855714D01*
X175887142Y-51950952D01*
X175839523Y-51998571D01*
X175744285Y-52046190D01*
X175363333Y-52046190D01*
X176220476Y-51522380D02*
X176553809Y-52522380D01*
X176887142Y-51522380D01*
X177696666Y-51522380D02*
X177220476Y-51522380D01*
X177172857Y-51998571D01*
X177220476Y-51950952D01*
X177315714Y-51903333D01*
X177553809Y-51903333D01*
X177649047Y-51950952D01*
X177696666Y-51998571D01*
X177744285Y-52093809D01*
X177744285Y-52331904D01*
X177696666Y-52427142D01*
X177649047Y-52474761D01*
X177553809Y-52522380D01*
X177315714Y-52522380D01*
X177220476Y-52474761D01*
X177172857Y-52427142D01*
X175934761Y-119832380D02*
X175601428Y-119356190D01*
X175363333Y-119832380D02*
X175363333Y-118832380D01*
X175744285Y-118832380D01*
X175839523Y-118880000D01*
X175887142Y-118927619D01*
X175934761Y-119022857D01*
X175934761Y-119165714D01*
X175887142Y-119260952D01*
X175839523Y-119308571D01*
X175744285Y-119356190D01*
X175363333Y-119356190D01*
X176220476Y-118832380D02*
X176553809Y-119832380D01*
X176887142Y-118832380D01*
X177649047Y-119165714D02*
X177649047Y-119832380D01*
X177410952Y-118784761D02*
X177172857Y-119499047D01*
X177791904Y-119499047D01*
X125134761Y-119832380D02*
X124801428Y-119356190D01*
X124563333Y-119832380D02*
X124563333Y-118832380D01*
X124944285Y-118832380D01*
X125039523Y-118880000D01*
X125087142Y-118927619D01*
X125134761Y-119022857D01*
X125134761Y-119165714D01*
X125087142Y-119260952D01*
X125039523Y-119308571D01*
X124944285Y-119356190D01*
X124563333Y-119356190D01*
X125420476Y-118832380D02*
X125753809Y-119832380D01*
X126087142Y-118832380D01*
X126325238Y-118832380D02*
X126944285Y-118832380D01*
X126610952Y-119213333D01*
X126753809Y-119213333D01*
X126849047Y-119260952D01*
X126896666Y-119308571D01*
X126944285Y-119403809D01*
X126944285Y-119641904D01*
X126896666Y-119737142D01*
X126849047Y-119784761D01*
X126753809Y-119832380D01*
X126468095Y-119832380D01*
X126372857Y-119784761D01*
X126325238Y-119737142D01*
X175934761Y-90622380D02*
X175601428Y-90146190D01*
X175363333Y-90622380D02*
X175363333Y-89622380D01*
X175744285Y-89622380D01*
X175839523Y-89670000D01*
X175887142Y-89717619D01*
X175934761Y-89812857D01*
X175934761Y-89955714D01*
X175887142Y-90050952D01*
X175839523Y-90098571D01*
X175744285Y-90146190D01*
X175363333Y-90146190D01*
X176220476Y-89622380D02*
X176553809Y-90622380D01*
X176887142Y-89622380D01*
X177172857Y-89717619D02*
X177220476Y-89670000D01*
X177315714Y-89622380D01*
X177553809Y-89622380D01*
X177649047Y-89670000D01*
X177696666Y-89717619D01*
X177744285Y-89812857D01*
X177744285Y-89908095D01*
X177696666Y-90050952D01*
X177125238Y-90622380D01*
X177744285Y-90622380D01*
X125134761Y-90622380D02*
X124801428Y-90146190D01*
X124563333Y-90622380D02*
X124563333Y-89622380D01*
X124944285Y-89622380D01*
X125039523Y-89670000D01*
X125087142Y-89717619D01*
X125134761Y-89812857D01*
X125134761Y-89955714D01*
X125087142Y-90050952D01*
X125039523Y-90098571D01*
X124944285Y-90146190D01*
X124563333Y-90146190D01*
X125420476Y-89622380D02*
X125753809Y-90622380D01*
X126087142Y-89622380D01*
X126944285Y-90622380D02*
X126372857Y-90622380D01*
X126658571Y-90622380D02*
X126658571Y-89622380D01*
X126563333Y-89765238D01*
X126468095Y-89860476D01*
X126372857Y-89908095D01*
X114236666Y-53744761D02*
X114379523Y-53792380D01*
X114617619Y-53792380D01*
X114712857Y-53744761D01*
X114760476Y-53697142D01*
X114808095Y-53601904D01*
X114808095Y-53506666D01*
X114760476Y-53411428D01*
X114712857Y-53363809D01*
X114617619Y-53316190D01*
X114427142Y-53268571D01*
X114331904Y-53220952D01*
X114284285Y-53173333D01*
X114236666Y-53078095D01*
X114236666Y-52982857D01*
X114284285Y-52887619D01*
X114331904Y-52840000D01*
X114427142Y-52792380D01*
X114665238Y-52792380D01*
X114808095Y-52840000D01*
X115141428Y-52792380D02*
X115379523Y-53792380D01*
X115570000Y-53078095D01*
X115760476Y-53792380D01*
X115998571Y-52792380D01*
X116903333Y-53792380D02*
X116331904Y-53792380D01*
X116617619Y-53792380D02*
X116617619Y-52792380D01*
X116522380Y-52935238D01*
X116427142Y-53030476D01*
X116331904Y-53078095D01*
M02*
