G04 #@! TF.GenerationSoftware,KiCad,Pcbnew,5.1.6-c6e7f7d~86~ubuntu18.04.1*
G04 #@! TF.CreationDate,2020-06-20T10:33:53-04:00*
G04 #@! TF.ProjectId,oscillator_carrier_board,6f736369-6c6c-4617-946f-725f63617272,1*
G04 #@! TF.SameCoordinates,Original*
G04 #@! TF.FileFunction,Paste,Bot*
G04 #@! TF.FilePolarity,Positive*
%FSLAX46Y46*%
G04 Gerber Fmt 4.6, Leading zero omitted, Abs format (unit mm)*
G04 Created by KiCad (PCBNEW 5.1.6-c6e7f7d~86~ubuntu18.04.1) date 2020-06-20 10:33:53*
%MOMM*%
%LPD*%
G01*
G04 APERTURE LIST*
G04 APERTURE END LIST*
G36*
G01*
X122113400Y-87475200D02*
X122113400Y-87175200D01*
G75*
G02*
X122263400Y-87025200I150000J0D01*
G01*
X123913400Y-87025200D01*
G75*
G02*
X124063400Y-87175200I0J-150000D01*
G01*
X124063400Y-87475200D01*
G75*
G02*
X123913400Y-87625200I-150000J0D01*
G01*
X122263400Y-87625200D01*
G75*
G02*
X122113400Y-87475200I0J150000D01*
G01*
G37*
G36*
G01*
X122113400Y-86205200D02*
X122113400Y-85905200D01*
G75*
G02*
X122263400Y-85755200I150000J0D01*
G01*
X123913400Y-85755200D01*
G75*
G02*
X124063400Y-85905200I0J-150000D01*
G01*
X124063400Y-86205200D01*
G75*
G02*
X123913400Y-86355200I-150000J0D01*
G01*
X122263400Y-86355200D01*
G75*
G02*
X122113400Y-86205200I0J150000D01*
G01*
G37*
G36*
G01*
X122113400Y-84935200D02*
X122113400Y-84635200D01*
G75*
G02*
X122263400Y-84485200I150000J0D01*
G01*
X123913400Y-84485200D01*
G75*
G02*
X124063400Y-84635200I0J-150000D01*
G01*
X124063400Y-84935200D01*
G75*
G02*
X123913400Y-85085200I-150000J0D01*
G01*
X122263400Y-85085200D01*
G75*
G02*
X122113400Y-84935200I0J150000D01*
G01*
G37*
G36*
G01*
X122113400Y-83665200D02*
X122113400Y-83365200D01*
G75*
G02*
X122263400Y-83215200I150000J0D01*
G01*
X123913400Y-83215200D01*
G75*
G02*
X124063400Y-83365200I0J-150000D01*
G01*
X124063400Y-83665200D01*
G75*
G02*
X123913400Y-83815200I-150000J0D01*
G01*
X122263400Y-83815200D01*
G75*
G02*
X122113400Y-83665200I0J150000D01*
G01*
G37*
G36*
G01*
X117163400Y-83665200D02*
X117163400Y-83365200D01*
G75*
G02*
X117313400Y-83215200I150000J0D01*
G01*
X118963400Y-83215200D01*
G75*
G02*
X119113400Y-83365200I0J-150000D01*
G01*
X119113400Y-83665200D01*
G75*
G02*
X118963400Y-83815200I-150000J0D01*
G01*
X117313400Y-83815200D01*
G75*
G02*
X117163400Y-83665200I0J150000D01*
G01*
G37*
G36*
G01*
X117163400Y-84935200D02*
X117163400Y-84635200D01*
G75*
G02*
X117313400Y-84485200I150000J0D01*
G01*
X118963400Y-84485200D01*
G75*
G02*
X119113400Y-84635200I0J-150000D01*
G01*
X119113400Y-84935200D01*
G75*
G02*
X118963400Y-85085200I-150000J0D01*
G01*
X117313400Y-85085200D01*
G75*
G02*
X117163400Y-84935200I0J150000D01*
G01*
G37*
G36*
G01*
X117163400Y-86205200D02*
X117163400Y-85905200D01*
G75*
G02*
X117313400Y-85755200I150000J0D01*
G01*
X118963400Y-85755200D01*
G75*
G02*
X119113400Y-85905200I0J-150000D01*
G01*
X119113400Y-86205200D01*
G75*
G02*
X118963400Y-86355200I-150000J0D01*
G01*
X117313400Y-86355200D01*
G75*
G02*
X117163400Y-86205200I0J150000D01*
G01*
G37*
G36*
G01*
X117163400Y-87475200D02*
X117163400Y-87175200D01*
G75*
G02*
X117313400Y-87025200I150000J0D01*
G01*
X118963400Y-87025200D01*
G75*
G02*
X119113400Y-87175200I0J-150000D01*
G01*
X119113400Y-87475200D01*
G75*
G02*
X118963400Y-87625200I-150000J0D01*
G01*
X117313400Y-87625200D01*
G75*
G02*
X117163400Y-87475200I0J150000D01*
G01*
G37*
G36*
G01*
X118735800Y-80880799D02*
X118735800Y-81780801D01*
G75*
G02*
X118485801Y-82030800I-249999J0D01*
G01*
X117835799Y-82030800D01*
G75*
G02*
X117585800Y-81780801I0J249999D01*
G01*
X117585800Y-80880799D01*
G75*
G02*
X117835799Y-80630800I249999J0D01*
G01*
X118485801Y-80630800D01*
G75*
G02*
X118735800Y-80880799I0J-249999D01*
G01*
G37*
G36*
G01*
X120785800Y-80880799D02*
X120785800Y-81780801D01*
G75*
G02*
X120535801Y-82030800I-249999J0D01*
G01*
X119885799Y-82030800D01*
G75*
G02*
X119635800Y-81780801I0J249999D01*
G01*
X119635800Y-80880799D01*
G75*
G02*
X119885799Y-80630800I249999J0D01*
G01*
X120535801Y-80630800D01*
G75*
G02*
X120785800Y-80880799I0J-249999D01*
G01*
G37*
G36*
G01*
X121613400Y-90126399D02*
X121613400Y-91026401D01*
G75*
G02*
X121363401Y-91276400I-249999J0D01*
G01*
X120713399Y-91276400D01*
G75*
G02*
X120463400Y-91026401I0J249999D01*
G01*
X120463400Y-90126399D01*
G75*
G02*
X120713399Y-89876400I249999J0D01*
G01*
X121363401Y-89876400D01*
G75*
G02*
X121613400Y-90126399I0J-249999D01*
G01*
G37*
G36*
G01*
X123663400Y-90126399D02*
X123663400Y-91026401D01*
G75*
G02*
X123413401Y-91276400I-249999J0D01*
G01*
X122763399Y-91276400D01*
G75*
G02*
X122513400Y-91026401I0J249999D01*
G01*
X122513400Y-90126399D01*
G75*
G02*
X122763399Y-89876400I249999J0D01*
G01*
X123413401Y-89876400D01*
G75*
G02*
X123663400Y-90126399I0J-249999D01*
G01*
G37*
G36*
G01*
X114095000Y-85655999D02*
X114095000Y-86556001D01*
G75*
G02*
X113845001Y-86806000I-249999J0D01*
G01*
X113194999Y-86806000D01*
G75*
G02*
X112945000Y-86556001I0J249999D01*
G01*
X112945000Y-85655999D01*
G75*
G02*
X113194999Y-85406000I249999J0D01*
G01*
X113845001Y-85406000D01*
G75*
G02*
X114095000Y-85655999I0J-249999D01*
G01*
G37*
G36*
G01*
X116145000Y-85655999D02*
X116145000Y-86556001D01*
G75*
G02*
X115895001Y-86806000I-249999J0D01*
G01*
X115244999Y-86806000D01*
G75*
G02*
X114995000Y-86556001I0J249999D01*
G01*
X114995000Y-85655999D01*
G75*
G02*
X115244999Y-85406000I249999J0D01*
G01*
X115895001Y-85406000D01*
G75*
G02*
X116145000Y-85655999I0J-249999D01*
G01*
G37*
G36*
G01*
X134911215Y-56248812D02*
X135547612Y-55612415D01*
G75*
G02*
X135901164Y-55612415I176776J-176776D01*
G01*
X136360785Y-56072036D01*
G75*
G02*
X136360785Y-56425588I-176776J-176776D01*
G01*
X135724388Y-57061985D01*
G75*
G02*
X135370836Y-57061985I-176776J176776D01*
G01*
X134911215Y-56602364D01*
G75*
G02*
X134911215Y-56248812I176776J176776D01*
G01*
G37*
G36*
G01*
X133461647Y-54799244D02*
X134098044Y-54162847D01*
G75*
G02*
X134451596Y-54162847I176776J-176776D01*
G01*
X134911217Y-54622468D01*
G75*
G02*
X134911217Y-54976020I-176776J-176776D01*
G01*
X134274820Y-55612417D01*
G75*
G02*
X133921268Y-55612417I-176776J176776D01*
G01*
X133461647Y-55152796D01*
G75*
G02*
X133461647Y-54799244I176776J176776D01*
G01*
G37*
G36*
G01*
X137908601Y-61968335D02*
X138777936Y-61735398D01*
G75*
G02*
X139084121Y-61912173I64705J-241480D01*
G01*
X139252354Y-62540027D01*
G75*
G02*
X139075579Y-62846212I-241480J-64705D01*
G01*
X138206244Y-63079150D01*
G75*
G02*
X137900059Y-62902375I-64705J241480D01*
G01*
X137731826Y-62274521D01*
G75*
G02*
X137908601Y-61968336I241480J64705D01*
G01*
G37*
G36*
G01*
X137378021Y-59988187D02*
X138247356Y-59755250D01*
G75*
G02*
X138553541Y-59932025I64705J-241480D01*
G01*
X138721774Y-60559879D01*
G75*
G02*
X138544999Y-60866064I-241480J-64705D01*
G01*
X137675664Y-61099002D01*
G75*
G02*
X137369479Y-60922227I-64705J241480D01*
G01*
X137201246Y-60294373D01*
G75*
G02*
X137378021Y-59988188I241480J64705D01*
G01*
G37*
G36*
G01*
X137686953Y-68492324D02*
X138556289Y-68725262D01*
G75*
G02*
X138733064Y-69031447I-64705J-241480D01*
G01*
X138564831Y-69659301D01*
G75*
G02*
X138258646Y-69836076I-241480J64705D01*
G01*
X137389311Y-69603138D01*
G75*
G02*
X137212536Y-69296953I64705J241480D01*
G01*
X137380769Y-68669099D01*
G75*
G02*
X137686954Y-68492324I241480J-64705D01*
G01*
G37*
G36*
G01*
X138217533Y-66512176D02*
X139086869Y-66745114D01*
G75*
G02*
X139263644Y-67051299I-64705J-241480D01*
G01*
X139095411Y-67679153D01*
G75*
G02*
X138789226Y-67855928I-241480J64705D01*
G01*
X137919891Y-67622990D01*
G75*
G02*
X137743116Y-67316805I64705J241480D01*
G01*
X137911349Y-66688951D01*
G75*
G02*
X138217534Y-66512176I241480J-64705D01*
G01*
G37*
G36*
G01*
X134251188Y-73925815D02*
X134887585Y-74562212D01*
G75*
G02*
X134887585Y-74915764I-176776J-176776D01*
G01*
X134427964Y-75375385D01*
G75*
G02*
X134074412Y-75375385I-176776J176776D01*
G01*
X133438015Y-74738988D01*
G75*
G02*
X133438015Y-74385436I176776J176776D01*
G01*
X133897636Y-73925815D01*
G75*
G02*
X134251188Y-73925815I176776J-176776D01*
G01*
G37*
G36*
G01*
X135700756Y-72476247D02*
X136337153Y-73112644D01*
G75*
G02*
X136337153Y-73466196I-176776J-176776D01*
G01*
X135877532Y-73925817D01*
G75*
G02*
X135523980Y-73925817I-176776J176776D01*
G01*
X134887583Y-73289420D01*
G75*
G02*
X134887583Y-72935868I176776J176776D01*
G01*
X135347204Y-72476247D01*
G75*
G02*
X135700756Y-72476247I176776J-176776D01*
G01*
G37*
G36*
G01*
X128632739Y-77038911D02*
X128865676Y-77908246D01*
G75*
G02*
X128688901Y-78214431I-241480J-64705D01*
G01*
X128061047Y-78382664D01*
G75*
G02*
X127754862Y-78205889I-64705J241480D01*
G01*
X127521924Y-77336554D01*
G75*
G02*
X127698699Y-77030369I241480J64705D01*
G01*
X128326553Y-76862136D01*
G75*
G02*
X128632738Y-77038911I64705J-241480D01*
G01*
G37*
G36*
G01*
X130612887Y-76508331D02*
X130845824Y-77377666D01*
G75*
G02*
X130669049Y-77683851I-241480J-64705D01*
G01*
X130041195Y-77852084D01*
G75*
G02*
X129735010Y-77675309I-64705J241480D01*
G01*
X129502072Y-76805974D01*
G75*
G02*
X129678847Y-76499789I241480J64705D01*
G01*
X130306701Y-76331556D01*
G75*
G02*
X130612886Y-76508331I64705J-241480D01*
G01*
G37*
G36*
G01*
X122059528Y-76729773D02*
X121826590Y-77599109D01*
G75*
G02*
X121520405Y-77775884I-241480J64705D01*
G01*
X120892551Y-77607651D01*
G75*
G02*
X120715776Y-77301466I64705J241480D01*
G01*
X120948714Y-76432131D01*
G75*
G02*
X121254899Y-76255356I241480J-64705D01*
G01*
X121882753Y-76423589D01*
G75*
G02*
X122059528Y-76729774I-64705J-241480D01*
G01*
G37*
G36*
G01*
X124039676Y-77260353D02*
X123806738Y-78129689D01*
G75*
G02*
X123500553Y-78306464I-241480J64705D01*
G01*
X122872699Y-78138231D01*
G75*
G02*
X122695924Y-77832046I64705J241480D01*
G01*
X122928862Y-76962711D01*
G75*
G02*
X123235047Y-76785936I241480J-64705D01*
G01*
X123862901Y-76954169D01*
G75*
G02*
X124039676Y-77260354I-64705J-241480D01*
G01*
G37*
G36*
G01*
X110940000Y-69030001D02*
X110940000Y-68129999D01*
G75*
G02*
X111189999Y-67880000I249999J0D01*
G01*
X111840001Y-67880000D01*
G75*
G02*
X112090000Y-68129999I0J-249999D01*
G01*
X112090000Y-69030001D01*
G75*
G02*
X111840001Y-69280000I-249999J0D01*
G01*
X111189999Y-69280000D01*
G75*
G02*
X110940000Y-69030001I0J249999D01*
G01*
G37*
G36*
G01*
X108890000Y-69030001D02*
X108890000Y-68129999D01*
G75*
G02*
X109139999Y-67880000I249999J0D01*
G01*
X109790001Y-67880000D01*
G75*
G02*
X110040000Y-68129999I0J-249999D01*
G01*
X110040000Y-69030001D01*
G75*
G02*
X109790001Y-69280000I-249999J0D01*
G01*
X109139999Y-69280000D01*
G75*
G02*
X108890000Y-69030001I0J249999D01*
G01*
G37*
G36*
G01*
X131015000Y-60140001D02*
X131015000Y-59239999D01*
G75*
G02*
X131264999Y-58990000I249999J0D01*
G01*
X131915001Y-58990000D01*
G75*
G02*
X132165000Y-59239999I0J-249999D01*
G01*
X132165000Y-60140001D01*
G75*
G02*
X131915001Y-60390000I-249999J0D01*
G01*
X131264999Y-60390000D01*
G75*
G02*
X131015000Y-60140001I0J249999D01*
G01*
G37*
G36*
G01*
X128965000Y-60140001D02*
X128965000Y-59239999D01*
G75*
G02*
X129214999Y-58990000I249999J0D01*
G01*
X129865001Y-58990000D01*
G75*
G02*
X130115000Y-59239999I0J-249999D01*
G01*
X130115000Y-60140001D01*
G75*
G02*
X129865001Y-60390000I-249999J0D01*
G01*
X129214999Y-60390000D01*
G75*
G02*
X128965000Y-60140001I0J249999D01*
G01*
G37*
M02*
