M48
; DRILL file {KiCad 5.1.6-c6e7f7d~86~ubuntu18.04.1} date Mon Jun  1 06:43:33 2020
; FORMAT={3:3/ absolute / metric / suppress leading zeros}
; #@! TF.CreationDate,2020-06-01T06:43:33-04:00
; #@! TF.GenerationSoftware,Kicad,Pcbnew,5.1.6-c6e7f7d~86~ubuntu18.04.1
FMAT,2
METRIC,TZ
T1C0.400
T2C0.800
T3C1.000
%
G90
G05
T1
X104585Y-105461
X105791Y-104750
X111942Y-95339
X112938Y-95088
X118847Y-90068
X119278Y-87224
X119621Y-89275
X119786Y-91008
X119964Y-87782
X120358Y-90020
X120494Y-96643
X120777Y-72644
X121158Y-74803
X121285Y-70231
X121862Y-96621
X122047Y-67564
X122174Y-60071
X122555Y-99924
X122936Y-62484
X123063Y-64897
X123088Y-97062
X123459Y-84031
X124384Y-84557
X124816Y-102210
X125307Y-83922
X125383Y-85200
X125407Y-101614
X125501Y-102845
X126086Y-102260
X126811Y-92573
X127718Y-91243
X128575Y-79451
X129311Y-101778
X129311Y-102718
X129347Y-89813
X129379Y-87802
X129400Y-90739
X129425Y-88813
X129540Y-97485
X129692Y-78080
X130480Y-95834
X130734Y-97231
X130785Y-102718
X130810Y-101829
X131145Y-88994
X131343Y-82906
X131420Y-95161
X131623Y-96749
X131750Y-91008
X131953Y-82296
X132055Y-83617
X132253Y-89772
X132486Y-94818
X132537Y-100635
X132715Y-83007
X132766Y-79477
X133248Y-94132
X133680Y-79477
X133904Y-93477
X134362Y-86832
X134493Y-83134
X134689Y-87699
X134696Y-85039
X135128Y-82499
X137287Y-98095
X137795Y-103378
X137998Y-88189
X138176Y-98476
X138659Y-87605
X138760Y-88849
X139370Y-88240
X140081Y-94005
X140284Y-95555
T2
X104140Y-53340
X111760Y-53340
X111760Y-76200
X119380Y-53340
X119380Y-60960
X119380Y-68580
X119380Y-76200
X119380Y-83820
X119380Y-106680
X119380Y-114300
X119380Y-121920
X119380Y-129540
X127000Y-53340
X127000Y-60960
X127000Y-68580
X127000Y-76200
X127000Y-83820
X127000Y-106680
X127000Y-114300
X127000Y-121920
X127000Y-129540
X134620Y-53340
X134620Y-60960
X134620Y-68580
X134620Y-76200
X134620Y-106680
X134620Y-114300
X134620Y-121920
X134620Y-129540
X138176Y-61976
X138176Y-63500
X139700Y-61341
X139700Y-62738
X139700Y-64389
X140208Y-57658
X141224Y-61976
X141224Y-63500
X141986Y-57658
X142240Y-53340
X142240Y-68580
X142240Y-76200
X142240Y-83820
X142240Y-91440
X142240Y-99060
X142240Y-106680
X142240Y-114300
X144018Y-57658
X144018Y-59690
X144018Y-61468
X144018Y-63246
X146050Y-61468
X146050Y-63246
X148082Y-61468
X148082Y-63246
X149860Y-53340
X150114Y-61468
X150114Y-63246
X150114Y-65024
X150114Y-66802
X150114Y-68580
X150114Y-70358
X150114Y-72390
T3
X147320Y-55880
X147320Y-58420
X106680Y-55880
X106680Y-58420
X106680Y-60960
X106680Y-63500
X106680Y-66040
X106680Y-68580
X106680Y-71120
X106680Y-73660
X109220Y-55880
X109220Y-58420
X109220Y-60960
X109220Y-63500
X109220Y-66040
X109220Y-68580
X109220Y-71120
X109220Y-73660
X106680Y-111760
X106680Y-114300
X106680Y-116840
X106680Y-119380
X106680Y-121920
X106680Y-124460
X106680Y-127000
X106680Y-129540
X109220Y-111760
X109220Y-114300
X109220Y-116840
X109220Y-119380
X109220Y-121920
X109220Y-124460
X109220Y-127000
X109220Y-129540
X147320Y-116840
X147320Y-119380
X147320Y-121920
X147320Y-124460
X147320Y-127000
X147320Y-129540
X147320Y-78740
X147320Y-81280
X147320Y-83820
X147320Y-86360
X147320Y-88900
X106680Y-83820
X106680Y-86360
X106680Y-88900
X106680Y-91440
X106680Y-93980
X106680Y-96520
X106680Y-99060
X106680Y-101600
X109220Y-83820
X109220Y-86360
X109220Y-88900
X109220Y-91440
X109220Y-93980
X109220Y-96520
X109220Y-99060
X109220Y-101600
X147320Y-96520
X147320Y-99060
X147320Y-101600
X147320Y-104140
X147320Y-106680
T0
M30
