G04 #@! TF.GenerationSoftware,KiCad,Pcbnew,5.1.6-c6e7f7d~86~ubuntu18.04.1*
G04 #@! TF.CreationDate,2020-06-21T16:53:52-04:00*
G04 #@! TF.ProjectId,dual_ADSR,6475616c-5f41-4445-9352-2e6b69636164,rev?*
G04 #@! TF.SameCoordinates,Original*
G04 #@! TF.FileFunction,Soldermask,Top*
G04 #@! TF.FilePolarity,Negative*
%FSLAX46Y46*%
G04 Gerber Fmt 4.6, Leading zero omitted, Abs format (unit mm)*
G04 Created by KiCad (PCBNEW 5.1.6-c6e7f7d~86~ubuntu18.04.1) date 2020-06-21 16:53:52*
%MOMM*%
%LPD*%
G01*
G04 APERTURE LIST*
%ADD10O,1.700000X1.700000*%
%ADD11R,1.700000X1.700000*%
%ADD12O,1.800000X1.800000*%
%ADD13R,1.800000X1.800000*%
%ADD14C,2.600000*%
%ADD15O,2.820000X3.340000*%
%ADD16C,1.900000*%
%ADD17R,1.900000X1.900000*%
%ADD18C,1.700000*%
G04 APERTURE END LIST*
D10*
X139954000Y-61468000D03*
X132334000Y-69088000D03*
X137414000Y-61468000D03*
X134874000Y-69088000D03*
X134874000Y-61468000D03*
X137414000Y-69088000D03*
X132334000Y-61468000D03*
D11*
X139954000Y-69088000D03*
D10*
X120650000Y-61722000D03*
X113030000Y-69342000D03*
X118110000Y-61722000D03*
X115570000Y-69342000D03*
X115570000Y-61722000D03*
X118110000Y-69342000D03*
X113030000Y-61722000D03*
D11*
X120650000Y-69342000D03*
D12*
X143510000Y-154940000D03*
X146050000Y-154940000D03*
X143510000Y-152400000D03*
X146050000Y-152400000D03*
X143510000Y-149860000D03*
X146050000Y-149860000D03*
X143510000Y-147320000D03*
X146050000Y-147320000D03*
X143510000Y-144780000D03*
X146050000Y-144780000D03*
X143510000Y-142240000D03*
X146050000Y-142240000D03*
X143510000Y-139700000D03*
X146050000Y-139700000D03*
X143510000Y-137160000D03*
D13*
X146050000Y-137160000D03*
D12*
X143510000Y-127000000D03*
X146050000Y-127000000D03*
X143510000Y-124460000D03*
X146050000Y-124460000D03*
X143510000Y-121920000D03*
X146050000Y-121920000D03*
X143510000Y-119380000D03*
X146050000Y-119380000D03*
X143510000Y-116840000D03*
X146050000Y-116840000D03*
X143510000Y-114300000D03*
X146050000Y-114300000D03*
X143510000Y-111760000D03*
X146050000Y-111760000D03*
X143510000Y-109220000D03*
D13*
X146050000Y-109220000D03*
D12*
X143510000Y-99060000D03*
X146050000Y-99060000D03*
X143510000Y-96520000D03*
X146050000Y-96520000D03*
X143510000Y-93980000D03*
X146050000Y-93980000D03*
X143510000Y-91440000D03*
X146050000Y-91440000D03*
X143510000Y-88900000D03*
X146050000Y-88900000D03*
X143510000Y-86360000D03*
X146050000Y-86360000D03*
X143510000Y-83820000D03*
X146050000Y-83820000D03*
X143510000Y-81280000D03*
D13*
X146050000Y-81280000D03*
D14*
X119380000Y-152020000D03*
X119380000Y-147320000D03*
X119380000Y-142620000D03*
X132080000Y-152020000D03*
X132080000Y-147320000D03*
X132080000Y-142620000D03*
D15*
X152680000Y-147440000D03*
X162280000Y-147440000D03*
D16*
X159980000Y-154940000D03*
X157480000Y-154940000D03*
D17*
X154980000Y-154940000D03*
D15*
X152680000Y-109340000D03*
X162280000Y-109340000D03*
D16*
X159980000Y-116840000D03*
X157480000Y-116840000D03*
D17*
X154980000Y-116840000D03*
D15*
X152680000Y-71240000D03*
X162280000Y-71240000D03*
D16*
X159980000Y-78740000D03*
X157480000Y-78740000D03*
D17*
X154980000Y-78740000D03*
D15*
X152680000Y-33140000D03*
X162280000Y-33140000D03*
D16*
X159980000Y-40640000D03*
X157480000Y-40640000D03*
D17*
X154980000Y-40640000D03*
D15*
X89180000Y-147440000D03*
X98780000Y-147440000D03*
D16*
X96480000Y-154940000D03*
X93980000Y-154940000D03*
D17*
X91480000Y-154940000D03*
D15*
X89180000Y-109340000D03*
X98780000Y-109340000D03*
D16*
X96480000Y-116840000D03*
X93980000Y-116840000D03*
D17*
X91480000Y-116840000D03*
D15*
X89180000Y-71240000D03*
X98780000Y-71240000D03*
D16*
X96480000Y-78740000D03*
X93980000Y-78740000D03*
D17*
X91480000Y-78740000D03*
D15*
X89180000Y-33140000D03*
X98780000Y-33140000D03*
D16*
X96480000Y-40640000D03*
X93980000Y-40640000D03*
D17*
X91480000Y-40640000D03*
D12*
X105410000Y-132080000D03*
X105410000Y-129540000D03*
X105410000Y-127000000D03*
X105410000Y-124460000D03*
D13*
X105410000Y-121920000D03*
D12*
X105410000Y-114300000D03*
X105410000Y-111760000D03*
X105410000Y-109220000D03*
X105410000Y-106680000D03*
D13*
X105410000Y-104140000D03*
D12*
X105410000Y-83820000D03*
D13*
X105410000Y-81280000D03*
D12*
X170180000Y-132080000D03*
X170180000Y-129540000D03*
X170180000Y-127000000D03*
X170180000Y-124460000D03*
D13*
X170180000Y-121920000D03*
D12*
X124460000Y-43180000D03*
X127000000Y-43180000D03*
X124460000Y-40640000D03*
X127000000Y-40640000D03*
X124460000Y-38100000D03*
X127000000Y-38100000D03*
X124460000Y-35560000D03*
X127000000Y-35560000D03*
X124460000Y-33020000D03*
D13*
X127000000Y-33020000D03*
D12*
X81280000Y-134620000D03*
X81280000Y-132080000D03*
X81280000Y-129540000D03*
X81280000Y-127000000D03*
D13*
X81280000Y-124460000D03*
D18*
X104140000Y-43140000D03*
D11*
X104140000Y-40640000D03*
D18*
X104140000Y-35520000D03*
D11*
X104140000Y-33020000D03*
M02*
