G04 #@! TF.GenerationSoftware,KiCad,Pcbnew,5.1.6-c6e7f7d~86~ubuntu18.04.1*
G04 #@! TF.CreationDate,2020-06-01T06:43:38-04:00*
G04 #@! TF.ProjectId,f405_breakout,66343035-5f62-4726-9561-6b6f75742e6b,rev?*
G04 #@! TF.SameCoordinates,Original*
G04 #@! TF.FileFunction,Copper,L4,Bot*
G04 #@! TF.FilePolarity,Positive*
%FSLAX46Y46*%
G04 Gerber Fmt 4.6, Leading zero omitted, Abs format (unit mm)*
G04 Created by KiCad (PCBNEW 5.1.6-c6e7f7d~86~ubuntu18.04.1) date 2020-06-01 06:43:38*
%MOMM*%
%LPD*%
G01*
G04 APERTURE LIST*
G04 #@! TA.AperFunction,ComponentPad*
%ADD10O,1.700000X1.700000*%
G04 #@! TD*
G04 #@! TA.AperFunction,ComponentPad*
%ADD11R,1.700000X1.700000*%
G04 #@! TD*
G04 #@! TA.AperFunction,ViaPad*
%ADD12C,0.800000*%
G04 #@! TD*
G04 #@! TA.AperFunction,ViaPad*
%ADD13C,1.000000*%
G04 #@! TD*
G04 #@! TA.AperFunction,Conductor*
%ADD14C,0.250000*%
G04 #@! TD*
G04 #@! TA.AperFunction,Conductor*
%ADD15C,0.254000*%
G04 #@! TD*
G04 APERTURE END LIST*
D10*
X109220000Y-129540000D03*
X106680000Y-129540000D03*
X109220000Y-127000000D03*
X106680000Y-127000000D03*
X109220000Y-124460000D03*
X106680000Y-124460000D03*
X109220000Y-121920000D03*
X106680000Y-121920000D03*
X109220000Y-119380000D03*
X106680000Y-119380000D03*
X109220000Y-116840000D03*
X106680000Y-116840000D03*
X109220000Y-114300000D03*
X106680000Y-114300000D03*
X109220000Y-111760000D03*
D11*
X106680000Y-111760000D03*
D10*
X109220000Y-101600000D03*
X106680000Y-101600000D03*
X109220000Y-99060000D03*
X106680000Y-99060000D03*
X109220000Y-96520000D03*
X106680000Y-96520000D03*
X109220000Y-93980000D03*
X106680000Y-93980000D03*
X109220000Y-91440000D03*
X106680000Y-91440000D03*
X109220000Y-88900000D03*
X106680000Y-88900000D03*
X109220000Y-86360000D03*
X106680000Y-86360000D03*
X109220000Y-83820000D03*
D11*
X106680000Y-83820000D03*
D10*
X109220000Y-73660000D03*
X106680000Y-73660000D03*
X109220000Y-71120000D03*
X106680000Y-71120000D03*
X109220000Y-68580000D03*
X106680000Y-68580000D03*
X109220000Y-66040000D03*
X106680000Y-66040000D03*
X109220000Y-63500000D03*
X106680000Y-63500000D03*
X109220000Y-60960000D03*
X106680000Y-60960000D03*
X109220000Y-58420000D03*
X106680000Y-58420000D03*
X109220000Y-55880000D03*
D11*
X106680000Y-55880000D03*
D10*
X147320000Y-129540000D03*
X147320000Y-127000000D03*
X147320000Y-124460000D03*
X147320000Y-121920000D03*
X147320000Y-119380000D03*
D11*
X147320000Y-116840000D03*
D10*
X147320000Y-58420000D03*
D11*
X147320000Y-55880000D03*
D10*
X147320000Y-106680000D03*
X147320000Y-104140000D03*
X147320000Y-101600000D03*
X147320000Y-99060000D03*
D11*
X147320000Y-96520000D03*
D10*
X147320000Y-88900000D03*
X147320000Y-86360000D03*
X147320000Y-83820000D03*
X147320000Y-81280000D03*
D11*
X147320000Y-78740000D03*
D12*
X125501400Y-102844600D03*
X137998200Y-88188800D03*
X138658600Y-87604600D03*
X130810000Y-101828600D03*
X130784600Y-102717600D03*
X132054600Y-83616800D03*
X132715000Y-83007200D03*
X140284200Y-95554800D03*
X140081000Y-94005400D03*
X132765800Y-79476600D03*
X133680200Y-79476600D03*
D13*
X141224000Y-61976000D03*
X141224000Y-63500000D03*
X138176000Y-61976000D03*
X138176000Y-63500000D03*
X139700000Y-61341000D03*
X139700000Y-62738000D03*
X139700000Y-64389000D03*
D12*
X120357961Y-90020169D03*
X119621464Y-89274988D03*
X126085600Y-102260400D03*
X137795000Y-103378000D03*
X132537200Y-100634800D03*
X138760200Y-88849200D03*
X139369800Y-88239600D03*
X137287000Y-98094800D03*
X138176000Y-98475800D03*
X129311400Y-101777800D03*
X129311400Y-102717600D03*
X119964200Y-87782400D03*
X131343400Y-82905600D03*
X131953000Y-82296000D03*
X134493000Y-83134200D03*
X134696200Y-85039200D03*
X128574800Y-79451200D03*
X129692400Y-78079600D03*
D13*
X141986000Y-57658000D03*
X144018000Y-59690000D03*
X144018000Y-57658000D03*
X144018000Y-61468000D03*
X140208000Y-57658000D03*
X146050000Y-61468000D03*
X144018000Y-63246000D03*
X146050000Y-63246000D03*
X148082000Y-61468000D03*
X148082000Y-63246000D03*
X150114000Y-61468000D03*
X150114000Y-63246000D03*
X150114000Y-65024000D03*
X150114000Y-66802000D03*
X150114000Y-68580000D03*
X150114000Y-70358000D03*
X150114000Y-72390000D03*
D12*
X118846600Y-90068400D03*
X119786392Y-91008192D03*
X124815600Y-102209600D03*
X122555000Y-99923600D03*
X135128000Y-82499200D03*
X119278400Y-87223600D03*
D13*
X127000000Y-53340000D03*
X127000000Y-60960000D03*
X127000000Y-68580000D03*
X127000000Y-76200000D03*
X127000000Y-129540000D03*
X127000000Y-121920000D03*
X127000000Y-114300000D03*
X127000000Y-106680000D03*
X119380000Y-106680000D03*
X119380000Y-114300000D03*
X119380000Y-121920000D03*
X119380000Y-129540000D03*
X134620000Y-129540000D03*
X134620000Y-121920000D03*
X134620000Y-114300000D03*
X134620000Y-106680000D03*
X134620000Y-68580000D03*
X142240000Y-68580000D03*
X142240000Y-76200000D03*
X134620000Y-76200000D03*
X119380000Y-76200000D03*
X119380000Y-60960000D03*
X119380000Y-53340000D03*
X134620000Y-53340000D03*
X134620000Y-60960000D03*
X119380000Y-68580000D03*
X111760000Y-76200000D03*
X119380000Y-83820000D03*
X127000000Y-83820000D03*
X111760000Y-53340000D03*
X142240000Y-53340000D03*
X149860000Y-53340000D03*
X104140000Y-53340000D03*
X142240000Y-106680000D03*
X142240000Y-114300000D03*
X142240000Y-83820000D03*
X142240000Y-91440000D03*
X142240000Y-99060000D03*
D12*
X125406730Y-101613564D03*
X130479800Y-95834199D03*
X122174000Y-60071000D03*
X122936000Y-62484000D03*
X123063000Y-64897000D03*
X122047000Y-67564000D03*
X121285000Y-70231000D03*
X120777000Y-72644000D03*
X121158000Y-74803000D03*
X127717601Y-91243201D03*
X126810590Y-92573148D03*
X129424975Y-88813347D03*
X129379210Y-87802060D03*
X129347156Y-89813248D03*
X129399647Y-90738773D03*
X111942058Y-95339021D03*
X112937711Y-95088289D03*
X131144822Y-88993728D03*
X132253386Y-89772211D03*
X131749800Y-91008200D03*
X131419600Y-95161421D03*
X132486400Y-94818200D03*
X133248400Y-94132400D03*
X133903889Y-93476911D03*
X134689296Y-87699296D03*
X134361999Y-86831996D03*
X125306590Y-83921600D03*
X125382790Y-85199984D03*
X124383800Y-84556600D03*
X104584821Y-105460800D03*
X105791000Y-104749600D03*
X123458846Y-84030815D03*
X120493759Y-96643159D03*
X121862468Y-96620650D03*
X123088400Y-97061806D03*
X129540000Y-97485200D03*
X130733800Y-97231200D03*
X131622800Y-96748600D03*
D14*
X147320000Y-124460000D02*
X144780000Y-121920000D01*
X137261599Y-95834199D02*
X130479800Y-95834199D01*
X144780000Y-103352600D02*
X137261599Y-95834199D01*
X144780000Y-121920000D02*
X144780000Y-103352600D01*
X107931001Y-59671001D02*
X106680000Y-58420000D01*
X121774001Y-59671001D02*
X107931001Y-59671001D01*
X122174000Y-60071000D02*
X121774001Y-59671001D01*
X107804001Y-62084001D02*
X106680000Y-60960000D01*
X122536001Y-62084001D02*
X107804001Y-62084001D01*
X122936000Y-62484000D02*
X122536001Y-62084001D01*
X108077000Y-64897000D02*
X106680000Y-63500000D01*
X123063000Y-64897000D02*
X108077000Y-64897000D01*
X122047000Y-67564000D02*
X121793000Y-67310000D01*
X107950000Y-67310000D02*
X106680000Y-66040000D01*
X121793000Y-67310000D02*
X107950000Y-67310000D01*
X107931001Y-69831001D02*
X106680000Y-68580000D01*
X120885001Y-69831001D02*
X107931001Y-69831001D01*
X121285000Y-70231000D02*
X120885001Y-69831001D01*
X107804001Y-72244001D02*
X106680000Y-71120000D01*
X120377001Y-72244001D02*
X107804001Y-72244001D01*
X120777000Y-72644000D02*
X120377001Y-72244001D01*
X107823000Y-74803000D02*
X106680000Y-73660000D01*
X121158000Y-74803000D02*
X107823000Y-74803000D01*
X126781164Y-93545252D02*
X127717601Y-92608815D01*
X127717601Y-92608815D02*
X127717601Y-91243201D01*
X109220000Y-101600000D02*
X110286800Y-101600000D01*
X118341548Y-93545252D02*
X126781164Y-93545252D01*
X110286800Y-101600000D02*
X118341548Y-93545252D01*
X112039626Y-99060000D02*
X117931385Y-93168241D01*
X109220000Y-99060000D02*
X112039626Y-99060000D01*
X117931385Y-93168241D02*
X126215497Y-93168241D01*
X126215497Y-93168241D02*
X126810590Y-92573148D01*
X130051657Y-89440029D02*
X129424975Y-88813347D01*
X130051657Y-91261010D02*
X130051657Y-89440029D01*
X128746613Y-91277230D02*
X129078062Y-91608679D01*
X127248481Y-90214190D02*
X128186727Y-90214191D01*
X117619059Y-92414219D02*
X125048452Y-92414219D01*
X113056078Y-96977200D02*
X117619059Y-92414219D01*
X110363226Y-96520000D02*
X110820426Y-96977200D01*
X109220000Y-96520000D02*
X110363226Y-96520000D01*
X129703988Y-91608679D02*
X130051657Y-91261010D01*
X110820426Y-96977200D02*
X113056078Y-96977200D01*
X128746613Y-90774077D02*
X128746613Y-91277230D01*
X128186727Y-90214191D02*
X128746613Y-90774077D01*
X129078062Y-91608679D02*
X129703988Y-91608679D01*
X125048452Y-92414219D02*
X127248481Y-90214190D01*
X128369602Y-90930240D02*
X128369603Y-91433394D01*
X127404644Y-90591201D02*
X128030563Y-90591201D01*
X130428668Y-88851518D02*
X129379210Y-87802060D01*
X108117999Y-95082001D02*
X108117999Y-97048961D01*
X108880448Y-97811410D02*
X112755042Y-97811410D01*
X128921899Y-91985690D02*
X129860152Y-91985689D01*
X128030563Y-90591201D02*
X128369602Y-90930240D01*
X130428668Y-91417173D02*
X130428668Y-88851518D01*
X117775222Y-92791230D02*
X125204616Y-92791229D01*
X125204616Y-92791229D02*
X127404644Y-90591201D01*
X112755042Y-97811410D02*
X117775222Y-92791230D01*
X108117999Y-97048961D02*
X108880448Y-97811410D01*
X129860152Y-91985689D02*
X130428668Y-91417173D01*
X128369603Y-91433394D02*
X128921899Y-91985690D01*
X109220000Y-93980000D02*
X108117999Y-95082001D01*
X126983073Y-89413249D02*
X128947157Y-89413249D01*
X128947157Y-89413249D02*
X129347156Y-89813248D01*
X110699012Y-95662212D02*
X111259978Y-96223178D01*
X117306733Y-91660197D02*
X124736125Y-91660197D01*
X124736125Y-91660197D02*
X126983073Y-89413249D01*
X112743752Y-96223178D02*
X117306733Y-91660197D01*
X111259978Y-96223178D02*
X112743752Y-96223178D01*
X109220000Y-91440000D02*
X110699012Y-92919012D01*
X110699012Y-92919012D02*
X110699012Y-95662212D01*
X108842989Y-92877999D02*
X109748961Y-92877999D01*
X129244483Y-90738773D02*
X129399647Y-90738773D01*
X110322001Y-93451039D02*
X110322001Y-95945601D01*
X109748961Y-92877999D02*
X110322001Y-93451039D01*
X110322001Y-95945601D02*
X110976589Y-96600189D01*
X112899915Y-96600189D02*
X117462896Y-92037208D01*
X127092317Y-89837179D02*
X128342891Y-89837181D01*
X108117999Y-90002001D02*
X108117999Y-92153009D01*
X108117999Y-92153009D02*
X108842989Y-92877999D01*
X117462896Y-92037208D02*
X124892289Y-92037207D01*
X124892289Y-92037207D02*
X127092317Y-89837179D01*
X128342891Y-89837181D02*
X129244483Y-90738773D01*
X110976589Y-96600189D02*
X112899915Y-96600189D01*
X109220000Y-88900000D02*
X108117999Y-90002001D01*
X109220000Y-86360000D02*
X111588601Y-88728601D01*
X111588601Y-88728601D02*
X111588601Y-94985564D01*
X111588601Y-94985564D02*
X111942058Y-95339021D01*
X112362011Y-86962011D02*
X109220000Y-83820000D01*
X112937711Y-95088289D02*
X112362011Y-86962011D01*
X124325022Y-86885422D02*
X129405474Y-86885422D01*
X119940266Y-82500666D02*
X124325022Y-86885422D01*
X108908372Y-82500666D02*
X119940266Y-82500666D01*
X108000800Y-83408238D02*
X108908372Y-82500666D01*
X106680000Y-88900000D02*
X108000800Y-87579200D01*
X131144822Y-88624770D02*
X131144822Y-88993728D01*
X129405474Y-86885422D02*
X131144822Y-88624770D01*
X108000800Y-87579200D02*
X108000800Y-83408238D01*
X124637348Y-86131400D02*
X129794000Y-86131400D01*
X105577999Y-82509001D02*
X106340356Y-81746644D01*
X105577999Y-85257999D02*
X105577999Y-82509001D01*
X129794000Y-86131400D02*
X132253386Y-88590786D01*
X106680000Y-86360000D02*
X105577999Y-85257999D01*
X120252592Y-81746644D02*
X124637348Y-86131400D01*
X132253386Y-88590786D02*
X132253386Y-89772211D01*
X106340356Y-81746644D02*
X120252592Y-81746644D01*
X108376345Y-82123655D02*
X106680000Y-83820000D01*
X131749800Y-91008200D02*
X131349801Y-90608201D01*
X131796824Y-88667398D02*
X129637837Y-86508411D01*
X129637837Y-86508411D02*
X124481185Y-86508411D01*
X120096429Y-82123655D02*
X108376345Y-82123655D01*
X124481185Y-86508411D02*
X120096429Y-82123655D01*
X131796824Y-89306690D02*
X131796824Y-88667398D01*
X131349801Y-90608201D02*
X131349801Y-89753713D01*
X131349801Y-89753713D02*
X131796824Y-89306690D01*
X106680000Y-108436832D02*
X119231828Y-95885004D01*
X106680000Y-111760000D02*
X106680000Y-108436832D01*
X119231828Y-95885004D02*
X129159879Y-95885004D01*
X129159879Y-95885004D02*
X129159883Y-95885000D01*
X129159883Y-95885000D02*
X129183948Y-95885000D01*
X129907527Y-95161421D02*
X131419600Y-95161421D01*
X129183948Y-95885000D02*
X129907527Y-95161421D01*
X105577999Y-109005661D02*
X105577999Y-113197999D01*
X119075661Y-95507999D02*
X105577999Y-109005661D01*
X129003710Y-95507999D02*
X119075661Y-95507999D01*
X130002298Y-94509411D02*
X129003710Y-95507999D01*
X105577999Y-113197999D02*
X106680000Y-114300000D01*
X132177611Y-94509411D02*
X130002298Y-94509411D01*
X132486400Y-94818200D02*
X132177611Y-94509411D01*
X129846134Y-94132401D02*
X128847547Y-95130988D01*
X105200988Y-108849498D02*
X105200990Y-115360990D01*
X133248400Y-94132400D02*
X129846134Y-94132401D01*
X105200990Y-115360990D02*
X106680000Y-116840000D01*
X118919497Y-95130989D02*
X105200988Y-108849498D01*
X128847547Y-95130988D02*
X118919497Y-95130989D01*
X104823979Y-108693333D02*
X104823979Y-117523979D01*
X118763335Y-94753977D02*
X104823979Y-108693333D01*
X129968450Y-93476911D02*
X128691384Y-94753977D01*
X133903889Y-93476911D02*
X129968450Y-93476911D01*
X128691384Y-94753977D02*
X118763335Y-94753977D01*
X104823979Y-117523979D02*
X106680000Y-119380000D01*
X104446968Y-108537170D02*
X104446968Y-119686968D01*
X128535221Y-94376966D02*
X118607171Y-94376967D01*
X118607171Y-94376967D02*
X104446968Y-108537170D01*
X133527800Y-92684600D02*
X130227587Y-92684600D01*
X130227587Y-92684600D02*
X128535221Y-94376966D01*
X134689296Y-87699296D02*
X134689296Y-91523104D01*
X104446968Y-119686968D02*
X106680000Y-121920000D01*
X134689296Y-91523104D02*
X133527800Y-92684600D01*
X128379064Y-93999949D02*
X118451010Y-93999949D01*
X118451010Y-93999949D02*
X104069957Y-108381002D01*
X104069957Y-121849957D02*
X106680000Y-124460000D01*
X133172200Y-92075000D02*
X130304013Y-92075000D01*
X104069957Y-108381002D02*
X104069957Y-121849957D01*
X133962000Y-87231995D02*
X133962000Y-91285200D01*
X130304013Y-92075000D02*
X128379064Y-93999949D01*
X134361999Y-86831996D02*
X133962000Y-87231995D01*
X133962000Y-91285200D02*
X133172200Y-92075000D01*
X122000601Y-80615611D02*
X125306590Y-83921600D01*
X105718563Y-80615611D02*
X122000601Y-80615611D01*
X103692946Y-82641228D02*
X105718563Y-80615611D01*
X103692946Y-124012946D02*
X103692946Y-82641228D01*
X106680000Y-127000000D02*
X103692946Y-124012946D01*
X103315937Y-82485063D02*
X103315937Y-126175937D01*
X105830001Y-128690001D02*
X106680000Y-129540000D01*
X122580400Y-80238600D02*
X105562400Y-80238600D01*
X103315937Y-126175937D02*
X105830001Y-128690001D01*
X125958600Y-83616800D02*
X122580400Y-80238600D01*
X125382790Y-85199984D02*
X125958600Y-84624174D01*
X105562400Y-80238600D02*
X103315937Y-82485063D01*
X125958600Y-84624174D02*
X125958600Y-83616800D01*
X124383800Y-83616800D02*
X121759622Y-80992622D01*
X121759622Y-80992622D02*
X105874726Y-80992622D01*
X105874726Y-80992622D02*
X104356221Y-82511127D01*
X104356221Y-82511127D02*
X104356221Y-105232200D01*
X124383800Y-84556600D02*
X124383800Y-83616800D01*
X104356221Y-105232200D02*
X104584821Y-105460800D01*
X104749600Y-82650922D02*
X106030889Y-81369633D01*
X104749600Y-103708200D02*
X104749600Y-82650922D01*
X105791000Y-104749600D02*
X104749600Y-103708200D01*
X120797664Y-81369633D02*
X123458846Y-84030815D01*
X106030889Y-81369633D02*
X120797664Y-81369633D01*
X120421400Y-96570800D02*
X120493759Y-96643159D01*
X119202200Y-96570800D02*
X120421400Y-96570800D01*
X109220000Y-116840000D02*
X110646389Y-115413611D01*
X110646389Y-105126611D02*
X119202200Y-96570800D01*
X110646389Y-115413611D02*
X110646389Y-105126611D01*
X119049800Y-97358200D02*
X121124918Y-97358200D01*
X111023400Y-105384600D02*
X119049800Y-97358200D01*
X121124918Y-97358200D02*
X121862468Y-96620650D01*
X109220000Y-119380000D02*
X111023400Y-117576600D01*
X111023400Y-117576600D02*
X111023400Y-105384600D01*
X109372400Y-121920000D02*
X109220000Y-121920000D01*
X111506000Y-119786400D02*
X109372400Y-121920000D01*
X122343394Y-97061806D02*
X121615200Y-97790000D01*
X123088400Y-97061806D02*
X122343394Y-97061806D01*
X121615200Y-97790000D02*
X119329200Y-97790000D01*
X119329200Y-97790000D02*
X111531400Y-105587800D01*
X111531400Y-105587800D02*
X111531400Y-113634198D01*
X111506000Y-113659598D02*
X111506000Y-119786400D01*
X111531400Y-113634198D02*
X111506000Y-113659598D01*
X111992589Y-121687411D02*
X109220000Y-124460000D01*
X119575672Y-98229780D02*
X111992589Y-105812863D01*
X111992589Y-105812863D02*
X111992589Y-121687411D01*
X122851820Y-98229780D02*
X119575672Y-98229780D01*
X129540000Y-97485200D02*
X123596400Y-97485200D01*
X123596400Y-97485200D02*
X122851820Y-98229780D01*
X110069999Y-126150001D02*
X109220000Y-127000000D01*
X129717800Y-98247200D02*
X123698000Y-98247200D01*
X123698000Y-98247200D02*
X123338410Y-98606790D01*
X119731836Y-98606790D02*
X112369600Y-105969026D01*
X112369600Y-123850400D02*
X110069999Y-126150001D01*
X130733800Y-97231200D02*
X129717800Y-98247200D01*
X123338410Y-98606790D02*
X119731836Y-98606790D01*
X112369600Y-105969026D02*
X112369600Y-123850400D01*
X119888000Y-98983800D02*
X112776000Y-106095800D01*
X112776000Y-125984000D02*
X109220000Y-129540000D01*
X129921000Y-98983800D02*
X119888000Y-98983800D01*
X112776000Y-106095800D02*
X112776000Y-125984000D01*
X131622800Y-96748600D02*
X131622800Y-97282000D01*
X131622800Y-97282000D02*
X129921000Y-98983800D01*
D15*
G36*
X150224545Y-51498909D02*
G01*
X150575208Y-51604780D01*
X150898625Y-51776744D01*
X151182484Y-52008254D01*
X151415965Y-52290486D01*
X151590183Y-52612695D01*
X151698502Y-52962614D01*
X151740001Y-53357452D01*
X151740000Y-132047721D01*
X151701091Y-132444545D01*
X151595220Y-132795206D01*
X151423257Y-133118623D01*
X151191748Y-133402482D01*
X150909514Y-133635965D01*
X150587304Y-133810184D01*
X150237385Y-133918502D01*
X149842557Y-133960000D01*
X104172279Y-133960000D01*
X103775455Y-133921091D01*
X103424794Y-133815220D01*
X103101377Y-133643257D01*
X102817518Y-133411748D01*
X102584035Y-133129514D01*
X102409816Y-132807304D01*
X102301498Y-132457385D01*
X102260000Y-132062557D01*
X102260000Y-82485063D01*
X102552261Y-82485063D01*
X102555937Y-82522385D01*
X102555938Y-126138604D01*
X102552261Y-126175937D01*
X102566935Y-126324922D01*
X102610391Y-126468183D01*
X102680963Y-126600213D01*
X102752138Y-126686939D01*
X102775937Y-126715938D01*
X102804935Y-126739736D01*
X105238790Y-129173593D01*
X105195000Y-129393740D01*
X105195000Y-129686260D01*
X105252068Y-129973158D01*
X105364010Y-130243411D01*
X105526525Y-130486632D01*
X105733368Y-130693475D01*
X105976589Y-130855990D01*
X106246842Y-130967932D01*
X106533740Y-131025000D01*
X106826260Y-131025000D01*
X107113158Y-130967932D01*
X107383411Y-130855990D01*
X107626632Y-130693475D01*
X107833475Y-130486632D01*
X107950000Y-130312240D01*
X108066525Y-130486632D01*
X108273368Y-130693475D01*
X108516589Y-130855990D01*
X108786842Y-130967932D01*
X109073740Y-131025000D01*
X109366260Y-131025000D01*
X109653158Y-130967932D01*
X109923411Y-130855990D01*
X110166632Y-130693475D01*
X110373475Y-130486632D01*
X110535990Y-130243411D01*
X110647932Y-129973158D01*
X110705000Y-129686260D01*
X110705000Y-129393740D01*
X110661210Y-129173592D01*
X113287008Y-126547795D01*
X113316001Y-126524001D01*
X113339795Y-126495008D01*
X113339799Y-126495004D01*
X113410973Y-126408277D01*
X113410974Y-126408276D01*
X113481546Y-126276247D01*
X113525003Y-126132986D01*
X113536000Y-126021333D01*
X113536000Y-126021324D01*
X113539676Y-125984001D01*
X113536000Y-125946678D01*
X113536000Y-106410601D01*
X117203940Y-102742661D01*
X124466400Y-102742661D01*
X124466400Y-102946539D01*
X124506174Y-103146498D01*
X124584195Y-103334856D01*
X124697463Y-103504374D01*
X124841626Y-103648537D01*
X125011144Y-103761805D01*
X125199502Y-103839826D01*
X125399461Y-103879600D01*
X125603339Y-103879600D01*
X125803298Y-103839826D01*
X125991656Y-103761805D01*
X126161174Y-103648537D01*
X126305337Y-103504374D01*
X126418605Y-103334856D01*
X126464663Y-103223663D01*
X126575856Y-103177605D01*
X126745374Y-103064337D01*
X126889537Y-102920174D01*
X127002805Y-102750656D01*
X127080826Y-102562298D01*
X127120600Y-102362339D01*
X127120600Y-102158461D01*
X127080826Y-101958502D01*
X127002805Y-101770144D01*
X126889537Y-101600626D01*
X126745374Y-101456463D01*
X126575856Y-101343195D01*
X126387498Y-101265174D01*
X126187539Y-101225400D01*
X125983661Y-101225400D01*
X125783702Y-101265174D01*
X125595344Y-101343195D01*
X125425826Y-101456463D01*
X125281663Y-101600626D01*
X125168395Y-101770144D01*
X125122337Y-101881337D01*
X125011144Y-101927395D01*
X124841626Y-102040663D01*
X124697463Y-102184826D01*
X124584195Y-102354344D01*
X124506174Y-102542702D01*
X124466400Y-102742661D01*
X117203940Y-102742661D01*
X120202802Y-99743800D01*
X129883678Y-99743800D01*
X129921000Y-99747476D01*
X129958322Y-99743800D01*
X129958333Y-99743800D01*
X130069986Y-99732803D01*
X130213247Y-99689346D01*
X130345276Y-99618774D01*
X130461001Y-99523801D01*
X130484804Y-99494797D01*
X131790998Y-98188604D01*
X132785405Y-99183011D01*
X131359183Y-100490381D01*
X131342568Y-100508922D01*
X131329889Y-100530348D01*
X131321634Y-100553836D01*
X131318000Y-100584000D01*
X131318000Y-100923251D01*
X131300256Y-100911395D01*
X131111898Y-100833374D01*
X130911939Y-100793600D01*
X130708061Y-100793600D01*
X130508102Y-100833374D01*
X130319744Y-100911395D01*
X130150226Y-101024663D01*
X130006063Y-101168826D01*
X129892795Y-101338344D01*
X129814774Y-101526702D01*
X129775000Y-101726661D01*
X129775000Y-101930539D01*
X129814774Y-102130498D01*
X129861142Y-102242440D01*
X129789374Y-102415702D01*
X129749600Y-102615661D01*
X129749600Y-102819539D01*
X129789374Y-103019498D01*
X129867395Y-103207856D01*
X129980663Y-103377374D01*
X130124826Y-103521537D01*
X130294344Y-103634805D01*
X130482702Y-103712826D01*
X130682661Y-103752600D01*
X130886539Y-103752600D01*
X131086498Y-103712826D01*
X131274856Y-103634805D01*
X131318000Y-103605977D01*
X131318000Y-104140000D01*
X131320440Y-104164776D01*
X131327667Y-104188601D01*
X131339403Y-104210557D01*
X131355197Y-104229803D01*
X131374443Y-104245597D01*
X131396399Y-104257333D01*
X131420224Y-104264560D01*
X131445000Y-104267000D01*
X139065000Y-104267000D01*
X139089776Y-104264560D01*
X139113601Y-104257333D01*
X139135557Y-104245597D01*
X139154803Y-104229803D01*
X139170597Y-104210557D01*
X139182333Y-104188601D01*
X139189560Y-104164776D01*
X139192000Y-104140000D01*
X139192000Y-100711000D01*
X139189560Y-100686224D01*
X139182333Y-100662399D01*
X139170597Y-100640443D01*
X139154803Y-100621197D01*
X137249803Y-98716197D01*
X137230557Y-98700403D01*
X137208601Y-98688667D01*
X137184776Y-98681440D01*
X137160000Y-98679000D01*
X134672606Y-98679000D01*
X132657800Y-96664194D01*
X132657800Y-96646661D01*
X132647365Y-96594199D01*
X136946798Y-96594199D01*
X144020001Y-103667403D01*
X144020000Y-121882678D01*
X144016324Y-121920000D01*
X144020000Y-121957322D01*
X144020000Y-121957332D01*
X144030997Y-122068985D01*
X144070258Y-122198414D01*
X144074454Y-122212246D01*
X144145026Y-122344276D01*
X144158718Y-122360959D01*
X144239999Y-122460001D01*
X144269003Y-122483804D01*
X145878790Y-124093593D01*
X145835000Y-124313740D01*
X145835000Y-124606260D01*
X145892068Y-124893158D01*
X146004010Y-125163411D01*
X146166525Y-125406632D01*
X146373368Y-125613475D01*
X146547760Y-125730000D01*
X146373368Y-125846525D01*
X146166525Y-126053368D01*
X146004010Y-126296589D01*
X145892068Y-126566842D01*
X145835000Y-126853740D01*
X145835000Y-127146260D01*
X145892068Y-127433158D01*
X146004010Y-127703411D01*
X146166525Y-127946632D01*
X146373368Y-128153475D01*
X146547760Y-128270000D01*
X146373368Y-128386525D01*
X146166525Y-128593368D01*
X146004010Y-128836589D01*
X145892068Y-129106842D01*
X145835000Y-129393740D01*
X145835000Y-129686260D01*
X145892068Y-129973158D01*
X146004010Y-130243411D01*
X146166525Y-130486632D01*
X146373368Y-130693475D01*
X146616589Y-130855990D01*
X146886842Y-130967932D01*
X147173740Y-131025000D01*
X147466260Y-131025000D01*
X147753158Y-130967932D01*
X148023411Y-130855990D01*
X148266632Y-130693475D01*
X148473475Y-130486632D01*
X148635990Y-130243411D01*
X148747932Y-129973158D01*
X148805000Y-129686260D01*
X148805000Y-129393740D01*
X148747932Y-129106842D01*
X148635990Y-128836589D01*
X148473475Y-128593368D01*
X148266632Y-128386525D01*
X148092240Y-128270000D01*
X148266632Y-128153475D01*
X148473475Y-127946632D01*
X148635990Y-127703411D01*
X148747932Y-127433158D01*
X148805000Y-127146260D01*
X148805000Y-126853740D01*
X148747932Y-126566842D01*
X148635990Y-126296589D01*
X148473475Y-126053368D01*
X148266632Y-125846525D01*
X148092240Y-125730000D01*
X148266632Y-125613475D01*
X148473475Y-125406632D01*
X148635990Y-125163411D01*
X148747932Y-124893158D01*
X148805000Y-124606260D01*
X148805000Y-124313740D01*
X148747932Y-124026842D01*
X148635990Y-123756589D01*
X148473475Y-123513368D01*
X148266632Y-123306525D01*
X148084466Y-123184805D01*
X148201355Y-123115178D01*
X148417588Y-122920269D01*
X148591641Y-122686920D01*
X148716825Y-122424099D01*
X148761476Y-122276890D01*
X148640155Y-122047000D01*
X147447000Y-122047000D01*
X147447000Y-122067000D01*
X147193000Y-122067000D01*
X147193000Y-122047000D01*
X147173000Y-122047000D01*
X147173000Y-121793000D01*
X147193000Y-121793000D01*
X147193000Y-121773000D01*
X147447000Y-121773000D01*
X147447000Y-121793000D01*
X148640155Y-121793000D01*
X148761476Y-121563110D01*
X148716825Y-121415901D01*
X148591641Y-121153080D01*
X148417588Y-120919731D01*
X148201355Y-120724822D01*
X148084466Y-120655195D01*
X148266632Y-120533475D01*
X148473475Y-120326632D01*
X148635990Y-120083411D01*
X148747932Y-119813158D01*
X148805000Y-119526260D01*
X148805000Y-119233740D01*
X148747932Y-118946842D01*
X148635990Y-118676589D01*
X148473475Y-118433368D01*
X148341620Y-118301513D01*
X148414180Y-118279502D01*
X148524494Y-118220537D01*
X148621185Y-118141185D01*
X148700537Y-118044494D01*
X148759502Y-117934180D01*
X148795812Y-117814482D01*
X148808072Y-117690000D01*
X148808072Y-115990000D01*
X148795812Y-115865518D01*
X148759502Y-115745820D01*
X148700537Y-115635506D01*
X148621185Y-115538815D01*
X148524494Y-115459463D01*
X148414180Y-115400498D01*
X148294482Y-115364188D01*
X148170000Y-115351928D01*
X146470000Y-115351928D01*
X146345518Y-115364188D01*
X146225820Y-115400498D01*
X146115506Y-115459463D01*
X146018815Y-115538815D01*
X145939463Y-115635506D01*
X145880498Y-115745820D01*
X145844188Y-115865518D01*
X145831928Y-115990000D01*
X145831928Y-117690000D01*
X145844188Y-117814482D01*
X145880498Y-117934180D01*
X145939463Y-118044494D01*
X146018815Y-118141185D01*
X146115506Y-118220537D01*
X146225820Y-118279502D01*
X146298380Y-118301513D01*
X146166525Y-118433368D01*
X146004010Y-118676589D01*
X145892068Y-118946842D01*
X145835000Y-119233740D01*
X145835000Y-119526260D01*
X145892068Y-119813158D01*
X146004010Y-120083411D01*
X146166525Y-120326632D01*
X146373368Y-120533475D01*
X146555534Y-120655195D01*
X146438645Y-120724822D01*
X146222412Y-120919731D01*
X146048359Y-121153080D01*
X145923175Y-121415901D01*
X145878524Y-121563110D01*
X145999844Y-121792998D01*
X145835000Y-121792998D01*
X145835000Y-121900199D01*
X145540000Y-121605199D01*
X145540000Y-107036890D01*
X145878524Y-107036890D01*
X145923175Y-107184099D01*
X146048359Y-107446920D01*
X146222412Y-107680269D01*
X146438645Y-107875178D01*
X146688748Y-108024157D01*
X146963109Y-108121481D01*
X147193000Y-108000814D01*
X147193000Y-106807000D01*
X147447000Y-106807000D01*
X147447000Y-108000814D01*
X147676891Y-108121481D01*
X147951252Y-108024157D01*
X148201355Y-107875178D01*
X148417588Y-107680269D01*
X148591641Y-107446920D01*
X148716825Y-107184099D01*
X148761476Y-107036890D01*
X148640155Y-106807000D01*
X147447000Y-106807000D01*
X147193000Y-106807000D01*
X145999845Y-106807000D01*
X145878524Y-107036890D01*
X145540000Y-107036890D01*
X145540000Y-104496890D01*
X145878524Y-104496890D01*
X145923175Y-104644099D01*
X146048359Y-104906920D01*
X146222412Y-105140269D01*
X146438645Y-105335178D01*
X146564255Y-105410000D01*
X146438645Y-105484822D01*
X146222412Y-105679731D01*
X146048359Y-105913080D01*
X145923175Y-106175901D01*
X145878524Y-106323110D01*
X145999845Y-106553000D01*
X147193000Y-106553000D01*
X147193000Y-104267000D01*
X147447000Y-104267000D01*
X147447000Y-106553000D01*
X148640155Y-106553000D01*
X148761476Y-106323110D01*
X148716825Y-106175901D01*
X148591641Y-105913080D01*
X148417588Y-105679731D01*
X148201355Y-105484822D01*
X148075745Y-105410000D01*
X148201355Y-105335178D01*
X148417588Y-105140269D01*
X148591641Y-104906920D01*
X148716825Y-104644099D01*
X148761476Y-104496890D01*
X148640155Y-104267000D01*
X147447000Y-104267000D01*
X147193000Y-104267000D01*
X145999845Y-104267000D01*
X145878524Y-104496890D01*
X145540000Y-104496890D01*
X145540000Y-103389925D01*
X145543676Y-103352600D01*
X145540000Y-103315275D01*
X145540000Y-103315267D01*
X145529003Y-103203614D01*
X145485546Y-103060353D01*
X145414974Y-102928324D01*
X145320001Y-102812599D01*
X145291003Y-102788801D01*
X144459092Y-101956890D01*
X145878524Y-101956890D01*
X145923175Y-102104099D01*
X146048359Y-102366920D01*
X146222412Y-102600269D01*
X146438645Y-102795178D01*
X146564255Y-102870000D01*
X146438645Y-102944822D01*
X146222412Y-103139731D01*
X146048359Y-103373080D01*
X145923175Y-103635901D01*
X145878524Y-103783110D01*
X145999845Y-104013000D01*
X147193000Y-104013000D01*
X147193000Y-101727000D01*
X147447000Y-101727000D01*
X147447000Y-104013000D01*
X148640155Y-104013000D01*
X148761476Y-103783110D01*
X148716825Y-103635901D01*
X148591641Y-103373080D01*
X148417588Y-103139731D01*
X148201355Y-102944822D01*
X148075745Y-102870000D01*
X148201355Y-102795178D01*
X148417588Y-102600269D01*
X148591641Y-102366920D01*
X148716825Y-102104099D01*
X148761476Y-101956890D01*
X148640155Y-101727000D01*
X147447000Y-101727000D01*
X147193000Y-101727000D01*
X145999845Y-101727000D01*
X145878524Y-101956890D01*
X144459092Y-101956890D01*
X141919092Y-99416890D01*
X145878524Y-99416890D01*
X145923175Y-99564099D01*
X146048359Y-99826920D01*
X146222412Y-100060269D01*
X146438645Y-100255178D01*
X146564255Y-100330000D01*
X146438645Y-100404822D01*
X146222412Y-100599731D01*
X146048359Y-100833080D01*
X145923175Y-101095901D01*
X145878524Y-101243110D01*
X145999845Y-101473000D01*
X147193000Y-101473000D01*
X147193000Y-99187000D01*
X147447000Y-99187000D01*
X147447000Y-101473000D01*
X148640155Y-101473000D01*
X148761476Y-101243110D01*
X148716825Y-101095901D01*
X148591641Y-100833080D01*
X148417588Y-100599731D01*
X148201355Y-100404822D01*
X148075745Y-100330000D01*
X148201355Y-100255178D01*
X148417588Y-100060269D01*
X148591641Y-99826920D01*
X148716825Y-99564099D01*
X148761476Y-99416890D01*
X148640155Y-99187000D01*
X147447000Y-99187000D01*
X147193000Y-99187000D01*
X145999845Y-99187000D01*
X145878524Y-99416890D01*
X141919092Y-99416890D01*
X139872202Y-97370000D01*
X145831928Y-97370000D01*
X145844188Y-97494482D01*
X145880498Y-97614180D01*
X145939463Y-97724494D01*
X146018815Y-97821185D01*
X146115506Y-97900537D01*
X146225820Y-97959502D01*
X146306466Y-97983966D01*
X146222412Y-98059731D01*
X146048359Y-98293080D01*
X145923175Y-98555901D01*
X145878524Y-98703110D01*
X145999845Y-98933000D01*
X147193000Y-98933000D01*
X147193000Y-96647000D01*
X147447000Y-96647000D01*
X147447000Y-98933000D01*
X148640155Y-98933000D01*
X148761476Y-98703110D01*
X148716825Y-98555901D01*
X148591641Y-98293080D01*
X148417588Y-98059731D01*
X148333534Y-97983966D01*
X148414180Y-97959502D01*
X148524494Y-97900537D01*
X148621185Y-97821185D01*
X148700537Y-97724494D01*
X148759502Y-97614180D01*
X148795812Y-97494482D01*
X148808072Y-97370000D01*
X148805000Y-96805750D01*
X148646250Y-96647000D01*
X147447000Y-96647000D01*
X147193000Y-96647000D01*
X145993750Y-96647000D01*
X145835000Y-96805750D01*
X145831928Y-97370000D01*
X139872202Y-97370000D01*
X137825403Y-95323202D01*
X137801600Y-95294198D01*
X137685875Y-95199225D01*
X137553846Y-95128653D01*
X137410585Y-95085196D01*
X137298932Y-95074199D01*
X137298921Y-95074199D01*
X137261599Y-95070523D01*
X137224277Y-95074199D01*
X133679281Y-95074199D01*
X133738656Y-95049605D01*
X133908174Y-94936337D01*
X134052337Y-94792174D01*
X134165605Y-94622656D01*
X134232543Y-94461054D01*
X134394145Y-94394116D01*
X134563663Y-94280848D01*
X134707826Y-94136685D01*
X134821094Y-93967167D01*
X134847482Y-93903461D01*
X139046000Y-93903461D01*
X139046000Y-94107339D01*
X139085774Y-94307298D01*
X139163795Y-94495656D01*
X139277063Y-94665174D01*
X139421226Y-94809337D01*
X139507983Y-94867306D01*
X139480263Y-94895026D01*
X139366995Y-95064544D01*
X139288974Y-95252902D01*
X139249200Y-95452861D01*
X139249200Y-95656739D01*
X139288974Y-95856698D01*
X139366995Y-96045056D01*
X139480263Y-96214574D01*
X139624426Y-96358737D01*
X139793944Y-96472005D01*
X139982302Y-96550026D01*
X140182261Y-96589800D01*
X140386139Y-96589800D01*
X140586098Y-96550026D01*
X140774456Y-96472005D01*
X140943974Y-96358737D01*
X141088137Y-96214574D01*
X141201405Y-96045056D01*
X141279426Y-95856698D01*
X141316562Y-95670000D01*
X145831928Y-95670000D01*
X145835000Y-96234250D01*
X145993750Y-96393000D01*
X147193000Y-96393000D01*
X147193000Y-95193750D01*
X147447000Y-95193750D01*
X147447000Y-96393000D01*
X148646250Y-96393000D01*
X148805000Y-96234250D01*
X148808072Y-95670000D01*
X148795812Y-95545518D01*
X148759502Y-95425820D01*
X148700537Y-95315506D01*
X148621185Y-95218815D01*
X148524494Y-95139463D01*
X148414180Y-95080498D01*
X148294482Y-95044188D01*
X148170000Y-95031928D01*
X147605750Y-95035000D01*
X147447000Y-95193750D01*
X147193000Y-95193750D01*
X147034250Y-95035000D01*
X146470000Y-95031928D01*
X146345518Y-95044188D01*
X146225820Y-95080498D01*
X146115506Y-95139463D01*
X146018815Y-95218815D01*
X145939463Y-95315506D01*
X145880498Y-95425820D01*
X145844188Y-95545518D01*
X145831928Y-95670000D01*
X141316562Y-95670000D01*
X141319200Y-95656739D01*
X141319200Y-95452861D01*
X141279426Y-95252902D01*
X141201405Y-95064544D01*
X141088137Y-94895026D01*
X140943974Y-94750863D01*
X140857217Y-94692894D01*
X140884937Y-94665174D01*
X140998205Y-94495656D01*
X141076226Y-94307298D01*
X141116000Y-94107339D01*
X141116000Y-93903461D01*
X141076226Y-93703502D01*
X140998205Y-93515144D01*
X140884937Y-93345626D01*
X140740774Y-93201463D01*
X140571256Y-93088195D01*
X140382898Y-93010174D01*
X140182939Y-92970400D01*
X139979061Y-92970400D01*
X139779102Y-93010174D01*
X139590744Y-93088195D01*
X139421226Y-93201463D01*
X139277063Y-93345626D01*
X139163795Y-93515144D01*
X139085774Y-93703502D01*
X139046000Y-93903461D01*
X134847482Y-93903461D01*
X134899115Y-93778809D01*
X134938889Y-93578850D01*
X134938889Y-93374972D01*
X134899115Y-93175013D01*
X134821094Y-92986655D01*
X134707826Y-92817137D01*
X134588945Y-92698256D01*
X135200304Y-92086899D01*
X135229297Y-92063105D01*
X135253091Y-92034112D01*
X135253095Y-92034108D01*
X135320115Y-91952443D01*
X135324270Y-91947380D01*
X135394842Y-91815351D01*
X135438299Y-91672090D01*
X135449296Y-91560437D01*
X135449296Y-91560428D01*
X135452972Y-91523105D01*
X135449296Y-91485782D01*
X135449296Y-88403007D01*
X135493233Y-88359070D01*
X135606501Y-88189552D01*
X135649037Y-88086861D01*
X136963200Y-88086861D01*
X136963200Y-88290739D01*
X137002974Y-88490698D01*
X137080995Y-88679056D01*
X137194263Y-88848574D01*
X137338426Y-88992737D01*
X137507944Y-89106005D01*
X137696302Y-89184026D01*
X137896261Y-89223800D01*
X138100139Y-89223800D01*
X138300098Y-89184026D01*
X138488456Y-89106005D01*
X138657974Y-88992737D01*
X138802137Y-88848574D01*
X138915405Y-88679056D01*
X138947121Y-88602487D01*
X138960498Y-88599826D01*
X139148856Y-88521805D01*
X139318374Y-88408537D01*
X139462537Y-88264374D01*
X139575805Y-88094856D01*
X139653826Y-87906498D01*
X139693600Y-87706539D01*
X139693600Y-87502661D01*
X139653826Y-87302702D01*
X139575805Y-87114344D01*
X139462537Y-86944826D01*
X139318374Y-86800663D01*
X139148856Y-86687395D01*
X138960498Y-86609374D01*
X138760539Y-86569600D01*
X138556661Y-86569600D01*
X138356702Y-86609374D01*
X138168344Y-86687395D01*
X137998826Y-86800663D01*
X137854663Y-86944826D01*
X137741395Y-87114344D01*
X137709679Y-87190913D01*
X137696302Y-87193574D01*
X137507944Y-87271595D01*
X137338426Y-87384863D01*
X137194263Y-87529026D01*
X137080995Y-87698544D01*
X137002974Y-87886902D01*
X136963200Y-88086861D01*
X135649037Y-88086861D01*
X135684522Y-88001194D01*
X135724296Y-87801235D01*
X135724296Y-87597357D01*
X135684522Y-87397398D01*
X135606501Y-87209040D01*
X135493233Y-87039522D01*
X135395447Y-86941736D01*
X135396999Y-86933935D01*
X135396999Y-86730057D01*
X135357225Y-86530098D01*
X135279204Y-86341740D01*
X135165936Y-86172222D01*
X135021773Y-86028059D01*
X134852255Y-85914791D01*
X134663897Y-85836770D01*
X134463938Y-85796996D01*
X134260060Y-85796996D01*
X134060101Y-85836770D01*
X133871743Y-85914791D01*
X133702225Y-86028059D01*
X133558062Y-86172222D01*
X133444794Y-86341740D01*
X133366773Y-86530098D01*
X133326999Y-86730057D01*
X133326999Y-86807770D01*
X133280181Y-86895359D01*
X133256454Y-86939749D01*
X133212997Y-87083010D01*
X133202000Y-87194663D01*
X133202000Y-87194673D01*
X133198324Y-87231995D01*
X133202000Y-87269318D01*
X133202001Y-89357784D01*
X133170591Y-89281955D01*
X133057323Y-89112437D01*
X133013386Y-89068500D01*
X133013386Y-88628108D01*
X133017062Y-88590785D01*
X133013386Y-88553462D01*
X133013386Y-88553453D01*
X133002389Y-88441800D01*
X132958932Y-88298539D01*
X132940670Y-88264374D01*
X132888360Y-88166509D01*
X132817185Y-88079783D01*
X132793387Y-88050785D01*
X132764390Y-88026988D01*
X130357804Y-85620403D01*
X130334001Y-85591399D01*
X130218276Y-85496426D01*
X130086247Y-85425854D01*
X129942986Y-85382397D01*
X129831333Y-85371400D01*
X129831322Y-85371400D01*
X129794000Y-85367724D01*
X129756678Y-85371400D01*
X126403970Y-85371400D01*
X126417790Y-85301923D01*
X126417790Y-85239786D01*
X126469604Y-85187972D01*
X126498601Y-85164175D01*
X126593574Y-85048450D01*
X126664146Y-84916421D01*
X126707603Y-84773160D01*
X126718600Y-84661507D01*
X126718600Y-84661498D01*
X126722276Y-84624175D01*
X126718600Y-84586852D01*
X126718600Y-83654122D01*
X126722276Y-83616799D01*
X126718600Y-83579476D01*
X126718600Y-83579467D01*
X126712237Y-83514861D01*
X131019600Y-83514861D01*
X131019600Y-83718739D01*
X131059374Y-83918698D01*
X131137395Y-84107056D01*
X131250663Y-84276574D01*
X131394826Y-84420737D01*
X131564344Y-84534005D01*
X131752702Y-84612026D01*
X131952661Y-84651800D01*
X132156539Y-84651800D01*
X132356498Y-84612026D01*
X132544856Y-84534005D01*
X132714374Y-84420737D01*
X132858537Y-84276574D01*
X132971805Y-84107056D01*
X133014987Y-84002806D01*
X133016898Y-84002426D01*
X133205256Y-83924405D01*
X133374774Y-83811137D01*
X133518937Y-83666974D01*
X133632205Y-83497456D01*
X133710226Y-83309098D01*
X133750000Y-83109139D01*
X133750000Y-82905261D01*
X133710226Y-82705302D01*
X133632205Y-82516944D01*
X133518937Y-82347426D01*
X133374774Y-82203263D01*
X133205256Y-82089995D01*
X133016898Y-82011974D01*
X132816939Y-81972200D01*
X132613061Y-81972200D01*
X132413102Y-82011974D01*
X132224744Y-82089995D01*
X132055226Y-82203263D01*
X131911063Y-82347426D01*
X131797795Y-82516944D01*
X131754613Y-82621194D01*
X131752702Y-82621574D01*
X131564344Y-82699595D01*
X131394826Y-82812863D01*
X131250663Y-82957026D01*
X131137395Y-83126544D01*
X131059374Y-83314902D01*
X131019600Y-83514861D01*
X126712237Y-83514861D01*
X126707603Y-83467814D01*
X126664146Y-83324553D01*
X126593574Y-83192524D01*
X126498601Y-83076799D01*
X126469603Y-83053001D01*
X123144204Y-79727603D01*
X123120401Y-79698599D01*
X123004676Y-79603626D01*
X122872647Y-79533054D01*
X122729386Y-79489597D01*
X122617733Y-79478600D01*
X122617722Y-79478600D01*
X122580400Y-79474924D01*
X122543078Y-79478600D01*
X105599722Y-79478600D01*
X105562399Y-79474924D01*
X105525076Y-79478600D01*
X105525067Y-79478600D01*
X105413414Y-79489597D01*
X105270153Y-79533054D01*
X105138124Y-79603626D01*
X105138122Y-79603627D01*
X105138123Y-79603627D01*
X105051396Y-79674801D01*
X105051392Y-79674805D01*
X105022399Y-79698599D01*
X104998605Y-79727592D01*
X102804939Y-81921259D01*
X102775936Y-81945062D01*
X102721023Y-82011974D01*
X102680963Y-82060787D01*
X102654166Y-82110921D01*
X102610391Y-82192817D01*
X102566934Y-82336078D01*
X102555937Y-82447731D01*
X102555937Y-82447741D01*
X102552261Y-82485063D01*
X102260000Y-82485063D01*
X102260000Y-79374661D01*
X131730800Y-79374661D01*
X131730800Y-79578539D01*
X131770574Y-79778498D01*
X131848595Y-79966856D01*
X131961863Y-80136374D01*
X132106026Y-80280537D01*
X132275544Y-80393805D01*
X132463902Y-80471826D01*
X132663861Y-80511600D01*
X132867739Y-80511600D01*
X133067698Y-80471826D01*
X133223000Y-80407497D01*
X133378302Y-80471826D01*
X133578261Y-80511600D01*
X133782139Y-80511600D01*
X133982098Y-80471826D01*
X134170456Y-80393805D01*
X134339974Y-80280537D01*
X134484137Y-80136374D01*
X134597405Y-79966856D01*
X134675426Y-79778498D01*
X134715200Y-79578539D01*
X134715200Y-79374661D01*
X134675426Y-79174702D01*
X134597405Y-78986344D01*
X134484137Y-78816826D01*
X134339974Y-78672663D01*
X134170456Y-78559395D01*
X133982098Y-78481374D01*
X133782139Y-78441600D01*
X133578261Y-78441600D01*
X133378302Y-78481374D01*
X133223000Y-78545703D01*
X133067698Y-78481374D01*
X132867739Y-78441600D01*
X132663861Y-78441600D01*
X132463902Y-78481374D01*
X132275544Y-78559395D01*
X132106026Y-78672663D01*
X131961863Y-78816826D01*
X131848595Y-78986344D01*
X131770574Y-79174702D01*
X131730800Y-79374661D01*
X102260000Y-79374661D01*
X102260000Y-77890000D01*
X145831928Y-77890000D01*
X145831928Y-79590000D01*
X145844188Y-79714482D01*
X145880498Y-79834180D01*
X145939463Y-79944494D01*
X146018815Y-80041185D01*
X146115506Y-80120537D01*
X146225820Y-80179502D01*
X146298380Y-80201513D01*
X146166525Y-80333368D01*
X146004010Y-80576589D01*
X145892068Y-80846842D01*
X145835000Y-81133740D01*
X145835000Y-81426260D01*
X145892068Y-81713158D01*
X146004010Y-81983411D01*
X146166525Y-82226632D01*
X146373368Y-82433475D01*
X146547760Y-82550000D01*
X146373368Y-82666525D01*
X146166525Y-82873368D01*
X146004010Y-83116589D01*
X145892068Y-83386842D01*
X145835000Y-83673740D01*
X145835000Y-83966260D01*
X145892068Y-84253158D01*
X146004010Y-84523411D01*
X146166525Y-84766632D01*
X146373368Y-84973475D01*
X146547760Y-85090000D01*
X146373368Y-85206525D01*
X146166525Y-85413368D01*
X146004010Y-85656589D01*
X145892068Y-85926842D01*
X145835000Y-86213740D01*
X145835000Y-86506260D01*
X145892068Y-86793158D01*
X146004010Y-87063411D01*
X146166525Y-87306632D01*
X146373368Y-87513475D01*
X146547760Y-87630000D01*
X146373368Y-87746525D01*
X146166525Y-87953368D01*
X146004010Y-88196589D01*
X145892068Y-88466842D01*
X145835000Y-88753740D01*
X145835000Y-89046260D01*
X145892068Y-89333158D01*
X146004010Y-89603411D01*
X146166525Y-89846632D01*
X146373368Y-90053475D01*
X146616589Y-90215990D01*
X146886842Y-90327932D01*
X147173740Y-90385000D01*
X147466260Y-90385000D01*
X147753158Y-90327932D01*
X148023411Y-90215990D01*
X148266632Y-90053475D01*
X148473475Y-89846632D01*
X148635990Y-89603411D01*
X148747932Y-89333158D01*
X148805000Y-89046260D01*
X148805000Y-88753740D01*
X148747932Y-88466842D01*
X148635990Y-88196589D01*
X148473475Y-87953368D01*
X148266632Y-87746525D01*
X148092240Y-87630000D01*
X148266632Y-87513475D01*
X148473475Y-87306632D01*
X148635990Y-87063411D01*
X148747932Y-86793158D01*
X148805000Y-86506260D01*
X148805000Y-86213740D01*
X148747932Y-85926842D01*
X148635990Y-85656589D01*
X148473475Y-85413368D01*
X148266632Y-85206525D01*
X148092240Y-85090000D01*
X148266632Y-84973475D01*
X148473475Y-84766632D01*
X148635990Y-84523411D01*
X148747932Y-84253158D01*
X148805000Y-83966260D01*
X148805000Y-83673740D01*
X148747932Y-83386842D01*
X148635990Y-83116589D01*
X148473475Y-82873368D01*
X148266632Y-82666525D01*
X148092240Y-82550000D01*
X148266632Y-82433475D01*
X148473475Y-82226632D01*
X148635990Y-81983411D01*
X148747932Y-81713158D01*
X148805000Y-81426260D01*
X148805000Y-81133740D01*
X148747932Y-80846842D01*
X148635990Y-80576589D01*
X148473475Y-80333368D01*
X148341620Y-80201513D01*
X148414180Y-80179502D01*
X148524494Y-80120537D01*
X148621185Y-80041185D01*
X148700537Y-79944494D01*
X148759502Y-79834180D01*
X148795812Y-79714482D01*
X148808072Y-79590000D01*
X148808072Y-77890000D01*
X148795812Y-77765518D01*
X148759502Y-77645820D01*
X148700537Y-77535506D01*
X148621185Y-77438815D01*
X148524494Y-77359463D01*
X148414180Y-77300498D01*
X148294482Y-77264188D01*
X148170000Y-77251928D01*
X146470000Y-77251928D01*
X146345518Y-77264188D01*
X146225820Y-77300498D01*
X146115506Y-77359463D01*
X146018815Y-77438815D01*
X145939463Y-77535506D01*
X145880498Y-77645820D01*
X145844188Y-77765518D01*
X145831928Y-77890000D01*
X102260000Y-77890000D01*
X102260000Y-55030000D01*
X105191928Y-55030000D01*
X105191928Y-56730000D01*
X105204188Y-56854482D01*
X105240498Y-56974180D01*
X105299463Y-57084494D01*
X105378815Y-57181185D01*
X105475506Y-57260537D01*
X105585820Y-57319502D01*
X105658380Y-57341513D01*
X105526525Y-57473368D01*
X105364010Y-57716589D01*
X105252068Y-57986842D01*
X105195000Y-58273740D01*
X105195000Y-58566260D01*
X105252068Y-58853158D01*
X105364010Y-59123411D01*
X105526525Y-59366632D01*
X105733368Y-59573475D01*
X105907760Y-59690000D01*
X105733368Y-59806525D01*
X105526525Y-60013368D01*
X105364010Y-60256589D01*
X105252068Y-60526842D01*
X105195000Y-60813740D01*
X105195000Y-61106260D01*
X105252068Y-61393158D01*
X105364010Y-61663411D01*
X105526525Y-61906632D01*
X105733368Y-62113475D01*
X105907760Y-62230000D01*
X105733368Y-62346525D01*
X105526525Y-62553368D01*
X105364010Y-62796589D01*
X105252068Y-63066842D01*
X105195000Y-63353740D01*
X105195000Y-63646260D01*
X105252068Y-63933158D01*
X105364010Y-64203411D01*
X105526525Y-64446632D01*
X105733368Y-64653475D01*
X105907760Y-64770000D01*
X105733368Y-64886525D01*
X105526525Y-65093368D01*
X105364010Y-65336589D01*
X105252068Y-65606842D01*
X105195000Y-65893740D01*
X105195000Y-66186260D01*
X105252068Y-66473158D01*
X105364010Y-66743411D01*
X105526525Y-66986632D01*
X105733368Y-67193475D01*
X105907760Y-67310000D01*
X105733368Y-67426525D01*
X105526525Y-67633368D01*
X105364010Y-67876589D01*
X105252068Y-68146842D01*
X105195000Y-68433740D01*
X105195000Y-68726260D01*
X105252068Y-69013158D01*
X105364010Y-69283411D01*
X105526525Y-69526632D01*
X105733368Y-69733475D01*
X105907760Y-69850000D01*
X105733368Y-69966525D01*
X105526525Y-70173368D01*
X105364010Y-70416589D01*
X105252068Y-70686842D01*
X105195000Y-70973740D01*
X105195000Y-71266260D01*
X105252068Y-71553158D01*
X105364010Y-71823411D01*
X105526525Y-72066632D01*
X105733368Y-72273475D01*
X105907760Y-72390000D01*
X105733368Y-72506525D01*
X105526525Y-72713368D01*
X105364010Y-72956589D01*
X105252068Y-73226842D01*
X105195000Y-73513740D01*
X105195000Y-73806260D01*
X105252068Y-74093158D01*
X105364010Y-74363411D01*
X105526525Y-74606632D01*
X105733368Y-74813475D01*
X105976589Y-74975990D01*
X106246842Y-75087932D01*
X106533740Y-75145000D01*
X106826260Y-75145000D01*
X107046408Y-75101210D01*
X107259201Y-75314003D01*
X107282999Y-75343001D01*
X107311997Y-75366799D01*
X107398723Y-75437974D01*
X107530753Y-75508546D01*
X107674014Y-75552003D01*
X107785667Y-75563000D01*
X107785676Y-75563000D01*
X107822999Y-75566676D01*
X107860322Y-75563000D01*
X120454289Y-75563000D01*
X120498226Y-75606937D01*
X120667744Y-75720205D01*
X120856102Y-75798226D01*
X121056061Y-75838000D01*
X121259939Y-75838000D01*
X121459898Y-75798226D01*
X121648256Y-75720205D01*
X121817774Y-75606937D01*
X121961937Y-75462774D01*
X122075205Y-75293256D01*
X122153226Y-75104898D01*
X122193000Y-74904939D01*
X122193000Y-74701061D01*
X122153226Y-74501102D01*
X122075205Y-74312744D01*
X121961937Y-74143226D01*
X121817774Y-73999063D01*
X121648256Y-73885795D01*
X121459898Y-73807774D01*
X121259939Y-73768000D01*
X121056061Y-73768000D01*
X120856102Y-73807774D01*
X120667744Y-73885795D01*
X120498226Y-73999063D01*
X120454289Y-74043000D01*
X110657909Y-74043000D01*
X110705000Y-73806260D01*
X110705000Y-73513740D01*
X110647932Y-73226842D01*
X110555629Y-73004001D01*
X119805841Y-73004001D01*
X119859795Y-73134256D01*
X119973063Y-73303774D01*
X120117226Y-73447937D01*
X120286744Y-73561205D01*
X120475102Y-73639226D01*
X120675061Y-73679000D01*
X120878939Y-73679000D01*
X121078898Y-73639226D01*
X121267256Y-73561205D01*
X121436774Y-73447937D01*
X121580937Y-73303774D01*
X121694205Y-73134256D01*
X121772226Y-72945898D01*
X121812000Y-72745939D01*
X121812000Y-72542061D01*
X121772226Y-72342102D01*
X121694205Y-72153744D01*
X121580937Y-71984226D01*
X121436774Y-71840063D01*
X121267256Y-71726795D01*
X121078898Y-71648774D01*
X120878939Y-71609000D01*
X120801226Y-71609000D01*
X120669248Y-71538455D01*
X120525987Y-71494998D01*
X120414334Y-71484001D01*
X120414323Y-71484001D01*
X120377001Y-71480325D01*
X120339679Y-71484001D01*
X110661688Y-71484001D01*
X110705000Y-71266260D01*
X110705000Y-70973740D01*
X110647932Y-70686842D01*
X110608234Y-70591001D01*
X120313841Y-70591001D01*
X120367795Y-70721256D01*
X120481063Y-70890774D01*
X120625226Y-71034937D01*
X120794744Y-71148205D01*
X120983102Y-71226226D01*
X121183061Y-71266000D01*
X121386939Y-71266000D01*
X121586898Y-71226226D01*
X121775256Y-71148205D01*
X121944774Y-71034937D01*
X122088937Y-70890774D01*
X122202205Y-70721256D01*
X122280226Y-70532898D01*
X122320000Y-70332939D01*
X122320000Y-70129061D01*
X122280226Y-69929102D01*
X122202205Y-69740744D01*
X122088937Y-69571226D01*
X121944774Y-69427063D01*
X121775256Y-69313795D01*
X121586898Y-69235774D01*
X121386939Y-69196000D01*
X121309226Y-69196000D01*
X121177248Y-69125455D01*
X121033987Y-69081998D01*
X120922334Y-69071001D01*
X120922323Y-69071001D01*
X120885001Y-69067325D01*
X120847679Y-69071001D01*
X110623973Y-69071001D01*
X110647932Y-69013158D01*
X110705000Y-68726260D01*
X110705000Y-68433740D01*
X110647932Y-68146842D01*
X110616103Y-68070000D01*
X121140315Y-68070000D01*
X121243063Y-68223774D01*
X121387226Y-68367937D01*
X121556744Y-68481205D01*
X121745102Y-68559226D01*
X121945061Y-68599000D01*
X122148939Y-68599000D01*
X122348898Y-68559226D01*
X122537256Y-68481205D01*
X122706774Y-68367937D01*
X122850937Y-68223774D01*
X122964205Y-68054256D01*
X123042226Y-67865898D01*
X123082000Y-67665939D01*
X123082000Y-67462061D01*
X123042226Y-67262102D01*
X122964205Y-67073744D01*
X122850937Y-66904226D01*
X122706774Y-66760063D01*
X122537256Y-66646795D01*
X122348898Y-66568774D01*
X122148939Y-66529000D01*
X121945061Y-66529000D01*
X121836455Y-66550603D01*
X121830333Y-66550000D01*
X121830322Y-66550000D01*
X121793000Y-66546324D01*
X121755678Y-66550000D01*
X110616103Y-66550000D01*
X110647932Y-66473158D01*
X110705000Y-66186260D01*
X110705000Y-65893740D01*
X110657909Y-65657000D01*
X122359289Y-65657000D01*
X122403226Y-65700937D01*
X122572744Y-65814205D01*
X122761102Y-65892226D01*
X122961061Y-65932000D01*
X123164939Y-65932000D01*
X123364898Y-65892226D01*
X123553256Y-65814205D01*
X123722774Y-65700937D01*
X123866937Y-65556774D01*
X123980205Y-65387256D01*
X124058226Y-65198898D01*
X124098000Y-64998939D01*
X124098000Y-64795061D01*
X124058226Y-64595102D01*
X123980205Y-64406744D01*
X123866937Y-64237226D01*
X123722774Y-64093063D01*
X123553256Y-63979795D01*
X123364898Y-63901774D01*
X123164939Y-63862000D01*
X122961061Y-63862000D01*
X122761102Y-63901774D01*
X122572744Y-63979795D01*
X122403226Y-64093063D01*
X122359289Y-64137000D01*
X110563498Y-64137000D01*
X110647932Y-63933158D01*
X110705000Y-63646260D01*
X110705000Y-63353740D01*
X110647932Y-63066842D01*
X110555629Y-62844001D01*
X121964841Y-62844001D01*
X122018795Y-62974256D01*
X122132063Y-63143774D01*
X122276226Y-63287937D01*
X122445744Y-63401205D01*
X122634102Y-63479226D01*
X122834061Y-63519000D01*
X123037939Y-63519000D01*
X123237898Y-63479226D01*
X123426256Y-63401205D01*
X123595774Y-63287937D01*
X123739937Y-63143774D01*
X123853205Y-62974256D01*
X123931226Y-62785898D01*
X123971000Y-62585939D01*
X123971000Y-62382061D01*
X123931226Y-62182102D01*
X123853205Y-61993744D01*
X123766655Y-61864212D01*
X137041000Y-61864212D01*
X137041000Y-62087788D01*
X137084617Y-62307067D01*
X137170176Y-62513624D01*
X137294388Y-62699520D01*
X137332868Y-62738000D01*
X137294388Y-62776480D01*
X137170176Y-62962376D01*
X137084617Y-63168933D01*
X137041000Y-63388212D01*
X137041000Y-63611788D01*
X137084617Y-63831067D01*
X137170176Y-64037624D01*
X137294388Y-64223520D01*
X137452480Y-64381612D01*
X137638376Y-64505824D01*
X137844933Y-64591383D01*
X138064212Y-64635000D01*
X138287788Y-64635000D01*
X138507067Y-64591383D01*
X138577239Y-64562317D01*
X138608617Y-64720067D01*
X138694176Y-64926624D01*
X138818388Y-65112520D01*
X138976480Y-65270612D01*
X139162376Y-65394824D01*
X139368933Y-65480383D01*
X139588212Y-65524000D01*
X139811788Y-65524000D01*
X140031067Y-65480383D01*
X140237624Y-65394824D01*
X140423520Y-65270612D01*
X140581612Y-65112520D01*
X140705824Y-64926624D01*
X140791383Y-64720067D01*
X140822761Y-64562317D01*
X140892933Y-64591383D01*
X141112212Y-64635000D01*
X141335788Y-64635000D01*
X141555067Y-64591383D01*
X141761624Y-64505824D01*
X141947520Y-64381612D01*
X142105612Y-64223520D01*
X142229824Y-64037624D01*
X142315383Y-63831067D01*
X142359000Y-63611788D01*
X142359000Y-63388212D01*
X142315383Y-63168933D01*
X142229824Y-62962376D01*
X142105612Y-62776480D01*
X142067132Y-62738000D01*
X142105612Y-62699520D01*
X142229824Y-62513624D01*
X142315383Y-62307067D01*
X142359000Y-62087788D01*
X142359000Y-61864212D01*
X142315383Y-61644933D01*
X142229824Y-61438376D01*
X142105612Y-61252480D01*
X141947520Y-61094388D01*
X141761624Y-60970176D01*
X141555067Y-60884617D01*
X141335788Y-60841000D01*
X141112212Y-60841000D01*
X140892933Y-60884617D01*
X140761949Y-60938873D01*
X140705824Y-60803376D01*
X140581612Y-60617480D01*
X140423520Y-60459388D01*
X140237624Y-60335176D01*
X140031067Y-60249617D01*
X139811788Y-60206000D01*
X139588212Y-60206000D01*
X139368933Y-60249617D01*
X139162376Y-60335176D01*
X138976480Y-60459388D01*
X138818388Y-60617480D01*
X138694176Y-60803376D01*
X138638051Y-60938873D01*
X138507067Y-60884617D01*
X138287788Y-60841000D01*
X138064212Y-60841000D01*
X137844933Y-60884617D01*
X137638376Y-60970176D01*
X137452480Y-61094388D01*
X137294388Y-61252480D01*
X137170176Y-61438376D01*
X137084617Y-61644933D01*
X137041000Y-61864212D01*
X123766655Y-61864212D01*
X123739937Y-61824226D01*
X123595774Y-61680063D01*
X123426256Y-61566795D01*
X123237898Y-61488774D01*
X123037939Y-61449000D01*
X122960226Y-61449000D01*
X122828248Y-61378455D01*
X122684987Y-61334998D01*
X122573334Y-61324001D01*
X122573323Y-61324001D01*
X122536001Y-61320325D01*
X122498679Y-61324001D01*
X110661688Y-61324001D01*
X110705000Y-61106260D01*
X110705000Y-60813740D01*
X110647932Y-60526842D01*
X110608234Y-60431001D01*
X121202841Y-60431001D01*
X121256795Y-60561256D01*
X121370063Y-60730774D01*
X121514226Y-60874937D01*
X121683744Y-60988205D01*
X121872102Y-61066226D01*
X122072061Y-61106000D01*
X122275939Y-61106000D01*
X122475898Y-61066226D01*
X122664256Y-60988205D01*
X122833774Y-60874937D01*
X122977937Y-60730774D01*
X123091205Y-60561256D01*
X123169226Y-60372898D01*
X123209000Y-60172939D01*
X123209000Y-59969061D01*
X123169226Y-59769102D01*
X123091205Y-59580744D01*
X122977937Y-59411226D01*
X122833774Y-59267063D01*
X122664256Y-59153795D01*
X122475898Y-59075774D01*
X122275939Y-59036000D01*
X122198226Y-59036000D01*
X122066248Y-58965455D01*
X121922987Y-58921998D01*
X121811334Y-58911001D01*
X121811323Y-58911001D01*
X121774001Y-58907325D01*
X121736679Y-58911001D01*
X110623973Y-58911001D01*
X110647932Y-58853158D01*
X110663102Y-58776890D01*
X145878524Y-58776890D01*
X145923175Y-58924099D01*
X146048359Y-59186920D01*
X146222412Y-59420269D01*
X146438645Y-59615178D01*
X146688748Y-59764157D01*
X146963109Y-59861481D01*
X147193000Y-59740814D01*
X147193000Y-58547000D01*
X147447000Y-58547000D01*
X147447000Y-59740814D01*
X147676891Y-59861481D01*
X147951252Y-59764157D01*
X148201355Y-59615178D01*
X148417588Y-59420269D01*
X148591641Y-59186920D01*
X148716825Y-58924099D01*
X148761476Y-58776890D01*
X148640155Y-58547000D01*
X147447000Y-58547000D01*
X147193000Y-58547000D01*
X145999845Y-58547000D01*
X145878524Y-58776890D01*
X110663102Y-58776890D01*
X110705000Y-58566260D01*
X110705000Y-58273740D01*
X110647932Y-57986842D01*
X110535990Y-57716589D01*
X110373475Y-57473368D01*
X110166632Y-57266525D01*
X109992240Y-57150000D01*
X110166632Y-57033475D01*
X110373475Y-56826632D01*
X110535990Y-56583411D01*
X110647932Y-56313158D01*
X110705000Y-56026260D01*
X110705000Y-55733740D01*
X110647932Y-55446842D01*
X110535990Y-55176589D01*
X110438043Y-55030000D01*
X145831928Y-55030000D01*
X145831928Y-56730000D01*
X145844188Y-56854482D01*
X145880498Y-56974180D01*
X145939463Y-57084494D01*
X146018815Y-57181185D01*
X146115506Y-57260537D01*
X146225820Y-57319502D01*
X146306466Y-57343966D01*
X146222412Y-57419731D01*
X146048359Y-57653080D01*
X145923175Y-57915901D01*
X145878524Y-58063110D01*
X145999845Y-58293000D01*
X147193000Y-58293000D01*
X147193000Y-58273000D01*
X147447000Y-58273000D01*
X147447000Y-58293000D01*
X148640155Y-58293000D01*
X148761476Y-58063110D01*
X148716825Y-57915901D01*
X148591641Y-57653080D01*
X148417588Y-57419731D01*
X148333534Y-57343966D01*
X148414180Y-57319502D01*
X148524494Y-57260537D01*
X148621185Y-57181185D01*
X148700537Y-57084494D01*
X148759502Y-56974180D01*
X148795812Y-56854482D01*
X148808072Y-56730000D01*
X148808072Y-55030000D01*
X148795812Y-54905518D01*
X148759502Y-54785820D01*
X148700537Y-54675506D01*
X148621185Y-54578815D01*
X148524494Y-54499463D01*
X148414180Y-54440498D01*
X148294482Y-54404188D01*
X148170000Y-54391928D01*
X146470000Y-54391928D01*
X146345518Y-54404188D01*
X146225820Y-54440498D01*
X146115506Y-54499463D01*
X146018815Y-54578815D01*
X145939463Y-54675506D01*
X145880498Y-54785820D01*
X145844188Y-54905518D01*
X145831928Y-55030000D01*
X110438043Y-55030000D01*
X110373475Y-54933368D01*
X110166632Y-54726525D01*
X109923411Y-54564010D01*
X109653158Y-54452068D01*
X109366260Y-54395000D01*
X109073740Y-54395000D01*
X108786842Y-54452068D01*
X108516589Y-54564010D01*
X108273368Y-54726525D01*
X108141513Y-54858380D01*
X108119502Y-54785820D01*
X108060537Y-54675506D01*
X107981185Y-54578815D01*
X107884494Y-54499463D01*
X107774180Y-54440498D01*
X107654482Y-54404188D01*
X107530000Y-54391928D01*
X105830000Y-54391928D01*
X105705518Y-54404188D01*
X105585820Y-54440498D01*
X105475506Y-54499463D01*
X105378815Y-54578815D01*
X105299463Y-54675506D01*
X105240498Y-54785820D01*
X105204188Y-54905518D01*
X105191928Y-55030000D01*
X102260000Y-55030000D01*
X102260000Y-53372279D01*
X102298909Y-52975455D01*
X102404780Y-52624792D01*
X102576744Y-52301375D01*
X102808254Y-52017516D01*
X103090486Y-51784035D01*
X103412695Y-51609817D01*
X103762614Y-51501498D01*
X104157443Y-51460000D01*
X149827721Y-51460000D01*
X150224545Y-51498909D01*
G37*
X150224545Y-51498909D02*
X150575208Y-51604780D01*
X150898625Y-51776744D01*
X151182484Y-52008254D01*
X151415965Y-52290486D01*
X151590183Y-52612695D01*
X151698502Y-52962614D01*
X151740001Y-53357452D01*
X151740000Y-132047721D01*
X151701091Y-132444545D01*
X151595220Y-132795206D01*
X151423257Y-133118623D01*
X151191748Y-133402482D01*
X150909514Y-133635965D01*
X150587304Y-133810184D01*
X150237385Y-133918502D01*
X149842557Y-133960000D01*
X104172279Y-133960000D01*
X103775455Y-133921091D01*
X103424794Y-133815220D01*
X103101377Y-133643257D01*
X102817518Y-133411748D01*
X102584035Y-133129514D01*
X102409816Y-132807304D01*
X102301498Y-132457385D01*
X102260000Y-132062557D01*
X102260000Y-82485063D01*
X102552261Y-82485063D01*
X102555937Y-82522385D01*
X102555938Y-126138604D01*
X102552261Y-126175937D01*
X102566935Y-126324922D01*
X102610391Y-126468183D01*
X102680963Y-126600213D01*
X102752138Y-126686939D01*
X102775937Y-126715938D01*
X102804935Y-126739736D01*
X105238790Y-129173593D01*
X105195000Y-129393740D01*
X105195000Y-129686260D01*
X105252068Y-129973158D01*
X105364010Y-130243411D01*
X105526525Y-130486632D01*
X105733368Y-130693475D01*
X105976589Y-130855990D01*
X106246842Y-130967932D01*
X106533740Y-131025000D01*
X106826260Y-131025000D01*
X107113158Y-130967932D01*
X107383411Y-130855990D01*
X107626632Y-130693475D01*
X107833475Y-130486632D01*
X107950000Y-130312240D01*
X108066525Y-130486632D01*
X108273368Y-130693475D01*
X108516589Y-130855990D01*
X108786842Y-130967932D01*
X109073740Y-131025000D01*
X109366260Y-131025000D01*
X109653158Y-130967932D01*
X109923411Y-130855990D01*
X110166632Y-130693475D01*
X110373475Y-130486632D01*
X110535990Y-130243411D01*
X110647932Y-129973158D01*
X110705000Y-129686260D01*
X110705000Y-129393740D01*
X110661210Y-129173592D01*
X113287008Y-126547795D01*
X113316001Y-126524001D01*
X113339795Y-126495008D01*
X113339799Y-126495004D01*
X113410973Y-126408277D01*
X113410974Y-126408276D01*
X113481546Y-126276247D01*
X113525003Y-126132986D01*
X113536000Y-126021333D01*
X113536000Y-126021324D01*
X113539676Y-125984001D01*
X113536000Y-125946678D01*
X113536000Y-106410601D01*
X117203940Y-102742661D01*
X124466400Y-102742661D01*
X124466400Y-102946539D01*
X124506174Y-103146498D01*
X124584195Y-103334856D01*
X124697463Y-103504374D01*
X124841626Y-103648537D01*
X125011144Y-103761805D01*
X125199502Y-103839826D01*
X125399461Y-103879600D01*
X125603339Y-103879600D01*
X125803298Y-103839826D01*
X125991656Y-103761805D01*
X126161174Y-103648537D01*
X126305337Y-103504374D01*
X126418605Y-103334856D01*
X126464663Y-103223663D01*
X126575856Y-103177605D01*
X126745374Y-103064337D01*
X126889537Y-102920174D01*
X127002805Y-102750656D01*
X127080826Y-102562298D01*
X127120600Y-102362339D01*
X127120600Y-102158461D01*
X127080826Y-101958502D01*
X127002805Y-101770144D01*
X126889537Y-101600626D01*
X126745374Y-101456463D01*
X126575856Y-101343195D01*
X126387498Y-101265174D01*
X126187539Y-101225400D01*
X125983661Y-101225400D01*
X125783702Y-101265174D01*
X125595344Y-101343195D01*
X125425826Y-101456463D01*
X125281663Y-101600626D01*
X125168395Y-101770144D01*
X125122337Y-101881337D01*
X125011144Y-101927395D01*
X124841626Y-102040663D01*
X124697463Y-102184826D01*
X124584195Y-102354344D01*
X124506174Y-102542702D01*
X124466400Y-102742661D01*
X117203940Y-102742661D01*
X120202802Y-99743800D01*
X129883678Y-99743800D01*
X129921000Y-99747476D01*
X129958322Y-99743800D01*
X129958333Y-99743800D01*
X130069986Y-99732803D01*
X130213247Y-99689346D01*
X130345276Y-99618774D01*
X130461001Y-99523801D01*
X130484804Y-99494797D01*
X131790998Y-98188604D01*
X132785405Y-99183011D01*
X131359183Y-100490381D01*
X131342568Y-100508922D01*
X131329889Y-100530348D01*
X131321634Y-100553836D01*
X131318000Y-100584000D01*
X131318000Y-100923251D01*
X131300256Y-100911395D01*
X131111898Y-100833374D01*
X130911939Y-100793600D01*
X130708061Y-100793600D01*
X130508102Y-100833374D01*
X130319744Y-100911395D01*
X130150226Y-101024663D01*
X130006063Y-101168826D01*
X129892795Y-101338344D01*
X129814774Y-101526702D01*
X129775000Y-101726661D01*
X129775000Y-101930539D01*
X129814774Y-102130498D01*
X129861142Y-102242440D01*
X129789374Y-102415702D01*
X129749600Y-102615661D01*
X129749600Y-102819539D01*
X129789374Y-103019498D01*
X129867395Y-103207856D01*
X129980663Y-103377374D01*
X130124826Y-103521537D01*
X130294344Y-103634805D01*
X130482702Y-103712826D01*
X130682661Y-103752600D01*
X130886539Y-103752600D01*
X131086498Y-103712826D01*
X131274856Y-103634805D01*
X131318000Y-103605977D01*
X131318000Y-104140000D01*
X131320440Y-104164776D01*
X131327667Y-104188601D01*
X131339403Y-104210557D01*
X131355197Y-104229803D01*
X131374443Y-104245597D01*
X131396399Y-104257333D01*
X131420224Y-104264560D01*
X131445000Y-104267000D01*
X139065000Y-104267000D01*
X139089776Y-104264560D01*
X139113601Y-104257333D01*
X139135557Y-104245597D01*
X139154803Y-104229803D01*
X139170597Y-104210557D01*
X139182333Y-104188601D01*
X139189560Y-104164776D01*
X139192000Y-104140000D01*
X139192000Y-100711000D01*
X139189560Y-100686224D01*
X139182333Y-100662399D01*
X139170597Y-100640443D01*
X139154803Y-100621197D01*
X137249803Y-98716197D01*
X137230557Y-98700403D01*
X137208601Y-98688667D01*
X137184776Y-98681440D01*
X137160000Y-98679000D01*
X134672606Y-98679000D01*
X132657800Y-96664194D01*
X132657800Y-96646661D01*
X132647365Y-96594199D01*
X136946798Y-96594199D01*
X144020001Y-103667403D01*
X144020000Y-121882678D01*
X144016324Y-121920000D01*
X144020000Y-121957322D01*
X144020000Y-121957332D01*
X144030997Y-122068985D01*
X144070258Y-122198414D01*
X144074454Y-122212246D01*
X144145026Y-122344276D01*
X144158718Y-122360959D01*
X144239999Y-122460001D01*
X144269003Y-122483804D01*
X145878790Y-124093593D01*
X145835000Y-124313740D01*
X145835000Y-124606260D01*
X145892068Y-124893158D01*
X146004010Y-125163411D01*
X146166525Y-125406632D01*
X146373368Y-125613475D01*
X146547760Y-125730000D01*
X146373368Y-125846525D01*
X146166525Y-126053368D01*
X146004010Y-126296589D01*
X145892068Y-126566842D01*
X145835000Y-126853740D01*
X145835000Y-127146260D01*
X145892068Y-127433158D01*
X146004010Y-127703411D01*
X146166525Y-127946632D01*
X146373368Y-128153475D01*
X146547760Y-128270000D01*
X146373368Y-128386525D01*
X146166525Y-128593368D01*
X146004010Y-128836589D01*
X145892068Y-129106842D01*
X145835000Y-129393740D01*
X145835000Y-129686260D01*
X145892068Y-129973158D01*
X146004010Y-130243411D01*
X146166525Y-130486632D01*
X146373368Y-130693475D01*
X146616589Y-130855990D01*
X146886842Y-130967932D01*
X147173740Y-131025000D01*
X147466260Y-131025000D01*
X147753158Y-130967932D01*
X148023411Y-130855990D01*
X148266632Y-130693475D01*
X148473475Y-130486632D01*
X148635990Y-130243411D01*
X148747932Y-129973158D01*
X148805000Y-129686260D01*
X148805000Y-129393740D01*
X148747932Y-129106842D01*
X148635990Y-128836589D01*
X148473475Y-128593368D01*
X148266632Y-128386525D01*
X148092240Y-128270000D01*
X148266632Y-128153475D01*
X148473475Y-127946632D01*
X148635990Y-127703411D01*
X148747932Y-127433158D01*
X148805000Y-127146260D01*
X148805000Y-126853740D01*
X148747932Y-126566842D01*
X148635990Y-126296589D01*
X148473475Y-126053368D01*
X148266632Y-125846525D01*
X148092240Y-125730000D01*
X148266632Y-125613475D01*
X148473475Y-125406632D01*
X148635990Y-125163411D01*
X148747932Y-124893158D01*
X148805000Y-124606260D01*
X148805000Y-124313740D01*
X148747932Y-124026842D01*
X148635990Y-123756589D01*
X148473475Y-123513368D01*
X148266632Y-123306525D01*
X148084466Y-123184805D01*
X148201355Y-123115178D01*
X148417588Y-122920269D01*
X148591641Y-122686920D01*
X148716825Y-122424099D01*
X148761476Y-122276890D01*
X148640155Y-122047000D01*
X147447000Y-122047000D01*
X147447000Y-122067000D01*
X147193000Y-122067000D01*
X147193000Y-122047000D01*
X147173000Y-122047000D01*
X147173000Y-121793000D01*
X147193000Y-121793000D01*
X147193000Y-121773000D01*
X147447000Y-121773000D01*
X147447000Y-121793000D01*
X148640155Y-121793000D01*
X148761476Y-121563110D01*
X148716825Y-121415901D01*
X148591641Y-121153080D01*
X148417588Y-120919731D01*
X148201355Y-120724822D01*
X148084466Y-120655195D01*
X148266632Y-120533475D01*
X148473475Y-120326632D01*
X148635990Y-120083411D01*
X148747932Y-119813158D01*
X148805000Y-119526260D01*
X148805000Y-119233740D01*
X148747932Y-118946842D01*
X148635990Y-118676589D01*
X148473475Y-118433368D01*
X148341620Y-118301513D01*
X148414180Y-118279502D01*
X148524494Y-118220537D01*
X148621185Y-118141185D01*
X148700537Y-118044494D01*
X148759502Y-117934180D01*
X148795812Y-117814482D01*
X148808072Y-117690000D01*
X148808072Y-115990000D01*
X148795812Y-115865518D01*
X148759502Y-115745820D01*
X148700537Y-115635506D01*
X148621185Y-115538815D01*
X148524494Y-115459463D01*
X148414180Y-115400498D01*
X148294482Y-115364188D01*
X148170000Y-115351928D01*
X146470000Y-115351928D01*
X146345518Y-115364188D01*
X146225820Y-115400498D01*
X146115506Y-115459463D01*
X146018815Y-115538815D01*
X145939463Y-115635506D01*
X145880498Y-115745820D01*
X145844188Y-115865518D01*
X145831928Y-115990000D01*
X145831928Y-117690000D01*
X145844188Y-117814482D01*
X145880498Y-117934180D01*
X145939463Y-118044494D01*
X146018815Y-118141185D01*
X146115506Y-118220537D01*
X146225820Y-118279502D01*
X146298380Y-118301513D01*
X146166525Y-118433368D01*
X146004010Y-118676589D01*
X145892068Y-118946842D01*
X145835000Y-119233740D01*
X145835000Y-119526260D01*
X145892068Y-119813158D01*
X146004010Y-120083411D01*
X146166525Y-120326632D01*
X146373368Y-120533475D01*
X146555534Y-120655195D01*
X146438645Y-120724822D01*
X146222412Y-120919731D01*
X146048359Y-121153080D01*
X145923175Y-121415901D01*
X145878524Y-121563110D01*
X145999844Y-121792998D01*
X145835000Y-121792998D01*
X145835000Y-121900199D01*
X145540000Y-121605199D01*
X145540000Y-107036890D01*
X145878524Y-107036890D01*
X145923175Y-107184099D01*
X146048359Y-107446920D01*
X146222412Y-107680269D01*
X146438645Y-107875178D01*
X146688748Y-108024157D01*
X146963109Y-108121481D01*
X147193000Y-108000814D01*
X147193000Y-106807000D01*
X147447000Y-106807000D01*
X147447000Y-108000814D01*
X147676891Y-108121481D01*
X147951252Y-108024157D01*
X148201355Y-107875178D01*
X148417588Y-107680269D01*
X148591641Y-107446920D01*
X148716825Y-107184099D01*
X148761476Y-107036890D01*
X148640155Y-106807000D01*
X147447000Y-106807000D01*
X147193000Y-106807000D01*
X145999845Y-106807000D01*
X145878524Y-107036890D01*
X145540000Y-107036890D01*
X145540000Y-104496890D01*
X145878524Y-104496890D01*
X145923175Y-104644099D01*
X146048359Y-104906920D01*
X146222412Y-105140269D01*
X146438645Y-105335178D01*
X146564255Y-105410000D01*
X146438645Y-105484822D01*
X146222412Y-105679731D01*
X146048359Y-105913080D01*
X145923175Y-106175901D01*
X145878524Y-106323110D01*
X145999845Y-106553000D01*
X147193000Y-106553000D01*
X147193000Y-104267000D01*
X147447000Y-104267000D01*
X147447000Y-106553000D01*
X148640155Y-106553000D01*
X148761476Y-106323110D01*
X148716825Y-106175901D01*
X148591641Y-105913080D01*
X148417588Y-105679731D01*
X148201355Y-105484822D01*
X148075745Y-105410000D01*
X148201355Y-105335178D01*
X148417588Y-105140269D01*
X148591641Y-104906920D01*
X148716825Y-104644099D01*
X148761476Y-104496890D01*
X148640155Y-104267000D01*
X147447000Y-104267000D01*
X147193000Y-104267000D01*
X145999845Y-104267000D01*
X145878524Y-104496890D01*
X145540000Y-104496890D01*
X145540000Y-103389925D01*
X145543676Y-103352600D01*
X145540000Y-103315275D01*
X145540000Y-103315267D01*
X145529003Y-103203614D01*
X145485546Y-103060353D01*
X145414974Y-102928324D01*
X145320001Y-102812599D01*
X145291003Y-102788801D01*
X144459092Y-101956890D01*
X145878524Y-101956890D01*
X145923175Y-102104099D01*
X146048359Y-102366920D01*
X146222412Y-102600269D01*
X146438645Y-102795178D01*
X146564255Y-102870000D01*
X146438645Y-102944822D01*
X146222412Y-103139731D01*
X146048359Y-103373080D01*
X145923175Y-103635901D01*
X145878524Y-103783110D01*
X145999845Y-104013000D01*
X147193000Y-104013000D01*
X147193000Y-101727000D01*
X147447000Y-101727000D01*
X147447000Y-104013000D01*
X148640155Y-104013000D01*
X148761476Y-103783110D01*
X148716825Y-103635901D01*
X148591641Y-103373080D01*
X148417588Y-103139731D01*
X148201355Y-102944822D01*
X148075745Y-102870000D01*
X148201355Y-102795178D01*
X148417588Y-102600269D01*
X148591641Y-102366920D01*
X148716825Y-102104099D01*
X148761476Y-101956890D01*
X148640155Y-101727000D01*
X147447000Y-101727000D01*
X147193000Y-101727000D01*
X145999845Y-101727000D01*
X145878524Y-101956890D01*
X144459092Y-101956890D01*
X141919092Y-99416890D01*
X145878524Y-99416890D01*
X145923175Y-99564099D01*
X146048359Y-99826920D01*
X146222412Y-100060269D01*
X146438645Y-100255178D01*
X146564255Y-100330000D01*
X146438645Y-100404822D01*
X146222412Y-100599731D01*
X146048359Y-100833080D01*
X145923175Y-101095901D01*
X145878524Y-101243110D01*
X145999845Y-101473000D01*
X147193000Y-101473000D01*
X147193000Y-99187000D01*
X147447000Y-99187000D01*
X147447000Y-101473000D01*
X148640155Y-101473000D01*
X148761476Y-101243110D01*
X148716825Y-101095901D01*
X148591641Y-100833080D01*
X148417588Y-100599731D01*
X148201355Y-100404822D01*
X148075745Y-100330000D01*
X148201355Y-100255178D01*
X148417588Y-100060269D01*
X148591641Y-99826920D01*
X148716825Y-99564099D01*
X148761476Y-99416890D01*
X148640155Y-99187000D01*
X147447000Y-99187000D01*
X147193000Y-99187000D01*
X145999845Y-99187000D01*
X145878524Y-99416890D01*
X141919092Y-99416890D01*
X139872202Y-97370000D01*
X145831928Y-97370000D01*
X145844188Y-97494482D01*
X145880498Y-97614180D01*
X145939463Y-97724494D01*
X146018815Y-97821185D01*
X146115506Y-97900537D01*
X146225820Y-97959502D01*
X146306466Y-97983966D01*
X146222412Y-98059731D01*
X146048359Y-98293080D01*
X145923175Y-98555901D01*
X145878524Y-98703110D01*
X145999845Y-98933000D01*
X147193000Y-98933000D01*
X147193000Y-96647000D01*
X147447000Y-96647000D01*
X147447000Y-98933000D01*
X148640155Y-98933000D01*
X148761476Y-98703110D01*
X148716825Y-98555901D01*
X148591641Y-98293080D01*
X148417588Y-98059731D01*
X148333534Y-97983966D01*
X148414180Y-97959502D01*
X148524494Y-97900537D01*
X148621185Y-97821185D01*
X148700537Y-97724494D01*
X148759502Y-97614180D01*
X148795812Y-97494482D01*
X148808072Y-97370000D01*
X148805000Y-96805750D01*
X148646250Y-96647000D01*
X147447000Y-96647000D01*
X147193000Y-96647000D01*
X145993750Y-96647000D01*
X145835000Y-96805750D01*
X145831928Y-97370000D01*
X139872202Y-97370000D01*
X137825403Y-95323202D01*
X137801600Y-95294198D01*
X137685875Y-95199225D01*
X137553846Y-95128653D01*
X137410585Y-95085196D01*
X137298932Y-95074199D01*
X137298921Y-95074199D01*
X137261599Y-95070523D01*
X137224277Y-95074199D01*
X133679281Y-95074199D01*
X133738656Y-95049605D01*
X133908174Y-94936337D01*
X134052337Y-94792174D01*
X134165605Y-94622656D01*
X134232543Y-94461054D01*
X134394145Y-94394116D01*
X134563663Y-94280848D01*
X134707826Y-94136685D01*
X134821094Y-93967167D01*
X134847482Y-93903461D01*
X139046000Y-93903461D01*
X139046000Y-94107339D01*
X139085774Y-94307298D01*
X139163795Y-94495656D01*
X139277063Y-94665174D01*
X139421226Y-94809337D01*
X139507983Y-94867306D01*
X139480263Y-94895026D01*
X139366995Y-95064544D01*
X139288974Y-95252902D01*
X139249200Y-95452861D01*
X139249200Y-95656739D01*
X139288974Y-95856698D01*
X139366995Y-96045056D01*
X139480263Y-96214574D01*
X139624426Y-96358737D01*
X139793944Y-96472005D01*
X139982302Y-96550026D01*
X140182261Y-96589800D01*
X140386139Y-96589800D01*
X140586098Y-96550026D01*
X140774456Y-96472005D01*
X140943974Y-96358737D01*
X141088137Y-96214574D01*
X141201405Y-96045056D01*
X141279426Y-95856698D01*
X141316562Y-95670000D01*
X145831928Y-95670000D01*
X145835000Y-96234250D01*
X145993750Y-96393000D01*
X147193000Y-96393000D01*
X147193000Y-95193750D01*
X147447000Y-95193750D01*
X147447000Y-96393000D01*
X148646250Y-96393000D01*
X148805000Y-96234250D01*
X148808072Y-95670000D01*
X148795812Y-95545518D01*
X148759502Y-95425820D01*
X148700537Y-95315506D01*
X148621185Y-95218815D01*
X148524494Y-95139463D01*
X148414180Y-95080498D01*
X148294482Y-95044188D01*
X148170000Y-95031928D01*
X147605750Y-95035000D01*
X147447000Y-95193750D01*
X147193000Y-95193750D01*
X147034250Y-95035000D01*
X146470000Y-95031928D01*
X146345518Y-95044188D01*
X146225820Y-95080498D01*
X146115506Y-95139463D01*
X146018815Y-95218815D01*
X145939463Y-95315506D01*
X145880498Y-95425820D01*
X145844188Y-95545518D01*
X145831928Y-95670000D01*
X141316562Y-95670000D01*
X141319200Y-95656739D01*
X141319200Y-95452861D01*
X141279426Y-95252902D01*
X141201405Y-95064544D01*
X141088137Y-94895026D01*
X140943974Y-94750863D01*
X140857217Y-94692894D01*
X140884937Y-94665174D01*
X140998205Y-94495656D01*
X141076226Y-94307298D01*
X141116000Y-94107339D01*
X141116000Y-93903461D01*
X141076226Y-93703502D01*
X140998205Y-93515144D01*
X140884937Y-93345626D01*
X140740774Y-93201463D01*
X140571256Y-93088195D01*
X140382898Y-93010174D01*
X140182939Y-92970400D01*
X139979061Y-92970400D01*
X139779102Y-93010174D01*
X139590744Y-93088195D01*
X139421226Y-93201463D01*
X139277063Y-93345626D01*
X139163795Y-93515144D01*
X139085774Y-93703502D01*
X139046000Y-93903461D01*
X134847482Y-93903461D01*
X134899115Y-93778809D01*
X134938889Y-93578850D01*
X134938889Y-93374972D01*
X134899115Y-93175013D01*
X134821094Y-92986655D01*
X134707826Y-92817137D01*
X134588945Y-92698256D01*
X135200304Y-92086899D01*
X135229297Y-92063105D01*
X135253091Y-92034112D01*
X135253095Y-92034108D01*
X135320115Y-91952443D01*
X135324270Y-91947380D01*
X135394842Y-91815351D01*
X135438299Y-91672090D01*
X135449296Y-91560437D01*
X135449296Y-91560428D01*
X135452972Y-91523105D01*
X135449296Y-91485782D01*
X135449296Y-88403007D01*
X135493233Y-88359070D01*
X135606501Y-88189552D01*
X135649037Y-88086861D01*
X136963200Y-88086861D01*
X136963200Y-88290739D01*
X137002974Y-88490698D01*
X137080995Y-88679056D01*
X137194263Y-88848574D01*
X137338426Y-88992737D01*
X137507944Y-89106005D01*
X137696302Y-89184026D01*
X137896261Y-89223800D01*
X138100139Y-89223800D01*
X138300098Y-89184026D01*
X138488456Y-89106005D01*
X138657974Y-88992737D01*
X138802137Y-88848574D01*
X138915405Y-88679056D01*
X138947121Y-88602487D01*
X138960498Y-88599826D01*
X139148856Y-88521805D01*
X139318374Y-88408537D01*
X139462537Y-88264374D01*
X139575805Y-88094856D01*
X139653826Y-87906498D01*
X139693600Y-87706539D01*
X139693600Y-87502661D01*
X139653826Y-87302702D01*
X139575805Y-87114344D01*
X139462537Y-86944826D01*
X139318374Y-86800663D01*
X139148856Y-86687395D01*
X138960498Y-86609374D01*
X138760539Y-86569600D01*
X138556661Y-86569600D01*
X138356702Y-86609374D01*
X138168344Y-86687395D01*
X137998826Y-86800663D01*
X137854663Y-86944826D01*
X137741395Y-87114344D01*
X137709679Y-87190913D01*
X137696302Y-87193574D01*
X137507944Y-87271595D01*
X137338426Y-87384863D01*
X137194263Y-87529026D01*
X137080995Y-87698544D01*
X137002974Y-87886902D01*
X136963200Y-88086861D01*
X135649037Y-88086861D01*
X135684522Y-88001194D01*
X135724296Y-87801235D01*
X135724296Y-87597357D01*
X135684522Y-87397398D01*
X135606501Y-87209040D01*
X135493233Y-87039522D01*
X135395447Y-86941736D01*
X135396999Y-86933935D01*
X135396999Y-86730057D01*
X135357225Y-86530098D01*
X135279204Y-86341740D01*
X135165936Y-86172222D01*
X135021773Y-86028059D01*
X134852255Y-85914791D01*
X134663897Y-85836770D01*
X134463938Y-85796996D01*
X134260060Y-85796996D01*
X134060101Y-85836770D01*
X133871743Y-85914791D01*
X133702225Y-86028059D01*
X133558062Y-86172222D01*
X133444794Y-86341740D01*
X133366773Y-86530098D01*
X133326999Y-86730057D01*
X133326999Y-86807770D01*
X133280181Y-86895359D01*
X133256454Y-86939749D01*
X133212997Y-87083010D01*
X133202000Y-87194663D01*
X133202000Y-87194673D01*
X133198324Y-87231995D01*
X133202000Y-87269318D01*
X133202001Y-89357784D01*
X133170591Y-89281955D01*
X133057323Y-89112437D01*
X133013386Y-89068500D01*
X133013386Y-88628108D01*
X133017062Y-88590785D01*
X133013386Y-88553462D01*
X133013386Y-88553453D01*
X133002389Y-88441800D01*
X132958932Y-88298539D01*
X132940670Y-88264374D01*
X132888360Y-88166509D01*
X132817185Y-88079783D01*
X132793387Y-88050785D01*
X132764390Y-88026988D01*
X130357804Y-85620403D01*
X130334001Y-85591399D01*
X130218276Y-85496426D01*
X130086247Y-85425854D01*
X129942986Y-85382397D01*
X129831333Y-85371400D01*
X129831322Y-85371400D01*
X129794000Y-85367724D01*
X129756678Y-85371400D01*
X126403970Y-85371400D01*
X126417790Y-85301923D01*
X126417790Y-85239786D01*
X126469604Y-85187972D01*
X126498601Y-85164175D01*
X126593574Y-85048450D01*
X126664146Y-84916421D01*
X126707603Y-84773160D01*
X126718600Y-84661507D01*
X126718600Y-84661498D01*
X126722276Y-84624175D01*
X126718600Y-84586852D01*
X126718600Y-83654122D01*
X126722276Y-83616799D01*
X126718600Y-83579476D01*
X126718600Y-83579467D01*
X126712237Y-83514861D01*
X131019600Y-83514861D01*
X131019600Y-83718739D01*
X131059374Y-83918698D01*
X131137395Y-84107056D01*
X131250663Y-84276574D01*
X131394826Y-84420737D01*
X131564344Y-84534005D01*
X131752702Y-84612026D01*
X131952661Y-84651800D01*
X132156539Y-84651800D01*
X132356498Y-84612026D01*
X132544856Y-84534005D01*
X132714374Y-84420737D01*
X132858537Y-84276574D01*
X132971805Y-84107056D01*
X133014987Y-84002806D01*
X133016898Y-84002426D01*
X133205256Y-83924405D01*
X133374774Y-83811137D01*
X133518937Y-83666974D01*
X133632205Y-83497456D01*
X133710226Y-83309098D01*
X133750000Y-83109139D01*
X133750000Y-82905261D01*
X133710226Y-82705302D01*
X133632205Y-82516944D01*
X133518937Y-82347426D01*
X133374774Y-82203263D01*
X133205256Y-82089995D01*
X133016898Y-82011974D01*
X132816939Y-81972200D01*
X132613061Y-81972200D01*
X132413102Y-82011974D01*
X132224744Y-82089995D01*
X132055226Y-82203263D01*
X131911063Y-82347426D01*
X131797795Y-82516944D01*
X131754613Y-82621194D01*
X131752702Y-82621574D01*
X131564344Y-82699595D01*
X131394826Y-82812863D01*
X131250663Y-82957026D01*
X131137395Y-83126544D01*
X131059374Y-83314902D01*
X131019600Y-83514861D01*
X126712237Y-83514861D01*
X126707603Y-83467814D01*
X126664146Y-83324553D01*
X126593574Y-83192524D01*
X126498601Y-83076799D01*
X126469603Y-83053001D01*
X123144204Y-79727603D01*
X123120401Y-79698599D01*
X123004676Y-79603626D01*
X122872647Y-79533054D01*
X122729386Y-79489597D01*
X122617733Y-79478600D01*
X122617722Y-79478600D01*
X122580400Y-79474924D01*
X122543078Y-79478600D01*
X105599722Y-79478600D01*
X105562399Y-79474924D01*
X105525076Y-79478600D01*
X105525067Y-79478600D01*
X105413414Y-79489597D01*
X105270153Y-79533054D01*
X105138124Y-79603626D01*
X105138122Y-79603627D01*
X105138123Y-79603627D01*
X105051396Y-79674801D01*
X105051392Y-79674805D01*
X105022399Y-79698599D01*
X104998605Y-79727592D01*
X102804939Y-81921259D01*
X102775936Y-81945062D01*
X102721023Y-82011974D01*
X102680963Y-82060787D01*
X102654166Y-82110921D01*
X102610391Y-82192817D01*
X102566934Y-82336078D01*
X102555937Y-82447731D01*
X102555937Y-82447741D01*
X102552261Y-82485063D01*
X102260000Y-82485063D01*
X102260000Y-79374661D01*
X131730800Y-79374661D01*
X131730800Y-79578539D01*
X131770574Y-79778498D01*
X131848595Y-79966856D01*
X131961863Y-80136374D01*
X132106026Y-80280537D01*
X132275544Y-80393805D01*
X132463902Y-80471826D01*
X132663861Y-80511600D01*
X132867739Y-80511600D01*
X133067698Y-80471826D01*
X133223000Y-80407497D01*
X133378302Y-80471826D01*
X133578261Y-80511600D01*
X133782139Y-80511600D01*
X133982098Y-80471826D01*
X134170456Y-80393805D01*
X134339974Y-80280537D01*
X134484137Y-80136374D01*
X134597405Y-79966856D01*
X134675426Y-79778498D01*
X134715200Y-79578539D01*
X134715200Y-79374661D01*
X134675426Y-79174702D01*
X134597405Y-78986344D01*
X134484137Y-78816826D01*
X134339974Y-78672663D01*
X134170456Y-78559395D01*
X133982098Y-78481374D01*
X133782139Y-78441600D01*
X133578261Y-78441600D01*
X133378302Y-78481374D01*
X133223000Y-78545703D01*
X133067698Y-78481374D01*
X132867739Y-78441600D01*
X132663861Y-78441600D01*
X132463902Y-78481374D01*
X132275544Y-78559395D01*
X132106026Y-78672663D01*
X131961863Y-78816826D01*
X131848595Y-78986344D01*
X131770574Y-79174702D01*
X131730800Y-79374661D01*
X102260000Y-79374661D01*
X102260000Y-77890000D01*
X145831928Y-77890000D01*
X145831928Y-79590000D01*
X145844188Y-79714482D01*
X145880498Y-79834180D01*
X145939463Y-79944494D01*
X146018815Y-80041185D01*
X146115506Y-80120537D01*
X146225820Y-80179502D01*
X146298380Y-80201513D01*
X146166525Y-80333368D01*
X146004010Y-80576589D01*
X145892068Y-80846842D01*
X145835000Y-81133740D01*
X145835000Y-81426260D01*
X145892068Y-81713158D01*
X146004010Y-81983411D01*
X146166525Y-82226632D01*
X146373368Y-82433475D01*
X146547760Y-82550000D01*
X146373368Y-82666525D01*
X146166525Y-82873368D01*
X146004010Y-83116589D01*
X145892068Y-83386842D01*
X145835000Y-83673740D01*
X145835000Y-83966260D01*
X145892068Y-84253158D01*
X146004010Y-84523411D01*
X146166525Y-84766632D01*
X146373368Y-84973475D01*
X146547760Y-85090000D01*
X146373368Y-85206525D01*
X146166525Y-85413368D01*
X146004010Y-85656589D01*
X145892068Y-85926842D01*
X145835000Y-86213740D01*
X145835000Y-86506260D01*
X145892068Y-86793158D01*
X146004010Y-87063411D01*
X146166525Y-87306632D01*
X146373368Y-87513475D01*
X146547760Y-87630000D01*
X146373368Y-87746525D01*
X146166525Y-87953368D01*
X146004010Y-88196589D01*
X145892068Y-88466842D01*
X145835000Y-88753740D01*
X145835000Y-89046260D01*
X145892068Y-89333158D01*
X146004010Y-89603411D01*
X146166525Y-89846632D01*
X146373368Y-90053475D01*
X146616589Y-90215990D01*
X146886842Y-90327932D01*
X147173740Y-90385000D01*
X147466260Y-90385000D01*
X147753158Y-90327932D01*
X148023411Y-90215990D01*
X148266632Y-90053475D01*
X148473475Y-89846632D01*
X148635990Y-89603411D01*
X148747932Y-89333158D01*
X148805000Y-89046260D01*
X148805000Y-88753740D01*
X148747932Y-88466842D01*
X148635990Y-88196589D01*
X148473475Y-87953368D01*
X148266632Y-87746525D01*
X148092240Y-87630000D01*
X148266632Y-87513475D01*
X148473475Y-87306632D01*
X148635990Y-87063411D01*
X148747932Y-86793158D01*
X148805000Y-86506260D01*
X148805000Y-86213740D01*
X148747932Y-85926842D01*
X148635990Y-85656589D01*
X148473475Y-85413368D01*
X148266632Y-85206525D01*
X148092240Y-85090000D01*
X148266632Y-84973475D01*
X148473475Y-84766632D01*
X148635990Y-84523411D01*
X148747932Y-84253158D01*
X148805000Y-83966260D01*
X148805000Y-83673740D01*
X148747932Y-83386842D01*
X148635990Y-83116589D01*
X148473475Y-82873368D01*
X148266632Y-82666525D01*
X148092240Y-82550000D01*
X148266632Y-82433475D01*
X148473475Y-82226632D01*
X148635990Y-81983411D01*
X148747932Y-81713158D01*
X148805000Y-81426260D01*
X148805000Y-81133740D01*
X148747932Y-80846842D01*
X148635990Y-80576589D01*
X148473475Y-80333368D01*
X148341620Y-80201513D01*
X148414180Y-80179502D01*
X148524494Y-80120537D01*
X148621185Y-80041185D01*
X148700537Y-79944494D01*
X148759502Y-79834180D01*
X148795812Y-79714482D01*
X148808072Y-79590000D01*
X148808072Y-77890000D01*
X148795812Y-77765518D01*
X148759502Y-77645820D01*
X148700537Y-77535506D01*
X148621185Y-77438815D01*
X148524494Y-77359463D01*
X148414180Y-77300498D01*
X148294482Y-77264188D01*
X148170000Y-77251928D01*
X146470000Y-77251928D01*
X146345518Y-77264188D01*
X146225820Y-77300498D01*
X146115506Y-77359463D01*
X146018815Y-77438815D01*
X145939463Y-77535506D01*
X145880498Y-77645820D01*
X145844188Y-77765518D01*
X145831928Y-77890000D01*
X102260000Y-77890000D01*
X102260000Y-55030000D01*
X105191928Y-55030000D01*
X105191928Y-56730000D01*
X105204188Y-56854482D01*
X105240498Y-56974180D01*
X105299463Y-57084494D01*
X105378815Y-57181185D01*
X105475506Y-57260537D01*
X105585820Y-57319502D01*
X105658380Y-57341513D01*
X105526525Y-57473368D01*
X105364010Y-57716589D01*
X105252068Y-57986842D01*
X105195000Y-58273740D01*
X105195000Y-58566260D01*
X105252068Y-58853158D01*
X105364010Y-59123411D01*
X105526525Y-59366632D01*
X105733368Y-59573475D01*
X105907760Y-59690000D01*
X105733368Y-59806525D01*
X105526525Y-60013368D01*
X105364010Y-60256589D01*
X105252068Y-60526842D01*
X105195000Y-60813740D01*
X105195000Y-61106260D01*
X105252068Y-61393158D01*
X105364010Y-61663411D01*
X105526525Y-61906632D01*
X105733368Y-62113475D01*
X105907760Y-62230000D01*
X105733368Y-62346525D01*
X105526525Y-62553368D01*
X105364010Y-62796589D01*
X105252068Y-63066842D01*
X105195000Y-63353740D01*
X105195000Y-63646260D01*
X105252068Y-63933158D01*
X105364010Y-64203411D01*
X105526525Y-64446632D01*
X105733368Y-64653475D01*
X105907760Y-64770000D01*
X105733368Y-64886525D01*
X105526525Y-65093368D01*
X105364010Y-65336589D01*
X105252068Y-65606842D01*
X105195000Y-65893740D01*
X105195000Y-66186260D01*
X105252068Y-66473158D01*
X105364010Y-66743411D01*
X105526525Y-66986632D01*
X105733368Y-67193475D01*
X105907760Y-67310000D01*
X105733368Y-67426525D01*
X105526525Y-67633368D01*
X105364010Y-67876589D01*
X105252068Y-68146842D01*
X105195000Y-68433740D01*
X105195000Y-68726260D01*
X105252068Y-69013158D01*
X105364010Y-69283411D01*
X105526525Y-69526632D01*
X105733368Y-69733475D01*
X105907760Y-69850000D01*
X105733368Y-69966525D01*
X105526525Y-70173368D01*
X105364010Y-70416589D01*
X105252068Y-70686842D01*
X105195000Y-70973740D01*
X105195000Y-71266260D01*
X105252068Y-71553158D01*
X105364010Y-71823411D01*
X105526525Y-72066632D01*
X105733368Y-72273475D01*
X105907760Y-72390000D01*
X105733368Y-72506525D01*
X105526525Y-72713368D01*
X105364010Y-72956589D01*
X105252068Y-73226842D01*
X105195000Y-73513740D01*
X105195000Y-73806260D01*
X105252068Y-74093158D01*
X105364010Y-74363411D01*
X105526525Y-74606632D01*
X105733368Y-74813475D01*
X105976589Y-74975990D01*
X106246842Y-75087932D01*
X106533740Y-75145000D01*
X106826260Y-75145000D01*
X107046408Y-75101210D01*
X107259201Y-75314003D01*
X107282999Y-75343001D01*
X107311997Y-75366799D01*
X107398723Y-75437974D01*
X107530753Y-75508546D01*
X107674014Y-75552003D01*
X107785667Y-75563000D01*
X107785676Y-75563000D01*
X107822999Y-75566676D01*
X107860322Y-75563000D01*
X120454289Y-75563000D01*
X120498226Y-75606937D01*
X120667744Y-75720205D01*
X120856102Y-75798226D01*
X121056061Y-75838000D01*
X121259939Y-75838000D01*
X121459898Y-75798226D01*
X121648256Y-75720205D01*
X121817774Y-75606937D01*
X121961937Y-75462774D01*
X122075205Y-75293256D01*
X122153226Y-75104898D01*
X122193000Y-74904939D01*
X122193000Y-74701061D01*
X122153226Y-74501102D01*
X122075205Y-74312744D01*
X121961937Y-74143226D01*
X121817774Y-73999063D01*
X121648256Y-73885795D01*
X121459898Y-73807774D01*
X121259939Y-73768000D01*
X121056061Y-73768000D01*
X120856102Y-73807774D01*
X120667744Y-73885795D01*
X120498226Y-73999063D01*
X120454289Y-74043000D01*
X110657909Y-74043000D01*
X110705000Y-73806260D01*
X110705000Y-73513740D01*
X110647932Y-73226842D01*
X110555629Y-73004001D01*
X119805841Y-73004001D01*
X119859795Y-73134256D01*
X119973063Y-73303774D01*
X120117226Y-73447937D01*
X120286744Y-73561205D01*
X120475102Y-73639226D01*
X120675061Y-73679000D01*
X120878939Y-73679000D01*
X121078898Y-73639226D01*
X121267256Y-73561205D01*
X121436774Y-73447937D01*
X121580937Y-73303774D01*
X121694205Y-73134256D01*
X121772226Y-72945898D01*
X121812000Y-72745939D01*
X121812000Y-72542061D01*
X121772226Y-72342102D01*
X121694205Y-72153744D01*
X121580937Y-71984226D01*
X121436774Y-71840063D01*
X121267256Y-71726795D01*
X121078898Y-71648774D01*
X120878939Y-71609000D01*
X120801226Y-71609000D01*
X120669248Y-71538455D01*
X120525987Y-71494998D01*
X120414334Y-71484001D01*
X120414323Y-71484001D01*
X120377001Y-71480325D01*
X120339679Y-71484001D01*
X110661688Y-71484001D01*
X110705000Y-71266260D01*
X110705000Y-70973740D01*
X110647932Y-70686842D01*
X110608234Y-70591001D01*
X120313841Y-70591001D01*
X120367795Y-70721256D01*
X120481063Y-70890774D01*
X120625226Y-71034937D01*
X120794744Y-71148205D01*
X120983102Y-71226226D01*
X121183061Y-71266000D01*
X121386939Y-71266000D01*
X121586898Y-71226226D01*
X121775256Y-71148205D01*
X121944774Y-71034937D01*
X122088937Y-70890774D01*
X122202205Y-70721256D01*
X122280226Y-70532898D01*
X122320000Y-70332939D01*
X122320000Y-70129061D01*
X122280226Y-69929102D01*
X122202205Y-69740744D01*
X122088937Y-69571226D01*
X121944774Y-69427063D01*
X121775256Y-69313795D01*
X121586898Y-69235774D01*
X121386939Y-69196000D01*
X121309226Y-69196000D01*
X121177248Y-69125455D01*
X121033987Y-69081998D01*
X120922334Y-69071001D01*
X120922323Y-69071001D01*
X120885001Y-69067325D01*
X120847679Y-69071001D01*
X110623973Y-69071001D01*
X110647932Y-69013158D01*
X110705000Y-68726260D01*
X110705000Y-68433740D01*
X110647932Y-68146842D01*
X110616103Y-68070000D01*
X121140315Y-68070000D01*
X121243063Y-68223774D01*
X121387226Y-68367937D01*
X121556744Y-68481205D01*
X121745102Y-68559226D01*
X121945061Y-68599000D01*
X122148939Y-68599000D01*
X122348898Y-68559226D01*
X122537256Y-68481205D01*
X122706774Y-68367937D01*
X122850937Y-68223774D01*
X122964205Y-68054256D01*
X123042226Y-67865898D01*
X123082000Y-67665939D01*
X123082000Y-67462061D01*
X123042226Y-67262102D01*
X122964205Y-67073744D01*
X122850937Y-66904226D01*
X122706774Y-66760063D01*
X122537256Y-66646795D01*
X122348898Y-66568774D01*
X122148939Y-66529000D01*
X121945061Y-66529000D01*
X121836455Y-66550603D01*
X121830333Y-66550000D01*
X121830322Y-66550000D01*
X121793000Y-66546324D01*
X121755678Y-66550000D01*
X110616103Y-66550000D01*
X110647932Y-66473158D01*
X110705000Y-66186260D01*
X110705000Y-65893740D01*
X110657909Y-65657000D01*
X122359289Y-65657000D01*
X122403226Y-65700937D01*
X122572744Y-65814205D01*
X122761102Y-65892226D01*
X122961061Y-65932000D01*
X123164939Y-65932000D01*
X123364898Y-65892226D01*
X123553256Y-65814205D01*
X123722774Y-65700937D01*
X123866937Y-65556774D01*
X123980205Y-65387256D01*
X124058226Y-65198898D01*
X124098000Y-64998939D01*
X124098000Y-64795061D01*
X124058226Y-64595102D01*
X123980205Y-64406744D01*
X123866937Y-64237226D01*
X123722774Y-64093063D01*
X123553256Y-63979795D01*
X123364898Y-63901774D01*
X123164939Y-63862000D01*
X122961061Y-63862000D01*
X122761102Y-63901774D01*
X122572744Y-63979795D01*
X122403226Y-64093063D01*
X122359289Y-64137000D01*
X110563498Y-64137000D01*
X110647932Y-63933158D01*
X110705000Y-63646260D01*
X110705000Y-63353740D01*
X110647932Y-63066842D01*
X110555629Y-62844001D01*
X121964841Y-62844001D01*
X122018795Y-62974256D01*
X122132063Y-63143774D01*
X122276226Y-63287937D01*
X122445744Y-63401205D01*
X122634102Y-63479226D01*
X122834061Y-63519000D01*
X123037939Y-63519000D01*
X123237898Y-63479226D01*
X123426256Y-63401205D01*
X123595774Y-63287937D01*
X123739937Y-63143774D01*
X123853205Y-62974256D01*
X123931226Y-62785898D01*
X123971000Y-62585939D01*
X123971000Y-62382061D01*
X123931226Y-62182102D01*
X123853205Y-61993744D01*
X123766655Y-61864212D01*
X137041000Y-61864212D01*
X137041000Y-62087788D01*
X137084617Y-62307067D01*
X137170176Y-62513624D01*
X137294388Y-62699520D01*
X137332868Y-62738000D01*
X137294388Y-62776480D01*
X137170176Y-62962376D01*
X137084617Y-63168933D01*
X137041000Y-63388212D01*
X137041000Y-63611788D01*
X137084617Y-63831067D01*
X137170176Y-64037624D01*
X137294388Y-64223520D01*
X137452480Y-64381612D01*
X137638376Y-64505824D01*
X137844933Y-64591383D01*
X138064212Y-64635000D01*
X138287788Y-64635000D01*
X138507067Y-64591383D01*
X138577239Y-64562317D01*
X138608617Y-64720067D01*
X138694176Y-64926624D01*
X138818388Y-65112520D01*
X138976480Y-65270612D01*
X139162376Y-65394824D01*
X139368933Y-65480383D01*
X139588212Y-65524000D01*
X139811788Y-65524000D01*
X140031067Y-65480383D01*
X140237624Y-65394824D01*
X140423520Y-65270612D01*
X140581612Y-65112520D01*
X140705824Y-64926624D01*
X140791383Y-64720067D01*
X140822761Y-64562317D01*
X140892933Y-64591383D01*
X141112212Y-64635000D01*
X141335788Y-64635000D01*
X141555067Y-64591383D01*
X141761624Y-64505824D01*
X141947520Y-64381612D01*
X142105612Y-64223520D01*
X142229824Y-64037624D01*
X142315383Y-63831067D01*
X142359000Y-63611788D01*
X142359000Y-63388212D01*
X142315383Y-63168933D01*
X142229824Y-62962376D01*
X142105612Y-62776480D01*
X142067132Y-62738000D01*
X142105612Y-62699520D01*
X142229824Y-62513624D01*
X142315383Y-62307067D01*
X142359000Y-62087788D01*
X142359000Y-61864212D01*
X142315383Y-61644933D01*
X142229824Y-61438376D01*
X142105612Y-61252480D01*
X141947520Y-61094388D01*
X141761624Y-60970176D01*
X141555067Y-60884617D01*
X141335788Y-60841000D01*
X141112212Y-60841000D01*
X140892933Y-60884617D01*
X140761949Y-60938873D01*
X140705824Y-60803376D01*
X140581612Y-60617480D01*
X140423520Y-60459388D01*
X140237624Y-60335176D01*
X140031067Y-60249617D01*
X139811788Y-60206000D01*
X139588212Y-60206000D01*
X139368933Y-60249617D01*
X139162376Y-60335176D01*
X138976480Y-60459388D01*
X138818388Y-60617480D01*
X138694176Y-60803376D01*
X138638051Y-60938873D01*
X138507067Y-60884617D01*
X138287788Y-60841000D01*
X138064212Y-60841000D01*
X137844933Y-60884617D01*
X137638376Y-60970176D01*
X137452480Y-61094388D01*
X137294388Y-61252480D01*
X137170176Y-61438376D01*
X137084617Y-61644933D01*
X137041000Y-61864212D01*
X123766655Y-61864212D01*
X123739937Y-61824226D01*
X123595774Y-61680063D01*
X123426256Y-61566795D01*
X123237898Y-61488774D01*
X123037939Y-61449000D01*
X122960226Y-61449000D01*
X122828248Y-61378455D01*
X122684987Y-61334998D01*
X122573334Y-61324001D01*
X122573323Y-61324001D01*
X122536001Y-61320325D01*
X122498679Y-61324001D01*
X110661688Y-61324001D01*
X110705000Y-61106260D01*
X110705000Y-60813740D01*
X110647932Y-60526842D01*
X110608234Y-60431001D01*
X121202841Y-60431001D01*
X121256795Y-60561256D01*
X121370063Y-60730774D01*
X121514226Y-60874937D01*
X121683744Y-60988205D01*
X121872102Y-61066226D01*
X122072061Y-61106000D01*
X122275939Y-61106000D01*
X122475898Y-61066226D01*
X122664256Y-60988205D01*
X122833774Y-60874937D01*
X122977937Y-60730774D01*
X123091205Y-60561256D01*
X123169226Y-60372898D01*
X123209000Y-60172939D01*
X123209000Y-59969061D01*
X123169226Y-59769102D01*
X123091205Y-59580744D01*
X122977937Y-59411226D01*
X122833774Y-59267063D01*
X122664256Y-59153795D01*
X122475898Y-59075774D01*
X122275939Y-59036000D01*
X122198226Y-59036000D01*
X122066248Y-58965455D01*
X121922987Y-58921998D01*
X121811334Y-58911001D01*
X121811323Y-58911001D01*
X121774001Y-58907325D01*
X121736679Y-58911001D01*
X110623973Y-58911001D01*
X110647932Y-58853158D01*
X110663102Y-58776890D01*
X145878524Y-58776890D01*
X145923175Y-58924099D01*
X146048359Y-59186920D01*
X146222412Y-59420269D01*
X146438645Y-59615178D01*
X146688748Y-59764157D01*
X146963109Y-59861481D01*
X147193000Y-59740814D01*
X147193000Y-58547000D01*
X147447000Y-58547000D01*
X147447000Y-59740814D01*
X147676891Y-59861481D01*
X147951252Y-59764157D01*
X148201355Y-59615178D01*
X148417588Y-59420269D01*
X148591641Y-59186920D01*
X148716825Y-58924099D01*
X148761476Y-58776890D01*
X148640155Y-58547000D01*
X147447000Y-58547000D01*
X147193000Y-58547000D01*
X145999845Y-58547000D01*
X145878524Y-58776890D01*
X110663102Y-58776890D01*
X110705000Y-58566260D01*
X110705000Y-58273740D01*
X110647932Y-57986842D01*
X110535990Y-57716589D01*
X110373475Y-57473368D01*
X110166632Y-57266525D01*
X109992240Y-57150000D01*
X110166632Y-57033475D01*
X110373475Y-56826632D01*
X110535990Y-56583411D01*
X110647932Y-56313158D01*
X110705000Y-56026260D01*
X110705000Y-55733740D01*
X110647932Y-55446842D01*
X110535990Y-55176589D01*
X110438043Y-55030000D01*
X145831928Y-55030000D01*
X145831928Y-56730000D01*
X145844188Y-56854482D01*
X145880498Y-56974180D01*
X145939463Y-57084494D01*
X146018815Y-57181185D01*
X146115506Y-57260537D01*
X146225820Y-57319502D01*
X146306466Y-57343966D01*
X146222412Y-57419731D01*
X146048359Y-57653080D01*
X145923175Y-57915901D01*
X145878524Y-58063110D01*
X145999845Y-58293000D01*
X147193000Y-58293000D01*
X147193000Y-58273000D01*
X147447000Y-58273000D01*
X147447000Y-58293000D01*
X148640155Y-58293000D01*
X148761476Y-58063110D01*
X148716825Y-57915901D01*
X148591641Y-57653080D01*
X148417588Y-57419731D01*
X148333534Y-57343966D01*
X148414180Y-57319502D01*
X148524494Y-57260537D01*
X148621185Y-57181185D01*
X148700537Y-57084494D01*
X148759502Y-56974180D01*
X148795812Y-56854482D01*
X148808072Y-56730000D01*
X148808072Y-55030000D01*
X148795812Y-54905518D01*
X148759502Y-54785820D01*
X148700537Y-54675506D01*
X148621185Y-54578815D01*
X148524494Y-54499463D01*
X148414180Y-54440498D01*
X148294482Y-54404188D01*
X148170000Y-54391928D01*
X146470000Y-54391928D01*
X146345518Y-54404188D01*
X146225820Y-54440498D01*
X146115506Y-54499463D01*
X146018815Y-54578815D01*
X145939463Y-54675506D01*
X145880498Y-54785820D01*
X145844188Y-54905518D01*
X145831928Y-55030000D01*
X110438043Y-55030000D01*
X110373475Y-54933368D01*
X110166632Y-54726525D01*
X109923411Y-54564010D01*
X109653158Y-54452068D01*
X109366260Y-54395000D01*
X109073740Y-54395000D01*
X108786842Y-54452068D01*
X108516589Y-54564010D01*
X108273368Y-54726525D01*
X108141513Y-54858380D01*
X108119502Y-54785820D01*
X108060537Y-54675506D01*
X107981185Y-54578815D01*
X107884494Y-54499463D01*
X107774180Y-54440498D01*
X107654482Y-54404188D01*
X107530000Y-54391928D01*
X105830000Y-54391928D01*
X105705518Y-54404188D01*
X105585820Y-54440498D01*
X105475506Y-54499463D01*
X105378815Y-54578815D01*
X105299463Y-54675506D01*
X105240498Y-54785820D01*
X105204188Y-54905518D01*
X105191928Y-55030000D01*
X102260000Y-55030000D01*
X102260000Y-53372279D01*
X102298909Y-52975455D01*
X102404780Y-52624792D01*
X102576744Y-52301375D01*
X102808254Y-52017516D01*
X103090486Y-51784035D01*
X103412695Y-51609817D01*
X103762614Y-51501498D01*
X104157443Y-51460000D01*
X149827721Y-51460000D01*
X150224545Y-51498909D01*
G36*
X123761227Y-87396430D02*
G01*
X123785021Y-87425423D01*
X123814014Y-87449217D01*
X123814018Y-87449221D01*
X123841858Y-87472068D01*
X123900746Y-87520396D01*
X124032775Y-87590968D01*
X124176036Y-87634425D01*
X124287689Y-87645422D01*
X124287698Y-87645422D01*
X124325021Y-87649098D01*
X124362344Y-87645422D01*
X128355090Y-87645422D01*
X128344210Y-87700121D01*
X128344210Y-87903999D01*
X128383984Y-88103958D01*
X128462005Y-88292316D01*
X128498126Y-88346374D01*
X128429749Y-88511449D01*
X128401543Y-88653249D01*
X127020395Y-88653249D01*
X126983072Y-88649573D01*
X126945749Y-88653249D01*
X126945740Y-88653249D01*
X126834087Y-88664246D01*
X126690826Y-88707703D01*
X126558797Y-88778275D01*
X126443072Y-88873248D01*
X126419274Y-88902246D01*
X124421324Y-90900197D01*
X120903856Y-90900197D01*
X121017735Y-90824106D01*
X121161898Y-90679943D01*
X121275166Y-90510425D01*
X121353187Y-90322067D01*
X121392961Y-90122108D01*
X121392961Y-89918230D01*
X121353187Y-89718271D01*
X121275166Y-89529913D01*
X121161898Y-89360395D01*
X121017735Y-89216232D01*
X120848217Y-89102964D01*
X120659859Y-89024943D01*
X120625651Y-89018139D01*
X120616690Y-88973090D01*
X120538669Y-88784732D01*
X120425401Y-88615214D01*
X120281238Y-88471051D01*
X120111720Y-88357783D01*
X119923362Y-88279762D01*
X119723403Y-88239988D01*
X119519525Y-88239988D01*
X119319566Y-88279762D01*
X119131208Y-88357783D01*
X118961690Y-88471051D01*
X118817527Y-88615214D01*
X118704259Y-88784732D01*
X118626238Y-88973090D01*
X118586464Y-89173049D01*
X118586464Y-89376927D01*
X118626238Y-89576886D01*
X118704259Y-89765244D01*
X118817527Y-89934762D01*
X118961690Y-90078925D01*
X119131208Y-90192193D01*
X119319566Y-90270214D01*
X119353774Y-90277018D01*
X119362735Y-90322067D01*
X119440756Y-90510425D01*
X119554024Y-90679943D01*
X119698187Y-90824106D01*
X119812066Y-90900197D01*
X117344066Y-90900197D01*
X117306733Y-90896520D01*
X117269400Y-90900197D01*
X117157747Y-90911194D01*
X117014486Y-90954651D01*
X116882457Y-91025223D01*
X116766732Y-91120196D01*
X116742934Y-91149194D01*
X113640353Y-94251775D01*
X113124657Y-86972481D01*
X113125688Y-86962011D01*
X113119372Y-86897884D01*
X113117472Y-86871065D01*
X113115717Y-86860770D01*
X113111014Y-86813025D01*
X113103160Y-86787133D01*
X113098613Y-86760468D01*
X113081484Y-86715674D01*
X113067557Y-86669764D01*
X113054801Y-86645900D01*
X113045140Y-86620636D01*
X113019599Y-86580041D01*
X112996985Y-86537735D01*
X112979822Y-86516821D01*
X112965415Y-86493924D01*
X112932444Y-86459092D01*
X112925810Y-86451008D01*
X112906767Y-86431965D01*
X112862501Y-86385200D01*
X112853924Y-86379122D01*
X110661209Y-84186408D01*
X110705000Y-83966260D01*
X110705000Y-83673740D01*
X110647932Y-83386842D01*
X110595668Y-83260666D01*
X119625465Y-83260666D01*
X123761227Y-87396430D01*
G37*
X123761227Y-87396430D02*
X123785021Y-87425423D01*
X123814014Y-87449217D01*
X123814018Y-87449221D01*
X123841858Y-87472068D01*
X123900746Y-87520396D01*
X124032775Y-87590968D01*
X124176036Y-87634425D01*
X124287689Y-87645422D01*
X124287698Y-87645422D01*
X124325021Y-87649098D01*
X124362344Y-87645422D01*
X128355090Y-87645422D01*
X128344210Y-87700121D01*
X128344210Y-87903999D01*
X128383984Y-88103958D01*
X128462005Y-88292316D01*
X128498126Y-88346374D01*
X128429749Y-88511449D01*
X128401543Y-88653249D01*
X127020395Y-88653249D01*
X126983072Y-88649573D01*
X126945749Y-88653249D01*
X126945740Y-88653249D01*
X126834087Y-88664246D01*
X126690826Y-88707703D01*
X126558797Y-88778275D01*
X126443072Y-88873248D01*
X126419274Y-88902246D01*
X124421324Y-90900197D01*
X120903856Y-90900197D01*
X121017735Y-90824106D01*
X121161898Y-90679943D01*
X121275166Y-90510425D01*
X121353187Y-90322067D01*
X121392961Y-90122108D01*
X121392961Y-89918230D01*
X121353187Y-89718271D01*
X121275166Y-89529913D01*
X121161898Y-89360395D01*
X121017735Y-89216232D01*
X120848217Y-89102964D01*
X120659859Y-89024943D01*
X120625651Y-89018139D01*
X120616690Y-88973090D01*
X120538669Y-88784732D01*
X120425401Y-88615214D01*
X120281238Y-88471051D01*
X120111720Y-88357783D01*
X119923362Y-88279762D01*
X119723403Y-88239988D01*
X119519525Y-88239988D01*
X119319566Y-88279762D01*
X119131208Y-88357783D01*
X118961690Y-88471051D01*
X118817527Y-88615214D01*
X118704259Y-88784732D01*
X118626238Y-88973090D01*
X118586464Y-89173049D01*
X118586464Y-89376927D01*
X118626238Y-89576886D01*
X118704259Y-89765244D01*
X118817527Y-89934762D01*
X118961690Y-90078925D01*
X119131208Y-90192193D01*
X119319566Y-90270214D01*
X119353774Y-90277018D01*
X119362735Y-90322067D01*
X119440756Y-90510425D01*
X119554024Y-90679943D01*
X119698187Y-90824106D01*
X119812066Y-90900197D01*
X117344066Y-90900197D01*
X117306733Y-90896520D01*
X117269400Y-90900197D01*
X117157747Y-90911194D01*
X117014486Y-90954651D01*
X116882457Y-91025223D01*
X116766732Y-91120196D01*
X116742934Y-91149194D01*
X113640353Y-94251775D01*
X113124657Y-86972481D01*
X113125688Y-86962011D01*
X113119372Y-86897884D01*
X113117472Y-86871065D01*
X113115717Y-86860770D01*
X113111014Y-86813025D01*
X113103160Y-86787133D01*
X113098613Y-86760468D01*
X113081484Y-86715674D01*
X113067557Y-86669764D01*
X113054801Y-86645900D01*
X113045140Y-86620636D01*
X113019599Y-86580041D01*
X112996985Y-86537735D01*
X112979822Y-86516821D01*
X112965415Y-86493924D01*
X112932444Y-86459092D01*
X112925810Y-86451008D01*
X112906767Y-86431965D01*
X112862501Y-86385200D01*
X112853924Y-86379122D01*
X110661209Y-84186408D01*
X110705000Y-83966260D01*
X110705000Y-83673740D01*
X110647932Y-83386842D01*
X110595668Y-83260666D01*
X119625465Y-83260666D01*
X123761227Y-87396430D01*
M02*
