G04 #@! TF.GenerationSoftware,KiCad,Pcbnew,5.1.6-c6e7f7d~86~ubuntu18.04.1*
G04 #@! TF.CreationDate,2020-06-20T09:49:41-04:00*
G04 #@! TF.ProjectId,dual_VCA,6475616c-5f56-4434-912e-6b696361645f,rev?*
G04 #@! TF.SameCoordinates,Original*
G04 #@! TF.FileFunction,Legend,Bot*
G04 #@! TF.FilePolarity,Positive*
%FSLAX46Y46*%
G04 Gerber Fmt 4.6, Leading zero omitted, Abs format (unit mm)*
G04 Created by KiCad (PCBNEW 5.1.6-c6e7f7d~86~ubuntu18.04.1) date 2020-06-20 09:49:41*
%MOMM*%
%LPD*%
G01*
G04 APERTURE LIST*
%ADD10C,0.150000*%
%ADD11C,0.120000*%
G04 APERTURE END LIST*
D10*
X140729642Y-58205714D02*
X140491547Y-58872380D01*
X140253452Y-58205714D01*
X139872500Y-58491428D02*
X139110595Y-58491428D01*
X139491547Y-58872380D02*
X139491547Y-58110476D01*
X137872500Y-58872380D02*
X137872500Y-58205714D01*
X137872500Y-57872380D02*
X137920119Y-57920000D01*
X137872500Y-57967619D01*
X137824880Y-57920000D01*
X137872500Y-57872380D01*
X137872500Y-57967619D01*
X137396309Y-58205714D02*
X137396309Y-58872380D01*
X137396309Y-58300952D02*
X137348690Y-58253333D01*
X137253452Y-58205714D01*
X137110595Y-58205714D01*
X137015357Y-58253333D01*
X136967738Y-58348571D01*
X136967738Y-58872380D01*
X140205833Y-65825714D02*
X140205833Y-66635238D01*
X140253452Y-66730476D01*
X140301071Y-66778095D01*
X140396309Y-66825714D01*
X140539166Y-66825714D01*
X140634404Y-66778095D01*
X140205833Y-66444761D02*
X140301071Y-66492380D01*
X140491547Y-66492380D01*
X140586785Y-66444761D01*
X140634404Y-66397142D01*
X140682023Y-66301904D01*
X140682023Y-66016190D01*
X140634404Y-65920952D01*
X140586785Y-65873333D01*
X140491547Y-65825714D01*
X140301071Y-65825714D01*
X140205833Y-65873333D01*
X139729642Y-65825714D02*
X139729642Y-66492380D01*
X139729642Y-65920952D02*
X139682023Y-65873333D01*
X139586785Y-65825714D01*
X139443928Y-65825714D01*
X139348690Y-65873333D01*
X139301071Y-65968571D01*
X139301071Y-66492380D01*
X138396309Y-66492380D02*
X138396309Y-65492380D01*
X138396309Y-66444761D02*
X138491547Y-66492380D01*
X138682023Y-66492380D01*
X138777261Y-66444761D01*
X138824880Y-66397142D01*
X138872500Y-66301904D01*
X138872500Y-66016190D01*
X138824880Y-65920952D01*
X138777261Y-65873333D01*
X138682023Y-65825714D01*
X138491547Y-65825714D01*
X138396309Y-65873333D01*
X140205833Y-63285714D02*
X140205833Y-64095238D01*
X140253452Y-64190476D01*
X140301071Y-64238095D01*
X140396309Y-64285714D01*
X140539166Y-64285714D01*
X140634404Y-64238095D01*
X140205833Y-63904761D02*
X140301071Y-63952380D01*
X140491547Y-63952380D01*
X140586785Y-63904761D01*
X140634404Y-63857142D01*
X140682023Y-63761904D01*
X140682023Y-63476190D01*
X140634404Y-63380952D01*
X140586785Y-63333333D01*
X140491547Y-63285714D01*
X140301071Y-63285714D01*
X140205833Y-63333333D01*
X139729642Y-63285714D02*
X139729642Y-63952380D01*
X139729642Y-63380952D02*
X139682023Y-63333333D01*
X139586785Y-63285714D01*
X139443928Y-63285714D01*
X139348690Y-63333333D01*
X139301071Y-63428571D01*
X139301071Y-63952380D01*
X138396309Y-63952380D02*
X138396309Y-62952380D01*
X138396309Y-63904761D02*
X138491547Y-63952380D01*
X138682023Y-63952380D01*
X138777261Y-63904761D01*
X138824880Y-63857142D01*
X138872500Y-63761904D01*
X138872500Y-63476190D01*
X138824880Y-63380952D01*
X138777261Y-63333333D01*
X138682023Y-63285714D01*
X138491547Y-63285714D01*
X138396309Y-63333333D01*
X140205833Y-60745714D02*
X140205833Y-61555238D01*
X140253452Y-61650476D01*
X140301071Y-61698095D01*
X140396309Y-61745714D01*
X140539166Y-61745714D01*
X140634404Y-61698095D01*
X140205833Y-61364761D02*
X140301071Y-61412380D01*
X140491547Y-61412380D01*
X140586785Y-61364761D01*
X140634404Y-61317142D01*
X140682023Y-61221904D01*
X140682023Y-60936190D01*
X140634404Y-60840952D01*
X140586785Y-60793333D01*
X140491547Y-60745714D01*
X140301071Y-60745714D01*
X140205833Y-60793333D01*
X139729642Y-60745714D02*
X139729642Y-61412380D01*
X139729642Y-60840952D02*
X139682023Y-60793333D01*
X139586785Y-60745714D01*
X139443928Y-60745714D01*
X139348690Y-60793333D01*
X139301071Y-60888571D01*
X139301071Y-61412380D01*
X138396309Y-61412380D02*
X138396309Y-60412380D01*
X138396309Y-61364761D02*
X138491547Y-61412380D01*
X138682023Y-61412380D01*
X138777261Y-61364761D01*
X138824880Y-61317142D01*
X138872500Y-61221904D01*
X138872500Y-60936190D01*
X138824880Y-60840952D01*
X138777261Y-60793333D01*
X138682023Y-60745714D01*
X138491547Y-60745714D01*
X138396309Y-60793333D01*
X140729642Y-68365714D02*
X140491547Y-69032380D01*
X140253452Y-68365714D01*
X139872500Y-68651428D02*
X139110595Y-68651428D01*
X137872500Y-69032380D02*
X137872500Y-68365714D01*
X137872500Y-68032380D02*
X137920119Y-68080000D01*
X137872500Y-68127619D01*
X137824880Y-68080000D01*
X137872500Y-68032380D01*
X137872500Y-68127619D01*
X137396309Y-68365714D02*
X137396309Y-69032380D01*
X137396309Y-68460952D02*
X137348690Y-68413333D01*
X137253452Y-68365714D01*
X137110595Y-68365714D01*
X137015357Y-68413333D01*
X136967738Y-68508571D01*
X136967738Y-69032380D01*
X223184404Y-54682380D02*
X223184404Y-53682380D01*
X222946309Y-53682380D01*
X222803452Y-53730000D01*
X222708214Y-53825238D01*
X222660595Y-53920476D01*
X222612976Y-54110952D01*
X222612976Y-54253809D01*
X222660595Y-54444285D01*
X222708214Y-54539523D01*
X222803452Y-54634761D01*
X222946309Y-54682380D01*
X223184404Y-54682380D01*
X221755833Y-54015714D02*
X221755833Y-54682380D01*
X222184404Y-54015714D02*
X222184404Y-54539523D01*
X222136785Y-54634761D01*
X222041547Y-54682380D01*
X221898690Y-54682380D01*
X221803452Y-54634761D01*
X221755833Y-54587142D01*
X220851071Y-54682380D02*
X220851071Y-54158571D01*
X220898690Y-54063333D01*
X220993928Y-54015714D01*
X221184404Y-54015714D01*
X221279642Y-54063333D01*
X220851071Y-54634761D02*
X220946309Y-54682380D01*
X221184404Y-54682380D01*
X221279642Y-54634761D01*
X221327261Y-54539523D01*
X221327261Y-54444285D01*
X221279642Y-54349047D01*
X221184404Y-54301428D01*
X220946309Y-54301428D01*
X220851071Y-54253809D01*
X220232023Y-54682380D02*
X220327261Y-54634761D01*
X220374880Y-54539523D01*
X220374880Y-53682380D01*
X218946309Y-54682380D02*
X219041547Y-54634761D01*
X219089166Y-54539523D01*
X219089166Y-53682380D01*
X218565357Y-54682380D02*
X218565357Y-54015714D01*
X218565357Y-53682380D02*
X218612976Y-53730000D01*
X218565357Y-53777619D01*
X218517738Y-53730000D01*
X218565357Y-53682380D01*
X218565357Y-53777619D01*
X218089166Y-54015714D02*
X218089166Y-54682380D01*
X218089166Y-54110952D02*
X218041547Y-54063333D01*
X217946309Y-54015714D01*
X217803452Y-54015714D01*
X217708214Y-54063333D01*
X217660595Y-54158571D01*
X217660595Y-54682380D01*
X216803452Y-54634761D02*
X216898690Y-54682380D01*
X217089166Y-54682380D01*
X217184404Y-54634761D01*
X217232023Y-54539523D01*
X217232023Y-54158571D01*
X217184404Y-54063333D01*
X217089166Y-54015714D01*
X216898690Y-54015714D01*
X216803452Y-54063333D01*
X216755833Y-54158571D01*
X216755833Y-54253809D01*
X217232023Y-54349047D01*
X215898690Y-54682380D02*
X215898690Y-54158571D01*
X215946309Y-54063333D01*
X216041547Y-54015714D01*
X216232023Y-54015714D01*
X216327261Y-54063333D01*
X215898690Y-54634761D02*
X215993928Y-54682380D01*
X216232023Y-54682380D01*
X216327261Y-54634761D01*
X216374880Y-54539523D01*
X216374880Y-54444285D01*
X216327261Y-54349047D01*
X216232023Y-54301428D01*
X215993928Y-54301428D01*
X215898690Y-54253809D01*
X215422500Y-54682380D02*
X215422500Y-54015714D01*
X215422500Y-54206190D02*
X215374880Y-54110952D01*
X215327261Y-54063333D01*
X215232023Y-54015714D01*
X215136785Y-54015714D01*
X214089166Y-53777619D02*
X214041547Y-53730000D01*
X213946309Y-53682380D01*
X213708214Y-53682380D01*
X213612976Y-53730000D01*
X213565357Y-53777619D01*
X213517738Y-53872857D01*
X213517738Y-53968095D01*
X213565357Y-54110952D01*
X214136785Y-54682380D01*
X213517738Y-54682380D01*
X212565357Y-54682380D02*
X213136785Y-54682380D01*
X212851071Y-54682380D02*
X212851071Y-53682380D01*
X212946309Y-53825238D01*
X213041547Y-53920476D01*
X213136785Y-53968095D01*
X211708214Y-53682380D02*
X211898690Y-53682380D01*
X211993928Y-53730000D01*
X212041547Y-53777619D01*
X212136785Y-53920476D01*
X212184404Y-54110952D01*
X212184404Y-54491904D01*
X212136785Y-54587142D01*
X212089166Y-54634761D01*
X211993928Y-54682380D01*
X211803452Y-54682380D01*
X211708214Y-54634761D01*
X211660595Y-54587142D01*
X211612976Y-54491904D01*
X211612976Y-54253809D01*
X211660595Y-54158571D01*
X211708214Y-54110952D01*
X211803452Y-54063333D01*
X211993928Y-54063333D01*
X212089166Y-54110952D01*
X212136785Y-54158571D01*
X212184404Y-54253809D01*
X210755833Y-54015714D02*
X210755833Y-54682380D01*
X210993928Y-53634761D02*
X211232023Y-54349047D01*
X210612976Y-54349047D01*
X209612976Y-53682380D02*
X209279642Y-54682380D01*
X208946309Y-53682380D01*
X208041547Y-54587142D02*
X208089166Y-54634761D01*
X208232023Y-54682380D01*
X208327261Y-54682380D01*
X208470119Y-54634761D01*
X208565357Y-54539523D01*
X208612976Y-54444285D01*
X208660595Y-54253809D01*
X208660595Y-54110952D01*
X208612976Y-53920476D01*
X208565357Y-53825238D01*
X208470119Y-53730000D01*
X208327261Y-53682380D01*
X208232023Y-53682380D01*
X208089166Y-53730000D01*
X208041547Y-53777619D01*
X207660595Y-54396666D02*
X207184404Y-54396666D01*
X207755833Y-54682380D02*
X207422500Y-53682380D01*
X207089166Y-54682380D01*
X223184404Y-56332380D02*
X223184404Y-55665714D01*
X223184404Y-55856190D02*
X223136785Y-55760952D01*
X223089166Y-55713333D01*
X222993928Y-55665714D01*
X222898690Y-55665714D01*
X222184404Y-56284761D02*
X222279642Y-56332380D01*
X222470119Y-56332380D01*
X222565357Y-56284761D01*
X222612976Y-56189523D01*
X222612976Y-55808571D01*
X222565357Y-55713333D01*
X222470119Y-55665714D01*
X222279642Y-55665714D01*
X222184404Y-55713333D01*
X222136785Y-55808571D01*
X222136785Y-55903809D01*
X222612976Y-55999047D01*
X221803452Y-55665714D02*
X221565357Y-56332380D01*
X221327261Y-55665714D01*
X219993928Y-55332380D02*
X219898690Y-55332380D01*
X219803452Y-55380000D01*
X219755833Y-55427619D01*
X219708214Y-55522857D01*
X219660595Y-55713333D01*
X219660595Y-55951428D01*
X219708214Y-56141904D01*
X219755833Y-56237142D01*
X219803452Y-56284761D01*
X219898690Y-56332380D01*
X219993928Y-56332380D01*
X220089166Y-56284761D01*
X220136785Y-56237142D01*
X220184404Y-56141904D01*
X220232023Y-55951428D01*
X220232023Y-55713333D01*
X220184404Y-55522857D01*
X220136785Y-55427619D01*
X220089166Y-55380000D01*
X219993928Y-55332380D01*
X223232023Y-57077619D02*
X223184404Y-57030000D01*
X223089166Y-56982380D01*
X222851071Y-56982380D01*
X222755833Y-57030000D01*
X222708214Y-57077619D01*
X222660595Y-57172857D01*
X222660595Y-57268095D01*
X222708214Y-57410952D01*
X223279642Y-57982380D01*
X222660595Y-57982380D01*
X222041547Y-56982380D02*
X221946309Y-56982380D01*
X221851071Y-57030000D01*
X221803452Y-57077619D01*
X221755833Y-57172857D01*
X221708214Y-57363333D01*
X221708214Y-57601428D01*
X221755833Y-57791904D01*
X221803452Y-57887142D01*
X221851071Y-57934761D01*
X221946309Y-57982380D01*
X222041547Y-57982380D01*
X222136785Y-57934761D01*
X222184404Y-57887142D01*
X222232023Y-57791904D01*
X222279642Y-57601428D01*
X222279642Y-57363333D01*
X222232023Y-57172857D01*
X222184404Y-57077619D01*
X222136785Y-57030000D01*
X222041547Y-56982380D01*
X221327261Y-57077619D02*
X221279642Y-57030000D01*
X221184404Y-56982380D01*
X220946309Y-56982380D01*
X220851071Y-57030000D01*
X220803452Y-57077619D01*
X220755833Y-57172857D01*
X220755833Y-57268095D01*
X220803452Y-57410952D01*
X221374880Y-57982380D01*
X220755833Y-57982380D01*
X220136785Y-56982380D02*
X220041547Y-56982380D01*
X219946309Y-57030000D01*
X219898690Y-57077619D01*
X219851071Y-57172857D01*
X219803452Y-57363333D01*
X219803452Y-57601428D01*
X219851071Y-57791904D01*
X219898690Y-57887142D01*
X219946309Y-57934761D01*
X220041547Y-57982380D01*
X220136785Y-57982380D01*
X220232023Y-57934761D01*
X220279642Y-57887142D01*
X220327261Y-57791904D01*
X220374880Y-57601428D01*
X220374880Y-57363333D01*
X220327261Y-57172857D01*
X220279642Y-57077619D01*
X220232023Y-57030000D01*
X220136785Y-56982380D01*
X219374880Y-57601428D02*
X218612976Y-57601428D01*
X217946309Y-56982380D02*
X217851071Y-56982380D01*
X217755833Y-57030000D01*
X217708214Y-57077619D01*
X217660595Y-57172857D01*
X217612976Y-57363333D01*
X217612976Y-57601428D01*
X217660595Y-57791904D01*
X217708214Y-57887142D01*
X217755833Y-57934761D01*
X217851071Y-57982380D01*
X217946309Y-57982380D01*
X218041547Y-57934761D01*
X218089166Y-57887142D01*
X218136785Y-57791904D01*
X218184404Y-57601428D01*
X218184404Y-57363333D01*
X218136785Y-57172857D01*
X218089166Y-57077619D01*
X218041547Y-57030000D01*
X217946309Y-56982380D01*
X216755833Y-56982380D02*
X216946309Y-56982380D01*
X217041547Y-57030000D01*
X217089166Y-57077619D01*
X217184404Y-57220476D01*
X217232023Y-57410952D01*
X217232023Y-57791904D01*
X217184404Y-57887142D01*
X217136785Y-57934761D01*
X217041547Y-57982380D01*
X216851071Y-57982380D01*
X216755833Y-57934761D01*
X216708214Y-57887142D01*
X216660595Y-57791904D01*
X216660595Y-57553809D01*
X216708214Y-57458571D01*
X216755833Y-57410952D01*
X216851071Y-57363333D01*
X217041547Y-57363333D01*
X217136785Y-57410952D01*
X217184404Y-57458571D01*
X217232023Y-57553809D01*
X216232023Y-57601428D02*
X215470119Y-57601428D01*
X214470119Y-57982380D02*
X215041547Y-57982380D01*
X214755833Y-57982380D02*
X214755833Y-56982380D01*
X214851071Y-57125238D01*
X214946309Y-57220476D01*
X215041547Y-57268095D01*
X213565357Y-56982380D02*
X214041547Y-56982380D01*
X214089166Y-57458571D01*
X214041547Y-57410952D01*
X213946309Y-57363333D01*
X213708214Y-57363333D01*
X213612976Y-57410952D01*
X213565357Y-57458571D01*
X213517738Y-57553809D01*
X213517738Y-57791904D01*
X213565357Y-57887142D01*
X213612976Y-57934761D01*
X213708214Y-57982380D01*
X213946309Y-57982380D01*
X214041547Y-57934761D01*
X214089166Y-57887142D01*
X218797142Y-134257023D02*
X218844761Y-134209404D01*
X218892380Y-134066547D01*
X218892380Y-133971309D01*
X218844761Y-133828452D01*
X218749523Y-133733214D01*
X218654285Y-133685595D01*
X218463809Y-133637976D01*
X218320952Y-133637976D01*
X218130476Y-133685595D01*
X218035238Y-133733214D01*
X217940000Y-133828452D01*
X217892380Y-133971309D01*
X217892380Y-134066547D01*
X217940000Y-134209404D01*
X217987619Y-134257023D01*
X217892380Y-134542738D02*
X218892380Y-134876071D01*
X217892380Y-135209404D01*
X217987619Y-136257023D02*
X217940000Y-136304642D01*
X217892380Y-136399880D01*
X217892380Y-136637976D01*
X217940000Y-136733214D01*
X217987619Y-136780833D01*
X218082857Y-136828452D01*
X218178095Y-136828452D01*
X218320952Y-136780833D01*
X218892380Y-136209404D01*
X218892380Y-136828452D01*
X218892380Y-138018928D02*
X218225714Y-138018928D01*
X217892380Y-138018928D02*
X217940000Y-137971309D01*
X217987619Y-138018928D01*
X217940000Y-138066547D01*
X217892380Y-138018928D01*
X217987619Y-138018928D01*
X218225714Y-138495119D02*
X218892380Y-138495119D01*
X218320952Y-138495119D02*
X218273333Y-138542738D01*
X218225714Y-138637976D01*
X218225714Y-138780833D01*
X218273333Y-138876071D01*
X218368571Y-138923690D01*
X218892380Y-138923690D01*
X216257142Y-134257023D02*
X216304761Y-134209404D01*
X216352380Y-134066547D01*
X216352380Y-133971309D01*
X216304761Y-133828452D01*
X216209523Y-133733214D01*
X216114285Y-133685595D01*
X215923809Y-133637976D01*
X215780952Y-133637976D01*
X215590476Y-133685595D01*
X215495238Y-133733214D01*
X215400000Y-133828452D01*
X215352380Y-133971309D01*
X215352380Y-134066547D01*
X215400000Y-134209404D01*
X215447619Y-134257023D01*
X215352380Y-134542738D02*
X216352380Y-134876071D01*
X215352380Y-135209404D01*
X215447619Y-136257023D02*
X215400000Y-136304642D01*
X215352380Y-136399880D01*
X215352380Y-136637976D01*
X215400000Y-136733214D01*
X215447619Y-136780833D01*
X215542857Y-136828452D01*
X215638095Y-136828452D01*
X215780952Y-136780833D01*
X216352380Y-136209404D01*
X216352380Y-136828452D01*
X216352380Y-138018928D02*
X215685714Y-138018928D01*
X215352380Y-138018928D02*
X215400000Y-137971309D01*
X215447619Y-138018928D01*
X215400000Y-138066547D01*
X215352380Y-138018928D01*
X215447619Y-138018928D01*
X215685714Y-138495119D02*
X216352380Y-138495119D01*
X215780952Y-138495119D02*
X215733333Y-138542738D01*
X215685714Y-138637976D01*
X215685714Y-138780833D01*
X215733333Y-138876071D01*
X215828571Y-138923690D01*
X216352380Y-138923690D01*
X220765714Y-134114166D02*
X221575238Y-134114166D01*
X221670476Y-134066547D01*
X221718095Y-134018928D01*
X221765714Y-133923690D01*
X221765714Y-133780833D01*
X221718095Y-133685595D01*
X221384761Y-134114166D02*
X221432380Y-134018928D01*
X221432380Y-133828452D01*
X221384761Y-133733214D01*
X221337142Y-133685595D01*
X221241904Y-133637976D01*
X220956190Y-133637976D01*
X220860952Y-133685595D01*
X220813333Y-133733214D01*
X220765714Y-133828452D01*
X220765714Y-134018928D01*
X220813333Y-134114166D01*
X220765714Y-134590357D02*
X221432380Y-134590357D01*
X220860952Y-134590357D02*
X220813333Y-134637976D01*
X220765714Y-134733214D01*
X220765714Y-134876071D01*
X220813333Y-134971309D01*
X220908571Y-135018928D01*
X221432380Y-135018928D01*
X221432380Y-135923690D02*
X220432380Y-135923690D01*
X221384761Y-135923690D02*
X221432380Y-135828452D01*
X221432380Y-135637976D01*
X221384761Y-135542738D01*
X221337142Y-135495119D01*
X221241904Y-135447500D01*
X220956190Y-135447500D01*
X220860952Y-135495119D01*
X220813333Y-135542738D01*
X220765714Y-135637976D01*
X220765714Y-135828452D01*
X220813333Y-135923690D01*
X213764761Y-133637976D02*
X213812380Y-133733214D01*
X213812380Y-133923690D01*
X213764761Y-134018928D01*
X213669523Y-134066547D01*
X213621904Y-134066547D01*
X213526666Y-134018928D01*
X213479047Y-133923690D01*
X213479047Y-133780833D01*
X213431428Y-133685595D01*
X213336190Y-133637976D01*
X213288571Y-133637976D01*
X213193333Y-133685595D01*
X213145714Y-133780833D01*
X213145714Y-133923690D01*
X213193333Y-134018928D01*
X213812380Y-134495119D02*
X213145714Y-134495119D01*
X212812380Y-134495119D02*
X212860000Y-134447500D01*
X212907619Y-134495119D01*
X212860000Y-134542738D01*
X212812380Y-134495119D01*
X212907619Y-134495119D01*
X213145714Y-135399880D02*
X213955238Y-135399880D01*
X214050476Y-135352261D01*
X214098095Y-135304642D01*
X214145714Y-135209404D01*
X214145714Y-135066547D01*
X214098095Y-134971309D01*
X213764761Y-135399880D02*
X213812380Y-135304642D01*
X213812380Y-135114166D01*
X213764761Y-135018928D01*
X213717142Y-134971309D01*
X213621904Y-134923690D01*
X213336190Y-134923690D01*
X213240952Y-134971309D01*
X213193333Y-135018928D01*
X213145714Y-135114166D01*
X213145714Y-135304642D01*
X213193333Y-135399880D01*
X213145714Y-135876071D02*
X213812380Y-135876071D01*
X213240952Y-135876071D02*
X213193333Y-135923690D01*
X213145714Y-136018928D01*
X213145714Y-136161785D01*
X213193333Y-136257023D01*
X213288571Y-136304642D01*
X213812380Y-136304642D01*
X213812380Y-137209404D02*
X213288571Y-137209404D01*
X213193333Y-137161785D01*
X213145714Y-137066547D01*
X213145714Y-136876071D01*
X213193333Y-136780833D01*
X213764761Y-137209404D02*
X213812380Y-137114166D01*
X213812380Y-136876071D01*
X213764761Y-136780833D01*
X213669523Y-136733214D01*
X213574285Y-136733214D01*
X213479047Y-136780833D01*
X213431428Y-136876071D01*
X213431428Y-137114166D01*
X213383809Y-137209404D01*
X213812380Y-137828452D02*
X213764761Y-137733214D01*
X213669523Y-137685595D01*
X212812380Y-137685595D01*
X212907619Y-138923690D02*
X212860000Y-138971309D01*
X212812380Y-139066547D01*
X212812380Y-139304642D01*
X212860000Y-139399880D01*
X212907619Y-139447500D01*
X213002857Y-139495119D01*
X213098095Y-139495119D01*
X213240952Y-139447500D01*
X213812380Y-138876071D01*
X213812380Y-139495119D01*
X213812380Y-140828452D02*
X213764761Y-140733214D01*
X213717142Y-140685595D01*
X213621904Y-140637976D01*
X213336190Y-140637976D01*
X213240952Y-140685595D01*
X213193333Y-140733214D01*
X213145714Y-140828452D01*
X213145714Y-140971309D01*
X213193333Y-141066547D01*
X213240952Y-141114166D01*
X213336190Y-141161785D01*
X213621904Y-141161785D01*
X213717142Y-141114166D01*
X213764761Y-141066547D01*
X213812380Y-140971309D01*
X213812380Y-140828452D01*
X213145714Y-142018928D02*
X213812380Y-142018928D01*
X213145714Y-141590357D02*
X213669523Y-141590357D01*
X213764761Y-141637976D01*
X213812380Y-141733214D01*
X213812380Y-141876071D01*
X213764761Y-141971309D01*
X213717142Y-142018928D01*
X213145714Y-142352261D02*
X213145714Y-142733214D01*
X212812380Y-142495119D02*
X213669523Y-142495119D01*
X213764761Y-142542738D01*
X213812380Y-142637976D01*
X213812380Y-142733214D01*
X211224761Y-133637976D02*
X211272380Y-133733214D01*
X211272380Y-133923690D01*
X211224761Y-134018928D01*
X211129523Y-134066547D01*
X211081904Y-134066547D01*
X210986666Y-134018928D01*
X210939047Y-133923690D01*
X210939047Y-133780833D01*
X210891428Y-133685595D01*
X210796190Y-133637976D01*
X210748571Y-133637976D01*
X210653333Y-133685595D01*
X210605714Y-133780833D01*
X210605714Y-133923690D01*
X210653333Y-134018928D01*
X211272380Y-134495119D02*
X210605714Y-134495119D01*
X210272380Y-134495119D02*
X210320000Y-134447500D01*
X210367619Y-134495119D01*
X210320000Y-134542738D01*
X210272380Y-134495119D01*
X210367619Y-134495119D01*
X210605714Y-135399880D02*
X211415238Y-135399880D01*
X211510476Y-135352261D01*
X211558095Y-135304642D01*
X211605714Y-135209404D01*
X211605714Y-135066547D01*
X211558095Y-134971309D01*
X211224761Y-135399880D02*
X211272380Y-135304642D01*
X211272380Y-135114166D01*
X211224761Y-135018928D01*
X211177142Y-134971309D01*
X211081904Y-134923690D01*
X210796190Y-134923690D01*
X210700952Y-134971309D01*
X210653333Y-135018928D01*
X210605714Y-135114166D01*
X210605714Y-135304642D01*
X210653333Y-135399880D01*
X210605714Y-135876071D02*
X211272380Y-135876071D01*
X210700952Y-135876071D02*
X210653333Y-135923690D01*
X210605714Y-136018928D01*
X210605714Y-136161785D01*
X210653333Y-136257023D01*
X210748571Y-136304642D01*
X211272380Y-136304642D01*
X211272380Y-137209404D02*
X210748571Y-137209404D01*
X210653333Y-137161785D01*
X210605714Y-137066547D01*
X210605714Y-136876071D01*
X210653333Y-136780833D01*
X211224761Y-137209404D02*
X211272380Y-137114166D01*
X211272380Y-136876071D01*
X211224761Y-136780833D01*
X211129523Y-136733214D01*
X211034285Y-136733214D01*
X210939047Y-136780833D01*
X210891428Y-136876071D01*
X210891428Y-137114166D01*
X210843809Y-137209404D01*
X211272380Y-137828452D02*
X211224761Y-137733214D01*
X211129523Y-137685595D01*
X210272380Y-137685595D01*
X210367619Y-138923690D02*
X210320000Y-138971309D01*
X210272380Y-139066547D01*
X210272380Y-139304642D01*
X210320000Y-139399880D01*
X210367619Y-139447500D01*
X210462857Y-139495119D01*
X210558095Y-139495119D01*
X210700952Y-139447500D01*
X211272380Y-138876071D01*
X211272380Y-139495119D01*
X211272380Y-140685595D02*
X210605714Y-140685595D01*
X210272380Y-140685595D02*
X210320000Y-140637976D01*
X210367619Y-140685595D01*
X210320000Y-140733214D01*
X210272380Y-140685595D01*
X210367619Y-140685595D01*
X210605714Y-141161785D02*
X211272380Y-141161785D01*
X210700952Y-141161785D02*
X210653333Y-141209404D01*
X210605714Y-141304642D01*
X210605714Y-141447500D01*
X210653333Y-141542738D01*
X210748571Y-141590357D01*
X211272380Y-141590357D01*
X140104761Y-133637976D02*
X140152380Y-133733214D01*
X140152380Y-133923690D01*
X140104761Y-134018928D01*
X140009523Y-134066547D01*
X139961904Y-134066547D01*
X139866666Y-134018928D01*
X139819047Y-133923690D01*
X139819047Y-133780833D01*
X139771428Y-133685595D01*
X139676190Y-133637976D01*
X139628571Y-133637976D01*
X139533333Y-133685595D01*
X139485714Y-133780833D01*
X139485714Y-133923690D01*
X139533333Y-134018928D01*
X140152380Y-134495119D02*
X139485714Y-134495119D01*
X139152380Y-134495119D02*
X139200000Y-134447500D01*
X139247619Y-134495119D01*
X139200000Y-134542738D01*
X139152380Y-134495119D01*
X139247619Y-134495119D01*
X139485714Y-135399880D02*
X140295238Y-135399880D01*
X140390476Y-135352261D01*
X140438095Y-135304642D01*
X140485714Y-135209404D01*
X140485714Y-135066547D01*
X140438095Y-134971309D01*
X140104761Y-135399880D02*
X140152380Y-135304642D01*
X140152380Y-135114166D01*
X140104761Y-135018928D01*
X140057142Y-134971309D01*
X139961904Y-134923690D01*
X139676190Y-134923690D01*
X139580952Y-134971309D01*
X139533333Y-135018928D01*
X139485714Y-135114166D01*
X139485714Y-135304642D01*
X139533333Y-135399880D01*
X139485714Y-135876071D02*
X140152380Y-135876071D01*
X139580952Y-135876071D02*
X139533333Y-135923690D01*
X139485714Y-136018928D01*
X139485714Y-136161785D01*
X139533333Y-136257023D01*
X139628571Y-136304642D01*
X140152380Y-136304642D01*
X140152380Y-137209404D02*
X139628571Y-137209404D01*
X139533333Y-137161785D01*
X139485714Y-137066547D01*
X139485714Y-136876071D01*
X139533333Y-136780833D01*
X140104761Y-137209404D02*
X140152380Y-137114166D01*
X140152380Y-136876071D01*
X140104761Y-136780833D01*
X140009523Y-136733214D01*
X139914285Y-136733214D01*
X139819047Y-136780833D01*
X139771428Y-136876071D01*
X139771428Y-137114166D01*
X139723809Y-137209404D01*
X140152380Y-137828452D02*
X140104761Y-137733214D01*
X140009523Y-137685595D01*
X139152380Y-137685595D01*
X140152380Y-139495119D02*
X140152380Y-138923690D01*
X140152380Y-139209404D02*
X139152380Y-139209404D01*
X139295238Y-139114166D01*
X139390476Y-139018928D01*
X139438095Y-138923690D01*
X140152380Y-140828452D02*
X140104761Y-140733214D01*
X140057142Y-140685595D01*
X139961904Y-140637976D01*
X139676190Y-140637976D01*
X139580952Y-140685595D01*
X139533333Y-140733214D01*
X139485714Y-140828452D01*
X139485714Y-140971309D01*
X139533333Y-141066547D01*
X139580952Y-141114166D01*
X139676190Y-141161785D01*
X139961904Y-141161785D01*
X140057142Y-141114166D01*
X140104761Y-141066547D01*
X140152380Y-140971309D01*
X140152380Y-140828452D01*
X139485714Y-142018928D02*
X140152380Y-142018928D01*
X139485714Y-141590357D02*
X140009523Y-141590357D01*
X140104761Y-141637976D01*
X140152380Y-141733214D01*
X140152380Y-141876071D01*
X140104761Y-141971309D01*
X140057142Y-142018928D01*
X139485714Y-142352261D02*
X139485714Y-142733214D01*
X139152380Y-142495119D02*
X140009523Y-142495119D01*
X140104761Y-142542738D01*
X140152380Y-142637976D01*
X140152380Y-142733214D01*
X142644761Y-133637976D02*
X142692380Y-133733214D01*
X142692380Y-133923690D01*
X142644761Y-134018928D01*
X142549523Y-134066547D01*
X142501904Y-134066547D01*
X142406666Y-134018928D01*
X142359047Y-133923690D01*
X142359047Y-133780833D01*
X142311428Y-133685595D01*
X142216190Y-133637976D01*
X142168571Y-133637976D01*
X142073333Y-133685595D01*
X142025714Y-133780833D01*
X142025714Y-133923690D01*
X142073333Y-134018928D01*
X142692380Y-134495119D02*
X142025714Y-134495119D01*
X141692380Y-134495119D02*
X141740000Y-134447500D01*
X141787619Y-134495119D01*
X141740000Y-134542738D01*
X141692380Y-134495119D01*
X141787619Y-134495119D01*
X142025714Y-135399880D02*
X142835238Y-135399880D01*
X142930476Y-135352261D01*
X142978095Y-135304642D01*
X143025714Y-135209404D01*
X143025714Y-135066547D01*
X142978095Y-134971309D01*
X142644761Y-135399880D02*
X142692380Y-135304642D01*
X142692380Y-135114166D01*
X142644761Y-135018928D01*
X142597142Y-134971309D01*
X142501904Y-134923690D01*
X142216190Y-134923690D01*
X142120952Y-134971309D01*
X142073333Y-135018928D01*
X142025714Y-135114166D01*
X142025714Y-135304642D01*
X142073333Y-135399880D01*
X142025714Y-135876071D02*
X142692380Y-135876071D01*
X142120952Y-135876071D02*
X142073333Y-135923690D01*
X142025714Y-136018928D01*
X142025714Y-136161785D01*
X142073333Y-136257023D01*
X142168571Y-136304642D01*
X142692380Y-136304642D01*
X142692380Y-137209404D02*
X142168571Y-137209404D01*
X142073333Y-137161785D01*
X142025714Y-137066547D01*
X142025714Y-136876071D01*
X142073333Y-136780833D01*
X142644761Y-137209404D02*
X142692380Y-137114166D01*
X142692380Y-136876071D01*
X142644761Y-136780833D01*
X142549523Y-136733214D01*
X142454285Y-136733214D01*
X142359047Y-136780833D01*
X142311428Y-136876071D01*
X142311428Y-137114166D01*
X142263809Y-137209404D01*
X142692380Y-137828452D02*
X142644761Y-137733214D01*
X142549523Y-137685595D01*
X141692380Y-137685595D01*
X142692380Y-139495119D02*
X142692380Y-138923690D01*
X142692380Y-139209404D02*
X141692380Y-139209404D01*
X141835238Y-139114166D01*
X141930476Y-139018928D01*
X141978095Y-138923690D01*
X142692380Y-140685595D02*
X142025714Y-140685595D01*
X141692380Y-140685595D02*
X141740000Y-140637976D01*
X141787619Y-140685595D01*
X141740000Y-140733214D01*
X141692380Y-140685595D01*
X141787619Y-140685595D01*
X142025714Y-141161785D02*
X142692380Y-141161785D01*
X142120952Y-141161785D02*
X142073333Y-141209404D01*
X142025714Y-141304642D01*
X142025714Y-141447500D01*
X142073333Y-141542738D01*
X142168571Y-141590357D01*
X142692380Y-141590357D01*
X137517142Y-134257023D02*
X137564761Y-134209404D01*
X137612380Y-134066547D01*
X137612380Y-133971309D01*
X137564761Y-133828452D01*
X137469523Y-133733214D01*
X137374285Y-133685595D01*
X137183809Y-133637976D01*
X137040952Y-133637976D01*
X136850476Y-133685595D01*
X136755238Y-133733214D01*
X136660000Y-133828452D01*
X136612380Y-133971309D01*
X136612380Y-134066547D01*
X136660000Y-134209404D01*
X136707619Y-134257023D01*
X136612380Y-134542738D02*
X137612380Y-134876071D01*
X136612380Y-135209404D01*
X137612380Y-136828452D02*
X137612380Y-136257023D01*
X137612380Y-136542738D02*
X136612380Y-136542738D01*
X136755238Y-136447500D01*
X136850476Y-136352261D01*
X136898095Y-136257023D01*
X137612380Y-138018928D02*
X136945714Y-138018928D01*
X136612380Y-138018928D02*
X136660000Y-137971309D01*
X136707619Y-138018928D01*
X136660000Y-138066547D01*
X136612380Y-138018928D01*
X136707619Y-138018928D01*
X136945714Y-138495119D02*
X137612380Y-138495119D01*
X137040952Y-138495119D02*
X136993333Y-138542738D01*
X136945714Y-138637976D01*
X136945714Y-138780833D01*
X136993333Y-138876071D01*
X137088571Y-138923690D01*
X137612380Y-138923690D01*
X137612380Y-140590357D02*
X137088571Y-140590357D01*
X136993333Y-140542738D01*
X136945714Y-140447500D01*
X136945714Y-140257023D01*
X136993333Y-140161785D01*
X137564761Y-140590357D02*
X137612380Y-140495119D01*
X137612380Y-140257023D01*
X137564761Y-140161785D01*
X137469523Y-140114166D01*
X137374285Y-140114166D01*
X137279047Y-140161785D01*
X137231428Y-140257023D01*
X137231428Y-140495119D01*
X137183809Y-140590357D01*
X134977142Y-134257023D02*
X135024761Y-134209404D01*
X135072380Y-134066547D01*
X135072380Y-133971309D01*
X135024761Y-133828452D01*
X134929523Y-133733214D01*
X134834285Y-133685595D01*
X134643809Y-133637976D01*
X134500952Y-133637976D01*
X134310476Y-133685595D01*
X134215238Y-133733214D01*
X134120000Y-133828452D01*
X134072380Y-133971309D01*
X134072380Y-134066547D01*
X134120000Y-134209404D01*
X134167619Y-134257023D01*
X134072380Y-134542738D02*
X135072380Y-134876071D01*
X134072380Y-135209404D01*
X135072380Y-136828452D02*
X135072380Y-136257023D01*
X135072380Y-136542738D02*
X134072380Y-136542738D01*
X134215238Y-136447500D01*
X134310476Y-136352261D01*
X134358095Y-136257023D01*
X135072380Y-138018928D02*
X134405714Y-138018928D01*
X134072380Y-138018928D02*
X134120000Y-137971309D01*
X134167619Y-138018928D01*
X134120000Y-138066547D01*
X134072380Y-138018928D01*
X134167619Y-138018928D01*
X134405714Y-138495119D02*
X135072380Y-138495119D01*
X134500952Y-138495119D02*
X134453333Y-138542738D01*
X134405714Y-138637976D01*
X134405714Y-138780833D01*
X134453333Y-138876071D01*
X134548571Y-138923690D01*
X135072380Y-138923690D01*
X135072380Y-140161785D02*
X134072380Y-140161785D01*
X134453333Y-140161785D02*
X134405714Y-140257023D01*
X134405714Y-140447500D01*
X134453333Y-140542738D01*
X134500952Y-140590357D01*
X134596190Y-140637976D01*
X134881904Y-140637976D01*
X134977142Y-140590357D01*
X135024761Y-140542738D01*
X135072380Y-140447500D01*
X135072380Y-140257023D01*
X135024761Y-140161785D01*
X131865714Y-134114166D02*
X132675238Y-134114166D01*
X132770476Y-134066547D01*
X132818095Y-134018928D01*
X132865714Y-133923690D01*
X132865714Y-133780833D01*
X132818095Y-133685595D01*
X132484761Y-134114166D02*
X132532380Y-134018928D01*
X132532380Y-133828452D01*
X132484761Y-133733214D01*
X132437142Y-133685595D01*
X132341904Y-133637976D01*
X132056190Y-133637976D01*
X131960952Y-133685595D01*
X131913333Y-133733214D01*
X131865714Y-133828452D01*
X131865714Y-134018928D01*
X131913333Y-134114166D01*
X131865714Y-134590357D02*
X132532380Y-134590357D01*
X131960952Y-134590357D02*
X131913333Y-134637976D01*
X131865714Y-134733214D01*
X131865714Y-134876071D01*
X131913333Y-134971309D01*
X132008571Y-135018928D01*
X132532380Y-135018928D01*
X132532380Y-135923690D02*
X131532380Y-135923690D01*
X132484761Y-135923690D02*
X132532380Y-135828452D01*
X132532380Y-135637976D01*
X132484761Y-135542738D01*
X132437142Y-135495119D01*
X132341904Y-135447500D01*
X132056190Y-135447500D01*
X131960952Y-135495119D01*
X131913333Y-135542738D01*
X131865714Y-135637976D01*
X131865714Y-135828452D01*
X131913333Y-135923690D01*
D11*
X141742000Y-74448000D02*
X142672000Y-74448000D01*
X144902000Y-74448000D02*
X143972000Y-74448000D01*
X144902000Y-74448000D02*
X144902000Y-77608000D01*
X141742000Y-74448000D02*
X141742000Y-75908000D01*
X144542000Y-90738000D02*
X142892000Y-90738000D01*
X142892000Y-90738000D02*
X142892000Y-80458000D01*
X142892000Y-80458000D02*
X148192000Y-80458000D01*
X148192000Y-80458000D02*
X148192000Y-90738000D01*
X148192000Y-90738000D02*
X146542000Y-90738000D01*
X146542000Y-90738000D02*
G75*
G03*
X144542000Y-90738000I-1000000J0D01*
G01*
X177530000Y-69790000D02*
X179180000Y-69790000D01*
X179180000Y-69790000D02*
X179180000Y-80070000D01*
X179180000Y-80070000D02*
X173880000Y-80070000D01*
X173880000Y-80070000D02*
X173880000Y-69790000D01*
X173880000Y-69790000D02*
X175530000Y-69790000D01*
X175530000Y-69790000D02*
G75*
G03*
X177530000Y-69790000I1000000J0D01*
G01*
X177530000Y-126940000D02*
X179180000Y-126940000D01*
X179180000Y-126940000D02*
X179180000Y-137220000D01*
X179180000Y-137220000D02*
X173880000Y-137220000D01*
X173880000Y-137220000D02*
X173880000Y-126940000D01*
X173880000Y-126940000D02*
X175530000Y-126940000D01*
X175530000Y-126940000D02*
G75*
G03*
X177530000Y-126940000I1000000J0D01*
G01*
X177530000Y-114240000D02*
X179180000Y-114240000D01*
X179180000Y-114240000D02*
X179180000Y-124520000D01*
X179180000Y-124520000D02*
X173880000Y-124520000D01*
X173880000Y-124520000D02*
X173880000Y-114240000D01*
X173880000Y-114240000D02*
X175530000Y-114240000D01*
X175530000Y-114240000D02*
G75*
G03*
X177530000Y-114240000I1000000J0D01*
G01*
X177530000Y-88840000D02*
X179180000Y-88840000D01*
X179180000Y-88840000D02*
X179180000Y-109280000D01*
X179180000Y-109280000D02*
X173880000Y-109280000D01*
X173880000Y-109280000D02*
X173880000Y-88840000D01*
X173880000Y-88840000D02*
X175530000Y-88840000D01*
X175530000Y-88840000D02*
G75*
G03*
X177530000Y-88840000I1000000J0D01*
G01*
X199930000Y-118210000D02*
X199930000Y-115470000D01*
X199930000Y-115470000D02*
X206470000Y-115470000D01*
X206470000Y-115470000D02*
X206470000Y-118210000D01*
X206470000Y-118210000D02*
X199930000Y-118210000D01*
X199160000Y-116840000D02*
X199930000Y-116840000D01*
X207240000Y-116840000D02*
X206470000Y-116840000D01*
X153130000Y-115470000D02*
X153130000Y-118210000D01*
X153130000Y-118210000D02*
X146590000Y-118210000D01*
X146590000Y-118210000D02*
X146590000Y-115470000D01*
X146590000Y-115470000D02*
X153130000Y-115470000D01*
X153900000Y-116840000D02*
X153130000Y-116840000D01*
X145820000Y-116840000D02*
X146590000Y-116840000D01*
X184690000Y-101700000D02*
X184690000Y-98960000D01*
X184690000Y-98960000D02*
X191230000Y-98960000D01*
X191230000Y-98960000D02*
X191230000Y-101700000D01*
X191230000Y-101700000D02*
X184690000Y-101700000D01*
X183920000Y-100330000D02*
X184690000Y-100330000D01*
X192000000Y-100330000D02*
X191230000Y-100330000D01*
X184690000Y-96620000D02*
X184690000Y-93880000D01*
X184690000Y-93880000D02*
X191230000Y-93880000D01*
X191230000Y-93880000D02*
X191230000Y-96620000D01*
X191230000Y-96620000D02*
X184690000Y-96620000D01*
X183920000Y-95250000D02*
X184690000Y-95250000D01*
X192000000Y-95250000D02*
X191230000Y-95250000D01*
X168370000Y-98960000D02*
X168370000Y-101700000D01*
X168370000Y-101700000D02*
X161830000Y-101700000D01*
X161830000Y-101700000D02*
X161830000Y-98960000D01*
X161830000Y-98960000D02*
X168370000Y-98960000D01*
X169140000Y-100330000D02*
X168370000Y-100330000D01*
X161060000Y-100330000D02*
X161830000Y-100330000D01*
X168370000Y-93880000D02*
X168370000Y-96620000D01*
X168370000Y-96620000D02*
X161830000Y-96620000D01*
X161830000Y-96620000D02*
X161830000Y-93880000D01*
X161830000Y-93880000D02*
X168370000Y-93880000D01*
X169140000Y-95250000D02*
X168370000Y-95250000D01*
X161060000Y-95250000D02*
X161830000Y-95250000D01*
X205200000Y-83720000D02*
X205200000Y-86460000D01*
X205200000Y-86460000D02*
X198660000Y-86460000D01*
X198660000Y-86460000D02*
X198660000Y-83720000D01*
X198660000Y-83720000D02*
X205200000Y-83720000D01*
X205970000Y-85090000D02*
X205200000Y-85090000D01*
X197890000Y-85090000D02*
X198660000Y-85090000D01*
X137382000Y-85498000D02*
X137382000Y-88238000D01*
X137382000Y-88238000D02*
X130842000Y-88238000D01*
X130842000Y-88238000D02*
X130842000Y-85498000D01*
X130842000Y-85498000D02*
X137382000Y-85498000D01*
X138152000Y-86868000D02*
X137382000Y-86868000D01*
X130072000Y-86868000D02*
X130842000Y-86868000D01*
X137382000Y-80418000D02*
X137382000Y-83158000D01*
X137382000Y-83158000D02*
X130842000Y-83158000D01*
X130842000Y-83158000D02*
X130842000Y-80418000D01*
X130842000Y-80418000D02*
X137382000Y-80418000D01*
X138152000Y-81788000D02*
X137382000Y-81788000D01*
X130072000Y-81788000D02*
X130842000Y-81788000D01*
X161830000Y-76300000D02*
X161830000Y-73560000D01*
X161830000Y-73560000D02*
X168370000Y-73560000D01*
X168370000Y-73560000D02*
X168370000Y-76300000D01*
X168370000Y-76300000D02*
X161830000Y-76300000D01*
X161060000Y-74930000D02*
X161830000Y-74930000D01*
X169140000Y-74930000D02*
X168370000Y-74930000D01*
X168370000Y-109120000D02*
X168370000Y-111860000D01*
X168370000Y-111860000D02*
X161830000Y-111860000D01*
X161830000Y-111860000D02*
X161830000Y-109120000D01*
X161830000Y-109120000D02*
X168370000Y-109120000D01*
X169140000Y-110490000D02*
X168370000Y-110490000D01*
X161060000Y-110490000D02*
X161830000Y-110490000D01*
X168370000Y-88800000D02*
X168370000Y-91540000D01*
X168370000Y-91540000D02*
X161830000Y-91540000D01*
X161830000Y-91540000D02*
X161830000Y-88800000D01*
X161830000Y-88800000D02*
X168370000Y-88800000D01*
X169140000Y-90170000D02*
X168370000Y-90170000D01*
X161060000Y-90170000D02*
X161830000Y-90170000D01*
X168370000Y-104040000D02*
X168370000Y-106780000D01*
X168370000Y-106780000D02*
X161830000Y-106780000D01*
X161830000Y-106780000D02*
X161830000Y-104040000D01*
X161830000Y-104040000D02*
X168370000Y-104040000D01*
X169140000Y-105410000D02*
X168370000Y-105410000D01*
X161060000Y-105410000D02*
X161830000Y-105410000D01*
X168370000Y-83720000D02*
X168370000Y-86460000D01*
X168370000Y-86460000D02*
X161830000Y-86460000D01*
X161830000Y-86460000D02*
X161830000Y-83720000D01*
X161830000Y-83720000D02*
X168370000Y-83720000D01*
X169140000Y-85090000D02*
X168370000Y-85090000D01*
X161060000Y-85090000D02*
X161830000Y-85090000D01*
X161830000Y-133450000D02*
X161830000Y-130710000D01*
X161830000Y-130710000D02*
X168370000Y-130710000D01*
X168370000Y-130710000D02*
X168370000Y-133450000D01*
X168370000Y-133450000D02*
X161830000Y-133450000D01*
X161060000Y-132080000D02*
X161830000Y-132080000D01*
X169140000Y-132080000D02*
X168370000Y-132080000D01*
X168370000Y-135790000D02*
X168370000Y-138530000D01*
X168370000Y-138530000D02*
X161830000Y-138530000D01*
X161830000Y-138530000D02*
X161830000Y-135790000D01*
X161830000Y-135790000D02*
X168370000Y-135790000D01*
X169140000Y-137160000D02*
X168370000Y-137160000D01*
X161060000Y-137160000D02*
X161830000Y-137160000D01*
X191230000Y-73560000D02*
X191230000Y-76300000D01*
X191230000Y-76300000D02*
X184690000Y-76300000D01*
X184690000Y-76300000D02*
X184690000Y-73560000D01*
X184690000Y-73560000D02*
X191230000Y-73560000D01*
X192000000Y-74930000D02*
X191230000Y-74930000D01*
X183920000Y-74930000D02*
X184690000Y-74930000D01*
X184690000Y-111860000D02*
X184690000Y-109120000D01*
X184690000Y-109120000D02*
X191230000Y-109120000D01*
X191230000Y-109120000D02*
X191230000Y-111860000D01*
X191230000Y-111860000D02*
X184690000Y-111860000D01*
X183920000Y-110490000D02*
X184690000Y-110490000D01*
X192000000Y-110490000D02*
X191230000Y-110490000D01*
X184690000Y-91540000D02*
X184690000Y-88800000D01*
X184690000Y-88800000D02*
X191230000Y-88800000D01*
X191230000Y-88800000D02*
X191230000Y-91540000D01*
X191230000Y-91540000D02*
X184690000Y-91540000D01*
X183920000Y-90170000D02*
X184690000Y-90170000D01*
X192000000Y-90170000D02*
X191230000Y-90170000D01*
X184690000Y-106780000D02*
X184690000Y-104040000D01*
X184690000Y-104040000D02*
X191230000Y-104040000D01*
X191230000Y-104040000D02*
X191230000Y-106780000D01*
X191230000Y-106780000D02*
X184690000Y-106780000D01*
X183920000Y-105410000D02*
X184690000Y-105410000D01*
X192000000Y-105410000D02*
X191230000Y-105410000D01*
X184690000Y-86460000D02*
X184690000Y-83720000D01*
X184690000Y-83720000D02*
X191230000Y-83720000D01*
X191230000Y-83720000D02*
X191230000Y-86460000D01*
X191230000Y-86460000D02*
X184690000Y-86460000D01*
X183920000Y-85090000D02*
X184690000Y-85090000D01*
X192000000Y-85090000D02*
X191230000Y-85090000D01*
X191230000Y-130710000D02*
X191230000Y-133450000D01*
X191230000Y-133450000D02*
X184690000Y-133450000D01*
X184690000Y-133450000D02*
X184690000Y-130710000D01*
X184690000Y-130710000D02*
X191230000Y-130710000D01*
X192000000Y-132080000D02*
X191230000Y-132080000D01*
X183920000Y-132080000D02*
X184690000Y-132080000D01*
X184690000Y-138530000D02*
X184690000Y-135790000D01*
X184690000Y-135790000D02*
X191230000Y-135790000D01*
X191230000Y-135790000D02*
X191230000Y-138530000D01*
X191230000Y-138530000D02*
X184690000Y-138530000D01*
X183920000Y-137160000D02*
X184690000Y-137160000D01*
X192000000Y-137160000D02*
X191230000Y-137160000D01*
X149130000Y-148690000D02*
X149130000Y-145950000D01*
X149130000Y-145950000D02*
X155670000Y-145950000D01*
X155670000Y-145950000D02*
X155670000Y-148690000D01*
X155670000Y-148690000D02*
X149130000Y-148690000D01*
X148360000Y-147320000D02*
X149130000Y-147320000D01*
X156440000Y-147320000D02*
X155670000Y-147320000D01*
X203930000Y-145950000D02*
X203930000Y-148690000D01*
X203930000Y-148690000D02*
X197390000Y-148690000D01*
X197390000Y-148690000D02*
X197390000Y-145950000D01*
X197390000Y-145950000D02*
X203930000Y-145950000D01*
X204700000Y-147320000D02*
X203930000Y-147320000D01*
X196620000Y-147320000D02*
X197390000Y-147320000D01*
X153130000Y-120550000D02*
X153130000Y-123290000D01*
X153130000Y-123290000D02*
X146590000Y-123290000D01*
X146590000Y-123290000D02*
X146590000Y-120550000D01*
X146590000Y-120550000D02*
X153130000Y-120550000D01*
X153900000Y-121920000D02*
X153130000Y-121920000D01*
X145820000Y-121920000D02*
X146590000Y-121920000D01*
X153130000Y-110390000D02*
X153130000Y-113130000D01*
X153130000Y-113130000D02*
X146590000Y-113130000D01*
X146590000Y-113130000D02*
X146590000Y-110390000D01*
X146590000Y-110390000D02*
X153130000Y-110390000D01*
X153900000Y-111760000D02*
X153130000Y-111760000D01*
X145820000Y-111760000D02*
X146590000Y-111760000D01*
X199930000Y-123290000D02*
X199930000Y-120550000D01*
X199930000Y-120550000D02*
X206470000Y-120550000D01*
X206470000Y-120550000D02*
X206470000Y-123290000D01*
X206470000Y-123290000D02*
X199930000Y-123290000D01*
X199160000Y-121920000D02*
X199930000Y-121920000D01*
X207240000Y-121920000D02*
X206470000Y-121920000D01*
X199930000Y-113130000D02*
X199930000Y-110390000D01*
X199930000Y-110390000D02*
X206470000Y-110390000D01*
X206470000Y-110390000D02*
X206470000Y-113130000D01*
X206470000Y-113130000D02*
X199930000Y-113130000D01*
X199160000Y-111760000D02*
X199930000Y-111760000D01*
X207240000Y-111760000D02*
X206470000Y-111760000D01*
X130750000Y-57090000D02*
X135950000Y-57090000D01*
X130750000Y-67310000D02*
X130750000Y-57090000D01*
X135950000Y-69910000D02*
X135950000Y-57090000D01*
X130750000Y-67310000D02*
X133350000Y-67310000D01*
X133350000Y-67310000D02*
X133350000Y-69910000D01*
X133350000Y-69910000D02*
X135950000Y-69910000D01*
X130750000Y-68580000D02*
X130750000Y-69910000D01*
X130750000Y-69910000D02*
X132080000Y-69910000D01*
X222310000Y-143450000D02*
X222310000Y-146110000D01*
X212090000Y-143450000D02*
X222310000Y-143450000D01*
X212090000Y-146110000D02*
X222310000Y-146110000D01*
X212090000Y-143450000D02*
X212090000Y-146110000D01*
X210820000Y-143450000D02*
X209490000Y-143450000D01*
X209490000Y-143450000D02*
X209490000Y-144780000D01*
X130750000Y-146110000D02*
X130750000Y-143450000D01*
X140970000Y-146110000D02*
X130750000Y-146110000D01*
X140970000Y-143450000D02*
X130750000Y-143450000D01*
X140970000Y-146110000D02*
X140970000Y-143450000D01*
X142240000Y-146110000D02*
X143570000Y-146110000D01*
X143570000Y-146110000D02*
X143570000Y-144780000D01*
X204650000Y-78540000D02*
X204650000Y-81480000D01*
X204650000Y-81480000D02*
X199210000Y-81480000D01*
X199210000Y-81480000D02*
X199210000Y-78540000D01*
X199210000Y-78540000D02*
X204650000Y-78540000D01*
X205870000Y-80010000D02*
X204650000Y-80010000D01*
X197990000Y-80010000D02*
X199210000Y-80010000D01*
X203750000Y-78540000D02*
X203750000Y-81480000D01*
X203630000Y-78540000D02*
X203630000Y-81480000D01*
X203870000Y-78540000D02*
X203870000Y-81480000D01*
X167735000Y-55225000D02*
G75*
G03*
X167735000Y-55225000I-3270000J0D01*
G01*
X167695000Y-55225000D02*
X161235000Y-55225000D01*
X167695000Y-55185000D02*
X161235000Y-55185000D01*
X167695000Y-55145000D02*
X161235000Y-55145000D01*
X167693000Y-55105000D02*
X161237000Y-55105000D01*
X167692000Y-55065000D02*
X161238000Y-55065000D01*
X167689000Y-55025000D02*
X161241000Y-55025000D01*
X167687000Y-54985000D02*
X165505000Y-54985000D01*
X163425000Y-54985000D02*
X161243000Y-54985000D01*
X167683000Y-54945000D02*
X165505000Y-54945000D01*
X163425000Y-54945000D02*
X161247000Y-54945000D01*
X167680000Y-54905000D02*
X165505000Y-54905000D01*
X163425000Y-54905000D02*
X161250000Y-54905000D01*
X167676000Y-54865000D02*
X165505000Y-54865000D01*
X163425000Y-54865000D02*
X161254000Y-54865000D01*
X167671000Y-54825000D02*
X165505000Y-54825000D01*
X163425000Y-54825000D02*
X161259000Y-54825000D01*
X167666000Y-54785000D02*
X165505000Y-54785000D01*
X163425000Y-54785000D02*
X161264000Y-54785000D01*
X167660000Y-54745000D02*
X165505000Y-54745000D01*
X163425000Y-54745000D02*
X161270000Y-54745000D01*
X167654000Y-54705000D02*
X165505000Y-54705000D01*
X163425000Y-54705000D02*
X161276000Y-54705000D01*
X167647000Y-54665000D02*
X165505000Y-54665000D01*
X163425000Y-54665000D02*
X161283000Y-54665000D01*
X167640000Y-54625000D02*
X165505000Y-54625000D01*
X163425000Y-54625000D02*
X161290000Y-54625000D01*
X167632000Y-54585000D02*
X165505000Y-54585000D01*
X163425000Y-54585000D02*
X161298000Y-54585000D01*
X167624000Y-54545000D02*
X165505000Y-54545000D01*
X163425000Y-54545000D02*
X161306000Y-54545000D01*
X167615000Y-54504000D02*
X165505000Y-54504000D01*
X163425000Y-54504000D02*
X161315000Y-54504000D01*
X167606000Y-54464000D02*
X165505000Y-54464000D01*
X163425000Y-54464000D02*
X161324000Y-54464000D01*
X167596000Y-54424000D02*
X165505000Y-54424000D01*
X163425000Y-54424000D02*
X161334000Y-54424000D01*
X167586000Y-54384000D02*
X165505000Y-54384000D01*
X163425000Y-54384000D02*
X161344000Y-54384000D01*
X167575000Y-54344000D02*
X165505000Y-54344000D01*
X163425000Y-54344000D02*
X161355000Y-54344000D01*
X167563000Y-54304000D02*
X165505000Y-54304000D01*
X163425000Y-54304000D02*
X161367000Y-54304000D01*
X167551000Y-54264000D02*
X165505000Y-54264000D01*
X163425000Y-54264000D02*
X161379000Y-54264000D01*
X167539000Y-54224000D02*
X165505000Y-54224000D01*
X163425000Y-54224000D02*
X161391000Y-54224000D01*
X167526000Y-54184000D02*
X165505000Y-54184000D01*
X163425000Y-54184000D02*
X161404000Y-54184000D01*
X167512000Y-54144000D02*
X165505000Y-54144000D01*
X163425000Y-54144000D02*
X161418000Y-54144000D01*
X167498000Y-54104000D02*
X165505000Y-54104000D01*
X163425000Y-54104000D02*
X161432000Y-54104000D01*
X167483000Y-54064000D02*
X165505000Y-54064000D01*
X163425000Y-54064000D02*
X161447000Y-54064000D01*
X167467000Y-54024000D02*
X165505000Y-54024000D01*
X163425000Y-54024000D02*
X161463000Y-54024000D01*
X167451000Y-53984000D02*
X165505000Y-53984000D01*
X163425000Y-53984000D02*
X161479000Y-53984000D01*
X167435000Y-53944000D02*
X165505000Y-53944000D01*
X163425000Y-53944000D02*
X161495000Y-53944000D01*
X167417000Y-53904000D02*
X165505000Y-53904000D01*
X163425000Y-53904000D02*
X161513000Y-53904000D01*
X167399000Y-53864000D02*
X165505000Y-53864000D01*
X163425000Y-53864000D02*
X161531000Y-53864000D01*
X167381000Y-53824000D02*
X165505000Y-53824000D01*
X163425000Y-53824000D02*
X161549000Y-53824000D01*
X167361000Y-53784000D02*
X165505000Y-53784000D01*
X163425000Y-53784000D02*
X161569000Y-53784000D01*
X167341000Y-53744000D02*
X165505000Y-53744000D01*
X163425000Y-53744000D02*
X161589000Y-53744000D01*
X167321000Y-53704000D02*
X165505000Y-53704000D01*
X163425000Y-53704000D02*
X161609000Y-53704000D01*
X167299000Y-53664000D02*
X165505000Y-53664000D01*
X163425000Y-53664000D02*
X161631000Y-53664000D01*
X167277000Y-53624000D02*
X165505000Y-53624000D01*
X163425000Y-53624000D02*
X161653000Y-53624000D01*
X167255000Y-53584000D02*
X165505000Y-53584000D01*
X163425000Y-53584000D02*
X161675000Y-53584000D01*
X167231000Y-53544000D02*
X165505000Y-53544000D01*
X163425000Y-53544000D02*
X161699000Y-53544000D01*
X167207000Y-53504000D02*
X165505000Y-53504000D01*
X163425000Y-53504000D02*
X161723000Y-53504000D01*
X167181000Y-53464000D02*
X165505000Y-53464000D01*
X163425000Y-53464000D02*
X161749000Y-53464000D01*
X167155000Y-53424000D02*
X165505000Y-53424000D01*
X163425000Y-53424000D02*
X161775000Y-53424000D01*
X167129000Y-53384000D02*
X165505000Y-53384000D01*
X163425000Y-53384000D02*
X161801000Y-53384000D01*
X167101000Y-53344000D02*
X165505000Y-53344000D01*
X163425000Y-53344000D02*
X161829000Y-53344000D01*
X167072000Y-53304000D02*
X165505000Y-53304000D01*
X163425000Y-53304000D02*
X161858000Y-53304000D01*
X167043000Y-53264000D02*
X165505000Y-53264000D01*
X163425000Y-53264000D02*
X161887000Y-53264000D01*
X167013000Y-53224000D02*
X165505000Y-53224000D01*
X163425000Y-53224000D02*
X161917000Y-53224000D01*
X166981000Y-53184000D02*
X165505000Y-53184000D01*
X163425000Y-53184000D02*
X161949000Y-53184000D01*
X166949000Y-53144000D02*
X165505000Y-53144000D01*
X163425000Y-53144000D02*
X161981000Y-53144000D01*
X166915000Y-53104000D02*
X165505000Y-53104000D01*
X163425000Y-53104000D02*
X162015000Y-53104000D01*
X166881000Y-53064000D02*
X165505000Y-53064000D01*
X163425000Y-53064000D02*
X162049000Y-53064000D01*
X166845000Y-53024000D02*
X165505000Y-53024000D01*
X163425000Y-53024000D02*
X162085000Y-53024000D01*
X166808000Y-52984000D02*
X165505000Y-52984000D01*
X163425000Y-52984000D02*
X162122000Y-52984000D01*
X166770000Y-52944000D02*
X165505000Y-52944000D01*
X163425000Y-52944000D02*
X162160000Y-52944000D01*
X166730000Y-52904000D02*
X162200000Y-52904000D01*
X166689000Y-52864000D02*
X162241000Y-52864000D01*
X166647000Y-52824000D02*
X162283000Y-52824000D01*
X166602000Y-52784000D02*
X162328000Y-52784000D01*
X166557000Y-52744000D02*
X162373000Y-52744000D01*
X166509000Y-52704000D02*
X162421000Y-52704000D01*
X166460000Y-52664000D02*
X162470000Y-52664000D01*
X166409000Y-52624000D02*
X162521000Y-52624000D01*
X166355000Y-52584000D02*
X162575000Y-52584000D01*
X166299000Y-52544000D02*
X162631000Y-52544000D01*
X166241000Y-52504000D02*
X162689000Y-52504000D01*
X166179000Y-52464000D02*
X162751000Y-52464000D01*
X166115000Y-52424000D02*
X162815000Y-52424000D01*
X166046000Y-52384000D02*
X162884000Y-52384000D01*
X165974000Y-52344000D02*
X162956000Y-52344000D01*
X165897000Y-52304000D02*
X163033000Y-52304000D01*
X165815000Y-52264000D02*
X163115000Y-52264000D01*
X165727000Y-52224000D02*
X163203000Y-52224000D01*
X165630000Y-52184000D02*
X163300000Y-52184000D01*
X165524000Y-52144000D02*
X163406000Y-52144000D01*
X165405000Y-52104000D02*
X163525000Y-52104000D01*
X165267000Y-52064000D02*
X163663000Y-52064000D01*
X165098000Y-52024000D02*
X163832000Y-52024000D01*
X164867000Y-51984000D02*
X164063000Y-51984000D01*
X166304000Y-58725241D02*
X166304000Y-58095241D01*
X166619000Y-58410241D02*
X165989000Y-58410241D01*
X167735000Y-62885000D02*
G75*
G03*
X167735000Y-62885000I-3270000J0D01*
G01*
X167695000Y-62885000D02*
X161235000Y-62885000D01*
X167695000Y-62845000D02*
X161235000Y-62845000D01*
X167695000Y-62805000D02*
X161235000Y-62805000D01*
X167693000Y-62765000D02*
X161237000Y-62765000D01*
X167692000Y-62725000D02*
X161238000Y-62725000D01*
X167689000Y-62685000D02*
X161241000Y-62685000D01*
X167687000Y-62645000D02*
X165505000Y-62645000D01*
X163425000Y-62645000D02*
X161243000Y-62645000D01*
X167683000Y-62605000D02*
X165505000Y-62605000D01*
X163425000Y-62605000D02*
X161247000Y-62605000D01*
X167680000Y-62565000D02*
X165505000Y-62565000D01*
X163425000Y-62565000D02*
X161250000Y-62565000D01*
X167676000Y-62525000D02*
X165505000Y-62525000D01*
X163425000Y-62525000D02*
X161254000Y-62525000D01*
X167671000Y-62485000D02*
X165505000Y-62485000D01*
X163425000Y-62485000D02*
X161259000Y-62485000D01*
X167666000Y-62445000D02*
X165505000Y-62445000D01*
X163425000Y-62445000D02*
X161264000Y-62445000D01*
X167660000Y-62405000D02*
X165505000Y-62405000D01*
X163425000Y-62405000D02*
X161270000Y-62405000D01*
X167654000Y-62365000D02*
X165505000Y-62365000D01*
X163425000Y-62365000D02*
X161276000Y-62365000D01*
X167647000Y-62325000D02*
X165505000Y-62325000D01*
X163425000Y-62325000D02*
X161283000Y-62325000D01*
X167640000Y-62285000D02*
X165505000Y-62285000D01*
X163425000Y-62285000D02*
X161290000Y-62285000D01*
X167632000Y-62245000D02*
X165505000Y-62245000D01*
X163425000Y-62245000D02*
X161298000Y-62245000D01*
X167624000Y-62205000D02*
X165505000Y-62205000D01*
X163425000Y-62205000D02*
X161306000Y-62205000D01*
X167615000Y-62164000D02*
X165505000Y-62164000D01*
X163425000Y-62164000D02*
X161315000Y-62164000D01*
X167606000Y-62124000D02*
X165505000Y-62124000D01*
X163425000Y-62124000D02*
X161324000Y-62124000D01*
X167596000Y-62084000D02*
X165505000Y-62084000D01*
X163425000Y-62084000D02*
X161334000Y-62084000D01*
X167586000Y-62044000D02*
X165505000Y-62044000D01*
X163425000Y-62044000D02*
X161344000Y-62044000D01*
X167575000Y-62004000D02*
X165505000Y-62004000D01*
X163425000Y-62004000D02*
X161355000Y-62004000D01*
X167563000Y-61964000D02*
X165505000Y-61964000D01*
X163425000Y-61964000D02*
X161367000Y-61964000D01*
X167551000Y-61924000D02*
X165505000Y-61924000D01*
X163425000Y-61924000D02*
X161379000Y-61924000D01*
X167539000Y-61884000D02*
X165505000Y-61884000D01*
X163425000Y-61884000D02*
X161391000Y-61884000D01*
X167526000Y-61844000D02*
X165505000Y-61844000D01*
X163425000Y-61844000D02*
X161404000Y-61844000D01*
X167512000Y-61804000D02*
X165505000Y-61804000D01*
X163425000Y-61804000D02*
X161418000Y-61804000D01*
X167498000Y-61764000D02*
X165505000Y-61764000D01*
X163425000Y-61764000D02*
X161432000Y-61764000D01*
X167483000Y-61724000D02*
X165505000Y-61724000D01*
X163425000Y-61724000D02*
X161447000Y-61724000D01*
X167467000Y-61684000D02*
X165505000Y-61684000D01*
X163425000Y-61684000D02*
X161463000Y-61684000D01*
X167451000Y-61644000D02*
X165505000Y-61644000D01*
X163425000Y-61644000D02*
X161479000Y-61644000D01*
X167435000Y-61604000D02*
X165505000Y-61604000D01*
X163425000Y-61604000D02*
X161495000Y-61604000D01*
X167417000Y-61564000D02*
X165505000Y-61564000D01*
X163425000Y-61564000D02*
X161513000Y-61564000D01*
X167399000Y-61524000D02*
X165505000Y-61524000D01*
X163425000Y-61524000D02*
X161531000Y-61524000D01*
X167381000Y-61484000D02*
X165505000Y-61484000D01*
X163425000Y-61484000D02*
X161549000Y-61484000D01*
X167361000Y-61444000D02*
X165505000Y-61444000D01*
X163425000Y-61444000D02*
X161569000Y-61444000D01*
X167341000Y-61404000D02*
X165505000Y-61404000D01*
X163425000Y-61404000D02*
X161589000Y-61404000D01*
X167321000Y-61364000D02*
X165505000Y-61364000D01*
X163425000Y-61364000D02*
X161609000Y-61364000D01*
X167299000Y-61324000D02*
X165505000Y-61324000D01*
X163425000Y-61324000D02*
X161631000Y-61324000D01*
X167277000Y-61284000D02*
X165505000Y-61284000D01*
X163425000Y-61284000D02*
X161653000Y-61284000D01*
X167255000Y-61244000D02*
X165505000Y-61244000D01*
X163425000Y-61244000D02*
X161675000Y-61244000D01*
X167231000Y-61204000D02*
X165505000Y-61204000D01*
X163425000Y-61204000D02*
X161699000Y-61204000D01*
X167207000Y-61164000D02*
X165505000Y-61164000D01*
X163425000Y-61164000D02*
X161723000Y-61164000D01*
X167181000Y-61124000D02*
X165505000Y-61124000D01*
X163425000Y-61124000D02*
X161749000Y-61124000D01*
X167155000Y-61084000D02*
X165505000Y-61084000D01*
X163425000Y-61084000D02*
X161775000Y-61084000D01*
X167129000Y-61044000D02*
X165505000Y-61044000D01*
X163425000Y-61044000D02*
X161801000Y-61044000D01*
X167101000Y-61004000D02*
X165505000Y-61004000D01*
X163425000Y-61004000D02*
X161829000Y-61004000D01*
X167072000Y-60964000D02*
X165505000Y-60964000D01*
X163425000Y-60964000D02*
X161858000Y-60964000D01*
X167043000Y-60924000D02*
X165505000Y-60924000D01*
X163425000Y-60924000D02*
X161887000Y-60924000D01*
X167013000Y-60884000D02*
X165505000Y-60884000D01*
X163425000Y-60884000D02*
X161917000Y-60884000D01*
X166981000Y-60844000D02*
X165505000Y-60844000D01*
X163425000Y-60844000D02*
X161949000Y-60844000D01*
X166949000Y-60804000D02*
X165505000Y-60804000D01*
X163425000Y-60804000D02*
X161981000Y-60804000D01*
X166915000Y-60764000D02*
X165505000Y-60764000D01*
X163425000Y-60764000D02*
X162015000Y-60764000D01*
X166881000Y-60724000D02*
X165505000Y-60724000D01*
X163425000Y-60724000D02*
X162049000Y-60724000D01*
X166845000Y-60684000D02*
X165505000Y-60684000D01*
X163425000Y-60684000D02*
X162085000Y-60684000D01*
X166808000Y-60644000D02*
X165505000Y-60644000D01*
X163425000Y-60644000D02*
X162122000Y-60644000D01*
X166770000Y-60604000D02*
X165505000Y-60604000D01*
X163425000Y-60604000D02*
X162160000Y-60604000D01*
X166730000Y-60564000D02*
X162200000Y-60564000D01*
X166689000Y-60524000D02*
X162241000Y-60524000D01*
X166647000Y-60484000D02*
X162283000Y-60484000D01*
X166602000Y-60444000D02*
X162328000Y-60444000D01*
X166557000Y-60404000D02*
X162373000Y-60404000D01*
X166509000Y-60364000D02*
X162421000Y-60364000D01*
X166460000Y-60324000D02*
X162470000Y-60324000D01*
X166409000Y-60284000D02*
X162521000Y-60284000D01*
X166355000Y-60244000D02*
X162575000Y-60244000D01*
X166299000Y-60204000D02*
X162631000Y-60204000D01*
X166241000Y-60164000D02*
X162689000Y-60164000D01*
X166179000Y-60124000D02*
X162751000Y-60124000D01*
X166115000Y-60084000D02*
X162815000Y-60084000D01*
X166046000Y-60044000D02*
X162884000Y-60044000D01*
X165974000Y-60004000D02*
X162956000Y-60004000D01*
X165897000Y-59964000D02*
X163033000Y-59964000D01*
X165815000Y-59924000D02*
X163115000Y-59924000D01*
X165727000Y-59884000D02*
X163203000Y-59884000D01*
X165630000Y-59844000D02*
X163300000Y-59844000D01*
X165524000Y-59804000D02*
X163406000Y-59804000D01*
X165405000Y-59764000D02*
X163525000Y-59764000D01*
X165267000Y-59724000D02*
X163663000Y-59724000D01*
X165098000Y-59684000D02*
X163832000Y-59684000D01*
X164867000Y-59644000D02*
X164063000Y-59644000D01*
X166304000Y-66385241D02*
X166304000Y-65755241D01*
X166619000Y-66070241D02*
X165989000Y-66070241D01*
X137872000Y-90578000D02*
X130432000Y-90578000D01*
X137872000Y-93318000D02*
X130432000Y-93318000D01*
X137872000Y-90578000D02*
X137872000Y-93318000D01*
X130432000Y-90578000D02*
X130432000Y-93318000D01*
X130352000Y-78078000D02*
X137792000Y-78078000D01*
X130352000Y-75338000D02*
X137792000Y-75338000D01*
X130352000Y-78078000D02*
X130352000Y-75338000D01*
X137792000Y-78078000D02*
X137792000Y-75338000D01*
X148132000Y-78078000D02*
X155572000Y-78078000D01*
X148132000Y-75338000D02*
X155572000Y-75338000D01*
X148132000Y-78078000D02*
X148132000Y-75338000D01*
X155572000Y-78078000D02*
X155572000Y-75338000D01*
X162790000Y-70920000D02*
X167330000Y-70920000D01*
X162790000Y-68780000D02*
X167330000Y-68780000D01*
X162790000Y-70920000D02*
X162790000Y-70905000D01*
X162790000Y-68795000D02*
X162790000Y-68780000D01*
X167330000Y-70920000D02*
X167330000Y-70905000D01*
X167330000Y-68795000D02*
X167330000Y-68780000D01*
X162790000Y-116640000D02*
X167330000Y-116640000D01*
X162790000Y-114500000D02*
X167330000Y-114500000D01*
X162790000Y-116640000D02*
X162790000Y-116625000D01*
X162790000Y-114515000D02*
X162790000Y-114500000D01*
X167330000Y-116640000D02*
X167330000Y-116625000D01*
X167330000Y-114515000D02*
X167330000Y-114500000D01*
X162790000Y-81080000D02*
X167330000Y-81080000D01*
X162790000Y-78940000D02*
X167330000Y-78940000D01*
X162790000Y-81080000D02*
X162790000Y-81065000D01*
X162790000Y-78955000D02*
X162790000Y-78940000D01*
X167330000Y-81080000D02*
X167330000Y-81065000D01*
X167330000Y-78955000D02*
X167330000Y-78940000D01*
X162790000Y-128070000D02*
X167330000Y-128070000D01*
X162790000Y-125930000D02*
X167330000Y-125930000D01*
X162790000Y-128070000D02*
X162790000Y-128055000D01*
X162790000Y-125945000D02*
X162790000Y-125930000D01*
X167330000Y-128070000D02*
X167330000Y-128055000D01*
X167330000Y-125945000D02*
X167330000Y-125930000D01*
X162790000Y-121720000D02*
X167330000Y-121720000D01*
X162790000Y-119580000D02*
X167330000Y-119580000D01*
X162790000Y-121720000D02*
X162790000Y-121705000D01*
X162790000Y-119595000D02*
X162790000Y-119580000D01*
X167330000Y-121720000D02*
X167330000Y-121705000D01*
X167330000Y-119595000D02*
X167330000Y-119580000D01*
X190270000Y-68780000D02*
X185730000Y-68780000D01*
X190270000Y-70920000D02*
X185730000Y-70920000D01*
X190270000Y-68780000D02*
X190270000Y-68795000D01*
X190270000Y-70905000D02*
X190270000Y-70920000D01*
X185730000Y-68780000D02*
X185730000Y-68795000D01*
X185730000Y-70905000D02*
X185730000Y-70920000D01*
X190270000Y-114500000D02*
X185730000Y-114500000D01*
X190270000Y-116640000D02*
X185730000Y-116640000D01*
X190270000Y-114500000D02*
X190270000Y-114515000D01*
X190270000Y-116625000D02*
X190270000Y-116640000D01*
X185730000Y-114500000D02*
X185730000Y-114515000D01*
X185730000Y-116625000D02*
X185730000Y-116640000D01*
X190270000Y-78940000D02*
X185730000Y-78940000D01*
X190270000Y-81080000D02*
X185730000Y-81080000D01*
X190270000Y-78940000D02*
X190270000Y-78955000D01*
X190270000Y-81065000D02*
X190270000Y-81080000D01*
X185730000Y-78940000D02*
X185730000Y-78955000D01*
X185730000Y-81065000D02*
X185730000Y-81080000D01*
X190270000Y-125930000D02*
X185730000Y-125930000D01*
X190270000Y-128070000D02*
X185730000Y-128070000D01*
X190270000Y-125930000D02*
X190270000Y-125945000D01*
X190270000Y-128055000D02*
X190270000Y-128070000D01*
X185730000Y-125930000D02*
X185730000Y-125945000D01*
X185730000Y-128055000D02*
X185730000Y-128070000D01*
X190270000Y-119580000D02*
X185730000Y-119580000D01*
X190270000Y-121720000D02*
X185730000Y-121720000D01*
X190270000Y-119580000D02*
X190270000Y-119595000D01*
X190270000Y-121705000D02*
X190270000Y-121720000D01*
X185730000Y-119580000D02*
X185730000Y-119595000D01*
X185730000Y-121705000D02*
X185730000Y-121720000D01*
D10*
X144017904Y-78065380D02*
X144017904Y-78874904D01*
X143970285Y-78970142D01*
X143922666Y-79017761D01*
X143827428Y-79065380D01*
X143636952Y-79065380D01*
X143541714Y-79017761D01*
X143494095Y-78970142D01*
X143446476Y-78874904D01*
X143446476Y-78065380D01*
X142541714Y-78065380D02*
X142732190Y-78065380D01*
X142827428Y-78113000D01*
X142875047Y-78160619D01*
X142970285Y-78303476D01*
X143017904Y-78493952D01*
X143017904Y-78874904D01*
X142970285Y-78970142D01*
X142922666Y-79017761D01*
X142827428Y-79065380D01*
X142636952Y-79065380D01*
X142541714Y-79017761D01*
X142494095Y-78970142D01*
X142446476Y-78874904D01*
X142446476Y-78636809D01*
X142494095Y-78541571D01*
X142541714Y-78493952D01*
X142636952Y-78446333D01*
X142827428Y-78446333D01*
X142922666Y-78493952D01*
X142970285Y-78541571D01*
X143017904Y-78636809D01*
X146303904Y-91190380D02*
X146303904Y-91999904D01*
X146256285Y-92095142D01*
X146208666Y-92142761D01*
X146113428Y-92190380D01*
X145922952Y-92190380D01*
X145827714Y-92142761D01*
X145780095Y-92095142D01*
X145732476Y-91999904D01*
X145732476Y-91190380D01*
X144780095Y-91190380D02*
X145256285Y-91190380D01*
X145303904Y-91666571D01*
X145256285Y-91618952D01*
X145161047Y-91571333D01*
X144922952Y-91571333D01*
X144827714Y-91618952D01*
X144780095Y-91666571D01*
X144732476Y-91761809D01*
X144732476Y-91999904D01*
X144780095Y-92095142D01*
X144827714Y-92142761D01*
X144922952Y-92190380D01*
X145161047Y-92190380D01*
X145256285Y-92142761D01*
X145303904Y-92095142D01*
X177291904Y-68242380D02*
X177291904Y-69051904D01*
X177244285Y-69147142D01*
X177196666Y-69194761D01*
X177101428Y-69242380D01*
X176910952Y-69242380D01*
X176815714Y-69194761D01*
X176768095Y-69147142D01*
X176720476Y-69051904D01*
X176720476Y-68242380D01*
X175815714Y-68575714D02*
X175815714Y-69242380D01*
X176053809Y-68194761D02*
X176291904Y-68909047D01*
X175672857Y-68909047D01*
X177291904Y-125392380D02*
X177291904Y-126201904D01*
X177244285Y-126297142D01*
X177196666Y-126344761D01*
X177101428Y-126392380D01*
X176910952Y-126392380D01*
X176815714Y-126344761D01*
X176768095Y-126297142D01*
X176720476Y-126201904D01*
X176720476Y-125392380D01*
X176339523Y-125392380D02*
X175720476Y-125392380D01*
X176053809Y-125773333D01*
X175910952Y-125773333D01*
X175815714Y-125820952D01*
X175768095Y-125868571D01*
X175720476Y-125963809D01*
X175720476Y-126201904D01*
X175768095Y-126297142D01*
X175815714Y-126344761D01*
X175910952Y-126392380D01*
X176196666Y-126392380D01*
X176291904Y-126344761D01*
X176339523Y-126297142D01*
X177291904Y-112692380D02*
X177291904Y-113501904D01*
X177244285Y-113597142D01*
X177196666Y-113644761D01*
X177101428Y-113692380D01*
X176910952Y-113692380D01*
X176815714Y-113644761D01*
X176768095Y-113597142D01*
X176720476Y-113501904D01*
X176720476Y-112692380D01*
X176291904Y-112787619D02*
X176244285Y-112740000D01*
X176149047Y-112692380D01*
X175910952Y-112692380D01*
X175815714Y-112740000D01*
X175768095Y-112787619D01*
X175720476Y-112882857D01*
X175720476Y-112978095D01*
X175768095Y-113120952D01*
X176339523Y-113692380D01*
X175720476Y-113692380D01*
X177291904Y-87292380D02*
X177291904Y-88101904D01*
X177244285Y-88197142D01*
X177196666Y-88244761D01*
X177101428Y-88292380D01*
X176910952Y-88292380D01*
X176815714Y-88244761D01*
X176768095Y-88197142D01*
X176720476Y-88101904D01*
X176720476Y-87292380D01*
X175720476Y-88292380D02*
X176291904Y-88292380D01*
X176006190Y-88292380D02*
X176006190Y-87292380D01*
X176101428Y-87435238D01*
X176196666Y-87530476D01*
X176291904Y-87578095D01*
X203842857Y-114752380D02*
X204176190Y-114276190D01*
X204414285Y-114752380D02*
X204414285Y-113752380D01*
X204033333Y-113752380D01*
X203938095Y-113800000D01*
X203890476Y-113847619D01*
X203842857Y-113942857D01*
X203842857Y-114085714D01*
X203890476Y-114180952D01*
X203938095Y-114228571D01*
X204033333Y-114276190D01*
X204414285Y-114276190D01*
X203461904Y-113847619D02*
X203414285Y-113800000D01*
X203319047Y-113752380D01*
X203080952Y-113752380D01*
X202985714Y-113800000D01*
X202938095Y-113847619D01*
X202890476Y-113942857D01*
X202890476Y-114038095D01*
X202938095Y-114180952D01*
X203509523Y-114752380D01*
X202890476Y-114752380D01*
X202414285Y-114752380D02*
X202223809Y-114752380D01*
X202128571Y-114704761D01*
X202080952Y-114657142D01*
X201985714Y-114514285D01*
X201938095Y-114323809D01*
X201938095Y-113942857D01*
X201985714Y-113847619D01*
X202033333Y-113800000D01*
X202128571Y-113752380D01*
X202319047Y-113752380D01*
X202414285Y-113800000D01*
X202461904Y-113847619D01*
X202509523Y-113942857D01*
X202509523Y-114180952D01*
X202461904Y-114276190D01*
X202414285Y-114323809D01*
X202319047Y-114371428D01*
X202128571Y-114371428D01*
X202033333Y-114323809D01*
X201985714Y-114276190D01*
X201938095Y-114180952D01*
X150502857Y-114922380D02*
X150836190Y-114446190D01*
X151074285Y-114922380D02*
X151074285Y-113922380D01*
X150693333Y-113922380D01*
X150598095Y-113970000D01*
X150550476Y-114017619D01*
X150502857Y-114112857D01*
X150502857Y-114255714D01*
X150550476Y-114350952D01*
X150598095Y-114398571D01*
X150693333Y-114446190D01*
X151074285Y-114446190D01*
X150121904Y-114017619D02*
X150074285Y-113970000D01*
X149979047Y-113922380D01*
X149740952Y-113922380D01*
X149645714Y-113970000D01*
X149598095Y-114017619D01*
X149550476Y-114112857D01*
X149550476Y-114208095D01*
X149598095Y-114350952D01*
X150169523Y-114922380D01*
X149550476Y-114922380D01*
X148979047Y-114350952D02*
X149074285Y-114303333D01*
X149121904Y-114255714D01*
X149169523Y-114160476D01*
X149169523Y-114112857D01*
X149121904Y-114017619D01*
X149074285Y-113970000D01*
X148979047Y-113922380D01*
X148788571Y-113922380D01*
X148693333Y-113970000D01*
X148645714Y-114017619D01*
X148598095Y-114112857D01*
X148598095Y-114160476D01*
X148645714Y-114255714D01*
X148693333Y-114303333D01*
X148788571Y-114350952D01*
X148979047Y-114350952D01*
X149074285Y-114398571D01*
X149121904Y-114446190D01*
X149169523Y-114541428D01*
X149169523Y-114731904D01*
X149121904Y-114827142D01*
X149074285Y-114874761D01*
X148979047Y-114922380D01*
X148788571Y-114922380D01*
X148693333Y-114874761D01*
X148645714Y-114827142D01*
X148598095Y-114731904D01*
X148598095Y-114541428D01*
X148645714Y-114446190D01*
X148693333Y-114398571D01*
X148788571Y-114350952D01*
X188602857Y-93162380D02*
X188936190Y-92686190D01*
X189174285Y-93162380D02*
X189174285Y-92162380D01*
X188793333Y-92162380D01*
X188698095Y-92210000D01*
X188650476Y-92257619D01*
X188602857Y-92352857D01*
X188602857Y-92495714D01*
X188650476Y-92590952D01*
X188698095Y-92638571D01*
X188793333Y-92686190D01*
X189174285Y-92686190D01*
X188221904Y-92257619D02*
X188174285Y-92210000D01*
X188079047Y-92162380D01*
X187840952Y-92162380D01*
X187745714Y-92210000D01*
X187698095Y-92257619D01*
X187650476Y-92352857D01*
X187650476Y-92448095D01*
X187698095Y-92590952D01*
X188269523Y-93162380D01*
X187650476Y-93162380D01*
X187317142Y-92162380D02*
X186650476Y-92162380D01*
X187079047Y-93162380D01*
X188602857Y-98072380D02*
X188936190Y-97596190D01*
X189174285Y-98072380D02*
X189174285Y-97072380D01*
X188793333Y-97072380D01*
X188698095Y-97120000D01*
X188650476Y-97167619D01*
X188602857Y-97262857D01*
X188602857Y-97405714D01*
X188650476Y-97500952D01*
X188698095Y-97548571D01*
X188793333Y-97596190D01*
X189174285Y-97596190D01*
X188221904Y-97167619D02*
X188174285Y-97120000D01*
X188079047Y-97072380D01*
X187840952Y-97072380D01*
X187745714Y-97120000D01*
X187698095Y-97167619D01*
X187650476Y-97262857D01*
X187650476Y-97358095D01*
X187698095Y-97500952D01*
X188269523Y-98072380D01*
X187650476Y-98072380D01*
X186793333Y-97072380D02*
X186983809Y-97072380D01*
X187079047Y-97120000D01*
X187126666Y-97167619D01*
X187221904Y-97310476D01*
X187269523Y-97500952D01*
X187269523Y-97881904D01*
X187221904Y-97977142D01*
X187174285Y-98024761D01*
X187079047Y-98072380D01*
X186888571Y-98072380D01*
X186793333Y-98024761D01*
X186745714Y-97977142D01*
X186698095Y-97881904D01*
X186698095Y-97643809D01*
X186745714Y-97548571D01*
X186793333Y-97500952D01*
X186888571Y-97453333D01*
X187079047Y-97453333D01*
X187174285Y-97500952D01*
X187221904Y-97548571D01*
X187269523Y-97643809D01*
X165742857Y-98412380D02*
X166076190Y-97936190D01*
X166314285Y-98412380D02*
X166314285Y-97412380D01*
X165933333Y-97412380D01*
X165838095Y-97460000D01*
X165790476Y-97507619D01*
X165742857Y-97602857D01*
X165742857Y-97745714D01*
X165790476Y-97840952D01*
X165838095Y-97888571D01*
X165933333Y-97936190D01*
X166314285Y-97936190D01*
X165361904Y-97507619D02*
X165314285Y-97460000D01*
X165219047Y-97412380D01*
X164980952Y-97412380D01*
X164885714Y-97460000D01*
X164838095Y-97507619D01*
X164790476Y-97602857D01*
X164790476Y-97698095D01*
X164838095Y-97840952D01*
X165409523Y-98412380D01*
X164790476Y-98412380D01*
X163885714Y-97412380D02*
X164361904Y-97412380D01*
X164409523Y-97888571D01*
X164361904Y-97840952D01*
X164266666Y-97793333D01*
X164028571Y-97793333D01*
X163933333Y-97840952D01*
X163885714Y-97888571D01*
X163838095Y-97983809D01*
X163838095Y-98221904D01*
X163885714Y-98317142D01*
X163933333Y-98364761D01*
X164028571Y-98412380D01*
X164266666Y-98412380D01*
X164361904Y-98364761D01*
X164409523Y-98317142D01*
X165742857Y-93332380D02*
X166076190Y-92856190D01*
X166314285Y-93332380D02*
X166314285Y-92332380D01*
X165933333Y-92332380D01*
X165838095Y-92380000D01*
X165790476Y-92427619D01*
X165742857Y-92522857D01*
X165742857Y-92665714D01*
X165790476Y-92760952D01*
X165838095Y-92808571D01*
X165933333Y-92856190D01*
X166314285Y-92856190D01*
X165361904Y-92427619D02*
X165314285Y-92380000D01*
X165219047Y-92332380D01*
X164980952Y-92332380D01*
X164885714Y-92380000D01*
X164838095Y-92427619D01*
X164790476Y-92522857D01*
X164790476Y-92618095D01*
X164838095Y-92760952D01*
X165409523Y-93332380D01*
X164790476Y-93332380D01*
X163933333Y-92665714D02*
X163933333Y-93332380D01*
X164171428Y-92284761D02*
X164409523Y-92999047D01*
X163790476Y-92999047D01*
X202572857Y-83172380D02*
X202906190Y-82696190D01*
X203144285Y-83172380D02*
X203144285Y-82172380D01*
X202763333Y-82172380D01*
X202668095Y-82220000D01*
X202620476Y-82267619D01*
X202572857Y-82362857D01*
X202572857Y-82505714D01*
X202620476Y-82600952D01*
X202668095Y-82648571D01*
X202763333Y-82696190D01*
X203144285Y-82696190D01*
X202191904Y-82267619D02*
X202144285Y-82220000D01*
X202049047Y-82172380D01*
X201810952Y-82172380D01*
X201715714Y-82220000D01*
X201668095Y-82267619D01*
X201620476Y-82362857D01*
X201620476Y-82458095D01*
X201668095Y-82600952D01*
X202239523Y-83172380D01*
X201620476Y-83172380D01*
X201287142Y-82172380D02*
X200668095Y-82172380D01*
X201001428Y-82553333D01*
X200858571Y-82553333D01*
X200763333Y-82600952D01*
X200715714Y-82648571D01*
X200668095Y-82743809D01*
X200668095Y-82981904D01*
X200715714Y-83077142D01*
X200763333Y-83124761D01*
X200858571Y-83172380D01*
X201144285Y-83172380D01*
X201239523Y-83124761D01*
X201287142Y-83077142D01*
X134754857Y-89860380D02*
X135088190Y-89384190D01*
X135326285Y-89860380D02*
X135326285Y-88860380D01*
X134945333Y-88860380D01*
X134850095Y-88908000D01*
X134802476Y-88955619D01*
X134754857Y-89050857D01*
X134754857Y-89193714D01*
X134802476Y-89288952D01*
X134850095Y-89336571D01*
X134945333Y-89384190D01*
X135326285Y-89384190D01*
X134373904Y-88955619D02*
X134326285Y-88908000D01*
X134231047Y-88860380D01*
X133992952Y-88860380D01*
X133897714Y-88908000D01*
X133850095Y-88955619D01*
X133802476Y-89050857D01*
X133802476Y-89146095D01*
X133850095Y-89288952D01*
X134421523Y-89860380D01*
X133802476Y-89860380D01*
X133421523Y-88955619D02*
X133373904Y-88908000D01*
X133278666Y-88860380D01*
X133040571Y-88860380D01*
X132945333Y-88908000D01*
X132897714Y-88955619D01*
X132850095Y-89050857D01*
X132850095Y-89146095D01*
X132897714Y-89288952D01*
X133469142Y-89860380D01*
X132850095Y-89860380D01*
X134754857Y-84780380D02*
X135088190Y-84304190D01*
X135326285Y-84780380D02*
X135326285Y-83780380D01*
X134945333Y-83780380D01*
X134850095Y-83828000D01*
X134802476Y-83875619D01*
X134754857Y-83970857D01*
X134754857Y-84113714D01*
X134802476Y-84208952D01*
X134850095Y-84256571D01*
X134945333Y-84304190D01*
X135326285Y-84304190D01*
X134373904Y-83875619D02*
X134326285Y-83828000D01*
X134231047Y-83780380D01*
X133992952Y-83780380D01*
X133897714Y-83828000D01*
X133850095Y-83875619D01*
X133802476Y-83970857D01*
X133802476Y-84066095D01*
X133850095Y-84208952D01*
X134421523Y-84780380D01*
X133802476Y-84780380D01*
X132850095Y-84780380D02*
X133421523Y-84780380D01*
X133135809Y-84780380D02*
X133135809Y-83780380D01*
X133231047Y-83923238D01*
X133326285Y-84018476D01*
X133421523Y-84066095D01*
X165742857Y-72842380D02*
X166076190Y-72366190D01*
X166314285Y-72842380D02*
X166314285Y-71842380D01*
X165933333Y-71842380D01*
X165838095Y-71890000D01*
X165790476Y-71937619D01*
X165742857Y-72032857D01*
X165742857Y-72175714D01*
X165790476Y-72270952D01*
X165838095Y-72318571D01*
X165933333Y-72366190D01*
X166314285Y-72366190D01*
X165361904Y-71937619D02*
X165314285Y-71890000D01*
X165219047Y-71842380D01*
X164980952Y-71842380D01*
X164885714Y-71890000D01*
X164838095Y-71937619D01*
X164790476Y-72032857D01*
X164790476Y-72128095D01*
X164838095Y-72270952D01*
X165409523Y-72842380D01*
X164790476Y-72842380D01*
X164171428Y-71842380D02*
X164076190Y-71842380D01*
X163980952Y-71890000D01*
X163933333Y-71937619D01*
X163885714Y-72032857D01*
X163838095Y-72223333D01*
X163838095Y-72461428D01*
X163885714Y-72651904D01*
X163933333Y-72747142D01*
X163980952Y-72794761D01*
X164076190Y-72842380D01*
X164171428Y-72842380D01*
X164266666Y-72794761D01*
X164314285Y-72747142D01*
X164361904Y-72651904D01*
X164409523Y-72461428D01*
X164409523Y-72223333D01*
X164361904Y-72032857D01*
X164314285Y-71937619D01*
X164266666Y-71890000D01*
X164171428Y-71842380D01*
X165742857Y-108572380D02*
X166076190Y-108096190D01*
X166314285Y-108572380D02*
X166314285Y-107572380D01*
X165933333Y-107572380D01*
X165838095Y-107620000D01*
X165790476Y-107667619D01*
X165742857Y-107762857D01*
X165742857Y-107905714D01*
X165790476Y-108000952D01*
X165838095Y-108048571D01*
X165933333Y-108096190D01*
X166314285Y-108096190D01*
X164790476Y-108572380D02*
X165361904Y-108572380D01*
X165076190Y-108572380D02*
X165076190Y-107572380D01*
X165171428Y-107715238D01*
X165266666Y-107810476D01*
X165361904Y-107858095D01*
X164314285Y-108572380D02*
X164123809Y-108572380D01*
X164028571Y-108524761D01*
X163980952Y-108477142D01*
X163885714Y-108334285D01*
X163838095Y-108143809D01*
X163838095Y-107762857D01*
X163885714Y-107667619D01*
X163933333Y-107620000D01*
X164028571Y-107572380D01*
X164219047Y-107572380D01*
X164314285Y-107620000D01*
X164361904Y-107667619D01*
X164409523Y-107762857D01*
X164409523Y-108000952D01*
X164361904Y-108096190D01*
X164314285Y-108143809D01*
X164219047Y-108191428D01*
X164028571Y-108191428D01*
X163933333Y-108143809D01*
X163885714Y-108096190D01*
X163838095Y-108000952D01*
X165742857Y-88252380D02*
X166076190Y-87776190D01*
X166314285Y-88252380D02*
X166314285Y-87252380D01*
X165933333Y-87252380D01*
X165838095Y-87300000D01*
X165790476Y-87347619D01*
X165742857Y-87442857D01*
X165742857Y-87585714D01*
X165790476Y-87680952D01*
X165838095Y-87728571D01*
X165933333Y-87776190D01*
X166314285Y-87776190D01*
X164790476Y-88252380D02*
X165361904Y-88252380D01*
X165076190Y-88252380D02*
X165076190Y-87252380D01*
X165171428Y-87395238D01*
X165266666Y-87490476D01*
X165361904Y-87538095D01*
X164219047Y-87680952D02*
X164314285Y-87633333D01*
X164361904Y-87585714D01*
X164409523Y-87490476D01*
X164409523Y-87442857D01*
X164361904Y-87347619D01*
X164314285Y-87300000D01*
X164219047Y-87252380D01*
X164028571Y-87252380D01*
X163933333Y-87300000D01*
X163885714Y-87347619D01*
X163838095Y-87442857D01*
X163838095Y-87490476D01*
X163885714Y-87585714D01*
X163933333Y-87633333D01*
X164028571Y-87680952D01*
X164219047Y-87680952D01*
X164314285Y-87728571D01*
X164361904Y-87776190D01*
X164409523Y-87871428D01*
X164409523Y-88061904D01*
X164361904Y-88157142D01*
X164314285Y-88204761D01*
X164219047Y-88252380D01*
X164028571Y-88252380D01*
X163933333Y-88204761D01*
X163885714Y-88157142D01*
X163838095Y-88061904D01*
X163838095Y-87871428D01*
X163885714Y-87776190D01*
X163933333Y-87728571D01*
X164028571Y-87680952D01*
X165742857Y-103492380D02*
X166076190Y-103016190D01*
X166314285Y-103492380D02*
X166314285Y-102492380D01*
X165933333Y-102492380D01*
X165838095Y-102540000D01*
X165790476Y-102587619D01*
X165742857Y-102682857D01*
X165742857Y-102825714D01*
X165790476Y-102920952D01*
X165838095Y-102968571D01*
X165933333Y-103016190D01*
X166314285Y-103016190D01*
X164790476Y-103492380D02*
X165361904Y-103492380D01*
X165076190Y-103492380D02*
X165076190Y-102492380D01*
X165171428Y-102635238D01*
X165266666Y-102730476D01*
X165361904Y-102778095D01*
X164457142Y-102492380D02*
X163790476Y-102492380D01*
X164219047Y-103492380D01*
X165742857Y-83172380D02*
X166076190Y-82696190D01*
X166314285Y-83172380D02*
X166314285Y-82172380D01*
X165933333Y-82172380D01*
X165838095Y-82220000D01*
X165790476Y-82267619D01*
X165742857Y-82362857D01*
X165742857Y-82505714D01*
X165790476Y-82600952D01*
X165838095Y-82648571D01*
X165933333Y-82696190D01*
X166314285Y-82696190D01*
X164790476Y-83172380D02*
X165361904Y-83172380D01*
X165076190Y-83172380D02*
X165076190Y-82172380D01*
X165171428Y-82315238D01*
X165266666Y-82410476D01*
X165361904Y-82458095D01*
X163933333Y-82172380D02*
X164123809Y-82172380D01*
X164219047Y-82220000D01*
X164266666Y-82267619D01*
X164361904Y-82410476D01*
X164409523Y-82600952D01*
X164409523Y-82981904D01*
X164361904Y-83077142D01*
X164314285Y-83124761D01*
X164219047Y-83172380D01*
X164028571Y-83172380D01*
X163933333Y-83124761D01*
X163885714Y-83077142D01*
X163838095Y-82981904D01*
X163838095Y-82743809D01*
X163885714Y-82648571D01*
X163933333Y-82600952D01*
X164028571Y-82553333D01*
X164219047Y-82553333D01*
X164314285Y-82600952D01*
X164361904Y-82648571D01*
X164409523Y-82743809D01*
X165742857Y-129992380D02*
X166076190Y-129516190D01*
X166314285Y-129992380D02*
X166314285Y-128992380D01*
X165933333Y-128992380D01*
X165838095Y-129040000D01*
X165790476Y-129087619D01*
X165742857Y-129182857D01*
X165742857Y-129325714D01*
X165790476Y-129420952D01*
X165838095Y-129468571D01*
X165933333Y-129516190D01*
X166314285Y-129516190D01*
X164790476Y-129992380D02*
X165361904Y-129992380D01*
X165076190Y-129992380D02*
X165076190Y-128992380D01*
X165171428Y-129135238D01*
X165266666Y-129230476D01*
X165361904Y-129278095D01*
X163885714Y-128992380D02*
X164361904Y-128992380D01*
X164409523Y-129468571D01*
X164361904Y-129420952D01*
X164266666Y-129373333D01*
X164028571Y-129373333D01*
X163933333Y-129420952D01*
X163885714Y-129468571D01*
X163838095Y-129563809D01*
X163838095Y-129801904D01*
X163885714Y-129897142D01*
X163933333Y-129944761D01*
X164028571Y-129992380D01*
X164266666Y-129992380D01*
X164361904Y-129944761D01*
X164409523Y-129897142D01*
X165742857Y-135242380D02*
X166076190Y-134766190D01*
X166314285Y-135242380D02*
X166314285Y-134242380D01*
X165933333Y-134242380D01*
X165838095Y-134290000D01*
X165790476Y-134337619D01*
X165742857Y-134432857D01*
X165742857Y-134575714D01*
X165790476Y-134670952D01*
X165838095Y-134718571D01*
X165933333Y-134766190D01*
X166314285Y-134766190D01*
X164790476Y-135242380D02*
X165361904Y-135242380D01*
X165076190Y-135242380D02*
X165076190Y-134242380D01*
X165171428Y-134385238D01*
X165266666Y-134480476D01*
X165361904Y-134528095D01*
X163933333Y-134575714D02*
X163933333Y-135242380D01*
X164171428Y-134194761D02*
X164409523Y-134909047D01*
X163790476Y-134909047D01*
X188602857Y-73012380D02*
X188936190Y-72536190D01*
X189174285Y-73012380D02*
X189174285Y-72012380D01*
X188793333Y-72012380D01*
X188698095Y-72060000D01*
X188650476Y-72107619D01*
X188602857Y-72202857D01*
X188602857Y-72345714D01*
X188650476Y-72440952D01*
X188698095Y-72488571D01*
X188793333Y-72536190D01*
X189174285Y-72536190D01*
X187650476Y-73012380D02*
X188221904Y-73012380D01*
X187936190Y-73012380D02*
X187936190Y-72012380D01*
X188031428Y-72155238D01*
X188126666Y-72250476D01*
X188221904Y-72298095D01*
X187317142Y-72012380D02*
X186698095Y-72012380D01*
X187031428Y-72393333D01*
X186888571Y-72393333D01*
X186793333Y-72440952D01*
X186745714Y-72488571D01*
X186698095Y-72583809D01*
X186698095Y-72821904D01*
X186745714Y-72917142D01*
X186793333Y-72964761D01*
X186888571Y-73012380D01*
X187174285Y-73012380D01*
X187269523Y-72964761D01*
X187317142Y-72917142D01*
X188602857Y-108402380D02*
X188936190Y-107926190D01*
X189174285Y-108402380D02*
X189174285Y-107402380D01*
X188793333Y-107402380D01*
X188698095Y-107450000D01*
X188650476Y-107497619D01*
X188602857Y-107592857D01*
X188602857Y-107735714D01*
X188650476Y-107830952D01*
X188698095Y-107878571D01*
X188793333Y-107926190D01*
X189174285Y-107926190D01*
X187650476Y-108402380D02*
X188221904Y-108402380D01*
X187936190Y-108402380D02*
X187936190Y-107402380D01*
X188031428Y-107545238D01*
X188126666Y-107640476D01*
X188221904Y-107688095D01*
X187269523Y-107497619D02*
X187221904Y-107450000D01*
X187126666Y-107402380D01*
X186888571Y-107402380D01*
X186793333Y-107450000D01*
X186745714Y-107497619D01*
X186698095Y-107592857D01*
X186698095Y-107688095D01*
X186745714Y-107830952D01*
X187317142Y-108402380D01*
X186698095Y-108402380D01*
X188602857Y-88082380D02*
X188936190Y-87606190D01*
X189174285Y-88082380D02*
X189174285Y-87082380D01*
X188793333Y-87082380D01*
X188698095Y-87130000D01*
X188650476Y-87177619D01*
X188602857Y-87272857D01*
X188602857Y-87415714D01*
X188650476Y-87510952D01*
X188698095Y-87558571D01*
X188793333Y-87606190D01*
X189174285Y-87606190D01*
X187650476Y-88082380D02*
X188221904Y-88082380D01*
X187936190Y-88082380D02*
X187936190Y-87082380D01*
X188031428Y-87225238D01*
X188126666Y-87320476D01*
X188221904Y-87368095D01*
X186698095Y-88082380D02*
X187269523Y-88082380D01*
X186983809Y-88082380D02*
X186983809Y-87082380D01*
X187079047Y-87225238D01*
X187174285Y-87320476D01*
X187269523Y-87368095D01*
X188602857Y-103322380D02*
X188936190Y-102846190D01*
X189174285Y-103322380D02*
X189174285Y-102322380D01*
X188793333Y-102322380D01*
X188698095Y-102370000D01*
X188650476Y-102417619D01*
X188602857Y-102512857D01*
X188602857Y-102655714D01*
X188650476Y-102750952D01*
X188698095Y-102798571D01*
X188793333Y-102846190D01*
X189174285Y-102846190D01*
X187650476Y-103322380D02*
X188221904Y-103322380D01*
X187936190Y-103322380D02*
X187936190Y-102322380D01*
X188031428Y-102465238D01*
X188126666Y-102560476D01*
X188221904Y-102608095D01*
X187031428Y-102322380D02*
X186936190Y-102322380D01*
X186840952Y-102370000D01*
X186793333Y-102417619D01*
X186745714Y-102512857D01*
X186698095Y-102703333D01*
X186698095Y-102941428D01*
X186745714Y-103131904D01*
X186793333Y-103227142D01*
X186840952Y-103274761D01*
X186936190Y-103322380D01*
X187031428Y-103322380D01*
X187126666Y-103274761D01*
X187174285Y-103227142D01*
X187221904Y-103131904D01*
X187269523Y-102941428D01*
X187269523Y-102703333D01*
X187221904Y-102512857D01*
X187174285Y-102417619D01*
X187126666Y-102370000D01*
X187031428Y-102322380D01*
X188126666Y-83002380D02*
X188460000Y-82526190D01*
X188698095Y-83002380D02*
X188698095Y-82002380D01*
X188317142Y-82002380D01*
X188221904Y-82050000D01*
X188174285Y-82097619D01*
X188126666Y-82192857D01*
X188126666Y-82335714D01*
X188174285Y-82430952D01*
X188221904Y-82478571D01*
X188317142Y-82526190D01*
X188698095Y-82526190D01*
X187650476Y-83002380D02*
X187460000Y-83002380D01*
X187364761Y-82954761D01*
X187317142Y-82907142D01*
X187221904Y-82764285D01*
X187174285Y-82573809D01*
X187174285Y-82192857D01*
X187221904Y-82097619D01*
X187269523Y-82050000D01*
X187364761Y-82002380D01*
X187555238Y-82002380D01*
X187650476Y-82050000D01*
X187698095Y-82097619D01*
X187745714Y-82192857D01*
X187745714Y-82430952D01*
X187698095Y-82526190D01*
X187650476Y-82573809D01*
X187555238Y-82621428D01*
X187364761Y-82621428D01*
X187269523Y-82573809D01*
X187221904Y-82526190D01*
X187174285Y-82430952D01*
X188126666Y-130162380D02*
X188460000Y-129686190D01*
X188698095Y-130162380D02*
X188698095Y-129162380D01*
X188317142Y-129162380D01*
X188221904Y-129210000D01*
X188174285Y-129257619D01*
X188126666Y-129352857D01*
X188126666Y-129495714D01*
X188174285Y-129590952D01*
X188221904Y-129638571D01*
X188317142Y-129686190D01*
X188698095Y-129686190D01*
X187555238Y-129590952D02*
X187650476Y-129543333D01*
X187698095Y-129495714D01*
X187745714Y-129400476D01*
X187745714Y-129352857D01*
X187698095Y-129257619D01*
X187650476Y-129210000D01*
X187555238Y-129162380D01*
X187364761Y-129162380D01*
X187269523Y-129210000D01*
X187221904Y-129257619D01*
X187174285Y-129352857D01*
X187174285Y-129400476D01*
X187221904Y-129495714D01*
X187269523Y-129543333D01*
X187364761Y-129590952D01*
X187555238Y-129590952D01*
X187650476Y-129638571D01*
X187698095Y-129686190D01*
X187745714Y-129781428D01*
X187745714Y-129971904D01*
X187698095Y-130067142D01*
X187650476Y-130114761D01*
X187555238Y-130162380D01*
X187364761Y-130162380D01*
X187269523Y-130114761D01*
X187221904Y-130067142D01*
X187174285Y-129971904D01*
X187174285Y-129781428D01*
X187221904Y-129686190D01*
X187269523Y-129638571D01*
X187364761Y-129590952D01*
X188126666Y-135072380D02*
X188460000Y-134596190D01*
X188698095Y-135072380D02*
X188698095Y-134072380D01*
X188317142Y-134072380D01*
X188221904Y-134120000D01*
X188174285Y-134167619D01*
X188126666Y-134262857D01*
X188126666Y-134405714D01*
X188174285Y-134500952D01*
X188221904Y-134548571D01*
X188317142Y-134596190D01*
X188698095Y-134596190D01*
X187793333Y-134072380D02*
X187126666Y-134072380D01*
X187555238Y-135072380D01*
X152566666Y-145232380D02*
X152900000Y-144756190D01*
X153138095Y-145232380D02*
X153138095Y-144232380D01*
X152757142Y-144232380D01*
X152661904Y-144280000D01*
X152614285Y-144327619D01*
X152566666Y-144422857D01*
X152566666Y-144565714D01*
X152614285Y-144660952D01*
X152661904Y-144708571D01*
X152757142Y-144756190D01*
X153138095Y-144756190D01*
X151709523Y-144232380D02*
X151900000Y-144232380D01*
X151995238Y-144280000D01*
X152042857Y-144327619D01*
X152138095Y-144470476D01*
X152185714Y-144660952D01*
X152185714Y-145041904D01*
X152138095Y-145137142D01*
X152090476Y-145184761D01*
X151995238Y-145232380D01*
X151804761Y-145232380D01*
X151709523Y-145184761D01*
X151661904Y-145137142D01*
X151614285Y-145041904D01*
X151614285Y-144803809D01*
X151661904Y-144708571D01*
X151709523Y-144660952D01*
X151804761Y-144613333D01*
X151995238Y-144613333D01*
X152090476Y-144660952D01*
X152138095Y-144708571D01*
X152185714Y-144803809D01*
X200826666Y-145232380D02*
X201160000Y-144756190D01*
X201398095Y-145232380D02*
X201398095Y-144232380D01*
X201017142Y-144232380D01*
X200921904Y-144280000D01*
X200874285Y-144327619D01*
X200826666Y-144422857D01*
X200826666Y-144565714D01*
X200874285Y-144660952D01*
X200921904Y-144708571D01*
X201017142Y-144756190D01*
X201398095Y-144756190D01*
X199921904Y-144232380D02*
X200398095Y-144232380D01*
X200445714Y-144708571D01*
X200398095Y-144660952D01*
X200302857Y-144613333D01*
X200064761Y-144613333D01*
X199969523Y-144660952D01*
X199921904Y-144708571D01*
X199874285Y-144803809D01*
X199874285Y-145041904D01*
X199921904Y-145137142D01*
X199969523Y-145184761D01*
X200064761Y-145232380D01*
X200302857Y-145232380D01*
X200398095Y-145184761D01*
X200445714Y-145137142D01*
X150026666Y-120002380D02*
X150360000Y-119526190D01*
X150598095Y-120002380D02*
X150598095Y-119002380D01*
X150217142Y-119002380D01*
X150121904Y-119050000D01*
X150074285Y-119097619D01*
X150026666Y-119192857D01*
X150026666Y-119335714D01*
X150074285Y-119430952D01*
X150121904Y-119478571D01*
X150217142Y-119526190D01*
X150598095Y-119526190D01*
X149169523Y-119335714D02*
X149169523Y-120002380D01*
X149407619Y-118954761D02*
X149645714Y-119669047D01*
X149026666Y-119669047D01*
X150026666Y-109842380D02*
X150360000Y-109366190D01*
X150598095Y-109842380D02*
X150598095Y-108842380D01*
X150217142Y-108842380D01*
X150121904Y-108890000D01*
X150074285Y-108937619D01*
X150026666Y-109032857D01*
X150026666Y-109175714D01*
X150074285Y-109270952D01*
X150121904Y-109318571D01*
X150217142Y-109366190D01*
X150598095Y-109366190D01*
X149693333Y-108842380D02*
X149074285Y-108842380D01*
X149407619Y-109223333D01*
X149264761Y-109223333D01*
X149169523Y-109270952D01*
X149121904Y-109318571D01*
X149074285Y-109413809D01*
X149074285Y-109651904D01*
X149121904Y-109747142D01*
X149169523Y-109794761D01*
X149264761Y-109842380D01*
X149550476Y-109842380D01*
X149645714Y-109794761D01*
X149693333Y-109747142D01*
X203366666Y-119832380D02*
X203700000Y-119356190D01*
X203938095Y-119832380D02*
X203938095Y-118832380D01*
X203557142Y-118832380D01*
X203461904Y-118880000D01*
X203414285Y-118927619D01*
X203366666Y-119022857D01*
X203366666Y-119165714D01*
X203414285Y-119260952D01*
X203461904Y-119308571D01*
X203557142Y-119356190D01*
X203938095Y-119356190D01*
X202985714Y-118927619D02*
X202938095Y-118880000D01*
X202842857Y-118832380D01*
X202604761Y-118832380D01*
X202509523Y-118880000D01*
X202461904Y-118927619D01*
X202414285Y-119022857D01*
X202414285Y-119118095D01*
X202461904Y-119260952D01*
X203033333Y-119832380D01*
X202414285Y-119832380D01*
X203366666Y-109672380D02*
X203700000Y-109196190D01*
X203938095Y-109672380D02*
X203938095Y-108672380D01*
X203557142Y-108672380D01*
X203461904Y-108720000D01*
X203414285Y-108767619D01*
X203366666Y-108862857D01*
X203366666Y-109005714D01*
X203414285Y-109100952D01*
X203461904Y-109148571D01*
X203557142Y-109196190D01*
X203938095Y-109196190D01*
X202414285Y-109672380D02*
X202985714Y-109672380D01*
X202700000Y-109672380D02*
X202700000Y-108672380D01*
X202795238Y-108815238D01*
X202890476Y-108910476D01*
X202985714Y-108958095D01*
X208823333Y-144232380D02*
X208823333Y-144946666D01*
X208870952Y-145089523D01*
X208966190Y-145184761D01*
X209109047Y-145232380D01*
X209204285Y-145232380D01*
X208394761Y-144327619D02*
X208347142Y-144280000D01*
X208251904Y-144232380D01*
X208013809Y-144232380D01*
X207918571Y-144280000D01*
X207870952Y-144327619D01*
X207823333Y-144422857D01*
X207823333Y-144518095D01*
X207870952Y-144660952D01*
X208442380Y-145232380D01*
X207823333Y-145232380D01*
X144903333Y-144232380D02*
X144903333Y-144946666D01*
X144950952Y-145089523D01*
X145046190Y-145184761D01*
X145189047Y-145232380D01*
X145284285Y-145232380D01*
X143903333Y-145232380D02*
X144474761Y-145232380D01*
X144189047Y-145232380D02*
X144189047Y-144232380D01*
X144284285Y-144375238D01*
X144379523Y-144470476D01*
X144474761Y-144518095D01*
X202668095Y-77992380D02*
X202668095Y-76992380D01*
X202430000Y-76992380D01*
X202287142Y-77040000D01*
X202191904Y-77135238D01*
X202144285Y-77230476D01*
X202096666Y-77420952D01*
X202096666Y-77563809D01*
X202144285Y-77754285D01*
X202191904Y-77849523D01*
X202287142Y-77944761D01*
X202430000Y-77992380D01*
X202668095Y-77992380D01*
X201144285Y-77992380D02*
X201715714Y-77992380D01*
X201430000Y-77992380D02*
X201430000Y-76992380D01*
X201525238Y-77135238D01*
X201620476Y-77230476D01*
X201715714Y-77278095D01*
X207271904Y-78562380D02*
X207271904Y-77562380D01*
X206700476Y-78562380D02*
X207129047Y-77990952D01*
X206700476Y-77562380D02*
X207271904Y-78133809D01*
X160027857Y-55602142D02*
X160075476Y-55649761D01*
X160218333Y-55697380D01*
X160313571Y-55697380D01*
X160456428Y-55649761D01*
X160551666Y-55554523D01*
X160599285Y-55459285D01*
X160646904Y-55268809D01*
X160646904Y-55125952D01*
X160599285Y-54935476D01*
X160551666Y-54840238D01*
X160456428Y-54745000D01*
X160313571Y-54697380D01*
X160218333Y-54697380D01*
X160075476Y-54745000D01*
X160027857Y-54792619D01*
X159646904Y-54792619D02*
X159599285Y-54745000D01*
X159504047Y-54697380D01*
X159265952Y-54697380D01*
X159170714Y-54745000D01*
X159123095Y-54792619D01*
X159075476Y-54887857D01*
X159075476Y-54983095D01*
X159123095Y-55125952D01*
X159694523Y-55697380D01*
X159075476Y-55697380D01*
X158742142Y-54697380D02*
X158123095Y-54697380D01*
X158456428Y-55078333D01*
X158313571Y-55078333D01*
X158218333Y-55125952D01*
X158170714Y-55173571D01*
X158123095Y-55268809D01*
X158123095Y-55506904D01*
X158170714Y-55602142D01*
X158218333Y-55649761D01*
X158313571Y-55697380D01*
X158599285Y-55697380D01*
X158694523Y-55649761D01*
X158742142Y-55602142D01*
X160027857Y-63222142D02*
X160075476Y-63269761D01*
X160218333Y-63317380D01*
X160313571Y-63317380D01*
X160456428Y-63269761D01*
X160551666Y-63174523D01*
X160599285Y-63079285D01*
X160646904Y-62888809D01*
X160646904Y-62745952D01*
X160599285Y-62555476D01*
X160551666Y-62460238D01*
X160456428Y-62365000D01*
X160313571Y-62317380D01*
X160218333Y-62317380D01*
X160075476Y-62365000D01*
X160027857Y-62412619D01*
X159646904Y-62412619D02*
X159599285Y-62365000D01*
X159504047Y-62317380D01*
X159265952Y-62317380D01*
X159170714Y-62365000D01*
X159123095Y-62412619D01*
X159075476Y-62507857D01*
X159075476Y-62603095D01*
X159123095Y-62745952D01*
X159694523Y-63317380D01*
X159075476Y-63317380D01*
X158694523Y-62412619D02*
X158646904Y-62365000D01*
X158551666Y-62317380D01*
X158313571Y-62317380D01*
X158218333Y-62365000D01*
X158170714Y-62412619D01*
X158123095Y-62507857D01*
X158123095Y-62603095D01*
X158170714Y-62745952D01*
X158742142Y-63317380D01*
X158123095Y-63317380D01*
X134794857Y-94845142D02*
X134842476Y-94892761D01*
X134985333Y-94940380D01*
X135080571Y-94940380D01*
X135223428Y-94892761D01*
X135318666Y-94797523D01*
X135366285Y-94702285D01*
X135413904Y-94511809D01*
X135413904Y-94368952D01*
X135366285Y-94178476D01*
X135318666Y-94083238D01*
X135223428Y-93988000D01*
X135080571Y-93940380D01*
X134985333Y-93940380D01*
X134842476Y-93988000D01*
X134794857Y-94035619D01*
X133842476Y-94940380D02*
X134413904Y-94940380D01*
X134128190Y-94940380D02*
X134128190Y-93940380D01*
X134223428Y-94083238D01*
X134318666Y-94178476D01*
X134413904Y-94226095D01*
X132937714Y-93940380D02*
X133413904Y-93940380D01*
X133461523Y-94416571D01*
X133413904Y-94368952D01*
X133318666Y-94321333D01*
X133080571Y-94321333D01*
X132985333Y-94368952D01*
X132937714Y-94416571D01*
X132890095Y-94511809D01*
X132890095Y-94749904D01*
X132937714Y-94845142D01*
X132985333Y-94892761D01*
X133080571Y-94940380D01*
X133318666Y-94940380D01*
X133413904Y-94892761D01*
X133461523Y-94845142D01*
X134714857Y-79565142D02*
X134762476Y-79612761D01*
X134905333Y-79660380D01*
X135000571Y-79660380D01*
X135143428Y-79612761D01*
X135238666Y-79517523D01*
X135286285Y-79422285D01*
X135333904Y-79231809D01*
X135333904Y-79088952D01*
X135286285Y-78898476D01*
X135238666Y-78803238D01*
X135143428Y-78708000D01*
X135000571Y-78660380D01*
X134905333Y-78660380D01*
X134762476Y-78708000D01*
X134714857Y-78755619D01*
X133762476Y-79660380D02*
X134333904Y-79660380D01*
X134048190Y-79660380D02*
X134048190Y-78660380D01*
X134143428Y-78803238D01*
X134238666Y-78898476D01*
X134333904Y-78946095D01*
X133381523Y-78755619D02*
X133333904Y-78708000D01*
X133238666Y-78660380D01*
X133000571Y-78660380D01*
X132905333Y-78708000D01*
X132857714Y-78755619D01*
X132810095Y-78850857D01*
X132810095Y-78946095D01*
X132857714Y-79088952D01*
X133429142Y-79660380D01*
X132810095Y-79660380D01*
X152494857Y-79565142D02*
X152542476Y-79612761D01*
X152685333Y-79660380D01*
X152780571Y-79660380D01*
X152923428Y-79612761D01*
X153018666Y-79517523D01*
X153066285Y-79422285D01*
X153113904Y-79231809D01*
X153113904Y-79088952D01*
X153066285Y-78898476D01*
X153018666Y-78803238D01*
X152923428Y-78708000D01*
X152780571Y-78660380D01*
X152685333Y-78660380D01*
X152542476Y-78708000D01*
X152494857Y-78755619D01*
X151542476Y-79660380D02*
X152113904Y-79660380D01*
X151828190Y-79660380D02*
X151828190Y-78660380D01*
X151923428Y-78803238D01*
X152018666Y-78898476D01*
X152113904Y-78946095D01*
X150590095Y-79660380D02*
X151161523Y-79660380D01*
X150875809Y-79660380D02*
X150875809Y-78660380D01*
X150971047Y-78803238D01*
X151066285Y-78898476D01*
X151161523Y-78946095D01*
X165702857Y-67667142D02*
X165750476Y-67714761D01*
X165893333Y-67762380D01*
X165988571Y-67762380D01*
X166131428Y-67714761D01*
X166226666Y-67619523D01*
X166274285Y-67524285D01*
X166321904Y-67333809D01*
X166321904Y-67190952D01*
X166274285Y-67000476D01*
X166226666Y-66905238D01*
X166131428Y-66810000D01*
X165988571Y-66762380D01*
X165893333Y-66762380D01*
X165750476Y-66810000D01*
X165702857Y-66857619D01*
X164750476Y-67762380D02*
X165321904Y-67762380D01*
X165036190Y-67762380D02*
X165036190Y-66762380D01*
X165131428Y-66905238D01*
X165226666Y-67000476D01*
X165321904Y-67048095D01*
X164131428Y-66762380D02*
X164036190Y-66762380D01*
X163940952Y-66810000D01*
X163893333Y-66857619D01*
X163845714Y-66952857D01*
X163798095Y-67143333D01*
X163798095Y-67381428D01*
X163845714Y-67571904D01*
X163893333Y-67667142D01*
X163940952Y-67714761D01*
X164036190Y-67762380D01*
X164131428Y-67762380D01*
X164226666Y-67714761D01*
X164274285Y-67667142D01*
X164321904Y-67571904D01*
X164369523Y-67381428D01*
X164369523Y-67143333D01*
X164321904Y-66952857D01*
X164274285Y-66857619D01*
X164226666Y-66810000D01*
X164131428Y-66762380D01*
X165266666Y-113387142D02*
X165314285Y-113434761D01*
X165457142Y-113482380D01*
X165552380Y-113482380D01*
X165695238Y-113434761D01*
X165790476Y-113339523D01*
X165838095Y-113244285D01*
X165885714Y-113053809D01*
X165885714Y-112910952D01*
X165838095Y-112720476D01*
X165790476Y-112625238D01*
X165695238Y-112530000D01*
X165552380Y-112482380D01*
X165457142Y-112482380D01*
X165314285Y-112530000D01*
X165266666Y-112577619D01*
X164790476Y-113482380D02*
X164600000Y-113482380D01*
X164504761Y-113434761D01*
X164457142Y-113387142D01*
X164361904Y-113244285D01*
X164314285Y-113053809D01*
X164314285Y-112672857D01*
X164361904Y-112577619D01*
X164409523Y-112530000D01*
X164504761Y-112482380D01*
X164695238Y-112482380D01*
X164790476Y-112530000D01*
X164838095Y-112577619D01*
X164885714Y-112672857D01*
X164885714Y-112910952D01*
X164838095Y-113006190D01*
X164790476Y-113053809D01*
X164695238Y-113101428D01*
X164504761Y-113101428D01*
X164409523Y-113053809D01*
X164361904Y-113006190D01*
X164314285Y-112910952D01*
X165226666Y-77827142D02*
X165274285Y-77874761D01*
X165417142Y-77922380D01*
X165512380Y-77922380D01*
X165655238Y-77874761D01*
X165750476Y-77779523D01*
X165798095Y-77684285D01*
X165845714Y-77493809D01*
X165845714Y-77350952D01*
X165798095Y-77160476D01*
X165750476Y-77065238D01*
X165655238Y-76970000D01*
X165512380Y-76922380D01*
X165417142Y-76922380D01*
X165274285Y-76970000D01*
X165226666Y-77017619D01*
X164655238Y-77350952D02*
X164750476Y-77303333D01*
X164798095Y-77255714D01*
X164845714Y-77160476D01*
X164845714Y-77112857D01*
X164798095Y-77017619D01*
X164750476Y-76970000D01*
X164655238Y-76922380D01*
X164464761Y-76922380D01*
X164369523Y-76970000D01*
X164321904Y-77017619D01*
X164274285Y-77112857D01*
X164274285Y-77160476D01*
X164321904Y-77255714D01*
X164369523Y-77303333D01*
X164464761Y-77350952D01*
X164655238Y-77350952D01*
X164750476Y-77398571D01*
X164798095Y-77446190D01*
X164845714Y-77541428D01*
X164845714Y-77731904D01*
X164798095Y-77827142D01*
X164750476Y-77874761D01*
X164655238Y-77922380D01*
X164464761Y-77922380D01*
X164369523Y-77874761D01*
X164321904Y-77827142D01*
X164274285Y-77731904D01*
X164274285Y-77541428D01*
X164321904Y-77446190D01*
X164369523Y-77398571D01*
X164464761Y-77350952D01*
X165226666Y-124817142D02*
X165274285Y-124864761D01*
X165417142Y-124912380D01*
X165512380Y-124912380D01*
X165655238Y-124864761D01*
X165750476Y-124769523D01*
X165798095Y-124674285D01*
X165845714Y-124483809D01*
X165845714Y-124340952D01*
X165798095Y-124150476D01*
X165750476Y-124055238D01*
X165655238Y-123960000D01*
X165512380Y-123912380D01*
X165417142Y-123912380D01*
X165274285Y-123960000D01*
X165226666Y-124007619D01*
X164893333Y-123912380D02*
X164226666Y-123912380D01*
X164655238Y-124912380D01*
X165226666Y-118467142D02*
X165274285Y-118514761D01*
X165417142Y-118562380D01*
X165512380Y-118562380D01*
X165655238Y-118514761D01*
X165750476Y-118419523D01*
X165798095Y-118324285D01*
X165845714Y-118133809D01*
X165845714Y-117990952D01*
X165798095Y-117800476D01*
X165750476Y-117705238D01*
X165655238Y-117610000D01*
X165512380Y-117562380D01*
X165417142Y-117562380D01*
X165274285Y-117610000D01*
X165226666Y-117657619D01*
X164369523Y-117562380D02*
X164560000Y-117562380D01*
X164655238Y-117610000D01*
X164702857Y-117657619D01*
X164798095Y-117800476D01*
X164845714Y-117990952D01*
X164845714Y-118371904D01*
X164798095Y-118467142D01*
X164750476Y-118514761D01*
X164655238Y-118562380D01*
X164464761Y-118562380D01*
X164369523Y-118514761D01*
X164321904Y-118467142D01*
X164274285Y-118371904D01*
X164274285Y-118133809D01*
X164321904Y-118038571D01*
X164369523Y-117990952D01*
X164464761Y-117943333D01*
X164655238Y-117943333D01*
X164750476Y-117990952D01*
X164798095Y-118038571D01*
X164845714Y-118133809D01*
X188166666Y-68007142D02*
X188214285Y-68054761D01*
X188357142Y-68102380D01*
X188452380Y-68102380D01*
X188595238Y-68054761D01*
X188690476Y-67959523D01*
X188738095Y-67864285D01*
X188785714Y-67673809D01*
X188785714Y-67530952D01*
X188738095Y-67340476D01*
X188690476Y-67245238D01*
X188595238Y-67150000D01*
X188452380Y-67102380D01*
X188357142Y-67102380D01*
X188214285Y-67150000D01*
X188166666Y-67197619D01*
X187261904Y-67102380D02*
X187738095Y-67102380D01*
X187785714Y-67578571D01*
X187738095Y-67530952D01*
X187642857Y-67483333D01*
X187404761Y-67483333D01*
X187309523Y-67530952D01*
X187261904Y-67578571D01*
X187214285Y-67673809D01*
X187214285Y-67911904D01*
X187261904Y-68007142D01*
X187309523Y-68054761D01*
X187404761Y-68102380D01*
X187642857Y-68102380D01*
X187738095Y-68054761D01*
X187785714Y-68007142D01*
X188166666Y-113727142D02*
X188214285Y-113774761D01*
X188357142Y-113822380D01*
X188452380Y-113822380D01*
X188595238Y-113774761D01*
X188690476Y-113679523D01*
X188738095Y-113584285D01*
X188785714Y-113393809D01*
X188785714Y-113250952D01*
X188738095Y-113060476D01*
X188690476Y-112965238D01*
X188595238Y-112870000D01*
X188452380Y-112822380D01*
X188357142Y-112822380D01*
X188214285Y-112870000D01*
X188166666Y-112917619D01*
X187309523Y-113155714D02*
X187309523Y-113822380D01*
X187547619Y-112774761D02*
X187785714Y-113489047D01*
X187166666Y-113489047D01*
X188166666Y-78167142D02*
X188214285Y-78214761D01*
X188357142Y-78262380D01*
X188452380Y-78262380D01*
X188595238Y-78214761D01*
X188690476Y-78119523D01*
X188738095Y-78024285D01*
X188785714Y-77833809D01*
X188785714Y-77690952D01*
X188738095Y-77500476D01*
X188690476Y-77405238D01*
X188595238Y-77310000D01*
X188452380Y-77262380D01*
X188357142Y-77262380D01*
X188214285Y-77310000D01*
X188166666Y-77357619D01*
X187833333Y-77262380D02*
X187214285Y-77262380D01*
X187547619Y-77643333D01*
X187404761Y-77643333D01*
X187309523Y-77690952D01*
X187261904Y-77738571D01*
X187214285Y-77833809D01*
X187214285Y-78071904D01*
X187261904Y-78167142D01*
X187309523Y-78214761D01*
X187404761Y-78262380D01*
X187690476Y-78262380D01*
X187785714Y-78214761D01*
X187833333Y-78167142D01*
X188166666Y-125157142D02*
X188214285Y-125204761D01*
X188357142Y-125252380D01*
X188452380Y-125252380D01*
X188595238Y-125204761D01*
X188690476Y-125109523D01*
X188738095Y-125014285D01*
X188785714Y-124823809D01*
X188785714Y-124680952D01*
X188738095Y-124490476D01*
X188690476Y-124395238D01*
X188595238Y-124300000D01*
X188452380Y-124252380D01*
X188357142Y-124252380D01*
X188214285Y-124300000D01*
X188166666Y-124347619D01*
X187785714Y-124347619D02*
X187738095Y-124300000D01*
X187642857Y-124252380D01*
X187404761Y-124252380D01*
X187309523Y-124300000D01*
X187261904Y-124347619D01*
X187214285Y-124442857D01*
X187214285Y-124538095D01*
X187261904Y-124680952D01*
X187833333Y-125252380D01*
X187214285Y-125252380D01*
X188166666Y-118807142D02*
X188214285Y-118854761D01*
X188357142Y-118902380D01*
X188452380Y-118902380D01*
X188595238Y-118854761D01*
X188690476Y-118759523D01*
X188738095Y-118664285D01*
X188785714Y-118473809D01*
X188785714Y-118330952D01*
X188738095Y-118140476D01*
X188690476Y-118045238D01*
X188595238Y-117950000D01*
X188452380Y-117902380D01*
X188357142Y-117902380D01*
X188214285Y-117950000D01*
X188166666Y-117997619D01*
X187214285Y-118902380D02*
X187785714Y-118902380D01*
X187500000Y-118902380D02*
X187500000Y-117902380D01*
X187595238Y-118045238D01*
X187690476Y-118140476D01*
X187785714Y-118188095D01*
M02*
