M48
; DRILL file {KiCad 5.1.5-52549c5~84~ubuntu18.04.1} date Wed 29 Jan 2020 05:28:58 PM EST
; FORMAT={-:-/ absolute / inch / decimal}
; #@! TF.CreationDate,2020-01-29T17:28:58-05:00
; #@! TF.GenerationSoftware,Kicad,Pcbnew,5.1.5-52549c5~84~ubuntu18.04.1
; #@! TF.FileFunction,Plated,1,2,PTH
FMAT,2
INCH
T1C0.0157
T2C0.0315
T3C0.0394
T4C0.1260
%
G90
G05
T1
X3.05Y-4.635
X3.065Y-4.06
X3.14Y-3.335
X3.16Y-3.645
X3.16Y-4.305
X3.19Y-3.915
X3.205Y-3.04
X3.385Y-3.955
X3.39Y-3.715
X3.39Y-4.81
X3.395Y-3.325
X3.405Y-2.22
X3.42Y-4.625
X3.45Y-4.22
X3.495Y-3.74
X3.5Y-3.64
X3.51Y-4.32
X3.515Y-2.53
X3.53Y-4.51
X3.535Y-3.895
X3.545Y-2.765
X3.545Y-3.105
X3.545Y-3.3
X3.57Y-2.95
X3.59Y-3.05
X3.59Y-3.6
X3.59Y-4.67
X3.65Y-3.95
X3.68Y-4.44
X3.68Y-3.65
X3.68Y-4.5
X3.77Y-2.91
X3.78Y-3.76
X3.78Y-4.63
X3.79Y-4.25
X3.8Y-3.94
X3.82Y-3.67
X3.82Y-4.02
X3.83Y-4.49
X3.84Y-2.78
X3.86Y-2.95
X3.875Y-4.99
X3.88Y-2.155
X3.885Y-2.38
X3.91Y-4.835
X3.96Y-4.68
X4.03Y-4.94
X4.04Y-2.53
X4.05Y-4.39
X4.065Y-3.965
X4.08Y-4.52
X4.085Y-3.505
X4.12Y-4.4
X4.18Y-4.445
X4.2Y-4.01
X4.22Y-3.12
X4.22Y-3.65
X4.24Y-2.855
X4.25Y-2.565
X4.255Y-4.525
X4.26Y-3.95
X4.265Y-3.28
X4.275Y-2.3
X4.28Y-3.47
X4.31Y-4.1
X4.31Y-4.2
X4.32Y-4.4
X4.325Y-3.05
X4.325Y-4.775
X4.355Y-4.015
X4.365Y-3.875
X4.415Y-4.545
X4.415Y-4.855
X4.435Y-2.505
X4.46Y-3.69
X4.47Y-4.27
X4.52Y-4.145
X4.54Y-3.245
X4.555Y-4.4
X4.63Y-4.84
X4.645Y-3.465
X4.65Y-3.05
X4.655Y-2.16
X4.675Y-3.85
X4.69Y-2.69
X4.7Y-3.1
X4.745Y-4.82
X4.78Y-3.7
X4.905Y-4.035
X4.915Y-3.435
X4.935Y-4.15
X4.95Y-2.81
X4.95Y-3.0
X4.99Y-4.305
X5.0Y-4.59
X5.045Y-4.745
X5.055Y-2.185
T2
X3.75Y-2.575
X3.85Y-2.575
X3.95Y-2.575
X4.6Y-2.575
X4.7Y-2.575
X4.8Y-2.575
X4.55Y-4.035
X4.65Y-4.035
X4.75Y-4.035
X4.6Y-3.325
X4.7Y-3.325
X4.8Y-3.325
X4.55Y-4.3
X4.65Y-4.3
X4.75Y-4.3
X3.775Y-3.325
X3.875Y-3.325
X3.975Y-3.325
X4.125Y-2.65
X4.125Y-2.75
X4.125Y-2.85
X4.125Y-2.95
X4.125Y-3.05
X4.125Y-3.15
X4.125Y-3.25
X4.125Y-3.35
X4.425Y-2.65
X4.425Y-2.75
X4.425Y-2.85
X4.425Y-2.95
X4.425Y-3.05
X4.425Y-3.15
X4.425Y-3.25
X4.425Y-3.35
T3
X5.1Y-2.5
X5.1Y-2.6
X5.1Y-2.7
X5.1Y-2.8
X5.1Y-2.9
X5.1Y-3.6
X5.1Y-3.7
X5.1Y-3.1
X5.1Y-3.2
X5.1Y-3.3
X5.1Y-3.4
X5.1Y-4.2
X5.1Y-4.3
X5.1Y-4.4
X5.1Y-4.5
X5.1Y-4.6
X5.1Y-3.9
X5.1Y-4.0
X4.7Y-4.925
X4.8Y-4.925
X4.9Y-4.925
X5.0Y-4.925
X5.1Y-4.925
X3.7Y-2.3
X3.2Y-2.5
X3.2Y-2.6
X3.2Y-2.7
X3.2Y-2.8
X3.2Y-2.9
X3.3Y-2.5
X3.3Y-2.6
X3.3Y-2.7
X3.3Y-2.8
X3.3Y-2.9
X4.05Y-2.3
T4
X3.2Y-2.2
X3.2Y-4.9
T0
M30
