G04 #@! TF.GenerationSoftware,KiCad,Pcbnew,5.1.5-52549c5~84~ubuntu18.04.1*
G04 #@! TF.CreationDate,2020-01-29T17:28:10-05:00*
G04 #@! TF.ProjectId,CEM3340_VCO,43454d33-3334-4305-9f56-434f2e6b6963,rev?*
G04 #@! TF.SameCoordinates,Original*
G04 #@! TF.FileFunction,Copper,L2,Bot*
G04 #@! TF.FilePolarity,Positive*
%FSLAX46Y46*%
G04 Gerber Fmt 4.6, Leading zero omitted, Abs format (unit mm)*
G04 Created by KiCad (PCBNEW 5.1.5-52549c5~84~ubuntu18.04.1) date 2020-01-29 17:28:10*
%MOMM*%
%LPD*%
G04 APERTURE LIST*
%ADD10C,3.200000*%
%ADD11C,1.440000*%
%ADD12O,1.600000X1.600000*%
%ADD13R,1.600000X1.600000*%
%ADD14C,2.000000*%
%ADD15O,1.700000X1.700000*%
%ADD16R,1.700000X1.700000*%
%ADD17C,0.800000*%
%ADD18C,0.400000*%
%ADD19C,0.250000*%
%ADD20C,0.254000*%
G04 APERTURE END LIST*
D10*
X81280000Y-124460000D03*
X81280000Y-55880000D03*
D11*
X100965000Y-84455000D03*
X98425000Y-84455000D03*
X95885000Y-84455000D03*
X120650000Y-109220000D03*
X118110000Y-109220000D03*
X115570000Y-109220000D03*
D12*
X112395000Y-67310000D03*
X104775000Y-85090000D03*
X112395000Y-69850000D03*
X104775000Y-82550000D03*
X112395000Y-72390000D03*
X104775000Y-80010000D03*
X112395000Y-74930000D03*
X104775000Y-77470000D03*
X112395000Y-77470000D03*
X104775000Y-74930000D03*
X112395000Y-80010000D03*
X104775000Y-72390000D03*
X112395000Y-82550000D03*
X104775000Y-69850000D03*
X112395000Y-85090000D03*
D13*
X104775000Y-67310000D03*
D14*
X102870000Y-58420000D03*
X93980000Y-58420000D03*
D11*
X120650000Y-102489000D03*
X118110000Y-102489000D03*
X115570000Y-102489000D03*
X116840000Y-84455000D03*
X119380000Y-84455000D03*
X121920000Y-84455000D03*
X121920000Y-65405000D03*
X119380000Y-65405000D03*
X116840000Y-65405000D03*
X95250000Y-65405000D03*
X97790000Y-65405000D03*
X100330000Y-65405000D03*
D15*
X129540000Y-101600000D03*
D16*
X129540000Y-99060000D03*
D15*
X129540000Y-116840000D03*
X129540000Y-114300000D03*
X129540000Y-111760000D03*
X129540000Y-109220000D03*
D16*
X129540000Y-106680000D03*
D15*
X129540000Y-93980000D03*
D16*
X129540000Y-91440000D03*
D15*
X129540000Y-73660000D03*
X129540000Y-71120000D03*
X129540000Y-68580000D03*
X129540000Y-66040000D03*
D16*
X129540000Y-63500000D03*
X129540000Y-78740000D03*
D15*
X129540000Y-81280000D03*
X129540000Y-83820000D03*
X129540000Y-86360000D03*
D16*
X119380000Y-125095000D03*
D15*
X121920000Y-125095000D03*
X124460000Y-125095000D03*
X127000000Y-125095000D03*
X129540000Y-125095000D03*
D16*
X83820000Y-73660000D03*
D15*
X81280000Y-73660000D03*
X83820000Y-71120000D03*
X81280000Y-71120000D03*
X83820000Y-68580000D03*
X81280000Y-68580000D03*
X83820000Y-66040000D03*
X81280000Y-66040000D03*
X83820000Y-63500000D03*
X81280000Y-63500000D03*
D17*
X96012000Y-117602000D03*
X97282000Y-114046000D03*
X100584000Y-118872000D03*
X93472000Y-114300000D03*
X97028000Y-93218000D03*
X96520000Y-100076000D03*
X97028000Y-102108000D03*
X125730000Y-71374000D03*
X125730000Y-76200000D03*
X119126000Y-68326000D03*
X119380000Y-78740000D03*
X96012000Y-95504000D03*
X98044000Y-74930000D03*
X95758000Y-73914000D03*
X97536000Y-70612000D03*
X103632000Y-114808000D03*
X108077000Y-114935000D03*
X112141000Y-115443000D03*
X109728000Y-111760000D03*
X103251000Y-100711000D03*
X110871000Y-98425000D03*
X114808000Y-105283000D03*
X113538000Y-108458000D03*
X115697000Y-111760000D03*
X103759000Y-89027000D03*
X108712000Y-88138000D03*
X108331000Y-83312000D03*
X107188000Y-79248000D03*
X109855000Y-77470000D03*
X107696000Y-72517000D03*
X107950000Y-65151000D03*
X112649000Y-63627000D03*
X102616000Y-64262000D03*
X98679000Y-60452000D03*
X89281000Y-64262000D03*
X90043000Y-70231000D03*
X81407000Y-77216000D03*
X79756000Y-84709000D03*
X80264000Y-92583000D03*
X88773000Y-94996000D03*
X86106000Y-94361000D03*
X81026000Y-99441000D03*
X80264000Y-109347000D03*
X77851000Y-103124000D03*
X77470000Y-117729000D03*
X86106000Y-122174000D03*
X86868000Y-117475000D03*
X89662000Y-114554000D03*
X89154000Y-109728000D03*
X89789000Y-98933000D03*
X85979000Y-100457000D03*
X106680000Y-101854000D03*
X110617000Y-101981000D03*
X113284000Y-93726000D03*
X121412000Y-93980000D03*
X117983000Y-88011000D03*
X124841000Y-87249000D03*
X115316000Y-82423000D03*
X108585000Y-58420000D03*
X118237000Y-54864000D03*
X128397000Y-55499000D03*
X98552000Y-54737000D03*
X86487000Y-56388000D03*
X126746000Y-109347000D03*
X125349000Y-105410000D03*
X124587000Y-102489000D03*
X127000000Y-116586000D03*
X128143000Y-120523000D03*
X120523000Y-122428000D03*
X112141000Y-123317000D03*
X117602000Y-122936000D03*
X102362000Y-125476000D03*
X98425000Y-126746000D03*
X90043000Y-83820000D03*
X90043000Y-78867000D03*
X86233000Y-84455000D03*
X90678000Y-74930000D03*
X118745000Y-97790000D03*
X109855000Y-121285000D03*
X99314000Y-122809000D03*
X87630000Y-107188000D03*
X88900000Y-92456000D03*
X118110000Y-77470000D03*
X91186000Y-118618000D03*
X91186000Y-77470000D03*
X91186000Y-91440000D03*
X107188000Y-92710000D03*
X109474000Y-104140000D03*
X104648000Y-111760000D03*
X93471994Y-112776000D03*
X106172000Y-112903000D03*
X92710000Y-100330000D03*
X108204000Y-100330000D03*
X102870000Y-111506000D03*
X96266000Y-107950000D03*
X93472000Y-92710000D03*
X109474000Y-106680000D03*
D18*
X81280000Y-63500000D02*
X83820000Y-63500000D01*
D19*
X108331000Y-122809000D02*
X109855000Y-121285000D01*
X99314000Y-122809000D02*
X108331000Y-122809000D01*
D18*
X81280000Y-73660000D02*
X83820000Y-73660000D01*
D19*
X111125000Y-68580000D02*
X112395000Y-67310000D01*
X87630000Y-107188000D02*
X87630000Y-70104000D01*
X89154000Y-68580000D02*
X111125000Y-68580000D01*
X87630000Y-70104000D02*
X89154000Y-68580000D01*
X103643630Y-72390000D02*
X104775000Y-72390000D01*
X90678000Y-72390000D02*
X103643630Y-72390000D01*
X88900000Y-92456000D02*
X88900000Y-74168000D01*
X88900000Y-74168000D02*
X90678000Y-72390000D01*
X125095000Y-68580000D02*
X121920000Y-65405000D01*
X129540000Y-68580000D02*
X125095000Y-68580000D01*
X118110000Y-77470000D02*
X118110000Y-73914000D01*
X121920000Y-70104000D02*
X121920000Y-65405000D01*
X118110000Y-73914000D02*
X121920000Y-70104000D01*
X131318000Y-116332000D02*
X130810000Y-116840000D01*
X130810000Y-116840000D02*
X129540000Y-116840000D01*
X131318000Y-74235919D02*
X131318000Y-116332000D01*
X129540000Y-73660000D02*
X130742081Y-73660000D01*
X130742081Y-73660000D02*
X131318000Y-74235919D01*
X91186000Y-91440000D02*
X91186000Y-77470000D01*
X91186000Y-118618000D02*
X91186000Y-93980000D01*
X91186000Y-93980000D02*
X91186000Y-91440000D01*
X107188000Y-92710000D02*
X105664000Y-94234000D01*
X91186000Y-94234000D02*
X91186000Y-93980000D01*
X105664000Y-94234000D02*
X91186000Y-94234000D01*
X129540000Y-104648000D02*
X129540000Y-106680000D01*
X109474000Y-104140000D02*
X129032000Y-104140000D01*
X129032000Y-104140000D02*
X129540000Y-104648000D01*
X119830315Y-127762000D02*
X106172000Y-114103685D01*
X106172000Y-113468685D02*
X106172000Y-112903000D01*
X106172000Y-114103685D02*
X106172000Y-113468685D01*
X127000000Y-125095000D02*
X124333000Y-127762000D01*
X124333000Y-127762000D02*
X119830315Y-127762000D01*
X93979994Y-112268000D02*
X93871993Y-112376001D01*
X103251000Y-112268000D02*
X93979994Y-112268000D01*
X104648000Y-111760000D02*
X103759000Y-111760000D01*
X93871993Y-112376001D02*
X93471994Y-112776000D01*
X103759000Y-111760000D02*
X103251000Y-112268000D01*
X98203998Y-124296002D02*
X98839000Y-124296002D01*
X128778000Y-128778000D02*
X131318000Y-126238000D01*
X92710000Y-118802004D02*
X98203998Y-124296002D01*
X130302000Y-123444000D02*
X126111000Y-123444000D01*
X126111000Y-123444000D02*
X125309999Y-124245001D01*
X125309999Y-124245001D02*
X124460000Y-125095000D01*
X103320998Y-128778000D02*
X128778000Y-128778000D01*
X131318000Y-124460000D02*
X130302000Y-123444000D01*
X92710000Y-100330000D02*
X92710000Y-118802004D01*
X131318000Y-126238000D02*
X131318000Y-124460000D01*
X98839000Y-124296002D02*
X103320998Y-128778000D01*
X108204000Y-109474000D02*
X108204000Y-100330000D01*
X109220000Y-110490000D02*
X108204000Y-109474000D01*
X116586000Y-110490000D02*
X109220000Y-110490000D01*
X121920000Y-125095000D02*
X121920000Y-115824000D01*
X121920000Y-115824000D02*
X116586000Y-110490000D01*
X99314000Y-107950000D02*
X102870000Y-111506000D01*
X96266000Y-107950000D02*
X99314000Y-107950000D01*
X102870000Y-85090000D02*
X104775000Y-85090000D01*
X93472000Y-92710000D02*
X95250000Y-92710000D01*
X95250000Y-92710000D02*
X102870000Y-85090000D01*
X127000000Y-106680000D02*
X127762000Y-107442000D01*
X109474000Y-106680000D02*
X127000000Y-106680000D01*
X127762000Y-107442000D02*
X129540000Y-109220000D01*
D20*
G36*
X131420000Y-73263118D02*
G01*
X131305884Y-73149002D01*
X131282082Y-73119999D01*
X131166357Y-73025026D01*
X131034328Y-72954454D01*
X130891067Y-72910997D01*
X130820909Y-72904087D01*
X130693475Y-72713368D01*
X130486632Y-72506525D01*
X130304466Y-72384805D01*
X130421355Y-72315178D01*
X130637588Y-72120269D01*
X130811641Y-71886920D01*
X130936825Y-71624099D01*
X130981476Y-71476890D01*
X130860155Y-71247000D01*
X129667000Y-71247000D01*
X129667000Y-71267000D01*
X129413000Y-71267000D01*
X129413000Y-71247000D01*
X128219845Y-71247000D01*
X128098524Y-71476890D01*
X128143175Y-71624099D01*
X128268359Y-71886920D01*
X128442412Y-72120269D01*
X128658645Y-72315178D01*
X128775534Y-72384805D01*
X128593368Y-72506525D01*
X128386525Y-72713368D01*
X128224010Y-72956589D01*
X128112068Y-73226842D01*
X128055000Y-73513740D01*
X128055000Y-73806260D01*
X128112068Y-74093158D01*
X128224010Y-74363411D01*
X128386525Y-74606632D01*
X128593368Y-74813475D01*
X128836589Y-74975990D01*
X129106842Y-75087932D01*
X129393740Y-75145000D01*
X129686260Y-75145000D01*
X129973158Y-75087932D01*
X130243411Y-74975990D01*
X130486632Y-74813475D01*
X130558000Y-74742107D01*
X130558000Y-77277389D01*
X130514482Y-77264188D01*
X130390000Y-77251928D01*
X128690000Y-77251928D01*
X128565518Y-77264188D01*
X128445820Y-77300498D01*
X128335506Y-77359463D01*
X128238815Y-77438815D01*
X128159463Y-77535506D01*
X128100498Y-77645820D01*
X128064188Y-77765518D01*
X128051928Y-77890000D01*
X128051928Y-79590000D01*
X128064188Y-79714482D01*
X128100498Y-79834180D01*
X128159463Y-79944494D01*
X128238815Y-80041185D01*
X128335506Y-80120537D01*
X128445820Y-80179502D01*
X128518380Y-80201513D01*
X128386525Y-80333368D01*
X128224010Y-80576589D01*
X128112068Y-80846842D01*
X128055000Y-81133740D01*
X128055000Y-81426260D01*
X128112068Y-81713158D01*
X128224010Y-81983411D01*
X128386525Y-82226632D01*
X128593368Y-82433475D01*
X128767760Y-82550000D01*
X128593368Y-82666525D01*
X128386525Y-82873368D01*
X128224010Y-83116589D01*
X128112068Y-83386842D01*
X128055000Y-83673740D01*
X128055000Y-83966260D01*
X128112068Y-84253158D01*
X128224010Y-84523411D01*
X128386525Y-84766632D01*
X128593368Y-84973475D01*
X128775534Y-85095195D01*
X128658645Y-85164822D01*
X128442412Y-85359731D01*
X128268359Y-85593080D01*
X128143175Y-85855901D01*
X128098524Y-86003110D01*
X128219845Y-86233000D01*
X129413000Y-86233000D01*
X129413000Y-86213000D01*
X129667000Y-86213000D01*
X129667000Y-86233000D01*
X129687000Y-86233000D01*
X129687000Y-86487000D01*
X129667000Y-86487000D01*
X129667000Y-87680814D01*
X129896891Y-87801481D01*
X130171252Y-87704157D01*
X130421355Y-87555178D01*
X130558000Y-87432008D01*
X130558000Y-89977389D01*
X130514482Y-89964188D01*
X130390000Y-89951928D01*
X128690000Y-89951928D01*
X128565518Y-89964188D01*
X128445820Y-90000498D01*
X128335506Y-90059463D01*
X128238815Y-90138815D01*
X128159463Y-90235506D01*
X128100498Y-90345820D01*
X128064188Y-90465518D01*
X128051928Y-90590000D01*
X128051928Y-92290000D01*
X128064188Y-92414482D01*
X128100498Y-92534180D01*
X128159463Y-92644494D01*
X128238815Y-92741185D01*
X128335506Y-92820537D01*
X128445820Y-92879502D01*
X128526466Y-92903966D01*
X128442412Y-92979731D01*
X128268359Y-93213080D01*
X128143175Y-93475901D01*
X128098524Y-93623110D01*
X128219845Y-93853000D01*
X129413000Y-93853000D01*
X129413000Y-93833000D01*
X129667000Y-93833000D01*
X129667000Y-93853000D01*
X129687000Y-93853000D01*
X129687000Y-94107000D01*
X129667000Y-94107000D01*
X129667000Y-95300814D01*
X129896891Y-95421481D01*
X130171252Y-95324157D01*
X130421355Y-95175178D01*
X130558000Y-95052008D01*
X130558001Y-97597389D01*
X130514482Y-97584188D01*
X130390000Y-97571928D01*
X128690000Y-97571928D01*
X128565518Y-97584188D01*
X128445820Y-97620498D01*
X128335506Y-97679463D01*
X128238815Y-97758815D01*
X128159463Y-97855506D01*
X128100498Y-97965820D01*
X128064188Y-98085518D01*
X128051928Y-98210000D01*
X128051928Y-99910000D01*
X128064188Y-100034482D01*
X128100498Y-100154180D01*
X128159463Y-100264494D01*
X128238815Y-100361185D01*
X128335506Y-100440537D01*
X128445820Y-100499502D01*
X128526466Y-100523966D01*
X128442412Y-100599731D01*
X128268359Y-100833080D01*
X128143175Y-101095901D01*
X128098524Y-101243110D01*
X128219845Y-101473000D01*
X129413000Y-101473000D01*
X129413000Y-101453000D01*
X129667000Y-101453000D01*
X129667000Y-101473000D01*
X129687000Y-101473000D01*
X129687000Y-101727000D01*
X129667000Y-101727000D01*
X129667000Y-102920814D01*
X129896891Y-103041481D01*
X130171252Y-102944157D01*
X130421355Y-102795178D01*
X130558001Y-102672008D01*
X130558001Y-105217389D01*
X130514482Y-105204188D01*
X130390000Y-105191928D01*
X130300000Y-105191928D01*
X130300000Y-104685322D01*
X130303676Y-104647999D01*
X130300000Y-104610676D01*
X130300000Y-104610667D01*
X130289003Y-104499014D01*
X130245546Y-104355753D01*
X130174974Y-104223724D01*
X130080001Y-104107999D01*
X130051003Y-104084202D01*
X129595803Y-103629002D01*
X129572001Y-103599999D01*
X129456276Y-103505026D01*
X129324247Y-103434454D01*
X129180986Y-103390997D01*
X129069333Y-103380000D01*
X129069322Y-103380000D01*
X129032000Y-103376324D01*
X128994678Y-103380000D01*
X121675259Y-103380000D01*
X121702497Y-103352762D01*
X121850785Y-103130833D01*
X121952928Y-102884239D01*
X122005000Y-102622456D01*
X122005000Y-102355544D01*
X121952928Y-102093761D01*
X121896234Y-101956890D01*
X128098524Y-101956890D01*
X128143175Y-102104099D01*
X128268359Y-102366920D01*
X128442412Y-102600269D01*
X128658645Y-102795178D01*
X128908748Y-102944157D01*
X129183109Y-103041481D01*
X129413000Y-102920814D01*
X129413000Y-101727000D01*
X128219845Y-101727000D01*
X128098524Y-101956890D01*
X121896234Y-101956890D01*
X121850785Y-101847167D01*
X121702497Y-101625238D01*
X121513762Y-101436503D01*
X121291833Y-101288215D01*
X121045239Y-101186072D01*
X120783456Y-101134000D01*
X120516544Y-101134000D01*
X120254761Y-101186072D01*
X120008167Y-101288215D01*
X119786238Y-101436503D01*
X119597503Y-101625238D01*
X119449215Y-101847167D01*
X119380000Y-102014266D01*
X119310785Y-101847167D01*
X119162497Y-101625238D01*
X118973762Y-101436503D01*
X118751833Y-101288215D01*
X118505239Y-101186072D01*
X118243456Y-101134000D01*
X117976544Y-101134000D01*
X117714761Y-101186072D01*
X117468167Y-101288215D01*
X117246238Y-101436503D01*
X117057503Y-101625238D01*
X116909215Y-101847167D01*
X116840000Y-102014266D01*
X116770785Y-101847167D01*
X116622497Y-101625238D01*
X116433762Y-101436503D01*
X116211833Y-101288215D01*
X115965239Y-101186072D01*
X115703456Y-101134000D01*
X115436544Y-101134000D01*
X115174761Y-101186072D01*
X114928167Y-101288215D01*
X114706238Y-101436503D01*
X114517503Y-101625238D01*
X114369215Y-101847167D01*
X114267072Y-102093761D01*
X114215000Y-102355544D01*
X114215000Y-102622456D01*
X114267072Y-102884239D01*
X114369215Y-103130833D01*
X114517503Y-103352762D01*
X114544741Y-103380000D01*
X110177711Y-103380000D01*
X110133774Y-103336063D01*
X109964256Y-103222795D01*
X109775898Y-103144774D01*
X109575939Y-103105000D01*
X109372061Y-103105000D01*
X109172102Y-103144774D01*
X108983744Y-103222795D01*
X108964000Y-103235987D01*
X108964000Y-101033711D01*
X109007937Y-100989774D01*
X109121205Y-100820256D01*
X109199226Y-100631898D01*
X109239000Y-100431939D01*
X109239000Y-100228061D01*
X109199226Y-100028102D01*
X109121205Y-99839744D01*
X109007937Y-99670226D01*
X108863774Y-99526063D01*
X108694256Y-99412795D01*
X108505898Y-99334774D01*
X108305939Y-99295000D01*
X108102061Y-99295000D01*
X107902102Y-99334774D01*
X107713744Y-99412795D01*
X107544226Y-99526063D01*
X107400063Y-99670226D01*
X107286795Y-99839744D01*
X107208774Y-100028102D01*
X107169000Y-100228061D01*
X107169000Y-100431939D01*
X107208774Y-100631898D01*
X107286795Y-100820256D01*
X107400063Y-100989774D01*
X107444001Y-101033712D01*
X107444000Y-109436678D01*
X107440324Y-109474000D01*
X107444000Y-109511322D01*
X107444000Y-109511332D01*
X107454997Y-109622985D01*
X107486344Y-109726324D01*
X107498454Y-109766246D01*
X107569026Y-109898276D01*
X107591944Y-109926201D01*
X107663999Y-110014001D01*
X107693002Y-110037804D01*
X108656200Y-111001002D01*
X108679999Y-111030001D01*
X108708997Y-111053799D01*
X108795723Y-111124974D01*
X108927753Y-111195546D01*
X109071014Y-111239003D01*
X109182667Y-111250000D01*
X109182677Y-111250000D01*
X109220000Y-111253676D01*
X109257322Y-111250000D01*
X116271199Y-111250000D01*
X121160001Y-116138803D01*
X121160000Y-123816821D01*
X120973368Y-123941525D01*
X120841513Y-124073380D01*
X120819502Y-124000820D01*
X120760537Y-123890506D01*
X120681185Y-123793815D01*
X120584494Y-123714463D01*
X120474180Y-123655498D01*
X120354482Y-123619188D01*
X120230000Y-123606928D01*
X118530000Y-123606928D01*
X118405518Y-123619188D01*
X118285820Y-123655498D01*
X118175506Y-123714463D01*
X118078815Y-123793815D01*
X117999463Y-123890506D01*
X117940498Y-124000820D01*
X117904188Y-124120518D01*
X117891928Y-124245000D01*
X117891928Y-124748811D01*
X106932000Y-113788884D01*
X106932000Y-113606711D01*
X106975937Y-113562774D01*
X107089205Y-113393256D01*
X107167226Y-113204898D01*
X107207000Y-113004939D01*
X107207000Y-112801061D01*
X107167226Y-112601102D01*
X107089205Y-112412744D01*
X106975937Y-112243226D01*
X106831774Y-112099063D01*
X106662256Y-111985795D01*
X106473898Y-111907774D01*
X106273939Y-111868000D01*
X106070061Y-111868000D01*
X105870102Y-111907774D01*
X105681744Y-111985795D01*
X105654780Y-112003812D01*
X105683000Y-111861939D01*
X105683000Y-111658061D01*
X105643226Y-111458102D01*
X105565205Y-111269744D01*
X105451937Y-111100226D01*
X105307774Y-110956063D01*
X105138256Y-110842795D01*
X104949898Y-110764774D01*
X104749939Y-110725000D01*
X104546061Y-110725000D01*
X104346102Y-110764774D01*
X104157744Y-110842795D01*
X103988226Y-110956063D01*
X103944289Y-111000000D01*
X103796322Y-111000000D01*
X103775302Y-110997930D01*
X103673937Y-110846226D01*
X103529774Y-110702063D01*
X103360256Y-110588795D01*
X103171898Y-110510774D01*
X102971939Y-110471000D01*
X102909803Y-110471000D01*
X99877804Y-107439003D01*
X99854001Y-107409999D01*
X99738276Y-107315026D01*
X99606247Y-107244454D01*
X99462986Y-107200997D01*
X99351333Y-107190000D01*
X99351322Y-107190000D01*
X99314000Y-107186324D01*
X99276678Y-107190000D01*
X96969711Y-107190000D01*
X96925774Y-107146063D01*
X96756256Y-107032795D01*
X96567898Y-106954774D01*
X96367939Y-106915000D01*
X96164061Y-106915000D01*
X95964102Y-106954774D01*
X95775744Y-107032795D01*
X95606226Y-107146063D01*
X95462063Y-107290226D01*
X95348795Y-107459744D01*
X95270774Y-107648102D01*
X95231000Y-107848061D01*
X95231000Y-108051939D01*
X95270774Y-108251898D01*
X95348795Y-108440256D01*
X95462063Y-108609774D01*
X95606226Y-108753937D01*
X95775744Y-108867205D01*
X95964102Y-108945226D01*
X96164061Y-108985000D01*
X96367939Y-108985000D01*
X96567898Y-108945226D01*
X96756256Y-108867205D01*
X96925774Y-108753937D01*
X96969711Y-108710000D01*
X98999199Y-108710000D01*
X101797197Y-111508000D01*
X94017316Y-111508000D01*
X93979993Y-111504324D01*
X93942671Y-111508000D01*
X93942661Y-111508000D01*
X93831008Y-111518997D01*
X93687747Y-111562454D01*
X93555718Y-111633026D01*
X93470000Y-111703373D01*
X93470000Y-101033711D01*
X93513937Y-100989774D01*
X93627205Y-100820256D01*
X93705226Y-100631898D01*
X93745000Y-100431939D01*
X93745000Y-100228061D01*
X93705226Y-100028102D01*
X93627205Y-99839744D01*
X93513937Y-99670226D01*
X93369774Y-99526063D01*
X93200256Y-99412795D01*
X93011898Y-99334774D01*
X92811939Y-99295000D01*
X92608061Y-99295000D01*
X92408102Y-99334774D01*
X92219744Y-99412795D01*
X92050226Y-99526063D01*
X91946000Y-99630289D01*
X91946000Y-94994000D01*
X105626678Y-94994000D01*
X105664000Y-94997676D01*
X105701322Y-94994000D01*
X105701333Y-94994000D01*
X105812986Y-94983003D01*
X105956247Y-94939546D01*
X106088276Y-94868974D01*
X106204001Y-94774001D01*
X106227803Y-94744998D01*
X106635911Y-94336890D01*
X128098524Y-94336890D01*
X128143175Y-94484099D01*
X128268359Y-94746920D01*
X128442412Y-94980269D01*
X128658645Y-95175178D01*
X128908748Y-95324157D01*
X129183109Y-95421481D01*
X129413000Y-95300814D01*
X129413000Y-94107000D01*
X128219845Y-94107000D01*
X128098524Y-94336890D01*
X106635911Y-94336890D01*
X107227802Y-93745000D01*
X107289939Y-93745000D01*
X107489898Y-93705226D01*
X107678256Y-93627205D01*
X107847774Y-93513937D01*
X107991937Y-93369774D01*
X108105205Y-93200256D01*
X108183226Y-93011898D01*
X108223000Y-92811939D01*
X108223000Y-92608061D01*
X108183226Y-92408102D01*
X108105205Y-92219744D01*
X107991937Y-92050226D01*
X107847774Y-91906063D01*
X107678256Y-91792795D01*
X107489898Y-91714774D01*
X107289939Y-91675000D01*
X107086061Y-91675000D01*
X106886102Y-91714774D01*
X106697744Y-91792795D01*
X106528226Y-91906063D01*
X106384063Y-92050226D01*
X106270795Y-92219744D01*
X106192774Y-92408102D01*
X106153000Y-92608061D01*
X106153000Y-92670198D01*
X105349199Y-93474000D01*
X94171711Y-93474000D01*
X94175711Y-93470000D01*
X95212678Y-93470000D01*
X95250000Y-93473676D01*
X95287322Y-93470000D01*
X95287333Y-93470000D01*
X95398986Y-93459003D01*
X95542247Y-93415546D01*
X95674276Y-93344974D01*
X95790001Y-93250001D01*
X95813804Y-93220997D01*
X102317911Y-86716890D01*
X128098524Y-86716890D01*
X128143175Y-86864099D01*
X128268359Y-87126920D01*
X128442412Y-87360269D01*
X128658645Y-87555178D01*
X128908748Y-87704157D01*
X129183109Y-87801481D01*
X129413000Y-87680814D01*
X129413000Y-86487000D01*
X128219845Y-86487000D01*
X128098524Y-86716890D01*
X102317911Y-86716890D01*
X103184802Y-85850000D01*
X103556957Y-85850000D01*
X103660363Y-86004759D01*
X103860241Y-86204637D01*
X104095273Y-86361680D01*
X104356426Y-86469853D01*
X104633665Y-86525000D01*
X104916335Y-86525000D01*
X105193574Y-86469853D01*
X105454727Y-86361680D01*
X105689759Y-86204637D01*
X105889637Y-86004759D01*
X106046680Y-85769727D01*
X106154853Y-85508574D01*
X106210000Y-85231335D01*
X106210000Y-84948665D01*
X106154853Y-84671426D01*
X106046680Y-84410273D01*
X105889637Y-84175241D01*
X105689759Y-83975363D01*
X105457241Y-83820000D01*
X105689759Y-83664637D01*
X105889637Y-83464759D01*
X106046680Y-83229727D01*
X106154853Y-82968574D01*
X106210000Y-82691335D01*
X106210000Y-82408665D01*
X106154853Y-82131426D01*
X106046680Y-81870273D01*
X105889637Y-81635241D01*
X105689759Y-81435363D01*
X105457241Y-81280000D01*
X105689759Y-81124637D01*
X105889637Y-80924759D01*
X106046680Y-80689727D01*
X106154853Y-80428574D01*
X106210000Y-80151335D01*
X106210000Y-79868665D01*
X110960000Y-79868665D01*
X110960000Y-80151335D01*
X111015147Y-80428574D01*
X111123320Y-80689727D01*
X111280363Y-80924759D01*
X111480241Y-81124637D01*
X111712759Y-81280000D01*
X111480241Y-81435363D01*
X111280363Y-81635241D01*
X111123320Y-81870273D01*
X111015147Y-82131426D01*
X110960000Y-82408665D01*
X110960000Y-82691335D01*
X111015147Y-82968574D01*
X111123320Y-83229727D01*
X111280363Y-83464759D01*
X111480241Y-83664637D01*
X111712759Y-83820000D01*
X111480241Y-83975363D01*
X111280363Y-84175241D01*
X111123320Y-84410273D01*
X111015147Y-84671426D01*
X110960000Y-84948665D01*
X110960000Y-85231335D01*
X111015147Y-85508574D01*
X111123320Y-85769727D01*
X111280363Y-86004759D01*
X111480241Y-86204637D01*
X111715273Y-86361680D01*
X111976426Y-86469853D01*
X112253665Y-86525000D01*
X112536335Y-86525000D01*
X112813574Y-86469853D01*
X113074727Y-86361680D01*
X113309759Y-86204637D01*
X113509637Y-86004759D01*
X113666680Y-85769727D01*
X113774853Y-85508574D01*
X113830000Y-85231335D01*
X113830000Y-84948665D01*
X113774853Y-84671426D01*
X113666680Y-84410273D01*
X113607394Y-84321544D01*
X115485000Y-84321544D01*
X115485000Y-84588456D01*
X115537072Y-84850239D01*
X115639215Y-85096833D01*
X115787503Y-85318762D01*
X115976238Y-85507497D01*
X116198167Y-85655785D01*
X116444761Y-85757928D01*
X116706544Y-85810000D01*
X116973456Y-85810000D01*
X117235239Y-85757928D01*
X117481833Y-85655785D01*
X117703762Y-85507497D01*
X117820699Y-85390560D01*
X118624045Y-85390560D01*
X118685932Y-85626368D01*
X118927790Y-85739266D01*
X119187027Y-85802811D01*
X119453680Y-85814561D01*
X119717501Y-85774063D01*
X119968353Y-85682875D01*
X120074068Y-85626368D01*
X120135955Y-85390560D01*
X121164045Y-85390560D01*
X121225932Y-85626368D01*
X121467790Y-85739266D01*
X121727027Y-85802811D01*
X121993680Y-85814561D01*
X122257501Y-85774063D01*
X122508353Y-85682875D01*
X122614068Y-85626368D01*
X122675955Y-85390560D01*
X121920000Y-84634605D01*
X121164045Y-85390560D01*
X120135955Y-85390560D01*
X119380000Y-84634605D01*
X118624045Y-85390560D01*
X117820699Y-85390560D01*
X117892497Y-85318762D01*
X118040785Y-85096833D01*
X118110438Y-84928676D01*
X118152125Y-85043353D01*
X118208632Y-85149068D01*
X118444440Y-85210955D01*
X119200395Y-84455000D01*
X119559605Y-84455000D01*
X120315560Y-85210955D01*
X120551368Y-85149068D01*
X120652105Y-84933262D01*
X120692125Y-85043353D01*
X120748632Y-85149068D01*
X120984440Y-85210955D01*
X121740395Y-84455000D01*
X122099605Y-84455000D01*
X122855560Y-85210955D01*
X123091368Y-85149068D01*
X123204266Y-84907210D01*
X123267811Y-84647973D01*
X123279561Y-84381320D01*
X123239063Y-84117499D01*
X123147875Y-83866647D01*
X123091368Y-83760932D01*
X122855560Y-83699045D01*
X122099605Y-84455000D01*
X121740395Y-84455000D01*
X120984440Y-83699045D01*
X120748632Y-83760932D01*
X120647895Y-83976738D01*
X120607875Y-83866647D01*
X120551368Y-83760932D01*
X120315560Y-83699045D01*
X119559605Y-84455000D01*
X119200395Y-84455000D01*
X118444440Y-83699045D01*
X118208632Y-83760932D01*
X118108236Y-83976007D01*
X118040785Y-83813167D01*
X117892497Y-83591238D01*
X117820699Y-83519440D01*
X118624045Y-83519440D01*
X119380000Y-84275395D01*
X120135955Y-83519440D01*
X121164045Y-83519440D01*
X121920000Y-84275395D01*
X122675955Y-83519440D01*
X122614068Y-83283632D01*
X122372210Y-83170734D01*
X122112973Y-83107189D01*
X121846320Y-83095439D01*
X121582499Y-83135937D01*
X121331647Y-83227125D01*
X121225932Y-83283632D01*
X121164045Y-83519440D01*
X120135955Y-83519440D01*
X120074068Y-83283632D01*
X119832210Y-83170734D01*
X119572973Y-83107189D01*
X119306320Y-83095439D01*
X119042499Y-83135937D01*
X118791647Y-83227125D01*
X118685932Y-83283632D01*
X118624045Y-83519440D01*
X117820699Y-83519440D01*
X117703762Y-83402503D01*
X117481833Y-83254215D01*
X117235239Y-83152072D01*
X116973456Y-83100000D01*
X116706544Y-83100000D01*
X116444761Y-83152072D01*
X116198167Y-83254215D01*
X115976238Y-83402503D01*
X115787503Y-83591238D01*
X115639215Y-83813167D01*
X115537072Y-84059761D01*
X115485000Y-84321544D01*
X113607394Y-84321544D01*
X113509637Y-84175241D01*
X113309759Y-83975363D01*
X113077241Y-83820000D01*
X113309759Y-83664637D01*
X113509637Y-83464759D01*
X113666680Y-83229727D01*
X113774853Y-82968574D01*
X113830000Y-82691335D01*
X113830000Y-82408665D01*
X113774853Y-82131426D01*
X113666680Y-81870273D01*
X113509637Y-81635241D01*
X113309759Y-81435363D01*
X113077241Y-81280000D01*
X113309759Y-81124637D01*
X113509637Y-80924759D01*
X113666680Y-80689727D01*
X113774853Y-80428574D01*
X113830000Y-80151335D01*
X113830000Y-79868665D01*
X113774853Y-79591426D01*
X113666680Y-79330273D01*
X113509637Y-79095241D01*
X113309759Y-78895363D01*
X113074727Y-78738320D01*
X113064135Y-78733933D01*
X113250131Y-78622385D01*
X113458519Y-78433414D01*
X113626037Y-78207420D01*
X113746246Y-77953087D01*
X113786904Y-77819039D01*
X113664915Y-77597000D01*
X112522000Y-77597000D01*
X112522000Y-77617000D01*
X112268000Y-77617000D01*
X112268000Y-77597000D01*
X111125085Y-77597000D01*
X111003096Y-77819039D01*
X111043754Y-77953087D01*
X111163963Y-78207420D01*
X111331481Y-78433414D01*
X111539869Y-78622385D01*
X111725865Y-78733933D01*
X111715273Y-78738320D01*
X111480241Y-78895363D01*
X111280363Y-79095241D01*
X111123320Y-79330273D01*
X111015147Y-79591426D01*
X110960000Y-79868665D01*
X106210000Y-79868665D01*
X106154853Y-79591426D01*
X106046680Y-79330273D01*
X105889637Y-79095241D01*
X105689759Y-78895363D01*
X105457241Y-78740000D01*
X105689759Y-78584637D01*
X105889637Y-78384759D01*
X106046680Y-78149727D01*
X106154853Y-77888574D01*
X106210000Y-77611335D01*
X106210000Y-77328665D01*
X106154853Y-77051426D01*
X106046680Y-76790273D01*
X105889637Y-76555241D01*
X105689759Y-76355363D01*
X105457241Y-76200000D01*
X105689759Y-76044637D01*
X105889637Y-75844759D01*
X106046680Y-75609727D01*
X106154853Y-75348574D01*
X106210000Y-75071335D01*
X106210000Y-74788665D01*
X106154853Y-74511426D01*
X106046680Y-74250273D01*
X105889637Y-74015241D01*
X105689759Y-73815363D01*
X105457241Y-73660000D01*
X105689759Y-73504637D01*
X105889637Y-73304759D01*
X106046680Y-73069727D01*
X106154853Y-72808574D01*
X106210000Y-72531335D01*
X106210000Y-72248665D01*
X106154853Y-71971426D01*
X106046680Y-71710273D01*
X105889637Y-71475241D01*
X105689759Y-71275363D01*
X105457241Y-71120000D01*
X105689759Y-70964637D01*
X105889637Y-70764759D01*
X106046680Y-70529727D01*
X106154853Y-70268574D01*
X106210000Y-69991335D01*
X106210000Y-69708665D01*
X106154853Y-69431426D01*
X106116983Y-69340000D01*
X111053017Y-69340000D01*
X111015147Y-69431426D01*
X110960000Y-69708665D01*
X110960000Y-69991335D01*
X111015147Y-70268574D01*
X111123320Y-70529727D01*
X111280363Y-70764759D01*
X111480241Y-70964637D01*
X111712759Y-71120000D01*
X111480241Y-71275363D01*
X111280363Y-71475241D01*
X111123320Y-71710273D01*
X111015147Y-71971426D01*
X110960000Y-72248665D01*
X110960000Y-72531335D01*
X111015147Y-72808574D01*
X111123320Y-73069727D01*
X111280363Y-73304759D01*
X111480241Y-73504637D01*
X111712759Y-73660000D01*
X111480241Y-73815363D01*
X111280363Y-74015241D01*
X111123320Y-74250273D01*
X111015147Y-74511426D01*
X110960000Y-74788665D01*
X110960000Y-75071335D01*
X111015147Y-75348574D01*
X111123320Y-75609727D01*
X111280363Y-75844759D01*
X111480241Y-76044637D01*
X111715273Y-76201680D01*
X111725865Y-76206067D01*
X111539869Y-76317615D01*
X111331481Y-76506586D01*
X111163963Y-76732580D01*
X111043754Y-76986913D01*
X111003096Y-77120961D01*
X111125085Y-77343000D01*
X112268000Y-77343000D01*
X112268000Y-77323000D01*
X112522000Y-77323000D01*
X112522000Y-77343000D01*
X113664915Y-77343000D01*
X113786904Y-77120961D01*
X113746246Y-76986913D01*
X113626037Y-76732580D01*
X113458519Y-76506586D01*
X113250131Y-76317615D01*
X113064135Y-76206067D01*
X113074727Y-76201680D01*
X113309759Y-76044637D01*
X113509637Y-75844759D01*
X113666680Y-75609727D01*
X113774853Y-75348574D01*
X113830000Y-75071335D01*
X113830000Y-74788665D01*
X113774853Y-74511426D01*
X113666680Y-74250273D01*
X113509637Y-74015241D01*
X113309759Y-73815363D01*
X113077241Y-73660000D01*
X113309759Y-73504637D01*
X113509637Y-73304759D01*
X113666680Y-73069727D01*
X113774853Y-72808574D01*
X113830000Y-72531335D01*
X113830000Y-72248665D01*
X113774853Y-71971426D01*
X113666680Y-71710273D01*
X113509637Y-71475241D01*
X113309759Y-71275363D01*
X113077241Y-71120000D01*
X113309759Y-70964637D01*
X113509637Y-70764759D01*
X113666680Y-70529727D01*
X113774853Y-70268574D01*
X113830000Y-69991335D01*
X113830000Y-69708665D01*
X113774853Y-69431426D01*
X113666680Y-69170273D01*
X113509637Y-68935241D01*
X113309759Y-68735363D01*
X113077241Y-68580000D01*
X113309759Y-68424637D01*
X113509637Y-68224759D01*
X113666680Y-67989727D01*
X113774853Y-67728574D01*
X113830000Y-67451335D01*
X113830000Y-67168665D01*
X113774853Y-66891426D01*
X113666680Y-66630273D01*
X113509637Y-66395241D01*
X113309759Y-66195363D01*
X113074727Y-66038320D01*
X112813574Y-65930147D01*
X112536335Y-65875000D01*
X112253665Y-65875000D01*
X111976426Y-65930147D01*
X111715273Y-66038320D01*
X111480241Y-66195363D01*
X111280363Y-66395241D01*
X111123320Y-66630273D01*
X111015147Y-66891426D01*
X110960000Y-67168665D01*
X110960000Y-67451335D01*
X110996312Y-67633886D01*
X110810199Y-67820000D01*
X106213072Y-67820000D01*
X106213072Y-66510000D01*
X106200812Y-66385518D01*
X106164502Y-66265820D01*
X106105537Y-66155506D01*
X106026185Y-66058815D01*
X105929494Y-65979463D01*
X105819180Y-65920498D01*
X105699482Y-65884188D01*
X105575000Y-65871928D01*
X103975000Y-65871928D01*
X103850518Y-65884188D01*
X103730820Y-65920498D01*
X103620506Y-65979463D01*
X103523815Y-66058815D01*
X103444463Y-66155506D01*
X103385498Y-66265820D01*
X103349188Y-66385518D01*
X103336928Y-66510000D01*
X103336928Y-67820000D01*
X89191322Y-67820000D01*
X89153999Y-67816324D01*
X89116676Y-67820000D01*
X89116667Y-67820000D01*
X89005014Y-67830997D01*
X88861753Y-67874454D01*
X88729724Y-67945026D01*
X88729722Y-67945027D01*
X88729723Y-67945027D01*
X88642996Y-68016201D01*
X88642992Y-68016205D01*
X88613999Y-68039999D01*
X88590205Y-68068992D01*
X87118998Y-69540201D01*
X87090000Y-69563999D01*
X87066202Y-69592997D01*
X87066201Y-69592998D01*
X86995026Y-69679724D01*
X86924454Y-69811754D01*
X86898902Y-69895990D01*
X86880998Y-69955014D01*
X86870165Y-70065000D01*
X86866324Y-70104000D01*
X86870001Y-70141332D01*
X86870000Y-106484289D01*
X86826063Y-106528226D01*
X86712795Y-106697744D01*
X86634774Y-106886102D01*
X86595000Y-107086061D01*
X86595000Y-107289939D01*
X86634774Y-107489898D01*
X86712795Y-107678256D01*
X86826063Y-107847774D01*
X86970226Y-107991937D01*
X87139744Y-108105205D01*
X87328102Y-108183226D01*
X87528061Y-108223000D01*
X87731939Y-108223000D01*
X87931898Y-108183226D01*
X88120256Y-108105205D01*
X88289774Y-107991937D01*
X88433937Y-107847774D01*
X88547205Y-107678256D01*
X88625226Y-107489898D01*
X88665000Y-107289939D01*
X88665000Y-107086061D01*
X88625226Y-106886102D01*
X88547205Y-106697744D01*
X88433937Y-106528226D01*
X88390000Y-106484289D01*
X88390000Y-93360013D01*
X88409744Y-93373205D01*
X88598102Y-93451226D01*
X88798061Y-93491000D01*
X89001939Y-93491000D01*
X89201898Y-93451226D01*
X89390256Y-93373205D01*
X89559774Y-93259937D01*
X89703937Y-93115774D01*
X89817205Y-92946256D01*
X89895226Y-92757898D01*
X89935000Y-92557939D01*
X89935000Y-92354061D01*
X89895226Y-92154102D01*
X89817205Y-91965744D01*
X89703937Y-91796226D01*
X89660000Y-91752289D01*
X89660000Y-74482801D01*
X90992802Y-73150000D01*
X103556957Y-73150000D01*
X103660363Y-73304759D01*
X103860241Y-73504637D01*
X104092759Y-73660000D01*
X103860241Y-73815363D01*
X103660363Y-74015241D01*
X103503320Y-74250273D01*
X103395147Y-74511426D01*
X103340000Y-74788665D01*
X103340000Y-75071335D01*
X103395147Y-75348574D01*
X103503320Y-75609727D01*
X103660363Y-75844759D01*
X103860241Y-76044637D01*
X104092759Y-76200000D01*
X103860241Y-76355363D01*
X103660363Y-76555241D01*
X103503320Y-76790273D01*
X103395147Y-77051426D01*
X103340000Y-77328665D01*
X103340000Y-77611335D01*
X103395147Y-77888574D01*
X103503320Y-78149727D01*
X103660363Y-78384759D01*
X103860241Y-78584637D01*
X104092759Y-78740000D01*
X103860241Y-78895363D01*
X103660363Y-79095241D01*
X103503320Y-79330273D01*
X103395147Y-79591426D01*
X103340000Y-79868665D01*
X103340000Y-80151335D01*
X103395147Y-80428574D01*
X103503320Y-80689727D01*
X103660363Y-80924759D01*
X103860241Y-81124637D01*
X104092759Y-81280000D01*
X103860241Y-81435363D01*
X103660363Y-81635241D01*
X103503320Y-81870273D01*
X103395147Y-82131426D01*
X103340000Y-82408665D01*
X103340000Y-82691335D01*
X103395147Y-82968574D01*
X103503320Y-83229727D01*
X103660363Y-83464759D01*
X103860241Y-83664637D01*
X104092759Y-83820000D01*
X103860241Y-83975363D01*
X103660363Y-84175241D01*
X103556957Y-84330000D01*
X102907322Y-84330000D01*
X102869999Y-84326324D01*
X102832676Y-84330000D01*
X102832667Y-84330000D01*
X102721014Y-84340997D01*
X102577753Y-84384454D01*
X102445724Y-84455026D01*
X102329999Y-84549999D01*
X102320000Y-84562183D01*
X102320000Y-84321544D01*
X102267928Y-84059761D01*
X102165785Y-83813167D01*
X102017497Y-83591238D01*
X101828762Y-83402503D01*
X101606833Y-83254215D01*
X101360239Y-83152072D01*
X101098456Y-83100000D01*
X100831544Y-83100000D01*
X100569761Y-83152072D01*
X100323167Y-83254215D01*
X100101238Y-83402503D01*
X99912503Y-83591238D01*
X99764215Y-83813167D01*
X99695000Y-83980266D01*
X99625785Y-83813167D01*
X99477497Y-83591238D01*
X99288762Y-83402503D01*
X99066833Y-83254215D01*
X98820239Y-83152072D01*
X98558456Y-83100000D01*
X98291544Y-83100000D01*
X98029761Y-83152072D01*
X97783167Y-83254215D01*
X97561238Y-83402503D01*
X97372503Y-83591238D01*
X97224215Y-83813167D01*
X97154562Y-83981324D01*
X97112875Y-83866647D01*
X97056368Y-83760932D01*
X96820560Y-83699045D01*
X96064605Y-84455000D01*
X96820560Y-85210955D01*
X97056368Y-85149068D01*
X97156764Y-84933993D01*
X97224215Y-85096833D01*
X97372503Y-85318762D01*
X97561238Y-85507497D01*
X97783167Y-85655785D01*
X98029761Y-85757928D01*
X98291544Y-85810000D01*
X98558456Y-85810000D01*
X98820239Y-85757928D01*
X99066833Y-85655785D01*
X99288762Y-85507497D01*
X99477497Y-85318762D01*
X99625785Y-85096833D01*
X99695000Y-84929734D01*
X99764215Y-85096833D01*
X99912503Y-85318762D01*
X100101238Y-85507497D01*
X100323167Y-85655785D01*
X100569761Y-85757928D01*
X100831544Y-85810000D01*
X101075198Y-85810000D01*
X94935199Y-91950000D01*
X94175711Y-91950000D01*
X94131774Y-91906063D01*
X93962256Y-91792795D01*
X93773898Y-91714774D01*
X93573939Y-91675000D01*
X93370061Y-91675000D01*
X93170102Y-91714774D01*
X92981744Y-91792795D01*
X92812226Y-91906063D01*
X92668063Y-92050226D01*
X92554795Y-92219744D01*
X92476774Y-92408102D01*
X92437000Y-92608061D01*
X92437000Y-92811939D01*
X92476774Y-93011898D01*
X92554795Y-93200256D01*
X92668063Y-93369774D01*
X92772289Y-93474000D01*
X91946000Y-93474000D01*
X91946000Y-92143711D01*
X91989937Y-92099774D01*
X92103205Y-91930256D01*
X92181226Y-91741898D01*
X92221000Y-91541939D01*
X92221000Y-91338061D01*
X92181226Y-91138102D01*
X92103205Y-90949744D01*
X91989937Y-90780226D01*
X91946000Y-90736289D01*
X91946000Y-85390560D01*
X95129045Y-85390560D01*
X95190932Y-85626368D01*
X95432790Y-85739266D01*
X95692027Y-85802811D01*
X95958680Y-85814561D01*
X96222501Y-85774063D01*
X96473353Y-85682875D01*
X96579068Y-85626368D01*
X96640955Y-85390560D01*
X95885000Y-84634605D01*
X95129045Y-85390560D01*
X91946000Y-85390560D01*
X91946000Y-84528680D01*
X94525439Y-84528680D01*
X94565937Y-84792501D01*
X94657125Y-85043353D01*
X94713632Y-85149068D01*
X94949440Y-85210955D01*
X95705395Y-84455000D01*
X94949440Y-83699045D01*
X94713632Y-83760932D01*
X94600734Y-84002790D01*
X94537189Y-84262027D01*
X94525439Y-84528680D01*
X91946000Y-84528680D01*
X91946000Y-83519440D01*
X95129045Y-83519440D01*
X95885000Y-84275395D01*
X96640955Y-83519440D01*
X96579068Y-83283632D01*
X96337210Y-83170734D01*
X96077973Y-83107189D01*
X95811320Y-83095439D01*
X95547499Y-83135937D01*
X95296647Y-83227125D01*
X95190932Y-83283632D01*
X95129045Y-83519440D01*
X91946000Y-83519440D01*
X91946000Y-78173711D01*
X91989937Y-78129774D01*
X92103205Y-77960256D01*
X92181226Y-77771898D01*
X92221000Y-77571939D01*
X92221000Y-77368061D01*
X92181226Y-77168102D01*
X92103205Y-76979744D01*
X91989937Y-76810226D01*
X91845774Y-76666063D01*
X91676256Y-76552795D01*
X91487898Y-76474774D01*
X91287939Y-76435000D01*
X91084061Y-76435000D01*
X90884102Y-76474774D01*
X90695744Y-76552795D01*
X90526226Y-76666063D01*
X90382063Y-76810226D01*
X90268795Y-76979744D01*
X90190774Y-77168102D01*
X90151000Y-77368061D01*
X90151000Y-77571939D01*
X90190774Y-77771898D01*
X90268795Y-77960256D01*
X90382063Y-78129774D01*
X90426001Y-78173712D01*
X90426000Y-90736289D01*
X90382063Y-90780226D01*
X90268795Y-90949744D01*
X90190774Y-91138102D01*
X90151000Y-91338061D01*
X90151000Y-91541939D01*
X90190774Y-91741898D01*
X90268795Y-91930256D01*
X90382063Y-92099774D01*
X90426001Y-92143712D01*
X90426000Y-93942667D01*
X90426000Y-94196667D01*
X90422323Y-94234000D01*
X90426001Y-94271343D01*
X90426000Y-117914289D01*
X90382063Y-117958226D01*
X90268795Y-118127744D01*
X90190774Y-118316102D01*
X90151000Y-118516061D01*
X90151000Y-118719939D01*
X90190774Y-118919898D01*
X90268795Y-119108256D01*
X90382063Y-119277774D01*
X90526226Y-119421937D01*
X90695744Y-119535205D01*
X90884102Y-119613226D01*
X91084061Y-119653000D01*
X91287939Y-119653000D01*
X91487898Y-119613226D01*
X91676256Y-119535205D01*
X91845774Y-119421937D01*
X91989937Y-119277774D01*
X92052501Y-119184140D01*
X92075026Y-119226280D01*
X92117287Y-119277774D01*
X92170000Y-119342005D01*
X92198998Y-119365803D01*
X97640203Y-124807010D01*
X97663997Y-124836003D01*
X97692990Y-124859797D01*
X97692994Y-124859801D01*
X97763683Y-124917813D01*
X97779722Y-124930976D01*
X97911751Y-125001548D01*
X98055012Y-125045005D01*
X98166665Y-125056002D01*
X98166674Y-125056002D01*
X98203997Y-125059678D01*
X98241320Y-125056002D01*
X98524199Y-125056002D01*
X102348196Y-128880000D01*
X76860000Y-128880000D01*
X76860000Y-124239872D01*
X79045000Y-124239872D01*
X79045000Y-124680128D01*
X79130890Y-125111925D01*
X79299369Y-125518669D01*
X79543962Y-125884729D01*
X79855271Y-126196038D01*
X80221331Y-126440631D01*
X80628075Y-126609110D01*
X81059872Y-126695000D01*
X81500128Y-126695000D01*
X81931925Y-126609110D01*
X82338669Y-126440631D01*
X82704729Y-126196038D01*
X83016038Y-125884729D01*
X83260631Y-125518669D01*
X83429110Y-125111925D01*
X83515000Y-124680128D01*
X83515000Y-124239872D01*
X83429110Y-123808075D01*
X83260631Y-123401331D01*
X83016038Y-123035271D01*
X82704729Y-122723962D01*
X82338669Y-122479369D01*
X81931925Y-122310890D01*
X81500128Y-122225000D01*
X81059872Y-122225000D01*
X80628075Y-122310890D01*
X80221331Y-122479369D01*
X79855271Y-122723962D01*
X79543962Y-123035271D01*
X79299369Y-123401331D01*
X79130890Y-123808075D01*
X79045000Y-124239872D01*
X76860000Y-124239872D01*
X76860000Y-73513740D01*
X79795000Y-73513740D01*
X79795000Y-73806260D01*
X79852068Y-74093158D01*
X79964010Y-74363411D01*
X80126525Y-74606632D01*
X80333368Y-74813475D01*
X80576589Y-74975990D01*
X80846842Y-75087932D01*
X81133740Y-75145000D01*
X81426260Y-75145000D01*
X81713158Y-75087932D01*
X81983411Y-74975990D01*
X82226632Y-74813475D01*
X82358487Y-74681620D01*
X82380498Y-74754180D01*
X82439463Y-74864494D01*
X82518815Y-74961185D01*
X82615506Y-75040537D01*
X82725820Y-75099502D01*
X82845518Y-75135812D01*
X82970000Y-75148072D01*
X84670000Y-75148072D01*
X84794482Y-75135812D01*
X84914180Y-75099502D01*
X85024494Y-75040537D01*
X85121185Y-74961185D01*
X85200537Y-74864494D01*
X85259502Y-74754180D01*
X85295812Y-74634482D01*
X85308072Y-74510000D01*
X85308072Y-72810000D01*
X85295812Y-72685518D01*
X85259502Y-72565820D01*
X85200537Y-72455506D01*
X85121185Y-72358815D01*
X85024494Y-72279463D01*
X84914180Y-72220498D01*
X84833534Y-72196034D01*
X84917588Y-72120269D01*
X85091641Y-71886920D01*
X85216825Y-71624099D01*
X85261476Y-71476890D01*
X85140155Y-71247000D01*
X83947000Y-71247000D01*
X83947000Y-71267000D01*
X83693000Y-71267000D01*
X83693000Y-71247000D01*
X81407000Y-71247000D01*
X81407000Y-71267000D01*
X81153000Y-71267000D01*
X81153000Y-71247000D01*
X79959845Y-71247000D01*
X79838524Y-71476890D01*
X79883175Y-71624099D01*
X80008359Y-71886920D01*
X80182412Y-72120269D01*
X80398645Y-72315178D01*
X80515534Y-72384805D01*
X80333368Y-72506525D01*
X80126525Y-72713368D01*
X79964010Y-72956589D01*
X79852068Y-73226842D01*
X79795000Y-73513740D01*
X76860000Y-73513740D01*
X76860000Y-68936890D01*
X79838524Y-68936890D01*
X79883175Y-69084099D01*
X80008359Y-69346920D01*
X80182412Y-69580269D01*
X80398645Y-69775178D01*
X80524255Y-69850000D01*
X80398645Y-69924822D01*
X80182412Y-70119731D01*
X80008359Y-70353080D01*
X79883175Y-70615901D01*
X79838524Y-70763110D01*
X79959845Y-70993000D01*
X81153000Y-70993000D01*
X81153000Y-68707000D01*
X81407000Y-68707000D01*
X81407000Y-70993000D01*
X83693000Y-70993000D01*
X83693000Y-68707000D01*
X83947000Y-68707000D01*
X83947000Y-70993000D01*
X85140155Y-70993000D01*
X85261476Y-70763110D01*
X85216825Y-70615901D01*
X85091641Y-70353080D01*
X84917588Y-70119731D01*
X84701355Y-69924822D01*
X84575745Y-69850000D01*
X84701355Y-69775178D01*
X84917588Y-69580269D01*
X85091641Y-69346920D01*
X85216825Y-69084099D01*
X85261476Y-68936890D01*
X85140155Y-68707000D01*
X83947000Y-68707000D01*
X83693000Y-68707000D01*
X81407000Y-68707000D01*
X81153000Y-68707000D01*
X79959845Y-68707000D01*
X79838524Y-68936890D01*
X76860000Y-68936890D01*
X76860000Y-66396890D01*
X79838524Y-66396890D01*
X79883175Y-66544099D01*
X80008359Y-66806920D01*
X80182412Y-67040269D01*
X80398645Y-67235178D01*
X80524255Y-67310000D01*
X80398645Y-67384822D01*
X80182412Y-67579731D01*
X80008359Y-67813080D01*
X79883175Y-68075901D01*
X79838524Y-68223110D01*
X79959845Y-68453000D01*
X81153000Y-68453000D01*
X81153000Y-66167000D01*
X81407000Y-66167000D01*
X81407000Y-68453000D01*
X83693000Y-68453000D01*
X83693000Y-66167000D01*
X83947000Y-66167000D01*
X83947000Y-68453000D01*
X85140155Y-68453000D01*
X85261476Y-68223110D01*
X85216825Y-68075901D01*
X85091641Y-67813080D01*
X84917588Y-67579731D01*
X84701355Y-67384822D01*
X84575745Y-67310000D01*
X84701355Y-67235178D01*
X84917588Y-67040269D01*
X85091641Y-66806920D01*
X85216825Y-66544099D01*
X85261476Y-66396890D01*
X85140155Y-66167000D01*
X83947000Y-66167000D01*
X83693000Y-66167000D01*
X81407000Y-66167000D01*
X81153000Y-66167000D01*
X79959845Y-66167000D01*
X79838524Y-66396890D01*
X76860000Y-66396890D01*
X76860000Y-63353740D01*
X79795000Y-63353740D01*
X79795000Y-63646260D01*
X79852068Y-63933158D01*
X79964010Y-64203411D01*
X80126525Y-64446632D01*
X80333368Y-64653475D01*
X80515534Y-64775195D01*
X80398645Y-64844822D01*
X80182412Y-65039731D01*
X80008359Y-65273080D01*
X79883175Y-65535901D01*
X79838524Y-65683110D01*
X79959845Y-65913000D01*
X81153000Y-65913000D01*
X81153000Y-65893000D01*
X81407000Y-65893000D01*
X81407000Y-65913000D01*
X83693000Y-65913000D01*
X83693000Y-65893000D01*
X83947000Y-65893000D01*
X83947000Y-65913000D01*
X85140155Y-65913000D01*
X85261476Y-65683110D01*
X85216825Y-65535901D01*
X85091641Y-65273080D01*
X85090496Y-65271544D01*
X93895000Y-65271544D01*
X93895000Y-65538456D01*
X93947072Y-65800239D01*
X94049215Y-66046833D01*
X94197503Y-66268762D01*
X94386238Y-66457497D01*
X94608167Y-66605785D01*
X94854761Y-66707928D01*
X95116544Y-66760000D01*
X95383456Y-66760000D01*
X95645239Y-66707928D01*
X95891833Y-66605785D01*
X96113762Y-66457497D01*
X96302497Y-66268762D01*
X96450785Y-66046833D01*
X96520000Y-65879734D01*
X96589215Y-66046833D01*
X96737503Y-66268762D01*
X96926238Y-66457497D01*
X97148167Y-66605785D01*
X97394761Y-66707928D01*
X97656544Y-66760000D01*
X97923456Y-66760000D01*
X98185239Y-66707928D01*
X98431833Y-66605785D01*
X98653762Y-66457497D01*
X98842497Y-66268762D01*
X98990785Y-66046833D01*
X99060000Y-65879734D01*
X99129215Y-66046833D01*
X99277503Y-66268762D01*
X99466238Y-66457497D01*
X99688167Y-66605785D01*
X99934761Y-66707928D01*
X100196544Y-66760000D01*
X100463456Y-66760000D01*
X100725239Y-66707928D01*
X100971833Y-66605785D01*
X101193762Y-66457497D01*
X101382497Y-66268762D01*
X101530785Y-66046833D01*
X101632928Y-65800239D01*
X101685000Y-65538456D01*
X101685000Y-65271544D01*
X115485000Y-65271544D01*
X115485000Y-65538456D01*
X115537072Y-65800239D01*
X115639215Y-66046833D01*
X115787503Y-66268762D01*
X115976238Y-66457497D01*
X116198167Y-66605785D01*
X116444761Y-66707928D01*
X116706544Y-66760000D01*
X116973456Y-66760000D01*
X117235239Y-66707928D01*
X117481833Y-66605785D01*
X117703762Y-66457497D01*
X117892497Y-66268762D01*
X118040785Y-66046833D01*
X118110000Y-65879734D01*
X118179215Y-66046833D01*
X118327503Y-66268762D01*
X118516238Y-66457497D01*
X118738167Y-66605785D01*
X118984761Y-66707928D01*
X119246544Y-66760000D01*
X119513456Y-66760000D01*
X119775239Y-66707928D01*
X120021833Y-66605785D01*
X120243762Y-66457497D01*
X120432497Y-66268762D01*
X120580785Y-66046833D01*
X120650000Y-65879734D01*
X120719215Y-66046833D01*
X120867503Y-66268762D01*
X121056238Y-66457497D01*
X121160001Y-66526829D01*
X121160000Y-69789198D01*
X117598998Y-73350201D01*
X117570000Y-73373999D01*
X117546202Y-73402997D01*
X117546201Y-73402998D01*
X117475026Y-73489724D01*
X117404454Y-73621754D01*
X117392853Y-73660000D01*
X117360998Y-73765014D01*
X117356405Y-73811643D01*
X117346324Y-73914000D01*
X117350001Y-73951332D01*
X117350000Y-76766289D01*
X117306063Y-76810226D01*
X117192795Y-76979744D01*
X117114774Y-77168102D01*
X117075000Y-77368061D01*
X117075000Y-77571939D01*
X117114774Y-77771898D01*
X117192795Y-77960256D01*
X117306063Y-78129774D01*
X117450226Y-78273937D01*
X117619744Y-78387205D01*
X117808102Y-78465226D01*
X118008061Y-78505000D01*
X118211939Y-78505000D01*
X118411898Y-78465226D01*
X118600256Y-78387205D01*
X118769774Y-78273937D01*
X118913937Y-78129774D01*
X119027205Y-77960256D01*
X119105226Y-77771898D01*
X119145000Y-77571939D01*
X119145000Y-77368061D01*
X119105226Y-77168102D01*
X119027205Y-76979744D01*
X118913937Y-76810226D01*
X118870000Y-76766289D01*
X118870000Y-74228801D01*
X122431004Y-70667798D01*
X122460001Y-70644001D01*
X122554974Y-70528276D01*
X122625546Y-70396247D01*
X122669003Y-70252986D01*
X122680000Y-70141333D01*
X122680000Y-70141325D01*
X122683676Y-70104000D01*
X122680000Y-70066675D01*
X122680000Y-67239801D01*
X124531201Y-69091003D01*
X124554999Y-69120001D01*
X124583997Y-69143799D01*
X124670723Y-69214974D01*
X124798759Y-69283411D01*
X124802753Y-69285546D01*
X124946014Y-69329003D01*
X125057667Y-69340000D01*
X125057676Y-69340000D01*
X125094999Y-69343676D01*
X125132322Y-69340000D01*
X128261822Y-69340000D01*
X128386525Y-69526632D01*
X128593368Y-69733475D01*
X128775534Y-69855195D01*
X128658645Y-69924822D01*
X128442412Y-70119731D01*
X128268359Y-70353080D01*
X128143175Y-70615901D01*
X128098524Y-70763110D01*
X128219845Y-70993000D01*
X129413000Y-70993000D01*
X129413000Y-70973000D01*
X129667000Y-70973000D01*
X129667000Y-70993000D01*
X130860155Y-70993000D01*
X130981476Y-70763110D01*
X130936825Y-70615901D01*
X130811641Y-70353080D01*
X130637588Y-70119731D01*
X130421355Y-69924822D01*
X130304466Y-69855195D01*
X130486632Y-69733475D01*
X130693475Y-69526632D01*
X130855990Y-69283411D01*
X130967932Y-69013158D01*
X131025000Y-68726260D01*
X131025000Y-68433740D01*
X130967932Y-68146842D01*
X130855990Y-67876589D01*
X130693475Y-67633368D01*
X130486632Y-67426525D01*
X130312240Y-67310000D01*
X130486632Y-67193475D01*
X130693475Y-66986632D01*
X130855990Y-66743411D01*
X130967932Y-66473158D01*
X131025000Y-66186260D01*
X131025000Y-65893740D01*
X130967932Y-65606842D01*
X130855990Y-65336589D01*
X130693475Y-65093368D01*
X130561620Y-64961513D01*
X130634180Y-64939502D01*
X130744494Y-64880537D01*
X130841185Y-64801185D01*
X130920537Y-64704494D01*
X130979502Y-64594180D01*
X131015812Y-64474482D01*
X131028072Y-64350000D01*
X131028072Y-62650000D01*
X131015812Y-62525518D01*
X130979502Y-62405820D01*
X130920537Y-62295506D01*
X130841185Y-62198815D01*
X130744494Y-62119463D01*
X130634180Y-62060498D01*
X130514482Y-62024188D01*
X130390000Y-62011928D01*
X128690000Y-62011928D01*
X128565518Y-62024188D01*
X128445820Y-62060498D01*
X128335506Y-62119463D01*
X128238815Y-62198815D01*
X128159463Y-62295506D01*
X128100498Y-62405820D01*
X128064188Y-62525518D01*
X128051928Y-62650000D01*
X128051928Y-64350000D01*
X128064188Y-64474482D01*
X128100498Y-64594180D01*
X128159463Y-64704494D01*
X128238815Y-64801185D01*
X128335506Y-64880537D01*
X128445820Y-64939502D01*
X128518380Y-64961513D01*
X128386525Y-65093368D01*
X128224010Y-65336589D01*
X128112068Y-65606842D01*
X128055000Y-65893740D01*
X128055000Y-66186260D01*
X128112068Y-66473158D01*
X128224010Y-66743411D01*
X128386525Y-66986632D01*
X128593368Y-67193475D01*
X128767760Y-67310000D01*
X128593368Y-67426525D01*
X128386525Y-67633368D01*
X128261822Y-67820000D01*
X125409802Y-67820000D01*
X123250654Y-65660853D01*
X123275000Y-65538456D01*
X123275000Y-65271544D01*
X123222928Y-65009761D01*
X123120785Y-64763167D01*
X122972497Y-64541238D01*
X122783762Y-64352503D01*
X122561833Y-64204215D01*
X122315239Y-64102072D01*
X122053456Y-64050000D01*
X121786544Y-64050000D01*
X121524761Y-64102072D01*
X121278167Y-64204215D01*
X121056238Y-64352503D01*
X120867503Y-64541238D01*
X120719215Y-64763167D01*
X120650000Y-64930266D01*
X120580785Y-64763167D01*
X120432497Y-64541238D01*
X120243762Y-64352503D01*
X120021833Y-64204215D01*
X119775239Y-64102072D01*
X119513456Y-64050000D01*
X119246544Y-64050000D01*
X118984761Y-64102072D01*
X118738167Y-64204215D01*
X118516238Y-64352503D01*
X118327503Y-64541238D01*
X118179215Y-64763167D01*
X118110000Y-64930266D01*
X118040785Y-64763167D01*
X117892497Y-64541238D01*
X117703762Y-64352503D01*
X117481833Y-64204215D01*
X117235239Y-64102072D01*
X116973456Y-64050000D01*
X116706544Y-64050000D01*
X116444761Y-64102072D01*
X116198167Y-64204215D01*
X115976238Y-64352503D01*
X115787503Y-64541238D01*
X115639215Y-64763167D01*
X115537072Y-65009761D01*
X115485000Y-65271544D01*
X101685000Y-65271544D01*
X101632928Y-65009761D01*
X101530785Y-64763167D01*
X101382497Y-64541238D01*
X101193762Y-64352503D01*
X100971833Y-64204215D01*
X100725239Y-64102072D01*
X100463456Y-64050000D01*
X100196544Y-64050000D01*
X99934761Y-64102072D01*
X99688167Y-64204215D01*
X99466238Y-64352503D01*
X99277503Y-64541238D01*
X99129215Y-64763167D01*
X99060000Y-64930266D01*
X98990785Y-64763167D01*
X98842497Y-64541238D01*
X98653762Y-64352503D01*
X98431833Y-64204215D01*
X98185239Y-64102072D01*
X97923456Y-64050000D01*
X97656544Y-64050000D01*
X97394761Y-64102072D01*
X97148167Y-64204215D01*
X96926238Y-64352503D01*
X96737503Y-64541238D01*
X96589215Y-64763167D01*
X96520000Y-64930266D01*
X96450785Y-64763167D01*
X96302497Y-64541238D01*
X96113762Y-64352503D01*
X95891833Y-64204215D01*
X95645239Y-64102072D01*
X95383456Y-64050000D01*
X95116544Y-64050000D01*
X94854761Y-64102072D01*
X94608167Y-64204215D01*
X94386238Y-64352503D01*
X94197503Y-64541238D01*
X94049215Y-64763167D01*
X93947072Y-65009761D01*
X93895000Y-65271544D01*
X85090496Y-65271544D01*
X84917588Y-65039731D01*
X84701355Y-64844822D01*
X84584466Y-64775195D01*
X84766632Y-64653475D01*
X84973475Y-64446632D01*
X85135990Y-64203411D01*
X85247932Y-63933158D01*
X85305000Y-63646260D01*
X85305000Y-63353740D01*
X85247932Y-63066842D01*
X85135990Y-62796589D01*
X84973475Y-62553368D01*
X84766632Y-62346525D01*
X84523411Y-62184010D01*
X84253158Y-62072068D01*
X83966260Y-62015000D01*
X83673740Y-62015000D01*
X83386842Y-62072068D01*
X83116589Y-62184010D01*
X82873368Y-62346525D01*
X82666525Y-62553368D01*
X82591935Y-62665000D01*
X82508065Y-62665000D01*
X82433475Y-62553368D01*
X82226632Y-62346525D01*
X81983411Y-62184010D01*
X81713158Y-62072068D01*
X81426260Y-62015000D01*
X81133740Y-62015000D01*
X80846842Y-62072068D01*
X80576589Y-62184010D01*
X80333368Y-62346525D01*
X80126525Y-62553368D01*
X79964010Y-62796589D01*
X79852068Y-63066842D01*
X79795000Y-63353740D01*
X76860000Y-63353740D01*
X76860000Y-58258967D01*
X92345000Y-58258967D01*
X92345000Y-58581033D01*
X92407832Y-58896912D01*
X92531082Y-59194463D01*
X92710013Y-59462252D01*
X92937748Y-59689987D01*
X93205537Y-59868918D01*
X93503088Y-59992168D01*
X93818967Y-60055000D01*
X94141033Y-60055000D01*
X94456912Y-59992168D01*
X94754463Y-59868918D01*
X95022252Y-59689987D01*
X95249987Y-59462252D01*
X95428918Y-59194463D01*
X95552168Y-58896912D01*
X95615000Y-58581033D01*
X95615000Y-58258967D01*
X101235000Y-58258967D01*
X101235000Y-58581033D01*
X101297832Y-58896912D01*
X101421082Y-59194463D01*
X101600013Y-59462252D01*
X101827748Y-59689987D01*
X102095537Y-59868918D01*
X102393088Y-59992168D01*
X102708967Y-60055000D01*
X103031033Y-60055000D01*
X103346912Y-59992168D01*
X103644463Y-59868918D01*
X103912252Y-59689987D01*
X104139987Y-59462252D01*
X104318918Y-59194463D01*
X104442168Y-58896912D01*
X104505000Y-58581033D01*
X104505000Y-58258967D01*
X104442168Y-57943088D01*
X104318918Y-57645537D01*
X104139987Y-57377748D01*
X103912252Y-57150013D01*
X103644463Y-56971082D01*
X103346912Y-56847832D01*
X103031033Y-56785000D01*
X102708967Y-56785000D01*
X102393088Y-56847832D01*
X102095537Y-56971082D01*
X101827748Y-57150013D01*
X101600013Y-57377748D01*
X101421082Y-57645537D01*
X101297832Y-57943088D01*
X101235000Y-58258967D01*
X95615000Y-58258967D01*
X95552168Y-57943088D01*
X95428918Y-57645537D01*
X95249987Y-57377748D01*
X95022252Y-57150013D01*
X94754463Y-56971082D01*
X94456912Y-56847832D01*
X94141033Y-56785000D01*
X93818967Y-56785000D01*
X93503088Y-56847832D01*
X93205537Y-56971082D01*
X92937748Y-57150013D01*
X92710013Y-57377748D01*
X92531082Y-57645537D01*
X92407832Y-57943088D01*
X92345000Y-58258967D01*
X76860000Y-58258967D01*
X76860000Y-55659872D01*
X79045000Y-55659872D01*
X79045000Y-56100128D01*
X79130890Y-56531925D01*
X79299369Y-56938669D01*
X79543962Y-57304729D01*
X79855271Y-57616038D01*
X80221331Y-57860631D01*
X80628075Y-58029110D01*
X81059872Y-58115000D01*
X81500128Y-58115000D01*
X81931925Y-58029110D01*
X82338669Y-57860631D01*
X82704729Y-57616038D01*
X83016038Y-57304729D01*
X83260631Y-56938669D01*
X83429110Y-56531925D01*
X83515000Y-56100128D01*
X83515000Y-55659872D01*
X83429110Y-55228075D01*
X83260631Y-54821331D01*
X83016038Y-54455271D01*
X82704729Y-54143962D01*
X82338669Y-53899369D01*
X81931925Y-53730890D01*
X81500128Y-53645000D01*
X81059872Y-53645000D01*
X80628075Y-53730890D01*
X80221331Y-53899369D01*
X79855271Y-54143962D01*
X79543962Y-54455271D01*
X79299369Y-54821331D01*
X79130890Y-55228075D01*
X79045000Y-55659872D01*
X76860000Y-55659872D01*
X76860000Y-51460000D01*
X131420000Y-51460000D01*
X131420000Y-73263118D01*
G37*
X131420000Y-73263118D02*
X131305884Y-73149002D01*
X131282082Y-73119999D01*
X131166357Y-73025026D01*
X131034328Y-72954454D01*
X130891067Y-72910997D01*
X130820909Y-72904087D01*
X130693475Y-72713368D01*
X130486632Y-72506525D01*
X130304466Y-72384805D01*
X130421355Y-72315178D01*
X130637588Y-72120269D01*
X130811641Y-71886920D01*
X130936825Y-71624099D01*
X130981476Y-71476890D01*
X130860155Y-71247000D01*
X129667000Y-71247000D01*
X129667000Y-71267000D01*
X129413000Y-71267000D01*
X129413000Y-71247000D01*
X128219845Y-71247000D01*
X128098524Y-71476890D01*
X128143175Y-71624099D01*
X128268359Y-71886920D01*
X128442412Y-72120269D01*
X128658645Y-72315178D01*
X128775534Y-72384805D01*
X128593368Y-72506525D01*
X128386525Y-72713368D01*
X128224010Y-72956589D01*
X128112068Y-73226842D01*
X128055000Y-73513740D01*
X128055000Y-73806260D01*
X128112068Y-74093158D01*
X128224010Y-74363411D01*
X128386525Y-74606632D01*
X128593368Y-74813475D01*
X128836589Y-74975990D01*
X129106842Y-75087932D01*
X129393740Y-75145000D01*
X129686260Y-75145000D01*
X129973158Y-75087932D01*
X130243411Y-74975990D01*
X130486632Y-74813475D01*
X130558000Y-74742107D01*
X130558000Y-77277389D01*
X130514482Y-77264188D01*
X130390000Y-77251928D01*
X128690000Y-77251928D01*
X128565518Y-77264188D01*
X128445820Y-77300498D01*
X128335506Y-77359463D01*
X128238815Y-77438815D01*
X128159463Y-77535506D01*
X128100498Y-77645820D01*
X128064188Y-77765518D01*
X128051928Y-77890000D01*
X128051928Y-79590000D01*
X128064188Y-79714482D01*
X128100498Y-79834180D01*
X128159463Y-79944494D01*
X128238815Y-80041185D01*
X128335506Y-80120537D01*
X128445820Y-80179502D01*
X128518380Y-80201513D01*
X128386525Y-80333368D01*
X128224010Y-80576589D01*
X128112068Y-80846842D01*
X128055000Y-81133740D01*
X128055000Y-81426260D01*
X128112068Y-81713158D01*
X128224010Y-81983411D01*
X128386525Y-82226632D01*
X128593368Y-82433475D01*
X128767760Y-82550000D01*
X128593368Y-82666525D01*
X128386525Y-82873368D01*
X128224010Y-83116589D01*
X128112068Y-83386842D01*
X128055000Y-83673740D01*
X128055000Y-83966260D01*
X128112068Y-84253158D01*
X128224010Y-84523411D01*
X128386525Y-84766632D01*
X128593368Y-84973475D01*
X128775534Y-85095195D01*
X128658645Y-85164822D01*
X128442412Y-85359731D01*
X128268359Y-85593080D01*
X128143175Y-85855901D01*
X128098524Y-86003110D01*
X128219845Y-86233000D01*
X129413000Y-86233000D01*
X129413000Y-86213000D01*
X129667000Y-86213000D01*
X129667000Y-86233000D01*
X129687000Y-86233000D01*
X129687000Y-86487000D01*
X129667000Y-86487000D01*
X129667000Y-87680814D01*
X129896891Y-87801481D01*
X130171252Y-87704157D01*
X130421355Y-87555178D01*
X130558000Y-87432008D01*
X130558000Y-89977389D01*
X130514482Y-89964188D01*
X130390000Y-89951928D01*
X128690000Y-89951928D01*
X128565518Y-89964188D01*
X128445820Y-90000498D01*
X128335506Y-90059463D01*
X128238815Y-90138815D01*
X128159463Y-90235506D01*
X128100498Y-90345820D01*
X128064188Y-90465518D01*
X128051928Y-90590000D01*
X128051928Y-92290000D01*
X128064188Y-92414482D01*
X128100498Y-92534180D01*
X128159463Y-92644494D01*
X128238815Y-92741185D01*
X128335506Y-92820537D01*
X128445820Y-92879502D01*
X128526466Y-92903966D01*
X128442412Y-92979731D01*
X128268359Y-93213080D01*
X128143175Y-93475901D01*
X128098524Y-93623110D01*
X128219845Y-93853000D01*
X129413000Y-93853000D01*
X129413000Y-93833000D01*
X129667000Y-93833000D01*
X129667000Y-93853000D01*
X129687000Y-93853000D01*
X129687000Y-94107000D01*
X129667000Y-94107000D01*
X129667000Y-95300814D01*
X129896891Y-95421481D01*
X130171252Y-95324157D01*
X130421355Y-95175178D01*
X130558000Y-95052008D01*
X130558001Y-97597389D01*
X130514482Y-97584188D01*
X130390000Y-97571928D01*
X128690000Y-97571928D01*
X128565518Y-97584188D01*
X128445820Y-97620498D01*
X128335506Y-97679463D01*
X128238815Y-97758815D01*
X128159463Y-97855506D01*
X128100498Y-97965820D01*
X128064188Y-98085518D01*
X128051928Y-98210000D01*
X128051928Y-99910000D01*
X128064188Y-100034482D01*
X128100498Y-100154180D01*
X128159463Y-100264494D01*
X128238815Y-100361185D01*
X128335506Y-100440537D01*
X128445820Y-100499502D01*
X128526466Y-100523966D01*
X128442412Y-100599731D01*
X128268359Y-100833080D01*
X128143175Y-101095901D01*
X128098524Y-101243110D01*
X128219845Y-101473000D01*
X129413000Y-101473000D01*
X129413000Y-101453000D01*
X129667000Y-101453000D01*
X129667000Y-101473000D01*
X129687000Y-101473000D01*
X129687000Y-101727000D01*
X129667000Y-101727000D01*
X129667000Y-102920814D01*
X129896891Y-103041481D01*
X130171252Y-102944157D01*
X130421355Y-102795178D01*
X130558001Y-102672008D01*
X130558001Y-105217389D01*
X130514482Y-105204188D01*
X130390000Y-105191928D01*
X130300000Y-105191928D01*
X130300000Y-104685322D01*
X130303676Y-104647999D01*
X130300000Y-104610676D01*
X130300000Y-104610667D01*
X130289003Y-104499014D01*
X130245546Y-104355753D01*
X130174974Y-104223724D01*
X130080001Y-104107999D01*
X130051003Y-104084202D01*
X129595803Y-103629002D01*
X129572001Y-103599999D01*
X129456276Y-103505026D01*
X129324247Y-103434454D01*
X129180986Y-103390997D01*
X129069333Y-103380000D01*
X129069322Y-103380000D01*
X129032000Y-103376324D01*
X128994678Y-103380000D01*
X121675259Y-103380000D01*
X121702497Y-103352762D01*
X121850785Y-103130833D01*
X121952928Y-102884239D01*
X122005000Y-102622456D01*
X122005000Y-102355544D01*
X121952928Y-102093761D01*
X121896234Y-101956890D01*
X128098524Y-101956890D01*
X128143175Y-102104099D01*
X128268359Y-102366920D01*
X128442412Y-102600269D01*
X128658645Y-102795178D01*
X128908748Y-102944157D01*
X129183109Y-103041481D01*
X129413000Y-102920814D01*
X129413000Y-101727000D01*
X128219845Y-101727000D01*
X128098524Y-101956890D01*
X121896234Y-101956890D01*
X121850785Y-101847167D01*
X121702497Y-101625238D01*
X121513762Y-101436503D01*
X121291833Y-101288215D01*
X121045239Y-101186072D01*
X120783456Y-101134000D01*
X120516544Y-101134000D01*
X120254761Y-101186072D01*
X120008167Y-101288215D01*
X119786238Y-101436503D01*
X119597503Y-101625238D01*
X119449215Y-101847167D01*
X119380000Y-102014266D01*
X119310785Y-101847167D01*
X119162497Y-101625238D01*
X118973762Y-101436503D01*
X118751833Y-101288215D01*
X118505239Y-101186072D01*
X118243456Y-101134000D01*
X117976544Y-101134000D01*
X117714761Y-101186072D01*
X117468167Y-101288215D01*
X117246238Y-101436503D01*
X117057503Y-101625238D01*
X116909215Y-101847167D01*
X116840000Y-102014266D01*
X116770785Y-101847167D01*
X116622497Y-101625238D01*
X116433762Y-101436503D01*
X116211833Y-101288215D01*
X115965239Y-101186072D01*
X115703456Y-101134000D01*
X115436544Y-101134000D01*
X115174761Y-101186072D01*
X114928167Y-101288215D01*
X114706238Y-101436503D01*
X114517503Y-101625238D01*
X114369215Y-101847167D01*
X114267072Y-102093761D01*
X114215000Y-102355544D01*
X114215000Y-102622456D01*
X114267072Y-102884239D01*
X114369215Y-103130833D01*
X114517503Y-103352762D01*
X114544741Y-103380000D01*
X110177711Y-103380000D01*
X110133774Y-103336063D01*
X109964256Y-103222795D01*
X109775898Y-103144774D01*
X109575939Y-103105000D01*
X109372061Y-103105000D01*
X109172102Y-103144774D01*
X108983744Y-103222795D01*
X108964000Y-103235987D01*
X108964000Y-101033711D01*
X109007937Y-100989774D01*
X109121205Y-100820256D01*
X109199226Y-100631898D01*
X109239000Y-100431939D01*
X109239000Y-100228061D01*
X109199226Y-100028102D01*
X109121205Y-99839744D01*
X109007937Y-99670226D01*
X108863774Y-99526063D01*
X108694256Y-99412795D01*
X108505898Y-99334774D01*
X108305939Y-99295000D01*
X108102061Y-99295000D01*
X107902102Y-99334774D01*
X107713744Y-99412795D01*
X107544226Y-99526063D01*
X107400063Y-99670226D01*
X107286795Y-99839744D01*
X107208774Y-100028102D01*
X107169000Y-100228061D01*
X107169000Y-100431939D01*
X107208774Y-100631898D01*
X107286795Y-100820256D01*
X107400063Y-100989774D01*
X107444001Y-101033712D01*
X107444000Y-109436678D01*
X107440324Y-109474000D01*
X107444000Y-109511322D01*
X107444000Y-109511332D01*
X107454997Y-109622985D01*
X107486344Y-109726324D01*
X107498454Y-109766246D01*
X107569026Y-109898276D01*
X107591944Y-109926201D01*
X107663999Y-110014001D01*
X107693002Y-110037804D01*
X108656200Y-111001002D01*
X108679999Y-111030001D01*
X108708997Y-111053799D01*
X108795723Y-111124974D01*
X108927753Y-111195546D01*
X109071014Y-111239003D01*
X109182667Y-111250000D01*
X109182677Y-111250000D01*
X109220000Y-111253676D01*
X109257322Y-111250000D01*
X116271199Y-111250000D01*
X121160001Y-116138803D01*
X121160000Y-123816821D01*
X120973368Y-123941525D01*
X120841513Y-124073380D01*
X120819502Y-124000820D01*
X120760537Y-123890506D01*
X120681185Y-123793815D01*
X120584494Y-123714463D01*
X120474180Y-123655498D01*
X120354482Y-123619188D01*
X120230000Y-123606928D01*
X118530000Y-123606928D01*
X118405518Y-123619188D01*
X118285820Y-123655498D01*
X118175506Y-123714463D01*
X118078815Y-123793815D01*
X117999463Y-123890506D01*
X117940498Y-124000820D01*
X117904188Y-124120518D01*
X117891928Y-124245000D01*
X117891928Y-124748811D01*
X106932000Y-113788884D01*
X106932000Y-113606711D01*
X106975937Y-113562774D01*
X107089205Y-113393256D01*
X107167226Y-113204898D01*
X107207000Y-113004939D01*
X107207000Y-112801061D01*
X107167226Y-112601102D01*
X107089205Y-112412744D01*
X106975937Y-112243226D01*
X106831774Y-112099063D01*
X106662256Y-111985795D01*
X106473898Y-111907774D01*
X106273939Y-111868000D01*
X106070061Y-111868000D01*
X105870102Y-111907774D01*
X105681744Y-111985795D01*
X105654780Y-112003812D01*
X105683000Y-111861939D01*
X105683000Y-111658061D01*
X105643226Y-111458102D01*
X105565205Y-111269744D01*
X105451937Y-111100226D01*
X105307774Y-110956063D01*
X105138256Y-110842795D01*
X104949898Y-110764774D01*
X104749939Y-110725000D01*
X104546061Y-110725000D01*
X104346102Y-110764774D01*
X104157744Y-110842795D01*
X103988226Y-110956063D01*
X103944289Y-111000000D01*
X103796322Y-111000000D01*
X103775302Y-110997930D01*
X103673937Y-110846226D01*
X103529774Y-110702063D01*
X103360256Y-110588795D01*
X103171898Y-110510774D01*
X102971939Y-110471000D01*
X102909803Y-110471000D01*
X99877804Y-107439003D01*
X99854001Y-107409999D01*
X99738276Y-107315026D01*
X99606247Y-107244454D01*
X99462986Y-107200997D01*
X99351333Y-107190000D01*
X99351322Y-107190000D01*
X99314000Y-107186324D01*
X99276678Y-107190000D01*
X96969711Y-107190000D01*
X96925774Y-107146063D01*
X96756256Y-107032795D01*
X96567898Y-106954774D01*
X96367939Y-106915000D01*
X96164061Y-106915000D01*
X95964102Y-106954774D01*
X95775744Y-107032795D01*
X95606226Y-107146063D01*
X95462063Y-107290226D01*
X95348795Y-107459744D01*
X95270774Y-107648102D01*
X95231000Y-107848061D01*
X95231000Y-108051939D01*
X95270774Y-108251898D01*
X95348795Y-108440256D01*
X95462063Y-108609774D01*
X95606226Y-108753937D01*
X95775744Y-108867205D01*
X95964102Y-108945226D01*
X96164061Y-108985000D01*
X96367939Y-108985000D01*
X96567898Y-108945226D01*
X96756256Y-108867205D01*
X96925774Y-108753937D01*
X96969711Y-108710000D01*
X98999199Y-108710000D01*
X101797197Y-111508000D01*
X94017316Y-111508000D01*
X93979993Y-111504324D01*
X93942671Y-111508000D01*
X93942661Y-111508000D01*
X93831008Y-111518997D01*
X93687747Y-111562454D01*
X93555718Y-111633026D01*
X93470000Y-111703373D01*
X93470000Y-101033711D01*
X93513937Y-100989774D01*
X93627205Y-100820256D01*
X93705226Y-100631898D01*
X93745000Y-100431939D01*
X93745000Y-100228061D01*
X93705226Y-100028102D01*
X93627205Y-99839744D01*
X93513937Y-99670226D01*
X93369774Y-99526063D01*
X93200256Y-99412795D01*
X93011898Y-99334774D01*
X92811939Y-99295000D01*
X92608061Y-99295000D01*
X92408102Y-99334774D01*
X92219744Y-99412795D01*
X92050226Y-99526063D01*
X91946000Y-99630289D01*
X91946000Y-94994000D01*
X105626678Y-94994000D01*
X105664000Y-94997676D01*
X105701322Y-94994000D01*
X105701333Y-94994000D01*
X105812986Y-94983003D01*
X105956247Y-94939546D01*
X106088276Y-94868974D01*
X106204001Y-94774001D01*
X106227803Y-94744998D01*
X106635911Y-94336890D01*
X128098524Y-94336890D01*
X128143175Y-94484099D01*
X128268359Y-94746920D01*
X128442412Y-94980269D01*
X128658645Y-95175178D01*
X128908748Y-95324157D01*
X129183109Y-95421481D01*
X129413000Y-95300814D01*
X129413000Y-94107000D01*
X128219845Y-94107000D01*
X128098524Y-94336890D01*
X106635911Y-94336890D01*
X107227802Y-93745000D01*
X107289939Y-93745000D01*
X107489898Y-93705226D01*
X107678256Y-93627205D01*
X107847774Y-93513937D01*
X107991937Y-93369774D01*
X108105205Y-93200256D01*
X108183226Y-93011898D01*
X108223000Y-92811939D01*
X108223000Y-92608061D01*
X108183226Y-92408102D01*
X108105205Y-92219744D01*
X107991937Y-92050226D01*
X107847774Y-91906063D01*
X107678256Y-91792795D01*
X107489898Y-91714774D01*
X107289939Y-91675000D01*
X107086061Y-91675000D01*
X106886102Y-91714774D01*
X106697744Y-91792795D01*
X106528226Y-91906063D01*
X106384063Y-92050226D01*
X106270795Y-92219744D01*
X106192774Y-92408102D01*
X106153000Y-92608061D01*
X106153000Y-92670198D01*
X105349199Y-93474000D01*
X94171711Y-93474000D01*
X94175711Y-93470000D01*
X95212678Y-93470000D01*
X95250000Y-93473676D01*
X95287322Y-93470000D01*
X95287333Y-93470000D01*
X95398986Y-93459003D01*
X95542247Y-93415546D01*
X95674276Y-93344974D01*
X95790001Y-93250001D01*
X95813804Y-93220997D01*
X102317911Y-86716890D01*
X128098524Y-86716890D01*
X128143175Y-86864099D01*
X128268359Y-87126920D01*
X128442412Y-87360269D01*
X128658645Y-87555178D01*
X128908748Y-87704157D01*
X129183109Y-87801481D01*
X129413000Y-87680814D01*
X129413000Y-86487000D01*
X128219845Y-86487000D01*
X128098524Y-86716890D01*
X102317911Y-86716890D01*
X103184802Y-85850000D01*
X103556957Y-85850000D01*
X103660363Y-86004759D01*
X103860241Y-86204637D01*
X104095273Y-86361680D01*
X104356426Y-86469853D01*
X104633665Y-86525000D01*
X104916335Y-86525000D01*
X105193574Y-86469853D01*
X105454727Y-86361680D01*
X105689759Y-86204637D01*
X105889637Y-86004759D01*
X106046680Y-85769727D01*
X106154853Y-85508574D01*
X106210000Y-85231335D01*
X106210000Y-84948665D01*
X106154853Y-84671426D01*
X106046680Y-84410273D01*
X105889637Y-84175241D01*
X105689759Y-83975363D01*
X105457241Y-83820000D01*
X105689759Y-83664637D01*
X105889637Y-83464759D01*
X106046680Y-83229727D01*
X106154853Y-82968574D01*
X106210000Y-82691335D01*
X106210000Y-82408665D01*
X106154853Y-82131426D01*
X106046680Y-81870273D01*
X105889637Y-81635241D01*
X105689759Y-81435363D01*
X105457241Y-81280000D01*
X105689759Y-81124637D01*
X105889637Y-80924759D01*
X106046680Y-80689727D01*
X106154853Y-80428574D01*
X106210000Y-80151335D01*
X106210000Y-79868665D01*
X110960000Y-79868665D01*
X110960000Y-80151335D01*
X111015147Y-80428574D01*
X111123320Y-80689727D01*
X111280363Y-80924759D01*
X111480241Y-81124637D01*
X111712759Y-81280000D01*
X111480241Y-81435363D01*
X111280363Y-81635241D01*
X111123320Y-81870273D01*
X111015147Y-82131426D01*
X110960000Y-82408665D01*
X110960000Y-82691335D01*
X111015147Y-82968574D01*
X111123320Y-83229727D01*
X111280363Y-83464759D01*
X111480241Y-83664637D01*
X111712759Y-83820000D01*
X111480241Y-83975363D01*
X111280363Y-84175241D01*
X111123320Y-84410273D01*
X111015147Y-84671426D01*
X110960000Y-84948665D01*
X110960000Y-85231335D01*
X111015147Y-85508574D01*
X111123320Y-85769727D01*
X111280363Y-86004759D01*
X111480241Y-86204637D01*
X111715273Y-86361680D01*
X111976426Y-86469853D01*
X112253665Y-86525000D01*
X112536335Y-86525000D01*
X112813574Y-86469853D01*
X113074727Y-86361680D01*
X113309759Y-86204637D01*
X113509637Y-86004759D01*
X113666680Y-85769727D01*
X113774853Y-85508574D01*
X113830000Y-85231335D01*
X113830000Y-84948665D01*
X113774853Y-84671426D01*
X113666680Y-84410273D01*
X113607394Y-84321544D01*
X115485000Y-84321544D01*
X115485000Y-84588456D01*
X115537072Y-84850239D01*
X115639215Y-85096833D01*
X115787503Y-85318762D01*
X115976238Y-85507497D01*
X116198167Y-85655785D01*
X116444761Y-85757928D01*
X116706544Y-85810000D01*
X116973456Y-85810000D01*
X117235239Y-85757928D01*
X117481833Y-85655785D01*
X117703762Y-85507497D01*
X117820699Y-85390560D01*
X118624045Y-85390560D01*
X118685932Y-85626368D01*
X118927790Y-85739266D01*
X119187027Y-85802811D01*
X119453680Y-85814561D01*
X119717501Y-85774063D01*
X119968353Y-85682875D01*
X120074068Y-85626368D01*
X120135955Y-85390560D01*
X121164045Y-85390560D01*
X121225932Y-85626368D01*
X121467790Y-85739266D01*
X121727027Y-85802811D01*
X121993680Y-85814561D01*
X122257501Y-85774063D01*
X122508353Y-85682875D01*
X122614068Y-85626368D01*
X122675955Y-85390560D01*
X121920000Y-84634605D01*
X121164045Y-85390560D01*
X120135955Y-85390560D01*
X119380000Y-84634605D01*
X118624045Y-85390560D01*
X117820699Y-85390560D01*
X117892497Y-85318762D01*
X118040785Y-85096833D01*
X118110438Y-84928676D01*
X118152125Y-85043353D01*
X118208632Y-85149068D01*
X118444440Y-85210955D01*
X119200395Y-84455000D01*
X119559605Y-84455000D01*
X120315560Y-85210955D01*
X120551368Y-85149068D01*
X120652105Y-84933262D01*
X120692125Y-85043353D01*
X120748632Y-85149068D01*
X120984440Y-85210955D01*
X121740395Y-84455000D01*
X122099605Y-84455000D01*
X122855560Y-85210955D01*
X123091368Y-85149068D01*
X123204266Y-84907210D01*
X123267811Y-84647973D01*
X123279561Y-84381320D01*
X123239063Y-84117499D01*
X123147875Y-83866647D01*
X123091368Y-83760932D01*
X122855560Y-83699045D01*
X122099605Y-84455000D01*
X121740395Y-84455000D01*
X120984440Y-83699045D01*
X120748632Y-83760932D01*
X120647895Y-83976738D01*
X120607875Y-83866647D01*
X120551368Y-83760932D01*
X120315560Y-83699045D01*
X119559605Y-84455000D01*
X119200395Y-84455000D01*
X118444440Y-83699045D01*
X118208632Y-83760932D01*
X118108236Y-83976007D01*
X118040785Y-83813167D01*
X117892497Y-83591238D01*
X117820699Y-83519440D01*
X118624045Y-83519440D01*
X119380000Y-84275395D01*
X120135955Y-83519440D01*
X121164045Y-83519440D01*
X121920000Y-84275395D01*
X122675955Y-83519440D01*
X122614068Y-83283632D01*
X122372210Y-83170734D01*
X122112973Y-83107189D01*
X121846320Y-83095439D01*
X121582499Y-83135937D01*
X121331647Y-83227125D01*
X121225932Y-83283632D01*
X121164045Y-83519440D01*
X120135955Y-83519440D01*
X120074068Y-83283632D01*
X119832210Y-83170734D01*
X119572973Y-83107189D01*
X119306320Y-83095439D01*
X119042499Y-83135937D01*
X118791647Y-83227125D01*
X118685932Y-83283632D01*
X118624045Y-83519440D01*
X117820699Y-83519440D01*
X117703762Y-83402503D01*
X117481833Y-83254215D01*
X117235239Y-83152072D01*
X116973456Y-83100000D01*
X116706544Y-83100000D01*
X116444761Y-83152072D01*
X116198167Y-83254215D01*
X115976238Y-83402503D01*
X115787503Y-83591238D01*
X115639215Y-83813167D01*
X115537072Y-84059761D01*
X115485000Y-84321544D01*
X113607394Y-84321544D01*
X113509637Y-84175241D01*
X113309759Y-83975363D01*
X113077241Y-83820000D01*
X113309759Y-83664637D01*
X113509637Y-83464759D01*
X113666680Y-83229727D01*
X113774853Y-82968574D01*
X113830000Y-82691335D01*
X113830000Y-82408665D01*
X113774853Y-82131426D01*
X113666680Y-81870273D01*
X113509637Y-81635241D01*
X113309759Y-81435363D01*
X113077241Y-81280000D01*
X113309759Y-81124637D01*
X113509637Y-80924759D01*
X113666680Y-80689727D01*
X113774853Y-80428574D01*
X113830000Y-80151335D01*
X113830000Y-79868665D01*
X113774853Y-79591426D01*
X113666680Y-79330273D01*
X113509637Y-79095241D01*
X113309759Y-78895363D01*
X113074727Y-78738320D01*
X113064135Y-78733933D01*
X113250131Y-78622385D01*
X113458519Y-78433414D01*
X113626037Y-78207420D01*
X113746246Y-77953087D01*
X113786904Y-77819039D01*
X113664915Y-77597000D01*
X112522000Y-77597000D01*
X112522000Y-77617000D01*
X112268000Y-77617000D01*
X112268000Y-77597000D01*
X111125085Y-77597000D01*
X111003096Y-77819039D01*
X111043754Y-77953087D01*
X111163963Y-78207420D01*
X111331481Y-78433414D01*
X111539869Y-78622385D01*
X111725865Y-78733933D01*
X111715273Y-78738320D01*
X111480241Y-78895363D01*
X111280363Y-79095241D01*
X111123320Y-79330273D01*
X111015147Y-79591426D01*
X110960000Y-79868665D01*
X106210000Y-79868665D01*
X106154853Y-79591426D01*
X106046680Y-79330273D01*
X105889637Y-79095241D01*
X105689759Y-78895363D01*
X105457241Y-78740000D01*
X105689759Y-78584637D01*
X105889637Y-78384759D01*
X106046680Y-78149727D01*
X106154853Y-77888574D01*
X106210000Y-77611335D01*
X106210000Y-77328665D01*
X106154853Y-77051426D01*
X106046680Y-76790273D01*
X105889637Y-76555241D01*
X105689759Y-76355363D01*
X105457241Y-76200000D01*
X105689759Y-76044637D01*
X105889637Y-75844759D01*
X106046680Y-75609727D01*
X106154853Y-75348574D01*
X106210000Y-75071335D01*
X106210000Y-74788665D01*
X106154853Y-74511426D01*
X106046680Y-74250273D01*
X105889637Y-74015241D01*
X105689759Y-73815363D01*
X105457241Y-73660000D01*
X105689759Y-73504637D01*
X105889637Y-73304759D01*
X106046680Y-73069727D01*
X106154853Y-72808574D01*
X106210000Y-72531335D01*
X106210000Y-72248665D01*
X106154853Y-71971426D01*
X106046680Y-71710273D01*
X105889637Y-71475241D01*
X105689759Y-71275363D01*
X105457241Y-71120000D01*
X105689759Y-70964637D01*
X105889637Y-70764759D01*
X106046680Y-70529727D01*
X106154853Y-70268574D01*
X106210000Y-69991335D01*
X106210000Y-69708665D01*
X106154853Y-69431426D01*
X106116983Y-69340000D01*
X111053017Y-69340000D01*
X111015147Y-69431426D01*
X110960000Y-69708665D01*
X110960000Y-69991335D01*
X111015147Y-70268574D01*
X111123320Y-70529727D01*
X111280363Y-70764759D01*
X111480241Y-70964637D01*
X111712759Y-71120000D01*
X111480241Y-71275363D01*
X111280363Y-71475241D01*
X111123320Y-71710273D01*
X111015147Y-71971426D01*
X110960000Y-72248665D01*
X110960000Y-72531335D01*
X111015147Y-72808574D01*
X111123320Y-73069727D01*
X111280363Y-73304759D01*
X111480241Y-73504637D01*
X111712759Y-73660000D01*
X111480241Y-73815363D01*
X111280363Y-74015241D01*
X111123320Y-74250273D01*
X111015147Y-74511426D01*
X110960000Y-74788665D01*
X110960000Y-75071335D01*
X111015147Y-75348574D01*
X111123320Y-75609727D01*
X111280363Y-75844759D01*
X111480241Y-76044637D01*
X111715273Y-76201680D01*
X111725865Y-76206067D01*
X111539869Y-76317615D01*
X111331481Y-76506586D01*
X111163963Y-76732580D01*
X111043754Y-76986913D01*
X111003096Y-77120961D01*
X111125085Y-77343000D01*
X112268000Y-77343000D01*
X112268000Y-77323000D01*
X112522000Y-77323000D01*
X112522000Y-77343000D01*
X113664915Y-77343000D01*
X113786904Y-77120961D01*
X113746246Y-76986913D01*
X113626037Y-76732580D01*
X113458519Y-76506586D01*
X113250131Y-76317615D01*
X113064135Y-76206067D01*
X113074727Y-76201680D01*
X113309759Y-76044637D01*
X113509637Y-75844759D01*
X113666680Y-75609727D01*
X113774853Y-75348574D01*
X113830000Y-75071335D01*
X113830000Y-74788665D01*
X113774853Y-74511426D01*
X113666680Y-74250273D01*
X113509637Y-74015241D01*
X113309759Y-73815363D01*
X113077241Y-73660000D01*
X113309759Y-73504637D01*
X113509637Y-73304759D01*
X113666680Y-73069727D01*
X113774853Y-72808574D01*
X113830000Y-72531335D01*
X113830000Y-72248665D01*
X113774853Y-71971426D01*
X113666680Y-71710273D01*
X113509637Y-71475241D01*
X113309759Y-71275363D01*
X113077241Y-71120000D01*
X113309759Y-70964637D01*
X113509637Y-70764759D01*
X113666680Y-70529727D01*
X113774853Y-70268574D01*
X113830000Y-69991335D01*
X113830000Y-69708665D01*
X113774853Y-69431426D01*
X113666680Y-69170273D01*
X113509637Y-68935241D01*
X113309759Y-68735363D01*
X113077241Y-68580000D01*
X113309759Y-68424637D01*
X113509637Y-68224759D01*
X113666680Y-67989727D01*
X113774853Y-67728574D01*
X113830000Y-67451335D01*
X113830000Y-67168665D01*
X113774853Y-66891426D01*
X113666680Y-66630273D01*
X113509637Y-66395241D01*
X113309759Y-66195363D01*
X113074727Y-66038320D01*
X112813574Y-65930147D01*
X112536335Y-65875000D01*
X112253665Y-65875000D01*
X111976426Y-65930147D01*
X111715273Y-66038320D01*
X111480241Y-66195363D01*
X111280363Y-66395241D01*
X111123320Y-66630273D01*
X111015147Y-66891426D01*
X110960000Y-67168665D01*
X110960000Y-67451335D01*
X110996312Y-67633886D01*
X110810199Y-67820000D01*
X106213072Y-67820000D01*
X106213072Y-66510000D01*
X106200812Y-66385518D01*
X106164502Y-66265820D01*
X106105537Y-66155506D01*
X106026185Y-66058815D01*
X105929494Y-65979463D01*
X105819180Y-65920498D01*
X105699482Y-65884188D01*
X105575000Y-65871928D01*
X103975000Y-65871928D01*
X103850518Y-65884188D01*
X103730820Y-65920498D01*
X103620506Y-65979463D01*
X103523815Y-66058815D01*
X103444463Y-66155506D01*
X103385498Y-66265820D01*
X103349188Y-66385518D01*
X103336928Y-66510000D01*
X103336928Y-67820000D01*
X89191322Y-67820000D01*
X89153999Y-67816324D01*
X89116676Y-67820000D01*
X89116667Y-67820000D01*
X89005014Y-67830997D01*
X88861753Y-67874454D01*
X88729724Y-67945026D01*
X88729722Y-67945027D01*
X88729723Y-67945027D01*
X88642996Y-68016201D01*
X88642992Y-68016205D01*
X88613999Y-68039999D01*
X88590205Y-68068992D01*
X87118998Y-69540201D01*
X87090000Y-69563999D01*
X87066202Y-69592997D01*
X87066201Y-69592998D01*
X86995026Y-69679724D01*
X86924454Y-69811754D01*
X86898902Y-69895990D01*
X86880998Y-69955014D01*
X86870165Y-70065000D01*
X86866324Y-70104000D01*
X86870001Y-70141332D01*
X86870000Y-106484289D01*
X86826063Y-106528226D01*
X86712795Y-106697744D01*
X86634774Y-106886102D01*
X86595000Y-107086061D01*
X86595000Y-107289939D01*
X86634774Y-107489898D01*
X86712795Y-107678256D01*
X86826063Y-107847774D01*
X86970226Y-107991937D01*
X87139744Y-108105205D01*
X87328102Y-108183226D01*
X87528061Y-108223000D01*
X87731939Y-108223000D01*
X87931898Y-108183226D01*
X88120256Y-108105205D01*
X88289774Y-107991937D01*
X88433937Y-107847774D01*
X88547205Y-107678256D01*
X88625226Y-107489898D01*
X88665000Y-107289939D01*
X88665000Y-107086061D01*
X88625226Y-106886102D01*
X88547205Y-106697744D01*
X88433937Y-106528226D01*
X88390000Y-106484289D01*
X88390000Y-93360013D01*
X88409744Y-93373205D01*
X88598102Y-93451226D01*
X88798061Y-93491000D01*
X89001939Y-93491000D01*
X89201898Y-93451226D01*
X89390256Y-93373205D01*
X89559774Y-93259937D01*
X89703937Y-93115774D01*
X89817205Y-92946256D01*
X89895226Y-92757898D01*
X89935000Y-92557939D01*
X89935000Y-92354061D01*
X89895226Y-92154102D01*
X89817205Y-91965744D01*
X89703937Y-91796226D01*
X89660000Y-91752289D01*
X89660000Y-74482801D01*
X90992802Y-73150000D01*
X103556957Y-73150000D01*
X103660363Y-73304759D01*
X103860241Y-73504637D01*
X104092759Y-73660000D01*
X103860241Y-73815363D01*
X103660363Y-74015241D01*
X103503320Y-74250273D01*
X103395147Y-74511426D01*
X103340000Y-74788665D01*
X103340000Y-75071335D01*
X103395147Y-75348574D01*
X103503320Y-75609727D01*
X103660363Y-75844759D01*
X103860241Y-76044637D01*
X104092759Y-76200000D01*
X103860241Y-76355363D01*
X103660363Y-76555241D01*
X103503320Y-76790273D01*
X103395147Y-77051426D01*
X103340000Y-77328665D01*
X103340000Y-77611335D01*
X103395147Y-77888574D01*
X103503320Y-78149727D01*
X103660363Y-78384759D01*
X103860241Y-78584637D01*
X104092759Y-78740000D01*
X103860241Y-78895363D01*
X103660363Y-79095241D01*
X103503320Y-79330273D01*
X103395147Y-79591426D01*
X103340000Y-79868665D01*
X103340000Y-80151335D01*
X103395147Y-80428574D01*
X103503320Y-80689727D01*
X103660363Y-80924759D01*
X103860241Y-81124637D01*
X104092759Y-81280000D01*
X103860241Y-81435363D01*
X103660363Y-81635241D01*
X103503320Y-81870273D01*
X103395147Y-82131426D01*
X103340000Y-82408665D01*
X103340000Y-82691335D01*
X103395147Y-82968574D01*
X103503320Y-83229727D01*
X103660363Y-83464759D01*
X103860241Y-83664637D01*
X104092759Y-83820000D01*
X103860241Y-83975363D01*
X103660363Y-84175241D01*
X103556957Y-84330000D01*
X102907322Y-84330000D01*
X102869999Y-84326324D01*
X102832676Y-84330000D01*
X102832667Y-84330000D01*
X102721014Y-84340997D01*
X102577753Y-84384454D01*
X102445724Y-84455026D01*
X102329999Y-84549999D01*
X102320000Y-84562183D01*
X102320000Y-84321544D01*
X102267928Y-84059761D01*
X102165785Y-83813167D01*
X102017497Y-83591238D01*
X101828762Y-83402503D01*
X101606833Y-83254215D01*
X101360239Y-83152072D01*
X101098456Y-83100000D01*
X100831544Y-83100000D01*
X100569761Y-83152072D01*
X100323167Y-83254215D01*
X100101238Y-83402503D01*
X99912503Y-83591238D01*
X99764215Y-83813167D01*
X99695000Y-83980266D01*
X99625785Y-83813167D01*
X99477497Y-83591238D01*
X99288762Y-83402503D01*
X99066833Y-83254215D01*
X98820239Y-83152072D01*
X98558456Y-83100000D01*
X98291544Y-83100000D01*
X98029761Y-83152072D01*
X97783167Y-83254215D01*
X97561238Y-83402503D01*
X97372503Y-83591238D01*
X97224215Y-83813167D01*
X97154562Y-83981324D01*
X97112875Y-83866647D01*
X97056368Y-83760932D01*
X96820560Y-83699045D01*
X96064605Y-84455000D01*
X96820560Y-85210955D01*
X97056368Y-85149068D01*
X97156764Y-84933993D01*
X97224215Y-85096833D01*
X97372503Y-85318762D01*
X97561238Y-85507497D01*
X97783167Y-85655785D01*
X98029761Y-85757928D01*
X98291544Y-85810000D01*
X98558456Y-85810000D01*
X98820239Y-85757928D01*
X99066833Y-85655785D01*
X99288762Y-85507497D01*
X99477497Y-85318762D01*
X99625785Y-85096833D01*
X99695000Y-84929734D01*
X99764215Y-85096833D01*
X99912503Y-85318762D01*
X100101238Y-85507497D01*
X100323167Y-85655785D01*
X100569761Y-85757928D01*
X100831544Y-85810000D01*
X101075198Y-85810000D01*
X94935199Y-91950000D01*
X94175711Y-91950000D01*
X94131774Y-91906063D01*
X93962256Y-91792795D01*
X93773898Y-91714774D01*
X93573939Y-91675000D01*
X93370061Y-91675000D01*
X93170102Y-91714774D01*
X92981744Y-91792795D01*
X92812226Y-91906063D01*
X92668063Y-92050226D01*
X92554795Y-92219744D01*
X92476774Y-92408102D01*
X92437000Y-92608061D01*
X92437000Y-92811939D01*
X92476774Y-93011898D01*
X92554795Y-93200256D01*
X92668063Y-93369774D01*
X92772289Y-93474000D01*
X91946000Y-93474000D01*
X91946000Y-92143711D01*
X91989937Y-92099774D01*
X92103205Y-91930256D01*
X92181226Y-91741898D01*
X92221000Y-91541939D01*
X92221000Y-91338061D01*
X92181226Y-91138102D01*
X92103205Y-90949744D01*
X91989937Y-90780226D01*
X91946000Y-90736289D01*
X91946000Y-85390560D01*
X95129045Y-85390560D01*
X95190932Y-85626368D01*
X95432790Y-85739266D01*
X95692027Y-85802811D01*
X95958680Y-85814561D01*
X96222501Y-85774063D01*
X96473353Y-85682875D01*
X96579068Y-85626368D01*
X96640955Y-85390560D01*
X95885000Y-84634605D01*
X95129045Y-85390560D01*
X91946000Y-85390560D01*
X91946000Y-84528680D01*
X94525439Y-84528680D01*
X94565937Y-84792501D01*
X94657125Y-85043353D01*
X94713632Y-85149068D01*
X94949440Y-85210955D01*
X95705395Y-84455000D01*
X94949440Y-83699045D01*
X94713632Y-83760932D01*
X94600734Y-84002790D01*
X94537189Y-84262027D01*
X94525439Y-84528680D01*
X91946000Y-84528680D01*
X91946000Y-83519440D01*
X95129045Y-83519440D01*
X95885000Y-84275395D01*
X96640955Y-83519440D01*
X96579068Y-83283632D01*
X96337210Y-83170734D01*
X96077973Y-83107189D01*
X95811320Y-83095439D01*
X95547499Y-83135937D01*
X95296647Y-83227125D01*
X95190932Y-83283632D01*
X95129045Y-83519440D01*
X91946000Y-83519440D01*
X91946000Y-78173711D01*
X91989937Y-78129774D01*
X92103205Y-77960256D01*
X92181226Y-77771898D01*
X92221000Y-77571939D01*
X92221000Y-77368061D01*
X92181226Y-77168102D01*
X92103205Y-76979744D01*
X91989937Y-76810226D01*
X91845774Y-76666063D01*
X91676256Y-76552795D01*
X91487898Y-76474774D01*
X91287939Y-76435000D01*
X91084061Y-76435000D01*
X90884102Y-76474774D01*
X90695744Y-76552795D01*
X90526226Y-76666063D01*
X90382063Y-76810226D01*
X90268795Y-76979744D01*
X90190774Y-77168102D01*
X90151000Y-77368061D01*
X90151000Y-77571939D01*
X90190774Y-77771898D01*
X90268795Y-77960256D01*
X90382063Y-78129774D01*
X90426001Y-78173712D01*
X90426000Y-90736289D01*
X90382063Y-90780226D01*
X90268795Y-90949744D01*
X90190774Y-91138102D01*
X90151000Y-91338061D01*
X90151000Y-91541939D01*
X90190774Y-91741898D01*
X90268795Y-91930256D01*
X90382063Y-92099774D01*
X90426001Y-92143712D01*
X90426000Y-93942667D01*
X90426000Y-94196667D01*
X90422323Y-94234000D01*
X90426001Y-94271343D01*
X90426000Y-117914289D01*
X90382063Y-117958226D01*
X90268795Y-118127744D01*
X90190774Y-118316102D01*
X90151000Y-118516061D01*
X90151000Y-118719939D01*
X90190774Y-118919898D01*
X90268795Y-119108256D01*
X90382063Y-119277774D01*
X90526226Y-119421937D01*
X90695744Y-119535205D01*
X90884102Y-119613226D01*
X91084061Y-119653000D01*
X91287939Y-119653000D01*
X91487898Y-119613226D01*
X91676256Y-119535205D01*
X91845774Y-119421937D01*
X91989937Y-119277774D01*
X92052501Y-119184140D01*
X92075026Y-119226280D01*
X92117287Y-119277774D01*
X92170000Y-119342005D01*
X92198998Y-119365803D01*
X97640203Y-124807010D01*
X97663997Y-124836003D01*
X97692990Y-124859797D01*
X97692994Y-124859801D01*
X97763683Y-124917813D01*
X97779722Y-124930976D01*
X97911751Y-125001548D01*
X98055012Y-125045005D01*
X98166665Y-125056002D01*
X98166674Y-125056002D01*
X98203997Y-125059678D01*
X98241320Y-125056002D01*
X98524199Y-125056002D01*
X102348196Y-128880000D01*
X76860000Y-128880000D01*
X76860000Y-124239872D01*
X79045000Y-124239872D01*
X79045000Y-124680128D01*
X79130890Y-125111925D01*
X79299369Y-125518669D01*
X79543962Y-125884729D01*
X79855271Y-126196038D01*
X80221331Y-126440631D01*
X80628075Y-126609110D01*
X81059872Y-126695000D01*
X81500128Y-126695000D01*
X81931925Y-126609110D01*
X82338669Y-126440631D01*
X82704729Y-126196038D01*
X83016038Y-125884729D01*
X83260631Y-125518669D01*
X83429110Y-125111925D01*
X83515000Y-124680128D01*
X83515000Y-124239872D01*
X83429110Y-123808075D01*
X83260631Y-123401331D01*
X83016038Y-123035271D01*
X82704729Y-122723962D01*
X82338669Y-122479369D01*
X81931925Y-122310890D01*
X81500128Y-122225000D01*
X81059872Y-122225000D01*
X80628075Y-122310890D01*
X80221331Y-122479369D01*
X79855271Y-122723962D01*
X79543962Y-123035271D01*
X79299369Y-123401331D01*
X79130890Y-123808075D01*
X79045000Y-124239872D01*
X76860000Y-124239872D01*
X76860000Y-73513740D01*
X79795000Y-73513740D01*
X79795000Y-73806260D01*
X79852068Y-74093158D01*
X79964010Y-74363411D01*
X80126525Y-74606632D01*
X80333368Y-74813475D01*
X80576589Y-74975990D01*
X80846842Y-75087932D01*
X81133740Y-75145000D01*
X81426260Y-75145000D01*
X81713158Y-75087932D01*
X81983411Y-74975990D01*
X82226632Y-74813475D01*
X82358487Y-74681620D01*
X82380498Y-74754180D01*
X82439463Y-74864494D01*
X82518815Y-74961185D01*
X82615506Y-75040537D01*
X82725820Y-75099502D01*
X82845518Y-75135812D01*
X82970000Y-75148072D01*
X84670000Y-75148072D01*
X84794482Y-75135812D01*
X84914180Y-75099502D01*
X85024494Y-75040537D01*
X85121185Y-74961185D01*
X85200537Y-74864494D01*
X85259502Y-74754180D01*
X85295812Y-74634482D01*
X85308072Y-74510000D01*
X85308072Y-72810000D01*
X85295812Y-72685518D01*
X85259502Y-72565820D01*
X85200537Y-72455506D01*
X85121185Y-72358815D01*
X85024494Y-72279463D01*
X84914180Y-72220498D01*
X84833534Y-72196034D01*
X84917588Y-72120269D01*
X85091641Y-71886920D01*
X85216825Y-71624099D01*
X85261476Y-71476890D01*
X85140155Y-71247000D01*
X83947000Y-71247000D01*
X83947000Y-71267000D01*
X83693000Y-71267000D01*
X83693000Y-71247000D01*
X81407000Y-71247000D01*
X81407000Y-71267000D01*
X81153000Y-71267000D01*
X81153000Y-71247000D01*
X79959845Y-71247000D01*
X79838524Y-71476890D01*
X79883175Y-71624099D01*
X80008359Y-71886920D01*
X80182412Y-72120269D01*
X80398645Y-72315178D01*
X80515534Y-72384805D01*
X80333368Y-72506525D01*
X80126525Y-72713368D01*
X79964010Y-72956589D01*
X79852068Y-73226842D01*
X79795000Y-73513740D01*
X76860000Y-73513740D01*
X76860000Y-68936890D01*
X79838524Y-68936890D01*
X79883175Y-69084099D01*
X80008359Y-69346920D01*
X80182412Y-69580269D01*
X80398645Y-69775178D01*
X80524255Y-69850000D01*
X80398645Y-69924822D01*
X80182412Y-70119731D01*
X80008359Y-70353080D01*
X79883175Y-70615901D01*
X79838524Y-70763110D01*
X79959845Y-70993000D01*
X81153000Y-70993000D01*
X81153000Y-68707000D01*
X81407000Y-68707000D01*
X81407000Y-70993000D01*
X83693000Y-70993000D01*
X83693000Y-68707000D01*
X83947000Y-68707000D01*
X83947000Y-70993000D01*
X85140155Y-70993000D01*
X85261476Y-70763110D01*
X85216825Y-70615901D01*
X85091641Y-70353080D01*
X84917588Y-70119731D01*
X84701355Y-69924822D01*
X84575745Y-69850000D01*
X84701355Y-69775178D01*
X84917588Y-69580269D01*
X85091641Y-69346920D01*
X85216825Y-69084099D01*
X85261476Y-68936890D01*
X85140155Y-68707000D01*
X83947000Y-68707000D01*
X83693000Y-68707000D01*
X81407000Y-68707000D01*
X81153000Y-68707000D01*
X79959845Y-68707000D01*
X79838524Y-68936890D01*
X76860000Y-68936890D01*
X76860000Y-66396890D01*
X79838524Y-66396890D01*
X79883175Y-66544099D01*
X80008359Y-66806920D01*
X80182412Y-67040269D01*
X80398645Y-67235178D01*
X80524255Y-67310000D01*
X80398645Y-67384822D01*
X80182412Y-67579731D01*
X80008359Y-67813080D01*
X79883175Y-68075901D01*
X79838524Y-68223110D01*
X79959845Y-68453000D01*
X81153000Y-68453000D01*
X81153000Y-66167000D01*
X81407000Y-66167000D01*
X81407000Y-68453000D01*
X83693000Y-68453000D01*
X83693000Y-66167000D01*
X83947000Y-66167000D01*
X83947000Y-68453000D01*
X85140155Y-68453000D01*
X85261476Y-68223110D01*
X85216825Y-68075901D01*
X85091641Y-67813080D01*
X84917588Y-67579731D01*
X84701355Y-67384822D01*
X84575745Y-67310000D01*
X84701355Y-67235178D01*
X84917588Y-67040269D01*
X85091641Y-66806920D01*
X85216825Y-66544099D01*
X85261476Y-66396890D01*
X85140155Y-66167000D01*
X83947000Y-66167000D01*
X83693000Y-66167000D01*
X81407000Y-66167000D01*
X81153000Y-66167000D01*
X79959845Y-66167000D01*
X79838524Y-66396890D01*
X76860000Y-66396890D01*
X76860000Y-63353740D01*
X79795000Y-63353740D01*
X79795000Y-63646260D01*
X79852068Y-63933158D01*
X79964010Y-64203411D01*
X80126525Y-64446632D01*
X80333368Y-64653475D01*
X80515534Y-64775195D01*
X80398645Y-64844822D01*
X80182412Y-65039731D01*
X80008359Y-65273080D01*
X79883175Y-65535901D01*
X79838524Y-65683110D01*
X79959845Y-65913000D01*
X81153000Y-65913000D01*
X81153000Y-65893000D01*
X81407000Y-65893000D01*
X81407000Y-65913000D01*
X83693000Y-65913000D01*
X83693000Y-65893000D01*
X83947000Y-65893000D01*
X83947000Y-65913000D01*
X85140155Y-65913000D01*
X85261476Y-65683110D01*
X85216825Y-65535901D01*
X85091641Y-65273080D01*
X85090496Y-65271544D01*
X93895000Y-65271544D01*
X93895000Y-65538456D01*
X93947072Y-65800239D01*
X94049215Y-66046833D01*
X94197503Y-66268762D01*
X94386238Y-66457497D01*
X94608167Y-66605785D01*
X94854761Y-66707928D01*
X95116544Y-66760000D01*
X95383456Y-66760000D01*
X95645239Y-66707928D01*
X95891833Y-66605785D01*
X96113762Y-66457497D01*
X96302497Y-66268762D01*
X96450785Y-66046833D01*
X96520000Y-65879734D01*
X96589215Y-66046833D01*
X96737503Y-66268762D01*
X96926238Y-66457497D01*
X97148167Y-66605785D01*
X97394761Y-66707928D01*
X97656544Y-66760000D01*
X97923456Y-66760000D01*
X98185239Y-66707928D01*
X98431833Y-66605785D01*
X98653762Y-66457497D01*
X98842497Y-66268762D01*
X98990785Y-66046833D01*
X99060000Y-65879734D01*
X99129215Y-66046833D01*
X99277503Y-66268762D01*
X99466238Y-66457497D01*
X99688167Y-66605785D01*
X99934761Y-66707928D01*
X100196544Y-66760000D01*
X100463456Y-66760000D01*
X100725239Y-66707928D01*
X100971833Y-66605785D01*
X101193762Y-66457497D01*
X101382497Y-66268762D01*
X101530785Y-66046833D01*
X101632928Y-65800239D01*
X101685000Y-65538456D01*
X101685000Y-65271544D01*
X115485000Y-65271544D01*
X115485000Y-65538456D01*
X115537072Y-65800239D01*
X115639215Y-66046833D01*
X115787503Y-66268762D01*
X115976238Y-66457497D01*
X116198167Y-66605785D01*
X116444761Y-66707928D01*
X116706544Y-66760000D01*
X116973456Y-66760000D01*
X117235239Y-66707928D01*
X117481833Y-66605785D01*
X117703762Y-66457497D01*
X117892497Y-66268762D01*
X118040785Y-66046833D01*
X118110000Y-65879734D01*
X118179215Y-66046833D01*
X118327503Y-66268762D01*
X118516238Y-66457497D01*
X118738167Y-66605785D01*
X118984761Y-66707928D01*
X119246544Y-66760000D01*
X119513456Y-66760000D01*
X119775239Y-66707928D01*
X120021833Y-66605785D01*
X120243762Y-66457497D01*
X120432497Y-66268762D01*
X120580785Y-66046833D01*
X120650000Y-65879734D01*
X120719215Y-66046833D01*
X120867503Y-66268762D01*
X121056238Y-66457497D01*
X121160001Y-66526829D01*
X121160000Y-69789198D01*
X117598998Y-73350201D01*
X117570000Y-73373999D01*
X117546202Y-73402997D01*
X117546201Y-73402998D01*
X117475026Y-73489724D01*
X117404454Y-73621754D01*
X117392853Y-73660000D01*
X117360998Y-73765014D01*
X117356405Y-73811643D01*
X117346324Y-73914000D01*
X117350001Y-73951332D01*
X117350000Y-76766289D01*
X117306063Y-76810226D01*
X117192795Y-76979744D01*
X117114774Y-77168102D01*
X117075000Y-77368061D01*
X117075000Y-77571939D01*
X117114774Y-77771898D01*
X117192795Y-77960256D01*
X117306063Y-78129774D01*
X117450226Y-78273937D01*
X117619744Y-78387205D01*
X117808102Y-78465226D01*
X118008061Y-78505000D01*
X118211939Y-78505000D01*
X118411898Y-78465226D01*
X118600256Y-78387205D01*
X118769774Y-78273937D01*
X118913937Y-78129774D01*
X119027205Y-77960256D01*
X119105226Y-77771898D01*
X119145000Y-77571939D01*
X119145000Y-77368061D01*
X119105226Y-77168102D01*
X119027205Y-76979744D01*
X118913937Y-76810226D01*
X118870000Y-76766289D01*
X118870000Y-74228801D01*
X122431004Y-70667798D01*
X122460001Y-70644001D01*
X122554974Y-70528276D01*
X122625546Y-70396247D01*
X122669003Y-70252986D01*
X122680000Y-70141333D01*
X122680000Y-70141325D01*
X122683676Y-70104000D01*
X122680000Y-70066675D01*
X122680000Y-67239801D01*
X124531201Y-69091003D01*
X124554999Y-69120001D01*
X124583997Y-69143799D01*
X124670723Y-69214974D01*
X124798759Y-69283411D01*
X124802753Y-69285546D01*
X124946014Y-69329003D01*
X125057667Y-69340000D01*
X125057676Y-69340000D01*
X125094999Y-69343676D01*
X125132322Y-69340000D01*
X128261822Y-69340000D01*
X128386525Y-69526632D01*
X128593368Y-69733475D01*
X128775534Y-69855195D01*
X128658645Y-69924822D01*
X128442412Y-70119731D01*
X128268359Y-70353080D01*
X128143175Y-70615901D01*
X128098524Y-70763110D01*
X128219845Y-70993000D01*
X129413000Y-70993000D01*
X129413000Y-70973000D01*
X129667000Y-70973000D01*
X129667000Y-70993000D01*
X130860155Y-70993000D01*
X130981476Y-70763110D01*
X130936825Y-70615901D01*
X130811641Y-70353080D01*
X130637588Y-70119731D01*
X130421355Y-69924822D01*
X130304466Y-69855195D01*
X130486632Y-69733475D01*
X130693475Y-69526632D01*
X130855990Y-69283411D01*
X130967932Y-69013158D01*
X131025000Y-68726260D01*
X131025000Y-68433740D01*
X130967932Y-68146842D01*
X130855990Y-67876589D01*
X130693475Y-67633368D01*
X130486632Y-67426525D01*
X130312240Y-67310000D01*
X130486632Y-67193475D01*
X130693475Y-66986632D01*
X130855990Y-66743411D01*
X130967932Y-66473158D01*
X131025000Y-66186260D01*
X131025000Y-65893740D01*
X130967932Y-65606842D01*
X130855990Y-65336589D01*
X130693475Y-65093368D01*
X130561620Y-64961513D01*
X130634180Y-64939502D01*
X130744494Y-64880537D01*
X130841185Y-64801185D01*
X130920537Y-64704494D01*
X130979502Y-64594180D01*
X131015812Y-64474482D01*
X131028072Y-64350000D01*
X131028072Y-62650000D01*
X131015812Y-62525518D01*
X130979502Y-62405820D01*
X130920537Y-62295506D01*
X130841185Y-62198815D01*
X130744494Y-62119463D01*
X130634180Y-62060498D01*
X130514482Y-62024188D01*
X130390000Y-62011928D01*
X128690000Y-62011928D01*
X128565518Y-62024188D01*
X128445820Y-62060498D01*
X128335506Y-62119463D01*
X128238815Y-62198815D01*
X128159463Y-62295506D01*
X128100498Y-62405820D01*
X128064188Y-62525518D01*
X128051928Y-62650000D01*
X128051928Y-64350000D01*
X128064188Y-64474482D01*
X128100498Y-64594180D01*
X128159463Y-64704494D01*
X128238815Y-64801185D01*
X128335506Y-64880537D01*
X128445820Y-64939502D01*
X128518380Y-64961513D01*
X128386525Y-65093368D01*
X128224010Y-65336589D01*
X128112068Y-65606842D01*
X128055000Y-65893740D01*
X128055000Y-66186260D01*
X128112068Y-66473158D01*
X128224010Y-66743411D01*
X128386525Y-66986632D01*
X128593368Y-67193475D01*
X128767760Y-67310000D01*
X128593368Y-67426525D01*
X128386525Y-67633368D01*
X128261822Y-67820000D01*
X125409802Y-67820000D01*
X123250654Y-65660853D01*
X123275000Y-65538456D01*
X123275000Y-65271544D01*
X123222928Y-65009761D01*
X123120785Y-64763167D01*
X122972497Y-64541238D01*
X122783762Y-64352503D01*
X122561833Y-64204215D01*
X122315239Y-64102072D01*
X122053456Y-64050000D01*
X121786544Y-64050000D01*
X121524761Y-64102072D01*
X121278167Y-64204215D01*
X121056238Y-64352503D01*
X120867503Y-64541238D01*
X120719215Y-64763167D01*
X120650000Y-64930266D01*
X120580785Y-64763167D01*
X120432497Y-64541238D01*
X120243762Y-64352503D01*
X120021833Y-64204215D01*
X119775239Y-64102072D01*
X119513456Y-64050000D01*
X119246544Y-64050000D01*
X118984761Y-64102072D01*
X118738167Y-64204215D01*
X118516238Y-64352503D01*
X118327503Y-64541238D01*
X118179215Y-64763167D01*
X118110000Y-64930266D01*
X118040785Y-64763167D01*
X117892497Y-64541238D01*
X117703762Y-64352503D01*
X117481833Y-64204215D01*
X117235239Y-64102072D01*
X116973456Y-64050000D01*
X116706544Y-64050000D01*
X116444761Y-64102072D01*
X116198167Y-64204215D01*
X115976238Y-64352503D01*
X115787503Y-64541238D01*
X115639215Y-64763167D01*
X115537072Y-65009761D01*
X115485000Y-65271544D01*
X101685000Y-65271544D01*
X101632928Y-65009761D01*
X101530785Y-64763167D01*
X101382497Y-64541238D01*
X101193762Y-64352503D01*
X100971833Y-64204215D01*
X100725239Y-64102072D01*
X100463456Y-64050000D01*
X100196544Y-64050000D01*
X99934761Y-64102072D01*
X99688167Y-64204215D01*
X99466238Y-64352503D01*
X99277503Y-64541238D01*
X99129215Y-64763167D01*
X99060000Y-64930266D01*
X98990785Y-64763167D01*
X98842497Y-64541238D01*
X98653762Y-64352503D01*
X98431833Y-64204215D01*
X98185239Y-64102072D01*
X97923456Y-64050000D01*
X97656544Y-64050000D01*
X97394761Y-64102072D01*
X97148167Y-64204215D01*
X96926238Y-64352503D01*
X96737503Y-64541238D01*
X96589215Y-64763167D01*
X96520000Y-64930266D01*
X96450785Y-64763167D01*
X96302497Y-64541238D01*
X96113762Y-64352503D01*
X95891833Y-64204215D01*
X95645239Y-64102072D01*
X95383456Y-64050000D01*
X95116544Y-64050000D01*
X94854761Y-64102072D01*
X94608167Y-64204215D01*
X94386238Y-64352503D01*
X94197503Y-64541238D01*
X94049215Y-64763167D01*
X93947072Y-65009761D01*
X93895000Y-65271544D01*
X85090496Y-65271544D01*
X84917588Y-65039731D01*
X84701355Y-64844822D01*
X84584466Y-64775195D01*
X84766632Y-64653475D01*
X84973475Y-64446632D01*
X85135990Y-64203411D01*
X85247932Y-63933158D01*
X85305000Y-63646260D01*
X85305000Y-63353740D01*
X85247932Y-63066842D01*
X85135990Y-62796589D01*
X84973475Y-62553368D01*
X84766632Y-62346525D01*
X84523411Y-62184010D01*
X84253158Y-62072068D01*
X83966260Y-62015000D01*
X83673740Y-62015000D01*
X83386842Y-62072068D01*
X83116589Y-62184010D01*
X82873368Y-62346525D01*
X82666525Y-62553368D01*
X82591935Y-62665000D01*
X82508065Y-62665000D01*
X82433475Y-62553368D01*
X82226632Y-62346525D01*
X81983411Y-62184010D01*
X81713158Y-62072068D01*
X81426260Y-62015000D01*
X81133740Y-62015000D01*
X80846842Y-62072068D01*
X80576589Y-62184010D01*
X80333368Y-62346525D01*
X80126525Y-62553368D01*
X79964010Y-62796589D01*
X79852068Y-63066842D01*
X79795000Y-63353740D01*
X76860000Y-63353740D01*
X76860000Y-58258967D01*
X92345000Y-58258967D01*
X92345000Y-58581033D01*
X92407832Y-58896912D01*
X92531082Y-59194463D01*
X92710013Y-59462252D01*
X92937748Y-59689987D01*
X93205537Y-59868918D01*
X93503088Y-59992168D01*
X93818967Y-60055000D01*
X94141033Y-60055000D01*
X94456912Y-59992168D01*
X94754463Y-59868918D01*
X95022252Y-59689987D01*
X95249987Y-59462252D01*
X95428918Y-59194463D01*
X95552168Y-58896912D01*
X95615000Y-58581033D01*
X95615000Y-58258967D01*
X101235000Y-58258967D01*
X101235000Y-58581033D01*
X101297832Y-58896912D01*
X101421082Y-59194463D01*
X101600013Y-59462252D01*
X101827748Y-59689987D01*
X102095537Y-59868918D01*
X102393088Y-59992168D01*
X102708967Y-60055000D01*
X103031033Y-60055000D01*
X103346912Y-59992168D01*
X103644463Y-59868918D01*
X103912252Y-59689987D01*
X104139987Y-59462252D01*
X104318918Y-59194463D01*
X104442168Y-58896912D01*
X104505000Y-58581033D01*
X104505000Y-58258967D01*
X104442168Y-57943088D01*
X104318918Y-57645537D01*
X104139987Y-57377748D01*
X103912252Y-57150013D01*
X103644463Y-56971082D01*
X103346912Y-56847832D01*
X103031033Y-56785000D01*
X102708967Y-56785000D01*
X102393088Y-56847832D01*
X102095537Y-56971082D01*
X101827748Y-57150013D01*
X101600013Y-57377748D01*
X101421082Y-57645537D01*
X101297832Y-57943088D01*
X101235000Y-58258967D01*
X95615000Y-58258967D01*
X95552168Y-57943088D01*
X95428918Y-57645537D01*
X95249987Y-57377748D01*
X95022252Y-57150013D01*
X94754463Y-56971082D01*
X94456912Y-56847832D01*
X94141033Y-56785000D01*
X93818967Y-56785000D01*
X93503088Y-56847832D01*
X93205537Y-56971082D01*
X92937748Y-57150013D01*
X92710013Y-57377748D01*
X92531082Y-57645537D01*
X92407832Y-57943088D01*
X92345000Y-58258967D01*
X76860000Y-58258967D01*
X76860000Y-55659872D01*
X79045000Y-55659872D01*
X79045000Y-56100128D01*
X79130890Y-56531925D01*
X79299369Y-56938669D01*
X79543962Y-57304729D01*
X79855271Y-57616038D01*
X80221331Y-57860631D01*
X80628075Y-58029110D01*
X81059872Y-58115000D01*
X81500128Y-58115000D01*
X81931925Y-58029110D01*
X82338669Y-57860631D01*
X82704729Y-57616038D01*
X83016038Y-57304729D01*
X83260631Y-56938669D01*
X83429110Y-56531925D01*
X83515000Y-56100128D01*
X83515000Y-55659872D01*
X83429110Y-55228075D01*
X83260631Y-54821331D01*
X83016038Y-54455271D01*
X82704729Y-54143962D01*
X82338669Y-53899369D01*
X81931925Y-53730890D01*
X81500128Y-53645000D01*
X81059872Y-53645000D01*
X80628075Y-53730890D01*
X80221331Y-53899369D01*
X79855271Y-54143962D01*
X79543962Y-54455271D01*
X79299369Y-54821331D01*
X79130890Y-55228075D01*
X79045000Y-55659872D01*
X76860000Y-55659872D01*
X76860000Y-51460000D01*
X131420000Y-51460000D01*
X131420000Y-73263118D01*
G36*
X129667000Y-124968000D02*
G01*
X129687000Y-124968000D01*
X129687000Y-125222000D01*
X129667000Y-125222000D01*
X129667000Y-126415155D01*
X129896890Y-126536476D01*
X129965546Y-126515651D01*
X128463199Y-128018000D01*
X125151801Y-128018000D01*
X126633592Y-126536210D01*
X126853740Y-126580000D01*
X127146260Y-126580000D01*
X127433158Y-126522932D01*
X127703411Y-126410990D01*
X127946632Y-126248475D01*
X128153475Y-126041632D01*
X128275195Y-125859466D01*
X128344822Y-125976355D01*
X128539731Y-126192588D01*
X128773080Y-126366641D01*
X129035901Y-126491825D01*
X129183110Y-126536476D01*
X129413000Y-126415155D01*
X129413000Y-125222000D01*
X129393000Y-125222000D01*
X129393000Y-124968000D01*
X129413000Y-124968000D01*
X129413000Y-124948000D01*
X129667000Y-124948000D01*
X129667000Y-124968000D01*
G37*
X129667000Y-124968000D02*
X129687000Y-124968000D01*
X129687000Y-125222000D01*
X129667000Y-125222000D01*
X129667000Y-126415155D01*
X129896890Y-126536476D01*
X129965546Y-126515651D01*
X128463199Y-128018000D01*
X125151801Y-128018000D01*
X126633592Y-126536210D01*
X126853740Y-126580000D01*
X127146260Y-126580000D01*
X127433158Y-126522932D01*
X127703411Y-126410990D01*
X127946632Y-126248475D01*
X128153475Y-126041632D01*
X128275195Y-125859466D01*
X128344822Y-125976355D01*
X128539731Y-126192588D01*
X128773080Y-126366641D01*
X129035901Y-126491825D01*
X129183110Y-126536476D01*
X129413000Y-126415155D01*
X129413000Y-125222000D01*
X129393000Y-125222000D01*
X129393000Y-124968000D01*
X129413000Y-124968000D01*
X129413000Y-124948000D01*
X129667000Y-124948000D01*
X129667000Y-124968000D01*
G36*
X104157744Y-112677205D02*
G01*
X104346102Y-112755226D01*
X104546061Y-112795000D01*
X104749939Y-112795000D01*
X104949898Y-112755226D01*
X105138256Y-112677205D01*
X105165220Y-112659188D01*
X105137000Y-112801061D01*
X105137000Y-113004939D01*
X105176774Y-113204898D01*
X105254795Y-113393256D01*
X105368063Y-113562774D01*
X105412000Y-113606711D01*
X105412000Y-114066363D01*
X105408324Y-114103685D01*
X105412000Y-114141007D01*
X105412000Y-114141017D01*
X105422997Y-114252670D01*
X105466454Y-114395931D01*
X105537026Y-114527961D01*
X105576871Y-114576511D01*
X105631999Y-114643686D01*
X105661003Y-114667489D01*
X119011513Y-128018000D01*
X103635800Y-128018000D01*
X99454190Y-123836391D01*
X99615898Y-123804226D01*
X99804256Y-123726205D01*
X99973774Y-123612937D01*
X100017711Y-123569000D01*
X108293678Y-123569000D01*
X108331000Y-123572676D01*
X108368322Y-123569000D01*
X108368333Y-123569000D01*
X108479986Y-123558003D01*
X108623247Y-123514546D01*
X108755276Y-123443974D01*
X108871001Y-123349001D01*
X108894803Y-123319998D01*
X109894802Y-122320000D01*
X109956939Y-122320000D01*
X110156898Y-122280226D01*
X110345256Y-122202205D01*
X110514774Y-122088937D01*
X110658937Y-121944774D01*
X110772205Y-121775256D01*
X110850226Y-121586898D01*
X110890000Y-121386939D01*
X110890000Y-121183061D01*
X110850226Y-120983102D01*
X110772205Y-120794744D01*
X110658937Y-120625226D01*
X110514774Y-120481063D01*
X110345256Y-120367795D01*
X110156898Y-120289774D01*
X109956939Y-120250000D01*
X109753061Y-120250000D01*
X109553102Y-120289774D01*
X109364744Y-120367795D01*
X109195226Y-120481063D01*
X109051063Y-120625226D01*
X108937795Y-120794744D01*
X108859774Y-120983102D01*
X108820000Y-121183061D01*
X108820000Y-121245198D01*
X108016199Y-122049000D01*
X100017711Y-122049000D01*
X99973774Y-122005063D01*
X99804256Y-121891795D01*
X99615898Y-121813774D01*
X99415939Y-121774000D01*
X99212061Y-121774000D01*
X99012102Y-121813774D01*
X98823744Y-121891795D01*
X98654226Y-122005063D01*
X98510063Y-122149226D01*
X98396795Y-122318744D01*
X98318774Y-122507102D01*
X98279000Y-122707061D01*
X98279000Y-122910939D01*
X98318774Y-123110898D01*
X98396795Y-123299256D01*
X98510063Y-123468774D01*
X98577291Y-123536002D01*
X98518801Y-123536002D01*
X93470000Y-118487203D01*
X93470000Y-113811000D01*
X93573933Y-113811000D01*
X93773892Y-113771226D01*
X93962250Y-113693205D01*
X94131768Y-113579937D01*
X94275931Y-113435774D01*
X94389199Y-113266256D01*
X94467220Y-113077898D01*
X94477145Y-113028000D01*
X103213678Y-113028000D01*
X103251000Y-113031676D01*
X103288322Y-113028000D01*
X103288333Y-113028000D01*
X103399986Y-113017003D01*
X103543247Y-112973546D01*
X103675276Y-112902974D01*
X103791001Y-112808001D01*
X103814803Y-112778998D01*
X104013186Y-112580615D01*
X104157744Y-112677205D01*
G37*
X104157744Y-112677205D02*
X104346102Y-112755226D01*
X104546061Y-112795000D01*
X104749939Y-112795000D01*
X104949898Y-112755226D01*
X105138256Y-112677205D01*
X105165220Y-112659188D01*
X105137000Y-112801061D01*
X105137000Y-113004939D01*
X105176774Y-113204898D01*
X105254795Y-113393256D01*
X105368063Y-113562774D01*
X105412000Y-113606711D01*
X105412000Y-114066363D01*
X105408324Y-114103685D01*
X105412000Y-114141007D01*
X105412000Y-114141017D01*
X105422997Y-114252670D01*
X105466454Y-114395931D01*
X105537026Y-114527961D01*
X105576871Y-114576511D01*
X105631999Y-114643686D01*
X105661003Y-114667489D01*
X119011513Y-128018000D01*
X103635800Y-128018000D01*
X99454190Y-123836391D01*
X99615898Y-123804226D01*
X99804256Y-123726205D01*
X99973774Y-123612937D01*
X100017711Y-123569000D01*
X108293678Y-123569000D01*
X108331000Y-123572676D01*
X108368322Y-123569000D01*
X108368333Y-123569000D01*
X108479986Y-123558003D01*
X108623247Y-123514546D01*
X108755276Y-123443974D01*
X108871001Y-123349001D01*
X108894803Y-123319998D01*
X109894802Y-122320000D01*
X109956939Y-122320000D01*
X110156898Y-122280226D01*
X110345256Y-122202205D01*
X110514774Y-122088937D01*
X110658937Y-121944774D01*
X110772205Y-121775256D01*
X110850226Y-121586898D01*
X110890000Y-121386939D01*
X110890000Y-121183061D01*
X110850226Y-120983102D01*
X110772205Y-120794744D01*
X110658937Y-120625226D01*
X110514774Y-120481063D01*
X110345256Y-120367795D01*
X110156898Y-120289774D01*
X109956939Y-120250000D01*
X109753061Y-120250000D01*
X109553102Y-120289774D01*
X109364744Y-120367795D01*
X109195226Y-120481063D01*
X109051063Y-120625226D01*
X108937795Y-120794744D01*
X108859774Y-120983102D01*
X108820000Y-121183061D01*
X108820000Y-121245198D01*
X108016199Y-122049000D01*
X100017711Y-122049000D01*
X99973774Y-122005063D01*
X99804256Y-121891795D01*
X99615898Y-121813774D01*
X99415939Y-121774000D01*
X99212061Y-121774000D01*
X99012102Y-121813774D01*
X98823744Y-121891795D01*
X98654226Y-122005063D01*
X98510063Y-122149226D01*
X98396795Y-122318744D01*
X98318774Y-122507102D01*
X98279000Y-122707061D01*
X98279000Y-122910939D01*
X98318774Y-123110898D01*
X98396795Y-123299256D01*
X98510063Y-123468774D01*
X98577291Y-123536002D01*
X98518801Y-123536002D01*
X93470000Y-118487203D01*
X93470000Y-113811000D01*
X93573933Y-113811000D01*
X93773892Y-113771226D01*
X93962250Y-113693205D01*
X94131768Y-113579937D01*
X94275931Y-113435774D01*
X94389199Y-113266256D01*
X94467220Y-113077898D01*
X94477145Y-113028000D01*
X103213678Y-113028000D01*
X103251000Y-113031676D01*
X103288322Y-113028000D01*
X103288333Y-113028000D01*
X103399986Y-113017003D01*
X103543247Y-112973546D01*
X103675276Y-112902974D01*
X103791001Y-112808001D01*
X103814803Y-112778998D01*
X104013186Y-112580615D01*
X104157744Y-112677205D01*
G36*
X127250997Y-108005799D02*
G01*
X127251002Y-108005803D01*
X128098790Y-108853592D01*
X128055000Y-109073740D01*
X128055000Y-109366260D01*
X128112068Y-109653158D01*
X128224010Y-109923411D01*
X128386525Y-110166632D01*
X128593368Y-110373475D01*
X128767760Y-110490000D01*
X128593368Y-110606525D01*
X128386525Y-110813368D01*
X128224010Y-111056589D01*
X128112068Y-111326842D01*
X128055000Y-111613740D01*
X128055000Y-111906260D01*
X128112068Y-112193158D01*
X128224010Y-112463411D01*
X128386525Y-112706632D01*
X128593368Y-112913475D01*
X128775534Y-113035195D01*
X128658645Y-113104822D01*
X128442412Y-113299731D01*
X128268359Y-113533080D01*
X128143175Y-113795901D01*
X128098524Y-113943110D01*
X128219845Y-114173000D01*
X129413000Y-114173000D01*
X129413000Y-114153000D01*
X129667000Y-114153000D01*
X129667000Y-114173000D01*
X129687000Y-114173000D01*
X129687000Y-114427000D01*
X129667000Y-114427000D01*
X129667000Y-114447000D01*
X129413000Y-114447000D01*
X129413000Y-114427000D01*
X128219845Y-114427000D01*
X128098524Y-114656890D01*
X128143175Y-114804099D01*
X128268359Y-115066920D01*
X128442412Y-115300269D01*
X128658645Y-115495178D01*
X128775534Y-115564805D01*
X128593368Y-115686525D01*
X128386525Y-115893368D01*
X128224010Y-116136589D01*
X128112068Y-116406842D01*
X128055000Y-116693740D01*
X128055000Y-116986260D01*
X128112068Y-117273158D01*
X128224010Y-117543411D01*
X128386525Y-117786632D01*
X128593368Y-117993475D01*
X128836589Y-118155990D01*
X129106842Y-118267932D01*
X129393740Y-118325000D01*
X129686260Y-118325000D01*
X129973158Y-118267932D01*
X130243411Y-118155990D01*
X130486632Y-117993475D01*
X130693475Y-117786632D01*
X130816125Y-117603073D01*
X130847322Y-117600000D01*
X130847333Y-117600000D01*
X130958986Y-117589003D01*
X131102247Y-117545546D01*
X131234276Y-117474974D01*
X131350001Y-117380001D01*
X131373803Y-117350998D01*
X131420001Y-117304800D01*
X131420001Y-123487199D01*
X130865804Y-122933002D01*
X130842001Y-122903999D01*
X130726276Y-122809026D01*
X130594247Y-122738454D01*
X130450986Y-122694997D01*
X130339333Y-122684000D01*
X130339322Y-122684000D01*
X130302000Y-122680324D01*
X130264678Y-122684000D01*
X126148322Y-122684000D01*
X126110999Y-122680324D01*
X126073676Y-122684000D01*
X126073667Y-122684000D01*
X125962014Y-122694997D01*
X125818753Y-122738454D01*
X125686724Y-122809026D01*
X125686722Y-122809027D01*
X125686723Y-122809027D01*
X125599996Y-122880201D01*
X125599992Y-122880205D01*
X125570999Y-122903999D01*
X125547205Y-122932992D01*
X124826408Y-123653791D01*
X124606260Y-123610000D01*
X124313740Y-123610000D01*
X124026842Y-123667068D01*
X123756589Y-123779010D01*
X123513368Y-123941525D01*
X123306525Y-124148368D01*
X123190000Y-124322760D01*
X123073475Y-124148368D01*
X122866632Y-123941525D01*
X122680000Y-123816822D01*
X122680000Y-115861322D01*
X122683676Y-115823999D01*
X122680000Y-115786676D01*
X122680000Y-115786667D01*
X122669003Y-115675014D01*
X122625546Y-115531753D01*
X122605996Y-115495178D01*
X122554974Y-115399723D01*
X122483799Y-115312997D01*
X122460001Y-115283999D01*
X122431003Y-115260201D01*
X117678857Y-110508056D01*
X117714761Y-110522928D01*
X117976544Y-110575000D01*
X118243456Y-110575000D01*
X118505239Y-110522928D01*
X118751833Y-110420785D01*
X118973762Y-110272497D01*
X119162497Y-110083762D01*
X119310785Y-109861833D01*
X119380000Y-109694734D01*
X119449215Y-109861833D01*
X119597503Y-110083762D01*
X119786238Y-110272497D01*
X120008167Y-110420785D01*
X120254761Y-110522928D01*
X120516544Y-110575000D01*
X120783456Y-110575000D01*
X121045239Y-110522928D01*
X121291833Y-110420785D01*
X121513762Y-110272497D01*
X121702497Y-110083762D01*
X121850785Y-109861833D01*
X121952928Y-109615239D01*
X122005000Y-109353456D01*
X122005000Y-109086544D01*
X121952928Y-108824761D01*
X121850785Y-108578167D01*
X121702497Y-108356238D01*
X121513762Y-108167503D01*
X121291833Y-108019215D01*
X121045239Y-107917072D01*
X120783456Y-107865000D01*
X120516544Y-107865000D01*
X120254761Y-107917072D01*
X120008167Y-108019215D01*
X119786238Y-108167503D01*
X119597503Y-108356238D01*
X119449215Y-108578167D01*
X119380000Y-108745266D01*
X119310785Y-108578167D01*
X119162497Y-108356238D01*
X118973762Y-108167503D01*
X118751833Y-108019215D01*
X118505239Y-107917072D01*
X118243456Y-107865000D01*
X117976544Y-107865000D01*
X117714761Y-107917072D01*
X117468167Y-108019215D01*
X117246238Y-108167503D01*
X117057503Y-108356238D01*
X116909215Y-108578167D01*
X116840000Y-108745266D01*
X116770785Y-108578167D01*
X116622497Y-108356238D01*
X116433762Y-108167503D01*
X116211833Y-108019215D01*
X115965239Y-107917072D01*
X115703456Y-107865000D01*
X115436544Y-107865000D01*
X115174761Y-107917072D01*
X114928167Y-108019215D01*
X114706238Y-108167503D01*
X114517503Y-108356238D01*
X114369215Y-108578167D01*
X114267072Y-108824761D01*
X114215000Y-109086544D01*
X114215000Y-109353456D01*
X114267072Y-109615239D01*
X114314608Y-109730000D01*
X109534802Y-109730000D01*
X108964000Y-109159199D01*
X108964000Y-107584013D01*
X108983744Y-107597205D01*
X109172102Y-107675226D01*
X109372061Y-107715000D01*
X109575939Y-107715000D01*
X109775898Y-107675226D01*
X109964256Y-107597205D01*
X110133774Y-107483937D01*
X110177711Y-107440000D01*
X126685199Y-107440000D01*
X127250997Y-108005799D01*
G37*
X127250997Y-108005799D02*
X127251002Y-108005803D01*
X128098790Y-108853592D01*
X128055000Y-109073740D01*
X128055000Y-109366260D01*
X128112068Y-109653158D01*
X128224010Y-109923411D01*
X128386525Y-110166632D01*
X128593368Y-110373475D01*
X128767760Y-110490000D01*
X128593368Y-110606525D01*
X128386525Y-110813368D01*
X128224010Y-111056589D01*
X128112068Y-111326842D01*
X128055000Y-111613740D01*
X128055000Y-111906260D01*
X128112068Y-112193158D01*
X128224010Y-112463411D01*
X128386525Y-112706632D01*
X128593368Y-112913475D01*
X128775534Y-113035195D01*
X128658645Y-113104822D01*
X128442412Y-113299731D01*
X128268359Y-113533080D01*
X128143175Y-113795901D01*
X128098524Y-113943110D01*
X128219845Y-114173000D01*
X129413000Y-114173000D01*
X129413000Y-114153000D01*
X129667000Y-114153000D01*
X129667000Y-114173000D01*
X129687000Y-114173000D01*
X129687000Y-114427000D01*
X129667000Y-114427000D01*
X129667000Y-114447000D01*
X129413000Y-114447000D01*
X129413000Y-114427000D01*
X128219845Y-114427000D01*
X128098524Y-114656890D01*
X128143175Y-114804099D01*
X128268359Y-115066920D01*
X128442412Y-115300269D01*
X128658645Y-115495178D01*
X128775534Y-115564805D01*
X128593368Y-115686525D01*
X128386525Y-115893368D01*
X128224010Y-116136589D01*
X128112068Y-116406842D01*
X128055000Y-116693740D01*
X128055000Y-116986260D01*
X128112068Y-117273158D01*
X128224010Y-117543411D01*
X128386525Y-117786632D01*
X128593368Y-117993475D01*
X128836589Y-118155990D01*
X129106842Y-118267932D01*
X129393740Y-118325000D01*
X129686260Y-118325000D01*
X129973158Y-118267932D01*
X130243411Y-118155990D01*
X130486632Y-117993475D01*
X130693475Y-117786632D01*
X130816125Y-117603073D01*
X130847322Y-117600000D01*
X130847333Y-117600000D01*
X130958986Y-117589003D01*
X131102247Y-117545546D01*
X131234276Y-117474974D01*
X131350001Y-117380001D01*
X131373803Y-117350998D01*
X131420001Y-117304800D01*
X131420001Y-123487199D01*
X130865804Y-122933002D01*
X130842001Y-122903999D01*
X130726276Y-122809026D01*
X130594247Y-122738454D01*
X130450986Y-122694997D01*
X130339333Y-122684000D01*
X130339322Y-122684000D01*
X130302000Y-122680324D01*
X130264678Y-122684000D01*
X126148322Y-122684000D01*
X126110999Y-122680324D01*
X126073676Y-122684000D01*
X126073667Y-122684000D01*
X125962014Y-122694997D01*
X125818753Y-122738454D01*
X125686724Y-122809026D01*
X125686722Y-122809027D01*
X125686723Y-122809027D01*
X125599996Y-122880201D01*
X125599992Y-122880205D01*
X125570999Y-122903999D01*
X125547205Y-122932992D01*
X124826408Y-123653791D01*
X124606260Y-123610000D01*
X124313740Y-123610000D01*
X124026842Y-123667068D01*
X123756589Y-123779010D01*
X123513368Y-123941525D01*
X123306525Y-124148368D01*
X123190000Y-124322760D01*
X123073475Y-124148368D01*
X122866632Y-123941525D01*
X122680000Y-123816822D01*
X122680000Y-115861322D01*
X122683676Y-115823999D01*
X122680000Y-115786676D01*
X122680000Y-115786667D01*
X122669003Y-115675014D01*
X122625546Y-115531753D01*
X122605996Y-115495178D01*
X122554974Y-115399723D01*
X122483799Y-115312997D01*
X122460001Y-115283999D01*
X122431003Y-115260201D01*
X117678857Y-110508056D01*
X117714761Y-110522928D01*
X117976544Y-110575000D01*
X118243456Y-110575000D01*
X118505239Y-110522928D01*
X118751833Y-110420785D01*
X118973762Y-110272497D01*
X119162497Y-110083762D01*
X119310785Y-109861833D01*
X119380000Y-109694734D01*
X119449215Y-109861833D01*
X119597503Y-110083762D01*
X119786238Y-110272497D01*
X120008167Y-110420785D01*
X120254761Y-110522928D01*
X120516544Y-110575000D01*
X120783456Y-110575000D01*
X121045239Y-110522928D01*
X121291833Y-110420785D01*
X121513762Y-110272497D01*
X121702497Y-110083762D01*
X121850785Y-109861833D01*
X121952928Y-109615239D01*
X122005000Y-109353456D01*
X122005000Y-109086544D01*
X121952928Y-108824761D01*
X121850785Y-108578167D01*
X121702497Y-108356238D01*
X121513762Y-108167503D01*
X121291833Y-108019215D01*
X121045239Y-107917072D01*
X120783456Y-107865000D01*
X120516544Y-107865000D01*
X120254761Y-107917072D01*
X120008167Y-108019215D01*
X119786238Y-108167503D01*
X119597503Y-108356238D01*
X119449215Y-108578167D01*
X119380000Y-108745266D01*
X119310785Y-108578167D01*
X119162497Y-108356238D01*
X118973762Y-108167503D01*
X118751833Y-108019215D01*
X118505239Y-107917072D01*
X118243456Y-107865000D01*
X117976544Y-107865000D01*
X117714761Y-107917072D01*
X117468167Y-108019215D01*
X117246238Y-108167503D01*
X117057503Y-108356238D01*
X116909215Y-108578167D01*
X116840000Y-108745266D01*
X116770785Y-108578167D01*
X116622497Y-108356238D01*
X116433762Y-108167503D01*
X116211833Y-108019215D01*
X115965239Y-107917072D01*
X115703456Y-107865000D01*
X115436544Y-107865000D01*
X115174761Y-107917072D01*
X114928167Y-108019215D01*
X114706238Y-108167503D01*
X114517503Y-108356238D01*
X114369215Y-108578167D01*
X114267072Y-108824761D01*
X114215000Y-109086544D01*
X114215000Y-109353456D01*
X114267072Y-109615239D01*
X114314608Y-109730000D01*
X109534802Y-109730000D01*
X108964000Y-109159199D01*
X108964000Y-107584013D01*
X108983744Y-107597205D01*
X109172102Y-107675226D01*
X109372061Y-107715000D01*
X109575939Y-107715000D01*
X109775898Y-107675226D01*
X109964256Y-107597205D01*
X110133774Y-107483937D01*
X110177711Y-107440000D01*
X126685199Y-107440000D01*
X127250997Y-108005799D01*
G36*
X128780000Y-104962802D02*
G01*
X128780000Y-105191928D01*
X128690000Y-105191928D01*
X128565518Y-105204188D01*
X128445820Y-105240498D01*
X128335506Y-105299463D01*
X128238815Y-105378815D01*
X128159463Y-105475506D01*
X128100498Y-105585820D01*
X128064188Y-105705518D01*
X128051928Y-105830000D01*
X128051928Y-106657126D01*
X127563803Y-106169002D01*
X127540001Y-106139999D01*
X127424276Y-106045026D01*
X127292247Y-105974454D01*
X127148986Y-105930997D01*
X127037333Y-105920000D01*
X127037322Y-105920000D01*
X127000000Y-105916324D01*
X126962678Y-105920000D01*
X110177711Y-105920000D01*
X110133774Y-105876063D01*
X109964256Y-105762795D01*
X109775898Y-105684774D01*
X109575939Y-105645000D01*
X109372061Y-105645000D01*
X109172102Y-105684774D01*
X108983744Y-105762795D01*
X108964000Y-105775987D01*
X108964000Y-105044013D01*
X108983744Y-105057205D01*
X109172102Y-105135226D01*
X109372061Y-105175000D01*
X109575939Y-105175000D01*
X109775898Y-105135226D01*
X109964256Y-105057205D01*
X110133774Y-104943937D01*
X110177711Y-104900000D01*
X128717199Y-104900000D01*
X128780000Y-104962802D01*
G37*
X128780000Y-104962802D02*
X128780000Y-105191928D01*
X128690000Y-105191928D01*
X128565518Y-105204188D01*
X128445820Y-105240498D01*
X128335506Y-105299463D01*
X128238815Y-105378815D01*
X128159463Y-105475506D01*
X128100498Y-105585820D01*
X128064188Y-105705518D01*
X128051928Y-105830000D01*
X128051928Y-106657126D01*
X127563803Y-106169002D01*
X127540001Y-106139999D01*
X127424276Y-106045026D01*
X127292247Y-105974454D01*
X127148986Y-105930997D01*
X127037333Y-105920000D01*
X127037322Y-105920000D01*
X127000000Y-105916324D01*
X126962678Y-105920000D01*
X110177711Y-105920000D01*
X110133774Y-105876063D01*
X109964256Y-105762795D01*
X109775898Y-105684774D01*
X109575939Y-105645000D01*
X109372061Y-105645000D01*
X109172102Y-105684774D01*
X108983744Y-105762795D01*
X108964000Y-105775987D01*
X108964000Y-105044013D01*
X108983744Y-105057205D01*
X109172102Y-105135226D01*
X109372061Y-105175000D01*
X109575939Y-105175000D01*
X109775898Y-105135226D01*
X109964256Y-105057205D01*
X110133774Y-104943937D01*
X110177711Y-104900000D01*
X128717199Y-104900000D01*
X128780000Y-104962802D01*
G36*
X103395147Y-69431426D02*
G01*
X103340000Y-69708665D01*
X103340000Y-69991335D01*
X103395147Y-70268574D01*
X103503320Y-70529727D01*
X103660363Y-70764759D01*
X103860241Y-70964637D01*
X104092759Y-71120000D01*
X103860241Y-71275363D01*
X103660363Y-71475241D01*
X103556957Y-71630000D01*
X90715325Y-71630000D01*
X90678000Y-71626324D01*
X90640675Y-71630000D01*
X90640667Y-71630000D01*
X90529014Y-71640997D01*
X90385753Y-71684454D01*
X90253724Y-71755026D01*
X90137999Y-71849999D01*
X90114201Y-71878997D01*
X88390000Y-73603199D01*
X88390000Y-70418801D01*
X89468803Y-69340000D01*
X103433017Y-69340000D01*
X103395147Y-69431426D01*
G37*
X103395147Y-69431426D02*
X103340000Y-69708665D01*
X103340000Y-69991335D01*
X103395147Y-70268574D01*
X103503320Y-70529727D01*
X103660363Y-70764759D01*
X103860241Y-70964637D01*
X104092759Y-71120000D01*
X103860241Y-71275363D01*
X103660363Y-71475241D01*
X103556957Y-71630000D01*
X90715325Y-71630000D01*
X90678000Y-71626324D01*
X90640675Y-71630000D01*
X90640667Y-71630000D01*
X90529014Y-71640997D01*
X90385753Y-71684454D01*
X90253724Y-71755026D01*
X90137999Y-71849999D01*
X90114201Y-71878997D01*
X88390000Y-73603199D01*
X88390000Y-70418801D01*
X89468803Y-69340000D01*
X103433017Y-69340000D01*
X103395147Y-69431426D01*
M02*
