G04 #@! TF.GenerationSoftware,KiCad,Pcbnew,5.1.6-c6e7f7d~86~ubuntu18.04.1*
G04 #@! TF.CreationDate,2020-06-20T10:00:21-04:00*
G04 #@! TF.ProjectId,slope_generators,736c6f70-655f-4676-956e-657261746f72,rev?*
G04 #@! TF.SameCoordinates,Original*
G04 #@! TF.FileFunction,Legend,Bot*
G04 #@! TF.FilePolarity,Positive*
%FSLAX46Y46*%
G04 Gerber Fmt 4.6, Leading zero omitted, Abs format (unit mm)*
G04 Created by KiCad (PCBNEW 5.1.6-c6e7f7d~86~ubuntu18.04.1) date 2020-06-20 10:00:21*
%MOMM*%
%LPD*%
G01*
G04 APERTURE LIST*
%ADD10C,0.150000*%
%ADD11C,0.120000*%
G04 APERTURE END LIST*
D10*
X159741904Y-78525714D02*
X159360952Y-78525714D01*
X159599047Y-78192380D02*
X159599047Y-79049523D01*
X159551428Y-79144761D01*
X159456190Y-79192380D01*
X159360952Y-79192380D01*
X159027619Y-79192380D02*
X159027619Y-78525714D01*
X159027619Y-78716190D02*
X158980000Y-78620952D01*
X158932380Y-78573333D01*
X158837142Y-78525714D01*
X158741904Y-78525714D01*
X158408571Y-79192380D02*
X158408571Y-78525714D01*
X158408571Y-78192380D02*
X158456190Y-78240000D01*
X158408571Y-78287619D01*
X158360952Y-78240000D01*
X158408571Y-78192380D01*
X158408571Y-78287619D01*
X157932380Y-79192380D02*
X157932380Y-78525714D01*
X157932380Y-78620952D02*
X157884761Y-78573333D01*
X157789523Y-78525714D01*
X157646666Y-78525714D01*
X157551428Y-78573333D01*
X157503809Y-78668571D01*
X157503809Y-79192380D01*
X157503809Y-78668571D02*
X157456190Y-78573333D01*
X157360952Y-78525714D01*
X157218095Y-78525714D01*
X157122857Y-78573333D01*
X157075238Y-78668571D01*
X157075238Y-79192380D01*
X155884761Y-78287619D02*
X155837142Y-78240000D01*
X155741904Y-78192380D01*
X155503809Y-78192380D01*
X155408571Y-78240000D01*
X155360952Y-78287619D01*
X155313333Y-78382857D01*
X155313333Y-78478095D01*
X155360952Y-78620952D01*
X155932380Y-79192380D01*
X155313333Y-79192380D01*
X147041904Y-78525714D02*
X146660952Y-78525714D01*
X146899047Y-78192380D02*
X146899047Y-79049523D01*
X146851428Y-79144761D01*
X146756190Y-79192380D01*
X146660952Y-79192380D01*
X146327619Y-79192380D02*
X146327619Y-78525714D01*
X146327619Y-78716190D02*
X146280000Y-78620952D01*
X146232380Y-78573333D01*
X146137142Y-78525714D01*
X146041904Y-78525714D01*
X145708571Y-79192380D02*
X145708571Y-78525714D01*
X145708571Y-78192380D02*
X145756190Y-78240000D01*
X145708571Y-78287619D01*
X145660952Y-78240000D01*
X145708571Y-78192380D01*
X145708571Y-78287619D01*
X145232380Y-79192380D02*
X145232380Y-78525714D01*
X145232380Y-78620952D02*
X145184761Y-78573333D01*
X145089523Y-78525714D01*
X144946666Y-78525714D01*
X144851428Y-78573333D01*
X144803809Y-78668571D01*
X144803809Y-79192380D01*
X144803809Y-78668571D02*
X144756190Y-78573333D01*
X144660952Y-78525714D01*
X144518095Y-78525714D01*
X144422857Y-78573333D01*
X144375238Y-78668571D01*
X144375238Y-79192380D01*
X142613333Y-79192380D02*
X143184761Y-79192380D01*
X142899047Y-79192380D02*
X142899047Y-78192380D01*
X142994285Y-78335238D01*
X143089523Y-78430476D01*
X143184761Y-78478095D01*
X194815833Y-52777380D02*
X194815833Y-51777380D01*
X194815833Y-52729761D02*
X194911071Y-52777380D01*
X195101547Y-52777380D01*
X195196785Y-52729761D01*
X195244404Y-52682142D01*
X195292023Y-52586904D01*
X195292023Y-52301190D01*
X195244404Y-52205952D01*
X195196785Y-52158333D01*
X195101547Y-52110714D01*
X194911071Y-52110714D01*
X194815833Y-52158333D01*
X193911071Y-52110714D02*
X193911071Y-52777380D01*
X194339642Y-52110714D02*
X194339642Y-52634523D01*
X194292023Y-52729761D01*
X194196785Y-52777380D01*
X194053928Y-52777380D01*
X193958690Y-52729761D01*
X193911071Y-52682142D01*
X193006309Y-52777380D02*
X193006309Y-52253571D01*
X193053928Y-52158333D01*
X193149166Y-52110714D01*
X193339642Y-52110714D01*
X193434880Y-52158333D01*
X193006309Y-52729761D02*
X193101547Y-52777380D01*
X193339642Y-52777380D01*
X193434880Y-52729761D01*
X193482500Y-52634523D01*
X193482500Y-52539285D01*
X193434880Y-52444047D01*
X193339642Y-52396428D01*
X193101547Y-52396428D01*
X193006309Y-52348809D01*
X192387261Y-52777380D02*
X192482500Y-52729761D01*
X192530119Y-52634523D01*
X192530119Y-51777380D01*
X191292023Y-52729761D02*
X191196785Y-52777380D01*
X191006309Y-52777380D01*
X190911071Y-52729761D01*
X190863452Y-52634523D01*
X190863452Y-52586904D01*
X190911071Y-52491666D01*
X191006309Y-52444047D01*
X191149166Y-52444047D01*
X191244404Y-52396428D01*
X191292023Y-52301190D01*
X191292023Y-52253571D01*
X191244404Y-52158333D01*
X191149166Y-52110714D01*
X191006309Y-52110714D01*
X190911071Y-52158333D01*
X190292023Y-52777380D02*
X190387261Y-52729761D01*
X190434880Y-52634523D01*
X190434880Y-51777380D01*
X189768214Y-52777380D02*
X189863452Y-52729761D01*
X189911071Y-52682142D01*
X189958690Y-52586904D01*
X189958690Y-52301190D01*
X189911071Y-52205952D01*
X189863452Y-52158333D01*
X189768214Y-52110714D01*
X189625357Y-52110714D01*
X189530119Y-52158333D01*
X189482500Y-52205952D01*
X189434880Y-52301190D01*
X189434880Y-52586904D01*
X189482500Y-52682142D01*
X189530119Y-52729761D01*
X189625357Y-52777380D01*
X189768214Y-52777380D01*
X189006309Y-52110714D02*
X189006309Y-53110714D01*
X189006309Y-52158333D02*
X188911071Y-52110714D01*
X188720595Y-52110714D01*
X188625357Y-52158333D01*
X188577738Y-52205952D01*
X188530119Y-52301190D01*
X188530119Y-52586904D01*
X188577738Y-52682142D01*
X188625357Y-52729761D01*
X188720595Y-52777380D01*
X188911071Y-52777380D01*
X189006309Y-52729761D01*
X187720595Y-52729761D02*
X187815833Y-52777380D01*
X188006309Y-52777380D01*
X188101547Y-52729761D01*
X188149166Y-52634523D01*
X188149166Y-52253571D01*
X188101547Y-52158333D01*
X188006309Y-52110714D01*
X187815833Y-52110714D01*
X187720595Y-52158333D01*
X187672976Y-52253571D01*
X187672976Y-52348809D01*
X188149166Y-52444047D01*
X186053928Y-52110714D02*
X186053928Y-52920238D01*
X186101547Y-53015476D01*
X186149166Y-53063095D01*
X186244404Y-53110714D01*
X186387261Y-53110714D01*
X186482500Y-53063095D01*
X186053928Y-52729761D02*
X186149166Y-52777380D01*
X186339642Y-52777380D01*
X186434880Y-52729761D01*
X186482500Y-52682142D01*
X186530119Y-52586904D01*
X186530119Y-52301190D01*
X186482500Y-52205952D01*
X186434880Y-52158333D01*
X186339642Y-52110714D01*
X186149166Y-52110714D01*
X186053928Y-52158333D01*
X185196785Y-52729761D02*
X185292023Y-52777380D01*
X185482500Y-52777380D01*
X185577738Y-52729761D01*
X185625357Y-52634523D01*
X185625357Y-52253571D01*
X185577738Y-52158333D01*
X185482500Y-52110714D01*
X185292023Y-52110714D01*
X185196785Y-52158333D01*
X185149166Y-52253571D01*
X185149166Y-52348809D01*
X185625357Y-52444047D01*
X184720595Y-52110714D02*
X184720595Y-52777380D01*
X184720595Y-52205952D02*
X184672976Y-52158333D01*
X184577738Y-52110714D01*
X184434880Y-52110714D01*
X184339642Y-52158333D01*
X184292023Y-52253571D01*
X184292023Y-52777380D01*
X183434880Y-52729761D02*
X183530119Y-52777380D01*
X183720595Y-52777380D01*
X183815833Y-52729761D01*
X183863452Y-52634523D01*
X183863452Y-52253571D01*
X183815833Y-52158333D01*
X183720595Y-52110714D01*
X183530119Y-52110714D01*
X183434880Y-52158333D01*
X183387261Y-52253571D01*
X183387261Y-52348809D01*
X183863452Y-52444047D01*
X182958690Y-52777380D02*
X182958690Y-52110714D01*
X182958690Y-52301190D02*
X182911071Y-52205952D01*
X182863452Y-52158333D01*
X182768214Y-52110714D01*
X182672976Y-52110714D01*
X181911071Y-52777380D02*
X181911071Y-52253571D01*
X181958690Y-52158333D01*
X182053928Y-52110714D01*
X182244404Y-52110714D01*
X182339642Y-52158333D01*
X181911071Y-52729761D02*
X182006309Y-52777380D01*
X182244404Y-52777380D01*
X182339642Y-52729761D01*
X182387261Y-52634523D01*
X182387261Y-52539285D01*
X182339642Y-52444047D01*
X182244404Y-52396428D01*
X182006309Y-52396428D01*
X181911071Y-52348809D01*
X181577738Y-52110714D02*
X181196785Y-52110714D01*
X181434880Y-51777380D02*
X181434880Y-52634523D01*
X181387261Y-52729761D01*
X181292023Y-52777380D01*
X181196785Y-52777380D01*
X180720595Y-52777380D02*
X180815833Y-52729761D01*
X180863452Y-52682142D01*
X180911071Y-52586904D01*
X180911071Y-52301190D01*
X180863452Y-52205952D01*
X180815833Y-52158333D01*
X180720595Y-52110714D01*
X180577738Y-52110714D01*
X180482500Y-52158333D01*
X180434880Y-52205952D01*
X180387261Y-52301190D01*
X180387261Y-52586904D01*
X180434880Y-52682142D01*
X180482500Y-52729761D01*
X180577738Y-52777380D01*
X180720595Y-52777380D01*
X179958690Y-52777380D02*
X179958690Y-52110714D01*
X179958690Y-52301190D02*
X179911071Y-52205952D01*
X179863452Y-52158333D01*
X179768214Y-52110714D01*
X179672976Y-52110714D01*
X195244404Y-54427380D02*
X195244404Y-53760714D01*
X195244404Y-53951190D02*
X195196785Y-53855952D01*
X195149166Y-53808333D01*
X195053928Y-53760714D01*
X194958690Y-53760714D01*
X194244404Y-54379761D02*
X194339642Y-54427380D01*
X194530119Y-54427380D01*
X194625357Y-54379761D01*
X194672976Y-54284523D01*
X194672976Y-53903571D01*
X194625357Y-53808333D01*
X194530119Y-53760714D01*
X194339642Y-53760714D01*
X194244404Y-53808333D01*
X194196785Y-53903571D01*
X194196785Y-53998809D01*
X194672976Y-54094047D01*
X193863452Y-53760714D02*
X193625357Y-54427380D01*
X193387261Y-53760714D01*
X192053928Y-53427380D02*
X191958690Y-53427380D01*
X191863452Y-53475000D01*
X191815833Y-53522619D01*
X191768214Y-53617857D01*
X191720595Y-53808333D01*
X191720595Y-54046428D01*
X191768214Y-54236904D01*
X191815833Y-54332142D01*
X191863452Y-54379761D01*
X191958690Y-54427380D01*
X192053928Y-54427380D01*
X192149166Y-54379761D01*
X192196785Y-54332142D01*
X192244404Y-54236904D01*
X192292023Y-54046428D01*
X192292023Y-53808333D01*
X192244404Y-53617857D01*
X192196785Y-53522619D01*
X192149166Y-53475000D01*
X192053928Y-53427380D01*
X195292023Y-55172619D02*
X195244404Y-55125000D01*
X195149166Y-55077380D01*
X194911071Y-55077380D01*
X194815833Y-55125000D01*
X194768214Y-55172619D01*
X194720595Y-55267857D01*
X194720595Y-55363095D01*
X194768214Y-55505952D01*
X195339642Y-56077380D01*
X194720595Y-56077380D01*
X194101547Y-55077380D02*
X194006309Y-55077380D01*
X193911071Y-55125000D01*
X193863452Y-55172619D01*
X193815833Y-55267857D01*
X193768214Y-55458333D01*
X193768214Y-55696428D01*
X193815833Y-55886904D01*
X193863452Y-55982142D01*
X193911071Y-56029761D01*
X194006309Y-56077380D01*
X194101547Y-56077380D01*
X194196785Y-56029761D01*
X194244404Y-55982142D01*
X194292023Y-55886904D01*
X194339642Y-55696428D01*
X194339642Y-55458333D01*
X194292023Y-55267857D01*
X194244404Y-55172619D01*
X194196785Y-55125000D01*
X194101547Y-55077380D01*
X192815833Y-56077380D02*
X193387261Y-56077380D01*
X193101547Y-56077380D02*
X193101547Y-55077380D01*
X193196785Y-55220238D01*
X193292023Y-55315476D01*
X193387261Y-55363095D01*
X191958690Y-55077380D02*
X192149166Y-55077380D01*
X192244404Y-55125000D01*
X192292023Y-55172619D01*
X192387261Y-55315476D01*
X192434880Y-55505952D01*
X192434880Y-55886904D01*
X192387261Y-55982142D01*
X192339642Y-56029761D01*
X192244404Y-56077380D01*
X192053928Y-56077380D01*
X191958690Y-56029761D01*
X191911071Y-55982142D01*
X191863452Y-55886904D01*
X191863452Y-55648809D01*
X191911071Y-55553571D01*
X191958690Y-55505952D01*
X192053928Y-55458333D01*
X192244404Y-55458333D01*
X192339642Y-55505952D01*
X192387261Y-55553571D01*
X192434880Y-55648809D01*
X191434880Y-55696428D02*
X190672976Y-55696428D01*
X190006309Y-55077380D02*
X189911071Y-55077380D01*
X189815833Y-55125000D01*
X189768214Y-55172619D01*
X189720595Y-55267857D01*
X189672976Y-55458333D01*
X189672976Y-55696428D01*
X189720595Y-55886904D01*
X189768214Y-55982142D01*
X189815833Y-56029761D01*
X189911071Y-56077380D01*
X190006309Y-56077380D01*
X190101547Y-56029761D01*
X190149166Y-55982142D01*
X190196785Y-55886904D01*
X190244404Y-55696428D01*
X190244404Y-55458333D01*
X190196785Y-55267857D01*
X190149166Y-55172619D01*
X190101547Y-55125000D01*
X190006309Y-55077380D01*
X188815833Y-55077380D02*
X189006309Y-55077380D01*
X189101547Y-55125000D01*
X189149166Y-55172619D01*
X189244404Y-55315476D01*
X189292023Y-55505952D01*
X189292023Y-55886904D01*
X189244404Y-55982142D01*
X189196785Y-56029761D01*
X189101547Y-56077380D01*
X188911071Y-56077380D01*
X188815833Y-56029761D01*
X188768214Y-55982142D01*
X188720595Y-55886904D01*
X188720595Y-55648809D01*
X188768214Y-55553571D01*
X188815833Y-55505952D01*
X188911071Y-55458333D01*
X189101547Y-55458333D01*
X189196785Y-55505952D01*
X189244404Y-55553571D01*
X189292023Y-55648809D01*
X188292023Y-55696428D02*
X187530119Y-55696428D01*
X186530119Y-56077380D02*
X187101547Y-56077380D01*
X186815833Y-56077380D02*
X186815833Y-55077380D01*
X186911071Y-55220238D01*
X187006309Y-55315476D01*
X187101547Y-55363095D01*
X185958690Y-55505952D02*
X186053928Y-55458333D01*
X186101547Y-55410714D01*
X186149166Y-55315476D01*
X186149166Y-55267857D01*
X186101547Y-55172619D01*
X186053928Y-55125000D01*
X185958690Y-55077380D01*
X185768214Y-55077380D01*
X185672976Y-55125000D01*
X185625357Y-55172619D01*
X185577738Y-55267857D01*
X185577738Y-55315476D01*
X185625357Y-55410714D01*
X185672976Y-55458333D01*
X185768214Y-55505952D01*
X185958690Y-55505952D01*
X186053928Y-55553571D01*
X186101547Y-55601190D01*
X186149166Y-55696428D01*
X186149166Y-55886904D01*
X186101547Y-55982142D01*
X186053928Y-56029761D01*
X185958690Y-56077380D01*
X185768214Y-56077380D01*
X185672976Y-56029761D01*
X185625357Y-55982142D01*
X185577738Y-55886904D01*
X185577738Y-55696428D01*
X185625357Y-55601190D01*
X185672976Y-55553571D01*
X185768214Y-55505952D01*
X175019642Y-70905714D02*
X174781547Y-71572380D01*
X174543452Y-70905714D01*
X174162500Y-71191428D02*
X173400595Y-71191428D01*
X172162500Y-71572380D02*
X172162500Y-70905714D01*
X172162500Y-70572380D02*
X172210119Y-70620000D01*
X172162500Y-70667619D01*
X172114880Y-70620000D01*
X172162500Y-70572380D01*
X172162500Y-70667619D01*
X171686309Y-70905714D02*
X171686309Y-71572380D01*
X171686309Y-71000952D02*
X171638690Y-70953333D01*
X171543452Y-70905714D01*
X171400595Y-70905714D01*
X171305357Y-70953333D01*
X171257738Y-71048571D01*
X171257738Y-71572380D01*
X174495833Y-68365714D02*
X174495833Y-69175238D01*
X174543452Y-69270476D01*
X174591071Y-69318095D01*
X174686309Y-69365714D01*
X174829166Y-69365714D01*
X174924404Y-69318095D01*
X174495833Y-68984761D02*
X174591071Y-69032380D01*
X174781547Y-69032380D01*
X174876785Y-68984761D01*
X174924404Y-68937142D01*
X174972023Y-68841904D01*
X174972023Y-68556190D01*
X174924404Y-68460952D01*
X174876785Y-68413333D01*
X174781547Y-68365714D01*
X174591071Y-68365714D01*
X174495833Y-68413333D01*
X174019642Y-68365714D02*
X174019642Y-69032380D01*
X174019642Y-68460952D02*
X173972023Y-68413333D01*
X173876785Y-68365714D01*
X173733928Y-68365714D01*
X173638690Y-68413333D01*
X173591071Y-68508571D01*
X173591071Y-69032380D01*
X172686309Y-69032380D02*
X172686309Y-68032380D01*
X172686309Y-68984761D02*
X172781547Y-69032380D01*
X172972023Y-69032380D01*
X173067261Y-68984761D01*
X173114880Y-68937142D01*
X173162500Y-68841904D01*
X173162500Y-68556190D01*
X173114880Y-68460952D01*
X173067261Y-68413333D01*
X172972023Y-68365714D01*
X172781547Y-68365714D01*
X172686309Y-68413333D01*
X174495833Y-65825714D02*
X174495833Y-66635238D01*
X174543452Y-66730476D01*
X174591071Y-66778095D01*
X174686309Y-66825714D01*
X174829166Y-66825714D01*
X174924404Y-66778095D01*
X174495833Y-66444761D02*
X174591071Y-66492380D01*
X174781547Y-66492380D01*
X174876785Y-66444761D01*
X174924404Y-66397142D01*
X174972023Y-66301904D01*
X174972023Y-66016190D01*
X174924404Y-65920952D01*
X174876785Y-65873333D01*
X174781547Y-65825714D01*
X174591071Y-65825714D01*
X174495833Y-65873333D01*
X174019642Y-65825714D02*
X174019642Y-66492380D01*
X174019642Y-65920952D02*
X173972023Y-65873333D01*
X173876785Y-65825714D01*
X173733928Y-65825714D01*
X173638690Y-65873333D01*
X173591071Y-65968571D01*
X173591071Y-66492380D01*
X172686309Y-66492380D02*
X172686309Y-65492380D01*
X172686309Y-66444761D02*
X172781547Y-66492380D01*
X172972023Y-66492380D01*
X173067261Y-66444761D01*
X173114880Y-66397142D01*
X173162500Y-66301904D01*
X173162500Y-66016190D01*
X173114880Y-65920952D01*
X173067261Y-65873333D01*
X172972023Y-65825714D01*
X172781547Y-65825714D01*
X172686309Y-65873333D01*
X174495833Y-63285714D02*
X174495833Y-64095238D01*
X174543452Y-64190476D01*
X174591071Y-64238095D01*
X174686309Y-64285714D01*
X174829166Y-64285714D01*
X174924404Y-64238095D01*
X174495833Y-63904761D02*
X174591071Y-63952380D01*
X174781547Y-63952380D01*
X174876785Y-63904761D01*
X174924404Y-63857142D01*
X174972023Y-63761904D01*
X174972023Y-63476190D01*
X174924404Y-63380952D01*
X174876785Y-63333333D01*
X174781547Y-63285714D01*
X174591071Y-63285714D01*
X174495833Y-63333333D01*
X174019642Y-63285714D02*
X174019642Y-63952380D01*
X174019642Y-63380952D02*
X173972023Y-63333333D01*
X173876785Y-63285714D01*
X173733928Y-63285714D01*
X173638690Y-63333333D01*
X173591071Y-63428571D01*
X173591071Y-63952380D01*
X172686309Y-63952380D02*
X172686309Y-62952380D01*
X172686309Y-63904761D02*
X172781547Y-63952380D01*
X172972023Y-63952380D01*
X173067261Y-63904761D01*
X173114880Y-63857142D01*
X173162500Y-63761904D01*
X173162500Y-63476190D01*
X173114880Y-63380952D01*
X173067261Y-63333333D01*
X172972023Y-63285714D01*
X172781547Y-63285714D01*
X172686309Y-63333333D01*
X175019642Y-60745714D02*
X174781547Y-61412380D01*
X174543452Y-60745714D01*
X174162500Y-61031428D02*
X173400595Y-61031428D01*
X173781547Y-61412380D02*
X173781547Y-60650476D01*
X172162500Y-61412380D02*
X172162500Y-60745714D01*
X172162500Y-60412380D02*
X172210119Y-60460000D01*
X172162500Y-60507619D01*
X172114880Y-60460000D01*
X172162500Y-60412380D01*
X172162500Y-60507619D01*
X171686309Y-60745714D02*
X171686309Y-61412380D01*
X171686309Y-60840952D02*
X171638690Y-60793333D01*
X171543452Y-60745714D01*
X171400595Y-60745714D01*
X171305357Y-60793333D01*
X171257738Y-60888571D01*
X171257738Y-61412380D01*
D11*
X171958000Y-107305000D02*
X168508000Y-107305000D01*
X171958000Y-107305000D02*
X173908000Y-107305000D01*
X171958000Y-98435000D02*
X170008000Y-98435000D01*
X171958000Y-98435000D02*
X173908000Y-98435000D01*
X171958000Y-94000000D02*
X168508000Y-94000000D01*
X171958000Y-94000000D02*
X173908000Y-94000000D01*
X171958000Y-88880000D02*
X170008000Y-88880000D01*
X171958000Y-88880000D02*
X173908000Y-88880000D01*
X171958000Y-86380000D02*
X168508000Y-86380000D01*
X171958000Y-86380000D02*
X173908000Y-86380000D01*
X171958000Y-81260000D02*
X170008000Y-81260000D01*
X171958000Y-81260000D02*
X173908000Y-81260000D01*
X129475000Y-109845000D02*
X126025000Y-109845000D01*
X129475000Y-109845000D02*
X131425000Y-109845000D01*
X129475000Y-100975000D02*
X127525000Y-100975000D01*
X129475000Y-100975000D02*
X131425000Y-100975000D01*
X129475000Y-94000000D02*
X126025000Y-94000000D01*
X129475000Y-94000000D02*
X131425000Y-94000000D01*
X129475000Y-88880000D02*
X127525000Y-88880000D01*
X129475000Y-88880000D02*
X131425000Y-88880000D01*
X129540000Y-86380000D02*
X126090000Y-86380000D01*
X129540000Y-86380000D02*
X131490000Y-86380000D01*
X129540000Y-81260000D02*
X127590000Y-81260000D01*
X129540000Y-81260000D02*
X131490000Y-81260000D01*
X154950000Y-89721000D02*
X160020000Y-89721000D01*
X154950000Y-79951000D02*
X160020000Y-79951000D01*
X160020000Y-79951000D02*
X160020000Y-89721000D01*
X154950000Y-79951000D02*
X154950000Y-89721000D01*
X142250000Y-89721000D02*
X147320000Y-89721000D01*
X142250000Y-79951000D02*
X147320000Y-79951000D01*
X147320000Y-79951000D02*
X147320000Y-89721000D01*
X142250000Y-79951000D02*
X142250000Y-89721000D01*
X194988548Y-80900200D02*
X195511052Y-80900200D01*
X194988548Y-82320200D02*
X195511052Y-82320200D01*
X191311052Y-82320200D02*
X190788548Y-82320200D01*
X191311052Y-80900200D02*
X190788548Y-80900200D01*
X165219748Y-92635000D02*
X165742252Y-92635000D01*
X165219748Y-94055000D02*
X165742252Y-94055000D01*
X170866812Y-130244920D02*
X170344308Y-130244920D01*
X170866812Y-128824920D02*
X170344308Y-128824920D01*
X165742252Y-109930000D02*
X165219748Y-109930000D01*
X165742252Y-108510000D02*
X165219748Y-108510000D01*
X165219748Y-105970000D02*
X165742252Y-105970000D01*
X165219748Y-107390000D02*
X165742252Y-107390000D01*
X165742252Y-104850000D02*
X165219748Y-104850000D01*
X165742252Y-103430000D02*
X165219748Y-103430000D01*
X165742252Y-99770000D02*
X165219748Y-99770000D01*
X165742252Y-98350000D02*
X165219748Y-98350000D01*
X165742252Y-102310000D02*
X165219748Y-102310000D01*
X165742252Y-100890000D02*
X165219748Y-100890000D01*
X170069988Y-111898360D02*
X170592492Y-111898360D01*
X170069988Y-113318360D02*
X170592492Y-113318360D01*
X177919748Y-92889000D02*
X178442252Y-92889000D01*
X177919748Y-94309000D02*
X178442252Y-94309000D01*
X165631652Y-96696600D02*
X165109148Y-96696600D01*
X165631652Y-95276600D02*
X165109148Y-95276600D01*
X166631252Y-127710000D02*
X166108748Y-127710000D01*
X166631252Y-126290000D02*
X166108748Y-126290000D01*
X176903748Y-126290000D02*
X177426252Y-126290000D01*
X176903748Y-127710000D02*
X177426252Y-127710000D01*
X176903748Y-112320000D02*
X177426252Y-112320000D01*
X176903748Y-113740000D02*
X177426252Y-113740000D01*
X177919748Y-87809000D02*
X178442252Y-87809000D01*
X177919748Y-89229000D02*
X178442252Y-89229000D01*
X166631252Y-130250000D02*
X166108748Y-130250000D01*
X166631252Y-128830000D02*
X166108748Y-128830000D01*
X169283748Y-143435000D02*
X169806252Y-143435000D01*
X169283748Y-144855000D02*
X169806252Y-144855000D01*
X186408852Y-117448400D02*
X185886348Y-117448400D01*
X186408852Y-116028400D02*
X185886348Y-116028400D01*
X177919748Y-106224000D02*
X178442252Y-106224000D01*
X177919748Y-107644000D02*
X178442252Y-107644000D01*
X187043852Y-108558400D02*
X186521348Y-108558400D01*
X187043852Y-107138400D02*
X186521348Y-107138400D01*
X178442252Y-102564000D02*
X177919748Y-102564000D01*
X178442252Y-101144000D02*
X177919748Y-101144000D01*
X186521348Y-109678400D02*
X187043852Y-109678400D01*
X186521348Y-111098400D02*
X187043852Y-111098400D01*
X178442252Y-100024000D02*
X177919748Y-100024000D01*
X178442252Y-98604000D02*
X177919748Y-98604000D01*
X176903748Y-133910000D02*
X177426252Y-133910000D01*
X176903748Y-135330000D02*
X177426252Y-135330000D01*
X176903748Y-131370000D02*
X177426252Y-131370000D01*
X176903748Y-132790000D02*
X177426252Y-132790000D01*
X176903748Y-122480000D02*
X177426252Y-122480000D01*
X176903748Y-123900000D02*
X177426252Y-123900000D01*
X176903748Y-119940000D02*
X177426252Y-119940000D01*
X176903748Y-121360000D02*
X177426252Y-121360000D01*
X177426252Y-130250000D02*
X176903748Y-130250000D01*
X177426252Y-128830000D02*
X176903748Y-128830000D01*
X177426252Y-116280000D02*
X176903748Y-116280000D01*
X177426252Y-114860000D02*
X176903748Y-114860000D01*
X177426252Y-118820000D02*
X176903748Y-118820000D01*
X177426252Y-117400000D02*
X176903748Y-117400000D01*
X158488748Y-141530000D02*
X159011252Y-141530000D01*
X158488748Y-142950000D02*
X159011252Y-142950000D01*
X158243748Y-126290000D02*
X158766252Y-126290000D01*
X158243748Y-127710000D02*
X158766252Y-127710000D01*
X150233748Y-66600000D02*
X150756252Y-66600000D01*
X150233748Y-68020000D02*
X150756252Y-68020000D01*
X169283748Y-138355000D02*
X169806252Y-138355000D01*
X169283748Y-139775000D02*
X169806252Y-139775000D01*
X177919748Y-85269000D02*
X178442252Y-85269000D01*
X177919748Y-86689000D02*
X178442252Y-86689000D01*
X150756252Y-65480000D02*
X150233748Y-65480000D01*
X150756252Y-64060000D02*
X150233748Y-64060000D01*
X174251252Y-139775000D02*
X173728748Y-139775000D01*
X174251252Y-138355000D02*
X173728748Y-138355000D01*
X150233748Y-58980000D02*
X150756252Y-58980000D01*
X150233748Y-60400000D02*
X150756252Y-60400000D01*
X173728748Y-143435000D02*
X174251252Y-143435000D01*
X173728748Y-144855000D02*
X174251252Y-144855000D01*
X178442252Y-81609000D02*
X177919748Y-81609000D01*
X178442252Y-80189000D02*
X177919748Y-80189000D01*
X178442252Y-84149000D02*
X177919748Y-84149000D01*
X178442252Y-82729000D02*
X177919748Y-82729000D01*
X165219748Y-84380000D02*
X165742252Y-84380000D01*
X165219748Y-85800000D02*
X165742252Y-85800000D01*
X165742252Y-83260000D02*
X165219748Y-83260000D01*
X165742252Y-81840000D02*
X165219748Y-81840000D01*
X152773748Y-90730000D02*
X153296252Y-90730000D01*
X152773748Y-92150000D02*
X153296252Y-92150000D01*
X109726252Y-79450000D02*
X109203748Y-79450000D01*
X109726252Y-78030000D02*
X109203748Y-78030000D01*
X113648748Y-78030000D02*
X114171252Y-78030000D01*
X113648748Y-79450000D02*
X114171252Y-79450000D01*
X122683748Y-93270000D02*
X123206252Y-93270000D01*
X122683748Y-94690000D02*
X123206252Y-94690000D01*
X116061748Y-113590000D02*
X116584252Y-113590000D01*
X116061748Y-115010000D02*
X116584252Y-115010000D01*
X122928748Y-111050000D02*
X123451252Y-111050000D01*
X122928748Y-112470000D02*
X123451252Y-112470000D01*
X123451252Y-109930000D02*
X122928748Y-109930000D01*
X123451252Y-108510000D02*
X122928748Y-108510000D01*
X123451252Y-107390000D02*
X122928748Y-107390000D01*
X123451252Y-105970000D02*
X122928748Y-105970000D01*
X123451252Y-102310000D02*
X122928748Y-102310000D01*
X123451252Y-100890000D02*
X122928748Y-100890000D01*
X123451252Y-104850000D02*
X122928748Y-104850000D01*
X123451252Y-103430000D02*
X122928748Y-103430000D01*
X115831252Y-120090000D02*
X115308748Y-120090000D01*
X115831252Y-118670000D02*
X115308748Y-118670000D01*
X135628748Y-95810000D02*
X136151252Y-95810000D01*
X135628748Y-97230000D02*
X136151252Y-97230000D01*
X136151252Y-89610000D02*
X135628748Y-89610000D01*
X136151252Y-88190000D02*
X135628748Y-88190000D01*
X123451252Y-128980000D02*
X122928748Y-128980000D01*
X123451252Y-127560000D02*
X122928748Y-127560000D01*
X132976252Y-128980000D02*
X132453748Y-128980000D01*
X132976252Y-127560000D02*
X132453748Y-127560000D01*
X132453748Y-113590000D02*
X132976252Y-113590000D01*
X132453748Y-115010000D02*
X132976252Y-115010000D01*
X135628748Y-90730000D02*
X136151252Y-90730000D01*
X135628748Y-92150000D02*
X136151252Y-92150000D01*
X123451252Y-131520000D02*
X122928748Y-131520000D01*
X123451252Y-130100000D02*
X122928748Y-130100000D01*
X126230748Y-143816000D02*
X126753252Y-143816000D01*
X126230748Y-145236000D02*
X126753252Y-145236000D01*
X144128748Y-114860000D02*
X144651252Y-114860000D01*
X144128748Y-116280000D02*
X144651252Y-116280000D01*
X135628748Y-108510000D02*
X136151252Y-108510000D01*
X135628748Y-109930000D02*
X136151252Y-109930000D01*
X144651252Y-109930000D02*
X144128748Y-109930000D01*
X144651252Y-108510000D02*
X144128748Y-108510000D01*
X136151252Y-102310000D02*
X135628748Y-102310000D01*
X136151252Y-100890000D02*
X135628748Y-100890000D01*
X144128748Y-105970000D02*
X144651252Y-105970000D01*
X144128748Y-107390000D02*
X144651252Y-107390000D01*
X135628748Y-103430000D02*
X136151252Y-103430000D01*
X135628748Y-104850000D02*
X136151252Y-104850000D01*
X132453748Y-134926000D02*
X132976252Y-134926000D01*
X132453748Y-136346000D02*
X132976252Y-136346000D01*
X132453748Y-132640000D02*
X132976252Y-132640000D01*
X132453748Y-134060000D02*
X132976252Y-134060000D01*
X132453748Y-121210000D02*
X132976252Y-121210000D01*
X132453748Y-122630000D02*
X132976252Y-122630000D01*
X132453748Y-123750000D02*
X132976252Y-123750000D01*
X132453748Y-125170000D02*
X132976252Y-125170000D01*
X132976252Y-131520000D02*
X132453748Y-131520000D01*
X132976252Y-130100000D02*
X132453748Y-130100000D01*
X132976252Y-117550000D02*
X132453748Y-117550000D01*
X132976252Y-116130000D02*
X132453748Y-116130000D01*
X132976252Y-120090000D02*
X132453748Y-120090000D01*
X132976252Y-118670000D02*
X132453748Y-118670000D01*
X143771252Y-142950000D02*
X143248748Y-142950000D01*
X143771252Y-141530000D02*
X143248748Y-141530000D01*
X143771252Y-127710000D02*
X143248748Y-127710000D01*
X143771252Y-126290000D02*
X143248748Y-126290000D01*
X140445748Y-65330000D02*
X140968252Y-65330000D01*
X140445748Y-66750000D02*
X140968252Y-66750000D01*
X126230748Y-138990000D02*
X126753252Y-138990000D01*
X126230748Y-140410000D02*
X126753252Y-140410000D01*
X135628748Y-85650000D02*
X136151252Y-85650000D01*
X135628748Y-87070000D02*
X136151252Y-87070000D01*
X140986252Y-64210000D02*
X140463748Y-64210000D01*
X140986252Y-62790000D02*
X140463748Y-62790000D01*
X130548748Y-138990000D02*
X131071252Y-138990000D01*
X130548748Y-140410000D02*
X131071252Y-140410000D01*
X140968252Y-59130000D02*
X140445748Y-59130000D01*
X140968252Y-57710000D02*
X140445748Y-57710000D01*
X130548748Y-143816000D02*
X131071252Y-143816000D01*
X130548748Y-145236000D02*
X131071252Y-145236000D01*
X136151252Y-81990000D02*
X135628748Y-81990000D01*
X136151252Y-80570000D02*
X135628748Y-80570000D01*
X136151252Y-84530000D02*
X135628748Y-84530000D01*
X136151252Y-83110000D02*
X135628748Y-83110000D01*
X122683748Y-84380000D02*
X123206252Y-84380000D01*
X122683748Y-85800000D02*
X123206252Y-85800000D01*
X123206252Y-83260000D02*
X122683748Y-83260000D01*
X123206252Y-81840000D02*
X122683748Y-81840000D01*
X149096252Y-92150000D02*
X148573748Y-92150000D01*
X149096252Y-90730000D02*
X148573748Y-90730000D01*
X191949800Y-87000200D02*
X193409800Y-87000200D01*
X191949800Y-83840200D02*
X195109800Y-83840200D01*
X191949800Y-83840200D02*
X191949800Y-84770200D01*
X191949800Y-87000200D02*
X191949800Y-86070200D01*
X172210000Y-115895000D02*
X170750000Y-115895000D01*
X172210000Y-119055000D02*
X169050000Y-119055000D01*
X172210000Y-119055000D02*
X172210000Y-118125000D01*
X172210000Y-115895000D02*
X172210000Y-116825000D01*
X164340000Y-123185000D02*
X165800000Y-123185000D01*
X164340000Y-120025000D02*
X167500000Y-120025000D01*
X164340000Y-120025000D02*
X164340000Y-120955000D01*
X164340000Y-123185000D02*
X164340000Y-122255000D01*
X164340000Y-119055000D02*
X165800000Y-119055000D01*
X164340000Y-115895000D02*
X167500000Y-115895000D01*
X164340000Y-115895000D02*
X164340000Y-116825000D01*
X164340000Y-119055000D02*
X164340000Y-118125000D01*
X172210000Y-120025000D02*
X170750000Y-120025000D01*
X172210000Y-123185000D02*
X169050000Y-123185000D01*
X172210000Y-123185000D02*
X172210000Y-122255000D01*
X172210000Y-120025000D02*
X172210000Y-120955000D01*
X185777600Y-115143400D02*
X187237600Y-115143400D01*
X185777600Y-111983400D02*
X188937600Y-111983400D01*
X185777600Y-111983400D02*
X185777600Y-112913400D01*
X185777600Y-115143400D02*
X185777600Y-114213400D01*
X111635000Y-77145000D02*
X113095000Y-77145000D01*
X111635000Y-73985000D02*
X114795000Y-73985000D01*
X111635000Y-73985000D02*
X111635000Y-74915000D01*
X111635000Y-77145000D02*
X111635000Y-76215000D01*
X128395000Y-116530000D02*
X126935000Y-116530000D01*
X128395000Y-119690000D02*
X125235000Y-119690000D01*
X128395000Y-119690000D02*
X128395000Y-118760000D01*
X128395000Y-116530000D02*
X128395000Y-117460000D01*
X120525000Y-124770000D02*
X121985000Y-124770000D01*
X120525000Y-121610000D02*
X123685000Y-121610000D01*
X120525000Y-121610000D02*
X120525000Y-122540000D01*
X120525000Y-124770000D02*
X120525000Y-123840000D01*
X120295000Y-119690000D02*
X121755000Y-119690000D01*
X120295000Y-116530000D02*
X123455000Y-116530000D01*
X120295000Y-116530000D02*
X120295000Y-117460000D01*
X120295000Y-119690000D02*
X120295000Y-118760000D01*
X128395000Y-121610000D02*
X126935000Y-121610000D01*
X128395000Y-124770000D02*
X125235000Y-124770000D01*
X128395000Y-124770000D02*
X128395000Y-123840000D01*
X128395000Y-121610000D02*
X128395000Y-122540000D01*
X143385000Y-113975000D02*
X144845000Y-113975000D01*
X143385000Y-110815000D02*
X146545000Y-110815000D01*
X143385000Y-110815000D02*
X143385000Y-111745000D01*
X143385000Y-113975000D02*
X143385000Y-113045000D01*
X193054800Y-77435200D02*
X189154800Y-77435200D01*
X193054800Y-79435200D02*
X189154800Y-79435200D01*
X193054800Y-77435200D02*
X193054800Y-79435200D01*
X167731000Y-111395000D02*
X163831000Y-111395000D01*
X167731000Y-113395000D02*
X163831000Y-113395000D01*
X167731000Y-111395000D02*
X167731000Y-113395000D01*
X184667600Y-120278400D02*
X188567600Y-120278400D01*
X184667600Y-118278400D02*
X188567600Y-118278400D01*
X184667600Y-120278400D02*
X184667600Y-118278400D01*
X152745000Y-68850000D02*
X148845000Y-68850000D01*
X152745000Y-70850000D02*
X148845000Y-70850000D01*
X152745000Y-68850000D02*
X152745000Y-70850000D01*
X152872000Y-71644000D02*
X148972000Y-71644000D01*
X152872000Y-73644000D02*
X148972000Y-73644000D01*
X152872000Y-71644000D02*
X152872000Y-73644000D01*
X171795000Y-131715000D02*
X167895000Y-131715000D01*
X171795000Y-133715000D02*
X167895000Y-133715000D01*
X171795000Y-131715000D02*
X171795000Y-133715000D01*
X171795000Y-134890000D02*
X167895000Y-134890000D01*
X171795000Y-136890000D02*
X167895000Y-136890000D01*
X171795000Y-134890000D02*
X171795000Y-136890000D01*
X116170000Y-80280000D02*
X112270000Y-80280000D01*
X116170000Y-82280000D02*
X112270000Y-82280000D01*
X116170000Y-80280000D02*
X116170000Y-82280000D01*
X120940000Y-115300000D02*
X124840000Y-115300000D01*
X120940000Y-113300000D02*
X124840000Y-113300000D01*
X120940000Y-115300000D02*
X120940000Y-113300000D01*
X146597200Y-119243600D02*
X142697200Y-119243600D01*
X146597200Y-121243600D02*
X142697200Y-121243600D01*
X146597200Y-119243600D02*
X146597200Y-121243600D01*
X142967000Y-67961000D02*
X139067000Y-67961000D01*
X142967000Y-69961000D02*
X139067000Y-69961000D01*
X142967000Y-67961000D02*
X142967000Y-69961000D01*
X142967000Y-70882000D02*
X139067000Y-70882000D01*
X142967000Y-72882000D02*
X139067000Y-72882000D01*
X142967000Y-70882000D02*
X142967000Y-72882000D01*
X128742000Y-133112000D02*
X124842000Y-133112000D01*
X128742000Y-135112000D02*
X124842000Y-135112000D01*
X128742000Y-133112000D02*
X128742000Y-135112000D01*
X128742000Y-136160000D02*
X124842000Y-136160000D01*
X128742000Y-138160000D02*
X124842000Y-138160000D01*
X128742000Y-136160000D02*
X128742000Y-138160000D01*
X165219748Y-90095000D02*
X165742252Y-90095000D01*
X165219748Y-91515000D02*
X165742252Y-91515000D01*
X178442252Y-91769000D02*
X177919748Y-91769000D01*
X178442252Y-90349000D02*
X177919748Y-90349000D01*
X178442252Y-105104000D02*
X177919748Y-105104000D01*
X178442252Y-103684000D02*
X177919748Y-103684000D01*
X150756252Y-62940000D02*
X150233748Y-62940000D01*
X150756252Y-61520000D02*
X150233748Y-61520000D01*
X174251252Y-142315000D02*
X173728748Y-142315000D01*
X174251252Y-140895000D02*
X173728748Y-140895000D01*
X164216000Y-62199759D02*
X164846000Y-62199759D01*
X164531000Y-61884759D02*
X164531000Y-62514759D01*
X165968000Y-68626000D02*
X166772000Y-68626000D01*
X165737000Y-68586000D02*
X167003000Y-68586000D01*
X165568000Y-68546000D02*
X167172000Y-68546000D01*
X165430000Y-68506000D02*
X167310000Y-68506000D01*
X165311000Y-68466000D02*
X167429000Y-68466000D01*
X165205000Y-68426000D02*
X167535000Y-68426000D01*
X165108000Y-68386000D02*
X167632000Y-68386000D01*
X165020000Y-68346000D02*
X167720000Y-68346000D01*
X164938000Y-68306000D02*
X167802000Y-68306000D01*
X164861000Y-68266000D02*
X167879000Y-68266000D01*
X164789000Y-68226000D02*
X167951000Y-68226000D01*
X164720000Y-68186000D02*
X168020000Y-68186000D01*
X164656000Y-68146000D02*
X168084000Y-68146000D01*
X164594000Y-68106000D02*
X168146000Y-68106000D01*
X164536000Y-68066000D02*
X168204000Y-68066000D01*
X164480000Y-68026000D02*
X168260000Y-68026000D01*
X164426000Y-67986000D02*
X168314000Y-67986000D01*
X164375000Y-67946000D02*
X168365000Y-67946000D01*
X164326000Y-67906000D02*
X168414000Y-67906000D01*
X164278000Y-67866000D02*
X168462000Y-67866000D01*
X164233000Y-67826000D02*
X168507000Y-67826000D01*
X164188000Y-67786000D02*
X168552000Y-67786000D01*
X164146000Y-67746000D02*
X168594000Y-67746000D01*
X164105000Y-67706000D02*
X168635000Y-67706000D01*
X167410000Y-67666000D02*
X168675000Y-67666000D01*
X164065000Y-67666000D02*
X165330000Y-67666000D01*
X167410000Y-67626000D02*
X168713000Y-67626000D01*
X164027000Y-67626000D02*
X165330000Y-67626000D01*
X167410000Y-67586000D02*
X168750000Y-67586000D01*
X163990000Y-67586000D02*
X165330000Y-67586000D01*
X167410000Y-67546000D02*
X168786000Y-67546000D01*
X163954000Y-67546000D02*
X165330000Y-67546000D01*
X167410000Y-67506000D02*
X168820000Y-67506000D01*
X163920000Y-67506000D02*
X165330000Y-67506000D01*
X167410000Y-67466000D02*
X168854000Y-67466000D01*
X163886000Y-67466000D02*
X165330000Y-67466000D01*
X167410000Y-67426000D02*
X168886000Y-67426000D01*
X163854000Y-67426000D02*
X165330000Y-67426000D01*
X167410000Y-67386000D02*
X168918000Y-67386000D01*
X163822000Y-67386000D02*
X165330000Y-67386000D01*
X167410000Y-67346000D02*
X168948000Y-67346000D01*
X163792000Y-67346000D02*
X165330000Y-67346000D01*
X167410000Y-67306000D02*
X168977000Y-67306000D01*
X163763000Y-67306000D02*
X165330000Y-67306000D01*
X167410000Y-67266000D02*
X169006000Y-67266000D01*
X163734000Y-67266000D02*
X165330000Y-67266000D01*
X167410000Y-67226000D02*
X169034000Y-67226000D01*
X163706000Y-67226000D02*
X165330000Y-67226000D01*
X167410000Y-67186000D02*
X169060000Y-67186000D01*
X163680000Y-67186000D02*
X165330000Y-67186000D01*
X167410000Y-67146000D02*
X169086000Y-67146000D01*
X163654000Y-67146000D02*
X165330000Y-67146000D01*
X167410000Y-67106000D02*
X169112000Y-67106000D01*
X163628000Y-67106000D02*
X165330000Y-67106000D01*
X167410000Y-67066000D02*
X169136000Y-67066000D01*
X163604000Y-67066000D02*
X165330000Y-67066000D01*
X167410000Y-67026000D02*
X169160000Y-67026000D01*
X163580000Y-67026000D02*
X165330000Y-67026000D01*
X167410000Y-66986000D02*
X169182000Y-66986000D01*
X163558000Y-66986000D02*
X165330000Y-66986000D01*
X167410000Y-66946000D02*
X169204000Y-66946000D01*
X163536000Y-66946000D02*
X165330000Y-66946000D01*
X167410000Y-66906000D02*
X169226000Y-66906000D01*
X163514000Y-66906000D02*
X165330000Y-66906000D01*
X167410000Y-66866000D02*
X169246000Y-66866000D01*
X163494000Y-66866000D02*
X165330000Y-66866000D01*
X167410000Y-66826000D02*
X169266000Y-66826000D01*
X163474000Y-66826000D02*
X165330000Y-66826000D01*
X167410000Y-66786000D02*
X169286000Y-66786000D01*
X163454000Y-66786000D02*
X165330000Y-66786000D01*
X167410000Y-66746000D02*
X169304000Y-66746000D01*
X163436000Y-66746000D02*
X165330000Y-66746000D01*
X167410000Y-66706000D02*
X169322000Y-66706000D01*
X163418000Y-66706000D02*
X165330000Y-66706000D01*
X167410000Y-66666000D02*
X169340000Y-66666000D01*
X163400000Y-66666000D02*
X165330000Y-66666000D01*
X167410000Y-66626000D02*
X169356000Y-66626000D01*
X163384000Y-66626000D02*
X165330000Y-66626000D01*
X167410000Y-66586000D02*
X169372000Y-66586000D01*
X163368000Y-66586000D02*
X165330000Y-66586000D01*
X167410000Y-66546000D02*
X169388000Y-66546000D01*
X163352000Y-66546000D02*
X165330000Y-66546000D01*
X167410000Y-66506000D02*
X169403000Y-66506000D01*
X163337000Y-66506000D02*
X165330000Y-66506000D01*
X167410000Y-66466000D02*
X169417000Y-66466000D01*
X163323000Y-66466000D02*
X165330000Y-66466000D01*
X167410000Y-66426000D02*
X169431000Y-66426000D01*
X163309000Y-66426000D02*
X165330000Y-66426000D01*
X167410000Y-66386000D02*
X169444000Y-66386000D01*
X163296000Y-66386000D02*
X165330000Y-66386000D01*
X167410000Y-66346000D02*
X169456000Y-66346000D01*
X163284000Y-66346000D02*
X165330000Y-66346000D01*
X167410000Y-66306000D02*
X169468000Y-66306000D01*
X163272000Y-66306000D02*
X165330000Y-66306000D01*
X167410000Y-66266000D02*
X169480000Y-66266000D01*
X163260000Y-66266000D02*
X165330000Y-66266000D01*
X167410000Y-66226000D02*
X169491000Y-66226000D01*
X163249000Y-66226000D02*
X165330000Y-66226000D01*
X167410000Y-66186000D02*
X169501000Y-66186000D01*
X163239000Y-66186000D02*
X165330000Y-66186000D01*
X167410000Y-66146000D02*
X169511000Y-66146000D01*
X163229000Y-66146000D02*
X165330000Y-66146000D01*
X167410000Y-66106000D02*
X169520000Y-66106000D01*
X163220000Y-66106000D02*
X165330000Y-66106000D01*
X167410000Y-66065000D02*
X169529000Y-66065000D01*
X163211000Y-66065000D02*
X165330000Y-66065000D01*
X167410000Y-66025000D02*
X169537000Y-66025000D01*
X163203000Y-66025000D02*
X165330000Y-66025000D01*
X167410000Y-65985000D02*
X169545000Y-65985000D01*
X163195000Y-65985000D02*
X165330000Y-65985000D01*
X167410000Y-65945000D02*
X169552000Y-65945000D01*
X163188000Y-65945000D02*
X165330000Y-65945000D01*
X167410000Y-65905000D02*
X169559000Y-65905000D01*
X163181000Y-65905000D02*
X165330000Y-65905000D01*
X167410000Y-65865000D02*
X169565000Y-65865000D01*
X163175000Y-65865000D02*
X165330000Y-65865000D01*
X167410000Y-65825000D02*
X169571000Y-65825000D01*
X163169000Y-65825000D02*
X165330000Y-65825000D01*
X167410000Y-65785000D02*
X169576000Y-65785000D01*
X163164000Y-65785000D02*
X165330000Y-65785000D01*
X167410000Y-65745000D02*
X169581000Y-65745000D01*
X163159000Y-65745000D02*
X165330000Y-65745000D01*
X167410000Y-65705000D02*
X169585000Y-65705000D01*
X163155000Y-65705000D02*
X165330000Y-65705000D01*
X167410000Y-65665000D02*
X169588000Y-65665000D01*
X163152000Y-65665000D02*
X165330000Y-65665000D01*
X167410000Y-65625000D02*
X169592000Y-65625000D01*
X163148000Y-65625000D02*
X165330000Y-65625000D01*
X163146000Y-65585000D02*
X169594000Y-65585000D01*
X163143000Y-65545000D02*
X169597000Y-65545000D01*
X163142000Y-65505000D02*
X169598000Y-65505000D01*
X163140000Y-65465000D02*
X169600000Y-65465000D01*
X163140000Y-65425000D02*
X169600000Y-65425000D01*
X163140000Y-65385000D02*
X169600000Y-65385000D01*
X169640000Y-65385000D02*
G75*
G03*
X169640000Y-65385000I-3270000J0D01*
G01*
X164216000Y-54579759D02*
X164846000Y-54579759D01*
X164531000Y-54264759D02*
X164531000Y-54894759D01*
X165968000Y-61006000D02*
X166772000Y-61006000D01*
X165737000Y-60966000D02*
X167003000Y-60966000D01*
X165568000Y-60926000D02*
X167172000Y-60926000D01*
X165430000Y-60886000D02*
X167310000Y-60886000D01*
X165311000Y-60846000D02*
X167429000Y-60846000D01*
X165205000Y-60806000D02*
X167535000Y-60806000D01*
X165108000Y-60766000D02*
X167632000Y-60766000D01*
X165020000Y-60726000D02*
X167720000Y-60726000D01*
X164938000Y-60686000D02*
X167802000Y-60686000D01*
X164861000Y-60646000D02*
X167879000Y-60646000D01*
X164789000Y-60606000D02*
X167951000Y-60606000D01*
X164720000Y-60566000D02*
X168020000Y-60566000D01*
X164656000Y-60526000D02*
X168084000Y-60526000D01*
X164594000Y-60486000D02*
X168146000Y-60486000D01*
X164536000Y-60446000D02*
X168204000Y-60446000D01*
X164480000Y-60406000D02*
X168260000Y-60406000D01*
X164426000Y-60366000D02*
X168314000Y-60366000D01*
X164375000Y-60326000D02*
X168365000Y-60326000D01*
X164326000Y-60286000D02*
X168414000Y-60286000D01*
X164278000Y-60246000D02*
X168462000Y-60246000D01*
X164233000Y-60206000D02*
X168507000Y-60206000D01*
X164188000Y-60166000D02*
X168552000Y-60166000D01*
X164146000Y-60126000D02*
X168594000Y-60126000D01*
X164105000Y-60086000D02*
X168635000Y-60086000D01*
X167410000Y-60046000D02*
X168675000Y-60046000D01*
X164065000Y-60046000D02*
X165330000Y-60046000D01*
X167410000Y-60006000D02*
X168713000Y-60006000D01*
X164027000Y-60006000D02*
X165330000Y-60006000D01*
X167410000Y-59966000D02*
X168750000Y-59966000D01*
X163990000Y-59966000D02*
X165330000Y-59966000D01*
X167410000Y-59926000D02*
X168786000Y-59926000D01*
X163954000Y-59926000D02*
X165330000Y-59926000D01*
X167410000Y-59886000D02*
X168820000Y-59886000D01*
X163920000Y-59886000D02*
X165330000Y-59886000D01*
X167410000Y-59846000D02*
X168854000Y-59846000D01*
X163886000Y-59846000D02*
X165330000Y-59846000D01*
X167410000Y-59806000D02*
X168886000Y-59806000D01*
X163854000Y-59806000D02*
X165330000Y-59806000D01*
X167410000Y-59766000D02*
X168918000Y-59766000D01*
X163822000Y-59766000D02*
X165330000Y-59766000D01*
X167410000Y-59726000D02*
X168948000Y-59726000D01*
X163792000Y-59726000D02*
X165330000Y-59726000D01*
X167410000Y-59686000D02*
X168977000Y-59686000D01*
X163763000Y-59686000D02*
X165330000Y-59686000D01*
X167410000Y-59646000D02*
X169006000Y-59646000D01*
X163734000Y-59646000D02*
X165330000Y-59646000D01*
X167410000Y-59606000D02*
X169034000Y-59606000D01*
X163706000Y-59606000D02*
X165330000Y-59606000D01*
X167410000Y-59566000D02*
X169060000Y-59566000D01*
X163680000Y-59566000D02*
X165330000Y-59566000D01*
X167410000Y-59526000D02*
X169086000Y-59526000D01*
X163654000Y-59526000D02*
X165330000Y-59526000D01*
X167410000Y-59486000D02*
X169112000Y-59486000D01*
X163628000Y-59486000D02*
X165330000Y-59486000D01*
X167410000Y-59446000D02*
X169136000Y-59446000D01*
X163604000Y-59446000D02*
X165330000Y-59446000D01*
X167410000Y-59406000D02*
X169160000Y-59406000D01*
X163580000Y-59406000D02*
X165330000Y-59406000D01*
X167410000Y-59366000D02*
X169182000Y-59366000D01*
X163558000Y-59366000D02*
X165330000Y-59366000D01*
X167410000Y-59326000D02*
X169204000Y-59326000D01*
X163536000Y-59326000D02*
X165330000Y-59326000D01*
X167410000Y-59286000D02*
X169226000Y-59286000D01*
X163514000Y-59286000D02*
X165330000Y-59286000D01*
X167410000Y-59246000D02*
X169246000Y-59246000D01*
X163494000Y-59246000D02*
X165330000Y-59246000D01*
X167410000Y-59206000D02*
X169266000Y-59206000D01*
X163474000Y-59206000D02*
X165330000Y-59206000D01*
X167410000Y-59166000D02*
X169286000Y-59166000D01*
X163454000Y-59166000D02*
X165330000Y-59166000D01*
X167410000Y-59126000D02*
X169304000Y-59126000D01*
X163436000Y-59126000D02*
X165330000Y-59126000D01*
X167410000Y-59086000D02*
X169322000Y-59086000D01*
X163418000Y-59086000D02*
X165330000Y-59086000D01*
X167410000Y-59046000D02*
X169340000Y-59046000D01*
X163400000Y-59046000D02*
X165330000Y-59046000D01*
X167410000Y-59006000D02*
X169356000Y-59006000D01*
X163384000Y-59006000D02*
X165330000Y-59006000D01*
X167410000Y-58966000D02*
X169372000Y-58966000D01*
X163368000Y-58966000D02*
X165330000Y-58966000D01*
X167410000Y-58926000D02*
X169388000Y-58926000D01*
X163352000Y-58926000D02*
X165330000Y-58926000D01*
X167410000Y-58886000D02*
X169403000Y-58886000D01*
X163337000Y-58886000D02*
X165330000Y-58886000D01*
X167410000Y-58846000D02*
X169417000Y-58846000D01*
X163323000Y-58846000D02*
X165330000Y-58846000D01*
X167410000Y-58806000D02*
X169431000Y-58806000D01*
X163309000Y-58806000D02*
X165330000Y-58806000D01*
X167410000Y-58766000D02*
X169444000Y-58766000D01*
X163296000Y-58766000D02*
X165330000Y-58766000D01*
X167410000Y-58726000D02*
X169456000Y-58726000D01*
X163284000Y-58726000D02*
X165330000Y-58726000D01*
X167410000Y-58686000D02*
X169468000Y-58686000D01*
X163272000Y-58686000D02*
X165330000Y-58686000D01*
X167410000Y-58646000D02*
X169480000Y-58646000D01*
X163260000Y-58646000D02*
X165330000Y-58646000D01*
X167410000Y-58606000D02*
X169491000Y-58606000D01*
X163249000Y-58606000D02*
X165330000Y-58606000D01*
X167410000Y-58566000D02*
X169501000Y-58566000D01*
X163239000Y-58566000D02*
X165330000Y-58566000D01*
X167410000Y-58526000D02*
X169511000Y-58526000D01*
X163229000Y-58526000D02*
X165330000Y-58526000D01*
X167410000Y-58486000D02*
X169520000Y-58486000D01*
X163220000Y-58486000D02*
X165330000Y-58486000D01*
X167410000Y-58445000D02*
X169529000Y-58445000D01*
X163211000Y-58445000D02*
X165330000Y-58445000D01*
X167410000Y-58405000D02*
X169537000Y-58405000D01*
X163203000Y-58405000D02*
X165330000Y-58405000D01*
X167410000Y-58365000D02*
X169545000Y-58365000D01*
X163195000Y-58365000D02*
X165330000Y-58365000D01*
X167410000Y-58325000D02*
X169552000Y-58325000D01*
X163188000Y-58325000D02*
X165330000Y-58325000D01*
X167410000Y-58285000D02*
X169559000Y-58285000D01*
X163181000Y-58285000D02*
X165330000Y-58285000D01*
X167410000Y-58245000D02*
X169565000Y-58245000D01*
X163175000Y-58245000D02*
X165330000Y-58245000D01*
X167410000Y-58205000D02*
X169571000Y-58205000D01*
X163169000Y-58205000D02*
X165330000Y-58205000D01*
X167410000Y-58165000D02*
X169576000Y-58165000D01*
X163164000Y-58165000D02*
X165330000Y-58165000D01*
X167410000Y-58125000D02*
X169581000Y-58125000D01*
X163159000Y-58125000D02*
X165330000Y-58125000D01*
X167410000Y-58085000D02*
X169585000Y-58085000D01*
X163155000Y-58085000D02*
X165330000Y-58085000D01*
X167410000Y-58045000D02*
X169588000Y-58045000D01*
X163152000Y-58045000D02*
X165330000Y-58045000D01*
X167410000Y-58005000D02*
X169592000Y-58005000D01*
X163148000Y-58005000D02*
X165330000Y-58005000D01*
X163146000Y-57965000D02*
X169594000Y-57965000D01*
X163143000Y-57925000D02*
X169597000Y-57925000D01*
X163142000Y-57885000D02*
X169598000Y-57885000D01*
X163140000Y-57845000D02*
X169600000Y-57845000D01*
X163140000Y-57805000D02*
X169600000Y-57805000D01*
X163140000Y-57765000D02*
X169600000Y-57765000D01*
X169640000Y-57765000D02*
G75*
G03*
X169640000Y-57765000I-3270000J0D01*
G01*
X169688748Y-77390000D02*
X170211252Y-77390000D01*
X169688748Y-78810000D02*
X170211252Y-78810000D01*
X173702188Y-77966500D02*
X174224692Y-77966500D01*
X173702188Y-79386500D02*
X174224692Y-79386500D01*
X168338748Y-86990000D02*
X168861252Y-86990000D01*
X168338748Y-88410000D02*
X168861252Y-88410000D01*
X173913748Y-95640000D02*
X174436252Y-95640000D01*
X173913748Y-97060000D02*
X174436252Y-97060000D01*
X122724168Y-86884440D02*
X123246672Y-86884440D01*
X122724168Y-88304440D02*
X123246672Y-88304440D01*
X131131788Y-95977640D02*
X131654292Y-95977640D01*
X131131788Y-97397640D02*
X131654292Y-97397640D01*
X127592188Y-76709200D02*
X128114692Y-76709200D01*
X127592188Y-78129200D02*
X128114692Y-78129200D01*
X131434048Y-76696500D02*
X131956552Y-76696500D01*
X131434048Y-78116500D02*
X131956552Y-78116500D01*
X175439548Y-108967200D02*
X175962052Y-108967200D01*
X175439548Y-110387200D02*
X175962052Y-110387200D01*
X132444748Y-111278600D02*
X132967252Y-111278600D01*
X132444748Y-112698600D02*
X132967252Y-112698600D01*
X122683748Y-90730000D02*
X123206252Y-90730000D01*
X122683748Y-92150000D02*
X123206252Y-92150000D01*
X136151252Y-94690000D02*
X135628748Y-94690000D01*
X136151252Y-93270000D02*
X135628748Y-93270000D01*
X135628748Y-105970000D02*
X136151252Y-105970000D01*
X135628748Y-107390000D02*
X136151252Y-107390000D01*
X140986252Y-61670000D02*
X140463748Y-61670000D01*
X140986252Y-60250000D02*
X140463748Y-60250000D01*
X131071252Y-142696000D02*
X130548748Y-142696000D01*
X131071252Y-141276000D02*
X130548748Y-141276000D01*
X181670000Y-59630000D02*
X180340000Y-59630000D01*
X181670000Y-60960000D02*
X181670000Y-59630000D01*
X179070000Y-59630000D02*
X176470000Y-59630000D01*
X179070000Y-62230000D02*
X179070000Y-59630000D01*
X181670000Y-62230000D02*
X179070000Y-62230000D01*
X176470000Y-59630000D02*
X176470000Y-72450000D01*
X181670000Y-62230000D02*
X181670000Y-72450000D01*
X181670000Y-72450000D02*
X176470000Y-72450000D01*
X163770000Y-145990000D02*
X163770000Y-147320000D01*
X165100000Y-145990000D02*
X163770000Y-145990000D01*
X166370000Y-145990000D02*
X166370000Y-148650000D01*
X166370000Y-148650000D02*
X181670000Y-148650000D01*
X166370000Y-145990000D02*
X181670000Y-145990000D01*
X181670000Y-145990000D02*
X181670000Y-148650000D01*
X120590000Y-145990000D02*
X120590000Y-147320000D01*
X121920000Y-145990000D02*
X120590000Y-145990000D01*
X123190000Y-145990000D02*
X123190000Y-148650000D01*
X123190000Y-148650000D02*
X138490000Y-148650000D01*
X123190000Y-145990000D02*
X138490000Y-145990000D01*
X138490000Y-145990000D02*
X138490000Y-148650000D01*
D10*
X172719904Y-107602380D02*
X172719904Y-108411904D01*
X172672285Y-108507142D01*
X172624666Y-108554761D01*
X172529428Y-108602380D01*
X172338952Y-108602380D01*
X172243714Y-108554761D01*
X172196095Y-108507142D01*
X172148476Y-108411904D01*
X172148476Y-107602380D01*
X171243714Y-107602380D02*
X171434190Y-107602380D01*
X171529428Y-107650000D01*
X171577047Y-107697619D01*
X171672285Y-107840476D01*
X171719904Y-108030952D01*
X171719904Y-108411904D01*
X171672285Y-108507142D01*
X171624666Y-108554761D01*
X171529428Y-108602380D01*
X171338952Y-108602380D01*
X171243714Y-108554761D01*
X171196095Y-108507142D01*
X171148476Y-108411904D01*
X171148476Y-108173809D01*
X171196095Y-108078571D01*
X171243714Y-108030952D01*
X171338952Y-107983333D01*
X171529428Y-107983333D01*
X171624666Y-108030952D01*
X171672285Y-108078571D01*
X171719904Y-108173809D01*
X172719904Y-94292380D02*
X172719904Y-95101904D01*
X172672285Y-95197142D01*
X172624666Y-95244761D01*
X172529428Y-95292380D01*
X172338952Y-95292380D01*
X172243714Y-95244761D01*
X172196095Y-95197142D01*
X172148476Y-95101904D01*
X172148476Y-94292380D01*
X171196095Y-94292380D02*
X171672285Y-94292380D01*
X171719904Y-94768571D01*
X171672285Y-94720952D01*
X171577047Y-94673333D01*
X171338952Y-94673333D01*
X171243714Y-94720952D01*
X171196095Y-94768571D01*
X171148476Y-94863809D01*
X171148476Y-95101904D01*
X171196095Y-95197142D01*
X171243714Y-95244761D01*
X171338952Y-95292380D01*
X171577047Y-95292380D01*
X171672285Y-95244761D01*
X171719904Y-95197142D01*
X172719904Y-86672380D02*
X172719904Y-87481904D01*
X172672285Y-87577142D01*
X172624666Y-87624761D01*
X172529428Y-87672380D01*
X172338952Y-87672380D01*
X172243714Y-87624761D01*
X172196095Y-87577142D01*
X172148476Y-87481904D01*
X172148476Y-86672380D01*
X171243714Y-87005714D02*
X171243714Y-87672380D01*
X171481809Y-86624761D02*
X171719904Y-87339047D01*
X171100857Y-87339047D01*
X130236904Y-110142380D02*
X130236904Y-110951904D01*
X130189285Y-111047142D01*
X130141666Y-111094761D01*
X130046428Y-111142380D01*
X129855952Y-111142380D01*
X129760714Y-111094761D01*
X129713095Y-111047142D01*
X129665476Y-110951904D01*
X129665476Y-110142380D01*
X129284523Y-110142380D02*
X128665476Y-110142380D01*
X128998809Y-110523333D01*
X128855952Y-110523333D01*
X128760714Y-110570952D01*
X128713095Y-110618571D01*
X128665476Y-110713809D01*
X128665476Y-110951904D01*
X128713095Y-111047142D01*
X128760714Y-111094761D01*
X128855952Y-111142380D01*
X129141666Y-111142380D01*
X129236904Y-111094761D01*
X129284523Y-111047142D01*
X130236904Y-94292380D02*
X130236904Y-95101904D01*
X130189285Y-95197142D01*
X130141666Y-95244761D01*
X130046428Y-95292380D01*
X129855952Y-95292380D01*
X129760714Y-95244761D01*
X129713095Y-95197142D01*
X129665476Y-95101904D01*
X129665476Y-94292380D01*
X129236904Y-94387619D02*
X129189285Y-94340000D01*
X129094047Y-94292380D01*
X128855952Y-94292380D01*
X128760714Y-94340000D01*
X128713095Y-94387619D01*
X128665476Y-94482857D01*
X128665476Y-94578095D01*
X128713095Y-94720952D01*
X129284523Y-95292380D01*
X128665476Y-95292380D01*
X130301904Y-86672380D02*
X130301904Y-87481904D01*
X130254285Y-87577142D01*
X130206666Y-87624761D01*
X130111428Y-87672380D01*
X129920952Y-87672380D01*
X129825714Y-87624761D01*
X129778095Y-87577142D01*
X129730476Y-87481904D01*
X129730476Y-86672380D01*
X128730476Y-87672380D02*
X129301904Y-87672380D01*
X129016190Y-87672380D02*
X129016190Y-86672380D01*
X129111428Y-86815238D01*
X129206666Y-86910476D01*
X129301904Y-86958095D01*
X154265238Y-85542380D02*
X154598571Y-85066190D01*
X154836666Y-85542380D02*
X154836666Y-84542380D01*
X154455714Y-84542380D01*
X154360476Y-84590000D01*
X154312857Y-84637619D01*
X154265238Y-84732857D01*
X154265238Y-84875714D01*
X154312857Y-84970952D01*
X154360476Y-85018571D01*
X154455714Y-85066190D01*
X154836666Y-85066190D01*
X153979523Y-84542380D02*
X153646190Y-85542380D01*
X153312857Y-84542380D01*
X152836666Y-84970952D02*
X152931904Y-84923333D01*
X152979523Y-84875714D01*
X153027142Y-84780476D01*
X153027142Y-84732857D01*
X152979523Y-84637619D01*
X152931904Y-84590000D01*
X152836666Y-84542380D01*
X152646190Y-84542380D01*
X152550952Y-84590000D01*
X152503333Y-84637619D01*
X152455714Y-84732857D01*
X152455714Y-84780476D01*
X152503333Y-84875714D01*
X152550952Y-84923333D01*
X152646190Y-84970952D01*
X152836666Y-84970952D01*
X152931904Y-85018571D01*
X152979523Y-85066190D01*
X153027142Y-85161428D01*
X153027142Y-85351904D01*
X152979523Y-85447142D01*
X152931904Y-85494761D01*
X152836666Y-85542380D01*
X152646190Y-85542380D01*
X152550952Y-85494761D01*
X152503333Y-85447142D01*
X152455714Y-85351904D01*
X152455714Y-85161428D01*
X152503333Y-85066190D01*
X152550952Y-85018571D01*
X152646190Y-84970952D01*
X149185238Y-85542380D02*
X149518571Y-85066190D01*
X149756666Y-85542380D02*
X149756666Y-84542380D01*
X149375714Y-84542380D01*
X149280476Y-84590000D01*
X149232857Y-84637619D01*
X149185238Y-84732857D01*
X149185238Y-84875714D01*
X149232857Y-84970952D01*
X149280476Y-85018571D01*
X149375714Y-85066190D01*
X149756666Y-85066190D01*
X148899523Y-84542380D02*
X148566190Y-85542380D01*
X148232857Y-84542380D01*
X147470952Y-84875714D02*
X147470952Y-85542380D01*
X147709047Y-84494761D02*
X147947142Y-85209047D01*
X147328095Y-85209047D01*
X199321657Y-82062580D02*
X199654990Y-81586390D01*
X199893085Y-82062580D02*
X199893085Y-81062580D01*
X199512133Y-81062580D01*
X199416895Y-81110200D01*
X199369276Y-81157819D01*
X199321657Y-81253057D01*
X199321657Y-81395914D01*
X199369276Y-81491152D01*
X199416895Y-81538771D01*
X199512133Y-81586390D01*
X199893085Y-81586390D01*
X198845466Y-82062580D02*
X198654990Y-82062580D01*
X198559752Y-82014961D01*
X198512133Y-81967342D01*
X198416895Y-81824485D01*
X198369276Y-81634009D01*
X198369276Y-81253057D01*
X198416895Y-81157819D01*
X198464514Y-81110200D01*
X198559752Y-81062580D01*
X198750228Y-81062580D01*
X198845466Y-81110200D01*
X198893085Y-81157819D01*
X198940704Y-81253057D01*
X198940704Y-81491152D01*
X198893085Y-81586390D01*
X198845466Y-81634009D01*
X198750228Y-81681628D01*
X198559752Y-81681628D01*
X198464514Y-81634009D01*
X198416895Y-81586390D01*
X198369276Y-81491152D01*
X197750228Y-81062580D02*
X197654990Y-81062580D01*
X197559752Y-81110200D01*
X197512133Y-81157819D01*
X197464514Y-81253057D01*
X197416895Y-81443533D01*
X197416895Y-81681628D01*
X197464514Y-81872104D01*
X197512133Y-81967342D01*
X197559752Y-82014961D01*
X197654990Y-82062580D01*
X197750228Y-82062580D01*
X197845466Y-82014961D01*
X197893085Y-81967342D01*
X197940704Y-81872104D01*
X197988323Y-81681628D01*
X197988323Y-81443533D01*
X197940704Y-81253057D01*
X197893085Y-81157819D01*
X197845466Y-81110200D01*
X197750228Y-81062580D01*
X188399657Y-82062580D02*
X188732990Y-81586390D01*
X188971085Y-82062580D02*
X188971085Y-81062580D01*
X188590133Y-81062580D01*
X188494895Y-81110200D01*
X188447276Y-81157819D01*
X188399657Y-81253057D01*
X188399657Y-81395914D01*
X188447276Y-81491152D01*
X188494895Y-81538771D01*
X188590133Y-81586390D01*
X188971085Y-81586390D01*
X187828228Y-81491152D02*
X187923466Y-81443533D01*
X187971085Y-81395914D01*
X188018704Y-81300676D01*
X188018704Y-81253057D01*
X187971085Y-81157819D01*
X187923466Y-81110200D01*
X187828228Y-81062580D01*
X187637752Y-81062580D01*
X187542514Y-81110200D01*
X187494895Y-81157819D01*
X187447276Y-81253057D01*
X187447276Y-81300676D01*
X187494895Y-81395914D01*
X187542514Y-81443533D01*
X187637752Y-81491152D01*
X187828228Y-81491152D01*
X187923466Y-81538771D01*
X187971085Y-81586390D01*
X188018704Y-81681628D01*
X188018704Y-81872104D01*
X187971085Y-81967342D01*
X187923466Y-82014961D01*
X187828228Y-82062580D01*
X187637752Y-82062580D01*
X187542514Y-82014961D01*
X187494895Y-81967342D01*
X187447276Y-81872104D01*
X187447276Y-81681628D01*
X187494895Y-81586390D01*
X187542514Y-81538771D01*
X187637752Y-81491152D01*
X186971085Y-82062580D02*
X186780609Y-82062580D01*
X186685371Y-82014961D01*
X186637752Y-81967342D01*
X186542514Y-81824485D01*
X186494895Y-81634009D01*
X186494895Y-81253057D01*
X186542514Y-81157819D01*
X186590133Y-81110200D01*
X186685371Y-81062580D01*
X186875847Y-81062580D01*
X186971085Y-81110200D01*
X187018704Y-81157819D01*
X187066323Y-81253057D01*
X187066323Y-81491152D01*
X187018704Y-81586390D01*
X186971085Y-81634009D01*
X186875847Y-81681628D01*
X186685371Y-81681628D01*
X186590133Y-81634009D01*
X186542514Y-81586390D01*
X186494895Y-81491152D01*
X162948857Y-93797380D02*
X163282190Y-93321190D01*
X163520285Y-93797380D02*
X163520285Y-92797380D01*
X163139333Y-92797380D01*
X163044095Y-92845000D01*
X162996476Y-92892619D01*
X162948857Y-92987857D01*
X162948857Y-93130714D01*
X162996476Y-93225952D01*
X163044095Y-93273571D01*
X163139333Y-93321190D01*
X163520285Y-93321190D01*
X162377428Y-93225952D02*
X162472666Y-93178333D01*
X162520285Y-93130714D01*
X162567904Y-93035476D01*
X162567904Y-92987857D01*
X162520285Y-92892619D01*
X162472666Y-92845000D01*
X162377428Y-92797380D01*
X162186952Y-92797380D01*
X162091714Y-92845000D01*
X162044095Y-92892619D01*
X161996476Y-92987857D01*
X161996476Y-93035476D01*
X162044095Y-93130714D01*
X162091714Y-93178333D01*
X162186952Y-93225952D01*
X162377428Y-93225952D01*
X162472666Y-93273571D01*
X162520285Y-93321190D01*
X162567904Y-93416428D01*
X162567904Y-93606904D01*
X162520285Y-93702142D01*
X162472666Y-93749761D01*
X162377428Y-93797380D01*
X162186952Y-93797380D01*
X162091714Y-93749761D01*
X162044095Y-93702142D01*
X161996476Y-93606904D01*
X161996476Y-93416428D01*
X162044095Y-93321190D01*
X162091714Y-93273571D01*
X162186952Y-93225952D01*
X161425047Y-93225952D02*
X161520285Y-93178333D01*
X161567904Y-93130714D01*
X161615523Y-93035476D01*
X161615523Y-92987857D01*
X161567904Y-92892619D01*
X161520285Y-92845000D01*
X161425047Y-92797380D01*
X161234571Y-92797380D01*
X161139333Y-92845000D01*
X161091714Y-92892619D01*
X161044095Y-92987857D01*
X161044095Y-93035476D01*
X161091714Y-93130714D01*
X161139333Y-93178333D01*
X161234571Y-93225952D01*
X161425047Y-93225952D01*
X161520285Y-93273571D01*
X161567904Y-93321190D01*
X161615523Y-93416428D01*
X161615523Y-93606904D01*
X161567904Y-93702142D01*
X161520285Y-93749761D01*
X161425047Y-93797380D01*
X161234571Y-93797380D01*
X161139333Y-93749761D01*
X161091714Y-93702142D01*
X161044095Y-93606904D01*
X161044095Y-93416428D01*
X161091714Y-93321190D01*
X161139333Y-93273571D01*
X161234571Y-93225952D01*
X174546497Y-129951740D02*
X174879830Y-129475550D01*
X175117925Y-129951740D02*
X175117925Y-128951740D01*
X174736973Y-128951740D01*
X174641735Y-128999360D01*
X174594116Y-129046979D01*
X174546497Y-129142217D01*
X174546497Y-129285074D01*
X174594116Y-129380312D01*
X174641735Y-129427931D01*
X174736973Y-129475550D01*
X175117925Y-129475550D01*
X173975068Y-129380312D02*
X174070306Y-129332693D01*
X174117925Y-129285074D01*
X174165544Y-129189836D01*
X174165544Y-129142217D01*
X174117925Y-129046979D01*
X174070306Y-128999360D01*
X173975068Y-128951740D01*
X173784592Y-128951740D01*
X173689354Y-128999360D01*
X173641735Y-129046979D01*
X173594116Y-129142217D01*
X173594116Y-129189836D01*
X173641735Y-129285074D01*
X173689354Y-129332693D01*
X173784592Y-129380312D01*
X173975068Y-129380312D01*
X174070306Y-129427931D01*
X174117925Y-129475550D01*
X174165544Y-129570788D01*
X174165544Y-129761264D01*
X174117925Y-129856502D01*
X174070306Y-129904121D01*
X173975068Y-129951740D01*
X173784592Y-129951740D01*
X173689354Y-129904121D01*
X173641735Y-129856502D01*
X173594116Y-129761264D01*
X173594116Y-129570788D01*
X173641735Y-129475550D01*
X173689354Y-129427931D01*
X173784592Y-129380312D01*
X173260782Y-128951740D02*
X172594116Y-128951740D01*
X173022687Y-129951740D01*
X162948857Y-109672380D02*
X163282190Y-109196190D01*
X163520285Y-109672380D02*
X163520285Y-108672380D01*
X163139333Y-108672380D01*
X163044095Y-108720000D01*
X162996476Y-108767619D01*
X162948857Y-108862857D01*
X162948857Y-109005714D01*
X162996476Y-109100952D01*
X163044095Y-109148571D01*
X163139333Y-109196190D01*
X163520285Y-109196190D01*
X162377428Y-109100952D02*
X162472666Y-109053333D01*
X162520285Y-109005714D01*
X162567904Y-108910476D01*
X162567904Y-108862857D01*
X162520285Y-108767619D01*
X162472666Y-108720000D01*
X162377428Y-108672380D01*
X162186952Y-108672380D01*
X162091714Y-108720000D01*
X162044095Y-108767619D01*
X161996476Y-108862857D01*
X161996476Y-108910476D01*
X162044095Y-109005714D01*
X162091714Y-109053333D01*
X162186952Y-109100952D01*
X162377428Y-109100952D01*
X162472666Y-109148571D01*
X162520285Y-109196190D01*
X162567904Y-109291428D01*
X162567904Y-109481904D01*
X162520285Y-109577142D01*
X162472666Y-109624761D01*
X162377428Y-109672380D01*
X162186952Y-109672380D01*
X162091714Y-109624761D01*
X162044095Y-109577142D01*
X161996476Y-109481904D01*
X161996476Y-109291428D01*
X162044095Y-109196190D01*
X162091714Y-109148571D01*
X162186952Y-109100952D01*
X161139333Y-108672380D02*
X161329809Y-108672380D01*
X161425047Y-108720000D01*
X161472666Y-108767619D01*
X161567904Y-108910476D01*
X161615523Y-109100952D01*
X161615523Y-109481904D01*
X161567904Y-109577142D01*
X161520285Y-109624761D01*
X161425047Y-109672380D01*
X161234571Y-109672380D01*
X161139333Y-109624761D01*
X161091714Y-109577142D01*
X161044095Y-109481904D01*
X161044095Y-109243809D01*
X161091714Y-109148571D01*
X161139333Y-109100952D01*
X161234571Y-109053333D01*
X161425047Y-109053333D01*
X161520285Y-109100952D01*
X161567904Y-109148571D01*
X161615523Y-109243809D01*
X162948857Y-107132380D02*
X163282190Y-106656190D01*
X163520285Y-107132380D02*
X163520285Y-106132380D01*
X163139333Y-106132380D01*
X163044095Y-106180000D01*
X162996476Y-106227619D01*
X162948857Y-106322857D01*
X162948857Y-106465714D01*
X162996476Y-106560952D01*
X163044095Y-106608571D01*
X163139333Y-106656190D01*
X163520285Y-106656190D01*
X162377428Y-106560952D02*
X162472666Y-106513333D01*
X162520285Y-106465714D01*
X162567904Y-106370476D01*
X162567904Y-106322857D01*
X162520285Y-106227619D01*
X162472666Y-106180000D01*
X162377428Y-106132380D01*
X162186952Y-106132380D01*
X162091714Y-106180000D01*
X162044095Y-106227619D01*
X161996476Y-106322857D01*
X161996476Y-106370476D01*
X162044095Y-106465714D01*
X162091714Y-106513333D01*
X162186952Y-106560952D01*
X162377428Y-106560952D01*
X162472666Y-106608571D01*
X162520285Y-106656190D01*
X162567904Y-106751428D01*
X162567904Y-106941904D01*
X162520285Y-107037142D01*
X162472666Y-107084761D01*
X162377428Y-107132380D01*
X162186952Y-107132380D01*
X162091714Y-107084761D01*
X162044095Y-107037142D01*
X161996476Y-106941904D01*
X161996476Y-106751428D01*
X162044095Y-106656190D01*
X162091714Y-106608571D01*
X162186952Y-106560952D01*
X161091714Y-106132380D02*
X161567904Y-106132380D01*
X161615523Y-106608571D01*
X161567904Y-106560952D01*
X161472666Y-106513333D01*
X161234571Y-106513333D01*
X161139333Y-106560952D01*
X161091714Y-106608571D01*
X161044095Y-106703809D01*
X161044095Y-106941904D01*
X161091714Y-107037142D01*
X161139333Y-107084761D01*
X161234571Y-107132380D01*
X161472666Y-107132380D01*
X161567904Y-107084761D01*
X161615523Y-107037142D01*
X162948857Y-104592380D02*
X163282190Y-104116190D01*
X163520285Y-104592380D02*
X163520285Y-103592380D01*
X163139333Y-103592380D01*
X163044095Y-103640000D01*
X162996476Y-103687619D01*
X162948857Y-103782857D01*
X162948857Y-103925714D01*
X162996476Y-104020952D01*
X163044095Y-104068571D01*
X163139333Y-104116190D01*
X163520285Y-104116190D01*
X162377428Y-104020952D02*
X162472666Y-103973333D01*
X162520285Y-103925714D01*
X162567904Y-103830476D01*
X162567904Y-103782857D01*
X162520285Y-103687619D01*
X162472666Y-103640000D01*
X162377428Y-103592380D01*
X162186952Y-103592380D01*
X162091714Y-103640000D01*
X162044095Y-103687619D01*
X161996476Y-103782857D01*
X161996476Y-103830476D01*
X162044095Y-103925714D01*
X162091714Y-103973333D01*
X162186952Y-104020952D01*
X162377428Y-104020952D01*
X162472666Y-104068571D01*
X162520285Y-104116190D01*
X162567904Y-104211428D01*
X162567904Y-104401904D01*
X162520285Y-104497142D01*
X162472666Y-104544761D01*
X162377428Y-104592380D01*
X162186952Y-104592380D01*
X162091714Y-104544761D01*
X162044095Y-104497142D01*
X161996476Y-104401904D01*
X161996476Y-104211428D01*
X162044095Y-104116190D01*
X162091714Y-104068571D01*
X162186952Y-104020952D01*
X161139333Y-103925714D02*
X161139333Y-104592380D01*
X161377428Y-103544761D02*
X161615523Y-104259047D01*
X160996476Y-104259047D01*
X162948857Y-99512380D02*
X163282190Y-99036190D01*
X163520285Y-99512380D02*
X163520285Y-98512380D01*
X163139333Y-98512380D01*
X163044095Y-98560000D01*
X162996476Y-98607619D01*
X162948857Y-98702857D01*
X162948857Y-98845714D01*
X162996476Y-98940952D01*
X163044095Y-98988571D01*
X163139333Y-99036190D01*
X163520285Y-99036190D01*
X162377428Y-98940952D02*
X162472666Y-98893333D01*
X162520285Y-98845714D01*
X162567904Y-98750476D01*
X162567904Y-98702857D01*
X162520285Y-98607619D01*
X162472666Y-98560000D01*
X162377428Y-98512380D01*
X162186952Y-98512380D01*
X162091714Y-98560000D01*
X162044095Y-98607619D01*
X161996476Y-98702857D01*
X161996476Y-98750476D01*
X162044095Y-98845714D01*
X162091714Y-98893333D01*
X162186952Y-98940952D01*
X162377428Y-98940952D01*
X162472666Y-98988571D01*
X162520285Y-99036190D01*
X162567904Y-99131428D01*
X162567904Y-99321904D01*
X162520285Y-99417142D01*
X162472666Y-99464761D01*
X162377428Y-99512380D01*
X162186952Y-99512380D01*
X162091714Y-99464761D01*
X162044095Y-99417142D01*
X161996476Y-99321904D01*
X161996476Y-99131428D01*
X162044095Y-99036190D01*
X162091714Y-98988571D01*
X162186952Y-98940952D01*
X161663142Y-98512380D02*
X161044095Y-98512380D01*
X161377428Y-98893333D01*
X161234571Y-98893333D01*
X161139333Y-98940952D01*
X161091714Y-98988571D01*
X161044095Y-99083809D01*
X161044095Y-99321904D01*
X161091714Y-99417142D01*
X161139333Y-99464761D01*
X161234571Y-99512380D01*
X161520285Y-99512380D01*
X161615523Y-99464761D01*
X161663142Y-99417142D01*
X162948857Y-102052380D02*
X163282190Y-101576190D01*
X163520285Y-102052380D02*
X163520285Y-101052380D01*
X163139333Y-101052380D01*
X163044095Y-101100000D01*
X162996476Y-101147619D01*
X162948857Y-101242857D01*
X162948857Y-101385714D01*
X162996476Y-101480952D01*
X163044095Y-101528571D01*
X163139333Y-101576190D01*
X163520285Y-101576190D01*
X162377428Y-101480952D02*
X162472666Y-101433333D01*
X162520285Y-101385714D01*
X162567904Y-101290476D01*
X162567904Y-101242857D01*
X162520285Y-101147619D01*
X162472666Y-101100000D01*
X162377428Y-101052380D01*
X162186952Y-101052380D01*
X162091714Y-101100000D01*
X162044095Y-101147619D01*
X161996476Y-101242857D01*
X161996476Y-101290476D01*
X162044095Y-101385714D01*
X162091714Y-101433333D01*
X162186952Y-101480952D01*
X162377428Y-101480952D01*
X162472666Y-101528571D01*
X162520285Y-101576190D01*
X162567904Y-101671428D01*
X162567904Y-101861904D01*
X162520285Y-101957142D01*
X162472666Y-102004761D01*
X162377428Y-102052380D01*
X162186952Y-102052380D01*
X162091714Y-102004761D01*
X162044095Y-101957142D01*
X161996476Y-101861904D01*
X161996476Y-101671428D01*
X162044095Y-101576190D01*
X162091714Y-101528571D01*
X162186952Y-101480952D01*
X161615523Y-101147619D02*
X161567904Y-101100000D01*
X161472666Y-101052380D01*
X161234571Y-101052380D01*
X161139333Y-101100000D01*
X161091714Y-101147619D01*
X161044095Y-101242857D01*
X161044095Y-101338095D01*
X161091714Y-101480952D01*
X161663142Y-102052380D01*
X161044095Y-102052380D01*
X174262017Y-113070900D02*
X174595350Y-112594710D01*
X174833445Y-113070900D02*
X174833445Y-112070900D01*
X174452493Y-112070900D01*
X174357255Y-112118520D01*
X174309636Y-112166139D01*
X174262017Y-112261377D01*
X174262017Y-112404234D01*
X174309636Y-112499472D01*
X174357255Y-112547091D01*
X174452493Y-112594710D01*
X174833445Y-112594710D01*
X173690588Y-112499472D02*
X173785826Y-112451853D01*
X173833445Y-112404234D01*
X173881064Y-112308996D01*
X173881064Y-112261377D01*
X173833445Y-112166139D01*
X173785826Y-112118520D01*
X173690588Y-112070900D01*
X173500112Y-112070900D01*
X173404874Y-112118520D01*
X173357255Y-112166139D01*
X173309636Y-112261377D01*
X173309636Y-112308996D01*
X173357255Y-112404234D01*
X173404874Y-112451853D01*
X173500112Y-112499472D01*
X173690588Y-112499472D01*
X173785826Y-112547091D01*
X173833445Y-112594710D01*
X173881064Y-112689948D01*
X173881064Y-112880424D01*
X173833445Y-112975662D01*
X173785826Y-113023281D01*
X173690588Y-113070900D01*
X173500112Y-113070900D01*
X173404874Y-113023281D01*
X173357255Y-112975662D01*
X173309636Y-112880424D01*
X173309636Y-112689948D01*
X173357255Y-112594710D01*
X173404874Y-112547091D01*
X173500112Y-112499472D01*
X172357255Y-113070900D02*
X172928683Y-113070900D01*
X172642969Y-113070900D02*
X172642969Y-112070900D01*
X172738207Y-112213758D01*
X172833445Y-112308996D01*
X172928683Y-112356615D01*
X181998857Y-94051380D02*
X182332190Y-93575190D01*
X182570285Y-94051380D02*
X182570285Y-93051380D01*
X182189333Y-93051380D01*
X182094095Y-93099000D01*
X182046476Y-93146619D01*
X181998857Y-93241857D01*
X181998857Y-93384714D01*
X182046476Y-93479952D01*
X182094095Y-93527571D01*
X182189333Y-93575190D01*
X182570285Y-93575190D01*
X181427428Y-93479952D02*
X181522666Y-93432333D01*
X181570285Y-93384714D01*
X181617904Y-93289476D01*
X181617904Y-93241857D01*
X181570285Y-93146619D01*
X181522666Y-93099000D01*
X181427428Y-93051380D01*
X181236952Y-93051380D01*
X181141714Y-93099000D01*
X181094095Y-93146619D01*
X181046476Y-93241857D01*
X181046476Y-93289476D01*
X181094095Y-93384714D01*
X181141714Y-93432333D01*
X181236952Y-93479952D01*
X181427428Y-93479952D01*
X181522666Y-93527571D01*
X181570285Y-93575190D01*
X181617904Y-93670428D01*
X181617904Y-93860904D01*
X181570285Y-93956142D01*
X181522666Y-94003761D01*
X181427428Y-94051380D01*
X181236952Y-94051380D01*
X181141714Y-94003761D01*
X181094095Y-93956142D01*
X181046476Y-93860904D01*
X181046476Y-93670428D01*
X181094095Y-93575190D01*
X181141714Y-93527571D01*
X181236952Y-93479952D01*
X180427428Y-93051380D02*
X180332190Y-93051380D01*
X180236952Y-93099000D01*
X180189333Y-93146619D01*
X180141714Y-93241857D01*
X180094095Y-93432333D01*
X180094095Y-93670428D01*
X180141714Y-93860904D01*
X180189333Y-93956142D01*
X180236952Y-94003761D01*
X180332190Y-94051380D01*
X180427428Y-94051380D01*
X180522666Y-94003761D01*
X180570285Y-93956142D01*
X180617904Y-93860904D01*
X180665523Y-93670428D01*
X180665523Y-93432333D01*
X180617904Y-93241857D01*
X180570285Y-93146619D01*
X180522666Y-93099000D01*
X180427428Y-93051380D01*
X162771057Y-96474540D02*
X163104390Y-95998350D01*
X163342485Y-96474540D02*
X163342485Y-95474540D01*
X162961533Y-95474540D01*
X162866295Y-95522160D01*
X162818676Y-95569779D01*
X162771057Y-95665017D01*
X162771057Y-95807874D01*
X162818676Y-95903112D01*
X162866295Y-95950731D01*
X162961533Y-95998350D01*
X163342485Y-95998350D01*
X162437723Y-95474540D02*
X161771057Y-95474540D01*
X162199628Y-96474540D01*
X161342485Y-96474540D02*
X161152009Y-96474540D01*
X161056771Y-96426921D01*
X161009152Y-96379302D01*
X160913914Y-96236445D01*
X160866295Y-96045969D01*
X160866295Y-95665017D01*
X160913914Y-95569779D01*
X160961533Y-95522160D01*
X161056771Y-95474540D01*
X161247247Y-95474540D01*
X161342485Y-95522160D01*
X161390104Y-95569779D01*
X161437723Y-95665017D01*
X161437723Y-95903112D01*
X161390104Y-95998350D01*
X161342485Y-96045969D01*
X161247247Y-96093588D01*
X161056771Y-96093588D01*
X160961533Y-96045969D01*
X160913914Y-95998350D01*
X160866295Y-95903112D01*
X163710857Y-127452380D02*
X164044190Y-126976190D01*
X164282285Y-127452380D02*
X164282285Y-126452380D01*
X163901333Y-126452380D01*
X163806095Y-126500000D01*
X163758476Y-126547619D01*
X163710857Y-126642857D01*
X163710857Y-126785714D01*
X163758476Y-126880952D01*
X163806095Y-126928571D01*
X163901333Y-126976190D01*
X164282285Y-126976190D01*
X163377523Y-126452380D02*
X162710857Y-126452380D01*
X163139428Y-127452380D01*
X162187047Y-126880952D02*
X162282285Y-126833333D01*
X162329904Y-126785714D01*
X162377523Y-126690476D01*
X162377523Y-126642857D01*
X162329904Y-126547619D01*
X162282285Y-126500000D01*
X162187047Y-126452380D01*
X161996571Y-126452380D01*
X161901333Y-126500000D01*
X161853714Y-126547619D01*
X161806095Y-126642857D01*
X161806095Y-126690476D01*
X161853714Y-126785714D01*
X161901333Y-126833333D01*
X161996571Y-126880952D01*
X162187047Y-126880952D01*
X162282285Y-126928571D01*
X162329904Y-126976190D01*
X162377523Y-127071428D01*
X162377523Y-127261904D01*
X162329904Y-127357142D01*
X162282285Y-127404761D01*
X162187047Y-127452380D01*
X161996571Y-127452380D01*
X161901333Y-127404761D01*
X161853714Y-127357142D01*
X161806095Y-127261904D01*
X161806095Y-127071428D01*
X161853714Y-126976190D01*
X161901333Y-126928571D01*
X161996571Y-126880952D01*
X181236857Y-127452380D02*
X181570190Y-126976190D01*
X181808285Y-127452380D02*
X181808285Y-126452380D01*
X181427333Y-126452380D01*
X181332095Y-126500000D01*
X181284476Y-126547619D01*
X181236857Y-126642857D01*
X181236857Y-126785714D01*
X181284476Y-126880952D01*
X181332095Y-126928571D01*
X181427333Y-126976190D01*
X181808285Y-126976190D01*
X180903523Y-126452380D02*
X180236857Y-126452380D01*
X180665428Y-127452380D01*
X179951142Y-126452380D02*
X179284476Y-126452380D01*
X179713047Y-127452380D01*
X181227857Y-113482380D02*
X181561190Y-113006190D01*
X181799285Y-113482380D02*
X181799285Y-112482380D01*
X181418333Y-112482380D01*
X181323095Y-112530000D01*
X181275476Y-112577619D01*
X181227857Y-112672857D01*
X181227857Y-112815714D01*
X181275476Y-112910952D01*
X181323095Y-112958571D01*
X181418333Y-113006190D01*
X181799285Y-113006190D01*
X180894523Y-112482380D02*
X180227857Y-112482380D01*
X180656428Y-113482380D01*
X179418333Y-112482380D02*
X179608809Y-112482380D01*
X179704047Y-112530000D01*
X179751666Y-112577619D01*
X179846904Y-112720476D01*
X179894523Y-112910952D01*
X179894523Y-113291904D01*
X179846904Y-113387142D01*
X179799285Y-113434761D01*
X179704047Y-113482380D01*
X179513571Y-113482380D01*
X179418333Y-113434761D01*
X179370714Y-113387142D01*
X179323095Y-113291904D01*
X179323095Y-113053809D01*
X179370714Y-112958571D01*
X179418333Y-112910952D01*
X179513571Y-112863333D01*
X179704047Y-112863333D01*
X179799285Y-112910952D01*
X179846904Y-112958571D01*
X179894523Y-113053809D01*
X181998857Y-88971380D02*
X182332190Y-88495190D01*
X182570285Y-88971380D02*
X182570285Y-87971380D01*
X182189333Y-87971380D01*
X182094095Y-88019000D01*
X182046476Y-88066619D01*
X181998857Y-88161857D01*
X181998857Y-88304714D01*
X182046476Y-88399952D01*
X182094095Y-88447571D01*
X182189333Y-88495190D01*
X182570285Y-88495190D01*
X181665523Y-87971380D02*
X180998857Y-87971380D01*
X181427428Y-88971380D01*
X180141714Y-87971380D02*
X180617904Y-87971380D01*
X180665523Y-88447571D01*
X180617904Y-88399952D01*
X180522666Y-88352333D01*
X180284571Y-88352333D01*
X180189333Y-88399952D01*
X180141714Y-88447571D01*
X180094095Y-88542809D01*
X180094095Y-88780904D01*
X180141714Y-88876142D01*
X180189333Y-88923761D01*
X180284571Y-88971380D01*
X180522666Y-88971380D01*
X180617904Y-88923761D01*
X180665523Y-88876142D01*
X163710857Y-129992380D02*
X164044190Y-129516190D01*
X164282285Y-129992380D02*
X164282285Y-128992380D01*
X163901333Y-128992380D01*
X163806095Y-129040000D01*
X163758476Y-129087619D01*
X163710857Y-129182857D01*
X163710857Y-129325714D01*
X163758476Y-129420952D01*
X163806095Y-129468571D01*
X163901333Y-129516190D01*
X164282285Y-129516190D01*
X163377523Y-128992380D02*
X162710857Y-128992380D01*
X163139428Y-129992380D01*
X161901333Y-129325714D02*
X161901333Y-129992380D01*
X162139428Y-128944761D02*
X162377523Y-129659047D01*
X161758476Y-129659047D01*
X166758857Y-144724380D02*
X167092190Y-144248190D01*
X167330285Y-144724380D02*
X167330285Y-143724380D01*
X166949333Y-143724380D01*
X166854095Y-143772000D01*
X166806476Y-143819619D01*
X166758857Y-143914857D01*
X166758857Y-144057714D01*
X166806476Y-144152952D01*
X166854095Y-144200571D01*
X166949333Y-144248190D01*
X167330285Y-144248190D01*
X166425523Y-143724380D02*
X165758857Y-143724380D01*
X166187428Y-144724380D01*
X165473142Y-143724380D02*
X164854095Y-143724380D01*
X165187428Y-144105333D01*
X165044571Y-144105333D01*
X164949333Y-144152952D01*
X164901714Y-144200571D01*
X164854095Y-144295809D01*
X164854095Y-144533904D01*
X164901714Y-144629142D01*
X164949333Y-144676761D01*
X165044571Y-144724380D01*
X165330285Y-144724380D01*
X165425523Y-144676761D01*
X165473142Y-144629142D01*
X190101457Y-117190780D02*
X190434790Y-116714590D01*
X190672885Y-117190780D02*
X190672885Y-116190780D01*
X190291933Y-116190780D01*
X190196695Y-116238400D01*
X190149076Y-116286019D01*
X190101457Y-116381257D01*
X190101457Y-116524114D01*
X190149076Y-116619352D01*
X190196695Y-116666971D01*
X190291933Y-116714590D01*
X190672885Y-116714590D01*
X189768123Y-116190780D02*
X189101457Y-116190780D01*
X189530028Y-117190780D01*
X188768123Y-116286019D02*
X188720504Y-116238400D01*
X188625266Y-116190780D01*
X188387171Y-116190780D01*
X188291933Y-116238400D01*
X188244314Y-116286019D01*
X188196695Y-116381257D01*
X188196695Y-116476495D01*
X188244314Y-116619352D01*
X188815742Y-117190780D01*
X188196695Y-117190780D01*
X181998857Y-107386380D02*
X182332190Y-106910190D01*
X182570285Y-107386380D02*
X182570285Y-106386380D01*
X182189333Y-106386380D01*
X182094095Y-106434000D01*
X182046476Y-106481619D01*
X181998857Y-106576857D01*
X181998857Y-106719714D01*
X182046476Y-106814952D01*
X182094095Y-106862571D01*
X182189333Y-106910190D01*
X182570285Y-106910190D01*
X181665523Y-106386380D02*
X180998857Y-106386380D01*
X181427428Y-107386380D01*
X180094095Y-107386380D02*
X180665523Y-107386380D01*
X180379809Y-107386380D02*
X180379809Y-106386380D01*
X180475047Y-106529238D01*
X180570285Y-106624476D01*
X180665523Y-106672095D01*
X190609457Y-108300780D02*
X190942790Y-107824590D01*
X191180885Y-108300780D02*
X191180885Y-107300780D01*
X190799933Y-107300780D01*
X190704695Y-107348400D01*
X190657076Y-107396019D01*
X190609457Y-107491257D01*
X190609457Y-107634114D01*
X190657076Y-107729352D01*
X190704695Y-107776971D01*
X190799933Y-107824590D01*
X191180885Y-107824590D01*
X190276123Y-107300780D02*
X189609457Y-107300780D01*
X190038028Y-108300780D01*
X189038028Y-107300780D02*
X188942790Y-107300780D01*
X188847552Y-107348400D01*
X188799933Y-107396019D01*
X188752314Y-107491257D01*
X188704695Y-107681733D01*
X188704695Y-107919828D01*
X188752314Y-108110304D01*
X188799933Y-108205542D01*
X188847552Y-108253161D01*
X188942790Y-108300780D01*
X189038028Y-108300780D01*
X189133266Y-108253161D01*
X189180885Y-108205542D01*
X189228504Y-108110304D01*
X189276123Y-107919828D01*
X189276123Y-107681733D01*
X189228504Y-107491257D01*
X189180885Y-107396019D01*
X189133266Y-107348400D01*
X189038028Y-107300780D01*
X181998857Y-102306380D02*
X182332190Y-101830190D01*
X182570285Y-102306380D02*
X182570285Y-101306380D01*
X182189333Y-101306380D01*
X182094095Y-101354000D01*
X182046476Y-101401619D01*
X181998857Y-101496857D01*
X181998857Y-101639714D01*
X182046476Y-101734952D01*
X182094095Y-101782571D01*
X182189333Y-101830190D01*
X182570285Y-101830190D01*
X181141714Y-101306380D02*
X181332190Y-101306380D01*
X181427428Y-101354000D01*
X181475047Y-101401619D01*
X181570285Y-101544476D01*
X181617904Y-101734952D01*
X181617904Y-102115904D01*
X181570285Y-102211142D01*
X181522666Y-102258761D01*
X181427428Y-102306380D01*
X181236952Y-102306380D01*
X181141714Y-102258761D01*
X181094095Y-102211142D01*
X181046476Y-102115904D01*
X181046476Y-101877809D01*
X181094095Y-101782571D01*
X181141714Y-101734952D01*
X181236952Y-101687333D01*
X181427428Y-101687333D01*
X181522666Y-101734952D01*
X181570285Y-101782571D01*
X181617904Y-101877809D01*
X180570285Y-102306380D02*
X180379809Y-102306380D01*
X180284571Y-102258761D01*
X180236952Y-102211142D01*
X180141714Y-102068285D01*
X180094095Y-101877809D01*
X180094095Y-101496857D01*
X180141714Y-101401619D01*
X180189333Y-101354000D01*
X180284571Y-101306380D01*
X180475047Y-101306380D01*
X180570285Y-101354000D01*
X180617904Y-101401619D01*
X180665523Y-101496857D01*
X180665523Y-101734952D01*
X180617904Y-101830190D01*
X180570285Y-101877809D01*
X180475047Y-101925428D01*
X180284571Y-101925428D01*
X180189333Y-101877809D01*
X180141714Y-101830190D01*
X180094095Y-101734952D01*
X190609457Y-110840780D02*
X190942790Y-110364590D01*
X191180885Y-110840780D02*
X191180885Y-109840780D01*
X190799933Y-109840780D01*
X190704695Y-109888400D01*
X190657076Y-109936019D01*
X190609457Y-110031257D01*
X190609457Y-110174114D01*
X190657076Y-110269352D01*
X190704695Y-110316971D01*
X190799933Y-110364590D01*
X191180885Y-110364590D01*
X189752314Y-109840780D02*
X189942790Y-109840780D01*
X190038028Y-109888400D01*
X190085647Y-109936019D01*
X190180885Y-110078876D01*
X190228504Y-110269352D01*
X190228504Y-110650304D01*
X190180885Y-110745542D01*
X190133266Y-110793161D01*
X190038028Y-110840780D01*
X189847552Y-110840780D01*
X189752314Y-110793161D01*
X189704695Y-110745542D01*
X189657076Y-110650304D01*
X189657076Y-110412209D01*
X189704695Y-110316971D01*
X189752314Y-110269352D01*
X189847552Y-110221733D01*
X190038028Y-110221733D01*
X190133266Y-110269352D01*
X190180885Y-110316971D01*
X190228504Y-110412209D01*
X189085647Y-110269352D02*
X189180885Y-110221733D01*
X189228504Y-110174114D01*
X189276123Y-110078876D01*
X189276123Y-110031257D01*
X189228504Y-109936019D01*
X189180885Y-109888400D01*
X189085647Y-109840780D01*
X188895171Y-109840780D01*
X188799933Y-109888400D01*
X188752314Y-109936019D01*
X188704695Y-110031257D01*
X188704695Y-110078876D01*
X188752314Y-110174114D01*
X188799933Y-110221733D01*
X188895171Y-110269352D01*
X189085647Y-110269352D01*
X189180885Y-110316971D01*
X189228504Y-110364590D01*
X189276123Y-110459828D01*
X189276123Y-110650304D01*
X189228504Y-110745542D01*
X189180885Y-110793161D01*
X189085647Y-110840780D01*
X188895171Y-110840780D01*
X188799933Y-110793161D01*
X188752314Y-110745542D01*
X188704695Y-110650304D01*
X188704695Y-110459828D01*
X188752314Y-110364590D01*
X188799933Y-110316971D01*
X188895171Y-110269352D01*
X181998857Y-99766380D02*
X182332190Y-99290190D01*
X182570285Y-99766380D02*
X182570285Y-98766380D01*
X182189333Y-98766380D01*
X182094095Y-98814000D01*
X182046476Y-98861619D01*
X181998857Y-98956857D01*
X181998857Y-99099714D01*
X182046476Y-99194952D01*
X182094095Y-99242571D01*
X182189333Y-99290190D01*
X182570285Y-99290190D01*
X181141714Y-98766380D02*
X181332190Y-98766380D01*
X181427428Y-98814000D01*
X181475047Y-98861619D01*
X181570285Y-99004476D01*
X181617904Y-99194952D01*
X181617904Y-99575904D01*
X181570285Y-99671142D01*
X181522666Y-99718761D01*
X181427428Y-99766380D01*
X181236952Y-99766380D01*
X181141714Y-99718761D01*
X181094095Y-99671142D01*
X181046476Y-99575904D01*
X181046476Y-99337809D01*
X181094095Y-99242571D01*
X181141714Y-99194952D01*
X181236952Y-99147333D01*
X181427428Y-99147333D01*
X181522666Y-99194952D01*
X181570285Y-99242571D01*
X181617904Y-99337809D01*
X180713142Y-98766380D02*
X180046476Y-98766380D01*
X180475047Y-99766380D01*
X181236857Y-135072380D02*
X181570190Y-134596190D01*
X181808285Y-135072380D02*
X181808285Y-134072380D01*
X181427333Y-134072380D01*
X181332095Y-134120000D01*
X181284476Y-134167619D01*
X181236857Y-134262857D01*
X181236857Y-134405714D01*
X181284476Y-134500952D01*
X181332095Y-134548571D01*
X181427333Y-134596190D01*
X181808285Y-134596190D01*
X180379714Y-134072380D02*
X180570190Y-134072380D01*
X180665428Y-134120000D01*
X180713047Y-134167619D01*
X180808285Y-134310476D01*
X180855904Y-134500952D01*
X180855904Y-134881904D01*
X180808285Y-134977142D01*
X180760666Y-135024761D01*
X180665428Y-135072380D01*
X180474952Y-135072380D01*
X180379714Y-135024761D01*
X180332095Y-134977142D01*
X180284476Y-134881904D01*
X180284476Y-134643809D01*
X180332095Y-134548571D01*
X180379714Y-134500952D01*
X180474952Y-134453333D01*
X180665428Y-134453333D01*
X180760666Y-134500952D01*
X180808285Y-134548571D01*
X180855904Y-134643809D01*
X179427333Y-134072380D02*
X179617809Y-134072380D01*
X179713047Y-134120000D01*
X179760666Y-134167619D01*
X179855904Y-134310476D01*
X179903523Y-134500952D01*
X179903523Y-134881904D01*
X179855904Y-134977142D01*
X179808285Y-135024761D01*
X179713047Y-135072380D01*
X179522571Y-135072380D01*
X179427333Y-135024761D01*
X179379714Y-134977142D01*
X179332095Y-134881904D01*
X179332095Y-134643809D01*
X179379714Y-134548571D01*
X179427333Y-134500952D01*
X179522571Y-134453333D01*
X179713047Y-134453333D01*
X179808285Y-134500952D01*
X179855904Y-134548571D01*
X179903523Y-134643809D01*
X181236857Y-132532380D02*
X181570190Y-132056190D01*
X181808285Y-132532380D02*
X181808285Y-131532380D01*
X181427333Y-131532380D01*
X181332095Y-131580000D01*
X181284476Y-131627619D01*
X181236857Y-131722857D01*
X181236857Y-131865714D01*
X181284476Y-131960952D01*
X181332095Y-132008571D01*
X181427333Y-132056190D01*
X181808285Y-132056190D01*
X180379714Y-131532380D02*
X180570190Y-131532380D01*
X180665428Y-131580000D01*
X180713047Y-131627619D01*
X180808285Y-131770476D01*
X180855904Y-131960952D01*
X180855904Y-132341904D01*
X180808285Y-132437142D01*
X180760666Y-132484761D01*
X180665428Y-132532380D01*
X180474952Y-132532380D01*
X180379714Y-132484761D01*
X180332095Y-132437142D01*
X180284476Y-132341904D01*
X180284476Y-132103809D01*
X180332095Y-132008571D01*
X180379714Y-131960952D01*
X180474952Y-131913333D01*
X180665428Y-131913333D01*
X180760666Y-131960952D01*
X180808285Y-132008571D01*
X180855904Y-132103809D01*
X179379714Y-131532380D02*
X179855904Y-131532380D01*
X179903523Y-132008571D01*
X179855904Y-131960952D01*
X179760666Y-131913333D01*
X179522571Y-131913333D01*
X179427333Y-131960952D01*
X179379714Y-132008571D01*
X179332095Y-132103809D01*
X179332095Y-132341904D01*
X179379714Y-132437142D01*
X179427333Y-132484761D01*
X179522571Y-132532380D01*
X179760666Y-132532380D01*
X179855904Y-132484761D01*
X179903523Y-132437142D01*
X181236857Y-123642380D02*
X181570190Y-123166190D01*
X181808285Y-123642380D02*
X181808285Y-122642380D01*
X181427333Y-122642380D01*
X181332095Y-122690000D01*
X181284476Y-122737619D01*
X181236857Y-122832857D01*
X181236857Y-122975714D01*
X181284476Y-123070952D01*
X181332095Y-123118571D01*
X181427333Y-123166190D01*
X181808285Y-123166190D01*
X180379714Y-122642380D02*
X180570190Y-122642380D01*
X180665428Y-122690000D01*
X180713047Y-122737619D01*
X180808285Y-122880476D01*
X180855904Y-123070952D01*
X180855904Y-123451904D01*
X180808285Y-123547142D01*
X180760666Y-123594761D01*
X180665428Y-123642380D01*
X180474952Y-123642380D01*
X180379714Y-123594761D01*
X180332095Y-123547142D01*
X180284476Y-123451904D01*
X180284476Y-123213809D01*
X180332095Y-123118571D01*
X180379714Y-123070952D01*
X180474952Y-123023333D01*
X180665428Y-123023333D01*
X180760666Y-123070952D01*
X180808285Y-123118571D01*
X180855904Y-123213809D01*
X179427333Y-122975714D02*
X179427333Y-123642380D01*
X179665428Y-122594761D02*
X179903523Y-123309047D01*
X179284476Y-123309047D01*
X181236857Y-121102380D02*
X181570190Y-120626190D01*
X181808285Y-121102380D02*
X181808285Y-120102380D01*
X181427333Y-120102380D01*
X181332095Y-120150000D01*
X181284476Y-120197619D01*
X181236857Y-120292857D01*
X181236857Y-120435714D01*
X181284476Y-120530952D01*
X181332095Y-120578571D01*
X181427333Y-120626190D01*
X181808285Y-120626190D01*
X180379714Y-120102380D02*
X180570190Y-120102380D01*
X180665428Y-120150000D01*
X180713047Y-120197619D01*
X180808285Y-120340476D01*
X180855904Y-120530952D01*
X180855904Y-120911904D01*
X180808285Y-121007142D01*
X180760666Y-121054761D01*
X180665428Y-121102380D01*
X180474952Y-121102380D01*
X180379714Y-121054761D01*
X180332095Y-121007142D01*
X180284476Y-120911904D01*
X180284476Y-120673809D01*
X180332095Y-120578571D01*
X180379714Y-120530952D01*
X180474952Y-120483333D01*
X180665428Y-120483333D01*
X180760666Y-120530952D01*
X180808285Y-120578571D01*
X180855904Y-120673809D01*
X179951142Y-120102380D02*
X179332095Y-120102380D01*
X179665428Y-120483333D01*
X179522571Y-120483333D01*
X179427333Y-120530952D01*
X179379714Y-120578571D01*
X179332095Y-120673809D01*
X179332095Y-120911904D01*
X179379714Y-121007142D01*
X179427333Y-121054761D01*
X179522571Y-121102380D01*
X179808285Y-121102380D01*
X179903523Y-121054761D01*
X179951142Y-121007142D01*
X181236857Y-129992380D02*
X181570190Y-129516190D01*
X181808285Y-129992380D02*
X181808285Y-128992380D01*
X181427333Y-128992380D01*
X181332095Y-129040000D01*
X181284476Y-129087619D01*
X181236857Y-129182857D01*
X181236857Y-129325714D01*
X181284476Y-129420952D01*
X181332095Y-129468571D01*
X181427333Y-129516190D01*
X181808285Y-129516190D01*
X180379714Y-128992380D02*
X180570190Y-128992380D01*
X180665428Y-129040000D01*
X180713047Y-129087619D01*
X180808285Y-129230476D01*
X180855904Y-129420952D01*
X180855904Y-129801904D01*
X180808285Y-129897142D01*
X180760666Y-129944761D01*
X180665428Y-129992380D01*
X180474952Y-129992380D01*
X180379714Y-129944761D01*
X180332095Y-129897142D01*
X180284476Y-129801904D01*
X180284476Y-129563809D01*
X180332095Y-129468571D01*
X180379714Y-129420952D01*
X180474952Y-129373333D01*
X180665428Y-129373333D01*
X180760666Y-129420952D01*
X180808285Y-129468571D01*
X180855904Y-129563809D01*
X179903523Y-129087619D02*
X179855904Y-129040000D01*
X179760666Y-128992380D01*
X179522571Y-128992380D01*
X179427333Y-129040000D01*
X179379714Y-129087619D01*
X179332095Y-129182857D01*
X179332095Y-129278095D01*
X179379714Y-129420952D01*
X179951142Y-129992380D01*
X179332095Y-129992380D01*
X181236857Y-116022380D02*
X181570190Y-115546190D01*
X181808285Y-116022380D02*
X181808285Y-115022380D01*
X181427333Y-115022380D01*
X181332095Y-115070000D01*
X181284476Y-115117619D01*
X181236857Y-115212857D01*
X181236857Y-115355714D01*
X181284476Y-115450952D01*
X181332095Y-115498571D01*
X181427333Y-115546190D01*
X181808285Y-115546190D01*
X180379714Y-115022380D02*
X180570190Y-115022380D01*
X180665428Y-115070000D01*
X180713047Y-115117619D01*
X180808285Y-115260476D01*
X180855904Y-115450952D01*
X180855904Y-115831904D01*
X180808285Y-115927142D01*
X180760666Y-115974761D01*
X180665428Y-116022380D01*
X180474952Y-116022380D01*
X180379714Y-115974761D01*
X180332095Y-115927142D01*
X180284476Y-115831904D01*
X180284476Y-115593809D01*
X180332095Y-115498571D01*
X180379714Y-115450952D01*
X180474952Y-115403333D01*
X180665428Y-115403333D01*
X180760666Y-115450952D01*
X180808285Y-115498571D01*
X180855904Y-115593809D01*
X179332095Y-116022380D02*
X179903523Y-116022380D01*
X179617809Y-116022380D02*
X179617809Y-115022380D01*
X179713047Y-115165238D01*
X179808285Y-115260476D01*
X179903523Y-115308095D01*
X181236857Y-118562380D02*
X181570190Y-118086190D01*
X181808285Y-118562380D02*
X181808285Y-117562380D01*
X181427333Y-117562380D01*
X181332095Y-117610000D01*
X181284476Y-117657619D01*
X181236857Y-117752857D01*
X181236857Y-117895714D01*
X181284476Y-117990952D01*
X181332095Y-118038571D01*
X181427333Y-118086190D01*
X181808285Y-118086190D01*
X180379714Y-117562380D02*
X180570190Y-117562380D01*
X180665428Y-117610000D01*
X180713047Y-117657619D01*
X180808285Y-117800476D01*
X180855904Y-117990952D01*
X180855904Y-118371904D01*
X180808285Y-118467142D01*
X180760666Y-118514761D01*
X180665428Y-118562380D01*
X180474952Y-118562380D01*
X180379714Y-118514761D01*
X180332095Y-118467142D01*
X180284476Y-118371904D01*
X180284476Y-118133809D01*
X180332095Y-118038571D01*
X180379714Y-117990952D01*
X180474952Y-117943333D01*
X180665428Y-117943333D01*
X180760666Y-117990952D01*
X180808285Y-118038571D01*
X180855904Y-118133809D01*
X179665428Y-117562380D02*
X179570190Y-117562380D01*
X179474952Y-117610000D01*
X179427333Y-117657619D01*
X179379714Y-117752857D01*
X179332095Y-117943333D01*
X179332095Y-118181428D01*
X179379714Y-118371904D01*
X179427333Y-118467142D01*
X179474952Y-118514761D01*
X179570190Y-118562380D01*
X179665428Y-118562380D01*
X179760666Y-118514761D01*
X179808285Y-118467142D01*
X179855904Y-118371904D01*
X179903523Y-118181428D01*
X179903523Y-117943333D01*
X179855904Y-117752857D01*
X179808285Y-117657619D01*
X179760666Y-117610000D01*
X179665428Y-117562380D01*
X156090857Y-142692380D02*
X156424190Y-142216190D01*
X156662285Y-142692380D02*
X156662285Y-141692380D01*
X156281333Y-141692380D01*
X156186095Y-141740000D01*
X156138476Y-141787619D01*
X156090857Y-141882857D01*
X156090857Y-142025714D01*
X156138476Y-142120952D01*
X156186095Y-142168571D01*
X156281333Y-142216190D01*
X156662285Y-142216190D01*
X155186095Y-141692380D02*
X155662285Y-141692380D01*
X155709904Y-142168571D01*
X155662285Y-142120952D01*
X155567047Y-142073333D01*
X155328952Y-142073333D01*
X155233714Y-142120952D01*
X155186095Y-142168571D01*
X155138476Y-142263809D01*
X155138476Y-142501904D01*
X155186095Y-142597142D01*
X155233714Y-142644761D01*
X155328952Y-142692380D01*
X155567047Y-142692380D01*
X155662285Y-142644761D01*
X155709904Y-142597142D01*
X154662285Y-142692380D02*
X154471809Y-142692380D01*
X154376571Y-142644761D01*
X154328952Y-142597142D01*
X154233714Y-142454285D01*
X154186095Y-142263809D01*
X154186095Y-141882857D01*
X154233714Y-141787619D01*
X154281333Y-141740000D01*
X154376571Y-141692380D01*
X154567047Y-141692380D01*
X154662285Y-141740000D01*
X154709904Y-141787619D01*
X154757523Y-141882857D01*
X154757523Y-142120952D01*
X154709904Y-142216190D01*
X154662285Y-142263809D01*
X154567047Y-142311428D01*
X154376571Y-142311428D01*
X154281333Y-142263809D01*
X154233714Y-142216190D01*
X154186095Y-142120952D01*
X155836857Y-127452380D02*
X156170190Y-126976190D01*
X156408285Y-127452380D02*
X156408285Y-126452380D01*
X156027333Y-126452380D01*
X155932095Y-126500000D01*
X155884476Y-126547619D01*
X155836857Y-126642857D01*
X155836857Y-126785714D01*
X155884476Y-126880952D01*
X155932095Y-126928571D01*
X156027333Y-126976190D01*
X156408285Y-126976190D01*
X154932095Y-126452380D02*
X155408285Y-126452380D01*
X155455904Y-126928571D01*
X155408285Y-126880952D01*
X155313047Y-126833333D01*
X155074952Y-126833333D01*
X154979714Y-126880952D01*
X154932095Y-126928571D01*
X154884476Y-127023809D01*
X154884476Y-127261904D01*
X154932095Y-127357142D01*
X154979714Y-127404761D01*
X155074952Y-127452380D01*
X155313047Y-127452380D01*
X155408285Y-127404761D01*
X155455904Y-127357142D01*
X154313047Y-126880952D02*
X154408285Y-126833333D01*
X154455904Y-126785714D01*
X154503523Y-126690476D01*
X154503523Y-126642857D01*
X154455904Y-126547619D01*
X154408285Y-126500000D01*
X154313047Y-126452380D01*
X154122571Y-126452380D01*
X154027333Y-126500000D01*
X153979714Y-126547619D01*
X153932095Y-126642857D01*
X153932095Y-126690476D01*
X153979714Y-126785714D01*
X154027333Y-126833333D01*
X154122571Y-126880952D01*
X154313047Y-126880952D01*
X154408285Y-126928571D01*
X154455904Y-126976190D01*
X154503523Y-127071428D01*
X154503523Y-127261904D01*
X154455904Y-127357142D01*
X154408285Y-127404761D01*
X154313047Y-127452380D01*
X154122571Y-127452380D01*
X154027333Y-127404761D01*
X153979714Y-127357142D01*
X153932095Y-127261904D01*
X153932095Y-127071428D01*
X153979714Y-126976190D01*
X154027333Y-126928571D01*
X154122571Y-126880952D01*
X154566857Y-67762380D02*
X154900190Y-67286190D01*
X155138285Y-67762380D02*
X155138285Y-66762380D01*
X154757333Y-66762380D01*
X154662095Y-66810000D01*
X154614476Y-66857619D01*
X154566857Y-66952857D01*
X154566857Y-67095714D01*
X154614476Y-67190952D01*
X154662095Y-67238571D01*
X154757333Y-67286190D01*
X155138285Y-67286190D01*
X153662095Y-66762380D02*
X154138285Y-66762380D01*
X154185904Y-67238571D01*
X154138285Y-67190952D01*
X154043047Y-67143333D01*
X153804952Y-67143333D01*
X153709714Y-67190952D01*
X153662095Y-67238571D01*
X153614476Y-67333809D01*
X153614476Y-67571904D01*
X153662095Y-67667142D01*
X153709714Y-67714761D01*
X153804952Y-67762380D01*
X154043047Y-67762380D01*
X154138285Y-67714761D01*
X154185904Y-67667142D01*
X153281142Y-66762380D02*
X152614476Y-66762380D01*
X153043047Y-67762380D01*
X166758857Y-139517380D02*
X167092190Y-139041190D01*
X167330285Y-139517380D02*
X167330285Y-138517380D01*
X166949333Y-138517380D01*
X166854095Y-138565000D01*
X166806476Y-138612619D01*
X166758857Y-138707857D01*
X166758857Y-138850714D01*
X166806476Y-138945952D01*
X166854095Y-138993571D01*
X166949333Y-139041190D01*
X167330285Y-139041190D01*
X165854095Y-138517380D02*
X166330285Y-138517380D01*
X166377904Y-138993571D01*
X166330285Y-138945952D01*
X166235047Y-138898333D01*
X165996952Y-138898333D01*
X165901714Y-138945952D01*
X165854095Y-138993571D01*
X165806476Y-139088809D01*
X165806476Y-139326904D01*
X165854095Y-139422142D01*
X165901714Y-139469761D01*
X165996952Y-139517380D01*
X166235047Y-139517380D01*
X166330285Y-139469761D01*
X166377904Y-139422142D01*
X164949333Y-138517380D02*
X165139809Y-138517380D01*
X165235047Y-138565000D01*
X165282666Y-138612619D01*
X165377904Y-138755476D01*
X165425523Y-138945952D01*
X165425523Y-139326904D01*
X165377904Y-139422142D01*
X165330285Y-139469761D01*
X165235047Y-139517380D01*
X165044571Y-139517380D01*
X164949333Y-139469761D01*
X164901714Y-139422142D01*
X164854095Y-139326904D01*
X164854095Y-139088809D01*
X164901714Y-138993571D01*
X164949333Y-138945952D01*
X165044571Y-138898333D01*
X165235047Y-138898333D01*
X165330285Y-138945952D01*
X165377904Y-138993571D01*
X165425523Y-139088809D01*
X181998857Y-86431380D02*
X182332190Y-85955190D01*
X182570285Y-86431380D02*
X182570285Y-85431380D01*
X182189333Y-85431380D01*
X182094095Y-85479000D01*
X182046476Y-85526619D01*
X181998857Y-85621857D01*
X181998857Y-85764714D01*
X182046476Y-85859952D01*
X182094095Y-85907571D01*
X182189333Y-85955190D01*
X182570285Y-85955190D01*
X181094095Y-85431380D02*
X181570285Y-85431380D01*
X181617904Y-85907571D01*
X181570285Y-85859952D01*
X181475047Y-85812333D01*
X181236952Y-85812333D01*
X181141714Y-85859952D01*
X181094095Y-85907571D01*
X181046476Y-86002809D01*
X181046476Y-86240904D01*
X181094095Y-86336142D01*
X181141714Y-86383761D01*
X181236952Y-86431380D01*
X181475047Y-86431380D01*
X181570285Y-86383761D01*
X181617904Y-86336142D01*
X180141714Y-85431380D02*
X180617904Y-85431380D01*
X180665523Y-85907571D01*
X180617904Y-85859952D01*
X180522666Y-85812333D01*
X180284571Y-85812333D01*
X180189333Y-85859952D01*
X180141714Y-85907571D01*
X180094095Y-86002809D01*
X180094095Y-86240904D01*
X180141714Y-86336142D01*
X180189333Y-86383761D01*
X180284571Y-86431380D01*
X180522666Y-86431380D01*
X180617904Y-86383761D01*
X180665523Y-86336142D01*
X154566857Y-65222380D02*
X154900190Y-64746190D01*
X155138285Y-65222380D02*
X155138285Y-64222380D01*
X154757333Y-64222380D01*
X154662095Y-64270000D01*
X154614476Y-64317619D01*
X154566857Y-64412857D01*
X154566857Y-64555714D01*
X154614476Y-64650952D01*
X154662095Y-64698571D01*
X154757333Y-64746190D01*
X155138285Y-64746190D01*
X153662095Y-64222380D02*
X154138285Y-64222380D01*
X154185904Y-64698571D01*
X154138285Y-64650952D01*
X154043047Y-64603333D01*
X153804952Y-64603333D01*
X153709714Y-64650952D01*
X153662095Y-64698571D01*
X153614476Y-64793809D01*
X153614476Y-65031904D01*
X153662095Y-65127142D01*
X153709714Y-65174761D01*
X153804952Y-65222380D01*
X154043047Y-65222380D01*
X154138285Y-65174761D01*
X154185904Y-65127142D01*
X152757333Y-64555714D02*
X152757333Y-65222380D01*
X152995428Y-64174761D02*
X153233523Y-64889047D01*
X152614476Y-64889047D01*
X177934857Y-139517380D02*
X178268190Y-139041190D01*
X178506285Y-139517380D02*
X178506285Y-138517380D01*
X178125333Y-138517380D01*
X178030095Y-138565000D01*
X177982476Y-138612619D01*
X177934857Y-138707857D01*
X177934857Y-138850714D01*
X177982476Y-138945952D01*
X178030095Y-138993571D01*
X178125333Y-139041190D01*
X178506285Y-139041190D01*
X177030095Y-138517380D02*
X177506285Y-138517380D01*
X177553904Y-138993571D01*
X177506285Y-138945952D01*
X177411047Y-138898333D01*
X177172952Y-138898333D01*
X177077714Y-138945952D01*
X177030095Y-138993571D01*
X176982476Y-139088809D01*
X176982476Y-139326904D01*
X177030095Y-139422142D01*
X177077714Y-139469761D01*
X177172952Y-139517380D01*
X177411047Y-139517380D01*
X177506285Y-139469761D01*
X177553904Y-139422142D01*
X176649142Y-138517380D02*
X176030095Y-138517380D01*
X176363428Y-138898333D01*
X176220571Y-138898333D01*
X176125333Y-138945952D01*
X176077714Y-138993571D01*
X176030095Y-139088809D01*
X176030095Y-139326904D01*
X176077714Y-139422142D01*
X176125333Y-139469761D01*
X176220571Y-139517380D01*
X176506285Y-139517380D01*
X176601523Y-139469761D01*
X176649142Y-139422142D01*
X154566857Y-60142380D02*
X154900190Y-59666190D01*
X155138285Y-60142380D02*
X155138285Y-59142380D01*
X154757333Y-59142380D01*
X154662095Y-59190000D01*
X154614476Y-59237619D01*
X154566857Y-59332857D01*
X154566857Y-59475714D01*
X154614476Y-59570952D01*
X154662095Y-59618571D01*
X154757333Y-59666190D01*
X155138285Y-59666190D01*
X153662095Y-59142380D02*
X154138285Y-59142380D01*
X154185904Y-59618571D01*
X154138285Y-59570952D01*
X154043047Y-59523333D01*
X153804952Y-59523333D01*
X153709714Y-59570952D01*
X153662095Y-59618571D01*
X153614476Y-59713809D01*
X153614476Y-59951904D01*
X153662095Y-60047142D01*
X153709714Y-60094761D01*
X153804952Y-60142380D01*
X154043047Y-60142380D01*
X154138285Y-60094761D01*
X154185904Y-60047142D01*
X153233523Y-59237619D02*
X153185904Y-59190000D01*
X153090666Y-59142380D01*
X152852571Y-59142380D01*
X152757333Y-59190000D01*
X152709714Y-59237619D01*
X152662095Y-59332857D01*
X152662095Y-59428095D01*
X152709714Y-59570952D01*
X153281142Y-60142380D01*
X152662095Y-60142380D01*
X177934857Y-144597380D02*
X178268190Y-144121190D01*
X178506285Y-144597380D02*
X178506285Y-143597380D01*
X178125333Y-143597380D01*
X178030095Y-143645000D01*
X177982476Y-143692619D01*
X177934857Y-143787857D01*
X177934857Y-143930714D01*
X177982476Y-144025952D01*
X178030095Y-144073571D01*
X178125333Y-144121190D01*
X178506285Y-144121190D01*
X177030095Y-143597380D02*
X177506285Y-143597380D01*
X177553904Y-144073571D01*
X177506285Y-144025952D01*
X177411047Y-143978333D01*
X177172952Y-143978333D01*
X177077714Y-144025952D01*
X177030095Y-144073571D01*
X176982476Y-144168809D01*
X176982476Y-144406904D01*
X177030095Y-144502142D01*
X177077714Y-144549761D01*
X177172952Y-144597380D01*
X177411047Y-144597380D01*
X177506285Y-144549761D01*
X177553904Y-144502142D01*
X176030095Y-144597380D02*
X176601523Y-144597380D01*
X176315809Y-144597380D02*
X176315809Y-143597380D01*
X176411047Y-143740238D01*
X176506285Y-143835476D01*
X176601523Y-143883095D01*
X181998857Y-81351380D02*
X182332190Y-80875190D01*
X182570285Y-81351380D02*
X182570285Y-80351380D01*
X182189333Y-80351380D01*
X182094095Y-80399000D01*
X182046476Y-80446619D01*
X181998857Y-80541857D01*
X181998857Y-80684714D01*
X182046476Y-80779952D01*
X182094095Y-80827571D01*
X182189333Y-80875190D01*
X182570285Y-80875190D01*
X181094095Y-80351380D02*
X181570285Y-80351380D01*
X181617904Y-80827571D01*
X181570285Y-80779952D01*
X181475047Y-80732333D01*
X181236952Y-80732333D01*
X181141714Y-80779952D01*
X181094095Y-80827571D01*
X181046476Y-80922809D01*
X181046476Y-81160904D01*
X181094095Y-81256142D01*
X181141714Y-81303761D01*
X181236952Y-81351380D01*
X181475047Y-81351380D01*
X181570285Y-81303761D01*
X181617904Y-81256142D01*
X180427428Y-80351380D02*
X180332190Y-80351380D01*
X180236952Y-80399000D01*
X180189333Y-80446619D01*
X180141714Y-80541857D01*
X180094095Y-80732333D01*
X180094095Y-80970428D01*
X180141714Y-81160904D01*
X180189333Y-81256142D01*
X180236952Y-81303761D01*
X180332190Y-81351380D01*
X180427428Y-81351380D01*
X180522666Y-81303761D01*
X180570285Y-81256142D01*
X180617904Y-81160904D01*
X180665523Y-80970428D01*
X180665523Y-80732333D01*
X180617904Y-80541857D01*
X180570285Y-80446619D01*
X180522666Y-80399000D01*
X180427428Y-80351380D01*
X181998857Y-83891380D02*
X182332190Y-83415190D01*
X182570285Y-83891380D02*
X182570285Y-82891380D01*
X182189333Y-82891380D01*
X182094095Y-82939000D01*
X182046476Y-82986619D01*
X181998857Y-83081857D01*
X181998857Y-83224714D01*
X182046476Y-83319952D01*
X182094095Y-83367571D01*
X182189333Y-83415190D01*
X182570285Y-83415190D01*
X181141714Y-83224714D02*
X181141714Y-83891380D01*
X181379809Y-82843761D02*
X181617904Y-83558047D01*
X180998857Y-83558047D01*
X180570285Y-83891380D02*
X180379809Y-83891380D01*
X180284571Y-83843761D01*
X180236952Y-83796142D01*
X180141714Y-83653285D01*
X180094095Y-83462809D01*
X180094095Y-83081857D01*
X180141714Y-82986619D01*
X180189333Y-82939000D01*
X180284571Y-82891380D01*
X180475047Y-82891380D01*
X180570285Y-82939000D01*
X180617904Y-82986619D01*
X180665523Y-83081857D01*
X180665523Y-83319952D01*
X180617904Y-83415190D01*
X180570285Y-83462809D01*
X180475047Y-83510428D01*
X180284571Y-83510428D01*
X180189333Y-83462809D01*
X180141714Y-83415190D01*
X180094095Y-83319952D01*
X162948857Y-85542380D02*
X163282190Y-85066190D01*
X163520285Y-85542380D02*
X163520285Y-84542380D01*
X163139333Y-84542380D01*
X163044095Y-84590000D01*
X162996476Y-84637619D01*
X162948857Y-84732857D01*
X162948857Y-84875714D01*
X162996476Y-84970952D01*
X163044095Y-85018571D01*
X163139333Y-85066190D01*
X163520285Y-85066190D01*
X162091714Y-84875714D02*
X162091714Y-85542380D01*
X162329809Y-84494761D02*
X162567904Y-85209047D01*
X161948857Y-85209047D01*
X161425047Y-84970952D02*
X161520285Y-84923333D01*
X161567904Y-84875714D01*
X161615523Y-84780476D01*
X161615523Y-84732857D01*
X161567904Y-84637619D01*
X161520285Y-84590000D01*
X161425047Y-84542380D01*
X161234571Y-84542380D01*
X161139333Y-84590000D01*
X161091714Y-84637619D01*
X161044095Y-84732857D01*
X161044095Y-84780476D01*
X161091714Y-84875714D01*
X161139333Y-84923333D01*
X161234571Y-84970952D01*
X161425047Y-84970952D01*
X161520285Y-85018571D01*
X161567904Y-85066190D01*
X161615523Y-85161428D01*
X161615523Y-85351904D01*
X161567904Y-85447142D01*
X161520285Y-85494761D01*
X161425047Y-85542380D01*
X161234571Y-85542380D01*
X161139333Y-85494761D01*
X161091714Y-85447142D01*
X161044095Y-85351904D01*
X161044095Y-85161428D01*
X161091714Y-85066190D01*
X161139333Y-85018571D01*
X161234571Y-84970952D01*
X162948857Y-83002380D02*
X163282190Y-82526190D01*
X163520285Y-83002380D02*
X163520285Y-82002380D01*
X163139333Y-82002380D01*
X163044095Y-82050000D01*
X162996476Y-82097619D01*
X162948857Y-82192857D01*
X162948857Y-82335714D01*
X162996476Y-82430952D01*
X163044095Y-82478571D01*
X163139333Y-82526190D01*
X163520285Y-82526190D01*
X162091714Y-82335714D02*
X162091714Y-83002380D01*
X162329809Y-81954761D02*
X162567904Y-82669047D01*
X161948857Y-82669047D01*
X161663142Y-82002380D02*
X160996476Y-82002380D01*
X161425047Y-83002380D01*
X153677857Y-89987380D02*
X154011190Y-89511190D01*
X154249285Y-89987380D02*
X154249285Y-88987380D01*
X153868333Y-88987380D01*
X153773095Y-89035000D01*
X153725476Y-89082619D01*
X153677857Y-89177857D01*
X153677857Y-89320714D01*
X153725476Y-89415952D01*
X153773095Y-89463571D01*
X153868333Y-89511190D01*
X154249285Y-89511190D01*
X152820714Y-89320714D02*
X152820714Y-89987380D01*
X153058809Y-88939761D02*
X153296904Y-89654047D01*
X152677857Y-89654047D01*
X151868333Y-88987380D02*
X152058809Y-88987380D01*
X152154047Y-89035000D01*
X152201666Y-89082619D01*
X152296904Y-89225476D01*
X152344523Y-89415952D01*
X152344523Y-89796904D01*
X152296904Y-89892142D01*
X152249285Y-89939761D01*
X152154047Y-89987380D01*
X151963571Y-89987380D01*
X151868333Y-89939761D01*
X151820714Y-89892142D01*
X151773095Y-89796904D01*
X151773095Y-89558809D01*
X151820714Y-89463571D01*
X151868333Y-89415952D01*
X151963571Y-89368333D01*
X152154047Y-89368333D01*
X152249285Y-89415952D01*
X152296904Y-89463571D01*
X152344523Y-89558809D01*
X106814857Y-79192380D02*
X107148190Y-78716190D01*
X107386285Y-79192380D02*
X107386285Y-78192380D01*
X107005333Y-78192380D01*
X106910095Y-78240000D01*
X106862476Y-78287619D01*
X106814857Y-78382857D01*
X106814857Y-78525714D01*
X106862476Y-78620952D01*
X106910095Y-78668571D01*
X107005333Y-78716190D01*
X107386285Y-78716190D01*
X105957714Y-78525714D02*
X105957714Y-79192380D01*
X106195809Y-78144761D02*
X106433904Y-78859047D01*
X105814857Y-78859047D01*
X104957714Y-78192380D02*
X105433904Y-78192380D01*
X105481523Y-78668571D01*
X105433904Y-78620952D01*
X105338666Y-78573333D01*
X105100571Y-78573333D01*
X105005333Y-78620952D01*
X104957714Y-78668571D01*
X104910095Y-78763809D01*
X104910095Y-79001904D01*
X104957714Y-79097142D01*
X105005333Y-79144761D01*
X105100571Y-79192380D01*
X105338666Y-79192380D01*
X105433904Y-79144761D01*
X105481523Y-79097142D01*
X117736857Y-79192380D02*
X118070190Y-78716190D01*
X118308285Y-79192380D02*
X118308285Y-78192380D01*
X117927333Y-78192380D01*
X117832095Y-78240000D01*
X117784476Y-78287619D01*
X117736857Y-78382857D01*
X117736857Y-78525714D01*
X117784476Y-78620952D01*
X117832095Y-78668571D01*
X117927333Y-78716190D01*
X118308285Y-78716190D01*
X116879714Y-78525714D02*
X116879714Y-79192380D01*
X117117809Y-78144761D02*
X117355904Y-78859047D01*
X116736857Y-78859047D01*
X115927333Y-78525714D02*
X115927333Y-79192380D01*
X116165428Y-78144761D02*
X116403523Y-78859047D01*
X115784476Y-78859047D01*
X120276857Y-94432380D02*
X120610190Y-93956190D01*
X120848285Y-94432380D02*
X120848285Y-93432380D01*
X120467333Y-93432380D01*
X120372095Y-93480000D01*
X120324476Y-93527619D01*
X120276857Y-93622857D01*
X120276857Y-93765714D01*
X120324476Y-93860952D01*
X120372095Y-93908571D01*
X120467333Y-93956190D01*
X120848285Y-93956190D01*
X119419714Y-93765714D02*
X119419714Y-94432380D01*
X119657809Y-93384761D02*
X119895904Y-94099047D01*
X119276857Y-94099047D01*
X118991142Y-93432380D02*
X118372095Y-93432380D01*
X118705428Y-93813333D01*
X118562571Y-93813333D01*
X118467333Y-93860952D01*
X118419714Y-93908571D01*
X118372095Y-94003809D01*
X118372095Y-94241904D01*
X118419714Y-94337142D01*
X118467333Y-94384761D01*
X118562571Y-94432380D01*
X118848285Y-94432380D01*
X118943523Y-94384761D01*
X118991142Y-94337142D01*
X113672857Y-114752380D02*
X114006190Y-114276190D01*
X114244285Y-114752380D02*
X114244285Y-113752380D01*
X113863333Y-113752380D01*
X113768095Y-113800000D01*
X113720476Y-113847619D01*
X113672857Y-113942857D01*
X113672857Y-114085714D01*
X113720476Y-114180952D01*
X113768095Y-114228571D01*
X113863333Y-114276190D01*
X114244285Y-114276190D01*
X112815714Y-114085714D02*
X112815714Y-114752380D01*
X113053809Y-113704761D02*
X113291904Y-114419047D01*
X112672857Y-114419047D01*
X112339523Y-113847619D02*
X112291904Y-113800000D01*
X112196666Y-113752380D01*
X111958571Y-113752380D01*
X111863333Y-113800000D01*
X111815714Y-113847619D01*
X111768095Y-113942857D01*
X111768095Y-114038095D01*
X111815714Y-114180952D01*
X112387142Y-114752380D01*
X111768095Y-114752380D01*
X120530857Y-112212380D02*
X120864190Y-111736190D01*
X121102285Y-112212380D02*
X121102285Y-111212380D01*
X120721333Y-111212380D01*
X120626095Y-111260000D01*
X120578476Y-111307619D01*
X120530857Y-111402857D01*
X120530857Y-111545714D01*
X120578476Y-111640952D01*
X120626095Y-111688571D01*
X120721333Y-111736190D01*
X121102285Y-111736190D01*
X119673714Y-111545714D02*
X119673714Y-112212380D01*
X119911809Y-111164761D02*
X120149904Y-111879047D01*
X119530857Y-111879047D01*
X118626095Y-112212380D02*
X119197523Y-112212380D01*
X118911809Y-112212380D02*
X118911809Y-111212380D01*
X119007047Y-111355238D01*
X119102285Y-111450476D01*
X119197523Y-111498095D01*
X120530857Y-109672380D02*
X120864190Y-109196190D01*
X121102285Y-109672380D02*
X121102285Y-108672380D01*
X120721333Y-108672380D01*
X120626095Y-108720000D01*
X120578476Y-108767619D01*
X120530857Y-108862857D01*
X120530857Y-109005714D01*
X120578476Y-109100952D01*
X120626095Y-109148571D01*
X120721333Y-109196190D01*
X121102285Y-109196190D01*
X119673714Y-109005714D02*
X119673714Y-109672380D01*
X119911809Y-108624761D02*
X120149904Y-109339047D01*
X119530857Y-109339047D01*
X118959428Y-108672380D02*
X118864190Y-108672380D01*
X118768952Y-108720000D01*
X118721333Y-108767619D01*
X118673714Y-108862857D01*
X118626095Y-109053333D01*
X118626095Y-109291428D01*
X118673714Y-109481904D01*
X118721333Y-109577142D01*
X118768952Y-109624761D01*
X118864190Y-109672380D01*
X118959428Y-109672380D01*
X119054666Y-109624761D01*
X119102285Y-109577142D01*
X119149904Y-109481904D01*
X119197523Y-109291428D01*
X119197523Y-109053333D01*
X119149904Y-108862857D01*
X119102285Y-108767619D01*
X119054666Y-108720000D01*
X118959428Y-108672380D01*
X120530857Y-107132380D02*
X120864190Y-106656190D01*
X121102285Y-107132380D02*
X121102285Y-106132380D01*
X120721333Y-106132380D01*
X120626095Y-106180000D01*
X120578476Y-106227619D01*
X120530857Y-106322857D01*
X120530857Y-106465714D01*
X120578476Y-106560952D01*
X120626095Y-106608571D01*
X120721333Y-106656190D01*
X121102285Y-106656190D01*
X120197523Y-106132380D02*
X119578476Y-106132380D01*
X119911809Y-106513333D01*
X119768952Y-106513333D01*
X119673714Y-106560952D01*
X119626095Y-106608571D01*
X119578476Y-106703809D01*
X119578476Y-106941904D01*
X119626095Y-107037142D01*
X119673714Y-107084761D01*
X119768952Y-107132380D01*
X120054666Y-107132380D01*
X120149904Y-107084761D01*
X120197523Y-107037142D01*
X119102285Y-107132380D02*
X118911809Y-107132380D01*
X118816571Y-107084761D01*
X118768952Y-107037142D01*
X118673714Y-106894285D01*
X118626095Y-106703809D01*
X118626095Y-106322857D01*
X118673714Y-106227619D01*
X118721333Y-106180000D01*
X118816571Y-106132380D01*
X119007047Y-106132380D01*
X119102285Y-106180000D01*
X119149904Y-106227619D01*
X119197523Y-106322857D01*
X119197523Y-106560952D01*
X119149904Y-106656190D01*
X119102285Y-106703809D01*
X119007047Y-106751428D01*
X118816571Y-106751428D01*
X118721333Y-106703809D01*
X118673714Y-106656190D01*
X118626095Y-106560952D01*
X120530857Y-102052380D02*
X120864190Y-101576190D01*
X121102285Y-102052380D02*
X121102285Y-101052380D01*
X120721333Y-101052380D01*
X120626095Y-101100000D01*
X120578476Y-101147619D01*
X120530857Y-101242857D01*
X120530857Y-101385714D01*
X120578476Y-101480952D01*
X120626095Y-101528571D01*
X120721333Y-101576190D01*
X121102285Y-101576190D01*
X120197523Y-101052380D02*
X119578476Y-101052380D01*
X119911809Y-101433333D01*
X119768952Y-101433333D01*
X119673714Y-101480952D01*
X119626095Y-101528571D01*
X119578476Y-101623809D01*
X119578476Y-101861904D01*
X119626095Y-101957142D01*
X119673714Y-102004761D01*
X119768952Y-102052380D01*
X120054666Y-102052380D01*
X120149904Y-102004761D01*
X120197523Y-101957142D01*
X119007047Y-101480952D02*
X119102285Y-101433333D01*
X119149904Y-101385714D01*
X119197523Y-101290476D01*
X119197523Y-101242857D01*
X119149904Y-101147619D01*
X119102285Y-101100000D01*
X119007047Y-101052380D01*
X118816571Y-101052380D01*
X118721333Y-101100000D01*
X118673714Y-101147619D01*
X118626095Y-101242857D01*
X118626095Y-101290476D01*
X118673714Y-101385714D01*
X118721333Y-101433333D01*
X118816571Y-101480952D01*
X119007047Y-101480952D01*
X119102285Y-101528571D01*
X119149904Y-101576190D01*
X119197523Y-101671428D01*
X119197523Y-101861904D01*
X119149904Y-101957142D01*
X119102285Y-102004761D01*
X119007047Y-102052380D01*
X118816571Y-102052380D01*
X118721333Y-102004761D01*
X118673714Y-101957142D01*
X118626095Y-101861904D01*
X118626095Y-101671428D01*
X118673714Y-101576190D01*
X118721333Y-101528571D01*
X118816571Y-101480952D01*
X120530857Y-104592380D02*
X120864190Y-104116190D01*
X121102285Y-104592380D02*
X121102285Y-103592380D01*
X120721333Y-103592380D01*
X120626095Y-103640000D01*
X120578476Y-103687619D01*
X120530857Y-103782857D01*
X120530857Y-103925714D01*
X120578476Y-104020952D01*
X120626095Y-104068571D01*
X120721333Y-104116190D01*
X121102285Y-104116190D01*
X120197523Y-103592380D02*
X119578476Y-103592380D01*
X119911809Y-103973333D01*
X119768952Y-103973333D01*
X119673714Y-104020952D01*
X119626095Y-104068571D01*
X119578476Y-104163809D01*
X119578476Y-104401904D01*
X119626095Y-104497142D01*
X119673714Y-104544761D01*
X119768952Y-104592380D01*
X120054666Y-104592380D01*
X120149904Y-104544761D01*
X120197523Y-104497142D01*
X119245142Y-103592380D02*
X118578476Y-103592380D01*
X119007047Y-104592380D01*
X112910857Y-119832380D02*
X113244190Y-119356190D01*
X113482285Y-119832380D02*
X113482285Y-118832380D01*
X113101333Y-118832380D01*
X113006095Y-118880000D01*
X112958476Y-118927619D01*
X112910857Y-119022857D01*
X112910857Y-119165714D01*
X112958476Y-119260952D01*
X113006095Y-119308571D01*
X113101333Y-119356190D01*
X113482285Y-119356190D01*
X112577523Y-118832380D02*
X111958476Y-118832380D01*
X112291809Y-119213333D01*
X112148952Y-119213333D01*
X112053714Y-119260952D01*
X112006095Y-119308571D01*
X111958476Y-119403809D01*
X111958476Y-119641904D01*
X112006095Y-119737142D01*
X112053714Y-119784761D01*
X112148952Y-119832380D01*
X112434666Y-119832380D01*
X112529904Y-119784761D01*
X112577523Y-119737142D01*
X111101333Y-118832380D02*
X111291809Y-118832380D01*
X111387047Y-118880000D01*
X111434666Y-118927619D01*
X111529904Y-119070476D01*
X111577523Y-119260952D01*
X111577523Y-119641904D01*
X111529904Y-119737142D01*
X111482285Y-119784761D01*
X111387047Y-119832380D01*
X111196571Y-119832380D01*
X111101333Y-119784761D01*
X111053714Y-119737142D01*
X111006095Y-119641904D01*
X111006095Y-119403809D01*
X111053714Y-119308571D01*
X111101333Y-119260952D01*
X111196571Y-119213333D01*
X111387047Y-119213333D01*
X111482285Y-119260952D01*
X111529904Y-119308571D01*
X111577523Y-119403809D01*
X139834857Y-96972380D02*
X140168190Y-96496190D01*
X140406285Y-96972380D02*
X140406285Y-95972380D01*
X140025333Y-95972380D01*
X139930095Y-96020000D01*
X139882476Y-96067619D01*
X139834857Y-96162857D01*
X139834857Y-96305714D01*
X139882476Y-96400952D01*
X139930095Y-96448571D01*
X140025333Y-96496190D01*
X140406285Y-96496190D01*
X139501523Y-95972380D02*
X138882476Y-95972380D01*
X139215809Y-96353333D01*
X139072952Y-96353333D01*
X138977714Y-96400952D01*
X138930095Y-96448571D01*
X138882476Y-96543809D01*
X138882476Y-96781904D01*
X138930095Y-96877142D01*
X138977714Y-96924761D01*
X139072952Y-96972380D01*
X139358666Y-96972380D01*
X139453904Y-96924761D01*
X139501523Y-96877142D01*
X137977714Y-95972380D02*
X138453904Y-95972380D01*
X138501523Y-96448571D01*
X138453904Y-96400952D01*
X138358666Y-96353333D01*
X138120571Y-96353333D01*
X138025333Y-96400952D01*
X137977714Y-96448571D01*
X137930095Y-96543809D01*
X137930095Y-96781904D01*
X137977714Y-96877142D01*
X138025333Y-96924761D01*
X138120571Y-96972380D01*
X138358666Y-96972380D01*
X138453904Y-96924761D01*
X138501523Y-96877142D01*
X139834857Y-89352380D02*
X140168190Y-88876190D01*
X140406285Y-89352380D02*
X140406285Y-88352380D01*
X140025333Y-88352380D01*
X139930095Y-88400000D01*
X139882476Y-88447619D01*
X139834857Y-88542857D01*
X139834857Y-88685714D01*
X139882476Y-88780952D01*
X139930095Y-88828571D01*
X140025333Y-88876190D01*
X140406285Y-88876190D01*
X139501523Y-88352380D02*
X138882476Y-88352380D01*
X139215809Y-88733333D01*
X139072952Y-88733333D01*
X138977714Y-88780952D01*
X138930095Y-88828571D01*
X138882476Y-88923809D01*
X138882476Y-89161904D01*
X138930095Y-89257142D01*
X138977714Y-89304761D01*
X139072952Y-89352380D01*
X139358666Y-89352380D01*
X139453904Y-89304761D01*
X139501523Y-89257142D01*
X138025333Y-88685714D02*
X138025333Y-89352380D01*
X138263428Y-88304761D02*
X138501523Y-89019047D01*
X137882476Y-89019047D01*
X127134857Y-128722380D02*
X127468190Y-128246190D01*
X127706285Y-128722380D02*
X127706285Y-127722380D01*
X127325333Y-127722380D01*
X127230095Y-127770000D01*
X127182476Y-127817619D01*
X127134857Y-127912857D01*
X127134857Y-128055714D01*
X127182476Y-128150952D01*
X127230095Y-128198571D01*
X127325333Y-128246190D01*
X127706285Y-128246190D01*
X126801523Y-127722380D02*
X126182476Y-127722380D01*
X126515809Y-128103333D01*
X126372952Y-128103333D01*
X126277714Y-128150952D01*
X126230095Y-128198571D01*
X126182476Y-128293809D01*
X126182476Y-128531904D01*
X126230095Y-128627142D01*
X126277714Y-128674761D01*
X126372952Y-128722380D01*
X126658666Y-128722380D01*
X126753904Y-128674761D01*
X126801523Y-128627142D01*
X125849142Y-127722380D02*
X125230095Y-127722380D01*
X125563428Y-128103333D01*
X125420571Y-128103333D01*
X125325333Y-128150952D01*
X125277714Y-128198571D01*
X125230095Y-128293809D01*
X125230095Y-128531904D01*
X125277714Y-128627142D01*
X125325333Y-128674761D01*
X125420571Y-128722380D01*
X125706285Y-128722380D01*
X125801523Y-128674761D01*
X125849142Y-128627142D01*
X136532857Y-128722380D02*
X136866190Y-128246190D01*
X137104285Y-128722380D02*
X137104285Y-127722380D01*
X136723333Y-127722380D01*
X136628095Y-127770000D01*
X136580476Y-127817619D01*
X136532857Y-127912857D01*
X136532857Y-128055714D01*
X136580476Y-128150952D01*
X136628095Y-128198571D01*
X136723333Y-128246190D01*
X137104285Y-128246190D01*
X136199523Y-127722380D02*
X135580476Y-127722380D01*
X135913809Y-128103333D01*
X135770952Y-128103333D01*
X135675714Y-128150952D01*
X135628095Y-128198571D01*
X135580476Y-128293809D01*
X135580476Y-128531904D01*
X135628095Y-128627142D01*
X135675714Y-128674761D01*
X135770952Y-128722380D01*
X136056666Y-128722380D01*
X136151904Y-128674761D01*
X136199523Y-128627142D01*
X135199523Y-127817619D02*
X135151904Y-127770000D01*
X135056666Y-127722380D01*
X134818571Y-127722380D01*
X134723333Y-127770000D01*
X134675714Y-127817619D01*
X134628095Y-127912857D01*
X134628095Y-128008095D01*
X134675714Y-128150952D01*
X135247142Y-128722380D01*
X134628095Y-128722380D01*
X136532857Y-114752380D02*
X136866190Y-114276190D01*
X137104285Y-114752380D02*
X137104285Y-113752380D01*
X136723333Y-113752380D01*
X136628095Y-113800000D01*
X136580476Y-113847619D01*
X136532857Y-113942857D01*
X136532857Y-114085714D01*
X136580476Y-114180952D01*
X136628095Y-114228571D01*
X136723333Y-114276190D01*
X137104285Y-114276190D01*
X136199523Y-113752380D02*
X135580476Y-113752380D01*
X135913809Y-114133333D01*
X135770952Y-114133333D01*
X135675714Y-114180952D01*
X135628095Y-114228571D01*
X135580476Y-114323809D01*
X135580476Y-114561904D01*
X135628095Y-114657142D01*
X135675714Y-114704761D01*
X135770952Y-114752380D01*
X136056666Y-114752380D01*
X136151904Y-114704761D01*
X136199523Y-114657142D01*
X134628095Y-114752380D02*
X135199523Y-114752380D01*
X134913809Y-114752380D02*
X134913809Y-113752380D01*
X135009047Y-113895238D01*
X135104285Y-113990476D01*
X135199523Y-114038095D01*
X139834857Y-92146380D02*
X140168190Y-91670190D01*
X140406285Y-92146380D02*
X140406285Y-91146380D01*
X140025333Y-91146380D01*
X139930095Y-91194000D01*
X139882476Y-91241619D01*
X139834857Y-91336857D01*
X139834857Y-91479714D01*
X139882476Y-91574952D01*
X139930095Y-91622571D01*
X140025333Y-91670190D01*
X140406285Y-91670190D01*
X139501523Y-91146380D02*
X138882476Y-91146380D01*
X139215809Y-91527333D01*
X139072952Y-91527333D01*
X138977714Y-91574952D01*
X138930095Y-91622571D01*
X138882476Y-91717809D01*
X138882476Y-91955904D01*
X138930095Y-92051142D01*
X138977714Y-92098761D01*
X139072952Y-92146380D01*
X139358666Y-92146380D01*
X139453904Y-92098761D01*
X139501523Y-92051142D01*
X138263428Y-91146380D02*
X138168190Y-91146380D01*
X138072952Y-91194000D01*
X138025333Y-91241619D01*
X137977714Y-91336857D01*
X137930095Y-91527333D01*
X137930095Y-91765428D01*
X137977714Y-91955904D01*
X138025333Y-92051142D01*
X138072952Y-92098761D01*
X138168190Y-92146380D01*
X138263428Y-92146380D01*
X138358666Y-92098761D01*
X138406285Y-92051142D01*
X138453904Y-91955904D01*
X138501523Y-91765428D01*
X138501523Y-91527333D01*
X138453904Y-91336857D01*
X138406285Y-91241619D01*
X138358666Y-91194000D01*
X138263428Y-91146380D01*
X127134857Y-131262380D02*
X127468190Y-130786190D01*
X127706285Y-131262380D02*
X127706285Y-130262380D01*
X127325333Y-130262380D01*
X127230095Y-130310000D01*
X127182476Y-130357619D01*
X127134857Y-130452857D01*
X127134857Y-130595714D01*
X127182476Y-130690952D01*
X127230095Y-130738571D01*
X127325333Y-130786190D01*
X127706285Y-130786190D01*
X126753904Y-130357619D02*
X126706285Y-130310000D01*
X126611047Y-130262380D01*
X126372952Y-130262380D01*
X126277714Y-130310000D01*
X126230095Y-130357619D01*
X126182476Y-130452857D01*
X126182476Y-130548095D01*
X126230095Y-130690952D01*
X126801523Y-131262380D01*
X126182476Y-131262380D01*
X125706285Y-131262380D02*
X125515809Y-131262380D01*
X125420571Y-131214761D01*
X125372952Y-131167142D01*
X125277714Y-131024285D01*
X125230095Y-130833809D01*
X125230095Y-130452857D01*
X125277714Y-130357619D01*
X125325333Y-130310000D01*
X125420571Y-130262380D01*
X125611047Y-130262380D01*
X125706285Y-130310000D01*
X125753904Y-130357619D01*
X125801523Y-130452857D01*
X125801523Y-130690952D01*
X125753904Y-130786190D01*
X125706285Y-130833809D01*
X125611047Y-130881428D01*
X125420571Y-130881428D01*
X125325333Y-130833809D01*
X125277714Y-130786190D01*
X125230095Y-130690952D01*
X123832857Y-144978380D02*
X124166190Y-144502190D01*
X124404285Y-144978380D02*
X124404285Y-143978380D01*
X124023333Y-143978380D01*
X123928095Y-144026000D01*
X123880476Y-144073619D01*
X123832857Y-144168857D01*
X123832857Y-144311714D01*
X123880476Y-144406952D01*
X123928095Y-144454571D01*
X124023333Y-144502190D01*
X124404285Y-144502190D01*
X123451904Y-144073619D02*
X123404285Y-144026000D01*
X123309047Y-143978380D01*
X123070952Y-143978380D01*
X122975714Y-144026000D01*
X122928095Y-144073619D01*
X122880476Y-144168857D01*
X122880476Y-144264095D01*
X122928095Y-144406952D01*
X123499523Y-144978380D01*
X122880476Y-144978380D01*
X122309047Y-144406952D02*
X122404285Y-144359333D01*
X122451904Y-144311714D01*
X122499523Y-144216476D01*
X122499523Y-144168857D01*
X122451904Y-144073619D01*
X122404285Y-144026000D01*
X122309047Y-143978380D01*
X122118571Y-143978380D01*
X122023333Y-144026000D01*
X121975714Y-144073619D01*
X121928095Y-144168857D01*
X121928095Y-144216476D01*
X121975714Y-144311714D01*
X122023333Y-144359333D01*
X122118571Y-144406952D01*
X122309047Y-144406952D01*
X122404285Y-144454571D01*
X122451904Y-144502190D01*
X122499523Y-144597428D01*
X122499523Y-144787904D01*
X122451904Y-144883142D01*
X122404285Y-144930761D01*
X122309047Y-144978380D01*
X122118571Y-144978380D01*
X122023333Y-144930761D01*
X121975714Y-144883142D01*
X121928095Y-144787904D01*
X121928095Y-144597428D01*
X121975714Y-144502190D01*
X122023333Y-144454571D01*
X122118571Y-144406952D01*
X148216857Y-116022380D02*
X148550190Y-115546190D01*
X148788285Y-116022380D02*
X148788285Y-115022380D01*
X148407333Y-115022380D01*
X148312095Y-115070000D01*
X148264476Y-115117619D01*
X148216857Y-115212857D01*
X148216857Y-115355714D01*
X148264476Y-115450952D01*
X148312095Y-115498571D01*
X148407333Y-115546190D01*
X148788285Y-115546190D01*
X147835904Y-115117619D02*
X147788285Y-115070000D01*
X147693047Y-115022380D01*
X147454952Y-115022380D01*
X147359714Y-115070000D01*
X147312095Y-115117619D01*
X147264476Y-115212857D01*
X147264476Y-115308095D01*
X147312095Y-115450952D01*
X147883523Y-116022380D01*
X147264476Y-116022380D01*
X146931142Y-115022380D02*
X146264476Y-115022380D01*
X146693047Y-116022380D01*
X139834857Y-109672380D02*
X140168190Y-109196190D01*
X140406285Y-109672380D02*
X140406285Y-108672380D01*
X140025333Y-108672380D01*
X139930095Y-108720000D01*
X139882476Y-108767619D01*
X139834857Y-108862857D01*
X139834857Y-109005714D01*
X139882476Y-109100952D01*
X139930095Y-109148571D01*
X140025333Y-109196190D01*
X140406285Y-109196190D01*
X139453904Y-108767619D02*
X139406285Y-108720000D01*
X139311047Y-108672380D01*
X139072952Y-108672380D01*
X138977714Y-108720000D01*
X138930095Y-108767619D01*
X138882476Y-108862857D01*
X138882476Y-108958095D01*
X138930095Y-109100952D01*
X139501523Y-109672380D01*
X138882476Y-109672380D01*
X138025333Y-108672380D02*
X138215809Y-108672380D01*
X138311047Y-108720000D01*
X138358666Y-108767619D01*
X138453904Y-108910476D01*
X138501523Y-109100952D01*
X138501523Y-109481904D01*
X138453904Y-109577142D01*
X138406285Y-109624761D01*
X138311047Y-109672380D01*
X138120571Y-109672380D01*
X138025333Y-109624761D01*
X137977714Y-109577142D01*
X137930095Y-109481904D01*
X137930095Y-109243809D01*
X137977714Y-109148571D01*
X138025333Y-109100952D01*
X138120571Y-109053333D01*
X138311047Y-109053333D01*
X138406285Y-109100952D01*
X138453904Y-109148571D01*
X138501523Y-109243809D01*
X148216857Y-109672380D02*
X148550190Y-109196190D01*
X148788285Y-109672380D02*
X148788285Y-108672380D01*
X148407333Y-108672380D01*
X148312095Y-108720000D01*
X148264476Y-108767619D01*
X148216857Y-108862857D01*
X148216857Y-109005714D01*
X148264476Y-109100952D01*
X148312095Y-109148571D01*
X148407333Y-109196190D01*
X148788285Y-109196190D01*
X147835904Y-108767619D02*
X147788285Y-108720000D01*
X147693047Y-108672380D01*
X147454952Y-108672380D01*
X147359714Y-108720000D01*
X147312095Y-108767619D01*
X147264476Y-108862857D01*
X147264476Y-108958095D01*
X147312095Y-109100952D01*
X147883523Y-109672380D01*
X147264476Y-109672380D01*
X146359714Y-108672380D02*
X146835904Y-108672380D01*
X146883523Y-109148571D01*
X146835904Y-109100952D01*
X146740666Y-109053333D01*
X146502571Y-109053333D01*
X146407333Y-109100952D01*
X146359714Y-109148571D01*
X146312095Y-109243809D01*
X146312095Y-109481904D01*
X146359714Y-109577142D01*
X146407333Y-109624761D01*
X146502571Y-109672380D01*
X146740666Y-109672380D01*
X146835904Y-109624761D01*
X146883523Y-109577142D01*
X139834857Y-102052380D02*
X140168190Y-101576190D01*
X140406285Y-102052380D02*
X140406285Y-101052380D01*
X140025333Y-101052380D01*
X139930095Y-101100000D01*
X139882476Y-101147619D01*
X139834857Y-101242857D01*
X139834857Y-101385714D01*
X139882476Y-101480952D01*
X139930095Y-101528571D01*
X140025333Y-101576190D01*
X140406285Y-101576190D01*
X139453904Y-101147619D02*
X139406285Y-101100000D01*
X139311047Y-101052380D01*
X139072952Y-101052380D01*
X138977714Y-101100000D01*
X138930095Y-101147619D01*
X138882476Y-101242857D01*
X138882476Y-101338095D01*
X138930095Y-101480952D01*
X139501523Y-102052380D01*
X138882476Y-102052380D01*
X138025333Y-101385714D02*
X138025333Y-102052380D01*
X138263428Y-101004761D02*
X138501523Y-101719047D01*
X137882476Y-101719047D01*
X148216857Y-107132380D02*
X148550190Y-106656190D01*
X148788285Y-107132380D02*
X148788285Y-106132380D01*
X148407333Y-106132380D01*
X148312095Y-106180000D01*
X148264476Y-106227619D01*
X148216857Y-106322857D01*
X148216857Y-106465714D01*
X148264476Y-106560952D01*
X148312095Y-106608571D01*
X148407333Y-106656190D01*
X148788285Y-106656190D01*
X147835904Y-106227619D02*
X147788285Y-106180000D01*
X147693047Y-106132380D01*
X147454952Y-106132380D01*
X147359714Y-106180000D01*
X147312095Y-106227619D01*
X147264476Y-106322857D01*
X147264476Y-106418095D01*
X147312095Y-106560952D01*
X147883523Y-107132380D01*
X147264476Y-107132380D01*
X146931142Y-106132380D02*
X146312095Y-106132380D01*
X146645428Y-106513333D01*
X146502571Y-106513333D01*
X146407333Y-106560952D01*
X146359714Y-106608571D01*
X146312095Y-106703809D01*
X146312095Y-106941904D01*
X146359714Y-107037142D01*
X146407333Y-107084761D01*
X146502571Y-107132380D01*
X146788285Y-107132380D01*
X146883523Y-107084761D01*
X146931142Y-107037142D01*
X139834857Y-104592380D02*
X140168190Y-104116190D01*
X140406285Y-104592380D02*
X140406285Y-103592380D01*
X140025333Y-103592380D01*
X139930095Y-103640000D01*
X139882476Y-103687619D01*
X139834857Y-103782857D01*
X139834857Y-103925714D01*
X139882476Y-104020952D01*
X139930095Y-104068571D01*
X140025333Y-104116190D01*
X140406285Y-104116190D01*
X139453904Y-103687619D02*
X139406285Y-103640000D01*
X139311047Y-103592380D01*
X139072952Y-103592380D01*
X138977714Y-103640000D01*
X138930095Y-103687619D01*
X138882476Y-103782857D01*
X138882476Y-103878095D01*
X138930095Y-104020952D01*
X139501523Y-104592380D01*
X138882476Y-104592380D01*
X138501523Y-103687619D02*
X138453904Y-103640000D01*
X138358666Y-103592380D01*
X138120571Y-103592380D01*
X138025333Y-103640000D01*
X137977714Y-103687619D01*
X137930095Y-103782857D01*
X137930095Y-103878095D01*
X137977714Y-104020952D01*
X138549142Y-104592380D01*
X137930095Y-104592380D01*
X136532857Y-136088380D02*
X136866190Y-135612190D01*
X137104285Y-136088380D02*
X137104285Y-135088380D01*
X136723333Y-135088380D01*
X136628095Y-135136000D01*
X136580476Y-135183619D01*
X136532857Y-135278857D01*
X136532857Y-135421714D01*
X136580476Y-135516952D01*
X136628095Y-135564571D01*
X136723333Y-135612190D01*
X137104285Y-135612190D01*
X136151904Y-135183619D02*
X136104285Y-135136000D01*
X136009047Y-135088380D01*
X135770952Y-135088380D01*
X135675714Y-135136000D01*
X135628095Y-135183619D01*
X135580476Y-135278857D01*
X135580476Y-135374095D01*
X135628095Y-135516952D01*
X136199523Y-136088380D01*
X135580476Y-136088380D01*
X134628095Y-136088380D02*
X135199523Y-136088380D01*
X134913809Y-136088380D02*
X134913809Y-135088380D01*
X135009047Y-135231238D01*
X135104285Y-135326476D01*
X135199523Y-135374095D01*
X136532857Y-133802380D02*
X136866190Y-133326190D01*
X137104285Y-133802380D02*
X137104285Y-132802380D01*
X136723333Y-132802380D01*
X136628095Y-132850000D01*
X136580476Y-132897619D01*
X136532857Y-132992857D01*
X136532857Y-133135714D01*
X136580476Y-133230952D01*
X136628095Y-133278571D01*
X136723333Y-133326190D01*
X137104285Y-133326190D01*
X136151904Y-132897619D02*
X136104285Y-132850000D01*
X136009047Y-132802380D01*
X135770952Y-132802380D01*
X135675714Y-132850000D01*
X135628095Y-132897619D01*
X135580476Y-132992857D01*
X135580476Y-133088095D01*
X135628095Y-133230952D01*
X136199523Y-133802380D01*
X135580476Y-133802380D01*
X134961428Y-132802380D02*
X134866190Y-132802380D01*
X134770952Y-132850000D01*
X134723333Y-132897619D01*
X134675714Y-132992857D01*
X134628095Y-133183333D01*
X134628095Y-133421428D01*
X134675714Y-133611904D01*
X134723333Y-133707142D01*
X134770952Y-133754761D01*
X134866190Y-133802380D01*
X134961428Y-133802380D01*
X135056666Y-133754761D01*
X135104285Y-133707142D01*
X135151904Y-133611904D01*
X135199523Y-133421428D01*
X135199523Y-133183333D01*
X135151904Y-132992857D01*
X135104285Y-132897619D01*
X135056666Y-132850000D01*
X134961428Y-132802380D01*
X136532857Y-122372380D02*
X136866190Y-121896190D01*
X137104285Y-122372380D02*
X137104285Y-121372380D01*
X136723333Y-121372380D01*
X136628095Y-121420000D01*
X136580476Y-121467619D01*
X136532857Y-121562857D01*
X136532857Y-121705714D01*
X136580476Y-121800952D01*
X136628095Y-121848571D01*
X136723333Y-121896190D01*
X137104285Y-121896190D01*
X135580476Y-122372380D02*
X136151904Y-122372380D01*
X135866190Y-122372380D02*
X135866190Y-121372380D01*
X135961428Y-121515238D01*
X136056666Y-121610476D01*
X136151904Y-121658095D01*
X135104285Y-122372380D02*
X134913809Y-122372380D01*
X134818571Y-122324761D01*
X134770952Y-122277142D01*
X134675714Y-122134285D01*
X134628095Y-121943809D01*
X134628095Y-121562857D01*
X134675714Y-121467619D01*
X134723333Y-121420000D01*
X134818571Y-121372380D01*
X135009047Y-121372380D01*
X135104285Y-121420000D01*
X135151904Y-121467619D01*
X135199523Y-121562857D01*
X135199523Y-121800952D01*
X135151904Y-121896190D01*
X135104285Y-121943809D01*
X135009047Y-121991428D01*
X134818571Y-121991428D01*
X134723333Y-121943809D01*
X134675714Y-121896190D01*
X134628095Y-121800952D01*
X136532857Y-124912380D02*
X136866190Y-124436190D01*
X137104285Y-124912380D02*
X137104285Y-123912380D01*
X136723333Y-123912380D01*
X136628095Y-123960000D01*
X136580476Y-124007619D01*
X136532857Y-124102857D01*
X136532857Y-124245714D01*
X136580476Y-124340952D01*
X136628095Y-124388571D01*
X136723333Y-124436190D01*
X137104285Y-124436190D01*
X135580476Y-124912380D02*
X136151904Y-124912380D01*
X135866190Y-124912380D02*
X135866190Y-123912380D01*
X135961428Y-124055238D01*
X136056666Y-124150476D01*
X136151904Y-124198095D01*
X135009047Y-124340952D02*
X135104285Y-124293333D01*
X135151904Y-124245714D01*
X135199523Y-124150476D01*
X135199523Y-124102857D01*
X135151904Y-124007619D01*
X135104285Y-123960000D01*
X135009047Y-123912380D01*
X134818571Y-123912380D01*
X134723333Y-123960000D01*
X134675714Y-124007619D01*
X134628095Y-124102857D01*
X134628095Y-124150476D01*
X134675714Y-124245714D01*
X134723333Y-124293333D01*
X134818571Y-124340952D01*
X135009047Y-124340952D01*
X135104285Y-124388571D01*
X135151904Y-124436190D01*
X135199523Y-124531428D01*
X135199523Y-124721904D01*
X135151904Y-124817142D01*
X135104285Y-124864761D01*
X135009047Y-124912380D01*
X134818571Y-124912380D01*
X134723333Y-124864761D01*
X134675714Y-124817142D01*
X134628095Y-124721904D01*
X134628095Y-124531428D01*
X134675714Y-124436190D01*
X134723333Y-124388571D01*
X134818571Y-124340952D01*
X136532857Y-131262380D02*
X136866190Y-130786190D01*
X137104285Y-131262380D02*
X137104285Y-130262380D01*
X136723333Y-130262380D01*
X136628095Y-130310000D01*
X136580476Y-130357619D01*
X136532857Y-130452857D01*
X136532857Y-130595714D01*
X136580476Y-130690952D01*
X136628095Y-130738571D01*
X136723333Y-130786190D01*
X137104285Y-130786190D01*
X135580476Y-131262380D02*
X136151904Y-131262380D01*
X135866190Y-131262380D02*
X135866190Y-130262380D01*
X135961428Y-130405238D01*
X136056666Y-130500476D01*
X136151904Y-130548095D01*
X135247142Y-130262380D02*
X134580476Y-130262380D01*
X135009047Y-131262380D01*
X136532857Y-117292380D02*
X136866190Y-116816190D01*
X137104285Y-117292380D02*
X137104285Y-116292380D01*
X136723333Y-116292380D01*
X136628095Y-116340000D01*
X136580476Y-116387619D01*
X136532857Y-116482857D01*
X136532857Y-116625714D01*
X136580476Y-116720952D01*
X136628095Y-116768571D01*
X136723333Y-116816190D01*
X137104285Y-116816190D01*
X135580476Y-117292380D02*
X136151904Y-117292380D01*
X135866190Y-117292380D02*
X135866190Y-116292380D01*
X135961428Y-116435238D01*
X136056666Y-116530476D01*
X136151904Y-116578095D01*
X134723333Y-116292380D02*
X134913809Y-116292380D01*
X135009047Y-116340000D01*
X135056666Y-116387619D01*
X135151904Y-116530476D01*
X135199523Y-116720952D01*
X135199523Y-117101904D01*
X135151904Y-117197142D01*
X135104285Y-117244761D01*
X135009047Y-117292380D01*
X134818571Y-117292380D01*
X134723333Y-117244761D01*
X134675714Y-117197142D01*
X134628095Y-117101904D01*
X134628095Y-116863809D01*
X134675714Y-116768571D01*
X134723333Y-116720952D01*
X134818571Y-116673333D01*
X135009047Y-116673333D01*
X135104285Y-116720952D01*
X135151904Y-116768571D01*
X135199523Y-116863809D01*
X136532857Y-119832380D02*
X136866190Y-119356190D01*
X137104285Y-119832380D02*
X137104285Y-118832380D01*
X136723333Y-118832380D01*
X136628095Y-118880000D01*
X136580476Y-118927619D01*
X136532857Y-119022857D01*
X136532857Y-119165714D01*
X136580476Y-119260952D01*
X136628095Y-119308571D01*
X136723333Y-119356190D01*
X137104285Y-119356190D01*
X135580476Y-119832380D02*
X136151904Y-119832380D01*
X135866190Y-119832380D02*
X135866190Y-118832380D01*
X135961428Y-118975238D01*
X136056666Y-119070476D01*
X136151904Y-119118095D01*
X134675714Y-118832380D02*
X135151904Y-118832380D01*
X135199523Y-119308571D01*
X135151904Y-119260952D01*
X135056666Y-119213333D01*
X134818571Y-119213333D01*
X134723333Y-119260952D01*
X134675714Y-119308571D01*
X134628095Y-119403809D01*
X134628095Y-119641904D01*
X134675714Y-119737142D01*
X134723333Y-119784761D01*
X134818571Y-119832380D01*
X135056666Y-119832380D01*
X135151904Y-119784761D01*
X135199523Y-119737142D01*
X147454857Y-142692380D02*
X147788190Y-142216190D01*
X148026285Y-142692380D02*
X148026285Y-141692380D01*
X147645333Y-141692380D01*
X147550095Y-141740000D01*
X147502476Y-141787619D01*
X147454857Y-141882857D01*
X147454857Y-142025714D01*
X147502476Y-142120952D01*
X147550095Y-142168571D01*
X147645333Y-142216190D01*
X148026285Y-142216190D01*
X146502476Y-142692380D02*
X147073904Y-142692380D01*
X146788190Y-142692380D02*
X146788190Y-141692380D01*
X146883428Y-141835238D01*
X146978666Y-141930476D01*
X147073904Y-141978095D01*
X145645333Y-142025714D02*
X145645333Y-142692380D01*
X145883428Y-141644761D02*
X146121523Y-142359047D01*
X145502476Y-142359047D01*
X147454857Y-127452380D02*
X147788190Y-126976190D01*
X148026285Y-127452380D02*
X148026285Y-126452380D01*
X147645333Y-126452380D01*
X147550095Y-126500000D01*
X147502476Y-126547619D01*
X147454857Y-126642857D01*
X147454857Y-126785714D01*
X147502476Y-126880952D01*
X147550095Y-126928571D01*
X147645333Y-126976190D01*
X148026285Y-126976190D01*
X146502476Y-127452380D02*
X147073904Y-127452380D01*
X146788190Y-127452380D02*
X146788190Y-126452380D01*
X146883428Y-126595238D01*
X146978666Y-126690476D01*
X147073904Y-126738095D01*
X146169142Y-126452380D02*
X145550095Y-126452380D01*
X145883428Y-126833333D01*
X145740571Y-126833333D01*
X145645333Y-126880952D01*
X145597714Y-126928571D01*
X145550095Y-127023809D01*
X145550095Y-127261904D01*
X145597714Y-127357142D01*
X145645333Y-127404761D01*
X145740571Y-127452380D01*
X146026285Y-127452380D01*
X146121523Y-127404761D01*
X146169142Y-127357142D01*
X138056857Y-66492380D02*
X138390190Y-66016190D01*
X138628285Y-66492380D02*
X138628285Y-65492380D01*
X138247333Y-65492380D01*
X138152095Y-65540000D01*
X138104476Y-65587619D01*
X138056857Y-65682857D01*
X138056857Y-65825714D01*
X138104476Y-65920952D01*
X138152095Y-65968571D01*
X138247333Y-66016190D01*
X138628285Y-66016190D01*
X137104476Y-66492380D02*
X137675904Y-66492380D01*
X137390190Y-66492380D02*
X137390190Y-65492380D01*
X137485428Y-65635238D01*
X137580666Y-65730476D01*
X137675904Y-65778095D01*
X136723523Y-65587619D02*
X136675904Y-65540000D01*
X136580666Y-65492380D01*
X136342571Y-65492380D01*
X136247333Y-65540000D01*
X136199714Y-65587619D01*
X136152095Y-65682857D01*
X136152095Y-65778095D01*
X136199714Y-65920952D01*
X136771142Y-66492380D01*
X136152095Y-66492380D01*
X123832857Y-140152380D02*
X124166190Y-139676190D01*
X124404285Y-140152380D02*
X124404285Y-139152380D01*
X124023333Y-139152380D01*
X123928095Y-139200000D01*
X123880476Y-139247619D01*
X123832857Y-139342857D01*
X123832857Y-139485714D01*
X123880476Y-139580952D01*
X123928095Y-139628571D01*
X124023333Y-139676190D01*
X124404285Y-139676190D01*
X122880476Y-140152380D02*
X123451904Y-140152380D01*
X123166190Y-140152380D02*
X123166190Y-139152380D01*
X123261428Y-139295238D01*
X123356666Y-139390476D01*
X123451904Y-139438095D01*
X121928095Y-140152380D02*
X122499523Y-140152380D01*
X122213809Y-140152380D02*
X122213809Y-139152380D01*
X122309047Y-139295238D01*
X122404285Y-139390476D01*
X122499523Y-139438095D01*
X139834857Y-86812380D02*
X140168190Y-86336190D01*
X140406285Y-86812380D02*
X140406285Y-85812380D01*
X140025333Y-85812380D01*
X139930095Y-85860000D01*
X139882476Y-85907619D01*
X139834857Y-86002857D01*
X139834857Y-86145714D01*
X139882476Y-86240952D01*
X139930095Y-86288571D01*
X140025333Y-86336190D01*
X140406285Y-86336190D01*
X138882476Y-86812380D02*
X139453904Y-86812380D01*
X139168190Y-86812380D02*
X139168190Y-85812380D01*
X139263428Y-85955238D01*
X139358666Y-86050476D01*
X139453904Y-86098095D01*
X138263428Y-85812380D02*
X138168190Y-85812380D01*
X138072952Y-85860000D01*
X138025333Y-85907619D01*
X137977714Y-86002857D01*
X137930095Y-86193333D01*
X137930095Y-86431428D01*
X137977714Y-86621904D01*
X138025333Y-86717142D01*
X138072952Y-86764761D01*
X138168190Y-86812380D01*
X138263428Y-86812380D01*
X138358666Y-86764761D01*
X138406285Y-86717142D01*
X138453904Y-86621904D01*
X138501523Y-86431428D01*
X138501523Y-86193333D01*
X138453904Y-86002857D01*
X138406285Y-85907619D01*
X138358666Y-85860000D01*
X138263428Y-85812380D01*
X138088666Y-63952380D02*
X138422000Y-63476190D01*
X138660095Y-63952380D02*
X138660095Y-62952380D01*
X138279142Y-62952380D01*
X138183904Y-63000000D01*
X138136285Y-63047619D01*
X138088666Y-63142857D01*
X138088666Y-63285714D01*
X138136285Y-63380952D01*
X138183904Y-63428571D01*
X138279142Y-63476190D01*
X138660095Y-63476190D01*
X137612476Y-63952380D02*
X137422000Y-63952380D01*
X137326761Y-63904761D01*
X137279142Y-63857142D01*
X137183904Y-63714285D01*
X137136285Y-63523809D01*
X137136285Y-63142857D01*
X137183904Y-63047619D01*
X137231523Y-63000000D01*
X137326761Y-62952380D01*
X137517238Y-62952380D01*
X137612476Y-63000000D01*
X137660095Y-63047619D01*
X137707714Y-63142857D01*
X137707714Y-63380952D01*
X137660095Y-63476190D01*
X137612476Y-63523809D01*
X137517238Y-63571428D01*
X137326761Y-63571428D01*
X137231523Y-63523809D01*
X137183904Y-63476190D01*
X137136285Y-63380952D01*
X133770666Y-140152380D02*
X134104000Y-139676190D01*
X134342095Y-140152380D02*
X134342095Y-139152380D01*
X133961142Y-139152380D01*
X133865904Y-139200000D01*
X133818285Y-139247619D01*
X133770666Y-139342857D01*
X133770666Y-139485714D01*
X133818285Y-139580952D01*
X133865904Y-139628571D01*
X133961142Y-139676190D01*
X134342095Y-139676190D01*
X133199238Y-139580952D02*
X133294476Y-139533333D01*
X133342095Y-139485714D01*
X133389714Y-139390476D01*
X133389714Y-139342857D01*
X133342095Y-139247619D01*
X133294476Y-139200000D01*
X133199238Y-139152380D01*
X133008761Y-139152380D01*
X132913523Y-139200000D01*
X132865904Y-139247619D01*
X132818285Y-139342857D01*
X132818285Y-139390476D01*
X132865904Y-139485714D01*
X132913523Y-139533333D01*
X133008761Y-139580952D01*
X133199238Y-139580952D01*
X133294476Y-139628571D01*
X133342095Y-139676190D01*
X133389714Y-139771428D01*
X133389714Y-139961904D01*
X133342095Y-140057142D01*
X133294476Y-140104761D01*
X133199238Y-140152380D01*
X133008761Y-140152380D01*
X132913523Y-140104761D01*
X132865904Y-140057142D01*
X132818285Y-139961904D01*
X132818285Y-139771428D01*
X132865904Y-139676190D01*
X132913523Y-139628571D01*
X133008761Y-139580952D01*
X138088666Y-58872380D02*
X138422000Y-58396190D01*
X138660095Y-58872380D02*
X138660095Y-57872380D01*
X138279142Y-57872380D01*
X138183904Y-57920000D01*
X138136285Y-57967619D01*
X138088666Y-58062857D01*
X138088666Y-58205714D01*
X138136285Y-58300952D01*
X138183904Y-58348571D01*
X138279142Y-58396190D01*
X138660095Y-58396190D01*
X137755333Y-57872380D02*
X137088666Y-57872380D01*
X137517238Y-58872380D01*
X133770666Y-144978380D02*
X134104000Y-144502190D01*
X134342095Y-144978380D02*
X134342095Y-143978380D01*
X133961142Y-143978380D01*
X133865904Y-144026000D01*
X133818285Y-144073619D01*
X133770666Y-144168857D01*
X133770666Y-144311714D01*
X133818285Y-144406952D01*
X133865904Y-144454571D01*
X133961142Y-144502190D01*
X134342095Y-144502190D01*
X132913523Y-143978380D02*
X133104000Y-143978380D01*
X133199238Y-144026000D01*
X133246857Y-144073619D01*
X133342095Y-144216476D01*
X133389714Y-144406952D01*
X133389714Y-144787904D01*
X133342095Y-144883142D01*
X133294476Y-144930761D01*
X133199238Y-144978380D01*
X133008761Y-144978380D01*
X132913523Y-144930761D01*
X132865904Y-144883142D01*
X132818285Y-144787904D01*
X132818285Y-144549809D01*
X132865904Y-144454571D01*
X132913523Y-144406952D01*
X133008761Y-144359333D01*
X133199238Y-144359333D01*
X133294476Y-144406952D01*
X133342095Y-144454571D01*
X133389714Y-144549809D01*
X138850666Y-81732380D02*
X139184000Y-81256190D01*
X139422095Y-81732380D02*
X139422095Y-80732380D01*
X139041142Y-80732380D01*
X138945904Y-80780000D01*
X138898285Y-80827619D01*
X138850666Y-80922857D01*
X138850666Y-81065714D01*
X138898285Y-81160952D01*
X138945904Y-81208571D01*
X139041142Y-81256190D01*
X139422095Y-81256190D01*
X137945904Y-80732380D02*
X138422095Y-80732380D01*
X138469714Y-81208571D01*
X138422095Y-81160952D01*
X138326857Y-81113333D01*
X138088761Y-81113333D01*
X137993523Y-81160952D01*
X137945904Y-81208571D01*
X137898285Y-81303809D01*
X137898285Y-81541904D01*
X137945904Y-81637142D01*
X137993523Y-81684761D01*
X138088761Y-81732380D01*
X138326857Y-81732380D01*
X138422095Y-81684761D01*
X138469714Y-81637142D01*
X138850666Y-84272380D02*
X139184000Y-83796190D01*
X139422095Y-84272380D02*
X139422095Y-83272380D01*
X139041142Y-83272380D01*
X138945904Y-83320000D01*
X138898285Y-83367619D01*
X138850666Y-83462857D01*
X138850666Y-83605714D01*
X138898285Y-83700952D01*
X138945904Y-83748571D01*
X139041142Y-83796190D01*
X139422095Y-83796190D01*
X137993523Y-83605714D02*
X137993523Y-84272380D01*
X138231619Y-83224761D02*
X138469714Y-83939047D01*
X137850666Y-83939047D01*
X120308666Y-85542380D02*
X120642000Y-85066190D01*
X120880095Y-85542380D02*
X120880095Y-84542380D01*
X120499142Y-84542380D01*
X120403904Y-84590000D01*
X120356285Y-84637619D01*
X120308666Y-84732857D01*
X120308666Y-84875714D01*
X120356285Y-84970952D01*
X120403904Y-85018571D01*
X120499142Y-85066190D01*
X120880095Y-85066190D01*
X119975333Y-84542380D02*
X119356285Y-84542380D01*
X119689619Y-84923333D01*
X119546761Y-84923333D01*
X119451523Y-84970952D01*
X119403904Y-85018571D01*
X119356285Y-85113809D01*
X119356285Y-85351904D01*
X119403904Y-85447142D01*
X119451523Y-85494761D01*
X119546761Y-85542380D01*
X119832476Y-85542380D01*
X119927714Y-85494761D01*
X119975333Y-85447142D01*
X120308666Y-83002380D02*
X120642000Y-82526190D01*
X120880095Y-83002380D02*
X120880095Y-82002380D01*
X120499142Y-82002380D01*
X120403904Y-82050000D01*
X120356285Y-82097619D01*
X120308666Y-82192857D01*
X120308666Y-82335714D01*
X120356285Y-82430952D01*
X120403904Y-82478571D01*
X120499142Y-82526190D01*
X120880095Y-82526190D01*
X119927714Y-82097619D02*
X119880095Y-82050000D01*
X119784857Y-82002380D01*
X119546761Y-82002380D01*
X119451523Y-82050000D01*
X119403904Y-82097619D01*
X119356285Y-82192857D01*
X119356285Y-82288095D01*
X119403904Y-82430952D01*
X119975333Y-83002380D01*
X119356285Y-83002380D01*
X149001666Y-90242380D02*
X149335000Y-89766190D01*
X149573095Y-90242380D02*
X149573095Y-89242380D01*
X149192142Y-89242380D01*
X149096904Y-89290000D01*
X149049285Y-89337619D01*
X149001666Y-89432857D01*
X149001666Y-89575714D01*
X149049285Y-89670952D01*
X149096904Y-89718571D01*
X149192142Y-89766190D01*
X149573095Y-89766190D01*
X148049285Y-90242380D02*
X148620714Y-90242380D01*
X148335000Y-90242380D02*
X148335000Y-89242380D01*
X148430238Y-89385238D01*
X148525476Y-89480476D01*
X148620714Y-89528095D01*
X197571288Y-85944959D02*
X197666526Y-85897340D01*
X197761764Y-85802101D01*
X197904621Y-85659244D01*
X197999860Y-85611625D01*
X198095098Y-85611625D01*
X198047479Y-85849720D02*
X198142717Y-85802101D01*
X198237955Y-85706863D01*
X198285574Y-85516387D01*
X198285574Y-85183054D01*
X198237955Y-84992578D01*
X198142717Y-84897340D01*
X198047479Y-84849720D01*
X197857002Y-84849720D01*
X197761764Y-84897340D01*
X197666526Y-84992578D01*
X197618907Y-85183054D01*
X197618907Y-85516387D01*
X197666526Y-85706863D01*
X197761764Y-85802101D01*
X197857002Y-85849720D01*
X198047479Y-85849720D01*
X196666526Y-85849720D02*
X197237955Y-85849720D01*
X196952240Y-85849720D02*
X196952240Y-84849720D01*
X197047479Y-84992578D01*
X197142717Y-85087816D01*
X197237955Y-85135435D01*
X196285574Y-84944959D02*
X196237955Y-84897340D01*
X196142717Y-84849720D01*
X195904621Y-84849720D01*
X195809383Y-84897340D01*
X195761764Y-84944959D01*
X195714145Y-85040197D01*
X195714145Y-85135435D01*
X195761764Y-85278292D01*
X196333193Y-85849720D01*
X195714145Y-85849720D01*
X172426428Y-115482619D02*
X172521666Y-115435000D01*
X172616904Y-115339761D01*
X172759761Y-115196904D01*
X172855000Y-115149285D01*
X172950238Y-115149285D01*
X172902619Y-115387380D02*
X172997857Y-115339761D01*
X173093095Y-115244523D01*
X173140714Y-115054047D01*
X173140714Y-114720714D01*
X173093095Y-114530238D01*
X172997857Y-114435000D01*
X172902619Y-114387380D01*
X172712142Y-114387380D01*
X172616904Y-114435000D01*
X172521666Y-114530238D01*
X172474047Y-114720714D01*
X172474047Y-115054047D01*
X172521666Y-115244523D01*
X172616904Y-115339761D01*
X172712142Y-115387380D01*
X172902619Y-115387380D01*
X171521666Y-115387380D02*
X172093095Y-115387380D01*
X171807380Y-115387380D02*
X171807380Y-114387380D01*
X171902619Y-114530238D01*
X171997857Y-114625476D01*
X172093095Y-114673095D01*
X170569285Y-115387380D02*
X171140714Y-115387380D01*
X170855000Y-115387380D02*
X170855000Y-114387380D01*
X170950238Y-114530238D01*
X171045476Y-114625476D01*
X171140714Y-114673095D01*
X165671428Y-125007619D02*
X165766666Y-124960000D01*
X165861904Y-124864761D01*
X166004761Y-124721904D01*
X166100000Y-124674285D01*
X166195238Y-124674285D01*
X166147619Y-124912380D02*
X166242857Y-124864761D01*
X166338095Y-124769523D01*
X166385714Y-124579047D01*
X166385714Y-124245714D01*
X166338095Y-124055238D01*
X166242857Y-123960000D01*
X166147619Y-123912380D01*
X165957142Y-123912380D01*
X165861904Y-123960000D01*
X165766666Y-124055238D01*
X165719047Y-124245714D01*
X165719047Y-124579047D01*
X165766666Y-124769523D01*
X165861904Y-124864761D01*
X165957142Y-124912380D01*
X166147619Y-124912380D01*
X164766666Y-124912380D02*
X165338095Y-124912380D01*
X165052380Y-124912380D02*
X165052380Y-123912380D01*
X165147619Y-124055238D01*
X165242857Y-124150476D01*
X165338095Y-124198095D01*
X164147619Y-123912380D02*
X164052380Y-123912380D01*
X163957142Y-123960000D01*
X163909523Y-124007619D01*
X163861904Y-124102857D01*
X163814285Y-124293333D01*
X163814285Y-124531428D01*
X163861904Y-124721904D01*
X163909523Y-124817142D01*
X163957142Y-124864761D01*
X164052380Y-124912380D01*
X164147619Y-124912380D01*
X164242857Y-124864761D01*
X164290476Y-124817142D01*
X164338095Y-124721904D01*
X164385714Y-124531428D01*
X164385714Y-124293333D01*
X164338095Y-124102857D01*
X164290476Y-124007619D01*
X164242857Y-123960000D01*
X164147619Y-123912380D01*
X165195238Y-115522619D02*
X165290476Y-115475000D01*
X165385714Y-115379761D01*
X165528571Y-115236904D01*
X165623809Y-115189285D01*
X165719047Y-115189285D01*
X165671428Y-115427380D02*
X165766666Y-115379761D01*
X165861904Y-115284523D01*
X165909523Y-115094047D01*
X165909523Y-114760714D01*
X165861904Y-114570238D01*
X165766666Y-114475000D01*
X165671428Y-114427380D01*
X165480952Y-114427380D01*
X165385714Y-114475000D01*
X165290476Y-114570238D01*
X165242857Y-114760714D01*
X165242857Y-115094047D01*
X165290476Y-115284523D01*
X165385714Y-115379761D01*
X165480952Y-115427380D01*
X165671428Y-115427380D01*
X164766666Y-115427380D02*
X164576190Y-115427380D01*
X164480952Y-115379761D01*
X164433333Y-115332142D01*
X164338095Y-115189285D01*
X164290476Y-114998809D01*
X164290476Y-114617857D01*
X164338095Y-114522619D01*
X164385714Y-114475000D01*
X164480952Y-114427380D01*
X164671428Y-114427380D01*
X164766666Y-114475000D01*
X164814285Y-114522619D01*
X164861904Y-114617857D01*
X164861904Y-114855952D01*
X164814285Y-114951190D01*
X164766666Y-114998809D01*
X164671428Y-115046428D01*
X164480952Y-115046428D01*
X164385714Y-114998809D01*
X164338095Y-114951190D01*
X164290476Y-114855952D01*
X171545238Y-125007619D02*
X171640476Y-124960000D01*
X171735714Y-124864761D01*
X171878571Y-124721904D01*
X171973809Y-124674285D01*
X172069047Y-124674285D01*
X172021428Y-124912380D02*
X172116666Y-124864761D01*
X172211904Y-124769523D01*
X172259523Y-124579047D01*
X172259523Y-124245714D01*
X172211904Y-124055238D01*
X172116666Y-123960000D01*
X172021428Y-123912380D01*
X171830952Y-123912380D01*
X171735714Y-123960000D01*
X171640476Y-124055238D01*
X171592857Y-124245714D01*
X171592857Y-124579047D01*
X171640476Y-124769523D01*
X171735714Y-124864761D01*
X171830952Y-124912380D01*
X172021428Y-124912380D01*
X171021428Y-124340952D02*
X171116666Y-124293333D01*
X171164285Y-124245714D01*
X171211904Y-124150476D01*
X171211904Y-124102857D01*
X171164285Y-124007619D01*
X171116666Y-123960000D01*
X171021428Y-123912380D01*
X170830952Y-123912380D01*
X170735714Y-123960000D01*
X170688095Y-124007619D01*
X170640476Y-124102857D01*
X170640476Y-124150476D01*
X170688095Y-124245714D01*
X170735714Y-124293333D01*
X170830952Y-124340952D01*
X171021428Y-124340952D01*
X171116666Y-124388571D01*
X171164285Y-124436190D01*
X171211904Y-124531428D01*
X171211904Y-124721904D01*
X171164285Y-124817142D01*
X171116666Y-124864761D01*
X171021428Y-124912380D01*
X170830952Y-124912380D01*
X170735714Y-124864761D01*
X170688095Y-124817142D01*
X170640476Y-124721904D01*
X170640476Y-124531428D01*
X170688095Y-124436190D01*
X170735714Y-124388571D01*
X170830952Y-124340952D01*
X190315838Y-114111019D02*
X190411076Y-114063400D01*
X190506314Y-113968161D01*
X190649171Y-113825304D01*
X190744409Y-113777685D01*
X190839647Y-113777685D01*
X190792028Y-114015780D02*
X190887266Y-113968161D01*
X190982504Y-113872923D01*
X191030123Y-113682447D01*
X191030123Y-113349114D01*
X190982504Y-113158638D01*
X190887266Y-113063400D01*
X190792028Y-113015780D01*
X190601552Y-113015780D01*
X190506314Y-113063400D01*
X190411076Y-113158638D01*
X190363457Y-113349114D01*
X190363457Y-113682447D01*
X190411076Y-113872923D01*
X190506314Y-113968161D01*
X190601552Y-114015780D01*
X190792028Y-114015780D01*
X190030123Y-113015780D02*
X189363457Y-113015780D01*
X189792028Y-114015780D01*
X112490238Y-73612619D02*
X112585476Y-73565000D01*
X112680714Y-73469761D01*
X112823571Y-73326904D01*
X112918809Y-73279285D01*
X113014047Y-73279285D01*
X112966428Y-73517380D02*
X113061666Y-73469761D01*
X113156904Y-73374523D01*
X113204523Y-73184047D01*
X113204523Y-72850714D01*
X113156904Y-72660238D01*
X113061666Y-72565000D01*
X112966428Y-72517380D01*
X112775952Y-72517380D01*
X112680714Y-72565000D01*
X112585476Y-72660238D01*
X112537857Y-72850714D01*
X112537857Y-73184047D01*
X112585476Y-73374523D01*
X112680714Y-73469761D01*
X112775952Y-73517380D01*
X112966428Y-73517380D01*
X111680714Y-72517380D02*
X111871190Y-72517380D01*
X111966428Y-72565000D01*
X112014047Y-72612619D01*
X112109285Y-72755476D01*
X112156904Y-72945952D01*
X112156904Y-73326904D01*
X112109285Y-73422142D01*
X112061666Y-73469761D01*
X111966428Y-73517380D01*
X111775952Y-73517380D01*
X111680714Y-73469761D01*
X111633095Y-73422142D01*
X111585476Y-73326904D01*
X111585476Y-73088809D01*
X111633095Y-72993571D01*
X111680714Y-72945952D01*
X111775952Y-72898333D01*
X111966428Y-72898333D01*
X112061666Y-72945952D01*
X112109285Y-72993571D01*
X112156904Y-73088809D01*
X127730238Y-121157619D02*
X127825476Y-121110000D01*
X127920714Y-121014761D01*
X128063571Y-120871904D01*
X128158809Y-120824285D01*
X128254047Y-120824285D01*
X128206428Y-121062380D02*
X128301666Y-121014761D01*
X128396904Y-120919523D01*
X128444523Y-120729047D01*
X128444523Y-120395714D01*
X128396904Y-120205238D01*
X128301666Y-120110000D01*
X128206428Y-120062380D01*
X128015952Y-120062380D01*
X127920714Y-120110000D01*
X127825476Y-120205238D01*
X127777857Y-120395714D01*
X127777857Y-120729047D01*
X127825476Y-120919523D01*
X127920714Y-121014761D01*
X128015952Y-121062380D01*
X128206428Y-121062380D01*
X126873095Y-120062380D02*
X127349285Y-120062380D01*
X127396904Y-120538571D01*
X127349285Y-120490952D01*
X127254047Y-120443333D01*
X127015952Y-120443333D01*
X126920714Y-120490952D01*
X126873095Y-120538571D01*
X126825476Y-120633809D01*
X126825476Y-120871904D01*
X126873095Y-120967142D01*
X126920714Y-121014761D01*
X127015952Y-121062380D01*
X127254047Y-121062380D01*
X127349285Y-121014761D01*
X127396904Y-120967142D01*
X121380238Y-126277619D02*
X121475476Y-126230000D01*
X121570714Y-126134761D01*
X121713571Y-125991904D01*
X121808809Y-125944285D01*
X121904047Y-125944285D01*
X121856428Y-126182380D02*
X121951666Y-126134761D01*
X122046904Y-126039523D01*
X122094523Y-125849047D01*
X122094523Y-125515714D01*
X122046904Y-125325238D01*
X121951666Y-125230000D01*
X121856428Y-125182380D01*
X121665952Y-125182380D01*
X121570714Y-125230000D01*
X121475476Y-125325238D01*
X121427857Y-125515714D01*
X121427857Y-125849047D01*
X121475476Y-126039523D01*
X121570714Y-126134761D01*
X121665952Y-126182380D01*
X121856428Y-126182380D01*
X120570714Y-125515714D02*
X120570714Y-126182380D01*
X120808809Y-125134761D02*
X121046904Y-125849047D01*
X120427857Y-125849047D01*
X121380238Y-121197619D02*
X121475476Y-121150000D01*
X121570714Y-121054761D01*
X121713571Y-120911904D01*
X121808809Y-120864285D01*
X121904047Y-120864285D01*
X121856428Y-121102380D02*
X121951666Y-121054761D01*
X122046904Y-120959523D01*
X122094523Y-120769047D01*
X122094523Y-120435714D01*
X122046904Y-120245238D01*
X121951666Y-120150000D01*
X121856428Y-120102380D01*
X121665952Y-120102380D01*
X121570714Y-120150000D01*
X121475476Y-120245238D01*
X121427857Y-120435714D01*
X121427857Y-120769047D01*
X121475476Y-120959523D01*
X121570714Y-121054761D01*
X121665952Y-121102380D01*
X121856428Y-121102380D01*
X121094523Y-120102380D02*
X120475476Y-120102380D01*
X120808809Y-120483333D01*
X120665952Y-120483333D01*
X120570714Y-120530952D01*
X120523095Y-120578571D01*
X120475476Y-120673809D01*
X120475476Y-120911904D01*
X120523095Y-121007142D01*
X120570714Y-121054761D01*
X120665952Y-121102380D01*
X120951666Y-121102380D01*
X121046904Y-121054761D01*
X121094523Y-121007142D01*
X127730238Y-126237619D02*
X127825476Y-126190000D01*
X127920714Y-126094761D01*
X128063571Y-125951904D01*
X128158809Y-125904285D01*
X128254047Y-125904285D01*
X128206428Y-126142380D02*
X128301666Y-126094761D01*
X128396904Y-125999523D01*
X128444523Y-125809047D01*
X128444523Y-125475714D01*
X128396904Y-125285238D01*
X128301666Y-125190000D01*
X128206428Y-125142380D01*
X128015952Y-125142380D01*
X127920714Y-125190000D01*
X127825476Y-125285238D01*
X127777857Y-125475714D01*
X127777857Y-125809047D01*
X127825476Y-125999523D01*
X127920714Y-126094761D01*
X128015952Y-126142380D01*
X128206428Y-126142380D01*
X127396904Y-125237619D02*
X127349285Y-125190000D01*
X127254047Y-125142380D01*
X127015952Y-125142380D01*
X126920714Y-125190000D01*
X126873095Y-125237619D01*
X126825476Y-125332857D01*
X126825476Y-125428095D01*
X126873095Y-125570952D01*
X127444523Y-126142380D01*
X126825476Y-126142380D01*
X148050238Y-112942619D02*
X148145476Y-112895000D01*
X148240714Y-112799761D01*
X148383571Y-112656904D01*
X148478809Y-112609285D01*
X148574047Y-112609285D01*
X148526428Y-112847380D02*
X148621666Y-112799761D01*
X148716904Y-112704523D01*
X148764523Y-112514047D01*
X148764523Y-112180714D01*
X148716904Y-111990238D01*
X148621666Y-111895000D01*
X148526428Y-111847380D01*
X148335952Y-111847380D01*
X148240714Y-111895000D01*
X148145476Y-111990238D01*
X148097857Y-112180714D01*
X148097857Y-112514047D01*
X148145476Y-112704523D01*
X148240714Y-112799761D01*
X148335952Y-112847380D01*
X148526428Y-112847380D01*
X147145476Y-112847380D02*
X147716904Y-112847380D01*
X147431190Y-112847380D02*
X147431190Y-111847380D01*
X147526428Y-111990238D01*
X147621666Y-112085476D01*
X147716904Y-112133095D01*
X188209085Y-78887580D02*
X188209085Y-77887580D01*
X187970990Y-77887580D01*
X187828133Y-77935200D01*
X187732895Y-78030438D01*
X187685276Y-78125676D01*
X187637657Y-78316152D01*
X187637657Y-78459009D01*
X187685276Y-78649485D01*
X187732895Y-78744723D01*
X187828133Y-78839961D01*
X187970990Y-78887580D01*
X188209085Y-78887580D01*
X186685276Y-78887580D02*
X187256704Y-78887580D01*
X186970990Y-78887580D02*
X186970990Y-77887580D01*
X187066228Y-78030438D01*
X187161466Y-78125676D01*
X187256704Y-78173295D01*
X185780514Y-77887580D02*
X186256704Y-77887580D01*
X186304323Y-78363771D01*
X186256704Y-78316152D01*
X186161466Y-78268533D01*
X185923371Y-78268533D01*
X185828133Y-78316152D01*
X185780514Y-78363771D01*
X185732895Y-78459009D01*
X185732895Y-78697104D01*
X185780514Y-78792342D01*
X185828133Y-78839961D01*
X185923371Y-78887580D01*
X186161466Y-78887580D01*
X186256704Y-78839961D01*
X186304323Y-78792342D01*
X163012285Y-112974380D02*
X163012285Y-111974380D01*
X162774190Y-111974380D01*
X162631333Y-112022000D01*
X162536095Y-112117238D01*
X162488476Y-112212476D01*
X162440857Y-112402952D01*
X162440857Y-112545809D01*
X162488476Y-112736285D01*
X162536095Y-112831523D01*
X162631333Y-112926761D01*
X162774190Y-112974380D01*
X163012285Y-112974380D01*
X161488476Y-112974380D02*
X162059904Y-112974380D01*
X161774190Y-112974380D02*
X161774190Y-111974380D01*
X161869428Y-112117238D01*
X161964666Y-112212476D01*
X162059904Y-112260095D01*
X160631333Y-112307714D02*
X160631333Y-112974380D01*
X160869428Y-111926761D02*
X161107523Y-112641047D01*
X160488476Y-112641047D01*
X191942885Y-119730780D02*
X191942885Y-118730780D01*
X191704790Y-118730780D01*
X191561933Y-118778400D01*
X191466695Y-118873638D01*
X191419076Y-118968876D01*
X191371457Y-119159352D01*
X191371457Y-119302209D01*
X191419076Y-119492685D01*
X191466695Y-119587923D01*
X191561933Y-119683161D01*
X191704790Y-119730780D01*
X191942885Y-119730780D01*
X190419076Y-119730780D02*
X190990504Y-119730780D01*
X190704790Y-119730780D02*
X190704790Y-118730780D01*
X190800028Y-118873638D01*
X190895266Y-118968876D01*
X190990504Y-119016495D01*
X190085742Y-118730780D02*
X189466695Y-118730780D01*
X189800028Y-119111733D01*
X189657171Y-119111733D01*
X189561933Y-119159352D01*
X189514314Y-119206971D01*
X189466695Y-119302209D01*
X189466695Y-119540304D01*
X189514314Y-119635542D01*
X189561933Y-119683161D01*
X189657171Y-119730780D01*
X189942885Y-119730780D01*
X190038123Y-119683161D01*
X190085742Y-119635542D01*
X155646285Y-70302380D02*
X155646285Y-69302380D01*
X155408190Y-69302380D01*
X155265333Y-69350000D01*
X155170095Y-69445238D01*
X155122476Y-69540476D01*
X155074857Y-69730952D01*
X155074857Y-69873809D01*
X155122476Y-70064285D01*
X155170095Y-70159523D01*
X155265333Y-70254761D01*
X155408190Y-70302380D01*
X155646285Y-70302380D01*
X154122476Y-70302380D02*
X154693904Y-70302380D01*
X154408190Y-70302380D02*
X154408190Y-69302380D01*
X154503428Y-69445238D01*
X154598666Y-69540476D01*
X154693904Y-69588095D01*
X153741523Y-69397619D02*
X153693904Y-69350000D01*
X153598666Y-69302380D01*
X153360571Y-69302380D01*
X153265333Y-69350000D01*
X153217714Y-69397619D01*
X153170095Y-69492857D01*
X153170095Y-69588095D01*
X153217714Y-69730952D01*
X153789142Y-70302380D01*
X153170095Y-70302380D01*
X155519285Y-73096380D02*
X155519285Y-72096380D01*
X155281190Y-72096380D01*
X155138333Y-72144000D01*
X155043095Y-72239238D01*
X154995476Y-72334476D01*
X154947857Y-72524952D01*
X154947857Y-72667809D01*
X154995476Y-72858285D01*
X155043095Y-72953523D01*
X155138333Y-73048761D01*
X155281190Y-73096380D01*
X155519285Y-73096380D01*
X153995476Y-73096380D02*
X154566904Y-73096380D01*
X154281190Y-73096380D02*
X154281190Y-72096380D01*
X154376428Y-72239238D01*
X154471666Y-72334476D01*
X154566904Y-72382095D01*
X153043095Y-73096380D02*
X153614523Y-73096380D01*
X153328809Y-73096380D02*
X153328809Y-72096380D01*
X153424047Y-72239238D01*
X153519285Y-72334476D01*
X153614523Y-72382095D01*
X166822285Y-133167380D02*
X166822285Y-132167380D01*
X166584190Y-132167380D01*
X166441333Y-132215000D01*
X166346095Y-132310238D01*
X166298476Y-132405476D01*
X166250857Y-132595952D01*
X166250857Y-132738809D01*
X166298476Y-132929285D01*
X166346095Y-133024523D01*
X166441333Y-133119761D01*
X166584190Y-133167380D01*
X166822285Y-133167380D01*
X165298476Y-133167380D02*
X165869904Y-133167380D01*
X165584190Y-133167380D02*
X165584190Y-132167380D01*
X165679428Y-132310238D01*
X165774666Y-132405476D01*
X165869904Y-132453095D01*
X164679428Y-132167380D02*
X164584190Y-132167380D01*
X164488952Y-132215000D01*
X164441333Y-132262619D01*
X164393714Y-132357857D01*
X164346095Y-132548333D01*
X164346095Y-132786428D01*
X164393714Y-132976904D01*
X164441333Y-133072142D01*
X164488952Y-133119761D01*
X164584190Y-133167380D01*
X164679428Y-133167380D01*
X164774666Y-133119761D01*
X164822285Y-133072142D01*
X164869904Y-132976904D01*
X164917523Y-132786428D01*
X164917523Y-132548333D01*
X164869904Y-132357857D01*
X164822285Y-132262619D01*
X164774666Y-132215000D01*
X164679428Y-132167380D01*
X166854095Y-136342380D02*
X166854095Y-135342380D01*
X166616000Y-135342380D01*
X166473142Y-135390000D01*
X166377904Y-135485238D01*
X166330285Y-135580476D01*
X166282666Y-135770952D01*
X166282666Y-135913809D01*
X166330285Y-136104285D01*
X166377904Y-136199523D01*
X166473142Y-136294761D01*
X166616000Y-136342380D01*
X166854095Y-136342380D01*
X165806476Y-136342380D02*
X165616000Y-136342380D01*
X165520761Y-136294761D01*
X165473142Y-136247142D01*
X165377904Y-136104285D01*
X165330285Y-135913809D01*
X165330285Y-135532857D01*
X165377904Y-135437619D01*
X165425523Y-135390000D01*
X165520761Y-135342380D01*
X165711238Y-135342380D01*
X165806476Y-135390000D01*
X165854095Y-135437619D01*
X165901714Y-135532857D01*
X165901714Y-135770952D01*
X165854095Y-135866190D01*
X165806476Y-135913809D01*
X165711238Y-135961428D01*
X165520761Y-135961428D01*
X165425523Y-135913809D01*
X165377904Y-135866190D01*
X165330285Y-135770952D01*
X118086095Y-81732380D02*
X118086095Y-80732380D01*
X117848000Y-80732380D01*
X117705142Y-80780000D01*
X117609904Y-80875238D01*
X117562285Y-80970476D01*
X117514666Y-81160952D01*
X117514666Y-81303809D01*
X117562285Y-81494285D01*
X117609904Y-81589523D01*
X117705142Y-81684761D01*
X117848000Y-81732380D01*
X118086095Y-81732380D01*
X117181333Y-80732380D02*
X116514666Y-80732380D01*
X116943238Y-81732380D01*
X120626095Y-114752380D02*
X120626095Y-113752380D01*
X120388000Y-113752380D01*
X120245142Y-113800000D01*
X120149904Y-113895238D01*
X120102285Y-113990476D01*
X120054666Y-114180952D01*
X120054666Y-114323809D01*
X120102285Y-114514285D01*
X120149904Y-114609523D01*
X120245142Y-114704761D01*
X120388000Y-114752380D01*
X120626095Y-114752380D01*
X119197523Y-113752380D02*
X119388000Y-113752380D01*
X119483238Y-113800000D01*
X119530857Y-113847619D01*
X119626095Y-113990476D01*
X119673714Y-114180952D01*
X119673714Y-114561904D01*
X119626095Y-114657142D01*
X119578476Y-114704761D01*
X119483238Y-114752380D01*
X119292761Y-114752380D01*
X119197523Y-114704761D01*
X119149904Y-114657142D01*
X119102285Y-114561904D01*
X119102285Y-114323809D01*
X119149904Y-114228571D01*
X119197523Y-114180952D01*
X119292761Y-114133333D01*
X119483238Y-114133333D01*
X119578476Y-114180952D01*
X119626095Y-114228571D01*
X119673714Y-114323809D01*
X148464495Y-120695980D02*
X148464495Y-119695980D01*
X148226400Y-119695980D01*
X148083542Y-119743600D01*
X147988304Y-119838838D01*
X147940685Y-119934076D01*
X147893066Y-120124552D01*
X147893066Y-120267409D01*
X147940685Y-120457885D01*
X147988304Y-120553123D01*
X148083542Y-120648361D01*
X148226400Y-120695980D01*
X148464495Y-120695980D01*
X146988304Y-119695980D02*
X147464495Y-119695980D01*
X147512114Y-120172171D01*
X147464495Y-120124552D01*
X147369257Y-120076933D01*
X147131161Y-120076933D01*
X147035923Y-120124552D01*
X146988304Y-120172171D01*
X146940685Y-120267409D01*
X146940685Y-120505504D01*
X146988304Y-120600742D01*
X147035923Y-120648361D01*
X147131161Y-120695980D01*
X147369257Y-120695980D01*
X147464495Y-120648361D01*
X147512114Y-120600742D01*
X138152095Y-69413380D02*
X138152095Y-68413380D01*
X137914000Y-68413380D01*
X137771142Y-68461000D01*
X137675904Y-68556238D01*
X137628285Y-68651476D01*
X137580666Y-68841952D01*
X137580666Y-68984809D01*
X137628285Y-69175285D01*
X137675904Y-69270523D01*
X137771142Y-69365761D01*
X137914000Y-69413380D01*
X138152095Y-69413380D01*
X136723523Y-68746714D02*
X136723523Y-69413380D01*
X136961619Y-68365761D02*
X137199714Y-69080047D01*
X136580666Y-69080047D01*
X138152095Y-72334380D02*
X138152095Y-71334380D01*
X137914000Y-71334380D01*
X137771142Y-71382000D01*
X137675904Y-71477238D01*
X137628285Y-71572476D01*
X137580666Y-71762952D01*
X137580666Y-71905809D01*
X137628285Y-72096285D01*
X137675904Y-72191523D01*
X137771142Y-72286761D01*
X137914000Y-72334380D01*
X138152095Y-72334380D01*
X137247333Y-71334380D02*
X136628285Y-71334380D01*
X136961619Y-71715333D01*
X136818761Y-71715333D01*
X136723523Y-71762952D01*
X136675904Y-71810571D01*
X136628285Y-71905809D01*
X136628285Y-72143904D01*
X136675904Y-72239142D01*
X136723523Y-72286761D01*
X136818761Y-72334380D01*
X137104476Y-72334380D01*
X137199714Y-72286761D01*
X137247333Y-72239142D01*
X123928095Y-134564380D02*
X123928095Y-133564380D01*
X123690000Y-133564380D01*
X123547142Y-133612000D01*
X123451904Y-133707238D01*
X123404285Y-133802476D01*
X123356666Y-133992952D01*
X123356666Y-134135809D01*
X123404285Y-134326285D01*
X123451904Y-134421523D01*
X123547142Y-134516761D01*
X123690000Y-134564380D01*
X123928095Y-134564380D01*
X122975714Y-133659619D02*
X122928095Y-133612000D01*
X122832857Y-133564380D01*
X122594761Y-133564380D01*
X122499523Y-133612000D01*
X122451904Y-133659619D01*
X122404285Y-133754857D01*
X122404285Y-133850095D01*
X122451904Y-133992952D01*
X123023333Y-134564380D01*
X122404285Y-134564380D01*
X123928095Y-137612380D02*
X123928095Y-136612380D01*
X123690000Y-136612380D01*
X123547142Y-136660000D01*
X123451904Y-136755238D01*
X123404285Y-136850476D01*
X123356666Y-137040952D01*
X123356666Y-137183809D01*
X123404285Y-137374285D01*
X123451904Y-137469523D01*
X123547142Y-137564761D01*
X123690000Y-137612380D01*
X123928095Y-137612380D01*
X122404285Y-137612380D02*
X122975714Y-137612380D01*
X122690000Y-137612380D02*
X122690000Y-136612380D01*
X122785238Y-136755238D01*
X122880476Y-136850476D01*
X122975714Y-136898095D01*
X162948857Y-91162142D02*
X162996476Y-91209761D01*
X163139333Y-91257380D01*
X163234571Y-91257380D01*
X163377428Y-91209761D01*
X163472666Y-91114523D01*
X163520285Y-91019285D01*
X163567904Y-90828809D01*
X163567904Y-90685952D01*
X163520285Y-90495476D01*
X163472666Y-90400238D01*
X163377428Y-90305000D01*
X163234571Y-90257380D01*
X163139333Y-90257380D01*
X162996476Y-90305000D01*
X162948857Y-90352619D01*
X162567904Y-90352619D02*
X162520285Y-90305000D01*
X162425047Y-90257380D01*
X162186952Y-90257380D01*
X162091714Y-90305000D01*
X162044095Y-90352619D01*
X161996476Y-90447857D01*
X161996476Y-90543095D01*
X162044095Y-90685952D01*
X162615523Y-91257380D01*
X161996476Y-91257380D01*
X161615523Y-90352619D02*
X161567904Y-90305000D01*
X161472666Y-90257380D01*
X161234571Y-90257380D01*
X161139333Y-90305000D01*
X161091714Y-90352619D01*
X161044095Y-90447857D01*
X161044095Y-90543095D01*
X161091714Y-90685952D01*
X161663142Y-91257380D01*
X161044095Y-91257380D01*
X181998857Y-91416142D02*
X182046476Y-91463761D01*
X182189333Y-91511380D01*
X182284571Y-91511380D01*
X182427428Y-91463761D01*
X182522666Y-91368523D01*
X182570285Y-91273285D01*
X182617904Y-91082809D01*
X182617904Y-90939952D01*
X182570285Y-90749476D01*
X182522666Y-90654238D01*
X182427428Y-90559000D01*
X182284571Y-90511380D01*
X182189333Y-90511380D01*
X182046476Y-90559000D01*
X181998857Y-90606619D01*
X181617904Y-90606619D02*
X181570285Y-90559000D01*
X181475047Y-90511380D01*
X181236952Y-90511380D01*
X181141714Y-90559000D01*
X181094095Y-90606619D01*
X181046476Y-90701857D01*
X181046476Y-90797095D01*
X181094095Y-90939952D01*
X181665523Y-91511380D01*
X181046476Y-91511380D01*
X180094095Y-91511380D02*
X180665523Y-91511380D01*
X180379809Y-91511380D02*
X180379809Y-90511380D01*
X180475047Y-90654238D01*
X180570285Y-90749476D01*
X180665523Y-90797095D01*
X181998857Y-104751142D02*
X182046476Y-104798761D01*
X182189333Y-104846380D01*
X182284571Y-104846380D01*
X182427428Y-104798761D01*
X182522666Y-104703523D01*
X182570285Y-104608285D01*
X182617904Y-104417809D01*
X182617904Y-104274952D01*
X182570285Y-104084476D01*
X182522666Y-103989238D01*
X182427428Y-103894000D01*
X182284571Y-103846380D01*
X182189333Y-103846380D01*
X182046476Y-103894000D01*
X181998857Y-103941619D01*
X181617904Y-103941619D02*
X181570285Y-103894000D01*
X181475047Y-103846380D01*
X181236952Y-103846380D01*
X181141714Y-103894000D01*
X181094095Y-103941619D01*
X181046476Y-104036857D01*
X181046476Y-104132095D01*
X181094095Y-104274952D01*
X181665523Y-104846380D01*
X181046476Y-104846380D01*
X180427428Y-103846380D02*
X180332190Y-103846380D01*
X180236952Y-103894000D01*
X180189333Y-103941619D01*
X180141714Y-104036857D01*
X180094095Y-104227333D01*
X180094095Y-104465428D01*
X180141714Y-104655904D01*
X180189333Y-104751142D01*
X180236952Y-104798761D01*
X180332190Y-104846380D01*
X180427428Y-104846380D01*
X180522666Y-104798761D01*
X180570285Y-104751142D01*
X180617904Y-104655904D01*
X180665523Y-104465428D01*
X180665523Y-104227333D01*
X180617904Y-104036857D01*
X180570285Y-103941619D01*
X180522666Y-103894000D01*
X180427428Y-103846380D01*
X154566857Y-62587142D02*
X154614476Y-62634761D01*
X154757333Y-62682380D01*
X154852571Y-62682380D01*
X154995428Y-62634761D01*
X155090666Y-62539523D01*
X155138285Y-62444285D01*
X155185904Y-62253809D01*
X155185904Y-62110952D01*
X155138285Y-61920476D01*
X155090666Y-61825238D01*
X154995428Y-61730000D01*
X154852571Y-61682380D01*
X154757333Y-61682380D01*
X154614476Y-61730000D01*
X154566857Y-61777619D01*
X153614476Y-62682380D02*
X154185904Y-62682380D01*
X153900190Y-62682380D02*
X153900190Y-61682380D01*
X153995428Y-61825238D01*
X154090666Y-61920476D01*
X154185904Y-61968095D01*
X153138285Y-62682380D02*
X152947809Y-62682380D01*
X152852571Y-62634761D01*
X152804952Y-62587142D01*
X152709714Y-62444285D01*
X152662095Y-62253809D01*
X152662095Y-61872857D01*
X152709714Y-61777619D01*
X152757333Y-61730000D01*
X152852571Y-61682380D01*
X153043047Y-61682380D01*
X153138285Y-61730000D01*
X153185904Y-61777619D01*
X153233523Y-61872857D01*
X153233523Y-62110952D01*
X153185904Y-62206190D01*
X153138285Y-62253809D01*
X153043047Y-62301428D01*
X152852571Y-62301428D01*
X152757333Y-62253809D01*
X152709714Y-62206190D01*
X152662095Y-62110952D01*
X177934857Y-141962142D02*
X177982476Y-142009761D01*
X178125333Y-142057380D01*
X178220571Y-142057380D01*
X178363428Y-142009761D01*
X178458666Y-141914523D01*
X178506285Y-141819285D01*
X178553904Y-141628809D01*
X178553904Y-141485952D01*
X178506285Y-141295476D01*
X178458666Y-141200238D01*
X178363428Y-141105000D01*
X178220571Y-141057380D01*
X178125333Y-141057380D01*
X177982476Y-141105000D01*
X177934857Y-141152619D01*
X176982476Y-142057380D02*
X177553904Y-142057380D01*
X177268190Y-142057380D02*
X177268190Y-141057380D01*
X177363428Y-141200238D01*
X177458666Y-141295476D01*
X177553904Y-141343095D01*
X176411047Y-141485952D02*
X176506285Y-141438333D01*
X176553904Y-141390714D01*
X176601523Y-141295476D01*
X176601523Y-141247857D01*
X176553904Y-141152619D01*
X176506285Y-141105000D01*
X176411047Y-141057380D01*
X176220571Y-141057380D01*
X176125333Y-141105000D01*
X176077714Y-141152619D01*
X176030095Y-141247857D01*
X176030095Y-141295476D01*
X176077714Y-141390714D01*
X176125333Y-141438333D01*
X176220571Y-141485952D01*
X176411047Y-141485952D01*
X176506285Y-141533571D01*
X176553904Y-141581190D01*
X176601523Y-141676428D01*
X176601523Y-141866904D01*
X176553904Y-141962142D01*
X176506285Y-142009761D01*
X176411047Y-142057380D01*
X176220571Y-142057380D01*
X176125333Y-142009761D01*
X176077714Y-141962142D01*
X176030095Y-141866904D01*
X176030095Y-141676428D01*
X176077714Y-141581190D01*
X176125333Y-141533571D01*
X176220571Y-141485952D01*
X167012857Y-70207142D02*
X167060476Y-70254761D01*
X167203333Y-70302380D01*
X167298571Y-70302380D01*
X167441428Y-70254761D01*
X167536666Y-70159523D01*
X167584285Y-70064285D01*
X167631904Y-69873809D01*
X167631904Y-69730952D01*
X167584285Y-69540476D01*
X167536666Y-69445238D01*
X167441428Y-69350000D01*
X167298571Y-69302380D01*
X167203333Y-69302380D01*
X167060476Y-69350000D01*
X167012857Y-69397619D01*
X166060476Y-70302380D02*
X166631904Y-70302380D01*
X166346190Y-70302380D02*
X166346190Y-69302380D01*
X166441428Y-69445238D01*
X166536666Y-69540476D01*
X166631904Y-69588095D01*
X165727142Y-69302380D02*
X165060476Y-69302380D01*
X165489047Y-70302380D01*
X167012857Y-53697142D02*
X167060476Y-53744761D01*
X167203333Y-53792380D01*
X167298571Y-53792380D01*
X167441428Y-53744761D01*
X167536666Y-53649523D01*
X167584285Y-53554285D01*
X167631904Y-53363809D01*
X167631904Y-53220952D01*
X167584285Y-53030476D01*
X167536666Y-52935238D01*
X167441428Y-52840000D01*
X167298571Y-52792380D01*
X167203333Y-52792380D01*
X167060476Y-52840000D01*
X167012857Y-52887619D01*
X166060476Y-53792380D02*
X166631904Y-53792380D01*
X166346190Y-53792380D02*
X166346190Y-52792380D01*
X166441428Y-52935238D01*
X166536666Y-53030476D01*
X166631904Y-53078095D01*
X165203333Y-52792380D02*
X165393809Y-52792380D01*
X165489047Y-52840000D01*
X165536666Y-52887619D01*
X165631904Y-53030476D01*
X165679523Y-53220952D01*
X165679523Y-53601904D01*
X165631904Y-53697142D01*
X165584285Y-53744761D01*
X165489047Y-53792380D01*
X165298571Y-53792380D01*
X165203333Y-53744761D01*
X165155714Y-53697142D01*
X165108095Y-53601904D01*
X165108095Y-53363809D01*
X165155714Y-53268571D01*
X165203333Y-53220952D01*
X165298571Y-53173333D01*
X165489047Y-53173333D01*
X165584285Y-53220952D01*
X165631904Y-53268571D01*
X165679523Y-53363809D01*
X167342857Y-78482142D02*
X167390476Y-78529761D01*
X167533333Y-78577380D01*
X167628571Y-78577380D01*
X167771428Y-78529761D01*
X167866666Y-78434523D01*
X167914285Y-78339285D01*
X167961904Y-78148809D01*
X167961904Y-78005952D01*
X167914285Y-77815476D01*
X167866666Y-77720238D01*
X167771428Y-77625000D01*
X167628571Y-77577380D01*
X167533333Y-77577380D01*
X167390476Y-77625000D01*
X167342857Y-77672619D01*
X166390476Y-78577380D02*
X166961904Y-78577380D01*
X166676190Y-78577380D02*
X166676190Y-77577380D01*
X166771428Y-77720238D01*
X166866666Y-77815476D01*
X166961904Y-77863095D01*
X165485714Y-77577380D02*
X165961904Y-77577380D01*
X166009523Y-78053571D01*
X165961904Y-78005952D01*
X165866666Y-77958333D01*
X165628571Y-77958333D01*
X165533333Y-78005952D01*
X165485714Y-78053571D01*
X165438095Y-78148809D01*
X165438095Y-78386904D01*
X165485714Y-78482142D01*
X165533333Y-78529761D01*
X165628571Y-78577380D01*
X165866666Y-78577380D01*
X165961904Y-78529761D01*
X166009523Y-78482142D01*
X177842857Y-79057142D02*
X177890476Y-79104761D01*
X178033333Y-79152380D01*
X178128571Y-79152380D01*
X178271428Y-79104761D01*
X178366666Y-79009523D01*
X178414285Y-78914285D01*
X178461904Y-78723809D01*
X178461904Y-78580952D01*
X178414285Y-78390476D01*
X178366666Y-78295238D01*
X178271428Y-78200000D01*
X178128571Y-78152380D01*
X178033333Y-78152380D01*
X177890476Y-78200000D01*
X177842857Y-78247619D01*
X176890476Y-79152380D02*
X177461904Y-79152380D01*
X177176190Y-79152380D02*
X177176190Y-78152380D01*
X177271428Y-78295238D01*
X177366666Y-78390476D01*
X177461904Y-78438095D01*
X176033333Y-78485714D02*
X176033333Y-79152380D01*
X176271428Y-78104761D02*
X176509523Y-78819047D01*
X175890476Y-78819047D01*
X166017857Y-88157142D02*
X166065476Y-88204761D01*
X166208333Y-88252380D01*
X166303571Y-88252380D01*
X166446428Y-88204761D01*
X166541666Y-88109523D01*
X166589285Y-88014285D01*
X166636904Y-87823809D01*
X166636904Y-87680952D01*
X166589285Y-87490476D01*
X166541666Y-87395238D01*
X166446428Y-87300000D01*
X166303571Y-87252380D01*
X166208333Y-87252380D01*
X166065476Y-87300000D01*
X166017857Y-87347619D01*
X165065476Y-88252380D02*
X165636904Y-88252380D01*
X165351190Y-88252380D02*
X165351190Y-87252380D01*
X165446428Y-87395238D01*
X165541666Y-87490476D01*
X165636904Y-87538095D01*
X164732142Y-87252380D02*
X164113095Y-87252380D01*
X164446428Y-87633333D01*
X164303571Y-87633333D01*
X164208333Y-87680952D01*
X164160714Y-87728571D01*
X164113095Y-87823809D01*
X164113095Y-88061904D01*
X164160714Y-88157142D01*
X164208333Y-88204761D01*
X164303571Y-88252380D01*
X164589285Y-88252380D01*
X164684523Y-88204761D01*
X164732142Y-88157142D01*
X178092857Y-96657142D02*
X178140476Y-96704761D01*
X178283333Y-96752380D01*
X178378571Y-96752380D01*
X178521428Y-96704761D01*
X178616666Y-96609523D01*
X178664285Y-96514285D01*
X178711904Y-96323809D01*
X178711904Y-96180952D01*
X178664285Y-95990476D01*
X178616666Y-95895238D01*
X178521428Y-95800000D01*
X178378571Y-95752380D01*
X178283333Y-95752380D01*
X178140476Y-95800000D01*
X178092857Y-95847619D01*
X177140476Y-96752380D02*
X177711904Y-96752380D01*
X177426190Y-96752380D02*
X177426190Y-95752380D01*
X177521428Y-95895238D01*
X177616666Y-95990476D01*
X177711904Y-96038095D01*
X176759523Y-95847619D02*
X176711904Y-95800000D01*
X176616666Y-95752380D01*
X176378571Y-95752380D01*
X176283333Y-95800000D01*
X176235714Y-95847619D01*
X176188095Y-95942857D01*
X176188095Y-96038095D01*
X176235714Y-96180952D01*
X176807142Y-96752380D01*
X176188095Y-96752380D01*
X120336437Y-87979522D02*
X120384056Y-88027141D01*
X120526913Y-88074760D01*
X120622151Y-88074760D01*
X120765008Y-88027141D01*
X120860246Y-87931903D01*
X120907865Y-87836665D01*
X120955484Y-87646189D01*
X120955484Y-87503332D01*
X120907865Y-87312856D01*
X120860246Y-87217618D01*
X120765008Y-87122380D01*
X120622151Y-87074760D01*
X120526913Y-87074760D01*
X120384056Y-87122380D01*
X120336437Y-87169999D01*
X119384056Y-88074760D02*
X119955484Y-88074760D01*
X119669770Y-88074760D02*
X119669770Y-87074760D01*
X119765008Y-87217618D01*
X119860246Y-87312856D01*
X119955484Y-87360475D01*
X118431675Y-88074760D02*
X119003103Y-88074760D01*
X118717389Y-88074760D02*
X118717389Y-87074760D01*
X118812627Y-87217618D01*
X118907865Y-87312856D01*
X119003103Y-87360475D01*
X132035897Y-98694782D02*
X132083516Y-98742401D01*
X132226373Y-98790020D01*
X132321611Y-98790020D01*
X132464468Y-98742401D01*
X132559706Y-98647163D01*
X132607325Y-98551925D01*
X132654944Y-98361449D01*
X132654944Y-98218592D01*
X132607325Y-98028116D01*
X132559706Y-97932878D01*
X132464468Y-97837640D01*
X132321611Y-97790020D01*
X132226373Y-97790020D01*
X132083516Y-97837640D01*
X132035897Y-97885259D01*
X131083516Y-98790020D02*
X131654944Y-98790020D01*
X131369230Y-98790020D02*
X131369230Y-97790020D01*
X131464468Y-97932878D01*
X131559706Y-98028116D01*
X131654944Y-98075735D01*
X130464468Y-97790020D02*
X130369230Y-97790020D01*
X130273992Y-97837640D01*
X130226373Y-97885259D01*
X130178754Y-97980497D01*
X130131135Y-98170973D01*
X130131135Y-98409068D01*
X130178754Y-98599544D01*
X130226373Y-98694782D01*
X130273992Y-98742401D01*
X130369230Y-98790020D01*
X130464468Y-98790020D01*
X130559706Y-98742401D01*
X130607325Y-98694782D01*
X130654944Y-98599544D01*
X130702563Y-98409068D01*
X130702563Y-98170973D01*
X130654944Y-97980497D01*
X130607325Y-97885259D01*
X130559706Y-97837640D01*
X130464468Y-97790020D01*
X125175306Y-77796662D02*
X125222925Y-77844281D01*
X125365782Y-77891900D01*
X125461020Y-77891900D01*
X125603878Y-77844281D01*
X125699116Y-77749043D01*
X125746735Y-77653805D01*
X125794354Y-77463329D01*
X125794354Y-77320472D01*
X125746735Y-77129996D01*
X125699116Y-77034758D01*
X125603878Y-76939520D01*
X125461020Y-76891900D01*
X125365782Y-76891900D01*
X125222925Y-76939520D01*
X125175306Y-76987139D01*
X124699116Y-77891900D02*
X124508640Y-77891900D01*
X124413401Y-77844281D01*
X124365782Y-77796662D01*
X124270544Y-77653805D01*
X124222925Y-77463329D01*
X124222925Y-77082377D01*
X124270544Y-76987139D01*
X124318163Y-76939520D01*
X124413401Y-76891900D01*
X124603878Y-76891900D01*
X124699116Y-76939520D01*
X124746735Y-76987139D01*
X124794354Y-77082377D01*
X124794354Y-77320472D01*
X124746735Y-77415710D01*
X124699116Y-77463329D01*
X124603878Y-77510948D01*
X124413401Y-77510948D01*
X124318163Y-77463329D01*
X124270544Y-77415710D01*
X124222925Y-77320472D01*
X134710466Y-77730622D02*
X134758085Y-77778241D01*
X134900942Y-77825860D01*
X134996180Y-77825860D01*
X135139038Y-77778241D01*
X135234276Y-77683003D01*
X135281895Y-77587765D01*
X135329514Y-77397289D01*
X135329514Y-77254432D01*
X135281895Y-77063956D01*
X135234276Y-76968718D01*
X135139038Y-76873480D01*
X134996180Y-76825860D01*
X134900942Y-76825860D01*
X134758085Y-76873480D01*
X134710466Y-76921099D01*
X134139038Y-77254432D02*
X134234276Y-77206813D01*
X134281895Y-77159194D01*
X134329514Y-77063956D01*
X134329514Y-77016337D01*
X134281895Y-76921099D01*
X134234276Y-76873480D01*
X134139038Y-76825860D01*
X133948561Y-76825860D01*
X133853323Y-76873480D01*
X133805704Y-76921099D01*
X133758085Y-77016337D01*
X133758085Y-77063956D01*
X133805704Y-77159194D01*
X133853323Y-77206813D01*
X133948561Y-77254432D01*
X134139038Y-77254432D01*
X134234276Y-77302051D01*
X134281895Y-77349670D01*
X134329514Y-77444908D01*
X134329514Y-77635384D01*
X134281895Y-77730622D01*
X134234276Y-77778241D01*
X134139038Y-77825860D01*
X133948561Y-77825860D01*
X133853323Y-77778241D01*
X133805704Y-77730622D01*
X133758085Y-77635384D01*
X133758085Y-77444908D01*
X133805704Y-77349670D01*
X133853323Y-77302051D01*
X133948561Y-77254432D01*
X179084266Y-110161342D02*
X179131885Y-110208961D01*
X179274742Y-110256580D01*
X179369980Y-110256580D01*
X179512838Y-110208961D01*
X179608076Y-110113723D01*
X179655695Y-110018485D01*
X179703314Y-109828009D01*
X179703314Y-109685152D01*
X179655695Y-109494676D01*
X179608076Y-109399438D01*
X179512838Y-109304200D01*
X179369980Y-109256580D01*
X179274742Y-109256580D01*
X179131885Y-109304200D01*
X179084266Y-109351819D01*
X178750933Y-109256580D02*
X178084266Y-109256580D01*
X178512838Y-110256580D01*
X135802666Y-112320342D02*
X135850285Y-112367961D01*
X135993142Y-112415580D01*
X136088380Y-112415580D01*
X136231238Y-112367961D01*
X136326476Y-112272723D01*
X136374095Y-112177485D01*
X136421714Y-111987009D01*
X136421714Y-111844152D01*
X136374095Y-111653676D01*
X136326476Y-111558438D01*
X136231238Y-111463200D01*
X136088380Y-111415580D01*
X135993142Y-111415580D01*
X135850285Y-111463200D01*
X135802666Y-111510819D01*
X134945523Y-111415580D02*
X135136000Y-111415580D01*
X135231238Y-111463200D01*
X135278857Y-111510819D01*
X135374095Y-111653676D01*
X135421714Y-111844152D01*
X135421714Y-112225104D01*
X135374095Y-112320342D01*
X135326476Y-112367961D01*
X135231238Y-112415580D01*
X135040761Y-112415580D01*
X134945523Y-112367961D01*
X134897904Y-112320342D01*
X134850285Y-112225104D01*
X134850285Y-111987009D01*
X134897904Y-111891771D01*
X134945523Y-111844152D01*
X135040761Y-111796533D01*
X135231238Y-111796533D01*
X135326476Y-111844152D01*
X135374095Y-111891771D01*
X135421714Y-111987009D01*
X120308666Y-91797142D02*
X120356285Y-91844761D01*
X120499142Y-91892380D01*
X120594380Y-91892380D01*
X120737238Y-91844761D01*
X120832476Y-91749523D01*
X120880095Y-91654285D01*
X120927714Y-91463809D01*
X120927714Y-91320952D01*
X120880095Y-91130476D01*
X120832476Y-91035238D01*
X120737238Y-90940000D01*
X120594380Y-90892380D01*
X120499142Y-90892380D01*
X120356285Y-90940000D01*
X120308666Y-90987619D01*
X119403904Y-90892380D02*
X119880095Y-90892380D01*
X119927714Y-91368571D01*
X119880095Y-91320952D01*
X119784857Y-91273333D01*
X119546761Y-91273333D01*
X119451523Y-91320952D01*
X119403904Y-91368571D01*
X119356285Y-91463809D01*
X119356285Y-91701904D01*
X119403904Y-91797142D01*
X119451523Y-91844761D01*
X119546761Y-91892380D01*
X119784857Y-91892380D01*
X119880095Y-91844761D01*
X119927714Y-91797142D01*
X138850666Y-94337142D02*
X138898285Y-94384761D01*
X139041142Y-94432380D01*
X139136380Y-94432380D01*
X139279238Y-94384761D01*
X139374476Y-94289523D01*
X139422095Y-94194285D01*
X139469714Y-94003809D01*
X139469714Y-93860952D01*
X139422095Y-93670476D01*
X139374476Y-93575238D01*
X139279238Y-93480000D01*
X139136380Y-93432380D01*
X139041142Y-93432380D01*
X138898285Y-93480000D01*
X138850666Y-93527619D01*
X137993523Y-93765714D02*
X137993523Y-94432380D01*
X138231619Y-93384761D02*
X138469714Y-94099047D01*
X137850666Y-94099047D01*
X138850666Y-107037142D02*
X138898285Y-107084761D01*
X139041142Y-107132380D01*
X139136380Y-107132380D01*
X139279238Y-107084761D01*
X139374476Y-106989523D01*
X139422095Y-106894285D01*
X139469714Y-106703809D01*
X139469714Y-106560952D01*
X139422095Y-106370476D01*
X139374476Y-106275238D01*
X139279238Y-106180000D01*
X139136380Y-106132380D01*
X139041142Y-106132380D01*
X138898285Y-106180000D01*
X138850666Y-106227619D01*
X138517333Y-106132380D02*
X137898285Y-106132380D01*
X138231619Y-106513333D01*
X138088761Y-106513333D01*
X137993523Y-106560952D01*
X137945904Y-106608571D01*
X137898285Y-106703809D01*
X137898285Y-106941904D01*
X137945904Y-107037142D01*
X137993523Y-107084761D01*
X138088761Y-107132380D01*
X138374476Y-107132380D01*
X138469714Y-107084761D01*
X138517333Y-107037142D01*
X138088666Y-61317142D02*
X138136285Y-61364761D01*
X138279142Y-61412380D01*
X138374380Y-61412380D01*
X138517238Y-61364761D01*
X138612476Y-61269523D01*
X138660095Y-61174285D01*
X138707714Y-60983809D01*
X138707714Y-60840952D01*
X138660095Y-60650476D01*
X138612476Y-60555238D01*
X138517238Y-60460000D01*
X138374380Y-60412380D01*
X138279142Y-60412380D01*
X138136285Y-60460000D01*
X138088666Y-60507619D01*
X137707714Y-60507619D02*
X137660095Y-60460000D01*
X137564857Y-60412380D01*
X137326761Y-60412380D01*
X137231523Y-60460000D01*
X137183904Y-60507619D01*
X137136285Y-60602857D01*
X137136285Y-60698095D01*
X137183904Y-60840952D01*
X137755333Y-61412380D01*
X137136285Y-61412380D01*
X133770666Y-142343142D02*
X133818285Y-142390761D01*
X133961142Y-142438380D01*
X134056380Y-142438380D01*
X134199238Y-142390761D01*
X134294476Y-142295523D01*
X134342095Y-142200285D01*
X134389714Y-142009809D01*
X134389714Y-141866952D01*
X134342095Y-141676476D01*
X134294476Y-141581238D01*
X134199238Y-141486000D01*
X134056380Y-141438380D01*
X133961142Y-141438380D01*
X133818285Y-141486000D01*
X133770666Y-141533619D01*
X132818285Y-142438380D02*
X133389714Y-142438380D01*
X133104000Y-142438380D02*
X133104000Y-141438380D01*
X133199238Y-141581238D01*
X133294476Y-141676476D01*
X133389714Y-141724095D01*
X179403333Y-58082380D02*
X179403333Y-58796666D01*
X179450952Y-58939523D01*
X179546190Y-59034761D01*
X179689047Y-59082380D01*
X179784285Y-59082380D01*
X179022380Y-58082380D02*
X178403333Y-58082380D01*
X178736666Y-58463333D01*
X178593809Y-58463333D01*
X178498571Y-58510952D01*
X178450952Y-58558571D01*
X178403333Y-58653809D01*
X178403333Y-58891904D01*
X178450952Y-58987142D01*
X178498571Y-59034761D01*
X178593809Y-59082380D01*
X178879523Y-59082380D01*
X178974761Y-59034761D01*
X179022380Y-58987142D01*
X163103333Y-146772380D02*
X163103333Y-147486666D01*
X163150952Y-147629523D01*
X163246190Y-147724761D01*
X163389047Y-147772380D01*
X163484285Y-147772380D01*
X162674761Y-146867619D02*
X162627142Y-146820000D01*
X162531904Y-146772380D01*
X162293809Y-146772380D01*
X162198571Y-146820000D01*
X162150952Y-146867619D01*
X162103333Y-146962857D01*
X162103333Y-147058095D01*
X162150952Y-147200952D01*
X162722380Y-147772380D01*
X162103333Y-147772380D01*
X119923333Y-146772380D02*
X119923333Y-147486666D01*
X119970952Y-147629523D01*
X120066190Y-147724761D01*
X120209047Y-147772380D01*
X120304285Y-147772380D01*
X118923333Y-147772380D02*
X119494761Y-147772380D01*
X119209047Y-147772380D02*
X119209047Y-146772380D01*
X119304285Y-146915238D01*
X119399523Y-147010476D01*
X119494761Y-147058095D01*
M02*
