G04 #@! TF.GenerationSoftware,KiCad,Pcbnew,5.1.6-c6e7f7d~86~ubuntu18.04.1*
G04 #@! TF.CreationDate,2020-06-20T10:00:21-04:00*
G04 #@! TF.ProjectId,slope_generators,736c6f70-655f-4676-956e-657261746f72,rev?*
G04 #@! TF.SameCoordinates,Original*
G04 #@! TF.FileFunction,Paste,Bot*
G04 #@! TF.FilePolarity,Positive*
%FSLAX46Y46*%
G04 Gerber Fmt 4.6, Leading zero omitted, Abs format (unit mm)*
G04 Created by KiCad (PCBNEW 5.1.6-c6e7f7d~86~ubuntu18.04.1) date 2020-06-20 10:00:21*
%MOMM*%
%LPD*%
G01*
G04 APERTURE LIST*
%ADD10R,1.900000X0.800000*%
%ADD11R,0.900000X1.200000*%
G04 APERTURE END LIST*
G36*
G01*
X173458000Y-106830000D02*
X173458000Y-106530000D01*
G75*
G02*
X173608000Y-106380000I150000J0D01*
G01*
X175258000Y-106380000D01*
G75*
G02*
X175408000Y-106530000I0J-150000D01*
G01*
X175408000Y-106830000D01*
G75*
G02*
X175258000Y-106980000I-150000J0D01*
G01*
X173608000Y-106980000D01*
G75*
G02*
X173458000Y-106830000I0J150000D01*
G01*
G37*
G36*
G01*
X173458000Y-105560000D02*
X173458000Y-105260000D01*
G75*
G02*
X173608000Y-105110000I150000J0D01*
G01*
X175258000Y-105110000D01*
G75*
G02*
X175408000Y-105260000I0J-150000D01*
G01*
X175408000Y-105560000D01*
G75*
G02*
X175258000Y-105710000I-150000J0D01*
G01*
X173608000Y-105710000D01*
G75*
G02*
X173458000Y-105560000I0J150000D01*
G01*
G37*
G36*
G01*
X173458000Y-104290000D02*
X173458000Y-103990000D01*
G75*
G02*
X173608000Y-103840000I150000J0D01*
G01*
X175258000Y-103840000D01*
G75*
G02*
X175408000Y-103990000I0J-150000D01*
G01*
X175408000Y-104290000D01*
G75*
G02*
X175258000Y-104440000I-150000J0D01*
G01*
X173608000Y-104440000D01*
G75*
G02*
X173458000Y-104290000I0J150000D01*
G01*
G37*
G36*
G01*
X173458000Y-103020000D02*
X173458000Y-102720000D01*
G75*
G02*
X173608000Y-102570000I150000J0D01*
G01*
X175258000Y-102570000D01*
G75*
G02*
X175408000Y-102720000I0J-150000D01*
G01*
X175408000Y-103020000D01*
G75*
G02*
X175258000Y-103170000I-150000J0D01*
G01*
X173608000Y-103170000D01*
G75*
G02*
X173458000Y-103020000I0J150000D01*
G01*
G37*
G36*
G01*
X173458000Y-101750000D02*
X173458000Y-101450000D01*
G75*
G02*
X173608000Y-101300000I150000J0D01*
G01*
X175258000Y-101300000D01*
G75*
G02*
X175408000Y-101450000I0J-150000D01*
G01*
X175408000Y-101750000D01*
G75*
G02*
X175258000Y-101900000I-150000J0D01*
G01*
X173608000Y-101900000D01*
G75*
G02*
X173458000Y-101750000I0J150000D01*
G01*
G37*
G36*
G01*
X173458000Y-100480000D02*
X173458000Y-100180000D01*
G75*
G02*
X173608000Y-100030000I150000J0D01*
G01*
X175258000Y-100030000D01*
G75*
G02*
X175408000Y-100180000I0J-150000D01*
G01*
X175408000Y-100480000D01*
G75*
G02*
X175258000Y-100630000I-150000J0D01*
G01*
X173608000Y-100630000D01*
G75*
G02*
X173458000Y-100480000I0J150000D01*
G01*
G37*
G36*
G01*
X173458000Y-99210000D02*
X173458000Y-98910000D01*
G75*
G02*
X173608000Y-98760000I150000J0D01*
G01*
X175258000Y-98760000D01*
G75*
G02*
X175408000Y-98910000I0J-150000D01*
G01*
X175408000Y-99210000D01*
G75*
G02*
X175258000Y-99360000I-150000J0D01*
G01*
X173608000Y-99360000D01*
G75*
G02*
X173458000Y-99210000I0J150000D01*
G01*
G37*
G36*
G01*
X168508000Y-99210000D02*
X168508000Y-98910000D01*
G75*
G02*
X168658000Y-98760000I150000J0D01*
G01*
X170308000Y-98760000D01*
G75*
G02*
X170458000Y-98910000I0J-150000D01*
G01*
X170458000Y-99210000D01*
G75*
G02*
X170308000Y-99360000I-150000J0D01*
G01*
X168658000Y-99360000D01*
G75*
G02*
X168508000Y-99210000I0J150000D01*
G01*
G37*
G36*
G01*
X168508000Y-100480000D02*
X168508000Y-100180000D01*
G75*
G02*
X168658000Y-100030000I150000J0D01*
G01*
X170308000Y-100030000D01*
G75*
G02*
X170458000Y-100180000I0J-150000D01*
G01*
X170458000Y-100480000D01*
G75*
G02*
X170308000Y-100630000I-150000J0D01*
G01*
X168658000Y-100630000D01*
G75*
G02*
X168508000Y-100480000I0J150000D01*
G01*
G37*
G36*
G01*
X168508000Y-101750000D02*
X168508000Y-101450000D01*
G75*
G02*
X168658000Y-101300000I150000J0D01*
G01*
X170308000Y-101300000D01*
G75*
G02*
X170458000Y-101450000I0J-150000D01*
G01*
X170458000Y-101750000D01*
G75*
G02*
X170308000Y-101900000I-150000J0D01*
G01*
X168658000Y-101900000D01*
G75*
G02*
X168508000Y-101750000I0J150000D01*
G01*
G37*
G36*
G01*
X168508000Y-103020000D02*
X168508000Y-102720000D01*
G75*
G02*
X168658000Y-102570000I150000J0D01*
G01*
X170308000Y-102570000D01*
G75*
G02*
X170458000Y-102720000I0J-150000D01*
G01*
X170458000Y-103020000D01*
G75*
G02*
X170308000Y-103170000I-150000J0D01*
G01*
X168658000Y-103170000D01*
G75*
G02*
X168508000Y-103020000I0J150000D01*
G01*
G37*
G36*
G01*
X168508000Y-104290000D02*
X168508000Y-103990000D01*
G75*
G02*
X168658000Y-103840000I150000J0D01*
G01*
X170308000Y-103840000D01*
G75*
G02*
X170458000Y-103990000I0J-150000D01*
G01*
X170458000Y-104290000D01*
G75*
G02*
X170308000Y-104440000I-150000J0D01*
G01*
X168658000Y-104440000D01*
G75*
G02*
X168508000Y-104290000I0J150000D01*
G01*
G37*
G36*
G01*
X168508000Y-105560000D02*
X168508000Y-105260000D01*
G75*
G02*
X168658000Y-105110000I150000J0D01*
G01*
X170308000Y-105110000D01*
G75*
G02*
X170458000Y-105260000I0J-150000D01*
G01*
X170458000Y-105560000D01*
G75*
G02*
X170308000Y-105710000I-150000J0D01*
G01*
X168658000Y-105710000D01*
G75*
G02*
X168508000Y-105560000I0J150000D01*
G01*
G37*
G36*
G01*
X168508000Y-106830000D02*
X168508000Y-106530000D01*
G75*
G02*
X168658000Y-106380000I150000J0D01*
G01*
X170308000Y-106380000D01*
G75*
G02*
X170458000Y-106530000I0J-150000D01*
G01*
X170458000Y-106830000D01*
G75*
G02*
X170308000Y-106980000I-150000J0D01*
G01*
X168658000Y-106980000D01*
G75*
G02*
X168508000Y-106830000I0J150000D01*
G01*
G37*
G36*
G01*
X173458000Y-93495000D02*
X173458000Y-93195000D01*
G75*
G02*
X173608000Y-93045000I150000J0D01*
G01*
X175258000Y-93045000D01*
G75*
G02*
X175408000Y-93195000I0J-150000D01*
G01*
X175408000Y-93495000D01*
G75*
G02*
X175258000Y-93645000I-150000J0D01*
G01*
X173608000Y-93645000D01*
G75*
G02*
X173458000Y-93495000I0J150000D01*
G01*
G37*
G36*
G01*
X173458000Y-92225000D02*
X173458000Y-91925000D01*
G75*
G02*
X173608000Y-91775000I150000J0D01*
G01*
X175258000Y-91775000D01*
G75*
G02*
X175408000Y-91925000I0J-150000D01*
G01*
X175408000Y-92225000D01*
G75*
G02*
X175258000Y-92375000I-150000J0D01*
G01*
X173608000Y-92375000D01*
G75*
G02*
X173458000Y-92225000I0J150000D01*
G01*
G37*
G36*
G01*
X173458000Y-90955000D02*
X173458000Y-90655000D01*
G75*
G02*
X173608000Y-90505000I150000J0D01*
G01*
X175258000Y-90505000D01*
G75*
G02*
X175408000Y-90655000I0J-150000D01*
G01*
X175408000Y-90955000D01*
G75*
G02*
X175258000Y-91105000I-150000J0D01*
G01*
X173608000Y-91105000D01*
G75*
G02*
X173458000Y-90955000I0J150000D01*
G01*
G37*
G36*
G01*
X173458000Y-89685000D02*
X173458000Y-89385000D01*
G75*
G02*
X173608000Y-89235000I150000J0D01*
G01*
X175258000Y-89235000D01*
G75*
G02*
X175408000Y-89385000I0J-150000D01*
G01*
X175408000Y-89685000D01*
G75*
G02*
X175258000Y-89835000I-150000J0D01*
G01*
X173608000Y-89835000D01*
G75*
G02*
X173458000Y-89685000I0J150000D01*
G01*
G37*
G36*
G01*
X168508000Y-89685000D02*
X168508000Y-89385000D01*
G75*
G02*
X168658000Y-89235000I150000J0D01*
G01*
X170308000Y-89235000D01*
G75*
G02*
X170458000Y-89385000I0J-150000D01*
G01*
X170458000Y-89685000D01*
G75*
G02*
X170308000Y-89835000I-150000J0D01*
G01*
X168658000Y-89835000D01*
G75*
G02*
X168508000Y-89685000I0J150000D01*
G01*
G37*
G36*
G01*
X168508000Y-90955000D02*
X168508000Y-90655000D01*
G75*
G02*
X168658000Y-90505000I150000J0D01*
G01*
X170308000Y-90505000D01*
G75*
G02*
X170458000Y-90655000I0J-150000D01*
G01*
X170458000Y-90955000D01*
G75*
G02*
X170308000Y-91105000I-150000J0D01*
G01*
X168658000Y-91105000D01*
G75*
G02*
X168508000Y-90955000I0J150000D01*
G01*
G37*
G36*
G01*
X168508000Y-92225000D02*
X168508000Y-91925000D01*
G75*
G02*
X168658000Y-91775000I150000J0D01*
G01*
X170308000Y-91775000D01*
G75*
G02*
X170458000Y-91925000I0J-150000D01*
G01*
X170458000Y-92225000D01*
G75*
G02*
X170308000Y-92375000I-150000J0D01*
G01*
X168658000Y-92375000D01*
G75*
G02*
X168508000Y-92225000I0J150000D01*
G01*
G37*
G36*
G01*
X168508000Y-93495000D02*
X168508000Y-93195000D01*
G75*
G02*
X168658000Y-93045000I150000J0D01*
G01*
X170308000Y-93045000D01*
G75*
G02*
X170458000Y-93195000I0J-150000D01*
G01*
X170458000Y-93495000D01*
G75*
G02*
X170308000Y-93645000I-150000J0D01*
G01*
X168658000Y-93645000D01*
G75*
G02*
X168508000Y-93495000I0J150000D01*
G01*
G37*
G36*
G01*
X173458000Y-85875000D02*
X173458000Y-85575000D01*
G75*
G02*
X173608000Y-85425000I150000J0D01*
G01*
X175258000Y-85425000D01*
G75*
G02*
X175408000Y-85575000I0J-150000D01*
G01*
X175408000Y-85875000D01*
G75*
G02*
X175258000Y-86025000I-150000J0D01*
G01*
X173608000Y-86025000D01*
G75*
G02*
X173458000Y-85875000I0J150000D01*
G01*
G37*
G36*
G01*
X173458000Y-84605000D02*
X173458000Y-84305000D01*
G75*
G02*
X173608000Y-84155000I150000J0D01*
G01*
X175258000Y-84155000D01*
G75*
G02*
X175408000Y-84305000I0J-150000D01*
G01*
X175408000Y-84605000D01*
G75*
G02*
X175258000Y-84755000I-150000J0D01*
G01*
X173608000Y-84755000D01*
G75*
G02*
X173458000Y-84605000I0J150000D01*
G01*
G37*
G36*
G01*
X173458000Y-83335000D02*
X173458000Y-83035000D01*
G75*
G02*
X173608000Y-82885000I150000J0D01*
G01*
X175258000Y-82885000D01*
G75*
G02*
X175408000Y-83035000I0J-150000D01*
G01*
X175408000Y-83335000D01*
G75*
G02*
X175258000Y-83485000I-150000J0D01*
G01*
X173608000Y-83485000D01*
G75*
G02*
X173458000Y-83335000I0J150000D01*
G01*
G37*
G36*
G01*
X173458000Y-82065000D02*
X173458000Y-81765000D01*
G75*
G02*
X173608000Y-81615000I150000J0D01*
G01*
X175258000Y-81615000D01*
G75*
G02*
X175408000Y-81765000I0J-150000D01*
G01*
X175408000Y-82065000D01*
G75*
G02*
X175258000Y-82215000I-150000J0D01*
G01*
X173608000Y-82215000D01*
G75*
G02*
X173458000Y-82065000I0J150000D01*
G01*
G37*
G36*
G01*
X168508000Y-82065000D02*
X168508000Y-81765000D01*
G75*
G02*
X168658000Y-81615000I150000J0D01*
G01*
X170308000Y-81615000D01*
G75*
G02*
X170458000Y-81765000I0J-150000D01*
G01*
X170458000Y-82065000D01*
G75*
G02*
X170308000Y-82215000I-150000J0D01*
G01*
X168658000Y-82215000D01*
G75*
G02*
X168508000Y-82065000I0J150000D01*
G01*
G37*
G36*
G01*
X168508000Y-83335000D02*
X168508000Y-83035000D01*
G75*
G02*
X168658000Y-82885000I150000J0D01*
G01*
X170308000Y-82885000D01*
G75*
G02*
X170458000Y-83035000I0J-150000D01*
G01*
X170458000Y-83335000D01*
G75*
G02*
X170308000Y-83485000I-150000J0D01*
G01*
X168658000Y-83485000D01*
G75*
G02*
X168508000Y-83335000I0J150000D01*
G01*
G37*
G36*
G01*
X168508000Y-84605000D02*
X168508000Y-84305000D01*
G75*
G02*
X168658000Y-84155000I150000J0D01*
G01*
X170308000Y-84155000D01*
G75*
G02*
X170458000Y-84305000I0J-150000D01*
G01*
X170458000Y-84605000D01*
G75*
G02*
X170308000Y-84755000I-150000J0D01*
G01*
X168658000Y-84755000D01*
G75*
G02*
X168508000Y-84605000I0J150000D01*
G01*
G37*
G36*
G01*
X168508000Y-85875000D02*
X168508000Y-85575000D01*
G75*
G02*
X168658000Y-85425000I150000J0D01*
G01*
X170308000Y-85425000D01*
G75*
G02*
X170458000Y-85575000I0J-150000D01*
G01*
X170458000Y-85875000D01*
G75*
G02*
X170308000Y-86025000I-150000J0D01*
G01*
X168658000Y-86025000D01*
G75*
G02*
X168508000Y-85875000I0J150000D01*
G01*
G37*
G36*
G01*
X130975000Y-109370000D02*
X130975000Y-109070000D01*
G75*
G02*
X131125000Y-108920000I150000J0D01*
G01*
X132775000Y-108920000D01*
G75*
G02*
X132925000Y-109070000I0J-150000D01*
G01*
X132925000Y-109370000D01*
G75*
G02*
X132775000Y-109520000I-150000J0D01*
G01*
X131125000Y-109520000D01*
G75*
G02*
X130975000Y-109370000I0J150000D01*
G01*
G37*
G36*
G01*
X130975000Y-108100000D02*
X130975000Y-107800000D01*
G75*
G02*
X131125000Y-107650000I150000J0D01*
G01*
X132775000Y-107650000D01*
G75*
G02*
X132925000Y-107800000I0J-150000D01*
G01*
X132925000Y-108100000D01*
G75*
G02*
X132775000Y-108250000I-150000J0D01*
G01*
X131125000Y-108250000D01*
G75*
G02*
X130975000Y-108100000I0J150000D01*
G01*
G37*
G36*
G01*
X130975000Y-106830000D02*
X130975000Y-106530000D01*
G75*
G02*
X131125000Y-106380000I150000J0D01*
G01*
X132775000Y-106380000D01*
G75*
G02*
X132925000Y-106530000I0J-150000D01*
G01*
X132925000Y-106830000D01*
G75*
G02*
X132775000Y-106980000I-150000J0D01*
G01*
X131125000Y-106980000D01*
G75*
G02*
X130975000Y-106830000I0J150000D01*
G01*
G37*
G36*
G01*
X130975000Y-105560000D02*
X130975000Y-105260000D01*
G75*
G02*
X131125000Y-105110000I150000J0D01*
G01*
X132775000Y-105110000D01*
G75*
G02*
X132925000Y-105260000I0J-150000D01*
G01*
X132925000Y-105560000D01*
G75*
G02*
X132775000Y-105710000I-150000J0D01*
G01*
X131125000Y-105710000D01*
G75*
G02*
X130975000Y-105560000I0J150000D01*
G01*
G37*
G36*
G01*
X130975000Y-104290000D02*
X130975000Y-103990000D01*
G75*
G02*
X131125000Y-103840000I150000J0D01*
G01*
X132775000Y-103840000D01*
G75*
G02*
X132925000Y-103990000I0J-150000D01*
G01*
X132925000Y-104290000D01*
G75*
G02*
X132775000Y-104440000I-150000J0D01*
G01*
X131125000Y-104440000D01*
G75*
G02*
X130975000Y-104290000I0J150000D01*
G01*
G37*
G36*
G01*
X130975000Y-103020000D02*
X130975000Y-102720000D01*
G75*
G02*
X131125000Y-102570000I150000J0D01*
G01*
X132775000Y-102570000D01*
G75*
G02*
X132925000Y-102720000I0J-150000D01*
G01*
X132925000Y-103020000D01*
G75*
G02*
X132775000Y-103170000I-150000J0D01*
G01*
X131125000Y-103170000D01*
G75*
G02*
X130975000Y-103020000I0J150000D01*
G01*
G37*
G36*
G01*
X130975000Y-101750000D02*
X130975000Y-101450000D01*
G75*
G02*
X131125000Y-101300000I150000J0D01*
G01*
X132775000Y-101300000D01*
G75*
G02*
X132925000Y-101450000I0J-150000D01*
G01*
X132925000Y-101750000D01*
G75*
G02*
X132775000Y-101900000I-150000J0D01*
G01*
X131125000Y-101900000D01*
G75*
G02*
X130975000Y-101750000I0J150000D01*
G01*
G37*
G36*
G01*
X126025000Y-101750000D02*
X126025000Y-101450000D01*
G75*
G02*
X126175000Y-101300000I150000J0D01*
G01*
X127825000Y-101300000D01*
G75*
G02*
X127975000Y-101450000I0J-150000D01*
G01*
X127975000Y-101750000D01*
G75*
G02*
X127825000Y-101900000I-150000J0D01*
G01*
X126175000Y-101900000D01*
G75*
G02*
X126025000Y-101750000I0J150000D01*
G01*
G37*
G36*
G01*
X126025000Y-103020000D02*
X126025000Y-102720000D01*
G75*
G02*
X126175000Y-102570000I150000J0D01*
G01*
X127825000Y-102570000D01*
G75*
G02*
X127975000Y-102720000I0J-150000D01*
G01*
X127975000Y-103020000D01*
G75*
G02*
X127825000Y-103170000I-150000J0D01*
G01*
X126175000Y-103170000D01*
G75*
G02*
X126025000Y-103020000I0J150000D01*
G01*
G37*
G36*
G01*
X126025000Y-104290000D02*
X126025000Y-103990000D01*
G75*
G02*
X126175000Y-103840000I150000J0D01*
G01*
X127825000Y-103840000D01*
G75*
G02*
X127975000Y-103990000I0J-150000D01*
G01*
X127975000Y-104290000D01*
G75*
G02*
X127825000Y-104440000I-150000J0D01*
G01*
X126175000Y-104440000D01*
G75*
G02*
X126025000Y-104290000I0J150000D01*
G01*
G37*
G36*
G01*
X126025000Y-105560000D02*
X126025000Y-105260000D01*
G75*
G02*
X126175000Y-105110000I150000J0D01*
G01*
X127825000Y-105110000D01*
G75*
G02*
X127975000Y-105260000I0J-150000D01*
G01*
X127975000Y-105560000D01*
G75*
G02*
X127825000Y-105710000I-150000J0D01*
G01*
X126175000Y-105710000D01*
G75*
G02*
X126025000Y-105560000I0J150000D01*
G01*
G37*
G36*
G01*
X126025000Y-106830000D02*
X126025000Y-106530000D01*
G75*
G02*
X126175000Y-106380000I150000J0D01*
G01*
X127825000Y-106380000D01*
G75*
G02*
X127975000Y-106530000I0J-150000D01*
G01*
X127975000Y-106830000D01*
G75*
G02*
X127825000Y-106980000I-150000J0D01*
G01*
X126175000Y-106980000D01*
G75*
G02*
X126025000Y-106830000I0J150000D01*
G01*
G37*
G36*
G01*
X126025000Y-108100000D02*
X126025000Y-107800000D01*
G75*
G02*
X126175000Y-107650000I150000J0D01*
G01*
X127825000Y-107650000D01*
G75*
G02*
X127975000Y-107800000I0J-150000D01*
G01*
X127975000Y-108100000D01*
G75*
G02*
X127825000Y-108250000I-150000J0D01*
G01*
X126175000Y-108250000D01*
G75*
G02*
X126025000Y-108100000I0J150000D01*
G01*
G37*
G36*
G01*
X126025000Y-109370000D02*
X126025000Y-109070000D01*
G75*
G02*
X126175000Y-108920000I150000J0D01*
G01*
X127825000Y-108920000D01*
G75*
G02*
X127975000Y-109070000I0J-150000D01*
G01*
X127975000Y-109370000D01*
G75*
G02*
X127825000Y-109520000I-150000J0D01*
G01*
X126175000Y-109520000D01*
G75*
G02*
X126025000Y-109370000I0J150000D01*
G01*
G37*
G36*
G01*
X130975000Y-93495000D02*
X130975000Y-93195000D01*
G75*
G02*
X131125000Y-93045000I150000J0D01*
G01*
X132775000Y-93045000D01*
G75*
G02*
X132925000Y-93195000I0J-150000D01*
G01*
X132925000Y-93495000D01*
G75*
G02*
X132775000Y-93645000I-150000J0D01*
G01*
X131125000Y-93645000D01*
G75*
G02*
X130975000Y-93495000I0J150000D01*
G01*
G37*
G36*
G01*
X130975000Y-92225000D02*
X130975000Y-91925000D01*
G75*
G02*
X131125000Y-91775000I150000J0D01*
G01*
X132775000Y-91775000D01*
G75*
G02*
X132925000Y-91925000I0J-150000D01*
G01*
X132925000Y-92225000D01*
G75*
G02*
X132775000Y-92375000I-150000J0D01*
G01*
X131125000Y-92375000D01*
G75*
G02*
X130975000Y-92225000I0J150000D01*
G01*
G37*
G36*
G01*
X130975000Y-90955000D02*
X130975000Y-90655000D01*
G75*
G02*
X131125000Y-90505000I150000J0D01*
G01*
X132775000Y-90505000D01*
G75*
G02*
X132925000Y-90655000I0J-150000D01*
G01*
X132925000Y-90955000D01*
G75*
G02*
X132775000Y-91105000I-150000J0D01*
G01*
X131125000Y-91105000D01*
G75*
G02*
X130975000Y-90955000I0J150000D01*
G01*
G37*
G36*
G01*
X130975000Y-89685000D02*
X130975000Y-89385000D01*
G75*
G02*
X131125000Y-89235000I150000J0D01*
G01*
X132775000Y-89235000D01*
G75*
G02*
X132925000Y-89385000I0J-150000D01*
G01*
X132925000Y-89685000D01*
G75*
G02*
X132775000Y-89835000I-150000J0D01*
G01*
X131125000Y-89835000D01*
G75*
G02*
X130975000Y-89685000I0J150000D01*
G01*
G37*
G36*
G01*
X126025000Y-89685000D02*
X126025000Y-89385000D01*
G75*
G02*
X126175000Y-89235000I150000J0D01*
G01*
X127825000Y-89235000D01*
G75*
G02*
X127975000Y-89385000I0J-150000D01*
G01*
X127975000Y-89685000D01*
G75*
G02*
X127825000Y-89835000I-150000J0D01*
G01*
X126175000Y-89835000D01*
G75*
G02*
X126025000Y-89685000I0J150000D01*
G01*
G37*
G36*
G01*
X126025000Y-90955000D02*
X126025000Y-90655000D01*
G75*
G02*
X126175000Y-90505000I150000J0D01*
G01*
X127825000Y-90505000D01*
G75*
G02*
X127975000Y-90655000I0J-150000D01*
G01*
X127975000Y-90955000D01*
G75*
G02*
X127825000Y-91105000I-150000J0D01*
G01*
X126175000Y-91105000D01*
G75*
G02*
X126025000Y-90955000I0J150000D01*
G01*
G37*
G36*
G01*
X126025000Y-92225000D02*
X126025000Y-91925000D01*
G75*
G02*
X126175000Y-91775000I150000J0D01*
G01*
X127825000Y-91775000D01*
G75*
G02*
X127975000Y-91925000I0J-150000D01*
G01*
X127975000Y-92225000D01*
G75*
G02*
X127825000Y-92375000I-150000J0D01*
G01*
X126175000Y-92375000D01*
G75*
G02*
X126025000Y-92225000I0J150000D01*
G01*
G37*
G36*
G01*
X126025000Y-93495000D02*
X126025000Y-93195000D01*
G75*
G02*
X126175000Y-93045000I150000J0D01*
G01*
X127825000Y-93045000D01*
G75*
G02*
X127975000Y-93195000I0J-150000D01*
G01*
X127975000Y-93495000D01*
G75*
G02*
X127825000Y-93645000I-150000J0D01*
G01*
X126175000Y-93645000D01*
G75*
G02*
X126025000Y-93495000I0J150000D01*
G01*
G37*
G36*
G01*
X131040000Y-85875000D02*
X131040000Y-85575000D01*
G75*
G02*
X131190000Y-85425000I150000J0D01*
G01*
X132840000Y-85425000D01*
G75*
G02*
X132990000Y-85575000I0J-150000D01*
G01*
X132990000Y-85875000D01*
G75*
G02*
X132840000Y-86025000I-150000J0D01*
G01*
X131190000Y-86025000D01*
G75*
G02*
X131040000Y-85875000I0J150000D01*
G01*
G37*
G36*
G01*
X131040000Y-84605000D02*
X131040000Y-84305000D01*
G75*
G02*
X131190000Y-84155000I150000J0D01*
G01*
X132840000Y-84155000D01*
G75*
G02*
X132990000Y-84305000I0J-150000D01*
G01*
X132990000Y-84605000D01*
G75*
G02*
X132840000Y-84755000I-150000J0D01*
G01*
X131190000Y-84755000D01*
G75*
G02*
X131040000Y-84605000I0J150000D01*
G01*
G37*
G36*
G01*
X131040000Y-83335000D02*
X131040000Y-83035000D01*
G75*
G02*
X131190000Y-82885000I150000J0D01*
G01*
X132840000Y-82885000D01*
G75*
G02*
X132990000Y-83035000I0J-150000D01*
G01*
X132990000Y-83335000D01*
G75*
G02*
X132840000Y-83485000I-150000J0D01*
G01*
X131190000Y-83485000D01*
G75*
G02*
X131040000Y-83335000I0J150000D01*
G01*
G37*
G36*
G01*
X131040000Y-82065000D02*
X131040000Y-81765000D01*
G75*
G02*
X131190000Y-81615000I150000J0D01*
G01*
X132840000Y-81615000D01*
G75*
G02*
X132990000Y-81765000I0J-150000D01*
G01*
X132990000Y-82065000D01*
G75*
G02*
X132840000Y-82215000I-150000J0D01*
G01*
X131190000Y-82215000D01*
G75*
G02*
X131040000Y-82065000I0J150000D01*
G01*
G37*
G36*
G01*
X126090000Y-82065000D02*
X126090000Y-81765000D01*
G75*
G02*
X126240000Y-81615000I150000J0D01*
G01*
X127890000Y-81615000D01*
G75*
G02*
X128040000Y-81765000I0J-150000D01*
G01*
X128040000Y-82065000D01*
G75*
G02*
X127890000Y-82215000I-150000J0D01*
G01*
X126240000Y-82215000D01*
G75*
G02*
X126090000Y-82065000I0J150000D01*
G01*
G37*
G36*
G01*
X126090000Y-83335000D02*
X126090000Y-83035000D01*
G75*
G02*
X126240000Y-82885000I150000J0D01*
G01*
X127890000Y-82885000D01*
G75*
G02*
X128040000Y-83035000I0J-150000D01*
G01*
X128040000Y-83335000D01*
G75*
G02*
X127890000Y-83485000I-150000J0D01*
G01*
X126240000Y-83485000D01*
G75*
G02*
X126090000Y-83335000I0J150000D01*
G01*
G37*
G36*
G01*
X126090000Y-84605000D02*
X126090000Y-84305000D01*
G75*
G02*
X126240000Y-84155000I150000J0D01*
G01*
X127890000Y-84155000D01*
G75*
G02*
X128040000Y-84305000I0J-150000D01*
G01*
X128040000Y-84605000D01*
G75*
G02*
X127890000Y-84755000I-150000J0D01*
G01*
X126240000Y-84755000D01*
G75*
G02*
X126090000Y-84605000I0J150000D01*
G01*
G37*
G36*
G01*
X126090000Y-85875000D02*
X126090000Y-85575000D01*
G75*
G02*
X126240000Y-85425000I150000J0D01*
G01*
X127890000Y-85425000D01*
G75*
G02*
X128040000Y-85575000I0J-150000D01*
G01*
X128040000Y-85875000D01*
G75*
G02*
X127890000Y-86025000I-150000J0D01*
G01*
X126240000Y-86025000D01*
G75*
G02*
X126090000Y-85875000I0J150000D01*
G01*
G37*
G36*
G01*
X195699800Y-82060201D02*
X195699800Y-81160199D01*
G75*
G02*
X195949799Y-80910200I249999J0D01*
G01*
X196599801Y-80910200D01*
G75*
G02*
X196849800Y-81160199I0J-249999D01*
G01*
X196849800Y-82060201D01*
G75*
G02*
X196599801Y-82310200I-249999J0D01*
G01*
X195949799Y-82310200D01*
G75*
G02*
X195699800Y-82060201I0J249999D01*
G01*
G37*
G36*
G01*
X193649800Y-82060201D02*
X193649800Y-81160199D01*
G75*
G02*
X193899799Y-80910200I249999J0D01*
G01*
X194549801Y-80910200D01*
G75*
G02*
X194799800Y-81160199I0J-249999D01*
G01*
X194799800Y-82060201D01*
G75*
G02*
X194549801Y-82310200I-249999J0D01*
G01*
X193899799Y-82310200D01*
G75*
G02*
X193649800Y-82060201I0J249999D01*
G01*
G37*
G36*
G01*
X190599800Y-81160199D02*
X190599800Y-82060201D01*
G75*
G02*
X190349801Y-82310200I-249999J0D01*
G01*
X189699799Y-82310200D01*
G75*
G02*
X189449800Y-82060201I0J249999D01*
G01*
X189449800Y-81160199D01*
G75*
G02*
X189699799Y-80910200I249999J0D01*
G01*
X190349801Y-80910200D01*
G75*
G02*
X190599800Y-81160199I0J-249999D01*
G01*
G37*
G36*
G01*
X192649800Y-81160199D02*
X192649800Y-82060201D01*
G75*
G02*
X192399801Y-82310200I-249999J0D01*
G01*
X191749799Y-82310200D01*
G75*
G02*
X191499800Y-82060201I0J249999D01*
G01*
X191499800Y-81160199D01*
G75*
G02*
X191749799Y-80910200I249999J0D01*
G01*
X192399801Y-80910200D01*
G75*
G02*
X192649800Y-81160199I0J-249999D01*
G01*
G37*
G36*
G01*
X165931000Y-93795001D02*
X165931000Y-92894999D01*
G75*
G02*
X166180999Y-92645000I249999J0D01*
G01*
X166831001Y-92645000D01*
G75*
G02*
X167081000Y-92894999I0J-249999D01*
G01*
X167081000Y-93795001D01*
G75*
G02*
X166831001Y-94045000I-249999J0D01*
G01*
X166180999Y-94045000D01*
G75*
G02*
X165931000Y-93795001I0J249999D01*
G01*
G37*
G36*
G01*
X163881000Y-93795001D02*
X163881000Y-92894999D01*
G75*
G02*
X164130999Y-92645000I249999J0D01*
G01*
X164781001Y-92645000D01*
G75*
G02*
X165031000Y-92894999I0J-249999D01*
G01*
X165031000Y-93795001D01*
G75*
G02*
X164781001Y-94045000I-249999J0D01*
G01*
X164130999Y-94045000D01*
G75*
G02*
X163881000Y-93795001I0J249999D01*
G01*
G37*
G36*
G01*
X170155560Y-129084919D02*
X170155560Y-129984921D01*
G75*
G02*
X169905561Y-130234920I-249999J0D01*
G01*
X169255559Y-130234920D01*
G75*
G02*
X169005560Y-129984921I0J249999D01*
G01*
X169005560Y-129084919D01*
G75*
G02*
X169255559Y-128834920I249999J0D01*
G01*
X169905561Y-128834920D01*
G75*
G02*
X170155560Y-129084919I0J-249999D01*
G01*
G37*
G36*
G01*
X172205560Y-129084919D02*
X172205560Y-129984921D01*
G75*
G02*
X171955561Y-130234920I-249999J0D01*
G01*
X171305559Y-130234920D01*
G75*
G02*
X171055560Y-129984921I0J249999D01*
G01*
X171055560Y-129084919D01*
G75*
G02*
X171305559Y-128834920I249999J0D01*
G01*
X171955561Y-128834920D01*
G75*
G02*
X172205560Y-129084919I0J-249999D01*
G01*
G37*
G36*
G01*
X165031000Y-108769999D02*
X165031000Y-109670001D01*
G75*
G02*
X164781001Y-109920000I-249999J0D01*
G01*
X164130999Y-109920000D01*
G75*
G02*
X163881000Y-109670001I0J249999D01*
G01*
X163881000Y-108769999D01*
G75*
G02*
X164130999Y-108520000I249999J0D01*
G01*
X164781001Y-108520000D01*
G75*
G02*
X165031000Y-108769999I0J-249999D01*
G01*
G37*
G36*
G01*
X167081000Y-108769999D02*
X167081000Y-109670001D01*
G75*
G02*
X166831001Y-109920000I-249999J0D01*
G01*
X166180999Y-109920000D01*
G75*
G02*
X165931000Y-109670001I0J249999D01*
G01*
X165931000Y-108769999D01*
G75*
G02*
X166180999Y-108520000I249999J0D01*
G01*
X166831001Y-108520000D01*
G75*
G02*
X167081000Y-108769999I0J-249999D01*
G01*
G37*
G36*
G01*
X165931000Y-107130001D02*
X165931000Y-106229999D01*
G75*
G02*
X166180999Y-105980000I249999J0D01*
G01*
X166831001Y-105980000D01*
G75*
G02*
X167081000Y-106229999I0J-249999D01*
G01*
X167081000Y-107130001D01*
G75*
G02*
X166831001Y-107380000I-249999J0D01*
G01*
X166180999Y-107380000D01*
G75*
G02*
X165931000Y-107130001I0J249999D01*
G01*
G37*
G36*
G01*
X163881000Y-107130001D02*
X163881000Y-106229999D01*
G75*
G02*
X164130999Y-105980000I249999J0D01*
G01*
X164781001Y-105980000D01*
G75*
G02*
X165031000Y-106229999I0J-249999D01*
G01*
X165031000Y-107130001D01*
G75*
G02*
X164781001Y-107380000I-249999J0D01*
G01*
X164130999Y-107380000D01*
G75*
G02*
X163881000Y-107130001I0J249999D01*
G01*
G37*
G36*
G01*
X165031000Y-103689999D02*
X165031000Y-104590001D01*
G75*
G02*
X164781001Y-104840000I-249999J0D01*
G01*
X164130999Y-104840000D01*
G75*
G02*
X163881000Y-104590001I0J249999D01*
G01*
X163881000Y-103689999D01*
G75*
G02*
X164130999Y-103440000I249999J0D01*
G01*
X164781001Y-103440000D01*
G75*
G02*
X165031000Y-103689999I0J-249999D01*
G01*
G37*
G36*
G01*
X167081000Y-103689999D02*
X167081000Y-104590001D01*
G75*
G02*
X166831001Y-104840000I-249999J0D01*
G01*
X166180999Y-104840000D01*
G75*
G02*
X165931000Y-104590001I0J249999D01*
G01*
X165931000Y-103689999D01*
G75*
G02*
X166180999Y-103440000I249999J0D01*
G01*
X166831001Y-103440000D01*
G75*
G02*
X167081000Y-103689999I0J-249999D01*
G01*
G37*
G36*
G01*
X165031000Y-98609999D02*
X165031000Y-99510001D01*
G75*
G02*
X164781001Y-99760000I-249999J0D01*
G01*
X164130999Y-99760000D01*
G75*
G02*
X163881000Y-99510001I0J249999D01*
G01*
X163881000Y-98609999D01*
G75*
G02*
X164130999Y-98360000I249999J0D01*
G01*
X164781001Y-98360000D01*
G75*
G02*
X165031000Y-98609999I0J-249999D01*
G01*
G37*
G36*
G01*
X167081000Y-98609999D02*
X167081000Y-99510001D01*
G75*
G02*
X166831001Y-99760000I-249999J0D01*
G01*
X166180999Y-99760000D01*
G75*
G02*
X165931000Y-99510001I0J249999D01*
G01*
X165931000Y-98609999D01*
G75*
G02*
X166180999Y-98360000I249999J0D01*
G01*
X166831001Y-98360000D01*
G75*
G02*
X167081000Y-98609999I0J-249999D01*
G01*
G37*
G36*
G01*
X165031000Y-101149999D02*
X165031000Y-102050001D01*
G75*
G02*
X164781001Y-102300000I-249999J0D01*
G01*
X164130999Y-102300000D01*
G75*
G02*
X163881000Y-102050001I0J249999D01*
G01*
X163881000Y-101149999D01*
G75*
G02*
X164130999Y-100900000I249999J0D01*
G01*
X164781001Y-100900000D01*
G75*
G02*
X165031000Y-101149999I0J-249999D01*
G01*
G37*
G36*
G01*
X167081000Y-101149999D02*
X167081000Y-102050001D01*
G75*
G02*
X166831001Y-102300000I-249999J0D01*
G01*
X166180999Y-102300000D01*
G75*
G02*
X165931000Y-102050001I0J249999D01*
G01*
X165931000Y-101149999D01*
G75*
G02*
X166180999Y-100900000I249999J0D01*
G01*
X166831001Y-100900000D01*
G75*
G02*
X167081000Y-101149999I0J-249999D01*
G01*
G37*
G36*
G01*
X170781240Y-113058361D02*
X170781240Y-112158359D01*
G75*
G02*
X171031239Y-111908360I249999J0D01*
G01*
X171681241Y-111908360D01*
G75*
G02*
X171931240Y-112158359I0J-249999D01*
G01*
X171931240Y-113058361D01*
G75*
G02*
X171681241Y-113308360I-249999J0D01*
G01*
X171031239Y-113308360D01*
G75*
G02*
X170781240Y-113058361I0J249999D01*
G01*
G37*
G36*
G01*
X168731240Y-113058361D02*
X168731240Y-112158359D01*
G75*
G02*
X168981239Y-111908360I249999J0D01*
G01*
X169631241Y-111908360D01*
G75*
G02*
X169881240Y-112158359I0J-249999D01*
G01*
X169881240Y-113058361D01*
G75*
G02*
X169631241Y-113308360I-249999J0D01*
G01*
X168981239Y-113308360D01*
G75*
G02*
X168731240Y-113058361I0J249999D01*
G01*
G37*
G36*
G01*
X178631000Y-94049001D02*
X178631000Y-93148999D01*
G75*
G02*
X178880999Y-92899000I249999J0D01*
G01*
X179531001Y-92899000D01*
G75*
G02*
X179781000Y-93148999I0J-249999D01*
G01*
X179781000Y-94049001D01*
G75*
G02*
X179531001Y-94299000I-249999J0D01*
G01*
X178880999Y-94299000D01*
G75*
G02*
X178631000Y-94049001I0J249999D01*
G01*
G37*
G36*
G01*
X176581000Y-94049001D02*
X176581000Y-93148999D01*
G75*
G02*
X176830999Y-92899000I249999J0D01*
G01*
X177481001Y-92899000D01*
G75*
G02*
X177731000Y-93148999I0J-249999D01*
G01*
X177731000Y-94049001D01*
G75*
G02*
X177481001Y-94299000I-249999J0D01*
G01*
X176830999Y-94299000D01*
G75*
G02*
X176581000Y-94049001I0J249999D01*
G01*
G37*
G36*
G01*
X164920400Y-95536599D02*
X164920400Y-96436601D01*
G75*
G02*
X164670401Y-96686600I-249999J0D01*
G01*
X164020399Y-96686600D01*
G75*
G02*
X163770400Y-96436601I0J249999D01*
G01*
X163770400Y-95536599D01*
G75*
G02*
X164020399Y-95286600I249999J0D01*
G01*
X164670401Y-95286600D01*
G75*
G02*
X164920400Y-95536599I0J-249999D01*
G01*
G37*
G36*
G01*
X166970400Y-95536599D02*
X166970400Y-96436601D01*
G75*
G02*
X166720401Y-96686600I-249999J0D01*
G01*
X166070399Y-96686600D01*
G75*
G02*
X165820400Y-96436601I0J249999D01*
G01*
X165820400Y-95536599D01*
G75*
G02*
X166070399Y-95286600I249999J0D01*
G01*
X166720401Y-95286600D01*
G75*
G02*
X166970400Y-95536599I0J-249999D01*
G01*
G37*
G36*
G01*
X165920000Y-126549999D02*
X165920000Y-127450001D01*
G75*
G02*
X165670001Y-127700000I-249999J0D01*
G01*
X165019999Y-127700000D01*
G75*
G02*
X164770000Y-127450001I0J249999D01*
G01*
X164770000Y-126549999D01*
G75*
G02*
X165019999Y-126300000I249999J0D01*
G01*
X165670001Y-126300000D01*
G75*
G02*
X165920000Y-126549999I0J-249999D01*
G01*
G37*
G36*
G01*
X167970000Y-126549999D02*
X167970000Y-127450001D01*
G75*
G02*
X167720001Y-127700000I-249999J0D01*
G01*
X167069999Y-127700000D01*
G75*
G02*
X166820000Y-127450001I0J249999D01*
G01*
X166820000Y-126549999D01*
G75*
G02*
X167069999Y-126300000I249999J0D01*
G01*
X167720001Y-126300000D01*
G75*
G02*
X167970000Y-126549999I0J-249999D01*
G01*
G37*
G36*
G01*
X177615000Y-127450001D02*
X177615000Y-126549999D01*
G75*
G02*
X177864999Y-126300000I249999J0D01*
G01*
X178515001Y-126300000D01*
G75*
G02*
X178765000Y-126549999I0J-249999D01*
G01*
X178765000Y-127450001D01*
G75*
G02*
X178515001Y-127700000I-249999J0D01*
G01*
X177864999Y-127700000D01*
G75*
G02*
X177615000Y-127450001I0J249999D01*
G01*
G37*
G36*
G01*
X175565000Y-127450001D02*
X175565000Y-126549999D01*
G75*
G02*
X175814999Y-126300000I249999J0D01*
G01*
X176465001Y-126300000D01*
G75*
G02*
X176715000Y-126549999I0J-249999D01*
G01*
X176715000Y-127450001D01*
G75*
G02*
X176465001Y-127700000I-249999J0D01*
G01*
X175814999Y-127700000D01*
G75*
G02*
X175565000Y-127450001I0J249999D01*
G01*
G37*
G36*
G01*
X177615000Y-113480001D02*
X177615000Y-112579999D01*
G75*
G02*
X177864999Y-112330000I249999J0D01*
G01*
X178515001Y-112330000D01*
G75*
G02*
X178765000Y-112579999I0J-249999D01*
G01*
X178765000Y-113480001D01*
G75*
G02*
X178515001Y-113730000I-249999J0D01*
G01*
X177864999Y-113730000D01*
G75*
G02*
X177615000Y-113480001I0J249999D01*
G01*
G37*
G36*
G01*
X175565000Y-113480001D02*
X175565000Y-112579999D01*
G75*
G02*
X175814999Y-112330000I249999J0D01*
G01*
X176465001Y-112330000D01*
G75*
G02*
X176715000Y-112579999I0J-249999D01*
G01*
X176715000Y-113480001D01*
G75*
G02*
X176465001Y-113730000I-249999J0D01*
G01*
X175814999Y-113730000D01*
G75*
G02*
X175565000Y-113480001I0J249999D01*
G01*
G37*
G36*
G01*
X178631000Y-88969001D02*
X178631000Y-88068999D01*
G75*
G02*
X178880999Y-87819000I249999J0D01*
G01*
X179531001Y-87819000D01*
G75*
G02*
X179781000Y-88068999I0J-249999D01*
G01*
X179781000Y-88969001D01*
G75*
G02*
X179531001Y-89219000I-249999J0D01*
G01*
X178880999Y-89219000D01*
G75*
G02*
X178631000Y-88969001I0J249999D01*
G01*
G37*
G36*
G01*
X176581000Y-88969001D02*
X176581000Y-88068999D01*
G75*
G02*
X176830999Y-87819000I249999J0D01*
G01*
X177481001Y-87819000D01*
G75*
G02*
X177731000Y-88068999I0J-249999D01*
G01*
X177731000Y-88969001D01*
G75*
G02*
X177481001Y-89219000I-249999J0D01*
G01*
X176830999Y-89219000D01*
G75*
G02*
X176581000Y-88969001I0J249999D01*
G01*
G37*
G36*
G01*
X165920000Y-129089999D02*
X165920000Y-129990001D01*
G75*
G02*
X165670001Y-130240000I-249999J0D01*
G01*
X165019999Y-130240000D01*
G75*
G02*
X164770000Y-129990001I0J249999D01*
G01*
X164770000Y-129089999D01*
G75*
G02*
X165019999Y-128840000I249999J0D01*
G01*
X165670001Y-128840000D01*
G75*
G02*
X165920000Y-129089999I0J-249999D01*
G01*
G37*
G36*
G01*
X167970000Y-129089999D02*
X167970000Y-129990001D01*
G75*
G02*
X167720001Y-130240000I-249999J0D01*
G01*
X167069999Y-130240000D01*
G75*
G02*
X166820000Y-129990001I0J249999D01*
G01*
X166820000Y-129089999D01*
G75*
G02*
X167069999Y-128840000I249999J0D01*
G01*
X167720001Y-128840000D01*
G75*
G02*
X167970000Y-129089999I0J-249999D01*
G01*
G37*
G36*
G01*
X169995000Y-144595001D02*
X169995000Y-143694999D01*
G75*
G02*
X170244999Y-143445000I249999J0D01*
G01*
X170895001Y-143445000D01*
G75*
G02*
X171145000Y-143694999I0J-249999D01*
G01*
X171145000Y-144595001D01*
G75*
G02*
X170895001Y-144845000I-249999J0D01*
G01*
X170244999Y-144845000D01*
G75*
G02*
X169995000Y-144595001I0J249999D01*
G01*
G37*
G36*
G01*
X167945000Y-144595001D02*
X167945000Y-143694999D01*
G75*
G02*
X168194999Y-143445000I249999J0D01*
G01*
X168845001Y-143445000D01*
G75*
G02*
X169095000Y-143694999I0J-249999D01*
G01*
X169095000Y-144595001D01*
G75*
G02*
X168845001Y-144845000I-249999J0D01*
G01*
X168194999Y-144845000D01*
G75*
G02*
X167945000Y-144595001I0J249999D01*
G01*
G37*
G36*
G01*
X185697600Y-116288399D02*
X185697600Y-117188401D01*
G75*
G02*
X185447601Y-117438400I-249999J0D01*
G01*
X184797599Y-117438400D01*
G75*
G02*
X184547600Y-117188401I0J249999D01*
G01*
X184547600Y-116288399D01*
G75*
G02*
X184797599Y-116038400I249999J0D01*
G01*
X185447601Y-116038400D01*
G75*
G02*
X185697600Y-116288399I0J-249999D01*
G01*
G37*
G36*
G01*
X187747600Y-116288399D02*
X187747600Y-117188401D01*
G75*
G02*
X187497601Y-117438400I-249999J0D01*
G01*
X186847599Y-117438400D01*
G75*
G02*
X186597600Y-117188401I0J249999D01*
G01*
X186597600Y-116288399D01*
G75*
G02*
X186847599Y-116038400I249999J0D01*
G01*
X187497601Y-116038400D01*
G75*
G02*
X187747600Y-116288399I0J-249999D01*
G01*
G37*
G36*
G01*
X178631000Y-107384001D02*
X178631000Y-106483999D01*
G75*
G02*
X178880999Y-106234000I249999J0D01*
G01*
X179531001Y-106234000D01*
G75*
G02*
X179781000Y-106483999I0J-249999D01*
G01*
X179781000Y-107384001D01*
G75*
G02*
X179531001Y-107634000I-249999J0D01*
G01*
X178880999Y-107634000D01*
G75*
G02*
X178631000Y-107384001I0J249999D01*
G01*
G37*
G36*
G01*
X176581000Y-107384001D02*
X176581000Y-106483999D01*
G75*
G02*
X176830999Y-106234000I249999J0D01*
G01*
X177481001Y-106234000D01*
G75*
G02*
X177731000Y-106483999I0J-249999D01*
G01*
X177731000Y-107384001D01*
G75*
G02*
X177481001Y-107634000I-249999J0D01*
G01*
X176830999Y-107634000D01*
G75*
G02*
X176581000Y-107384001I0J249999D01*
G01*
G37*
G36*
G01*
X186332600Y-107398399D02*
X186332600Y-108298401D01*
G75*
G02*
X186082601Y-108548400I-249999J0D01*
G01*
X185432599Y-108548400D01*
G75*
G02*
X185182600Y-108298401I0J249999D01*
G01*
X185182600Y-107398399D01*
G75*
G02*
X185432599Y-107148400I249999J0D01*
G01*
X186082601Y-107148400D01*
G75*
G02*
X186332600Y-107398399I0J-249999D01*
G01*
G37*
G36*
G01*
X188382600Y-107398399D02*
X188382600Y-108298401D01*
G75*
G02*
X188132601Y-108548400I-249999J0D01*
G01*
X187482599Y-108548400D01*
G75*
G02*
X187232600Y-108298401I0J249999D01*
G01*
X187232600Y-107398399D01*
G75*
G02*
X187482599Y-107148400I249999J0D01*
G01*
X188132601Y-107148400D01*
G75*
G02*
X188382600Y-107398399I0J-249999D01*
G01*
G37*
G36*
G01*
X177731000Y-101403999D02*
X177731000Y-102304001D01*
G75*
G02*
X177481001Y-102554000I-249999J0D01*
G01*
X176830999Y-102554000D01*
G75*
G02*
X176581000Y-102304001I0J249999D01*
G01*
X176581000Y-101403999D01*
G75*
G02*
X176830999Y-101154000I249999J0D01*
G01*
X177481001Y-101154000D01*
G75*
G02*
X177731000Y-101403999I0J-249999D01*
G01*
G37*
G36*
G01*
X179781000Y-101403999D02*
X179781000Y-102304001D01*
G75*
G02*
X179531001Y-102554000I-249999J0D01*
G01*
X178880999Y-102554000D01*
G75*
G02*
X178631000Y-102304001I0J249999D01*
G01*
X178631000Y-101403999D01*
G75*
G02*
X178880999Y-101154000I249999J0D01*
G01*
X179531001Y-101154000D01*
G75*
G02*
X179781000Y-101403999I0J-249999D01*
G01*
G37*
G36*
G01*
X187232600Y-110838401D02*
X187232600Y-109938399D01*
G75*
G02*
X187482599Y-109688400I249999J0D01*
G01*
X188132601Y-109688400D01*
G75*
G02*
X188382600Y-109938399I0J-249999D01*
G01*
X188382600Y-110838401D01*
G75*
G02*
X188132601Y-111088400I-249999J0D01*
G01*
X187482599Y-111088400D01*
G75*
G02*
X187232600Y-110838401I0J249999D01*
G01*
G37*
G36*
G01*
X185182600Y-110838401D02*
X185182600Y-109938399D01*
G75*
G02*
X185432599Y-109688400I249999J0D01*
G01*
X186082601Y-109688400D01*
G75*
G02*
X186332600Y-109938399I0J-249999D01*
G01*
X186332600Y-110838401D01*
G75*
G02*
X186082601Y-111088400I-249999J0D01*
G01*
X185432599Y-111088400D01*
G75*
G02*
X185182600Y-110838401I0J249999D01*
G01*
G37*
G36*
G01*
X177731000Y-98863999D02*
X177731000Y-99764001D01*
G75*
G02*
X177481001Y-100014000I-249999J0D01*
G01*
X176830999Y-100014000D01*
G75*
G02*
X176581000Y-99764001I0J249999D01*
G01*
X176581000Y-98863999D01*
G75*
G02*
X176830999Y-98614000I249999J0D01*
G01*
X177481001Y-98614000D01*
G75*
G02*
X177731000Y-98863999I0J-249999D01*
G01*
G37*
G36*
G01*
X179781000Y-98863999D02*
X179781000Y-99764001D01*
G75*
G02*
X179531001Y-100014000I-249999J0D01*
G01*
X178880999Y-100014000D01*
G75*
G02*
X178631000Y-99764001I0J249999D01*
G01*
X178631000Y-98863999D01*
G75*
G02*
X178880999Y-98614000I249999J0D01*
G01*
X179531001Y-98614000D01*
G75*
G02*
X179781000Y-98863999I0J-249999D01*
G01*
G37*
G36*
G01*
X177615000Y-135070001D02*
X177615000Y-134169999D01*
G75*
G02*
X177864999Y-133920000I249999J0D01*
G01*
X178515001Y-133920000D01*
G75*
G02*
X178765000Y-134169999I0J-249999D01*
G01*
X178765000Y-135070001D01*
G75*
G02*
X178515001Y-135320000I-249999J0D01*
G01*
X177864999Y-135320000D01*
G75*
G02*
X177615000Y-135070001I0J249999D01*
G01*
G37*
G36*
G01*
X175565000Y-135070001D02*
X175565000Y-134169999D01*
G75*
G02*
X175814999Y-133920000I249999J0D01*
G01*
X176465001Y-133920000D01*
G75*
G02*
X176715000Y-134169999I0J-249999D01*
G01*
X176715000Y-135070001D01*
G75*
G02*
X176465001Y-135320000I-249999J0D01*
G01*
X175814999Y-135320000D01*
G75*
G02*
X175565000Y-135070001I0J249999D01*
G01*
G37*
G36*
G01*
X177615000Y-132530001D02*
X177615000Y-131629999D01*
G75*
G02*
X177864999Y-131380000I249999J0D01*
G01*
X178515001Y-131380000D01*
G75*
G02*
X178765000Y-131629999I0J-249999D01*
G01*
X178765000Y-132530001D01*
G75*
G02*
X178515001Y-132780000I-249999J0D01*
G01*
X177864999Y-132780000D01*
G75*
G02*
X177615000Y-132530001I0J249999D01*
G01*
G37*
G36*
G01*
X175565000Y-132530001D02*
X175565000Y-131629999D01*
G75*
G02*
X175814999Y-131380000I249999J0D01*
G01*
X176465001Y-131380000D01*
G75*
G02*
X176715000Y-131629999I0J-249999D01*
G01*
X176715000Y-132530001D01*
G75*
G02*
X176465001Y-132780000I-249999J0D01*
G01*
X175814999Y-132780000D01*
G75*
G02*
X175565000Y-132530001I0J249999D01*
G01*
G37*
G36*
G01*
X177615000Y-123640001D02*
X177615000Y-122739999D01*
G75*
G02*
X177864999Y-122490000I249999J0D01*
G01*
X178515001Y-122490000D01*
G75*
G02*
X178765000Y-122739999I0J-249999D01*
G01*
X178765000Y-123640001D01*
G75*
G02*
X178515001Y-123890000I-249999J0D01*
G01*
X177864999Y-123890000D01*
G75*
G02*
X177615000Y-123640001I0J249999D01*
G01*
G37*
G36*
G01*
X175565000Y-123640001D02*
X175565000Y-122739999D01*
G75*
G02*
X175814999Y-122490000I249999J0D01*
G01*
X176465001Y-122490000D01*
G75*
G02*
X176715000Y-122739999I0J-249999D01*
G01*
X176715000Y-123640001D01*
G75*
G02*
X176465001Y-123890000I-249999J0D01*
G01*
X175814999Y-123890000D01*
G75*
G02*
X175565000Y-123640001I0J249999D01*
G01*
G37*
G36*
G01*
X177615000Y-121100001D02*
X177615000Y-120199999D01*
G75*
G02*
X177864999Y-119950000I249999J0D01*
G01*
X178515001Y-119950000D01*
G75*
G02*
X178765000Y-120199999I0J-249999D01*
G01*
X178765000Y-121100001D01*
G75*
G02*
X178515001Y-121350000I-249999J0D01*
G01*
X177864999Y-121350000D01*
G75*
G02*
X177615000Y-121100001I0J249999D01*
G01*
G37*
G36*
G01*
X175565000Y-121100001D02*
X175565000Y-120199999D01*
G75*
G02*
X175814999Y-119950000I249999J0D01*
G01*
X176465001Y-119950000D01*
G75*
G02*
X176715000Y-120199999I0J-249999D01*
G01*
X176715000Y-121100001D01*
G75*
G02*
X176465001Y-121350000I-249999J0D01*
G01*
X175814999Y-121350000D01*
G75*
G02*
X175565000Y-121100001I0J249999D01*
G01*
G37*
G36*
G01*
X176715000Y-129089999D02*
X176715000Y-129990001D01*
G75*
G02*
X176465001Y-130240000I-249999J0D01*
G01*
X175814999Y-130240000D01*
G75*
G02*
X175565000Y-129990001I0J249999D01*
G01*
X175565000Y-129089999D01*
G75*
G02*
X175814999Y-128840000I249999J0D01*
G01*
X176465001Y-128840000D01*
G75*
G02*
X176715000Y-129089999I0J-249999D01*
G01*
G37*
G36*
G01*
X178765000Y-129089999D02*
X178765000Y-129990001D01*
G75*
G02*
X178515001Y-130240000I-249999J0D01*
G01*
X177864999Y-130240000D01*
G75*
G02*
X177615000Y-129990001I0J249999D01*
G01*
X177615000Y-129089999D01*
G75*
G02*
X177864999Y-128840000I249999J0D01*
G01*
X178515001Y-128840000D01*
G75*
G02*
X178765000Y-129089999I0J-249999D01*
G01*
G37*
G36*
G01*
X176715000Y-115119999D02*
X176715000Y-116020001D01*
G75*
G02*
X176465001Y-116270000I-249999J0D01*
G01*
X175814999Y-116270000D01*
G75*
G02*
X175565000Y-116020001I0J249999D01*
G01*
X175565000Y-115119999D01*
G75*
G02*
X175814999Y-114870000I249999J0D01*
G01*
X176465001Y-114870000D01*
G75*
G02*
X176715000Y-115119999I0J-249999D01*
G01*
G37*
G36*
G01*
X178765000Y-115119999D02*
X178765000Y-116020001D01*
G75*
G02*
X178515001Y-116270000I-249999J0D01*
G01*
X177864999Y-116270000D01*
G75*
G02*
X177615000Y-116020001I0J249999D01*
G01*
X177615000Y-115119999D01*
G75*
G02*
X177864999Y-114870000I249999J0D01*
G01*
X178515001Y-114870000D01*
G75*
G02*
X178765000Y-115119999I0J-249999D01*
G01*
G37*
G36*
G01*
X176715000Y-117659999D02*
X176715000Y-118560001D01*
G75*
G02*
X176465001Y-118810000I-249999J0D01*
G01*
X175814999Y-118810000D01*
G75*
G02*
X175565000Y-118560001I0J249999D01*
G01*
X175565000Y-117659999D01*
G75*
G02*
X175814999Y-117410000I249999J0D01*
G01*
X176465001Y-117410000D01*
G75*
G02*
X176715000Y-117659999I0J-249999D01*
G01*
G37*
G36*
G01*
X178765000Y-117659999D02*
X178765000Y-118560001D01*
G75*
G02*
X178515001Y-118810000I-249999J0D01*
G01*
X177864999Y-118810000D01*
G75*
G02*
X177615000Y-118560001I0J249999D01*
G01*
X177615000Y-117659999D01*
G75*
G02*
X177864999Y-117410000I249999J0D01*
G01*
X178515001Y-117410000D01*
G75*
G02*
X178765000Y-117659999I0J-249999D01*
G01*
G37*
G36*
G01*
X159200000Y-142690001D02*
X159200000Y-141789999D01*
G75*
G02*
X159449999Y-141540000I249999J0D01*
G01*
X160100001Y-141540000D01*
G75*
G02*
X160350000Y-141789999I0J-249999D01*
G01*
X160350000Y-142690001D01*
G75*
G02*
X160100001Y-142940000I-249999J0D01*
G01*
X159449999Y-142940000D01*
G75*
G02*
X159200000Y-142690001I0J249999D01*
G01*
G37*
G36*
G01*
X157150000Y-142690001D02*
X157150000Y-141789999D01*
G75*
G02*
X157399999Y-141540000I249999J0D01*
G01*
X158050001Y-141540000D01*
G75*
G02*
X158300000Y-141789999I0J-249999D01*
G01*
X158300000Y-142690001D01*
G75*
G02*
X158050001Y-142940000I-249999J0D01*
G01*
X157399999Y-142940000D01*
G75*
G02*
X157150000Y-142690001I0J249999D01*
G01*
G37*
G36*
G01*
X158955000Y-127450001D02*
X158955000Y-126549999D01*
G75*
G02*
X159204999Y-126300000I249999J0D01*
G01*
X159855001Y-126300000D01*
G75*
G02*
X160105000Y-126549999I0J-249999D01*
G01*
X160105000Y-127450001D01*
G75*
G02*
X159855001Y-127700000I-249999J0D01*
G01*
X159204999Y-127700000D01*
G75*
G02*
X158955000Y-127450001I0J249999D01*
G01*
G37*
G36*
G01*
X156905000Y-127450001D02*
X156905000Y-126549999D01*
G75*
G02*
X157154999Y-126300000I249999J0D01*
G01*
X157805001Y-126300000D01*
G75*
G02*
X158055000Y-126549999I0J-249999D01*
G01*
X158055000Y-127450001D01*
G75*
G02*
X157805001Y-127700000I-249999J0D01*
G01*
X157154999Y-127700000D01*
G75*
G02*
X156905000Y-127450001I0J249999D01*
G01*
G37*
G36*
G01*
X150945000Y-67760001D02*
X150945000Y-66859999D01*
G75*
G02*
X151194999Y-66610000I249999J0D01*
G01*
X151845001Y-66610000D01*
G75*
G02*
X152095000Y-66859999I0J-249999D01*
G01*
X152095000Y-67760001D01*
G75*
G02*
X151845001Y-68010000I-249999J0D01*
G01*
X151194999Y-68010000D01*
G75*
G02*
X150945000Y-67760001I0J249999D01*
G01*
G37*
G36*
G01*
X148895000Y-67760001D02*
X148895000Y-66859999D01*
G75*
G02*
X149144999Y-66610000I249999J0D01*
G01*
X149795001Y-66610000D01*
G75*
G02*
X150045000Y-66859999I0J-249999D01*
G01*
X150045000Y-67760001D01*
G75*
G02*
X149795001Y-68010000I-249999J0D01*
G01*
X149144999Y-68010000D01*
G75*
G02*
X148895000Y-67760001I0J249999D01*
G01*
G37*
G36*
G01*
X169995000Y-139515001D02*
X169995000Y-138614999D01*
G75*
G02*
X170244999Y-138365000I249999J0D01*
G01*
X170895001Y-138365000D01*
G75*
G02*
X171145000Y-138614999I0J-249999D01*
G01*
X171145000Y-139515001D01*
G75*
G02*
X170895001Y-139765000I-249999J0D01*
G01*
X170244999Y-139765000D01*
G75*
G02*
X169995000Y-139515001I0J249999D01*
G01*
G37*
G36*
G01*
X167945000Y-139515001D02*
X167945000Y-138614999D01*
G75*
G02*
X168194999Y-138365000I249999J0D01*
G01*
X168845001Y-138365000D01*
G75*
G02*
X169095000Y-138614999I0J-249999D01*
G01*
X169095000Y-139515001D01*
G75*
G02*
X168845001Y-139765000I-249999J0D01*
G01*
X168194999Y-139765000D01*
G75*
G02*
X167945000Y-139515001I0J249999D01*
G01*
G37*
G36*
G01*
X178631000Y-86429001D02*
X178631000Y-85528999D01*
G75*
G02*
X178880999Y-85279000I249999J0D01*
G01*
X179531001Y-85279000D01*
G75*
G02*
X179781000Y-85528999I0J-249999D01*
G01*
X179781000Y-86429001D01*
G75*
G02*
X179531001Y-86679000I-249999J0D01*
G01*
X178880999Y-86679000D01*
G75*
G02*
X178631000Y-86429001I0J249999D01*
G01*
G37*
G36*
G01*
X176581000Y-86429001D02*
X176581000Y-85528999D01*
G75*
G02*
X176830999Y-85279000I249999J0D01*
G01*
X177481001Y-85279000D01*
G75*
G02*
X177731000Y-85528999I0J-249999D01*
G01*
X177731000Y-86429001D01*
G75*
G02*
X177481001Y-86679000I-249999J0D01*
G01*
X176830999Y-86679000D01*
G75*
G02*
X176581000Y-86429001I0J249999D01*
G01*
G37*
G36*
G01*
X150045000Y-64319999D02*
X150045000Y-65220001D01*
G75*
G02*
X149795001Y-65470000I-249999J0D01*
G01*
X149144999Y-65470000D01*
G75*
G02*
X148895000Y-65220001I0J249999D01*
G01*
X148895000Y-64319999D01*
G75*
G02*
X149144999Y-64070000I249999J0D01*
G01*
X149795001Y-64070000D01*
G75*
G02*
X150045000Y-64319999I0J-249999D01*
G01*
G37*
G36*
G01*
X152095000Y-64319999D02*
X152095000Y-65220001D01*
G75*
G02*
X151845001Y-65470000I-249999J0D01*
G01*
X151194999Y-65470000D01*
G75*
G02*
X150945000Y-65220001I0J249999D01*
G01*
X150945000Y-64319999D01*
G75*
G02*
X151194999Y-64070000I249999J0D01*
G01*
X151845001Y-64070000D01*
G75*
G02*
X152095000Y-64319999I0J-249999D01*
G01*
G37*
G36*
G01*
X173540000Y-138614999D02*
X173540000Y-139515001D01*
G75*
G02*
X173290001Y-139765000I-249999J0D01*
G01*
X172639999Y-139765000D01*
G75*
G02*
X172390000Y-139515001I0J249999D01*
G01*
X172390000Y-138614999D01*
G75*
G02*
X172639999Y-138365000I249999J0D01*
G01*
X173290001Y-138365000D01*
G75*
G02*
X173540000Y-138614999I0J-249999D01*
G01*
G37*
G36*
G01*
X175590000Y-138614999D02*
X175590000Y-139515001D01*
G75*
G02*
X175340001Y-139765000I-249999J0D01*
G01*
X174689999Y-139765000D01*
G75*
G02*
X174440000Y-139515001I0J249999D01*
G01*
X174440000Y-138614999D01*
G75*
G02*
X174689999Y-138365000I249999J0D01*
G01*
X175340001Y-138365000D01*
G75*
G02*
X175590000Y-138614999I0J-249999D01*
G01*
G37*
G36*
G01*
X150945000Y-60140001D02*
X150945000Y-59239999D01*
G75*
G02*
X151194999Y-58990000I249999J0D01*
G01*
X151845001Y-58990000D01*
G75*
G02*
X152095000Y-59239999I0J-249999D01*
G01*
X152095000Y-60140001D01*
G75*
G02*
X151845001Y-60390000I-249999J0D01*
G01*
X151194999Y-60390000D01*
G75*
G02*
X150945000Y-60140001I0J249999D01*
G01*
G37*
G36*
G01*
X148895000Y-60140001D02*
X148895000Y-59239999D01*
G75*
G02*
X149144999Y-58990000I249999J0D01*
G01*
X149795001Y-58990000D01*
G75*
G02*
X150045000Y-59239999I0J-249999D01*
G01*
X150045000Y-60140001D01*
G75*
G02*
X149795001Y-60390000I-249999J0D01*
G01*
X149144999Y-60390000D01*
G75*
G02*
X148895000Y-60140001I0J249999D01*
G01*
G37*
G36*
G01*
X174440000Y-144595001D02*
X174440000Y-143694999D01*
G75*
G02*
X174689999Y-143445000I249999J0D01*
G01*
X175340001Y-143445000D01*
G75*
G02*
X175590000Y-143694999I0J-249999D01*
G01*
X175590000Y-144595001D01*
G75*
G02*
X175340001Y-144845000I-249999J0D01*
G01*
X174689999Y-144845000D01*
G75*
G02*
X174440000Y-144595001I0J249999D01*
G01*
G37*
G36*
G01*
X172390000Y-144595001D02*
X172390000Y-143694999D01*
G75*
G02*
X172639999Y-143445000I249999J0D01*
G01*
X173290001Y-143445000D01*
G75*
G02*
X173540000Y-143694999I0J-249999D01*
G01*
X173540000Y-144595001D01*
G75*
G02*
X173290001Y-144845000I-249999J0D01*
G01*
X172639999Y-144845000D01*
G75*
G02*
X172390000Y-144595001I0J249999D01*
G01*
G37*
G36*
G01*
X177731000Y-80448999D02*
X177731000Y-81349001D01*
G75*
G02*
X177481001Y-81599000I-249999J0D01*
G01*
X176830999Y-81599000D01*
G75*
G02*
X176581000Y-81349001I0J249999D01*
G01*
X176581000Y-80448999D01*
G75*
G02*
X176830999Y-80199000I249999J0D01*
G01*
X177481001Y-80199000D01*
G75*
G02*
X177731000Y-80448999I0J-249999D01*
G01*
G37*
G36*
G01*
X179781000Y-80448999D02*
X179781000Y-81349001D01*
G75*
G02*
X179531001Y-81599000I-249999J0D01*
G01*
X178880999Y-81599000D01*
G75*
G02*
X178631000Y-81349001I0J249999D01*
G01*
X178631000Y-80448999D01*
G75*
G02*
X178880999Y-80199000I249999J0D01*
G01*
X179531001Y-80199000D01*
G75*
G02*
X179781000Y-80448999I0J-249999D01*
G01*
G37*
G36*
G01*
X177731000Y-82988999D02*
X177731000Y-83889001D01*
G75*
G02*
X177481001Y-84139000I-249999J0D01*
G01*
X176830999Y-84139000D01*
G75*
G02*
X176581000Y-83889001I0J249999D01*
G01*
X176581000Y-82988999D01*
G75*
G02*
X176830999Y-82739000I249999J0D01*
G01*
X177481001Y-82739000D01*
G75*
G02*
X177731000Y-82988999I0J-249999D01*
G01*
G37*
G36*
G01*
X179781000Y-82988999D02*
X179781000Y-83889001D01*
G75*
G02*
X179531001Y-84139000I-249999J0D01*
G01*
X178880999Y-84139000D01*
G75*
G02*
X178631000Y-83889001I0J249999D01*
G01*
X178631000Y-82988999D01*
G75*
G02*
X178880999Y-82739000I249999J0D01*
G01*
X179531001Y-82739000D01*
G75*
G02*
X179781000Y-82988999I0J-249999D01*
G01*
G37*
G36*
G01*
X165931000Y-85540001D02*
X165931000Y-84639999D01*
G75*
G02*
X166180999Y-84390000I249999J0D01*
G01*
X166831001Y-84390000D01*
G75*
G02*
X167081000Y-84639999I0J-249999D01*
G01*
X167081000Y-85540001D01*
G75*
G02*
X166831001Y-85790000I-249999J0D01*
G01*
X166180999Y-85790000D01*
G75*
G02*
X165931000Y-85540001I0J249999D01*
G01*
G37*
G36*
G01*
X163881000Y-85540001D02*
X163881000Y-84639999D01*
G75*
G02*
X164130999Y-84390000I249999J0D01*
G01*
X164781001Y-84390000D01*
G75*
G02*
X165031000Y-84639999I0J-249999D01*
G01*
X165031000Y-85540001D01*
G75*
G02*
X164781001Y-85790000I-249999J0D01*
G01*
X164130999Y-85790000D01*
G75*
G02*
X163881000Y-85540001I0J249999D01*
G01*
G37*
G36*
G01*
X165031000Y-82099999D02*
X165031000Y-83000001D01*
G75*
G02*
X164781001Y-83250000I-249999J0D01*
G01*
X164130999Y-83250000D01*
G75*
G02*
X163881000Y-83000001I0J249999D01*
G01*
X163881000Y-82099999D01*
G75*
G02*
X164130999Y-81850000I249999J0D01*
G01*
X164781001Y-81850000D01*
G75*
G02*
X165031000Y-82099999I0J-249999D01*
G01*
G37*
G36*
G01*
X167081000Y-82099999D02*
X167081000Y-83000001D01*
G75*
G02*
X166831001Y-83250000I-249999J0D01*
G01*
X166180999Y-83250000D01*
G75*
G02*
X165931000Y-83000001I0J249999D01*
G01*
X165931000Y-82099999D01*
G75*
G02*
X166180999Y-81850000I249999J0D01*
G01*
X166831001Y-81850000D01*
G75*
G02*
X167081000Y-82099999I0J-249999D01*
G01*
G37*
G36*
G01*
X153485000Y-91890001D02*
X153485000Y-90989999D01*
G75*
G02*
X153734999Y-90740000I249999J0D01*
G01*
X154385001Y-90740000D01*
G75*
G02*
X154635000Y-90989999I0J-249999D01*
G01*
X154635000Y-91890001D01*
G75*
G02*
X154385001Y-92140000I-249999J0D01*
G01*
X153734999Y-92140000D01*
G75*
G02*
X153485000Y-91890001I0J249999D01*
G01*
G37*
G36*
G01*
X151435000Y-91890001D02*
X151435000Y-90989999D01*
G75*
G02*
X151684999Y-90740000I249999J0D01*
G01*
X152335001Y-90740000D01*
G75*
G02*
X152585000Y-90989999I0J-249999D01*
G01*
X152585000Y-91890001D01*
G75*
G02*
X152335001Y-92140000I-249999J0D01*
G01*
X151684999Y-92140000D01*
G75*
G02*
X151435000Y-91890001I0J249999D01*
G01*
G37*
G36*
G01*
X109015000Y-78289999D02*
X109015000Y-79190001D01*
G75*
G02*
X108765001Y-79440000I-249999J0D01*
G01*
X108114999Y-79440000D01*
G75*
G02*
X107865000Y-79190001I0J249999D01*
G01*
X107865000Y-78289999D01*
G75*
G02*
X108114999Y-78040000I249999J0D01*
G01*
X108765001Y-78040000D01*
G75*
G02*
X109015000Y-78289999I0J-249999D01*
G01*
G37*
G36*
G01*
X111065000Y-78289999D02*
X111065000Y-79190001D01*
G75*
G02*
X110815001Y-79440000I-249999J0D01*
G01*
X110164999Y-79440000D01*
G75*
G02*
X109915000Y-79190001I0J249999D01*
G01*
X109915000Y-78289999D01*
G75*
G02*
X110164999Y-78040000I249999J0D01*
G01*
X110815001Y-78040000D01*
G75*
G02*
X111065000Y-78289999I0J-249999D01*
G01*
G37*
G36*
G01*
X114360000Y-79190001D02*
X114360000Y-78289999D01*
G75*
G02*
X114609999Y-78040000I249999J0D01*
G01*
X115260001Y-78040000D01*
G75*
G02*
X115510000Y-78289999I0J-249999D01*
G01*
X115510000Y-79190001D01*
G75*
G02*
X115260001Y-79440000I-249999J0D01*
G01*
X114609999Y-79440000D01*
G75*
G02*
X114360000Y-79190001I0J249999D01*
G01*
G37*
G36*
G01*
X112310000Y-79190001D02*
X112310000Y-78289999D01*
G75*
G02*
X112559999Y-78040000I249999J0D01*
G01*
X113210001Y-78040000D01*
G75*
G02*
X113460000Y-78289999I0J-249999D01*
G01*
X113460000Y-79190001D01*
G75*
G02*
X113210001Y-79440000I-249999J0D01*
G01*
X112559999Y-79440000D01*
G75*
G02*
X112310000Y-79190001I0J249999D01*
G01*
G37*
G36*
G01*
X123395000Y-94430001D02*
X123395000Y-93529999D01*
G75*
G02*
X123644999Y-93280000I249999J0D01*
G01*
X124295001Y-93280000D01*
G75*
G02*
X124545000Y-93529999I0J-249999D01*
G01*
X124545000Y-94430001D01*
G75*
G02*
X124295001Y-94680000I-249999J0D01*
G01*
X123644999Y-94680000D01*
G75*
G02*
X123395000Y-94430001I0J249999D01*
G01*
G37*
G36*
G01*
X121345000Y-94430001D02*
X121345000Y-93529999D01*
G75*
G02*
X121594999Y-93280000I249999J0D01*
G01*
X122245001Y-93280000D01*
G75*
G02*
X122495000Y-93529999I0J-249999D01*
G01*
X122495000Y-94430001D01*
G75*
G02*
X122245001Y-94680000I-249999J0D01*
G01*
X121594999Y-94680000D01*
G75*
G02*
X121345000Y-94430001I0J249999D01*
G01*
G37*
G36*
G01*
X116773000Y-114750001D02*
X116773000Y-113849999D01*
G75*
G02*
X117022999Y-113600000I249999J0D01*
G01*
X117673001Y-113600000D01*
G75*
G02*
X117923000Y-113849999I0J-249999D01*
G01*
X117923000Y-114750001D01*
G75*
G02*
X117673001Y-115000000I-249999J0D01*
G01*
X117022999Y-115000000D01*
G75*
G02*
X116773000Y-114750001I0J249999D01*
G01*
G37*
G36*
G01*
X114723000Y-114750001D02*
X114723000Y-113849999D01*
G75*
G02*
X114972999Y-113600000I249999J0D01*
G01*
X115623001Y-113600000D01*
G75*
G02*
X115873000Y-113849999I0J-249999D01*
G01*
X115873000Y-114750001D01*
G75*
G02*
X115623001Y-115000000I-249999J0D01*
G01*
X114972999Y-115000000D01*
G75*
G02*
X114723000Y-114750001I0J249999D01*
G01*
G37*
G36*
G01*
X123640000Y-112210001D02*
X123640000Y-111309999D01*
G75*
G02*
X123889999Y-111060000I249999J0D01*
G01*
X124540001Y-111060000D01*
G75*
G02*
X124790000Y-111309999I0J-249999D01*
G01*
X124790000Y-112210001D01*
G75*
G02*
X124540001Y-112460000I-249999J0D01*
G01*
X123889999Y-112460000D01*
G75*
G02*
X123640000Y-112210001I0J249999D01*
G01*
G37*
G36*
G01*
X121590000Y-112210001D02*
X121590000Y-111309999D01*
G75*
G02*
X121839999Y-111060000I249999J0D01*
G01*
X122490001Y-111060000D01*
G75*
G02*
X122740000Y-111309999I0J-249999D01*
G01*
X122740000Y-112210001D01*
G75*
G02*
X122490001Y-112460000I-249999J0D01*
G01*
X121839999Y-112460000D01*
G75*
G02*
X121590000Y-112210001I0J249999D01*
G01*
G37*
G36*
G01*
X122740000Y-108769999D02*
X122740000Y-109670001D01*
G75*
G02*
X122490001Y-109920000I-249999J0D01*
G01*
X121839999Y-109920000D01*
G75*
G02*
X121590000Y-109670001I0J249999D01*
G01*
X121590000Y-108769999D01*
G75*
G02*
X121839999Y-108520000I249999J0D01*
G01*
X122490001Y-108520000D01*
G75*
G02*
X122740000Y-108769999I0J-249999D01*
G01*
G37*
G36*
G01*
X124790000Y-108769999D02*
X124790000Y-109670001D01*
G75*
G02*
X124540001Y-109920000I-249999J0D01*
G01*
X123889999Y-109920000D01*
G75*
G02*
X123640000Y-109670001I0J249999D01*
G01*
X123640000Y-108769999D01*
G75*
G02*
X123889999Y-108520000I249999J0D01*
G01*
X124540001Y-108520000D01*
G75*
G02*
X124790000Y-108769999I0J-249999D01*
G01*
G37*
G36*
G01*
X122740000Y-106229999D02*
X122740000Y-107130001D01*
G75*
G02*
X122490001Y-107380000I-249999J0D01*
G01*
X121839999Y-107380000D01*
G75*
G02*
X121590000Y-107130001I0J249999D01*
G01*
X121590000Y-106229999D01*
G75*
G02*
X121839999Y-105980000I249999J0D01*
G01*
X122490001Y-105980000D01*
G75*
G02*
X122740000Y-106229999I0J-249999D01*
G01*
G37*
G36*
G01*
X124790000Y-106229999D02*
X124790000Y-107130001D01*
G75*
G02*
X124540001Y-107380000I-249999J0D01*
G01*
X123889999Y-107380000D01*
G75*
G02*
X123640000Y-107130001I0J249999D01*
G01*
X123640000Y-106229999D01*
G75*
G02*
X123889999Y-105980000I249999J0D01*
G01*
X124540001Y-105980000D01*
G75*
G02*
X124790000Y-106229999I0J-249999D01*
G01*
G37*
G36*
G01*
X122740000Y-101149999D02*
X122740000Y-102050001D01*
G75*
G02*
X122490001Y-102300000I-249999J0D01*
G01*
X121839999Y-102300000D01*
G75*
G02*
X121590000Y-102050001I0J249999D01*
G01*
X121590000Y-101149999D01*
G75*
G02*
X121839999Y-100900000I249999J0D01*
G01*
X122490001Y-100900000D01*
G75*
G02*
X122740000Y-101149999I0J-249999D01*
G01*
G37*
G36*
G01*
X124790000Y-101149999D02*
X124790000Y-102050001D01*
G75*
G02*
X124540001Y-102300000I-249999J0D01*
G01*
X123889999Y-102300000D01*
G75*
G02*
X123640000Y-102050001I0J249999D01*
G01*
X123640000Y-101149999D01*
G75*
G02*
X123889999Y-100900000I249999J0D01*
G01*
X124540001Y-100900000D01*
G75*
G02*
X124790000Y-101149999I0J-249999D01*
G01*
G37*
G36*
G01*
X122740000Y-103689999D02*
X122740000Y-104590001D01*
G75*
G02*
X122490001Y-104840000I-249999J0D01*
G01*
X121839999Y-104840000D01*
G75*
G02*
X121590000Y-104590001I0J249999D01*
G01*
X121590000Y-103689999D01*
G75*
G02*
X121839999Y-103440000I249999J0D01*
G01*
X122490001Y-103440000D01*
G75*
G02*
X122740000Y-103689999I0J-249999D01*
G01*
G37*
G36*
G01*
X124790000Y-103689999D02*
X124790000Y-104590001D01*
G75*
G02*
X124540001Y-104840000I-249999J0D01*
G01*
X123889999Y-104840000D01*
G75*
G02*
X123640000Y-104590001I0J249999D01*
G01*
X123640000Y-103689999D01*
G75*
G02*
X123889999Y-103440000I249999J0D01*
G01*
X124540001Y-103440000D01*
G75*
G02*
X124790000Y-103689999I0J-249999D01*
G01*
G37*
G36*
G01*
X115120000Y-118929999D02*
X115120000Y-119830001D01*
G75*
G02*
X114870001Y-120080000I-249999J0D01*
G01*
X114219999Y-120080000D01*
G75*
G02*
X113970000Y-119830001I0J249999D01*
G01*
X113970000Y-118929999D01*
G75*
G02*
X114219999Y-118680000I249999J0D01*
G01*
X114870001Y-118680000D01*
G75*
G02*
X115120000Y-118929999I0J-249999D01*
G01*
G37*
G36*
G01*
X117170000Y-118929999D02*
X117170000Y-119830001D01*
G75*
G02*
X116920001Y-120080000I-249999J0D01*
G01*
X116269999Y-120080000D01*
G75*
G02*
X116020000Y-119830001I0J249999D01*
G01*
X116020000Y-118929999D01*
G75*
G02*
X116269999Y-118680000I249999J0D01*
G01*
X116920001Y-118680000D01*
G75*
G02*
X117170000Y-118929999I0J-249999D01*
G01*
G37*
G36*
G01*
X136340000Y-96970001D02*
X136340000Y-96069999D01*
G75*
G02*
X136589999Y-95820000I249999J0D01*
G01*
X137240001Y-95820000D01*
G75*
G02*
X137490000Y-96069999I0J-249999D01*
G01*
X137490000Y-96970001D01*
G75*
G02*
X137240001Y-97220000I-249999J0D01*
G01*
X136589999Y-97220000D01*
G75*
G02*
X136340000Y-96970001I0J249999D01*
G01*
G37*
G36*
G01*
X134290000Y-96970001D02*
X134290000Y-96069999D01*
G75*
G02*
X134539999Y-95820000I249999J0D01*
G01*
X135190001Y-95820000D01*
G75*
G02*
X135440000Y-96069999I0J-249999D01*
G01*
X135440000Y-96970001D01*
G75*
G02*
X135190001Y-97220000I-249999J0D01*
G01*
X134539999Y-97220000D01*
G75*
G02*
X134290000Y-96970001I0J249999D01*
G01*
G37*
G36*
G01*
X135440000Y-88449999D02*
X135440000Y-89350001D01*
G75*
G02*
X135190001Y-89600000I-249999J0D01*
G01*
X134539999Y-89600000D01*
G75*
G02*
X134290000Y-89350001I0J249999D01*
G01*
X134290000Y-88449999D01*
G75*
G02*
X134539999Y-88200000I249999J0D01*
G01*
X135190001Y-88200000D01*
G75*
G02*
X135440000Y-88449999I0J-249999D01*
G01*
G37*
G36*
G01*
X137490000Y-88449999D02*
X137490000Y-89350001D01*
G75*
G02*
X137240001Y-89600000I-249999J0D01*
G01*
X136589999Y-89600000D01*
G75*
G02*
X136340000Y-89350001I0J249999D01*
G01*
X136340000Y-88449999D01*
G75*
G02*
X136589999Y-88200000I249999J0D01*
G01*
X137240001Y-88200000D01*
G75*
G02*
X137490000Y-88449999I0J-249999D01*
G01*
G37*
G36*
G01*
X122740000Y-127819999D02*
X122740000Y-128720001D01*
G75*
G02*
X122490001Y-128970000I-249999J0D01*
G01*
X121839999Y-128970000D01*
G75*
G02*
X121590000Y-128720001I0J249999D01*
G01*
X121590000Y-127819999D01*
G75*
G02*
X121839999Y-127570000I249999J0D01*
G01*
X122490001Y-127570000D01*
G75*
G02*
X122740000Y-127819999I0J-249999D01*
G01*
G37*
G36*
G01*
X124790000Y-127819999D02*
X124790000Y-128720001D01*
G75*
G02*
X124540001Y-128970000I-249999J0D01*
G01*
X123889999Y-128970000D01*
G75*
G02*
X123640000Y-128720001I0J249999D01*
G01*
X123640000Y-127819999D01*
G75*
G02*
X123889999Y-127570000I249999J0D01*
G01*
X124540001Y-127570000D01*
G75*
G02*
X124790000Y-127819999I0J-249999D01*
G01*
G37*
G36*
G01*
X132265000Y-127819999D02*
X132265000Y-128720001D01*
G75*
G02*
X132015001Y-128970000I-249999J0D01*
G01*
X131364999Y-128970000D01*
G75*
G02*
X131115000Y-128720001I0J249999D01*
G01*
X131115000Y-127819999D01*
G75*
G02*
X131364999Y-127570000I249999J0D01*
G01*
X132015001Y-127570000D01*
G75*
G02*
X132265000Y-127819999I0J-249999D01*
G01*
G37*
G36*
G01*
X134315000Y-127819999D02*
X134315000Y-128720001D01*
G75*
G02*
X134065001Y-128970000I-249999J0D01*
G01*
X133414999Y-128970000D01*
G75*
G02*
X133165000Y-128720001I0J249999D01*
G01*
X133165000Y-127819999D01*
G75*
G02*
X133414999Y-127570000I249999J0D01*
G01*
X134065001Y-127570000D01*
G75*
G02*
X134315000Y-127819999I0J-249999D01*
G01*
G37*
G36*
G01*
X133165000Y-114750001D02*
X133165000Y-113849999D01*
G75*
G02*
X133414999Y-113600000I249999J0D01*
G01*
X134065001Y-113600000D01*
G75*
G02*
X134315000Y-113849999I0J-249999D01*
G01*
X134315000Y-114750001D01*
G75*
G02*
X134065001Y-115000000I-249999J0D01*
G01*
X133414999Y-115000000D01*
G75*
G02*
X133165000Y-114750001I0J249999D01*
G01*
G37*
G36*
G01*
X131115000Y-114750001D02*
X131115000Y-113849999D01*
G75*
G02*
X131364999Y-113600000I249999J0D01*
G01*
X132015001Y-113600000D01*
G75*
G02*
X132265000Y-113849999I0J-249999D01*
G01*
X132265000Y-114750001D01*
G75*
G02*
X132015001Y-115000000I-249999J0D01*
G01*
X131364999Y-115000000D01*
G75*
G02*
X131115000Y-114750001I0J249999D01*
G01*
G37*
G36*
G01*
X136340000Y-91890001D02*
X136340000Y-90989999D01*
G75*
G02*
X136589999Y-90740000I249999J0D01*
G01*
X137240001Y-90740000D01*
G75*
G02*
X137490000Y-90989999I0J-249999D01*
G01*
X137490000Y-91890001D01*
G75*
G02*
X137240001Y-92140000I-249999J0D01*
G01*
X136589999Y-92140000D01*
G75*
G02*
X136340000Y-91890001I0J249999D01*
G01*
G37*
G36*
G01*
X134290000Y-91890001D02*
X134290000Y-90989999D01*
G75*
G02*
X134539999Y-90740000I249999J0D01*
G01*
X135190001Y-90740000D01*
G75*
G02*
X135440000Y-90989999I0J-249999D01*
G01*
X135440000Y-91890001D01*
G75*
G02*
X135190001Y-92140000I-249999J0D01*
G01*
X134539999Y-92140000D01*
G75*
G02*
X134290000Y-91890001I0J249999D01*
G01*
G37*
G36*
G01*
X122740000Y-130359999D02*
X122740000Y-131260001D01*
G75*
G02*
X122490001Y-131510000I-249999J0D01*
G01*
X121839999Y-131510000D01*
G75*
G02*
X121590000Y-131260001I0J249999D01*
G01*
X121590000Y-130359999D01*
G75*
G02*
X121839999Y-130110000I249999J0D01*
G01*
X122490001Y-130110000D01*
G75*
G02*
X122740000Y-130359999I0J-249999D01*
G01*
G37*
G36*
G01*
X124790000Y-130359999D02*
X124790000Y-131260001D01*
G75*
G02*
X124540001Y-131510000I-249999J0D01*
G01*
X123889999Y-131510000D01*
G75*
G02*
X123640000Y-131260001I0J249999D01*
G01*
X123640000Y-130359999D01*
G75*
G02*
X123889999Y-130110000I249999J0D01*
G01*
X124540001Y-130110000D01*
G75*
G02*
X124790000Y-130359999I0J-249999D01*
G01*
G37*
G36*
G01*
X126942000Y-144976001D02*
X126942000Y-144075999D01*
G75*
G02*
X127191999Y-143826000I249999J0D01*
G01*
X127842001Y-143826000D01*
G75*
G02*
X128092000Y-144075999I0J-249999D01*
G01*
X128092000Y-144976001D01*
G75*
G02*
X127842001Y-145226000I-249999J0D01*
G01*
X127191999Y-145226000D01*
G75*
G02*
X126942000Y-144976001I0J249999D01*
G01*
G37*
G36*
G01*
X124892000Y-144976001D02*
X124892000Y-144075999D01*
G75*
G02*
X125141999Y-143826000I249999J0D01*
G01*
X125792001Y-143826000D01*
G75*
G02*
X126042000Y-144075999I0J-249999D01*
G01*
X126042000Y-144976001D01*
G75*
G02*
X125792001Y-145226000I-249999J0D01*
G01*
X125141999Y-145226000D01*
G75*
G02*
X124892000Y-144976001I0J249999D01*
G01*
G37*
G36*
G01*
X144840000Y-116020001D02*
X144840000Y-115119999D01*
G75*
G02*
X145089999Y-114870000I249999J0D01*
G01*
X145740001Y-114870000D01*
G75*
G02*
X145990000Y-115119999I0J-249999D01*
G01*
X145990000Y-116020001D01*
G75*
G02*
X145740001Y-116270000I-249999J0D01*
G01*
X145089999Y-116270000D01*
G75*
G02*
X144840000Y-116020001I0J249999D01*
G01*
G37*
G36*
G01*
X142790000Y-116020001D02*
X142790000Y-115119999D01*
G75*
G02*
X143039999Y-114870000I249999J0D01*
G01*
X143690001Y-114870000D01*
G75*
G02*
X143940000Y-115119999I0J-249999D01*
G01*
X143940000Y-116020001D01*
G75*
G02*
X143690001Y-116270000I-249999J0D01*
G01*
X143039999Y-116270000D01*
G75*
G02*
X142790000Y-116020001I0J249999D01*
G01*
G37*
G36*
G01*
X136340000Y-109670001D02*
X136340000Y-108769999D01*
G75*
G02*
X136589999Y-108520000I249999J0D01*
G01*
X137240001Y-108520000D01*
G75*
G02*
X137490000Y-108769999I0J-249999D01*
G01*
X137490000Y-109670001D01*
G75*
G02*
X137240001Y-109920000I-249999J0D01*
G01*
X136589999Y-109920000D01*
G75*
G02*
X136340000Y-109670001I0J249999D01*
G01*
G37*
G36*
G01*
X134290000Y-109670001D02*
X134290000Y-108769999D01*
G75*
G02*
X134539999Y-108520000I249999J0D01*
G01*
X135190001Y-108520000D01*
G75*
G02*
X135440000Y-108769999I0J-249999D01*
G01*
X135440000Y-109670001D01*
G75*
G02*
X135190001Y-109920000I-249999J0D01*
G01*
X134539999Y-109920000D01*
G75*
G02*
X134290000Y-109670001I0J249999D01*
G01*
G37*
G36*
G01*
X143940000Y-108769999D02*
X143940000Y-109670001D01*
G75*
G02*
X143690001Y-109920000I-249999J0D01*
G01*
X143039999Y-109920000D01*
G75*
G02*
X142790000Y-109670001I0J249999D01*
G01*
X142790000Y-108769999D01*
G75*
G02*
X143039999Y-108520000I249999J0D01*
G01*
X143690001Y-108520000D01*
G75*
G02*
X143940000Y-108769999I0J-249999D01*
G01*
G37*
G36*
G01*
X145990000Y-108769999D02*
X145990000Y-109670001D01*
G75*
G02*
X145740001Y-109920000I-249999J0D01*
G01*
X145089999Y-109920000D01*
G75*
G02*
X144840000Y-109670001I0J249999D01*
G01*
X144840000Y-108769999D01*
G75*
G02*
X145089999Y-108520000I249999J0D01*
G01*
X145740001Y-108520000D01*
G75*
G02*
X145990000Y-108769999I0J-249999D01*
G01*
G37*
G36*
G01*
X135440000Y-101149999D02*
X135440000Y-102050001D01*
G75*
G02*
X135190001Y-102300000I-249999J0D01*
G01*
X134539999Y-102300000D01*
G75*
G02*
X134290000Y-102050001I0J249999D01*
G01*
X134290000Y-101149999D01*
G75*
G02*
X134539999Y-100900000I249999J0D01*
G01*
X135190001Y-100900000D01*
G75*
G02*
X135440000Y-101149999I0J-249999D01*
G01*
G37*
G36*
G01*
X137490000Y-101149999D02*
X137490000Y-102050001D01*
G75*
G02*
X137240001Y-102300000I-249999J0D01*
G01*
X136589999Y-102300000D01*
G75*
G02*
X136340000Y-102050001I0J249999D01*
G01*
X136340000Y-101149999D01*
G75*
G02*
X136589999Y-100900000I249999J0D01*
G01*
X137240001Y-100900000D01*
G75*
G02*
X137490000Y-101149999I0J-249999D01*
G01*
G37*
G36*
G01*
X144840000Y-107130001D02*
X144840000Y-106229999D01*
G75*
G02*
X145089999Y-105980000I249999J0D01*
G01*
X145740001Y-105980000D01*
G75*
G02*
X145990000Y-106229999I0J-249999D01*
G01*
X145990000Y-107130001D01*
G75*
G02*
X145740001Y-107380000I-249999J0D01*
G01*
X145089999Y-107380000D01*
G75*
G02*
X144840000Y-107130001I0J249999D01*
G01*
G37*
G36*
G01*
X142790000Y-107130001D02*
X142790000Y-106229999D01*
G75*
G02*
X143039999Y-105980000I249999J0D01*
G01*
X143690001Y-105980000D01*
G75*
G02*
X143940000Y-106229999I0J-249999D01*
G01*
X143940000Y-107130001D01*
G75*
G02*
X143690001Y-107380000I-249999J0D01*
G01*
X143039999Y-107380000D01*
G75*
G02*
X142790000Y-107130001I0J249999D01*
G01*
G37*
G36*
G01*
X136340000Y-104590001D02*
X136340000Y-103689999D01*
G75*
G02*
X136589999Y-103440000I249999J0D01*
G01*
X137240001Y-103440000D01*
G75*
G02*
X137490000Y-103689999I0J-249999D01*
G01*
X137490000Y-104590001D01*
G75*
G02*
X137240001Y-104840000I-249999J0D01*
G01*
X136589999Y-104840000D01*
G75*
G02*
X136340000Y-104590001I0J249999D01*
G01*
G37*
G36*
G01*
X134290000Y-104590001D02*
X134290000Y-103689999D01*
G75*
G02*
X134539999Y-103440000I249999J0D01*
G01*
X135190001Y-103440000D01*
G75*
G02*
X135440000Y-103689999I0J-249999D01*
G01*
X135440000Y-104590001D01*
G75*
G02*
X135190001Y-104840000I-249999J0D01*
G01*
X134539999Y-104840000D01*
G75*
G02*
X134290000Y-104590001I0J249999D01*
G01*
G37*
G36*
G01*
X133165000Y-136086001D02*
X133165000Y-135185999D01*
G75*
G02*
X133414999Y-134936000I249999J0D01*
G01*
X134065001Y-134936000D01*
G75*
G02*
X134315000Y-135185999I0J-249999D01*
G01*
X134315000Y-136086001D01*
G75*
G02*
X134065001Y-136336000I-249999J0D01*
G01*
X133414999Y-136336000D01*
G75*
G02*
X133165000Y-136086001I0J249999D01*
G01*
G37*
G36*
G01*
X131115000Y-136086001D02*
X131115000Y-135185999D01*
G75*
G02*
X131364999Y-134936000I249999J0D01*
G01*
X132015001Y-134936000D01*
G75*
G02*
X132265000Y-135185999I0J-249999D01*
G01*
X132265000Y-136086001D01*
G75*
G02*
X132015001Y-136336000I-249999J0D01*
G01*
X131364999Y-136336000D01*
G75*
G02*
X131115000Y-136086001I0J249999D01*
G01*
G37*
G36*
G01*
X133165000Y-133800001D02*
X133165000Y-132899999D01*
G75*
G02*
X133414999Y-132650000I249999J0D01*
G01*
X134065001Y-132650000D01*
G75*
G02*
X134315000Y-132899999I0J-249999D01*
G01*
X134315000Y-133800001D01*
G75*
G02*
X134065001Y-134050000I-249999J0D01*
G01*
X133414999Y-134050000D01*
G75*
G02*
X133165000Y-133800001I0J249999D01*
G01*
G37*
G36*
G01*
X131115000Y-133800001D02*
X131115000Y-132899999D01*
G75*
G02*
X131364999Y-132650000I249999J0D01*
G01*
X132015001Y-132650000D01*
G75*
G02*
X132265000Y-132899999I0J-249999D01*
G01*
X132265000Y-133800001D01*
G75*
G02*
X132015001Y-134050000I-249999J0D01*
G01*
X131364999Y-134050000D01*
G75*
G02*
X131115000Y-133800001I0J249999D01*
G01*
G37*
G36*
G01*
X133165000Y-122370001D02*
X133165000Y-121469999D01*
G75*
G02*
X133414999Y-121220000I249999J0D01*
G01*
X134065001Y-121220000D01*
G75*
G02*
X134315000Y-121469999I0J-249999D01*
G01*
X134315000Y-122370001D01*
G75*
G02*
X134065001Y-122620000I-249999J0D01*
G01*
X133414999Y-122620000D01*
G75*
G02*
X133165000Y-122370001I0J249999D01*
G01*
G37*
G36*
G01*
X131115000Y-122370001D02*
X131115000Y-121469999D01*
G75*
G02*
X131364999Y-121220000I249999J0D01*
G01*
X132015001Y-121220000D01*
G75*
G02*
X132265000Y-121469999I0J-249999D01*
G01*
X132265000Y-122370001D01*
G75*
G02*
X132015001Y-122620000I-249999J0D01*
G01*
X131364999Y-122620000D01*
G75*
G02*
X131115000Y-122370001I0J249999D01*
G01*
G37*
G36*
G01*
X133165000Y-124910001D02*
X133165000Y-124009999D01*
G75*
G02*
X133414999Y-123760000I249999J0D01*
G01*
X134065001Y-123760000D01*
G75*
G02*
X134315000Y-124009999I0J-249999D01*
G01*
X134315000Y-124910001D01*
G75*
G02*
X134065001Y-125160000I-249999J0D01*
G01*
X133414999Y-125160000D01*
G75*
G02*
X133165000Y-124910001I0J249999D01*
G01*
G37*
G36*
G01*
X131115000Y-124910001D02*
X131115000Y-124009999D01*
G75*
G02*
X131364999Y-123760000I249999J0D01*
G01*
X132015001Y-123760000D01*
G75*
G02*
X132265000Y-124009999I0J-249999D01*
G01*
X132265000Y-124910001D01*
G75*
G02*
X132015001Y-125160000I-249999J0D01*
G01*
X131364999Y-125160000D01*
G75*
G02*
X131115000Y-124910001I0J249999D01*
G01*
G37*
G36*
G01*
X132265000Y-130359999D02*
X132265000Y-131260001D01*
G75*
G02*
X132015001Y-131510000I-249999J0D01*
G01*
X131364999Y-131510000D01*
G75*
G02*
X131115000Y-131260001I0J249999D01*
G01*
X131115000Y-130359999D01*
G75*
G02*
X131364999Y-130110000I249999J0D01*
G01*
X132015001Y-130110000D01*
G75*
G02*
X132265000Y-130359999I0J-249999D01*
G01*
G37*
G36*
G01*
X134315000Y-130359999D02*
X134315000Y-131260001D01*
G75*
G02*
X134065001Y-131510000I-249999J0D01*
G01*
X133414999Y-131510000D01*
G75*
G02*
X133165000Y-131260001I0J249999D01*
G01*
X133165000Y-130359999D01*
G75*
G02*
X133414999Y-130110000I249999J0D01*
G01*
X134065001Y-130110000D01*
G75*
G02*
X134315000Y-130359999I0J-249999D01*
G01*
G37*
G36*
G01*
X132265000Y-116389999D02*
X132265000Y-117290001D01*
G75*
G02*
X132015001Y-117540000I-249999J0D01*
G01*
X131364999Y-117540000D01*
G75*
G02*
X131115000Y-117290001I0J249999D01*
G01*
X131115000Y-116389999D01*
G75*
G02*
X131364999Y-116140000I249999J0D01*
G01*
X132015001Y-116140000D01*
G75*
G02*
X132265000Y-116389999I0J-249999D01*
G01*
G37*
G36*
G01*
X134315000Y-116389999D02*
X134315000Y-117290001D01*
G75*
G02*
X134065001Y-117540000I-249999J0D01*
G01*
X133414999Y-117540000D01*
G75*
G02*
X133165000Y-117290001I0J249999D01*
G01*
X133165000Y-116389999D01*
G75*
G02*
X133414999Y-116140000I249999J0D01*
G01*
X134065001Y-116140000D01*
G75*
G02*
X134315000Y-116389999I0J-249999D01*
G01*
G37*
G36*
G01*
X132265000Y-118929999D02*
X132265000Y-119830001D01*
G75*
G02*
X132015001Y-120080000I-249999J0D01*
G01*
X131364999Y-120080000D01*
G75*
G02*
X131115000Y-119830001I0J249999D01*
G01*
X131115000Y-118929999D01*
G75*
G02*
X131364999Y-118680000I249999J0D01*
G01*
X132015001Y-118680000D01*
G75*
G02*
X132265000Y-118929999I0J-249999D01*
G01*
G37*
G36*
G01*
X134315000Y-118929999D02*
X134315000Y-119830001D01*
G75*
G02*
X134065001Y-120080000I-249999J0D01*
G01*
X133414999Y-120080000D01*
G75*
G02*
X133165000Y-119830001I0J249999D01*
G01*
X133165000Y-118929999D01*
G75*
G02*
X133414999Y-118680000I249999J0D01*
G01*
X134065001Y-118680000D01*
G75*
G02*
X134315000Y-118929999I0J-249999D01*
G01*
G37*
G36*
G01*
X143060000Y-141789999D02*
X143060000Y-142690001D01*
G75*
G02*
X142810001Y-142940000I-249999J0D01*
G01*
X142159999Y-142940000D01*
G75*
G02*
X141910000Y-142690001I0J249999D01*
G01*
X141910000Y-141789999D01*
G75*
G02*
X142159999Y-141540000I249999J0D01*
G01*
X142810001Y-141540000D01*
G75*
G02*
X143060000Y-141789999I0J-249999D01*
G01*
G37*
G36*
G01*
X145110000Y-141789999D02*
X145110000Y-142690001D01*
G75*
G02*
X144860001Y-142940000I-249999J0D01*
G01*
X144209999Y-142940000D01*
G75*
G02*
X143960000Y-142690001I0J249999D01*
G01*
X143960000Y-141789999D01*
G75*
G02*
X144209999Y-141540000I249999J0D01*
G01*
X144860001Y-141540000D01*
G75*
G02*
X145110000Y-141789999I0J-249999D01*
G01*
G37*
G36*
G01*
X143060000Y-126549999D02*
X143060000Y-127450001D01*
G75*
G02*
X142810001Y-127700000I-249999J0D01*
G01*
X142159999Y-127700000D01*
G75*
G02*
X141910000Y-127450001I0J249999D01*
G01*
X141910000Y-126549999D01*
G75*
G02*
X142159999Y-126300000I249999J0D01*
G01*
X142810001Y-126300000D01*
G75*
G02*
X143060000Y-126549999I0J-249999D01*
G01*
G37*
G36*
G01*
X145110000Y-126549999D02*
X145110000Y-127450001D01*
G75*
G02*
X144860001Y-127700000I-249999J0D01*
G01*
X144209999Y-127700000D01*
G75*
G02*
X143960000Y-127450001I0J249999D01*
G01*
X143960000Y-126549999D01*
G75*
G02*
X144209999Y-126300000I249999J0D01*
G01*
X144860001Y-126300000D01*
G75*
G02*
X145110000Y-126549999I0J-249999D01*
G01*
G37*
G36*
G01*
X141157000Y-66490001D02*
X141157000Y-65589999D01*
G75*
G02*
X141406999Y-65340000I249999J0D01*
G01*
X142057001Y-65340000D01*
G75*
G02*
X142307000Y-65589999I0J-249999D01*
G01*
X142307000Y-66490001D01*
G75*
G02*
X142057001Y-66740000I-249999J0D01*
G01*
X141406999Y-66740000D01*
G75*
G02*
X141157000Y-66490001I0J249999D01*
G01*
G37*
G36*
G01*
X139107000Y-66490001D02*
X139107000Y-65589999D01*
G75*
G02*
X139356999Y-65340000I249999J0D01*
G01*
X140007001Y-65340000D01*
G75*
G02*
X140257000Y-65589999I0J-249999D01*
G01*
X140257000Y-66490001D01*
G75*
G02*
X140007001Y-66740000I-249999J0D01*
G01*
X139356999Y-66740000D01*
G75*
G02*
X139107000Y-66490001I0J249999D01*
G01*
G37*
G36*
G01*
X126942000Y-140150001D02*
X126942000Y-139249999D01*
G75*
G02*
X127191999Y-139000000I249999J0D01*
G01*
X127842001Y-139000000D01*
G75*
G02*
X128092000Y-139249999I0J-249999D01*
G01*
X128092000Y-140150001D01*
G75*
G02*
X127842001Y-140400000I-249999J0D01*
G01*
X127191999Y-140400000D01*
G75*
G02*
X126942000Y-140150001I0J249999D01*
G01*
G37*
G36*
G01*
X124892000Y-140150001D02*
X124892000Y-139249999D01*
G75*
G02*
X125141999Y-139000000I249999J0D01*
G01*
X125792001Y-139000000D01*
G75*
G02*
X126042000Y-139249999I0J-249999D01*
G01*
X126042000Y-140150001D01*
G75*
G02*
X125792001Y-140400000I-249999J0D01*
G01*
X125141999Y-140400000D01*
G75*
G02*
X124892000Y-140150001I0J249999D01*
G01*
G37*
G36*
G01*
X136340000Y-86810001D02*
X136340000Y-85909999D01*
G75*
G02*
X136589999Y-85660000I249999J0D01*
G01*
X137240001Y-85660000D01*
G75*
G02*
X137490000Y-85909999I0J-249999D01*
G01*
X137490000Y-86810001D01*
G75*
G02*
X137240001Y-87060000I-249999J0D01*
G01*
X136589999Y-87060000D01*
G75*
G02*
X136340000Y-86810001I0J249999D01*
G01*
G37*
G36*
G01*
X134290000Y-86810001D02*
X134290000Y-85909999D01*
G75*
G02*
X134539999Y-85660000I249999J0D01*
G01*
X135190001Y-85660000D01*
G75*
G02*
X135440000Y-85909999I0J-249999D01*
G01*
X135440000Y-86810001D01*
G75*
G02*
X135190001Y-87060000I-249999J0D01*
G01*
X134539999Y-87060000D01*
G75*
G02*
X134290000Y-86810001I0J249999D01*
G01*
G37*
G36*
G01*
X140275000Y-63049999D02*
X140275000Y-63950001D01*
G75*
G02*
X140025001Y-64200000I-249999J0D01*
G01*
X139374999Y-64200000D01*
G75*
G02*
X139125000Y-63950001I0J249999D01*
G01*
X139125000Y-63049999D01*
G75*
G02*
X139374999Y-62800000I249999J0D01*
G01*
X140025001Y-62800000D01*
G75*
G02*
X140275000Y-63049999I0J-249999D01*
G01*
G37*
G36*
G01*
X142325000Y-63049999D02*
X142325000Y-63950001D01*
G75*
G02*
X142075001Y-64200000I-249999J0D01*
G01*
X141424999Y-64200000D01*
G75*
G02*
X141175000Y-63950001I0J249999D01*
G01*
X141175000Y-63049999D01*
G75*
G02*
X141424999Y-62800000I249999J0D01*
G01*
X142075001Y-62800000D01*
G75*
G02*
X142325000Y-63049999I0J-249999D01*
G01*
G37*
G36*
G01*
X131260000Y-140150001D02*
X131260000Y-139249999D01*
G75*
G02*
X131509999Y-139000000I249999J0D01*
G01*
X132160001Y-139000000D01*
G75*
G02*
X132410000Y-139249999I0J-249999D01*
G01*
X132410000Y-140150001D01*
G75*
G02*
X132160001Y-140400000I-249999J0D01*
G01*
X131509999Y-140400000D01*
G75*
G02*
X131260000Y-140150001I0J249999D01*
G01*
G37*
G36*
G01*
X129210000Y-140150001D02*
X129210000Y-139249999D01*
G75*
G02*
X129459999Y-139000000I249999J0D01*
G01*
X130110001Y-139000000D01*
G75*
G02*
X130360000Y-139249999I0J-249999D01*
G01*
X130360000Y-140150001D01*
G75*
G02*
X130110001Y-140400000I-249999J0D01*
G01*
X129459999Y-140400000D01*
G75*
G02*
X129210000Y-140150001I0J249999D01*
G01*
G37*
G36*
G01*
X140257000Y-57969999D02*
X140257000Y-58870001D01*
G75*
G02*
X140007001Y-59120000I-249999J0D01*
G01*
X139356999Y-59120000D01*
G75*
G02*
X139107000Y-58870001I0J249999D01*
G01*
X139107000Y-57969999D01*
G75*
G02*
X139356999Y-57720000I249999J0D01*
G01*
X140007001Y-57720000D01*
G75*
G02*
X140257000Y-57969999I0J-249999D01*
G01*
G37*
G36*
G01*
X142307000Y-57969999D02*
X142307000Y-58870001D01*
G75*
G02*
X142057001Y-59120000I-249999J0D01*
G01*
X141406999Y-59120000D01*
G75*
G02*
X141157000Y-58870001I0J249999D01*
G01*
X141157000Y-57969999D01*
G75*
G02*
X141406999Y-57720000I249999J0D01*
G01*
X142057001Y-57720000D01*
G75*
G02*
X142307000Y-57969999I0J-249999D01*
G01*
G37*
G36*
G01*
X131260000Y-144976001D02*
X131260000Y-144075999D01*
G75*
G02*
X131509999Y-143826000I249999J0D01*
G01*
X132160001Y-143826000D01*
G75*
G02*
X132410000Y-144075999I0J-249999D01*
G01*
X132410000Y-144976001D01*
G75*
G02*
X132160001Y-145226000I-249999J0D01*
G01*
X131509999Y-145226000D01*
G75*
G02*
X131260000Y-144976001I0J249999D01*
G01*
G37*
G36*
G01*
X129210000Y-144976001D02*
X129210000Y-144075999D01*
G75*
G02*
X129459999Y-143826000I249999J0D01*
G01*
X130110001Y-143826000D01*
G75*
G02*
X130360000Y-144075999I0J-249999D01*
G01*
X130360000Y-144976001D01*
G75*
G02*
X130110001Y-145226000I-249999J0D01*
G01*
X129459999Y-145226000D01*
G75*
G02*
X129210000Y-144976001I0J249999D01*
G01*
G37*
G36*
G01*
X135440000Y-80829999D02*
X135440000Y-81730001D01*
G75*
G02*
X135190001Y-81980000I-249999J0D01*
G01*
X134539999Y-81980000D01*
G75*
G02*
X134290000Y-81730001I0J249999D01*
G01*
X134290000Y-80829999D01*
G75*
G02*
X134539999Y-80580000I249999J0D01*
G01*
X135190001Y-80580000D01*
G75*
G02*
X135440000Y-80829999I0J-249999D01*
G01*
G37*
G36*
G01*
X137490000Y-80829999D02*
X137490000Y-81730001D01*
G75*
G02*
X137240001Y-81980000I-249999J0D01*
G01*
X136589999Y-81980000D01*
G75*
G02*
X136340000Y-81730001I0J249999D01*
G01*
X136340000Y-80829999D01*
G75*
G02*
X136589999Y-80580000I249999J0D01*
G01*
X137240001Y-80580000D01*
G75*
G02*
X137490000Y-80829999I0J-249999D01*
G01*
G37*
G36*
G01*
X135440000Y-83369999D02*
X135440000Y-84270001D01*
G75*
G02*
X135190001Y-84520000I-249999J0D01*
G01*
X134539999Y-84520000D01*
G75*
G02*
X134290000Y-84270001I0J249999D01*
G01*
X134290000Y-83369999D01*
G75*
G02*
X134539999Y-83120000I249999J0D01*
G01*
X135190001Y-83120000D01*
G75*
G02*
X135440000Y-83369999I0J-249999D01*
G01*
G37*
G36*
G01*
X137490000Y-83369999D02*
X137490000Y-84270001D01*
G75*
G02*
X137240001Y-84520000I-249999J0D01*
G01*
X136589999Y-84520000D01*
G75*
G02*
X136340000Y-84270001I0J249999D01*
G01*
X136340000Y-83369999D01*
G75*
G02*
X136589999Y-83120000I249999J0D01*
G01*
X137240001Y-83120000D01*
G75*
G02*
X137490000Y-83369999I0J-249999D01*
G01*
G37*
G36*
G01*
X123395000Y-85540001D02*
X123395000Y-84639999D01*
G75*
G02*
X123644999Y-84390000I249999J0D01*
G01*
X124295001Y-84390000D01*
G75*
G02*
X124545000Y-84639999I0J-249999D01*
G01*
X124545000Y-85540001D01*
G75*
G02*
X124295001Y-85790000I-249999J0D01*
G01*
X123644999Y-85790000D01*
G75*
G02*
X123395000Y-85540001I0J249999D01*
G01*
G37*
G36*
G01*
X121345000Y-85540001D02*
X121345000Y-84639999D01*
G75*
G02*
X121594999Y-84390000I249999J0D01*
G01*
X122245001Y-84390000D01*
G75*
G02*
X122495000Y-84639999I0J-249999D01*
G01*
X122495000Y-85540001D01*
G75*
G02*
X122245001Y-85790000I-249999J0D01*
G01*
X121594999Y-85790000D01*
G75*
G02*
X121345000Y-85540001I0J249999D01*
G01*
G37*
G36*
G01*
X122495000Y-82099999D02*
X122495000Y-83000001D01*
G75*
G02*
X122245001Y-83250000I-249999J0D01*
G01*
X121594999Y-83250000D01*
G75*
G02*
X121345000Y-83000001I0J249999D01*
G01*
X121345000Y-82099999D01*
G75*
G02*
X121594999Y-81850000I249999J0D01*
G01*
X122245001Y-81850000D01*
G75*
G02*
X122495000Y-82099999I0J-249999D01*
G01*
G37*
G36*
G01*
X124545000Y-82099999D02*
X124545000Y-83000001D01*
G75*
G02*
X124295001Y-83250000I-249999J0D01*
G01*
X123644999Y-83250000D01*
G75*
G02*
X123395000Y-83000001I0J249999D01*
G01*
X123395000Y-82099999D01*
G75*
G02*
X123644999Y-81850000I249999J0D01*
G01*
X124295001Y-81850000D01*
G75*
G02*
X124545000Y-82099999I0J-249999D01*
G01*
G37*
G36*
G01*
X148385000Y-90989999D02*
X148385000Y-91890001D01*
G75*
G02*
X148135001Y-92140000I-249999J0D01*
G01*
X147484999Y-92140000D01*
G75*
G02*
X147235000Y-91890001I0J249999D01*
G01*
X147235000Y-90989999D01*
G75*
G02*
X147484999Y-90740000I249999J0D01*
G01*
X148135001Y-90740000D01*
G75*
G02*
X148385000Y-90989999I0J-249999D01*
G01*
G37*
G36*
G01*
X150435000Y-90989999D02*
X150435000Y-91890001D01*
G75*
G02*
X150185001Y-92140000I-249999J0D01*
G01*
X149534999Y-92140000D01*
G75*
G02*
X149285000Y-91890001I0J249999D01*
G01*
X149285000Y-90989999D01*
G75*
G02*
X149534999Y-90740000I249999J0D01*
G01*
X150185001Y-90740000D01*
G75*
G02*
X150435000Y-90989999I0J-249999D01*
G01*
G37*
D10*
X191209800Y-85420200D03*
X194209800Y-86370200D03*
X194209800Y-84470200D03*
X172950000Y-117475000D03*
X169950000Y-116525000D03*
X169950000Y-118425000D03*
X163600000Y-121605000D03*
X166600000Y-122555000D03*
X166600000Y-120655000D03*
X163600000Y-117475000D03*
X166600000Y-118425000D03*
X166600000Y-116525000D03*
X172950000Y-121605000D03*
X169950000Y-120655000D03*
X169950000Y-122555000D03*
X185037600Y-113563400D03*
X188037600Y-114513400D03*
X188037600Y-112613400D03*
X110895000Y-75565000D03*
X113895000Y-76515000D03*
X113895000Y-74615000D03*
X129135000Y-118110000D03*
X126135000Y-117160000D03*
X126135000Y-119060000D03*
X119785000Y-123190000D03*
X122785000Y-124140000D03*
X122785000Y-122240000D03*
X119555000Y-118110000D03*
X122555000Y-119060000D03*
X122555000Y-117160000D03*
X129135000Y-123190000D03*
X126135000Y-122240000D03*
X126135000Y-124140000D03*
X142645000Y-112395000D03*
X145645000Y-113345000D03*
X145645000Y-111445000D03*
D11*
X189154800Y-78435200D03*
X192454800Y-78435200D03*
X163831000Y-112395000D03*
X167131000Y-112395000D03*
X188567600Y-119278400D03*
X185267600Y-119278400D03*
X148845000Y-69850000D03*
X152145000Y-69850000D03*
X148972000Y-72644000D03*
X152272000Y-72644000D03*
X167895000Y-132715000D03*
X171195000Y-132715000D03*
X167895000Y-135890000D03*
X171195000Y-135890000D03*
X112270000Y-81280000D03*
X115570000Y-81280000D03*
X124840000Y-114300000D03*
X121540000Y-114300000D03*
X142697200Y-120243600D03*
X145997200Y-120243600D03*
X139067000Y-68961000D03*
X142367000Y-68961000D03*
X139067000Y-71882000D03*
X142367000Y-71882000D03*
X124842000Y-134112000D03*
X128142000Y-134112000D03*
X124842000Y-137160000D03*
X128142000Y-137160000D03*
G36*
G01*
X165931000Y-91255001D02*
X165931000Y-90354999D01*
G75*
G02*
X166180999Y-90105000I249999J0D01*
G01*
X166831001Y-90105000D01*
G75*
G02*
X167081000Y-90354999I0J-249999D01*
G01*
X167081000Y-91255001D01*
G75*
G02*
X166831001Y-91505000I-249999J0D01*
G01*
X166180999Y-91505000D01*
G75*
G02*
X165931000Y-91255001I0J249999D01*
G01*
G37*
G36*
G01*
X163881000Y-91255001D02*
X163881000Y-90354999D01*
G75*
G02*
X164130999Y-90105000I249999J0D01*
G01*
X164781001Y-90105000D01*
G75*
G02*
X165031000Y-90354999I0J-249999D01*
G01*
X165031000Y-91255001D01*
G75*
G02*
X164781001Y-91505000I-249999J0D01*
G01*
X164130999Y-91505000D01*
G75*
G02*
X163881000Y-91255001I0J249999D01*
G01*
G37*
G36*
G01*
X177731000Y-90608999D02*
X177731000Y-91509001D01*
G75*
G02*
X177481001Y-91759000I-249999J0D01*
G01*
X176830999Y-91759000D01*
G75*
G02*
X176581000Y-91509001I0J249999D01*
G01*
X176581000Y-90608999D01*
G75*
G02*
X176830999Y-90359000I249999J0D01*
G01*
X177481001Y-90359000D01*
G75*
G02*
X177731000Y-90608999I0J-249999D01*
G01*
G37*
G36*
G01*
X179781000Y-90608999D02*
X179781000Y-91509001D01*
G75*
G02*
X179531001Y-91759000I-249999J0D01*
G01*
X178880999Y-91759000D01*
G75*
G02*
X178631000Y-91509001I0J249999D01*
G01*
X178631000Y-90608999D01*
G75*
G02*
X178880999Y-90359000I249999J0D01*
G01*
X179531001Y-90359000D01*
G75*
G02*
X179781000Y-90608999I0J-249999D01*
G01*
G37*
G36*
G01*
X177731000Y-103943999D02*
X177731000Y-104844001D01*
G75*
G02*
X177481001Y-105094000I-249999J0D01*
G01*
X176830999Y-105094000D01*
G75*
G02*
X176581000Y-104844001I0J249999D01*
G01*
X176581000Y-103943999D01*
G75*
G02*
X176830999Y-103694000I249999J0D01*
G01*
X177481001Y-103694000D01*
G75*
G02*
X177731000Y-103943999I0J-249999D01*
G01*
G37*
G36*
G01*
X179781000Y-103943999D02*
X179781000Y-104844001D01*
G75*
G02*
X179531001Y-105094000I-249999J0D01*
G01*
X178880999Y-105094000D01*
G75*
G02*
X178631000Y-104844001I0J249999D01*
G01*
X178631000Y-103943999D01*
G75*
G02*
X178880999Y-103694000I249999J0D01*
G01*
X179531001Y-103694000D01*
G75*
G02*
X179781000Y-103943999I0J-249999D01*
G01*
G37*
G36*
G01*
X150045000Y-61779999D02*
X150045000Y-62680001D01*
G75*
G02*
X149795001Y-62930000I-249999J0D01*
G01*
X149144999Y-62930000D01*
G75*
G02*
X148895000Y-62680001I0J249999D01*
G01*
X148895000Y-61779999D01*
G75*
G02*
X149144999Y-61530000I249999J0D01*
G01*
X149795001Y-61530000D01*
G75*
G02*
X150045000Y-61779999I0J-249999D01*
G01*
G37*
G36*
G01*
X152095000Y-61779999D02*
X152095000Y-62680001D01*
G75*
G02*
X151845001Y-62930000I-249999J0D01*
G01*
X151194999Y-62930000D01*
G75*
G02*
X150945000Y-62680001I0J249999D01*
G01*
X150945000Y-61779999D01*
G75*
G02*
X151194999Y-61530000I249999J0D01*
G01*
X151845001Y-61530000D01*
G75*
G02*
X152095000Y-61779999I0J-249999D01*
G01*
G37*
G36*
G01*
X173540000Y-141154999D02*
X173540000Y-142055001D01*
G75*
G02*
X173290001Y-142305000I-249999J0D01*
G01*
X172639999Y-142305000D01*
G75*
G02*
X172390000Y-142055001I0J249999D01*
G01*
X172390000Y-141154999D01*
G75*
G02*
X172639999Y-140905000I249999J0D01*
G01*
X173290001Y-140905000D01*
G75*
G02*
X173540000Y-141154999I0J-249999D01*
G01*
G37*
G36*
G01*
X175590000Y-141154999D02*
X175590000Y-142055001D01*
G75*
G02*
X175340001Y-142305000I-249999J0D01*
G01*
X174689999Y-142305000D01*
G75*
G02*
X174440000Y-142055001I0J249999D01*
G01*
X174440000Y-141154999D01*
G75*
G02*
X174689999Y-140905000I249999J0D01*
G01*
X175340001Y-140905000D01*
G75*
G02*
X175590000Y-141154999I0J-249999D01*
G01*
G37*
G36*
G01*
X170400000Y-78550001D02*
X170400000Y-77649999D01*
G75*
G02*
X170649999Y-77400000I249999J0D01*
G01*
X171300001Y-77400000D01*
G75*
G02*
X171550000Y-77649999I0J-249999D01*
G01*
X171550000Y-78550001D01*
G75*
G02*
X171300001Y-78800000I-249999J0D01*
G01*
X170649999Y-78800000D01*
G75*
G02*
X170400000Y-78550001I0J249999D01*
G01*
G37*
G36*
G01*
X168350000Y-78550001D02*
X168350000Y-77649999D01*
G75*
G02*
X168599999Y-77400000I249999J0D01*
G01*
X169250001Y-77400000D01*
G75*
G02*
X169500000Y-77649999I0J-249999D01*
G01*
X169500000Y-78550001D01*
G75*
G02*
X169250001Y-78800000I-249999J0D01*
G01*
X168599999Y-78800000D01*
G75*
G02*
X168350000Y-78550001I0J249999D01*
G01*
G37*
G36*
G01*
X174413440Y-79126501D02*
X174413440Y-78226499D01*
G75*
G02*
X174663439Y-77976500I249999J0D01*
G01*
X175313441Y-77976500D01*
G75*
G02*
X175563440Y-78226499I0J-249999D01*
G01*
X175563440Y-79126501D01*
G75*
G02*
X175313441Y-79376500I-249999J0D01*
G01*
X174663439Y-79376500D01*
G75*
G02*
X174413440Y-79126501I0J249999D01*
G01*
G37*
G36*
G01*
X172363440Y-79126501D02*
X172363440Y-78226499D01*
G75*
G02*
X172613439Y-77976500I249999J0D01*
G01*
X173263441Y-77976500D01*
G75*
G02*
X173513440Y-78226499I0J-249999D01*
G01*
X173513440Y-79126501D01*
G75*
G02*
X173263441Y-79376500I-249999J0D01*
G01*
X172613439Y-79376500D01*
G75*
G02*
X172363440Y-79126501I0J249999D01*
G01*
G37*
G36*
G01*
X169050000Y-88150001D02*
X169050000Y-87249999D01*
G75*
G02*
X169299999Y-87000000I249999J0D01*
G01*
X169950001Y-87000000D01*
G75*
G02*
X170200000Y-87249999I0J-249999D01*
G01*
X170200000Y-88150001D01*
G75*
G02*
X169950001Y-88400000I-249999J0D01*
G01*
X169299999Y-88400000D01*
G75*
G02*
X169050000Y-88150001I0J249999D01*
G01*
G37*
G36*
G01*
X167000000Y-88150001D02*
X167000000Y-87249999D01*
G75*
G02*
X167249999Y-87000000I249999J0D01*
G01*
X167900001Y-87000000D01*
G75*
G02*
X168150000Y-87249999I0J-249999D01*
G01*
X168150000Y-88150001D01*
G75*
G02*
X167900001Y-88400000I-249999J0D01*
G01*
X167249999Y-88400000D01*
G75*
G02*
X167000000Y-88150001I0J249999D01*
G01*
G37*
G36*
G01*
X174625000Y-96800001D02*
X174625000Y-95899999D01*
G75*
G02*
X174874999Y-95650000I249999J0D01*
G01*
X175525001Y-95650000D01*
G75*
G02*
X175775000Y-95899999I0J-249999D01*
G01*
X175775000Y-96800001D01*
G75*
G02*
X175525001Y-97050000I-249999J0D01*
G01*
X174874999Y-97050000D01*
G75*
G02*
X174625000Y-96800001I0J249999D01*
G01*
G37*
G36*
G01*
X172575000Y-96800001D02*
X172575000Y-95899999D01*
G75*
G02*
X172824999Y-95650000I249999J0D01*
G01*
X173475001Y-95650000D01*
G75*
G02*
X173725000Y-95899999I0J-249999D01*
G01*
X173725000Y-96800001D01*
G75*
G02*
X173475001Y-97050000I-249999J0D01*
G01*
X172824999Y-97050000D01*
G75*
G02*
X172575000Y-96800001I0J249999D01*
G01*
G37*
G36*
G01*
X123435420Y-88044441D02*
X123435420Y-87144439D01*
G75*
G02*
X123685419Y-86894440I249999J0D01*
G01*
X124335421Y-86894440D01*
G75*
G02*
X124585420Y-87144439I0J-249999D01*
G01*
X124585420Y-88044441D01*
G75*
G02*
X124335421Y-88294440I-249999J0D01*
G01*
X123685419Y-88294440D01*
G75*
G02*
X123435420Y-88044441I0J249999D01*
G01*
G37*
G36*
G01*
X121385420Y-88044441D02*
X121385420Y-87144439D01*
G75*
G02*
X121635419Y-86894440I249999J0D01*
G01*
X122285421Y-86894440D01*
G75*
G02*
X122535420Y-87144439I0J-249999D01*
G01*
X122535420Y-88044441D01*
G75*
G02*
X122285421Y-88294440I-249999J0D01*
G01*
X121635419Y-88294440D01*
G75*
G02*
X121385420Y-88044441I0J249999D01*
G01*
G37*
G36*
G01*
X131843040Y-97137641D02*
X131843040Y-96237639D01*
G75*
G02*
X132093039Y-95987640I249999J0D01*
G01*
X132743041Y-95987640D01*
G75*
G02*
X132993040Y-96237639I0J-249999D01*
G01*
X132993040Y-97137641D01*
G75*
G02*
X132743041Y-97387640I-249999J0D01*
G01*
X132093039Y-97387640D01*
G75*
G02*
X131843040Y-97137641I0J249999D01*
G01*
G37*
G36*
G01*
X129793040Y-97137641D02*
X129793040Y-96237639D01*
G75*
G02*
X130043039Y-95987640I249999J0D01*
G01*
X130693041Y-95987640D01*
G75*
G02*
X130943040Y-96237639I0J-249999D01*
G01*
X130943040Y-97137641D01*
G75*
G02*
X130693041Y-97387640I-249999J0D01*
G01*
X130043039Y-97387640D01*
G75*
G02*
X129793040Y-97137641I0J249999D01*
G01*
G37*
G36*
G01*
X128303440Y-77869201D02*
X128303440Y-76969199D01*
G75*
G02*
X128553439Y-76719200I249999J0D01*
G01*
X129203441Y-76719200D01*
G75*
G02*
X129453440Y-76969199I0J-249999D01*
G01*
X129453440Y-77869201D01*
G75*
G02*
X129203441Y-78119200I-249999J0D01*
G01*
X128553439Y-78119200D01*
G75*
G02*
X128303440Y-77869201I0J249999D01*
G01*
G37*
G36*
G01*
X126253440Y-77869201D02*
X126253440Y-76969199D01*
G75*
G02*
X126503439Y-76719200I249999J0D01*
G01*
X127153441Y-76719200D01*
G75*
G02*
X127403440Y-76969199I0J-249999D01*
G01*
X127403440Y-77869201D01*
G75*
G02*
X127153441Y-78119200I-249999J0D01*
G01*
X126503439Y-78119200D01*
G75*
G02*
X126253440Y-77869201I0J249999D01*
G01*
G37*
G36*
G01*
X132145300Y-77856501D02*
X132145300Y-76956499D01*
G75*
G02*
X132395299Y-76706500I249999J0D01*
G01*
X133045301Y-76706500D01*
G75*
G02*
X133295300Y-76956499I0J-249999D01*
G01*
X133295300Y-77856501D01*
G75*
G02*
X133045301Y-78106500I-249999J0D01*
G01*
X132395299Y-78106500D01*
G75*
G02*
X132145300Y-77856501I0J249999D01*
G01*
G37*
G36*
G01*
X130095300Y-77856501D02*
X130095300Y-76956499D01*
G75*
G02*
X130345299Y-76706500I249999J0D01*
G01*
X130995301Y-76706500D01*
G75*
G02*
X131245300Y-76956499I0J-249999D01*
G01*
X131245300Y-77856501D01*
G75*
G02*
X130995301Y-78106500I-249999J0D01*
G01*
X130345299Y-78106500D01*
G75*
G02*
X130095300Y-77856501I0J249999D01*
G01*
G37*
G36*
G01*
X176150800Y-110127201D02*
X176150800Y-109227199D01*
G75*
G02*
X176400799Y-108977200I249999J0D01*
G01*
X177050801Y-108977200D01*
G75*
G02*
X177300800Y-109227199I0J-249999D01*
G01*
X177300800Y-110127201D01*
G75*
G02*
X177050801Y-110377200I-249999J0D01*
G01*
X176400799Y-110377200D01*
G75*
G02*
X176150800Y-110127201I0J249999D01*
G01*
G37*
G36*
G01*
X174100800Y-110127201D02*
X174100800Y-109227199D01*
G75*
G02*
X174350799Y-108977200I249999J0D01*
G01*
X175000801Y-108977200D01*
G75*
G02*
X175250800Y-109227199I0J-249999D01*
G01*
X175250800Y-110127201D01*
G75*
G02*
X175000801Y-110377200I-249999J0D01*
G01*
X174350799Y-110377200D01*
G75*
G02*
X174100800Y-110127201I0J249999D01*
G01*
G37*
G36*
G01*
X133156000Y-112438601D02*
X133156000Y-111538599D01*
G75*
G02*
X133405999Y-111288600I249999J0D01*
G01*
X134056001Y-111288600D01*
G75*
G02*
X134306000Y-111538599I0J-249999D01*
G01*
X134306000Y-112438601D01*
G75*
G02*
X134056001Y-112688600I-249999J0D01*
G01*
X133405999Y-112688600D01*
G75*
G02*
X133156000Y-112438601I0J249999D01*
G01*
G37*
G36*
G01*
X131106000Y-112438601D02*
X131106000Y-111538599D01*
G75*
G02*
X131355999Y-111288600I249999J0D01*
G01*
X132006001Y-111288600D01*
G75*
G02*
X132256000Y-111538599I0J-249999D01*
G01*
X132256000Y-112438601D01*
G75*
G02*
X132006001Y-112688600I-249999J0D01*
G01*
X131355999Y-112688600D01*
G75*
G02*
X131106000Y-112438601I0J249999D01*
G01*
G37*
G36*
G01*
X123395000Y-91890001D02*
X123395000Y-90989999D01*
G75*
G02*
X123644999Y-90740000I249999J0D01*
G01*
X124295001Y-90740000D01*
G75*
G02*
X124545000Y-90989999I0J-249999D01*
G01*
X124545000Y-91890001D01*
G75*
G02*
X124295001Y-92140000I-249999J0D01*
G01*
X123644999Y-92140000D01*
G75*
G02*
X123395000Y-91890001I0J249999D01*
G01*
G37*
G36*
G01*
X121345000Y-91890001D02*
X121345000Y-90989999D01*
G75*
G02*
X121594999Y-90740000I249999J0D01*
G01*
X122245001Y-90740000D01*
G75*
G02*
X122495000Y-90989999I0J-249999D01*
G01*
X122495000Y-91890001D01*
G75*
G02*
X122245001Y-92140000I-249999J0D01*
G01*
X121594999Y-92140000D01*
G75*
G02*
X121345000Y-91890001I0J249999D01*
G01*
G37*
G36*
G01*
X135440000Y-93529999D02*
X135440000Y-94430001D01*
G75*
G02*
X135190001Y-94680000I-249999J0D01*
G01*
X134539999Y-94680000D01*
G75*
G02*
X134290000Y-94430001I0J249999D01*
G01*
X134290000Y-93529999D01*
G75*
G02*
X134539999Y-93280000I249999J0D01*
G01*
X135190001Y-93280000D01*
G75*
G02*
X135440000Y-93529999I0J-249999D01*
G01*
G37*
G36*
G01*
X137490000Y-93529999D02*
X137490000Y-94430001D01*
G75*
G02*
X137240001Y-94680000I-249999J0D01*
G01*
X136589999Y-94680000D01*
G75*
G02*
X136340000Y-94430001I0J249999D01*
G01*
X136340000Y-93529999D01*
G75*
G02*
X136589999Y-93280000I249999J0D01*
G01*
X137240001Y-93280000D01*
G75*
G02*
X137490000Y-93529999I0J-249999D01*
G01*
G37*
G36*
G01*
X136340000Y-107130001D02*
X136340000Y-106229999D01*
G75*
G02*
X136589999Y-105980000I249999J0D01*
G01*
X137240001Y-105980000D01*
G75*
G02*
X137490000Y-106229999I0J-249999D01*
G01*
X137490000Y-107130001D01*
G75*
G02*
X137240001Y-107380000I-249999J0D01*
G01*
X136589999Y-107380000D01*
G75*
G02*
X136340000Y-107130001I0J249999D01*
G01*
G37*
G36*
G01*
X134290000Y-107130001D02*
X134290000Y-106229999D01*
G75*
G02*
X134539999Y-105980000I249999J0D01*
G01*
X135190001Y-105980000D01*
G75*
G02*
X135440000Y-106229999I0J-249999D01*
G01*
X135440000Y-107130001D01*
G75*
G02*
X135190001Y-107380000I-249999J0D01*
G01*
X134539999Y-107380000D01*
G75*
G02*
X134290000Y-107130001I0J249999D01*
G01*
G37*
G36*
G01*
X140275000Y-60509999D02*
X140275000Y-61410001D01*
G75*
G02*
X140025001Y-61660000I-249999J0D01*
G01*
X139374999Y-61660000D01*
G75*
G02*
X139125000Y-61410001I0J249999D01*
G01*
X139125000Y-60509999D01*
G75*
G02*
X139374999Y-60260000I249999J0D01*
G01*
X140025001Y-60260000D01*
G75*
G02*
X140275000Y-60509999I0J-249999D01*
G01*
G37*
G36*
G01*
X142325000Y-60509999D02*
X142325000Y-61410001D01*
G75*
G02*
X142075001Y-61660000I-249999J0D01*
G01*
X141424999Y-61660000D01*
G75*
G02*
X141175000Y-61410001I0J249999D01*
G01*
X141175000Y-60509999D01*
G75*
G02*
X141424999Y-60260000I249999J0D01*
G01*
X142075001Y-60260000D01*
G75*
G02*
X142325000Y-60509999I0J-249999D01*
G01*
G37*
G36*
G01*
X130360000Y-141535999D02*
X130360000Y-142436001D01*
G75*
G02*
X130110001Y-142686000I-249999J0D01*
G01*
X129459999Y-142686000D01*
G75*
G02*
X129210000Y-142436001I0J249999D01*
G01*
X129210000Y-141535999D01*
G75*
G02*
X129459999Y-141286000I249999J0D01*
G01*
X130110001Y-141286000D01*
G75*
G02*
X130360000Y-141535999I0J-249999D01*
G01*
G37*
G36*
G01*
X132410000Y-141535999D02*
X132410000Y-142436001D01*
G75*
G02*
X132160001Y-142686000I-249999J0D01*
G01*
X131509999Y-142686000D01*
G75*
G02*
X131260000Y-142436001I0J249999D01*
G01*
X131260000Y-141535999D01*
G75*
G02*
X131509999Y-141286000I249999J0D01*
G01*
X132160001Y-141286000D01*
G75*
G02*
X132410000Y-141535999I0J-249999D01*
G01*
G37*
M02*
