G04 #@! TF.GenerationSoftware,KiCad,Pcbnew,5.1.6-c6e7f7d~86~ubuntu18.04.1*
G04 #@! TF.CreationDate,2020-06-20T10:02:23-04:00*
G04 #@! TF.ProjectId,sub_osc_board,7375625f-6f73-4635-9f62-6f6172642e6b,rev?*
G04 #@! TF.SameCoordinates,Original*
G04 #@! TF.FileFunction,Copper,L2,Bot*
G04 #@! TF.FilePolarity,Positive*
%FSLAX46Y46*%
G04 Gerber Fmt 4.6, Leading zero omitted, Abs format (unit mm)*
G04 Created by KiCad (PCBNEW 5.1.6-c6e7f7d~86~ubuntu18.04.1) date 2020-06-20 10:02:23*
%MOMM*%
%LPD*%
G01*
G04 APERTURE LIST*
G04 #@! TA.AperFunction,ComponentPad*
%ADD10O,1.700000X1.700000*%
G04 #@! TD*
G04 #@! TA.AperFunction,ComponentPad*
%ADD11R,1.700000X1.700000*%
G04 #@! TD*
G04 #@! TA.AperFunction,ComponentPad*
%ADD12C,0.800000*%
G04 #@! TD*
G04 #@! TA.AperFunction,ComponentPad*
%ADD13C,6.400000*%
G04 #@! TD*
G04 #@! TA.AperFunction,ComponentPad*
%ADD14C,1.440000*%
G04 #@! TD*
G04 #@! TA.AperFunction,ViaPad*
%ADD15C,0.800000*%
G04 #@! TD*
G04 #@! TA.AperFunction,ViaPad*
%ADD16C,1.000000*%
G04 #@! TD*
G04 #@! TA.AperFunction,Conductor*
%ADD17C,0.400000*%
G04 #@! TD*
G04 #@! TA.AperFunction,Conductor*
%ADD18C,1.000000*%
G04 #@! TD*
G04 #@! TA.AperFunction,Conductor*
%ADD19C,0.500000*%
G04 #@! TD*
G04 #@! TA.AperFunction,Conductor*
%ADD20C,0.254000*%
G04 #@! TD*
G04 APERTURE END LIST*
D10*
X80010000Y-118745000D03*
X80010000Y-116205000D03*
D11*
X80010000Y-113665000D03*
D10*
X113030000Y-63500000D03*
X110490000Y-63500000D03*
X113030000Y-66040000D03*
X110490000Y-66040000D03*
X113030000Y-68580000D03*
X110490000Y-68580000D03*
X113030000Y-71120000D03*
X110490000Y-71120000D03*
X113030000Y-73660000D03*
D11*
X110490000Y-73660000D03*
D10*
X80010000Y-108585000D03*
X80010000Y-106045000D03*
D11*
X80010000Y-103505000D03*
D10*
X107950000Y-121920000D03*
X107950000Y-119380000D03*
D11*
X107950000Y-116840000D03*
D10*
X101600000Y-127000000D03*
X99060000Y-127000000D03*
X96520000Y-127000000D03*
X93980000Y-127000000D03*
D11*
X91440000Y-127000000D03*
D12*
X82977056Y-122762944D03*
X81280000Y-122060000D03*
X79582944Y-122762944D03*
X78880000Y-124460000D03*
X79582944Y-126157056D03*
X81280000Y-126860000D03*
X82977056Y-126157056D03*
X83680000Y-124460000D03*
D13*
X81280000Y-124460000D03*
D12*
X82977056Y-54182944D03*
X81280000Y-53480000D03*
X79582944Y-54182944D03*
X78880000Y-55880000D03*
X79582944Y-57577056D03*
X81280000Y-58280000D03*
X82977056Y-57577056D03*
X83680000Y-55880000D03*
D13*
X81280000Y-55880000D03*
D10*
X113030000Y-111760000D03*
X113030000Y-109220000D03*
D11*
X113030000Y-106680000D03*
D10*
X113030000Y-127000000D03*
X113030000Y-124460000D03*
X113030000Y-121920000D03*
X113030000Y-119380000D03*
D11*
X113030000Y-116840000D03*
D14*
X80645000Y-97790000D03*
X80645000Y-95250000D03*
X80645000Y-92710000D03*
X80772000Y-80645000D03*
X80772000Y-78105000D03*
X80772000Y-75565000D03*
G04 #@! TA.AperFunction,SMDPad,CuDef*
G36*
G01*
X86425000Y-60050001D02*
X86425000Y-59149999D01*
G75*
G02*
X86674999Y-58900000I249999J0D01*
G01*
X87325001Y-58900000D01*
G75*
G02*
X87575000Y-59149999I0J-249999D01*
G01*
X87575000Y-60050001D01*
G75*
G02*
X87325001Y-60300000I-249999J0D01*
G01*
X86674999Y-60300000D01*
G75*
G02*
X86425000Y-60050001I0J249999D01*
G01*
G37*
G04 #@! TD.AperFunction*
G04 #@! TA.AperFunction,SMDPad,CuDef*
G36*
G01*
X84375000Y-60050001D02*
X84375000Y-59149999D01*
G75*
G02*
X84624999Y-58900000I249999J0D01*
G01*
X85275001Y-58900000D01*
G75*
G02*
X85525000Y-59149999I0J-249999D01*
G01*
X85525000Y-60050001D01*
G75*
G02*
X85275001Y-60300000I-249999J0D01*
G01*
X84624999Y-60300000D01*
G75*
G02*
X84375000Y-60050001I0J249999D01*
G01*
G37*
G04 #@! TD.AperFunction*
G04 #@! TA.AperFunction,SMDPad,CuDef*
G36*
G01*
X91825000Y-119199999D02*
X91825000Y-120100001D01*
G75*
G02*
X91575001Y-120350000I-249999J0D01*
G01*
X90924999Y-120350000D01*
G75*
G02*
X90675000Y-120100001I0J249999D01*
G01*
X90675000Y-119199999D01*
G75*
G02*
X90924999Y-118950000I249999J0D01*
G01*
X91575001Y-118950000D01*
G75*
G02*
X91825000Y-119199999I0J-249999D01*
G01*
G37*
G04 #@! TD.AperFunction*
G04 #@! TA.AperFunction,SMDPad,CuDef*
G36*
G01*
X93875000Y-119199999D02*
X93875000Y-120100001D01*
G75*
G02*
X93625001Y-120350000I-249999J0D01*
G01*
X92974999Y-120350000D01*
G75*
G02*
X92725000Y-120100001I0J249999D01*
G01*
X92725000Y-119199999D01*
G75*
G02*
X92974999Y-118950000I249999J0D01*
G01*
X93625001Y-118950000D01*
G75*
G02*
X93875000Y-119199999I0J-249999D01*
G01*
G37*
G04 #@! TD.AperFunction*
G04 #@! TA.AperFunction,SMDPad,CuDef*
G36*
G01*
X99325000Y-115199999D02*
X99325000Y-116100001D01*
G75*
G02*
X99075001Y-116350000I-249999J0D01*
G01*
X98424999Y-116350000D01*
G75*
G02*
X98175000Y-116100001I0J249999D01*
G01*
X98175000Y-115199999D01*
G75*
G02*
X98424999Y-114950000I249999J0D01*
G01*
X99075001Y-114950000D01*
G75*
G02*
X99325000Y-115199999I0J-249999D01*
G01*
G37*
G04 #@! TD.AperFunction*
G04 #@! TA.AperFunction,SMDPad,CuDef*
G36*
G01*
X101375000Y-115199999D02*
X101375000Y-116100001D01*
G75*
G02*
X101125001Y-116350000I-249999J0D01*
G01*
X100474999Y-116350000D01*
G75*
G02*
X100225000Y-116100001I0J249999D01*
G01*
X100225000Y-115199999D01*
G75*
G02*
X100474999Y-114950000I249999J0D01*
G01*
X101125001Y-114950000D01*
G75*
G02*
X101375000Y-115199999I0J-249999D01*
G01*
G37*
G04 #@! TD.AperFunction*
G04 #@! TA.AperFunction,SMDPad,CuDef*
G36*
G01*
X91775000Y-110749999D02*
X91775000Y-111650001D01*
G75*
G02*
X91525001Y-111900000I-249999J0D01*
G01*
X90874999Y-111900000D01*
G75*
G02*
X90625000Y-111650001I0J249999D01*
G01*
X90625000Y-110749999D01*
G75*
G02*
X90874999Y-110500000I249999J0D01*
G01*
X91525001Y-110500000D01*
G75*
G02*
X91775000Y-110749999I0J-249999D01*
G01*
G37*
G04 #@! TD.AperFunction*
G04 #@! TA.AperFunction,SMDPad,CuDef*
G36*
G01*
X93825000Y-110749999D02*
X93825000Y-111650001D01*
G75*
G02*
X93575001Y-111900000I-249999J0D01*
G01*
X92924999Y-111900000D01*
G75*
G02*
X92675000Y-111650001I0J249999D01*
G01*
X92675000Y-110749999D01*
G75*
G02*
X92924999Y-110500000I249999J0D01*
G01*
X93575001Y-110500000D01*
G75*
G02*
X93825000Y-110749999I0J-249999D01*
G01*
G37*
G04 #@! TD.AperFunction*
G04 #@! TA.AperFunction,SMDPad,CuDef*
G36*
G01*
X98375000Y-111399999D02*
X98375000Y-112300001D01*
G75*
G02*
X98125001Y-112550000I-249999J0D01*
G01*
X97474999Y-112550000D01*
G75*
G02*
X97225000Y-112300001I0J249999D01*
G01*
X97225000Y-111399999D01*
G75*
G02*
X97474999Y-111150000I249999J0D01*
G01*
X98125001Y-111150000D01*
G75*
G02*
X98375000Y-111399999I0J-249999D01*
G01*
G37*
G04 #@! TD.AperFunction*
G04 #@! TA.AperFunction,SMDPad,CuDef*
G36*
G01*
X100425000Y-111399999D02*
X100425000Y-112300001D01*
G75*
G02*
X100175001Y-112550000I-249999J0D01*
G01*
X99524999Y-112550000D01*
G75*
G02*
X99275000Y-112300001I0J249999D01*
G01*
X99275000Y-111399999D01*
G75*
G02*
X99524999Y-111150000I249999J0D01*
G01*
X100175001Y-111150000D01*
G75*
G02*
X100425000Y-111399999I0J-249999D01*
G01*
G37*
G04 #@! TD.AperFunction*
G04 #@! TA.AperFunction,SMDPad,CuDef*
G36*
G01*
X91824500Y-103860179D02*
X91824500Y-104760181D01*
G75*
G02*
X91574501Y-105010180I-249999J0D01*
G01*
X90924499Y-105010180D01*
G75*
G02*
X90674500Y-104760181I0J249999D01*
G01*
X90674500Y-103860179D01*
G75*
G02*
X90924499Y-103610180I249999J0D01*
G01*
X91574501Y-103610180D01*
G75*
G02*
X91824500Y-103860179I0J-249999D01*
G01*
G37*
G04 #@! TD.AperFunction*
G04 #@! TA.AperFunction,SMDPad,CuDef*
G36*
G01*
X93874500Y-103860179D02*
X93874500Y-104760181D01*
G75*
G02*
X93624501Y-105010180I-249999J0D01*
G01*
X92974499Y-105010180D01*
G75*
G02*
X92724500Y-104760181I0J249999D01*
G01*
X92724500Y-103860179D01*
G75*
G02*
X92974499Y-103610180I249999J0D01*
G01*
X93624501Y-103610180D01*
G75*
G02*
X93874500Y-103860179I0J-249999D01*
G01*
G37*
G04 #@! TD.AperFunction*
G04 #@! TA.AperFunction,SMDPad,CuDef*
G36*
G01*
X97912660Y-103921139D02*
X97912660Y-104821141D01*
G75*
G02*
X97662661Y-105071140I-249999J0D01*
G01*
X97012659Y-105071140D01*
G75*
G02*
X96762660Y-104821141I0J249999D01*
G01*
X96762660Y-103921139D01*
G75*
G02*
X97012659Y-103671140I249999J0D01*
G01*
X97662661Y-103671140D01*
G75*
G02*
X97912660Y-103921139I0J-249999D01*
G01*
G37*
G04 #@! TD.AperFunction*
G04 #@! TA.AperFunction,SMDPad,CuDef*
G36*
G01*
X99962660Y-103921139D02*
X99962660Y-104821141D01*
G75*
G02*
X99712661Y-105071140I-249999J0D01*
G01*
X99062659Y-105071140D01*
G75*
G02*
X98812660Y-104821141I0J249999D01*
G01*
X98812660Y-103921139D01*
G75*
G02*
X99062659Y-103671140I249999J0D01*
G01*
X99712661Y-103671140D01*
G75*
G02*
X99962660Y-103921139I0J-249999D01*
G01*
G37*
G04 #@! TD.AperFunction*
G04 #@! TA.AperFunction,SMDPad,CuDef*
G36*
G01*
X91825660Y-95353719D02*
X91825660Y-96253721D01*
G75*
G02*
X91575661Y-96503720I-249999J0D01*
G01*
X90925659Y-96503720D01*
G75*
G02*
X90675660Y-96253721I0J249999D01*
G01*
X90675660Y-95353719D01*
G75*
G02*
X90925659Y-95103720I249999J0D01*
G01*
X91575661Y-95103720D01*
G75*
G02*
X91825660Y-95353719I0J-249999D01*
G01*
G37*
G04 #@! TD.AperFunction*
G04 #@! TA.AperFunction,SMDPad,CuDef*
G36*
G01*
X93875660Y-95353719D02*
X93875660Y-96253721D01*
G75*
G02*
X93625661Y-96503720I-249999J0D01*
G01*
X92975659Y-96503720D01*
G75*
G02*
X92725660Y-96253721I0J249999D01*
G01*
X92725660Y-95353719D01*
G75*
G02*
X92975659Y-95103720I249999J0D01*
G01*
X93625661Y-95103720D01*
G75*
G02*
X93875660Y-95353719I0J-249999D01*
G01*
G37*
G04 #@! TD.AperFunction*
G04 #@! TA.AperFunction,SMDPad,CuDef*
G36*
G01*
X97846840Y-78208719D02*
X97846840Y-79108721D01*
G75*
G02*
X97596841Y-79358720I-249999J0D01*
G01*
X96946839Y-79358720D01*
G75*
G02*
X96696840Y-79108721I0J249999D01*
G01*
X96696840Y-78208719D01*
G75*
G02*
X96946839Y-77958720I249999J0D01*
G01*
X97596841Y-77958720D01*
G75*
G02*
X97846840Y-78208719I0J-249999D01*
G01*
G37*
G04 #@! TD.AperFunction*
G04 #@! TA.AperFunction,SMDPad,CuDef*
G36*
G01*
X99896840Y-78208719D02*
X99896840Y-79108721D01*
G75*
G02*
X99646841Y-79358720I-249999J0D01*
G01*
X98996839Y-79358720D01*
G75*
G02*
X98746840Y-79108721I0J249999D01*
G01*
X98746840Y-78208719D01*
G75*
G02*
X98996839Y-77958720I249999J0D01*
G01*
X99646841Y-77958720D01*
G75*
G02*
X99896840Y-78208719I0J-249999D01*
G01*
G37*
G04 #@! TD.AperFunction*
G04 #@! TA.AperFunction,SMDPad,CuDef*
G36*
G01*
X91768400Y-78208719D02*
X91768400Y-79108721D01*
G75*
G02*
X91518401Y-79358720I-249999J0D01*
G01*
X90868399Y-79358720D01*
G75*
G02*
X90618400Y-79108721I0J249999D01*
G01*
X90618400Y-78208719D01*
G75*
G02*
X90868399Y-77958720I249999J0D01*
G01*
X91518401Y-77958720D01*
G75*
G02*
X91768400Y-78208719I0J-249999D01*
G01*
G37*
G04 #@! TD.AperFunction*
G04 #@! TA.AperFunction,SMDPad,CuDef*
G36*
G01*
X93818400Y-78208719D02*
X93818400Y-79108721D01*
G75*
G02*
X93568401Y-79358720I-249999J0D01*
G01*
X92918399Y-79358720D01*
G75*
G02*
X92668400Y-79108721I0J249999D01*
G01*
X92668400Y-78208719D01*
G75*
G02*
X92918399Y-77958720I249999J0D01*
G01*
X93568401Y-77958720D01*
G75*
G02*
X93818400Y-78208719I0J-249999D01*
G01*
G37*
G04 #@! TD.AperFunction*
G04 #@! TA.AperFunction,SMDPad,CuDef*
G36*
G01*
X97973620Y-93309019D02*
X97973620Y-94209021D01*
G75*
G02*
X97723621Y-94459020I-249999J0D01*
G01*
X97073619Y-94459020D01*
G75*
G02*
X96823620Y-94209021I0J249999D01*
G01*
X96823620Y-93309019D01*
G75*
G02*
X97073619Y-93059020I249999J0D01*
G01*
X97723621Y-93059020D01*
G75*
G02*
X97973620Y-93309019I0J-249999D01*
G01*
G37*
G04 #@! TD.AperFunction*
G04 #@! TA.AperFunction,SMDPad,CuDef*
G36*
G01*
X100023620Y-93309019D02*
X100023620Y-94209021D01*
G75*
G02*
X99773621Y-94459020I-249999J0D01*
G01*
X99123619Y-94459020D01*
G75*
G02*
X98873620Y-94209021I0J249999D01*
G01*
X98873620Y-93309019D01*
G75*
G02*
X99123619Y-93059020I249999J0D01*
G01*
X99773621Y-93059020D01*
G75*
G02*
X100023620Y-93309019I0J-249999D01*
G01*
G37*
G04 #@! TD.AperFunction*
G04 #@! TA.AperFunction,SMDPad,CuDef*
G36*
G01*
X91643940Y-87116499D02*
X91643940Y-88016501D01*
G75*
G02*
X91393941Y-88266500I-249999J0D01*
G01*
X90743939Y-88266500D01*
G75*
G02*
X90493940Y-88016501I0J249999D01*
G01*
X90493940Y-87116499D01*
G75*
G02*
X90743939Y-86866500I249999J0D01*
G01*
X91393941Y-86866500D01*
G75*
G02*
X91643940Y-87116499I0J-249999D01*
G01*
G37*
G04 #@! TD.AperFunction*
G04 #@! TA.AperFunction,SMDPad,CuDef*
G36*
G01*
X93693940Y-87116499D02*
X93693940Y-88016501D01*
G75*
G02*
X93443941Y-88266500I-249999J0D01*
G01*
X92793939Y-88266500D01*
G75*
G02*
X92543940Y-88016501I0J249999D01*
G01*
X92543940Y-87116499D01*
G75*
G02*
X92793939Y-86866500I249999J0D01*
G01*
X93443941Y-86866500D01*
G75*
G02*
X93693940Y-87116499I0J-249999D01*
G01*
G37*
G04 #@! TD.AperFunction*
G04 #@! TA.AperFunction,SMDPad,CuDef*
G36*
G01*
X97813820Y-58483079D02*
X97813820Y-59383081D01*
G75*
G02*
X97563821Y-59633080I-249999J0D01*
G01*
X96913819Y-59633080D01*
G75*
G02*
X96663820Y-59383081I0J249999D01*
G01*
X96663820Y-58483079D01*
G75*
G02*
X96913819Y-58233080I249999J0D01*
G01*
X97563821Y-58233080D01*
G75*
G02*
X97813820Y-58483079I0J-249999D01*
G01*
G37*
G04 #@! TD.AperFunction*
G04 #@! TA.AperFunction,SMDPad,CuDef*
G36*
G01*
X99863820Y-58483079D02*
X99863820Y-59383081D01*
G75*
G02*
X99613821Y-59633080I-249999J0D01*
G01*
X98963819Y-59633080D01*
G75*
G02*
X98713820Y-59383081I0J249999D01*
G01*
X98713820Y-58483079D01*
G75*
G02*
X98963819Y-58233080I249999J0D01*
G01*
X99613821Y-58233080D01*
G75*
G02*
X99863820Y-58483079I0J-249999D01*
G01*
G37*
G04 #@! TD.AperFunction*
G04 #@! TA.AperFunction,SMDPad,CuDef*
G36*
G01*
X91801420Y-58455139D02*
X91801420Y-59355141D01*
G75*
G02*
X91551421Y-59605140I-249999J0D01*
G01*
X90901419Y-59605140D01*
G75*
G02*
X90651420Y-59355141I0J249999D01*
G01*
X90651420Y-58455139D01*
G75*
G02*
X90901419Y-58205140I249999J0D01*
G01*
X91551421Y-58205140D01*
G75*
G02*
X91801420Y-58455139I0J-249999D01*
G01*
G37*
G04 #@! TD.AperFunction*
G04 #@! TA.AperFunction,SMDPad,CuDef*
G36*
G01*
X93851420Y-58455139D02*
X93851420Y-59355141D01*
G75*
G02*
X93601421Y-59605140I-249999J0D01*
G01*
X92951419Y-59605140D01*
G75*
G02*
X92701420Y-59355141I0J249999D01*
G01*
X92701420Y-58455139D01*
G75*
G02*
X92951419Y-58205140I249999J0D01*
G01*
X93601421Y-58205140D01*
G75*
G02*
X93851420Y-58455139I0J-249999D01*
G01*
G37*
G04 #@! TD.AperFunction*
G04 #@! TA.AperFunction,SMDPad,CuDef*
G36*
G01*
X105875000Y-58599999D02*
X105875000Y-59500001D01*
G75*
G02*
X105625001Y-59750000I-249999J0D01*
G01*
X104974999Y-59750000D01*
G75*
G02*
X104725000Y-59500001I0J249999D01*
G01*
X104725000Y-58599999D01*
G75*
G02*
X104974999Y-58350000I249999J0D01*
G01*
X105625001Y-58350000D01*
G75*
G02*
X105875000Y-58599999I0J-249999D01*
G01*
G37*
G04 #@! TD.AperFunction*
G04 #@! TA.AperFunction,SMDPad,CuDef*
G36*
G01*
X107925000Y-58599999D02*
X107925000Y-59500001D01*
G75*
G02*
X107675001Y-59750000I-249999J0D01*
G01*
X107024999Y-59750000D01*
G75*
G02*
X106775000Y-59500001I0J249999D01*
G01*
X106775000Y-58599999D01*
G75*
G02*
X107024999Y-58350000I249999J0D01*
G01*
X107675001Y-58350000D01*
G75*
G02*
X107925000Y-58599999I0J-249999D01*
G01*
G37*
G04 #@! TD.AperFunction*
G04 #@! TA.AperFunction,SMDPad,CuDef*
G36*
G01*
X98522480Y-86608499D02*
X98522480Y-87508501D01*
G75*
G02*
X98272481Y-87758500I-249999J0D01*
G01*
X97622479Y-87758500D01*
G75*
G02*
X97372480Y-87508501I0J249999D01*
G01*
X97372480Y-86608499D01*
G75*
G02*
X97622479Y-86358500I249999J0D01*
G01*
X98272481Y-86358500D01*
G75*
G02*
X98522480Y-86608499I0J-249999D01*
G01*
G37*
G04 #@! TD.AperFunction*
G04 #@! TA.AperFunction,SMDPad,CuDef*
G36*
G01*
X100572480Y-86608499D02*
X100572480Y-87508501D01*
G75*
G02*
X100322481Y-87758500I-249999J0D01*
G01*
X99672479Y-87758500D01*
G75*
G02*
X99422480Y-87508501I0J249999D01*
G01*
X99422480Y-86608499D01*
G75*
G02*
X99672479Y-86358500I249999J0D01*
G01*
X100322481Y-86358500D01*
G75*
G02*
X100572480Y-86608499I0J-249999D01*
G01*
G37*
G04 #@! TD.AperFunction*
D15*
X98851720Y-102697280D03*
X92801440Y-94134940D03*
X98836480Y-90025220D03*
X102120700Y-114935000D03*
X92753180Y-107685840D03*
X92788740Y-80172560D03*
X99047300Y-74002900D03*
X80098900Y-64770000D03*
X99265740Y-56738520D03*
X108850000Y-86650000D03*
X108775000Y-92125000D03*
X108725000Y-100225000D03*
X108750000Y-106650000D03*
X86200000Y-96975000D03*
X86425000Y-90450000D03*
X86475000Y-87400000D03*
X86400000Y-83425000D03*
X86375000Y-79725000D03*
X85950000Y-73650000D03*
X82350000Y-88050000D03*
X100000000Y-60350000D03*
X96725000Y-52275000D03*
X104350000Y-52350000D03*
X84175000Y-64850000D03*
X90450000Y-107925000D03*
X103136692Y-109500000D03*
X107950000Y-113030000D03*
X86512400Y-103352600D03*
X86588600Y-93751400D03*
X86309200Y-107746800D03*
X86283800Y-110871000D03*
X86563200Y-115849400D03*
X82651600Y-94081600D03*
X97612200Y-67868800D03*
X97739200Y-65252600D03*
X86537800Y-70358000D03*
X81051400Y-90601800D03*
X109753400Y-78892400D03*
X104571800Y-76327000D03*
X103466900Y-79273400D03*
X105251099Y-79121000D03*
X93192600Y-69303900D03*
X107797502Y-69443600D03*
X106629200Y-53886100D03*
X92709992Y-52628792D03*
X107975400Y-68122800D03*
X93408500Y-67767200D03*
X92341700Y-85928200D03*
X80848200Y-85763100D03*
X113055400Y-76885800D03*
X103149400Y-74930000D03*
X111709200Y-75869800D03*
X103505000Y-72999600D03*
X97348040Y-71983600D03*
X91516200Y-74091800D03*
X104051100Y-101752400D03*
X91605100Y-102768400D03*
X88673940Y-78445360D03*
X102867460Y-83687920D03*
X91216480Y-84256880D03*
X89278460Y-95925640D03*
X102872540Y-97538540D03*
X91401320Y-97837680D03*
X101442520Y-62351920D03*
X103235760Y-62395100D03*
X98348800Y-61468000D03*
X89408000Y-63284100D03*
X90238033Y-65927440D03*
X103555800Y-65747900D03*
D16*
X95865811Y-63493789D03*
D15*
X93408500Y-63360300D03*
X95865811Y-59134189D03*
X86300000Y-60675000D03*
X104736830Y-57563170D03*
X95865811Y-78540811D03*
X95865811Y-86784189D03*
X95865811Y-93490811D03*
X95865811Y-104459189D03*
X95865811Y-111265811D03*
X97292000Y-114883000D03*
X94665800Y-92547440D03*
X94665800Y-75468480D03*
D16*
X94665800Y-70891400D03*
D15*
X94665800Y-59156600D03*
X94665800Y-78234200D03*
X94665800Y-87590800D03*
X94665800Y-96165800D03*
X94665800Y-104665800D03*
X94665800Y-111109200D03*
X94313000Y-118563000D03*
X102336600Y-117500400D03*
X86974680Y-106108500D03*
X100931872Y-109023451D03*
X83016879Y-109220000D03*
X100850700Y-118021100D03*
X99034600Y-55346600D03*
X109118399Y-55473600D03*
X91643200Y-53517800D03*
X87083900Y-77368400D03*
X89239931Y-61302950D03*
X84061390Y-77368396D03*
X88468200Y-70967600D03*
X87249000Y-89194640D03*
X99001580Y-88709500D03*
X99001580Y-88709500D03*
X98983800Y-85305900D03*
X78511400Y-89966800D03*
X87325186Y-100990400D03*
X83616890Y-100990400D03*
X97536000Y-99466400D03*
X83185000Y-99733100D03*
X84912200Y-75484999D03*
X91313000Y-75484999D03*
X88506300Y-112722660D03*
X101377962Y-112990218D03*
X98348800Y-119849900D03*
X104694685Y-120022185D03*
X93840300Y-121805700D03*
X104343199Y-121805701D03*
X98907600Y-110794800D03*
X106080210Y-111244977D03*
X99352100Y-81724500D03*
X107028698Y-81762600D03*
X99212400Y-95478600D03*
X79146400Y-94030800D03*
D17*
X103466900Y-79273400D02*
X105098699Y-79273400D01*
X105098699Y-79273400D02*
X105251099Y-79121000D01*
X93192600Y-69303900D02*
X93592599Y-69703899D01*
X107537203Y-69703899D02*
X107797502Y-69443600D01*
X93592599Y-69703899D02*
X107537203Y-69703899D01*
X93967300Y-53886100D02*
X92709992Y-52628792D01*
X106629200Y-53886100D02*
X93967300Y-53886100D01*
X94729300Y-69088000D02*
X93408500Y-67767200D01*
X107010200Y-69088000D02*
X94729300Y-69088000D01*
X107975400Y-68122800D02*
X107010200Y-69088000D01*
X92202000Y-85788500D02*
X92341700Y-85928200D01*
X80848200Y-85763100D02*
X80873600Y-85788500D01*
X80873600Y-85788500D02*
X92202000Y-85788500D01*
X108813600Y-76860400D02*
X113030000Y-76860400D01*
X113030000Y-76860400D02*
X113055400Y-76885800D01*
X103149400Y-74930000D02*
X103200200Y-74980800D01*
X103200200Y-74980800D02*
X106934000Y-74980800D01*
X106934000Y-74980800D02*
X108813600Y-76860400D01*
X111709200Y-75869800D02*
X108671542Y-75869800D01*
X108671542Y-75869800D02*
X105801342Y-72999600D01*
X105801342Y-72999600D02*
X103505000Y-72999600D01*
X92303600Y-71983600D02*
X97348040Y-71983600D01*
X91516200Y-74091800D02*
X91516200Y-72771000D01*
X91516200Y-72771000D02*
X92303600Y-71983600D01*
X91681300Y-102577900D02*
X92506800Y-101752400D01*
X92506800Y-101752400D02*
X104051100Y-101752400D01*
X81512359Y-78845359D02*
X80772000Y-78105000D01*
X88673940Y-78445360D02*
X88273941Y-78845359D01*
X88273941Y-78845359D02*
X81512359Y-78845359D01*
X91785440Y-83687920D02*
X102867460Y-83687920D01*
X91216480Y-84256880D02*
X91785440Y-83687920D01*
X88602820Y-95250000D02*
X80645000Y-95250000D01*
X89278460Y-95925640D02*
X88602820Y-95250000D01*
X91700460Y-97538540D02*
X102872540Y-97538540D01*
X91401320Y-97837680D02*
X91700460Y-97538540D01*
X101442520Y-62351920D02*
X103192580Y-62351920D01*
X103192580Y-62351920D02*
X103235760Y-62395100D01*
X91224100Y-61468000D02*
X89408000Y-63284100D01*
X98348800Y-61468000D02*
X91224100Y-61468000D01*
X102806500Y-66497200D02*
X103555800Y-65747900D01*
X90238033Y-65927440D02*
X90807793Y-66497200D01*
X90807793Y-66497200D02*
X102806500Y-66497200D01*
D18*
X113030000Y-63500000D02*
X110490000Y-63500000D01*
X95872022Y-63500000D02*
X95865811Y-63493789D01*
X110490000Y-63500000D02*
X95872022Y-63500000D01*
D17*
X95732322Y-63360300D02*
X95865811Y-63493789D01*
X93408500Y-63360300D02*
X95732322Y-63360300D01*
D19*
X96066920Y-58933080D02*
X95865811Y-59134189D01*
X97238820Y-58933080D02*
X96066920Y-58933080D01*
X87000000Y-59600000D02*
X87000000Y-59975000D01*
X87000000Y-59975000D02*
X86300000Y-60675000D01*
X105300000Y-58126340D02*
X104736830Y-57563170D01*
X105300000Y-59050000D02*
X105300000Y-58126340D01*
X95983720Y-78658720D02*
X95865811Y-78540811D01*
X97271840Y-78658720D02*
X95983720Y-78658720D01*
X96140122Y-87058500D02*
X95865811Y-86784189D01*
X97947480Y-87058500D02*
X96140122Y-87058500D01*
X96134020Y-93759020D02*
X95865811Y-93490811D01*
X97398620Y-93759020D02*
X96134020Y-93759020D01*
X95953860Y-104371140D02*
X95865811Y-104459189D01*
X97337660Y-104371140D02*
X95953860Y-104371140D01*
X96450000Y-111850000D02*
X95865811Y-111265811D01*
X97800000Y-111850000D02*
X96450000Y-111850000D01*
X98059000Y-115650000D02*
X97292000Y-114883000D01*
X98750000Y-115650000D02*
X98059000Y-115650000D01*
D17*
X80772000Y-75565000D02*
X81491999Y-76284999D01*
X93849281Y-76284999D02*
X94665800Y-75468480D01*
X81491999Y-76284999D02*
X93849281Y-76284999D01*
D18*
X113030000Y-73660000D02*
X110490000Y-73660000D01*
X107713599Y-70883599D02*
X94673601Y-70883599D01*
X94673601Y-70883599D02*
X94665800Y-70891400D01*
X110490000Y-73660000D02*
X107713599Y-70883599D01*
D17*
X81476151Y-91878849D02*
X93997209Y-91878849D01*
X93997209Y-91878849D02*
X94665800Y-92547440D01*
X80645000Y-92710000D02*
X81476151Y-91878849D01*
D19*
X93276420Y-58905140D02*
X94414340Y-58905140D01*
X94414340Y-58905140D02*
X94665800Y-59156600D01*
X94241280Y-78658720D02*
X94665800Y-78234200D01*
X93243400Y-78658720D02*
X94241280Y-78658720D01*
X93118940Y-87566500D02*
X94641500Y-87566500D01*
X94641500Y-87566500D02*
X94665800Y-87590800D01*
X94303720Y-95803720D02*
X94665800Y-96165800D01*
X93300660Y-95803720D02*
X94303720Y-95803720D01*
X94310180Y-104310180D02*
X94665800Y-104665800D01*
X93299500Y-104310180D02*
X94310180Y-104310180D01*
X93250000Y-111200000D02*
X94575000Y-111200000D01*
X94575000Y-111200000D02*
X94665800Y-111109200D01*
X93300000Y-119576000D02*
X94313000Y-118563000D01*
X93300000Y-119650000D02*
X93300000Y-119576000D01*
D17*
X106070400Y-117500400D02*
X102336600Y-117500400D01*
X107950000Y-119380000D02*
X106070400Y-117500400D01*
X80073500Y-106108500D02*
X80010000Y-106045000D01*
X86974680Y-106108500D02*
X80073500Y-106108500D01*
X100931872Y-109023451D02*
X100735323Y-109220000D01*
X100735323Y-109220000D02*
X83016879Y-109220000D01*
X106699999Y-122520001D02*
X108639998Y-124460000D01*
X106699999Y-120019999D02*
X106699999Y-122520001D01*
X108639998Y-124460000D02*
X113030000Y-124460000D01*
X105336001Y-118656001D02*
X106699999Y-120019999D01*
X101485601Y-118656001D02*
X105336001Y-118656001D01*
X100850700Y-118021100D02*
X101485601Y-118656001D01*
X99034600Y-55346600D02*
X108991399Y-55346600D01*
X108991399Y-55346600D02*
X109118399Y-55473600D01*
X93472000Y-55346600D02*
X99034600Y-55346600D01*
X91643200Y-53517800D02*
X93472000Y-55346600D01*
D19*
X110490000Y-121920000D02*
X113030000Y-119380000D01*
X107950000Y-121920000D02*
X110490000Y-121920000D01*
D17*
X87083900Y-77368400D02*
X84061394Y-77368400D01*
X84061394Y-77368400D02*
X84061390Y-77368396D01*
X87884000Y-62658881D02*
X89239931Y-61302950D01*
X88468200Y-70967600D02*
X87884000Y-70383400D01*
X87884000Y-70383400D02*
X87884000Y-62658881D01*
X97828100Y-89194640D02*
X87249000Y-89194640D01*
X99001580Y-88709500D02*
X98313240Y-88709500D01*
X98313240Y-88709500D02*
X97828100Y-89194640D01*
X99001580Y-86964520D02*
X99001580Y-88709500D01*
X98983800Y-85305900D02*
X99001580Y-85323680D01*
X99001580Y-85323680D02*
X99001580Y-86964520D01*
X79283560Y-89194640D02*
X78511400Y-89966800D01*
X87249000Y-89194640D02*
X79283560Y-89194640D01*
X87325186Y-100990400D02*
X83616890Y-100990400D01*
X97536000Y-99466400D02*
X83451700Y-99466400D01*
X83451700Y-99466400D02*
X83185000Y-99733100D01*
X84912200Y-75484999D02*
X91313000Y-75484999D01*
X88906299Y-113122659D02*
X101245521Y-113122659D01*
X88506300Y-112722660D02*
X88906299Y-113122659D01*
X101245521Y-113122659D02*
X101377962Y-112990218D01*
X104522400Y-119849900D02*
X104694685Y-120022185D01*
X98348800Y-119849900D02*
X104522400Y-119849900D01*
X93840300Y-121805700D02*
X94405986Y-121805701D01*
X94405986Y-121805701D02*
X104343199Y-121805701D01*
X98907600Y-110794800D02*
X99307599Y-110394801D01*
X105230034Y-110394801D02*
X106080210Y-111244977D01*
X99307599Y-110394801D02*
X105230034Y-110394801D01*
X99352100Y-81724500D02*
X106990598Y-81724500D01*
X106990598Y-81724500D02*
X107028698Y-81762600D01*
X80969200Y-94030800D02*
X79146400Y-94030800D01*
X93395800Y-92478860D02*
X82521140Y-92478860D01*
X82521140Y-92478860D02*
X80969200Y-94030800D01*
X99212400Y-95478600D02*
X96395540Y-95478600D01*
X96395540Y-95478600D02*
X93395800Y-92478860D01*
D20*
G36*
X114910000Y-128880000D02*
G01*
X76860000Y-128880000D01*
X76860000Y-127160881D01*
X78758724Y-127160881D01*
X79118912Y-127650548D01*
X79782882Y-128010849D01*
X80504385Y-128234694D01*
X81255695Y-128313480D01*
X82007938Y-128244178D01*
X82732208Y-128029452D01*
X83400670Y-127677555D01*
X83441088Y-127650548D01*
X83801276Y-127160881D01*
X81280000Y-124639605D01*
X78758724Y-127160881D01*
X76860000Y-127160881D01*
X76860000Y-124435695D01*
X77426520Y-124435695D01*
X77495822Y-125187938D01*
X77710548Y-125912208D01*
X78062445Y-126580670D01*
X78089452Y-126621088D01*
X78579119Y-126981276D01*
X81100395Y-124460000D01*
X81459605Y-124460000D01*
X83980881Y-126981276D01*
X84470548Y-126621088D01*
X84726182Y-126150000D01*
X89951928Y-126150000D01*
X89951928Y-127850000D01*
X89964188Y-127974482D01*
X90000498Y-128094180D01*
X90059463Y-128204494D01*
X90138815Y-128301185D01*
X90235506Y-128380537D01*
X90345820Y-128439502D01*
X90465518Y-128475812D01*
X90590000Y-128488072D01*
X92290000Y-128488072D01*
X92414482Y-128475812D01*
X92534180Y-128439502D01*
X92644494Y-128380537D01*
X92741185Y-128301185D01*
X92820537Y-128204494D01*
X92879502Y-128094180D01*
X92901513Y-128021620D01*
X93033368Y-128153475D01*
X93276589Y-128315990D01*
X93546842Y-128427932D01*
X93833740Y-128485000D01*
X94126260Y-128485000D01*
X94413158Y-128427932D01*
X94683411Y-128315990D01*
X94926632Y-128153475D01*
X95133475Y-127946632D01*
X95250000Y-127772240D01*
X95366525Y-127946632D01*
X95573368Y-128153475D01*
X95816589Y-128315990D01*
X96086842Y-128427932D01*
X96373740Y-128485000D01*
X96666260Y-128485000D01*
X96953158Y-128427932D01*
X97223411Y-128315990D01*
X97466632Y-128153475D01*
X97673475Y-127946632D01*
X97790000Y-127772240D01*
X97906525Y-127946632D01*
X98113368Y-128153475D01*
X98356589Y-128315990D01*
X98626842Y-128427932D01*
X98913740Y-128485000D01*
X99206260Y-128485000D01*
X99493158Y-128427932D01*
X99763411Y-128315990D01*
X100006632Y-128153475D01*
X100213475Y-127946632D01*
X100335195Y-127764466D01*
X100404822Y-127881355D01*
X100599731Y-128097588D01*
X100833080Y-128271641D01*
X101095901Y-128396825D01*
X101243110Y-128441476D01*
X101473000Y-128320155D01*
X101473000Y-127127000D01*
X101727000Y-127127000D01*
X101727000Y-128320155D01*
X101956890Y-128441476D01*
X102104099Y-128396825D01*
X102366920Y-128271641D01*
X102600269Y-128097588D01*
X102795178Y-127881355D01*
X102944157Y-127631252D01*
X103041481Y-127356891D01*
X103041481Y-127356890D01*
X111588524Y-127356890D01*
X111633175Y-127504099D01*
X111758359Y-127766920D01*
X111932412Y-128000269D01*
X112148645Y-128195178D01*
X112398748Y-128344157D01*
X112673109Y-128441481D01*
X112903000Y-128320814D01*
X112903000Y-127127000D01*
X113157000Y-127127000D01*
X113157000Y-128320814D01*
X113386891Y-128441481D01*
X113661252Y-128344157D01*
X113911355Y-128195178D01*
X114127588Y-128000269D01*
X114301641Y-127766920D01*
X114426825Y-127504099D01*
X114471476Y-127356890D01*
X114350155Y-127127000D01*
X113157000Y-127127000D01*
X112903000Y-127127000D01*
X111709845Y-127127000D01*
X111588524Y-127356890D01*
X103041481Y-127356890D01*
X102920814Y-127127000D01*
X101727000Y-127127000D01*
X101473000Y-127127000D01*
X101453000Y-127127000D01*
X101453000Y-126873000D01*
X101473000Y-126873000D01*
X101473000Y-125679845D01*
X101727000Y-125679845D01*
X101727000Y-126873000D01*
X102920814Y-126873000D01*
X103041481Y-126643109D01*
X102944157Y-126368748D01*
X102795178Y-126118645D01*
X102600269Y-125902412D01*
X102366920Y-125728359D01*
X102104099Y-125603175D01*
X101956890Y-125558524D01*
X101727000Y-125679845D01*
X101473000Y-125679845D01*
X101243110Y-125558524D01*
X101095901Y-125603175D01*
X100833080Y-125728359D01*
X100599731Y-125902412D01*
X100404822Y-126118645D01*
X100335195Y-126235534D01*
X100213475Y-126053368D01*
X100006632Y-125846525D01*
X99763411Y-125684010D01*
X99493158Y-125572068D01*
X99206260Y-125515000D01*
X98913740Y-125515000D01*
X98626842Y-125572068D01*
X98356589Y-125684010D01*
X98113368Y-125846525D01*
X97906525Y-126053368D01*
X97790000Y-126227760D01*
X97673475Y-126053368D01*
X97466632Y-125846525D01*
X97223411Y-125684010D01*
X96953158Y-125572068D01*
X96666260Y-125515000D01*
X96373740Y-125515000D01*
X96086842Y-125572068D01*
X95816589Y-125684010D01*
X95573368Y-125846525D01*
X95366525Y-126053368D01*
X95250000Y-126227760D01*
X95133475Y-126053368D01*
X94926632Y-125846525D01*
X94683411Y-125684010D01*
X94413158Y-125572068D01*
X94126260Y-125515000D01*
X93833740Y-125515000D01*
X93546842Y-125572068D01*
X93276589Y-125684010D01*
X93033368Y-125846525D01*
X92901513Y-125978380D01*
X92879502Y-125905820D01*
X92820537Y-125795506D01*
X92741185Y-125698815D01*
X92644494Y-125619463D01*
X92534180Y-125560498D01*
X92414482Y-125524188D01*
X92290000Y-125511928D01*
X90590000Y-125511928D01*
X90465518Y-125524188D01*
X90345820Y-125560498D01*
X90235506Y-125619463D01*
X90138815Y-125698815D01*
X90059463Y-125795506D01*
X90000498Y-125905820D01*
X89964188Y-126025518D01*
X89951928Y-126150000D01*
X84726182Y-126150000D01*
X84830849Y-125957118D01*
X85054694Y-125235615D01*
X85133480Y-124484305D01*
X85064178Y-123732062D01*
X84849452Y-123007792D01*
X84497555Y-122339330D01*
X84470548Y-122298912D01*
X83980881Y-121938724D01*
X81459605Y-124460000D01*
X81100395Y-124460000D01*
X78579119Y-121938724D01*
X78089452Y-122298912D01*
X77729151Y-122962882D01*
X77505306Y-123684385D01*
X77426520Y-124435695D01*
X76860000Y-124435695D01*
X76860000Y-121759119D01*
X78758724Y-121759119D01*
X81280000Y-124280395D01*
X83801276Y-121759119D01*
X83441088Y-121269452D01*
X82777118Y-120909151D01*
X82055615Y-120685306D01*
X81304305Y-120606520D01*
X80552062Y-120675822D01*
X79827792Y-120890548D01*
X79159330Y-121242445D01*
X79118912Y-121269452D01*
X78758724Y-121759119D01*
X76860000Y-121759119D01*
X76860000Y-120350000D01*
X90036928Y-120350000D01*
X90049188Y-120474482D01*
X90085498Y-120594180D01*
X90144463Y-120704494D01*
X90223815Y-120801185D01*
X90320506Y-120880537D01*
X90430820Y-120939502D01*
X90550518Y-120975812D01*
X90675000Y-120988072D01*
X90964250Y-120985000D01*
X91123000Y-120826250D01*
X91123000Y-119777000D01*
X90198750Y-119777000D01*
X90040000Y-119935750D01*
X90036928Y-120350000D01*
X76860000Y-120350000D01*
X76860000Y-112815000D01*
X78521928Y-112815000D01*
X78521928Y-114515000D01*
X78534188Y-114639482D01*
X78570498Y-114759180D01*
X78629463Y-114869494D01*
X78708815Y-114966185D01*
X78805506Y-115045537D01*
X78915820Y-115104502D01*
X78988380Y-115126513D01*
X78856525Y-115258368D01*
X78694010Y-115501589D01*
X78582068Y-115771842D01*
X78525000Y-116058740D01*
X78525000Y-116351260D01*
X78582068Y-116638158D01*
X78694010Y-116908411D01*
X78856525Y-117151632D01*
X79063368Y-117358475D01*
X79237760Y-117475000D01*
X79063368Y-117591525D01*
X78856525Y-117798368D01*
X78694010Y-118041589D01*
X78582068Y-118311842D01*
X78525000Y-118598740D01*
X78525000Y-118891260D01*
X78582068Y-119178158D01*
X78694010Y-119448411D01*
X78856525Y-119691632D01*
X79063368Y-119898475D01*
X79306589Y-120060990D01*
X79576842Y-120172932D01*
X79863740Y-120230000D01*
X80156260Y-120230000D01*
X80443158Y-120172932D01*
X80713411Y-120060990D01*
X80956632Y-119898475D01*
X81163475Y-119691632D01*
X81325990Y-119448411D01*
X81437932Y-119178158D01*
X81483315Y-118950000D01*
X90036928Y-118950000D01*
X90040000Y-119364250D01*
X90198750Y-119523000D01*
X91123000Y-119523000D01*
X91123000Y-118473750D01*
X91377000Y-118473750D01*
X91377000Y-119523000D01*
X91397000Y-119523000D01*
X91397000Y-119777000D01*
X91377000Y-119777000D01*
X91377000Y-120826250D01*
X91535750Y-120985000D01*
X91825000Y-120988072D01*
X91949482Y-120975812D01*
X92069180Y-120939502D01*
X92179494Y-120880537D01*
X92276185Y-120801185D01*
X92341658Y-120721406D01*
X92347038Y-120727962D01*
X92481613Y-120838405D01*
X92635149Y-120920472D01*
X92801745Y-120971008D01*
X92974999Y-120988072D01*
X93201016Y-120988072D01*
X93180526Y-121001763D01*
X93036363Y-121145926D01*
X92923095Y-121315444D01*
X92845074Y-121503802D01*
X92805300Y-121703761D01*
X92805300Y-121907639D01*
X92845074Y-122107598D01*
X92923095Y-122295956D01*
X93036363Y-122465474D01*
X93180526Y-122609637D01*
X93350044Y-122722905D01*
X93538402Y-122800926D01*
X93738361Y-122840700D01*
X93942239Y-122840700D01*
X94142198Y-122800926D01*
X94330556Y-122722905D01*
X94453583Y-122640701D01*
X103729914Y-122640701D01*
X103852943Y-122722906D01*
X104041301Y-122800927D01*
X104241260Y-122840701D01*
X104445138Y-122840701D01*
X104645097Y-122800927D01*
X104833455Y-122722906D01*
X105002973Y-122609638D01*
X105147136Y-122465475D01*
X105260404Y-122295957D01*
X105338425Y-122107599D01*
X105378199Y-121907640D01*
X105378199Y-121703762D01*
X105338425Y-121503803D01*
X105260404Y-121315445D01*
X105147136Y-121145927D01*
X105012165Y-121010956D01*
X105184941Y-120939390D01*
X105354459Y-120826122D01*
X105498622Y-120681959D01*
X105611890Y-120512441D01*
X105689911Y-120324083D01*
X105712027Y-120212895D01*
X105864999Y-120365867D01*
X105865000Y-122478973D01*
X105860959Y-122520001D01*
X105877081Y-122683689D01*
X105924827Y-122841087D01*
X106001465Y-122984466D01*
X106002364Y-122986147D01*
X106106709Y-123113292D01*
X106138573Y-123139442D01*
X108020561Y-125021432D01*
X108046707Y-125053291D01*
X108078566Y-125079437D01*
X108078568Y-125079439D01*
X108173852Y-125157636D01*
X108318911Y-125235172D01*
X108476309Y-125282918D01*
X108639998Y-125299040D01*
X108681016Y-125295000D01*
X111801935Y-125295000D01*
X111876525Y-125406632D01*
X112083368Y-125613475D01*
X112265534Y-125735195D01*
X112148645Y-125804822D01*
X111932412Y-125999731D01*
X111758359Y-126233080D01*
X111633175Y-126495901D01*
X111588524Y-126643110D01*
X111709845Y-126873000D01*
X112903000Y-126873000D01*
X112903000Y-126853000D01*
X113157000Y-126853000D01*
X113157000Y-126873000D01*
X114350155Y-126873000D01*
X114471476Y-126643110D01*
X114426825Y-126495901D01*
X114301641Y-126233080D01*
X114127588Y-125999731D01*
X113911355Y-125804822D01*
X113794466Y-125735195D01*
X113976632Y-125613475D01*
X114183475Y-125406632D01*
X114345990Y-125163411D01*
X114457932Y-124893158D01*
X114515000Y-124606260D01*
X114515000Y-124313740D01*
X114457932Y-124026842D01*
X114345990Y-123756589D01*
X114183475Y-123513368D01*
X113976632Y-123306525D01*
X113802240Y-123190000D01*
X113976632Y-123073475D01*
X114183475Y-122866632D01*
X114345990Y-122623411D01*
X114457932Y-122353158D01*
X114515000Y-122066260D01*
X114515000Y-121773740D01*
X114457932Y-121486842D01*
X114345990Y-121216589D01*
X114183475Y-120973368D01*
X113976632Y-120766525D01*
X113802240Y-120650000D01*
X113976632Y-120533475D01*
X114183475Y-120326632D01*
X114345990Y-120083411D01*
X114457932Y-119813158D01*
X114515000Y-119526260D01*
X114515000Y-119233740D01*
X114457932Y-118946842D01*
X114345990Y-118676589D01*
X114183475Y-118433368D01*
X114051620Y-118301513D01*
X114124180Y-118279502D01*
X114234494Y-118220537D01*
X114331185Y-118141185D01*
X114410537Y-118044494D01*
X114469502Y-117934180D01*
X114505812Y-117814482D01*
X114518072Y-117690000D01*
X114518072Y-115990000D01*
X114505812Y-115865518D01*
X114469502Y-115745820D01*
X114410537Y-115635506D01*
X114331185Y-115538815D01*
X114234494Y-115459463D01*
X114124180Y-115400498D01*
X114004482Y-115364188D01*
X113880000Y-115351928D01*
X112180000Y-115351928D01*
X112055518Y-115364188D01*
X111935820Y-115400498D01*
X111825506Y-115459463D01*
X111728815Y-115538815D01*
X111649463Y-115635506D01*
X111590498Y-115745820D01*
X111554188Y-115865518D01*
X111541928Y-115990000D01*
X111541928Y-117690000D01*
X111554188Y-117814482D01*
X111590498Y-117934180D01*
X111649463Y-118044494D01*
X111728815Y-118141185D01*
X111825506Y-118220537D01*
X111935820Y-118279502D01*
X112008380Y-118301513D01*
X111876525Y-118433368D01*
X111714010Y-118676589D01*
X111602068Y-118946842D01*
X111545000Y-119233740D01*
X111545000Y-119526260D01*
X111559461Y-119598960D01*
X110123422Y-121035000D01*
X109144656Y-121035000D01*
X109103475Y-120973368D01*
X108896632Y-120766525D01*
X108722240Y-120650000D01*
X108896632Y-120533475D01*
X109103475Y-120326632D01*
X109265990Y-120083411D01*
X109377932Y-119813158D01*
X109435000Y-119526260D01*
X109435000Y-119233740D01*
X109377932Y-118946842D01*
X109265990Y-118676589D01*
X109103475Y-118433368D01*
X108971620Y-118301513D01*
X109044180Y-118279502D01*
X109154494Y-118220537D01*
X109251185Y-118141185D01*
X109330537Y-118044494D01*
X109389502Y-117934180D01*
X109425812Y-117814482D01*
X109438072Y-117690000D01*
X109438072Y-115990000D01*
X109425812Y-115865518D01*
X109389502Y-115745820D01*
X109330537Y-115635506D01*
X109251185Y-115538815D01*
X109154494Y-115459463D01*
X109044180Y-115400498D01*
X108924482Y-115364188D01*
X108800000Y-115351928D01*
X107100000Y-115351928D01*
X106975518Y-115364188D01*
X106855820Y-115400498D01*
X106745506Y-115459463D01*
X106648815Y-115538815D01*
X106569463Y-115635506D01*
X106510498Y-115745820D01*
X106474188Y-115865518D01*
X106461928Y-115990000D01*
X106461928Y-116762880D01*
X106391487Y-116725228D01*
X106234089Y-116677482D01*
X106111419Y-116665400D01*
X106111418Y-116665400D01*
X106070400Y-116661360D01*
X106029382Y-116665400D01*
X102949885Y-116665400D01*
X102826856Y-116583195D01*
X102638498Y-116505174D01*
X102438539Y-116465400D01*
X102234661Y-116465400D01*
X102034702Y-116505174D01*
X101985293Y-116525640D01*
X102000812Y-116474482D01*
X102013072Y-116350000D01*
X102010000Y-115935750D01*
X101851250Y-115777000D01*
X100927000Y-115777000D01*
X100927000Y-116826250D01*
X101085750Y-116985000D01*
X101375000Y-116988072D01*
X101438309Y-116981837D01*
X101419395Y-117010144D01*
X101371976Y-117124622D01*
X101340956Y-117103895D01*
X101152598Y-117025874D01*
X100952639Y-116986100D01*
X100748761Y-116986100D01*
X100548802Y-117025874D01*
X100360444Y-117103895D01*
X100190926Y-117217163D01*
X100046763Y-117361326D01*
X99933495Y-117530844D01*
X99855474Y-117719202D01*
X99815700Y-117919161D01*
X99815700Y-118123039D01*
X99855474Y-118322998D01*
X99933495Y-118511356D01*
X100046763Y-118680874D01*
X100190926Y-118825037D01*
X100360444Y-118938305D01*
X100545359Y-119014900D01*
X98962085Y-119014900D01*
X98839056Y-118932695D01*
X98650698Y-118854674D01*
X98450739Y-118814900D01*
X98246861Y-118814900D01*
X98046902Y-118854674D01*
X97858544Y-118932695D01*
X97689026Y-119045963D01*
X97544863Y-119190126D01*
X97431595Y-119359644D01*
X97353574Y-119548002D01*
X97313800Y-119747961D01*
X97313800Y-119951839D01*
X97353574Y-120151798D01*
X97431595Y-120340156D01*
X97544863Y-120509674D01*
X97689026Y-120653837D01*
X97858544Y-120767105D01*
X98046902Y-120845126D01*
X98246861Y-120884900D01*
X98450739Y-120884900D01*
X98650698Y-120845126D01*
X98839056Y-120767105D01*
X98962085Y-120684900D01*
X103893689Y-120684900D01*
X104025719Y-120816930D01*
X103852943Y-120888496D01*
X103729914Y-120970701D01*
X94453586Y-120970701D01*
X94330556Y-120888495D01*
X94148992Y-120813288D01*
X94252962Y-120727962D01*
X94363405Y-120593387D01*
X94445472Y-120439851D01*
X94496008Y-120273255D01*
X94513072Y-120100001D01*
X94513072Y-119614507D01*
X94558044Y-119569535D01*
X94614898Y-119558226D01*
X94803256Y-119480205D01*
X94972774Y-119366937D01*
X95116937Y-119222774D01*
X95230205Y-119053256D01*
X95308226Y-118864898D01*
X95348000Y-118664939D01*
X95348000Y-118461061D01*
X95308226Y-118261102D01*
X95230205Y-118072744D01*
X95116937Y-117903226D01*
X94972774Y-117759063D01*
X94803256Y-117645795D01*
X94614898Y-117567774D01*
X94414939Y-117528000D01*
X94211061Y-117528000D01*
X94011102Y-117567774D01*
X93822744Y-117645795D01*
X93653226Y-117759063D01*
X93509063Y-117903226D01*
X93395795Y-118072744D01*
X93317774Y-118261102D01*
X93307664Y-118311928D01*
X92974999Y-118311928D01*
X92801745Y-118328992D01*
X92635149Y-118379528D01*
X92481613Y-118461595D01*
X92347038Y-118572038D01*
X92341658Y-118578594D01*
X92276185Y-118498815D01*
X92179494Y-118419463D01*
X92069180Y-118360498D01*
X91949482Y-118324188D01*
X91825000Y-118311928D01*
X91535750Y-118315000D01*
X91377000Y-118473750D01*
X91123000Y-118473750D01*
X90964250Y-118315000D01*
X90675000Y-118311928D01*
X90550518Y-118324188D01*
X90430820Y-118360498D01*
X90320506Y-118419463D01*
X90223815Y-118498815D01*
X90144463Y-118595506D01*
X90085498Y-118705820D01*
X90049188Y-118825518D01*
X90036928Y-118950000D01*
X81483315Y-118950000D01*
X81495000Y-118891260D01*
X81495000Y-118598740D01*
X81437932Y-118311842D01*
X81325990Y-118041589D01*
X81163475Y-117798368D01*
X80956632Y-117591525D01*
X80782240Y-117475000D01*
X80956632Y-117358475D01*
X81163475Y-117151632D01*
X81325990Y-116908411D01*
X81437932Y-116638158D01*
X81495000Y-116351260D01*
X81495000Y-116058740D01*
X81437932Y-115771842D01*
X81325990Y-115501589D01*
X81163475Y-115258368D01*
X81031620Y-115126513D01*
X81104180Y-115104502D01*
X81214494Y-115045537D01*
X81311185Y-114966185D01*
X81390537Y-114869494D01*
X81449502Y-114759180D01*
X81485812Y-114639482D01*
X81498072Y-114515000D01*
X81498072Y-112815000D01*
X81485812Y-112690518D01*
X81449502Y-112570820D01*
X81390537Y-112460506D01*
X81311185Y-112363815D01*
X81214494Y-112284463D01*
X81104180Y-112225498D01*
X80984482Y-112189188D01*
X80860000Y-112176928D01*
X79160000Y-112176928D01*
X79035518Y-112189188D01*
X78915820Y-112225498D01*
X78805506Y-112284463D01*
X78708815Y-112363815D01*
X78629463Y-112460506D01*
X78570498Y-112570820D01*
X78534188Y-112690518D01*
X78521928Y-112815000D01*
X76860000Y-112815000D01*
X76860000Y-102655000D01*
X78521928Y-102655000D01*
X78521928Y-104355000D01*
X78534188Y-104479482D01*
X78570498Y-104599180D01*
X78629463Y-104709494D01*
X78708815Y-104806185D01*
X78805506Y-104885537D01*
X78915820Y-104944502D01*
X78988380Y-104966513D01*
X78856525Y-105098368D01*
X78694010Y-105341589D01*
X78582068Y-105611842D01*
X78525000Y-105898740D01*
X78525000Y-106191260D01*
X78582068Y-106478158D01*
X78694010Y-106748411D01*
X78856525Y-106991632D01*
X79063368Y-107198475D01*
X79237760Y-107315000D01*
X79063368Y-107431525D01*
X78856525Y-107638368D01*
X78694010Y-107881589D01*
X78582068Y-108151842D01*
X78525000Y-108438740D01*
X78525000Y-108731260D01*
X78582068Y-109018158D01*
X78694010Y-109288411D01*
X78856525Y-109531632D01*
X79063368Y-109738475D01*
X79306589Y-109900990D01*
X79576842Y-110012932D01*
X79863740Y-110070000D01*
X80156260Y-110070000D01*
X80443158Y-110012932D01*
X80713411Y-109900990D01*
X80956632Y-109738475D01*
X81163475Y-109531632D01*
X81325990Y-109288411D01*
X81396550Y-109118061D01*
X81981879Y-109118061D01*
X81981879Y-109321939D01*
X82021653Y-109521898D01*
X82099674Y-109710256D01*
X82212942Y-109879774D01*
X82357105Y-110023937D01*
X82526623Y-110137205D01*
X82714981Y-110215226D01*
X82914940Y-110255000D01*
X83118818Y-110255000D01*
X83318777Y-110215226D01*
X83507135Y-110137205D01*
X83630164Y-110055000D01*
X90168739Y-110055000D01*
X90094463Y-110145506D01*
X90035498Y-110255820D01*
X89999188Y-110375518D01*
X89986928Y-110500000D01*
X89990000Y-110914250D01*
X90148750Y-111073000D01*
X91073000Y-111073000D01*
X91073000Y-111053000D01*
X91327000Y-111053000D01*
X91327000Y-111073000D01*
X91347000Y-111073000D01*
X91347000Y-111327000D01*
X91327000Y-111327000D01*
X91327000Y-111347000D01*
X91073000Y-111347000D01*
X91073000Y-111327000D01*
X90148750Y-111327000D01*
X89990000Y-111485750D01*
X89986928Y-111900000D01*
X89999188Y-112024482D01*
X90035498Y-112144180D01*
X90094463Y-112254494D01*
X90121681Y-112287659D01*
X89446393Y-112287659D01*
X89423505Y-112232404D01*
X89310237Y-112062886D01*
X89166074Y-111918723D01*
X88996556Y-111805455D01*
X88808198Y-111727434D01*
X88608239Y-111687660D01*
X88404361Y-111687660D01*
X88204402Y-111727434D01*
X88016044Y-111805455D01*
X87846526Y-111918723D01*
X87702363Y-112062886D01*
X87589095Y-112232404D01*
X87511074Y-112420762D01*
X87471300Y-112620721D01*
X87471300Y-112824599D01*
X87511074Y-113024558D01*
X87589095Y-113212916D01*
X87702363Y-113382434D01*
X87846526Y-113526597D01*
X88016044Y-113639865D01*
X88204402Y-113717886D01*
X88350866Y-113747019D01*
X88440153Y-113820295D01*
X88566397Y-113887774D01*
X88585212Y-113897831D01*
X88742610Y-113945577D01*
X88906298Y-113961699D01*
X88947317Y-113957659D01*
X96821386Y-113957659D01*
X96801744Y-113965795D01*
X96632226Y-114079063D01*
X96488063Y-114223226D01*
X96374795Y-114392744D01*
X96296774Y-114581102D01*
X96257000Y-114781061D01*
X96257000Y-114984939D01*
X96296774Y-115184898D01*
X96374795Y-115373256D01*
X96488063Y-115542774D01*
X96632226Y-115686937D01*
X96801744Y-115800205D01*
X96990102Y-115878226D01*
X97046956Y-115889535D01*
X97402470Y-116245049D01*
X97430183Y-116278817D01*
X97463951Y-116306530D01*
X97463953Y-116306532D01*
X97516919Y-116350000D01*
X97564941Y-116389411D01*
X97593927Y-116404904D01*
X97604528Y-116439851D01*
X97686595Y-116593387D01*
X97797038Y-116727962D01*
X97931613Y-116838405D01*
X98085149Y-116920472D01*
X98251745Y-116971008D01*
X98424999Y-116988072D01*
X99075001Y-116988072D01*
X99248255Y-116971008D01*
X99414851Y-116920472D01*
X99568387Y-116838405D01*
X99702962Y-116727962D01*
X99708342Y-116721406D01*
X99773815Y-116801185D01*
X99870506Y-116880537D01*
X99980820Y-116939502D01*
X100100518Y-116975812D01*
X100225000Y-116988072D01*
X100514250Y-116985000D01*
X100673000Y-116826250D01*
X100673000Y-115777000D01*
X100653000Y-115777000D01*
X100653000Y-115523000D01*
X100673000Y-115523000D01*
X100673000Y-114473750D01*
X100927000Y-114473750D01*
X100927000Y-115523000D01*
X101851250Y-115523000D01*
X102010000Y-115364250D01*
X102013072Y-114950000D01*
X102000812Y-114825518D01*
X101964502Y-114705820D01*
X101905537Y-114595506D01*
X101826185Y-114498815D01*
X101729494Y-114419463D01*
X101619180Y-114360498D01*
X101499482Y-114324188D01*
X101375000Y-114311928D01*
X101085750Y-114315000D01*
X100927000Y-114473750D01*
X100673000Y-114473750D01*
X100514250Y-114315000D01*
X100225000Y-114311928D01*
X100100518Y-114324188D01*
X99980820Y-114360498D01*
X99870506Y-114419463D01*
X99773815Y-114498815D01*
X99708342Y-114578594D01*
X99702962Y-114572038D01*
X99568387Y-114461595D01*
X99414851Y-114379528D01*
X99248255Y-114328992D01*
X99075001Y-114311928D01*
X98424999Y-114311928D01*
X98251745Y-114328992D01*
X98180956Y-114350466D01*
X98095937Y-114223226D01*
X97951774Y-114079063D01*
X97782256Y-113965795D01*
X97762614Y-113957659D01*
X101008986Y-113957659D01*
X101076064Y-113985444D01*
X101276023Y-114025218D01*
X101479901Y-114025218D01*
X101679860Y-113985444D01*
X101868218Y-113907423D01*
X102037736Y-113794155D01*
X102181899Y-113649992D01*
X102295167Y-113480474D01*
X102373188Y-113292116D01*
X102412962Y-113092157D01*
X102412962Y-112888279D01*
X102373188Y-112688320D01*
X102295167Y-112499962D01*
X102181899Y-112330444D01*
X102037736Y-112186281D01*
X101868218Y-112073013D01*
X101679860Y-111994992D01*
X101479901Y-111955218D01*
X101276023Y-111955218D01*
X101076064Y-111994992D01*
X100965174Y-112040924D01*
X100901250Y-111977000D01*
X99977000Y-111977000D01*
X99977000Y-111997000D01*
X99723000Y-111997000D01*
X99723000Y-111977000D01*
X99703000Y-111977000D01*
X99703000Y-111723000D01*
X99723000Y-111723000D01*
X99723000Y-111703000D01*
X99977000Y-111703000D01*
X99977000Y-111723000D01*
X100901250Y-111723000D01*
X101060000Y-111564250D01*
X101062480Y-111229801D01*
X104884167Y-111229801D01*
X105056117Y-111401752D01*
X105084984Y-111546875D01*
X105163005Y-111735233D01*
X105276273Y-111904751D01*
X105420436Y-112048914D01*
X105589954Y-112162182D01*
X105778312Y-112240203D01*
X105978271Y-112279977D01*
X106182149Y-112279977D01*
X106382108Y-112240203D01*
X106570466Y-112162182D01*
X106638250Y-112116890D01*
X111588524Y-112116890D01*
X111633175Y-112264099D01*
X111758359Y-112526920D01*
X111932412Y-112760269D01*
X112148645Y-112955178D01*
X112398748Y-113104157D01*
X112673109Y-113201481D01*
X112903000Y-113080814D01*
X112903000Y-111887000D01*
X113157000Y-111887000D01*
X113157000Y-113080814D01*
X113386891Y-113201481D01*
X113661252Y-113104157D01*
X113911355Y-112955178D01*
X114127588Y-112760269D01*
X114301641Y-112526920D01*
X114426825Y-112264099D01*
X114471476Y-112116890D01*
X114350155Y-111887000D01*
X113157000Y-111887000D01*
X112903000Y-111887000D01*
X111709845Y-111887000D01*
X111588524Y-112116890D01*
X106638250Y-112116890D01*
X106739984Y-112048914D01*
X106884147Y-111904751D01*
X106997415Y-111735233D01*
X107075436Y-111546875D01*
X107115210Y-111346916D01*
X107115210Y-111143038D01*
X107075436Y-110943079D01*
X106997415Y-110754721D01*
X106884147Y-110585203D01*
X106739984Y-110441040D01*
X106570466Y-110327772D01*
X106382108Y-110249751D01*
X106236985Y-110220884D01*
X105849480Y-109833380D01*
X105823325Y-109801510D01*
X105696180Y-109697165D01*
X105551121Y-109619629D01*
X105393723Y-109571883D01*
X105271053Y-109559801D01*
X105271052Y-109559801D01*
X105230034Y-109555761D01*
X105189016Y-109559801D01*
X101818278Y-109559801D01*
X101849077Y-109513707D01*
X101927098Y-109325349D01*
X101966872Y-109125390D01*
X101966872Y-108921512D01*
X101927098Y-108721553D01*
X101849077Y-108533195D01*
X101735809Y-108363677D01*
X101591646Y-108219514D01*
X101422128Y-108106246D01*
X101233770Y-108028225D01*
X101033811Y-107988451D01*
X100829933Y-107988451D01*
X100629974Y-108028225D01*
X100441616Y-108106246D01*
X100272098Y-108219514D01*
X100127935Y-108363677D01*
X100113687Y-108385000D01*
X83630164Y-108385000D01*
X83507135Y-108302795D01*
X83318777Y-108224774D01*
X83118818Y-108185000D01*
X82914940Y-108185000D01*
X82714981Y-108224774D01*
X82526623Y-108302795D01*
X82357105Y-108416063D01*
X82212942Y-108560226D01*
X82099674Y-108729744D01*
X82021653Y-108918102D01*
X81981879Y-109118061D01*
X81396550Y-109118061D01*
X81437932Y-109018158D01*
X81495000Y-108731260D01*
X81495000Y-108438740D01*
X81437932Y-108151842D01*
X81325990Y-107881589D01*
X81163475Y-107638368D01*
X80956632Y-107431525D01*
X80782240Y-107315000D01*
X80956632Y-107198475D01*
X81163475Y-106991632D01*
X81195636Y-106943500D01*
X86361395Y-106943500D01*
X86484424Y-107025705D01*
X86672782Y-107103726D01*
X86872741Y-107143500D01*
X87076619Y-107143500D01*
X87276578Y-107103726D01*
X87464936Y-107025705D01*
X87634454Y-106912437D01*
X87778617Y-106768274D01*
X87891885Y-106598756D01*
X87969906Y-106410398D01*
X88009680Y-106210439D01*
X88009680Y-106006561D01*
X87974561Y-105830000D01*
X111541928Y-105830000D01*
X111541928Y-107530000D01*
X111554188Y-107654482D01*
X111590498Y-107774180D01*
X111649463Y-107884494D01*
X111728815Y-107981185D01*
X111825506Y-108060537D01*
X111935820Y-108119502D01*
X112008380Y-108141513D01*
X111876525Y-108273368D01*
X111714010Y-108516589D01*
X111602068Y-108786842D01*
X111545000Y-109073740D01*
X111545000Y-109366260D01*
X111602068Y-109653158D01*
X111714010Y-109923411D01*
X111876525Y-110166632D01*
X112083368Y-110373475D01*
X112265534Y-110495195D01*
X112148645Y-110564822D01*
X111932412Y-110759731D01*
X111758359Y-110993080D01*
X111633175Y-111255901D01*
X111588524Y-111403110D01*
X111709845Y-111633000D01*
X112903000Y-111633000D01*
X112903000Y-111613000D01*
X113157000Y-111613000D01*
X113157000Y-111633000D01*
X114350155Y-111633000D01*
X114471476Y-111403110D01*
X114426825Y-111255901D01*
X114301641Y-110993080D01*
X114127588Y-110759731D01*
X113911355Y-110564822D01*
X113794466Y-110495195D01*
X113976632Y-110373475D01*
X114183475Y-110166632D01*
X114345990Y-109923411D01*
X114457932Y-109653158D01*
X114515000Y-109366260D01*
X114515000Y-109073740D01*
X114457932Y-108786842D01*
X114345990Y-108516589D01*
X114183475Y-108273368D01*
X114051620Y-108141513D01*
X114124180Y-108119502D01*
X114234494Y-108060537D01*
X114331185Y-107981185D01*
X114410537Y-107884494D01*
X114469502Y-107774180D01*
X114505812Y-107654482D01*
X114518072Y-107530000D01*
X114518072Y-105830000D01*
X114505812Y-105705518D01*
X114469502Y-105585820D01*
X114410537Y-105475506D01*
X114331185Y-105378815D01*
X114234494Y-105299463D01*
X114124180Y-105240498D01*
X114004482Y-105204188D01*
X113880000Y-105191928D01*
X112180000Y-105191928D01*
X112055518Y-105204188D01*
X111935820Y-105240498D01*
X111825506Y-105299463D01*
X111728815Y-105378815D01*
X111649463Y-105475506D01*
X111590498Y-105585820D01*
X111554188Y-105705518D01*
X111541928Y-105830000D01*
X87974561Y-105830000D01*
X87969906Y-105806602D01*
X87891885Y-105618244D01*
X87778617Y-105448726D01*
X87634454Y-105304563D01*
X87464936Y-105191295D01*
X87276578Y-105113274D01*
X87076619Y-105073500D01*
X86872741Y-105073500D01*
X86672782Y-105113274D01*
X86484424Y-105191295D01*
X86361395Y-105273500D01*
X81280494Y-105273500D01*
X81163475Y-105098368D01*
X81075287Y-105010180D01*
X90036428Y-105010180D01*
X90048688Y-105134662D01*
X90084998Y-105254360D01*
X90143963Y-105364674D01*
X90223315Y-105461365D01*
X90320006Y-105540717D01*
X90430320Y-105599682D01*
X90550018Y-105635992D01*
X90674500Y-105648252D01*
X90963750Y-105645180D01*
X91122500Y-105486430D01*
X91122500Y-104437180D01*
X90198250Y-104437180D01*
X90039500Y-104595930D01*
X90036428Y-105010180D01*
X81075287Y-105010180D01*
X81031620Y-104966513D01*
X81104180Y-104944502D01*
X81214494Y-104885537D01*
X81311185Y-104806185D01*
X81390537Y-104709494D01*
X81449502Y-104599180D01*
X81485812Y-104479482D01*
X81498072Y-104355000D01*
X81498072Y-103610180D01*
X90036428Y-103610180D01*
X90039500Y-104024430D01*
X90198250Y-104183180D01*
X91122500Y-104183180D01*
X91122500Y-104163180D01*
X91376500Y-104163180D01*
X91376500Y-104183180D01*
X91396500Y-104183180D01*
X91396500Y-104437180D01*
X91376500Y-104437180D01*
X91376500Y-105486430D01*
X91535250Y-105645180D01*
X91824500Y-105648252D01*
X91948982Y-105635992D01*
X92068680Y-105599682D01*
X92178994Y-105540717D01*
X92275685Y-105461365D01*
X92341158Y-105381586D01*
X92346538Y-105388142D01*
X92481113Y-105498585D01*
X92634649Y-105580652D01*
X92801245Y-105631188D01*
X92974499Y-105648252D01*
X93624501Y-105648252D01*
X93797755Y-105631188D01*
X93964351Y-105580652D01*
X94079727Y-105518982D01*
X94175544Y-105583005D01*
X94363902Y-105661026D01*
X94563861Y-105700800D01*
X94767739Y-105700800D01*
X94967698Y-105661026D01*
X95156056Y-105583005D01*
X95325574Y-105469737D01*
X95406216Y-105389095D01*
X95563913Y-105454415D01*
X95763872Y-105494189D01*
X95967750Y-105494189D01*
X96167709Y-105454415D01*
X96332903Y-105385989D01*
X96384698Y-105449102D01*
X96519273Y-105559545D01*
X96672809Y-105641612D01*
X96839405Y-105692148D01*
X97012659Y-105709212D01*
X97662661Y-105709212D01*
X97835915Y-105692148D01*
X98002511Y-105641612D01*
X98156047Y-105559545D01*
X98290622Y-105449102D01*
X98296002Y-105442546D01*
X98361475Y-105522325D01*
X98458166Y-105601677D01*
X98568480Y-105660642D01*
X98688178Y-105696952D01*
X98812660Y-105709212D01*
X99101910Y-105706140D01*
X99260660Y-105547390D01*
X99260660Y-104498140D01*
X99514660Y-104498140D01*
X99514660Y-105547390D01*
X99673410Y-105706140D01*
X99962660Y-105709212D01*
X100087142Y-105696952D01*
X100206840Y-105660642D01*
X100317154Y-105601677D01*
X100413845Y-105522325D01*
X100493197Y-105425634D01*
X100552162Y-105315320D01*
X100588472Y-105195622D01*
X100600732Y-105071140D01*
X100597660Y-104656890D01*
X100438910Y-104498140D01*
X99514660Y-104498140D01*
X99260660Y-104498140D01*
X99240660Y-104498140D01*
X99240660Y-104244140D01*
X99260660Y-104244140D01*
X99260660Y-103194890D01*
X99514660Y-103194890D01*
X99514660Y-104244140D01*
X100438910Y-104244140D01*
X100597660Y-104085390D01*
X100600732Y-103671140D01*
X100588472Y-103546658D01*
X100552162Y-103426960D01*
X100493197Y-103316646D01*
X100413845Y-103219955D01*
X100317154Y-103140603D01*
X100206840Y-103081638D01*
X100087142Y-103045328D01*
X99962660Y-103033068D01*
X99673410Y-103036140D01*
X99514660Y-103194890D01*
X99260660Y-103194890D01*
X99101910Y-103036140D01*
X98812660Y-103033068D01*
X98688178Y-103045328D01*
X98568480Y-103081638D01*
X98458166Y-103140603D01*
X98361475Y-103219955D01*
X98296002Y-103299734D01*
X98290622Y-103293178D01*
X98156047Y-103182735D01*
X98002511Y-103100668D01*
X97835915Y-103050132D01*
X97662661Y-103033068D01*
X97012659Y-103033068D01*
X96839405Y-103050132D01*
X96672809Y-103100668D01*
X96519273Y-103182735D01*
X96384698Y-103293178D01*
X96274255Y-103427753D01*
X96243046Y-103486140D01*
X96221249Y-103486140D01*
X96167709Y-103463963D01*
X95967750Y-103424189D01*
X95763872Y-103424189D01*
X95563913Y-103463963D01*
X95375555Y-103541984D01*
X95206037Y-103655252D01*
X95125395Y-103735894D01*
X94967698Y-103670574D01*
X94912463Y-103659587D01*
X94804239Y-103570769D01*
X94650493Y-103488591D01*
X94483670Y-103437985D01*
X94396362Y-103429386D01*
X94362905Y-103366793D01*
X94252462Y-103232218D01*
X94117887Y-103121775D01*
X93964351Y-103039708D01*
X93797755Y-102989172D01*
X93624501Y-102972108D01*
X92974499Y-102972108D01*
X92801245Y-102989172D01*
X92634649Y-103039708D01*
X92603051Y-103056597D01*
X92640100Y-102870339D01*
X92640100Y-102799967D01*
X92852668Y-102587400D01*
X103437815Y-102587400D01*
X103560844Y-102669605D01*
X103749202Y-102747626D01*
X103949161Y-102787400D01*
X104153039Y-102787400D01*
X104352998Y-102747626D01*
X104541356Y-102669605D01*
X104710874Y-102556337D01*
X104855037Y-102412174D01*
X104968305Y-102242656D01*
X105046326Y-102054298D01*
X105086100Y-101854339D01*
X105086100Y-101650461D01*
X105046326Y-101450502D01*
X104968305Y-101262144D01*
X104855037Y-101092626D01*
X104710874Y-100948463D01*
X104541356Y-100835195D01*
X104352998Y-100757174D01*
X104153039Y-100717400D01*
X103949161Y-100717400D01*
X103749202Y-100757174D01*
X103560844Y-100835195D01*
X103437815Y-100917400D01*
X92547807Y-100917400D01*
X92506799Y-100913361D01*
X92465791Y-100917400D01*
X92465781Y-100917400D01*
X92343111Y-100929482D01*
X92185713Y-100977228D01*
X92040654Y-101054764D01*
X91913509Y-101159109D01*
X91887358Y-101190974D01*
X91305645Y-101772688D01*
X91303202Y-101773174D01*
X91114844Y-101851195D01*
X90945326Y-101964463D01*
X90801163Y-102108626D01*
X90687895Y-102278144D01*
X90609874Y-102466502D01*
X90570100Y-102666461D01*
X90570100Y-102870339D01*
X90591960Y-102980237D01*
X90550018Y-102984368D01*
X90430320Y-103020678D01*
X90320006Y-103079643D01*
X90223315Y-103158995D01*
X90143963Y-103255686D01*
X90084998Y-103366000D01*
X90048688Y-103485698D01*
X90036428Y-103610180D01*
X81498072Y-103610180D01*
X81498072Y-102655000D01*
X81485812Y-102530518D01*
X81449502Y-102410820D01*
X81390537Y-102300506D01*
X81311185Y-102203815D01*
X81214494Y-102124463D01*
X81104180Y-102065498D01*
X80984482Y-102029188D01*
X80860000Y-102016928D01*
X79160000Y-102016928D01*
X79035518Y-102029188D01*
X78915820Y-102065498D01*
X78805506Y-102124463D01*
X78708815Y-102203815D01*
X78629463Y-102300506D01*
X78570498Y-102410820D01*
X78534188Y-102530518D01*
X78521928Y-102655000D01*
X76860000Y-102655000D01*
X76860000Y-98725560D01*
X79889045Y-98725560D01*
X79950932Y-98961368D01*
X80192790Y-99074266D01*
X80452027Y-99137811D01*
X80718680Y-99149561D01*
X80982501Y-99109063D01*
X81233353Y-99017875D01*
X81339068Y-98961368D01*
X81400955Y-98725560D01*
X80645000Y-97969605D01*
X79889045Y-98725560D01*
X76860000Y-98725560D01*
X76860000Y-97863680D01*
X79285439Y-97863680D01*
X79325937Y-98127501D01*
X79417125Y-98378353D01*
X79473632Y-98484068D01*
X79709440Y-98545955D01*
X80465395Y-97790000D01*
X80824605Y-97790000D01*
X81580560Y-98545955D01*
X81816368Y-98484068D01*
X81929266Y-98242210D01*
X81992811Y-97982973D01*
X82004561Y-97716320D01*
X81964063Y-97452499D01*
X81872875Y-97201647D01*
X81816368Y-97095932D01*
X81580560Y-97034045D01*
X80824605Y-97790000D01*
X80465395Y-97790000D01*
X79709440Y-97034045D01*
X79473632Y-97095932D01*
X79360734Y-97337790D01*
X79297189Y-97597027D01*
X79285439Y-97863680D01*
X76860000Y-97863680D01*
X76860000Y-93928861D01*
X78111400Y-93928861D01*
X78111400Y-94132739D01*
X78151174Y-94332698D01*
X78229195Y-94521056D01*
X78342463Y-94690574D01*
X78486626Y-94834737D01*
X78656144Y-94948005D01*
X78844502Y-95026026D01*
X79044461Y-95065800D01*
X79248339Y-95065800D01*
X79302226Y-95055081D01*
X79290000Y-95116544D01*
X79290000Y-95383456D01*
X79342072Y-95645239D01*
X79444215Y-95891833D01*
X79592503Y-96113762D01*
X79781238Y-96302497D01*
X80003167Y-96450785D01*
X80171324Y-96520438D01*
X80056647Y-96562125D01*
X79950932Y-96618632D01*
X79889045Y-96854440D01*
X80645000Y-97610395D01*
X81400955Y-96854440D01*
X81339068Y-96618632D01*
X81123993Y-96518236D01*
X81286833Y-96450785D01*
X81508762Y-96302497D01*
X81697497Y-96113762D01*
X81716715Y-96085000D01*
X88254882Y-96085000D01*
X88283234Y-96227538D01*
X88361255Y-96415896D01*
X88474523Y-96585414D01*
X88618686Y-96729577D01*
X88788204Y-96842845D01*
X88976562Y-96920866D01*
X89176521Y-96960640D01*
X89380399Y-96960640D01*
X89580358Y-96920866D01*
X89768716Y-96842845D01*
X89938234Y-96729577D01*
X90048930Y-96618881D01*
X90049848Y-96628202D01*
X90086158Y-96747900D01*
X90145123Y-96858214D01*
X90224475Y-96954905D01*
X90321166Y-97034257D01*
X90431480Y-97093222D01*
X90551178Y-97129532D01*
X90637277Y-97138012D01*
X90597383Y-97177906D01*
X90484115Y-97347424D01*
X90406094Y-97535782D01*
X90366320Y-97735741D01*
X90366320Y-97939619D01*
X90406094Y-98139578D01*
X90484115Y-98327936D01*
X90597383Y-98497454D01*
X90731329Y-98631400D01*
X83492718Y-98631400D01*
X83451700Y-98627360D01*
X83410682Y-98631400D01*
X83410681Y-98631400D01*
X83288011Y-98643482D01*
X83130613Y-98691228D01*
X83117756Y-98698100D01*
X83083061Y-98698100D01*
X82883102Y-98737874D01*
X82694744Y-98815895D01*
X82525226Y-98929163D01*
X82381063Y-99073326D01*
X82267795Y-99242844D01*
X82189774Y-99431202D01*
X82150000Y-99631161D01*
X82150000Y-99835039D01*
X82189774Y-100034998D01*
X82267795Y-100223356D01*
X82381063Y-100392874D01*
X82525226Y-100537037D01*
X82649898Y-100620340D01*
X82621664Y-100688502D01*
X82581890Y-100888461D01*
X82581890Y-101092339D01*
X82621664Y-101292298D01*
X82699685Y-101480656D01*
X82812953Y-101650174D01*
X82957116Y-101794337D01*
X83126634Y-101907605D01*
X83314992Y-101985626D01*
X83514951Y-102025400D01*
X83718829Y-102025400D01*
X83918788Y-101985626D01*
X84107146Y-101907605D01*
X84230175Y-101825400D01*
X86711901Y-101825400D01*
X86834930Y-101907605D01*
X87023288Y-101985626D01*
X87223247Y-102025400D01*
X87427125Y-102025400D01*
X87627084Y-101985626D01*
X87815442Y-101907605D01*
X87984960Y-101794337D01*
X88129123Y-101650174D01*
X88242391Y-101480656D01*
X88320412Y-101292298D01*
X88360186Y-101092339D01*
X88360186Y-100888461D01*
X88320412Y-100688502D01*
X88242391Y-100500144D01*
X88129123Y-100330626D01*
X88099897Y-100301400D01*
X96922715Y-100301400D01*
X97045744Y-100383605D01*
X97234102Y-100461626D01*
X97434061Y-100501400D01*
X97637939Y-100501400D01*
X97837898Y-100461626D01*
X98026256Y-100383605D01*
X98195774Y-100270337D01*
X98339937Y-100126174D01*
X98453205Y-99956656D01*
X98531226Y-99768298D01*
X98571000Y-99568339D01*
X98571000Y-99364461D01*
X98531226Y-99164502D01*
X98453205Y-98976144D01*
X98339937Y-98806626D01*
X98195774Y-98662463D01*
X98026256Y-98549195D01*
X97837898Y-98471174D01*
X97637939Y-98431400D01*
X97434061Y-98431400D01*
X97234102Y-98471174D01*
X97045744Y-98549195D01*
X96922715Y-98631400D01*
X92071311Y-98631400D01*
X92205257Y-98497454D01*
X92288053Y-98373540D01*
X102259255Y-98373540D01*
X102382284Y-98455745D01*
X102570642Y-98533766D01*
X102770601Y-98573540D01*
X102974479Y-98573540D01*
X103174438Y-98533766D01*
X103362796Y-98455745D01*
X103532314Y-98342477D01*
X103676477Y-98198314D01*
X103789745Y-98028796D01*
X103867766Y-97840438D01*
X103907540Y-97640479D01*
X103907540Y-97436601D01*
X103867766Y-97236642D01*
X103789745Y-97048284D01*
X103676477Y-96878766D01*
X103532314Y-96734603D01*
X103362796Y-96621335D01*
X103174438Y-96543314D01*
X102974479Y-96503540D01*
X102770601Y-96503540D01*
X102570642Y-96543314D01*
X102382284Y-96621335D01*
X102259255Y-96703540D01*
X95551277Y-96703540D01*
X95583005Y-96656056D01*
X95661026Y-96467698D01*
X95700800Y-96267739D01*
X95700800Y-96063861D01*
X95676185Y-95940113D01*
X95776099Y-96040027D01*
X95802249Y-96071891D01*
X95929394Y-96176236D01*
X96074453Y-96253772D01*
X96231851Y-96301518D01*
X96395540Y-96317640D01*
X96436558Y-96313600D01*
X98599115Y-96313600D01*
X98722144Y-96395805D01*
X98910502Y-96473826D01*
X99110461Y-96513600D01*
X99314339Y-96513600D01*
X99514298Y-96473826D01*
X99702656Y-96395805D01*
X99872174Y-96282537D01*
X100016337Y-96138374D01*
X100129605Y-95968856D01*
X100207626Y-95780498D01*
X100247400Y-95580539D01*
X100247400Y-95376661D01*
X100207626Y-95176702D01*
X100167175Y-95079046D01*
X100267800Y-95048522D01*
X100378114Y-94989557D01*
X100474805Y-94910205D01*
X100554157Y-94813514D01*
X100613122Y-94703200D01*
X100649432Y-94583502D01*
X100661692Y-94459020D01*
X100658620Y-94044770D01*
X100499870Y-93886020D01*
X99575620Y-93886020D01*
X99575620Y-93906020D01*
X99321620Y-93906020D01*
X99321620Y-93886020D01*
X99301620Y-93886020D01*
X99301620Y-93632020D01*
X99321620Y-93632020D01*
X99321620Y-92582770D01*
X99575620Y-92582770D01*
X99575620Y-93632020D01*
X100499870Y-93632020D01*
X100658620Y-93473270D01*
X100661692Y-93059020D01*
X100649432Y-92934538D01*
X100613122Y-92814840D01*
X100554157Y-92704526D01*
X100474805Y-92607835D01*
X100378114Y-92528483D01*
X100267800Y-92469518D01*
X100148102Y-92433208D01*
X100023620Y-92420948D01*
X99734370Y-92424020D01*
X99575620Y-92582770D01*
X99321620Y-92582770D01*
X99162870Y-92424020D01*
X98873620Y-92420948D01*
X98749138Y-92433208D01*
X98629440Y-92469518D01*
X98519126Y-92528483D01*
X98422435Y-92607835D01*
X98356962Y-92687614D01*
X98351582Y-92681058D01*
X98217007Y-92570615D01*
X98063471Y-92488548D01*
X97896875Y-92438012D01*
X97723621Y-92420948D01*
X97073619Y-92420948D01*
X96900365Y-92438012D01*
X96733769Y-92488548D01*
X96580233Y-92570615D01*
X96477622Y-92654826D01*
X96356067Y-92573606D01*
X96167709Y-92495585D01*
X95967750Y-92455811D01*
X95763872Y-92455811D01*
X95700800Y-92468357D01*
X95700800Y-92445501D01*
X95661026Y-92245542D01*
X95583005Y-92057184D01*
X95469737Y-91887666D01*
X95325574Y-91743503D01*
X95156056Y-91630235D01*
X94967698Y-91552214D01*
X94822575Y-91523347D01*
X94616655Y-91317427D01*
X94590500Y-91285558D01*
X94463355Y-91181213D01*
X94318296Y-91103677D01*
X94160898Y-91055931D01*
X94038228Y-91043849D01*
X94038227Y-91043849D01*
X93997209Y-91039809D01*
X93956191Y-91043849D01*
X81517169Y-91043849D01*
X81476150Y-91039809D01*
X81435132Y-91043849D01*
X81312462Y-91055931D01*
X81155064Y-91103677D01*
X81010005Y-91181213D01*
X80882860Y-91285558D01*
X80856709Y-91317423D01*
X80812383Y-91361749D01*
X80778456Y-91355000D01*
X80511544Y-91355000D01*
X80249761Y-91407072D01*
X80003167Y-91509215D01*
X79781238Y-91657503D01*
X79592503Y-91846238D01*
X79444215Y-92068167D01*
X79342072Y-92314761D01*
X79290000Y-92576544D01*
X79290000Y-92843456D01*
X79323268Y-93010704D01*
X79248339Y-92995800D01*
X79044461Y-92995800D01*
X78844502Y-93035574D01*
X78656144Y-93113595D01*
X78486626Y-93226863D01*
X78342463Y-93371026D01*
X78229195Y-93540544D01*
X78151174Y-93728902D01*
X78111400Y-93928861D01*
X76860000Y-93928861D01*
X76860000Y-89864861D01*
X77476400Y-89864861D01*
X77476400Y-90068739D01*
X77516174Y-90268698D01*
X77594195Y-90457056D01*
X77707463Y-90626574D01*
X77851626Y-90770737D01*
X78021144Y-90884005D01*
X78209502Y-90962026D01*
X78409461Y-91001800D01*
X78613339Y-91001800D01*
X78813298Y-90962026D01*
X79001656Y-90884005D01*
X79171174Y-90770737D01*
X79315337Y-90626574D01*
X79428605Y-90457056D01*
X79506626Y-90268698D01*
X79535493Y-90123575D01*
X79629428Y-90029640D01*
X86635715Y-90029640D01*
X86758744Y-90111845D01*
X86947102Y-90189866D01*
X87147061Y-90229640D01*
X87350939Y-90229640D01*
X87550898Y-90189866D01*
X87739256Y-90111845D01*
X87862285Y-90029640D01*
X97787082Y-90029640D01*
X97828100Y-90033680D01*
X97869118Y-90029640D01*
X97869119Y-90029640D01*
X97991789Y-90017558D01*
X98149187Y-89969812D01*
X98294246Y-89892276D01*
X98421391Y-89787931D01*
X98447545Y-89756062D01*
X98557695Y-89645913D01*
X98699682Y-89704726D01*
X98899641Y-89744500D01*
X99103519Y-89744500D01*
X99303478Y-89704726D01*
X99491836Y-89626705D01*
X99661354Y-89513437D01*
X99805517Y-89369274D01*
X99918785Y-89199756D01*
X99996806Y-89011398D01*
X100036580Y-88811439D01*
X100036580Y-88607561D01*
X99996806Y-88407602D01*
X99918785Y-88219244D01*
X99870480Y-88146950D01*
X99870480Y-87185500D01*
X100124480Y-87185500D01*
X100124480Y-88234750D01*
X100283230Y-88393500D01*
X100572480Y-88396572D01*
X100696962Y-88384312D01*
X100816660Y-88348002D01*
X100926974Y-88289037D01*
X101023665Y-88209685D01*
X101103017Y-88112994D01*
X101161982Y-88002680D01*
X101198292Y-87882982D01*
X101210552Y-87758500D01*
X101207480Y-87344250D01*
X101048730Y-87185500D01*
X100124480Y-87185500D01*
X99870480Y-87185500D01*
X99850480Y-87185500D01*
X99850480Y-86931500D01*
X99870480Y-86931500D01*
X99870480Y-85882250D01*
X100124480Y-85882250D01*
X100124480Y-86931500D01*
X101048730Y-86931500D01*
X101207480Y-86772750D01*
X101210552Y-86358500D01*
X101198292Y-86234018D01*
X101161982Y-86114320D01*
X101103017Y-86004006D01*
X101023665Y-85907315D01*
X100926974Y-85827963D01*
X100816660Y-85768998D01*
X100696962Y-85732688D01*
X100572480Y-85720428D01*
X100283230Y-85723500D01*
X100124480Y-85882250D01*
X99870480Y-85882250D01*
X99854294Y-85866064D01*
X99901005Y-85796156D01*
X99979026Y-85607798D01*
X100018800Y-85407839D01*
X100018800Y-85203961D01*
X99979026Y-85004002D01*
X99901005Y-84815644D01*
X99787737Y-84646126D01*
X99664531Y-84522920D01*
X102254175Y-84522920D01*
X102377204Y-84605125D01*
X102565562Y-84683146D01*
X102765521Y-84722920D01*
X102969399Y-84722920D01*
X103169358Y-84683146D01*
X103357716Y-84605125D01*
X103527234Y-84491857D01*
X103671397Y-84347694D01*
X103784665Y-84178176D01*
X103862686Y-83989818D01*
X103902460Y-83789859D01*
X103902460Y-83585981D01*
X103862686Y-83386022D01*
X103784665Y-83197664D01*
X103671397Y-83028146D01*
X103527234Y-82883983D01*
X103357716Y-82770715D01*
X103169358Y-82692694D01*
X102969399Y-82652920D01*
X102765521Y-82652920D01*
X102565562Y-82692694D01*
X102377204Y-82770715D01*
X102254175Y-82852920D01*
X91826458Y-82852920D01*
X91785440Y-82848880D01*
X91744421Y-82852920D01*
X91621751Y-82865002D01*
X91464353Y-82912748D01*
X91319294Y-82990284D01*
X91192149Y-83094629D01*
X91166002Y-83126489D01*
X91059704Y-83232788D01*
X90914582Y-83261654D01*
X90726224Y-83339675D01*
X90556706Y-83452943D01*
X90412543Y-83597106D01*
X90299275Y-83766624D01*
X90221254Y-83954982D01*
X90181480Y-84154941D01*
X90181480Y-84358819D01*
X90221254Y-84558778D01*
X90299275Y-84747136D01*
X90412543Y-84916654D01*
X90449389Y-84953500D01*
X81499499Y-84953500D01*
X81338456Y-84845895D01*
X81150098Y-84767874D01*
X80950139Y-84728100D01*
X80746261Y-84728100D01*
X80546302Y-84767874D01*
X80357944Y-84845895D01*
X80188426Y-84959163D01*
X80044263Y-85103326D01*
X79930995Y-85272844D01*
X79852974Y-85461202D01*
X79813200Y-85661161D01*
X79813200Y-85865039D01*
X79852974Y-86064998D01*
X79930995Y-86253356D01*
X80044263Y-86422874D01*
X80188426Y-86567037D01*
X80357944Y-86680305D01*
X80546302Y-86758326D01*
X80746261Y-86798100D01*
X80950139Y-86798100D01*
X81150098Y-86758326D01*
X81338456Y-86680305D01*
X81423471Y-86623500D01*
X89904080Y-86623500D01*
X89868128Y-86742018D01*
X89855868Y-86866500D01*
X89858940Y-87280750D01*
X90017690Y-87439500D01*
X90941940Y-87439500D01*
X90941940Y-87419500D01*
X91195940Y-87419500D01*
X91195940Y-87439500D01*
X91215940Y-87439500D01*
X91215940Y-87693500D01*
X91195940Y-87693500D01*
X91195940Y-87713500D01*
X90941940Y-87713500D01*
X90941940Y-87693500D01*
X90017690Y-87693500D01*
X89858940Y-87852250D01*
X89855868Y-88266500D01*
X89865041Y-88359640D01*
X87862285Y-88359640D01*
X87739256Y-88277435D01*
X87550898Y-88199414D01*
X87350939Y-88159640D01*
X87147061Y-88159640D01*
X86947102Y-88199414D01*
X86758744Y-88277435D01*
X86635715Y-88359640D01*
X79324578Y-88359640D01*
X79283559Y-88355600D01*
X79242541Y-88359640D01*
X79119871Y-88371722D01*
X78962473Y-88419468D01*
X78817414Y-88497004D01*
X78690269Y-88601349D01*
X78664121Y-88633211D01*
X78354625Y-88942707D01*
X78209502Y-88971574D01*
X78021144Y-89049595D01*
X77851626Y-89162863D01*
X77707463Y-89307026D01*
X77594195Y-89476544D01*
X77516174Y-89664902D01*
X77476400Y-89864861D01*
X76860000Y-89864861D01*
X76860000Y-81580560D01*
X80016045Y-81580560D01*
X80077932Y-81816368D01*
X80319790Y-81929266D01*
X80579027Y-81992811D01*
X80845680Y-82004561D01*
X81109501Y-81964063D01*
X81360353Y-81872875D01*
X81466068Y-81816368D01*
X81516931Y-81622561D01*
X98317100Y-81622561D01*
X98317100Y-81826439D01*
X98356874Y-82026398D01*
X98434895Y-82214756D01*
X98548163Y-82384274D01*
X98692326Y-82528437D01*
X98861844Y-82641705D01*
X99050202Y-82719726D01*
X99250161Y-82759500D01*
X99454039Y-82759500D01*
X99653998Y-82719726D01*
X99842356Y-82641705D01*
X99965385Y-82559500D01*
X106361887Y-82559500D01*
X106368924Y-82566537D01*
X106538442Y-82679805D01*
X106726800Y-82757826D01*
X106926759Y-82797600D01*
X107130637Y-82797600D01*
X107330596Y-82757826D01*
X107518954Y-82679805D01*
X107688472Y-82566537D01*
X107832635Y-82422374D01*
X107945903Y-82252856D01*
X108023924Y-82064498D01*
X108063698Y-81864539D01*
X108063698Y-81660661D01*
X108023924Y-81460702D01*
X107945903Y-81272344D01*
X107832635Y-81102826D01*
X107688472Y-80958663D01*
X107518954Y-80845395D01*
X107330596Y-80767374D01*
X107130637Y-80727600D01*
X106926759Y-80727600D01*
X106726800Y-80767374D01*
X106538442Y-80845395D01*
X106472434Y-80889500D01*
X99965385Y-80889500D01*
X99842356Y-80807295D01*
X99653998Y-80729274D01*
X99454039Y-80689500D01*
X99250161Y-80689500D01*
X99050202Y-80729274D01*
X98861844Y-80807295D01*
X98692326Y-80920563D01*
X98548163Y-81064726D01*
X98434895Y-81234244D01*
X98356874Y-81422602D01*
X98317100Y-81622561D01*
X81516931Y-81622561D01*
X81527955Y-81580560D01*
X80772000Y-80824605D01*
X80016045Y-81580560D01*
X76860000Y-81580560D01*
X76860000Y-80718680D01*
X79412439Y-80718680D01*
X79452937Y-80982501D01*
X79544125Y-81233353D01*
X79600632Y-81339068D01*
X79836440Y-81400955D01*
X80592395Y-80645000D01*
X80951605Y-80645000D01*
X81707560Y-81400955D01*
X81943368Y-81339068D01*
X82056266Y-81097210D01*
X82119811Y-80837973D01*
X82131561Y-80571320D01*
X82091063Y-80307499D01*
X81999875Y-80056647D01*
X81943368Y-79950932D01*
X81707560Y-79889045D01*
X80951605Y-80645000D01*
X80592395Y-80645000D01*
X79836440Y-79889045D01*
X79600632Y-79950932D01*
X79487734Y-80192790D01*
X79424189Y-80452027D01*
X79412439Y-80718680D01*
X76860000Y-80718680D01*
X76860000Y-75431544D01*
X79417000Y-75431544D01*
X79417000Y-75698456D01*
X79469072Y-75960239D01*
X79571215Y-76206833D01*
X79719503Y-76428762D01*
X79908238Y-76617497D01*
X80130167Y-76765785D01*
X80297266Y-76835000D01*
X80130167Y-76904215D01*
X79908238Y-77052503D01*
X79719503Y-77241238D01*
X79571215Y-77463167D01*
X79469072Y-77709761D01*
X79417000Y-77971544D01*
X79417000Y-78238456D01*
X79469072Y-78500239D01*
X79571215Y-78746833D01*
X79719503Y-78968762D01*
X79908238Y-79157497D01*
X80130167Y-79305785D01*
X80298324Y-79375438D01*
X80183647Y-79417125D01*
X80077932Y-79473632D01*
X80016045Y-79709440D01*
X80772000Y-80465395D01*
X81527955Y-79709440D01*
X81521156Y-79683533D01*
X81553377Y-79680359D01*
X88232923Y-79680359D01*
X88273941Y-79684399D01*
X88314959Y-79680359D01*
X88314960Y-79680359D01*
X88437630Y-79668277D01*
X88595028Y-79620531D01*
X88740087Y-79542995D01*
X88829374Y-79469719D01*
X88975838Y-79440586D01*
X89164196Y-79362565D01*
X89169950Y-79358720D01*
X89980328Y-79358720D01*
X89992588Y-79483202D01*
X90028898Y-79602900D01*
X90087863Y-79713214D01*
X90167215Y-79809905D01*
X90263906Y-79889257D01*
X90374220Y-79948222D01*
X90493918Y-79984532D01*
X90618400Y-79996792D01*
X90907650Y-79993720D01*
X91066400Y-79834970D01*
X91066400Y-78785720D01*
X90142150Y-78785720D01*
X89983400Y-78944470D01*
X89980328Y-79358720D01*
X89169950Y-79358720D01*
X89333714Y-79249297D01*
X89477877Y-79105134D01*
X89591145Y-78935616D01*
X89669166Y-78747258D01*
X89708940Y-78547299D01*
X89708940Y-78343421D01*
X89669166Y-78143462D01*
X89592643Y-77958720D01*
X89980328Y-77958720D01*
X89983400Y-78372970D01*
X90142150Y-78531720D01*
X91066400Y-78531720D01*
X91066400Y-77482470D01*
X91320400Y-77482470D01*
X91320400Y-78531720D01*
X91340400Y-78531720D01*
X91340400Y-78785720D01*
X91320400Y-78785720D01*
X91320400Y-79834970D01*
X91479150Y-79993720D01*
X91768400Y-79996792D01*
X91892882Y-79984532D01*
X92012580Y-79948222D01*
X92122894Y-79889257D01*
X92219585Y-79809905D01*
X92285058Y-79730126D01*
X92290438Y-79736682D01*
X92425013Y-79847125D01*
X92578549Y-79929192D01*
X92745145Y-79979728D01*
X92918399Y-79996792D01*
X93568401Y-79996792D01*
X93741655Y-79979728D01*
X93908251Y-79929192D01*
X94061787Y-79847125D01*
X94196362Y-79736682D01*
X94306805Y-79602107D01*
X94340973Y-79538183D01*
X94414770Y-79530915D01*
X94581593Y-79480309D01*
X94735339Y-79398131D01*
X94870097Y-79287537D01*
X94897814Y-79253764D01*
X94910843Y-79240735D01*
X94967698Y-79229426D01*
X95056553Y-79192621D01*
X95061874Y-79200585D01*
X95206037Y-79344748D01*
X95375555Y-79458016D01*
X95563913Y-79536037D01*
X95763872Y-79575811D01*
X95967750Y-79575811D01*
X96129084Y-79543720D01*
X96177226Y-79543720D01*
X96208435Y-79602107D01*
X96318878Y-79736682D01*
X96453453Y-79847125D01*
X96606989Y-79929192D01*
X96773585Y-79979728D01*
X96946839Y-79996792D01*
X97596841Y-79996792D01*
X97770095Y-79979728D01*
X97936691Y-79929192D01*
X98090227Y-79847125D01*
X98224802Y-79736682D01*
X98230182Y-79730126D01*
X98295655Y-79809905D01*
X98392346Y-79889257D01*
X98502660Y-79948222D01*
X98622358Y-79984532D01*
X98746840Y-79996792D01*
X99036090Y-79993720D01*
X99194840Y-79834970D01*
X99194840Y-78785720D01*
X99448840Y-78785720D01*
X99448840Y-79834970D01*
X99607590Y-79993720D01*
X99896840Y-79996792D01*
X100021322Y-79984532D01*
X100141020Y-79948222D01*
X100251334Y-79889257D01*
X100348025Y-79809905D01*
X100427377Y-79713214D01*
X100486342Y-79602900D01*
X100522652Y-79483202D01*
X100534912Y-79358720D01*
X100533524Y-79171461D01*
X102431900Y-79171461D01*
X102431900Y-79375339D01*
X102471674Y-79575298D01*
X102549695Y-79763656D01*
X102662963Y-79933174D01*
X102807126Y-80077337D01*
X102976644Y-80190605D01*
X103165002Y-80268626D01*
X103364961Y-80308400D01*
X103568839Y-80308400D01*
X103768798Y-80268626D01*
X103957156Y-80190605D01*
X104080185Y-80108400D01*
X104930308Y-80108400D01*
X104949201Y-80116226D01*
X105149160Y-80156000D01*
X105353038Y-80156000D01*
X105552997Y-80116226D01*
X105741355Y-80038205D01*
X105910873Y-79924937D01*
X106055036Y-79780774D01*
X106168304Y-79611256D01*
X106246325Y-79422898D01*
X106286099Y-79222939D01*
X106286099Y-79019061D01*
X106246325Y-78819102D01*
X106168304Y-78630744D01*
X106055036Y-78461226D01*
X105910873Y-78317063D01*
X105741355Y-78203795D01*
X105552997Y-78125774D01*
X105353038Y-78086000D01*
X105149160Y-78086000D01*
X104949201Y-78125774D01*
X104760843Y-78203795D01*
X104591325Y-78317063D01*
X104469988Y-78438400D01*
X104080185Y-78438400D01*
X103957156Y-78356195D01*
X103768798Y-78278174D01*
X103568839Y-78238400D01*
X103364961Y-78238400D01*
X103165002Y-78278174D01*
X102976644Y-78356195D01*
X102807126Y-78469463D01*
X102662963Y-78613626D01*
X102549695Y-78783144D01*
X102471674Y-78971502D01*
X102431900Y-79171461D01*
X100533524Y-79171461D01*
X100531840Y-78944470D01*
X100373090Y-78785720D01*
X99448840Y-78785720D01*
X99194840Y-78785720D01*
X99174840Y-78785720D01*
X99174840Y-78531720D01*
X99194840Y-78531720D01*
X99194840Y-77482470D01*
X99448840Y-77482470D01*
X99448840Y-78531720D01*
X100373090Y-78531720D01*
X100531840Y-78372970D01*
X100534912Y-77958720D01*
X100522652Y-77834238D01*
X100486342Y-77714540D01*
X100427377Y-77604226D01*
X100348025Y-77507535D01*
X100251334Y-77428183D01*
X100141020Y-77369218D01*
X100021322Y-77332908D01*
X99896840Y-77320648D01*
X99607590Y-77323720D01*
X99448840Y-77482470D01*
X99194840Y-77482470D01*
X99036090Y-77323720D01*
X98746840Y-77320648D01*
X98622358Y-77332908D01*
X98502660Y-77369218D01*
X98392346Y-77428183D01*
X98295655Y-77507535D01*
X98230182Y-77587314D01*
X98224802Y-77580758D01*
X98090227Y-77470315D01*
X97936691Y-77388248D01*
X97770095Y-77337712D01*
X97596841Y-77320648D01*
X96946839Y-77320648D01*
X96773585Y-77337712D01*
X96606989Y-77388248D01*
X96453453Y-77470315D01*
X96318878Y-77580758D01*
X96302069Y-77601239D01*
X96167709Y-77545585D01*
X95967750Y-77505811D01*
X95763872Y-77505811D01*
X95563913Y-77545585D01*
X95475058Y-77582390D01*
X95469737Y-77574426D01*
X95325574Y-77430263D01*
X95156056Y-77316995D01*
X94967698Y-77238974D01*
X94767739Y-77199200D01*
X94563861Y-77199200D01*
X94363902Y-77238974D01*
X94175544Y-77316995D01*
X94006026Y-77430263D01*
X93999348Y-77436941D01*
X93908251Y-77388248D01*
X93741655Y-77337712D01*
X93568401Y-77320648D01*
X92918399Y-77320648D01*
X92745145Y-77337712D01*
X92578549Y-77388248D01*
X92425013Y-77470315D01*
X92290438Y-77580758D01*
X92285058Y-77587314D01*
X92219585Y-77507535D01*
X92122894Y-77428183D01*
X92012580Y-77369218D01*
X91892882Y-77332908D01*
X91768400Y-77320648D01*
X91479150Y-77323720D01*
X91320400Y-77482470D01*
X91066400Y-77482470D01*
X90907650Y-77323720D01*
X90618400Y-77320648D01*
X90493918Y-77332908D01*
X90374220Y-77369218D01*
X90263906Y-77428183D01*
X90167215Y-77507535D01*
X90087863Y-77604226D01*
X90028898Y-77714540D01*
X89992588Y-77834238D01*
X89980328Y-77958720D01*
X89592643Y-77958720D01*
X89591145Y-77955104D01*
X89477877Y-77785586D01*
X89333714Y-77641423D01*
X89164196Y-77528155D01*
X88975838Y-77450134D01*
X88775879Y-77410360D01*
X88572001Y-77410360D01*
X88372042Y-77450134D01*
X88183684Y-77528155D01*
X88095707Y-77586939D01*
X88118900Y-77470339D01*
X88118900Y-77266461D01*
X88089767Y-77119999D01*
X93808263Y-77119999D01*
X93849281Y-77124039D01*
X93890299Y-77119999D01*
X93890300Y-77119999D01*
X94012970Y-77107917D01*
X94170368Y-77060171D01*
X94315427Y-76982635D01*
X94442572Y-76878290D01*
X94468727Y-76846420D01*
X94822575Y-76492573D01*
X94967698Y-76463706D01*
X95156056Y-76385685D01*
X95325574Y-76272417D01*
X95469737Y-76128254D01*
X95583005Y-75958736D01*
X95661026Y-75770378D01*
X95700800Y-75570419D01*
X95700800Y-75366541D01*
X95661026Y-75166582D01*
X95583005Y-74978224D01*
X95469737Y-74808706D01*
X95325574Y-74664543D01*
X95156056Y-74551275D01*
X94967698Y-74473254D01*
X94767739Y-74433480D01*
X94563861Y-74433480D01*
X94363902Y-74473254D01*
X94175544Y-74551275D01*
X94006026Y-74664543D01*
X93861863Y-74808706D01*
X93748595Y-74978224D01*
X93670574Y-75166582D01*
X93641707Y-75311705D01*
X93503414Y-75449999D01*
X92348000Y-75449999D01*
X92348000Y-75383060D01*
X92308226Y-75183101D01*
X92230205Y-74994743D01*
X92167731Y-74901244D01*
X92175974Y-74895737D01*
X92320137Y-74751574D01*
X92433405Y-74582056D01*
X92511426Y-74393698D01*
X92551200Y-74193739D01*
X92551200Y-73989861D01*
X92511426Y-73789902D01*
X92433405Y-73601544D01*
X92351200Y-73478515D01*
X92351200Y-73116868D01*
X92649468Y-72818600D01*
X96734755Y-72818600D01*
X96857784Y-72900805D01*
X97046142Y-72978826D01*
X97246101Y-73018600D01*
X97449979Y-73018600D01*
X97649938Y-72978826D01*
X97838296Y-72900805D01*
X98007814Y-72787537D01*
X98151977Y-72643374D01*
X98265245Y-72473856D01*
X98343266Y-72285498D01*
X98383040Y-72085539D01*
X98383040Y-72018599D01*
X103168760Y-72018599D01*
X103014744Y-72082395D01*
X102845226Y-72195663D01*
X102701063Y-72339826D01*
X102587795Y-72509344D01*
X102509774Y-72697702D01*
X102470000Y-72897661D01*
X102470000Y-73101539D01*
X102509774Y-73301498D01*
X102587795Y-73489856D01*
X102701063Y-73659374D01*
X102845226Y-73803537D01*
X102997102Y-73905017D01*
X102847502Y-73934774D01*
X102659144Y-74012795D01*
X102489626Y-74126063D01*
X102345463Y-74270226D01*
X102232195Y-74439744D01*
X102154174Y-74628102D01*
X102114400Y-74828061D01*
X102114400Y-75031939D01*
X102154174Y-75231898D01*
X102232195Y-75420256D01*
X102345463Y-75589774D01*
X102489626Y-75733937D01*
X102659144Y-75847205D01*
X102847502Y-75925226D01*
X103047461Y-75965000D01*
X103251339Y-75965000D01*
X103451298Y-75925226D01*
X103639656Y-75847205D01*
X103686657Y-75815800D01*
X106588133Y-75815800D01*
X108194163Y-77421832D01*
X108220309Y-77453691D01*
X108252168Y-77479837D01*
X108252170Y-77479839D01*
X108285918Y-77507535D01*
X108347454Y-77558036D01*
X108492513Y-77635572D01*
X108649911Y-77683318D01*
X108712536Y-77689486D01*
X108813600Y-77699440D01*
X108854618Y-77695400D01*
X112404101Y-77695400D01*
X112565144Y-77803005D01*
X112753502Y-77881026D01*
X112953461Y-77920800D01*
X113157339Y-77920800D01*
X113357298Y-77881026D01*
X113545656Y-77803005D01*
X113715174Y-77689737D01*
X113859337Y-77545574D01*
X113972605Y-77376056D01*
X114050626Y-77187698D01*
X114090400Y-76987739D01*
X114090400Y-76783861D01*
X114050626Y-76583902D01*
X113972605Y-76395544D01*
X113859337Y-76226026D01*
X113715174Y-76081863D01*
X113545656Y-75968595D01*
X113357298Y-75890574D01*
X113157339Y-75850800D01*
X112953461Y-75850800D01*
X112753502Y-75890574D01*
X112744200Y-75894427D01*
X112744200Y-75767861D01*
X112704426Y-75567902D01*
X112626405Y-75379544D01*
X112513137Y-75210026D01*
X112368974Y-75065863D01*
X112199456Y-74952595D01*
X112011098Y-74874574D01*
X111879175Y-74848333D01*
X111907683Y-74795000D01*
X112064893Y-74795000D01*
X112083368Y-74813475D01*
X112326589Y-74975990D01*
X112596842Y-75087932D01*
X112883740Y-75145000D01*
X113176260Y-75145000D01*
X113463158Y-75087932D01*
X113733411Y-74975990D01*
X113976632Y-74813475D01*
X114183475Y-74606632D01*
X114345990Y-74363411D01*
X114457932Y-74093158D01*
X114515000Y-73806260D01*
X114515000Y-73513740D01*
X114457932Y-73226842D01*
X114345990Y-72956589D01*
X114183475Y-72713368D01*
X113976632Y-72506525D01*
X113794466Y-72384805D01*
X113911355Y-72315178D01*
X114127588Y-72120269D01*
X114301641Y-71886920D01*
X114426825Y-71624099D01*
X114471476Y-71476890D01*
X114350155Y-71247000D01*
X113157000Y-71247000D01*
X113157000Y-71267000D01*
X112903000Y-71267000D01*
X112903000Y-71247000D01*
X110617000Y-71247000D01*
X110617000Y-71267000D01*
X110363000Y-71267000D01*
X110363000Y-71247000D01*
X110343000Y-71247000D01*
X110343000Y-70993000D01*
X110363000Y-70993000D01*
X110363000Y-68707000D01*
X110617000Y-68707000D01*
X110617000Y-70993000D01*
X112903000Y-70993000D01*
X112903000Y-68707000D01*
X113157000Y-68707000D01*
X113157000Y-70993000D01*
X114350155Y-70993000D01*
X114471476Y-70763110D01*
X114426825Y-70615901D01*
X114301641Y-70353080D01*
X114127588Y-70119731D01*
X113911355Y-69924822D01*
X113785745Y-69850000D01*
X113911355Y-69775178D01*
X114127588Y-69580269D01*
X114301641Y-69346920D01*
X114426825Y-69084099D01*
X114471476Y-68936890D01*
X114350155Y-68707000D01*
X113157000Y-68707000D01*
X112903000Y-68707000D01*
X110617000Y-68707000D01*
X110363000Y-68707000D01*
X109169845Y-68707000D01*
X109048524Y-68936890D01*
X109093175Y-69084099D01*
X109218359Y-69346920D01*
X109392412Y-69580269D01*
X109608645Y-69775178D01*
X109734255Y-69850000D01*
X109608645Y-69924822D01*
X109392412Y-70119731D01*
X109218359Y-70353080D01*
X109093175Y-70615901D01*
X109083367Y-70648236D01*
X108569972Y-70134841D01*
X108601439Y-70103374D01*
X108714707Y-69933856D01*
X108792728Y-69745498D01*
X108832502Y-69545539D01*
X108832502Y-69341661D01*
X108792728Y-69141702D01*
X108714707Y-68953344D01*
X108672193Y-68889718D01*
X108779337Y-68782574D01*
X108892605Y-68613056D01*
X108970626Y-68424698D01*
X109010400Y-68224739D01*
X109010400Y-68020861D01*
X108970626Y-67820902D01*
X108892605Y-67632544D01*
X108779337Y-67463026D01*
X108635174Y-67318863D01*
X108465656Y-67205595D01*
X108277298Y-67127574D01*
X108077339Y-67087800D01*
X107873461Y-67087800D01*
X107673502Y-67127574D01*
X107485144Y-67205595D01*
X107315626Y-67318863D01*
X107171463Y-67463026D01*
X107058195Y-67632544D01*
X106980174Y-67820902D01*
X106951308Y-67966024D01*
X106664332Y-68253000D01*
X95075168Y-68253000D01*
X94432593Y-67610425D01*
X94403726Y-67465302D01*
X94348593Y-67332200D01*
X102765482Y-67332200D01*
X102806500Y-67336240D01*
X102847518Y-67332200D01*
X102847519Y-67332200D01*
X102970189Y-67320118D01*
X103127587Y-67272372D01*
X103272646Y-67194836D01*
X103399791Y-67090491D01*
X103425946Y-67058622D01*
X103712575Y-66771993D01*
X103857698Y-66743126D01*
X104046056Y-66665105D01*
X104215574Y-66551837D01*
X104359737Y-66407674D01*
X104366942Y-66396890D01*
X109048524Y-66396890D01*
X109093175Y-66544099D01*
X109218359Y-66806920D01*
X109392412Y-67040269D01*
X109608645Y-67235178D01*
X109734255Y-67310000D01*
X109608645Y-67384822D01*
X109392412Y-67579731D01*
X109218359Y-67813080D01*
X109093175Y-68075901D01*
X109048524Y-68223110D01*
X109169845Y-68453000D01*
X110363000Y-68453000D01*
X110363000Y-66167000D01*
X110617000Y-66167000D01*
X110617000Y-68453000D01*
X112903000Y-68453000D01*
X112903000Y-66167000D01*
X113157000Y-66167000D01*
X113157000Y-68453000D01*
X114350155Y-68453000D01*
X114471476Y-68223110D01*
X114426825Y-68075901D01*
X114301641Y-67813080D01*
X114127588Y-67579731D01*
X113911355Y-67384822D01*
X113785745Y-67310000D01*
X113911355Y-67235178D01*
X114127588Y-67040269D01*
X114301641Y-66806920D01*
X114426825Y-66544099D01*
X114471476Y-66396890D01*
X114350155Y-66167000D01*
X113157000Y-66167000D01*
X112903000Y-66167000D01*
X110617000Y-66167000D01*
X110363000Y-66167000D01*
X109169845Y-66167000D01*
X109048524Y-66396890D01*
X104366942Y-66396890D01*
X104473005Y-66238156D01*
X104551026Y-66049798D01*
X104590800Y-65849839D01*
X104590800Y-65645961D01*
X104551026Y-65446002D01*
X104473005Y-65257644D01*
X104359737Y-65088126D01*
X104215574Y-64943963D01*
X104046056Y-64830695D01*
X103857698Y-64752674D01*
X103657739Y-64712900D01*
X103453861Y-64712900D01*
X103253902Y-64752674D01*
X103065544Y-64830695D01*
X102896026Y-64943963D01*
X102751863Y-65088126D01*
X102638595Y-65257644D01*
X102560574Y-65446002D01*
X102531707Y-65591125D01*
X102460633Y-65662200D01*
X91240551Y-65662200D01*
X91233259Y-65625542D01*
X91155238Y-65437184D01*
X91041970Y-65267666D01*
X90897807Y-65123503D01*
X90728289Y-65010235D01*
X90539931Y-64932214D01*
X90339972Y-64892440D01*
X90136094Y-64892440D01*
X89936135Y-64932214D01*
X89747777Y-65010235D01*
X89578259Y-65123503D01*
X89434096Y-65267666D01*
X89320828Y-65437184D01*
X89242807Y-65625542D01*
X89203033Y-65825501D01*
X89203033Y-66029379D01*
X89242807Y-66229338D01*
X89320828Y-66417696D01*
X89434096Y-66587214D01*
X89578259Y-66731377D01*
X89747777Y-66844645D01*
X89936135Y-66922666D01*
X90081258Y-66951532D01*
X90188351Y-67058626D01*
X90214502Y-67090491D01*
X90341647Y-67194836D01*
X90486706Y-67272372D01*
X90644104Y-67320118D01*
X90766774Y-67332200D01*
X90766784Y-67332200D01*
X90807792Y-67336239D01*
X90848800Y-67332200D01*
X92468407Y-67332200D01*
X92413274Y-67465302D01*
X92373500Y-67665261D01*
X92373500Y-67869139D01*
X92413274Y-68069098D01*
X92491295Y-68257456D01*
X92604563Y-68426974D01*
X92619583Y-68441994D01*
X92532826Y-68499963D01*
X92388663Y-68644126D01*
X92275395Y-68813644D01*
X92197374Y-69002002D01*
X92157600Y-69201961D01*
X92157600Y-69405839D01*
X92197374Y-69605798D01*
X92275395Y-69794156D01*
X92388663Y-69963674D01*
X92532826Y-70107837D01*
X92702344Y-70221105D01*
X92890702Y-70299126D01*
X93037166Y-70328259D01*
X93126453Y-70401535D01*
X93268281Y-70477344D01*
X93271512Y-70479071D01*
X93428910Y-70526817D01*
X93582052Y-70541900D01*
X93574417Y-70560333D01*
X93563484Y-70615297D01*
X93547223Y-70668902D01*
X93541732Y-70724652D01*
X93530800Y-70779612D01*
X93530800Y-70835649D01*
X93525309Y-70891400D01*
X93530800Y-70947151D01*
X93530800Y-71003188D01*
X93541732Y-71058148D01*
X93547223Y-71113898D01*
X93557750Y-71148600D01*
X92344618Y-71148600D01*
X92303600Y-71144560D01*
X92262582Y-71148600D01*
X92262581Y-71148600D01*
X92139911Y-71160682D01*
X92077339Y-71179663D01*
X91982513Y-71208428D01*
X91837454Y-71285964D01*
X91786421Y-71327846D01*
X91710309Y-71390309D01*
X91684163Y-71422169D01*
X90954774Y-72151559D01*
X90922910Y-72177709D01*
X90896762Y-72209571D01*
X90818564Y-72304855D01*
X90741028Y-72449914D01*
X90693282Y-72607312D01*
X90677160Y-72771000D01*
X90681201Y-72812028D01*
X90681200Y-73478514D01*
X90598995Y-73601544D01*
X90520974Y-73789902D01*
X90481200Y-73989861D01*
X90481200Y-74193739D01*
X90520974Y-74393698D01*
X90598995Y-74582056D01*
X90644393Y-74649999D01*
X85525485Y-74649999D01*
X85402456Y-74567794D01*
X85214098Y-74489773D01*
X85014139Y-74449999D01*
X84810261Y-74449999D01*
X84610302Y-74489773D01*
X84421944Y-74567794D01*
X84252426Y-74681062D01*
X84108263Y-74825225D01*
X83994995Y-74994743D01*
X83916974Y-75183101D01*
X83877200Y-75383060D01*
X83877200Y-75449999D01*
X82127000Y-75449999D01*
X82127000Y-75431544D01*
X82074928Y-75169761D01*
X81972785Y-74923167D01*
X81824497Y-74701238D01*
X81635762Y-74512503D01*
X81413833Y-74364215D01*
X81167239Y-74262072D01*
X80905456Y-74210000D01*
X80638544Y-74210000D01*
X80376761Y-74262072D01*
X80130167Y-74364215D01*
X79908238Y-74512503D01*
X79719503Y-74701238D01*
X79571215Y-74923167D01*
X79469072Y-75169761D01*
X79417000Y-75431544D01*
X76860000Y-75431544D01*
X76860000Y-62658881D01*
X87044960Y-62658881D01*
X87049001Y-62699910D01*
X87049000Y-70342381D01*
X87044960Y-70383400D01*
X87049000Y-70424418D01*
X87061082Y-70547088D01*
X87108828Y-70704486D01*
X87186364Y-70849545D01*
X87290709Y-70976691D01*
X87322578Y-71002845D01*
X87444107Y-71124375D01*
X87472974Y-71269498D01*
X87550995Y-71457856D01*
X87664263Y-71627374D01*
X87808426Y-71771537D01*
X87977944Y-71884805D01*
X88166302Y-71962826D01*
X88366261Y-72002600D01*
X88570139Y-72002600D01*
X88770098Y-71962826D01*
X88958456Y-71884805D01*
X89127974Y-71771537D01*
X89272137Y-71627374D01*
X89385405Y-71457856D01*
X89463426Y-71269498D01*
X89503200Y-71069539D01*
X89503200Y-70865661D01*
X89463426Y-70665702D01*
X89385405Y-70477344D01*
X89272137Y-70307826D01*
X89127974Y-70163663D01*
X88958456Y-70050395D01*
X88770098Y-69972374D01*
X88719000Y-69962210D01*
X88719000Y-64058811D01*
X88748226Y-64088037D01*
X88917744Y-64201305D01*
X89106102Y-64279326D01*
X89306061Y-64319100D01*
X89509939Y-64319100D01*
X89709898Y-64279326D01*
X89898256Y-64201305D01*
X90067774Y-64088037D01*
X90211937Y-63943874D01*
X90325205Y-63774356D01*
X90403226Y-63585998D01*
X90432093Y-63440875D01*
X91569968Y-62303000D01*
X97735515Y-62303000D01*
X97828305Y-62365000D01*
X96008824Y-62365000D01*
X95977599Y-62358789D01*
X95921562Y-62358789D01*
X95865811Y-62353298D01*
X95810060Y-62358789D01*
X95754023Y-62358789D01*
X95699063Y-62369721D01*
X95643313Y-62375212D01*
X95589708Y-62391473D01*
X95534744Y-62402406D01*
X95482966Y-62423853D01*
X95429365Y-62440113D01*
X95379966Y-62466517D01*
X95328187Y-62487965D01*
X95281587Y-62519102D01*
X95269992Y-62525300D01*
X94021785Y-62525300D01*
X93898756Y-62443095D01*
X93710398Y-62365074D01*
X93510439Y-62325300D01*
X93306561Y-62325300D01*
X93106602Y-62365074D01*
X92918244Y-62443095D01*
X92748726Y-62556363D01*
X92604563Y-62700526D01*
X92491295Y-62870044D01*
X92413274Y-63058402D01*
X92373500Y-63258361D01*
X92373500Y-63462239D01*
X92413274Y-63662198D01*
X92491295Y-63850556D01*
X92604563Y-64020074D01*
X92748726Y-64164237D01*
X92918244Y-64277505D01*
X93106602Y-64355526D01*
X93306561Y-64395300D01*
X93510439Y-64395300D01*
X93710398Y-64355526D01*
X93898756Y-64277505D01*
X94021785Y-64195300D01*
X94969493Y-64195300D01*
X94984199Y-64217309D01*
X95030031Y-64263141D01*
X95065573Y-64306449D01*
X95108879Y-64341989D01*
X95142291Y-64375401D01*
X95181576Y-64401650D01*
X95238399Y-64448284D01*
X95303226Y-64482934D01*
X95328187Y-64499613D01*
X95355925Y-64511102D01*
X95435575Y-64553676D01*
X95521998Y-64579892D01*
X95534744Y-64585172D01*
X95548275Y-64587863D01*
X95649523Y-64618577D01*
X95816270Y-64635000D01*
X95816271Y-64635000D01*
X95872022Y-64640491D01*
X95927774Y-64635000D01*
X109524893Y-64635000D01*
X109543368Y-64653475D01*
X109725534Y-64775195D01*
X109608645Y-64844822D01*
X109392412Y-65039731D01*
X109218359Y-65273080D01*
X109093175Y-65535901D01*
X109048524Y-65683110D01*
X109169845Y-65913000D01*
X110363000Y-65913000D01*
X110363000Y-65893000D01*
X110617000Y-65893000D01*
X110617000Y-65913000D01*
X112903000Y-65913000D01*
X112903000Y-65893000D01*
X113157000Y-65893000D01*
X113157000Y-65913000D01*
X114350155Y-65913000D01*
X114471476Y-65683110D01*
X114426825Y-65535901D01*
X114301641Y-65273080D01*
X114127588Y-65039731D01*
X113911355Y-64844822D01*
X113794466Y-64775195D01*
X113976632Y-64653475D01*
X114183475Y-64446632D01*
X114345990Y-64203411D01*
X114457932Y-63933158D01*
X114515000Y-63646260D01*
X114515000Y-63353740D01*
X114457932Y-63066842D01*
X114345990Y-62796589D01*
X114183475Y-62553368D01*
X113976632Y-62346525D01*
X113733411Y-62184010D01*
X113463158Y-62072068D01*
X113176260Y-62015000D01*
X112883740Y-62015000D01*
X112596842Y-62072068D01*
X112326589Y-62184010D01*
X112083368Y-62346525D01*
X112064893Y-62365000D01*
X111455107Y-62365000D01*
X111436632Y-62346525D01*
X111193411Y-62184010D01*
X110923158Y-62072068D01*
X110636260Y-62015000D01*
X110343740Y-62015000D01*
X110056842Y-62072068D01*
X109786589Y-62184010D01*
X109543368Y-62346525D01*
X109524893Y-62365000D01*
X104270760Y-62365000D01*
X104270760Y-62293161D01*
X104230986Y-62093202D01*
X104152965Y-61904844D01*
X104039697Y-61735326D01*
X103895534Y-61591163D01*
X103726016Y-61477895D01*
X103537658Y-61399874D01*
X103337699Y-61360100D01*
X103133821Y-61360100D01*
X102933862Y-61399874D01*
X102745504Y-61477895D01*
X102687099Y-61516920D01*
X102055805Y-61516920D01*
X101932776Y-61434715D01*
X101744418Y-61356694D01*
X101544459Y-61316920D01*
X101340581Y-61316920D01*
X101140622Y-61356694D01*
X100952264Y-61434715D01*
X100782746Y-61547983D01*
X100638583Y-61692146D01*
X100525315Y-61861664D01*
X100447294Y-62050022D01*
X100407520Y-62249981D01*
X100407520Y-62365000D01*
X98869295Y-62365000D01*
X99008574Y-62271937D01*
X99152737Y-62127774D01*
X99266005Y-61958256D01*
X99344026Y-61769898D01*
X99383800Y-61569939D01*
X99383800Y-61366061D01*
X99344026Y-61166102D01*
X99266005Y-60977744D01*
X99152737Y-60808226D01*
X99008574Y-60664063D01*
X98839056Y-60550795D01*
X98650698Y-60472774D01*
X98450739Y-60433000D01*
X98246861Y-60433000D01*
X98046902Y-60472774D01*
X97858544Y-60550795D01*
X97735515Y-60633000D01*
X91265115Y-60633000D01*
X91224099Y-60628960D01*
X91183083Y-60633000D01*
X91183081Y-60633000D01*
X91060411Y-60645082D01*
X90903013Y-60692828D01*
X90757954Y-60770364D01*
X90630809Y-60874709D01*
X90604659Y-60906573D01*
X90274931Y-61236301D01*
X90274931Y-61201011D01*
X90235157Y-61001052D01*
X90157136Y-60812694D01*
X90043868Y-60643176D01*
X89899705Y-60499013D01*
X89730187Y-60385745D01*
X89541829Y-60307724D01*
X89341870Y-60267950D01*
X89137992Y-60267950D01*
X88938033Y-60307724D01*
X88749675Y-60385745D01*
X88580157Y-60499013D01*
X88435994Y-60643176D01*
X88322726Y-60812694D01*
X88244705Y-61001052D01*
X88215839Y-61146175D01*
X87322574Y-62039440D01*
X87290710Y-62065590D01*
X87239677Y-62127774D01*
X87186364Y-62192736D01*
X87108828Y-62337795D01*
X87061082Y-62495193D01*
X87044960Y-62658881D01*
X76860000Y-62658881D01*
X76860000Y-60300000D01*
X83736928Y-60300000D01*
X83749188Y-60424482D01*
X83785498Y-60544180D01*
X83844463Y-60654494D01*
X83923815Y-60751185D01*
X84020506Y-60830537D01*
X84130820Y-60889502D01*
X84250518Y-60925812D01*
X84375000Y-60938072D01*
X84664250Y-60935000D01*
X84823000Y-60776250D01*
X84823000Y-59727000D01*
X83898750Y-59727000D01*
X83740000Y-59885750D01*
X83736928Y-60300000D01*
X76860000Y-60300000D01*
X76860000Y-58580881D01*
X78758724Y-58580881D01*
X79118912Y-59070548D01*
X79782882Y-59430849D01*
X80504385Y-59654694D01*
X81255695Y-59733480D01*
X82007938Y-59664178D01*
X82732208Y-59449452D01*
X83400670Y-59097555D01*
X83441088Y-59070548D01*
X83801275Y-58580883D01*
X83817096Y-58596704D01*
X83785498Y-58655820D01*
X83749188Y-58775518D01*
X83736928Y-58900000D01*
X83740000Y-59314250D01*
X83898750Y-59473000D01*
X84823000Y-59473000D01*
X84823000Y-58423750D01*
X85077000Y-58423750D01*
X85077000Y-59473000D01*
X85097000Y-59473000D01*
X85097000Y-59727000D01*
X85077000Y-59727000D01*
X85077000Y-60776250D01*
X85235750Y-60935000D01*
X85296569Y-60935646D01*
X85304774Y-60976898D01*
X85382795Y-61165256D01*
X85496063Y-61334774D01*
X85640226Y-61478937D01*
X85809744Y-61592205D01*
X85998102Y-61670226D01*
X86198061Y-61710000D01*
X86401939Y-61710000D01*
X86601898Y-61670226D01*
X86790256Y-61592205D01*
X86959774Y-61478937D01*
X87103937Y-61334774D01*
X87217205Y-61165256D01*
X87295226Y-60976898D01*
X87302949Y-60938072D01*
X87325001Y-60938072D01*
X87498255Y-60921008D01*
X87664851Y-60870472D01*
X87818387Y-60788405D01*
X87952962Y-60677962D01*
X88063405Y-60543387D01*
X88145472Y-60389851D01*
X88196008Y-60223255D01*
X88213072Y-60050001D01*
X88213072Y-59605140D01*
X90013348Y-59605140D01*
X90025608Y-59729622D01*
X90061918Y-59849320D01*
X90120883Y-59959634D01*
X90200235Y-60056325D01*
X90296926Y-60135677D01*
X90407240Y-60194642D01*
X90526938Y-60230952D01*
X90651420Y-60243212D01*
X90940670Y-60240140D01*
X91099420Y-60081390D01*
X91099420Y-59032140D01*
X90175170Y-59032140D01*
X90016420Y-59190890D01*
X90013348Y-59605140D01*
X88213072Y-59605140D01*
X88213072Y-59149999D01*
X88196008Y-58976745D01*
X88145472Y-58810149D01*
X88063405Y-58656613D01*
X87952962Y-58522038D01*
X87818387Y-58411595D01*
X87664851Y-58329528D01*
X87498255Y-58278992D01*
X87325001Y-58261928D01*
X86674999Y-58261928D01*
X86501745Y-58278992D01*
X86335149Y-58329528D01*
X86181613Y-58411595D01*
X86047038Y-58522038D01*
X86041658Y-58528594D01*
X85976185Y-58448815D01*
X85879494Y-58369463D01*
X85769180Y-58310498D01*
X85649482Y-58274188D01*
X85525000Y-58261928D01*
X85235750Y-58265000D01*
X85077000Y-58423750D01*
X84823000Y-58423750D01*
X84664250Y-58265000D01*
X84375000Y-58261928D01*
X84250518Y-58274188D01*
X84130820Y-58310498D01*
X84033765Y-58362376D01*
X84247523Y-58205140D01*
X90013348Y-58205140D01*
X90016420Y-58619390D01*
X90175170Y-58778140D01*
X91099420Y-58778140D01*
X91099420Y-57728890D01*
X91353420Y-57728890D01*
X91353420Y-58778140D01*
X91373420Y-58778140D01*
X91373420Y-59032140D01*
X91353420Y-59032140D01*
X91353420Y-60081390D01*
X91512170Y-60240140D01*
X91801420Y-60243212D01*
X91925902Y-60230952D01*
X92045600Y-60194642D01*
X92155914Y-60135677D01*
X92252605Y-60056325D01*
X92318078Y-59976546D01*
X92323458Y-59983102D01*
X92458033Y-60093545D01*
X92611569Y-60175612D01*
X92778165Y-60226148D01*
X92951419Y-60243212D01*
X93601421Y-60243212D01*
X93774675Y-60226148D01*
X93941271Y-60175612D01*
X94094807Y-60093545D01*
X94144299Y-60052928D01*
X94175544Y-60073805D01*
X94363902Y-60151826D01*
X94563861Y-60191600D01*
X94767739Y-60191600D01*
X94967698Y-60151826D01*
X95156056Y-60073805D01*
X95282576Y-59989267D01*
X95375555Y-60051394D01*
X95563913Y-60129415D01*
X95763872Y-60169189D01*
X95967750Y-60169189D01*
X96167709Y-60129415D01*
X96342084Y-60057186D01*
X96420433Y-60121485D01*
X96573969Y-60203552D01*
X96740565Y-60254088D01*
X96913819Y-60271152D01*
X97563821Y-60271152D01*
X97737075Y-60254088D01*
X97903671Y-60203552D01*
X98057207Y-60121485D01*
X98191782Y-60011042D01*
X98197162Y-60004486D01*
X98262635Y-60084265D01*
X98359326Y-60163617D01*
X98469640Y-60222582D01*
X98589338Y-60258892D01*
X98713820Y-60271152D01*
X99003070Y-60268080D01*
X99161820Y-60109330D01*
X99161820Y-59060080D01*
X99415820Y-59060080D01*
X99415820Y-60109330D01*
X99574570Y-60268080D01*
X99863820Y-60271152D01*
X99988302Y-60258892D01*
X100108000Y-60222582D01*
X100218314Y-60163617D01*
X100315005Y-60084265D01*
X100394357Y-59987574D01*
X100453322Y-59877260D01*
X100489632Y-59757562D01*
X100501892Y-59633080D01*
X100498820Y-59218830D01*
X100340070Y-59060080D01*
X99415820Y-59060080D01*
X99161820Y-59060080D01*
X99141820Y-59060080D01*
X99141820Y-58806080D01*
X99161820Y-58806080D01*
X99161820Y-57756830D01*
X99415820Y-57756830D01*
X99415820Y-58806080D01*
X100340070Y-58806080D01*
X100498820Y-58647330D01*
X100501892Y-58233080D01*
X100489632Y-58108598D01*
X100453322Y-57988900D01*
X100394357Y-57878586D01*
X100315005Y-57781895D01*
X100218314Y-57702543D01*
X100108000Y-57643578D01*
X99988302Y-57607268D01*
X99863820Y-57595008D01*
X99574570Y-57598080D01*
X99415820Y-57756830D01*
X99161820Y-57756830D01*
X99003070Y-57598080D01*
X98713820Y-57595008D01*
X98589338Y-57607268D01*
X98469640Y-57643578D01*
X98359326Y-57702543D01*
X98262635Y-57781895D01*
X98197162Y-57861674D01*
X98191782Y-57855118D01*
X98057207Y-57744675D01*
X97903671Y-57662608D01*
X97737075Y-57612072D01*
X97563821Y-57595008D01*
X96913819Y-57595008D01*
X96740565Y-57612072D01*
X96573969Y-57662608D01*
X96420433Y-57744675D01*
X96285858Y-57855118D01*
X96175415Y-57989693D01*
X96144206Y-58048080D01*
X96110386Y-58048080D01*
X96066919Y-58043799D01*
X96023453Y-58048080D01*
X96023443Y-58048080D01*
X95893430Y-58060885D01*
X95767161Y-58099189D01*
X95763872Y-58099189D01*
X95563913Y-58138963D01*
X95375555Y-58216984D01*
X95249035Y-58301522D01*
X95156056Y-58239395D01*
X94967698Y-58161374D01*
X94860275Y-58140006D01*
X94754653Y-58083551D01*
X94587830Y-58032945D01*
X94457817Y-58020140D01*
X94457809Y-58020140D01*
X94414340Y-58015859D01*
X94371025Y-58020125D01*
X94339825Y-57961753D01*
X94229382Y-57827178D01*
X94094807Y-57716735D01*
X93941271Y-57634668D01*
X93774675Y-57584132D01*
X93601421Y-57567068D01*
X92951419Y-57567068D01*
X92778165Y-57584132D01*
X92611569Y-57634668D01*
X92458033Y-57716735D01*
X92323458Y-57827178D01*
X92318078Y-57833734D01*
X92252605Y-57753955D01*
X92155914Y-57674603D01*
X92045600Y-57615638D01*
X91925902Y-57579328D01*
X91801420Y-57567068D01*
X91512170Y-57570140D01*
X91353420Y-57728890D01*
X91099420Y-57728890D01*
X90940670Y-57570140D01*
X90651420Y-57567068D01*
X90526938Y-57579328D01*
X90407240Y-57615638D01*
X90296926Y-57674603D01*
X90200235Y-57753955D01*
X90120883Y-57850646D01*
X90061918Y-57960960D01*
X90025608Y-58080658D01*
X90013348Y-58205140D01*
X84247523Y-58205140D01*
X84470548Y-58041088D01*
X84785205Y-57461231D01*
X103701830Y-57461231D01*
X103701830Y-57665109D01*
X103741604Y-57865068D01*
X103819625Y-58053426D01*
X103932893Y-58222944D01*
X104077056Y-58367107D01*
X104114495Y-58392123D01*
X104103992Y-58426745D01*
X104086928Y-58599999D01*
X104086928Y-59500001D01*
X104103992Y-59673255D01*
X104154528Y-59839851D01*
X104236595Y-59993387D01*
X104347038Y-60127962D01*
X104481613Y-60238405D01*
X104635149Y-60320472D01*
X104801745Y-60371008D01*
X104974999Y-60388072D01*
X105625001Y-60388072D01*
X105798255Y-60371008D01*
X105964851Y-60320472D01*
X106118387Y-60238405D01*
X106252962Y-60127962D01*
X106258342Y-60121406D01*
X106323815Y-60201185D01*
X106420506Y-60280537D01*
X106530820Y-60339502D01*
X106650518Y-60375812D01*
X106775000Y-60388072D01*
X107064250Y-60385000D01*
X107223000Y-60226250D01*
X107223000Y-59177000D01*
X107477000Y-59177000D01*
X107477000Y-60226250D01*
X107635750Y-60385000D01*
X107925000Y-60388072D01*
X108049482Y-60375812D01*
X108169180Y-60339502D01*
X108279494Y-60280537D01*
X108376185Y-60201185D01*
X108455537Y-60104494D01*
X108514502Y-59994180D01*
X108550812Y-59874482D01*
X108563072Y-59750000D01*
X108560000Y-59335750D01*
X108401250Y-59177000D01*
X107477000Y-59177000D01*
X107223000Y-59177000D01*
X107203000Y-59177000D01*
X107203000Y-58923000D01*
X107223000Y-58923000D01*
X107223000Y-57873750D01*
X107477000Y-57873750D01*
X107477000Y-58923000D01*
X108401250Y-58923000D01*
X108560000Y-58764250D01*
X108563072Y-58350000D01*
X108550812Y-58225518D01*
X108514502Y-58105820D01*
X108455537Y-57995506D01*
X108376185Y-57898815D01*
X108279494Y-57819463D01*
X108169180Y-57760498D01*
X108049482Y-57724188D01*
X107925000Y-57711928D01*
X107635750Y-57715000D01*
X107477000Y-57873750D01*
X107223000Y-57873750D01*
X107064250Y-57715000D01*
X106775000Y-57711928D01*
X106650518Y-57724188D01*
X106530820Y-57760498D01*
X106420506Y-57819463D01*
X106323815Y-57898815D01*
X106258342Y-57978594D01*
X106252962Y-57972038D01*
X106153173Y-57890143D01*
X106121589Y-57786026D01*
X106039411Y-57632281D01*
X106011343Y-57598080D01*
X105928817Y-57497523D01*
X105895044Y-57469806D01*
X105743365Y-57318127D01*
X105732056Y-57261272D01*
X105654035Y-57072914D01*
X105540767Y-56903396D01*
X105396604Y-56759233D01*
X105227086Y-56645965D01*
X105038728Y-56567944D01*
X104838769Y-56528170D01*
X104634891Y-56528170D01*
X104434932Y-56567944D01*
X104246574Y-56645965D01*
X104077056Y-56759233D01*
X103932893Y-56903396D01*
X103819625Y-57072914D01*
X103741604Y-57261272D01*
X103701830Y-57461231D01*
X84785205Y-57461231D01*
X84830849Y-57377118D01*
X85054694Y-56655615D01*
X85133480Y-55904305D01*
X85064178Y-55152062D01*
X84849452Y-54427792D01*
X84497555Y-53759330D01*
X84470548Y-53718912D01*
X84058558Y-53415861D01*
X90608200Y-53415861D01*
X90608200Y-53619739D01*
X90647974Y-53819698D01*
X90725995Y-54008056D01*
X90839263Y-54177574D01*
X90983426Y-54321737D01*
X91152944Y-54435005D01*
X91341302Y-54513026D01*
X91486425Y-54541893D01*
X92852563Y-55908032D01*
X92878709Y-55939891D01*
X93005854Y-56044236D01*
X93150913Y-56121772D01*
X93308311Y-56169518D01*
X93430981Y-56181600D01*
X93430982Y-56181600D01*
X93472000Y-56185640D01*
X93513018Y-56181600D01*
X98421315Y-56181600D01*
X98544344Y-56263805D01*
X98732702Y-56341826D01*
X98932661Y-56381600D01*
X99136539Y-56381600D01*
X99336498Y-56341826D01*
X99524856Y-56263805D01*
X99647885Y-56181600D01*
X108362688Y-56181600D01*
X108458625Y-56277537D01*
X108628143Y-56390805D01*
X108816501Y-56468826D01*
X109016460Y-56508600D01*
X109220338Y-56508600D01*
X109420297Y-56468826D01*
X109608655Y-56390805D01*
X109778173Y-56277537D01*
X109922336Y-56133374D01*
X110035604Y-55963856D01*
X110113625Y-55775498D01*
X110153399Y-55575539D01*
X110153399Y-55371661D01*
X110113625Y-55171702D01*
X110035604Y-54983344D01*
X109922336Y-54813826D01*
X109778173Y-54669663D01*
X109608655Y-54556395D01*
X109420297Y-54478374D01*
X109220338Y-54438600D01*
X109016460Y-54438600D01*
X108816501Y-54478374D01*
X108736287Y-54511600D01*
X107456038Y-54511600D01*
X107546405Y-54376356D01*
X107624426Y-54187998D01*
X107664200Y-53988039D01*
X107664200Y-53784161D01*
X107624426Y-53584202D01*
X107546405Y-53395844D01*
X107433137Y-53226326D01*
X107288974Y-53082163D01*
X107119456Y-52968895D01*
X106931098Y-52890874D01*
X106731139Y-52851100D01*
X106527261Y-52851100D01*
X106327302Y-52890874D01*
X106138944Y-52968895D01*
X106015915Y-53051100D01*
X94313168Y-53051100D01*
X93734085Y-52472017D01*
X93705218Y-52326894D01*
X93627197Y-52138536D01*
X93513929Y-51969018D01*
X93369766Y-51824855D01*
X93200248Y-51711587D01*
X93011890Y-51633566D01*
X92811931Y-51593792D01*
X92608053Y-51593792D01*
X92408094Y-51633566D01*
X92219736Y-51711587D01*
X92050218Y-51824855D01*
X91906055Y-51969018D01*
X91792787Y-52138536D01*
X91714766Y-52326894D01*
X91683755Y-52482800D01*
X91541261Y-52482800D01*
X91341302Y-52522574D01*
X91152944Y-52600595D01*
X90983426Y-52713863D01*
X90839263Y-52858026D01*
X90725995Y-53027544D01*
X90647974Y-53215902D01*
X90608200Y-53415861D01*
X84058558Y-53415861D01*
X83980881Y-53358724D01*
X81459605Y-55880000D01*
X81473748Y-55894143D01*
X81294143Y-56073748D01*
X81280000Y-56059605D01*
X78758724Y-58580881D01*
X76860000Y-58580881D01*
X76860000Y-55855695D01*
X77426520Y-55855695D01*
X77495822Y-56607938D01*
X77710548Y-57332208D01*
X78062445Y-58000670D01*
X78089452Y-58041088D01*
X78579119Y-58401276D01*
X81100395Y-55880000D01*
X78579119Y-53358724D01*
X78089452Y-53718912D01*
X77729151Y-54382882D01*
X77505306Y-55104385D01*
X77426520Y-55855695D01*
X76860000Y-55855695D01*
X76860000Y-53179119D01*
X78758724Y-53179119D01*
X81280000Y-55700395D01*
X83801276Y-53179119D01*
X83441088Y-52689452D01*
X82777118Y-52329151D01*
X82055615Y-52105306D01*
X81304305Y-52026520D01*
X80552062Y-52095822D01*
X79827792Y-52310548D01*
X79159330Y-52662445D01*
X79118912Y-52689452D01*
X78758724Y-53179119D01*
X76860000Y-53179119D01*
X76860000Y-51460000D01*
X114910001Y-51460000D01*
X114910000Y-128880000D01*
G37*
X114910000Y-128880000D02*
X76860000Y-128880000D01*
X76860000Y-127160881D01*
X78758724Y-127160881D01*
X79118912Y-127650548D01*
X79782882Y-128010849D01*
X80504385Y-128234694D01*
X81255695Y-128313480D01*
X82007938Y-128244178D01*
X82732208Y-128029452D01*
X83400670Y-127677555D01*
X83441088Y-127650548D01*
X83801276Y-127160881D01*
X81280000Y-124639605D01*
X78758724Y-127160881D01*
X76860000Y-127160881D01*
X76860000Y-124435695D01*
X77426520Y-124435695D01*
X77495822Y-125187938D01*
X77710548Y-125912208D01*
X78062445Y-126580670D01*
X78089452Y-126621088D01*
X78579119Y-126981276D01*
X81100395Y-124460000D01*
X81459605Y-124460000D01*
X83980881Y-126981276D01*
X84470548Y-126621088D01*
X84726182Y-126150000D01*
X89951928Y-126150000D01*
X89951928Y-127850000D01*
X89964188Y-127974482D01*
X90000498Y-128094180D01*
X90059463Y-128204494D01*
X90138815Y-128301185D01*
X90235506Y-128380537D01*
X90345820Y-128439502D01*
X90465518Y-128475812D01*
X90590000Y-128488072D01*
X92290000Y-128488072D01*
X92414482Y-128475812D01*
X92534180Y-128439502D01*
X92644494Y-128380537D01*
X92741185Y-128301185D01*
X92820537Y-128204494D01*
X92879502Y-128094180D01*
X92901513Y-128021620D01*
X93033368Y-128153475D01*
X93276589Y-128315990D01*
X93546842Y-128427932D01*
X93833740Y-128485000D01*
X94126260Y-128485000D01*
X94413158Y-128427932D01*
X94683411Y-128315990D01*
X94926632Y-128153475D01*
X95133475Y-127946632D01*
X95250000Y-127772240D01*
X95366525Y-127946632D01*
X95573368Y-128153475D01*
X95816589Y-128315990D01*
X96086842Y-128427932D01*
X96373740Y-128485000D01*
X96666260Y-128485000D01*
X96953158Y-128427932D01*
X97223411Y-128315990D01*
X97466632Y-128153475D01*
X97673475Y-127946632D01*
X97790000Y-127772240D01*
X97906525Y-127946632D01*
X98113368Y-128153475D01*
X98356589Y-128315990D01*
X98626842Y-128427932D01*
X98913740Y-128485000D01*
X99206260Y-128485000D01*
X99493158Y-128427932D01*
X99763411Y-128315990D01*
X100006632Y-128153475D01*
X100213475Y-127946632D01*
X100335195Y-127764466D01*
X100404822Y-127881355D01*
X100599731Y-128097588D01*
X100833080Y-128271641D01*
X101095901Y-128396825D01*
X101243110Y-128441476D01*
X101473000Y-128320155D01*
X101473000Y-127127000D01*
X101727000Y-127127000D01*
X101727000Y-128320155D01*
X101956890Y-128441476D01*
X102104099Y-128396825D01*
X102366920Y-128271641D01*
X102600269Y-128097588D01*
X102795178Y-127881355D01*
X102944157Y-127631252D01*
X103041481Y-127356891D01*
X103041481Y-127356890D01*
X111588524Y-127356890D01*
X111633175Y-127504099D01*
X111758359Y-127766920D01*
X111932412Y-128000269D01*
X112148645Y-128195178D01*
X112398748Y-128344157D01*
X112673109Y-128441481D01*
X112903000Y-128320814D01*
X112903000Y-127127000D01*
X113157000Y-127127000D01*
X113157000Y-128320814D01*
X113386891Y-128441481D01*
X113661252Y-128344157D01*
X113911355Y-128195178D01*
X114127588Y-128000269D01*
X114301641Y-127766920D01*
X114426825Y-127504099D01*
X114471476Y-127356890D01*
X114350155Y-127127000D01*
X113157000Y-127127000D01*
X112903000Y-127127000D01*
X111709845Y-127127000D01*
X111588524Y-127356890D01*
X103041481Y-127356890D01*
X102920814Y-127127000D01*
X101727000Y-127127000D01*
X101473000Y-127127000D01*
X101453000Y-127127000D01*
X101453000Y-126873000D01*
X101473000Y-126873000D01*
X101473000Y-125679845D01*
X101727000Y-125679845D01*
X101727000Y-126873000D01*
X102920814Y-126873000D01*
X103041481Y-126643109D01*
X102944157Y-126368748D01*
X102795178Y-126118645D01*
X102600269Y-125902412D01*
X102366920Y-125728359D01*
X102104099Y-125603175D01*
X101956890Y-125558524D01*
X101727000Y-125679845D01*
X101473000Y-125679845D01*
X101243110Y-125558524D01*
X101095901Y-125603175D01*
X100833080Y-125728359D01*
X100599731Y-125902412D01*
X100404822Y-126118645D01*
X100335195Y-126235534D01*
X100213475Y-126053368D01*
X100006632Y-125846525D01*
X99763411Y-125684010D01*
X99493158Y-125572068D01*
X99206260Y-125515000D01*
X98913740Y-125515000D01*
X98626842Y-125572068D01*
X98356589Y-125684010D01*
X98113368Y-125846525D01*
X97906525Y-126053368D01*
X97790000Y-126227760D01*
X97673475Y-126053368D01*
X97466632Y-125846525D01*
X97223411Y-125684010D01*
X96953158Y-125572068D01*
X96666260Y-125515000D01*
X96373740Y-125515000D01*
X96086842Y-125572068D01*
X95816589Y-125684010D01*
X95573368Y-125846525D01*
X95366525Y-126053368D01*
X95250000Y-126227760D01*
X95133475Y-126053368D01*
X94926632Y-125846525D01*
X94683411Y-125684010D01*
X94413158Y-125572068D01*
X94126260Y-125515000D01*
X93833740Y-125515000D01*
X93546842Y-125572068D01*
X93276589Y-125684010D01*
X93033368Y-125846525D01*
X92901513Y-125978380D01*
X92879502Y-125905820D01*
X92820537Y-125795506D01*
X92741185Y-125698815D01*
X92644494Y-125619463D01*
X92534180Y-125560498D01*
X92414482Y-125524188D01*
X92290000Y-125511928D01*
X90590000Y-125511928D01*
X90465518Y-125524188D01*
X90345820Y-125560498D01*
X90235506Y-125619463D01*
X90138815Y-125698815D01*
X90059463Y-125795506D01*
X90000498Y-125905820D01*
X89964188Y-126025518D01*
X89951928Y-126150000D01*
X84726182Y-126150000D01*
X84830849Y-125957118D01*
X85054694Y-125235615D01*
X85133480Y-124484305D01*
X85064178Y-123732062D01*
X84849452Y-123007792D01*
X84497555Y-122339330D01*
X84470548Y-122298912D01*
X83980881Y-121938724D01*
X81459605Y-124460000D01*
X81100395Y-124460000D01*
X78579119Y-121938724D01*
X78089452Y-122298912D01*
X77729151Y-122962882D01*
X77505306Y-123684385D01*
X77426520Y-124435695D01*
X76860000Y-124435695D01*
X76860000Y-121759119D01*
X78758724Y-121759119D01*
X81280000Y-124280395D01*
X83801276Y-121759119D01*
X83441088Y-121269452D01*
X82777118Y-120909151D01*
X82055615Y-120685306D01*
X81304305Y-120606520D01*
X80552062Y-120675822D01*
X79827792Y-120890548D01*
X79159330Y-121242445D01*
X79118912Y-121269452D01*
X78758724Y-121759119D01*
X76860000Y-121759119D01*
X76860000Y-120350000D01*
X90036928Y-120350000D01*
X90049188Y-120474482D01*
X90085498Y-120594180D01*
X90144463Y-120704494D01*
X90223815Y-120801185D01*
X90320506Y-120880537D01*
X90430820Y-120939502D01*
X90550518Y-120975812D01*
X90675000Y-120988072D01*
X90964250Y-120985000D01*
X91123000Y-120826250D01*
X91123000Y-119777000D01*
X90198750Y-119777000D01*
X90040000Y-119935750D01*
X90036928Y-120350000D01*
X76860000Y-120350000D01*
X76860000Y-112815000D01*
X78521928Y-112815000D01*
X78521928Y-114515000D01*
X78534188Y-114639482D01*
X78570498Y-114759180D01*
X78629463Y-114869494D01*
X78708815Y-114966185D01*
X78805506Y-115045537D01*
X78915820Y-115104502D01*
X78988380Y-115126513D01*
X78856525Y-115258368D01*
X78694010Y-115501589D01*
X78582068Y-115771842D01*
X78525000Y-116058740D01*
X78525000Y-116351260D01*
X78582068Y-116638158D01*
X78694010Y-116908411D01*
X78856525Y-117151632D01*
X79063368Y-117358475D01*
X79237760Y-117475000D01*
X79063368Y-117591525D01*
X78856525Y-117798368D01*
X78694010Y-118041589D01*
X78582068Y-118311842D01*
X78525000Y-118598740D01*
X78525000Y-118891260D01*
X78582068Y-119178158D01*
X78694010Y-119448411D01*
X78856525Y-119691632D01*
X79063368Y-119898475D01*
X79306589Y-120060990D01*
X79576842Y-120172932D01*
X79863740Y-120230000D01*
X80156260Y-120230000D01*
X80443158Y-120172932D01*
X80713411Y-120060990D01*
X80956632Y-119898475D01*
X81163475Y-119691632D01*
X81325990Y-119448411D01*
X81437932Y-119178158D01*
X81483315Y-118950000D01*
X90036928Y-118950000D01*
X90040000Y-119364250D01*
X90198750Y-119523000D01*
X91123000Y-119523000D01*
X91123000Y-118473750D01*
X91377000Y-118473750D01*
X91377000Y-119523000D01*
X91397000Y-119523000D01*
X91397000Y-119777000D01*
X91377000Y-119777000D01*
X91377000Y-120826250D01*
X91535750Y-120985000D01*
X91825000Y-120988072D01*
X91949482Y-120975812D01*
X92069180Y-120939502D01*
X92179494Y-120880537D01*
X92276185Y-120801185D01*
X92341658Y-120721406D01*
X92347038Y-120727962D01*
X92481613Y-120838405D01*
X92635149Y-120920472D01*
X92801745Y-120971008D01*
X92974999Y-120988072D01*
X93201016Y-120988072D01*
X93180526Y-121001763D01*
X93036363Y-121145926D01*
X92923095Y-121315444D01*
X92845074Y-121503802D01*
X92805300Y-121703761D01*
X92805300Y-121907639D01*
X92845074Y-122107598D01*
X92923095Y-122295956D01*
X93036363Y-122465474D01*
X93180526Y-122609637D01*
X93350044Y-122722905D01*
X93538402Y-122800926D01*
X93738361Y-122840700D01*
X93942239Y-122840700D01*
X94142198Y-122800926D01*
X94330556Y-122722905D01*
X94453583Y-122640701D01*
X103729914Y-122640701D01*
X103852943Y-122722906D01*
X104041301Y-122800927D01*
X104241260Y-122840701D01*
X104445138Y-122840701D01*
X104645097Y-122800927D01*
X104833455Y-122722906D01*
X105002973Y-122609638D01*
X105147136Y-122465475D01*
X105260404Y-122295957D01*
X105338425Y-122107599D01*
X105378199Y-121907640D01*
X105378199Y-121703762D01*
X105338425Y-121503803D01*
X105260404Y-121315445D01*
X105147136Y-121145927D01*
X105012165Y-121010956D01*
X105184941Y-120939390D01*
X105354459Y-120826122D01*
X105498622Y-120681959D01*
X105611890Y-120512441D01*
X105689911Y-120324083D01*
X105712027Y-120212895D01*
X105864999Y-120365867D01*
X105865000Y-122478973D01*
X105860959Y-122520001D01*
X105877081Y-122683689D01*
X105924827Y-122841087D01*
X106001465Y-122984466D01*
X106002364Y-122986147D01*
X106106709Y-123113292D01*
X106138573Y-123139442D01*
X108020561Y-125021432D01*
X108046707Y-125053291D01*
X108078566Y-125079437D01*
X108078568Y-125079439D01*
X108173852Y-125157636D01*
X108318911Y-125235172D01*
X108476309Y-125282918D01*
X108639998Y-125299040D01*
X108681016Y-125295000D01*
X111801935Y-125295000D01*
X111876525Y-125406632D01*
X112083368Y-125613475D01*
X112265534Y-125735195D01*
X112148645Y-125804822D01*
X111932412Y-125999731D01*
X111758359Y-126233080D01*
X111633175Y-126495901D01*
X111588524Y-126643110D01*
X111709845Y-126873000D01*
X112903000Y-126873000D01*
X112903000Y-126853000D01*
X113157000Y-126853000D01*
X113157000Y-126873000D01*
X114350155Y-126873000D01*
X114471476Y-126643110D01*
X114426825Y-126495901D01*
X114301641Y-126233080D01*
X114127588Y-125999731D01*
X113911355Y-125804822D01*
X113794466Y-125735195D01*
X113976632Y-125613475D01*
X114183475Y-125406632D01*
X114345990Y-125163411D01*
X114457932Y-124893158D01*
X114515000Y-124606260D01*
X114515000Y-124313740D01*
X114457932Y-124026842D01*
X114345990Y-123756589D01*
X114183475Y-123513368D01*
X113976632Y-123306525D01*
X113802240Y-123190000D01*
X113976632Y-123073475D01*
X114183475Y-122866632D01*
X114345990Y-122623411D01*
X114457932Y-122353158D01*
X114515000Y-122066260D01*
X114515000Y-121773740D01*
X114457932Y-121486842D01*
X114345990Y-121216589D01*
X114183475Y-120973368D01*
X113976632Y-120766525D01*
X113802240Y-120650000D01*
X113976632Y-120533475D01*
X114183475Y-120326632D01*
X114345990Y-120083411D01*
X114457932Y-119813158D01*
X114515000Y-119526260D01*
X114515000Y-119233740D01*
X114457932Y-118946842D01*
X114345990Y-118676589D01*
X114183475Y-118433368D01*
X114051620Y-118301513D01*
X114124180Y-118279502D01*
X114234494Y-118220537D01*
X114331185Y-118141185D01*
X114410537Y-118044494D01*
X114469502Y-117934180D01*
X114505812Y-117814482D01*
X114518072Y-117690000D01*
X114518072Y-115990000D01*
X114505812Y-115865518D01*
X114469502Y-115745820D01*
X114410537Y-115635506D01*
X114331185Y-115538815D01*
X114234494Y-115459463D01*
X114124180Y-115400498D01*
X114004482Y-115364188D01*
X113880000Y-115351928D01*
X112180000Y-115351928D01*
X112055518Y-115364188D01*
X111935820Y-115400498D01*
X111825506Y-115459463D01*
X111728815Y-115538815D01*
X111649463Y-115635506D01*
X111590498Y-115745820D01*
X111554188Y-115865518D01*
X111541928Y-115990000D01*
X111541928Y-117690000D01*
X111554188Y-117814482D01*
X111590498Y-117934180D01*
X111649463Y-118044494D01*
X111728815Y-118141185D01*
X111825506Y-118220537D01*
X111935820Y-118279502D01*
X112008380Y-118301513D01*
X111876525Y-118433368D01*
X111714010Y-118676589D01*
X111602068Y-118946842D01*
X111545000Y-119233740D01*
X111545000Y-119526260D01*
X111559461Y-119598960D01*
X110123422Y-121035000D01*
X109144656Y-121035000D01*
X109103475Y-120973368D01*
X108896632Y-120766525D01*
X108722240Y-120650000D01*
X108896632Y-120533475D01*
X109103475Y-120326632D01*
X109265990Y-120083411D01*
X109377932Y-119813158D01*
X109435000Y-119526260D01*
X109435000Y-119233740D01*
X109377932Y-118946842D01*
X109265990Y-118676589D01*
X109103475Y-118433368D01*
X108971620Y-118301513D01*
X109044180Y-118279502D01*
X109154494Y-118220537D01*
X109251185Y-118141185D01*
X109330537Y-118044494D01*
X109389502Y-117934180D01*
X109425812Y-117814482D01*
X109438072Y-117690000D01*
X109438072Y-115990000D01*
X109425812Y-115865518D01*
X109389502Y-115745820D01*
X109330537Y-115635506D01*
X109251185Y-115538815D01*
X109154494Y-115459463D01*
X109044180Y-115400498D01*
X108924482Y-115364188D01*
X108800000Y-115351928D01*
X107100000Y-115351928D01*
X106975518Y-115364188D01*
X106855820Y-115400498D01*
X106745506Y-115459463D01*
X106648815Y-115538815D01*
X106569463Y-115635506D01*
X106510498Y-115745820D01*
X106474188Y-115865518D01*
X106461928Y-115990000D01*
X106461928Y-116762880D01*
X106391487Y-116725228D01*
X106234089Y-116677482D01*
X106111419Y-116665400D01*
X106111418Y-116665400D01*
X106070400Y-116661360D01*
X106029382Y-116665400D01*
X102949885Y-116665400D01*
X102826856Y-116583195D01*
X102638498Y-116505174D01*
X102438539Y-116465400D01*
X102234661Y-116465400D01*
X102034702Y-116505174D01*
X101985293Y-116525640D01*
X102000812Y-116474482D01*
X102013072Y-116350000D01*
X102010000Y-115935750D01*
X101851250Y-115777000D01*
X100927000Y-115777000D01*
X100927000Y-116826250D01*
X101085750Y-116985000D01*
X101375000Y-116988072D01*
X101438309Y-116981837D01*
X101419395Y-117010144D01*
X101371976Y-117124622D01*
X101340956Y-117103895D01*
X101152598Y-117025874D01*
X100952639Y-116986100D01*
X100748761Y-116986100D01*
X100548802Y-117025874D01*
X100360444Y-117103895D01*
X100190926Y-117217163D01*
X100046763Y-117361326D01*
X99933495Y-117530844D01*
X99855474Y-117719202D01*
X99815700Y-117919161D01*
X99815700Y-118123039D01*
X99855474Y-118322998D01*
X99933495Y-118511356D01*
X100046763Y-118680874D01*
X100190926Y-118825037D01*
X100360444Y-118938305D01*
X100545359Y-119014900D01*
X98962085Y-119014900D01*
X98839056Y-118932695D01*
X98650698Y-118854674D01*
X98450739Y-118814900D01*
X98246861Y-118814900D01*
X98046902Y-118854674D01*
X97858544Y-118932695D01*
X97689026Y-119045963D01*
X97544863Y-119190126D01*
X97431595Y-119359644D01*
X97353574Y-119548002D01*
X97313800Y-119747961D01*
X97313800Y-119951839D01*
X97353574Y-120151798D01*
X97431595Y-120340156D01*
X97544863Y-120509674D01*
X97689026Y-120653837D01*
X97858544Y-120767105D01*
X98046902Y-120845126D01*
X98246861Y-120884900D01*
X98450739Y-120884900D01*
X98650698Y-120845126D01*
X98839056Y-120767105D01*
X98962085Y-120684900D01*
X103893689Y-120684900D01*
X104025719Y-120816930D01*
X103852943Y-120888496D01*
X103729914Y-120970701D01*
X94453586Y-120970701D01*
X94330556Y-120888495D01*
X94148992Y-120813288D01*
X94252962Y-120727962D01*
X94363405Y-120593387D01*
X94445472Y-120439851D01*
X94496008Y-120273255D01*
X94513072Y-120100001D01*
X94513072Y-119614507D01*
X94558044Y-119569535D01*
X94614898Y-119558226D01*
X94803256Y-119480205D01*
X94972774Y-119366937D01*
X95116937Y-119222774D01*
X95230205Y-119053256D01*
X95308226Y-118864898D01*
X95348000Y-118664939D01*
X95348000Y-118461061D01*
X95308226Y-118261102D01*
X95230205Y-118072744D01*
X95116937Y-117903226D01*
X94972774Y-117759063D01*
X94803256Y-117645795D01*
X94614898Y-117567774D01*
X94414939Y-117528000D01*
X94211061Y-117528000D01*
X94011102Y-117567774D01*
X93822744Y-117645795D01*
X93653226Y-117759063D01*
X93509063Y-117903226D01*
X93395795Y-118072744D01*
X93317774Y-118261102D01*
X93307664Y-118311928D01*
X92974999Y-118311928D01*
X92801745Y-118328992D01*
X92635149Y-118379528D01*
X92481613Y-118461595D01*
X92347038Y-118572038D01*
X92341658Y-118578594D01*
X92276185Y-118498815D01*
X92179494Y-118419463D01*
X92069180Y-118360498D01*
X91949482Y-118324188D01*
X91825000Y-118311928D01*
X91535750Y-118315000D01*
X91377000Y-118473750D01*
X91123000Y-118473750D01*
X90964250Y-118315000D01*
X90675000Y-118311928D01*
X90550518Y-118324188D01*
X90430820Y-118360498D01*
X90320506Y-118419463D01*
X90223815Y-118498815D01*
X90144463Y-118595506D01*
X90085498Y-118705820D01*
X90049188Y-118825518D01*
X90036928Y-118950000D01*
X81483315Y-118950000D01*
X81495000Y-118891260D01*
X81495000Y-118598740D01*
X81437932Y-118311842D01*
X81325990Y-118041589D01*
X81163475Y-117798368D01*
X80956632Y-117591525D01*
X80782240Y-117475000D01*
X80956632Y-117358475D01*
X81163475Y-117151632D01*
X81325990Y-116908411D01*
X81437932Y-116638158D01*
X81495000Y-116351260D01*
X81495000Y-116058740D01*
X81437932Y-115771842D01*
X81325990Y-115501589D01*
X81163475Y-115258368D01*
X81031620Y-115126513D01*
X81104180Y-115104502D01*
X81214494Y-115045537D01*
X81311185Y-114966185D01*
X81390537Y-114869494D01*
X81449502Y-114759180D01*
X81485812Y-114639482D01*
X81498072Y-114515000D01*
X81498072Y-112815000D01*
X81485812Y-112690518D01*
X81449502Y-112570820D01*
X81390537Y-112460506D01*
X81311185Y-112363815D01*
X81214494Y-112284463D01*
X81104180Y-112225498D01*
X80984482Y-112189188D01*
X80860000Y-112176928D01*
X79160000Y-112176928D01*
X79035518Y-112189188D01*
X78915820Y-112225498D01*
X78805506Y-112284463D01*
X78708815Y-112363815D01*
X78629463Y-112460506D01*
X78570498Y-112570820D01*
X78534188Y-112690518D01*
X78521928Y-112815000D01*
X76860000Y-112815000D01*
X76860000Y-102655000D01*
X78521928Y-102655000D01*
X78521928Y-104355000D01*
X78534188Y-104479482D01*
X78570498Y-104599180D01*
X78629463Y-104709494D01*
X78708815Y-104806185D01*
X78805506Y-104885537D01*
X78915820Y-104944502D01*
X78988380Y-104966513D01*
X78856525Y-105098368D01*
X78694010Y-105341589D01*
X78582068Y-105611842D01*
X78525000Y-105898740D01*
X78525000Y-106191260D01*
X78582068Y-106478158D01*
X78694010Y-106748411D01*
X78856525Y-106991632D01*
X79063368Y-107198475D01*
X79237760Y-107315000D01*
X79063368Y-107431525D01*
X78856525Y-107638368D01*
X78694010Y-107881589D01*
X78582068Y-108151842D01*
X78525000Y-108438740D01*
X78525000Y-108731260D01*
X78582068Y-109018158D01*
X78694010Y-109288411D01*
X78856525Y-109531632D01*
X79063368Y-109738475D01*
X79306589Y-109900990D01*
X79576842Y-110012932D01*
X79863740Y-110070000D01*
X80156260Y-110070000D01*
X80443158Y-110012932D01*
X80713411Y-109900990D01*
X80956632Y-109738475D01*
X81163475Y-109531632D01*
X81325990Y-109288411D01*
X81396550Y-109118061D01*
X81981879Y-109118061D01*
X81981879Y-109321939D01*
X82021653Y-109521898D01*
X82099674Y-109710256D01*
X82212942Y-109879774D01*
X82357105Y-110023937D01*
X82526623Y-110137205D01*
X82714981Y-110215226D01*
X82914940Y-110255000D01*
X83118818Y-110255000D01*
X83318777Y-110215226D01*
X83507135Y-110137205D01*
X83630164Y-110055000D01*
X90168739Y-110055000D01*
X90094463Y-110145506D01*
X90035498Y-110255820D01*
X89999188Y-110375518D01*
X89986928Y-110500000D01*
X89990000Y-110914250D01*
X90148750Y-111073000D01*
X91073000Y-111073000D01*
X91073000Y-111053000D01*
X91327000Y-111053000D01*
X91327000Y-111073000D01*
X91347000Y-111073000D01*
X91347000Y-111327000D01*
X91327000Y-111327000D01*
X91327000Y-111347000D01*
X91073000Y-111347000D01*
X91073000Y-111327000D01*
X90148750Y-111327000D01*
X89990000Y-111485750D01*
X89986928Y-111900000D01*
X89999188Y-112024482D01*
X90035498Y-112144180D01*
X90094463Y-112254494D01*
X90121681Y-112287659D01*
X89446393Y-112287659D01*
X89423505Y-112232404D01*
X89310237Y-112062886D01*
X89166074Y-111918723D01*
X88996556Y-111805455D01*
X88808198Y-111727434D01*
X88608239Y-111687660D01*
X88404361Y-111687660D01*
X88204402Y-111727434D01*
X88016044Y-111805455D01*
X87846526Y-111918723D01*
X87702363Y-112062886D01*
X87589095Y-112232404D01*
X87511074Y-112420762D01*
X87471300Y-112620721D01*
X87471300Y-112824599D01*
X87511074Y-113024558D01*
X87589095Y-113212916D01*
X87702363Y-113382434D01*
X87846526Y-113526597D01*
X88016044Y-113639865D01*
X88204402Y-113717886D01*
X88350866Y-113747019D01*
X88440153Y-113820295D01*
X88566397Y-113887774D01*
X88585212Y-113897831D01*
X88742610Y-113945577D01*
X88906298Y-113961699D01*
X88947317Y-113957659D01*
X96821386Y-113957659D01*
X96801744Y-113965795D01*
X96632226Y-114079063D01*
X96488063Y-114223226D01*
X96374795Y-114392744D01*
X96296774Y-114581102D01*
X96257000Y-114781061D01*
X96257000Y-114984939D01*
X96296774Y-115184898D01*
X96374795Y-115373256D01*
X96488063Y-115542774D01*
X96632226Y-115686937D01*
X96801744Y-115800205D01*
X96990102Y-115878226D01*
X97046956Y-115889535D01*
X97402470Y-116245049D01*
X97430183Y-116278817D01*
X97463951Y-116306530D01*
X97463953Y-116306532D01*
X97516919Y-116350000D01*
X97564941Y-116389411D01*
X97593927Y-116404904D01*
X97604528Y-116439851D01*
X97686595Y-116593387D01*
X97797038Y-116727962D01*
X97931613Y-116838405D01*
X98085149Y-116920472D01*
X98251745Y-116971008D01*
X98424999Y-116988072D01*
X99075001Y-116988072D01*
X99248255Y-116971008D01*
X99414851Y-116920472D01*
X99568387Y-116838405D01*
X99702962Y-116727962D01*
X99708342Y-116721406D01*
X99773815Y-116801185D01*
X99870506Y-116880537D01*
X99980820Y-116939502D01*
X100100518Y-116975812D01*
X100225000Y-116988072D01*
X100514250Y-116985000D01*
X100673000Y-116826250D01*
X100673000Y-115777000D01*
X100653000Y-115777000D01*
X100653000Y-115523000D01*
X100673000Y-115523000D01*
X100673000Y-114473750D01*
X100927000Y-114473750D01*
X100927000Y-115523000D01*
X101851250Y-115523000D01*
X102010000Y-115364250D01*
X102013072Y-114950000D01*
X102000812Y-114825518D01*
X101964502Y-114705820D01*
X101905537Y-114595506D01*
X101826185Y-114498815D01*
X101729494Y-114419463D01*
X101619180Y-114360498D01*
X101499482Y-114324188D01*
X101375000Y-114311928D01*
X101085750Y-114315000D01*
X100927000Y-114473750D01*
X100673000Y-114473750D01*
X100514250Y-114315000D01*
X100225000Y-114311928D01*
X100100518Y-114324188D01*
X99980820Y-114360498D01*
X99870506Y-114419463D01*
X99773815Y-114498815D01*
X99708342Y-114578594D01*
X99702962Y-114572038D01*
X99568387Y-114461595D01*
X99414851Y-114379528D01*
X99248255Y-114328992D01*
X99075001Y-114311928D01*
X98424999Y-114311928D01*
X98251745Y-114328992D01*
X98180956Y-114350466D01*
X98095937Y-114223226D01*
X97951774Y-114079063D01*
X97782256Y-113965795D01*
X97762614Y-113957659D01*
X101008986Y-113957659D01*
X101076064Y-113985444D01*
X101276023Y-114025218D01*
X101479901Y-114025218D01*
X101679860Y-113985444D01*
X101868218Y-113907423D01*
X102037736Y-113794155D01*
X102181899Y-113649992D01*
X102295167Y-113480474D01*
X102373188Y-113292116D01*
X102412962Y-113092157D01*
X102412962Y-112888279D01*
X102373188Y-112688320D01*
X102295167Y-112499962D01*
X102181899Y-112330444D01*
X102037736Y-112186281D01*
X101868218Y-112073013D01*
X101679860Y-111994992D01*
X101479901Y-111955218D01*
X101276023Y-111955218D01*
X101076064Y-111994992D01*
X100965174Y-112040924D01*
X100901250Y-111977000D01*
X99977000Y-111977000D01*
X99977000Y-111997000D01*
X99723000Y-111997000D01*
X99723000Y-111977000D01*
X99703000Y-111977000D01*
X99703000Y-111723000D01*
X99723000Y-111723000D01*
X99723000Y-111703000D01*
X99977000Y-111703000D01*
X99977000Y-111723000D01*
X100901250Y-111723000D01*
X101060000Y-111564250D01*
X101062480Y-111229801D01*
X104884167Y-111229801D01*
X105056117Y-111401752D01*
X105084984Y-111546875D01*
X105163005Y-111735233D01*
X105276273Y-111904751D01*
X105420436Y-112048914D01*
X105589954Y-112162182D01*
X105778312Y-112240203D01*
X105978271Y-112279977D01*
X106182149Y-112279977D01*
X106382108Y-112240203D01*
X106570466Y-112162182D01*
X106638250Y-112116890D01*
X111588524Y-112116890D01*
X111633175Y-112264099D01*
X111758359Y-112526920D01*
X111932412Y-112760269D01*
X112148645Y-112955178D01*
X112398748Y-113104157D01*
X112673109Y-113201481D01*
X112903000Y-113080814D01*
X112903000Y-111887000D01*
X113157000Y-111887000D01*
X113157000Y-113080814D01*
X113386891Y-113201481D01*
X113661252Y-113104157D01*
X113911355Y-112955178D01*
X114127588Y-112760269D01*
X114301641Y-112526920D01*
X114426825Y-112264099D01*
X114471476Y-112116890D01*
X114350155Y-111887000D01*
X113157000Y-111887000D01*
X112903000Y-111887000D01*
X111709845Y-111887000D01*
X111588524Y-112116890D01*
X106638250Y-112116890D01*
X106739984Y-112048914D01*
X106884147Y-111904751D01*
X106997415Y-111735233D01*
X107075436Y-111546875D01*
X107115210Y-111346916D01*
X107115210Y-111143038D01*
X107075436Y-110943079D01*
X106997415Y-110754721D01*
X106884147Y-110585203D01*
X106739984Y-110441040D01*
X106570466Y-110327772D01*
X106382108Y-110249751D01*
X106236985Y-110220884D01*
X105849480Y-109833380D01*
X105823325Y-109801510D01*
X105696180Y-109697165D01*
X105551121Y-109619629D01*
X105393723Y-109571883D01*
X105271053Y-109559801D01*
X105271052Y-109559801D01*
X105230034Y-109555761D01*
X105189016Y-109559801D01*
X101818278Y-109559801D01*
X101849077Y-109513707D01*
X101927098Y-109325349D01*
X101966872Y-109125390D01*
X101966872Y-108921512D01*
X101927098Y-108721553D01*
X101849077Y-108533195D01*
X101735809Y-108363677D01*
X101591646Y-108219514D01*
X101422128Y-108106246D01*
X101233770Y-108028225D01*
X101033811Y-107988451D01*
X100829933Y-107988451D01*
X100629974Y-108028225D01*
X100441616Y-108106246D01*
X100272098Y-108219514D01*
X100127935Y-108363677D01*
X100113687Y-108385000D01*
X83630164Y-108385000D01*
X83507135Y-108302795D01*
X83318777Y-108224774D01*
X83118818Y-108185000D01*
X82914940Y-108185000D01*
X82714981Y-108224774D01*
X82526623Y-108302795D01*
X82357105Y-108416063D01*
X82212942Y-108560226D01*
X82099674Y-108729744D01*
X82021653Y-108918102D01*
X81981879Y-109118061D01*
X81396550Y-109118061D01*
X81437932Y-109018158D01*
X81495000Y-108731260D01*
X81495000Y-108438740D01*
X81437932Y-108151842D01*
X81325990Y-107881589D01*
X81163475Y-107638368D01*
X80956632Y-107431525D01*
X80782240Y-107315000D01*
X80956632Y-107198475D01*
X81163475Y-106991632D01*
X81195636Y-106943500D01*
X86361395Y-106943500D01*
X86484424Y-107025705D01*
X86672782Y-107103726D01*
X86872741Y-107143500D01*
X87076619Y-107143500D01*
X87276578Y-107103726D01*
X87464936Y-107025705D01*
X87634454Y-106912437D01*
X87778617Y-106768274D01*
X87891885Y-106598756D01*
X87969906Y-106410398D01*
X88009680Y-106210439D01*
X88009680Y-106006561D01*
X87974561Y-105830000D01*
X111541928Y-105830000D01*
X111541928Y-107530000D01*
X111554188Y-107654482D01*
X111590498Y-107774180D01*
X111649463Y-107884494D01*
X111728815Y-107981185D01*
X111825506Y-108060537D01*
X111935820Y-108119502D01*
X112008380Y-108141513D01*
X111876525Y-108273368D01*
X111714010Y-108516589D01*
X111602068Y-108786842D01*
X111545000Y-109073740D01*
X111545000Y-109366260D01*
X111602068Y-109653158D01*
X111714010Y-109923411D01*
X111876525Y-110166632D01*
X112083368Y-110373475D01*
X112265534Y-110495195D01*
X112148645Y-110564822D01*
X111932412Y-110759731D01*
X111758359Y-110993080D01*
X111633175Y-111255901D01*
X111588524Y-111403110D01*
X111709845Y-111633000D01*
X112903000Y-111633000D01*
X112903000Y-111613000D01*
X113157000Y-111613000D01*
X113157000Y-111633000D01*
X114350155Y-111633000D01*
X114471476Y-111403110D01*
X114426825Y-111255901D01*
X114301641Y-110993080D01*
X114127588Y-110759731D01*
X113911355Y-110564822D01*
X113794466Y-110495195D01*
X113976632Y-110373475D01*
X114183475Y-110166632D01*
X114345990Y-109923411D01*
X114457932Y-109653158D01*
X114515000Y-109366260D01*
X114515000Y-109073740D01*
X114457932Y-108786842D01*
X114345990Y-108516589D01*
X114183475Y-108273368D01*
X114051620Y-108141513D01*
X114124180Y-108119502D01*
X114234494Y-108060537D01*
X114331185Y-107981185D01*
X114410537Y-107884494D01*
X114469502Y-107774180D01*
X114505812Y-107654482D01*
X114518072Y-107530000D01*
X114518072Y-105830000D01*
X114505812Y-105705518D01*
X114469502Y-105585820D01*
X114410537Y-105475506D01*
X114331185Y-105378815D01*
X114234494Y-105299463D01*
X114124180Y-105240498D01*
X114004482Y-105204188D01*
X113880000Y-105191928D01*
X112180000Y-105191928D01*
X112055518Y-105204188D01*
X111935820Y-105240498D01*
X111825506Y-105299463D01*
X111728815Y-105378815D01*
X111649463Y-105475506D01*
X111590498Y-105585820D01*
X111554188Y-105705518D01*
X111541928Y-105830000D01*
X87974561Y-105830000D01*
X87969906Y-105806602D01*
X87891885Y-105618244D01*
X87778617Y-105448726D01*
X87634454Y-105304563D01*
X87464936Y-105191295D01*
X87276578Y-105113274D01*
X87076619Y-105073500D01*
X86872741Y-105073500D01*
X86672782Y-105113274D01*
X86484424Y-105191295D01*
X86361395Y-105273500D01*
X81280494Y-105273500D01*
X81163475Y-105098368D01*
X81075287Y-105010180D01*
X90036428Y-105010180D01*
X90048688Y-105134662D01*
X90084998Y-105254360D01*
X90143963Y-105364674D01*
X90223315Y-105461365D01*
X90320006Y-105540717D01*
X90430320Y-105599682D01*
X90550018Y-105635992D01*
X90674500Y-105648252D01*
X90963750Y-105645180D01*
X91122500Y-105486430D01*
X91122500Y-104437180D01*
X90198250Y-104437180D01*
X90039500Y-104595930D01*
X90036428Y-105010180D01*
X81075287Y-105010180D01*
X81031620Y-104966513D01*
X81104180Y-104944502D01*
X81214494Y-104885537D01*
X81311185Y-104806185D01*
X81390537Y-104709494D01*
X81449502Y-104599180D01*
X81485812Y-104479482D01*
X81498072Y-104355000D01*
X81498072Y-103610180D01*
X90036428Y-103610180D01*
X90039500Y-104024430D01*
X90198250Y-104183180D01*
X91122500Y-104183180D01*
X91122500Y-104163180D01*
X91376500Y-104163180D01*
X91376500Y-104183180D01*
X91396500Y-104183180D01*
X91396500Y-104437180D01*
X91376500Y-104437180D01*
X91376500Y-105486430D01*
X91535250Y-105645180D01*
X91824500Y-105648252D01*
X91948982Y-105635992D01*
X92068680Y-105599682D01*
X92178994Y-105540717D01*
X92275685Y-105461365D01*
X92341158Y-105381586D01*
X92346538Y-105388142D01*
X92481113Y-105498585D01*
X92634649Y-105580652D01*
X92801245Y-105631188D01*
X92974499Y-105648252D01*
X93624501Y-105648252D01*
X93797755Y-105631188D01*
X93964351Y-105580652D01*
X94079727Y-105518982D01*
X94175544Y-105583005D01*
X94363902Y-105661026D01*
X94563861Y-105700800D01*
X94767739Y-105700800D01*
X94967698Y-105661026D01*
X95156056Y-105583005D01*
X95325574Y-105469737D01*
X95406216Y-105389095D01*
X95563913Y-105454415D01*
X95763872Y-105494189D01*
X95967750Y-105494189D01*
X96167709Y-105454415D01*
X96332903Y-105385989D01*
X96384698Y-105449102D01*
X96519273Y-105559545D01*
X96672809Y-105641612D01*
X96839405Y-105692148D01*
X97012659Y-105709212D01*
X97662661Y-105709212D01*
X97835915Y-105692148D01*
X98002511Y-105641612D01*
X98156047Y-105559545D01*
X98290622Y-105449102D01*
X98296002Y-105442546D01*
X98361475Y-105522325D01*
X98458166Y-105601677D01*
X98568480Y-105660642D01*
X98688178Y-105696952D01*
X98812660Y-105709212D01*
X99101910Y-105706140D01*
X99260660Y-105547390D01*
X99260660Y-104498140D01*
X99514660Y-104498140D01*
X99514660Y-105547390D01*
X99673410Y-105706140D01*
X99962660Y-105709212D01*
X100087142Y-105696952D01*
X100206840Y-105660642D01*
X100317154Y-105601677D01*
X100413845Y-105522325D01*
X100493197Y-105425634D01*
X100552162Y-105315320D01*
X100588472Y-105195622D01*
X100600732Y-105071140D01*
X100597660Y-104656890D01*
X100438910Y-104498140D01*
X99514660Y-104498140D01*
X99260660Y-104498140D01*
X99240660Y-104498140D01*
X99240660Y-104244140D01*
X99260660Y-104244140D01*
X99260660Y-103194890D01*
X99514660Y-103194890D01*
X99514660Y-104244140D01*
X100438910Y-104244140D01*
X100597660Y-104085390D01*
X100600732Y-103671140D01*
X100588472Y-103546658D01*
X100552162Y-103426960D01*
X100493197Y-103316646D01*
X100413845Y-103219955D01*
X100317154Y-103140603D01*
X100206840Y-103081638D01*
X100087142Y-103045328D01*
X99962660Y-103033068D01*
X99673410Y-103036140D01*
X99514660Y-103194890D01*
X99260660Y-103194890D01*
X99101910Y-103036140D01*
X98812660Y-103033068D01*
X98688178Y-103045328D01*
X98568480Y-103081638D01*
X98458166Y-103140603D01*
X98361475Y-103219955D01*
X98296002Y-103299734D01*
X98290622Y-103293178D01*
X98156047Y-103182735D01*
X98002511Y-103100668D01*
X97835915Y-103050132D01*
X97662661Y-103033068D01*
X97012659Y-103033068D01*
X96839405Y-103050132D01*
X96672809Y-103100668D01*
X96519273Y-103182735D01*
X96384698Y-103293178D01*
X96274255Y-103427753D01*
X96243046Y-103486140D01*
X96221249Y-103486140D01*
X96167709Y-103463963D01*
X95967750Y-103424189D01*
X95763872Y-103424189D01*
X95563913Y-103463963D01*
X95375555Y-103541984D01*
X95206037Y-103655252D01*
X95125395Y-103735894D01*
X94967698Y-103670574D01*
X94912463Y-103659587D01*
X94804239Y-103570769D01*
X94650493Y-103488591D01*
X94483670Y-103437985D01*
X94396362Y-103429386D01*
X94362905Y-103366793D01*
X94252462Y-103232218D01*
X94117887Y-103121775D01*
X93964351Y-103039708D01*
X93797755Y-102989172D01*
X93624501Y-102972108D01*
X92974499Y-102972108D01*
X92801245Y-102989172D01*
X92634649Y-103039708D01*
X92603051Y-103056597D01*
X92640100Y-102870339D01*
X92640100Y-102799967D01*
X92852668Y-102587400D01*
X103437815Y-102587400D01*
X103560844Y-102669605D01*
X103749202Y-102747626D01*
X103949161Y-102787400D01*
X104153039Y-102787400D01*
X104352998Y-102747626D01*
X104541356Y-102669605D01*
X104710874Y-102556337D01*
X104855037Y-102412174D01*
X104968305Y-102242656D01*
X105046326Y-102054298D01*
X105086100Y-101854339D01*
X105086100Y-101650461D01*
X105046326Y-101450502D01*
X104968305Y-101262144D01*
X104855037Y-101092626D01*
X104710874Y-100948463D01*
X104541356Y-100835195D01*
X104352998Y-100757174D01*
X104153039Y-100717400D01*
X103949161Y-100717400D01*
X103749202Y-100757174D01*
X103560844Y-100835195D01*
X103437815Y-100917400D01*
X92547807Y-100917400D01*
X92506799Y-100913361D01*
X92465791Y-100917400D01*
X92465781Y-100917400D01*
X92343111Y-100929482D01*
X92185713Y-100977228D01*
X92040654Y-101054764D01*
X91913509Y-101159109D01*
X91887358Y-101190974D01*
X91305645Y-101772688D01*
X91303202Y-101773174D01*
X91114844Y-101851195D01*
X90945326Y-101964463D01*
X90801163Y-102108626D01*
X90687895Y-102278144D01*
X90609874Y-102466502D01*
X90570100Y-102666461D01*
X90570100Y-102870339D01*
X90591960Y-102980237D01*
X90550018Y-102984368D01*
X90430320Y-103020678D01*
X90320006Y-103079643D01*
X90223315Y-103158995D01*
X90143963Y-103255686D01*
X90084998Y-103366000D01*
X90048688Y-103485698D01*
X90036428Y-103610180D01*
X81498072Y-103610180D01*
X81498072Y-102655000D01*
X81485812Y-102530518D01*
X81449502Y-102410820D01*
X81390537Y-102300506D01*
X81311185Y-102203815D01*
X81214494Y-102124463D01*
X81104180Y-102065498D01*
X80984482Y-102029188D01*
X80860000Y-102016928D01*
X79160000Y-102016928D01*
X79035518Y-102029188D01*
X78915820Y-102065498D01*
X78805506Y-102124463D01*
X78708815Y-102203815D01*
X78629463Y-102300506D01*
X78570498Y-102410820D01*
X78534188Y-102530518D01*
X78521928Y-102655000D01*
X76860000Y-102655000D01*
X76860000Y-98725560D01*
X79889045Y-98725560D01*
X79950932Y-98961368D01*
X80192790Y-99074266D01*
X80452027Y-99137811D01*
X80718680Y-99149561D01*
X80982501Y-99109063D01*
X81233353Y-99017875D01*
X81339068Y-98961368D01*
X81400955Y-98725560D01*
X80645000Y-97969605D01*
X79889045Y-98725560D01*
X76860000Y-98725560D01*
X76860000Y-97863680D01*
X79285439Y-97863680D01*
X79325937Y-98127501D01*
X79417125Y-98378353D01*
X79473632Y-98484068D01*
X79709440Y-98545955D01*
X80465395Y-97790000D01*
X80824605Y-97790000D01*
X81580560Y-98545955D01*
X81816368Y-98484068D01*
X81929266Y-98242210D01*
X81992811Y-97982973D01*
X82004561Y-97716320D01*
X81964063Y-97452499D01*
X81872875Y-97201647D01*
X81816368Y-97095932D01*
X81580560Y-97034045D01*
X80824605Y-97790000D01*
X80465395Y-97790000D01*
X79709440Y-97034045D01*
X79473632Y-97095932D01*
X79360734Y-97337790D01*
X79297189Y-97597027D01*
X79285439Y-97863680D01*
X76860000Y-97863680D01*
X76860000Y-93928861D01*
X78111400Y-93928861D01*
X78111400Y-94132739D01*
X78151174Y-94332698D01*
X78229195Y-94521056D01*
X78342463Y-94690574D01*
X78486626Y-94834737D01*
X78656144Y-94948005D01*
X78844502Y-95026026D01*
X79044461Y-95065800D01*
X79248339Y-95065800D01*
X79302226Y-95055081D01*
X79290000Y-95116544D01*
X79290000Y-95383456D01*
X79342072Y-95645239D01*
X79444215Y-95891833D01*
X79592503Y-96113762D01*
X79781238Y-96302497D01*
X80003167Y-96450785D01*
X80171324Y-96520438D01*
X80056647Y-96562125D01*
X79950932Y-96618632D01*
X79889045Y-96854440D01*
X80645000Y-97610395D01*
X81400955Y-96854440D01*
X81339068Y-96618632D01*
X81123993Y-96518236D01*
X81286833Y-96450785D01*
X81508762Y-96302497D01*
X81697497Y-96113762D01*
X81716715Y-96085000D01*
X88254882Y-96085000D01*
X88283234Y-96227538D01*
X88361255Y-96415896D01*
X88474523Y-96585414D01*
X88618686Y-96729577D01*
X88788204Y-96842845D01*
X88976562Y-96920866D01*
X89176521Y-96960640D01*
X89380399Y-96960640D01*
X89580358Y-96920866D01*
X89768716Y-96842845D01*
X89938234Y-96729577D01*
X90048930Y-96618881D01*
X90049848Y-96628202D01*
X90086158Y-96747900D01*
X90145123Y-96858214D01*
X90224475Y-96954905D01*
X90321166Y-97034257D01*
X90431480Y-97093222D01*
X90551178Y-97129532D01*
X90637277Y-97138012D01*
X90597383Y-97177906D01*
X90484115Y-97347424D01*
X90406094Y-97535782D01*
X90366320Y-97735741D01*
X90366320Y-97939619D01*
X90406094Y-98139578D01*
X90484115Y-98327936D01*
X90597383Y-98497454D01*
X90731329Y-98631400D01*
X83492718Y-98631400D01*
X83451700Y-98627360D01*
X83410682Y-98631400D01*
X83410681Y-98631400D01*
X83288011Y-98643482D01*
X83130613Y-98691228D01*
X83117756Y-98698100D01*
X83083061Y-98698100D01*
X82883102Y-98737874D01*
X82694744Y-98815895D01*
X82525226Y-98929163D01*
X82381063Y-99073326D01*
X82267795Y-99242844D01*
X82189774Y-99431202D01*
X82150000Y-99631161D01*
X82150000Y-99835039D01*
X82189774Y-100034998D01*
X82267795Y-100223356D01*
X82381063Y-100392874D01*
X82525226Y-100537037D01*
X82649898Y-100620340D01*
X82621664Y-100688502D01*
X82581890Y-100888461D01*
X82581890Y-101092339D01*
X82621664Y-101292298D01*
X82699685Y-101480656D01*
X82812953Y-101650174D01*
X82957116Y-101794337D01*
X83126634Y-101907605D01*
X83314992Y-101985626D01*
X83514951Y-102025400D01*
X83718829Y-102025400D01*
X83918788Y-101985626D01*
X84107146Y-101907605D01*
X84230175Y-101825400D01*
X86711901Y-101825400D01*
X86834930Y-101907605D01*
X87023288Y-101985626D01*
X87223247Y-102025400D01*
X87427125Y-102025400D01*
X87627084Y-101985626D01*
X87815442Y-101907605D01*
X87984960Y-101794337D01*
X88129123Y-101650174D01*
X88242391Y-101480656D01*
X88320412Y-101292298D01*
X88360186Y-101092339D01*
X88360186Y-100888461D01*
X88320412Y-100688502D01*
X88242391Y-100500144D01*
X88129123Y-100330626D01*
X88099897Y-100301400D01*
X96922715Y-100301400D01*
X97045744Y-100383605D01*
X97234102Y-100461626D01*
X97434061Y-100501400D01*
X97637939Y-100501400D01*
X97837898Y-100461626D01*
X98026256Y-100383605D01*
X98195774Y-100270337D01*
X98339937Y-100126174D01*
X98453205Y-99956656D01*
X98531226Y-99768298D01*
X98571000Y-99568339D01*
X98571000Y-99364461D01*
X98531226Y-99164502D01*
X98453205Y-98976144D01*
X98339937Y-98806626D01*
X98195774Y-98662463D01*
X98026256Y-98549195D01*
X97837898Y-98471174D01*
X97637939Y-98431400D01*
X97434061Y-98431400D01*
X97234102Y-98471174D01*
X97045744Y-98549195D01*
X96922715Y-98631400D01*
X92071311Y-98631400D01*
X92205257Y-98497454D01*
X92288053Y-98373540D01*
X102259255Y-98373540D01*
X102382284Y-98455745D01*
X102570642Y-98533766D01*
X102770601Y-98573540D01*
X102974479Y-98573540D01*
X103174438Y-98533766D01*
X103362796Y-98455745D01*
X103532314Y-98342477D01*
X103676477Y-98198314D01*
X103789745Y-98028796D01*
X103867766Y-97840438D01*
X103907540Y-97640479D01*
X103907540Y-97436601D01*
X103867766Y-97236642D01*
X103789745Y-97048284D01*
X103676477Y-96878766D01*
X103532314Y-96734603D01*
X103362796Y-96621335D01*
X103174438Y-96543314D01*
X102974479Y-96503540D01*
X102770601Y-96503540D01*
X102570642Y-96543314D01*
X102382284Y-96621335D01*
X102259255Y-96703540D01*
X95551277Y-96703540D01*
X95583005Y-96656056D01*
X95661026Y-96467698D01*
X95700800Y-96267739D01*
X95700800Y-96063861D01*
X95676185Y-95940113D01*
X95776099Y-96040027D01*
X95802249Y-96071891D01*
X95929394Y-96176236D01*
X96074453Y-96253772D01*
X96231851Y-96301518D01*
X96395540Y-96317640D01*
X96436558Y-96313600D01*
X98599115Y-96313600D01*
X98722144Y-96395805D01*
X98910502Y-96473826D01*
X99110461Y-96513600D01*
X99314339Y-96513600D01*
X99514298Y-96473826D01*
X99702656Y-96395805D01*
X99872174Y-96282537D01*
X100016337Y-96138374D01*
X100129605Y-95968856D01*
X100207626Y-95780498D01*
X100247400Y-95580539D01*
X100247400Y-95376661D01*
X100207626Y-95176702D01*
X100167175Y-95079046D01*
X100267800Y-95048522D01*
X100378114Y-94989557D01*
X100474805Y-94910205D01*
X100554157Y-94813514D01*
X100613122Y-94703200D01*
X100649432Y-94583502D01*
X100661692Y-94459020D01*
X100658620Y-94044770D01*
X100499870Y-93886020D01*
X99575620Y-93886020D01*
X99575620Y-93906020D01*
X99321620Y-93906020D01*
X99321620Y-93886020D01*
X99301620Y-93886020D01*
X99301620Y-93632020D01*
X99321620Y-93632020D01*
X99321620Y-92582770D01*
X99575620Y-92582770D01*
X99575620Y-93632020D01*
X100499870Y-93632020D01*
X100658620Y-93473270D01*
X100661692Y-93059020D01*
X100649432Y-92934538D01*
X100613122Y-92814840D01*
X100554157Y-92704526D01*
X100474805Y-92607835D01*
X100378114Y-92528483D01*
X100267800Y-92469518D01*
X100148102Y-92433208D01*
X100023620Y-92420948D01*
X99734370Y-92424020D01*
X99575620Y-92582770D01*
X99321620Y-92582770D01*
X99162870Y-92424020D01*
X98873620Y-92420948D01*
X98749138Y-92433208D01*
X98629440Y-92469518D01*
X98519126Y-92528483D01*
X98422435Y-92607835D01*
X98356962Y-92687614D01*
X98351582Y-92681058D01*
X98217007Y-92570615D01*
X98063471Y-92488548D01*
X97896875Y-92438012D01*
X97723621Y-92420948D01*
X97073619Y-92420948D01*
X96900365Y-92438012D01*
X96733769Y-92488548D01*
X96580233Y-92570615D01*
X96477622Y-92654826D01*
X96356067Y-92573606D01*
X96167709Y-92495585D01*
X95967750Y-92455811D01*
X95763872Y-92455811D01*
X95700800Y-92468357D01*
X95700800Y-92445501D01*
X95661026Y-92245542D01*
X95583005Y-92057184D01*
X95469737Y-91887666D01*
X95325574Y-91743503D01*
X95156056Y-91630235D01*
X94967698Y-91552214D01*
X94822575Y-91523347D01*
X94616655Y-91317427D01*
X94590500Y-91285558D01*
X94463355Y-91181213D01*
X94318296Y-91103677D01*
X94160898Y-91055931D01*
X94038228Y-91043849D01*
X94038227Y-91043849D01*
X93997209Y-91039809D01*
X93956191Y-91043849D01*
X81517169Y-91043849D01*
X81476150Y-91039809D01*
X81435132Y-91043849D01*
X81312462Y-91055931D01*
X81155064Y-91103677D01*
X81010005Y-91181213D01*
X80882860Y-91285558D01*
X80856709Y-91317423D01*
X80812383Y-91361749D01*
X80778456Y-91355000D01*
X80511544Y-91355000D01*
X80249761Y-91407072D01*
X80003167Y-91509215D01*
X79781238Y-91657503D01*
X79592503Y-91846238D01*
X79444215Y-92068167D01*
X79342072Y-92314761D01*
X79290000Y-92576544D01*
X79290000Y-92843456D01*
X79323268Y-93010704D01*
X79248339Y-92995800D01*
X79044461Y-92995800D01*
X78844502Y-93035574D01*
X78656144Y-93113595D01*
X78486626Y-93226863D01*
X78342463Y-93371026D01*
X78229195Y-93540544D01*
X78151174Y-93728902D01*
X78111400Y-93928861D01*
X76860000Y-93928861D01*
X76860000Y-89864861D01*
X77476400Y-89864861D01*
X77476400Y-90068739D01*
X77516174Y-90268698D01*
X77594195Y-90457056D01*
X77707463Y-90626574D01*
X77851626Y-90770737D01*
X78021144Y-90884005D01*
X78209502Y-90962026D01*
X78409461Y-91001800D01*
X78613339Y-91001800D01*
X78813298Y-90962026D01*
X79001656Y-90884005D01*
X79171174Y-90770737D01*
X79315337Y-90626574D01*
X79428605Y-90457056D01*
X79506626Y-90268698D01*
X79535493Y-90123575D01*
X79629428Y-90029640D01*
X86635715Y-90029640D01*
X86758744Y-90111845D01*
X86947102Y-90189866D01*
X87147061Y-90229640D01*
X87350939Y-90229640D01*
X87550898Y-90189866D01*
X87739256Y-90111845D01*
X87862285Y-90029640D01*
X97787082Y-90029640D01*
X97828100Y-90033680D01*
X97869118Y-90029640D01*
X97869119Y-90029640D01*
X97991789Y-90017558D01*
X98149187Y-89969812D01*
X98294246Y-89892276D01*
X98421391Y-89787931D01*
X98447545Y-89756062D01*
X98557695Y-89645913D01*
X98699682Y-89704726D01*
X98899641Y-89744500D01*
X99103519Y-89744500D01*
X99303478Y-89704726D01*
X99491836Y-89626705D01*
X99661354Y-89513437D01*
X99805517Y-89369274D01*
X99918785Y-89199756D01*
X99996806Y-89011398D01*
X100036580Y-88811439D01*
X100036580Y-88607561D01*
X99996806Y-88407602D01*
X99918785Y-88219244D01*
X99870480Y-88146950D01*
X99870480Y-87185500D01*
X100124480Y-87185500D01*
X100124480Y-88234750D01*
X100283230Y-88393500D01*
X100572480Y-88396572D01*
X100696962Y-88384312D01*
X100816660Y-88348002D01*
X100926974Y-88289037D01*
X101023665Y-88209685D01*
X101103017Y-88112994D01*
X101161982Y-88002680D01*
X101198292Y-87882982D01*
X101210552Y-87758500D01*
X101207480Y-87344250D01*
X101048730Y-87185500D01*
X100124480Y-87185500D01*
X99870480Y-87185500D01*
X99850480Y-87185500D01*
X99850480Y-86931500D01*
X99870480Y-86931500D01*
X99870480Y-85882250D01*
X100124480Y-85882250D01*
X100124480Y-86931500D01*
X101048730Y-86931500D01*
X101207480Y-86772750D01*
X101210552Y-86358500D01*
X101198292Y-86234018D01*
X101161982Y-86114320D01*
X101103017Y-86004006D01*
X101023665Y-85907315D01*
X100926974Y-85827963D01*
X100816660Y-85768998D01*
X100696962Y-85732688D01*
X100572480Y-85720428D01*
X100283230Y-85723500D01*
X100124480Y-85882250D01*
X99870480Y-85882250D01*
X99854294Y-85866064D01*
X99901005Y-85796156D01*
X99979026Y-85607798D01*
X100018800Y-85407839D01*
X100018800Y-85203961D01*
X99979026Y-85004002D01*
X99901005Y-84815644D01*
X99787737Y-84646126D01*
X99664531Y-84522920D01*
X102254175Y-84522920D01*
X102377204Y-84605125D01*
X102565562Y-84683146D01*
X102765521Y-84722920D01*
X102969399Y-84722920D01*
X103169358Y-84683146D01*
X103357716Y-84605125D01*
X103527234Y-84491857D01*
X103671397Y-84347694D01*
X103784665Y-84178176D01*
X103862686Y-83989818D01*
X103902460Y-83789859D01*
X103902460Y-83585981D01*
X103862686Y-83386022D01*
X103784665Y-83197664D01*
X103671397Y-83028146D01*
X103527234Y-82883983D01*
X103357716Y-82770715D01*
X103169358Y-82692694D01*
X102969399Y-82652920D01*
X102765521Y-82652920D01*
X102565562Y-82692694D01*
X102377204Y-82770715D01*
X102254175Y-82852920D01*
X91826458Y-82852920D01*
X91785440Y-82848880D01*
X91744421Y-82852920D01*
X91621751Y-82865002D01*
X91464353Y-82912748D01*
X91319294Y-82990284D01*
X91192149Y-83094629D01*
X91166002Y-83126489D01*
X91059704Y-83232788D01*
X90914582Y-83261654D01*
X90726224Y-83339675D01*
X90556706Y-83452943D01*
X90412543Y-83597106D01*
X90299275Y-83766624D01*
X90221254Y-83954982D01*
X90181480Y-84154941D01*
X90181480Y-84358819D01*
X90221254Y-84558778D01*
X90299275Y-84747136D01*
X90412543Y-84916654D01*
X90449389Y-84953500D01*
X81499499Y-84953500D01*
X81338456Y-84845895D01*
X81150098Y-84767874D01*
X80950139Y-84728100D01*
X80746261Y-84728100D01*
X80546302Y-84767874D01*
X80357944Y-84845895D01*
X80188426Y-84959163D01*
X80044263Y-85103326D01*
X79930995Y-85272844D01*
X79852974Y-85461202D01*
X79813200Y-85661161D01*
X79813200Y-85865039D01*
X79852974Y-86064998D01*
X79930995Y-86253356D01*
X80044263Y-86422874D01*
X80188426Y-86567037D01*
X80357944Y-86680305D01*
X80546302Y-86758326D01*
X80746261Y-86798100D01*
X80950139Y-86798100D01*
X81150098Y-86758326D01*
X81338456Y-86680305D01*
X81423471Y-86623500D01*
X89904080Y-86623500D01*
X89868128Y-86742018D01*
X89855868Y-86866500D01*
X89858940Y-87280750D01*
X90017690Y-87439500D01*
X90941940Y-87439500D01*
X90941940Y-87419500D01*
X91195940Y-87419500D01*
X91195940Y-87439500D01*
X91215940Y-87439500D01*
X91215940Y-87693500D01*
X91195940Y-87693500D01*
X91195940Y-87713500D01*
X90941940Y-87713500D01*
X90941940Y-87693500D01*
X90017690Y-87693500D01*
X89858940Y-87852250D01*
X89855868Y-88266500D01*
X89865041Y-88359640D01*
X87862285Y-88359640D01*
X87739256Y-88277435D01*
X87550898Y-88199414D01*
X87350939Y-88159640D01*
X87147061Y-88159640D01*
X86947102Y-88199414D01*
X86758744Y-88277435D01*
X86635715Y-88359640D01*
X79324578Y-88359640D01*
X79283559Y-88355600D01*
X79242541Y-88359640D01*
X79119871Y-88371722D01*
X78962473Y-88419468D01*
X78817414Y-88497004D01*
X78690269Y-88601349D01*
X78664121Y-88633211D01*
X78354625Y-88942707D01*
X78209502Y-88971574D01*
X78021144Y-89049595D01*
X77851626Y-89162863D01*
X77707463Y-89307026D01*
X77594195Y-89476544D01*
X77516174Y-89664902D01*
X77476400Y-89864861D01*
X76860000Y-89864861D01*
X76860000Y-81580560D01*
X80016045Y-81580560D01*
X80077932Y-81816368D01*
X80319790Y-81929266D01*
X80579027Y-81992811D01*
X80845680Y-82004561D01*
X81109501Y-81964063D01*
X81360353Y-81872875D01*
X81466068Y-81816368D01*
X81516931Y-81622561D01*
X98317100Y-81622561D01*
X98317100Y-81826439D01*
X98356874Y-82026398D01*
X98434895Y-82214756D01*
X98548163Y-82384274D01*
X98692326Y-82528437D01*
X98861844Y-82641705D01*
X99050202Y-82719726D01*
X99250161Y-82759500D01*
X99454039Y-82759500D01*
X99653998Y-82719726D01*
X99842356Y-82641705D01*
X99965385Y-82559500D01*
X106361887Y-82559500D01*
X106368924Y-82566537D01*
X106538442Y-82679805D01*
X106726800Y-82757826D01*
X106926759Y-82797600D01*
X107130637Y-82797600D01*
X107330596Y-82757826D01*
X107518954Y-82679805D01*
X107688472Y-82566537D01*
X107832635Y-82422374D01*
X107945903Y-82252856D01*
X108023924Y-82064498D01*
X108063698Y-81864539D01*
X108063698Y-81660661D01*
X108023924Y-81460702D01*
X107945903Y-81272344D01*
X107832635Y-81102826D01*
X107688472Y-80958663D01*
X107518954Y-80845395D01*
X107330596Y-80767374D01*
X107130637Y-80727600D01*
X106926759Y-80727600D01*
X106726800Y-80767374D01*
X106538442Y-80845395D01*
X106472434Y-80889500D01*
X99965385Y-80889500D01*
X99842356Y-80807295D01*
X99653998Y-80729274D01*
X99454039Y-80689500D01*
X99250161Y-80689500D01*
X99050202Y-80729274D01*
X98861844Y-80807295D01*
X98692326Y-80920563D01*
X98548163Y-81064726D01*
X98434895Y-81234244D01*
X98356874Y-81422602D01*
X98317100Y-81622561D01*
X81516931Y-81622561D01*
X81527955Y-81580560D01*
X80772000Y-80824605D01*
X80016045Y-81580560D01*
X76860000Y-81580560D01*
X76860000Y-80718680D01*
X79412439Y-80718680D01*
X79452937Y-80982501D01*
X79544125Y-81233353D01*
X79600632Y-81339068D01*
X79836440Y-81400955D01*
X80592395Y-80645000D01*
X80951605Y-80645000D01*
X81707560Y-81400955D01*
X81943368Y-81339068D01*
X82056266Y-81097210D01*
X82119811Y-80837973D01*
X82131561Y-80571320D01*
X82091063Y-80307499D01*
X81999875Y-80056647D01*
X81943368Y-79950932D01*
X81707560Y-79889045D01*
X80951605Y-80645000D01*
X80592395Y-80645000D01*
X79836440Y-79889045D01*
X79600632Y-79950932D01*
X79487734Y-80192790D01*
X79424189Y-80452027D01*
X79412439Y-80718680D01*
X76860000Y-80718680D01*
X76860000Y-75431544D01*
X79417000Y-75431544D01*
X79417000Y-75698456D01*
X79469072Y-75960239D01*
X79571215Y-76206833D01*
X79719503Y-76428762D01*
X79908238Y-76617497D01*
X80130167Y-76765785D01*
X80297266Y-76835000D01*
X80130167Y-76904215D01*
X79908238Y-77052503D01*
X79719503Y-77241238D01*
X79571215Y-77463167D01*
X79469072Y-77709761D01*
X79417000Y-77971544D01*
X79417000Y-78238456D01*
X79469072Y-78500239D01*
X79571215Y-78746833D01*
X79719503Y-78968762D01*
X79908238Y-79157497D01*
X80130167Y-79305785D01*
X80298324Y-79375438D01*
X80183647Y-79417125D01*
X80077932Y-79473632D01*
X80016045Y-79709440D01*
X80772000Y-80465395D01*
X81527955Y-79709440D01*
X81521156Y-79683533D01*
X81553377Y-79680359D01*
X88232923Y-79680359D01*
X88273941Y-79684399D01*
X88314959Y-79680359D01*
X88314960Y-79680359D01*
X88437630Y-79668277D01*
X88595028Y-79620531D01*
X88740087Y-79542995D01*
X88829374Y-79469719D01*
X88975838Y-79440586D01*
X89164196Y-79362565D01*
X89169950Y-79358720D01*
X89980328Y-79358720D01*
X89992588Y-79483202D01*
X90028898Y-79602900D01*
X90087863Y-79713214D01*
X90167215Y-79809905D01*
X90263906Y-79889257D01*
X90374220Y-79948222D01*
X90493918Y-79984532D01*
X90618400Y-79996792D01*
X90907650Y-79993720D01*
X91066400Y-79834970D01*
X91066400Y-78785720D01*
X90142150Y-78785720D01*
X89983400Y-78944470D01*
X89980328Y-79358720D01*
X89169950Y-79358720D01*
X89333714Y-79249297D01*
X89477877Y-79105134D01*
X89591145Y-78935616D01*
X89669166Y-78747258D01*
X89708940Y-78547299D01*
X89708940Y-78343421D01*
X89669166Y-78143462D01*
X89592643Y-77958720D01*
X89980328Y-77958720D01*
X89983400Y-78372970D01*
X90142150Y-78531720D01*
X91066400Y-78531720D01*
X91066400Y-77482470D01*
X91320400Y-77482470D01*
X91320400Y-78531720D01*
X91340400Y-78531720D01*
X91340400Y-78785720D01*
X91320400Y-78785720D01*
X91320400Y-79834970D01*
X91479150Y-79993720D01*
X91768400Y-79996792D01*
X91892882Y-79984532D01*
X92012580Y-79948222D01*
X92122894Y-79889257D01*
X92219585Y-79809905D01*
X92285058Y-79730126D01*
X92290438Y-79736682D01*
X92425013Y-79847125D01*
X92578549Y-79929192D01*
X92745145Y-79979728D01*
X92918399Y-79996792D01*
X93568401Y-79996792D01*
X93741655Y-79979728D01*
X93908251Y-79929192D01*
X94061787Y-79847125D01*
X94196362Y-79736682D01*
X94306805Y-79602107D01*
X94340973Y-79538183D01*
X94414770Y-79530915D01*
X94581593Y-79480309D01*
X94735339Y-79398131D01*
X94870097Y-79287537D01*
X94897814Y-79253764D01*
X94910843Y-79240735D01*
X94967698Y-79229426D01*
X95056553Y-79192621D01*
X95061874Y-79200585D01*
X95206037Y-79344748D01*
X95375555Y-79458016D01*
X95563913Y-79536037D01*
X95763872Y-79575811D01*
X95967750Y-79575811D01*
X96129084Y-79543720D01*
X96177226Y-79543720D01*
X96208435Y-79602107D01*
X96318878Y-79736682D01*
X96453453Y-79847125D01*
X96606989Y-79929192D01*
X96773585Y-79979728D01*
X96946839Y-79996792D01*
X97596841Y-79996792D01*
X97770095Y-79979728D01*
X97936691Y-79929192D01*
X98090227Y-79847125D01*
X98224802Y-79736682D01*
X98230182Y-79730126D01*
X98295655Y-79809905D01*
X98392346Y-79889257D01*
X98502660Y-79948222D01*
X98622358Y-79984532D01*
X98746840Y-79996792D01*
X99036090Y-79993720D01*
X99194840Y-79834970D01*
X99194840Y-78785720D01*
X99448840Y-78785720D01*
X99448840Y-79834970D01*
X99607590Y-79993720D01*
X99896840Y-79996792D01*
X100021322Y-79984532D01*
X100141020Y-79948222D01*
X100251334Y-79889257D01*
X100348025Y-79809905D01*
X100427377Y-79713214D01*
X100486342Y-79602900D01*
X100522652Y-79483202D01*
X100534912Y-79358720D01*
X100533524Y-79171461D01*
X102431900Y-79171461D01*
X102431900Y-79375339D01*
X102471674Y-79575298D01*
X102549695Y-79763656D01*
X102662963Y-79933174D01*
X102807126Y-80077337D01*
X102976644Y-80190605D01*
X103165002Y-80268626D01*
X103364961Y-80308400D01*
X103568839Y-80308400D01*
X103768798Y-80268626D01*
X103957156Y-80190605D01*
X104080185Y-80108400D01*
X104930308Y-80108400D01*
X104949201Y-80116226D01*
X105149160Y-80156000D01*
X105353038Y-80156000D01*
X105552997Y-80116226D01*
X105741355Y-80038205D01*
X105910873Y-79924937D01*
X106055036Y-79780774D01*
X106168304Y-79611256D01*
X106246325Y-79422898D01*
X106286099Y-79222939D01*
X106286099Y-79019061D01*
X106246325Y-78819102D01*
X106168304Y-78630744D01*
X106055036Y-78461226D01*
X105910873Y-78317063D01*
X105741355Y-78203795D01*
X105552997Y-78125774D01*
X105353038Y-78086000D01*
X105149160Y-78086000D01*
X104949201Y-78125774D01*
X104760843Y-78203795D01*
X104591325Y-78317063D01*
X104469988Y-78438400D01*
X104080185Y-78438400D01*
X103957156Y-78356195D01*
X103768798Y-78278174D01*
X103568839Y-78238400D01*
X103364961Y-78238400D01*
X103165002Y-78278174D01*
X102976644Y-78356195D01*
X102807126Y-78469463D01*
X102662963Y-78613626D01*
X102549695Y-78783144D01*
X102471674Y-78971502D01*
X102431900Y-79171461D01*
X100533524Y-79171461D01*
X100531840Y-78944470D01*
X100373090Y-78785720D01*
X99448840Y-78785720D01*
X99194840Y-78785720D01*
X99174840Y-78785720D01*
X99174840Y-78531720D01*
X99194840Y-78531720D01*
X99194840Y-77482470D01*
X99448840Y-77482470D01*
X99448840Y-78531720D01*
X100373090Y-78531720D01*
X100531840Y-78372970D01*
X100534912Y-77958720D01*
X100522652Y-77834238D01*
X100486342Y-77714540D01*
X100427377Y-77604226D01*
X100348025Y-77507535D01*
X100251334Y-77428183D01*
X100141020Y-77369218D01*
X100021322Y-77332908D01*
X99896840Y-77320648D01*
X99607590Y-77323720D01*
X99448840Y-77482470D01*
X99194840Y-77482470D01*
X99036090Y-77323720D01*
X98746840Y-77320648D01*
X98622358Y-77332908D01*
X98502660Y-77369218D01*
X98392346Y-77428183D01*
X98295655Y-77507535D01*
X98230182Y-77587314D01*
X98224802Y-77580758D01*
X98090227Y-77470315D01*
X97936691Y-77388248D01*
X97770095Y-77337712D01*
X97596841Y-77320648D01*
X96946839Y-77320648D01*
X96773585Y-77337712D01*
X96606989Y-77388248D01*
X96453453Y-77470315D01*
X96318878Y-77580758D01*
X96302069Y-77601239D01*
X96167709Y-77545585D01*
X95967750Y-77505811D01*
X95763872Y-77505811D01*
X95563913Y-77545585D01*
X95475058Y-77582390D01*
X95469737Y-77574426D01*
X95325574Y-77430263D01*
X95156056Y-77316995D01*
X94967698Y-77238974D01*
X94767739Y-77199200D01*
X94563861Y-77199200D01*
X94363902Y-77238974D01*
X94175544Y-77316995D01*
X94006026Y-77430263D01*
X93999348Y-77436941D01*
X93908251Y-77388248D01*
X93741655Y-77337712D01*
X93568401Y-77320648D01*
X92918399Y-77320648D01*
X92745145Y-77337712D01*
X92578549Y-77388248D01*
X92425013Y-77470315D01*
X92290438Y-77580758D01*
X92285058Y-77587314D01*
X92219585Y-77507535D01*
X92122894Y-77428183D01*
X92012580Y-77369218D01*
X91892882Y-77332908D01*
X91768400Y-77320648D01*
X91479150Y-77323720D01*
X91320400Y-77482470D01*
X91066400Y-77482470D01*
X90907650Y-77323720D01*
X90618400Y-77320648D01*
X90493918Y-77332908D01*
X90374220Y-77369218D01*
X90263906Y-77428183D01*
X90167215Y-77507535D01*
X90087863Y-77604226D01*
X90028898Y-77714540D01*
X89992588Y-77834238D01*
X89980328Y-77958720D01*
X89592643Y-77958720D01*
X89591145Y-77955104D01*
X89477877Y-77785586D01*
X89333714Y-77641423D01*
X89164196Y-77528155D01*
X88975838Y-77450134D01*
X88775879Y-77410360D01*
X88572001Y-77410360D01*
X88372042Y-77450134D01*
X88183684Y-77528155D01*
X88095707Y-77586939D01*
X88118900Y-77470339D01*
X88118900Y-77266461D01*
X88089767Y-77119999D01*
X93808263Y-77119999D01*
X93849281Y-77124039D01*
X93890299Y-77119999D01*
X93890300Y-77119999D01*
X94012970Y-77107917D01*
X94170368Y-77060171D01*
X94315427Y-76982635D01*
X94442572Y-76878290D01*
X94468727Y-76846420D01*
X94822575Y-76492573D01*
X94967698Y-76463706D01*
X95156056Y-76385685D01*
X95325574Y-76272417D01*
X95469737Y-76128254D01*
X95583005Y-75958736D01*
X95661026Y-75770378D01*
X95700800Y-75570419D01*
X95700800Y-75366541D01*
X95661026Y-75166582D01*
X95583005Y-74978224D01*
X95469737Y-74808706D01*
X95325574Y-74664543D01*
X95156056Y-74551275D01*
X94967698Y-74473254D01*
X94767739Y-74433480D01*
X94563861Y-74433480D01*
X94363902Y-74473254D01*
X94175544Y-74551275D01*
X94006026Y-74664543D01*
X93861863Y-74808706D01*
X93748595Y-74978224D01*
X93670574Y-75166582D01*
X93641707Y-75311705D01*
X93503414Y-75449999D01*
X92348000Y-75449999D01*
X92348000Y-75383060D01*
X92308226Y-75183101D01*
X92230205Y-74994743D01*
X92167731Y-74901244D01*
X92175974Y-74895737D01*
X92320137Y-74751574D01*
X92433405Y-74582056D01*
X92511426Y-74393698D01*
X92551200Y-74193739D01*
X92551200Y-73989861D01*
X92511426Y-73789902D01*
X92433405Y-73601544D01*
X92351200Y-73478515D01*
X92351200Y-73116868D01*
X92649468Y-72818600D01*
X96734755Y-72818600D01*
X96857784Y-72900805D01*
X97046142Y-72978826D01*
X97246101Y-73018600D01*
X97449979Y-73018600D01*
X97649938Y-72978826D01*
X97838296Y-72900805D01*
X98007814Y-72787537D01*
X98151977Y-72643374D01*
X98265245Y-72473856D01*
X98343266Y-72285498D01*
X98383040Y-72085539D01*
X98383040Y-72018599D01*
X103168760Y-72018599D01*
X103014744Y-72082395D01*
X102845226Y-72195663D01*
X102701063Y-72339826D01*
X102587795Y-72509344D01*
X102509774Y-72697702D01*
X102470000Y-72897661D01*
X102470000Y-73101539D01*
X102509774Y-73301498D01*
X102587795Y-73489856D01*
X102701063Y-73659374D01*
X102845226Y-73803537D01*
X102997102Y-73905017D01*
X102847502Y-73934774D01*
X102659144Y-74012795D01*
X102489626Y-74126063D01*
X102345463Y-74270226D01*
X102232195Y-74439744D01*
X102154174Y-74628102D01*
X102114400Y-74828061D01*
X102114400Y-75031939D01*
X102154174Y-75231898D01*
X102232195Y-75420256D01*
X102345463Y-75589774D01*
X102489626Y-75733937D01*
X102659144Y-75847205D01*
X102847502Y-75925226D01*
X103047461Y-75965000D01*
X103251339Y-75965000D01*
X103451298Y-75925226D01*
X103639656Y-75847205D01*
X103686657Y-75815800D01*
X106588133Y-75815800D01*
X108194163Y-77421832D01*
X108220309Y-77453691D01*
X108252168Y-77479837D01*
X108252170Y-77479839D01*
X108285918Y-77507535D01*
X108347454Y-77558036D01*
X108492513Y-77635572D01*
X108649911Y-77683318D01*
X108712536Y-77689486D01*
X108813600Y-77699440D01*
X108854618Y-77695400D01*
X112404101Y-77695400D01*
X112565144Y-77803005D01*
X112753502Y-77881026D01*
X112953461Y-77920800D01*
X113157339Y-77920800D01*
X113357298Y-77881026D01*
X113545656Y-77803005D01*
X113715174Y-77689737D01*
X113859337Y-77545574D01*
X113972605Y-77376056D01*
X114050626Y-77187698D01*
X114090400Y-76987739D01*
X114090400Y-76783861D01*
X114050626Y-76583902D01*
X113972605Y-76395544D01*
X113859337Y-76226026D01*
X113715174Y-76081863D01*
X113545656Y-75968595D01*
X113357298Y-75890574D01*
X113157339Y-75850800D01*
X112953461Y-75850800D01*
X112753502Y-75890574D01*
X112744200Y-75894427D01*
X112744200Y-75767861D01*
X112704426Y-75567902D01*
X112626405Y-75379544D01*
X112513137Y-75210026D01*
X112368974Y-75065863D01*
X112199456Y-74952595D01*
X112011098Y-74874574D01*
X111879175Y-74848333D01*
X111907683Y-74795000D01*
X112064893Y-74795000D01*
X112083368Y-74813475D01*
X112326589Y-74975990D01*
X112596842Y-75087932D01*
X112883740Y-75145000D01*
X113176260Y-75145000D01*
X113463158Y-75087932D01*
X113733411Y-74975990D01*
X113976632Y-74813475D01*
X114183475Y-74606632D01*
X114345990Y-74363411D01*
X114457932Y-74093158D01*
X114515000Y-73806260D01*
X114515000Y-73513740D01*
X114457932Y-73226842D01*
X114345990Y-72956589D01*
X114183475Y-72713368D01*
X113976632Y-72506525D01*
X113794466Y-72384805D01*
X113911355Y-72315178D01*
X114127588Y-72120269D01*
X114301641Y-71886920D01*
X114426825Y-71624099D01*
X114471476Y-71476890D01*
X114350155Y-71247000D01*
X113157000Y-71247000D01*
X113157000Y-71267000D01*
X112903000Y-71267000D01*
X112903000Y-71247000D01*
X110617000Y-71247000D01*
X110617000Y-71267000D01*
X110363000Y-71267000D01*
X110363000Y-71247000D01*
X110343000Y-71247000D01*
X110343000Y-70993000D01*
X110363000Y-70993000D01*
X110363000Y-68707000D01*
X110617000Y-68707000D01*
X110617000Y-70993000D01*
X112903000Y-70993000D01*
X112903000Y-68707000D01*
X113157000Y-68707000D01*
X113157000Y-70993000D01*
X114350155Y-70993000D01*
X114471476Y-70763110D01*
X114426825Y-70615901D01*
X114301641Y-70353080D01*
X114127588Y-70119731D01*
X113911355Y-69924822D01*
X113785745Y-69850000D01*
X113911355Y-69775178D01*
X114127588Y-69580269D01*
X114301641Y-69346920D01*
X114426825Y-69084099D01*
X114471476Y-68936890D01*
X114350155Y-68707000D01*
X113157000Y-68707000D01*
X112903000Y-68707000D01*
X110617000Y-68707000D01*
X110363000Y-68707000D01*
X109169845Y-68707000D01*
X109048524Y-68936890D01*
X109093175Y-69084099D01*
X109218359Y-69346920D01*
X109392412Y-69580269D01*
X109608645Y-69775178D01*
X109734255Y-69850000D01*
X109608645Y-69924822D01*
X109392412Y-70119731D01*
X109218359Y-70353080D01*
X109093175Y-70615901D01*
X109083367Y-70648236D01*
X108569972Y-70134841D01*
X108601439Y-70103374D01*
X108714707Y-69933856D01*
X108792728Y-69745498D01*
X108832502Y-69545539D01*
X108832502Y-69341661D01*
X108792728Y-69141702D01*
X108714707Y-68953344D01*
X108672193Y-68889718D01*
X108779337Y-68782574D01*
X108892605Y-68613056D01*
X108970626Y-68424698D01*
X109010400Y-68224739D01*
X109010400Y-68020861D01*
X108970626Y-67820902D01*
X108892605Y-67632544D01*
X108779337Y-67463026D01*
X108635174Y-67318863D01*
X108465656Y-67205595D01*
X108277298Y-67127574D01*
X108077339Y-67087800D01*
X107873461Y-67087800D01*
X107673502Y-67127574D01*
X107485144Y-67205595D01*
X107315626Y-67318863D01*
X107171463Y-67463026D01*
X107058195Y-67632544D01*
X106980174Y-67820902D01*
X106951308Y-67966024D01*
X106664332Y-68253000D01*
X95075168Y-68253000D01*
X94432593Y-67610425D01*
X94403726Y-67465302D01*
X94348593Y-67332200D01*
X102765482Y-67332200D01*
X102806500Y-67336240D01*
X102847518Y-67332200D01*
X102847519Y-67332200D01*
X102970189Y-67320118D01*
X103127587Y-67272372D01*
X103272646Y-67194836D01*
X103399791Y-67090491D01*
X103425946Y-67058622D01*
X103712575Y-66771993D01*
X103857698Y-66743126D01*
X104046056Y-66665105D01*
X104215574Y-66551837D01*
X104359737Y-66407674D01*
X104366942Y-66396890D01*
X109048524Y-66396890D01*
X109093175Y-66544099D01*
X109218359Y-66806920D01*
X109392412Y-67040269D01*
X109608645Y-67235178D01*
X109734255Y-67310000D01*
X109608645Y-67384822D01*
X109392412Y-67579731D01*
X109218359Y-67813080D01*
X109093175Y-68075901D01*
X109048524Y-68223110D01*
X109169845Y-68453000D01*
X110363000Y-68453000D01*
X110363000Y-66167000D01*
X110617000Y-66167000D01*
X110617000Y-68453000D01*
X112903000Y-68453000D01*
X112903000Y-66167000D01*
X113157000Y-66167000D01*
X113157000Y-68453000D01*
X114350155Y-68453000D01*
X114471476Y-68223110D01*
X114426825Y-68075901D01*
X114301641Y-67813080D01*
X114127588Y-67579731D01*
X113911355Y-67384822D01*
X113785745Y-67310000D01*
X113911355Y-67235178D01*
X114127588Y-67040269D01*
X114301641Y-66806920D01*
X114426825Y-66544099D01*
X114471476Y-66396890D01*
X114350155Y-66167000D01*
X113157000Y-66167000D01*
X112903000Y-66167000D01*
X110617000Y-66167000D01*
X110363000Y-66167000D01*
X109169845Y-66167000D01*
X109048524Y-66396890D01*
X104366942Y-66396890D01*
X104473005Y-66238156D01*
X104551026Y-66049798D01*
X104590800Y-65849839D01*
X104590800Y-65645961D01*
X104551026Y-65446002D01*
X104473005Y-65257644D01*
X104359737Y-65088126D01*
X104215574Y-64943963D01*
X104046056Y-64830695D01*
X103857698Y-64752674D01*
X103657739Y-64712900D01*
X103453861Y-64712900D01*
X103253902Y-64752674D01*
X103065544Y-64830695D01*
X102896026Y-64943963D01*
X102751863Y-65088126D01*
X102638595Y-65257644D01*
X102560574Y-65446002D01*
X102531707Y-65591125D01*
X102460633Y-65662200D01*
X91240551Y-65662200D01*
X91233259Y-65625542D01*
X91155238Y-65437184D01*
X91041970Y-65267666D01*
X90897807Y-65123503D01*
X90728289Y-65010235D01*
X90539931Y-64932214D01*
X90339972Y-64892440D01*
X90136094Y-64892440D01*
X89936135Y-64932214D01*
X89747777Y-65010235D01*
X89578259Y-65123503D01*
X89434096Y-65267666D01*
X89320828Y-65437184D01*
X89242807Y-65625542D01*
X89203033Y-65825501D01*
X89203033Y-66029379D01*
X89242807Y-66229338D01*
X89320828Y-66417696D01*
X89434096Y-66587214D01*
X89578259Y-66731377D01*
X89747777Y-66844645D01*
X89936135Y-66922666D01*
X90081258Y-66951532D01*
X90188351Y-67058626D01*
X90214502Y-67090491D01*
X90341647Y-67194836D01*
X90486706Y-67272372D01*
X90644104Y-67320118D01*
X90766774Y-67332200D01*
X90766784Y-67332200D01*
X90807792Y-67336239D01*
X90848800Y-67332200D01*
X92468407Y-67332200D01*
X92413274Y-67465302D01*
X92373500Y-67665261D01*
X92373500Y-67869139D01*
X92413274Y-68069098D01*
X92491295Y-68257456D01*
X92604563Y-68426974D01*
X92619583Y-68441994D01*
X92532826Y-68499963D01*
X92388663Y-68644126D01*
X92275395Y-68813644D01*
X92197374Y-69002002D01*
X92157600Y-69201961D01*
X92157600Y-69405839D01*
X92197374Y-69605798D01*
X92275395Y-69794156D01*
X92388663Y-69963674D01*
X92532826Y-70107837D01*
X92702344Y-70221105D01*
X92890702Y-70299126D01*
X93037166Y-70328259D01*
X93126453Y-70401535D01*
X93268281Y-70477344D01*
X93271512Y-70479071D01*
X93428910Y-70526817D01*
X93582052Y-70541900D01*
X93574417Y-70560333D01*
X93563484Y-70615297D01*
X93547223Y-70668902D01*
X93541732Y-70724652D01*
X93530800Y-70779612D01*
X93530800Y-70835649D01*
X93525309Y-70891400D01*
X93530800Y-70947151D01*
X93530800Y-71003188D01*
X93541732Y-71058148D01*
X93547223Y-71113898D01*
X93557750Y-71148600D01*
X92344618Y-71148600D01*
X92303600Y-71144560D01*
X92262582Y-71148600D01*
X92262581Y-71148600D01*
X92139911Y-71160682D01*
X92077339Y-71179663D01*
X91982513Y-71208428D01*
X91837454Y-71285964D01*
X91786421Y-71327846D01*
X91710309Y-71390309D01*
X91684163Y-71422169D01*
X90954774Y-72151559D01*
X90922910Y-72177709D01*
X90896762Y-72209571D01*
X90818564Y-72304855D01*
X90741028Y-72449914D01*
X90693282Y-72607312D01*
X90677160Y-72771000D01*
X90681201Y-72812028D01*
X90681200Y-73478514D01*
X90598995Y-73601544D01*
X90520974Y-73789902D01*
X90481200Y-73989861D01*
X90481200Y-74193739D01*
X90520974Y-74393698D01*
X90598995Y-74582056D01*
X90644393Y-74649999D01*
X85525485Y-74649999D01*
X85402456Y-74567794D01*
X85214098Y-74489773D01*
X85014139Y-74449999D01*
X84810261Y-74449999D01*
X84610302Y-74489773D01*
X84421944Y-74567794D01*
X84252426Y-74681062D01*
X84108263Y-74825225D01*
X83994995Y-74994743D01*
X83916974Y-75183101D01*
X83877200Y-75383060D01*
X83877200Y-75449999D01*
X82127000Y-75449999D01*
X82127000Y-75431544D01*
X82074928Y-75169761D01*
X81972785Y-74923167D01*
X81824497Y-74701238D01*
X81635762Y-74512503D01*
X81413833Y-74364215D01*
X81167239Y-74262072D01*
X80905456Y-74210000D01*
X80638544Y-74210000D01*
X80376761Y-74262072D01*
X80130167Y-74364215D01*
X79908238Y-74512503D01*
X79719503Y-74701238D01*
X79571215Y-74923167D01*
X79469072Y-75169761D01*
X79417000Y-75431544D01*
X76860000Y-75431544D01*
X76860000Y-62658881D01*
X87044960Y-62658881D01*
X87049001Y-62699910D01*
X87049000Y-70342381D01*
X87044960Y-70383400D01*
X87049000Y-70424418D01*
X87061082Y-70547088D01*
X87108828Y-70704486D01*
X87186364Y-70849545D01*
X87290709Y-70976691D01*
X87322578Y-71002845D01*
X87444107Y-71124375D01*
X87472974Y-71269498D01*
X87550995Y-71457856D01*
X87664263Y-71627374D01*
X87808426Y-71771537D01*
X87977944Y-71884805D01*
X88166302Y-71962826D01*
X88366261Y-72002600D01*
X88570139Y-72002600D01*
X88770098Y-71962826D01*
X88958456Y-71884805D01*
X89127974Y-71771537D01*
X89272137Y-71627374D01*
X89385405Y-71457856D01*
X89463426Y-71269498D01*
X89503200Y-71069539D01*
X89503200Y-70865661D01*
X89463426Y-70665702D01*
X89385405Y-70477344D01*
X89272137Y-70307826D01*
X89127974Y-70163663D01*
X88958456Y-70050395D01*
X88770098Y-69972374D01*
X88719000Y-69962210D01*
X88719000Y-64058811D01*
X88748226Y-64088037D01*
X88917744Y-64201305D01*
X89106102Y-64279326D01*
X89306061Y-64319100D01*
X89509939Y-64319100D01*
X89709898Y-64279326D01*
X89898256Y-64201305D01*
X90067774Y-64088037D01*
X90211937Y-63943874D01*
X90325205Y-63774356D01*
X90403226Y-63585998D01*
X90432093Y-63440875D01*
X91569968Y-62303000D01*
X97735515Y-62303000D01*
X97828305Y-62365000D01*
X96008824Y-62365000D01*
X95977599Y-62358789D01*
X95921562Y-62358789D01*
X95865811Y-62353298D01*
X95810060Y-62358789D01*
X95754023Y-62358789D01*
X95699063Y-62369721D01*
X95643313Y-62375212D01*
X95589708Y-62391473D01*
X95534744Y-62402406D01*
X95482966Y-62423853D01*
X95429365Y-62440113D01*
X95379966Y-62466517D01*
X95328187Y-62487965D01*
X95281587Y-62519102D01*
X95269992Y-62525300D01*
X94021785Y-62525300D01*
X93898756Y-62443095D01*
X93710398Y-62365074D01*
X93510439Y-62325300D01*
X93306561Y-62325300D01*
X93106602Y-62365074D01*
X92918244Y-62443095D01*
X92748726Y-62556363D01*
X92604563Y-62700526D01*
X92491295Y-62870044D01*
X92413274Y-63058402D01*
X92373500Y-63258361D01*
X92373500Y-63462239D01*
X92413274Y-63662198D01*
X92491295Y-63850556D01*
X92604563Y-64020074D01*
X92748726Y-64164237D01*
X92918244Y-64277505D01*
X93106602Y-64355526D01*
X93306561Y-64395300D01*
X93510439Y-64395300D01*
X93710398Y-64355526D01*
X93898756Y-64277505D01*
X94021785Y-64195300D01*
X94969493Y-64195300D01*
X94984199Y-64217309D01*
X95030031Y-64263141D01*
X95065573Y-64306449D01*
X95108879Y-64341989D01*
X95142291Y-64375401D01*
X95181576Y-64401650D01*
X95238399Y-64448284D01*
X95303226Y-64482934D01*
X95328187Y-64499613D01*
X95355925Y-64511102D01*
X95435575Y-64553676D01*
X95521998Y-64579892D01*
X95534744Y-64585172D01*
X95548275Y-64587863D01*
X95649523Y-64618577D01*
X95816270Y-64635000D01*
X95816271Y-64635000D01*
X95872022Y-64640491D01*
X95927774Y-64635000D01*
X109524893Y-64635000D01*
X109543368Y-64653475D01*
X109725534Y-64775195D01*
X109608645Y-64844822D01*
X109392412Y-65039731D01*
X109218359Y-65273080D01*
X109093175Y-65535901D01*
X109048524Y-65683110D01*
X109169845Y-65913000D01*
X110363000Y-65913000D01*
X110363000Y-65893000D01*
X110617000Y-65893000D01*
X110617000Y-65913000D01*
X112903000Y-65913000D01*
X112903000Y-65893000D01*
X113157000Y-65893000D01*
X113157000Y-65913000D01*
X114350155Y-65913000D01*
X114471476Y-65683110D01*
X114426825Y-65535901D01*
X114301641Y-65273080D01*
X114127588Y-65039731D01*
X113911355Y-64844822D01*
X113794466Y-64775195D01*
X113976632Y-64653475D01*
X114183475Y-64446632D01*
X114345990Y-64203411D01*
X114457932Y-63933158D01*
X114515000Y-63646260D01*
X114515000Y-63353740D01*
X114457932Y-63066842D01*
X114345990Y-62796589D01*
X114183475Y-62553368D01*
X113976632Y-62346525D01*
X113733411Y-62184010D01*
X113463158Y-62072068D01*
X113176260Y-62015000D01*
X112883740Y-62015000D01*
X112596842Y-62072068D01*
X112326589Y-62184010D01*
X112083368Y-62346525D01*
X112064893Y-62365000D01*
X111455107Y-62365000D01*
X111436632Y-62346525D01*
X111193411Y-62184010D01*
X110923158Y-62072068D01*
X110636260Y-62015000D01*
X110343740Y-62015000D01*
X110056842Y-62072068D01*
X109786589Y-62184010D01*
X109543368Y-62346525D01*
X109524893Y-62365000D01*
X104270760Y-62365000D01*
X104270760Y-62293161D01*
X104230986Y-62093202D01*
X104152965Y-61904844D01*
X104039697Y-61735326D01*
X103895534Y-61591163D01*
X103726016Y-61477895D01*
X103537658Y-61399874D01*
X103337699Y-61360100D01*
X103133821Y-61360100D01*
X102933862Y-61399874D01*
X102745504Y-61477895D01*
X102687099Y-61516920D01*
X102055805Y-61516920D01*
X101932776Y-61434715D01*
X101744418Y-61356694D01*
X101544459Y-61316920D01*
X101340581Y-61316920D01*
X101140622Y-61356694D01*
X100952264Y-61434715D01*
X100782746Y-61547983D01*
X100638583Y-61692146D01*
X100525315Y-61861664D01*
X100447294Y-62050022D01*
X100407520Y-62249981D01*
X100407520Y-62365000D01*
X98869295Y-62365000D01*
X99008574Y-62271937D01*
X99152737Y-62127774D01*
X99266005Y-61958256D01*
X99344026Y-61769898D01*
X99383800Y-61569939D01*
X99383800Y-61366061D01*
X99344026Y-61166102D01*
X99266005Y-60977744D01*
X99152737Y-60808226D01*
X99008574Y-60664063D01*
X98839056Y-60550795D01*
X98650698Y-60472774D01*
X98450739Y-60433000D01*
X98246861Y-60433000D01*
X98046902Y-60472774D01*
X97858544Y-60550795D01*
X97735515Y-60633000D01*
X91265115Y-60633000D01*
X91224099Y-60628960D01*
X91183083Y-60633000D01*
X91183081Y-60633000D01*
X91060411Y-60645082D01*
X90903013Y-60692828D01*
X90757954Y-60770364D01*
X90630809Y-60874709D01*
X90604659Y-60906573D01*
X90274931Y-61236301D01*
X90274931Y-61201011D01*
X90235157Y-61001052D01*
X90157136Y-60812694D01*
X90043868Y-60643176D01*
X89899705Y-60499013D01*
X89730187Y-60385745D01*
X89541829Y-60307724D01*
X89341870Y-60267950D01*
X89137992Y-60267950D01*
X88938033Y-60307724D01*
X88749675Y-60385745D01*
X88580157Y-60499013D01*
X88435994Y-60643176D01*
X88322726Y-60812694D01*
X88244705Y-61001052D01*
X88215839Y-61146175D01*
X87322574Y-62039440D01*
X87290710Y-62065590D01*
X87239677Y-62127774D01*
X87186364Y-62192736D01*
X87108828Y-62337795D01*
X87061082Y-62495193D01*
X87044960Y-62658881D01*
X76860000Y-62658881D01*
X76860000Y-60300000D01*
X83736928Y-60300000D01*
X83749188Y-60424482D01*
X83785498Y-60544180D01*
X83844463Y-60654494D01*
X83923815Y-60751185D01*
X84020506Y-60830537D01*
X84130820Y-60889502D01*
X84250518Y-60925812D01*
X84375000Y-60938072D01*
X84664250Y-60935000D01*
X84823000Y-60776250D01*
X84823000Y-59727000D01*
X83898750Y-59727000D01*
X83740000Y-59885750D01*
X83736928Y-60300000D01*
X76860000Y-60300000D01*
X76860000Y-58580881D01*
X78758724Y-58580881D01*
X79118912Y-59070548D01*
X79782882Y-59430849D01*
X80504385Y-59654694D01*
X81255695Y-59733480D01*
X82007938Y-59664178D01*
X82732208Y-59449452D01*
X83400670Y-59097555D01*
X83441088Y-59070548D01*
X83801275Y-58580883D01*
X83817096Y-58596704D01*
X83785498Y-58655820D01*
X83749188Y-58775518D01*
X83736928Y-58900000D01*
X83740000Y-59314250D01*
X83898750Y-59473000D01*
X84823000Y-59473000D01*
X84823000Y-58423750D01*
X85077000Y-58423750D01*
X85077000Y-59473000D01*
X85097000Y-59473000D01*
X85097000Y-59727000D01*
X85077000Y-59727000D01*
X85077000Y-60776250D01*
X85235750Y-60935000D01*
X85296569Y-60935646D01*
X85304774Y-60976898D01*
X85382795Y-61165256D01*
X85496063Y-61334774D01*
X85640226Y-61478937D01*
X85809744Y-61592205D01*
X85998102Y-61670226D01*
X86198061Y-61710000D01*
X86401939Y-61710000D01*
X86601898Y-61670226D01*
X86790256Y-61592205D01*
X86959774Y-61478937D01*
X87103937Y-61334774D01*
X87217205Y-61165256D01*
X87295226Y-60976898D01*
X87302949Y-60938072D01*
X87325001Y-60938072D01*
X87498255Y-60921008D01*
X87664851Y-60870472D01*
X87818387Y-60788405D01*
X87952962Y-60677962D01*
X88063405Y-60543387D01*
X88145472Y-60389851D01*
X88196008Y-60223255D01*
X88213072Y-60050001D01*
X88213072Y-59605140D01*
X90013348Y-59605140D01*
X90025608Y-59729622D01*
X90061918Y-59849320D01*
X90120883Y-59959634D01*
X90200235Y-60056325D01*
X90296926Y-60135677D01*
X90407240Y-60194642D01*
X90526938Y-60230952D01*
X90651420Y-60243212D01*
X90940670Y-60240140D01*
X91099420Y-60081390D01*
X91099420Y-59032140D01*
X90175170Y-59032140D01*
X90016420Y-59190890D01*
X90013348Y-59605140D01*
X88213072Y-59605140D01*
X88213072Y-59149999D01*
X88196008Y-58976745D01*
X88145472Y-58810149D01*
X88063405Y-58656613D01*
X87952962Y-58522038D01*
X87818387Y-58411595D01*
X87664851Y-58329528D01*
X87498255Y-58278992D01*
X87325001Y-58261928D01*
X86674999Y-58261928D01*
X86501745Y-58278992D01*
X86335149Y-58329528D01*
X86181613Y-58411595D01*
X86047038Y-58522038D01*
X86041658Y-58528594D01*
X85976185Y-58448815D01*
X85879494Y-58369463D01*
X85769180Y-58310498D01*
X85649482Y-58274188D01*
X85525000Y-58261928D01*
X85235750Y-58265000D01*
X85077000Y-58423750D01*
X84823000Y-58423750D01*
X84664250Y-58265000D01*
X84375000Y-58261928D01*
X84250518Y-58274188D01*
X84130820Y-58310498D01*
X84033765Y-58362376D01*
X84247523Y-58205140D01*
X90013348Y-58205140D01*
X90016420Y-58619390D01*
X90175170Y-58778140D01*
X91099420Y-58778140D01*
X91099420Y-57728890D01*
X91353420Y-57728890D01*
X91353420Y-58778140D01*
X91373420Y-58778140D01*
X91373420Y-59032140D01*
X91353420Y-59032140D01*
X91353420Y-60081390D01*
X91512170Y-60240140D01*
X91801420Y-60243212D01*
X91925902Y-60230952D01*
X92045600Y-60194642D01*
X92155914Y-60135677D01*
X92252605Y-60056325D01*
X92318078Y-59976546D01*
X92323458Y-59983102D01*
X92458033Y-60093545D01*
X92611569Y-60175612D01*
X92778165Y-60226148D01*
X92951419Y-60243212D01*
X93601421Y-60243212D01*
X93774675Y-60226148D01*
X93941271Y-60175612D01*
X94094807Y-60093545D01*
X94144299Y-60052928D01*
X94175544Y-60073805D01*
X94363902Y-60151826D01*
X94563861Y-60191600D01*
X94767739Y-60191600D01*
X94967698Y-60151826D01*
X95156056Y-60073805D01*
X95282576Y-59989267D01*
X95375555Y-60051394D01*
X95563913Y-60129415D01*
X95763872Y-60169189D01*
X95967750Y-60169189D01*
X96167709Y-60129415D01*
X96342084Y-60057186D01*
X96420433Y-60121485D01*
X96573969Y-60203552D01*
X96740565Y-60254088D01*
X96913819Y-60271152D01*
X97563821Y-60271152D01*
X97737075Y-60254088D01*
X97903671Y-60203552D01*
X98057207Y-60121485D01*
X98191782Y-60011042D01*
X98197162Y-60004486D01*
X98262635Y-60084265D01*
X98359326Y-60163617D01*
X98469640Y-60222582D01*
X98589338Y-60258892D01*
X98713820Y-60271152D01*
X99003070Y-60268080D01*
X99161820Y-60109330D01*
X99161820Y-59060080D01*
X99415820Y-59060080D01*
X99415820Y-60109330D01*
X99574570Y-60268080D01*
X99863820Y-60271152D01*
X99988302Y-60258892D01*
X100108000Y-60222582D01*
X100218314Y-60163617D01*
X100315005Y-60084265D01*
X100394357Y-59987574D01*
X100453322Y-59877260D01*
X100489632Y-59757562D01*
X100501892Y-59633080D01*
X100498820Y-59218830D01*
X100340070Y-59060080D01*
X99415820Y-59060080D01*
X99161820Y-59060080D01*
X99141820Y-59060080D01*
X99141820Y-58806080D01*
X99161820Y-58806080D01*
X99161820Y-57756830D01*
X99415820Y-57756830D01*
X99415820Y-58806080D01*
X100340070Y-58806080D01*
X100498820Y-58647330D01*
X100501892Y-58233080D01*
X100489632Y-58108598D01*
X100453322Y-57988900D01*
X100394357Y-57878586D01*
X100315005Y-57781895D01*
X100218314Y-57702543D01*
X100108000Y-57643578D01*
X99988302Y-57607268D01*
X99863820Y-57595008D01*
X99574570Y-57598080D01*
X99415820Y-57756830D01*
X99161820Y-57756830D01*
X99003070Y-57598080D01*
X98713820Y-57595008D01*
X98589338Y-57607268D01*
X98469640Y-57643578D01*
X98359326Y-57702543D01*
X98262635Y-57781895D01*
X98197162Y-57861674D01*
X98191782Y-57855118D01*
X98057207Y-57744675D01*
X97903671Y-57662608D01*
X97737075Y-57612072D01*
X97563821Y-57595008D01*
X96913819Y-57595008D01*
X96740565Y-57612072D01*
X96573969Y-57662608D01*
X96420433Y-57744675D01*
X96285858Y-57855118D01*
X96175415Y-57989693D01*
X96144206Y-58048080D01*
X96110386Y-58048080D01*
X96066919Y-58043799D01*
X96023453Y-58048080D01*
X96023443Y-58048080D01*
X95893430Y-58060885D01*
X95767161Y-58099189D01*
X95763872Y-58099189D01*
X95563913Y-58138963D01*
X95375555Y-58216984D01*
X95249035Y-58301522D01*
X95156056Y-58239395D01*
X94967698Y-58161374D01*
X94860275Y-58140006D01*
X94754653Y-58083551D01*
X94587830Y-58032945D01*
X94457817Y-58020140D01*
X94457809Y-58020140D01*
X94414340Y-58015859D01*
X94371025Y-58020125D01*
X94339825Y-57961753D01*
X94229382Y-57827178D01*
X94094807Y-57716735D01*
X93941271Y-57634668D01*
X93774675Y-57584132D01*
X93601421Y-57567068D01*
X92951419Y-57567068D01*
X92778165Y-57584132D01*
X92611569Y-57634668D01*
X92458033Y-57716735D01*
X92323458Y-57827178D01*
X92318078Y-57833734D01*
X92252605Y-57753955D01*
X92155914Y-57674603D01*
X92045600Y-57615638D01*
X91925902Y-57579328D01*
X91801420Y-57567068D01*
X91512170Y-57570140D01*
X91353420Y-57728890D01*
X91099420Y-57728890D01*
X90940670Y-57570140D01*
X90651420Y-57567068D01*
X90526938Y-57579328D01*
X90407240Y-57615638D01*
X90296926Y-57674603D01*
X90200235Y-57753955D01*
X90120883Y-57850646D01*
X90061918Y-57960960D01*
X90025608Y-58080658D01*
X90013348Y-58205140D01*
X84247523Y-58205140D01*
X84470548Y-58041088D01*
X84785205Y-57461231D01*
X103701830Y-57461231D01*
X103701830Y-57665109D01*
X103741604Y-57865068D01*
X103819625Y-58053426D01*
X103932893Y-58222944D01*
X104077056Y-58367107D01*
X104114495Y-58392123D01*
X104103992Y-58426745D01*
X104086928Y-58599999D01*
X104086928Y-59500001D01*
X104103992Y-59673255D01*
X104154528Y-59839851D01*
X104236595Y-59993387D01*
X104347038Y-60127962D01*
X104481613Y-60238405D01*
X104635149Y-60320472D01*
X104801745Y-60371008D01*
X104974999Y-60388072D01*
X105625001Y-60388072D01*
X105798255Y-60371008D01*
X105964851Y-60320472D01*
X106118387Y-60238405D01*
X106252962Y-60127962D01*
X106258342Y-60121406D01*
X106323815Y-60201185D01*
X106420506Y-60280537D01*
X106530820Y-60339502D01*
X106650518Y-60375812D01*
X106775000Y-60388072D01*
X107064250Y-60385000D01*
X107223000Y-60226250D01*
X107223000Y-59177000D01*
X107477000Y-59177000D01*
X107477000Y-60226250D01*
X107635750Y-60385000D01*
X107925000Y-60388072D01*
X108049482Y-60375812D01*
X108169180Y-60339502D01*
X108279494Y-60280537D01*
X108376185Y-60201185D01*
X108455537Y-60104494D01*
X108514502Y-59994180D01*
X108550812Y-59874482D01*
X108563072Y-59750000D01*
X108560000Y-59335750D01*
X108401250Y-59177000D01*
X107477000Y-59177000D01*
X107223000Y-59177000D01*
X107203000Y-59177000D01*
X107203000Y-58923000D01*
X107223000Y-58923000D01*
X107223000Y-57873750D01*
X107477000Y-57873750D01*
X107477000Y-58923000D01*
X108401250Y-58923000D01*
X108560000Y-58764250D01*
X108563072Y-58350000D01*
X108550812Y-58225518D01*
X108514502Y-58105820D01*
X108455537Y-57995506D01*
X108376185Y-57898815D01*
X108279494Y-57819463D01*
X108169180Y-57760498D01*
X108049482Y-57724188D01*
X107925000Y-57711928D01*
X107635750Y-57715000D01*
X107477000Y-57873750D01*
X107223000Y-57873750D01*
X107064250Y-57715000D01*
X106775000Y-57711928D01*
X106650518Y-57724188D01*
X106530820Y-57760498D01*
X106420506Y-57819463D01*
X106323815Y-57898815D01*
X106258342Y-57978594D01*
X106252962Y-57972038D01*
X106153173Y-57890143D01*
X106121589Y-57786026D01*
X106039411Y-57632281D01*
X106011343Y-57598080D01*
X105928817Y-57497523D01*
X105895044Y-57469806D01*
X105743365Y-57318127D01*
X105732056Y-57261272D01*
X105654035Y-57072914D01*
X105540767Y-56903396D01*
X105396604Y-56759233D01*
X105227086Y-56645965D01*
X105038728Y-56567944D01*
X104838769Y-56528170D01*
X104634891Y-56528170D01*
X104434932Y-56567944D01*
X104246574Y-56645965D01*
X104077056Y-56759233D01*
X103932893Y-56903396D01*
X103819625Y-57072914D01*
X103741604Y-57261272D01*
X103701830Y-57461231D01*
X84785205Y-57461231D01*
X84830849Y-57377118D01*
X85054694Y-56655615D01*
X85133480Y-55904305D01*
X85064178Y-55152062D01*
X84849452Y-54427792D01*
X84497555Y-53759330D01*
X84470548Y-53718912D01*
X84058558Y-53415861D01*
X90608200Y-53415861D01*
X90608200Y-53619739D01*
X90647974Y-53819698D01*
X90725995Y-54008056D01*
X90839263Y-54177574D01*
X90983426Y-54321737D01*
X91152944Y-54435005D01*
X91341302Y-54513026D01*
X91486425Y-54541893D01*
X92852563Y-55908032D01*
X92878709Y-55939891D01*
X93005854Y-56044236D01*
X93150913Y-56121772D01*
X93308311Y-56169518D01*
X93430981Y-56181600D01*
X93430982Y-56181600D01*
X93472000Y-56185640D01*
X93513018Y-56181600D01*
X98421315Y-56181600D01*
X98544344Y-56263805D01*
X98732702Y-56341826D01*
X98932661Y-56381600D01*
X99136539Y-56381600D01*
X99336498Y-56341826D01*
X99524856Y-56263805D01*
X99647885Y-56181600D01*
X108362688Y-56181600D01*
X108458625Y-56277537D01*
X108628143Y-56390805D01*
X108816501Y-56468826D01*
X109016460Y-56508600D01*
X109220338Y-56508600D01*
X109420297Y-56468826D01*
X109608655Y-56390805D01*
X109778173Y-56277537D01*
X109922336Y-56133374D01*
X110035604Y-55963856D01*
X110113625Y-55775498D01*
X110153399Y-55575539D01*
X110153399Y-55371661D01*
X110113625Y-55171702D01*
X110035604Y-54983344D01*
X109922336Y-54813826D01*
X109778173Y-54669663D01*
X109608655Y-54556395D01*
X109420297Y-54478374D01*
X109220338Y-54438600D01*
X109016460Y-54438600D01*
X108816501Y-54478374D01*
X108736287Y-54511600D01*
X107456038Y-54511600D01*
X107546405Y-54376356D01*
X107624426Y-54187998D01*
X107664200Y-53988039D01*
X107664200Y-53784161D01*
X107624426Y-53584202D01*
X107546405Y-53395844D01*
X107433137Y-53226326D01*
X107288974Y-53082163D01*
X107119456Y-52968895D01*
X106931098Y-52890874D01*
X106731139Y-52851100D01*
X106527261Y-52851100D01*
X106327302Y-52890874D01*
X106138944Y-52968895D01*
X106015915Y-53051100D01*
X94313168Y-53051100D01*
X93734085Y-52472017D01*
X93705218Y-52326894D01*
X93627197Y-52138536D01*
X93513929Y-51969018D01*
X93369766Y-51824855D01*
X93200248Y-51711587D01*
X93011890Y-51633566D01*
X92811931Y-51593792D01*
X92608053Y-51593792D01*
X92408094Y-51633566D01*
X92219736Y-51711587D01*
X92050218Y-51824855D01*
X91906055Y-51969018D01*
X91792787Y-52138536D01*
X91714766Y-52326894D01*
X91683755Y-52482800D01*
X91541261Y-52482800D01*
X91341302Y-52522574D01*
X91152944Y-52600595D01*
X90983426Y-52713863D01*
X90839263Y-52858026D01*
X90725995Y-53027544D01*
X90647974Y-53215902D01*
X90608200Y-53415861D01*
X84058558Y-53415861D01*
X83980881Y-53358724D01*
X81459605Y-55880000D01*
X81473748Y-55894143D01*
X81294143Y-56073748D01*
X81280000Y-56059605D01*
X78758724Y-58580881D01*
X76860000Y-58580881D01*
X76860000Y-55855695D01*
X77426520Y-55855695D01*
X77495822Y-56607938D01*
X77710548Y-57332208D01*
X78062445Y-58000670D01*
X78089452Y-58041088D01*
X78579119Y-58401276D01*
X81100395Y-55880000D01*
X78579119Y-53358724D01*
X78089452Y-53718912D01*
X77729151Y-54382882D01*
X77505306Y-55104385D01*
X77426520Y-55855695D01*
X76860000Y-55855695D01*
X76860000Y-53179119D01*
X78758724Y-53179119D01*
X81280000Y-55700395D01*
X83801276Y-53179119D01*
X83441088Y-52689452D01*
X82777118Y-52329151D01*
X82055615Y-52105306D01*
X81304305Y-52026520D01*
X80552062Y-52095822D01*
X79827792Y-52310548D01*
X79159330Y-52662445D01*
X79118912Y-52689452D01*
X78758724Y-53179119D01*
X76860000Y-53179119D01*
X76860000Y-51460000D01*
X114910001Y-51460000D01*
X114910000Y-128880000D01*
G36*
X94812292Y-95076219D02*
G01*
X94797779Y-95064309D01*
X94644033Y-94982131D01*
X94477210Y-94931525D01*
X94397945Y-94923718D01*
X94364065Y-94860333D01*
X94253622Y-94725758D01*
X94119047Y-94615315D01*
X93965511Y-94533248D01*
X93798915Y-94482712D01*
X93625661Y-94465648D01*
X92975659Y-94465648D01*
X92802405Y-94482712D01*
X92635809Y-94533248D01*
X92482273Y-94615315D01*
X92347698Y-94725758D01*
X92342318Y-94732314D01*
X92276845Y-94652535D01*
X92180154Y-94573183D01*
X92069840Y-94514218D01*
X91950142Y-94477908D01*
X91825660Y-94465648D01*
X91536410Y-94468720D01*
X91377660Y-94627470D01*
X91377660Y-95676720D01*
X91397660Y-95676720D01*
X91397660Y-95930720D01*
X91377660Y-95930720D01*
X91377660Y-95950720D01*
X91123660Y-95950720D01*
X91123660Y-95930720D01*
X91103660Y-95930720D01*
X91103660Y-95676720D01*
X91123660Y-95676720D01*
X91123660Y-94627470D01*
X90964910Y-94468720D01*
X90675660Y-94465648D01*
X90551178Y-94477908D01*
X90431480Y-94514218D01*
X90321166Y-94573183D01*
X90224475Y-94652535D01*
X90145123Y-94749226D01*
X90086158Y-94859540D01*
X90049848Y-94979238D01*
X90037588Y-95103720D01*
X90038465Y-95221934D01*
X89938234Y-95121703D01*
X89768716Y-95008435D01*
X89580358Y-94930414D01*
X89435235Y-94901547D01*
X89222266Y-94688578D01*
X89196111Y-94656709D01*
X89068966Y-94552364D01*
X88923907Y-94474828D01*
X88766509Y-94427082D01*
X88643839Y-94415000D01*
X88643838Y-94415000D01*
X88602820Y-94410960D01*
X88561802Y-94415000D01*
X81765867Y-94415000D01*
X82867009Y-93313860D01*
X93049933Y-93313860D01*
X94812292Y-95076219D01*
G37*
X94812292Y-95076219D02*
X94797779Y-95064309D01*
X94644033Y-94982131D01*
X94477210Y-94931525D01*
X94397945Y-94923718D01*
X94364065Y-94860333D01*
X94253622Y-94725758D01*
X94119047Y-94615315D01*
X93965511Y-94533248D01*
X93798915Y-94482712D01*
X93625661Y-94465648D01*
X92975659Y-94465648D01*
X92802405Y-94482712D01*
X92635809Y-94533248D01*
X92482273Y-94615315D01*
X92347698Y-94725758D01*
X92342318Y-94732314D01*
X92276845Y-94652535D01*
X92180154Y-94573183D01*
X92069840Y-94514218D01*
X91950142Y-94477908D01*
X91825660Y-94465648D01*
X91536410Y-94468720D01*
X91377660Y-94627470D01*
X91377660Y-95676720D01*
X91397660Y-95676720D01*
X91397660Y-95930720D01*
X91377660Y-95930720D01*
X91377660Y-95950720D01*
X91123660Y-95950720D01*
X91123660Y-95930720D01*
X91103660Y-95930720D01*
X91103660Y-95676720D01*
X91123660Y-95676720D01*
X91123660Y-94627470D01*
X90964910Y-94468720D01*
X90675660Y-94465648D01*
X90551178Y-94477908D01*
X90431480Y-94514218D01*
X90321166Y-94573183D01*
X90224475Y-94652535D01*
X90145123Y-94749226D01*
X90086158Y-94859540D01*
X90049848Y-94979238D01*
X90037588Y-95103720D01*
X90038465Y-95221934D01*
X89938234Y-95121703D01*
X89768716Y-95008435D01*
X89580358Y-94930414D01*
X89435235Y-94901547D01*
X89222266Y-94688578D01*
X89196111Y-94656709D01*
X89068966Y-94552364D01*
X88923907Y-94474828D01*
X88766509Y-94427082D01*
X88643839Y-94415000D01*
X88643838Y-94415000D01*
X88602820Y-94410960D01*
X88561802Y-94415000D01*
X81765867Y-94415000D01*
X82867009Y-93313860D01*
X93049933Y-93313860D01*
X94812292Y-95076219D01*
M02*
