G04 #@! TF.GenerationSoftware,KiCad,Pcbnew,5.1.6-c6e7f7d~87~ubuntu18.04.1*
G04 #@! TF.CreationDate,2020-07-17T09:27:03-04:00*
G04 #@! TF.ProjectId,optical_phasor_plug_in_board,6f707469-6361-46c5-9f70-6861736f725f,1.1*
G04 #@! TF.SameCoordinates,Original*
G04 #@! TF.FileFunction,Legend,Bot*
G04 #@! TF.FilePolarity,Positive*
%FSLAX46Y46*%
G04 Gerber Fmt 4.6, Leading zero omitted, Abs format (unit mm)*
G04 Created by KiCad (PCBNEW 5.1.6-c6e7f7d~87~ubuntu18.04.1) date 2020-07-17 09:27:03*
%MOMM*%
%LPD*%
G01*
G04 APERTURE LIST*
%ADD10C,0.150000*%
%ADD11C,0.120000*%
G04 APERTURE END LIST*
D10*
X166875833Y-67731714D02*
X166875833Y-68541238D01*
X166923452Y-68636476D01*
X166971071Y-68684095D01*
X167066309Y-68731714D01*
X167209166Y-68731714D01*
X167304404Y-68684095D01*
X166875833Y-68350761D02*
X166971071Y-68398380D01*
X167161547Y-68398380D01*
X167256785Y-68350761D01*
X167304404Y-68303142D01*
X167352023Y-68207904D01*
X167352023Y-67922190D01*
X167304404Y-67826952D01*
X167256785Y-67779333D01*
X167161547Y-67731714D01*
X166971071Y-67731714D01*
X166875833Y-67779333D01*
X166399642Y-68398380D02*
X166399642Y-67731714D01*
X166399642Y-67398380D02*
X166447261Y-67446000D01*
X166399642Y-67493619D01*
X166352023Y-67446000D01*
X166399642Y-67398380D01*
X166399642Y-67493619D01*
X166066309Y-67731714D02*
X165685357Y-67731714D01*
X165923452Y-67398380D02*
X165923452Y-68255523D01*
X165875833Y-68350761D01*
X165780595Y-68398380D01*
X165685357Y-68398380D01*
X165352023Y-68398380D02*
X165352023Y-67398380D01*
X164923452Y-68398380D02*
X164923452Y-67874571D01*
X164971071Y-67779333D01*
X165066309Y-67731714D01*
X165209166Y-67731714D01*
X165304404Y-67779333D01*
X165352023Y-67826952D01*
X164018690Y-67731714D02*
X164018690Y-68398380D01*
X164447261Y-67731714D02*
X164447261Y-68255523D01*
X164399642Y-68350761D01*
X164304404Y-68398380D01*
X164161547Y-68398380D01*
X164066309Y-68350761D01*
X164018690Y-68303142D01*
X163542500Y-68398380D02*
X163542500Y-67398380D01*
X163542500Y-67779333D02*
X163447261Y-67731714D01*
X163256785Y-67731714D01*
X163161547Y-67779333D01*
X163113928Y-67826952D01*
X163066309Y-67922190D01*
X163066309Y-68207904D01*
X163113928Y-68303142D01*
X163161547Y-68350761D01*
X163256785Y-68398380D01*
X163447261Y-68398380D01*
X163542500Y-68350761D01*
X162637738Y-68303142D02*
X162590119Y-68350761D01*
X162637738Y-68398380D01*
X162685357Y-68350761D01*
X162637738Y-68303142D01*
X162637738Y-68398380D01*
X161732976Y-68350761D02*
X161828214Y-68398380D01*
X162018690Y-68398380D01*
X162113928Y-68350761D01*
X162161547Y-68303142D01*
X162209166Y-68207904D01*
X162209166Y-67922190D01*
X162161547Y-67826952D01*
X162113928Y-67779333D01*
X162018690Y-67731714D01*
X161828214Y-67731714D01*
X161732976Y-67779333D01*
X161161547Y-68398380D02*
X161256785Y-68350761D01*
X161304404Y-68303142D01*
X161352023Y-68207904D01*
X161352023Y-67922190D01*
X161304404Y-67826952D01*
X161256785Y-67779333D01*
X161161547Y-67731714D01*
X161018690Y-67731714D01*
X160923452Y-67779333D01*
X160875833Y-67826952D01*
X160828214Y-67922190D01*
X160828214Y-68207904D01*
X160875833Y-68303142D01*
X160923452Y-68350761D01*
X161018690Y-68398380D01*
X161161547Y-68398380D01*
X160399642Y-68398380D02*
X160399642Y-67731714D01*
X160399642Y-67826952D02*
X160352023Y-67779333D01*
X160256785Y-67731714D01*
X160113928Y-67731714D01*
X160018690Y-67779333D01*
X159971071Y-67874571D01*
X159971071Y-68398380D01*
X159971071Y-67874571D02*
X159923452Y-67779333D01*
X159828214Y-67731714D01*
X159685357Y-67731714D01*
X159590119Y-67779333D01*
X159542500Y-67874571D01*
X159542500Y-68398380D01*
X158352023Y-67350761D02*
X159209166Y-68636476D01*
X157732976Y-67398380D02*
X157732976Y-68112666D01*
X157780595Y-68255523D01*
X157875833Y-68350761D01*
X158018690Y-68398380D01*
X158113928Y-68398380D01*
X157113928Y-68398380D02*
X157209166Y-68350761D01*
X157256785Y-68303142D01*
X157304404Y-68207904D01*
X157304404Y-67922190D01*
X157256785Y-67826952D01*
X157209166Y-67779333D01*
X157113928Y-67731714D01*
X156971071Y-67731714D01*
X156875833Y-67779333D01*
X156828214Y-67826952D01*
X156780595Y-67922190D01*
X156780595Y-68207904D01*
X156828214Y-68303142D01*
X156875833Y-68350761D01*
X156971071Y-68398380D01*
X157113928Y-68398380D01*
X156352023Y-68398380D02*
X156352023Y-67731714D01*
X156352023Y-67922190D02*
X156304404Y-67826952D01*
X156256785Y-67779333D01*
X156161547Y-67731714D01*
X156066309Y-67731714D01*
X155304404Y-68398380D02*
X155304404Y-67398380D01*
X155304404Y-68350761D02*
X155399642Y-68398380D01*
X155590119Y-68398380D01*
X155685357Y-68350761D01*
X155732976Y-68303142D01*
X155780595Y-68207904D01*
X155780595Y-67922190D01*
X155732976Y-67826952D01*
X155685357Y-67779333D01*
X155590119Y-67731714D01*
X155399642Y-67731714D01*
X155304404Y-67779333D01*
X154399642Y-68398380D02*
X154399642Y-67874571D01*
X154447261Y-67779333D01*
X154542500Y-67731714D01*
X154732976Y-67731714D01*
X154828214Y-67779333D01*
X154399642Y-68350761D02*
X154494880Y-68398380D01*
X154732976Y-68398380D01*
X154828214Y-68350761D01*
X154875833Y-68255523D01*
X154875833Y-68160285D01*
X154828214Y-68065047D01*
X154732976Y-68017428D01*
X154494880Y-68017428D01*
X154399642Y-67969809D01*
X153923452Y-67731714D02*
X153923452Y-68398380D01*
X153923452Y-67826952D02*
X153875833Y-67779333D01*
X153780595Y-67731714D01*
X153637738Y-67731714D01*
X153542500Y-67779333D01*
X153494880Y-67874571D01*
X153494880Y-68398380D01*
X153066309Y-68112666D02*
X152590119Y-68112666D01*
X153161547Y-68398380D02*
X152828214Y-67398380D01*
X152494880Y-68398380D01*
X151732976Y-68350761D02*
X151828214Y-68398380D01*
X152018690Y-68398380D01*
X152113928Y-68350761D01*
X152161547Y-68303142D01*
X152209166Y-68207904D01*
X152209166Y-67922190D01*
X152161547Y-67826952D01*
X152113928Y-67779333D01*
X152018690Y-67731714D01*
X151828214Y-67731714D01*
X151732976Y-67779333D01*
X150923452Y-68350761D02*
X151018690Y-68398380D01*
X151209166Y-68398380D01*
X151304404Y-68350761D01*
X151352023Y-68255523D01*
X151352023Y-67874571D01*
X151304404Y-67779333D01*
X151209166Y-67731714D01*
X151018690Y-67731714D01*
X150923452Y-67779333D01*
X150875833Y-67874571D01*
X150875833Y-67969809D01*
X151352023Y-68065047D01*
X150590119Y-67731714D02*
X150209166Y-67731714D01*
X150447261Y-67398380D02*
X150447261Y-68255523D01*
X150399642Y-68350761D01*
X150304404Y-68398380D01*
X150209166Y-68398380D01*
X149732976Y-68398380D02*
X149828214Y-68350761D01*
X149875833Y-68303142D01*
X149923452Y-68207904D01*
X149923452Y-67922190D01*
X149875833Y-67826952D01*
X149828214Y-67779333D01*
X149732976Y-67731714D01*
X149590119Y-67731714D01*
X149494880Y-67779333D01*
X149447261Y-67826952D01*
X149399642Y-67922190D01*
X149399642Y-68207904D01*
X149447261Y-68303142D01*
X149494880Y-68350761D01*
X149590119Y-68398380D01*
X149732976Y-68398380D01*
X148256785Y-67350761D02*
X149113928Y-68636476D01*
X147780595Y-68398380D02*
X147875833Y-68350761D01*
X147923452Y-68303142D01*
X147971071Y-68207904D01*
X147971071Y-67922190D01*
X147923452Y-67826952D01*
X147875833Y-67779333D01*
X147780595Y-67731714D01*
X147637738Y-67731714D01*
X147542500Y-67779333D01*
X147494880Y-67826952D01*
X147447261Y-67922190D01*
X147447261Y-68207904D01*
X147494880Y-68303142D01*
X147542500Y-68350761D01*
X147637738Y-68398380D01*
X147780595Y-68398380D01*
X147018690Y-67731714D02*
X147018690Y-68731714D01*
X147018690Y-67779333D02*
X146923452Y-67731714D01*
X146732976Y-67731714D01*
X146637738Y-67779333D01*
X146590119Y-67826952D01*
X146542500Y-67922190D01*
X146542500Y-68207904D01*
X146590119Y-68303142D01*
X146637738Y-68350761D01*
X146732976Y-68398380D01*
X146923452Y-68398380D01*
X147018690Y-68350761D01*
X146256785Y-67731714D02*
X145875833Y-67731714D01*
X146113928Y-67398380D02*
X146113928Y-68255523D01*
X146066309Y-68350761D01*
X145971071Y-68398380D01*
X145875833Y-68398380D01*
X145542500Y-68398380D02*
X145542500Y-67731714D01*
X145542500Y-67398380D02*
X145590119Y-67446000D01*
X145542500Y-67493619D01*
X145494880Y-67446000D01*
X145542500Y-67398380D01*
X145542500Y-67493619D01*
X144637738Y-68350761D02*
X144732976Y-68398380D01*
X144923452Y-68398380D01*
X145018690Y-68350761D01*
X145066309Y-68303142D01*
X145113928Y-68207904D01*
X145113928Y-67922190D01*
X145066309Y-67826952D01*
X145018690Y-67779333D01*
X144923452Y-67731714D01*
X144732976Y-67731714D01*
X144637738Y-67779333D01*
X143780595Y-68398380D02*
X143780595Y-67874571D01*
X143828214Y-67779333D01*
X143923452Y-67731714D01*
X144113928Y-67731714D01*
X144209166Y-67779333D01*
X143780595Y-68350761D02*
X143875833Y-68398380D01*
X144113928Y-68398380D01*
X144209166Y-68350761D01*
X144256785Y-68255523D01*
X144256785Y-68160285D01*
X144209166Y-68065047D01*
X144113928Y-68017428D01*
X143875833Y-68017428D01*
X143780595Y-67969809D01*
X143161547Y-68398380D02*
X143256785Y-68350761D01*
X143304404Y-68255523D01*
X143304404Y-67398380D01*
X143018690Y-68493619D02*
X142256785Y-68493619D01*
X142018690Y-67731714D02*
X142018690Y-68731714D01*
X142018690Y-67779333D02*
X141923452Y-67731714D01*
X141732976Y-67731714D01*
X141637738Y-67779333D01*
X141590119Y-67826952D01*
X141542500Y-67922190D01*
X141542500Y-68207904D01*
X141590119Y-68303142D01*
X141637738Y-68350761D01*
X141732976Y-68398380D01*
X141923452Y-68398380D01*
X142018690Y-68350761D01*
X141113928Y-68398380D02*
X141113928Y-67398380D01*
X140685357Y-68398380D02*
X140685357Y-67874571D01*
X140732976Y-67779333D01*
X140828214Y-67731714D01*
X140971071Y-67731714D01*
X141066309Y-67779333D01*
X141113928Y-67826952D01*
X139780595Y-68398380D02*
X139780595Y-67874571D01*
X139828214Y-67779333D01*
X139923452Y-67731714D01*
X140113928Y-67731714D01*
X140209166Y-67779333D01*
X139780595Y-68350761D02*
X139875833Y-68398380D01*
X140113928Y-68398380D01*
X140209166Y-68350761D01*
X140256785Y-68255523D01*
X140256785Y-68160285D01*
X140209166Y-68065047D01*
X140113928Y-68017428D01*
X139875833Y-68017428D01*
X139780595Y-67969809D01*
X139352023Y-68350761D02*
X139256785Y-68398380D01*
X139066309Y-68398380D01*
X138971071Y-68350761D01*
X138923452Y-68255523D01*
X138923452Y-68207904D01*
X138971071Y-68112666D01*
X139066309Y-68065047D01*
X139209166Y-68065047D01*
X139304404Y-68017428D01*
X139352023Y-67922190D01*
X139352023Y-67874571D01*
X139304404Y-67779333D01*
X139209166Y-67731714D01*
X139066309Y-67731714D01*
X138971071Y-67779333D01*
X138352023Y-68398380D02*
X138447261Y-68350761D01*
X138494880Y-68303142D01*
X138542500Y-68207904D01*
X138542500Y-67922190D01*
X138494880Y-67826952D01*
X138447261Y-67779333D01*
X138352023Y-67731714D01*
X138209166Y-67731714D01*
X138113928Y-67779333D01*
X138066309Y-67826952D01*
X138018690Y-67922190D01*
X138018690Y-68207904D01*
X138066309Y-68303142D01*
X138113928Y-68350761D01*
X138209166Y-68398380D01*
X138352023Y-68398380D01*
X137590119Y-68398380D02*
X137590119Y-67731714D01*
X137590119Y-67922190D02*
X137542500Y-67826952D01*
X137494880Y-67779333D01*
X137399642Y-67731714D01*
X137304404Y-67731714D01*
X137209166Y-68493619D02*
X136447261Y-68493619D01*
X136209166Y-67731714D02*
X136209166Y-68731714D01*
X136209166Y-67779333D02*
X136113928Y-67731714D01*
X135923452Y-67731714D01*
X135828214Y-67779333D01*
X135780595Y-67826952D01*
X135732976Y-67922190D01*
X135732976Y-68207904D01*
X135780595Y-68303142D01*
X135828214Y-68350761D01*
X135923452Y-68398380D01*
X136113928Y-68398380D01*
X136209166Y-68350761D01*
X135161547Y-68398380D02*
X135256785Y-68350761D01*
X135304404Y-68255523D01*
X135304404Y-67398380D01*
X134352023Y-67731714D02*
X134352023Y-68398380D01*
X134780595Y-67731714D02*
X134780595Y-68255523D01*
X134732976Y-68350761D01*
X134637738Y-68398380D01*
X134494880Y-68398380D01*
X134399642Y-68350761D01*
X134352023Y-68303142D01*
X133447261Y-67731714D02*
X133447261Y-68541238D01*
X133494880Y-68636476D01*
X133542500Y-68684095D01*
X133637738Y-68731714D01*
X133780595Y-68731714D01*
X133875833Y-68684095D01*
X133447261Y-68350761D02*
X133542500Y-68398380D01*
X133732976Y-68398380D01*
X133828214Y-68350761D01*
X133875833Y-68303142D01*
X133923452Y-68207904D01*
X133923452Y-67922190D01*
X133875833Y-67826952D01*
X133828214Y-67779333D01*
X133732976Y-67731714D01*
X133542500Y-67731714D01*
X133447261Y-67779333D01*
X133209166Y-68493619D02*
X132447261Y-68493619D01*
X132209166Y-68398380D02*
X132209166Y-67731714D01*
X132209166Y-67398380D02*
X132256785Y-67446000D01*
X132209166Y-67493619D01*
X132161547Y-67446000D01*
X132209166Y-67398380D01*
X132209166Y-67493619D01*
X131732976Y-67731714D02*
X131732976Y-68398380D01*
X131732976Y-67826952D02*
X131685357Y-67779333D01*
X131590119Y-67731714D01*
X131447261Y-67731714D01*
X131352023Y-67779333D01*
X131304404Y-67874571D01*
X131304404Y-68398380D01*
X131066309Y-68493619D02*
X130304404Y-68493619D01*
X130066309Y-68398380D02*
X130066309Y-67398380D01*
X130066309Y-67779333D02*
X129971071Y-67731714D01*
X129780595Y-67731714D01*
X129685357Y-67779333D01*
X129637738Y-67826952D01*
X129590119Y-67922190D01*
X129590119Y-68207904D01*
X129637738Y-68303142D01*
X129685357Y-68350761D01*
X129780595Y-68398380D01*
X129971071Y-68398380D01*
X130066309Y-68350761D01*
X129018690Y-68398380D02*
X129113928Y-68350761D01*
X129161547Y-68303142D01*
X129209166Y-68207904D01*
X129209166Y-67922190D01*
X129161547Y-67826952D01*
X129113928Y-67779333D01*
X129018690Y-67731714D01*
X128875833Y-67731714D01*
X128780595Y-67779333D01*
X128732976Y-67826952D01*
X128685357Y-67922190D01*
X128685357Y-68207904D01*
X128732976Y-68303142D01*
X128780595Y-68350761D01*
X128875833Y-68398380D01*
X129018690Y-68398380D01*
X127828214Y-68398380D02*
X127828214Y-67874571D01*
X127875833Y-67779333D01*
X127971071Y-67731714D01*
X128161547Y-67731714D01*
X128256785Y-67779333D01*
X127828214Y-68350761D02*
X127923452Y-68398380D01*
X128161547Y-68398380D01*
X128256785Y-68350761D01*
X128304404Y-68255523D01*
X128304404Y-68160285D01*
X128256785Y-68065047D01*
X128161547Y-68017428D01*
X127923452Y-68017428D01*
X127828214Y-67969809D01*
X127352023Y-68398380D02*
X127352023Y-67731714D01*
X127352023Y-67922190D02*
X127304404Y-67826952D01*
X127256785Y-67779333D01*
X127161547Y-67731714D01*
X127066309Y-67731714D01*
X126304404Y-68398380D02*
X126304404Y-67398380D01*
X126304404Y-68350761D02*
X126399642Y-68398380D01*
X126590119Y-68398380D01*
X126685357Y-68350761D01*
X126732976Y-68303142D01*
X126780595Y-68207904D01*
X126780595Y-67922190D01*
X126732976Y-67826952D01*
X126685357Y-67779333D01*
X126590119Y-67731714D01*
X126399642Y-67731714D01*
X126304404Y-67779333D01*
X167304404Y-70048380D02*
X167304404Y-69381714D01*
X167304404Y-69572190D02*
X167256785Y-69476952D01*
X167209166Y-69429333D01*
X167113928Y-69381714D01*
X167018690Y-69381714D01*
X166304404Y-70000761D02*
X166399642Y-70048380D01*
X166590119Y-70048380D01*
X166685357Y-70000761D01*
X166732976Y-69905523D01*
X166732976Y-69524571D01*
X166685357Y-69429333D01*
X166590119Y-69381714D01*
X166399642Y-69381714D01*
X166304404Y-69429333D01*
X166256785Y-69524571D01*
X166256785Y-69619809D01*
X166732976Y-69715047D01*
X165923452Y-69381714D02*
X165685357Y-70048380D01*
X165447261Y-69381714D01*
X163780595Y-70048380D02*
X164352023Y-70048380D01*
X164066309Y-70048380D02*
X164066309Y-69048380D01*
X164161547Y-69191238D01*
X164256785Y-69286476D01*
X164352023Y-69334095D01*
X163352023Y-69953142D02*
X163304404Y-70000761D01*
X163352023Y-70048380D01*
X163399642Y-70000761D01*
X163352023Y-69953142D01*
X163352023Y-70048380D01*
X162352023Y-70048380D02*
X162923452Y-70048380D01*
X162637738Y-70048380D02*
X162637738Y-69048380D01*
X162732976Y-69191238D01*
X162828214Y-69286476D01*
X162923452Y-69334095D01*
X167352023Y-70793619D02*
X167304404Y-70746000D01*
X167209166Y-70698380D01*
X166971071Y-70698380D01*
X166875833Y-70746000D01*
X166828214Y-70793619D01*
X166780595Y-70888857D01*
X166780595Y-70984095D01*
X166828214Y-71126952D01*
X167399642Y-71698380D01*
X166780595Y-71698380D01*
X166161547Y-70698380D02*
X166066309Y-70698380D01*
X165971071Y-70746000D01*
X165923452Y-70793619D01*
X165875833Y-70888857D01*
X165828214Y-71079333D01*
X165828214Y-71317428D01*
X165875833Y-71507904D01*
X165923452Y-71603142D01*
X165971071Y-71650761D01*
X166066309Y-71698380D01*
X166161547Y-71698380D01*
X166256785Y-71650761D01*
X166304404Y-71603142D01*
X166352023Y-71507904D01*
X166399642Y-71317428D01*
X166399642Y-71079333D01*
X166352023Y-70888857D01*
X166304404Y-70793619D01*
X166256785Y-70746000D01*
X166161547Y-70698380D01*
X164875833Y-71698380D02*
X165447261Y-71698380D01*
X165161547Y-71698380D02*
X165161547Y-70698380D01*
X165256785Y-70841238D01*
X165352023Y-70936476D01*
X165447261Y-70984095D01*
X164399642Y-71698380D02*
X164209166Y-71698380D01*
X164113928Y-71650761D01*
X164066309Y-71603142D01*
X163971071Y-71460285D01*
X163923452Y-71269809D01*
X163923452Y-70888857D01*
X163971071Y-70793619D01*
X164018690Y-70746000D01*
X164113928Y-70698380D01*
X164304404Y-70698380D01*
X164399642Y-70746000D01*
X164447261Y-70793619D01*
X164494880Y-70888857D01*
X164494880Y-71126952D01*
X164447261Y-71222190D01*
X164399642Y-71269809D01*
X164304404Y-71317428D01*
X164113928Y-71317428D01*
X164018690Y-71269809D01*
X163971071Y-71222190D01*
X163923452Y-71126952D01*
X163494880Y-71317428D02*
X162732976Y-71317428D01*
X162066309Y-70698380D02*
X161971071Y-70698380D01*
X161875833Y-70746000D01*
X161828214Y-70793619D01*
X161780595Y-70888857D01*
X161732976Y-71079333D01*
X161732976Y-71317428D01*
X161780595Y-71507904D01*
X161828214Y-71603142D01*
X161875833Y-71650761D01*
X161971071Y-71698380D01*
X162066309Y-71698380D01*
X162161547Y-71650761D01*
X162209166Y-71603142D01*
X162256785Y-71507904D01*
X162304404Y-71317428D01*
X162304404Y-71079333D01*
X162256785Y-70888857D01*
X162209166Y-70793619D01*
X162161547Y-70746000D01*
X162066309Y-70698380D01*
X160875833Y-70698380D02*
X161066309Y-70698380D01*
X161161547Y-70746000D01*
X161209166Y-70793619D01*
X161304404Y-70936476D01*
X161352023Y-71126952D01*
X161352023Y-71507904D01*
X161304404Y-71603142D01*
X161256785Y-71650761D01*
X161161547Y-71698380D01*
X160971071Y-71698380D01*
X160875833Y-71650761D01*
X160828214Y-71603142D01*
X160780595Y-71507904D01*
X160780595Y-71269809D01*
X160828214Y-71174571D01*
X160875833Y-71126952D01*
X160971071Y-71079333D01*
X161161547Y-71079333D01*
X161256785Y-71126952D01*
X161304404Y-71174571D01*
X161352023Y-71269809D01*
X160352023Y-71317428D02*
X159590119Y-71317428D01*
X158923452Y-70698380D02*
X158828214Y-70698380D01*
X158732976Y-70746000D01*
X158685357Y-70793619D01*
X158637738Y-70888857D01*
X158590119Y-71079333D01*
X158590119Y-71317428D01*
X158637738Y-71507904D01*
X158685357Y-71603142D01*
X158732976Y-71650761D01*
X158828214Y-71698380D01*
X158923452Y-71698380D01*
X159018690Y-71650761D01*
X159066309Y-71603142D01*
X159113928Y-71507904D01*
X159161547Y-71317428D01*
X159161547Y-71079333D01*
X159113928Y-70888857D01*
X159066309Y-70793619D01*
X159018690Y-70746000D01*
X158923452Y-70698380D01*
X158256785Y-70698380D02*
X157637738Y-70698380D01*
X157971071Y-71079333D01*
X157828214Y-71079333D01*
X157732976Y-71126952D01*
X157685357Y-71174571D01*
X157637738Y-71269809D01*
X157637738Y-71507904D01*
X157685357Y-71603142D01*
X157732976Y-71650761D01*
X157828214Y-71698380D01*
X158113928Y-71698380D01*
X158209166Y-71650761D01*
X158256785Y-71603142D01*
D11*
X120710000Y-105350000D02*
X119380000Y-105350000D01*
X120710000Y-106680000D02*
X120710000Y-105350000D01*
X120710000Y-107950000D02*
X118050000Y-107950000D01*
X118050000Y-107950000D02*
X118050000Y-115630000D01*
X120710000Y-107950000D02*
X120710000Y-115630000D01*
X120710000Y-115630000D02*
X118050000Y-115630000D01*
X120710000Y-77530000D02*
X118050000Y-77530000D01*
X120710000Y-69850000D02*
X120710000Y-77530000D01*
X118050000Y-69850000D02*
X118050000Y-77530000D01*
X120710000Y-69850000D02*
X118050000Y-69850000D01*
X120710000Y-68580000D02*
X120710000Y-67250000D01*
X120710000Y-67250000D02*
X119380000Y-67250000D01*
X174050000Y-77530000D02*
X171390000Y-77530000D01*
X174050000Y-69850000D02*
X174050000Y-77530000D01*
X171390000Y-69850000D02*
X171390000Y-77530000D01*
X174050000Y-69850000D02*
X171390000Y-69850000D01*
X174050000Y-68580000D02*
X174050000Y-67250000D01*
X174050000Y-67250000D02*
X172720000Y-67250000D01*
X174050000Y-95190000D02*
X172720000Y-95190000D01*
X174050000Y-96520000D02*
X174050000Y-95190000D01*
X174050000Y-97790000D02*
X171390000Y-97790000D01*
X171390000Y-97790000D02*
X171390000Y-115630000D01*
X174050000Y-97790000D02*
X174050000Y-115630000D01*
X174050000Y-115630000D02*
X171390000Y-115630000D01*
D10*
X119713333Y-103802380D02*
X119713333Y-104516666D01*
X119760952Y-104659523D01*
X119856190Y-104754761D01*
X119999047Y-104802380D01*
X120094285Y-104802380D01*
X118713333Y-104802380D02*
X119284761Y-104802380D01*
X118999047Y-104802380D02*
X118999047Y-103802380D01*
X119094285Y-103945238D01*
X119189523Y-104040476D01*
X119284761Y-104088095D01*
X119713333Y-78192380D02*
X119713333Y-78906666D01*
X119760952Y-79049523D01*
X119856190Y-79144761D01*
X119999047Y-79192380D01*
X120094285Y-79192380D01*
X119284761Y-78287619D02*
X119237142Y-78240000D01*
X119141904Y-78192380D01*
X118903809Y-78192380D01*
X118808571Y-78240000D01*
X118760952Y-78287619D01*
X118713333Y-78382857D01*
X118713333Y-78478095D01*
X118760952Y-78620952D01*
X119332380Y-79192380D01*
X118713333Y-79192380D01*
X173053333Y-78192380D02*
X173053333Y-78906666D01*
X173100952Y-79049523D01*
X173196190Y-79144761D01*
X173339047Y-79192380D01*
X173434285Y-79192380D01*
X172672380Y-78192380D02*
X172053333Y-78192380D01*
X172386666Y-78573333D01*
X172243809Y-78573333D01*
X172148571Y-78620952D01*
X172100952Y-78668571D01*
X172053333Y-78763809D01*
X172053333Y-79001904D01*
X172100952Y-79097142D01*
X172148571Y-79144761D01*
X172243809Y-79192380D01*
X172529523Y-79192380D01*
X172624761Y-79144761D01*
X172672380Y-79097142D01*
X173053333Y-93642380D02*
X173053333Y-94356666D01*
X173100952Y-94499523D01*
X173196190Y-94594761D01*
X173339047Y-94642380D01*
X173434285Y-94642380D01*
X172148571Y-93975714D02*
X172148571Y-94642380D01*
X172386666Y-93594761D02*
X172624761Y-94309047D01*
X172005714Y-94309047D01*
M02*
