G04 #@! TF.GenerationSoftware,KiCad,Pcbnew,5.1.6-c6e7f7d~86~ubuntu18.04.1*
G04 #@! TF.CreationDate,2020-06-20T09:49:41-04:00*
G04 #@! TF.ProjectId,dual_VCA,6475616c-5f56-4434-912e-6b696361645f,rev?*
G04 #@! TF.SameCoordinates,Original*
G04 #@! TF.FileFunction,Soldermask,Bot*
G04 #@! TF.FilePolarity,Negative*
%FSLAX46Y46*%
G04 Gerber Fmt 4.6, Leading zero omitted, Abs format (unit mm)*
G04 Created by KiCad (PCBNEW 5.1.6-c6e7f7d~86~ubuntu18.04.1) date 2020-06-20 09:49:41*
%MOMM*%
%LPD*%
G01*
G04 APERTURE LIST*
%ADD10C,0.100000*%
G04 APERTURE END LIST*
D10*
G36*
X205988228Y-146501703D02*
G01*
X206143100Y-146565853D01*
X206282481Y-146658985D01*
X206401015Y-146777519D01*
X206494147Y-146916900D01*
X206558297Y-147071772D01*
X206591000Y-147236184D01*
X206591000Y-147403816D01*
X206558297Y-147568228D01*
X206494147Y-147723100D01*
X206401015Y-147862481D01*
X206282481Y-147981015D01*
X206143100Y-148074147D01*
X205988228Y-148138297D01*
X205823816Y-148171000D01*
X205656184Y-148171000D01*
X205491772Y-148138297D01*
X205336900Y-148074147D01*
X205197519Y-147981015D01*
X205078985Y-147862481D01*
X204985853Y-147723100D01*
X204921703Y-147568228D01*
X204889000Y-147403816D01*
X204889000Y-147236184D01*
X204921703Y-147071772D01*
X204985853Y-146916900D01*
X205078985Y-146777519D01*
X205197519Y-146658985D01*
X205336900Y-146565853D01*
X205491772Y-146501703D01*
X205656184Y-146469000D01*
X205823816Y-146469000D01*
X205988228Y-146501703D01*
G37*
G36*
X195828228Y-146501703D02*
G01*
X195983100Y-146565853D01*
X196122481Y-146658985D01*
X196241015Y-146777519D01*
X196334147Y-146916900D01*
X196398297Y-147071772D01*
X196431000Y-147236184D01*
X196431000Y-147403816D01*
X196398297Y-147568228D01*
X196334147Y-147723100D01*
X196241015Y-147862481D01*
X196122481Y-147981015D01*
X195983100Y-148074147D01*
X195828228Y-148138297D01*
X195663816Y-148171000D01*
X195496184Y-148171000D01*
X195331772Y-148138297D01*
X195176900Y-148074147D01*
X195037519Y-147981015D01*
X194918985Y-147862481D01*
X194825853Y-147723100D01*
X194761703Y-147568228D01*
X194729000Y-147403816D01*
X194729000Y-147236184D01*
X194761703Y-147071772D01*
X194825853Y-146916900D01*
X194918985Y-146777519D01*
X195037519Y-146658985D01*
X195176900Y-146565853D01*
X195331772Y-146501703D01*
X195496184Y-146469000D01*
X195663816Y-146469000D01*
X195828228Y-146501703D01*
G37*
G36*
X147568228Y-146501703D02*
G01*
X147723100Y-146565853D01*
X147862481Y-146658985D01*
X147981015Y-146777519D01*
X148074147Y-146916900D01*
X148138297Y-147071772D01*
X148171000Y-147236184D01*
X148171000Y-147403816D01*
X148138297Y-147568228D01*
X148074147Y-147723100D01*
X147981015Y-147862481D01*
X147862481Y-147981015D01*
X147723100Y-148074147D01*
X147568228Y-148138297D01*
X147403816Y-148171000D01*
X147236184Y-148171000D01*
X147071772Y-148138297D01*
X146916900Y-148074147D01*
X146777519Y-147981015D01*
X146658985Y-147862481D01*
X146565853Y-147723100D01*
X146501703Y-147568228D01*
X146469000Y-147403816D01*
X146469000Y-147236184D01*
X146501703Y-147071772D01*
X146565853Y-146916900D01*
X146658985Y-146777519D01*
X146777519Y-146658985D01*
X146916900Y-146565853D01*
X147071772Y-146501703D01*
X147236184Y-146469000D01*
X147403816Y-146469000D01*
X147568228Y-146501703D01*
G37*
G36*
X157728228Y-146501703D02*
G01*
X157883100Y-146565853D01*
X158022481Y-146658985D01*
X158141015Y-146777519D01*
X158234147Y-146916900D01*
X158298297Y-147071772D01*
X158331000Y-147236184D01*
X158331000Y-147403816D01*
X158298297Y-147568228D01*
X158234147Y-147723100D01*
X158141015Y-147862481D01*
X158022481Y-147981015D01*
X157883100Y-148074147D01*
X157728228Y-148138297D01*
X157563816Y-148171000D01*
X157396184Y-148171000D01*
X157231772Y-148138297D01*
X157076900Y-148074147D01*
X156937519Y-147981015D01*
X156818985Y-147862481D01*
X156725853Y-147723100D01*
X156661703Y-147568228D01*
X156629000Y-147403816D01*
X156629000Y-147236184D01*
X156661703Y-147071772D01*
X156725853Y-146916900D01*
X156818985Y-146777519D01*
X156937519Y-146658985D01*
X157076900Y-146565853D01*
X157231772Y-146501703D01*
X157396184Y-146469000D01*
X157563816Y-146469000D01*
X157728228Y-146501703D01*
G37*
G36*
X213473512Y-143883927D02*
G01*
X213622812Y-143913624D01*
X213786784Y-143981544D01*
X213934354Y-144080147D01*
X214059853Y-144205646D01*
X214158456Y-144353216D01*
X214226376Y-144517188D01*
X214261000Y-144691259D01*
X214261000Y-144868741D01*
X214226376Y-145042812D01*
X214158456Y-145206784D01*
X214059853Y-145354354D01*
X213934354Y-145479853D01*
X213786784Y-145578456D01*
X213622812Y-145646376D01*
X213473512Y-145676073D01*
X213448742Y-145681000D01*
X213271258Y-145681000D01*
X213246488Y-145676073D01*
X213097188Y-145646376D01*
X212933216Y-145578456D01*
X212785646Y-145479853D01*
X212660147Y-145354354D01*
X212561544Y-145206784D01*
X212493624Y-145042812D01*
X212459000Y-144868741D01*
X212459000Y-144691259D01*
X212493624Y-144517188D01*
X212561544Y-144353216D01*
X212660147Y-144205646D01*
X212785646Y-144080147D01*
X212933216Y-143981544D01*
X213097188Y-143913624D01*
X213246488Y-143883927D01*
X213271258Y-143879000D01*
X213448742Y-143879000D01*
X213473512Y-143883927D01*
G37*
G36*
X143141000Y-145681000D02*
G01*
X141339000Y-145681000D01*
X141339000Y-143879000D01*
X143141000Y-143879000D01*
X143141000Y-145681000D01*
G37*
G36*
X139813512Y-143883927D02*
G01*
X139962812Y-143913624D01*
X140126784Y-143981544D01*
X140274354Y-144080147D01*
X140399853Y-144205646D01*
X140498456Y-144353216D01*
X140566376Y-144517188D01*
X140601000Y-144691259D01*
X140601000Y-144868741D01*
X140566376Y-145042812D01*
X140498456Y-145206784D01*
X140399853Y-145354354D01*
X140274354Y-145479853D01*
X140126784Y-145578456D01*
X139962812Y-145646376D01*
X139813512Y-145676073D01*
X139788742Y-145681000D01*
X139611258Y-145681000D01*
X139586488Y-145676073D01*
X139437188Y-145646376D01*
X139273216Y-145578456D01*
X139125646Y-145479853D01*
X139000147Y-145354354D01*
X138901544Y-145206784D01*
X138833624Y-145042812D01*
X138799000Y-144868741D01*
X138799000Y-144691259D01*
X138833624Y-144517188D01*
X138901544Y-144353216D01*
X139000147Y-144205646D01*
X139125646Y-144080147D01*
X139273216Y-143981544D01*
X139437188Y-143913624D01*
X139586488Y-143883927D01*
X139611258Y-143879000D01*
X139788742Y-143879000D01*
X139813512Y-143883927D01*
G37*
G36*
X137273512Y-143883927D02*
G01*
X137422812Y-143913624D01*
X137586784Y-143981544D01*
X137734354Y-144080147D01*
X137859853Y-144205646D01*
X137958456Y-144353216D01*
X138026376Y-144517188D01*
X138061000Y-144691259D01*
X138061000Y-144868741D01*
X138026376Y-145042812D01*
X137958456Y-145206784D01*
X137859853Y-145354354D01*
X137734354Y-145479853D01*
X137586784Y-145578456D01*
X137422812Y-145646376D01*
X137273512Y-145676073D01*
X137248742Y-145681000D01*
X137071258Y-145681000D01*
X137046488Y-145676073D01*
X136897188Y-145646376D01*
X136733216Y-145578456D01*
X136585646Y-145479853D01*
X136460147Y-145354354D01*
X136361544Y-145206784D01*
X136293624Y-145042812D01*
X136259000Y-144868741D01*
X136259000Y-144691259D01*
X136293624Y-144517188D01*
X136361544Y-144353216D01*
X136460147Y-144205646D01*
X136585646Y-144080147D01*
X136733216Y-143981544D01*
X136897188Y-143913624D01*
X137046488Y-143883927D01*
X137071258Y-143879000D01*
X137248742Y-143879000D01*
X137273512Y-143883927D01*
G37*
G36*
X134733512Y-143883927D02*
G01*
X134882812Y-143913624D01*
X135046784Y-143981544D01*
X135194354Y-144080147D01*
X135319853Y-144205646D01*
X135418456Y-144353216D01*
X135486376Y-144517188D01*
X135521000Y-144691259D01*
X135521000Y-144868741D01*
X135486376Y-145042812D01*
X135418456Y-145206784D01*
X135319853Y-145354354D01*
X135194354Y-145479853D01*
X135046784Y-145578456D01*
X134882812Y-145646376D01*
X134733512Y-145676073D01*
X134708742Y-145681000D01*
X134531258Y-145681000D01*
X134506488Y-145676073D01*
X134357188Y-145646376D01*
X134193216Y-145578456D01*
X134045646Y-145479853D01*
X133920147Y-145354354D01*
X133821544Y-145206784D01*
X133753624Y-145042812D01*
X133719000Y-144868741D01*
X133719000Y-144691259D01*
X133753624Y-144517188D01*
X133821544Y-144353216D01*
X133920147Y-144205646D01*
X134045646Y-144080147D01*
X134193216Y-143981544D01*
X134357188Y-143913624D01*
X134506488Y-143883927D01*
X134531258Y-143879000D01*
X134708742Y-143879000D01*
X134733512Y-143883927D01*
G37*
G36*
X132193512Y-143883927D02*
G01*
X132342812Y-143913624D01*
X132506784Y-143981544D01*
X132654354Y-144080147D01*
X132779853Y-144205646D01*
X132878456Y-144353216D01*
X132946376Y-144517188D01*
X132981000Y-144691259D01*
X132981000Y-144868741D01*
X132946376Y-145042812D01*
X132878456Y-145206784D01*
X132779853Y-145354354D01*
X132654354Y-145479853D01*
X132506784Y-145578456D01*
X132342812Y-145646376D01*
X132193512Y-145676073D01*
X132168742Y-145681000D01*
X131991258Y-145681000D01*
X131966488Y-145676073D01*
X131817188Y-145646376D01*
X131653216Y-145578456D01*
X131505646Y-145479853D01*
X131380147Y-145354354D01*
X131281544Y-145206784D01*
X131213624Y-145042812D01*
X131179000Y-144868741D01*
X131179000Y-144691259D01*
X131213624Y-144517188D01*
X131281544Y-144353216D01*
X131380147Y-144205646D01*
X131505646Y-144080147D01*
X131653216Y-143981544D01*
X131817188Y-143913624D01*
X131966488Y-143883927D01*
X131991258Y-143879000D01*
X132168742Y-143879000D01*
X132193512Y-143883927D01*
G37*
G36*
X211721000Y-145681000D02*
G01*
X209919000Y-145681000D01*
X209919000Y-143879000D01*
X211721000Y-143879000D01*
X211721000Y-145681000D01*
G37*
G36*
X216013512Y-143883927D02*
G01*
X216162812Y-143913624D01*
X216326784Y-143981544D01*
X216474354Y-144080147D01*
X216599853Y-144205646D01*
X216698456Y-144353216D01*
X216766376Y-144517188D01*
X216801000Y-144691259D01*
X216801000Y-144868741D01*
X216766376Y-145042812D01*
X216698456Y-145206784D01*
X216599853Y-145354354D01*
X216474354Y-145479853D01*
X216326784Y-145578456D01*
X216162812Y-145646376D01*
X216013512Y-145676073D01*
X215988742Y-145681000D01*
X215811258Y-145681000D01*
X215786488Y-145676073D01*
X215637188Y-145646376D01*
X215473216Y-145578456D01*
X215325646Y-145479853D01*
X215200147Y-145354354D01*
X215101544Y-145206784D01*
X215033624Y-145042812D01*
X214999000Y-144868741D01*
X214999000Y-144691259D01*
X215033624Y-144517188D01*
X215101544Y-144353216D01*
X215200147Y-144205646D01*
X215325646Y-144080147D01*
X215473216Y-143981544D01*
X215637188Y-143913624D01*
X215786488Y-143883927D01*
X215811258Y-143879000D01*
X215988742Y-143879000D01*
X216013512Y-143883927D01*
G37*
G36*
X218553512Y-143883927D02*
G01*
X218702812Y-143913624D01*
X218866784Y-143981544D01*
X219014354Y-144080147D01*
X219139853Y-144205646D01*
X219238456Y-144353216D01*
X219306376Y-144517188D01*
X219341000Y-144691259D01*
X219341000Y-144868741D01*
X219306376Y-145042812D01*
X219238456Y-145206784D01*
X219139853Y-145354354D01*
X219014354Y-145479853D01*
X218866784Y-145578456D01*
X218702812Y-145646376D01*
X218553512Y-145676073D01*
X218528742Y-145681000D01*
X218351258Y-145681000D01*
X218326488Y-145676073D01*
X218177188Y-145646376D01*
X218013216Y-145578456D01*
X217865646Y-145479853D01*
X217740147Y-145354354D01*
X217641544Y-145206784D01*
X217573624Y-145042812D01*
X217539000Y-144868741D01*
X217539000Y-144691259D01*
X217573624Y-144517188D01*
X217641544Y-144353216D01*
X217740147Y-144205646D01*
X217865646Y-144080147D01*
X218013216Y-143981544D01*
X218177188Y-143913624D01*
X218326488Y-143883927D01*
X218351258Y-143879000D01*
X218528742Y-143879000D01*
X218553512Y-143883927D01*
G37*
G36*
X221093512Y-143883927D02*
G01*
X221242812Y-143913624D01*
X221406784Y-143981544D01*
X221554354Y-144080147D01*
X221679853Y-144205646D01*
X221778456Y-144353216D01*
X221846376Y-144517188D01*
X221881000Y-144691259D01*
X221881000Y-144868741D01*
X221846376Y-145042812D01*
X221778456Y-145206784D01*
X221679853Y-145354354D01*
X221554354Y-145479853D01*
X221406784Y-145578456D01*
X221242812Y-145646376D01*
X221093512Y-145676073D01*
X221068742Y-145681000D01*
X220891258Y-145681000D01*
X220866488Y-145676073D01*
X220717188Y-145646376D01*
X220553216Y-145578456D01*
X220405646Y-145479853D01*
X220280147Y-145354354D01*
X220181544Y-145206784D01*
X220113624Y-145042812D01*
X220079000Y-144868741D01*
X220079000Y-144691259D01*
X220113624Y-144517188D01*
X220181544Y-144353216D01*
X220280147Y-144205646D01*
X220405646Y-144080147D01*
X220553216Y-143981544D01*
X220717188Y-143913624D01*
X220866488Y-143883927D01*
X220891258Y-143879000D01*
X221068742Y-143879000D01*
X221093512Y-143883927D01*
G37*
G36*
X204667395Y-141325546D02*
G01*
X204840466Y-141397234D01*
X204840467Y-141397235D01*
X204996227Y-141501310D01*
X205128690Y-141633773D01*
X205128691Y-141633775D01*
X205232766Y-141789534D01*
X205304454Y-141962605D01*
X205341000Y-142146333D01*
X205341000Y-142333667D01*
X205304454Y-142517395D01*
X205232766Y-142690466D01*
X205232765Y-142690467D01*
X205128690Y-142846227D01*
X204996227Y-142978690D01*
X204917818Y-143031081D01*
X204840466Y-143082766D01*
X204667395Y-143154454D01*
X204483667Y-143191000D01*
X204296333Y-143191000D01*
X204112605Y-143154454D01*
X203939534Y-143082766D01*
X203862182Y-143031081D01*
X203783773Y-142978690D01*
X203651310Y-142846227D01*
X203547235Y-142690467D01*
X203547234Y-142690466D01*
X203475546Y-142517395D01*
X203439000Y-142333667D01*
X203439000Y-142146333D01*
X203475546Y-141962605D01*
X203547234Y-141789534D01*
X203651309Y-141633775D01*
X203651310Y-141633773D01*
X203783773Y-141501310D01*
X203939533Y-141397235D01*
X203939534Y-141397234D01*
X204112605Y-141325546D01*
X204296333Y-141289000D01*
X204483667Y-141289000D01*
X204667395Y-141325546D01*
G37*
G36*
X149541000Y-143191000D02*
G01*
X147639000Y-143191000D01*
X147639000Y-141289000D01*
X149541000Y-141289000D01*
X149541000Y-143191000D01*
G37*
G36*
X202167395Y-141325546D02*
G01*
X202340466Y-141397234D01*
X202340467Y-141397235D01*
X202496227Y-141501310D01*
X202628690Y-141633773D01*
X202628691Y-141633775D01*
X202732766Y-141789534D01*
X202804454Y-141962605D01*
X202841000Y-142146333D01*
X202841000Y-142333667D01*
X202804454Y-142517395D01*
X202732766Y-142690466D01*
X202732765Y-142690467D01*
X202628690Y-142846227D01*
X202496227Y-142978690D01*
X202417818Y-143031081D01*
X202340466Y-143082766D01*
X202167395Y-143154454D01*
X201983667Y-143191000D01*
X201796333Y-143191000D01*
X201612605Y-143154454D01*
X201439534Y-143082766D01*
X201362182Y-143031081D01*
X201283773Y-142978690D01*
X201151310Y-142846227D01*
X201047235Y-142690467D01*
X201047234Y-142690466D01*
X200975546Y-142517395D01*
X200939000Y-142333667D01*
X200939000Y-142146333D01*
X200975546Y-141962605D01*
X201047234Y-141789534D01*
X201151309Y-141633775D01*
X201151310Y-141633773D01*
X201283773Y-141501310D01*
X201439533Y-141397235D01*
X201439534Y-141397234D01*
X201612605Y-141325546D01*
X201796333Y-141289000D01*
X201983667Y-141289000D01*
X202167395Y-141325546D01*
G37*
G36*
X200341000Y-143191000D02*
G01*
X198439000Y-143191000D01*
X198439000Y-141289000D01*
X200341000Y-141289000D01*
X200341000Y-143191000D01*
G37*
G36*
X153867395Y-141325546D02*
G01*
X154040466Y-141397234D01*
X154040467Y-141397235D01*
X154196227Y-141501310D01*
X154328690Y-141633773D01*
X154328691Y-141633775D01*
X154432766Y-141789534D01*
X154504454Y-141962605D01*
X154541000Y-142146333D01*
X154541000Y-142333667D01*
X154504454Y-142517395D01*
X154432766Y-142690466D01*
X154432765Y-142690467D01*
X154328690Y-142846227D01*
X154196227Y-142978690D01*
X154117818Y-143031081D01*
X154040466Y-143082766D01*
X153867395Y-143154454D01*
X153683667Y-143191000D01*
X153496333Y-143191000D01*
X153312605Y-143154454D01*
X153139534Y-143082766D01*
X153062182Y-143031081D01*
X152983773Y-142978690D01*
X152851310Y-142846227D01*
X152747235Y-142690467D01*
X152747234Y-142690466D01*
X152675546Y-142517395D01*
X152639000Y-142333667D01*
X152639000Y-142146333D01*
X152675546Y-141962605D01*
X152747234Y-141789534D01*
X152851309Y-141633775D01*
X152851310Y-141633773D01*
X152983773Y-141501310D01*
X153139533Y-141397235D01*
X153139534Y-141397234D01*
X153312605Y-141325546D01*
X153496333Y-141289000D01*
X153683667Y-141289000D01*
X153867395Y-141325546D01*
G37*
G36*
X151367395Y-141325546D02*
G01*
X151540466Y-141397234D01*
X151540467Y-141397235D01*
X151696227Y-141501310D01*
X151828690Y-141633773D01*
X151828691Y-141633775D01*
X151932766Y-141789534D01*
X152004454Y-141962605D01*
X152041000Y-142146333D01*
X152041000Y-142333667D01*
X152004454Y-142517395D01*
X151932766Y-142690466D01*
X151932765Y-142690467D01*
X151828690Y-142846227D01*
X151696227Y-142978690D01*
X151617818Y-143031081D01*
X151540466Y-143082766D01*
X151367395Y-143154454D01*
X151183667Y-143191000D01*
X150996333Y-143191000D01*
X150812605Y-143154454D01*
X150639534Y-143082766D01*
X150562182Y-143031081D01*
X150483773Y-142978690D01*
X150351310Y-142846227D01*
X150247235Y-142690467D01*
X150247234Y-142690466D01*
X150175546Y-142517395D01*
X150139000Y-142333667D01*
X150139000Y-142146333D01*
X150175546Y-141962605D01*
X150247234Y-141789534D01*
X150351309Y-141633775D01*
X150351310Y-141633773D01*
X150483773Y-141501310D01*
X150639533Y-141397235D01*
X150639534Y-141397234D01*
X150812605Y-141325546D01*
X150996333Y-141289000D01*
X151183667Y-141289000D01*
X151367395Y-141325546D01*
G37*
G36*
X170428228Y-136341703D02*
G01*
X170583100Y-136405853D01*
X170722481Y-136498985D01*
X170841015Y-136617519D01*
X170934147Y-136756900D01*
X170998297Y-136911772D01*
X171031000Y-137076184D01*
X171031000Y-137243816D01*
X170998297Y-137408228D01*
X170934147Y-137563100D01*
X170841015Y-137702481D01*
X170722481Y-137821015D01*
X170583100Y-137914147D01*
X170428228Y-137978297D01*
X170263816Y-138011000D01*
X170096184Y-138011000D01*
X169931772Y-137978297D01*
X169776900Y-137914147D01*
X169637519Y-137821015D01*
X169518985Y-137702481D01*
X169425853Y-137563100D01*
X169361703Y-137408228D01*
X169329000Y-137243816D01*
X169329000Y-137076184D01*
X169361703Y-136911772D01*
X169425853Y-136756900D01*
X169518985Y-136617519D01*
X169637519Y-136498985D01*
X169776900Y-136405853D01*
X169931772Y-136341703D01*
X170096184Y-136309000D01*
X170263816Y-136309000D01*
X170428228Y-136341703D01*
G37*
G36*
X160268228Y-136341703D02*
G01*
X160423100Y-136405853D01*
X160562481Y-136498985D01*
X160681015Y-136617519D01*
X160774147Y-136756900D01*
X160838297Y-136911772D01*
X160871000Y-137076184D01*
X160871000Y-137243816D01*
X160838297Y-137408228D01*
X160774147Y-137563100D01*
X160681015Y-137702481D01*
X160562481Y-137821015D01*
X160423100Y-137914147D01*
X160268228Y-137978297D01*
X160103816Y-138011000D01*
X159936184Y-138011000D01*
X159771772Y-137978297D01*
X159616900Y-137914147D01*
X159477519Y-137821015D01*
X159358985Y-137702481D01*
X159265853Y-137563100D01*
X159201703Y-137408228D01*
X159169000Y-137243816D01*
X159169000Y-137076184D01*
X159201703Y-136911772D01*
X159265853Y-136756900D01*
X159358985Y-136617519D01*
X159477519Y-136498985D01*
X159616900Y-136405853D01*
X159771772Y-136341703D01*
X159936184Y-136309000D01*
X160103816Y-136309000D01*
X160268228Y-136341703D01*
G37*
G36*
X193288228Y-136341703D02*
G01*
X193443100Y-136405853D01*
X193582481Y-136498985D01*
X193701015Y-136617519D01*
X193794147Y-136756900D01*
X193858297Y-136911772D01*
X193891000Y-137076184D01*
X193891000Y-137243816D01*
X193858297Y-137408228D01*
X193794147Y-137563100D01*
X193701015Y-137702481D01*
X193582481Y-137821015D01*
X193443100Y-137914147D01*
X193288228Y-137978297D01*
X193123816Y-138011000D01*
X192956184Y-138011000D01*
X192791772Y-137978297D01*
X192636900Y-137914147D01*
X192497519Y-137821015D01*
X192378985Y-137702481D01*
X192285853Y-137563100D01*
X192221703Y-137408228D01*
X192189000Y-137243816D01*
X192189000Y-137076184D01*
X192221703Y-136911772D01*
X192285853Y-136756900D01*
X192378985Y-136617519D01*
X192497519Y-136498985D01*
X192636900Y-136405853D01*
X192791772Y-136341703D01*
X192956184Y-136309000D01*
X193123816Y-136309000D01*
X193288228Y-136341703D01*
G37*
G36*
X183128228Y-136341703D02*
G01*
X183283100Y-136405853D01*
X183422481Y-136498985D01*
X183541015Y-136617519D01*
X183634147Y-136756900D01*
X183698297Y-136911772D01*
X183731000Y-137076184D01*
X183731000Y-137243816D01*
X183698297Y-137408228D01*
X183634147Y-137563100D01*
X183541015Y-137702481D01*
X183422481Y-137821015D01*
X183283100Y-137914147D01*
X183128228Y-137978297D01*
X182963816Y-138011000D01*
X182796184Y-138011000D01*
X182631772Y-137978297D01*
X182476900Y-137914147D01*
X182337519Y-137821015D01*
X182218985Y-137702481D01*
X182125853Y-137563100D01*
X182061703Y-137408228D01*
X182029000Y-137243816D01*
X182029000Y-137076184D01*
X182061703Y-136911772D01*
X182125853Y-136756900D01*
X182218985Y-136617519D01*
X182337519Y-136498985D01*
X182476900Y-136405853D01*
X182631772Y-136341703D01*
X182796184Y-136309000D01*
X182963816Y-136309000D01*
X183128228Y-136341703D01*
G37*
G36*
X180588228Y-135071703D02*
G01*
X180743100Y-135135853D01*
X180882481Y-135228985D01*
X181001015Y-135347519D01*
X181094147Y-135486900D01*
X181158297Y-135641772D01*
X181191000Y-135806184D01*
X181191000Y-135973816D01*
X181158297Y-136138228D01*
X181094147Y-136293100D01*
X181001015Y-136432481D01*
X180882481Y-136551015D01*
X180743100Y-136644147D01*
X180588228Y-136708297D01*
X180423816Y-136741000D01*
X180256184Y-136741000D01*
X180091772Y-136708297D01*
X179936900Y-136644147D01*
X179797519Y-136551015D01*
X179678985Y-136432481D01*
X179585853Y-136293100D01*
X179521703Y-136138228D01*
X179489000Y-135973816D01*
X179489000Y-135806184D01*
X179521703Y-135641772D01*
X179585853Y-135486900D01*
X179678985Y-135347519D01*
X179797519Y-135228985D01*
X179936900Y-135135853D01*
X180091772Y-135071703D01*
X180256184Y-135039000D01*
X180423816Y-135039000D01*
X180588228Y-135071703D01*
G37*
G36*
X172968228Y-135071703D02*
G01*
X173123100Y-135135853D01*
X173262481Y-135228985D01*
X173381015Y-135347519D01*
X173474147Y-135486900D01*
X173538297Y-135641772D01*
X173571000Y-135806184D01*
X173571000Y-135973816D01*
X173538297Y-136138228D01*
X173474147Y-136293100D01*
X173381015Y-136432481D01*
X173262481Y-136551015D01*
X173123100Y-136644147D01*
X172968228Y-136708297D01*
X172803816Y-136741000D01*
X172636184Y-136741000D01*
X172471772Y-136708297D01*
X172316900Y-136644147D01*
X172177519Y-136551015D01*
X172058985Y-136432481D01*
X171965853Y-136293100D01*
X171901703Y-136138228D01*
X171869000Y-135973816D01*
X171869000Y-135806184D01*
X171901703Y-135641772D01*
X171965853Y-135486900D01*
X172058985Y-135347519D01*
X172177519Y-135228985D01*
X172316900Y-135135853D01*
X172471772Y-135071703D01*
X172636184Y-135039000D01*
X172803816Y-135039000D01*
X172968228Y-135071703D01*
G37*
G36*
X156166604Y-133089416D02*
G01*
X156432579Y-133170099D01*
X156432581Y-133170100D01*
X156677701Y-133301119D01*
X156892556Y-133477444D01*
X157068881Y-133692299D01*
X157199900Y-133937418D01*
X157199900Y-133937419D01*
X157199901Y-133937421D01*
X157280584Y-134203397D01*
X157301000Y-134410685D01*
X157301000Y-135069316D01*
X157280584Y-135276604D01*
X157216791Y-135486900D01*
X157199900Y-135542581D01*
X157068881Y-135787701D01*
X156892556Y-136002556D01*
X156677700Y-136178881D01*
X156434264Y-136309000D01*
X156432578Y-136309901D01*
X156166603Y-136390584D01*
X155890000Y-136417827D01*
X155613396Y-136390584D01*
X155347421Y-136309901D01*
X155345735Y-136309000D01*
X155102299Y-136178881D01*
X154887444Y-136002556D01*
X154711119Y-135787700D01*
X154580100Y-135542580D01*
X154580099Y-135542578D01*
X154499416Y-135276603D01*
X154479000Y-135069315D01*
X154479000Y-134410684D01*
X154499416Y-134203396D01*
X154580099Y-133937421D01*
X154604120Y-133892480D01*
X154711119Y-133692299D01*
X154887444Y-133477444D01*
X155102300Y-133301119D01*
X155347420Y-133170100D01*
X155347422Y-133170099D01*
X155613397Y-133089416D01*
X155890000Y-133062173D01*
X156166604Y-133089416D01*
G37*
G36*
X146566604Y-133089416D02*
G01*
X146832579Y-133170099D01*
X146832581Y-133170100D01*
X147077701Y-133301119D01*
X147292556Y-133477444D01*
X147468881Y-133692299D01*
X147599900Y-133937418D01*
X147599900Y-133937419D01*
X147599901Y-133937421D01*
X147680584Y-134203397D01*
X147701000Y-134410685D01*
X147701000Y-135069316D01*
X147680584Y-135276604D01*
X147616791Y-135486900D01*
X147599900Y-135542581D01*
X147468881Y-135787701D01*
X147292556Y-136002556D01*
X147077700Y-136178881D01*
X146834264Y-136309000D01*
X146832578Y-136309901D01*
X146566603Y-136390584D01*
X146290000Y-136417827D01*
X146013396Y-136390584D01*
X145747421Y-136309901D01*
X145745735Y-136309000D01*
X145502299Y-136178881D01*
X145287444Y-136002556D01*
X145111119Y-135787700D01*
X144980100Y-135542580D01*
X144980099Y-135542578D01*
X144899416Y-135276603D01*
X144879000Y-135069315D01*
X144879000Y-134410684D01*
X144899416Y-134203396D01*
X144980099Y-133937421D01*
X145004120Y-133892480D01*
X145111119Y-133692299D01*
X145287444Y-133477444D01*
X145502300Y-133301119D01*
X145747420Y-133170100D01*
X145747422Y-133170099D01*
X146013397Y-133089416D01*
X146290000Y-133062173D01*
X146566604Y-133089416D01*
G37*
G36*
X206966604Y-133089416D02*
G01*
X207232579Y-133170099D01*
X207232581Y-133170100D01*
X207477701Y-133301119D01*
X207692556Y-133477444D01*
X207868881Y-133692299D01*
X207999900Y-133937418D01*
X207999900Y-133937419D01*
X207999901Y-133937421D01*
X208080584Y-134203397D01*
X208101000Y-134410685D01*
X208101000Y-135069316D01*
X208080584Y-135276604D01*
X208016791Y-135486900D01*
X207999900Y-135542581D01*
X207868881Y-135787701D01*
X207692556Y-136002556D01*
X207477700Y-136178881D01*
X207234264Y-136309000D01*
X207232578Y-136309901D01*
X206966603Y-136390584D01*
X206690000Y-136417827D01*
X206413396Y-136390584D01*
X206147421Y-136309901D01*
X206145735Y-136309000D01*
X205902299Y-136178881D01*
X205687444Y-136002556D01*
X205511119Y-135787700D01*
X205380100Y-135542580D01*
X205380099Y-135542578D01*
X205299416Y-135276603D01*
X205279000Y-135069315D01*
X205279000Y-134410684D01*
X205299416Y-134203396D01*
X205380099Y-133937421D01*
X205404120Y-133892480D01*
X205511119Y-133692299D01*
X205687444Y-133477444D01*
X205902300Y-133301119D01*
X206147420Y-133170100D01*
X206147422Y-133170099D01*
X206413397Y-133089416D01*
X206690000Y-133062173D01*
X206966604Y-133089416D01*
G37*
G36*
X197366604Y-133089416D02*
G01*
X197632579Y-133170099D01*
X197632581Y-133170100D01*
X197877701Y-133301119D01*
X198092556Y-133477444D01*
X198268881Y-133692299D01*
X198399900Y-133937418D01*
X198399900Y-133937419D01*
X198399901Y-133937421D01*
X198480584Y-134203397D01*
X198501000Y-134410685D01*
X198501000Y-135069316D01*
X198480584Y-135276604D01*
X198416791Y-135486900D01*
X198399900Y-135542581D01*
X198268881Y-135787701D01*
X198092556Y-136002556D01*
X197877700Y-136178881D01*
X197634264Y-136309000D01*
X197632578Y-136309901D01*
X197366603Y-136390584D01*
X197090000Y-136417827D01*
X196813396Y-136390584D01*
X196547421Y-136309901D01*
X196545735Y-136309000D01*
X196302299Y-136178881D01*
X196087444Y-136002556D01*
X195911119Y-135787700D01*
X195780100Y-135542580D01*
X195780099Y-135542578D01*
X195699416Y-135276603D01*
X195679000Y-135069315D01*
X195679000Y-134410684D01*
X195699416Y-134203396D01*
X195780099Y-133937421D01*
X195804120Y-133892480D01*
X195911119Y-133692299D01*
X196087444Y-133477444D01*
X196302300Y-133301119D01*
X196547420Y-133170100D01*
X196547422Y-133170099D01*
X196813397Y-133089416D01*
X197090000Y-133062173D01*
X197366604Y-133089416D01*
G37*
G36*
X172968228Y-132531703D02*
G01*
X173123100Y-132595853D01*
X173262481Y-132688985D01*
X173381015Y-132807519D01*
X173474147Y-132946900D01*
X173538297Y-133101772D01*
X173571000Y-133266184D01*
X173571000Y-133433816D01*
X173538297Y-133598228D01*
X173474147Y-133753100D01*
X173381015Y-133892481D01*
X173262481Y-134011015D01*
X173123100Y-134104147D01*
X172968228Y-134168297D01*
X172803816Y-134201000D01*
X172636184Y-134201000D01*
X172471772Y-134168297D01*
X172316900Y-134104147D01*
X172177519Y-134011015D01*
X172058985Y-133892481D01*
X171965853Y-133753100D01*
X171901703Y-133598228D01*
X171869000Y-133433816D01*
X171869000Y-133266184D01*
X171901703Y-133101772D01*
X171965853Y-132946900D01*
X172058985Y-132807519D01*
X172177519Y-132688985D01*
X172316900Y-132595853D01*
X172471772Y-132531703D01*
X172636184Y-132499000D01*
X172803816Y-132499000D01*
X172968228Y-132531703D01*
G37*
G36*
X180588228Y-132531703D02*
G01*
X180743100Y-132595853D01*
X180882481Y-132688985D01*
X181001015Y-132807519D01*
X181094147Y-132946900D01*
X181158297Y-133101772D01*
X181191000Y-133266184D01*
X181191000Y-133433816D01*
X181158297Y-133598228D01*
X181094147Y-133753100D01*
X181001015Y-133892481D01*
X180882481Y-134011015D01*
X180743100Y-134104147D01*
X180588228Y-134168297D01*
X180423816Y-134201000D01*
X180256184Y-134201000D01*
X180091772Y-134168297D01*
X179936900Y-134104147D01*
X179797519Y-134011015D01*
X179678985Y-133892481D01*
X179585853Y-133753100D01*
X179521703Y-133598228D01*
X179489000Y-133433816D01*
X179489000Y-133266184D01*
X179521703Y-133101772D01*
X179585853Y-132946900D01*
X179678985Y-132807519D01*
X179797519Y-132688985D01*
X179936900Y-132595853D01*
X180091772Y-132531703D01*
X180256184Y-132499000D01*
X180423816Y-132499000D01*
X180588228Y-132531703D01*
G37*
G36*
X170428228Y-131261703D02*
G01*
X170583100Y-131325853D01*
X170722481Y-131418985D01*
X170841015Y-131537519D01*
X170934147Y-131676900D01*
X170998297Y-131831772D01*
X171031000Y-131996184D01*
X171031000Y-132163816D01*
X170998297Y-132328228D01*
X170934147Y-132483100D01*
X170841015Y-132622481D01*
X170722481Y-132741015D01*
X170583100Y-132834147D01*
X170428228Y-132898297D01*
X170263816Y-132931000D01*
X170096184Y-132931000D01*
X169931772Y-132898297D01*
X169776900Y-132834147D01*
X169637519Y-132741015D01*
X169518985Y-132622481D01*
X169425853Y-132483100D01*
X169361703Y-132328228D01*
X169329000Y-132163816D01*
X169329000Y-131996184D01*
X169361703Y-131831772D01*
X169425853Y-131676900D01*
X169518985Y-131537519D01*
X169637519Y-131418985D01*
X169776900Y-131325853D01*
X169931772Y-131261703D01*
X170096184Y-131229000D01*
X170263816Y-131229000D01*
X170428228Y-131261703D01*
G37*
G36*
X160268228Y-131261703D02*
G01*
X160423100Y-131325853D01*
X160562481Y-131418985D01*
X160681015Y-131537519D01*
X160774147Y-131676900D01*
X160838297Y-131831772D01*
X160871000Y-131996184D01*
X160871000Y-132163816D01*
X160838297Y-132328228D01*
X160774147Y-132483100D01*
X160681015Y-132622481D01*
X160562481Y-132741015D01*
X160423100Y-132834147D01*
X160268228Y-132898297D01*
X160103816Y-132931000D01*
X159936184Y-132931000D01*
X159771772Y-132898297D01*
X159616900Y-132834147D01*
X159477519Y-132741015D01*
X159358985Y-132622481D01*
X159265853Y-132483100D01*
X159201703Y-132328228D01*
X159169000Y-132163816D01*
X159169000Y-131996184D01*
X159201703Y-131831772D01*
X159265853Y-131676900D01*
X159358985Y-131537519D01*
X159477519Y-131418985D01*
X159616900Y-131325853D01*
X159771772Y-131261703D01*
X159936184Y-131229000D01*
X160103816Y-131229000D01*
X160268228Y-131261703D01*
G37*
G36*
X183128228Y-131261703D02*
G01*
X183283100Y-131325853D01*
X183422481Y-131418985D01*
X183541015Y-131537519D01*
X183634147Y-131676900D01*
X183698297Y-131831772D01*
X183731000Y-131996184D01*
X183731000Y-132163816D01*
X183698297Y-132328228D01*
X183634147Y-132483100D01*
X183541015Y-132622481D01*
X183422481Y-132741015D01*
X183283100Y-132834147D01*
X183128228Y-132898297D01*
X182963816Y-132931000D01*
X182796184Y-132931000D01*
X182631772Y-132898297D01*
X182476900Y-132834147D01*
X182337519Y-132741015D01*
X182218985Y-132622481D01*
X182125853Y-132483100D01*
X182061703Y-132328228D01*
X182029000Y-132163816D01*
X182029000Y-131996184D01*
X182061703Y-131831772D01*
X182125853Y-131676900D01*
X182218985Y-131537519D01*
X182337519Y-131418985D01*
X182476900Y-131325853D01*
X182631772Y-131261703D01*
X182796184Y-131229000D01*
X182963816Y-131229000D01*
X183128228Y-131261703D01*
G37*
G36*
X193288228Y-131261703D02*
G01*
X193443100Y-131325853D01*
X193582481Y-131418985D01*
X193701015Y-131537519D01*
X193794147Y-131676900D01*
X193858297Y-131831772D01*
X193891000Y-131996184D01*
X193891000Y-132163816D01*
X193858297Y-132328228D01*
X193794147Y-132483100D01*
X193701015Y-132622481D01*
X193582481Y-132741015D01*
X193443100Y-132834147D01*
X193288228Y-132898297D01*
X193123816Y-132931000D01*
X192956184Y-132931000D01*
X192791772Y-132898297D01*
X192636900Y-132834147D01*
X192497519Y-132741015D01*
X192378985Y-132622481D01*
X192285853Y-132483100D01*
X192221703Y-132328228D01*
X192189000Y-132163816D01*
X192189000Y-131996184D01*
X192221703Y-131831772D01*
X192285853Y-131676900D01*
X192378985Y-131537519D01*
X192497519Y-131418985D01*
X192636900Y-131325853D01*
X192791772Y-131261703D01*
X192956184Y-131229000D01*
X193123816Y-131229000D01*
X193288228Y-131261703D01*
G37*
G36*
X172968228Y-129991703D02*
G01*
X173123100Y-130055853D01*
X173262481Y-130148985D01*
X173381015Y-130267519D01*
X173474147Y-130406900D01*
X173538297Y-130561772D01*
X173571000Y-130726184D01*
X173571000Y-130893816D01*
X173538297Y-131058228D01*
X173474147Y-131213100D01*
X173381015Y-131352481D01*
X173262481Y-131471015D01*
X173123100Y-131564147D01*
X172968228Y-131628297D01*
X172803816Y-131661000D01*
X172636184Y-131661000D01*
X172471772Y-131628297D01*
X172316900Y-131564147D01*
X172177519Y-131471015D01*
X172058985Y-131352481D01*
X171965853Y-131213100D01*
X171901703Y-131058228D01*
X171869000Y-130893816D01*
X171869000Y-130726184D01*
X171901703Y-130561772D01*
X171965853Y-130406900D01*
X172058985Y-130267519D01*
X172177519Y-130148985D01*
X172316900Y-130055853D01*
X172471772Y-129991703D01*
X172636184Y-129959000D01*
X172803816Y-129959000D01*
X172968228Y-129991703D01*
G37*
G36*
X180588228Y-129991703D02*
G01*
X180743100Y-130055853D01*
X180882481Y-130148985D01*
X181001015Y-130267519D01*
X181094147Y-130406900D01*
X181158297Y-130561772D01*
X181191000Y-130726184D01*
X181191000Y-130893816D01*
X181158297Y-131058228D01*
X181094147Y-131213100D01*
X181001015Y-131352481D01*
X180882481Y-131471015D01*
X180743100Y-131564147D01*
X180588228Y-131628297D01*
X180423816Y-131661000D01*
X180256184Y-131661000D01*
X180091772Y-131628297D01*
X179936900Y-131564147D01*
X179797519Y-131471015D01*
X179678985Y-131352481D01*
X179585853Y-131213100D01*
X179521703Y-131058228D01*
X179489000Y-130893816D01*
X179489000Y-130726184D01*
X179521703Y-130561772D01*
X179585853Y-130406900D01*
X179678985Y-130267519D01*
X179797519Y-130148985D01*
X179936900Y-130055853D01*
X180091772Y-129991703D01*
X180256184Y-129959000D01*
X180423816Y-129959000D01*
X180588228Y-129991703D01*
G37*
G36*
X181191000Y-129121000D02*
G01*
X179489000Y-129121000D01*
X179489000Y-127419000D01*
X181191000Y-127419000D01*
X181191000Y-129121000D01*
G37*
G36*
X172968228Y-127451703D02*
G01*
X173123100Y-127515853D01*
X173262481Y-127608985D01*
X173381015Y-127727519D01*
X173474147Y-127866900D01*
X173538297Y-128021772D01*
X173571000Y-128186184D01*
X173571000Y-128353816D01*
X173538297Y-128518228D01*
X173474147Y-128673100D01*
X173381015Y-128812481D01*
X173262481Y-128931015D01*
X173123100Y-129024147D01*
X172968228Y-129088297D01*
X172803816Y-129121000D01*
X172636184Y-129121000D01*
X172471772Y-129088297D01*
X172316900Y-129024147D01*
X172177519Y-128931015D01*
X172058985Y-128812481D01*
X171965853Y-128673100D01*
X171901703Y-128518228D01*
X171869000Y-128353816D01*
X171869000Y-128186184D01*
X171901703Y-128021772D01*
X171965853Y-127866900D01*
X172058985Y-127727519D01*
X172177519Y-127608985D01*
X172316900Y-127515853D01*
X172471772Y-127451703D01*
X172636184Y-127419000D01*
X172803816Y-127419000D01*
X172968228Y-127451703D01*
G37*
G36*
X167808228Y-126181703D02*
G01*
X167963100Y-126245853D01*
X168102481Y-126338985D01*
X168221015Y-126457519D01*
X168314147Y-126596900D01*
X168378297Y-126751772D01*
X168411000Y-126916184D01*
X168411000Y-127083816D01*
X168378297Y-127248228D01*
X168314147Y-127403100D01*
X168221015Y-127542481D01*
X168102481Y-127661015D01*
X167963100Y-127754147D01*
X167808228Y-127818297D01*
X167643816Y-127851000D01*
X167476184Y-127851000D01*
X167311772Y-127818297D01*
X167156900Y-127754147D01*
X167017519Y-127661015D01*
X166898985Y-127542481D01*
X166805853Y-127403100D01*
X166741703Y-127248228D01*
X166709000Y-127083816D01*
X166709000Y-126916184D01*
X166741703Y-126751772D01*
X166805853Y-126596900D01*
X166898985Y-126457519D01*
X167017519Y-126338985D01*
X167156900Y-126245853D01*
X167311772Y-126181703D01*
X167476184Y-126149000D01*
X167643816Y-126149000D01*
X167808228Y-126181703D01*
G37*
G36*
X162808228Y-126181703D02*
G01*
X162963100Y-126245853D01*
X163102481Y-126338985D01*
X163221015Y-126457519D01*
X163314147Y-126596900D01*
X163378297Y-126751772D01*
X163411000Y-126916184D01*
X163411000Y-127083816D01*
X163378297Y-127248228D01*
X163314147Y-127403100D01*
X163221015Y-127542481D01*
X163102481Y-127661015D01*
X162963100Y-127754147D01*
X162808228Y-127818297D01*
X162643816Y-127851000D01*
X162476184Y-127851000D01*
X162311772Y-127818297D01*
X162156900Y-127754147D01*
X162017519Y-127661015D01*
X161898985Y-127542481D01*
X161805853Y-127403100D01*
X161741703Y-127248228D01*
X161709000Y-127083816D01*
X161709000Y-126916184D01*
X161741703Y-126751772D01*
X161805853Y-126596900D01*
X161898985Y-126457519D01*
X162017519Y-126338985D01*
X162156900Y-126245853D01*
X162311772Y-126181703D01*
X162476184Y-126149000D01*
X162643816Y-126149000D01*
X162808228Y-126181703D01*
G37*
G36*
X190748228Y-126181703D02*
G01*
X190903100Y-126245853D01*
X191042481Y-126338985D01*
X191161015Y-126457519D01*
X191254147Y-126596900D01*
X191318297Y-126751772D01*
X191351000Y-126916184D01*
X191351000Y-127083816D01*
X191318297Y-127248228D01*
X191254147Y-127403100D01*
X191161015Y-127542481D01*
X191042481Y-127661015D01*
X190903100Y-127754147D01*
X190748228Y-127818297D01*
X190583816Y-127851000D01*
X190416184Y-127851000D01*
X190251772Y-127818297D01*
X190096900Y-127754147D01*
X189957519Y-127661015D01*
X189838985Y-127542481D01*
X189745853Y-127403100D01*
X189681703Y-127248228D01*
X189649000Y-127083816D01*
X189649000Y-126916184D01*
X189681703Y-126751772D01*
X189745853Y-126596900D01*
X189838985Y-126457519D01*
X189957519Y-126338985D01*
X190096900Y-126245853D01*
X190251772Y-126181703D01*
X190416184Y-126149000D01*
X190583816Y-126149000D01*
X190748228Y-126181703D01*
G37*
G36*
X185748228Y-126181703D02*
G01*
X185903100Y-126245853D01*
X186042481Y-126338985D01*
X186161015Y-126457519D01*
X186254147Y-126596900D01*
X186318297Y-126751772D01*
X186351000Y-126916184D01*
X186351000Y-127083816D01*
X186318297Y-127248228D01*
X186254147Y-127403100D01*
X186161015Y-127542481D01*
X186042481Y-127661015D01*
X185903100Y-127754147D01*
X185748228Y-127818297D01*
X185583816Y-127851000D01*
X185416184Y-127851000D01*
X185251772Y-127818297D01*
X185096900Y-127754147D01*
X184957519Y-127661015D01*
X184838985Y-127542481D01*
X184745853Y-127403100D01*
X184681703Y-127248228D01*
X184649000Y-127083816D01*
X184649000Y-126916184D01*
X184681703Y-126751772D01*
X184745853Y-126596900D01*
X184838985Y-126457519D01*
X184957519Y-126338985D01*
X185096900Y-126245853D01*
X185251772Y-126181703D01*
X185416184Y-126149000D01*
X185583816Y-126149000D01*
X185748228Y-126181703D01*
G37*
G36*
X180588228Y-122371703D02*
G01*
X180743100Y-122435853D01*
X180882481Y-122528985D01*
X181001015Y-122647519D01*
X181094147Y-122786900D01*
X181158297Y-122941772D01*
X181191000Y-123106184D01*
X181191000Y-123273816D01*
X181158297Y-123438228D01*
X181094147Y-123593100D01*
X181001015Y-123732481D01*
X180882481Y-123851015D01*
X180743100Y-123944147D01*
X180588228Y-124008297D01*
X180423816Y-124041000D01*
X180256184Y-124041000D01*
X180091772Y-124008297D01*
X179936900Y-123944147D01*
X179797519Y-123851015D01*
X179678985Y-123732481D01*
X179585853Y-123593100D01*
X179521703Y-123438228D01*
X179489000Y-123273816D01*
X179489000Y-123106184D01*
X179521703Y-122941772D01*
X179585853Y-122786900D01*
X179678985Y-122647519D01*
X179797519Y-122528985D01*
X179936900Y-122435853D01*
X180091772Y-122371703D01*
X180256184Y-122339000D01*
X180423816Y-122339000D01*
X180588228Y-122371703D01*
G37*
G36*
X172968228Y-122371703D02*
G01*
X173123100Y-122435853D01*
X173262481Y-122528985D01*
X173381015Y-122647519D01*
X173474147Y-122786900D01*
X173538297Y-122941772D01*
X173571000Y-123106184D01*
X173571000Y-123273816D01*
X173538297Y-123438228D01*
X173474147Y-123593100D01*
X173381015Y-123732481D01*
X173262481Y-123851015D01*
X173123100Y-123944147D01*
X172968228Y-124008297D01*
X172803816Y-124041000D01*
X172636184Y-124041000D01*
X172471772Y-124008297D01*
X172316900Y-123944147D01*
X172177519Y-123851015D01*
X172058985Y-123732481D01*
X171965853Y-123593100D01*
X171901703Y-123438228D01*
X171869000Y-123273816D01*
X171869000Y-123106184D01*
X171901703Y-122941772D01*
X171965853Y-122786900D01*
X172058985Y-122647519D01*
X172177519Y-122528985D01*
X172316900Y-122435853D01*
X172471772Y-122371703D01*
X172636184Y-122339000D01*
X172803816Y-122339000D01*
X172968228Y-122371703D01*
G37*
G36*
X145028228Y-121101703D02*
G01*
X145183100Y-121165853D01*
X145322481Y-121258985D01*
X145441015Y-121377519D01*
X145534147Y-121516900D01*
X145598297Y-121671772D01*
X145631000Y-121836184D01*
X145631000Y-122003816D01*
X145598297Y-122168228D01*
X145534147Y-122323100D01*
X145441015Y-122462481D01*
X145322481Y-122581015D01*
X145183100Y-122674147D01*
X145028228Y-122738297D01*
X144863816Y-122771000D01*
X144696184Y-122771000D01*
X144531772Y-122738297D01*
X144376900Y-122674147D01*
X144237519Y-122581015D01*
X144118985Y-122462481D01*
X144025853Y-122323100D01*
X143961703Y-122168228D01*
X143929000Y-122003816D01*
X143929000Y-121836184D01*
X143961703Y-121671772D01*
X144025853Y-121516900D01*
X144118985Y-121377519D01*
X144237519Y-121258985D01*
X144376900Y-121165853D01*
X144531772Y-121101703D01*
X144696184Y-121069000D01*
X144863816Y-121069000D01*
X145028228Y-121101703D01*
G37*
G36*
X155188228Y-121101703D02*
G01*
X155343100Y-121165853D01*
X155482481Y-121258985D01*
X155601015Y-121377519D01*
X155694147Y-121516900D01*
X155758297Y-121671772D01*
X155791000Y-121836184D01*
X155791000Y-122003816D01*
X155758297Y-122168228D01*
X155694147Y-122323100D01*
X155601015Y-122462481D01*
X155482481Y-122581015D01*
X155343100Y-122674147D01*
X155188228Y-122738297D01*
X155023816Y-122771000D01*
X154856184Y-122771000D01*
X154691772Y-122738297D01*
X154536900Y-122674147D01*
X154397519Y-122581015D01*
X154278985Y-122462481D01*
X154185853Y-122323100D01*
X154121703Y-122168228D01*
X154089000Y-122003816D01*
X154089000Y-121836184D01*
X154121703Y-121671772D01*
X154185853Y-121516900D01*
X154278985Y-121377519D01*
X154397519Y-121258985D01*
X154536900Y-121165853D01*
X154691772Y-121101703D01*
X154856184Y-121069000D01*
X155023816Y-121069000D01*
X155188228Y-121101703D01*
G37*
G36*
X208528228Y-121101703D02*
G01*
X208683100Y-121165853D01*
X208822481Y-121258985D01*
X208941015Y-121377519D01*
X209034147Y-121516900D01*
X209098297Y-121671772D01*
X209131000Y-121836184D01*
X209131000Y-122003816D01*
X209098297Y-122168228D01*
X209034147Y-122323100D01*
X208941015Y-122462481D01*
X208822481Y-122581015D01*
X208683100Y-122674147D01*
X208528228Y-122738297D01*
X208363816Y-122771000D01*
X208196184Y-122771000D01*
X208031772Y-122738297D01*
X207876900Y-122674147D01*
X207737519Y-122581015D01*
X207618985Y-122462481D01*
X207525853Y-122323100D01*
X207461703Y-122168228D01*
X207429000Y-122003816D01*
X207429000Y-121836184D01*
X207461703Y-121671772D01*
X207525853Y-121516900D01*
X207618985Y-121377519D01*
X207737519Y-121258985D01*
X207876900Y-121165853D01*
X208031772Y-121101703D01*
X208196184Y-121069000D01*
X208363816Y-121069000D01*
X208528228Y-121101703D01*
G37*
G36*
X198368228Y-121101703D02*
G01*
X198523100Y-121165853D01*
X198662481Y-121258985D01*
X198781015Y-121377519D01*
X198874147Y-121516900D01*
X198938297Y-121671772D01*
X198971000Y-121836184D01*
X198971000Y-122003816D01*
X198938297Y-122168228D01*
X198874147Y-122323100D01*
X198781015Y-122462481D01*
X198662481Y-122581015D01*
X198523100Y-122674147D01*
X198368228Y-122738297D01*
X198203816Y-122771000D01*
X198036184Y-122771000D01*
X197871772Y-122738297D01*
X197716900Y-122674147D01*
X197577519Y-122581015D01*
X197458985Y-122462481D01*
X197365853Y-122323100D01*
X197301703Y-122168228D01*
X197269000Y-122003816D01*
X197269000Y-121836184D01*
X197301703Y-121671772D01*
X197365853Y-121516900D01*
X197458985Y-121377519D01*
X197577519Y-121258985D01*
X197716900Y-121165853D01*
X197871772Y-121101703D01*
X198036184Y-121069000D01*
X198203816Y-121069000D01*
X198368228Y-121101703D01*
G37*
G36*
X190748228Y-119831703D02*
G01*
X190903100Y-119895853D01*
X191042481Y-119988985D01*
X191161015Y-120107519D01*
X191254147Y-120246900D01*
X191318297Y-120401772D01*
X191351000Y-120566184D01*
X191351000Y-120733816D01*
X191318297Y-120898228D01*
X191254147Y-121053100D01*
X191161015Y-121192481D01*
X191042481Y-121311015D01*
X190903100Y-121404147D01*
X190748228Y-121468297D01*
X190583816Y-121501000D01*
X190416184Y-121501000D01*
X190251772Y-121468297D01*
X190096900Y-121404147D01*
X189957519Y-121311015D01*
X189838985Y-121192481D01*
X189745853Y-121053100D01*
X189681703Y-120898228D01*
X189649000Y-120733816D01*
X189649000Y-120566184D01*
X189681703Y-120401772D01*
X189745853Y-120246900D01*
X189838985Y-120107519D01*
X189957519Y-119988985D01*
X190096900Y-119895853D01*
X190251772Y-119831703D01*
X190416184Y-119799000D01*
X190583816Y-119799000D01*
X190748228Y-119831703D01*
G37*
G36*
X185748228Y-119831703D02*
G01*
X185903100Y-119895853D01*
X186042481Y-119988985D01*
X186161015Y-120107519D01*
X186254147Y-120246900D01*
X186318297Y-120401772D01*
X186351000Y-120566184D01*
X186351000Y-120733816D01*
X186318297Y-120898228D01*
X186254147Y-121053100D01*
X186161015Y-121192481D01*
X186042481Y-121311015D01*
X185903100Y-121404147D01*
X185748228Y-121468297D01*
X185583816Y-121501000D01*
X185416184Y-121501000D01*
X185251772Y-121468297D01*
X185096900Y-121404147D01*
X184957519Y-121311015D01*
X184838985Y-121192481D01*
X184745853Y-121053100D01*
X184681703Y-120898228D01*
X184649000Y-120733816D01*
X184649000Y-120566184D01*
X184681703Y-120401772D01*
X184745853Y-120246900D01*
X184838985Y-120107519D01*
X184957519Y-119988985D01*
X185096900Y-119895853D01*
X185251772Y-119831703D01*
X185416184Y-119799000D01*
X185583816Y-119799000D01*
X185748228Y-119831703D01*
G37*
G36*
X180588228Y-119831703D02*
G01*
X180743100Y-119895853D01*
X180882481Y-119988985D01*
X181001015Y-120107519D01*
X181094147Y-120246900D01*
X181158297Y-120401772D01*
X181191000Y-120566184D01*
X181191000Y-120733816D01*
X181158297Y-120898228D01*
X181094147Y-121053100D01*
X181001015Y-121192481D01*
X180882481Y-121311015D01*
X180743100Y-121404147D01*
X180588228Y-121468297D01*
X180423816Y-121501000D01*
X180256184Y-121501000D01*
X180091772Y-121468297D01*
X179936900Y-121404147D01*
X179797519Y-121311015D01*
X179678985Y-121192481D01*
X179585853Y-121053100D01*
X179521703Y-120898228D01*
X179489000Y-120733816D01*
X179489000Y-120566184D01*
X179521703Y-120401772D01*
X179585853Y-120246900D01*
X179678985Y-120107519D01*
X179797519Y-119988985D01*
X179936900Y-119895853D01*
X180091772Y-119831703D01*
X180256184Y-119799000D01*
X180423816Y-119799000D01*
X180588228Y-119831703D01*
G37*
G36*
X172968228Y-119831703D02*
G01*
X173123100Y-119895853D01*
X173262481Y-119988985D01*
X173381015Y-120107519D01*
X173474147Y-120246900D01*
X173538297Y-120401772D01*
X173571000Y-120566184D01*
X173571000Y-120733816D01*
X173538297Y-120898228D01*
X173474147Y-121053100D01*
X173381015Y-121192481D01*
X173262481Y-121311015D01*
X173123100Y-121404147D01*
X172968228Y-121468297D01*
X172803816Y-121501000D01*
X172636184Y-121501000D01*
X172471772Y-121468297D01*
X172316900Y-121404147D01*
X172177519Y-121311015D01*
X172058985Y-121192481D01*
X171965853Y-121053100D01*
X171901703Y-120898228D01*
X171869000Y-120733816D01*
X171869000Y-120566184D01*
X171901703Y-120401772D01*
X171965853Y-120246900D01*
X172058985Y-120107519D01*
X172177519Y-119988985D01*
X172316900Y-119895853D01*
X172471772Y-119831703D01*
X172636184Y-119799000D01*
X172803816Y-119799000D01*
X172968228Y-119831703D01*
G37*
G36*
X167808228Y-119831703D02*
G01*
X167963100Y-119895853D01*
X168102481Y-119988985D01*
X168221015Y-120107519D01*
X168314147Y-120246900D01*
X168378297Y-120401772D01*
X168411000Y-120566184D01*
X168411000Y-120733816D01*
X168378297Y-120898228D01*
X168314147Y-121053100D01*
X168221015Y-121192481D01*
X168102481Y-121311015D01*
X167963100Y-121404147D01*
X167808228Y-121468297D01*
X167643816Y-121501000D01*
X167476184Y-121501000D01*
X167311772Y-121468297D01*
X167156900Y-121404147D01*
X167017519Y-121311015D01*
X166898985Y-121192481D01*
X166805853Y-121053100D01*
X166741703Y-120898228D01*
X166709000Y-120733816D01*
X166709000Y-120566184D01*
X166741703Y-120401772D01*
X166805853Y-120246900D01*
X166898985Y-120107519D01*
X167017519Y-119988985D01*
X167156900Y-119895853D01*
X167311772Y-119831703D01*
X167476184Y-119799000D01*
X167643816Y-119799000D01*
X167808228Y-119831703D01*
G37*
G36*
X162808228Y-119831703D02*
G01*
X162963100Y-119895853D01*
X163102481Y-119988985D01*
X163221015Y-120107519D01*
X163314147Y-120246900D01*
X163378297Y-120401772D01*
X163411000Y-120566184D01*
X163411000Y-120733816D01*
X163378297Y-120898228D01*
X163314147Y-121053100D01*
X163221015Y-121192481D01*
X163102481Y-121311015D01*
X162963100Y-121404147D01*
X162808228Y-121468297D01*
X162643816Y-121501000D01*
X162476184Y-121501000D01*
X162311772Y-121468297D01*
X162156900Y-121404147D01*
X162017519Y-121311015D01*
X161898985Y-121192481D01*
X161805853Y-121053100D01*
X161741703Y-120898228D01*
X161709000Y-120733816D01*
X161709000Y-120566184D01*
X161741703Y-120401772D01*
X161805853Y-120246900D01*
X161898985Y-120107519D01*
X162017519Y-119988985D01*
X162156900Y-119895853D01*
X162311772Y-119831703D01*
X162476184Y-119799000D01*
X162643816Y-119799000D01*
X162808228Y-119831703D01*
G37*
G36*
X172968228Y-117291703D02*
G01*
X173123100Y-117355853D01*
X173262481Y-117448985D01*
X173381015Y-117567519D01*
X173474147Y-117706900D01*
X173538297Y-117861772D01*
X173571000Y-118026184D01*
X173571000Y-118193816D01*
X173538297Y-118358228D01*
X173474147Y-118513100D01*
X173381015Y-118652481D01*
X173262481Y-118771015D01*
X173123100Y-118864147D01*
X172968228Y-118928297D01*
X172803816Y-118961000D01*
X172636184Y-118961000D01*
X172471772Y-118928297D01*
X172316900Y-118864147D01*
X172177519Y-118771015D01*
X172058985Y-118652481D01*
X171965853Y-118513100D01*
X171901703Y-118358228D01*
X171869000Y-118193816D01*
X171869000Y-118026184D01*
X171901703Y-117861772D01*
X171965853Y-117706900D01*
X172058985Y-117567519D01*
X172177519Y-117448985D01*
X172316900Y-117355853D01*
X172471772Y-117291703D01*
X172636184Y-117259000D01*
X172803816Y-117259000D01*
X172968228Y-117291703D01*
G37*
G36*
X180588228Y-117291703D02*
G01*
X180743100Y-117355853D01*
X180882481Y-117448985D01*
X181001015Y-117567519D01*
X181094147Y-117706900D01*
X181158297Y-117861772D01*
X181191000Y-118026184D01*
X181191000Y-118193816D01*
X181158297Y-118358228D01*
X181094147Y-118513100D01*
X181001015Y-118652481D01*
X180882481Y-118771015D01*
X180743100Y-118864147D01*
X180588228Y-118928297D01*
X180423816Y-118961000D01*
X180256184Y-118961000D01*
X180091772Y-118928297D01*
X179936900Y-118864147D01*
X179797519Y-118771015D01*
X179678985Y-118652481D01*
X179585853Y-118513100D01*
X179521703Y-118358228D01*
X179489000Y-118193816D01*
X179489000Y-118026184D01*
X179521703Y-117861772D01*
X179585853Y-117706900D01*
X179678985Y-117567519D01*
X179797519Y-117448985D01*
X179936900Y-117355853D01*
X180091772Y-117291703D01*
X180256184Y-117259000D01*
X180423816Y-117259000D01*
X180588228Y-117291703D01*
G37*
G36*
X198368228Y-116021703D02*
G01*
X198523100Y-116085853D01*
X198662481Y-116178985D01*
X198781015Y-116297519D01*
X198874147Y-116436900D01*
X198938297Y-116591772D01*
X198971000Y-116756184D01*
X198971000Y-116923816D01*
X198938297Y-117088228D01*
X198874147Y-117243100D01*
X198781015Y-117382481D01*
X198662481Y-117501015D01*
X198523100Y-117594147D01*
X198368228Y-117658297D01*
X198203816Y-117691000D01*
X198036184Y-117691000D01*
X197871772Y-117658297D01*
X197716900Y-117594147D01*
X197577519Y-117501015D01*
X197458985Y-117382481D01*
X197365853Y-117243100D01*
X197301703Y-117088228D01*
X197269000Y-116923816D01*
X197269000Y-116756184D01*
X197301703Y-116591772D01*
X197365853Y-116436900D01*
X197458985Y-116297519D01*
X197577519Y-116178985D01*
X197716900Y-116085853D01*
X197871772Y-116021703D01*
X198036184Y-115989000D01*
X198203816Y-115989000D01*
X198368228Y-116021703D01*
G37*
G36*
X145028228Y-116021703D02*
G01*
X145183100Y-116085853D01*
X145322481Y-116178985D01*
X145441015Y-116297519D01*
X145534147Y-116436900D01*
X145598297Y-116591772D01*
X145631000Y-116756184D01*
X145631000Y-116923816D01*
X145598297Y-117088228D01*
X145534147Y-117243100D01*
X145441015Y-117382481D01*
X145322481Y-117501015D01*
X145183100Y-117594147D01*
X145028228Y-117658297D01*
X144863816Y-117691000D01*
X144696184Y-117691000D01*
X144531772Y-117658297D01*
X144376900Y-117594147D01*
X144237519Y-117501015D01*
X144118985Y-117382481D01*
X144025853Y-117243100D01*
X143961703Y-117088228D01*
X143929000Y-116923816D01*
X143929000Y-116756184D01*
X143961703Y-116591772D01*
X144025853Y-116436900D01*
X144118985Y-116297519D01*
X144237519Y-116178985D01*
X144376900Y-116085853D01*
X144531772Y-116021703D01*
X144696184Y-115989000D01*
X144863816Y-115989000D01*
X145028228Y-116021703D01*
G37*
G36*
X155188228Y-116021703D02*
G01*
X155343100Y-116085853D01*
X155482481Y-116178985D01*
X155601015Y-116297519D01*
X155694147Y-116436900D01*
X155758297Y-116591772D01*
X155791000Y-116756184D01*
X155791000Y-116923816D01*
X155758297Y-117088228D01*
X155694147Y-117243100D01*
X155601015Y-117382481D01*
X155482481Y-117501015D01*
X155343100Y-117594147D01*
X155188228Y-117658297D01*
X155023816Y-117691000D01*
X154856184Y-117691000D01*
X154691772Y-117658297D01*
X154536900Y-117594147D01*
X154397519Y-117501015D01*
X154278985Y-117382481D01*
X154185853Y-117243100D01*
X154121703Y-117088228D01*
X154089000Y-116923816D01*
X154089000Y-116756184D01*
X154121703Y-116591772D01*
X154185853Y-116436900D01*
X154278985Y-116297519D01*
X154397519Y-116178985D01*
X154536900Y-116085853D01*
X154691772Y-116021703D01*
X154856184Y-115989000D01*
X155023816Y-115989000D01*
X155188228Y-116021703D01*
G37*
G36*
X208528228Y-116021703D02*
G01*
X208683100Y-116085853D01*
X208822481Y-116178985D01*
X208941015Y-116297519D01*
X209034147Y-116436900D01*
X209098297Y-116591772D01*
X209131000Y-116756184D01*
X209131000Y-116923816D01*
X209098297Y-117088228D01*
X209034147Y-117243100D01*
X208941015Y-117382481D01*
X208822481Y-117501015D01*
X208683100Y-117594147D01*
X208528228Y-117658297D01*
X208363816Y-117691000D01*
X208196184Y-117691000D01*
X208031772Y-117658297D01*
X207876900Y-117594147D01*
X207737519Y-117501015D01*
X207618985Y-117382481D01*
X207525853Y-117243100D01*
X207461703Y-117088228D01*
X207429000Y-116923816D01*
X207429000Y-116756184D01*
X207461703Y-116591772D01*
X207525853Y-116436900D01*
X207618985Y-116297519D01*
X207737519Y-116178985D01*
X207876900Y-116085853D01*
X208031772Y-116021703D01*
X208196184Y-115989000D01*
X208363816Y-115989000D01*
X208528228Y-116021703D01*
G37*
G36*
X172968228Y-114751703D02*
G01*
X173123100Y-114815853D01*
X173262481Y-114908985D01*
X173381015Y-115027519D01*
X173474147Y-115166900D01*
X173538297Y-115321772D01*
X173571000Y-115486184D01*
X173571000Y-115653816D01*
X173538297Y-115818228D01*
X173474147Y-115973100D01*
X173381015Y-116112481D01*
X173262481Y-116231015D01*
X173123100Y-116324147D01*
X172968228Y-116388297D01*
X172803816Y-116421000D01*
X172636184Y-116421000D01*
X172471772Y-116388297D01*
X172316900Y-116324147D01*
X172177519Y-116231015D01*
X172058985Y-116112481D01*
X171965853Y-115973100D01*
X171901703Y-115818228D01*
X171869000Y-115653816D01*
X171869000Y-115486184D01*
X171901703Y-115321772D01*
X171965853Y-115166900D01*
X172058985Y-115027519D01*
X172177519Y-114908985D01*
X172316900Y-114815853D01*
X172471772Y-114751703D01*
X172636184Y-114719000D01*
X172803816Y-114719000D01*
X172968228Y-114751703D01*
G37*
G36*
X181191000Y-116421000D02*
G01*
X179489000Y-116421000D01*
X179489000Y-114719000D01*
X181191000Y-114719000D01*
X181191000Y-116421000D01*
G37*
G36*
X162808228Y-114751703D02*
G01*
X162963100Y-114815853D01*
X163102481Y-114908985D01*
X163221015Y-115027519D01*
X163314147Y-115166900D01*
X163378297Y-115321772D01*
X163411000Y-115486184D01*
X163411000Y-115653816D01*
X163378297Y-115818228D01*
X163314147Y-115973100D01*
X163221015Y-116112481D01*
X163102481Y-116231015D01*
X162963100Y-116324147D01*
X162808228Y-116388297D01*
X162643816Y-116421000D01*
X162476184Y-116421000D01*
X162311772Y-116388297D01*
X162156900Y-116324147D01*
X162017519Y-116231015D01*
X161898985Y-116112481D01*
X161805853Y-115973100D01*
X161741703Y-115818228D01*
X161709000Y-115653816D01*
X161709000Y-115486184D01*
X161741703Y-115321772D01*
X161805853Y-115166900D01*
X161898985Y-115027519D01*
X162017519Y-114908985D01*
X162156900Y-114815853D01*
X162311772Y-114751703D01*
X162476184Y-114719000D01*
X162643816Y-114719000D01*
X162808228Y-114751703D01*
G37*
G36*
X167808228Y-114751703D02*
G01*
X167963100Y-114815853D01*
X168102481Y-114908985D01*
X168221015Y-115027519D01*
X168314147Y-115166900D01*
X168378297Y-115321772D01*
X168411000Y-115486184D01*
X168411000Y-115653816D01*
X168378297Y-115818228D01*
X168314147Y-115973100D01*
X168221015Y-116112481D01*
X168102481Y-116231015D01*
X167963100Y-116324147D01*
X167808228Y-116388297D01*
X167643816Y-116421000D01*
X167476184Y-116421000D01*
X167311772Y-116388297D01*
X167156900Y-116324147D01*
X167017519Y-116231015D01*
X166898985Y-116112481D01*
X166805853Y-115973100D01*
X166741703Y-115818228D01*
X166709000Y-115653816D01*
X166709000Y-115486184D01*
X166741703Y-115321772D01*
X166805853Y-115166900D01*
X166898985Y-115027519D01*
X167017519Y-114908985D01*
X167156900Y-114815853D01*
X167311772Y-114751703D01*
X167476184Y-114719000D01*
X167643816Y-114719000D01*
X167808228Y-114751703D01*
G37*
G36*
X185748228Y-114751703D02*
G01*
X185903100Y-114815853D01*
X186042481Y-114908985D01*
X186161015Y-115027519D01*
X186254147Y-115166900D01*
X186318297Y-115321772D01*
X186351000Y-115486184D01*
X186351000Y-115653816D01*
X186318297Y-115818228D01*
X186254147Y-115973100D01*
X186161015Y-116112481D01*
X186042481Y-116231015D01*
X185903100Y-116324147D01*
X185748228Y-116388297D01*
X185583816Y-116421000D01*
X185416184Y-116421000D01*
X185251772Y-116388297D01*
X185096900Y-116324147D01*
X184957519Y-116231015D01*
X184838985Y-116112481D01*
X184745853Y-115973100D01*
X184681703Y-115818228D01*
X184649000Y-115653816D01*
X184649000Y-115486184D01*
X184681703Y-115321772D01*
X184745853Y-115166900D01*
X184838985Y-115027519D01*
X184957519Y-114908985D01*
X185096900Y-114815853D01*
X185251772Y-114751703D01*
X185416184Y-114719000D01*
X185583816Y-114719000D01*
X185748228Y-114751703D01*
G37*
G36*
X190748228Y-114751703D02*
G01*
X190903100Y-114815853D01*
X191042481Y-114908985D01*
X191161015Y-115027519D01*
X191254147Y-115166900D01*
X191318297Y-115321772D01*
X191351000Y-115486184D01*
X191351000Y-115653816D01*
X191318297Y-115818228D01*
X191254147Y-115973100D01*
X191161015Y-116112481D01*
X191042481Y-116231015D01*
X190903100Y-116324147D01*
X190748228Y-116388297D01*
X190583816Y-116421000D01*
X190416184Y-116421000D01*
X190251772Y-116388297D01*
X190096900Y-116324147D01*
X189957519Y-116231015D01*
X189838985Y-116112481D01*
X189745853Y-115973100D01*
X189681703Y-115818228D01*
X189649000Y-115653816D01*
X189649000Y-115486184D01*
X189681703Y-115321772D01*
X189745853Y-115166900D01*
X189838985Y-115027519D01*
X189957519Y-114908985D01*
X190096900Y-114815853D01*
X190251772Y-114751703D01*
X190416184Y-114719000D01*
X190583816Y-114719000D01*
X190748228Y-114751703D01*
G37*
G36*
X198368228Y-110941703D02*
G01*
X198523100Y-111005853D01*
X198662481Y-111098985D01*
X198781015Y-111217519D01*
X198874147Y-111356900D01*
X198938297Y-111511772D01*
X198971000Y-111676184D01*
X198971000Y-111843816D01*
X198938297Y-112008228D01*
X198874147Y-112163100D01*
X198781015Y-112302481D01*
X198662481Y-112421015D01*
X198523100Y-112514147D01*
X198368228Y-112578297D01*
X198203816Y-112611000D01*
X198036184Y-112611000D01*
X197871772Y-112578297D01*
X197716900Y-112514147D01*
X197577519Y-112421015D01*
X197458985Y-112302481D01*
X197365853Y-112163100D01*
X197301703Y-112008228D01*
X197269000Y-111843816D01*
X197269000Y-111676184D01*
X197301703Y-111511772D01*
X197365853Y-111356900D01*
X197458985Y-111217519D01*
X197577519Y-111098985D01*
X197716900Y-111005853D01*
X197871772Y-110941703D01*
X198036184Y-110909000D01*
X198203816Y-110909000D01*
X198368228Y-110941703D01*
G37*
G36*
X208528228Y-110941703D02*
G01*
X208683100Y-111005853D01*
X208822481Y-111098985D01*
X208941015Y-111217519D01*
X209034147Y-111356900D01*
X209098297Y-111511772D01*
X209131000Y-111676184D01*
X209131000Y-111843816D01*
X209098297Y-112008228D01*
X209034147Y-112163100D01*
X208941015Y-112302481D01*
X208822481Y-112421015D01*
X208683100Y-112514147D01*
X208528228Y-112578297D01*
X208363816Y-112611000D01*
X208196184Y-112611000D01*
X208031772Y-112578297D01*
X207876900Y-112514147D01*
X207737519Y-112421015D01*
X207618985Y-112302481D01*
X207525853Y-112163100D01*
X207461703Y-112008228D01*
X207429000Y-111843816D01*
X207429000Y-111676184D01*
X207461703Y-111511772D01*
X207525853Y-111356900D01*
X207618985Y-111217519D01*
X207737519Y-111098985D01*
X207876900Y-111005853D01*
X208031772Y-110941703D01*
X208196184Y-110909000D01*
X208363816Y-110909000D01*
X208528228Y-110941703D01*
G37*
G36*
X145028228Y-110941703D02*
G01*
X145183100Y-111005853D01*
X145322481Y-111098985D01*
X145441015Y-111217519D01*
X145534147Y-111356900D01*
X145598297Y-111511772D01*
X145631000Y-111676184D01*
X145631000Y-111843816D01*
X145598297Y-112008228D01*
X145534147Y-112163100D01*
X145441015Y-112302481D01*
X145322481Y-112421015D01*
X145183100Y-112514147D01*
X145028228Y-112578297D01*
X144863816Y-112611000D01*
X144696184Y-112611000D01*
X144531772Y-112578297D01*
X144376900Y-112514147D01*
X144237519Y-112421015D01*
X144118985Y-112302481D01*
X144025853Y-112163100D01*
X143961703Y-112008228D01*
X143929000Y-111843816D01*
X143929000Y-111676184D01*
X143961703Y-111511772D01*
X144025853Y-111356900D01*
X144118985Y-111217519D01*
X144237519Y-111098985D01*
X144376900Y-111005853D01*
X144531772Y-110941703D01*
X144696184Y-110909000D01*
X144863816Y-110909000D01*
X145028228Y-110941703D01*
G37*
G36*
X155188228Y-110941703D02*
G01*
X155343100Y-111005853D01*
X155482481Y-111098985D01*
X155601015Y-111217519D01*
X155694147Y-111356900D01*
X155758297Y-111511772D01*
X155791000Y-111676184D01*
X155791000Y-111843816D01*
X155758297Y-112008228D01*
X155694147Y-112163100D01*
X155601015Y-112302481D01*
X155482481Y-112421015D01*
X155343100Y-112514147D01*
X155188228Y-112578297D01*
X155023816Y-112611000D01*
X154856184Y-112611000D01*
X154691772Y-112578297D01*
X154536900Y-112514147D01*
X154397519Y-112421015D01*
X154278985Y-112302481D01*
X154185853Y-112163100D01*
X154121703Y-112008228D01*
X154089000Y-111843816D01*
X154089000Y-111676184D01*
X154121703Y-111511772D01*
X154185853Y-111356900D01*
X154278985Y-111217519D01*
X154397519Y-111098985D01*
X154536900Y-111005853D01*
X154691772Y-110941703D01*
X154856184Y-110909000D01*
X155023816Y-110909000D01*
X155188228Y-110941703D01*
G37*
G36*
X160268228Y-109671703D02*
G01*
X160423100Y-109735853D01*
X160562481Y-109828985D01*
X160681015Y-109947519D01*
X160774147Y-110086900D01*
X160838297Y-110241772D01*
X160871000Y-110406184D01*
X160871000Y-110573816D01*
X160838297Y-110738228D01*
X160774147Y-110893100D01*
X160681015Y-111032481D01*
X160562481Y-111151015D01*
X160423100Y-111244147D01*
X160268228Y-111308297D01*
X160103816Y-111341000D01*
X159936184Y-111341000D01*
X159771772Y-111308297D01*
X159616900Y-111244147D01*
X159477519Y-111151015D01*
X159358985Y-111032481D01*
X159265853Y-110893100D01*
X159201703Y-110738228D01*
X159169000Y-110573816D01*
X159169000Y-110406184D01*
X159201703Y-110241772D01*
X159265853Y-110086900D01*
X159358985Y-109947519D01*
X159477519Y-109828985D01*
X159616900Y-109735853D01*
X159771772Y-109671703D01*
X159936184Y-109639000D01*
X160103816Y-109639000D01*
X160268228Y-109671703D01*
G37*
G36*
X170428228Y-109671703D02*
G01*
X170583100Y-109735853D01*
X170722481Y-109828985D01*
X170841015Y-109947519D01*
X170934147Y-110086900D01*
X170998297Y-110241772D01*
X171031000Y-110406184D01*
X171031000Y-110573816D01*
X170998297Y-110738228D01*
X170934147Y-110893100D01*
X170841015Y-111032481D01*
X170722481Y-111151015D01*
X170583100Y-111244147D01*
X170428228Y-111308297D01*
X170263816Y-111341000D01*
X170096184Y-111341000D01*
X169931772Y-111308297D01*
X169776900Y-111244147D01*
X169637519Y-111151015D01*
X169518985Y-111032481D01*
X169425853Y-110893100D01*
X169361703Y-110738228D01*
X169329000Y-110573816D01*
X169329000Y-110406184D01*
X169361703Y-110241772D01*
X169425853Y-110086900D01*
X169518985Y-109947519D01*
X169637519Y-109828985D01*
X169776900Y-109735853D01*
X169931772Y-109671703D01*
X170096184Y-109639000D01*
X170263816Y-109639000D01*
X170428228Y-109671703D01*
G37*
G36*
X193288228Y-109671703D02*
G01*
X193443100Y-109735853D01*
X193582481Y-109828985D01*
X193701015Y-109947519D01*
X193794147Y-110086900D01*
X193858297Y-110241772D01*
X193891000Y-110406184D01*
X193891000Y-110573816D01*
X193858297Y-110738228D01*
X193794147Y-110893100D01*
X193701015Y-111032481D01*
X193582481Y-111151015D01*
X193443100Y-111244147D01*
X193288228Y-111308297D01*
X193123816Y-111341000D01*
X192956184Y-111341000D01*
X192791772Y-111308297D01*
X192636900Y-111244147D01*
X192497519Y-111151015D01*
X192378985Y-111032481D01*
X192285853Y-110893100D01*
X192221703Y-110738228D01*
X192189000Y-110573816D01*
X192189000Y-110406184D01*
X192221703Y-110241772D01*
X192285853Y-110086900D01*
X192378985Y-109947519D01*
X192497519Y-109828985D01*
X192636900Y-109735853D01*
X192791772Y-109671703D01*
X192956184Y-109639000D01*
X193123816Y-109639000D01*
X193288228Y-109671703D01*
G37*
G36*
X183128228Y-109671703D02*
G01*
X183283100Y-109735853D01*
X183422481Y-109828985D01*
X183541015Y-109947519D01*
X183634147Y-110086900D01*
X183698297Y-110241772D01*
X183731000Y-110406184D01*
X183731000Y-110573816D01*
X183698297Y-110738228D01*
X183634147Y-110893100D01*
X183541015Y-111032481D01*
X183422481Y-111151015D01*
X183283100Y-111244147D01*
X183128228Y-111308297D01*
X182963816Y-111341000D01*
X182796184Y-111341000D01*
X182631772Y-111308297D01*
X182476900Y-111244147D01*
X182337519Y-111151015D01*
X182218985Y-111032481D01*
X182125853Y-110893100D01*
X182061703Y-110738228D01*
X182029000Y-110573816D01*
X182029000Y-110406184D01*
X182061703Y-110241772D01*
X182125853Y-110086900D01*
X182218985Y-109947519D01*
X182337519Y-109828985D01*
X182476900Y-109735853D01*
X182631772Y-109671703D01*
X182796184Y-109639000D01*
X182963816Y-109639000D01*
X183128228Y-109671703D01*
G37*
G36*
X172968228Y-107131703D02*
G01*
X173123100Y-107195853D01*
X173262481Y-107288985D01*
X173381015Y-107407519D01*
X173474147Y-107546900D01*
X173538297Y-107701772D01*
X173571000Y-107866184D01*
X173571000Y-108033816D01*
X173538297Y-108198228D01*
X173474147Y-108353100D01*
X173381015Y-108492481D01*
X173262481Y-108611015D01*
X173123100Y-108704147D01*
X172968228Y-108768297D01*
X172803816Y-108801000D01*
X172636184Y-108801000D01*
X172471772Y-108768297D01*
X172316900Y-108704147D01*
X172177519Y-108611015D01*
X172058985Y-108492481D01*
X171965853Y-108353100D01*
X171901703Y-108198228D01*
X171869000Y-108033816D01*
X171869000Y-107866184D01*
X171901703Y-107701772D01*
X171965853Y-107546900D01*
X172058985Y-107407519D01*
X172177519Y-107288985D01*
X172316900Y-107195853D01*
X172471772Y-107131703D01*
X172636184Y-107099000D01*
X172803816Y-107099000D01*
X172968228Y-107131703D01*
G37*
G36*
X180588228Y-107131703D02*
G01*
X180743100Y-107195853D01*
X180882481Y-107288985D01*
X181001015Y-107407519D01*
X181094147Y-107546900D01*
X181158297Y-107701772D01*
X181191000Y-107866184D01*
X181191000Y-108033816D01*
X181158297Y-108198228D01*
X181094147Y-108353100D01*
X181001015Y-108492481D01*
X180882481Y-108611015D01*
X180743100Y-108704147D01*
X180588228Y-108768297D01*
X180423816Y-108801000D01*
X180256184Y-108801000D01*
X180091772Y-108768297D01*
X179936900Y-108704147D01*
X179797519Y-108611015D01*
X179678985Y-108492481D01*
X179585853Y-108353100D01*
X179521703Y-108198228D01*
X179489000Y-108033816D01*
X179489000Y-107866184D01*
X179521703Y-107701772D01*
X179585853Y-107546900D01*
X179678985Y-107407519D01*
X179797519Y-107288985D01*
X179936900Y-107195853D01*
X180091772Y-107131703D01*
X180256184Y-107099000D01*
X180423816Y-107099000D01*
X180588228Y-107131703D01*
G37*
G36*
X193288228Y-104591703D02*
G01*
X193443100Y-104655853D01*
X193582481Y-104748985D01*
X193701015Y-104867519D01*
X193794147Y-105006900D01*
X193858297Y-105161772D01*
X193891000Y-105326184D01*
X193891000Y-105493816D01*
X193858297Y-105658228D01*
X193794147Y-105813100D01*
X193701015Y-105952481D01*
X193582481Y-106071015D01*
X193443100Y-106164147D01*
X193288228Y-106228297D01*
X193123816Y-106261000D01*
X192956184Y-106261000D01*
X192791772Y-106228297D01*
X192636900Y-106164147D01*
X192497519Y-106071015D01*
X192378985Y-105952481D01*
X192285853Y-105813100D01*
X192221703Y-105658228D01*
X192189000Y-105493816D01*
X192189000Y-105326184D01*
X192221703Y-105161772D01*
X192285853Y-105006900D01*
X192378985Y-104867519D01*
X192497519Y-104748985D01*
X192636900Y-104655853D01*
X192791772Y-104591703D01*
X192956184Y-104559000D01*
X193123816Y-104559000D01*
X193288228Y-104591703D01*
G37*
G36*
X183128228Y-104591703D02*
G01*
X183283100Y-104655853D01*
X183422481Y-104748985D01*
X183541015Y-104867519D01*
X183634147Y-105006900D01*
X183698297Y-105161772D01*
X183731000Y-105326184D01*
X183731000Y-105493816D01*
X183698297Y-105658228D01*
X183634147Y-105813100D01*
X183541015Y-105952481D01*
X183422481Y-106071015D01*
X183283100Y-106164147D01*
X183128228Y-106228297D01*
X182963816Y-106261000D01*
X182796184Y-106261000D01*
X182631772Y-106228297D01*
X182476900Y-106164147D01*
X182337519Y-106071015D01*
X182218985Y-105952481D01*
X182125853Y-105813100D01*
X182061703Y-105658228D01*
X182029000Y-105493816D01*
X182029000Y-105326184D01*
X182061703Y-105161772D01*
X182125853Y-105006900D01*
X182218985Y-104867519D01*
X182337519Y-104748985D01*
X182476900Y-104655853D01*
X182631772Y-104591703D01*
X182796184Y-104559000D01*
X182963816Y-104559000D01*
X183128228Y-104591703D01*
G37*
G36*
X170428228Y-104591703D02*
G01*
X170583100Y-104655853D01*
X170722481Y-104748985D01*
X170841015Y-104867519D01*
X170934147Y-105006900D01*
X170998297Y-105161772D01*
X171031000Y-105326184D01*
X171031000Y-105493816D01*
X170998297Y-105658228D01*
X170934147Y-105813100D01*
X170841015Y-105952481D01*
X170722481Y-106071015D01*
X170583100Y-106164147D01*
X170428228Y-106228297D01*
X170263816Y-106261000D01*
X170096184Y-106261000D01*
X169931772Y-106228297D01*
X169776900Y-106164147D01*
X169637519Y-106071015D01*
X169518985Y-105952481D01*
X169425853Y-105813100D01*
X169361703Y-105658228D01*
X169329000Y-105493816D01*
X169329000Y-105326184D01*
X169361703Y-105161772D01*
X169425853Y-105006900D01*
X169518985Y-104867519D01*
X169637519Y-104748985D01*
X169776900Y-104655853D01*
X169931772Y-104591703D01*
X170096184Y-104559000D01*
X170263816Y-104559000D01*
X170428228Y-104591703D01*
G37*
G36*
X160268228Y-104591703D02*
G01*
X160423100Y-104655853D01*
X160562481Y-104748985D01*
X160681015Y-104867519D01*
X160774147Y-105006900D01*
X160838297Y-105161772D01*
X160871000Y-105326184D01*
X160871000Y-105493816D01*
X160838297Y-105658228D01*
X160774147Y-105813100D01*
X160681015Y-105952481D01*
X160562481Y-106071015D01*
X160423100Y-106164147D01*
X160268228Y-106228297D01*
X160103816Y-106261000D01*
X159936184Y-106261000D01*
X159771772Y-106228297D01*
X159616900Y-106164147D01*
X159477519Y-106071015D01*
X159358985Y-105952481D01*
X159265853Y-105813100D01*
X159201703Y-105658228D01*
X159169000Y-105493816D01*
X159169000Y-105326184D01*
X159201703Y-105161772D01*
X159265853Y-105006900D01*
X159358985Y-104867519D01*
X159477519Y-104748985D01*
X159616900Y-104655853D01*
X159771772Y-104591703D01*
X159936184Y-104559000D01*
X160103816Y-104559000D01*
X160268228Y-104591703D01*
G37*
G36*
X172968228Y-104591703D02*
G01*
X173123100Y-104655853D01*
X173262481Y-104748985D01*
X173381015Y-104867519D01*
X173474147Y-105006900D01*
X173538297Y-105161772D01*
X173571000Y-105326184D01*
X173571000Y-105493816D01*
X173538297Y-105658228D01*
X173474147Y-105813100D01*
X173381015Y-105952481D01*
X173262481Y-106071015D01*
X173123100Y-106164147D01*
X172968228Y-106228297D01*
X172803816Y-106261000D01*
X172636184Y-106261000D01*
X172471772Y-106228297D01*
X172316900Y-106164147D01*
X172177519Y-106071015D01*
X172058985Y-105952481D01*
X171965853Y-105813100D01*
X171901703Y-105658228D01*
X171869000Y-105493816D01*
X171869000Y-105326184D01*
X171901703Y-105161772D01*
X171965853Y-105006900D01*
X172058985Y-104867519D01*
X172177519Y-104748985D01*
X172316900Y-104655853D01*
X172471772Y-104591703D01*
X172636184Y-104559000D01*
X172803816Y-104559000D01*
X172968228Y-104591703D01*
G37*
G36*
X180588228Y-104591703D02*
G01*
X180743100Y-104655853D01*
X180882481Y-104748985D01*
X181001015Y-104867519D01*
X181094147Y-105006900D01*
X181158297Y-105161772D01*
X181191000Y-105326184D01*
X181191000Y-105493816D01*
X181158297Y-105658228D01*
X181094147Y-105813100D01*
X181001015Y-105952481D01*
X180882481Y-106071015D01*
X180743100Y-106164147D01*
X180588228Y-106228297D01*
X180423816Y-106261000D01*
X180256184Y-106261000D01*
X180091772Y-106228297D01*
X179936900Y-106164147D01*
X179797519Y-106071015D01*
X179678985Y-105952481D01*
X179585853Y-105813100D01*
X179521703Y-105658228D01*
X179489000Y-105493816D01*
X179489000Y-105326184D01*
X179521703Y-105161772D01*
X179585853Y-105006900D01*
X179678985Y-104867519D01*
X179797519Y-104748985D01*
X179936900Y-104655853D01*
X180091772Y-104591703D01*
X180256184Y-104559000D01*
X180423816Y-104559000D01*
X180588228Y-104591703D01*
G37*
G36*
X204667395Y-103225546D02*
G01*
X204840466Y-103297234D01*
X204840467Y-103297235D01*
X204996227Y-103401310D01*
X205128690Y-103533773D01*
X205128691Y-103533775D01*
X205232766Y-103689534D01*
X205304454Y-103862605D01*
X205341000Y-104046333D01*
X205341000Y-104233667D01*
X205304454Y-104417395D01*
X205232766Y-104590466D01*
X205232765Y-104590467D01*
X205128690Y-104746227D01*
X204996227Y-104878690D01*
X204917818Y-104931081D01*
X204840466Y-104982766D01*
X204667395Y-105054454D01*
X204483667Y-105091000D01*
X204296333Y-105091000D01*
X204112605Y-105054454D01*
X203939534Y-104982766D01*
X203862182Y-104931081D01*
X203783773Y-104878690D01*
X203651310Y-104746227D01*
X203547235Y-104590467D01*
X203547234Y-104590466D01*
X203475546Y-104417395D01*
X203439000Y-104233667D01*
X203439000Y-104046333D01*
X203475546Y-103862605D01*
X203547234Y-103689534D01*
X203651309Y-103533775D01*
X203651310Y-103533773D01*
X203783773Y-103401310D01*
X203939533Y-103297235D01*
X203939534Y-103297234D01*
X204112605Y-103225546D01*
X204296333Y-103189000D01*
X204483667Y-103189000D01*
X204667395Y-103225546D01*
G37*
G36*
X202167395Y-103225546D02*
G01*
X202340466Y-103297234D01*
X202340467Y-103297235D01*
X202496227Y-103401310D01*
X202628690Y-103533773D01*
X202628691Y-103533775D01*
X202732766Y-103689534D01*
X202804454Y-103862605D01*
X202841000Y-104046333D01*
X202841000Y-104233667D01*
X202804454Y-104417395D01*
X202732766Y-104590466D01*
X202732765Y-104590467D01*
X202628690Y-104746227D01*
X202496227Y-104878690D01*
X202417818Y-104931081D01*
X202340466Y-104982766D01*
X202167395Y-105054454D01*
X201983667Y-105091000D01*
X201796333Y-105091000D01*
X201612605Y-105054454D01*
X201439534Y-104982766D01*
X201362182Y-104931081D01*
X201283773Y-104878690D01*
X201151310Y-104746227D01*
X201047235Y-104590467D01*
X201047234Y-104590466D01*
X200975546Y-104417395D01*
X200939000Y-104233667D01*
X200939000Y-104046333D01*
X200975546Y-103862605D01*
X201047234Y-103689534D01*
X201151309Y-103533775D01*
X201151310Y-103533773D01*
X201283773Y-103401310D01*
X201439533Y-103297235D01*
X201439534Y-103297234D01*
X201612605Y-103225546D01*
X201796333Y-103189000D01*
X201983667Y-103189000D01*
X202167395Y-103225546D01*
G37*
G36*
X200341000Y-105091000D02*
G01*
X198439000Y-105091000D01*
X198439000Y-103189000D01*
X200341000Y-103189000D01*
X200341000Y-105091000D01*
G37*
G36*
X153867395Y-103225546D02*
G01*
X154040466Y-103297234D01*
X154040467Y-103297235D01*
X154196227Y-103401310D01*
X154328690Y-103533773D01*
X154328691Y-103533775D01*
X154432766Y-103689534D01*
X154504454Y-103862605D01*
X154541000Y-104046333D01*
X154541000Y-104233667D01*
X154504454Y-104417395D01*
X154432766Y-104590466D01*
X154432765Y-104590467D01*
X154328690Y-104746227D01*
X154196227Y-104878690D01*
X154117818Y-104931081D01*
X154040466Y-104982766D01*
X153867395Y-105054454D01*
X153683667Y-105091000D01*
X153496333Y-105091000D01*
X153312605Y-105054454D01*
X153139534Y-104982766D01*
X153062182Y-104931081D01*
X152983773Y-104878690D01*
X152851310Y-104746227D01*
X152747235Y-104590467D01*
X152747234Y-104590466D01*
X152675546Y-104417395D01*
X152639000Y-104233667D01*
X152639000Y-104046333D01*
X152675546Y-103862605D01*
X152747234Y-103689534D01*
X152851309Y-103533775D01*
X152851310Y-103533773D01*
X152983773Y-103401310D01*
X153139533Y-103297235D01*
X153139534Y-103297234D01*
X153312605Y-103225546D01*
X153496333Y-103189000D01*
X153683667Y-103189000D01*
X153867395Y-103225546D01*
G37*
G36*
X151367395Y-103225546D02*
G01*
X151540466Y-103297234D01*
X151540467Y-103297235D01*
X151696227Y-103401310D01*
X151828690Y-103533773D01*
X151828691Y-103533775D01*
X151932766Y-103689534D01*
X152004454Y-103862605D01*
X152041000Y-104046333D01*
X152041000Y-104233667D01*
X152004454Y-104417395D01*
X151932766Y-104590466D01*
X151932765Y-104590467D01*
X151828690Y-104746227D01*
X151696227Y-104878690D01*
X151617818Y-104931081D01*
X151540466Y-104982766D01*
X151367395Y-105054454D01*
X151183667Y-105091000D01*
X150996333Y-105091000D01*
X150812605Y-105054454D01*
X150639534Y-104982766D01*
X150562182Y-104931081D01*
X150483773Y-104878690D01*
X150351310Y-104746227D01*
X150247235Y-104590467D01*
X150247234Y-104590466D01*
X150175546Y-104417395D01*
X150139000Y-104233667D01*
X150139000Y-104046333D01*
X150175546Y-103862605D01*
X150247234Y-103689534D01*
X150351309Y-103533775D01*
X150351310Y-103533773D01*
X150483773Y-103401310D01*
X150639533Y-103297235D01*
X150639534Y-103297234D01*
X150812605Y-103225546D01*
X150996333Y-103189000D01*
X151183667Y-103189000D01*
X151367395Y-103225546D01*
G37*
G36*
X149541000Y-105091000D02*
G01*
X147639000Y-105091000D01*
X147639000Y-103189000D01*
X149541000Y-103189000D01*
X149541000Y-105091000D01*
G37*
G36*
X180588228Y-102051703D02*
G01*
X180743100Y-102115853D01*
X180882481Y-102208985D01*
X181001015Y-102327519D01*
X181094147Y-102466900D01*
X181158297Y-102621772D01*
X181191000Y-102786184D01*
X181191000Y-102953816D01*
X181158297Y-103118228D01*
X181094147Y-103273100D01*
X181001015Y-103412481D01*
X180882481Y-103531015D01*
X180743100Y-103624147D01*
X180588228Y-103688297D01*
X180423816Y-103721000D01*
X180256184Y-103721000D01*
X180091772Y-103688297D01*
X179936900Y-103624147D01*
X179797519Y-103531015D01*
X179678985Y-103412481D01*
X179585853Y-103273100D01*
X179521703Y-103118228D01*
X179489000Y-102953816D01*
X179489000Y-102786184D01*
X179521703Y-102621772D01*
X179585853Y-102466900D01*
X179678985Y-102327519D01*
X179797519Y-102208985D01*
X179936900Y-102115853D01*
X180091772Y-102051703D01*
X180256184Y-102019000D01*
X180423816Y-102019000D01*
X180588228Y-102051703D01*
G37*
G36*
X172968228Y-102051703D02*
G01*
X173123100Y-102115853D01*
X173262481Y-102208985D01*
X173381015Y-102327519D01*
X173474147Y-102466900D01*
X173538297Y-102621772D01*
X173571000Y-102786184D01*
X173571000Y-102953816D01*
X173538297Y-103118228D01*
X173474147Y-103273100D01*
X173381015Y-103412481D01*
X173262481Y-103531015D01*
X173123100Y-103624147D01*
X172968228Y-103688297D01*
X172803816Y-103721000D01*
X172636184Y-103721000D01*
X172471772Y-103688297D01*
X172316900Y-103624147D01*
X172177519Y-103531015D01*
X172058985Y-103412481D01*
X171965853Y-103273100D01*
X171901703Y-103118228D01*
X171869000Y-102953816D01*
X171869000Y-102786184D01*
X171901703Y-102621772D01*
X171965853Y-102466900D01*
X172058985Y-102327519D01*
X172177519Y-102208985D01*
X172316900Y-102115853D01*
X172471772Y-102051703D01*
X172636184Y-102019000D01*
X172803816Y-102019000D01*
X172968228Y-102051703D01*
G37*
G36*
X160268228Y-99511703D02*
G01*
X160423100Y-99575853D01*
X160562481Y-99668985D01*
X160681015Y-99787519D01*
X160774147Y-99926900D01*
X160838297Y-100081772D01*
X160871000Y-100246184D01*
X160871000Y-100413816D01*
X160838297Y-100578228D01*
X160774147Y-100733100D01*
X160681015Y-100872481D01*
X160562481Y-100991015D01*
X160423100Y-101084147D01*
X160268228Y-101148297D01*
X160103816Y-101181000D01*
X159936184Y-101181000D01*
X159771772Y-101148297D01*
X159616900Y-101084147D01*
X159477519Y-100991015D01*
X159358985Y-100872481D01*
X159265853Y-100733100D01*
X159201703Y-100578228D01*
X159169000Y-100413816D01*
X159169000Y-100246184D01*
X159201703Y-100081772D01*
X159265853Y-99926900D01*
X159358985Y-99787519D01*
X159477519Y-99668985D01*
X159616900Y-99575853D01*
X159771772Y-99511703D01*
X159936184Y-99479000D01*
X160103816Y-99479000D01*
X160268228Y-99511703D01*
G37*
G36*
X170428228Y-99511703D02*
G01*
X170583100Y-99575853D01*
X170722481Y-99668985D01*
X170841015Y-99787519D01*
X170934147Y-99926900D01*
X170998297Y-100081772D01*
X171031000Y-100246184D01*
X171031000Y-100413816D01*
X170998297Y-100578228D01*
X170934147Y-100733100D01*
X170841015Y-100872481D01*
X170722481Y-100991015D01*
X170583100Y-101084147D01*
X170428228Y-101148297D01*
X170263816Y-101181000D01*
X170096184Y-101181000D01*
X169931772Y-101148297D01*
X169776900Y-101084147D01*
X169637519Y-100991015D01*
X169518985Y-100872481D01*
X169425853Y-100733100D01*
X169361703Y-100578228D01*
X169329000Y-100413816D01*
X169329000Y-100246184D01*
X169361703Y-100081772D01*
X169425853Y-99926900D01*
X169518985Y-99787519D01*
X169637519Y-99668985D01*
X169776900Y-99575853D01*
X169931772Y-99511703D01*
X170096184Y-99479000D01*
X170263816Y-99479000D01*
X170428228Y-99511703D01*
G37*
G36*
X183128228Y-99511703D02*
G01*
X183283100Y-99575853D01*
X183422481Y-99668985D01*
X183541015Y-99787519D01*
X183634147Y-99926900D01*
X183698297Y-100081772D01*
X183731000Y-100246184D01*
X183731000Y-100413816D01*
X183698297Y-100578228D01*
X183634147Y-100733100D01*
X183541015Y-100872481D01*
X183422481Y-100991015D01*
X183283100Y-101084147D01*
X183128228Y-101148297D01*
X182963816Y-101181000D01*
X182796184Y-101181000D01*
X182631772Y-101148297D01*
X182476900Y-101084147D01*
X182337519Y-100991015D01*
X182218985Y-100872481D01*
X182125853Y-100733100D01*
X182061703Y-100578228D01*
X182029000Y-100413816D01*
X182029000Y-100246184D01*
X182061703Y-100081772D01*
X182125853Y-99926900D01*
X182218985Y-99787519D01*
X182337519Y-99668985D01*
X182476900Y-99575853D01*
X182631772Y-99511703D01*
X182796184Y-99479000D01*
X182963816Y-99479000D01*
X183128228Y-99511703D01*
G37*
G36*
X172968228Y-99511703D02*
G01*
X173123100Y-99575853D01*
X173262481Y-99668985D01*
X173381015Y-99787519D01*
X173474147Y-99926900D01*
X173538297Y-100081772D01*
X173571000Y-100246184D01*
X173571000Y-100413816D01*
X173538297Y-100578228D01*
X173474147Y-100733100D01*
X173381015Y-100872481D01*
X173262481Y-100991015D01*
X173123100Y-101084147D01*
X172968228Y-101148297D01*
X172803816Y-101181000D01*
X172636184Y-101181000D01*
X172471772Y-101148297D01*
X172316900Y-101084147D01*
X172177519Y-100991015D01*
X172058985Y-100872481D01*
X171965853Y-100733100D01*
X171901703Y-100578228D01*
X171869000Y-100413816D01*
X171869000Y-100246184D01*
X171901703Y-100081772D01*
X171965853Y-99926900D01*
X172058985Y-99787519D01*
X172177519Y-99668985D01*
X172316900Y-99575853D01*
X172471772Y-99511703D01*
X172636184Y-99479000D01*
X172803816Y-99479000D01*
X172968228Y-99511703D01*
G37*
G36*
X193288228Y-99511703D02*
G01*
X193443100Y-99575853D01*
X193582481Y-99668985D01*
X193701015Y-99787519D01*
X193794147Y-99926900D01*
X193858297Y-100081772D01*
X193891000Y-100246184D01*
X193891000Y-100413816D01*
X193858297Y-100578228D01*
X193794147Y-100733100D01*
X193701015Y-100872481D01*
X193582481Y-100991015D01*
X193443100Y-101084147D01*
X193288228Y-101148297D01*
X193123816Y-101181000D01*
X192956184Y-101181000D01*
X192791772Y-101148297D01*
X192636900Y-101084147D01*
X192497519Y-100991015D01*
X192378985Y-100872481D01*
X192285853Y-100733100D01*
X192221703Y-100578228D01*
X192189000Y-100413816D01*
X192189000Y-100246184D01*
X192221703Y-100081772D01*
X192285853Y-99926900D01*
X192378985Y-99787519D01*
X192497519Y-99668985D01*
X192636900Y-99575853D01*
X192791772Y-99511703D01*
X192956184Y-99479000D01*
X193123816Y-99479000D01*
X193288228Y-99511703D01*
G37*
G36*
X180588228Y-99511703D02*
G01*
X180743100Y-99575853D01*
X180882481Y-99668985D01*
X181001015Y-99787519D01*
X181094147Y-99926900D01*
X181158297Y-100081772D01*
X181191000Y-100246184D01*
X181191000Y-100413816D01*
X181158297Y-100578228D01*
X181094147Y-100733100D01*
X181001015Y-100872481D01*
X180882481Y-100991015D01*
X180743100Y-101084147D01*
X180588228Y-101148297D01*
X180423816Y-101181000D01*
X180256184Y-101181000D01*
X180091772Y-101148297D01*
X179936900Y-101084147D01*
X179797519Y-100991015D01*
X179678985Y-100872481D01*
X179585853Y-100733100D01*
X179521703Y-100578228D01*
X179489000Y-100413816D01*
X179489000Y-100246184D01*
X179521703Y-100081772D01*
X179585853Y-99926900D01*
X179678985Y-99787519D01*
X179797519Y-99668985D01*
X179936900Y-99575853D01*
X180091772Y-99511703D01*
X180256184Y-99479000D01*
X180423816Y-99479000D01*
X180588228Y-99511703D01*
G37*
G36*
X172968228Y-96971703D02*
G01*
X173123100Y-97035853D01*
X173262481Y-97128985D01*
X173381015Y-97247519D01*
X173474147Y-97386900D01*
X173538297Y-97541772D01*
X173571000Y-97706184D01*
X173571000Y-97873816D01*
X173538297Y-98038228D01*
X173474147Y-98193100D01*
X173381015Y-98332481D01*
X173262481Y-98451015D01*
X173123100Y-98544147D01*
X172968228Y-98608297D01*
X172803816Y-98641000D01*
X172636184Y-98641000D01*
X172471772Y-98608297D01*
X172316900Y-98544147D01*
X172177519Y-98451015D01*
X172058985Y-98332481D01*
X171965853Y-98193100D01*
X171901703Y-98038228D01*
X171869000Y-97873816D01*
X171869000Y-97706184D01*
X171901703Y-97541772D01*
X171965853Y-97386900D01*
X172058985Y-97247519D01*
X172177519Y-97128985D01*
X172316900Y-97035853D01*
X172471772Y-96971703D01*
X172636184Y-96939000D01*
X172803816Y-96939000D01*
X172968228Y-96971703D01*
G37*
G36*
X180588228Y-96971703D02*
G01*
X180743100Y-97035853D01*
X180882481Y-97128985D01*
X181001015Y-97247519D01*
X181094147Y-97386900D01*
X181158297Y-97541772D01*
X181191000Y-97706184D01*
X181191000Y-97873816D01*
X181158297Y-98038228D01*
X181094147Y-98193100D01*
X181001015Y-98332481D01*
X180882481Y-98451015D01*
X180743100Y-98544147D01*
X180588228Y-98608297D01*
X180423816Y-98641000D01*
X180256184Y-98641000D01*
X180091772Y-98608297D01*
X179936900Y-98544147D01*
X179797519Y-98451015D01*
X179678985Y-98332481D01*
X179585853Y-98193100D01*
X179521703Y-98038228D01*
X179489000Y-97873816D01*
X179489000Y-97706184D01*
X179521703Y-97541772D01*
X179585853Y-97386900D01*
X179678985Y-97247519D01*
X179797519Y-97128985D01*
X179936900Y-97035853D01*
X180091772Y-96971703D01*
X180256184Y-96939000D01*
X180423816Y-96939000D01*
X180588228Y-96971703D01*
G37*
G36*
X206966604Y-94989416D02*
G01*
X207232579Y-95070099D01*
X207232581Y-95070100D01*
X207477701Y-95201119D01*
X207692556Y-95377444D01*
X207868881Y-95592299D01*
X207999900Y-95837418D01*
X207999900Y-95837419D01*
X207999901Y-95837421D01*
X208080584Y-96103397D01*
X208101000Y-96310685D01*
X208101000Y-96969316D01*
X208080584Y-97176604D01*
X208016791Y-97386900D01*
X207999900Y-97442581D01*
X207868881Y-97687701D01*
X207692556Y-97902556D01*
X207477700Y-98078881D01*
X207232580Y-98209900D01*
X207232578Y-98209901D01*
X206966603Y-98290584D01*
X206690000Y-98317827D01*
X206413396Y-98290584D01*
X206147421Y-98209901D01*
X206147419Y-98209900D01*
X205902299Y-98078881D01*
X205687444Y-97902556D01*
X205511119Y-97687700D01*
X205380100Y-97442580D01*
X205380099Y-97442578D01*
X205299416Y-97176603D01*
X205279000Y-96969315D01*
X205279000Y-96310684D01*
X205299416Y-96103396D01*
X205380099Y-95837421D01*
X205404120Y-95792480D01*
X205511119Y-95592299D01*
X205687444Y-95377444D01*
X205902300Y-95201119D01*
X206147420Y-95070100D01*
X206147422Y-95070099D01*
X206413397Y-94989416D01*
X206690000Y-94962173D01*
X206966604Y-94989416D01*
G37*
G36*
X197366604Y-94989416D02*
G01*
X197632579Y-95070099D01*
X197632581Y-95070100D01*
X197877701Y-95201119D01*
X198092556Y-95377444D01*
X198268881Y-95592299D01*
X198399900Y-95837418D01*
X198399900Y-95837419D01*
X198399901Y-95837421D01*
X198480584Y-96103397D01*
X198501000Y-96310685D01*
X198501000Y-96969316D01*
X198480584Y-97176604D01*
X198416791Y-97386900D01*
X198399900Y-97442581D01*
X198268881Y-97687701D01*
X198092556Y-97902556D01*
X197877700Y-98078881D01*
X197632580Y-98209900D01*
X197632578Y-98209901D01*
X197366603Y-98290584D01*
X197090000Y-98317827D01*
X196813396Y-98290584D01*
X196547421Y-98209901D01*
X196547419Y-98209900D01*
X196302299Y-98078881D01*
X196087444Y-97902556D01*
X195911119Y-97687700D01*
X195780100Y-97442580D01*
X195780099Y-97442578D01*
X195699416Y-97176603D01*
X195679000Y-96969315D01*
X195679000Y-96310684D01*
X195699416Y-96103396D01*
X195780099Y-95837421D01*
X195804120Y-95792480D01*
X195911119Y-95592299D01*
X196087444Y-95377444D01*
X196302300Y-95201119D01*
X196547420Y-95070100D01*
X196547422Y-95070099D01*
X196813397Y-94989416D01*
X197090000Y-94962173D01*
X197366604Y-94989416D01*
G37*
G36*
X156166604Y-94989416D02*
G01*
X156432579Y-95070099D01*
X156432581Y-95070100D01*
X156677701Y-95201119D01*
X156892556Y-95377444D01*
X157068881Y-95592299D01*
X157199900Y-95837418D01*
X157199900Y-95837419D01*
X157199901Y-95837421D01*
X157280584Y-96103397D01*
X157301000Y-96310685D01*
X157301000Y-96969316D01*
X157280584Y-97176604D01*
X157216791Y-97386900D01*
X157199900Y-97442581D01*
X157068881Y-97687701D01*
X156892556Y-97902556D01*
X156677700Y-98078881D01*
X156432580Y-98209900D01*
X156432578Y-98209901D01*
X156166603Y-98290584D01*
X155890000Y-98317827D01*
X155613396Y-98290584D01*
X155347421Y-98209901D01*
X155347419Y-98209900D01*
X155102299Y-98078881D01*
X154887444Y-97902556D01*
X154711119Y-97687700D01*
X154580100Y-97442580D01*
X154580099Y-97442578D01*
X154499416Y-97176603D01*
X154479000Y-96969315D01*
X154479000Y-96310684D01*
X154499416Y-96103396D01*
X154580099Y-95837421D01*
X154604120Y-95792480D01*
X154711119Y-95592299D01*
X154887444Y-95377444D01*
X155102300Y-95201119D01*
X155347420Y-95070100D01*
X155347422Y-95070099D01*
X155613397Y-94989416D01*
X155890000Y-94962173D01*
X156166604Y-94989416D01*
G37*
G36*
X146566604Y-94989416D02*
G01*
X146832579Y-95070099D01*
X146832581Y-95070100D01*
X147077701Y-95201119D01*
X147292556Y-95377444D01*
X147468881Y-95592299D01*
X147599900Y-95837418D01*
X147599900Y-95837419D01*
X147599901Y-95837421D01*
X147680584Y-96103397D01*
X147701000Y-96310685D01*
X147701000Y-96969316D01*
X147680584Y-97176604D01*
X147616791Y-97386900D01*
X147599900Y-97442581D01*
X147468881Y-97687701D01*
X147292556Y-97902556D01*
X147077700Y-98078881D01*
X146832580Y-98209900D01*
X146832578Y-98209901D01*
X146566603Y-98290584D01*
X146290000Y-98317827D01*
X146013396Y-98290584D01*
X145747421Y-98209901D01*
X145747419Y-98209900D01*
X145502299Y-98078881D01*
X145287444Y-97902556D01*
X145111119Y-97687700D01*
X144980100Y-97442580D01*
X144980099Y-97442578D01*
X144899416Y-97176603D01*
X144879000Y-96969315D01*
X144879000Y-96310684D01*
X144899416Y-96103396D01*
X144980099Y-95837421D01*
X145004120Y-95792480D01*
X145111119Y-95592299D01*
X145287444Y-95377444D01*
X145502300Y-95201119D01*
X145747420Y-95070100D01*
X145747422Y-95070099D01*
X146013397Y-94989416D01*
X146290000Y-94962173D01*
X146566604Y-94989416D01*
G37*
G36*
X160268228Y-94431703D02*
G01*
X160423100Y-94495853D01*
X160562481Y-94588985D01*
X160681015Y-94707519D01*
X160774147Y-94846900D01*
X160838297Y-95001772D01*
X160871000Y-95166184D01*
X160871000Y-95333816D01*
X160838297Y-95498228D01*
X160774147Y-95653100D01*
X160681015Y-95792481D01*
X160562481Y-95911015D01*
X160423100Y-96004147D01*
X160268228Y-96068297D01*
X160103816Y-96101000D01*
X159936184Y-96101000D01*
X159771772Y-96068297D01*
X159616900Y-96004147D01*
X159477519Y-95911015D01*
X159358985Y-95792481D01*
X159265853Y-95653100D01*
X159201703Y-95498228D01*
X159169000Y-95333816D01*
X159169000Y-95166184D01*
X159201703Y-95001772D01*
X159265853Y-94846900D01*
X159358985Y-94707519D01*
X159477519Y-94588985D01*
X159616900Y-94495853D01*
X159771772Y-94431703D01*
X159936184Y-94399000D01*
X160103816Y-94399000D01*
X160268228Y-94431703D01*
G37*
G36*
X180588228Y-94431703D02*
G01*
X180743100Y-94495853D01*
X180882481Y-94588985D01*
X181001015Y-94707519D01*
X181094147Y-94846900D01*
X181158297Y-95001772D01*
X181191000Y-95166184D01*
X181191000Y-95333816D01*
X181158297Y-95498228D01*
X181094147Y-95653100D01*
X181001015Y-95792481D01*
X180882481Y-95911015D01*
X180743100Y-96004147D01*
X180588228Y-96068297D01*
X180423816Y-96101000D01*
X180256184Y-96101000D01*
X180091772Y-96068297D01*
X179936900Y-96004147D01*
X179797519Y-95911015D01*
X179678985Y-95792481D01*
X179585853Y-95653100D01*
X179521703Y-95498228D01*
X179489000Y-95333816D01*
X179489000Y-95166184D01*
X179521703Y-95001772D01*
X179585853Y-94846900D01*
X179678985Y-94707519D01*
X179797519Y-94588985D01*
X179936900Y-94495853D01*
X180091772Y-94431703D01*
X180256184Y-94399000D01*
X180423816Y-94399000D01*
X180588228Y-94431703D01*
G37*
G36*
X193288228Y-94431703D02*
G01*
X193443100Y-94495853D01*
X193582481Y-94588985D01*
X193701015Y-94707519D01*
X193794147Y-94846900D01*
X193858297Y-95001772D01*
X193891000Y-95166184D01*
X193891000Y-95333816D01*
X193858297Y-95498228D01*
X193794147Y-95653100D01*
X193701015Y-95792481D01*
X193582481Y-95911015D01*
X193443100Y-96004147D01*
X193288228Y-96068297D01*
X193123816Y-96101000D01*
X192956184Y-96101000D01*
X192791772Y-96068297D01*
X192636900Y-96004147D01*
X192497519Y-95911015D01*
X192378985Y-95792481D01*
X192285853Y-95653100D01*
X192221703Y-95498228D01*
X192189000Y-95333816D01*
X192189000Y-95166184D01*
X192221703Y-95001772D01*
X192285853Y-94846900D01*
X192378985Y-94707519D01*
X192497519Y-94588985D01*
X192636900Y-94495853D01*
X192791772Y-94431703D01*
X192956184Y-94399000D01*
X193123816Y-94399000D01*
X193288228Y-94431703D01*
G37*
G36*
X183128228Y-94431703D02*
G01*
X183283100Y-94495853D01*
X183422481Y-94588985D01*
X183541015Y-94707519D01*
X183634147Y-94846900D01*
X183698297Y-95001772D01*
X183731000Y-95166184D01*
X183731000Y-95333816D01*
X183698297Y-95498228D01*
X183634147Y-95653100D01*
X183541015Y-95792481D01*
X183422481Y-95911015D01*
X183283100Y-96004147D01*
X183128228Y-96068297D01*
X182963816Y-96101000D01*
X182796184Y-96101000D01*
X182631772Y-96068297D01*
X182476900Y-96004147D01*
X182337519Y-95911015D01*
X182218985Y-95792481D01*
X182125853Y-95653100D01*
X182061703Y-95498228D01*
X182029000Y-95333816D01*
X182029000Y-95166184D01*
X182061703Y-95001772D01*
X182125853Y-94846900D01*
X182218985Y-94707519D01*
X182337519Y-94588985D01*
X182476900Y-94495853D01*
X182631772Y-94431703D01*
X182796184Y-94399000D01*
X182963816Y-94399000D01*
X183128228Y-94431703D01*
G37*
G36*
X170428228Y-94431703D02*
G01*
X170583100Y-94495853D01*
X170722481Y-94588985D01*
X170841015Y-94707519D01*
X170934147Y-94846900D01*
X170998297Y-95001772D01*
X171031000Y-95166184D01*
X171031000Y-95333816D01*
X170998297Y-95498228D01*
X170934147Y-95653100D01*
X170841015Y-95792481D01*
X170722481Y-95911015D01*
X170583100Y-96004147D01*
X170428228Y-96068297D01*
X170263816Y-96101000D01*
X170096184Y-96101000D01*
X169931772Y-96068297D01*
X169776900Y-96004147D01*
X169637519Y-95911015D01*
X169518985Y-95792481D01*
X169425853Y-95653100D01*
X169361703Y-95498228D01*
X169329000Y-95333816D01*
X169329000Y-95166184D01*
X169361703Y-95001772D01*
X169425853Y-94846900D01*
X169518985Y-94707519D01*
X169637519Y-94588985D01*
X169776900Y-94495853D01*
X169931772Y-94431703D01*
X170096184Y-94399000D01*
X170263816Y-94399000D01*
X170428228Y-94431703D01*
G37*
G36*
X172968228Y-94431703D02*
G01*
X173123100Y-94495853D01*
X173262481Y-94588985D01*
X173381015Y-94707519D01*
X173474147Y-94846900D01*
X173538297Y-95001772D01*
X173571000Y-95166184D01*
X173571000Y-95333816D01*
X173538297Y-95498228D01*
X173474147Y-95653100D01*
X173381015Y-95792481D01*
X173262481Y-95911015D01*
X173123100Y-96004147D01*
X172968228Y-96068297D01*
X172803816Y-96101000D01*
X172636184Y-96101000D01*
X172471772Y-96068297D01*
X172316900Y-96004147D01*
X172177519Y-95911015D01*
X172058985Y-95792481D01*
X171965853Y-95653100D01*
X171901703Y-95498228D01*
X171869000Y-95333816D01*
X171869000Y-95166184D01*
X171901703Y-95001772D01*
X171965853Y-94846900D01*
X172058985Y-94707519D01*
X172177519Y-94588985D01*
X172316900Y-94495853D01*
X172471772Y-94431703D01*
X172636184Y-94399000D01*
X172803816Y-94399000D01*
X172968228Y-94431703D01*
G37*
G36*
X180588228Y-91891703D02*
G01*
X180743100Y-91955853D01*
X180882481Y-92048985D01*
X181001015Y-92167519D01*
X181094147Y-92306900D01*
X181158297Y-92461772D01*
X181191000Y-92626184D01*
X181191000Y-92793816D01*
X181158297Y-92958228D01*
X181094147Y-93113100D01*
X181001015Y-93252481D01*
X180882481Y-93371015D01*
X180743100Y-93464147D01*
X180588228Y-93528297D01*
X180423816Y-93561000D01*
X180256184Y-93561000D01*
X180091772Y-93528297D01*
X179936900Y-93464147D01*
X179797519Y-93371015D01*
X179678985Y-93252481D01*
X179585853Y-93113100D01*
X179521703Y-92958228D01*
X179489000Y-92793816D01*
X179489000Y-92626184D01*
X179521703Y-92461772D01*
X179585853Y-92306900D01*
X179678985Y-92167519D01*
X179797519Y-92048985D01*
X179936900Y-91955853D01*
X180091772Y-91891703D01*
X180256184Y-91859000D01*
X180423816Y-91859000D01*
X180588228Y-91891703D01*
G37*
G36*
X172968228Y-91891703D02*
G01*
X173123100Y-91955853D01*
X173262481Y-92048985D01*
X173381015Y-92167519D01*
X173474147Y-92306900D01*
X173538297Y-92461772D01*
X173571000Y-92626184D01*
X173571000Y-92793816D01*
X173538297Y-92958228D01*
X173474147Y-93113100D01*
X173381015Y-93252481D01*
X173262481Y-93371015D01*
X173123100Y-93464147D01*
X172968228Y-93528297D01*
X172803816Y-93561000D01*
X172636184Y-93561000D01*
X172471772Y-93528297D01*
X172316900Y-93464147D01*
X172177519Y-93371015D01*
X172058985Y-93252481D01*
X171965853Y-93113100D01*
X171901703Y-92958228D01*
X171869000Y-92793816D01*
X171869000Y-92626184D01*
X171901703Y-92461772D01*
X171965853Y-92306900D01*
X172058985Y-92167519D01*
X172177519Y-92048985D01*
X172316900Y-91955853D01*
X172471772Y-91891703D01*
X172636184Y-91859000D01*
X172803816Y-91859000D01*
X172968228Y-91891703D01*
G37*
G36*
X136900228Y-91129703D02*
G01*
X137055100Y-91193853D01*
X137194481Y-91286985D01*
X137313015Y-91405519D01*
X137406147Y-91544900D01*
X137470297Y-91699772D01*
X137503000Y-91864184D01*
X137503000Y-92031816D01*
X137470297Y-92196228D01*
X137406147Y-92351100D01*
X137313015Y-92490481D01*
X137194481Y-92609015D01*
X137055100Y-92702147D01*
X136900228Y-92766297D01*
X136735816Y-92799000D01*
X136568184Y-92799000D01*
X136403772Y-92766297D01*
X136248900Y-92702147D01*
X136109519Y-92609015D01*
X135990985Y-92490481D01*
X135897853Y-92351100D01*
X135833703Y-92196228D01*
X135801000Y-92031816D01*
X135801000Y-91864184D01*
X135833703Y-91699772D01*
X135897853Y-91544900D01*
X135990985Y-91405519D01*
X136109519Y-91286985D01*
X136248900Y-91193853D01*
X136403772Y-91129703D01*
X136568184Y-91097000D01*
X136735816Y-91097000D01*
X136900228Y-91129703D01*
G37*
G36*
X131900228Y-91129703D02*
G01*
X132055100Y-91193853D01*
X132194481Y-91286985D01*
X132313015Y-91405519D01*
X132406147Y-91544900D01*
X132470297Y-91699772D01*
X132503000Y-91864184D01*
X132503000Y-92031816D01*
X132470297Y-92196228D01*
X132406147Y-92351100D01*
X132313015Y-92490481D01*
X132194481Y-92609015D01*
X132055100Y-92702147D01*
X131900228Y-92766297D01*
X131735816Y-92799000D01*
X131568184Y-92799000D01*
X131403772Y-92766297D01*
X131248900Y-92702147D01*
X131109519Y-92609015D01*
X130990985Y-92490481D01*
X130897853Y-92351100D01*
X130833703Y-92196228D01*
X130801000Y-92031816D01*
X130801000Y-91864184D01*
X130833703Y-91699772D01*
X130897853Y-91544900D01*
X130990985Y-91405519D01*
X131109519Y-91286985D01*
X131248900Y-91193853D01*
X131403772Y-91129703D01*
X131568184Y-91097000D01*
X131735816Y-91097000D01*
X131900228Y-91129703D01*
G37*
G36*
X160268228Y-89351703D02*
G01*
X160423100Y-89415853D01*
X160562481Y-89508985D01*
X160681015Y-89627519D01*
X160774147Y-89766900D01*
X160838297Y-89921772D01*
X160871000Y-90086184D01*
X160871000Y-90253816D01*
X160838297Y-90418228D01*
X160774147Y-90573100D01*
X160681015Y-90712481D01*
X160562481Y-90831015D01*
X160423100Y-90924147D01*
X160268228Y-90988297D01*
X160103816Y-91021000D01*
X159936184Y-91021000D01*
X159771772Y-90988297D01*
X159616900Y-90924147D01*
X159477519Y-90831015D01*
X159358985Y-90712481D01*
X159265853Y-90573100D01*
X159201703Y-90418228D01*
X159169000Y-90253816D01*
X159169000Y-90086184D01*
X159201703Y-89921772D01*
X159265853Y-89766900D01*
X159358985Y-89627519D01*
X159477519Y-89508985D01*
X159616900Y-89415853D01*
X159771772Y-89351703D01*
X159936184Y-89319000D01*
X160103816Y-89319000D01*
X160268228Y-89351703D01*
G37*
G36*
X181191000Y-91021000D02*
G01*
X179489000Y-91021000D01*
X179489000Y-89319000D01*
X181191000Y-89319000D01*
X181191000Y-91021000D01*
G37*
G36*
X170428228Y-89351703D02*
G01*
X170583100Y-89415853D01*
X170722481Y-89508985D01*
X170841015Y-89627519D01*
X170934147Y-89766900D01*
X170998297Y-89921772D01*
X171031000Y-90086184D01*
X171031000Y-90253816D01*
X170998297Y-90418228D01*
X170934147Y-90573100D01*
X170841015Y-90712481D01*
X170722481Y-90831015D01*
X170583100Y-90924147D01*
X170428228Y-90988297D01*
X170263816Y-91021000D01*
X170096184Y-91021000D01*
X169931772Y-90988297D01*
X169776900Y-90924147D01*
X169637519Y-90831015D01*
X169518985Y-90712481D01*
X169425853Y-90573100D01*
X169361703Y-90418228D01*
X169329000Y-90253816D01*
X169329000Y-90086184D01*
X169361703Y-89921772D01*
X169425853Y-89766900D01*
X169518985Y-89627519D01*
X169637519Y-89508985D01*
X169776900Y-89415853D01*
X169931772Y-89351703D01*
X170096184Y-89319000D01*
X170263816Y-89319000D01*
X170428228Y-89351703D01*
G37*
G36*
X183128228Y-89351703D02*
G01*
X183283100Y-89415853D01*
X183422481Y-89508985D01*
X183541015Y-89627519D01*
X183634147Y-89766900D01*
X183698297Y-89921772D01*
X183731000Y-90086184D01*
X183731000Y-90253816D01*
X183698297Y-90418228D01*
X183634147Y-90573100D01*
X183541015Y-90712481D01*
X183422481Y-90831015D01*
X183283100Y-90924147D01*
X183128228Y-90988297D01*
X182963816Y-91021000D01*
X182796184Y-91021000D01*
X182631772Y-90988297D01*
X182476900Y-90924147D01*
X182337519Y-90831015D01*
X182218985Y-90712481D01*
X182125853Y-90573100D01*
X182061703Y-90418228D01*
X182029000Y-90253816D01*
X182029000Y-90086184D01*
X182061703Y-89921772D01*
X182125853Y-89766900D01*
X182218985Y-89627519D01*
X182337519Y-89508985D01*
X182476900Y-89415853D01*
X182631772Y-89351703D01*
X182796184Y-89319000D01*
X182963816Y-89319000D01*
X183128228Y-89351703D01*
G37*
G36*
X172968228Y-89351703D02*
G01*
X173123100Y-89415853D01*
X173262481Y-89508985D01*
X173381015Y-89627519D01*
X173474147Y-89766900D01*
X173538297Y-89921772D01*
X173571000Y-90086184D01*
X173571000Y-90253816D01*
X173538297Y-90418228D01*
X173474147Y-90573100D01*
X173381015Y-90712481D01*
X173262481Y-90831015D01*
X173123100Y-90924147D01*
X172968228Y-90988297D01*
X172803816Y-91021000D01*
X172636184Y-91021000D01*
X172471772Y-90988297D01*
X172316900Y-90924147D01*
X172177519Y-90831015D01*
X172058985Y-90712481D01*
X171965853Y-90573100D01*
X171901703Y-90418228D01*
X171869000Y-90253816D01*
X171869000Y-90086184D01*
X171901703Y-89921772D01*
X171965853Y-89766900D01*
X172058985Y-89627519D01*
X172177519Y-89508985D01*
X172316900Y-89415853D01*
X172471772Y-89351703D01*
X172636184Y-89319000D01*
X172803816Y-89319000D01*
X172968228Y-89351703D01*
G37*
G36*
X193288228Y-89351703D02*
G01*
X193443100Y-89415853D01*
X193582481Y-89508985D01*
X193701015Y-89627519D01*
X193794147Y-89766900D01*
X193858297Y-89921772D01*
X193891000Y-90086184D01*
X193891000Y-90253816D01*
X193858297Y-90418228D01*
X193794147Y-90573100D01*
X193701015Y-90712481D01*
X193582481Y-90831015D01*
X193443100Y-90924147D01*
X193288228Y-90988297D01*
X193123816Y-91021000D01*
X192956184Y-91021000D01*
X192791772Y-90988297D01*
X192636900Y-90924147D01*
X192497519Y-90831015D01*
X192378985Y-90712481D01*
X192285853Y-90573100D01*
X192221703Y-90418228D01*
X192189000Y-90253816D01*
X192189000Y-90086184D01*
X192221703Y-89921772D01*
X192285853Y-89766900D01*
X192378985Y-89627519D01*
X192497519Y-89508985D01*
X192636900Y-89415853D01*
X192791772Y-89351703D01*
X192956184Y-89319000D01*
X193123816Y-89319000D01*
X193288228Y-89351703D01*
G37*
G36*
X149600228Y-88589703D02*
G01*
X149755100Y-88653853D01*
X149894481Y-88746985D01*
X150013015Y-88865519D01*
X150106147Y-89004900D01*
X150170297Y-89159772D01*
X150203000Y-89324184D01*
X150203000Y-89491816D01*
X150170297Y-89656228D01*
X150106147Y-89811100D01*
X150013015Y-89950481D01*
X149894481Y-90069015D01*
X149755100Y-90162147D01*
X149600228Y-90226297D01*
X149435816Y-90259000D01*
X149268184Y-90259000D01*
X149103772Y-90226297D01*
X148948900Y-90162147D01*
X148809519Y-90069015D01*
X148690985Y-89950481D01*
X148597853Y-89811100D01*
X148533703Y-89656228D01*
X148501000Y-89491816D01*
X148501000Y-89324184D01*
X148533703Y-89159772D01*
X148597853Y-89004900D01*
X148690985Y-88865519D01*
X148809519Y-88746985D01*
X148948900Y-88653853D01*
X149103772Y-88589703D01*
X149268184Y-88557000D01*
X149435816Y-88557000D01*
X149600228Y-88589703D01*
G37*
G36*
X142583000Y-90259000D02*
G01*
X140881000Y-90259000D01*
X140881000Y-88557000D01*
X142583000Y-88557000D01*
X142583000Y-90259000D01*
G37*
G36*
X129280228Y-86049703D02*
G01*
X129435100Y-86113853D01*
X129574481Y-86206985D01*
X129693015Y-86325519D01*
X129786147Y-86464900D01*
X129850297Y-86619772D01*
X129883000Y-86784184D01*
X129883000Y-86951816D01*
X129850297Y-87116228D01*
X129786147Y-87271100D01*
X129693015Y-87410481D01*
X129574481Y-87529015D01*
X129435100Y-87622147D01*
X129280228Y-87686297D01*
X129115816Y-87719000D01*
X128948184Y-87719000D01*
X128783772Y-87686297D01*
X128628900Y-87622147D01*
X128489519Y-87529015D01*
X128370985Y-87410481D01*
X128277853Y-87271100D01*
X128213703Y-87116228D01*
X128181000Y-86951816D01*
X128181000Y-86784184D01*
X128213703Y-86619772D01*
X128277853Y-86464900D01*
X128370985Y-86325519D01*
X128489519Y-86206985D01*
X128628900Y-86113853D01*
X128783772Y-86049703D01*
X128948184Y-86017000D01*
X129115816Y-86017000D01*
X129280228Y-86049703D01*
G37*
G36*
X149600228Y-86049703D02*
G01*
X149755100Y-86113853D01*
X149894481Y-86206985D01*
X150013015Y-86325519D01*
X150106147Y-86464900D01*
X150170297Y-86619772D01*
X150203000Y-86784184D01*
X150203000Y-86951816D01*
X150170297Y-87116228D01*
X150106147Y-87271100D01*
X150013015Y-87410481D01*
X149894481Y-87529015D01*
X149755100Y-87622147D01*
X149600228Y-87686297D01*
X149435816Y-87719000D01*
X149268184Y-87719000D01*
X149103772Y-87686297D01*
X148948900Y-87622147D01*
X148809519Y-87529015D01*
X148690985Y-87410481D01*
X148597853Y-87271100D01*
X148533703Y-87116228D01*
X148501000Y-86951816D01*
X148501000Y-86784184D01*
X148533703Y-86619772D01*
X148597853Y-86464900D01*
X148690985Y-86325519D01*
X148809519Y-86206985D01*
X148948900Y-86113853D01*
X149103772Y-86049703D01*
X149268184Y-86017000D01*
X149435816Y-86017000D01*
X149600228Y-86049703D01*
G37*
G36*
X141980228Y-86049703D02*
G01*
X142135100Y-86113853D01*
X142274481Y-86206985D01*
X142393015Y-86325519D01*
X142486147Y-86464900D01*
X142550297Y-86619772D01*
X142583000Y-86784184D01*
X142583000Y-86951816D01*
X142550297Y-87116228D01*
X142486147Y-87271100D01*
X142393015Y-87410481D01*
X142274481Y-87529015D01*
X142135100Y-87622147D01*
X141980228Y-87686297D01*
X141815816Y-87719000D01*
X141648184Y-87719000D01*
X141483772Y-87686297D01*
X141328900Y-87622147D01*
X141189519Y-87529015D01*
X141070985Y-87410481D01*
X140977853Y-87271100D01*
X140913703Y-87116228D01*
X140881000Y-86951816D01*
X140881000Y-86784184D01*
X140913703Y-86619772D01*
X140977853Y-86464900D01*
X141070985Y-86325519D01*
X141189519Y-86206985D01*
X141328900Y-86113853D01*
X141483772Y-86049703D01*
X141648184Y-86017000D01*
X141815816Y-86017000D01*
X141980228Y-86049703D01*
G37*
G36*
X139440228Y-86049703D02*
G01*
X139595100Y-86113853D01*
X139734481Y-86206985D01*
X139853015Y-86325519D01*
X139946147Y-86464900D01*
X140010297Y-86619772D01*
X140043000Y-86784184D01*
X140043000Y-86951816D01*
X140010297Y-87116228D01*
X139946147Y-87271100D01*
X139853015Y-87410481D01*
X139734481Y-87529015D01*
X139595100Y-87622147D01*
X139440228Y-87686297D01*
X139275816Y-87719000D01*
X139108184Y-87719000D01*
X138943772Y-87686297D01*
X138788900Y-87622147D01*
X138649519Y-87529015D01*
X138530985Y-87410481D01*
X138437853Y-87271100D01*
X138373703Y-87116228D01*
X138341000Y-86951816D01*
X138341000Y-86784184D01*
X138373703Y-86619772D01*
X138437853Y-86464900D01*
X138530985Y-86325519D01*
X138649519Y-86206985D01*
X138788900Y-86113853D01*
X138943772Y-86049703D01*
X139108184Y-86017000D01*
X139275816Y-86017000D01*
X139440228Y-86049703D01*
G37*
G36*
X183128228Y-84271703D02*
G01*
X183283100Y-84335853D01*
X183422481Y-84428985D01*
X183541015Y-84547519D01*
X183634147Y-84686900D01*
X183698297Y-84841772D01*
X183731000Y-85006184D01*
X183731000Y-85173816D01*
X183698297Y-85338228D01*
X183634147Y-85493100D01*
X183541015Y-85632481D01*
X183422481Y-85751015D01*
X183283100Y-85844147D01*
X183128228Y-85908297D01*
X182963816Y-85941000D01*
X182796184Y-85941000D01*
X182631772Y-85908297D01*
X182476900Y-85844147D01*
X182337519Y-85751015D01*
X182218985Y-85632481D01*
X182125853Y-85493100D01*
X182061703Y-85338228D01*
X182029000Y-85173816D01*
X182029000Y-85006184D01*
X182061703Y-84841772D01*
X182125853Y-84686900D01*
X182218985Y-84547519D01*
X182337519Y-84428985D01*
X182476900Y-84335853D01*
X182631772Y-84271703D01*
X182796184Y-84239000D01*
X182963816Y-84239000D01*
X183128228Y-84271703D01*
G37*
G36*
X170428228Y-84271703D02*
G01*
X170583100Y-84335853D01*
X170722481Y-84428985D01*
X170841015Y-84547519D01*
X170934147Y-84686900D01*
X170998297Y-84841772D01*
X171031000Y-85006184D01*
X171031000Y-85173816D01*
X170998297Y-85338228D01*
X170934147Y-85493100D01*
X170841015Y-85632481D01*
X170722481Y-85751015D01*
X170583100Y-85844147D01*
X170428228Y-85908297D01*
X170263816Y-85941000D01*
X170096184Y-85941000D01*
X169931772Y-85908297D01*
X169776900Y-85844147D01*
X169637519Y-85751015D01*
X169518985Y-85632481D01*
X169425853Y-85493100D01*
X169361703Y-85338228D01*
X169329000Y-85173816D01*
X169329000Y-85006184D01*
X169361703Y-84841772D01*
X169425853Y-84686900D01*
X169518985Y-84547519D01*
X169637519Y-84428985D01*
X169776900Y-84335853D01*
X169931772Y-84271703D01*
X170096184Y-84239000D01*
X170263816Y-84239000D01*
X170428228Y-84271703D01*
G37*
G36*
X193288228Y-84271703D02*
G01*
X193443100Y-84335853D01*
X193582481Y-84428985D01*
X193701015Y-84547519D01*
X193794147Y-84686900D01*
X193858297Y-84841772D01*
X193891000Y-85006184D01*
X193891000Y-85173816D01*
X193858297Y-85338228D01*
X193794147Y-85493100D01*
X193701015Y-85632481D01*
X193582481Y-85751015D01*
X193443100Y-85844147D01*
X193288228Y-85908297D01*
X193123816Y-85941000D01*
X192956184Y-85941000D01*
X192791772Y-85908297D01*
X192636900Y-85844147D01*
X192497519Y-85751015D01*
X192378985Y-85632481D01*
X192285853Y-85493100D01*
X192221703Y-85338228D01*
X192189000Y-85173816D01*
X192189000Y-85006184D01*
X192221703Y-84841772D01*
X192285853Y-84686900D01*
X192378985Y-84547519D01*
X192497519Y-84428985D01*
X192636900Y-84335853D01*
X192791772Y-84271703D01*
X192956184Y-84239000D01*
X193123816Y-84239000D01*
X193288228Y-84271703D01*
G37*
G36*
X160268228Y-84271703D02*
G01*
X160423100Y-84335853D01*
X160562481Y-84428985D01*
X160681015Y-84547519D01*
X160774147Y-84686900D01*
X160838297Y-84841772D01*
X160871000Y-85006184D01*
X160871000Y-85173816D01*
X160838297Y-85338228D01*
X160774147Y-85493100D01*
X160681015Y-85632481D01*
X160562481Y-85751015D01*
X160423100Y-85844147D01*
X160268228Y-85908297D01*
X160103816Y-85941000D01*
X159936184Y-85941000D01*
X159771772Y-85908297D01*
X159616900Y-85844147D01*
X159477519Y-85751015D01*
X159358985Y-85632481D01*
X159265853Y-85493100D01*
X159201703Y-85338228D01*
X159169000Y-85173816D01*
X159169000Y-85006184D01*
X159201703Y-84841772D01*
X159265853Y-84686900D01*
X159358985Y-84547519D01*
X159477519Y-84428985D01*
X159616900Y-84335853D01*
X159771772Y-84271703D01*
X159936184Y-84239000D01*
X160103816Y-84239000D01*
X160268228Y-84271703D01*
G37*
G36*
X197098228Y-84271703D02*
G01*
X197253100Y-84335853D01*
X197392481Y-84428985D01*
X197511015Y-84547519D01*
X197604147Y-84686900D01*
X197668297Y-84841772D01*
X197701000Y-85006184D01*
X197701000Y-85173816D01*
X197668297Y-85338228D01*
X197604147Y-85493100D01*
X197511015Y-85632481D01*
X197392481Y-85751015D01*
X197253100Y-85844147D01*
X197098228Y-85908297D01*
X196933816Y-85941000D01*
X196766184Y-85941000D01*
X196601772Y-85908297D01*
X196446900Y-85844147D01*
X196307519Y-85751015D01*
X196188985Y-85632481D01*
X196095853Y-85493100D01*
X196031703Y-85338228D01*
X195999000Y-85173816D01*
X195999000Y-85006184D01*
X196031703Y-84841772D01*
X196095853Y-84686900D01*
X196188985Y-84547519D01*
X196307519Y-84428985D01*
X196446900Y-84335853D01*
X196601772Y-84271703D01*
X196766184Y-84239000D01*
X196933816Y-84239000D01*
X197098228Y-84271703D01*
G37*
G36*
X207258228Y-84271703D02*
G01*
X207413100Y-84335853D01*
X207552481Y-84428985D01*
X207671015Y-84547519D01*
X207764147Y-84686900D01*
X207828297Y-84841772D01*
X207861000Y-85006184D01*
X207861000Y-85173816D01*
X207828297Y-85338228D01*
X207764147Y-85493100D01*
X207671015Y-85632481D01*
X207552481Y-85751015D01*
X207413100Y-85844147D01*
X207258228Y-85908297D01*
X207093816Y-85941000D01*
X206926184Y-85941000D01*
X206761772Y-85908297D01*
X206606900Y-85844147D01*
X206467519Y-85751015D01*
X206348985Y-85632481D01*
X206255853Y-85493100D01*
X206191703Y-85338228D01*
X206159000Y-85173816D01*
X206159000Y-85006184D01*
X206191703Y-84841772D01*
X206255853Y-84686900D01*
X206348985Y-84547519D01*
X206467519Y-84428985D01*
X206606900Y-84335853D01*
X206761772Y-84271703D01*
X206926184Y-84239000D01*
X207093816Y-84239000D01*
X207258228Y-84271703D01*
G37*
G36*
X149600228Y-83509703D02*
G01*
X149755100Y-83573853D01*
X149894481Y-83666985D01*
X150013015Y-83785519D01*
X150106147Y-83924900D01*
X150170297Y-84079772D01*
X150203000Y-84244184D01*
X150203000Y-84411816D01*
X150170297Y-84576228D01*
X150106147Y-84731100D01*
X150013015Y-84870481D01*
X149894481Y-84989015D01*
X149755100Y-85082147D01*
X149600228Y-85146297D01*
X149435816Y-85179000D01*
X149268184Y-85179000D01*
X149103772Y-85146297D01*
X148948900Y-85082147D01*
X148809519Y-84989015D01*
X148690985Y-84870481D01*
X148597853Y-84731100D01*
X148533703Y-84576228D01*
X148501000Y-84411816D01*
X148501000Y-84244184D01*
X148533703Y-84079772D01*
X148597853Y-83924900D01*
X148690985Y-83785519D01*
X148809519Y-83666985D01*
X148948900Y-83573853D01*
X149103772Y-83509703D01*
X149268184Y-83477000D01*
X149435816Y-83477000D01*
X149600228Y-83509703D01*
G37*
G36*
X141980228Y-83509703D02*
G01*
X142135100Y-83573853D01*
X142274481Y-83666985D01*
X142393015Y-83785519D01*
X142486147Y-83924900D01*
X142550297Y-84079772D01*
X142583000Y-84244184D01*
X142583000Y-84411816D01*
X142550297Y-84576228D01*
X142486147Y-84731100D01*
X142393015Y-84870481D01*
X142274481Y-84989015D01*
X142135100Y-85082147D01*
X141980228Y-85146297D01*
X141815816Y-85179000D01*
X141648184Y-85179000D01*
X141483772Y-85146297D01*
X141328900Y-85082147D01*
X141189519Y-84989015D01*
X141070985Y-84870481D01*
X140977853Y-84731100D01*
X140913703Y-84576228D01*
X140881000Y-84411816D01*
X140881000Y-84244184D01*
X140913703Y-84079772D01*
X140977853Y-83924900D01*
X141070985Y-83785519D01*
X141189519Y-83666985D01*
X141328900Y-83573853D01*
X141483772Y-83509703D01*
X141648184Y-83477000D01*
X141815816Y-83477000D01*
X141980228Y-83509703D01*
G37*
G36*
X139440228Y-80969703D02*
G01*
X139595100Y-81033853D01*
X139734481Y-81126985D01*
X139853015Y-81245519D01*
X139946147Y-81384900D01*
X140010297Y-81539772D01*
X140043000Y-81704184D01*
X140043000Y-81871816D01*
X140010297Y-82036228D01*
X139946147Y-82191100D01*
X139853015Y-82330481D01*
X139734481Y-82449015D01*
X139595100Y-82542147D01*
X139440228Y-82606297D01*
X139275816Y-82639000D01*
X139108184Y-82639000D01*
X138943772Y-82606297D01*
X138788900Y-82542147D01*
X138649519Y-82449015D01*
X138530985Y-82330481D01*
X138437853Y-82191100D01*
X138373703Y-82036228D01*
X138341000Y-81871816D01*
X138341000Y-81704184D01*
X138373703Y-81539772D01*
X138437853Y-81384900D01*
X138530985Y-81245519D01*
X138649519Y-81126985D01*
X138788900Y-81033853D01*
X138943772Y-80969703D01*
X139108184Y-80937000D01*
X139275816Y-80937000D01*
X139440228Y-80969703D01*
G37*
G36*
X129280228Y-80969703D02*
G01*
X129435100Y-81033853D01*
X129574481Y-81126985D01*
X129693015Y-81245519D01*
X129786147Y-81384900D01*
X129850297Y-81539772D01*
X129883000Y-81704184D01*
X129883000Y-81871816D01*
X129850297Y-82036228D01*
X129786147Y-82191100D01*
X129693015Y-82330481D01*
X129574481Y-82449015D01*
X129435100Y-82542147D01*
X129280228Y-82606297D01*
X129115816Y-82639000D01*
X128948184Y-82639000D01*
X128783772Y-82606297D01*
X128628900Y-82542147D01*
X128489519Y-82449015D01*
X128370985Y-82330481D01*
X128277853Y-82191100D01*
X128213703Y-82036228D01*
X128181000Y-81871816D01*
X128181000Y-81704184D01*
X128213703Y-81539772D01*
X128277853Y-81384900D01*
X128370985Y-81245519D01*
X128489519Y-81126985D01*
X128628900Y-81033853D01*
X128783772Y-80969703D01*
X128948184Y-80937000D01*
X129115816Y-80937000D01*
X129280228Y-80969703D01*
G37*
G36*
X149600228Y-80969703D02*
G01*
X149755100Y-81033853D01*
X149894481Y-81126985D01*
X150013015Y-81245519D01*
X150106147Y-81384900D01*
X150170297Y-81539772D01*
X150203000Y-81704184D01*
X150203000Y-81871816D01*
X150170297Y-82036228D01*
X150106147Y-82191100D01*
X150013015Y-82330481D01*
X149894481Y-82449015D01*
X149755100Y-82542147D01*
X149600228Y-82606297D01*
X149435816Y-82639000D01*
X149268184Y-82639000D01*
X149103772Y-82606297D01*
X148948900Y-82542147D01*
X148809519Y-82449015D01*
X148690985Y-82330481D01*
X148597853Y-82191100D01*
X148533703Y-82036228D01*
X148501000Y-81871816D01*
X148501000Y-81704184D01*
X148533703Y-81539772D01*
X148597853Y-81384900D01*
X148690985Y-81245519D01*
X148809519Y-81126985D01*
X148948900Y-81033853D01*
X149103772Y-80969703D01*
X149268184Y-80937000D01*
X149435816Y-80937000D01*
X149600228Y-80969703D01*
G37*
G36*
X141980228Y-80969703D02*
G01*
X142135100Y-81033853D01*
X142274481Y-81126985D01*
X142393015Y-81245519D01*
X142486147Y-81384900D01*
X142550297Y-81539772D01*
X142583000Y-81704184D01*
X142583000Y-81871816D01*
X142550297Y-82036228D01*
X142486147Y-82191100D01*
X142393015Y-82330481D01*
X142274481Y-82449015D01*
X142135100Y-82542147D01*
X141980228Y-82606297D01*
X141815816Y-82639000D01*
X141648184Y-82639000D01*
X141483772Y-82606297D01*
X141328900Y-82542147D01*
X141189519Y-82449015D01*
X141070985Y-82330481D01*
X140977853Y-82191100D01*
X140913703Y-82036228D01*
X140881000Y-81871816D01*
X140881000Y-81704184D01*
X140913703Y-81539772D01*
X140977853Y-81384900D01*
X141070985Y-81245519D01*
X141189519Y-81126985D01*
X141328900Y-81033853D01*
X141483772Y-80969703D01*
X141648184Y-80937000D01*
X141815816Y-80937000D01*
X141980228Y-80969703D01*
G37*
G36*
X207961000Y-80961000D02*
G01*
X206059000Y-80961000D01*
X206059000Y-79059000D01*
X207961000Y-79059000D01*
X207961000Y-80961000D01*
G37*
G36*
X197127395Y-79095546D02*
G01*
X197300466Y-79167234D01*
X197300467Y-79167235D01*
X197456227Y-79271310D01*
X197588690Y-79403773D01*
X197631284Y-79467520D01*
X197692766Y-79559534D01*
X197764454Y-79732605D01*
X197801000Y-79916333D01*
X197801000Y-80103667D01*
X197764454Y-80287395D01*
X197692766Y-80460466D01*
X197692765Y-80460467D01*
X197588690Y-80616227D01*
X197456227Y-80748690D01*
X197433092Y-80764148D01*
X197300466Y-80852766D01*
X197127395Y-80924454D01*
X196943667Y-80961000D01*
X196756333Y-80961000D01*
X196572605Y-80924454D01*
X196399534Y-80852766D01*
X196266908Y-80764148D01*
X196243773Y-80748690D01*
X196111310Y-80616227D01*
X196007235Y-80460467D01*
X196007234Y-80460466D01*
X195935546Y-80287395D01*
X195899000Y-80103667D01*
X195899000Y-79916333D01*
X195935546Y-79732605D01*
X196007234Y-79559534D01*
X196068716Y-79467520D01*
X196111310Y-79403773D01*
X196243773Y-79271310D01*
X196399533Y-79167235D01*
X196399534Y-79167234D01*
X196572605Y-79095546D01*
X196756333Y-79059000D01*
X196943667Y-79059000D01*
X197127395Y-79095546D01*
G37*
G36*
X162808228Y-79191703D02*
G01*
X162963100Y-79255853D01*
X163102481Y-79348985D01*
X163221015Y-79467519D01*
X163314147Y-79606900D01*
X163378297Y-79761772D01*
X163411000Y-79926184D01*
X163411000Y-80093816D01*
X163378297Y-80258228D01*
X163314147Y-80413100D01*
X163221015Y-80552481D01*
X163102481Y-80671015D01*
X162963100Y-80764147D01*
X162808228Y-80828297D01*
X162643816Y-80861000D01*
X162476184Y-80861000D01*
X162311772Y-80828297D01*
X162156900Y-80764147D01*
X162017519Y-80671015D01*
X161898985Y-80552481D01*
X161805853Y-80413100D01*
X161741703Y-80258228D01*
X161709000Y-80093816D01*
X161709000Y-79926184D01*
X161741703Y-79761772D01*
X161805853Y-79606900D01*
X161898985Y-79467519D01*
X162017519Y-79348985D01*
X162156900Y-79255853D01*
X162311772Y-79191703D01*
X162476184Y-79159000D01*
X162643816Y-79159000D01*
X162808228Y-79191703D01*
G37*
G36*
X190748228Y-79191703D02*
G01*
X190903100Y-79255853D01*
X191042481Y-79348985D01*
X191161015Y-79467519D01*
X191254147Y-79606900D01*
X191318297Y-79761772D01*
X191351000Y-79926184D01*
X191351000Y-80093816D01*
X191318297Y-80258228D01*
X191254147Y-80413100D01*
X191161015Y-80552481D01*
X191042481Y-80671015D01*
X190903100Y-80764147D01*
X190748228Y-80828297D01*
X190583816Y-80861000D01*
X190416184Y-80861000D01*
X190251772Y-80828297D01*
X190096900Y-80764147D01*
X189957519Y-80671015D01*
X189838985Y-80552481D01*
X189745853Y-80413100D01*
X189681703Y-80258228D01*
X189649000Y-80093816D01*
X189649000Y-79926184D01*
X189681703Y-79761772D01*
X189745853Y-79606900D01*
X189838985Y-79467519D01*
X189957519Y-79348985D01*
X190096900Y-79255853D01*
X190251772Y-79191703D01*
X190416184Y-79159000D01*
X190583816Y-79159000D01*
X190748228Y-79191703D01*
G37*
G36*
X185748228Y-79191703D02*
G01*
X185903100Y-79255853D01*
X186042481Y-79348985D01*
X186161015Y-79467519D01*
X186254147Y-79606900D01*
X186318297Y-79761772D01*
X186351000Y-79926184D01*
X186351000Y-80093816D01*
X186318297Y-80258228D01*
X186254147Y-80413100D01*
X186161015Y-80552481D01*
X186042481Y-80671015D01*
X185903100Y-80764147D01*
X185748228Y-80828297D01*
X185583816Y-80861000D01*
X185416184Y-80861000D01*
X185251772Y-80828297D01*
X185096900Y-80764147D01*
X184957519Y-80671015D01*
X184838985Y-80552481D01*
X184745853Y-80413100D01*
X184681703Y-80258228D01*
X184649000Y-80093816D01*
X184649000Y-79926184D01*
X184681703Y-79761772D01*
X184745853Y-79606900D01*
X184838985Y-79467519D01*
X184957519Y-79348985D01*
X185096900Y-79255853D01*
X185251772Y-79191703D01*
X185416184Y-79159000D01*
X185583816Y-79159000D01*
X185748228Y-79191703D01*
G37*
G36*
X167808228Y-79191703D02*
G01*
X167963100Y-79255853D01*
X168102481Y-79348985D01*
X168221015Y-79467519D01*
X168314147Y-79606900D01*
X168378297Y-79761772D01*
X168411000Y-79926184D01*
X168411000Y-80093816D01*
X168378297Y-80258228D01*
X168314147Y-80413100D01*
X168221015Y-80552481D01*
X168102481Y-80671015D01*
X167963100Y-80764147D01*
X167808228Y-80828297D01*
X167643816Y-80861000D01*
X167476184Y-80861000D01*
X167311772Y-80828297D01*
X167156900Y-80764147D01*
X167017519Y-80671015D01*
X166898985Y-80552481D01*
X166805853Y-80413100D01*
X166741703Y-80258228D01*
X166709000Y-80093816D01*
X166709000Y-79926184D01*
X166741703Y-79761772D01*
X166805853Y-79606900D01*
X166898985Y-79467519D01*
X167017519Y-79348985D01*
X167156900Y-79255853D01*
X167311772Y-79191703D01*
X167476184Y-79159000D01*
X167643816Y-79159000D01*
X167808228Y-79191703D01*
G37*
G36*
X172968228Y-77921703D02*
G01*
X173123100Y-77985853D01*
X173262481Y-78078985D01*
X173381015Y-78197519D01*
X173474147Y-78336900D01*
X173538297Y-78491772D01*
X173571000Y-78656184D01*
X173571000Y-78823816D01*
X173538297Y-78988228D01*
X173474147Y-79143100D01*
X173381015Y-79282481D01*
X173262481Y-79401015D01*
X173123100Y-79494147D01*
X172968228Y-79558297D01*
X172803816Y-79591000D01*
X172636184Y-79591000D01*
X172471772Y-79558297D01*
X172316900Y-79494147D01*
X172177519Y-79401015D01*
X172058985Y-79282481D01*
X171965853Y-79143100D01*
X171901703Y-78988228D01*
X171869000Y-78823816D01*
X171869000Y-78656184D01*
X171901703Y-78491772D01*
X171965853Y-78336900D01*
X172058985Y-78197519D01*
X172177519Y-78078985D01*
X172316900Y-77985853D01*
X172471772Y-77921703D01*
X172636184Y-77889000D01*
X172803816Y-77889000D01*
X172968228Y-77921703D01*
G37*
G36*
X180588228Y-77921703D02*
G01*
X180743100Y-77985853D01*
X180882481Y-78078985D01*
X181001015Y-78197519D01*
X181094147Y-78336900D01*
X181158297Y-78491772D01*
X181191000Y-78656184D01*
X181191000Y-78823816D01*
X181158297Y-78988228D01*
X181094147Y-79143100D01*
X181001015Y-79282481D01*
X180882481Y-79401015D01*
X180743100Y-79494147D01*
X180588228Y-79558297D01*
X180423816Y-79591000D01*
X180256184Y-79591000D01*
X180091772Y-79558297D01*
X179936900Y-79494147D01*
X179797519Y-79401015D01*
X179678985Y-79282481D01*
X179585853Y-79143100D01*
X179521703Y-78988228D01*
X179489000Y-78823816D01*
X179489000Y-78656184D01*
X179521703Y-78491772D01*
X179585853Y-78336900D01*
X179678985Y-78197519D01*
X179797519Y-78078985D01*
X179936900Y-77985853D01*
X180091772Y-77921703D01*
X180256184Y-77889000D01*
X180423816Y-77889000D01*
X180588228Y-77921703D01*
G37*
G36*
X144723000Y-77709000D02*
G01*
X143821000Y-77709000D01*
X143821000Y-75707000D01*
X144723000Y-75707000D01*
X144723000Y-77709000D01*
G37*
G36*
X142823000Y-77709000D02*
G01*
X141921000Y-77709000D01*
X141921000Y-75707000D01*
X142823000Y-75707000D01*
X142823000Y-77709000D01*
G37*
G36*
X131820228Y-75889703D02*
G01*
X131975100Y-75953853D01*
X132114481Y-76046985D01*
X132233015Y-76165519D01*
X132326147Y-76304900D01*
X132390297Y-76459772D01*
X132423000Y-76624184D01*
X132423000Y-76791816D01*
X132390297Y-76956228D01*
X132326147Y-77111100D01*
X132233015Y-77250481D01*
X132114481Y-77369015D01*
X131975100Y-77462147D01*
X131820228Y-77526297D01*
X131655816Y-77559000D01*
X131488184Y-77559000D01*
X131323772Y-77526297D01*
X131168900Y-77462147D01*
X131029519Y-77369015D01*
X130910985Y-77250481D01*
X130817853Y-77111100D01*
X130753703Y-76956228D01*
X130721000Y-76791816D01*
X130721000Y-76624184D01*
X130753703Y-76459772D01*
X130817853Y-76304900D01*
X130910985Y-76165519D01*
X131029519Y-76046985D01*
X131168900Y-75953853D01*
X131323772Y-75889703D01*
X131488184Y-75857000D01*
X131655816Y-75857000D01*
X131820228Y-75889703D01*
G37*
G36*
X136820228Y-75889703D02*
G01*
X136975100Y-75953853D01*
X137114481Y-76046985D01*
X137233015Y-76165519D01*
X137326147Y-76304900D01*
X137390297Y-76459772D01*
X137423000Y-76624184D01*
X137423000Y-76791816D01*
X137390297Y-76956228D01*
X137326147Y-77111100D01*
X137233015Y-77250481D01*
X137114481Y-77369015D01*
X136975100Y-77462147D01*
X136820228Y-77526297D01*
X136655816Y-77559000D01*
X136488184Y-77559000D01*
X136323772Y-77526297D01*
X136168900Y-77462147D01*
X136029519Y-77369015D01*
X135910985Y-77250481D01*
X135817853Y-77111100D01*
X135753703Y-76956228D01*
X135721000Y-76791816D01*
X135721000Y-76624184D01*
X135753703Y-76459772D01*
X135817853Y-76304900D01*
X135910985Y-76165519D01*
X136029519Y-76046985D01*
X136168900Y-75953853D01*
X136323772Y-75889703D01*
X136488184Y-75857000D01*
X136655816Y-75857000D01*
X136820228Y-75889703D01*
G37*
G36*
X149600228Y-75889703D02*
G01*
X149755100Y-75953853D01*
X149894481Y-76046985D01*
X150013015Y-76165519D01*
X150106147Y-76304900D01*
X150170297Y-76459772D01*
X150203000Y-76624184D01*
X150203000Y-76791816D01*
X150170297Y-76956228D01*
X150106147Y-77111100D01*
X150013015Y-77250481D01*
X149894481Y-77369015D01*
X149755100Y-77462147D01*
X149600228Y-77526297D01*
X149435816Y-77559000D01*
X149268184Y-77559000D01*
X149103772Y-77526297D01*
X148948900Y-77462147D01*
X148809519Y-77369015D01*
X148690985Y-77250481D01*
X148597853Y-77111100D01*
X148533703Y-76956228D01*
X148501000Y-76791816D01*
X148501000Y-76624184D01*
X148533703Y-76459772D01*
X148597853Y-76304900D01*
X148690985Y-76165519D01*
X148809519Y-76046985D01*
X148948900Y-75953853D01*
X149103772Y-75889703D01*
X149268184Y-75857000D01*
X149435816Y-75857000D01*
X149600228Y-75889703D01*
G37*
G36*
X154600228Y-75889703D02*
G01*
X154755100Y-75953853D01*
X154894481Y-76046985D01*
X155013015Y-76165519D01*
X155106147Y-76304900D01*
X155170297Y-76459772D01*
X155203000Y-76624184D01*
X155203000Y-76791816D01*
X155170297Y-76956228D01*
X155106147Y-77111100D01*
X155013015Y-77250481D01*
X154894481Y-77369015D01*
X154755100Y-77462147D01*
X154600228Y-77526297D01*
X154435816Y-77559000D01*
X154268184Y-77559000D01*
X154103772Y-77526297D01*
X153948900Y-77462147D01*
X153809519Y-77369015D01*
X153690985Y-77250481D01*
X153597853Y-77111100D01*
X153533703Y-76956228D01*
X153501000Y-76791816D01*
X153501000Y-76624184D01*
X153533703Y-76459772D01*
X153597853Y-76304900D01*
X153690985Y-76165519D01*
X153809519Y-76046985D01*
X153948900Y-75953853D01*
X154103772Y-75889703D01*
X154268184Y-75857000D01*
X154435816Y-75857000D01*
X154600228Y-75889703D01*
G37*
G36*
X180588228Y-75381703D02*
G01*
X180743100Y-75445853D01*
X180882481Y-75538985D01*
X181001015Y-75657519D01*
X181094147Y-75796900D01*
X181158297Y-75951772D01*
X181191000Y-76116184D01*
X181191000Y-76283816D01*
X181158297Y-76448228D01*
X181094147Y-76603100D01*
X181001015Y-76742481D01*
X180882481Y-76861015D01*
X180743100Y-76954147D01*
X180588228Y-77018297D01*
X180423816Y-77051000D01*
X180256184Y-77051000D01*
X180091772Y-77018297D01*
X179936900Y-76954147D01*
X179797519Y-76861015D01*
X179678985Y-76742481D01*
X179585853Y-76603100D01*
X179521703Y-76448228D01*
X179489000Y-76283816D01*
X179489000Y-76116184D01*
X179521703Y-75951772D01*
X179585853Y-75796900D01*
X179678985Y-75657519D01*
X179797519Y-75538985D01*
X179936900Y-75445853D01*
X180091772Y-75381703D01*
X180256184Y-75349000D01*
X180423816Y-75349000D01*
X180588228Y-75381703D01*
G37*
G36*
X172968228Y-75381703D02*
G01*
X173123100Y-75445853D01*
X173262481Y-75538985D01*
X173381015Y-75657519D01*
X173474147Y-75796900D01*
X173538297Y-75951772D01*
X173571000Y-76116184D01*
X173571000Y-76283816D01*
X173538297Y-76448228D01*
X173474147Y-76603100D01*
X173381015Y-76742481D01*
X173262481Y-76861015D01*
X173123100Y-76954147D01*
X172968228Y-77018297D01*
X172803816Y-77051000D01*
X172636184Y-77051000D01*
X172471772Y-77018297D01*
X172316900Y-76954147D01*
X172177519Y-76861015D01*
X172058985Y-76742481D01*
X171965853Y-76603100D01*
X171901703Y-76448228D01*
X171869000Y-76283816D01*
X171869000Y-76116184D01*
X171901703Y-75951772D01*
X171965853Y-75796900D01*
X172058985Y-75657519D01*
X172177519Y-75538985D01*
X172316900Y-75445853D01*
X172471772Y-75381703D01*
X172636184Y-75349000D01*
X172803816Y-75349000D01*
X172968228Y-75381703D01*
G37*
G36*
X170428228Y-74111703D02*
G01*
X170583100Y-74175853D01*
X170722481Y-74268985D01*
X170841015Y-74387519D01*
X170934147Y-74526900D01*
X170998297Y-74681772D01*
X171031000Y-74846184D01*
X171031000Y-75013816D01*
X170998297Y-75178228D01*
X170934147Y-75333100D01*
X170841015Y-75472481D01*
X170722481Y-75591015D01*
X170583100Y-75684147D01*
X170428228Y-75748297D01*
X170263816Y-75781000D01*
X170096184Y-75781000D01*
X169931772Y-75748297D01*
X169776900Y-75684147D01*
X169637519Y-75591015D01*
X169518985Y-75472481D01*
X169425853Y-75333100D01*
X169361703Y-75178228D01*
X169329000Y-75013816D01*
X169329000Y-74846184D01*
X169361703Y-74681772D01*
X169425853Y-74526900D01*
X169518985Y-74387519D01*
X169637519Y-74268985D01*
X169776900Y-74175853D01*
X169931772Y-74111703D01*
X170096184Y-74079000D01*
X170263816Y-74079000D01*
X170428228Y-74111703D01*
G37*
G36*
X193288228Y-74111703D02*
G01*
X193443100Y-74175853D01*
X193582481Y-74268985D01*
X193701015Y-74387519D01*
X193794147Y-74526900D01*
X193858297Y-74681772D01*
X193891000Y-74846184D01*
X193891000Y-75013816D01*
X193858297Y-75178228D01*
X193794147Y-75333100D01*
X193701015Y-75472481D01*
X193582481Y-75591015D01*
X193443100Y-75684147D01*
X193288228Y-75748297D01*
X193123816Y-75781000D01*
X192956184Y-75781000D01*
X192791772Y-75748297D01*
X192636900Y-75684147D01*
X192497519Y-75591015D01*
X192378985Y-75472481D01*
X192285853Y-75333100D01*
X192221703Y-75178228D01*
X192189000Y-75013816D01*
X192189000Y-74846184D01*
X192221703Y-74681772D01*
X192285853Y-74526900D01*
X192378985Y-74387519D01*
X192497519Y-74268985D01*
X192636900Y-74175853D01*
X192791772Y-74111703D01*
X192956184Y-74079000D01*
X193123816Y-74079000D01*
X193288228Y-74111703D01*
G37*
G36*
X183128228Y-74111703D02*
G01*
X183283100Y-74175853D01*
X183422481Y-74268985D01*
X183541015Y-74387519D01*
X183634147Y-74526900D01*
X183698297Y-74681772D01*
X183731000Y-74846184D01*
X183731000Y-75013816D01*
X183698297Y-75178228D01*
X183634147Y-75333100D01*
X183541015Y-75472481D01*
X183422481Y-75591015D01*
X183283100Y-75684147D01*
X183128228Y-75748297D01*
X182963816Y-75781000D01*
X182796184Y-75781000D01*
X182631772Y-75748297D01*
X182476900Y-75684147D01*
X182337519Y-75591015D01*
X182218985Y-75472481D01*
X182125853Y-75333100D01*
X182061703Y-75178228D01*
X182029000Y-75013816D01*
X182029000Y-74846184D01*
X182061703Y-74681772D01*
X182125853Y-74526900D01*
X182218985Y-74387519D01*
X182337519Y-74268985D01*
X182476900Y-74175853D01*
X182631772Y-74111703D01*
X182796184Y-74079000D01*
X182963816Y-74079000D01*
X183128228Y-74111703D01*
G37*
G36*
X160268228Y-74111703D02*
G01*
X160423100Y-74175853D01*
X160562481Y-74268985D01*
X160681015Y-74387519D01*
X160774147Y-74526900D01*
X160838297Y-74681772D01*
X160871000Y-74846184D01*
X160871000Y-75013816D01*
X160838297Y-75178228D01*
X160774147Y-75333100D01*
X160681015Y-75472481D01*
X160562481Y-75591015D01*
X160423100Y-75684147D01*
X160268228Y-75748297D01*
X160103816Y-75781000D01*
X159936184Y-75781000D01*
X159771772Y-75748297D01*
X159616900Y-75684147D01*
X159477519Y-75591015D01*
X159358985Y-75472481D01*
X159265853Y-75333100D01*
X159201703Y-75178228D01*
X159169000Y-75013816D01*
X159169000Y-74846184D01*
X159201703Y-74681772D01*
X159265853Y-74526900D01*
X159358985Y-74387519D01*
X159477519Y-74268985D01*
X159616900Y-74175853D01*
X159771772Y-74111703D01*
X159936184Y-74079000D01*
X160103816Y-74079000D01*
X160268228Y-74111703D01*
G37*
G36*
X143773000Y-74709000D02*
G01*
X142871000Y-74709000D01*
X142871000Y-72707000D01*
X143773000Y-72707000D01*
X143773000Y-74709000D01*
G37*
G36*
X180588228Y-72841703D02*
G01*
X180743100Y-72905853D01*
X180882481Y-72998985D01*
X181001015Y-73117519D01*
X181094147Y-73256900D01*
X181158297Y-73411772D01*
X181191000Y-73576184D01*
X181191000Y-73743816D01*
X181158297Y-73908228D01*
X181094147Y-74063100D01*
X181001015Y-74202481D01*
X180882481Y-74321015D01*
X180743100Y-74414147D01*
X180588228Y-74478297D01*
X180423816Y-74511000D01*
X180256184Y-74511000D01*
X180091772Y-74478297D01*
X179936900Y-74414147D01*
X179797519Y-74321015D01*
X179678985Y-74202481D01*
X179585853Y-74063100D01*
X179521703Y-73908228D01*
X179489000Y-73743816D01*
X179489000Y-73576184D01*
X179521703Y-73411772D01*
X179585853Y-73256900D01*
X179678985Y-73117519D01*
X179797519Y-72998985D01*
X179936900Y-72905853D01*
X180091772Y-72841703D01*
X180256184Y-72809000D01*
X180423816Y-72809000D01*
X180588228Y-72841703D01*
G37*
G36*
X172968228Y-72841703D02*
G01*
X173123100Y-72905853D01*
X173262481Y-72998985D01*
X173381015Y-73117519D01*
X173474147Y-73256900D01*
X173538297Y-73411772D01*
X173571000Y-73576184D01*
X173571000Y-73743816D01*
X173538297Y-73908228D01*
X173474147Y-74063100D01*
X173381015Y-74202481D01*
X173262481Y-74321015D01*
X173123100Y-74414147D01*
X172968228Y-74478297D01*
X172803816Y-74511000D01*
X172636184Y-74511000D01*
X172471772Y-74478297D01*
X172316900Y-74414147D01*
X172177519Y-74321015D01*
X172058985Y-74202481D01*
X171965853Y-74063100D01*
X171901703Y-73908228D01*
X171869000Y-73743816D01*
X171869000Y-73576184D01*
X171901703Y-73411772D01*
X171965853Y-73256900D01*
X172058985Y-73117519D01*
X172177519Y-72998985D01*
X172316900Y-72905853D01*
X172471772Y-72841703D01*
X172636184Y-72809000D01*
X172803816Y-72809000D01*
X172968228Y-72841703D01*
G37*
G36*
X172968228Y-70301703D02*
G01*
X173123100Y-70365853D01*
X173262481Y-70458985D01*
X173381015Y-70577519D01*
X173474147Y-70716900D01*
X173538297Y-70871772D01*
X173571000Y-71036184D01*
X173571000Y-71203816D01*
X173538297Y-71368228D01*
X173474147Y-71523100D01*
X173381015Y-71662481D01*
X173262481Y-71781015D01*
X173123100Y-71874147D01*
X172968228Y-71938297D01*
X172803816Y-71971000D01*
X172636184Y-71971000D01*
X172471772Y-71938297D01*
X172316900Y-71874147D01*
X172177519Y-71781015D01*
X172058985Y-71662481D01*
X171965853Y-71523100D01*
X171901703Y-71368228D01*
X171869000Y-71203816D01*
X171869000Y-71036184D01*
X171901703Y-70871772D01*
X171965853Y-70716900D01*
X172058985Y-70577519D01*
X172177519Y-70458985D01*
X172316900Y-70365853D01*
X172471772Y-70301703D01*
X172636184Y-70269000D01*
X172803816Y-70269000D01*
X172968228Y-70301703D01*
G37*
G36*
X181191000Y-71971000D02*
G01*
X179489000Y-71971000D01*
X179489000Y-70269000D01*
X181191000Y-70269000D01*
X181191000Y-71971000D01*
G37*
G36*
X162808228Y-69031703D02*
G01*
X162963100Y-69095853D01*
X163102481Y-69188985D01*
X163221015Y-69307519D01*
X163314147Y-69446900D01*
X163378297Y-69601772D01*
X163411000Y-69766184D01*
X163411000Y-69933816D01*
X163378297Y-70098228D01*
X163314147Y-70253100D01*
X163221015Y-70392481D01*
X163102481Y-70511015D01*
X162963100Y-70604147D01*
X162808228Y-70668297D01*
X162643816Y-70701000D01*
X162476184Y-70701000D01*
X162311772Y-70668297D01*
X162156900Y-70604147D01*
X162017519Y-70511015D01*
X161898985Y-70392481D01*
X161805853Y-70253100D01*
X161741703Y-70098228D01*
X161709000Y-69933816D01*
X161709000Y-69766184D01*
X161741703Y-69601772D01*
X161805853Y-69446900D01*
X161898985Y-69307519D01*
X162017519Y-69188985D01*
X162156900Y-69095853D01*
X162311772Y-69031703D01*
X162476184Y-68999000D01*
X162643816Y-68999000D01*
X162808228Y-69031703D01*
G37*
G36*
X167808228Y-69031703D02*
G01*
X167963100Y-69095853D01*
X168102481Y-69188985D01*
X168221015Y-69307519D01*
X168314147Y-69446900D01*
X168378297Y-69601772D01*
X168411000Y-69766184D01*
X168411000Y-69933816D01*
X168378297Y-70098228D01*
X168314147Y-70253100D01*
X168221015Y-70392481D01*
X168102481Y-70511015D01*
X167963100Y-70604147D01*
X167808228Y-70668297D01*
X167643816Y-70701000D01*
X167476184Y-70701000D01*
X167311772Y-70668297D01*
X167156900Y-70604147D01*
X167017519Y-70511015D01*
X166898985Y-70392481D01*
X166805853Y-70253100D01*
X166741703Y-70098228D01*
X166709000Y-69933816D01*
X166709000Y-69766184D01*
X166741703Y-69601772D01*
X166805853Y-69446900D01*
X166898985Y-69307519D01*
X167017519Y-69188985D01*
X167156900Y-69095853D01*
X167311772Y-69031703D01*
X167476184Y-68999000D01*
X167643816Y-68999000D01*
X167808228Y-69031703D01*
G37*
G36*
X185748228Y-69031703D02*
G01*
X185903100Y-69095853D01*
X186042481Y-69188985D01*
X186161015Y-69307519D01*
X186254147Y-69446900D01*
X186318297Y-69601772D01*
X186351000Y-69766184D01*
X186351000Y-69933816D01*
X186318297Y-70098228D01*
X186254147Y-70253100D01*
X186161015Y-70392481D01*
X186042481Y-70511015D01*
X185903100Y-70604147D01*
X185748228Y-70668297D01*
X185583816Y-70701000D01*
X185416184Y-70701000D01*
X185251772Y-70668297D01*
X185096900Y-70604147D01*
X184957519Y-70511015D01*
X184838985Y-70392481D01*
X184745853Y-70253100D01*
X184681703Y-70098228D01*
X184649000Y-69933816D01*
X184649000Y-69766184D01*
X184681703Y-69601772D01*
X184745853Y-69446900D01*
X184838985Y-69307519D01*
X184957519Y-69188985D01*
X185096900Y-69095853D01*
X185251772Y-69031703D01*
X185416184Y-68999000D01*
X185583816Y-68999000D01*
X185748228Y-69031703D01*
G37*
G36*
X190748228Y-69031703D02*
G01*
X190903100Y-69095853D01*
X191042481Y-69188985D01*
X191161015Y-69307519D01*
X191254147Y-69446900D01*
X191318297Y-69601772D01*
X191351000Y-69766184D01*
X191351000Y-69933816D01*
X191318297Y-70098228D01*
X191254147Y-70253100D01*
X191161015Y-70392481D01*
X191042481Y-70511015D01*
X190903100Y-70604147D01*
X190748228Y-70668297D01*
X190583816Y-70701000D01*
X190416184Y-70701000D01*
X190251772Y-70668297D01*
X190096900Y-70604147D01*
X189957519Y-70511015D01*
X189838985Y-70392481D01*
X189745853Y-70253100D01*
X189681703Y-70098228D01*
X189649000Y-69933816D01*
X189649000Y-69766184D01*
X189681703Y-69601772D01*
X189745853Y-69446900D01*
X189838985Y-69307519D01*
X189957519Y-69188985D01*
X190096900Y-69095853D01*
X190251772Y-69031703D01*
X190416184Y-68999000D01*
X190583816Y-68999000D01*
X190748228Y-69031703D01*
G37*
G36*
X132981000Y-69481000D02*
G01*
X131179000Y-69481000D01*
X131179000Y-67679000D01*
X132981000Y-67679000D01*
X132981000Y-69481000D01*
G37*
G36*
X134733512Y-67683927D02*
G01*
X134882812Y-67713624D01*
X135046784Y-67781544D01*
X135194354Y-67880147D01*
X135319853Y-68005646D01*
X135418456Y-68153216D01*
X135486376Y-68317188D01*
X135521000Y-68491259D01*
X135521000Y-68668741D01*
X135486376Y-68842812D01*
X135418456Y-69006784D01*
X135319853Y-69154354D01*
X135194354Y-69279853D01*
X135046784Y-69378456D01*
X134882812Y-69446376D01*
X134733512Y-69476073D01*
X134708742Y-69481000D01*
X134531258Y-69481000D01*
X134506488Y-69476073D01*
X134357188Y-69446376D01*
X134193216Y-69378456D01*
X134045646Y-69279853D01*
X133920147Y-69154354D01*
X133821544Y-69006784D01*
X133753624Y-68842812D01*
X133719000Y-68668741D01*
X133719000Y-68491259D01*
X133753624Y-68317188D01*
X133821544Y-68153216D01*
X133920147Y-68005646D01*
X134045646Y-67880147D01*
X134193216Y-67781544D01*
X134357188Y-67713624D01*
X134506488Y-67683927D01*
X134531258Y-67679000D01*
X134708742Y-67679000D01*
X134733512Y-67683927D01*
G37*
G36*
X149541000Y-66991000D02*
G01*
X147639000Y-66991000D01*
X147639000Y-65089000D01*
X149541000Y-65089000D01*
X149541000Y-66991000D01*
G37*
G36*
X151367395Y-65125546D02*
G01*
X151540466Y-65197234D01*
X151540467Y-65197235D01*
X151696227Y-65301310D01*
X151828690Y-65433773D01*
X151828691Y-65433775D01*
X151932766Y-65589534D01*
X152004454Y-65762605D01*
X152041000Y-65946333D01*
X152041000Y-66133667D01*
X152004454Y-66317395D01*
X151932766Y-66490466D01*
X151932765Y-66490467D01*
X151828690Y-66646227D01*
X151696227Y-66778690D01*
X151617818Y-66831081D01*
X151540466Y-66882766D01*
X151367395Y-66954454D01*
X151183667Y-66991000D01*
X150996333Y-66991000D01*
X150812605Y-66954454D01*
X150639534Y-66882766D01*
X150562182Y-66831081D01*
X150483773Y-66778690D01*
X150351310Y-66646227D01*
X150247235Y-66490467D01*
X150247234Y-66490466D01*
X150175546Y-66317395D01*
X150139000Y-66133667D01*
X150139000Y-65946333D01*
X150175546Y-65762605D01*
X150247234Y-65589534D01*
X150351309Y-65433775D01*
X150351310Y-65433773D01*
X150483773Y-65301310D01*
X150639533Y-65197235D01*
X150639534Y-65197234D01*
X150812605Y-65125546D01*
X150996333Y-65089000D01*
X151183667Y-65089000D01*
X151367395Y-65125546D01*
G37*
G36*
X153867395Y-65125546D02*
G01*
X154040466Y-65197234D01*
X154040467Y-65197235D01*
X154196227Y-65301310D01*
X154328690Y-65433773D01*
X154328691Y-65433775D01*
X154432766Y-65589534D01*
X154504454Y-65762605D01*
X154541000Y-65946333D01*
X154541000Y-66133667D01*
X154504454Y-66317395D01*
X154432766Y-66490466D01*
X154432765Y-66490467D01*
X154328690Y-66646227D01*
X154196227Y-66778690D01*
X154117818Y-66831081D01*
X154040466Y-66882766D01*
X153867395Y-66954454D01*
X153683667Y-66991000D01*
X153496333Y-66991000D01*
X153312605Y-66954454D01*
X153139534Y-66882766D01*
X153062182Y-66831081D01*
X152983773Y-66778690D01*
X152851310Y-66646227D01*
X152747235Y-66490467D01*
X152747234Y-66490466D01*
X152675546Y-66317395D01*
X152639000Y-66133667D01*
X152639000Y-65946333D01*
X152675546Y-65762605D01*
X152747234Y-65589534D01*
X152851309Y-65433775D01*
X152851310Y-65433773D01*
X152983773Y-65301310D01*
X153139533Y-65197235D01*
X153139534Y-65197234D01*
X153312605Y-65125546D01*
X153496333Y-65089000D01*
X153683667Y-65089000D01*
X153867395Y-65125546D01*
G37*
G36*
X200341000Y-66991000D02*
G01*
X198439000Y-66991000D01*
X198439000Y-65089000D01*
X200341000Y-65089000D01*
X200341000Y-66991000D01*
G37*
G36*
X202167395Y-65125546D02*
G01*
X202340466Y-65197234D01*
X202340467Y-65197235D01*
X202496227Y-65301310D01*
X202628690Y-65433773D01*
X202628691Y-65433775D01*
X202732766Y-65589534D01*
X202804454Y-65762605D01*
X202841000Y-65946333D01*
X202841000Y-66133667D01*
X202804454Y-66317395D01*
X202732766Y-66490466D01*
X202732765Y-66490467D01*
X202628690Y-66646227D01*
X202496227Y-66778690D01*
X202417818Y-66831081D01*
X202340466Y-66882766D01*
X202167395Y-66954454D01*
X201983667Y-66991000D01*
X201796333Y-66991000D01*
X201612605Y-66954454D01*
X201439534Y-66882766D01*
X201362182Y-66831081D01*
X201283773Y-66778690D01*
X201151310Y-66646227D01*
X201047235Y-66490467D01*
X201047234Y-66490466D01*
X200975546Y-66317395D01*
X200939000Y-66133667D01*
X200939000Y-65946333D01*
X200975546Y-65762605D01*
X201047234Y-65589534D01*
X201151309Y-65433775D01*
X201151310Y-65433773D01*
X201283773Y-65301310D01*
X201439533Y-65197235D01*
X201439534Y-65197234D01*
X201612605Y-65125546D01*
X201796333Y-65089000D01*
X201983667Y-65089000D01*
X202167395Y-65125546D01*
G37*
G36*
X204667395Y-65125546D02*
G01*
X204840466Y-65197234D01*
X204840467Y-65197235D01*
X204996227Y-65301310D01*
X205128690Y-65433773D01*
X205128691Y-65433775D01*
X205232766Y-65589534D01*
X205304454Y-65762605D01*
X205341000Y-65946333D01*
X205341000Y-66133667D01*
X205304454Y-66317395D01*
X205232766Y-66490466D01*
X205232765Y-66490467D01*
X205128690Y-66646227D01*
X204996227Y-66778690D01*
X204917818Y-66831081D01*
X204840466Y-66882766D01*
X204667395Y-66954454D01*
X204483667Y-66991000D01*
X204296333Y-66991000D01*
X204112605Y-66954454D01*
X203939534Y-66882766D01*
X203862182Y-66831081D01*
X203783773Y-66778690D01*
X203651310Y-66646227D01*
X203547235Y-66490467D01*
X203547234Y-66490466D01*
X203475546Y-66317395D01*
X203439000Y-66133667D01*
X203439000Y-65946333D01*
X203475546Y-65762605D01*
X203547234Y-65589534D01*
X203651309Y-65433775D01*
X203651310Y-65433773D01*
X203783773Y-65301310D01*
X203939533Y-65197235D01*
X203939534Y-65197234D01*
X204112605Y-65125546D01*
X204296333Y-65089000D01*
X204483667Y-65089000D01*
X204667395Y-65125546D01*
G37*
G36*
X132193512Y-65143927D02*
G01*
X132342812Y-65173624D01*
X132506784Y-65241544D01*
X132654354Y-65340147D01*
X132779853Y-65465646D01*
X132878456Y-65613216D01*
X132946376Y-65777188D01*
X132981000Y-65951259D01*
X132981000Y-66128741D01*
X132946376Y-66302812D01*
X132878456Y-66466784D01*
X132779853Y-66614354D01*
X132654354Y-66739853D01*
X132506784Y-66838456D01*
X132342812Y-66906376D01*
X132193512Y-66936073D01*
X132168742Y-66941000D01*
X131991258Y-66941000D01*
X131966488Y-66936073D01*
X131817188Y-66906376D01*
X131653216Y-66838456D01*
X131505646Y-66739853D01*
X131380147Y-66614354D01*
X131281544Y-66466784D01*
X131213624Y-66302812D01*
X131179000Y-66128741D01*
X131179000Y-65951259D01*
X131213624Y-65777188D01*
X131281544Y-65613216D01*
X131380147Y-65465646D01*
X131505646Y-65340147D01*
X131653216Y-65241544D01*
X131817188Y-65173624D01*
X131966488Y-65143927D01*
X131991258Y-65139000D01*
X132168742Y-65139000D01*
X132193512Y-65143927D01*
G37*
G36*
X134733512Y-65143927D02*
G01*
X134882812Y-65173624D01*
X135046784Y-65241544D01*
X135194354Y-65340147D01*
X135319853Y-65465646D01*
X135418456Y-65613216D01*
X135486376Y-65777188D01*
X135521000Y-65951259D01*
X135521000Y-66128741D01*
X135486376Y-66302812D01*
X135418456Y-66466784D01*
X135319853Y-66614354D01*
X135194354Y-66739853D01*
X135046784Y-66838456D01*
X134882812Y-66906376D01*
X134733512Y-66936073D01*
X134708742Y-66941000D01*
X134531258Y-66941000D01*
X134506488Y-66936073D01*
X134357188Y-66906376D01*
X134193216Y-66838456D01*
X134045646Y-66739853D01*
X133920147Y-66614354D01*
X133821544Y-66466784D01*
X133753624Y-66302812D01*
X133719000Y-66128741D01*
X133719000Y-65951259D01*
X133753624Y-65777188D01*
X133821544Y-65613216D01*
X133920147Y-65465646D01*
X134045646Y-65340147D01*
X134193216Y-65241544D01*
X134357188Y-65173624D01*
X134506488Y-65143927D01*
X134531258Y-65139000D01*
X134708742Y-65139000D01*
X134733512Y-65143927D01*
G37*
G36*
X165316000Y-64986000D02*
G01*
X163614000Y-64986000D01*
X163614000Y-63284000D01*
X165316000Y-63284000D01*
X165316000Y-64986000D01*
G37*
G36*
X134733512Y-62603927D02*
G01*
X134882812Y-62633624D01*
X135046784Y-62701544D01*
X135194354Y-62800147D01*
X135319853Y-62925646D01*
X135418456Y-63073216D01*
X135486376Y-63237188D01*
X135521000Y-63411259D01*
X135521000Y-63588741D01*
X135486376Y-63762812D01*
X135418456Y-63926784D01*
X135319853Y-64074354D01*
X135194354Y-64199853D01*
X135046784Y-64298456D01*
X134882812Y-64366376D01*
X134733512Y-64396073D01*
X134708742Y-64401000D01*
X134531258Y-64401000D01*
X134506488Y-64396073D01*
X134357188Y-64366376D01*
X134193216Y-64298456D01*
X134045646Y-64199853D01*
X133920147Y-64074354D01*
X133821544Y-63926784D01*
X133753624Y-63762812D01*
X133719000Y-63588741D01*
X133719000Y-63411259D01*
X133753624Y-63237188D01*
X133821544Y-63073216D01*
X133920147Y-62925646D01*
X134045646Y-62800147D01*
X134193216Y-62701544D01*
X134357188Y-62633624D01*
X134506488Y-62603927D01*
X134531258Y-62599000D01*
X134708742Y-62599000D01*
X134733512Y-62603927D01*
G37*
G36*
X132193512Y-62603927D02*
G01*
X132342812Y-62633624D01*
X132506784Y-62701544D01*
X132654354Y-62800147D01*
X132779853Y-62925646D01*
X132878456Y-63073216D01*
X132946376Y-63237188D01*
X132981000Y-63411259D01*
X132981000Y-63588741D01*
X132946376Y-63762812D01*
X132878456Y-63926784D01*
X132779853Y-64074354D01*
X132654354Y-64199853D01*
X132506784Y-64298456D01*
X132342812Y-64366376D01*
X132193512Y-64396073D01*
X132168742Y-64401000D01*
X131991258Y-64401000D01*
X131966488Y-64396073D01*
X131817188Y-64366376D01*
X131653216Y-64298456D01*
X131505646Y-64199853D01*
X131380147Y-64074354D01*
X131281544Y-63926784D01*
X131213624Y-63762812D01*
X131179000Y-63588741D01*
X131179000Y-63411259D01*
X131213624Y-63237188D01*
X131281544Y-63073216D01*
X131380147Y-62925646D01*
X131505646Y-62800147D01*
X131653216Y-62701544D01*
X131817188Y-62633624D01*
X131966488Y-62603927D01*
X131991258Y-62599000D01*
X132168742Y-62599000D01*
X132193512Y-62603927D01*
G37*
G36*
X164713228Y-60816703D02*
G01*
X164868100Y-60880853D01*
X165007481Y-60973985D01*
X165126015Y-61092519D01*
X165219147Y-61231900D01*
X165283297Y-61386772D01*
X165316000Y-61551184D01*
X165316000Y-61718816D01*
X165283297Y-61883228D01*
X165219147Y-62038100D01*
X165126015Y-62177481D01*
X165007481Y-62296015D01*
X164868100Y-62389147D01*
X164713228Y-62453297D01*
X164548816Y-62486000D01*
X164381184Y-62486000D01*
X164216772Y-62453297D01*
X164061900Y-62389147D01*
X163922519Y-62296015D01*
X163803985Y-62177481D01*
X163710853Y-62038100D01*
X163646703Y-61883228D01*
X163614000Y-61718816D01*
X163614000Y-61551184D01*
X163646703Y-61386772D01*
X163710853Y-61231900D01*
X163803985Y-61092519D01*
X163922519Y-60973985D01*
X164061900Y-60880853D01*
X164216772Y-60816703D01*
X164381184Y-60784000D01*
X164548816Y-60784000D01*
X164713228Y-60816703D01*
G37*
G36*
X134733512Y-60063927D02*
G01*
X134882812Y-60093624D01*
X135046784Y-60161544D01*
X135194354Y-60260147D01*
X135319853Y-60385646D01*
X135418456Y-60533216D01*
X135486376Y-60697188D01*
X135521000Y-60871259D01*
X135521000Y-61048741D01*
X135486376Y-61222812D01*
X135418456Y-61386784D01*
X135319853Y-61534354D01*
X135194354Y-61659853D01*
X135046784Y-61758456D01*
X134882812Y-61826376D01*
X134733512Y-61856073D01*
X134708742Y-61861000D01*
X134531258Y-61861000D01*
X134506488Y-61856073D01*
X134357188Y-61826376D01*
X134193216Y-61758456D01*
X134045646Y-61659853D01*
X133920147Y-61534354D01*
X133821544Y-61386784D01*
X133753624Y-61222812D01*
X133719000Y-61048741D01*
X133719000Y-60871259D01*
X133753624Y-60697188D01*
X133821544Y-60533216D01*
X133920147Y-60385646D01*
X134045646Y-60260147D01*
X134193216Y-60161544D01*
X134357188Y-60093624D01*
X134506488Y-60063927D01*
X134531258Y-60059000D01*
X134708742Y-60059000D01*
X134733512Y-60063927D01*
G37*
G36*
X132193512Y-60063927D02*
G01*
X132342812Y-60093624D01*
X132506784Y-60161544D01*
X132654354Y-60260147D01*
X132779853Y-60385646D01*
X132878456Y-60533216D01*
X132946376Y-60697188D01*
X132981000Y-60871259D01*
X132981000Y-61048741D01*
X132946376Y-61222812D01*
X132878456Y-61386784D01*
X132779853Y-61534354D01*
X132654354Y-61659853D01*
X132506784Y-61758456D01*
X132342812Y-61826376D01*
X132193512Y-61856073D01*
X132168742Y-61861000D01*
X131991258Y-61861000D01*
X131966488Y-61856073D01*
X131817188Y-61826376D01*
X131653216Y-61758456D01*
X131505646Y-61659853D01*
X131380147Y-61534354D01*
X131281544Y-61386784D01*
X131213624Y-61222812D01*
X131179000Y-61048741D01*
X131179000Y-60871259D01*
X131213624Y-60697188D01*
X131281544Y-60533216D01*
X131380147Y-60385646D01*
X131505646Y-60260147D01*
X131653216Y-60161544D01*
X131817188Y-60093624D01*
X131966488Y-60063927D01*
X131991258Y-60059000D01*
X132168742Y-60059000D01*
X132193512Y-60063927D01*
G37*
G36*
X156166604Y-56889416D02*
G01*
X156432579Y-56970099D01*
X156432581Y-56970100D01*
X156677701Y-57101119D01*
X156892556Y-57277444D01*
X157068881Y-57492299D01*
X157199900Y-57737418D01*
X157199900Y-57737419D01*
X157199901Y-57737421D01*
X157280584Y-58003397D01*
X157301000Y-58210685D01*
X157301000Y-58869316D01*
X157280584Y-59076604D01*
X157267464Y-59119853D01*
X157199900Y-59342581D01*
X157068881Y-59587701D01*
X156892556Y-59802556D01*
X156677700Y-59978881D01*
X156527807Y-60059000D01*
X156432578Y-60109901D01*
X156166603Y-60190584D01*
X155890000Y-60217827D01*
X155613396Y-60190584D01*
X155347421Y-60109901D01*
X155252192Y-60059000D01*
X155102299Y-59978881D01*
X154887444Y-59802556D01*
X154711119Y-59587700D01*
X154580100Y-59342580D01*
X154580099Y-59342578D01*
X154499416Y-59076603D01*
X154479000Y-58869315D01*
X154479000Y-58210684D01*
X154499416Y-58003396D01*
X154580099Y-57737421D01*
X154589332Y-57720147D01*
X154711119Y-57492299D01*
X154887444Y-57277444D01*
X155102300Y-57101119D01*
X155347420Y-56970100D01*
X155347422Y-56970099D01*
X155613397Y-56889416D01*
X155890000Y-56862173D01*
X156166604Y-56889416D01*
G37*
G36*
X206966604Y-56889416D02*
G01*
X207232579Y-56970099D01*
X207232581Y-56970100D01*
X207477701Y-57101119D01*
X207692556Y-57277444D01*
X207868881Y-57492299D01*
X207999900Y-57737418D01*
X207999900Y-57737419D01*
X207999901Y-57737421D01*
X208080584Y-58003397D01*
X208101000Y-58210685D01*
X208101000Y-58869316D01*
X208080584Y-59076604D01*
X208067464Y-59119853D01*
X207999900Y-59342581D01*
X207868881Y-59587701D01*
X207692556Y-59802556D01*
X207477700Y-59978881D01*
X207327807Y-60059000D01*
X207232578Y-60109901D01*
X206966603Y-60190584D01*
X206690000Y-60217827D01*
X206413396Y-60190584D01*
X206147421Y-60109901D01*
X206052192Y-60059000D01*
X205902299Y-59978881D01*
X205687444Y-59802556D01*
X205511119Y-59587700D01*
X205380100Y-59342580D01*
X205380099Y-59342578D01*
X205299416Y-59076603D01*
X205279000Y-58869315D01*
X205279000Y-58210684D01*
X205299416Y-58003396D01*
X205380099Y-57737421D01*
X205389332Y-57720147D01*
X205511119Y-57492299D01*
X205687444Y-57277444D01*
X205902300Y-57101119D01*
X206147420Y-56970100D01*
X206147422Y-56970099D01*
X206413397Y-56889416D01*
X206690000Y-56862173D01*
X206966604Y-56889416D01*
G37*
G36*
X146566604Y-56889416D02*
G01*
X146832579Y-56970099D01*
X146832581Y-56970100D01*
X147077701Y-57101119D01*
X147292556Y-57277444D01*
X147468881Y-57492299D01*
X147599900Y-57737418D01*
X147599900Y-57737419D01*
X147599901Y-57737421D01*
X147680584Y-58003397D01*
X147701000Y-58210685D01*
X147701000Y-58869316D01*
X147680584Y-59076604D01*
X147667464Y-59119853D01*
X147599900Y-59342581D01*
X147468881Y-59587701D01*
X147292556Y-59802556D01*
X147077700Y-59978881D01*
X146927807Y-60059000D01*
X146832578Y-60109901D01*
X146566603Y-60190584D01*
X146290000Y-60217827D01*
X146013396Y-60190584D01*
X145747421Y-60109901D01*
X145652192Y-60059000D01*
X145502299Y-59978881D01*
X145287444Y-59802556D01*
X145111119Y-59587700D01*
X144980100Y-59342580D01*
X144980099Y-59342578D01*
X144899416Y-59076603D01*
X144879000Y-58869315D01*
X144879000Y-58210684D01*
X144899416Y-58003396D01*
X144980099Y-57737421D01*
X144989332Y-57720147D01*
X145111119Y-57492299D01*
X145287444Y-57277444D01*
X145502300Y-57101119D01*
X145747420Y-56970100D01*
X145747422Y-56970099D01*
X146013397Y-56889416D01*
X146290000Y-56862173D01*
X146566604Y-56889416D01*
G37*
G36*
X197366604Y-56889416D02*
G01*
X197632579Y-56970099D01*
X197632581Y-56970100D01*
X197877701Y-57101119D01*
X198092556Y-57277444D01*
X198268881Y-57492299D01*
X198399900Y-57737418D01*
X198399900Y-57737419D01*
X198399901Y-57737421D01*
X198480584Y-58003397D01*
X198501000Y-58210685D01*
X198501000Y-58869316D01*
X198480584Y-59076604D01*
X198467464Y-59119853D01*
X198399900Y-59342581D01*
X198268881Y-59587701D01*
X198092556Y-59802556D01*
X197877700Y-59978881D01*
X197727807Y-60059000D01*
X197632578Y-60109901D01*
X197366603Y-60190584D01*
X197090000Y-60217827D01*
X196813396Y-60190584D01*
X196547421Y-60109901D01*
X196452192Y-60059000D01*
X196302299Y-59978881D01*
X196087444Y-59802556D01*
X195911119Y-59587700D01*
X195780100Y-59342580D01*
X195780099Y-59342578D01*
X195699416Y-59076603D01*
X195679000Y-58869315D01*
X195679000Y-58210684D01*
X195699416Y-58003396D01*
X195780099Y-57737421D01*
X195789332Y-57720147D01*
X195911119Y-57492299D01*
X196087444Y-57277444D01*
X196302300Y-57101119D01*
X196547420Y-56970100D01*
X196547422Y-56970099D01*
X196813397Y-56889416D01*
X197090000Y-56862173D01*
X197366604Y-56889416D01*
G37*
G36*
X134733512Y-57523927D02*
G01*
X134882812Y-57553624D01*
X135046784Y-57621544D01*
X135194354Y-57720147D01*
X135319853Y-57845646D01*
X135418456Y-57993216D01*
X135486376Y-58157188D01*
X135521000Y-58331259D01*
X135521000Y-58508741D01*
X135486376Y-58682812D01*
X135418456Y-58846784D01*
X135319853Y-58994354D01*
X135194354Y-59119853D01*
X135046784Y-59218456D01*
X134882812Y-59286376D01*
X134733512Y-59316073D01*
X134708742Y-59321000D01*
X134531258Y-59321000D01*
X134506488Y-59316073D01*
X134357188Y-59286376D01*
X134193216Y-59218456D01*
X134045646Y-59119853D01*
X133920147Y-58994354D01*
X133821544Y-58846784D01*
X133753624Y-58682812D01*
X133719000Y-58508741D01*
X133719000Y-58331259D01*
X133753624Y-58157188D01*
X133821544Y-57993216D01*
X133920147Y-57845646D01*
X134045646Y-57720147D01*
X134193216Y-57621544D01*
X134357188Y-57553624D01*
X134506488Y-57523927D01*
X134531258Y-57519000D01*
X134708742Y-57519000D01*
X134733512Y-57523927D01*
G37*
G36*
X132193512Y-57523927D02*
G01*
X132342812Y-57553624D01*
X132506784Y-57621544D01*
X132654354Y-57720147D01*
X132779853Y-57845646D01*
X132878456Y-57993216D01*
X132946376Y-58157188D01*
X132981000Y-58331259D01*
X132981000Y-58508741D01*
X132946376Y-58682812D01*
X132878456Y-58846784D01*
X132779853Y-58994354D01*
X132654354Y-59119853D01*
X132506784Y-59218456D01*
X132342812Y-59286376D01*
X132193512Y-59316073D01*
X132168742Y-59321000D01*
X131991258Y-59321000D01*
X131966488Y-59316073D01*
X131817188Y-59286376D01*
X131653216Y-59218456D01*
X131505646Y-59119853D01*
X131380147Y-58994354D01*
X131281544Y-58846784D01*
X131213624Y-58682812D01*
X131179000Y-58508741D01*
X131179000Y-58331259D01*
X131213624Y-58157188D01*
X131281544Y-57993216D01*
X131380147Y-57845646D01*
X131505646Y-57720147D01*
X131653216Y-57621544D01*
X131817188Y-57553624D01*
X131966488Y-57523927D01*
X131991258Y-57519000D01*
X132168742Y-57519000D01*
X132193512Y-57523927D01*
G37*
G36*
X165316000Y-57326000D02*
G01*
X163614000Y-57326000D01*
X163614000Y-55624000D01*
X165316000Y-55624000D01*
X165316000Y-57326000D01*
G37*
G36*
X164713228Y-53156703D02*
G01*
X164868100Y-53220853D01*
X165007481Y-53313985D01*
X165126015Y-53432519D01*
X165219147Y-53571900D01*
X165283297Y-53726772D01*
X165316000Y-53891184D01*
X165316000Y-54058816D01*
X165283297Y-54223228D01*
X165219147Y-54378100D01*
X165126015Y-54517481D01*
X165007481Y-54636015D01*
X164868100Y-54729147D01*
X164713228Y-54793297D01*
X164548816Y-54826000D01*
X164381184Y-54826000D01*
X164216772Y-54793297D01*
X164061900Y-54729147D01*
X163922519Y-54636015D01*
X163803985Y-54517481D01*
X163710853Y-54378100D01*
X163646703Y-54223228D01*
X163614000Y-54058816D01*
X163614000Y-53891184D01*
X163646703Y-53726772D01*
X163710853Y-53571900D01*
X163803985Y-53432519D01*
X163922519Y-53313985D01*
X164061900Y-53220853D01*
X164216772Y-53156703D01*
X164381184Y-53124000D01*
X164548816Y-53124000D01*
X164713228Y-53156703D01*
G37*
M02*
