G04 #@! TF.GenerationSoftware,KiCad,Pcbnew,5.1.6-c6e7f7d~86~ubuntu18.04.1*
G04 #@! TF.CreationDate,2020-06-20T09:49:41-04:00*
G04 #@! TF.ProjectId,dual_VCA,6475616c-5f56-4434-912e-6b696361645f,rev?*
G04 #@! TF.SameCoordinates,Original*
G04 #@! TF.FileFunction,Legend,Top*
G04 #@! TF.FilePolarity,Positive*
%FSLAX46Y46*%
G04 Gerber Fmt 4.6, Leading zero omitted, Abs format (unit mm)*
G04 Created by KiCad (PCBNEW 5.1.6-c6e7f7d~86~ubuntu18.04.1) date 2020-06-20 09:49:41*
%MOMM*%
%LPD*%
G01*
G04 APERTURE LIST*
%ADD10C,0.120000*%
%ADD11C,0.150000*%
G04 APERTURE END LIST*
D10*
X143457452Y-80364400D02*
X142934948Y-80364400D01*
X143457452Y-78944400D02*
X142934948Y-78944400D01*
X152332948Y-86310400D02*
X152855452Y-86310400D01*
X152332948Y-87730400D02*
X152855452Y-87730400D01*
X179155348Y-137212000D02*
X179677852Y-137212000D01*
X179155348Y-138632000D02*
X179677852Y-138632000D01*
X172075852Y-126592400D02*
X171553348Y-126592400D01*
X172075852Y-125172400D02*
X171553348Y-125172400D01*
X183594752Y-124027000D02*
X183072248Y-124027000D01*
X183594752Y-122607000D02*
X183072248Y-122607000D01*
X170323252Y-114629000D02*
X169800748Y-114629000D01*
X170323252Y-113209000D02*
X169800748Y-113209000D01*
X173338748Y-109272000D02*
X173861252Y-109272000D01*
X173338748Y-110692000D02*
X173861252Y-110692000D01*
X173529248Y-87301000D02*
X174051752Y-87301000D01*
X173529248Y-88721000D02*
X174051752Y-88721000D01*
X183531252Y-78307000D02*
X183008748Y-78307000D01*
X183531252Y-76887000D02*
X183008748Y-76887000D01*
X176450248Y-70537000D02*
X176972752Y-70537000D01*
X176450248Y-71957000D02*
X176972752Y-71957000D01*
X206760000Y-129770000D02*
X197020000Y-129770000D01*
X206760000Y-141360000D02*
X205270000Y-141360000D01*
X206760000Y-132830000D02*
X206760000Y-129770000D01*
X197010000Y-141360000D02*
X197010000Y-136640000D01*
X197020000Y-132830000D02*
X197020000Y-129770000D01*
X206760000Y-141360000D02*
X206760000Y-136640000D01*
X198200000Y-141360000D02*
X197020000Y-141360000D01*
X201100000Y-141360000D02*
X200570000Y-141360000D01*
X203550000Y-141360000D02*
X202720000Y-141360000D01*
X155960000Y-129770000D02*
X146220000Y-129770000D01*
X155960000Y-141360000D02*
X154470000Y-141360000D01*
X155960000Y-132830000D02*
X155960000Y-129770000D01*
X146210000Y-141360000D02*
X146210000Y-136640000D01*
X146220000Y-132830000D02*
X146220000Y-129770000D01*
X155960000Y-141360000D02*
X155960000Y-136640000D01*
X147400000Y-141360000D02*
X146220000Y-141360000D01*
X150300000Y-141360000D02*
X149770000Y-141360000D01*
X152750000Y-141360000D02*
X151920000Y-141360000D01*
X206760000Y-91670000D02*
X197020000Y-91670000D01*
X206760000Y-103260000D02*
X205270000Y-103260000D01*
X206760000Y-94730000D02*
X206760000Y-91670000D01*
X197010000Y-103260000D02*
X197010000Y-98540000D01*
X197020000Y-94730000D02*
X197020000Y-91670000D01*
X206760000Y-103260000D02*
X206760000Y-98540000D01*
X198200000Y-103260000D02*
X197020000Y-103260000D01*
X201100000Y-103260000D02*
X200570000Y-103260000D01*
X203550000Y-103260000D02*
X202720000Y-103260000D01*
X206760000Y-53570000D02*
X197020000Y-53570000D01*
X206760000Y-65160000D02*
X205270000Y-65160000D01*
X206760000Y-56630000D02*
X206760000Y-53570000D01*
X197010000Y-65160000D02*
X197010000Y-60440000D01*
X197020000Y-56630000D02*
X197020000Y-53570000D01*
X206760000Y-65160000D02*
X206760000Y-60440000D01*
X198200000Y-65160000D02*
X197020000Y-65160000D01*
X201100000Y-65160000D02*
X200570000Y-65160000D01*
X203550000Y-65160000D02*
X202720000Y-65160000D01*
X155960000Y-91670000D02*
X146220000Y-91670000D01*
X155960000Y-103260000D02*
X154470000Y-103260000D01*
X155960000Y-94730000D02*
X155960000Y-91670000D01*
X146210000Y-103260000D02*
X146210000Y-98540000D01*
X146220000Y-94730000D02*
X146220000Y-91670000D01*
X155960000Y-103260000D02*
X155960000Y-98540000D01*
X147400000Y-103260000D02*
X146220000Y-103260000D01*
X150300000Y-103260000D02*
X149770000Y-103260000D01*
X152750000Y-103260000D02*
X151920000Y-103260000D01*
X155960000Y-53570000D02*
X146220000Y-53570000D01*
X155960000Y-65160000D02*
X154470000Y-65160000D01*
X155960000Y-56630000D02*
X155960000Y-53570000D01*
X146210000Y-65160000D02*
X146210000Y-60440000D01*
X146220000Y-56630000D02*
X146220000Y-53570000D01*
X155960000Y-65160000D02*
X155960000Y-60440000D01*
X147400000Y-65160000D02*
X146220000Y-65160000D01*
X150300000Y-65160000D02*
X149770000Y-65160000D01*
X152750000Y-65160000D02*
X151920000Y-65160000D01*
D11*
X142562342Y-78436742D02*
X142514723Y-78484361D01*
X142371866Y-78531980D01*
X142276628Y-78531980D01*
X142133771Y-78484361D01*
X142038533Y-78389123D01*
X141990914Y-78293885D01*
X141943295Y-78103409D01*
X141943295Y-77960552D01*
X141990914Y-77770076D01*
X142038533Y-77674838D01*
X142133771Y-77579600D01*
X142276628Y-77531980D01*
X142371866Y-77531980D01*
X142514723Y-77579600D01*
X142562342Y-77627219D01*
X142943295Y-77627219D02*
X142990914Y-77579600D01*
X143086152Y-77531980D01*
X143324247Y-77531980D01*
X143419485Y-77579600D01*
X143467104Y-77627219D01*
X143514723Y-77722457D01*
X143514723Y-77817695D01*
X143467104Y-77960552D01*
X142895676Y-78531980D01*
X143514723Y-78531980D01*
X144419485Y-77531980D02*
X143943295Y-77531980D01*
X143895676Y-78008171D01*
X143943295Y-77960552D01*
X144038533Y-77912933D01*
X144276628Y-77912933D01*
X144371866Y-77960552D01*
X144419485Y-78008171D01*
X144467104Y-78103409D01*
X144467104Y-78341504D01*
X144419485Y-78436742D01*
X144371866Y-78484361D01*
X144276628Y-78531980D01*
X144038533Y-78531980D01*
X143943295Y-78484361D01*
X143895676Y-78436742D01*
X151951342Y-85802742D02*
X151903723Y-85850361D01*
X151760866Y-85897980D01*
X151665628Y-85897980D01*
X151522771Y-85850361D01*
X151427533Y-85755123D01*
X151379914Y-85659885D01*
X151332295Y-85469409D01*
X151332295Y-85326552D01*
X151379914Y-85136076D01*
X151427533Y-85040838D01*
X151522771Y-84945600D01*
X151665628Y-84897980D01*
X151760866Y-84897980D01*
X151903723Y-84945600D01*
X151951342Y-84993219D01*
X152332295Y-84993219D02*
X152379914Y-84945600D01*
X152475152Y-84897980D01*
X152713247Y-84897980D01*
X152808485Y-84945600D01*
X152856104Y-84993219D01*
X152903723Y-85088457D01*
X152903723Y-85183695D01*
X152856104Y-85326552D01*
X152284676Y-85897980D01*
X152903723Y-85897980D01*
X153760866Y-85231314D02*
X153760866Y-85897980D01*
X153522771Y-84850361D02*
X153284676Y-85564647D01*
X153903723Y-85564647D01*
X178782742Y-139955542D02*
X178735123Y-140003161D01*
X178592266Y-140050780D01*
X178497028Y-140050780D01*
X178354171Y-140003161D01*
X178258933Y-139907923D01*
X178211314Y-139812685D01*
X178163695Y-139622209D01*
X178163695Y-139479352D01*
X178211314Y-139288876D01*
X178258933Y-139193638D01*
X178354171Y-139098400D01*
X178497028Y-139050780D01*
X178592266Y-139050780D01*
X178735123Y-139098400D01*
X178782742Y-139146019D01*
X179163695Y-139146019D02*
X179211314Y-139098400D01*
X179306552Y-139050780D01*
X179544647Y-139050780D01*
X179639885Y-139098400D01*
X179687504Y-139146019D01*
X179735123Y-139241257D01*
X179735123Y-139336495D01*
X179687504Y-139479352D01*
X179116076Y-140050780D01*
X179735123Y-140050780D01*
X180687504Y-140050780D02*
X180116076Y-140050780D01*
X180401790Y-140050780D02*
X180401790Y-139050780D01*
X180306552Y-139193638D01*
X180211314Y-139288876D01*
X180116076Y-139336495D01*
X169740342Y-124613942D02*
X169692723Y-124661561D01*
X169549866Y-124709180D01*
X169454628Y-124709180D01*
X169311771Y-124661561D01*
X169216533Y-124566323D01*
X169168914Y-124471085D01*
X169121295Y-124280609D01*
X169121295Y-124137752D01*
X169168914Y-123947276D01*
X169216533Y-123852038D01*
X169311771Y-123756800D01*
X169454628Y-123709180D01*
X169549866Y-123709180D01*
X169692723Y-123756800D01*
X169740342Y-123804419D01*
X170121295Y-123804419D02*
X170168914Y-123756800D01*
X170264152Y-123709180D01*
X170502247Y-123709180D01*
X170597485Y-123756800D01*
X170645104Y-123804419D01*
X170692723Y-123899657D01*
X170692723Y-123994895D01*
X170645104Y-124137752D01*
X170073676Y-124709180D01*
X170692723Y-124709180D01*
X171311771Y-123709180D02*
X171407009Y-123709180D01*
X171502247Y-123756800D01*
X171549866Y-123804419D01*
X171597485Y-123899657D01*
X171645104Y-124090133D01*
X171645104Y-124328228D01*
X171597485Y-124518704D01*
X171549866Y-124613942D01*
X171502247Y-124661561D01*
X171407009Y-124709180D01*
X171311771Y-124709180D01*
X171216533Y-124661561D01*
X171168914Y-124613942D01*
X171121295Y-124518704D01*
X171073676Y-124328228D01*
X171073676Y-124090133D01*
X171121295Y-123899657D01*
X171168914Y-123804419D01*
X171216533Y-123756800D01*
X171311771Y-123709180D01*
X182690642Y-125324142D02*
X182643023Y-125371761D01*
X182500166Y-125419380D01*
X182404928Y-125419380D01*
X182262071Y-125371761D01*
X182166833Y-125276523D01*
X182119214Y-125181285D01*
X182071595Y-124990809D01*
X182071595Y-124847952D01*
X182119214Y-124657476D01*
X182166833Y-124562238D01*
X182262071Y-124467000D01*
X182404928Y-124419380D01*
X182500166Y-124419380D01*
X182643023Y-124467000D01*
X182690642Y-124514619D01*
X183643023Y-125419380D02*
X183071595Y-125419380D01*
X183357309Y-125419380D02*
X183357309Y-124419380D01*
X183262071Y-124562238D01*
X183166833Y-124657476D01*
X183071595Y-124705095D01*
X184119214Y-125419380D02*
X184309690Y-125419380D01*
X184404928Y-125371761D01*
X184452547Y-125324142D01*
X184547785Y-125181285D01*
X184595404Y-124990809D01*
X184595404Y-124609857D01*
X184547785Y-124514619D01*
X184500166Y-124467000D01*
X184404928Y-124419380D01*
X184214452Y-124419380D01*
X184119214Y-124467000D01*
X184071595Y-124514619D01*
X184023976Y-124609857D01*
X184023976Y-124847952D01*
X184071595Y-124943190D01*
X184119214Y-124990809D01*
X184214452Y-125038428D01*
X184404928Y-125038428D01*
X184500166Y-124990809D01*
X184547785Y-124943190D01*
X184595404Y-124847952D01*
X169419142Y-115926142D02*
X169371523Y-115973761D01*
X169228666Y-116021380D01*
X169133428Y-116021380D01*
X168990571Y-115973761D01*
X168895333Y-115878523D01*
X168847714Y-115783285D01*
X168800095Y-115592809D01*
X168800095Y-115449952D01*
X168847714Y-115259476D01*
X168895333Y-115164238D01*
X168990571Y-115069000D01*
X169133428Y-115021380D01*
X169228666Y-115021380D01*
X169371523Y-115069000D01*
X169419142Y-115116619D01*
X170371523Y-116021380D02*
X169800095Y-116021380D01*
X170085809Y-116021380D02*
X170085809Y-115021380D01*
X169990571Y-115164238D01*
X169895333Y-115259476D01*
X169800095Y-115307095D01*
X170942952Y-115449952D02*
X170847714Y-115402333D01*
X170800095Y-115354714D01*
X170752476Y-115259476D01*
X170752476Y-115211857D01*
X170800095Y-115116619D01*
X170847714Y-115069000D01*
X170942952Y-115021380D01*
X171133428Y-115021380D01*
X171228666Y-115069000D01*
X171276285Y-115116619D01*
X171323904Y-115211857D01*
X171323904Y-115259476D01*
X171276285Y-115354714D01*
X171228666Y-115402333D01*
X171133428Y-115449952D01*
X170942952Y-115449952D01*
X170847714Y-115497571D01*
X170800095Y-115545190D01*
X170752476Y-115640428D01*
X170752476Y-115830904D01*
X170800095Y-115926142D01*
X170847714Y-115973761D01*
X170942952Y-116021380D01*
X171133428Y-116021380D01*
X171228666Y-115973761D01*
X171276285Y-115926142D01*
X171323904Y-115830904D01*
X171323904Y-115640428D01*
X171276285Y-115545190D01*
X171228666Y-115497571D01*
X171133428Y-115449952D01*
X172957142Y-111990142D02*
X172909523Y-112037761D01*
X172766666Y-112085380D01*
X172671428Y-112085380D01*
X172528571Y-112037761D01*
X172433333Y-111942523D01*
X172385714Y-111847285D01*
X172338095Y-111656809D01*
X172338095Y-111513952D01*
X172385714Y-111323476D01*
X172433333Y-111228238D01*
X172528571Y-111133000D01*
X172671428Y-111085380D01*
X172766666Y-111085380D01*
X172909523Y-111133000D01*
X172957142Y-111180619D01*
X173909523Y-112085380D02*
X173338095Y-112085380D01*
X173623809Y-112085380D02*
X173623809Y-111085380D01*
X173528571Y-111228238D01*
X173433333Y-111323476D01*
X173338095Y-111371095D01*
X174242857Y-111085380D02*
X174909523Y-111085380D01*
X174480952Y-112085380D01*
X173147642Y-86718142D02*
X173100023Y-86765761D01*
X172957166Y-86813380D01*
X172861928Y-86813380D01*
X172719071Y-86765761D01*
X172623833Y-86670523D01*
X172576214Y-86575285D01*
X172528595Y-86384809D01*
X172528595Y-86241952D01*
X172576214Y-86051476D01*
X172623833Y-85956238D01*
X172719071Y-85861000D01*
X172861928Y-85813380D01*
X172957166Y-85813380D01*
X173100023Y-85861000D01*
X173147642Y-85908619D01*
X174100023Y-86813380D02*
X173528595Y-86813380D01*
X173814309Y-86813380D02*
X173814309Y-85813380D01*
X173719071Y-85956238D01*
X173623833Y-86051476D01*
X173528595Y-86099095D01*
X174957166Y-85813380D02*
X174766690Y-85813380D01*
X174671452Y-85861000D01*
X174623833Y-85908619D01*
X174528595Y-86051476D01*
X174480976Y-86241952D01*
X174480976Y-86622904D01*
X174528595Y-86718142D01*
X174576214Y-86765761D01*
X174671452Y-86813380D01*
X174861928Y-86813380D01*
X174957166Y-86765761D01*
X175004785Y-86718142D01*
X175052404Y-86622904D01*
X175052404Y-86384809D01*
X175004785Y-86289571D01*
X174957166Y-86241952D01*
X174861928Y-86194333D01*
X174671452Y-86194333D01*
X174576214Y-86241952D01*
X174528595Y-86289571D01*
X174480976Y-86384809D01*
X182627142Y-79604142D02*
X182579523Y-79651761D01*
X182436666Y-79699380D01*
X182341428Y-79699380D01*
X182198571Y-79651761D01*
X182103333Y-79556523D01*
X182055714Y-79461285D01*
X182008095Y-79270809D01*
X182008095Y-79127952D01*
X182055714Y-78937476D01*
X182103333Y-78842238D01*
X182198571Y-78747000D01*
X182341428Y-78699380D01*
X182436666Y-78699380D01*
X182579523Y-78747000D01*
X182627142Y-78794619D01*
X183579523Y-79699380D02*
X183008095Y-79699380D01*
X183293809Y-79699380D02*
X183293809Y-78699380D01*
X183198571Y-78842238D01*
X183103333Y-78937476D01*
X183008095Y-78985095D01*
X184436666Y-79032714D02*
X184436666Y-79699380D01*
X184198571Y-78651761D02*
X183960476Y-79366047D01*
X184579523Y-79366047D01*
X176068642Y-69954142D02*
X176021023Y-70001761D01*
X175878166Y-70049380D01*
X175782928Y-70049380D01*
X175640071Y-70001761D01*
X175544833Y-69906523D01*
X175497214Y-69811285D01*
X175449595Y-69620809D01*
X175449595Y-69477952D01*
X175497214Y-69287476D01*
X175544833Y-69192238D01*
X175640071Y-69097000D01*
X175782928Y-69049380D01*
X175878166Y-69049380D01*
X176021023Y-69097000D01*
X176068642Y-69144619D01*
X177021023Y-70049380D02*
X176449595Y-70049380D01*
X176735309Y-70049380D02*
X176735309Y-69049380D01*
X176640071Y-69192238D01*
X176544833Y-69287476D01*
X176449595Y-69335095D01*
X177354357Y-69049380D02*
X177973404Y-69049380D01*
X177640071Y-69430333D01*
X177782928Y-69430333D01*
X177878166Y-69477952D01*
X177925785Y-69525571D01*
X177973404Y-69620809D01*
X177973404Y-69858904D01*
X177925785Y-69954142D01*
X177878166Y-70001761D01*
X177782928Y-70049380D01*
X177497214Y-70049380D01*
X177401976Y-70001761D01*
X177354357Y-69954142D01*
X201334761Y-128722380D02*
X201001428Y-128246190D01*
X200763333Y-128722380D02*
X200763333Y-127722380D01*
X201144285Y-127722380D01*
X201239523Y-127770000D01*
X201287142Y-127817619D01*
X201334761Y-127912857D01*
X201334761Y-128055714D01*
X201287142Y-128150952D01*
X201239523Y-128198571D01*
X201144285Y-128246190D01*
X200763333Y-128246190D01*
X201620476Y-127722380D02*
X201953809Y-128722380D01*
X202287142Y-127722380D01*
X203049047Y-127722380D02*
X202858571Y-127722380D01*
X202763333Y-127770000D01*
X202715714Y-127817619D01*
X202620476Y-127960476D01*
X202572857Y-128150952D01*
X202572857Y-128531904D01*
X202620476Y-128627142D01*
X202668095Y-128674761D01*
X202763333Y-128722380D01*
X202953809Y-128722380D01*
X203049047Y-128674761D01*
X203096666Y-128627142D01*
X203144285Y-128531904D01*
X203144285Y-128293809D01*
X203096666Y-128198571D01*
X203049047Y-128150952D01*
X202953809Y-128103333D01*
X202763333Y-128103333D01*
X202668095Y-128150952D01*
X202620476Y-128198571D01*
X202572857Y-128293809D01*
X150534761Y-128722380D02*
X150201428Y-128246190D01*
X149963333Y-128722380D02*
X149963333Y-127722380D01*
X150344285Y-127722380D01*
X150439523Y-127770000D01*
X150487142Y-127817619D01*
X150534761Y-127912857D01*
X150534761Y-128055714D01*
X150487142Y-128150952D01*
X150439523Y-128198571D01*
X150344285Y-128246190D01*
X149963333Y-128246190D01*
X150820476Y-127722380D02*
X151153809Y-128722380D01*
X151487142Y-127722380D01*
X152296666Y-127722380D02*
X151820476Y-127722380D01*
X151772857Y-128198571D01*
X151820476Y-128150952D01*
X151915714Y-128103333D01*
X152153809Y-128103333D01*
X152249047Y-128150952D01*
X152296666Y-128198571D01*
X152344285Y-128293809D01*
X152344285Y-128531904D01*
X152296666Y-128627142D01*
X152249047Y-128674761D01*
X152153809Y-128722380D01*
X151915714Y-128722380D01*
X151820476Y-128674761D01*
X151772857Y-128627142D01*
X201334761Y-90622380D02*
X201001428Y-90146190D01*
X200763333Y-90622380D02*
X200763333Y-89622380D01*
X201144285Y-89622380D01*
X201239523Y-89670000D01*
X201287142Y-89717619D01*
X201334761Y-89812857D01*
X201334761Y-89955714D01*
X201287142Y-90050952D01*
X201239523Y-90098571D01*
X201144285Y-90146190D01*
X200763333Y-90146190D01*
X201620476Y-89622380D02*
X201953809Y-90622380D01*
X202287142Y-89622380D01*
X203049047Y-89955714D02*
X203049047Y-90622380D01*
X202810952Y-89574761D02*
X202572857Y-90289047D01*
X203191904Y-90289047D01*
X201334761Y-52522380D02*
X201001428Y-52046190D01*
X200763333Y-52522380D02*
X200763333Y-51522380D01*
X201144285Y-51522380D01*
X201239523Y-51570000D01*
X201287142Y-51617619D01*
X201334761Y-51712857D01*
X201334761Y-51855714D01*
X201287142Y-51950952D01*
X201239523Y-51998571D01*
X201144285Y-52046190D01*
X200763333Y-52046190D01*
X201620476Y-51522380D02*
X201953809Y-52522380D01*
X202287142Y-51522380D01*
X202525238Y-51522380D02*
X203144285Y-51522380D01*
X202810952Y-51903333D01*
X202953809Y-51903333D01*
X203049047Y-51950952D01*
X203096666Y-51998571D01*
X203144285Y-52093809D01*
X203144285Y-52331904D01*
X203096666Y-52427142D01*
X203049047Y-52474761D01*
X202953809Y-52522380D01*
X202668095Y-52522380D01*
X202572857Y-52474761D01*
X202525238Y-52427142D01*
X150534761Y-90622380D02*
X150201428Y-90146190D01*
X149963333Y-90622380D02*
X149963333Y-89622380D01*
X150344285Y-89622380D01*
X150439523Y-89670000D01*
X150487142Y-89717619D01*
X150534761Y-89812857D01*
X150534761Y-89955714D01*
X150487142Y-90050952D01*
X150439523Y-90098571D01*
X150344285Y-90146190D01*
X149963333Y-90146190D01*
X150820476Y-89622380D02*
X151153809Y-90622380D01*
X151487142Y-89622380D01*
X151772857Y-89717619D02*
X151820476Y-89670000D01*
X151915714Y-89622380D01*
X152153809Y-89622380D01*
X152249047Y-89670000D01*
X152296666Y-89717619D01*
X152344285Y-89812857D01*
X152344285Y-89908095D01*
X152296666Y-90050952D01*
X151725238Y-90622380D01*
X152344285Y-90622380D01*
X150534761Y-52522380D02*
X150201428Y-52046190D01*
X149963333Y-52522380D02*
X149963333Y-51522380D01*
X150344285Y-51522380D01*
X150439523Y-51570000D01*
X150487142Y-51617619D01*
X150534761Y-51712857D01*
X150534761Y-51855714D01*
X150487142Y-51950952D01*
X150439523Y-51998571D01*
X150344285Y-52046190D01*
X149963333Y-52046190D01*
X150820476Y-51522380D02*
X151153809Y-52522380D01*
X151487142Y-51522380D01*
X152344285Y-52522380D02*
X151772857Y-52522380D01*
X152058571Y-52522380D02*
X152058571Y-51522380D01*
X151963333Y-51665238D01*
X151868095Y-51760476D01*
X151772857Y-51808095D01*
M02*
