M48
; DRILL file {KiCad 5.1.6-c6e7f7d~86~ubuntu18.04.1} date Sat Jun 20 09:49:24 2020
; FORMAT={-:-/ absolute / metric / decimal}
; #@! TF.CreationDate,2020-06-20T09:49:24-04:00
; #@! TF.GenerationSoftware,Kicad,Pcbnew,5.1.6-c6e7f7d~86~ubuntu18.04.1
; #@! TF.FileFunction,Plated,1,2,PTH
FMAT,2
METRIC
T1C0.800
T2C0.900
T3C1.000
T4C1.100
%
G90
G05
T1
X143.358Y-71.831
X148.96Y-69.277
X151.244Y-126.416
X152.73Y-71.069
X159.779Y-116.903
X160.363Y-128.689
X163.652Y-100.127
X164.694Y-134.048
X164.948Y-76.251
X165.735Y-89.04
X169.062Y-112.243
X172.263Y-86.258
X172.428Y-82.702
X172.517Y-111.658
X172.771Y-68.301
X177.013Y-137.871
X177.47Y-73.076
X178.562Y-61.849
X181.775Y-83.052
X185.725Y-123.317
X185.801Y-85.992
X186.08Y-76.784
X188.671Y-73.431
X189.179Y-100.305
X189.268Y-134.379
X189.497Y-92.786
X189.954Y-83.757
X192.964Y-128.27
X193.954Y-118.237
X194.589Y-108.064
X200.939Y-69.571
X201.498Y-82.525
X201.79Y-125.997
X162.56Y-127.0
X167.56Y-127.0
X160.02Y-74.93
X170.18Y-74.93
X162.56Y-120.65
X167.56Y-120.65
X185.5Y-80.01
X190.5Y-80.01
X129.032Y-86.868
X139.192Y-86.868
X160.02Y-85.09
X170.18Y-85.09
X164.465Y-61.635
X164.465Y-64.135
X198.12Y-121.92
X208.28Y-121.92
X149.352Y-76.708
X154.352Y-76.708
X185.5Y-69.85
X190.5Y-69.85
X160.02Y-90.17
X170.18Y-90.17
X160.02Y-137.16
X170.18Y-137.16
X182.88Y-110.49
X193.04Y-110.49
X141.732Y-81.788
X141.732Y-84.328
X141.732Y-86.868
X141.732Y-89.408
X149.352Y-81.788
X149.352Y-84.328
X149.352Y-86.868
X149.352Y-89.408
X172.72Y-115.57
X172.72Y-118.11
X172.72Y-120.65
X172.72Y-123.19
X180.34Y-115.57
X180.34Y-118.11
X180.34Y-120.65
X180.34Y-123.19
X185.5Y-115.57
X190.5Y-115.57
X182.88Y-90.17
X193.04Y-90.17
X144.78Y-111.76
X154.94Y-111.76
X185.5Y-120.65
X190.5Y-120.65
X172.72Y-128.27
X172.72Y-130.81
X172.72Y-133.35
X172.72Y-135.89
X180.34Y-128.27
X180.34Y-130.81
X180.34Y-133.35
X180.34Y-135.89
X160.02Y-132.08
X170.18Y-132.08
X160.02Y-110.49
X170.18Y-110.49
X131.652Y-91.948
X136.652Y-91.948
X160.02Y-100.33
X170.18Y-100.33
X160.02Y-105.41
X170.18Y-105.41
X144.78Y-116.84
X154.94Y-116.84
X144.78Y-121.92
X154.94Y-121.92
X172.72Y-90.17
X172.72Y-92.71
X172.72Y-95.25
X172.72Y-97.79
X172.72Y-100.33
X172.72Y-102.87
X172.72Y-105.41
X172.72Y-107.95
X180.34Y-90.17
X180.34Y-92.71
X180.34Y-95.25
X180.34Y-97.79
X180.34Y-100.33
X180.34Y-102.87
X180.34Y-105.41
X180.34Y-107.95
X195.58Y-147.32
X205.74Y-147.32
X182.88Y-100.33
X193.04Y-100.33
X198.12Y-111.76
X208.28Y-111.76
X147.32Y-147.32
X157.48Y-147.32
X162.56Y-115.57
X167.56Y-115.57
X182.88Y-132.08
X193.04Y-132.08
X182.88Y-74.93
X193.04Y-74.93
X131.572Y-76.708
X136.572Y-76.708
X160.02Y-95.25
X170.18Y-95.25
X164.465Y-53.975
X164.465Y-56.475
X129.032Y-81.788
X139.192Y-81.788
X162.56Y-69.85
X167.56Y-69.85
X185.5Y-127.0
X190.5Y-127.0
X196.85Y-85.09
X207.01Y-85.09
X162.56Y-80.01
X167.56Y-80.01
X198.12Y-116.84
X208.28Y-116.84
X172.72Y-71.12
X172.72Y-73.66
X172.72Y-76.2
X172.72Y-78.74
X180.34Y-71.12
X180.34Y-73.66
X180.34Y-76.2
X180.34Y-78.74
X182.88Y-85.09
X193.04Y-85.09
X182.88Y-95.25
X193.04Y-95.25
X182.88Y-137.16
X193.04Y-137.16
X182.88Y-105.41
X193.04Y-105.41
T2
X196.85Y-80.01
X207.01Y-80.01
T3
X148.59Y-104.14
X151.09Y-104.14
X153.59Y-104.14
X199.39Y-66.04
X201.89Y-66.04
X204.39Y-66.04
X199.39Y-104.14
X201.89Y-104.14
X204.39Y-104.14
X148.59Y-66.04
X151.09Y-66.04
X153.59Y-66.04
X132.08Y-58.42
X132.08Y-60.96
X132.08Y-63.5
X132.08Y-66.04
X132.08Y-68.58
X134.62Y-58.42
X134.62Y-60.96
X134.62Y-63.5
X134.62Y-66.04
X134.62Y-68.58
X148.59Y-142.24
X151.09Y-142.24
X153.59Y-142.24
X199.39Y-142.24
X201.89Y-142.24
X204.39Y-142.24
X132.08Y-144.78
X134.62Y-144.78
X137.16Y-144.78
X139.7Y-144.78
X142.24Y-144.78
X210.82Y-144.78
X213.36Y-144.78
X215.9Y-144.78
X218.44Y-144.78
X220.98Y-144.78
T4
G00X146.29Y-96.99
M15
G01X146.29Y-96.29
M16
G05
G00X155.89Y-96.99
M15
G01X155.89Y-96.29
M16
G05
G00X197.09Y-58.89
M15
G01X197.09Y-58.19
M16
G05
G00X206.69Y-58.89
M15
G01X206.69Y-58.19
M16
G05
G00X197.09Y-96.99
M15
G01X197.09Y-96.29
M16
G05
G00X206.69Y-96.99
M15
G01X206.69Y-96.29
M16
G05
G00X146.29Y-58.89
M15
G01X146.29Y-58.19
M16
G05
G00X155.89Y-58.89
M15
G01X155.89Y-58.19
M16
G05
G00X146.29Y-135.09
M15
G01X146.29Y-134.39
M16
G05
G00X155.89Y-135.09
M15
G01X155.89Y-134.39
M16
G05
G00X197.09Y-135.09
M15
G01X197.09Y-134.39
M16
G05
G00X206.69Y-135.09
M15
G01X206.69Y-134.39
M16
G05
T0
M30
