G04 #@! TF.GenerationSoftware,KiCad,Pcbnew,5.1.6-c6e7f7d~86~ubuntu18.04.1*
G04 #@! TF.CreationDate,2020-06-20T09:56:21-04:00*
G04 #@! TF.ProjectId,five_pulser_board,66697665-5f70-4756-9c73-65725f626f61,rev?*
G04 #@! TF.SameCoordinates,Original*
G04 #@! TF.FileFunction,Soldermask,Top*
G04 #@! TF.FilePolarity,Negative*
%FSLAX46Y46*%
G04 Gerber Fmt 4.6, Leading zero omitted, Abs format (unit mm)*
G04 Created by KiCad (PCBNEW 5.1.6-c6e7f7d~86~ubuntu18.04.1) date 2020-06-20 09:56:21*
%MOMM*%
%LPD*%
G01*
G04 APERTURE LIST*
%ADD10O,1.800000X1.800000*%
%ADD11R,1.800000X1.800000*%
%ADD12O,1.700000X1.700000*%
%ADD13R,1.700000X1.700000*%
%ADD14C,0.900000*%
%ADD15C,6.500000*%
%ADD16R,1.000000X1.300000*%
G04 APERTURE END LIST*
D10*
X113030000Y-50800000D03*
X110490000Y-50800000D03*
X113030000Y-53340000D03*
X110490000Y-53340000D03*
X113030000Y-55880000D03*
X110490000Y-55880000D03*
X113030000Y-58420000D03*
X110490000Y-58420000D03*
X113030000Y-60960000D03*
D11*
X110490000Y-60960000D03*
D10*
X82550000Y-105410000D03*
X80010000Y-105410000D03*
X82550000Y-102870000D03*
X80010000Y-102870000D03*
X82550000Y-100330000D03*
X80010000Y-100330000D03*
X82550000Y-97790000D03*
D11*
X80010000Y-97790000D03*
G36*
G01*
X105295000Y-101425000D02*
X105295000Y-101775000D01*
G75*
G02*
X105120000Y-101950000I-175000J0D01*
G01*
X103420000Y-101950000D01*
G75*
G02*
X103245000Y-101775000I0J175000D01*
G01*
X103245000Y-101425000D01*
G75*
G02*
X103420000Y-101250000I175000J0D01*
G01*
X105120000Y-101250000D01*
G75*
G02*
X105295000Y-101425000I0J-175000D01*
G01*
G37*
G36*
G01*
X105295000Y-100155000D02*
X105295000Y-100505000D01*
G75*
G02*
X105120000Y-100680000I-175000J0D01*
G01*
X103420000Y-100680000D01*
G75*
G02*
X103245000Y-100505000I0J175000D01*
G01*
X103245000Y-100155000D01*
G75*
G02*
X103420000Y-99980000I175000J0D01*
G01*
X105120000Y-99980000D01*
G75*
G02*
X105295000Y-100155000I0J-175000D01*
G01*
G37*
G36*
G01*
X105295000Y-98885000D02*
X105295000Y-99235000D01*
G75*
G02*
X105120000Y-99410000I-175000J0D01*
G01*
X103420000Y-99410000D01*
G75*
G02*
X103245000Y-99235000I0J175000D01*
G01*
X103245000Y-98885000D01*
G75*
G02*
X103420000Y-98710000I175000J0D01*
G01*
X105120000Y-98710000D01*
G75*
G02*
X105295000Y-98885000I0J-175000D01*
G01*
G37*
G36*
G01*
X105295000Y-97615000D02*
X105295000Y-97965000D01*
G75*
G02*
X105120000Y-98140000I-175000J0D01*
G01*
X103420000Y-98140000D01*
G75*
G02*
X103245000Y-97965000I0J175000D01*
G01*
X103245000Y-97615000D01*
G75*
G02*
X103420000Y-97440000I175000J0D01*
G01*
X105120000Y-97440000D01*
G75*
G02*
X105295000Y-97615000I0J-175000D01*
G01*
G37*
G36*
G01*
X110245000Y-97615000D02*
X110245000Y-97965000D01*
G75*
G02*
X110070000Y-98140000I-175000J0D01*
G01*
X108370000Y-98140000D01*
G75*
G02*
X108195000Y-97965000I0J175000D01*
G01*
X108195000Y-97615000D01*
G75*
G02*
X108370000Y-97440000I175000J0D01*
G01*
X110070000Y-97440000D01*
G75*
G02*
X110245000Y-97615000I0J-175000D01*
G01*
G37*
G36*
G01*
X110245000Y-98885000D02*
X110245000Y-99235000D01*
G75*
G02*
X110070000Y-99410000I-175000J0D01*
G01*
X108370000Y-99410000D01*
G75*
G02*
X108195000Y-99235000I0J175000D01*
G01*
X108195000Y-98885000D01*
G75*
G02*
X108370000Y-98710000I175000J0D01*
G01*
X110070000Y-98710000D01*
G75*
G02*
X110245000Y-98885000I0J-175000D01*
G01*
G37*
G36*
G01*
X110245000Y-100155000D02*
X110245000Y-100505000D01*
G75*
G02*
X110070000Y-100680000I-175000J0D01*
G01*
X108370000Y-100680000D01*
G75*
G02*
X108195000Y-100505000I0J175000D01*
G01*
X108195000Y-100155000D01*
G75*
G02*
X108370000Y-99980000I175000J0D01*
G01*
X110070000Y-99980000D01*
G75*
G02*
X110245000Y-100155000I0J-175000D01*
G01*
G37*
G36*
G01*
X110245000Y-101425000D02*
X110245000Y-101775000D01*
G75*
G02*
X110070000Y-101950000I-175000J0D01*
G01*
X108370000Y-101950000D01*
G75*
G02*
X108195000Y-101775000I0J175000D01*
G01*
X108195000Y-101425000D01*
G75*
G02*
X108370000Y-101250000I175000J0D01*
G01*
X110070000Y-101250000D01*
G75*
G02*
X110245000Y-101425000I0J-175000D01*
G01*
G37*
D12*
X91440000Y-87630000D03*
X99060000Y-67310000D03*
X91440000Y-85090000D03*
X99060000Y-69850000D03*
X91440000Y-82550000D03*
X99060000Y-72390000D03*
X91440000Y-80010000D03*
X99060000Y-74930000D03*
X91440000Y-77470000D03*
X99060000Y-77470000D03*
X91440000Y-74930000D03*
X99060000Y-80010000D03*
X91440000Y-72390000D03*
X99060000Y-82550000D03*
X91440000Y-69850000D03*
X99060000Y-85090000D03*
X91440000Y-67310000D03*
D13*
X99060000Y-87630000D03*
G36*
G01*
X93735000Y-54435000D02*
X93735000Y-54785000D01*
G75*
G02*
X93560000Y-54960000I-175000J0D01*
G01*
X91860000Y-54960000D01*
G75*
G02*
X91685000Y-54785000I0J175000D01*
G01*
X91685000Y-54435000D01*
G75*
G02*
X91860000Y-54260000I175000J0D01*
G01*
X93560000Y-54260000D01*
G75*
G02*
X93735000Y-54435000I0J-175000D01*
G01*
G37*
G36*
G01*
X93735000Y-53165000D02*
X93735000Y-53515000D01*
G75*
G02*
X93560000Y-53690000I-175000J0D01*
G01*
X91860000Y-53690000D01*
G75*
G02*
X91685000Y-53515000I0J175000D01*
G01*
X91685000Y-53165000D01*
G75*
G02*
X91860000Y-52990000I175000J0D01*
G01*
X93560000Y-52990000D01*
G75*
G02*
X93735000Y-53165000I0J-175000D01*
G01*
G37*
G36*
G01*
X93735000Y-51895000D02*
X93735000Y-52245000D01*
G75*
G02*
X93560000Y-52420000I-175000J0D01*
G01*
X91860000Y-52420000D01*
G75*
G02*
X91685000Y-52245000I0J175000D01*
G01*
X91685000Y-51895000D01*
G75*
G02*
X91860000Y-51720000I175000J0D01*
G01*
X93560000Y-51720000D01*
G75*
G02*
X93735000Y-51895000I0J-175000D01*
G01*
G37*
G36*
G01*
X93735000Y-50625000D02*
X93735000Y-50975000D01*
G75*
G02*
X93560000Y-51150000I-175000J0D01*
G01*
X91860000Y-51150000D01*
G75*
G02*
X91685000Y-50975000I0J175000D01*
G01*
X91685000Y-50625000D01*
G75*
G02*
X91860000Y-50450000I175000J0D01*
G01*
X93560000Y-50450000D01*
G75*
G02*
X93735000Y-50625000I0J-175000D01*
G01*
G37*
G36*
G01*
X98685000Y-50625000D02*
X98685000Y-50975000D01*
G75*
G02*
X98510000Y-51150000I-175000J0D01*
G01*
X96810000Y-51150000D01*
G75*
G02*
X96635000Y-50975000I0J175000D01*
G01*
X96635000Y-50625000D01*
G75*
G02*
X96810000Y-50450000I175000J0D01*
G01*
X98510000Y-50450000D01*
G75*
G02*
X98685000Y-50625000I0J-175000D01*
G01*
G37*
G36*
G01*
X98685000Y-51895000D02*
X98685000Y-52245000D01*
G75*
G02*
X98510000Y-52420000I-175000J0D01*
G01*
X96810000Y-52420000D01*
G75*
G02*
X96635000Y-52245000I0J175000D01*
G01*
X96635000Y-51895000D01*
G75*
G02*
X96810000Y-51720000I175000J0D01*
G01*
X98510000Y-51720000D01*
G75*
G02*
X98685000Y-51895000I0J-175000D01*
G01*
G37*
G36*
G01*
X98685000Y-53165000D02*
X98685000Y-53515000D01*
G75*
G02*
X98510000Y-53690000I-175000J0D01*
G01*
X96810000Y-53690000D01*
G75*
G02*
X96635000Y-53515000I0J175000D01*
G01*
X96635000Y-53165000D01*
G75*
G02*
X96810000Y-52990000I175000J0D01*
G01*
X98510000Y-52990000D01*
G75*
G02*
X98685000Y-53165000I0J-175000D01*
G01*
G37*
G36*
G01*
X98685000Y-54435000D02*
X98685000Y-54785000D01*
G75*
G02*
X98510000Y-54960000I-175000J0D01*
G01*
X96810000Y-54960000D01*
G75*
G02*
X96635000Y-54785000I0J175000D01*
G01*
X96635000Y-54435000D01*
G75*
G02*
X96810000Y-54260000I175000J0D01*
G01*
X98510000Y-54260000D01*
G75*
G02*
X98685000Y-54435000I0J-175000D01*
G01*
G37*
G36*
G01*
X100984000Y-108682262D02*
X100984000Y-107725738D01*
G75*
G02*
X101255738Y-107454000I271738J0D01*
G01*
X101962262Y-107454000D01*
G75*
G02*
X102234000Y-107725738I0J-271738D01*
G01*
X102234000Y-108682262D01*
G75*
G02*
X101962262Y-108954000I-271738J0D01*
G01*
X101255738Y-108954000D01*
G75*
G02*
X100984000Y-108682262I0J271738D01*
G01*
G37*
G36*
G01*
X98934000Y-108682262D02*
X98934000Y-107725738D01*
G75*
G02*
X99205738Y-107454000I271738J0D01*
G01*
X99912262Y-107454000D01*
G75*
G02*
X100184000Y-107725738I0J-271738D01*
G01*
X100184000Y-108682262D01*
G75*
G02*
X99912262Y-108954000I-271738J0D01*
G01*
X99205738Y-108954000D01*
G75*
G02*
X98934000Y-108682262I0J271738D01*
G01*
G37*
G36*
G01*
X100975000Y-100808262D02*
X100975000Y-99851738D01*
G75*
G02*
X101246738Y-99580000I271738J0D01*
G01*
X101953262Y-99580000D01*
G75*
G02*
X102225000Y-99851738I0J-271738D01*
G01*
X102225000Y-100808262D01*
G75*
G02*
X101953262Y-101080000I-271738J0D01*
G01*
X101246738Y-101080000D01*
G75*
G02*
X100975000Y-100808262I0J271738D01*
G01*
G37*
G36*
G01*
X98925000Y-100808262D02*
X98925000Y-99851738D01*
G75*
G02*
X99196738Y-99580000I271738J0D01*
G01*
X99903262Y-99580000D01*
G75*
G02*
X100175000Y-99851738I0J-271738D01*
G01*
X100175000Y-100808262D01*
G75*
G02*
X99903262Y-101080000I-271738J0D01*
G01*
X99196738Y-101080000D01*
G75*
G02*
X98925000Y-100808262I0J271738D01*
G01*
G37*
G36*
G01*
X100975000Y-98268262D02*
X100975000Y-97311738D01*
G75*
G02*
X101246738Y-97040000I271738J0D01*
G01*
X101953262Y-97040000D01*
G75*
G02*
X102225000Y-97311738I0J-271738D01*
G01*
X102225000Y-98268262D01*
G75*
G02*
X101953262Y-98540000I-271738J0D01*
G01*
X101246738Y-98540000D01*
G75*
G02*
X100975000Y-98268262I0J271738D01*
G01*
G37*
G36*
G01*
X98925000Y-98268262D02*
X98925000Y-97311738D01*
G75*
G02*
X99196738Y-97040000I271738J0D01*
G01*
X99903262Y-97040000D01*
G75*
G02*
X100175000Y-97311738I0J-271738D01*
G01*
X100175000Y-98268262D01*
G75*
G02*
X99903262Y-98540000I-271738J0D01*
G01*
X99196738Y-98540000D01*
G75*
G02*
X98925000Y-98268262I0J271738D01*
G01*
G37*
G36*
G01*
X100175000Y-94771738D02*
X100175000Y-95728262D01*
G75*
G02*
X99903262Y-96000000I-271738J0D01*
G01*
X99196738Y-96000000D01*
G75*
G02*
X98925000Y-95728262I0J271738D01*
G01*
X98925000Y-94771738D01*
G75*
G02*
X99196738Y-94500000I271738J0D01*
G01*
X99903262Y-94500000D01*
G75*
G02*
X100175000Y-94771738I0J-271738D01*
G01*
G37*
G36*
G01*
X102225000Y-94771738D02*
X102225000Y-95728262D01*
G75*
G02*
X101953262Y-96000000I-271738J0D01*
G01*
X101246738Y-96000000D01*
G75*
G02*
X100975000Y-95728262I0J271738D01*
G01*
X100975000Y-94771738D01*
G75*
G02*
X101246738Y-94500000I271738J0D01*
G01*
X101953262Y-94500000D01*
G75*
G02*
X102225000Y-94771738I0J-271738D01*
G01*
G37*
G36*
G01*
X86477000Y-108741738D02*
X86477000Y-109698262D01*
G75*
G02*
X86205262Y-109970000I-271738J0D01*
G01*
X85498738Y-109970000D01*
G75*
G02*
X85227000Y-109698262I0J271738D01*
G01*
X85227000Y-108741738D01*
G75*
G02*
X85498738Y-108470000I271738J0D01*
G01*
X86205262Y-108470000D01*
G75*
G02*
X86477000Y-108741738I0J-271738D01*
G01*
G37*
G36*
G01*
X88527000Y-108741738D02*
X88527000Y-109698262D01*
G75*
G02*
X88255262Y-109970000I-271738J0D01*
G01*
X87548738Y-109970000D01*
G75*
G02*
X87277000Y-109698262I0J271738D01*
G01*
X87277000Y-108741738D01*
G75*
G02*
X87548738Y-108470000I271738J0D01*
G01*
X88255262Y-108470000D01*
G75*
G02*
X88527000Y-108741738I0J-271738D01*
G01*
G37*
G36*
G01*
X87277000Y-107666262D02*
X87277000Y-106709738D01*
G75*
G02*
X87548738Y-106438000I271738J0D01*
G01*
X88255262Y-106438000D01*
G75*
G02*
X88527000Y-106709738I0J-271738D01*
G01*
X88527000Y-107666262D01*
G75*
G02*
X88255262Y-107938000I-271738J0D01*
G01*
X87548738Y-107938000D01*
G75*
G02*
X87277000Y-107666262I0J271738D01*
G01*
G37*
G36*
G01*
X85227000Y-107666262D02*
X85227000Y-106709738D01*
G75*
G02*
X85498738Y-106438000I271738J0D01*
G01*
X86205262Y-106438000D01*
G75*
G02*
X86477000Y-106709738I0J-271738D01*
G01*
X86477000Y-107666262D01*
G75*
G02*
X86205262Y-107938000I-271738J0D01*
G01*
X85498738Y-107938000D01*
G75*
G02*
X85227000Y-107666262I0J271738D01*
G01*
G37*
G36*
G01*
X86477000Y-104677738D02*
X86477000Y-105634262D01*
G75*
G02*
X86205262Y-105906000I-271738J0D01*
G01*
X85498738Y-105906000D01*
G75*
G02*
X85227000Y-105634262I0J271738D01*
G01*
X85227000Y-104677738D01*
G75*
G02*
X85498738Y-104406000I271738J0D01*
G01*
X86205262Y-104406000D01*
G75*
G02*
X86477000Y-104677738I0J-271738D01*
G01*
G37*
G36*
G01*
X88527000Y-104677738D02*
X88527000Y-105634262D01*
G75*
G02*
X88255262Y-105906000I-271738J0D01*
G01*
X87548738Y-105906000D01*
G75*
G02*
X87277000Y-105634262I0J271738D01*
G01*
X87277000Y-104677738D01*
G75*
G02*
X87548738Y-104406000I271738J0D01*
G01*
X88255262Y-104406000D01*
G75*
G02*
X88527000Y-104677738I0J-271738D01*
G01*
G37*
G36*
G01*
X87277000Y-103602262D02*
X87277000Y-102645738D01*
G75*
G02*
X87548738Y-102374000I271738J0D01*
G01*
X88255262Y-102374000D01*
G75*
G02*
X88527000Y-102645738I0J-271738D01*
G01*
X88527000Y-103602262D01*
G75*
G02*
X88255262Y-103874000I-271738J0D01*
G01*
X87548738Y-103874000D01*
G75*
G02*
X87277000Y-103602262I0J271738D01*
G01*
G37*
G36*
G01*
X85227000Y-103602262D02*
X85227000Y-102645738D01*
G75*
G02*
X85498738Y-102374000I271738J0D01*
G01*
X86205262Y-102374000D01*
G75*
G02*
X86477000Y-102645738I0J-271738D01*
G01*
X86477000Y-103602262D01*
G75*
G02*
X86205262Y-103874000I-271738J0D01*
G01*
X85498738Y-103874000D01*
G75*
G02*
X85227000Y-103602262I0J271738D01*
G01*
G37*
G36*
G01*
X86459000Y-100613738D02*
X86459000Y-101570262D01*
G75*
G02*
X86187262Y-101842000I-271738J0D01*
G01*
X85480738Y-101842000D01*
G75*
G02*
X85209000Y-101570262I0J271738D01*
G01*
X85209000Y-100613738D01*
G75*
G02*
X85480738Y-100342000I271738J0D01*
G01*
X86187262Y-100342000D01*
G75*
G02*
X86459000Y-100613738I0J-271738D01*
G01*
G37*
G36*
G01*
X88509000Y-100613738D02*
X88509000Y-101570262D01*
G75*
G02*
X88237262Y-101842000I-271738J0D01*
G01*
X87530738Y-101842000D01*
G75*
G02*
X87259000Y-101570262I0J271738D01*
G01*
X87259000Y-100613738D01*
G75*
G02*
X87530738Y-100342000I271738J0D01*
G01*
X88237262Y-100342000D01*
G75*
G02*
X88509000Y-100613738I0J-271738D01*
G01*
G37*
G36*
G01*
X87259000Y-99538262D02*
X87259000Y-98581738D01*
G75*
G02*
X87530738Y-98310000I271738J0D01*
G01*
X88237262Y-98310000D01*
G75*
G02*
X88509000Y-98581738I0J-271738D01*
G01*
X88509000Y-99538262D01*
G75*
G02*
X88237262Y-99810000I-271738J0D01*
G01*
X87530738Y-99810000D01*
G75*
G02*
X87259000Y-99538262I0J271738D01*
G01*
G37*
G36*
G01*
X85209000Y-99538262D02*
X85209000Y-98581738D01*
G75*
G02*
X85480738Y-98310000I271738J0D01*
G01*
X86187262Y-98310000D01*
G75*
G02*
X86459000Y-98581738I0J-271738D01*
G01*
X86459000Y-99538262D01*
G75*
G02*
X86187262Y-99810000I-271738J0D01*
G01*
X85480738Y-99810000D01*
G75*
G02*
X85209000Y-99538262I0J271738D01*
G01*
G37*
G36*
G01*
X86477000Y-96549738D02*
X86477000Y-97506262D01*
G75*
G02*
X86205262Y-97778000I-271738J0D01*
G01*
X85498738Y-97778000D01*
G75*
G02*
X85227000Y-97506262I0J271738D01*
G01*
X85227000Y-96549738D01*
G75*
G02*
X85498738Y-96278000I271738J0D01*
G01*
X86205262Y-96278000D01*
G75*
G02*
X86477000Y-96549738I0J-271738D01*
G01*
G37*
G36*
G01*
X88527000Y-96549738D02*
X88527000Y-97506262D01*
G75*
G02*
X88255262Y-97778000I-271738J0D01*
G01*
X87548738Y-97778000D01*
G75*
G02*
X87277000Y-97506262I0J271738D01*
G01*
X87277000Y-96549738D01*
G75*
G02*
X87548738Y-96278000I271738J0D01*
G01*
X88255262Y-96278000D01*
G75*
G02*
X88527000Y-96549738I0J-271738D01*
G01*
G37*
G36*
G01*
X87277000Y-95474262D02*
X87277000Y-94517738D01*
G75*
G02*
X87548738Y-94246000I271738J0D01*
G01*
X88255262Y-94246000D01*
G75*
G02*
X88527000Y-94517738I0J-271738D01*
G01*
X88527000Y-95474262D01*
G75*
G02*
X88255262Y-95746000I-271738J0D01*
G01*
X87548738Y-95746000D01*
G75*
G02*
X87277000Y-95474262I0J271738D01*
G01*
G37*
G36*
G01*
X85227000Y-95474262D02*
X85227000Y-94517738D01*
G75*
G02*
X85498738Y-94246000I271738J0D01*
G01*
X86205262Y-94246000D01*
G75*
G02*
X86477000Y-94517738I0J-271738D01*
G01*
X86477000Y-95474262D01*
G75*
G02*
X86205262Y-95746000I-271738J0D01*
G01*
X85498738Y-95746000D01*
G75*
G02*
X85227000Y-95474262I0J271738D01*
G01*
G37*
G36*
G01*
X86477000Y-92485738D02*
X86477000Y-93442262D01*
G75*
G02*
X86205262Y-93714000I-271738J0D01*
G01*
X85498738Y-93714000D01*
G75*
G02*
X85227000Y-93442262I0J271738D01*
G01*
X85227000Y-92485738D01*
G75*
G02*
X85498738Y-92214000I271738J0D01*
G01*
X86205262Y-92214000D01*
G75*
G02*
X86477000Y-92485738I0J-271738D01*
G01*
G37*
G36*
G01*
X88527000Y-92485738D02*
X88527000Y-93442262D01*
G75*
G02*
X88255262Y-93714000I-271738J0D01*
G01*
X87548738Y-93714000D01*
G75*
G02*
X87277000Y-93442262I0J271738D01*
G01*
X87277000Y-92485738D01*
G75*
G02*
X87548738Y-92214000I271738J0D01*
G01*
X88255262Y-92214000D01*
G75*
G02*
X88527000Y-92485738I0J-271738D01*
G01*
G37*
G36*
G01*
X87277000Y-91410262D02*
X87277000Y-90453738D01*
G75*
G02*
X87548738Y-90182000I271738J0D01*
G01*
X88255262Y-90182000D01*
G75*
G02*
X88527000Y-90453738I0J-271738D01*
G01*
X88527000Y-91410262D01*
G75*
G02*
X88255262Y-91682000I-271738J0D01*
G01*
X87548738Y-91682000D01*
G75*
G02*
X87277000Y-91410262I0J271738D01*
G01*
G37*
G36*
G01*
X85227000Y-91410262D02*
X85227000Y-90453738D01*
G75*
G02*
X85498738Y-90182000I271738J0D01*
G01*
X86205262Y-90182000D01*
G75*
G02*
X86477000Y-90453738I0J-271738D01*
G01*
X86477000Y-91410262D01*
G75*
G02*
X86205262Y-91682000I-271738J0D01*
G01*
X85498738Y-91682000D01*
G75*
G02*
X85227000Y-91410262I0J271738D01*
G01*
G37*
G36*
G01*
X103025000Y-72868262D02*
X103025000Y-71911738D01*
G75*
G02*
X103296738Y-71640000I271738J0D01*
G01*
X104003262Y-71640000D01*
G75*
G02*
X104275000Y-71911738I0J-271738D01*
G01*
X104275000Y-72868262D01*
G75*
G02*
X104003262Y-73140000I-271738J0D01*
G01*
X103296738Y-73140000D01*
G75*
G02*
X103025000Y-72868262I0J271738D01*
G01*
G37*
G36*
G01*
X100975000Y-72868262D02*
X100975000Y-71911738D01*
G75*
G02*
X101246738Y-71640000I271738J0D01*
G01*
X101953262Y-71640000D01*
G75*
G02*
X102225000Y-71911738I0J-271738D01*
G01*
X102225000Y-72868262D01*
G75*
G02*
X101953262Y-73140000I-271738J0D01*
G01*
X101246738Y-73140000D01*
G75*
G02*
X100975000Y-72868262I0J271738D01*
G01*
G37*
G36*
G01*
X101336000Y-52861738D02*
X101336000Y-53818262D01*
G75*
G02*
X101064262Y-54090000I-271738J0D01*
G01*
X100357738Y-54090000D01*
G75*
G02*
X100086000Y-53818262I0J271738D01*
G01*
X100086000Y-52861738D01*
G75*
G02*
X100357738Y-52590000I271738J0D01*
G01*
X101064262Y-52590000D01*
G75*
G02*
X101336000Y-52861738I0J-271738D01*
G01*
G37*
G36*
G01*
X103386000Y-52861738D02*
X103386000Y-53818262D01*
G75*
G02*
X103114262Y-54090000I-271738J0D01*
G01*
X102407738Y-54090000D01*
G75*
G02*
X102136000Y-53818262I0J271738D01*
G01*
X102136000Y-52861738D01*
G75*
G02*
X102407738Y-52590000I271738J0D01*
G01*
X103114262Y-52590000D01*
G75*
G02*
X103386000Y-52861738I0J-271738D01*
G01*
G37*
G36*
G01*
X89164000Y-52548262D02*
X89164000Y-51591738D01*
G75*
G02*
X89435738Y-51320000I271738J0D01*
G01*
X90142262Y-51320000D01*
G75*
G02*
X90414000Y-51591738I0J-271738D01*
G01*
X90414000Y-52548262D01*
G75*
G02*
X90142262Y-52820000I-271738J0D01*
G01*
X89435738Y-52820000D01*
G75*
G02*
X89164000Y-52548262I0J271738D01*
G01*
G37*
G36*
G01*
X87114000Y-52548262D02*
X87114000Y-51591738D01*
G75*
G02*
X87385738Y-51320000I271738J0D01*
G01*
X88092262Y-51320000D01*
G75*
G02*
X88364000Y-51591738I0J-271738D01*
G01*
X88364000Y-52548262D01*
G75*
G02*
X88092262Y-52820000I-271738J0D01*
G01*
X87385738Y-52820000D01*
G75*
G02*
X87114000Y-52548262I0J271738D01*
G01*
G37*
G36*
G01*
X102136000Y-51278262D02*
X102136000Y-50321738D01*
G75*
G02*
X102407738Y-50050000I271738J0D01*
G01*
X103114262Y-50050000D01*
G75*
G02*
X103386000Y-50321738I0J-271738D01*
G01*
X103386000Y-51278262D01*
G75*
G02*
X103114262Y-51550000I-271738J0D01*
G01*
X102407738Y-51550000D01*
G75*
G02*
X102136000Y-51278262I0J271738D01*
G01*
G37*
G36*
G01*
X100086000Y-51278262D02*
X100086000Y-50321738D01*
G75*
G02*
X100357738Y-50050000I271738J0D01*
G01*
X101064262Y-50050000D01*
G75*
G02*
X101336000Y-50321738I0J-271738D01*
G01*
X101336000Y-51278262D01*
G75*
G02*
X101064262Y-51550000I-271738J0D01*
G01*
X100357738Y-51550000D01*
G75*
G02*
X100086000Y-51278262I0J271738D01*
G01*
G37*
G36*
G01*
X88364000Y-49305738D02*
X88364000Y-50262262D01*
G75*
G02*
X88092262Y-50534000I-271738J0D01*
G01*
X87385738Y-50534000D01*
G75*
G02*
X87114000Y-50262262I0J271738D01*
G01*
X87114000Y-49305738D01*
G75*
G02*
X87385738Y-49034000I271738J0D01*
G01*
X88092262Y-49034000D01*
G75*
G02*
X88364000Y-49305738I0J-271738D01*
G01*
G37*
G36*
G01*
X90414000Y-49305738D02*
X90414000Y-50262262D01*
G75*
G02*
X90142262Y-50534000I-271738J0D01*
G01*
X89435738Y-50534000D01*
G75*
G02*
X89164000Y-50262262I0J271738D01*
G01*
X89164000Y-49305738D01*
G75*
G02*
X89435738Y-49034000I271738J0D01*
G01*
X90142262Y-49034000D01*
G75*
G02*
X90414000Y-49305738I0J-271738D01*
G01*
G37*
G36*
G01*
X88373000Y-46765738D02*
X88373000Y-47722262D01*
G75*
G02*
X88101262Y-47994000I-271738J0D01*
G01*
X87394738Y-47994000D01*
G75*
G02*
X87123000Y-47722262I0J271738D01*
G01*
X87123000Y-46765738D01*
G75*
G02*
X87394738Y-46494000I271738J0D01*
G01*
X88101262Y-46494000D01*
G75*
G02*
X88373000Y-46765738I0J-271738D01*
G01*
G37*
G36*
G01*
X90423000Y-46765738D02*
X90423000Y-47722262D01*
G75*
G02*
X90151262Y-47994000I-271738J0D01*
G01*
X89444738Y-47994000D01*
G75*
G02*
X89173000Y-47722262I0J271738D01*
G01*
X89173000Y-46765738D01*
G75*
G02*
X89444738Y-46494000I271738J0D01*
G01*
X90151262Y-46494000D01*
G75*
G02*
X90423000Y-46765738I0J-271738D01*
G01*
G37*
G36*
G01*
X88364000Y-44225738D02*
X88364000Y-45182262D01*
G75*
G02*
X88092262Y-45454000I-271738J0D01*
G01*
X87385738Y-45454000D01*
G75*
G02*
X87114000Y-45182262I0J271738D01*
G01*
X87114000Y-44225738D01*
G75*
G02*
X87385738Y-43954000I271738J0D01*
G01*
X88092262Y-43954000D01*
G75*
G02*
X88364000Y-44225738I0J-271738D01*
G01*
G37*
G36*
G01*
X90414000Y-44225738D02*
X90414000Y-45182262D01*
G75*
G02*
X90142262Y-45454000I-271738J0D01*
G01*
X89435738Y-45454000D01*
G75*
G02*
X89164000Y-45182262I0J271738D01*
G01*
X89164000Y-44225738D01*
G75*
G02*
X89435738Y-43954000I271738J0D01*
G01*
X90142262Y-43954000D01*
G75*
G02*
X90414000Y-44225738I0J-271738D01*
G01*
G37*
G36*
G01*
X101336000Y-47781738D02*
X101336000Y-48738262D01*
G75*
G02*
X101064262Y-49010000I-271738J0D01*
G01*
X100357738Y-49010000D01*
G75*
G02*
X100086000Y-48738262I0J271738D01*
G01*
X100086000Y-47781738D01*
G75*
G02*
X100357738Y-47510000I271738J0D01*
G01*
X101064262Y-47510000D01*
G75*
G02*
X101336000Y-47781738I0J-271738D01*
G01*
G37*
G36*
G01*
X103386000Y-47781738D02*
X103386000Y-48738262D01*
G75*
G02*
X103114262Y-49010000I-271738J0D01*
G01*
X102407738Y-49010000D01*
G75*
G02*
X102136000Y-48738262I0J271738D01*
G01*
X102136000Y-47781738D01*
G75*
G02*
X102407738Y-47510000I271738J0D01*
G01*
X103114262Y-47510000D01*
G75*
G02*
X103386000Y-47781738I0J-271738D01*
G01*
G37*
G36*
G01*
X101336000Y-45241738D02*
X101336000Y-46198262D01*
G75*
G02*
X101064262Y-46470000I-271738J0D01*
G01*
X100357738Y-46470000D01*
G75*
G02*
X100086000Y-46198262I0J271738D01*
G01*
X100086000Y-45241738D01*
G75*
G02*
X100357738Y-44970000I271738J0D01*
G01*
X101064262Y-44970000D01*
G75*
G02*
X101336000Y-45241738I0J-271738D01*
G01*
G37*
G36*
G01*
X103386000Y-45241738D02*
X103386000Y-46198262D01*
G75*
G02*
X103114262Y-46470000I-271738J0D01*
G01*
X102407738Y-46470000D01*
G75*
G02*
X102136000Y-46198262I0J271738D01*
G01*
X102136000Y-45241738D01*
G75*
G02*
X102407738Y-44970000I271738J0D01*
G01*
X103114262Y-44970000D01*
G75*
G02*
X103386000Y-45241738I0J-271738D01*
G01*
G37*
G36*
G01*
X81887000Y-49305738D02*
X81887000Y-50262262D01*
G75*
G02*
X81615262Y-50534000I-271738J0D01*
G01*
X80908738Y-50534000D01*
G75*
G02*
X80637000Y-50262262I0J271738D01*
G01*
X80637000Y-49305738D01*
G75*
G02*
X80908738Y-49034000I271738J0D01*
G01*
X81615262Y-49034000D01*
G75*
G02*
X81887000Y-49305738I0J-271738D01*
G01*
G37*
G36*
G01*
X83937000Y-49305738D02*
X83937000Y-50262262D01*
G75*
G02*
X83665262Y-50534000I-271738J0D01*
G01*
X82958738Y-50534000D01*
G75*
G02*
X82687000Y-50262262I0J271738D01*
G01*
X82687000Y-49305738D01*
G75*
G02*
X82958738Y-49034000I271738J0D01*
G01*
X83665262Y-49034000D01*
G75*
G02*
X83937000Y-49305738I0J-271738D01*
G01*
G37*
D10*
X97790000Y-113030000D03*
D11*
X95250000Y-113030000D03*
D10*
X113030000Y-99060000D03*
X113030000Y-96520000D03*
D11*
X113030000Y-93980000D03*
D10*
X113030000Y-114300000D03*
X113030000Y-111760000D03*
X113030000Y-109220000D03*
X113030000Y-106680000D03*
D11*
X113030000Y-104140000D03*
D14*
X82977056Y-41482944D03*
X81280000Y-40780000D03*
X79582944Y-41482944D03*
X78880000Y-43180000D03*
X79582944Y-44877056D03*
X81280000Y-45580000D03*
X82977056Y-44877056D03*
X83680000Y-43180000D03*
D15*
X81280000Y-43180000D03*
D14*
X82977056Y-110062944D03*
X81280000Y-109360000D03*
X79582944Y-110062944D03*
X78880000Y-111760000D03*
X79582944Y-113457056D03*
X81280000Y-114160000D03*
X82977056Y-113457056D03*
X83680000Y-111760000D03*
D15*
X81280000Y-111760000D03*
D16*
X101980000Y-105410000D03*
X98680000Y-105410000D03*
X101980000Y-102870000D03*
X98680000Y-102870000D03*
X86489000Y-56896000D03*
X89789000Y-56896000D03*
X80012000Y-54610000D03*
X83312000Y-54610000D03*
X80012000Y-52070000D03*
X83312000Y-52070000D03*
G36*
G01*
X105565000Y-108682262D02*
X105565000Y-107725738D01*
G75*
G02*
X105836738Y-107454000I271738J0D01*
G01*
X106543262Y-107454000D01*
G75*
G02*
X106815000Y-107725738I0J-271738D01*
G01*
X106815000Y-108682262D01*
G75*
G02*
X106543262Y-108954000I-271738J0D01*
G01*
X105836738Y-108954000D01*
G75*
G02*
X105565000Y-108682262I0J271738D01*
G01*
G37*
G36*
G01*
X103515000Y-108682262D02*
X103515000Y-107725738D01*
G75*
G02*
X103786738Y-107454000I271738J0D01*
G01*
X104493262Y-107454000D01*
G75*
G02*
X104765000Y-107725738I0J-271738D01*
G01*
X104765000Y-108682262D01*
G75*
G02*
X104493262Y-108954000I-271738J0D01*
G01*
X103786738Y-108954000D01*
G75*
G02*
X103515000Y-108682262I0J271738D01*
G01*
G37*
G36*
G01*
X103025000Y-83028262D02*
X103025000Y-82071738D01*
G75*
G02*
X103296738Y-81800000I271738J0D01*
G01*
X104003262Y-81800000D01*
G75*
G02*
X104275000Y-82071738I0J-271738D01*
G01*
X104275000Y-83028262D01*
G75*
G02*
X104003262Y-83300000I-271738J0D01*
G01*
X103296738Y-83300000D01*
G75*
G02*
X103025000Y-83028262I0J271738D01*
G01*
G37*
G36*
G01*
X100975000Y-83028262D02*
X100975000Y-82071738D01*
G75*
G02*
X101246738Y-81800000I271738J0D01*
G01*
X101953262Y-81800000D01*
G75*
G02*
X102225000Y-82071738I0J-271738D01*
G01*
X102225000Y-83028262D01*
G75*
G02*
X101953262Y-83300000I-271738J0D01*
G01*
X101246738Y-83300000D01*
G75*
G02*
X100975000Y-83028262I0J271738D01*
G01*
G37*
G36*
G01*
X108350000Y-95728262D02*
X108350000Y-94771738D01*
G75*
G02*
X108621738Y-94500000I271738J0D01*
G01*
X109328262Y-94500000D01*
G75*
G02*
X109600000Y-94771738I0J-271738D01*
G01*
X109600000Y-95728262D01*
G75*
G02*
X109328262Y-96000000I-271738J0D01*
G01*
X108621738Y-96000000D01*
G75*
G02*
X108350000Y-95728262I0J271738D01*
G01*
G37*
G36*
G01*
X106300000Y-95728262D02*
X106300000Y-94771738D01*
G75*
G02*
X106571738Y-94500000I271738J0D01*
G01*
X107278262Y-94500000D01*
G75*
G02*
X107550000Y-94771738I0J-271738D01*
G01*
X107550000Y-95728262D01*
G75*
G02*
X107278262Y-96000000I-271738J0D01*
G01*
X106571738Y-96000000D01*
G75*
G02*
X106300000Y-95728262I0J271738D01*
G01*
G37*
G36*
G01*
X105565000Y-105888262D02*
X105565000Y-104931738D01*
G75*
G02*
X105836738Y-104660000I271738J0D01*
G01*
X106543262Y-104660000D01*
G75*
G02*
X106815000Y-104931738I0J-271738D01*
G01*
X106815000Y-105888262D01*
G75*
G02*
X106543262Y-106160000I-271738J0D01*
G01*
X105836738Y-106160000D01*
G75*
G02*
X105565000Y-105888262I0J271738D01*
G01*
G37*
G36*
G01*
X103515000Y-105888262D02*
X103515000Y-104931738D01*
G75*
G02*
X103786738Y-104660000I271738J0D01*
G01*
X104493262Y-104660000D01*
G75*
G02*
X104765000Y-104931738I0J-271738D01*
G01*
X104765000Y-105888262D01*
G75*
G02*
X104493262Y-106160000I-271738J0D01*
G01*
X103786738Y-106160000D01*
G75*
G02*
X103515000Y-105888262I0J271738D01*
G01*
G37*
G36*
G01*
X89164000Y-54834262D02*
X89164000Y-53877738D01*
G75*
G02*
X89435738Y-53606000I271738J0D01*
G01*
X90142262Y-53606000D01*
G75*
G02*
X90414000Y-53877738I0J-271738D01*
G01*
X90414000Y-54834262D01*
G75*
G02*
X90142262Y-55106000I-271738J0D01*
G01*
X89435738Y-55106000D01*
G75*
G02*
X89164000Y-54834262I0J271738D01*
G01*
G37*
G36*
G01*
X87114000Y-54834262D02*
X87114000Y-53877738D01*
G75*
G02*
X87385738Y-53606000I271738J0D01*
G01*
X88092262Y-53606000D01*
G75*
G02*
X88364000Y-53877738I0J-271738D01*
G01*
X88364000Y-54834262D01*
G75*
G02*
X88092262Y-55106000I-271738J0D01*
G01*
X87385738Y-55106000D01*
G75*
G02*
X87114000Y-54834262I0J271738D01*
G01*
G37*
G36*
G01*
X97165000Y-48738262D02*
X97165000Y-47781738D01*
G75*
G02*
X97436738Y-47510000I271738J0D01*
G01*
X98143262Y-47510000D01*
G75*
G02*
X98415000Y-47781738I0J-271738D01*
G01*
X98415000Y-48738262D01*
G75*
G02*
X98143262Y-49010000I-271738J0D01*
G01*
X97436738Y-49010000D01*
G75*
G02*
X97165000Y-48738262I0J271738D01*
G01*
G37*
G36*
G01*
X95115000Y-48738262D02*
X95115000Y-47781738D01*
G75*
G02*
X95386738Y-47510000I271738J0D01*
G01*
X96093262Y-47510000D01*
G75*
G02*
X96365000Y-47781738I0J-271738D01*
G01*
X96365000Y-48738262D01*
G75*
G02*
X96093262Y-49010000I-271738J0D01*
G01*
X95386738Y-49010000D01*
G75*
G02*
X95115000Y-48738262I0J271738D01*
G01*
G37*
G36*
G01*
X94135000Y-58898262D02*
X94135000Y-57941738D01*
G75*
G02*
X94406738Y-57670000I271738J0D01*
G01*
X95113262Y-57670000D01*
G75*
G02*
X95385000Y-57941738I0J-271738D01*
G01*
X95385000Y-58898262D01*
G75*
G02*
X95113262Y-59170000I-271738J0D01*
G01*
X94406738Y-59170000D01*
G75*
G02*
X94135000Y-58898262I0J271738D01*
G01*
G37*
G36*
G01*
X92085000Y-58898262D02*
X92085000Y-57941738D01*
G75*
G02*
X92356738Y-57670000I271738J0D01*
G01*
X93063262Y-57670000D01*
G75*
G02*
X93335000Y-57941738I0J-271738D01*
G01*
X93335000Y-58898262D01*
G75*
G02*
X93063262Y-59170000I-271738J0D01*
G01*
X92356738Y-59170000D01*
G75*
G02*
X92085000Y-58898262I0J271738D01*
G01*
G37*
G36*
G01*
X110861000Y-47273738D02*
X110861000Y-48230262D01*
G75*
G02*
X110589262Y-48502000I-271738J0D01*
G01*
X109882738Y-48502000D01*
G75*
G02*
X109611000Y-48230262I0J271738D01*
G01*
X109611000Y-47273738D01*
G75*
G02*
X109882738Y-47002000I271738J0D01*
G01*
X110589262Y-47002000D01*
G75*
G02*
X110861000Y-47273738I0J-271738D01*
G01*
G37*
G36*
G01*
X112911000Y-47273738D02*
X112911000Y-48230262D01*
G75*
G02*
X112639262Y-48502000I-271738J0D01*
G01*
X111932738Y-48502000D01*
G75*
G02*
X111661000Y-48230262I0J271738D01*
G01*
X111661000Y-47273738D01*
G75*
G02*
X111932738Y-47002000I271738J0D01*
G01*
X112639262Y-47002000D01*
G75*
G02*
X112911000Y-47273738I0J-271738D01*
G01*
G37*
G36*
G01*
X111915000Y-64613262D02*
X111915000Y-63656738D01*
G75*
G02*
X112186738Y-63385000I271738J0D01*
G01*
X112893262Y-63385000D01*
G75*
G02*
X113165000Y-63656738I0J-271738D01*
G01*
X113165000Y-64613262D01*
G75*
G02*
X112893262Y-64885000I-271738J0D01*
G01*
X112186738Y-64885000D01*
G75*
G02*
X111915000Y-64613262I0J271738D01*
G01*
G37*
G36*
G01*
X109865000Y-64613262D02*
X109865000Y-63656738D01*
G75*
G02*
X110136738Y-63385000I271738J0D01*
G01*
X110843262Y-63385000D01*
G75*
G02*
X111115000Y-63656738I0J-271738D01*
G01*
X111115000Y-64613262D01*
G75*
G02*
X110843262Y-64885000I-271738J0D01*
G01*
X110136738Y-64885000D01*
G75*
G02*
X109865000Y-64613262I0J271738D01*
G01*
G37*
G36*
G01*
X102136000Y-43658262D02*
X102136000Y-42701738D01*
G75*
G02*
X102407738Y-42430000I271738J0D01*
G01*
X103114262Y-42430000D01*
G75*
G02*
X103386000Y-42701738I0J-271738D01*
G01*
X103386000Y-43658262D01*
G75*
G02*
X103114262Y-43930000I-271738J0D01*
G01*
X102407738Y-43930000D01*
G75*
G02*
X102136000Y-43658262I0J271738D01*
G01*
G37*
G36*
G01*
X100086000Y-43658262D02*
X100086000Y-42701738D01*
G75*
G02*
X100357738Y-42430000I271738J0D01*
G01*
X101064262Y-42430000D01*
G75*
G02*
X101336000Y-42701738I0J-271738D01*
G01*
X101336000Y-43658262D01*
G75*
G02*
X101064262Y-43930000I-271738J0D01*
G01*
X100357738Y-43930000D01*
G75*
G02*
X100086000Y-43658262I0J271738D01*
G01*
G37*
M02*
