G04 #@! TF.GenerationSoftware,KiCad,Pcbnew,5.1.6-c6e7f7d~86~ubuntu18.04.1*
G04 #@! TF.CreationDate,2020-06-20T09:56:21-04:00*
G04 #@! TF.ProjectId,five_pulser_board,66697665-5f70-4756-9c73-65725f626f61,rev?*
G04 #@! TF.SameCoordinates,Original*
G04 #@! TF.FileFunction,Legend,Top*
G04 #@! TF.FilePolarity,Positive*
%FSLAX46Y46*%
G04 Gerber Fmt 4.6, Leading zero omitted, Abs format (unit mm)*
G04 Created by KiCad (PCBNEW 5.1.6-c6e7f7d~86~ubuntu18.04.1) date 2020-06-20 09:56:21*
%MOMM*%
%LPD*%
G01*
G04 APERTURE LIST*
%ADD10C,0.120000*%
%ADD11C,0.150000*%
G04 APERTURE END LIST*
D10*
X101092000Y-113030000D02*
X101092000Y-112014000D01*
X101854000Y-113030000D02*
X102108000Y-113030000D01*
X101600000Y-113538000D02*
X101854000Y-113538000D01*
X101092000Y-114046000D02*
X101346000Y-114046000D01*
X101600000Y-113030000D02*
X101854000Y-113030000D01*
X101346000Y-113538000D02*
X101600000Y-113538000D01*
X100838000Y-114046000D02*
X101092000Y-114046000D01*
X100330000Y-113538000D02*
X101346000Y-113538000D01*
X100076000Y-113030000D02*
X101600000Y-113030000D01*
D11*
X85765142Y-113434761D02*
X85860380Y-113482380D01*
X86050857Y-113482380D01*
X86146095Y-113434761D01*
X86193714Y-113339523D01*
X86193714Y-113291904D01*
X86146095Y-113196666D01*
X86050857Y-113149047D01*
X85908000Y-113149047D01*
X85812761Y-113101428D01*
X85765142Y-113006190D01*
X85765142Y-112958571D01*
X85812761Y-112863333D01*
X85908000Y-112815714D01*
X86050857Y-112815714D01*
X86146095Y-112863333D01*
X86622285Y-113482380D02*
X86622285Y-112815714D01*
X86622285Y-112482380D02*
X86574666Y-112530000D01*
X86622285Y-112577619D01*
X86669904Y-112530000D01*
X86622285Y-112482380D01*
X86622285Y-112577619D01*
X87527047Y-112815714D02*
X87527047Y-113625238D01*
X87479428Y-113720476D01*
X87431809Y-113768095D01*
X87336571Y-113815714D01*
X87193714Y-113815714D01*
X87098476Y-113768095D01*
X87527047Y-113434761D02*
X87431809Y-113482380D01*
X87241333Y-113482380D01*
X87146095Y-113434761D01*
X87098476Y-113387142D01*
X87050857Y-113291904D01*
X87050857Y-113006190D01*
X87098476Y-112910952D01*
X87146095Y-112863333D01*
X87241333Y-112815714D01*
X87431809Y-112815714D01*
X87527047Y-112863333D01*
X88003238Y-112815714D02*
X88003238Y-113482380D01*
X88003238Y-112910952D02*
X88050857Y-112863333D01*
X88146095Y-112815714D01*
X88288952Y-112815714D01*
X88384190Y-112863333D01*
X88431809Y-112958571D01*
X88431809Y-113482380D01*
X89336571Y-113482380D02*
X89336571Y-112958571D01*
X89288952Y-112863333D01*
X89193714Y-112815714D01*
X89003238Y-112815714D01*
X88908000Y-112863333D01*
X89336571Y-113434761D02*
X89241333Y-113482380D01*
X89003238Y-113482380D01*
X88908000Y-113434761D01*
X88860380Y-113339523D01*
X88860380Y-113244285D01*
X88908000Y-113149047D01*
X89003238Y-113101428D01*
X89241333Y-113101428D01*
X89336571Y-113053809D01*
X89955619Y-113482380D02*
X89860380Y-113434761D01*
X89812761Y-113339523D01*
X89812761Y-112482380D01*
X91241333Y-113482380D02*
X91146095Y-113434761D01*
X91098476Y-113387142D01*
X91050857Y-113291904D01*
X91050857Y-113006190D01*
X91098476Y-112910952D01*
X91146095Y-112863333D01*
X91241333Y-112815714D01*
X91384190Y-112815714D01*
X91479428Y-112863333D01*
X91527047Y-112910952D01*
X91574666Y-113006190D01*
X91574666Y-113291904D01*
X91527047Y-113387142D01*
X91479428Y-113434761D01*
X91384190Y-113482380D01*
X91241333Y-113482380D01*
X92431809Y-112815714D02*
X92431809Y-113482380D01*
X92003238Y-112815714D02*
X92003238Y-113339523D01*
X92050857Y-113434761D01*
X92146095Y-113482380D01*
X92288952Y-113482380D01*
X92384190Y-113434761D01*
X92431809Y-113387142D01*
X92765142Y-112815714D02*
X93146095Y-112815714D01*
X92908000Y-112482380D02*
X92908000Y-113339523D01*
X92955619Y-113434761D01*
X93050857Y-113482380D01*
X93146095Y-113482380D01*
X79113333Y-95035714D02*
X79113333Y-96035714D01*
X79113333Y-95083333D02*
X79208571Y-95035714D01*
X79399047Y-95035714D01*
X79494285Y-95083333D01*
X79541904Y-95130952D01*
X79589523Y-95226190D01*
X79589523Y-95511904D01*
X79541904Y-95607142D01*
X79494285Y-95654761D01*
X79399047Y-95702380D01*
X79208571Y-95702380D01*
X79113333Y-95654761D01*
X80446666Y-95035714D02*
X80446666Y-95702380D01*
X80018095Y-95035714D02*
X80018095Y-95559523D01*
X80065714Y-95654761D01*
X80160952Y-95702380D01*
X80303809Y-95702380D01*
X80399047Y-95654761D01*
X80446666Y-95607142D01*
X81065714Y-95702380D02*
X80970476Y-95654761D01*
X80922857Y-95559523D01*
X80922857Y-94702380D01*
X81399047Y-95654761D02*
X81494285Y-95702380D01*
X81684761Y-95702380D01*
X81780000Y-95654761D01*
X81827619Y-95559523D01*
X81827619Y-95511904D01*
X81780000Y-95416666D01*
X81684761Y-95369047D01*
X81541904Y-95369047D01*
X81446666Y-95321428D01*
X81399047Y-95226190D01*
X81399047Y-95178571D01*
X81446666Y-95083333D01*
X81541904Y-95035714D01*
X81684761Y-95035714D01*
X81780000Y-95083333D01*
X82637142Y-95654761D02*
X82541904Y-95702380D01*
X82351428Y-95702380D01*
X82256190Y-95654761D01*
X82208571Y-95559523D01*
X82208571Y-95178571D01*
X82256190Y-95083333D01*
X82351428Y-95035714D01*
X82541904Y-95035714D01*
X82637142Y-95083333D01*
X82684761Y-95178571D01*
X82684761Y-95273809D01*
X82208571Y-95369047D01*
X83065714Y-95654761D02*
X83160952Y-95702380D01*
X83351428Y-95702380D01*
X83446666Y-95654761D01*
X83494285Y-95559523D01*
X83494285Y-95511904D01*
X83446666Y-95416666D01*
X83351428Y-95369047D01*
X83208571Y-95369047D01*
X83113333Y-95321428D01*
X83065714Y-95226190D01*
X83065714Y-95178571D01*
X83113333Y-95083333D01*
X83208571Y-95035714D01*
X83351428Y-95035714D01*
X83446666Y-95083333D01*
X81129523Y-62127380D02*
X80653333Y-62127380D01*
X80605714Y-62603571D01*
X80653333Y-62555952D01*
X80748571Y-62508333D01*
X80986666Y-62508333D01*
X81081904Y-62555952D01*
X81129523Y-62603571D01*
X81177142Y-62698809D01*
X81177142Y-62936904D01*
X81129523Y-63032142D01*
X81081904Y-63079761D01*
X80986666Y-63127380D01*
X80748571Y-63127380D01*
X80653333Y-63079761D01*
X80605714Y-63032142D01*
X81605714Y-62746428D02*
X82367619Y-62746428D01*
X82843809Y-62460714D02*
X82843809Y-63460714D01*
X82843809Y-62508333D02*
X82939047Y-62460714D01*
X83129523Y-62460714D01*
X83224761Y-62508333D01*
X83272380Y-62555952D01*
X83320000Y-62651190D01*
X83320000Y-62936904D01*
X83272380Y-63032142D01*
X83224761Y-63079761D01*
X83129523Y-63127380D01*
X82939047Y-63127380D01*
X82843809Y-63079761D01*
X84177142Y-62460714D02*
X84177142Y-63127380D01*
X83748571Y-62460714D02*
X83748571Y-62984523D01*
X83796190Y-63079761D01*
X83891428Y-63127380D01*
X84034285Y-63127380D01*
X84129523Y-63079761D01*
X84177142Y-63032142D01*
X84796190Y-63127380D02*
X84700952Y-63079761D01*
X84653333Y-62984523D01*
X84653333Y-62127380D01*
X85129523Y-63079761D02*
X85224761Y-63127380D01*
X85415238Y-63127380D01*
X85510476Y-63079761D01*
X85558095Y-62984523D01*
X85558095Y-62936904D01*
X85510476Y-62841666D01*
X85415238Y-62794047D01*
X85272380Y-62794047D01*
X85177142Y-62746428D01*
X85129523Y-62651190D01*
X85129523Y-62603571D01*
X85177142Y-62508333D01*
X85272380Y-62460714D01*
X85415238Y-62460714D01*
X85510476Y-62508333D01*
X86367619Y-63079761D02*
X86272380Y-63127380D01*
X86081904Y-63127380D01*
X85986666Y-63079761D01*
X85939047Y-62984523D01*
X85939047Y-62603571D01*
X85986666Y-62508333D01*
X86081904Y-62460714D01*
X86272380Y-62460714D01*
X86367619Y-62508333D01*
X86415238Y-62603571D01*
X86415238Y-62698809D01*
X85939047Y-62794047D01*
X86843809Y-63127380D02*
X86843809Y-62460714D01*
X86843809Y-62651190D02*
X86891428Y-62555952D01*
X86939047Y-62508333D01*
X87034285Y-62460714D01*
X87129523Y-62460714D01*
X79677142Y-64110714D02*
X79867619Y-64777380D01*
X80058095Y-64301190D01*
X80248571Y-64777380D01*
X80439047Y-64110714D01*
X81248571Y-64777380D02*
X81248571Y-64253571D01*
X81200952Y-64158333D01*
X81105714Y-64110714D01*
X80915238Y-64110714D01*
X80820000Y-64158333D01*
X81248571Y-64729761D02*
X81153333Y-64777380D01*
X80915238Y-64777380D01*
X80820000Y-64729761D01*
X80772380Y-64634523D01*
X80772380Y-64539285D01*
X80820000Y-64444047D01*
X80915238Y-64396428D01*
X81153333Y-64396428D01*
X81248571Y-64348809D01*
X81629523Y-64110714D02*
X81867619Y-64777380D01*
X82105714Y-64110714D01*
X82867619Y-64729761D02*
X82772380Y-64777380D01*
X82581904Y-64777380D01*
X82486666Y-64729761D01*
X82439047Y-64634523D01*
X82439047Y-64253571D01*
X82486666Y-64158333D01*
X82581904Y-64110714D01*
X82772380Y-64110714D01*
X82867619Y-64158333D01*
X82915238Y-64253571D01*
X82915238Y-64348809D01*
X82439047Y-64444047D01*
X83296190Y-64729761D02*
X83391428Y-64777380D01*
X83581904Y-64777380D01*
X83677142Y-64729761D01*
X83724761Y-64634523D01*
X83724761Y-64586904D01*
X83677142Y-64491666D01*
X83581904Y-64444047D01*
X83439047Y-64444047D01*
X83343809Y-64396428D01*
X83296190Y-64301190D01*
X83296190Y-64253571D01*
X83343809Y-64158333D01*
X83439047Y-64110714D01*
X83581904Y-64110714D01*
X83677142Y-64158333D01*
X84153333Y-64777380D02*
X84153333Y-63777380D01*
X84581904Y-64777380D02*
X84581904Y-64253571D01*
X84534285Y-64158333D01*
X84439047Y-64110714D01*
X84296190Y-64110714D01*
X84200952Y-64158333D01*
X84153333Y-64205952D01*
X85486666Y-64777380D02*
X85486666Y-64253571D01*
X85439047Y-64158333D01*
X85343809Y-64110714D01*
X85153333Y-64110714D01*
X85058095Y-64158333D01*
X85486666Y-64729761D02*
X85391428Y-64777380D01*
X85153333Y-64777380D01*
X85058095Y-64729761D01*
X85010476Y-64634523D01*
X85010476Y-64539285D01*
X85058095Y-64444047D01*
X85153333Y-64396428D01*
X85391428Y-64396428D01*
X85486666Y-64348809D01*
X85962857Y-64110714D02*
X85962857Y-65110714D01*
X85962857Y-64158333D02*
X86058095Y-64110714D01*
X86248571Y-64110714D01*
X86343809Y-64158333D01*
X86391428Y-64205952D01*
X86439047Y-64301190D01*
X86439047Y-64586904D01*
X86391428Y-64682142D01*
X86343809Y-64729761D01*
X86248571Y-64777380D01*
X86058095Y-64777380D01*
X85962857Y-64729761D01*
X87248571Y-64729761D02*
X87153333Y-64777380D01*
X86962857Y-64777380D01*
X86867619Y-64729761D01*
X86820000Y-64634523D01*
X86820000Y-64253571D01*
X86867619Y-64158333D01*
X86962857Y-64110714D01*
X87153333Y-64110714D01*
X87248571Y-64158333D01*
X87296190Y-64253571D01*
X87296190Y-64348809D01*
X86820000Y-64444047D01*
X87724761Y-64777380D02*
X87724761Y-64110714D01*
X87724761Y-64301190D02*
X87772380Y-64205952D01*
X87820000Y-64158333D01*
X87915238Y-64110714D01*
X88010476Y-64110714D01*
D10*
X78680000Y-106740000D02*
X83880000Y-106740000D01*
X78680000Y-99060000D02*
X78680000Y-106740000D01*
X83880000Y-96460000D02*
X83880000Y-106740000D01*
X78680000Y-99060000D02*
X81280000Y-99060000D01*
X81280000Y-99060000D02*
X81280000Y-96460000D01*
X81280000Y-96460000D02*
X83880000Y-96460000D01*
X78680000Y-97790000D02*
X78680000Y-96460000D01*
X78680000Y-96460000D02*
X80010000Y-96460000D01*
X106745000Y-97135000D02*
X104795000Y-97135000D01*
X106745000Y-97135000D02*
X108695000Y-97135000D01*
X106745000Y-102255000D02*
X104795000Y-102255000D01*
X106745000Y-102255000D02*
X110195000Y-102255000D01*
X96250000Y-88960000D02*
X97900000Y-88960000D01*
X97900000Y-88960000D02*
X97900000Y-65980000D01*
X97900000Y-65980000D02*
X92600000Y-65980000D01*
X92600000Y-65980000D02*
X92600000Y-88960000D01*
X92600000Y-88960000D02*
X94250000Y-88960000D01*
X94250000Y-88960000D02*
G75*
G02*
X96250000Y-88960000I1000000J0D01*
G01*
X95185000Y-50145000D02*
X93235000Y-50145000D01*
X95185000Y-50145000D02*
X97135000Y-50145000D01*
X95185000Y-55265000D02*
X93235000Y-55265000D01*
X95185000Y-55265000D02*
X98635000Y-55265000D01*
X100322748Y-107494000D02*
X100845252Y-107494000D01*
X100322748Y-108914000D02*
X100845252Y-108914000D01*
X100313748Y-99620000D02*
X100836252Y-99620000D01*
X100313748Y-101040000D02*
X100836252Y-101040000D01*
X100313748Y-97080000D02*
X100836252Y-97080000D01*
X100313748Y-98500000D02*
X100836252Y-98500000D01*
X100836252Y-95960000D02*
X100313748Y-95960000D01*
X100836252Y-94540000D02*
X100313748Y-94540000D01*
X87138252Y-109930000D02*
X86615748Y-109930000D01*
X87138252Y-108510000D02*
X86615748Y-108510000D01*
X86615748Y-106478000D02*
X87138252Y-106478000D01*
X86615748Y-107898000D02*
X87138252Y-107898000D01*
X87138252Y-105866000D02*
X86615748Y-105866000D01*
X87138252Y-104446000D02*
X86615748Y-104446000D01*
X86615748Y-102414000D02*
X87138252Y-102414000D01*
X86615748Y-103834000D02*
X87138252Y-103834000D01*
X87120252Y-101802000D02*
X86597748Y-101802000D01*
X87120252Y-100382000D02*
X86597748Y-100382000D01*
X86597748Y-98350000D02*
X87120252Y-98350000D01*
X86597748Y-99770000D02*
X87120252Y-99770000D01*
X87138252Y-97738000D02*
X86615748Y-97738000D01*
X87138252Y-96318000D02*
X86615748Y-96318000D01*
X86615748Y-94286000D02*
X87138252Y-94286000D01*
X86615748Y-95706000D02*
X87138252Y-95706000D01*
X87138252Y-93674000D02*
X86615748Y-93674000D01*
X87138252Y-92254000D02*
X86615748Y-92254000D01*
X86615748Y-90222000D02*
X87138252Y-90222000D01*
X86615748Y-91642000D02*
X87138252Y-91642000D01*
X102363748Y-71680000D02*
X102886252Y-71680000D01*
X102363748Y-73100000D02*
X102886252Y-73100000D01*
X101997252Y-54050000D02*
X101474748Y-54050000D01*
X101997252Y-52630000D02*
X101474748Y-52630000D01*
X88502748Y-51360000D02*
X89025252Y-51360000D01*
X88502748Y-52780000D02*
X89025252Y-52780000D01*
X101474748Y-50090000D02*
X101997252Y-50090000D01*
X101474748Y-51510000D02*
X101997252Y-51510000D01*
X89025252Y-50494000D02*
X88502748Y-50494000D01*
X89025252Y-49074000D02*
X88502748Y-49074000D01*
X89034252Y-47954000D02*
X88511748Y-47954000D01*
X89034252Y-46534000D02*
X88511748Y-46534000D01*
X89025252Y-45414000D02*
X88502748Y-45414000D01*
X89025252Y-43994000D02*
X88502748Y-43994000D01*
X101997252Y-48970000D02*
X101474748Y-48970000D01*
X101997252Y-47550000D02*
X101474748Y-47550000D01*
X101997252Y-46430000D02*
X101474748Y-46430000D01*
X101997252Y-45010000D02*
X101474748Y-45010000D01*
X82548252Y-50494000D02*
X82025748Y-50494000D01*
X82548252Y-49074000D02*
X82025748Y-49074000D01*
X99120000Y-114360000D02*
X99120000Y-111700000D01*
X96520000Y-114360000D02*
X99120000Y-114360000D01*
X96520000Y-111700000D02*
X99120000Y-111700000D01*
X96520000Y-114360000D02*
X96520000Y-111700000D01*
X95250000Y-114360000D02*
X93920000Y-114360000D01*
X93920000Y-114360000D02*
X93920000Y-113030000D01*
X98080000Y-104410000D02*
X98080000Y-106410000D01*
X98080000Y-106410000D02*
X101980000Y-106410000D01*
X98080000Y-104410000D02*
X101980000Y-104410000D01*
X98080000Y-101870000D02*
X98080000Y-103870000D01*
X98080000Y-103870000D02*
X101980000Y-103870000D01*
X98080000Y-101870000D02*
X101980000Y-101870000D01*
X90389000Y-57896000D02*
X90389000Y-55896000D01*
X90389000Y-55896000D02*
X86489000Y-55896000D01*
X90389000Y-57896000D02*
X86489000Y-57896000D01*
X83912000Y-55610000D02*
X83912000Y-53610000D01*
X83912000Y-53610000D02*
X80012000Y-53610000D01*
X83912000Y-55610000D02*
X80012000Y-55610000D01*
X83912000Y-53070000D02*
X83912000Y-51070000D01*
X83912000Y-51070000D02*
X80012000Y-51070000D01*
X83912000Y-53070000D02*
X80012000Y-53070000D01*
X104903748Y-107494000D02*
X105426252Y-107494000D01*
X104903748Y-108914000D02*
X105426252Y-108914000D01*
X102363748Y-81840000D02*
X102886252Y-81840000D01*
X102363748Y-83260000D02*
X102886252Y-83260000D01*
X107688748Y-94540000D02*
X108211252Y-94540000D01*
X107688748Y-95960000D02*
X108211252Y-95960000D01*
X104903748Y-104700000D02*
X105426252Y-104700000D01*
X104903748Y-106120000D02*
X105426252Y-106120000D01*
X88502748Y-53646000D02*
X89025252Y-53646000D01*
X88502748Y-55066000D02*
X89025252Y-55066000D01*
X96503748Y-47550000D02*
X97026252Y-47550000D01*
X96503748Y-48970000D02*
X97026252Y-48970000D01*
X93473748Y-57710000D02*
X93996252Y-57710000D01*
X93473748Y-59130000D02*
X93996252Y-59130000D01*
X111522252Y-48462000D02*
X110999748Y-48462000D01*
X111522252Y-47042000D02*
X110999748Y-47042000D01*
X111253748Y-63425000D02*
X111776252Y-63425000D01*
X111253748Y-64845000D02*
X111776252Y-64845000D01*
X101474748Y-42470000D02*
X101997252Y-42470000D01*
X101474748Y-43890000D02*
X101997252Y-43890000D01*
D11*
X105983095Y-102547380D02*
X105983095Y-103356904D01*
X106030714Y-103452142D01*
X106078333Y-103499761D01*
X106173571Y-103547380D01*
X106364047Y-103547380D01*
X106459285Y-103499761D01*
X106506904Y-103452142D01*
X106554523Y-103356904D01*
X106554523Y-102547380D01*
X106935476Y-102547380D02*
X107554523Y-102547380D01*
X107221190Y-102928333D01*
X107364047Y-102928333D01*
X107459285Y-102975952D01*
X107506904Y-103023571D01*
X107554523Y-103118809D01*
X107554523Y-103356904D01*
X107506904Y-103452142D01*
X107459285Y-103499761D01*
X107364047Y-103547380D01*
X107078333Y-103547380D01*
X106983095Y-103499761D01*
X106935476Y-103452142D01*
X94488095Y-89412380D02*
X94488095Y-90221904D01*
X94535714Y-90317142D01*
X94583333Y-90364761D01*
X94678571Y-90412380D01*
X94869047Y-90412380D01*
X94964285Y-90364761D01*
X95011904Y-90317142D01*
X95059523Y-90221904D01*
X95059523Y-89412380D01*
X95488095Y-89507619D02*
X95535714Y-89460000D01*
X95630952Y-89412380D01*
X95869047Y-89412380D01*
X95964285Y-89460000D01*
X96011904Y-89507619D01*
X96059523Y-89602857D01*
X96059523Y-89698095D01*
X96011904Y-89840952D01*
X95440476Y-90412380D01*
X96059523Y-90412380D01*
X94423095Y-55557380D02*
X94423095Y-56366904D01*
X94470714Y-56462142D01*
X94518333Y-56509761D01*
X94613571Y-56557380D01*
X94804047Y-56557380D01*
X94899285Y-56509761D01*
X94946904Y-56462142D01*
X94994523Y-56366904D01*
X94994523Y-55557380D01*
X95994523Y-56557380D02*
X95423095Y-56557380D01*
X95708809Y-56557380D02*
X95708809Y-55557380D01*
X95613571Y-55700238D01*
X95518333Y-55795476D01*
X95423095Y-55843095D01*
X96394142Y-108656380D02*
X96060809Y-108180190D01*
X95822714Y-108656380D02*
X95822714Y-107656380D01*
X96203666Y-107656380D01*
X96298904Y-107704000D01*
X96346523Y-107751619D01*
X96394142Y-107846857D01*
X96394142Y-107989714D01*
X96346523Y-108084952D01*
X96298904Y-108132571D01*
X96203666Y-108180190D01*
X95822714Y-108180190D01*
X96775095Y-107751619D02*
X96822714Y-107704000D01*
X96917952Y-107656380D01*
X97156047Y-107656380D01*
X97251285Y-107704000D01*
X97298904Y-107751619D01*
X97346523Y-107846857D01*
X97346523Y-107942095D01*
X97298904Y-108084952D01*
X96727476Y-108656380D01*
X97346523Y-108656380D01*
X98203666Y-107989714D02*
X98203666Y-108656380D01*
X97965571Y-107608761D02*
X97727476Y-108323047D01*
X98346523Y-108323047D01*
X96385142Y-100782380D02*
X96051809Y-100306190D01*
X95813714Y-100782380D02*
X95813714Y-99782380D01*
X96194666Y-99782380D01*
X96289904Y-99830000D01*
X96337523Y-99877619D01*
X96385142Y-99972857D01*
X96385142Y-100115714D01*
X96337523Y-100210952D01*
X96289904Y-100258571D01*
X96194666Y-100306190D01*
X95813714Y-100306190D01*
X96766095Y-99877619D02*
X96813714Y-99830000D01*
X96908952Y-99782380D01*
X97147047Y-99782380D01*
X97242285Y-99830000D01*
X97289904Y-99877619D01*
X97337523Y-99972857D01*
X97337523Y-100068095D01*
X97289904Y-100210952D01*
X96718476Y-100782380D01*
X97337523Y-100782380D01*
X97670857Y-99782380D02*
X98289904Y-99782380D01*
X97956571Y-100163333D01*
X98099428Y-100163333D01*
X98194666Y-100210952D01*
X98242285Y-100258571D01*
X98289904Y-100353809D01*
X98289904Y-100591904D01*
X98242285Y-100687142D01*
X98194666Y-100734761D01*
X98099428Y-100782380D01*
X97813714Y-100782380D01*
X97718476Y-100734761D01*
X97670857Y-100687142D01*
X96385142Y-98242380D02*
X96051809Y-97766190D01*
X95813714Y-98242380D02*
X95813714Y-97242380D01*
X96194666Y-97242380D01*
X96289904Y-97290000D01*
X96337523Y-97337619D01*
X96385142Y-97432857D01*
X96385142Y-97575714D01*
X96337523Y-97670952D01*
X96289904Y-97718571D01*
X96194666Y-97766190D01*
X95813714Y-97766190D01*
X96766095Y-97337619D02*
X96813714Y-97290000D01*
X96908952Y-97242380D01*
X97147047Y-97242380D01*
X97242285Y-97290000D01*
X97289904Y-97337619D01*
X97337523Y-97432857D01*
X97337523Y-97528095D01*
X97289904Y-97670952D01*
X96718476Y-98242380D01*
X97337523Y-98242380D01*
X97718476Y-97337619D02*
X97766095Y-97290000D01*
X97861333Y-97242380D01*
X98099428Y-97242380D01*
X98194666Y-97290000D01*
X98242285Y-97337619D01*
X98289904Y-97432857D01*
X98289904Y-97528095D01*
X98242285Y-97670952D01*
X97670857Y-98242380D01*
X98289904Y-98242380D01*
X96385142Y-95702380D02*
X96051809Y-95226190D01*
X95813714Y-95702380D02*
X95813714Y-94702380D01*
X96194666Y-94702380D01*
X96289904Y-94750000D01*
X96337523Y-94797619D01*
X96385142Y-94892857D01*
X96385142Y-95035714D01*
X96337523Y-95130952D01*
X96289904Y-95178571D01*
X96194666Y-95226190D01*
X95813714Y-95226190D01*
X96766095Y-94797619D02*
X96813714Y-94750000D01*
X96908952Y-94702380D01*
X97147047Y-94702380D01*
X97242285Y-94750000D01*
X97289904Y-94797619D01*
X97337523Y-94892857D01*
X97337523Y-94988095D01*
X97289904Y-95130952D01*
X96718476Y-95702380D01*
X97337523Y-95702380D01*
X98289904Y-95702380D02*
X97718476Y-95702380D01*
X98004190Y-95702380D02*
X98004190Y-94702380D01*
X97908952Y-94845238D01*
X97813714Y-94940476D01*
X97718476Y-94988095D01*
X89781142Y-109672380D02*
X89447809Y-109196190D01*
X89209714Y-109672380D02*
X89209714Y-108672380D01*
X89590666Y-108672380D01*
X89685904Y-108720000D01*
X89733523Y-108767619D01*
X89781142Y-108862857D01*
X89781142Y-109005714D01*
X89733523Y-109100952D01*
X89685904Y-109148571D01*
X89590666Y-109196190D01*
X89209714Y-109196190D01*
X90162095Y-108767619D02*
X90209714Y-108720000D01*
X90304952Y-108672380D01*
X90543047Y-108672380D01*
X90638285Y-108720000D01*
X90685904Y-108767619D01*
X90733523Y-108862857D01*
X90733523Y-108958095D01*
X90685904Y-109100952D01*
X90114476Y-109672380D01*
X90733523Y-109672380D01*
X91352571Y-108672380D02*
X91447809Y-108672380D01*
X91543047Y-108720000D01*
X91590666Y-108767619D01*
X91638285Y-108862857D01*
X91685904Y-109053333D01*
X91685904Y-109291428D01*
X91638285Y-109481904D01*
X91590666Y-109577142D01*
X91543047Y-109624761D01*
X91447809Y-109672380D01*
X91352571Y-109672380D01*
X91257333Y-109624761D01*
X91209714Y-109577142D01*
X91162095Y-109481904D01*
X91114476Y-109291428D01*
X91114476Y-109053333D01*
X91162095Y-108862857D01*
X91209714Y-108767619D01*
X91257333Y-108720000D01*
X91352571Y-108672380D01*
X89781142Y-107767380D02*
X89447809Y-107291190D01*
X89209714Y-107767380D02*
X89209714Y-106767380D01*
X89590666Y-106767380D01*
X89685904Y-106815000D01*
X89733523Y-106862619D01*
X89781142Y-106957857D01*
X89781142Y-107100714D01*
X89733523Y-107195952D01*
X89685904Y-107243571D01*
X89590666Y-107291190D01*
X89209714Y-107291190D01*
X90733523Y-107767380D02*
X90162095Y-107767380D01*
X90447809Y-107767380D02*
X90447809Y-106767380D01*
X90352571Y-106910238D01*
X90257333Y-107005476D01*
X90162095Y-107053095D01*
X91209714Y-107767380D02*
X91400190Y-107767380D01*
X91495428Y-107719761D01*
X91543047Y-107672142D01*
X91638285Y-107529285D01*
X91685904Y-107338809D01*
X91685904Y-106957857D01*
X91638285Y-106862619D01*
X91590666Y-106815000D01*
X91495428Y-106767380D01*
X91304952Y-106767380D01*
X91209714Y-106815000D01*
X91162095Y-106862619D01*
X91114476Y-106957857D01*
X91114476Y-107195952D01*
X91162095Y-107291190D01*
X91209714Y-107338809D01*
X91304952Y-107386428D01*
X91495428Y-107386428D01*
X91590666Y-107338809D01*
X91638285Y-107291190D01*
X91685904Y-107195952D01*
X89781142Y-105608380D02*
X89447809Y-105132190D01*
X89209714Y-105608380D02*
X89209714Y-104608380D01*
X89590666Y-104608380D01*
X89685904Y-104656000D01*
X89733523Y-104703619D01*
X89781142Y-104798857D01*
X89781142Y-104941714D01*
X89733523Y-105036952D01*
X89685904Y-105084571D01*
X89590666Y-105132190D01*
X89209714Y-105132190D01*
X90733523Y-105608380D02*
X90162095Y-105608380D01*
X90447809Y-105608380D02*
X90447809Y-104608380D01*
X90352571Y-104751238D01*
X90257333Y-104846476D01*
X90162095Y-104894095D01*
X91304952Y-105036952D02*
X91209714Y-104989333D01*
X91162095Y-104941714D01*
X91114476Y-104846476D01*
X91114476Y-104798857D01*
X91162095Y-104703619D01*
X91209714Y-104656000D01*
X91304952Y-104608380D01*
X91495428Y-104608380D01*
X91590666Y-104656000D01*
X91638285Y-104703619D01*
X91685904Y-104798857D01*
X91685904Y-104846476D01*
X91638285Y-104941714D01*
X91590666Y-104989333D01*
X91495428Y-105036952D01*
X91304952Y-105036952D01*
X91209714Y-105084571D01*
X91162095Y-105132190D01*
X91114476Y-105227428D01*
X91114476Y-105417904D01*
X91162095Y-105513142D01*
X91209714Y-105560761D01*
X91304952Y-105608380D01*
X91495428Y-105608380D01*
X91590666Y-105560761D01*
X91638285Y-105513142D01*
X91685904Y-105417904D01*
X91685904Y-105227428D01*
X91638285Y-105132190D01*
X91590666Y-105084571D01*
X91495428Y-105036952D01*
X89781142Y-103449380D02*
X89447809Y-102973190D01*
X89209714Y-103449380D02*
X89209714Y-102449380D01*
X89590666Y-102449380D01*
X89685904Y-102497000D01*
X89733523Y-102544619D01*
X89781142Y-102639857D01*
X89781142Y-102782714D01*
X89733523Y-102877952D01*
X89685904Y-102925571D01*
X89590666Y-102973190D01*
X89209714Y-102973190D01*
X90733523Y-103449380D02*
X90162095Y-103449380D01*
X90447809Y-103449380D02*
X90447809Y-102449380D01*
X90352571Y-102592238D01*
X90257333Y-102687476D01*
X90162095Y-102735095D01*
X91066857Y-102449380D02*
X91733523Y-102449380D01*
X91304952Y-103449380D01*
X89781142Y-101544380D02*
X89447809Y-101068190D01*
X89209714Y-101544380D02*
X89209714Y-100544380D01*
X89590666Y-100544380D01*
X89685904Y-100592000D01*
X89733523Y-100639619D01*
X89781142Y-100734857D01*
X89781142Y-100877714D01*
X89733523Y-100972952D01*
X89685904Y-101020571D01*
X89590666Y-101068190D01*
X89209714Y-101068190D01*
X90733523Y-101544380D02*
X90162095Y-101544380D01*
X90447809Y-101544380D02*
X90447809Y-100544380D01*
X90352571Y-100687238D01*
X90257333Y-100782476D01*
X90162095Y-100830095D01*
X91590666Y-100544380D02*
X91400190Y-100544380D01*
X91304952Y-100592000D01*
X91257333Y-100639619D01*
X91162095Y-100782476D01*
X91114476Y-100972952D01*
X91114476Y-101353904D01*
X91162095Y-101449142D01*
X91209714Y-101496761D01*
X91304952Y-101544380D01*
X91495428Y-101544380D01*
X91590666Y-101496761D01*
X91638285Y-101449142D01*
X91685904Y-101353904D01*
X91685904Y-101115809D01*
X91638285Y-101020571D01*
X91590666Y-100972952D01*
X91495428Y-100925333D01*
X91304952Y-100925333D01*
X91209714Y-100972952D01*
X91162095Y-101020571D01*
X91114476Y-101115809D01*
X89781142Y-99512380D02*
X89447809Y-99036190D01*
X89209714Y-99512380D02*
X89209714Y-98512380D01*
X89590666Y-98512380D01*
X89685904Y-98560000D01*
X89733523Y-98607619D01*
X89781142Y-98702857D01*
X89781142Y-98845714D01*
X89733523Y-98940952D01*
X89685904Y-98988571D01*
X89590666Y-99036190D01*
X89209714Y-99036190D01*
X90733523Y-99512380D02*
X90162095Y-99512380D01*
X90447809Y-99512380D02*
X90447809Y-98512380D01*
X90352571Y-98655238D01*
X90257333Y-98750476D01*
X90162095Y-98798095D01*
X91638285Y-98512380D02*
X91162095Y-98512380D01*
X91114476Y-98988571D01*
X91162095Y-98940952D01*
X91257333Y-98893333D01*
X91495428Y-98893333D01*
X91590666Y-98940952D01*
X91638285Y-98988571D01*
X91685904Y-99083809D01*
X91685904Y-99321904D01*
X91638285Y-99417142D01*
X91590666Y-99464761D01*
X91495428Y-99512380D01*
X91257333Y-99512380D01*
X91162095Y-99464761D01*
X91114476Y-99417142D01*
X89781142Y-97480380D02*
X89447809Y-97004190D01*
X89209714Y-97480380D02*
X89209714Y-96480380D01*
X89590666Y-96480380D01*
X89685904Y-96528000D01*
X89733523Y-96575619D01*
X89781142Y-96670857D01*
X89781142Y-96813714D01*
X89733523Y-96908952D01*
X89685904Y-96956571D01*
X89590666Y-97004190D01*
X89209714Y-97004190D01*
X90733523Y-97480380D02*
X90162095Y-97480380D01*
X90447809Y-97480380D02*
X90447809Y-96480380D01*
X90352571Y-96623238D01*
X90257333Y-96718476D01*
X90162095Y-96766095D01*
X91590666Y-96813714D02*
X91590666Y-97480380D01*
X91352571Y-96432761D02*
X91114476Y-97147047D01*
X91733523Y-97147047D01*
X89781142Y-95448380D02*
X89447809Y-94972190D01*
X89209714Y-95448380D02*
X89209714Y-94448380D01*
X89590666Y-94448380D01*
X89685904Y-94496000D01*
X89733523Y-94543619D01*
X89781142Y-94638857D01*
X89781142Y-94781714D01*
X89733523Y-94876952D01*
X89685904Y-94924571D01*
X89590666Y-94972190D01*
X89209714Y-94972190D01*
X90733523Y-95448380D02*
X90162095Y-95448380D01*
X90447809Y-95448380D02*
X90447809Y-94448380D01*
X90352571Y-94591238D01*
X90257333Y-94686476D01*
X90162095Y-94734095D01*
X91066857Y-94448380D02*
X91685904Y-94448380D01*
X91352571Y-94829333D01*
X91495428Y-94829333D01*
X91590666Y-94876952D01*
X91638285Y-94924571D01*
X91685904Y-95019809D01*
X91685904Y-95257904D01*
X91638285Y-95353142D01*
X91590666Y-95400761D01*
X91495428Y-95448380D01*
X91209714Y-95448380D01*
X91114476Y-95400761D01*
X91066857Y-95353142D01*
X89781142Y-93416380D02*
X89447809Y-92940190D01*
X89209714Y-93416380D02*
X89209714Y-92416380D01*
X89590666Y-92416380D01*
X89685904Y-92464000D01*
X89733523Y-92511619D01*
X89781142Y-92606857D01*
X89781142Y-92749714D01*
X89733523Y-92844952D01*
X89685904Y-92892571D01*
X89590666Y-92940190D01*
X89209714Y-92940190D01*
X90733523Y-93416380D02*
X90162095Y-93416380D01*
X90447809Y-93416380D02*
X90447809Y-92416380D01*
X90352571Y-92559238D01*
X90257333Y-92654476D01*
X90162095Y-92702095D01*
X91114476Y-92511619D02*
X91162095Y-92464000D01*
X91257333Y-92416380D01*
X91495428Y-92416380D01*
X91590666Y-92464000D01*
X91638285Y-92511619D01*
X91685904Y-92606857D01*
X91685904Y-92702095D01*
X91638285Y-92844952D01*
X91066857Y-93416380D01*
X91685904Y-93416380D01*
X89781142Y-91384380D02*
X89447809Y-90908190D01*
X89209714Y-91384380D02*
X89209714Y-90384380D01*
X89590666Y-90384380D01*
X89685904Y-90432000D01*
X89733523Y-90479619D01*
X89781142Y-90574857D01*
X89781142Y-90717714D01*
X89733523Y-90812952D01*
X89685904Y-90860571D01*
X89590666Y-90908190D01*
X89209714Y-90908190D01*
X90733523Y-91384380D02*
X90162095Y-91384380D01*
X90447809Y-91384380D02*
X90447809Y-90384380D01*
X90352571Y-90527238D01*
X90257333Y-90622476D01*
X90162095Y-90670095D01*
X91685904Y-91384380D02*
X91114476Y-91384380D01*
X91400190Y-91384380D02*
X91400190Y-90384380D01*
X91304952Y-90527238D01*
X91209714Y-90622476D01*
X91114476Y-90670095D01*
X105529142Y-72588380D02*
X105195809Y-72112190D01*
X104957714Y-72588380D02*
X104957714Y-71588380D01*
X105338666Y-71588380D01*
X105433904Y-71636000D01*
X105481523Y-71683619D01*
X105529142Y-71778857D01*
X105529142Y-71921714D01*
X105481523Y-72016952D01*
X105433904Y-72064571D01*
X105338666Y-72112190D01*
X104957714Y-72112190D01*
X106481523Y-72588380D02*
X105910095Y-72588380D01*
X106195809Y-72588380D02*
X106195809Y-71588380D01*
X106100571Y-71731238D01*
X106005333Y-71826476D01*
X105910095Y-71874095D01*
X107100571Y-71588380D02*
X107195809Y-71588380D01*
X107291047Y-71636000D01*
X107338666Y-71683619D01*
X107386285Y-71778857D01*
X107433904Y-71969333D01*
X107433904Y-72207428D01*
X107386285Y-72397904D01*
X107338666Y-72493142D01*
X107291047Y-72540761D01*
X107195809Y-72588380D01*
X107100571Y-72588380D01*
X107005333Y-72540761D01*
X106957714Y-72493142D01*
X106910095Y-72397904D01*
X106862476Y-72207428D01*
X106862476Y-71969333D01*
X106910095Y-71778857D01*
X106957714Y-71683619D01*
X107005333Y-71636000D01*
X107100571Y-71588380D01*
X104608333Y-53792380D02*
X104275000Y-53316190D01*
X104036904Y-53792380D02*
X104036904Y-52792380D01*
X104417857Y-52792380D01*
X104513095Y-52840000D01*
X104560714Y-52887619D01*
X104608333Y-52982857D01*
X104608333Y-53125714D01*
X104560714Y-53220952D01*
X104513095Y-53268571D01*
X104417857Y-53316190D01*
X104036904Y-53316190D01*
X105084523Y-53792380D02*
X105275000Y-53792380D01*
X105370238Y-53744761D01*
X105417857Y-53697142D01*
X105513095Y-53554285D01*
X105560714Y-53363809D01*
X105560714Y-52982857D01*
X105513095Y-52887619D01*
X105465476Y-52840000D01*
X105370238Y-52792380D01*
X105179761Y-52792380D01*
X105084523Y-52840000D01*
X105036904Y-52887619D01*
X104989285Y-52982857D01*
X104989285Y-53220952D01*
X105036904Y-53316190D01*
X105084523Y-53363809D01*
X105179761Y-53411428D01*
X105370238Y-53411428D01*
X105465476Y-53363809D01*
X105513095Y-53316190D01*
X105560714Y-53220952D01*
X85558333Y-52522380D02*
X85225000Y-52046190D01*
X84986904Y-52522380D02*
X84986904Y-51522380D01*
X85367857Y-51522380D01*
X85463095Y-51570000D01*
X85510714Y-51617619D01*
X85558333Y-51712857D01*
X85558333Y-51855714D01*
X85510714Y-51950952D01*
X85463095Y-51998571D01*
X85367857Y-52046190D01*
X84986904Y-52046190D01*
X86129761Y-51950952D02*
X86034523Y-51903333D01*
X85986904Y-51855714D01*
X85939285Y-51760476D01*
X85939285Y-51712857D01*
X85986904Y-51617619D01*
X86034523Y-51570000D01*
X86129761Y-51522380D01*
X86320238Y-51522380D01*
X86415476Y-51570000D01*
X86463095Y-51617619D01*
X86510714Y-51712857D01*
X86510714Y-51760476D01*
X86463095Y-51855714D01*
X86415476Y-51903333D01*
X86320238Y-51950952D01*
X86129761Y-51950952D01*
X86034523Y-51998571D01*
X85986904Y-52046190D01*
X85939285Y-52141428D01*
X85939285Y-52331904D01*
X85986904Y-52427142D01*
X86034523Y-52474761D01*
X86129761Y-52522380D01*
X86320238Y-52522380D01*
X86415476Y-52474761D01*
X86463095Y-52427142D01*
X86510714Y-52331904D01*
X86510714Y-52141428D01*
X86463095Y-52046190D01*
X86415476Y-51998571D01*
X86320238Y-51950952D01*
X104608333Y-51252380D02*
X104275000Y-50776190D01*
X104036904Y-51252380D02*
X104036904Y-50252380D01*
X104417857Y-50252380D01*
X104513095Y-50300000D01*
X104560714Y-50347619D01*
X104608333Y-50442857D01*
X104608333Y-50585714D01*
X104560714Y-50680952D01*
X104513095Y-50728571D01*
X104417857Y-50776190D01*
X104036904Y-50776190D01*
X104941666Y-50252380D02*
X105608333Y-50252380D01*
X105179761Y-51252380D01*
X85558333Y-50236380D02*
X85225000Y-49760190D01*
X84986904Y-50236380D02*
X84986904Y-49236380D01*
X85367857Y-49236380D01*
X85463095Y-49284000D01*
X85510714Y-49331619D01*
X85558333Y-49426857D01*
X85558333Y-49569714D01*
X85510714Y-49664952D01*
X85463095Y-49712571D01*
X85367857Y-49760190D01*
X84986904Y-49760190D01*
X86415476Y-49236380D02*
X86225000Y-49236380D01*
X86129761Y-49284000D01*
X86082142Y-49331619D01*
X85986904Y-49474476D01*
X85939285Y-49664952D01*
X85939285Y-50045904D01*
X85986904Y-50141142D01*
X86034523Y-50188761D01*
X86129761Y-50236380D01*
X86320238Y-50236380D01*
X86415476Y-50188761D01*
X86463095Y-50141142D01*
X86510714Y-50045904D01*
X86510714Y-49807809D01*
X86463095Y-49712571D01*
X86415476Y-49664952D01*
X86320238Y-49617333D01*
X86129761Y-49617333D01*
X86034523Y-49664952D01*
X85986904Y-49712571D01*
X85939285Y-49807809D01*
X85558333Y-47696380D02*
X85225000Y-47220190D01*
X84986904Y-47696380D02*
X84986904Y-46696380D01*
X85367857Y-46696380D01*
X85463095Y-46744000D01*
X85510714Y-46791619D01*
X85558333Y-46886857D01*
X85558333Y-47029714D01*
X85510714Y-47124952D01*
X85463095Y-47172571D01*
X85367857Y-47220190D01*
X84986904Y-47220190D01*
X86463095Y-46696380D02*
X85986904Y-46696380D01*
X85939285Y-47172571D01*
X85986904Y-47124952D01*
X86082142Y-47077333D01*
X86320238Y-47077333D01*
X86415476Y-47124952D01*
X86463095Y-47172571D01*
X86510714Y-47267809D01*
X86510714Y-47505904D01*
X86463095Y-47601142D01*
X86415476Y-47648761D01*
X86320238Y-47696380D01*
X86082142Y-47696380D01*
X85986904Y-47648761D01*
X85939285Y-47601142D01*
X85558333Y-45156380D02*
X85225000Y-44680190D01*
X84986904Y-45156380D02*
X84986904Y-44156380D01*
X85367857Y-44156380D01*
X85463095Y-44204000D01*
X85510714Y-44251619D01*
X85558333Y-44346857D01*
X85558333Y-44489714D01*
X85510714Y-44584952D01*
X85463095Y-44632571D01*
X85367857Y-44680190D01*
X84986904Y-44680190D01*
X86415476Y-44489714D02*
X86415476Y-45156380D01*
X86177380Y-44108761D02*
X85939285Y-44823047D01*
X86558333Y-44823047D01*
X104608333Y-48712380D02*
X104275000Y-48236190D01*
X104036904Y-48712380D02*
X104036904Y-47712380D01*
X104417857Y-47712380D01*
X104513095Y-47760000D01*
X104560714Y-47807619D01*
X104608333Y-47902857D01*
X104608333Y-48045714D01*
X104560714Y-48140952D01*
X104513095Y-48188571D01*
X104417857Y-48236190D01*
X104036904Y-48236190D01*
X104941666Y-47712380D02*
X105560714Y-47712380D01*
X105227380Y-48093333D01*
X105370238Y-48093333D01*
X105465476Y-48140952D01*
X105513095Y-48188571D01*
X105560714Y-48283809D01*
X105560714Y-48521904D01*
X105513095Y-48617142D01*
X105465476Y-48664761D01*
X105370238Y-48712380D01*
X105084523Y-48712380D01*
X104989285Y-48664761D01*
X104941666Y-48617142D01*
X104608333Y-46172380D02*
X104275000Y-45696190D01*
X104036904Y-46172380D02*
X104036904Y-45172380D01*
X104417857Y-45172380D01*
X104513095Y-45220000D01*
X104560714Y-45267619D01*
X104608333Y-45362857D01*
X104608333Y-45505714D01*
X104560714Y-45600952D01*
X104513095Y-45648571D01*
X104417857Y-45696190D01*
X104036904Y-45696190D01*
X104989285Y-45267619D02*
X105036904Y-45220000D01*
X105132142Y-45172380D01*
X105370238Y-45172380D01*
X105465476Y-45220000D01*
X105513095Y-45267619D01*
X105560714Y-45362857D01*
X105560714Y-45458095D01*
X105513095Y-45600952D01*
X104941666Y-46172380D01*
X105560714Y-46172380D01*
X79081333Y-50236380D02*
X78748000Y-49760190D01*
X78509904Y-50236380D02*
X78509904Y-49236380D01*
X78890857Y-49236380D01*
X78986095Y-49284000D01*
X79033714Y-49331619D01*
X79081333Y-49426857D01*
X79081333Y-49569714D01*
X79033714Y-49664952D01*
X78986095Y-49712571D01*
X78890857Y-49760190D01*
X78509904Y-49760190D01*
X80033714Y-50236380D02*
X79462285Y-50236380D01*
X79748000Y-50236380D02*
X79748000Y-49236380D01*
X79652761Y-49379238D01*
X79557523Y-49474476D01*
X79462285Y-49522095D01*
X96289904Y-105862380D02*
X96289904Y-104862380D01*
X96528000Y-104862380D01*
X96670857Y-104910000D01*
X96766095Y-105005238D01*
X96813714Y-105100476D01*
X96861333Y-105290952D01*
X96861333Y-105433809D01*
X96813714Y-105624285D01*
X96766095Y-105719523D01*
X96670857Y-105814761D01*
X96528000Y-105862380D01*
X96289904Y-105862380D01*
X97766095Y-104862380D02*
X97289904Y-104862380D01*
X97242285Y-105338571D01*
X97289904Y-105290952D01*
X97385142Y-105243333D01*
X97623238Y-105243333D01*
X97718476Y-105290952D01*
X97766095Y-105338571D01*
X97813714Y-105433809D01*
X97813714Y-105671904D01*
X97766095Y-105767142D01*
X97718476Y-105814761D01*
X97623238Y-105862380D01*
X97385142Y-105862380D01*
X97289904Y-105814761D01*
X97242285Y-105767142D01*
X96161904Y-103322380D02*
X96161904Y-102322380D01*
X96400000Y-102322380D01*
X96542857Y-102370000D01*
X96638095Y-102465238D01*
X96685714Y-102560476D01*
X96733333Y-102750952D01*
X96733333Y-102893809D01*
X96685714Y-103084285D01*
X96638095Y-103179523D01*
X96542857Y-103274761D01*
X96400000Y-103322380D01*
X96161904Y-103322380D01*
X97590476Y-102655714D02*
X97590476Y-103322380D01*
X97352380Y-102274761D02*
X97114285Y-102989047D01*
X97733333Y-102989047D01*
X83970904Y-57348380D02*
X83970904Y-56348380D01*
X84209000Y-56348380D01*
X84351857Y-56396000D01*
X84447095Y-56491238D01*
X84494714Y-56586476D01*
X84542333Y-56776952D01*
X84542333Y-56919809D01*
X84494714Y-57110285D01*
X84447095Y-57205523D01*
X84351857Y-57300761D01*
X84209000Y-57348380D01*
X83970904Y-57348380D01*
X84875666Y-56348380D02*
X85494714Y-56348380D01*
X85161380Y-56729333D01*
X85304238Y-56729333D01*
X85399476Y-56776952D01*
X85447095Y-56824571D01*
X85494714Y-56919809D01*
X85494714Y-57157904D01*
X85447095Y-57253142D01*
X85399476Y-57300761D01*
X85304238Y-57348380D01*
X85018523Y-57348380D01*
X84923285Y-57300761D01*
X84875666Y-57253142D01*
X77493904Y-55062380D02*
X77493904Y-54062380D01*
X77732000Y-54062380D01*
X77874857Y-54110000D01*
X77970095Y-54205238D01*
X78017714Y-54300476D01*
X78065333Y-54490952D01*
X78065333Y-54633809D01*
X78017714Y-54824285D01*
X77970095Y-54919523D01*
X77874857Y-55014761D01*
X77732000Y-55062380D01*
X77493904Y-55062380D01*
X78446285Y-54157619D02*
X78493904Y-54110000D01*
X78589142Y-54062380D01*
X78827238Y-54062380D01*
X78922476Y-54110000D01*
X78970095Y-54157619D01*
X79017714Y-54252857D01*
X79017714Y-54348095D01*
X78970095Y-54490952D01*
X78398666Y-55062380D01*
X79017714Y-55062380D01*
X77493904Y-52522380D02*
X77493904Y-51522380D01*
X77732000Y-51522380D01*
X77874857Y-51570000D01*
X77970095Y-51665238D01*
X78017714Y-51760476D01*
X78065333Y-51950952D01*
X78065333Y-52093809D01*
X78017714Y-52284285D01*
X77970095Y-52379523D01*
X77874857Y-52474761D01*
X77732000Y-52522380D01*
X77493904Y-52522380D01*
X79017714Y-52522380D02*
X78446285Y-52522380D01*
X78732000Y-52522380D02*
X78732000Y-51522380D01*
X78636761Y-51665238D01*
X78541523Y-51760476D01*
X78446285Y-51808095D01*
X108087142Y-108561142D02*
X108039523Y-108608761D01*
X107896666Y-108656380D01*
X107801428Y-108656380D01*
X107658571Y-108608761D01*
X107563333Y-108513523D01*
X107515714Y-108418285D01*
X107468095Y-108227809D01*
X107468095Y-108084952D01*
X107515714Y-107894476D01*
X107563333Y-107799238D01*
X107658571Y-107704000D01*
X107801428Y-107656380D01*
X107896666Y-107656380D01*
X108039523Y-107704000D01*
X108087142Y-107751619D01*
X109039523Y-108656380D02*
X108468095Y-108656380D01*
X108753809Y-108656380D02*
X108753809Y-107656380D01*
X108658571Y-107799238D01*
X108563333Y-107894476D01*
X108468095Y-107942095D01*
X109991904Y-108656380D02*
X109420476Y-108656380D01*
X109706190Y-108656380D02*
X109706190Y-107656380D01*
X109610952Y-107799238D01*
X109515714Y-107894476D01*
X109420476Y-107942095D01*
X105284142Y-82653142D02*
X105236523Y-82700761D01*
X105093666Y-82748380D01*
X104998428Y-82748380D01*
X104855571Y-82700761D01*
X104760333Y-82605523D01*
X104712714Y-82510285D01*
X104665095Y-82319809D01*
X104665095Y-82176952D01*
X104712714Y-81986476D01*
X104760333Y-81891238D01*
X104855571Y-81796000D01*
X104998428Y-81748380D01*
X105093666Y-81748380D01*
X105236523Y-81796000D01*
X105284142Y-81843619D01*
X106236523Y-82748380D02*
X105665095Y-82748380D01*
X105950809Y-82748380D02*
X105950809Y-81748380D01*
X105855571Y-81891238D01*
X105760333Y-81986476D01*
X105665095Y-82034095D01*
X106855571Y-81748380D02*
X106950809Y-81748380D01*
X107046047Y-81796000D01*
X107093666Y-81843619D01*
X107141285Y-81938857D01*
X107188904Y-82129333D01*
X107188904Y-82367428D01*
X107141285Y-82557904D01*
X107093666Y-82653142D01*
X107046047Y-82700761D01*
X106950809Y-82748380D01*
X106855571Y-82748380D01*
X106760333Y-82700761D01*
X106712714Y-82653142D01*
X106665095Y-82557904D01*
X106617476Y-82367428D01*
X106617476Y-82129333D01*
X106665095Y-81938857D01*
X106712714Y-81843619D01*
X106760333Y-81796000D01*
X106855571Y-81748380D01*
X104481333Y-95861142D02*
X104433714Y-95908761D01*
X104290857Y-95956380D01*
X104195619Y-95956380D01*
X104052761Y-95908761D01*
X103957523Y-95813523D01*
X103909904Y-95718285D01*
X103862285Y-95527809D01*
X103862285Y-95384952D01*
X103909904Y-95194476D01*
X103957523Y-95099238D01*
X104052761Y-95004000D01*
X104195619Y-94956380D01*
X104290857Y-94956380D01*
X104433714Y-95004000D01*
X104481333Y-95051619D01*
X104957523Y-95956380D02*
X105148000Y-95956380D01*
X105243238Y-95908761D01*
X105290857Y-95861142D01*
X105386095Y-95718285D01*
X105433714Y-95527809D01*
X105433714Y-95146857D01*
X105386095Y-95051619D01*
X105338476Y-95004000D01*
X105243238Y-94956380D01*
X105052761Y-94956380D01*
X104957523Y-95004000D01*
X104909904Y-95051619D01*
X104862285Y-95146857D01*
X104862285Y-95384952D01*
X104909904Y-95480190D01*
X104957523Y-95527809D01*
X105052761Y-95575428D01*
X105243238Y-95575428D01*
X105338476Y-95527809D01*
X105386095Y-95480190D01*
X105433714Y-95384952D01*
X108037333Y-105513142D02*
X107989714Y-105560761D01*
X107846857Y-105608380D01*
X107751619Y-105608380D01*
X107608761Y-105560761D01*
X107513523Y-105465523D01*
X107465904Y-105370285D01*
X107418285Y-105179809D01*
X107418285Y-105036952D01*
X107465904Y-104846476D01*
X107513523Y-104751238D01*
X107608761Y-104656000D01*
X107751619Y-104608380D01*
X107846857Y-104608380D01*
X107989714Y-104656000D01*
X108037333Y-104703619D01*
X108608761Y-105036952D02*
X108513523Y-104989333D01*
X108465904Y-104941714D01*
X108418285Y-104846476D01*
X108418285Y-104798857D01*
X108465904Y-104703619D01*
X108513523Y-104656000D01*
X108608761Y-104608380D01*
X108799238Y-104608380D01*
X108894476Y-104656000D01*
X108942095Y-104703619D01*
X108989714Y-104798857D01*
X108989714Y-104846476D01*
X108942095Y-104941714D01*
X108894476Y-104989333D01*
X108799238Y-105036952D01*
X108608761Y-105036952D01*
X108513523Y-105084571D01*
X108465904Y-105132190D01*
X108418285Y-105227428D01*
X108418285Y-105417904D01*
X108465904Y-105513142D01*
X108513523Y-105560761D01*
X108608761Y-105608380D01*
X108799238Y-105608380D01*
X108894476Y-105560761D01*
X108942095Y-105513142D01*
X108989714Y-105417904D01*
X108989714Y-105227428D01*
X108942095Y-105132190D01*
X108894476Y-105084571D01*
X108799238Y-105036952D01*
X85558333Y-54713142D02*
X85510714Y-54760761D01*
X85367857Y-54808380D01*
X85272619Y-54808380D01*
X85129761Y-54760761D01*
X85034523Y-54665523D01*
X84986904Y-54570285D01*
X84939285Y-54379809D01*
X84939285Y-54236952D01*
X84986904Y-54046476D01*
X85034523Y-53951238D01*
X85129761Y-53856000D01*
X85272619Y-53808380D01*
X85367857Y-53808380D01*
X85510714Y-53856000D01*
X85558333Y-53903619D01*
X85891666Y-53808380D02*
X86558333Y-53808380D01*
X86129761Y-54808380D01*
X96598333Y-46967142D02*
X96550714Y-47014761D01*
X96407857Y-47062380D01*
X96312619Y-47062380D01*
X96169761Y-47014761D01*
X96074523Y-46919523D01*
X96026904Y-46824285D01*
X95979285Y-46633809D01*
X95979285Y-46490952D01*
X96026904Y-46300476D01*
X96074523Y-46205238D01*
X96169761Y-46110000D01*
X96312619Y-46062380D01*
X96407857Y-46062380D01*
X96550714Y-46110000D01*
X96598333Y-46157619D01*
X97455476Y-46062380D02*
X97265000Y-46062380D01*
X97169761Y-46110000D01*
X97122142Y-46157619D01*
X97026904Y-46300476D01*
X96979285Y-46490952D01*
X96979285Y-46871904D01*
X97026904Y-46967142D01*
X97074523Y-47014761D01*
X97169761Y-47062380D01*
X97360238Y-47062380D01*
X97455476Y-47014761D01*
X97503095Y-46967142D01*
X97550714Y-46871904D01*
X97550714Y-46633809D01*
X97503095Y-46538571D01*
X97455476Y-46490952D01*
X97360238Y-46443333D01*
X97169761Y-46443333D01*
X97074523Y-46490952D01*
X97026904Y-46538571D01*
X96979285Y-46633809D01*
X96353333Y-58777142D02*
X96305714Y-58824761D01*
X96162857Y-58872380D01*
X96067619Y-58872380D01*
X95924761Y-58824761D01*
X95829523Y-58729523D01*
X95781904Y-58634285D01*
X95734285Y-58443809D01*
X95734285Y-58300952D01*
X95781904Y-58110476D01*
X95829523Y-58015238D01*
X95924761Y-57920000D01*
X96067619Y-57872380D01*
X96162857Y-57872380D01*
X96305714Y-57920000D01*
X96353333Y-57967619D01*
X97258095Y-57872380D02*
X96781904Y-57872380D01*
X96734285Y-58348571D01*
X96781904Y-58300952D01*
X96877142Y-58253333D01*
X97115238Y-58253333D01*
X97210476Y-58300952D01*
X97258095Y-58348571D01*
X97305714Y-58443809D01*
X97305714Y-58681904D01*
X97258095Y-58777142D01*
X97210476Y-58824761D01*
X97115238Y-58872380D01*
X96877142Y-58872380D01*
X96781904Y-58824761D01*
X96734285Y-58777142D01*
X108309333Y-48109142D02*
X108261714Y-48156761D01*
X108118857Y-48204380D01*
X108023619Y-48204380D01*
X107880761Y-48156761D01*
X107785523Y-48061523D01*
X107737904Y-47966285D01*
X107690285Y-47775809D01*
X107690285Y-47632952D01*
X107737904Y-47442476D01*
X107785523Y-47347238D01*
X107880761Y-47252000D01*
X108023619Y-47204380D01*
X108118857Y-47204380D01*
X108261714Y-47252000D01*
X108309333Y-47299619D01*
X109166476Y-47537714D02*
X109166476Y-48204380D01*
X108928380Y-47156761D02*
X108690285Y-47871047D01*
X109309333Y-47871047D01*
X108563333Y-64492142D02*
X108515714Y-64539761D01*
X108372857Y-64587380D01*
X108277619Y-64587380D01*
X108134761Y-64539761D01*
X108039523Y-64444523D01*
X107991904Y-64349285D01*
X107944285Y-64158809D01*
X107944285Y-64015952D01*
X107991904Y-63825476D01*
X108039523Y-63730238D01*
X108134761Y-63635000D01*
X108277619Y-63587380D01*
X108372857Y-63587380D01*
X108515714Y-63635000D01*
X108563333Y-63682619D01*
X108896666Y-63587380D02*
X109515714Y-63587380D01*
X109182380Y-63968333D01*
X109325238Y-63968333D01*
X109420476Y-64015952D01*
X109468095Y-64063571D01*
X109515714Y-64158809D01*
X109515714Y-64396904D01*
X109468095Y-64492142D01*
X109420476Y-64539761D01*
X109325238Y-64587380D01*
X109039523Y-64587380D01*
X108944285Y-64539761D01*
X108896666Y-64492142D01*
X104608333Y-43537142D02*
X104560714Y-43584761D01*
X104417857Y-43632380D01*
X104322619Y-43632380D01*
X104179761Y-43584761D01*
X104084523Y-43489523D01*
X104036904Y-43394285D01*
X103989285Y-43203809D01*
X103989285Y-43060952D01*
X104036904Y-42870476D01*
X104084523Y-42775238D01*
X104179761Y-42680000D01*
X104322619Y-42632380D01*
X104417857Y-42632380D01*
X104560714Y-42680000D01*
X104608333Y-42727619D01*
X104989285Y-42727619D02*
X105036904Y-42680000D01*
X105132142Y-42632380D01*
X105370238Y-42632380D01*
X105465476Y-42680000D01*
X105513095Y-42727619D01*
X105560714Y-42822857D01*
X105560714Y-42918095D01*
X105513095Y-43060952D01*
X104941666Y-43632380D01*
X105560714Y-43632380D01*
M02*
