G04 #@! TF.GenerationSoftware,KiCad,Pcbnew,5.1.6-c6e7f7d~86~ubuntu18.04.1*
G04 #@! TF.CreationDate,2020-06-20T09:56:21-04:00*
G04 #@! TF.ProjectId,five_pulser_board,66697665-5f70-4756-9c73-65725f626f61,rev?*
G04 #@! TF.SameCoordinates,Original*
G04 #@! TF.FileFunction,Paste,Top*
G04 #@! TF.FilePolarity,Positive*
%FSLAX46Y46*%
G04 Gerber Fmt 4.6, Leading zero omitted, Abs format (unit mm)*
G04 Created by KiCad (PCBNEW 5.1.6-c6e7f7d~86~ubuntu18.04.1) date 2020-06-20 09:56:21*
%MOMM*%
%LPD*%
G01*
G04 APERTURE LIST*
%ADD10R,0.900000X1.200000*%
G04 APERTURE END LIST*
G36*
G01*
X105245000Y-101450000D02*
X105245000Y-101750000D01*
G75*
G02*
X105095000Y-101900000I-150000J0D01*
G01*
X103445000Y-101900000D01*
G75*
G02*
X103295000Y-101750000I0J150000D01*
G01*
X103295000Y-101450000D01*
G75*
G02*
X103445000Y-101300000I150000J0D01*
G01*
X105095000Y-101300000D01*
G75*
G02*
X105245000Y-101450000I0J-150000D01*
G01*
G37*
G36*
G01*
X105245000Y-100180000D02*
X105245000Y-100480000D01*
G75*
G02*
X105095000Y-100630000I-150000J0D01*
G01*
X103445000Y-100630000D01*
G75*
G02*
X103295000Y-100480000I0J150000D01*
G01*
X103295000Y-100180000D01*
G75*
G02*
X103445000Y-100030000I150000J0D01*
G01*
X105095000Y-100030000D01*
G75*
G02*
X105245000Y-100180000I0J-150000D01*
G01*
G37*
G36*
G01*
X105245000Y-98910000D02*
X105245000Y-99210000D01*
G75*
G02*
X105095000Y-99360000I-150000J0D01*
G01*
X103445000Y-99360000D01*
G75*
G02*
X103295000Y-99210000I0J150000D01*
G01*
X103295000Y-98910000D01*
G75*
G02*
X103445000Y-98760000I150000J0D01*
G01*
X105095000Y-98760000D01*
G75*
G02*
X105245000Y-98910000I0J-150000D01*
G01*
G37*
G36*
G01*
X105245000Y-97640000D02*
X105245000Y-97940000D01*
G75*
G02*
X105095000Y-98090000I-150000J0D01*
G01*
X103445000Y-98090000D01*
G75*
G02*
X103295000Y-97940000I0J150000D01*
G01*
X103295000Y-97640000D01*
G75*
G02*
X103445000Y-97490000I150000J0D01*
G01*
X105095000Y-97490000D01*
G75*
G02*
X105245000Y-97640000I0J-150000D01*
G01*
G37*
G36*
G01*
X110195000Y-97640000D02*
X110195000Y-97940000D01*
G75*
G02*
X110045000Y-98090000I-150000J0D01*
G01*
X108395000Y-98090000D01*
G75*
G02*
X108245000Y-97940000I0J150000D01*
G01*
X108245000Y-97640000D01*
G75*
G02*
X108395000Y-97490000I150000J0D01*
G01*
X110045000Y-97490000D01*
G75*
G02*
X110195000Y-97640000I0J-150000D01*
G01*
G37*
G36*
G01*
X110195000Y-98910000D02*
X110195000Y-99210000D01*
G75*
G02*
X110045000Y-99360000I-150000J0D01*
G01*
X108395000Y-99360000D01*
G75*
G02*
X108245000Y-99210000I0J150000D01*
G01*
X108245000Y-98910000D01*
G75*
G02*
X108395000Y-98760000I150000J0D01*
G01*
X110045000Y-98760000D01*
G75*
G02*
X110195000Y-98910000I0J-150000D01*
G01*
G37*
G36*
G01*
X110195000Y-100180000D02*
X110195000Y-100480000D01*
G75*
G02*
X110045000Y-100630000I-150000J0D01*
G01*
X108395000Y-100630000D01*
G75*
G02*
X108245000Y-100480000I0J150000D01*
G01*
X108245000Y-100180000D01*
G75*
G02*
X108395000Y-100030000I150000J0D01*
G01*
X110045000Y-100030000D01*
G75*
G02*
X110195000Y-100180000I0J-150000D01*
G01*
G37*
G36*
G01*
X110195000Y-101450000D02*
X110195000Y-101750000D01*
G75*
G02*
X110045000Y-101900000I-150000J0D01*
G01*
X108395000Y-101900000D01*
G75*
G02*
X108245000Y-101750000I0J150000D01*
G01*
X108245000Y-101450000D01*
G75*
G02*
X108395000Y-101300000I150000J0D01*
G01*
X110045000Y-101300000D01*
G75*
G02*
X110195000Y-101450000I0J-150000D01*
G01*
G37*
G36*
G01*
X93685000Y-54460000D02*
X93685000Y-54760000D01*
G75*
G02*
X93535000Y-54910000I-150000J0D01*
G01*
X91885000Y-54910000D01*
G75*
G02*
X91735000Y-54760000I0J150000D01*
G01*
X91735000Y-54460000D01*
G75*
G02*
X91885000Y-54310000I150000J0D01*
G01*
X93535000Y-54310000D01*
G75*
G02*
X93685000Y-54460000I0J-150000D01*
G01*
G37*
G36*
G01*
X93685000Y-53190000D02*
X93685000Y-53490000D01*
G75*
G02*
X93535000Y-53640000I-150000J0D01*
G01*
X91885000Y-53640000D01*
G75*
G02*
X91735000Y-53490000I0J150000D01*
G01*
X91735000Y-53190000D01*
G75*
G02*
X91885000Y-53040000I150000J0D01*
G01*
X93535000Y-53040000D01*
G75*
G02*
X93685000Y-53190000I0J-150000D01*
G01*
G37*
G36*
G01*
X93685000Y-51920000D02*
X93685000Y-52220000D01*
G75*
G02*
X93535000Y-52370000I-150000J0D01*
G01*
X91885000Y-52370000D01*
G75*
G02*
X91735000Y-52220000I0J150000D01*
G01*
X91735000Y-51920000D01*
G75*
G02*
X91885000Y-51770000I150000J0D01*
G01*
X93535000Y-51770000D01*
G75*
G02*
X93685000Y-51920000I0J-150000D01*
G01*
G37*
G36*
G01*
X93685000Y-50650000D02*
X93685000Y-50950000D01*
G75*
G02*
X93535000Y-51100000I-150000J0D01*
G01*
X91885000Y-51100000D01*
G75*
G02*
X91735000Y-50950000I0J150000D01*
G01*
X91735000Y-50650000D01*
G75*
G02*
X91885000Y-50500000I150000J0D01*
G01*
X93535000Y-50500000D01*
G75*
G02*
X93685000Y-50650000I0J-150000D01*
G01*
G37*
G36*
G01*
X98635000Y-50650000D02*
X98635000Y-50950000D01*
G75*
G02*
X98485000Y-51100000I-150000J0D01*
G01*
X96835000Y-51100000D01*
G75*
G02*
X96685000Y-50950000I0J150000D01*
G01*
X96685000Y-50650000D01*
G75*
G02*
X96835000Y-50500000I150000J0D01*
G01*
X98485000Y-50500000D01*
G75*
G02*
X98635000Y-50650000I0J-150000D01*
G01*
G37*
G36*
G01*
X98635000Y-51920000D02*
X98635000Y-52220000D01*
G75*
G02*
X98485000Y-52370000I-150000J0D01*
G01*
X96835000Y-52370000D01*
G75*
G02*
X96685000Y-52220000I0J150000D01*
G01*
X96685000Y-51920000D01*
G75*
G02*
X96835000Y-51770000I150000J0D01*
G01*
X98485000Y-51770000D01*
G75*
G02*
X98635000Y-51920000I0J-150000D01*
G01*
G37*
G36*
G01*
X98635000Y-53190000D02*
X98635000Y-53490000D01*
G75*
G02*
X98485000Y-53640000I-150000J0D01*
G01*
X96835000Y-53640000D01*
G75*
G02*
X96685000Y-53490000I0J150000D01*
G01*
X96685000Y-53190000D01*
G75*
G02*
X96835000Y-53040000I150000J0D01*
G01*
X98485000Y-53040000D01*
G75*
G02*
X98635000Y-53190000I0J-150000D01*
G01*
G37*
G36*
G01*
X98635000Y-54460000D02*
X98635000Y-54760000D01*
G75*
G02*
X98485000Y-54910000I-150000J0D01*
G01*
X96835000Y-54910000D01*
G75*
G02*
X96685000Y-54760000I0J150000D01*
G01*
X96685000Y-54460000D01*
G75*
G02*
X96835000Y-54310000I150000J0D01*
G01*
X98485000Y-54310000D01*
G75*
G02*
X98635000Y-54460000I0J-150000D01*
G01*
G37*
G36*
G01*
X101034000Y-108654001D02*
X101034000Y-107753999D01*
G75*
G02*
X101283999Y-107504000I249999J0D01*
G01*
X101934001Y-107504000D01*
G75*
G02*
X102184000Y-107753999I0J-249999D01*
G01*
X102184000Y-108654001D01*
G75*
G02*
X101934001Y-108904000I-249999J0D01*
G01*
X101283999Y-108904000D01*
G75*
G02*
X101034000Y-108654001I0J249999D01*
G01*
G37*
G36*
G01*
X98984000Y-108654001D02*
X98984000Y-107753999D01*
G75*
G02*
X99233999Y-107504000I249999J0D01*
G01*
X99884001Y-107504000D01*
G75*
G02*
X100134000Y-107753999I0J-249999D01*
G01*
X100134000Y-108654001D01*
G75*
G02*
X99884001Y-108904000I-249999J0D01*
G01*
X99233999Y-108904000D01*
G75*
G02*
X98984000Y-108654001I0J249999D01*
G01*
G37*
G36*
G01*
X101025000Y-100780001D02*
X101025000Y-99879999D01*
G75*
G02*
X101274999Y-99630000I249999J0D01*
G01*
X101925001Y-99630000D01*
G75*
G02*
X102175000Y-99879999I0J-249999D01*
G01*
X102175000Y-100780001D01*
G75*
G02*
X101925001Y-101030000I-249999J0D01*
G01*
X101274999Y-101030000D01*
G75*
G02*
X101025000Y-100780001I0J249999D01*
G01*
G37*
G36*
G01*
X98975000Y-100780001D02*
X98975000Y-99879999D01*
G75*
G02*
X99224999Y-99630000I249999J0D01*
G01*
X99875001Y-99630000D01*
G75*
G02*
X100125000Y-99879999I0J-249999D01*
G01*
X100125000Y-100780001D01*
G75*
G02*
X99875001Y-101030000I-249999J0D01*
G01*
X99224999Y-101030000D01*
G75*
G02*
X98975000Y-100780001I0J249999D01*
G01*
G37*
G36*
G01*
X101025000Y-98240001D02*
X101025000Y-97339999D01*
G75*
G02*
X101274999Y-97090000I249999J0D01*
G01*
X101925001Y-97090000D01*
G75*
G02*
X102175000Y-97339999I0J-249999D01*
G01*
X102175000Y-98240001D01*
G75*
G02*
X101925001Y-98490000I-249999J0D01*
G01*
X101274999Y-98490000D01*
G75*
G02*
X101025000Y-98240001I0J249999D01*
G01*
G37*
G36*
G01*
X98975000Y-98240001D02*
X98975000Y-97339999D01*
G75*
G02*
X99224999Y-97090000I249999J0D01*
G01*
X99875001Y-97090000D01*
G75*
G02*
X100125000Y-97339999I0J-249999D01*
G01*
X100125000Y-98240001D01*
G75*
G02*
X99875001Y-98490000I-249999J0D01*
G01*
X99224999Y-98490000D01*
G75*
G02*
X98975000Y-98240001I0J249999D01*
G01*
G37*
G36*
G01*
X100125000Y-94799999D02*
X100125000Y-95700001D01*
G75*
G02*
X99875001Y-95950000I-249999J0D01*
G01*
X99224999Y-95950000D01*
G75*
G02*
X98975000Y-95700001I0J249999D01*
G01*
X98975000Y-94799999D01*
G75*
G02*
X99224999Y-94550000I249999J0D01*
G01*
X99875001Y-94550000D01*
G75*
G02*
X100125000Y-94799999I0J-249999D01*
G01*
G37*
G36*
G01*
X102175000Y-94799999D02*
X102175000Y-95700001D01*
G75*
G02*
X101925001Y-95950000I-249999J0D01*
G01*
X101274999Y-95950000D01*
G75*
G02*
X101025000Y-95700001I0J249999D01*
G01*
X101025000Y-94799999D01*
G75*
G02*
X101274999Y-94550000I249999J0D01*
G01*
X101925001Y-94550000D01*
G75*
G02*
X102175000Y-94799999I0J-249999D01*
G01*
G37*
G36*
G01*
X86427000Y-108769999D02*
X86427000Y-109670001D01*
G75*
G02*
X86177001Y-109920000I-249999J0D01*
G01*
X85526999Y-109920000D01*
G75*
G02*
X85277000Y-109670001I0J249999D01*
G01*
X85277000Y-108769999D01*
G75*
G02*
X85526999Y-108520000I249999J0D01*
G01*
X86177001Y-108520000D01*
G75*
G02*
X86427000Y-108769999I0J-249999D01*
G01*
G37*
G36*
G01*
X88477000Y-108769999D02*
X88477000Y-109670001D01*
G75*
G02*
X88227001Y-109920000I-249999J0D01*
G01*
X87576999Y-109920000D01*
G75*
G02*
X87327000Y-109670001I0J249999D01*
G01*
X87327000Y-108769999D01*
G75*
G02*
X87576999Y-108520000I249999J0D01*
G01*
X88227001Y-108520000D01*
G75*
G02*
X88477000Y-108769999I0J-249999D01*
G01*
G37*
G36*
G01*
X87327000Y-107638001D02*
X87327000Y-106737999D01*
G75*
G02*
X87576999Y-106488000I249999J0D01*
G01*
X88227001Y-106488000D01*
G75*
G02*
X88477000Y-106737999I0J-249999D01*
G01*
X88477000Y-107638001D01*
G75*
G02*
X88227001Y-107888000I-249999J0D01*
G01*
X87576999Y-107888000D01*
G75*
G02*
X87327000Y-107638001I0J249999D01*
G01*
G37*
G36*
G01*
X85277000Y-107638001D02*
X85277000Y-106737999D01*
G75*
G02*
X85526999Y-106488000I249999J0D01*
G01*
X86177001Y-106488000D01*
G75*
G02*
X86427000Y-106737999I0J-249999D01*
G01*
X86427000Y-107638001D01*
G75*
G02*
X86177001Y-107888000I-249999J0D01*
G01*
X85526999Y-107888000D01*
G75*
G02*
X85277000Y-107638001I0J249999D01*
G01*
G37*
G36*
G01*
X86427000Y-104705999D02*
X86427000Y-105606001D01*
G75*
G02*
X86177001Y-105856000I-249999J0D01*
G01*
X85526999Y-105856000D01*
G75*
G02*
X85277000Y-105606001I0J249999D01*
G01*
X85277000Y-104705999D01*
G75*
G02*
X85526999Y-104456000I249999J0D01*
G01*
X86177001Y-104456000D01*
G75*
G02*
X86427000Y-104705999I0J-249999D01*
G01*
G37*
G36*
G01*
X88477000Y-104705999D02*
X88477000Y-105606001D01*
G75*
G02*
X88227001Y-105856000I-249999J0D01*
G01*
X87576999Y-105856000D01*
G75*
G02*
X87327000Y-105606001I0J249999D01*
G01*
X87327000Y-104705999D01*
G75*
G02*
X87576999Y-104456000I249999J0D01*
G01*
X88227001Y-104456000D01*
G75*
G02*
X88477000Y-104705999I0J-249999D01*
G01*
G37*
G36*
G01*
X87327000Y-103574001D02*
X87327000Y-102673999D01*
G75*
G02*
X87576999Y-102424000I249999J0D01*
G01*
X88227001Y-102424000D01*
G75*
G02*
X88477000Y-102673999I0J-249999D01*
G01*
X88477000Y-103574001D01*
G75*
G02*
X88227001Y-103824000I-249999J0D01*
G01*
X87576999Y-103824000D01*
G75*
G02*
X87327000Y-103574001I0J249999D01*
G01*
G37*
G36*
G01*
X85277000Y-103574001D02*
X85277000Y-102673999D01*
G75*
G02*
X85526999Y-102424000I249999J0D01*
G01*
X86177001Y-102424000D01*
G75*
G02*
X86427000Y-102673999I0J-249999D01*
G01*
X86427000Y-103574001D01*
G75*
G02*
X86177001Y-103824000I-249999J0D01*
G01*
X85526999Y-103824000D01*
G75*
G02*
X85277000Y-103574001I0J249999D01*
G01*
G37*
G36*
G01*
X86409000Y-100641999D02*
X86409000Y-101542001D01*
G75*
G02*
X86159001Y-101792000I-249999J0D01*
G01*
X85508999Y-101792000D01*
G75*
G02*
X85259000Y-101542001I0J249999D01*
G01*
X85259000Y-100641999D01*
G75*
G02*
X85508999Y-100392000I249999J0D01*
G01*
X86159001Y-100392000D01*
G75*
G02*
X86409000Y-100641999I0J-249999D01*
G01*
G37*
G36*
G01*
X88459000Y-100641999D02*
X88459000Y-101542001D01*
G75*
G02*
X88209001Y-101792000I-249999J0D01*
G01*
X87558999Y-101792000D01*
G75*
G02*
X87309000Y-101542001I0J249999D01*
G01*
X87309000Y-100641999D01*
G75*
G02*
X87558999Y-100392000I249999J0D01*
G01*
X88209001Y-100392000D01*
G75*
G02*
X88459000Y-100641999I0J-249999D01*
G01*
G37*
G36*
G01*
X87309000Y-99510001D02*
X87309000Y-98609999D01*
G75*
G02*
X87558999Y-98360000I249999J0D01*
G01*
X88209001Y-98360000D01*
G75*
G02*
X88459000Y-98609999I0J-249999D01*
G01*
X88459000Y-99510001D01*
G75*
G02*
X88209001Y-99760000I-249999J0D01*
G01*
X87558999Y-99760000D01*
G75*
G02*
X87309000Y-99510001I0J249999D01*
G01*
G37*
G36*
G01*
X85259000Y-99510001D02*
X85259000Y-98609999D01*
G75*
G02*
X85508999Y-98360000I249999J0D01*
G01*
X86159001Y-98360000D01*
G75*
G02*
X86409000Y-98609999I0J-249999D01*
G01*
X86409000Y-99510001D01*
G75*
G02*
X86159001Y-99760000I-249999J0D01*
G01*
X85508999Y-99760000D01*
G75*
G02*
X85259000Y-99510001I0J249999D01*
G01*
G37*
G36*
G01*
X86427000Y-96577999D02*
X86427000Y-97478001D01*
G75*
G02*
X86177001Y-97728000I-249999J0D01*
G01*
X85526999Y-97728000D01*
G75*
G02*
X85277000Y-97478001I0J249999D01*
G01*
X85277000Y-96577999D01*
G75*
G02*
X85526999Y-96328000I249999J0D01*
G01*
X86177001Y-96328000D01*
G75*
G02*
X86427000Y-96577999I0J-249999D01*
G01*
G37*
G36*
G01*
X88477000Y-96577999D02*
X88477000Y-97478001D01*
G75*
G02*
X88227001Y-97728000I-249999J0D01*
G01*
X87576999Y-97728000D01*
G75*
G02*
X87327000Y-97478001I0J249999D01*
G01*
X87327000Y-96577999D01*
G75*
G02*
X87576999Y-96328000I249999J0D01*
G01*
X88227001Y-96328000D01*
G75*
G02*
X88477000Y-96577999I0J-249999D01*
G01*
G37*
G36*
G01*
X87327000Y-95446001D02*
X87327000Y-94545999D01*
G75*
G02*
X87576999Y-94296000I249999J0D01*
G01*
X88227001Y-94296000D01*
G75*
G02*
X88477000Y-94545999I0J-249999D01*
G01*
X88477000Y-95446001D01*
G75*
G02*
X88227001Y-95696000I-249999J0D01*
G01*
X87576999Y-95696000D01*
G75*
G02*
X87327000Y-95446001I0J249999D01*
G01*
G37*
G36*
G01*
X85277000Y-95446001D02*
X85277000Y-94545999D01*
G75*
G02*
X85526999Y-94296000I249999J0D01*
G01*
X86177001Y-94296000D01*
G75*
G02*
X86427000Y-94545999I0J-249999D01*
G01*
X86427000Y-95446001D01*
G75*
G02*
X86177001Y-95696000I-249999J0D01*
G01*
X85526999Y-95696000D01*
G75*
G02*
X85277000Y-95446001I0J249999D01*
G01*
G37*
G36*
G01*
X86427000Y-92513999D02*
X86427000Y-93414001D01*
G75*
G02*
X86177001Y-93664000I-249999J0D01*
G01*
X85526999Y-93664000D01*
G75*
G02*
X85277000Y-93414001I0J249999D01*
G01*
X85277000Y-92513999D01*
G75*
G02*
X85526999Y-92264000I249999J0D01*
G01*
X86177001Y-92264000D01*
G75*
G02*
X86427000Y-92513999I0J-249999D01*
G01*
G37*
G36*
G01*
X88477000Y-92513999D02*
X88477000Y-93414001D01*
G75*
G02*
X88227001Y-93664000I-249999J0D01*
G01*
X87576999Y-93664000D01*
G75*
G02*
X87327000Y-93414001I0J249999D01*
G01*
X87327000Y-92513999D01*
G75*
G02*
X87576999Y-92264000I249999J0D01*
G01*
X88227001Y-92264000D01*
G75*
G02*
X88477000Y-92513999I0J-249999D01*
G01*
G37*
G36*
G01*
X87327000Y-91382001D02*
X87327000Y-90481999D01*
G75*
G02*
X87576999Y-90232000I249999J0D01*
G01*
X88227001Y-90232000D01*
G75*
G02*
X88477000Y-90481999I0J-249999D01*
G01*
X88477000Y-91382001D01*
G75*
G02*
X88227001Y-91632000I-249999J0D01*
G01*
X87576999Y-91632000D01*
G75*
G02*
X87327000Y-91382001I0J249999D01*
G01*
G37*
G36*
G01*
X85277000Y-91382001D02*
X85277000Y-90481999D01*
G75*
G02*
X85526999Y-90232000I249999J0D01*
G01*
X86177001Y-90232000D01*
G75*
G02*
X86427000Y-90481999I0J-249999D01*
G01*
X86427000Y-91382001D01*
G75*
G02*
X86177001Y-91632000I-249999J0D01*
G01*
X85526999Y-91632000D01*
G75*
G02*
X85277000Y-91382001I0J249999D01*
G01*
G37*
G36*
G01*
X103075000Y-72840001D02*
X103075000Y-71939999D01*
G75*
G02*
X103324999Y-71690000I249999J0D01*
G01*
X103975001Y-71690000D01*
G75*
G02*
X104225000Y-71939999I0J-249999D01*
G01*
X104225000Y-72840001D01*
G75*
G02*
X103975001Y-73090000I-249999J0D01*
G01*
X103324999Y-73090000D01*
G75*
G02*
X103075000Y-72840001I0J249999D01*
G01*
G37*
G36*
G01*
X101025000Y-72840001D02*
X101025000Y-71939999D01*
G75*
G02*
X101274999Y-71690000I249999J0D01*
G01*
X101925001Y-71690000D01*
G75*
G02*
X102175000Y-71939999I0J-249999D01*
G01*
X102175000Y-72840001D01*
G75*
G02*
X101925001Y-73090000I-249999J0D01*
G01*
X101274999Y-73090000D01*
G75*
G02*
X101025000Y-72840001I0J249999D01*
G01*
G37*
G36*
G01*
X101286000Y-52889999D02*
X101286000Y-53790001D01*
G75*
G02*
X101036001Y-54040000I-249999J0D01*
G01*
X100385999Y-54040000D01*
G75*
G02*
X100136000Y-53790001I0J249999D01*
G01*
X100136000Y-52889999D01*
G75*
G02*
X100385999Y-52640000I249999J0D01*
G01*
X101036001Y-52640000D01*
G75*
G02*
X101286000Y-52889999I0J-249999D01*
G01*
G37*
G36*
G01*
X103336000Y-52889999D02*
X103336000Y-53790001D01*
G75*
G02*
X103086001Y-54040000I-249999J0D01*
G01*
X102435999Y-54040000D01*
G75*
G02*
X102186000Y-53790001I0J249999D01*
G01*
X102186000Y-52889999D01*
G75*
G02*
X102435999Y-52640000I249999J0D01*
G01*
X103086001Y-52640000D01*
G75*
G02*
X103336000Y-52889999I0J-249999D01*
G01*
G37*
G36*
G01*
X89214000Y-52520001D02*
X89214000Y-51619999D01*
G75*
G02*
X89463999Y-51370000I249999J0D01*
G01*
X90114001Y-51370000D01*
G75*
G02*
X90364000Y-51619999I0J-249999D01*
G01*
X90364000Y-52520001D01*
G75*
G02*
X90114001Y-52770000I-249999J0D01*
G01*
X89463999Y-52770000D01*
G75*
G02*
X89214000Y-52520001I0J249999D01*
G01*
G37*
G36*
G01*
X87164000Y-52520001D02*
X87164000Y-51619999D01*
G75*
G02*
X87413999Y-51370000I249999J0D01*
G01*
X88064001Y-51370000D01*
G75*
G02*
X88314000Y-51619999I0J-249999D01*
G01*
X88314000Y-52520001D01*
G75*
G02*
X88064001Y-52770000I-249999J0D01*
G01*
X87413999Y-52770000D01*
G75*
G02*
X87164000Y-52520001I0J249999D01*
G01*
G37*
G36*
G01*
X102186000Y-51250001D02*
X102186000Y-50349999D01*
G75*
G02*
X102435999Y-50100000I249999J0D01*
G01*
X103086001Y-50100000D01*
G75*
G02*
X103336000Y-50349999I0J-249999D01*
G01*
X103336000Y-51250001D01*
G75*
G02*
X103086001Y-51500000I-249999J0D01*
G01*
X102435999Y-51500000D01*
G75*
G02*
X102186000Y-51250001I0J249999D01*
G01*
G37*
G36*
G01*
X100136000Y-51250001D02*
X100136000Y-50349999D01*
G75*
G02*
X100385999Y-50100000I249999J0D01*
G01*
X101036001Y-50100000D01*
G75*
G02*
X101286000Y-50349999I0J-249999D01*
G01*
X101286000Y-51250001D01*
G75*
G02*
X101036001Y-51500000I-249999J0D01*
G01*
X100385999Y-51500000D01*
G75*
G02*
X100136000Y-51250001I0J249999D01*
G01*
G37*
G36*
G01*
X88314000Y-49333999D02*
X88314000Y-50234001D01*
G75*
G02*
X88064001Y-50484000I-249999J0D01*
G01*
X87413999Y-50484000D01*
G75*
G02*
X87164000Y-50234001I0J249999D01*
G01*
X87164000Y-49333999D01*
G75*
G02*
X87413999Y-49084000I249999J0D01*
G01*
X88064001Y-49084000D01*
G75*
G02*
X88314000Y-49333999I0J-249999D01*
G01*
G37*
G36*
G01*
X90364000Y-49333999D02*
X90364000Y-50234001D01*
G75*
G02*
X90114001Y-50484000I-249999J0D01*
G01*
X89463999Y-50484000D01*
G75*
G02*
X89214000Y-50234001I0J249999D01*
G01*
X89214000Y-49333999D01*
G75*
G02*
X89463999Y-49084000I249999J0D01*
G01*
X90114001Y-49084000D01*
G75*
G02*
X90364000Y-49333999I0J-249999D01*
G01*
G37*
G36*
G01*
X88323000Y-46793999D02*
X88323000Y-47694001D01*
G75*
G02*
X88073001Y-47944000I-249999J0D01*
G01*
X87422999Y-47944000D01*
G75*
G02*
X87173000Y-47694001I0J249999D01*
G01*
X87173000Y-46793999D01*
G75*
G02*
X87422999Y-46544000I249999J0D01*
G01*
X88073001Y-46544000D01*
G75*
G02*
X88323000Y-46793999I0J-249999D01*
G01*
G37*
G36*
G01*
X90373000Y-46793999D02*
X90373000Y-47694001D01*
G75*
G02*
X90123001Y-47944000I-249999J0D01*
G01*
X89472999Y-47944000D01*
G75*
G02*
X89223000Y-47694001I0J249999D01*
G01*
X89223000Y-46793999D01*
G75*
G02*
X89472999Y-46544000I249999J0D01*
G01*
X90123001Y-46544000D01*
G75*
G02*
X90373000Y-46793999I0J-249999D01*
G01*
G37*
G36*
G01*
X88314000Y-44253999D02*
X88314000Y-45154001D01*
G75*
G02*
X88064001Y-45404000I-249999J0D01*
G01*
X87413999Y-45404000D01*
G75*
G02*
X87164000Y-45154001I0J249999D01*
G01*
X87164000Y-44253999D01*
G75*
G02*
X87413999Y-44004000I249999J0D01*
G01*
X88064001Y-44004000D01*
G75*
G02*
X88314000Y-44253999I0J-249999D01*
G01*
G37*
G36*
G01*
X90364000Y-44253999D02*
X90364000Y-45154001D01*
G75*
G02*
X90114001Y-45404000I-249999J0D01*
G01*
X89463999Y-45404000D01*
G75*
G02*
X89214000Y-45154001I0J249999D01*
G01*
X89214000Y-44253999D01*
G75*
G02*
X89463999Y-44004000I249999J0D01*
G01*
X90114001Y-44004000D01*
G75*
G02*
X90364000Y-44253999I0J-249999D01*
G01*
G37*
G36*
G01*
X101286000Y-47809999D02*
X101286000Y-48710001D01*
G75*
G02*
X101036001Y-48960000I-249999J0D01*
G01*
X100385999Y-48960000D01*
G75*
G02*
X100136000Y-48710001I0J249999D01*
G01*
X100136000Y-47809999D01*
G75*
G02*
X100385999Y-47560000I249999J0D01*
G01*
X101036001Y-47560000D01*
G75*
G02*
X101286000Y-47809999I0J-249999D01*
G01*
G37*
G36*
G01*
X103336000Y-47809999D02*
X103336000Y-48710001D01*
G75*
G02*
X103086001Y-48960000I-249999J0D01*
G01*
X102435999Y-48960000D01*
G75*
G02*
X102186000Y-48710001I0J249999D01*
G01*
X102186000Y-47809999D01*
G75*
G02*
X102435999Y-47560000I249999J0D01*
G01*
X103086001Y-47560000D01*
G75*
G02*
X103336000Y-47809999I0J-249999D01*
G01*
G37*
G36*
G01*
X101286000Y-45269999D02*
X101286000Y-46170001D01*
G75*
G02*
X101036001Y-46420000I-249999J0D01*
G01*
X100385999Y-46420000D01*
G75*
G02*
X100136000Y-46170001I0J249999D01*
G01*
X100136000Y-45269999D01*
G75*
G02*
X100385999Y-45020000I249999J0D01*
G01*
X101036001Y-45020000D01*
G75*
G02*
X101286000Y-45269999I0J-249999D01*
G01*
G37*
G36*
G01*
X103336000Y-45269999D02*
X103336000Y-46170001D01*
G75*
G02*
X103086001Y-46420000I-249999J0D01*
G01*
X102435999Y-46420000D01*
G75*
G02*
X102186000Y-46170001I0J249999D01*
G01*
X102186000Y-45269999D01*
G75*
G02*
X102435999Y-45020000I249999J0D01*
G01*
X103086001Y-45020000D01*
G75*
G02*
X103336000Y-45269999I0J-249999D01*
G01*
G37*
G36*
G01*
X81837000Y-49333999D02*
X81837000Y-50234001D01*
G75*
G02*
X81587001Y-50484000I-249999J0D01*
G01*
X80936999Y-50484000D01*
G75*
G02*
X80687000Y-50234001I0J249999D01*
G01*
X80687000Y-49333999D01*
G75*
G02*
X80936999Y-49084000I249999J0D01*
G01*
X81587001Y-49084000D01*
G75*
G02*
X81837000Y-49333999I0J-249999D01*
G01*
G37*
G36*
G01*
X83887000Y-49333999D02*
X83887000Y-50234001D01*
G75*
G02*
X83637001Y-50484000I-249999J0D01*
G01*
X82986999Y-50484000D01*
G75*
G02*
X82737000Y-50234001I0J249999D01*
G01*
X82737000Y-49333999D01*
G75*
G02*
X82986999Y-49084000I249999J0D01*
G01*
X83637001Y-49084000D01*
G75*
G02*
X83887000Y-49333999I0J-249999D01*
G01*
G37*
D10*
X101980000Y-105410000D03*
X98680000Y-105410000D03*
X101980000Y-102870000D03*
X98680000Y-102870000D03*
X86489000Y-56896000D03*
X89789000Y-56896000D03*
X80012000Y-54610000D03*
X83312000Y-54610000D03*
X80012000Y-52070000D03*
X83312000Y-52070000D03*
G36*
G01*
X105615000Y-108654001D02*
X105615000Y-107753999D01*
G75*
G02*
X105864999Y-107504000I249999J0D01*
G01*
X106515001Y-107504000D01*
G75*
G02*
X106765000Y-107753999I0J-249999D01*
G01*
X106765000Y-108654001D01*
G75*
G02*
X106515001Y-108904000I-249999J0D01*
G01*
X105864999Y-108904000D01*
G75*
G02*
X105615000Y-108654001I0J249999D01*
G01*
G37*
G36*
G01*
X103565000Y-108654001D02*
X103565000Y-107753999D01*
G75*
G02*
X103814999Y-107504000I249999J0D01*
G01*
X104465001Y-107504000D01*
G75*
G02*
X104715000Y-107753999I0J-249999D01*
G01*
X104715000Y-108654001D01*
G75*
G02*
X104465001Y-108904000I-249999J0D01*
G01*
X103814999Y-108904000D01*
G75*
G02*
X103565000Y-108654001I0J249999D01*
G01*
G37*
G36*
G01*
X103075000Y-83000001D02*
X103075000Y-82099999D01*
G75*
G02*
X103324999Y-81850000I249999J0D01*
G01*
X103975001Y-81850000D01*
G75*
G02*
X104225000Y-82099999I0J-249999D01*
G01*
X104225000Y-83000001D01*
G75*
G02*
X103975001Y-83250000I-249999J0D01*
G01*
X103324999Y-83250000D01*
G75*
G02*
X103075000Y-83000001I0J249999D01*
G01*
G37*
G36*
G01*
X101025000Y-83000001D02*
X101025000Y-82099999D01*
G75*
G02*
X101274999Y-81850000I249999J0D01*
G01*
X101925001Y-81850000D01*
G75*
G02*
X102175000Y-82099999I0J-249999D01*
G01*
X102175000Y-83000001D01*
G75*
G02*
X101925001Y-83250000I-249999J0D01*
G01*
X101274999Y-83250000D01*
G75*
G02*
X101025000Y-83000001I0J249999D01*
G01*
G37*
G36*
G01*
X108400000Y-95700001D02*
X108400000Y-94799999D01*
G75*
G02*
X108649999Y-94550000I249999J0D01*
G01*
X109300001Y-94550000D01*
G75*
G02*
X109550000Y-94799999I0J-249999D01*
G01*
X109550000Y-95700001D01*
G75*
G02*
X109300001Y-95950000I-249999J0D01*
G01*
X108649999Y-95950000D01*
G75*
G02*
X108400000Y-95700001I0J249999D01*
G01*
G37*
G36*
G01*
X106350000Y-95700001D02*
X106350000Y-94799999D01*
G75*
G02*
X106599999Y-94550000I249999J0D01*
G01*
X107250001Y-94550000D01*
G75*
G02*
X107500000Y-94799999I0J-249999D01*
G01*
X107500000Y-95700001D01*
G75*
G02*
X107250001Y-95950000I-249999J0D01*
G01*
X106599999Y-95950000D01*
G75*
G02*
X106350000Y-95700001I0J249999D01*
G01*
G37*
G36*
G01*
X105615000Y-105860001D02*
X105615000Y-104959999D01*
G75*
G02*
X105864999Y-104710000I249999J0D01*
G01*
X106515001Y-104710000D01*
G75*
G02*
X106765000Y-104959999I0J-249999D01*
G01*
X106765000Y-105860001D01*
G75*
G02*
X106515001Y-106110000I-249999J0D01*
G01*
X105864999Y-106110000D01*
G75*
G02*
X105615000Y-105860001I0J249999D01*
G01*
G37*
G36*
G01*
X103565000Y-105860001D02*
X103565000Y-104959999D01*
G75*
G02*
X103814999Y-104710000I249999J0D01*
G01*
X104465001Y-104710000D01*
G75*
G02*
X104715000Y-104959999I0J-249999D01*
G01*
X104715000Y-105860001D01*
G75*
G02*
X104465001Y-106110000I-249999J0D01*
G01*
X103814999Y-106110000D01*
G75*
G02*
X103565000Y-105860001I0J249999D01*
G01*
G37*
G36*
G01*
X89214000Y-54806001D02*
X89214000Y-53905999D01*
G75*
G02*
X89463999Y-53656000I249999J0D01*
G01*
X90114001Y-53656000D01*
G75*
G02*
X90364000Y-53905999I0J-249999D01*
G01*
X90364000Y-54806001D01*
G75*
G02*
X90114001Y-55056000I-249999J0D01*
G01*
X89463999Y-55056000D01*
G75*
G02*
X89214000Y-54806001I0J249999D01*
G01*
G37*
G36*
G01*
X87164000Y-54806001D02*
X87164000Y-53905999D01*
G75*
G02*
X87413999Y-53656000I249999J0D01*
G01*
X88064001Y-53656000D01*
G75*
G02*
X88314000Y-53905999I0J-249999D01*
G01*
X88314000Y-54806001D01*
G75*
G02*
X88064001Y-55056000I-249999J0D01*
G01*
X87413999Y-55056000D01*
G75*
G02*
X87164000Y-54806001I0J249999D01*
G01*
G37*
G36*
G01*
X97215000Y-48710001D02*
X97215000Y-47809999D01*
G75*
G02*
X97464999Y-47560000I249999J0D01*
G01*
X98115001Y-47560000D01*
G75*
G02*
X98365000Y-47809999I0J-249999D01*
G01*
X98365000Y-48710001D01*
G75*
G02*
X98115001Y-48960000I-249999J0D01*
G01*
X97464999Y-48960000D01*
G75*
G02*
X97215000Y-48710001I0J249999D01*
G01*
G37*
G36*
G01*
X95165000Y-48710001D02*
X95165000Y-47809999D01*
G75*
G02*
X95414999Y-47560000I249999J0D01*
G01*
X96065001Y-47560000D01*
G75*
G02*
X96315000Y-47809999I0J-249999D01*
G01*
X96315000Y-48710001D01*
G75*
G02*
X96065001Y-48960000I-249999J0D01*
G01*
X95414999Y-48960000D01*
G75*
G02*
X95165000Y-48710001I0J249999D01*
G01*
G37*
G36*
G01*
X94185000Y-58870001D02*
X94185000Y-57969999D01*
G75*
G02*
X94434999Y-57720000I249999J0D01*
G01*
X95085001Y-57720000D01*
G75*
G02*
X95335000Y-57969999I0J-249999D01*
G01*
X95335000Y-58870001D01*
G75*
G02*
X95085001Y-59120000I-249999J0D01*
G01*
X94434999Y-59120000D01*
G75*
G02*
X94185000Y-58870001I0J249999D01*
G01*
G37*
G36*
G01*
X92135000Y-58870001D02*
X92135000Y-57969999D01*
G75*
G02*
X92384999Y-57720000I249999J0D01*
G01*
X93035001Y-57720000D01*
G75*
G02*
X93285000Y-57969999I0J-249999D01*
G01*
X93285000Y-58870001D01*
G75*
G02*
X93035001Y-59120000I-249999J0D01*
G01*
X92384999Y-59120000D01*
G75*
G02*
X92135000Y-58870001I0J249999D01*
G01*
G37*
G36*
G01*
X110811000Y-47301999D02*
X110811000Y-48202001D01*
G75*
G02*
X110561001Y-48452000I-249999J0D01*
G01*
X109910999Y-48452000D01*
G75*
G02*
X109661000Y-48202001I0J249999D01*
G01*
X109661000Y-47301999D01*
G75*
G02*
X109910999Y-47052000I249999J0D01*
G01*
X110561001Y-47052000D01*
G75*
G02*
X110811000Y-47301999I0J-249999D01*
G01*
G37*
G36*
G01*
X112861000Y-47301999D02*
X112861000Y-48202001D01*
G75*
G02*
X112611001Y-48452000I-249999J0D01*
G01*
X111960999Y-48452000D01*
G75*
G02*
X111711000Y-48202001I0J249999D01*
G01*
X111711000Y-47301999D01*
G75*
G02*
X111960999Y-47052000I249999J0D01*
G01*
X112611001Y-47052000D01*
G75*
G02*
X112861000Y-47301999I0J-249999D01*
G01*
G37*
G36*
G01*
X111965000Y-64585001D02*
X111965000Y-63684999D01*
G75*
G02*
X112214999Y-63435000I249999J0D01*
G01*
X112865001Y-63435000D01*
G75*
G02*
X113115000Y-63684999I0J-249999D01*
G01*
X113115000Y-64585001D01*
G75*
G02*
X112865001Y-64835000I-249999J0D01*
G01*
X112214999Y-64835000D01*
G75*
G02*
X111965000Y-64585001I0J249999D01*
G01*
G37*
G36*
G01*
X109915000Y-64585001D02*
X109915000Y-63684999D01*
G75*
G02*
X110164999Y-63435000I249999J0D01*
G01*
X110815001Y-63435000D01*
G75*
G02*
X111065000Y-63684999I0J-249999D01*
G01*
X111065000Y-64585001D01*
G75*
G02*
X110815001Y-64835000I-249999J0D01*
G01*
X110164999Y-64835000D01*
G75*
G02*
X109915000Y-64585001I0J249999D01*
G01*
G37*
G36*
G01*
X102186000Y-43630001D02*
X102186000Y-42729999D01*
G75*
G02*
X102435999Y-42480000I249999J0D01*
G01*
X103086001Y-42480000D01*
G75*
G02*
X103336000Y-42729999I0J-249999D01*
G01*
X103336000Y-43630001D01*
G75*
G02*
X103086001Y-43880000I-249999J0D01*
G01*
X102435999Y-43880000D01*
G75*
G02*
X102186000Y-43630001I0J249999D01*
G01*
G37*
G36*
G01*
X100136000Y-43630001D02*
X100136000Y-42729999D01*
G75*
G02*
X100385999Y-42480000I249999J0D01*
G01*
X101036001Y-42480000D01*
G75*
G02*
X101286000Y-42729999I0J-249999D01*
G01*
X101286000Y-43630001D01*
G75*
G02*
X101036001Y-43880000I-249999J0D01*
G01*
X100385999Y-43880000D01*
G75*
G02*
X100136000Y-43630001I0J249999D01*
G01*
G37*
M02*
