G04 #@! TF.GenerationSoftware,KiCad,Pcbnew,5.1.6-c6e7f7d~86~ubuntu18.04.1*
G04 #@! TF.CreationDate,2020-06-20T09:56:21-04:00*
G04 #@! TF.ProjectId,five_pulser_board,66697665-5f70-4756-9c73-65725f626f61,rev?*
G04 #@! TF.SameCoordinates,Original*
G04 #@! TF.FileFunction,Copper,L1,Top*
G04 #@! TF.FilePolarity,Positive*
%FSLAX46Y46*%
G04 Gerber Fmt 4.6, Leading zero omitted, Abs format (unit mm)*
G04 Created by KiCad (PCBNEW 5.1.6-c6e7f7d~86~ubuntu18.04.1) date 2020-06-20 09:56:21*
%MOMM*%
%LPD*%
G01*
G04 APERTURE LIST*
G04 #@! TA.AperFunction,ComponentPad*
%ADD10O,1.700000X1.700000*%
G04 #@! TD*
G04 #@! TA.AperFunction,ComponentPad*
%ADD11R,1.700000X1.700000*%
G04 #@! TD*
G04 #@! TA.AperFunction,ComponentPad*
%ADD12O,1.600000X1.600000*%
G04 #@! TD*
G04 #@! TA.AperFunction,ComponentPad*
%ADD13R,1.600000X1.600000*%
G04 #@! TD*
G04 #@! TA.AperFunction,ComponentPad*
%ADD14C,0.800000*%
G04 #@! TD*
G04 #@! TA.AperFunction,ComponentPad*
%ADD15C,6.400000*%
G04 #@! TD*
G04 #@! TA.AperFunction,SMDPad,CuDef*
%ADD16R,0.900000X1.200000*%
G04 #@! TD*
G04 #@! TA.AperFunction,ViaPad*
%ADD17C,1.000000*%
G04 #@! TD*
G04 #@! TA.AperFunction,Conductor*
%ADD18C,0.500000*%
G04 #@! TD*
G04 #@! TA.AperFunction,Conductor*
%ADD19C,0.290000*%
G04 #@! TD*
G04 #@! TA.AperFunction,Conductor*
%ADD20C,1.000000*%
G04 #@! TD*
G04 #@! TA.AperFunction,Conductor*
%ADD21C,0.254000*%
G04 #@! TD*
G04 APERTURE END LIST*
D10*
X113030000Y-50800000D03*
X110490000Y-50800000D03*
X113030000Y-53340000D03*
X110490000Y-53340000D03*
X113030000Y-55880000D03*
X110490000Y-55880000D03*
X113030000Y-58420000D03*
X110490000Y-58420000D03*
X113030000Y-60960000D03*
D11*
X110490000Y-60960000D03*
D10*
X82550000Y-105410000D03*
X80010000Y-105410000D03*
X82550000Y-102870000D03*
X80010000Y-102870000D03*
X82550000Y-100330000D03*
X80010000Y-100330000D03*
X82550000Y-97790000D03*
D11*
X80010000Y-97790000D03*
G04 #@! TA.AperFunction,SMDPad,CuDef*
G36*
G01*
X105245000Y-101450000D02*
X105245000Y-101750000D01*
G75*
G02*
X105095000Y-101900000I-150000J0D01*
G01*
X103445000Y-101900000D01*
G75*
G02*
X103295000Y-101750000I0J150000D01*
G01*
X103295000Y-101450000D01*
G75*
G02*
X103445000Y-101300000I150000J0D01*
G01*
X105095000Y-101300000D01*
G75*
G02*
X105245000Y-101450000I0J-150000D01*
G01*
G37*
G04 #@! TD.AperFunction*
G04 #@! TA.AperFunction,SMDPad,CuDef*
G36*
G01*
X105245000Y-100180000D02*
X105245000Y-100480000D01*
G75*
G02*
X105095000Y-100630000I-150000J0D01*
G01*
X103445000Y-100630000D01*
G75*
G02*
X103295000Y-100480000I0J150000D01*
G01*
X103295000Y-100180000D01*
G75*
G02*
X103445000Y-100030000I150000J0D01*
G01*
X105095000Y-100030000D01*
G75*
G02*
X105245000Y-100180000I0J-150000D01*
G01*
G37*
G04 #@! TD.AperFunction*
G04 #@! TA.AperFunction,SMDPad,CuDef*
G36*
G01*
X105245000Y-98910000D02*
X105245000Y-99210000D01*
G75*
G02*
X105095000Y-99360000I-150000J0D01*
G01*
X103445000Y-99360000D01*
G75*
G02*
X103295000Y-99210000I0J150000D01*
G01*
X103295000Y-98910000D01*
G75*
G02*
X103445000Y-98760000I150000J0D01*
G01*
X105095000Y-98760000D01*
G75*
G02*
X105245000Y-98910000I0J-150000D01*
G01*
G37*
G04 #@! TD.AperFunction*
G04 #@! TA.AperFunction,SMDPad,CuDef*
G36*
G01*
X105245000Y-97640000D02*
X105245000Y-97940000D01*
G75*
G02*
X105095000Y-98090000I-150000J0D01*
G01*
X103445000Y-98090000D01*
G75*
G02*
X103295000Y-97940000I0J150000D01*
G01*
X103295000Y-97640000D01*
G75*
G02*
X103445000Y-97490000I150000J0D01*
G01*
X105095000Y-97490000D01*
G75*
G02*
X105245000Y-97640000I0J-150000D01*
G01*
G37*
G04 #@! TD.AperFunction*
G04 #@! TA.AperFunction,SMDPad,CuDef*
G36*
G01*
X110195000Y-97640000D02*
X110195000Y-97940000D01*
G75*
G02*
X110045000Y-98090000I-150000J0D01*
G01*
X108395000Y-98090000D01*
G75*
G02*
X108245000Y-97940000I0J150000D01*
G01*
X108245000Y-97640000D01*
G75*
G02*
X108395000Y-97490000I150000J0D01*
G01*
X110045000Y-97490000D01*
G75*
G02*
X110195000Y-97640000I0J-150000D01*
G01*
G37*
G04 #@! TD.AperFunction*
G04 #@! TA.AperFunction,SMDPad,CuDef*
G36*
G01*
X110195000Y-98910000D02*
X110195000Y-99210000D01*
G75*
G02*
X110045000Y-99360000I-150000J0D01*
G01*
X108395000Y-99360000D01*
G75*
G02*
X108245000Y-99210000I0J150000D01*
G01*
X108245000Y-98910000D01*
G75*
G02*
X108395000Y-98760000I150000J0D01*
G01*
X110045000Y-98760000D01*
G75*
G02*
X110195000Y-98910000I0J-150000D01*
G01*
G37*
G04 #@! TD.AperFunction*
G04 #@! TA.AperFunction,SMDPad,CuDef*
G36*
G01*
X110195000Y-100180000D02*
X110195000Y-100480000D01*
G75*
G02*
X110045000Y-100630000I-150000J0D01*
G01*
X108395000Y-100630000D01*
G75*
G02*
X108245000Y-100480000I0J150000D01*
G01*
X108245000Y-100180000D01*
G75*
G02*
X108395000Y-100030000I150000J0D01*
G01*
X110045000Y-100030000D01*
G75*
G02*
X110195000Y-100180000I0J-150000D01*
G01*
G37*
G04 #@! TD.AperFunction*
G04 #@! TA.AperFunction,SMDPad,CuDef*
G36*
G01*
X110195000Y-101450000D02*
X110195000Y-101750000D01*
G75*
G02*
X110045000Y-101900000I-150000J0D01*
G01*
X108395000Y-101900000D01*
G75*
G02*
X108245000Y-101750000I0J150000D01*
G01*
X108245000Y-101450000D01*
G75*
G02*
X108395000Y-101300000I150000J0D01*
G01*
X110045000Y-101300000D01*
G75*
G02*
X110195000Y-101450000I0J-150000D01*
G01*
G37*
G04 #@! TD.AperFunction*
D12*
X91440000Y-87630000D03*
X99060000Y-67310000D03*
X91440000Y-85090000D03*
X99060000Y-69850000D03*
X91440000Y-82550000D03*
X99060000Y-72390000D03*
X91440000Y-80010000D03*
X99060000Y-74930000D03*
X91440000Y-77470000D03*
X99060000Y-77470000D03*
X91440000Y-74930000D03*
X99060000Y-80010000D03*
X91440000Y-72390000D03*
X99060000Y-82550000D03*
X91440000Y-69850000D03*
X99060000Y-85090000D03*
X91440000Y-67310000D03*
D13*
X99060000Y-87630000D03*
G04 #@! TA.AperFunction,SMDPad,CuDef*
G36*
G01*
X93685000Y-54460000D02*
X93685000Y-54760000D01*
G75*
G02*
X93535000Y-54910000I-150000J0D01*
G01*
X91885000Y-54910000D01*
G75*
G02*
X91735000Y-54760000I0J150000D01*
G01*
X91735000Y-54460000D01*
G75*
G02*
X91885000Y-54310000I150000J0D01*
G01*
X93535000Y-54310000D01*
G75*
G02*
X93685000Y-54460000I0J-150000D01*
G01*
G37*
G04 #@! TD.AperFunction*
G04 #@! TA.AperFunction,SMDPad,CuDef*
G36*
G01*
X93685000Y-53190000D02*
X93685000Y-53490000D01*
G75*
G02*
X93535000Y-53640000I-150000J0D01*
G01*
X91885000Y-53640000D01*
G75*
G02*
X91735000Y-53490000I0J150000D01*
G01*
X91735000Y-53190000D01*
G75*
G02*
X91885000Y-53040000I150000J0D01*
G01*
X93535000Y-53040000D01*
G75*
G02*
X93685000Y-53190000I0J-150000D01*
G01*
G37*
G04 #@! TD.AperFunction*
G04 #@! TA.AperFunction,SMDPad,CuDef*
G36*
G01*
X93685000Y-51920000D02*
X93685000Y-52220000D01*
G75*
G02*
X93535000Y-52370000I-150000J0D01*
G01*
X91885000Y-52370000D01*
G75*
G02*
X91735000Y-52220000I0J150000D01*
G01*
X91735000Y-51920000D01*
G75*
G02*
X91885000Y-51770000I150000J0D01*
G01*
X93535000Y-51770000D01*
G75*
G02*
X93685000Y-51920000I0J-150000D01*
G01*
G37*
G04 #@! TD.AperFunction*
G04 #@! TA.AperFunction,SMDPad,CuDef*
G36*
G01*
X93685000Y-50650000D02*
X93685000Y-50950000D01*
G75*
G02*
X93535000Y-51100000I-150000J0D01*
G01*
X91885000Y-51100000D01*
G75*
G02*
X91735000Y-50950000I0J150000D01*
G01*
X91735000Y-50650000D01*
G75*
G02*
X91885000Y-50500000I150000J0D01*
G01*
X93535000Y-50500000D01*
G75*
G02*
X93685000Y-50650000I0J-150000D01*
G01*
G37*
G04 #@! TD.AperFunction*
G04 #@! TA.AperFunction,SMDPad,CuDef*
G36*
G01*
X98635000Y-50650000D02*
X98635000Y-50950000D01*
G75*
G02*
X98485000Y-51100000I-150000J0D01*
G01*
X96835000Y-51100000D01*
G75*
G02*
X96685000Y-50950000I0J150000D01*
G01*
X96685000Y-50650000D01*
G75*
G02*
X96835000Y-50500000I150000J0D01*
G01*
X98485000Y-50500000D01*
G75*
G02*
X98635000Y-50650000I0J-150000D01*
G01*
G37*
G04 #@! TD.AperFunction*
G04 #@! TA.AperFunction,SMDPad,CuDef*
G36*
G01*
X98635000Y-51920000D02*
X98635000Y-52220000D01*
G75*
G02*
X98485000Y-52370000I-150000J0D01*
G01*
X96835000Y-52370000D01*
G75*
G02*
X96685000Y-52220000I0J150000D01*
G01*
X96685000Y-51920000D01*
G75*
G02*
X96835000Y-51770000I150000J0D01*
G01*
X98485000Y-51770000D01*
G75*
G02*
X98635000Y-51920000I0J-150000D01*
G01*
G37*
G04 #@! TD.AperFunction*
G04 #@! TA.AperFunction,SMDPad,CuDef*
G36*
G01*
X98635000Y-53190000D02*
X98635000Y-53490000D01*
G75*
G02*
X98485000Y-53640000I-150000J0D01*
G01*
X96835000Y-53640000D01*
G75*
G02*
X96685000Y-53490000I0J150000D01*
G01*
X96685000Y-53190000D01*
G75*
G02*
X96835000Y-53040000I150000J0D01*
G01*
X98485000Y-53040000D01*
G75*
G02*
X98635000Y-53190000I0J-150000D01*
G01*
G37*
G04 #@! TD.AperFunction*
G04 #@! TA.AperFunction,SMDPad,CuDef*
G36*
G01*
X98635000Y-54460000D02*
X98635000Y-54760000D01*
G75*
G02*
X98485000Y-54910000I-150000J0D01*
G01*
X96835000Y-54910000D01*
G75*
G02*
X96685000Y-54760000I0J150000D01*
G01*
X96685000Y-54460000D01*
G75*
G02*
X96835000Y-54310000I150000J0D01*
G01*
X98485000Y-54310000D01*
G75*
G02*
X98635000Y-54460000I0J-150000D01*
G01*
G37*
G04 #@! TD.AperFunction*
G04 #@! TA.AperFunction,SMDPad,CuDef*
G36*
G01*
X101034000Y-108654001D02*
X101034000Y-107753999D01*
G75*
G02*
X101283999Y-107504000I249999J0D01*
G01*
X101934001Y-107504000D01*
G75*
G02*
X102184000Y-107753999I0J-249999D01*
G01*
X102184000Y-108654001D01*
G75*
G02*
X101934001Y-108904000I-249999J0D01*
G01*
X101283999Y-108904000D01*
G75*
G02*
X101034000Y-108654001I0J249999D01*
G01*
G37*
G04 #@! TD.AperFunction*
G04 #@! TA.AperFunction,SMDPad,CuDef*
G36*
G01*
X98984000Y-108654001D02*
X98984000Y-107753999D01*
G75*
G02*
X99233999Y-107504000I249999J0D01*
G01*
X99884001Y-107504000D01*
G75*
G02*
X100134000Y-107753999I0J-249999D01*
G01*
X100134000Y-108654001D01*
G75*
G02*
X99884001Y-108904000I-249999J0D01*
G01*
X99233999Y-108904000D01*
G75*
G02*
X98984000Y-108654001I0J249999D01*
G01*
G37*
G04 #@! TD.AperFunction*
G04 #@! TA.AperFunction,SMDPad,CuDef*
G36*
G01*
X101025000Y-100780001D02*
X101025000Y-99879999D01*
G75*
G02*
X101274999Y-99630000I249999J0D01*
G01*
X101925001Y-99630000D01*
G75*
G02*
X102175000Y-99879999I0J-249999D01*
G01*
X102175000Y-100780001D01*
G75*
G02*
X101925001Y-101030000I-249999J0D01*
G01*
X101274999Y-101030000D01*
G75*
G02*
X101025000Y-100780001I0J249999D01*
G01*
G37*
G04 #@! TD.AperFunction*
G04 #@! TA.AperFunction,SMDPad,CuDef*
G36*
G01*
X98975000Y-100780001D02*
X98975000Y-99879999D01*
G75*
G02*
X99224999Y-99630000I249999J0D01*
G01*
X99875001Y-99630000D01*
G75*
G02*
X100125000Y-99879999I0J-249999D01*
G01*
X100125000Y-100780001D01*
G75*
G02*
X99875001Y-101030000I-249999J0D01*
G01*
X99224999Y-101030000D01*
G75*
G02*
X98975000Y-100780001I0J249999D01*
G01*
G37*
G04 #@! TD.AperFunction*
G04 #@! TA.AperFunction,SMDPad,CuDef*
G36*
G01*
X101025000Y-98240001D02*
X101025000Y-97339999D01*
G75*
G02*
X101274999Y-97090000I249999J0D01*
G01*
X101925001Y-97090000D01*
G75*
G02*
X102175000Y-97339999I0J-249999D01*
G01*
X102175000Y-98240001D01*
G75*
G02*
X101925001Y-98490000I-249999J0D01*
G01*
X101274999Y-98490000D01*
G75*
G02*
X101025000Y-98240001I0J249999D01*
G01*
G37*
G04 #@! TD.AperFunction*
G04 #@! TA.AperFunction,SMDPad,CuDef*
G36*
G01*
X98975000Y-98240001D02*
X98975000Y-97339999D01*
G75*
G02*
X99224999Y-97090000I249999J0D01*
G01*
X99875001Y-97090000D01*
G75*
G02*
X100125000Y-97339999I0J-249999D01*
G01*
X100125000Y-98240001D01*
G75*
G02*
X99875001Y-98490000I-249999J0D01*
G01*
X99224999Y-98490000D01*
G75*
G02*
X98975000Y-98240001I0J249999D01*
G01*
G37*
G04 #@! TD.AperFunction*
G04 #@! TA.AperFunction,SMDPad,CuDef*
G36*
G01*
X100125000Y-94799999D02*
X100125000Y-95700001D01*
G75*
G02*
X99875001Y-95950000I-249999J0D01*
G01*
X99224999Y-95950000D01*
G75*
G02*
X98975000Y-95700001I0J249999D01*
G01*
X98975000Y-94799999D01*
G75*
G02*
X99224999Y-94550000I249999J0D01*
G01*
X99875001Y-94550000D01*
G75*
G02*
X100125000Y-94799999I0J-249999D01*
G01*
G37*
G04 #@! TD.AperFunction*
G04 #@! TA.AperFunction,SMDPad,CuDef*
G36*
G01*
X102175000Y-94799999D02*
X102175000Y-95700001D01*
G75*
G02*
X101925001Y-95950000I-249999J0D01*
G01*
X101274999Y-95950000D01*
G75*
G02*
X101025000Y-95700001I0J249999D01*
G01*
X101025000Y-94799999D01*
G75*
G02*
X101274999Y-94550000I249999J0D01*
G01*
X101925001Y-94550000D01*
G75*
G02*
X102175000Y-94799999I0J-249999D01*
G01*
G37*
G04 #@! TD.AperFunction*
G04 #@! TA.AperFunction,SMDPad,CuDef*
G36*
G01*
X86427000Y-108769999D02*
X86427000Y-109670001D01*
G75*
G02*
X86177001Y-109920000I-249999J0D01*
G01*
X85526999Y-109920000D01*
G75*
G02*
X85277000Y-109670001I0J249999D01*
G01*
X85277000Y-108769999D01*
G75*
G02*
X85526999Y-108520000I249999J0D01*
G01*
X86177001Y-108520000D01*
G75*
G02*
X86427000Y-108769999I0J-249999D01*
G01*
G37*
G04 #@! TD.AperFunction*
G04 #@! TA.AperFunction,SMDPad,CuDef*
G36*
G01*
X88477000Y-108769999D02*
X88477000Y-109670001D01*
G75*
G02*
X88227001Y-109920000I-249999J0D01*
G01*
X87576999Y-109920000D01*
G75*
G02*
X87327000Y-109670001I0J249999D01*
G01*
X87327000Y-108769999D01*
G75*
G02*
X87576999Y-108520000I249999J0D01*
G01*
X88227001Y-108520000D01*
G75*
G02*
X88477000Y-108769999I0J-249999D01*
G01*
G37*
G04 #@! TD.AperFunction*
G04 #@! TA.AperFunction,SMDPad,CuDef*
G36*
G01*
X87327000Y-107638001D02*
X87327000Y-106737999D01*
G75*
G02*
X87576999Y-106488000I249999J0D01*
G01*
X88227001Y-106488000D01*
G75*
G02*
X88477000Y-106737999I0J-249999D01*
G01*
X88477000Y-107638001D01*
G75*
G02*
X88227001Y-107888000I-249999J0D01*
G01*
X87576999Y-107888000D01*
G75*
G02*
X87327000Y-107638001I0J249999D01*
G01*
G37*
G04 #@! TD.AperFunction*
G04 #@! TA.AperFunction,SMDPad,CuDef*
G36*
G01*
X85277000Y-107638001D02*
X85277000Y-106737999D01*
G75*
G02*
X85526999Y-106488000I249999J0D01*
G01*
X86177001Y-106488000D01*
G75*
G02*
X86427000Y-106737999I0J-249999D01*
G01*
X86427000Y-107638001D01*
G75*
G02*
X86177001Y-107888000I-249999J0D01*
G01*
X85526999Y-107888000D01*
G75*
G02*
X85277000Y-107638001I0J249999D01*
G01*
G37*
G04 #@! TD.AperFunction*
G04 #@! TA.AperFunction,SMDPad,CuDef*
G36*
G01*
X86427000Y-104705999D02*
X86427000Y-105606001D01*
G75*
G02*
X86177001Y-105856000I-249999J0D01*
G01*
X85526999Y-105856000D01*
G75*
G02*
X85277000Y-105606001I0J249999D01*
G01*
X85277000Y-104705999D01*
G75*
G02*
X85526999Y-104456000I249999J0D01*
G01*
X86177001Y-104456000D01*
G75*
G02*
X86427000Y-104705999I0J-249999D01*
G01*
G37*
G04 #@! TD.AperFunction*
G04 #@! TA.AperFunction,SMDPad,CuDef*
G36*
G01*
X88477000Y-104705999D02*
X88477000Y-105606001D01*
G75*
G02*
X88227001Y-105856000I-249999J0D01*
G01*
X87576999Y-105856000D01*
G75*
G02*
X87327000Y-105606001I0J249999D01*
G01*
X87327000Y-104705999D01*
G75*
G02*
X87576999Y-104456000I249999J0D01*
G01*
X88227001Y-104456000D01*
G75*
G02*
X88477000Y-104705999I0J-249999D01*
G01*
G37*
G04 #@! TD.AperFunction*
G04 #@! TA.AperFunction,SMDPad,CuDef*
G36*
G01*
X87327000Y-103574001D02*
X87327000Y-102673999D01*
G75*
G02*
X87576999Y-102424000I249999J0D01*
G01*
X88227001Y-102424000D01*
G75*
G02*
X88477000Y-102673999I0J-249999D01*
G01*
X88477000Y-103574001D01*
G75*
G02*
X88227001Y-103824000I-249999J0D01*
G01*
X87576999Y-103824000D01*
G75*
G02*
X87327000Y-103574001I0J249999D01*
G01*
G37*
G04 #@! TD.AperFunction*
G04 #@! TA.AperFunction,SMDPad,CuDef*
G36*
G01*
X85277000Y-103574001D02*
X85277000Y-102673999D01*
G75*
G02*
X85526999Y-102424000I249999J0D01*
G01*
X86177001Y-102424000D01*
G75*
G02*
X86427000Y-102673999I0J-249999D01*
G01*
X86427000Y-103574001D01*
G75*
G02*
X86177001Y-103824000I-249999J0D01*
G01*
X85526999Y-103824000D01*
G75*
G02*
X85277000Y-103574001I0J249999D01*
G01*
G37*
G04 #@! TD.AperFunction*
G04 #@! TA.AperFunction,SMDPad,CuDef*
G36*
G01*
X86409000Y-100641999D02*
X86409000Y-101542001D01*
G75*
G02*
X86159001Y-101792000I-249999J0D01*
G01*
X85508999Y-101792000D01*
G75*
G02*
X85259000Y-101542001I0J249999D01*
G01*
X85259000Y-100641999D01*
G75*
G02*
X85508999Y-100392000I249999J0D01*
G01*
X86159001Y-100392000D01*
G75*
G02*
X86409000Y-100641999I0J-249999D01*
G01*
G37*
G04 #@! TD.AperFunction*
G04 #@! TA.AperFunction,SMDPad,CuDef*
G36*
G01*
X88459000Y-100641999D02*
X88459000Y-101542001D01*
G75*
G02*
X88209001Y-101792000I-249999J0D01*
G01*
X87558999Y-101792000D01*
G75*
G02*
X87309000Y-101542001I0J249999D01*
G01*
X87309000Y-100641999D01*
G75*
G02*
X87558999Y-100392000I249999J0D01*
G01*
X88209001Y-100392000D01*
G75*
G02*
X88459000Y-100641999I0J-249999D01*
G01*
G37*
G04 #@! TD.AperFunction*
G04 #@! TA.AperFunction,SMDPad,CuDef*
G36*
G01*
X87309000Y-99510001D02*
X87309000Y-98609999D01*
G75*
G02*
X87558999Y-98360000I249999J0D01*
G01*
X88209001Y-98360000D01*
G75*
G02*
X88459000Y-98609999I0J-249999D01*
G01*
X88459000Y-99510001D01*
G75*
G02*
X88209001Y-99760000I-249999J0D01*
G01*
X87558999Y-99760000D01*
G75*
G02*
X87309000Y-99510001I0J249999D01*
G01*
G37*
G04 #@! TD.AperFunction*
G04 #@! TA.AperFunction,SMDPad,CuDef*
G36*
G01*
X85259000Y-99510001D02*
X85259000Y-98609999D01*
G75*
G02*
X85508999Y-98360000I249999J0D01*
G01*
X86159001Y-98360000D01*
G75*
G02*
X86409000Y-98609999I0J-249999D01*
G01*
X86409000Y-99510001D01*
G75*
G02*
X86159001Y-99760000I-249999J0D01*
G01*
X85508999Y-99760000D01*
G75*
G02*
X85259000Y-99510001I0J249999D01*
G01*
G37*
G04 #@! TD.AperFunction*
G04 #@! TA.AperFunction,SMDPad,CuDef*
G36*
G01*
X86427000Y-96577999D02*
X86427000Y-97478001D01*
G75*
G02*
X86177001Y-97728000I-249999J0D01*
G01*
X85526999Y-97728000D01*
G75*
G02*
X85277000Y-97478001I0J249999D01*
G01*
X85277000Y-96577999D01*
G75*
G02*
X85526999Y-96328000I249999J0D01*
G01*
X86177001Y-96328000D01*
G75*
G02*
X86427000Y-96577999I0J-249999D01*
G01*
G37*
G04 #@! TD.AperFunction*
G04 #@! TA.AperFunction,SMDPad,CuDef*
G36*
G01*
X88477000Y-96577999D02*
X88477000Y-97478001D01*
G75*
G02*
X88227001Y-97728000I-249999J0D01*
G01*
X87576999Y-97728000D01*
G75*
G02*
X87327000Y-97478001I0J249999D01*
G01*
X87327000Y-96577999D01*
G75*
G02*
X87576999Y-96328000I249999J0D01*
G01*
X88227001Y-96328000D01*
G75*
G02*
X88477000Y-96577999I0J-249999D01*
G01*
G37*
G04 #@! TD.AperFunction*
G04 #@! TA.AperFunction,SMDPad,CuDef*
G36*
G01*
X87327000Y-95446001D02*
X87327000Y-94545999D01*
G75*
G02*
X87576999Y-94296000I249999J0D01*
G01*
X88227001Y-94296000D01*
G75*
G02*
X88477000Y-94545999I0J-249999D01*
G01*
X88477000Y-95446001D01*
G75*
G02*
X88227001Y-95696000I-249999J0D01*
G01*
X87576999Y-95696000D01*
G75*
G02*
X87327000Y-95446001I0J249999D01*
G01*
G37*
G04 #@! TD.AperFunction*
G04 #@! TA.AperFunction,SMDPad,CuDef*
G36*
G01*
X85277000Y-95446001D02*
X85277000Y-94545999D01*
G75*
G02*
X85526999Y-94296000I249999J0D01*
G01*
X86177001Y-94296000D01*
G75*
G02*
X86427000Y-94545999I0J-249999D01*
G01*
X86427000Y-95446001D01*
G75*
G02*
X86177001Y-95696000I-249999J0D01*
G01*
X85526999Y-95696000D01*
G75*
G02*
X85277000Y-95446001I0J249999D01*
G01*
G37*
G04 #@! TD.AperFunction*
G04 #@! TA.AperFunction,SMDPad,CuDef*
G36*
G01*
X86427000Y-92513999D02*
X86427000Y-93414001D01*
G75*
G02*
X86177001Y-93664000I-249999J0D01*
G01*
X85526999Y-93664000D01*
G75*
G02*
X85277000Y-93414001I0J249999D01*
G01*
X85277000Y-92513999D01*
G75*
G02*
X85526999Y-92264000I249999J0D01*
G01*
X86177001Y-92264000D01*
G75*
G02*
X86427000Y-92513999I0J-249999D01*
G01*
G37*
G04 #@! TD.AperFunction*
G04 #@! TA.AperFunction,SMDPad,CuDef*
G36*
G01*
X88477000Y-92513999D02*
X88477000Y-93414001D01*
G75*
G02*
X88227001Y-93664000I-249999J0D01*
G01*
X87576999Y-93664000D01*
G75*
G02*
X87327000Y-93414001I0J249999D01*
G01*
X87327000Y-92513999D01*
G75*
G02*
X87576999Y-92264000I249999J0D01*
G01*
X88227001Y-92264000D01*
G75*
G02*
X88477000Y-92513999I0J-249999D01*
G01*
G37*
G04 #@! TD.AperFunction*
G04 #@! TA.AperFunction,SMDPad,CuDef*
G36*
G01*
X87327000Y-91382001D02*
X87327000Y-90481999D01*
G75*
G02*
X87576999Y-90232000I249999J0D01*
G01*
X88227001Y-90232000D01*
G75*
G02*
X88477000Y-90481999I0J-249999D01*
G01*
X88477000Y-91382001D01*
G75*
G02*
X88227001Y-91632000I-249999J0D01*
G01*
X87576999Y-91632000D01*
G75*
G02*
X87327000Y-91382001I0J249999D01*
G01*
G37*
G04 #@! TD.AperFunction*
G04 #@! TA.AperFunction,SMDPad,CuDef*
G36*
G01*
X85277000Y-91382001D02*
X85277000Y-90481999D01*
G75*
G02*
X85526999Y-90232000I249999J0D01*
G01*
X86177001Y-90232000D01*
G75*
G02*
X86427000Y-90481999I0J-249999D01*
G01*
X86427000Y-91382001D01*
G75*
G02*
X86177001Y-91632000I-249999J0D01*
G01*
X85526999Y-91632000D01*
G75*
G02*
X85277000Y-91382001I0J249999D01*
G01*
G37*
G04 #@! TD.AperFunction*
G04 #@! TA.AperFunction,SMDPad,CuDef*
G36*
G01*
X103075000Y-72840001D02*
X103075000Y-71939999D01*
G75*
G02*
X103324999Y-71690000I249999J0D01*
G01*
X103975001Y-71690000D01*
G75*
G02*
X104225000Y-71939999I0J-249999D01*
G01*
X104225000Y-72840001D01*
G75*
G02*
X103975001Y-73090000I-249999J0D01*
G01*
X103324999Y-73090000D01*
G75*
G02*
X103075000Y-72840001I0J249999D01*
G01*
G37*
G04 #@! TD.AperFunction*
G04 #@! TA.AperFunction,SMDPad,CuDef*
G36*
G01*
X101025000Y-72840001D02*
X101025000Y-71939999D01*
G75*
G02*
X101274999Y-71690000I249999J0D01*
G01*
X101925001Y-71690000D01*
G75*
G02*
X102175000Y-71939999I0J-249999D01*
G01*
X102175000Y-72840001D01*
G75*
G02*
X101925001Y-73090000I-249999J0D01*
G01*
X101274999Y-73090000D01*
G75*
G02*
X101025000Y-72840001I0J249999D01*
G01*
G37*
G04 #@! TD.AperFunction*
G04 #@! TA.AperFunction,SMDPad,CuDef*
G36*
G01*
X101286000Y-52889999D02*
X101286000Y-53790001D01*
G75*
G02*
X101036001Y-54040000I-249999J0D01*
G01*
X100385999Y-54040000D01*
G75*
G02*
X100136000Y-53790001I0J249999D01*
G01*
X100136000Y-52889999D01*
G75*
G02*
X100385999Y-52640000I249999J0D01*
G01*
X101036001Y-52640000D01*
G75*
G02*
X101286000Y-52889999I0J-249999D01*
G01*
G37*
G04 #@! TD.AperFunction*
G04 #@! TA.AperFunction,SMDPad,CuDef*
G36*
G01*
X103336000Y-52889999D02*
X103336000Y-53790001D01*
G75*
G02*
X103086001Y-54040000I-249999J0D01*
G01*
X102435999Y-54040000D01*
G75*
G02*
X102186000Y-53790001I0J249999D01*
G01*
X102186000Y-52889999D01*
G75*
G02*
X102435999Y-52640000I249999J0D01*
G01*
X103086001Y-52640000D01*
G75*
G02*
X103336000Y-52889999I0J-249999D01*
G01*
G37*
G04 #@! TD.AperFunction*
G04 #@! TA.AperFunction,SMDPad,CuDef*
G36*
G01*
X89214000Y-52520001D02*
X89214000Y-51619999D01*
G75*
G02*
X89463999Y-51370000I249999J0D01*
G01*
X90114001Y-51370000D01*
G75*
G02*
X90364000Y-51619999I0J-249999D01*
G01*
X90364000Y-52520001D01*
G75*
G02*
X90114001Y-52770000I-249999J0D01*
G01*
X89463999Y-52770000D01*
G75*
G02*
X89214000Y-52520001I0J249999D01*
G01*
G37*
G04 #@! TD.AperFunction*
G04 #@! TA.AperFunction,SMDPad,CuDef*
G36*
G01*
X87164000Y-52520001D02*
X87164000Y-51619999D01*
G75*
G02*
X87413999Y-51370000I249999J0D01*
G01*
X88064001Y-51370000D01*
G75*
G02*
X88314000Y-51619999I0J-249999D01*
G01*
X88314000Y-52520001D01*
G75*
G02*
X88064001Y-52770000I-249999J0D01*
G01*
X87413999Y-52770000D01*
G75*
G02*
X87164000Y-52520001I0J249999D01*
G01*
G37*
G04 #@! TD.AperFunction*
G04 #@! TA.AperFunction,SMDPad,CuDef*
G36*
G01*
X102186000Y-51250001D02*
X102186000Y-50349999D01*
G75*
G02*
X102435999Y-50100000I249999J0D01*
G01*
X103086001Y-50100000D01*
G75*
G02*
X103336000Y-50349999I0J-249999D01*
G01*
X103336000Y-51250001D01*
G75*
G02*
X103086001Y-51500000I-249999J0D01*
G01*
X102435999Y-51500000D01*
G75*
G02*
X102186000Y-51250001I0J249999D01*
G01*
G37*
G04 #@! TD.AperFunction*
G04 #@! TA.AperFunction,SMDPad,CuDef*
G36*
G01*
X100136000Y-51250001D02*
X100136000Y-50349999D01*
G75*
G02*
X100385999Y-50100000I249999J0D01*
G01*
X101036001Y-50100000D01*
G75*
G02*
X101286000Y-50349999I0J-249999D01*
G01*
X101286000Y-51250001D01*
G75*
G02*
X101036001Y-51500000I-249999J0D01*
G01*
X100385999Y-51500000D01*
G75*
G02*
X100136000Y-51250001I0J249999D01*
G01*
G37*
G04 #@! TD.AperFunction*
G04 #@! TA.AperFunction,SMDPad,CuDef*
G36*
G01*
X88314000Y-49333999D02*
X88314000Y-50234001D01*
G75*
G02*
X88064001Y-50484000I-249999J0D01*
G01*
X87413999Y-50484000D01*
G75*
G02*
X87164000Y-50234001I0J249999D01*
G01*
X87164000Y-49333999D01*
G75*
G02*
X87413999Y-49084000I249999J0D01*
G01*
X88064001Y-49084000D01*
G75*
G02*
X88314000Y-49333999I0J-249999D01*
G01*
G37*
G04 #@! TD.AperFunction*
G04 #@! TA.AperFunction,SMDPad,CuDef*
G36*
G01*
X90364000Y-49333999D02*
X90364000Y-50234001D01*
G75*
G02*
X90114001Y-50484000I-249999J0D01*
G01*
X89463999Y-50484000D01*
G75*
G02*
X89214000Y-50234001I0J249999D01*
G01*
X89214000Y-49333999D01*
G75*
G02*
X89463999Y-49084000I249999J0D01*
G01*
X90114001Y-49084000D01*
G75*
G02*
X90364000Y-49333999I0J-249999D01*
G01*
G37*
G04 #@! TD.AperFunction*
G04 #@! TA.AperFunction,SMDPad,CuDef*
G36*
G01*
X88323000Y-46793999D02*
X88323000Y-47694001D01*
G75*
G02*
X88073001Y-47944000I-249999J0D01*
G01*
X87422999Y-47944000D01*
G75*
G02*
X87173000Y-47694001I0J249999D01*
G01*
X87173000Y-46793999D01*
G75*
G02*
X87422999Y-46544000I249999J0D01*
G01*
X88073001Y-46544000D01*
G75*
G02*
X88323000Y-46793999I0J-249999D01*
G01*
G37*
G04 #@! TD.AperFunction*
G04 #@! TA.AperFunction,SMDPad,CuDef*
G36*
G01*
X90373000Y-46793999D02*
X90373000Y-47694001D01*
G75*
G02*
X90123001Y-47944000I-249999J0D01*
G01*
X89472999Y-47944000D01*
G75*
G02*
X89223000Y-47694001I0J249999D01*
G01*
X89223000Y-46793999D01*
G75*
G02*
X89472999Y-46544000I249999J0D01*
G01*
X90123001Y-46544000D01*
G75*
G02*
X90373000Y-46793999I0J-249999D01*
G01*
G37*
G04 #@! TD.AperFunction*
G04 #@! TA.AperFunction,SMDPad,CuDef*
G36*
G01*
X88314000Y-44253999D02*
X88314000Y-45154001D01*
G75*
G02*
X88064001Y-45404000I-249999J0D01*
G01*
X87413999Y-45404000D01*
G75*
G02*
X87164000Y-45154001I0J249999D01*
G01*
X87164000Y-44253999D01*
G75*
G02*
X87413999Y-44004000I249999J0D01*
G01*
X88064001Y-44004000D01*
G75*
G02*
X88314000Y-44253999I0J-249999D01*
G01*
G37*
G04 #@! TD.AperFunction*
G04 #@! TA.AperFunction,SMDPad,CuDef*
G36*
G01*
X90364000Y-44253999D02*
X90364000Y-45154001D01*
G75*
G02*
X90114001Y-45404000I-249999J0D01*
G01*
X89463999Y-45404000D01*
G75*
G02*
X89214000Y-45154001I0J249999D01*
G01*
X89214000Y-44253999D01*
G75*
G02*
X89463999Y-44004000I249999J0D01*
G01*
X90114001Y-44004000D01*
G75*
G02*
X90364000Y-44253999I0J-249999D01*
G01*
G37*
G04 #@! TD.AperFunction*
G04 #@! TA.AperFunction,SMDPad,CuDef*
G36*
G01*
X101286000Y-47809999D02*
X101286000Y-48710001D01*
G75*
G02*
X101036001Y-48960000I-249999J0D01*
G01*
X100385999Y-48960000D01*
G75*
G02*
X100136000Y-48710001I0J249999D01*
G01*
X100136000Y-47809999D01*
G75*
G02*
X100385999Y-47560000I249999J0D01*
G01*
X101036001Y-47560000D01*
G75*
G02*
X101286000Y-47809999I0J-249999D01*
G01*
G37*
G04 #@! TD.AperFunction*
G04 #@! TA.AperFunction,SMDPad,CuDef*
G36*
G01*
X103336000Y-47809999D02*
X103336000Y-48710001D01*
G75*
G02*
X103086001Y-48960000I-249999J0D01*
G01*
X102435999Y-48960000D01*
G75*
G02*
X102186000Y-48710001I0J249999D01*
G01*
X102186000Y-47809999D01*
G75*
G02*
X102435999Y-47560000I249999J0D01*
G01*
X103086001Y-47560000D01*
G75*
G02*
X103336000Y-47809999I0J-249999D01*
G01*
G37*
G04 #@! TD.AperFunction*
G04 #@! TA.AperFunction,SMDPad,CuDef*
G36*
G01*
X101286000Y-45269999D02*
X101286000Y-46170001D01*
G75*
G02*
X101036001Y-46420000I-249999J0D01*
G01*
X100385999Y-46420000D01*
G75*
G02*
X100136000Y-46170001I0J249999D01*
G01*
X100136000Y-45269999D01*
G75*
G02*
X100385999Y-45020000I249999J0D01*
G01*
X101036001Y-45020000D01*
G75*
G02*
X101286000Y-45269999I0J-249999D01*
G01*
G37*
G04 #@! TD.AperFunction*
G04 #@! TA.AperFunction,SMDPad,CuDef*
G36*
G01*
X103336000Y-45269999D02*
X103336000Y-46170001D01*
G75*
G02*
X103086001Y-46420000I-249999J0D01*
G01*
X102435999Y-46420000D01*
G75*
G02*
X102186000Y-46170001I0J249999D01*
G01*
X102186000Y-45269999D01*
G75*
G02*
X102435999Y-45020000I249999J0D01*
G01*
X103086001Y-45020000D01*
G75*
G02*
X103336000Y-45269999I0J-249999D01*
G01*
G37*
G04 #@! TD.AperFunction*
G04 #@! TA.AperFunction,SMDPad,CuDef*
G36*
G01*
X81837000Y-49333999D02*
X81837000Y-50234001D01*
G75*
G02*
X81587001Y-50484000I-249999J0D01*
G01*
X80936999Y-50484000D01*
G75*
G02*
X80687000Y-50234001I0J249999D01*
G01*
X80687000Y-49333999D01*
G75*
G02*
X80936999Y-49084000I249999J0D01*
G01*
X81587001Y-49084000D01*
G75*
G02*
X81837000Y-49333999I0J-249999D01*
G01*
G37*
G04 #@! TD.AperFunction*
G04 #@! TA.AperFunction,SMDPad,CuDef*
G36*
G01*
X83887000Y-49333999D02*
X83887000Y-50234001D01*
G75*
G02*
X83637001Y-50484000I-249999J0D01*
G01*
X82986999Y-50484000D01*
G75*
G02*
X82737000Y-50234001I0J249999D01*
G01*
X82737000Y-49333999D01*
G75*
G02*
X82986999Y-49084000I249999J0D01*
G01*
X83637001Y-49084000D01*
G75*
G02*
X83887000Y-49333999I0J-249999D01*
G01*
G37*
G04 #@! TD.AperFunction*
D10*
X97790000Y-113030000D03*
D11*
X95250000Y-113030000D03*
D10*
X113030000Y-99060000D03*
X113030000Y-96520000D03*
D11*
X113030000Y-93980000D03*
D10*
X113030000Y-114300000D03*
X113030000Y-111760000D03*
X113030000Y-109220000D03*
X113030000Y-106680000D03*
D11*
X113030000Y-104140000D03*
D14*
X82977056Y-41482944D03*
X81280000Y-40780000D03*
X79582944Y-41482944D03*
X78880000Y-43180000D03*
X79582944Y-44877056D03*
X81280000Y-45580000D03*
X82977056Y-44877056D03*
X83680000Y-43180000D03*
D15*
X81280000Y-43180000D03*
D14*
X82977056Y-110062944D03*
X81280000Y-109360000D03*
X79582944Y-110062944D03*
X78880000Y-111760000D03*
X79582944Y-113457056D03*
X81280000Y-114160000D03*
X82977056Y-113457056D03*
X83680000Y-111760000D03*
D15*
X81280000Y-111760000D03*
D16*
X101980000Y-105410000D03*
X98680000Y-105410000D03*
X101980000Y-102870000D03*
X98680000Y-102870000D03*
X86489000Y-56896000D03*
X89789000Y-56896000D03*
X80012000Y-54610000D03*
X83312000Y-54610000D03*
X80012000Y-52070000D03*
X83312000Y-52070000D03*
G04 #@! TA.AperFunction,SMDPad,CuDef*
G36*
G01*
X105615000Y-108654001D02*
X105615000Y-107753999D01*
G75*
G02*
X105864999Y-107504000I249999J0D01*
G01*
X106515001Y-107504000D01*
G75*
G02*
X106765000Y-107753999I0J-249999D01*
G01*
X106765000Y-108654001D01*
G75*
G02*
X106515001Y-108904000I-249999J0D01*
G01*
X105864999Y-108904000D01*
G75*
G02*
X105615000Y-108654001I0J249999D01*
G01*
G37*
G04 #@! TD.AperFunction*
G04 #@! TA.AperFunction,SMDPad,CuDef*
G36*
G01*
X103565000Y-108654001D02*
X103565000Y-107753999D01*
G75*
G02*
X103814999Y-107504000I249999J0D01*
G01*
X104465001Y-107504000D01*
G75*
G02*
X104715000Y-107753999I0J-249999D01*
G01*
X104715000Y-108654001D01*
G75*
G02*
X104465001Y-108904000I-249999J0D01*
G01*
X103814999Y-108904000D01*
G75*
G02*
X103565000Y-108654001I0J249999D01*
G01*
G37*
G04 #@! TD.AperFunction*
G04 #@! TA.AperFunction,SMDPad,CuDef*
G36*
G01*
X103075000Y-83000001D02*
X103075000Y-82099999D01*
G75*
G02*
X103324999Y-81850000I249999J0D01*
G01*
X103975001Y-81850000D01*
G75*
G02*
X104225000Y-82099999I0J-249999D01*
G01*
X104225000Y-83000001D01*
G75*
G02*
X103975001Y-83250000I-249999J0D01*
G01*
X103324999Y-83250000D01*
G75*
G02*
X103075000Y-83000001I0J249999D01*
G01*
G37*
G04 #@! TD.AperFunction*
G04 #@! TA.AperFunction,SMDPad,CuDef*
G36*
G01*
X101025000Y-83000001D02*
X101025000Y-82099999D01*
G75*
G02*
X101274999Y-81850000I249999J0D01*
G01*
X101925001Y-81850000D01*
G75*
G02*
X102175000Y-82099999I0J-249999D01*
G01*
X102175000Y-83000001D01*
G75*
G02*
X101925001Y-83250000I-249999J0D01*
G01*
X101274999Y-83250000D01*
G75*
G02*
X101025000Y-83000001I0J249999D01*
G01*
G37*
G04 #@! TD.AperFunction*
G04 #@! TA.AperFunction,SMDPad,CuDef*
G36*
G01*
X108400000Y-95700001D02*
X108400000Y-94799999D01*
G75*
G02*
X108649999Y-94550000I249999J0D01*
G01*
X109300001Y-94550000D01*
G75*
G02*
X109550000Y-94799999I0J-249999D01*
G01*
X109550000Y-95700001D01*
G75*
G02*
X109300001Y-95950000I-249999J0D01*
G01*
X108649999Y-95950000D01*
G75*
G02*
X108400000Y-95700001I0J249999D01*
G01*
G37*
G04 #@! TD.AperFunction*
G04 #@! TA.AperFunction,SMDPad,CuDef*
G36*
G01*
X106350000Y-95700001D02*
X106350000Y-94799999D01*
G75*
G02*
X106599999Y-94550000I249999J0D01*
G01*
X107250001Y-94550000D01*
G75*
G02*
X107500000Y-94799999I0J-249999D01*
G01*
X107500000Y-95700001D01*
G75*
G02*
X107250001Y-95950000I-249999J0D01*
G01*
X106599999Y-95950000D01*
G75*
G02*
X106350000Y-95700001I0J249999D01*
G01*
G37*
G04 #@! TD.AperFunction*
G04 #@! TA.AperFunction,SMDPad,CuDef*
G36*
G01*
X105615000Y-105860001D02*
X105615000Y-104959999D01*
G75*
G02*
X105864999Y-104710000I249999J0D01*
G01*
X106515001Y-104710000D01*
G75*
G02*
X106765000Y-104959999I0J-249999D01*
G01*
X106765000Y-105860001D01*
G75*
G02*
X106515001Y-106110000I-249999J0D01*
G01*
X105864999Y-106110000D01*
G75*
G02*
X105615000Y-105860001I0J249999D01*
G01*
G37*
G04 #@! TD.AperFunction*
G04 #@! TA.AperFunction,SMDPad,CuDef*
G36*
G01*
X103565000Y-105860001D02*
X103565000Y-104959999D01*
G75*
G02*
X103814999Y-104710000I249999J0D01*
G01*
X104465001Y-104710000D01*
G75*
G02*
X104715000Y-104959999I0J-249999D01*
G01*
X104715000Y-105860001D01*
G75*
G02*
X104465001Y-106110000I-249999J0D01*
G01*
X103814999Y-106110000D01*
G75*
G02*
X103565000Y-105860001I0J249999D01*
G01*
G37*
G04 #@! TD.AperFunction*
G04 #@! TA.AperFunction,SMDPad,CuDef*
G36*
G01*
X89214000Y-54806001D02*
X89214000Y-53905999D01*
G75*
G02*
X89463999Y-53656000I249999J0D01*
G01*
X90114001Y-53656000D01*
G75*
G02*
X90364000Y-53905999I0J-249999D01*
G01*
X90364000Y-54806001D01*
G75*
G02*
X90114001Y-55056000I-249999J0D01*
G01*
X89463999Y-55056000D01*
G75*
G02*
X89214000Y-54806001I0J249999D01*
G01*
G37*
G04 #@! TD.AperFunction*
G04 #@! TA.AperFunction,SMDPad,CuDef*
G36*
G01*
X87164000Y-54806001D02*
X87164000Y-53905999D01*
G75*
G02*
X87413999Y-53656000I249999J0D01*
G01*
X88064001Y-53656000D01*
G75*
G02*
X88314000Y-53905999I0J-249999D01*
G01*
X88314000Y-54806001D01*
G75*
G02*
X88064001Y-55056000I-249999J0D01*
G01*
X87413999Y-55056000D01*
G75*
G02*
X87164000Y-54806001I0J249999D01*
G01*
G37*
G04 #@! TD.AperFunction*
G04 #@! TA.AperFunction,SMDPad,CuDef*
G36*
G01*
X97215000Y-48710001D02*
X97215000Y-47809999D01*
G75*
G02*
X97464999Y-47560000I249999J0D01*
G01*
X98115001Y-47560000D01*
G75*
G02*
X98365000Y-47809999I0J-249999D01*
G01*
X98365000Y-48710001D01*
G75*
G02*
X98115001Y-48960000I-249999J0D01*
G01*
X97464999Y-48960000D01*
G75*
G02*
X97215000Y-48710001I0J249999D01*
G01*
G37*
G04 #@! TD.AperFunction*
G04 #@! TA.AperFunction,SMDPad,CuDef*
G36*
G01*
X95165000Y-48710001D02*
X95165000Y-47809999D01*
G75*
G02*
X95414999Y-47560000I249999J0D01*
G01*
X96065001Y-47560000D01*
G75*
G02*
X96315000Y-47809999I0J-249999D01*
G01*
X96315000Y-48710001D01*
G75*
G02*
X96065001Y-48960000I-249999J0D01*
G01*
X95414999Y-48960000D01*
G75*
G02*
X95165000Y-48710001I0J249999D01*
G01*
G37*
G04 #@! TD.AperFunction*
G04 #@! TA.AperFunction,SMDPad,CuDef*
G36*
G01*
X94185000Y-58870001D02*
X94185000Y-57969999D01*
G75*
G02*
X94434999Y-57720000I249999J0D01*
G01*
X95085001Y-57720000D01*
G75*
G02*
X95335000Y-57969999I0J-249999D01*
G01*
X95335000Y-58870001D01*
G75*
G02*
X95085001Y-59120000I-249999J0D01*
G01*
X94434999Y-59120000D01*
G75*
G02*
X94185000Y-58870001I0J249999D01*
G01*
G37*
G04 #@! TD.AperFunction*
G04 #@! TA.AperFunction,SMDPad,CuDef*
G36*
G01*
X92135000Y-58870001D02*
X92135000Y-57969999D01*
G75*
G02*
X92384999Y-57720000I249999J0D01*
G01*
X93035001Y-57720000D01*
G75*
G02*
X93285000Y-57969999I0J-249999D01*
G01*
X93285000Y-58870001D01*
G75*
G02*
X93035001Y-59120000I-249999J0D01*
G01*
X92384999Y-59120000D01*
G75*
G02*
X92135000Y-58870001I0J249999D01*
G01*
G37*
G04 #@! TD.AperFunction*
G04 #@! TA.AperFunction,SMDPad,CuDef*
G36*
G01*
X110811000Y-47301999D02*
X110811000Y-48202001D01*
G75*
G02*
X110561001Y-48452000I-249999J0D01*
G01*
X109910999Y-48452000D01*
G75*
G02*
X109661000Y-48202001I0J249999D01*
G01*
X109661000Y-47301999D01*
G75*
G02*
X109910999Y-47052000I249999J0D01*
G01*
X110561001Y-47052000D01*
G75*
G02*
X110811000Y-47301999I0J-249999D01*
G01*
G37*
G04 #@! TD.AperFunction*
G04 #@! TA.AperFunction,SMDPad,CuDef*
G36*
G01*
X112861000Y-47301999D02*
X112861000Y-48202001D01*
G75*
G02*
X112611001Y-48452000I-249999J0D01*
G01*
X111960999Y-48452000D01*
G75*
G02*
X111711000Y-48202001I0J249999D01*
G01*
X111711000Y-47301999D01*
G75*
G02*
X111960999Y-47052000I249999J0D01*
G01*
X112611001Y-47052000D01*
G75*
G02*
X112861000Y-47301999I0J-249999D01*
G01*
G37*
G04 #@! TD.AperFunction*
G04 #@! TA.AperFunction,SMDPad,CuDef*
G36*
G01*
X111965000Y-64585001D02*
X111965000Y-63684999D01*
G75*
G02*
X112214999Y-63435000I249999J0D01*
G01*
X112865001Y-63435000D01*
G75*
G02*
X113115000Y-63684999I0J-249999D01*
G01*
X113115000Y-64585001D01*
G75*
G02*
X112865001Y-64835000I-249999J0D01*
G01*
X112214999Y-64835000D01*
G75*
G02*
X111965000Y-64585001I0J249999D01*
G01*
G37*
G04 #@! TD.AperFunction*
G04 #@! TA.AperFunction,SMDPad,CuDef*
G36*
G01*
X109915000Y-64585001D02*
X109915000Y-63684999D01*
G75*
G02*
X110164999Y-63435000I249999J0D01*
G01*
X110815001Y-63435000D01*
G75*
G02*
X111065000Y-63684999I0J-249999D01*
G01*
X111065000Y-64585001D01*
G75*
G02*
X110815001Y-64835000I-249999J0D01*
G01*
X110164999Y-64835000D01*
G75*
G02*
X109915000Y-64585001I0J249999D01*
G01*
G37*
G04 #@! TD.AperFunction*
G04 #@! TA.AperFunction,SMDPad,CuDef*
G36*
G01*
X102186000Y-43630001D02*
X102186000Y-42729999D01*
G75*
G02*
X102435999Y-42480000I249999J0D01*
G01*
X103086001Y-42480000D01*
G75*
G02*
X103336000Y-42729999I0J-249999D01*
G01*
X103336000Y-43630001D01*
G75*
G02*
X103086001Y-43880000I-249999J0D01*
G01*
X102435999Y-43880000D01*
G75*
G02*
X102186000Y-43630001I0J249999D01*
G01*
G37*
G04 #@! TD.AperFunction*
G04 #@! TA.AperFunction,SMDPad,CuDef*
G36*
G01*
X100136000Y-43630001D02*
X100136000Y-42729999D01*
G75*
G02*
X100385999Y-42480000I249999J0D01*
G01*
X101036001Y-42480000D01*
G75*
G02*
X101286000Y-42729999I0J-249999D01*
G01*
X101286000Y-43630001D01*
G75*
G02*
X101036001Y-43880000I-249999J0D01*
G01*
X100385999Y-43880000D01*
G75*
G02*
X100136000Y-43630001I0J249999D01*
G01*
G37*
G04 #@! TD.AperFunction*
D17*
X104521000Y-46926500D03*
X112268000Y-46228000D03*
X110109000Y-43751500D03*
X93980000Y-96901000D03*
X90741500Y-93916500D03*
X93980000Y-101600000D03*
X93980000Y-105410000D03*
X114046000Y-40068500D03*
X96647000Y-39433500D03*
X106680000Y-48387000D03*
X105727500Y-55054500D03*
X105791000Y-79946500D03*
X105727500Y-69850000D03*
X105791000Y-62230000D03*
X101727000Y-49530000D03*
X81661000Y-52070009D03*
X85852000Y-45847000D03*
X87757000Y-43434000D03*
X112839500Y-69342000D03*
X82359500Y-48260000D03*
X98996500Y-48260000D03*
D18*
X102761000Y-43180000D02*
X102761000Y-45720000D01*
X103015000Y-45974000D02*
X102761000Y-45720000D01*
X104521000Y-46926500D02*
X103967500Y-46926500D01*
X103967500Y-46926500D02*
X103015000Y-45974000D01*
X99085010Y-49885990D02*
X100711000Y-48260000D01*
X99085010Y-51619990D02*
X99085010Y-49885990D01*
X98635000Y-52070000D02*
X99085010Y-51619990D01*
X97660000Y-52070000D02*
X98635000Y-52070000D01*
X100711000Y-48260000D02*
X100711000Y-45720000D01*
X100711000Y-45720000D02*
X100711000Y-43180000D01*
X89789000Y-54356000D02*
X89789000Y-52070000D01*
X89789000Y-52070000D02*
X89789000Y-49784000D01*
X89789000Y-47253000D02*
X89798000Y-47244000D01*
X89789000Y-49784000D02*
X89789000Y-47253000D01*
X89798000Y-44713000D02*
X89789000Y-44704000D01*
X89798000Y-47244000D02*
X89798000Y-44713000D01*
X92710000Y-52070000D02*
X89789000Y-52070000D01*
X87739000Y-52070000D02*
X87739000Y-54356000D01*
X86489000Y-55606000D02*
X87739000Y-54356000D01*
X86489000Y-56896000D02*
X86489000Y-55606000D01*
X91735000Y-53340000D02*
X92710000Y-53340000D01*
X91284990Y-53790010D02*
X91735000Y-53340000D01*
X90403956Y-55506010D02*
X91284990Y-54624976D01*
X88189010Y-55506010D02*
X90403956Y-55506010D01*
X91284990Y-54624976D02*
X91284990Y-53790010D01*
X87739000Y-55056000D02*
X88189010Y-55506010D01*
X87739000Y-54356000D02*
X87739000Y-55056000D01*
X99550000Y-102000000D02*
X98680000Y-102870000D01*
X99550000Y-100330000D02*
X99550000Y-102000000D01*
X101609000Y-108204000D02*
X104140000Y-108204000D01*
X101079999Y-105269999D02*
X98680000Y-102870000D01*
X101079999Y-107674999D02*
X101079999Y-105269999D01*
X101609000Y-108204000D02*
X101079999Y-107674999D01*
X80012000Y-52070000D02*
X80012000Y-54610000D01*
X102761000Y-50800000D02*
X102761000Y-50564000D01*
X102761000Y-50564000D02*
X101727000Y-49530000D01*
X81660991Y-52070000D02*
X81661000Y-52070009D01*
X80012000Y-52070000D02*
X81660991Y-52070000D01*
X83312000Y-49784000D02*
X83312000Y-52070000D01*
X87739000Y-49784000D02*
X83312000Y-49784000D01*
X89789000Y-60579000D02*
X89789000Y-56896000D01*
X95059500Y-65849500D02*
X89789000Y-60579000D01*
X99060000Y-74930000D02*
X95059500Y-70929500D01*
X95059500Y-70929500D02*
X95059500Y-65849500D01*
X101980000Y-105410000D02*
X101980000Y-102870000D01*
X87748000Y-47244000D02*
X87249000Y-47244000D01*
X87249000Y-47244000D02*
X85852000Y-45847000D01*
X87757000Y-44686000D02*
X87739000Y-44704000D01*
X87757000Y-43434000D02*
X87757000Y-44686000D01*
X99559000Y-108204000D02*
X97536000Y-108204000D01*
X95250000Y-110490000D02*
X95250000Y-113030000D01*
X97536000Y-108204000D02*
X95250000Y-110490000D01*
X97660000Y-53340000D02*
X100711000Y-53340000D01*
X100711000Y-50800000D02*
X100711000Y-53340000D01*
X102625000Y-73905000D02*
X102625000Y-65795000D01*
X99060000Y-77470000D02*
X102625000Y-73905000D01*
X97660000Y-60830000D02*
X97660000Y-54610000D01*
X102625000Y-65795000D02*
X97660000Y-60830000D01*
X102475966Y-53340000D02*
X102761000Y-53340000D01*
X101205966Y-54610000D02*
X102475966Y-53340000D01*
X97660000Y-54610000D02*
X101205966Y-54610000D01*
X101600000Y-72390000D02*
X99060000Y-72390000D01*
X85852000Y-92964000D02*
X85852000Y-90932000D01*
X85852000Y-90932000D02*
X85852000Y-90043000D01*
X88265000Y-87630000D02*
X91440000Y-87630000D01*
X85852000Y-90043000D02*
X88265000Y-87630000D01*
X88927010Y-106181010D02*
X87902000Y-105156000D01*
X88927010Y-108194990D02*
X88927010Y-106181010D01*
X87902000Y-109220000D02*
X88927010Y-108194990D01*
X88927010Y-102135010D02*
X87884000Y-101092000D01*
X88927010Y-104130990D02*
X88927010Y-102135010D01*
X87902000Y-105156000D02*
X88927010Y-104130990D01*
X88909010Y-98035010D02*
X87902000Y-97028000D01*
X87884000Y-101092000D02*
X88909010Y-100066990D01*
X88927010Y-93989010D02*
X87902000Y-92964000D01*
X88927010Y-96002990D02*
X88927010Y-93989010D01*
X87902000Y-97028000D02*
X88927010Y-96002990D01*
X104270000Y-99060000D02*
X88963500Y-99060000D01*
X88909010Y-100066990D02*
X88909010Y-99005510D01*
X88963500Y-99060000D02*
X88909010Y-99005510D01*
X88909010Y-99005510D02*
X88909010Y-98035010D01*
X101600000Y-97790000D02*
X104270000Y-97790000D01*
X101600000Y-95250000D02*
X101600000Y-97790000D01*
X101600000Y-100330000D02*
X104270000Y-100330000D01*
X85852000Y-107188000D02*
X85852000Y-109220000D01*
X84328000Y-107188000D02*
X82550000Y-105410000D01*
X85852000Y-107188000D02*
X84328000Y-107188000D01*
X77309979Y-81440021D02*
X91440000Y-67310000D01*
X77309979Y-102709979D02*
X77309979Y-81440021D01*
X80010000Y-105410000D02*
X77309979Y-102709979D01*
X85852000Y-103124000D02*
X85852000Y-105156000D01*
X82804000Y-103124000D02*
X82550000Y-102870000D01*
X85852000Y-103124000D02*
X82804000Y-103124000D01*
X78009989Y-85820011D02*
X91440000Y-72390000D01*
X80010000Y-102870000D02*
X78009989Y-100869989D01*
X78009989Y-100869989D02*
X78009989Y-85820011D01*
X85834000Y-99060000D02*
X85834000Y-101092000D01*
X84564000Y-100330000D02*
X85834000Y-99060000D01*
X82550000Y-100330000D02*
X84564000Y-100330000D01*
X91440000Y-77470000D02*
X78709999Y-90200001D01*
X78709999Y-99029999D02*
X80010000Y-100330000D01*
X78709999Y-90200001D02*
X78709999Y-99029999D01*
X85090000Y-97790000D02*
X85852000Y-97028000D01*
X82550000Y-97790000D02*
X85090000Y-97790000D01*
X85852000Y-94996000D02*
X85852000Y-97028000D01*
X80010000Y-93980000D02*
X80010000Y-97790000D01*
X91440000Y-82550000D02*
X80010000Y-93980000D01*
X109220000Y-100330000D02*
X109220000Y-101600000D01*
X92710000Y-54610000D02*
X92710000Y-58420000D01*
X99060000Y-82550000D02*
X101600000Y-82550000D01*
D19*
X86981990Y-91277010D02*
X86981990Y-94075990D01*
X87327000Y-90932000D02*
X86981990Y-91277010D01*
X86981990Y-94075990D02*
X87902000Y-94996000D01*
X87902000Y-90932000D02*
X87327000Y-90932000D01*
X86981990Y-98157990D02*
X87884000Y-99060000D01*
X86981990Y-95916010D02*
X86981990Y-98157990D01*
X87902000Y-94996000D02*
X86981990Y-95916010D01*
X86963990Y-102185990D02*
X87902000Y-103124000D01*
X86963990Y-99980010D02*
X86963990Y-102185990D01*
X87884000Y-99060000D02*
X86963990Y-99980010D01*
X86981990Y-106267990D02*
X87902000Y-107188000D01*
X86981990Y-104044010D02*
X86981990Y-106267990D01*
X87902000Y-103124000D02*
X86981990Y-104044010D01*
D18*
X104270000Y-105280000D02*
X104140000Y-105410000D01*
X104270000Y-101600000D02*
X104270000Y-105280000D01*
X105695010Y-86645010D02*
X101600000Y-82550000D01*
X105245000Y-101600000D02*
X105695010Y-101149990D01*
X104270000Y-101600000D02*
X105245000Y-101600000D01*
D20*
X110490000Y-60960000D02*
X110490000Y-64135000D01*
X110490000Y-60960000D02*
X113030000Y-60960000D01*
X101600000Y-82550000D02*
X101600000Y-79692500D01*
X110490000Y-70802500D02*
X110490000Y-64135000D01*
X101600000Y-79692500D02*
X110490000Y-70802500D01*
X93617098Y-54610000D02*
X92710000Y-54610000D01*
X94385010Y-53842088D02*
X93617098Y-54610000D01*
X114580001Y-59409999D02*
X114580001Y-43968001D01*
X113030000Y-60960000D02*
X114580001Y-59409999D01*
X99495429Y-40579981D02*
X94385010Y-45690400D01*
X114580001Y-43968001D02*
X111191981Y-40579981D01*
X111191981Y-40579981D02*
X99495429Y-40579981D01*
X94385010Y-45690400D02*
X94385010Y-53842088D01*
D18*
X87902000Y-90932000D02*
X91313000Y-90932000D01*
X95631000Y-95250000D02*
X99550000Y-95250000D01*
X91313000Y-90932000D02*
X95631000Y-95250000D01*
X105417010Y-94099990D02*
X105695010Y-93821990D01*
X100700010Y-94099990D02*
X105417010Y-94099990D01*
X105695010Y-101149990D02*
X105695010Y-93821990D01*
X99550000Y-95250000D02*
X100700010Y-94099990D01*
X105695010Y-93821990D02*
X105695010Y-86645010D01*
X97660000Y-48390000D02*
X97790000Y-48260000D01*
X97660000Y-50800000D02*
X97660000Y-48390000D01*
X108975000Y-97545000D02*
X109220000Y-97790000D01*
X108975000Y-95250000D02*
X108975000Y-97545000D01*
D20*
X110490000Y-50800000D02*
X113030000Y-50800000D01*
X110236000Y-50546000D02*
X110490000Y-50800000D01*
X110236000Y-47752000D02*
X110236000Y-50546000D01*
X97790000Y-43982480D02*
X97790000Y-48260000D01*
X99992490Y-41779990D02*
X97790000Y-43982480D01*
X104263990Y-41779990D02*
X99992490Y-41779990D01*
X110236000Y-47752000D02*
X104263990Y-41779990D01*
D18*
X81262000Y-49784000D02*
X81262000Y-49357500D01*
X81262000Y-49357500D02*
X82359500Y-48260000D01*
X97790000Y-48260000D02*
X98996500Y-48260000D01*
D20*
X108975000Y-95250000D02*
X112839500Y-91385500D01*
X112839500Y-91385500D02*
X112839500Y-69342000D01*
D21*
G36*
X114910000Y-116180000D02*
G01*
X76860000Y-116180000D01*
X76860000Y-114460881D01*
X78758724Y-114460881D01*
X79118912Y-114950548D01*
X79782882Y-115310849D01*
X80504385Y-115534694D01*
X81255695Y-115613480D01*
X82007938Y-115544178D01*
X82732208Y-115329452D01*
X83400670Y-114977555D01*
X83441088Y-114950548D01*
X83657096Y-114656890D01*
X111588524Y-114656890D01*
X111633175Y-114804099D01*
X111758359Y-115066920D01*
X111932412Y-115300269D01*
X112148645Y-115495178D01*
X112398748Y-115644157D01*
X112673109Y-115741481D01*
X112903000Y-115620814D01*
X112903000Y-114427000D01*
X113157000Y-114427000D01*
X113157000Y-115620814D01*
X113386891Y-115741481D01*
X113661252Y-115644157D01*
X113911355Y-115495178D01*
X114127588Y-115300269D01*
X114301641Y-115066920D01*
X114426825Y-114804099D01*
X114471476Y-114656890D01*
X114350155Y-114427000D01*
X113157000Y-114427000D01*
X112903000Y-114427000D01*
X111709845Y-114427000D01*
X111588524Y-114656890D01*
X83657096Y-114656890D01*
X83801276Y-114460881D01*
X81280000Y-111939605D01*
X78758724Y-114460881D01*
X76860000Y-114460881D01*
X76860000Y-111735695D01*
X77426520Y-111735695D01*
X77495822Y-112487938D01*
X77710548Y-113212208D01*
X78062445Y-113880670D01*
X78089452Y-113921088D01*
X78579119Y-114281276D01*
X81100395Y-111760000D01*
X81459605Y-111760000D01*
X83980881Y-114281276D01*
X84470548Y-113921088D01*
X84830849Y-113257118D01*
X85054694Y-112535615D01*
X85133480Y-111784305D01*
X85064178Y-111032062D01*
X84849452Y-110307792D01*
X84497555Y-109639330D01*
X84470548Y-109598912D01*
X83980881Y-109238724D01*
X81459605Y-111760000D01*
X81100395Y-111760000D01*
X78579119Y-109238724D01*
X78089452Y-109598912D01*
X77729151Y-110262882D01*
X77505306Y-110984385D01*
X77426520Y-111735695D01*
X76860000Y-111735695D01*
X76860000Y-109059119D01*
X78758724Y-109059119D01*
X81280000Y-111580395D01*
X83801276Y-109059119D01*
X83441088Y-108569452D01*
X82777118Y-108209151D01*
X82055615Y-107985306D01*
X81304305Y-107906520D01*
X80552062Y-107975822D01*
X79827792Y-108190548D01*
X79159330Y-108542445D01*
X79118912Y-108569452D01*
X78758724Y-109059119D01*
X76860000Y-109059119D01*
X76860000Y-103511578D01*
X78539461Y-105191040D01*
X78525000Y-105263740D01*
X78525000Y-105556260D01*
X78582068Y-105843158D01*
X78694010Y-106113411D01*
X78856525Y-106356632D01*
X79063368Y-106563475D01*
X79306589Y-106725990D01*
X79576842Y-106837932D01*
X79863740Y-106895000D01*
X80156260Y-106895000D01*
X80443158Y-106837932D01*
X80713411Y-106725990D01*
X80956632Y-106563475D01*
X81163475Y-106356632D01*
X81280000Y-106182240D01*
X81396525Y-106356632D01*
X81603368Y-106563475D01*
X81846589Y-106725990D01*
X82116842Y-106837932D01*
X82403740Y-106895000D01*
X82696260Y-106895000D01*
X82768960Y-106880539D01*
X83671470Y-107783049D01*
X83699183Y-107816817D01*
X83732951Y-107844530D01*
X83732953Y-107844532D01*
X83805427Y-107904010D01*
X83833941Y-107927411D01*
X83987687Y-108009589D01*
X84154510Y-108060195D01*
X84284523Y-108073000D01*
X84284531Y-108073000D01*
X84328000Y-108077281D01*
X84371469Y-108073000D01*
X84757386Y-108073000D01*
X84788595Y-108131387D01*
X84848187Y-108204000D01*
X84788595Y-108276613D01*
X84706528Y-108430149D01*
X84655992Y-108596745D01*
X84638928Y-108769999D01*
X84638928Y-109670001D01*
X84655992Y-109843255D01*
X84706528Y-110009851D01*
X84788595Y-110163387D01*
X84899038Y-110297962D01*
X85033613Y-110408405D01*
X85187149Y-110490472D01*
X85353745Y-110541008D01*
X85526999Y-110558072D01*
X86177001Y-110558072D01*
X86350255Y-110541008D01*
X86516851Y-110490472D01*
X86670387Y-110408405D01*
X86804962Y-110297962D01*
X86877000Y-110210184D01*
X86949038Y-110297962D01*
X87083613Y-110408405D01*
X87237149Y-110490472D01*
X87403745Y-110541008D01*
X87576999Y-110558072D01*
X88227001Y-110558072D01*
X88400255Y-110541008D01*
X88566851Y-110490472D01*
X88720387Y-110408405D01*
X88854962Y-110297962D01*
X88965405Y-110163387D01*
X89047472Y-110009851D01*
X89098008Y-109843255D01*
X89115072Y-109670001D01*
X89115072Y-109258507D01*
X89522060Y-108851519D01*
X89555827Y-108823807D01*
X89599987Y-108769999D01*
X89659026Y-108698060D01*
X89666421Y-108689049D01*
X89748599Y-108535303D01*
X89799205Y-108368480D01*
X89812010Y-108238467D01*
X89812010Y-108238457D01*
X89816291Y-108194991D01*
X89812010Y-108151524D01*
X89812010Y-106224476D01*
X89816291Y-106181009D01*
X89812010Y-106137543D01*
X89812010Y-106137533D01*
X89799450Y-106010000D01*
X97591928Y-106010000D01*
X97604188Y-106134482D01*
X97640498Y-106254180D01*
X97699463Y-106364494D01*
X97778815Y-106461185D01*
X97875506Y-106540537D01*
X97985820Y-106599502D01*
X98105518Y-106635812D01*
X98230000Y-106648072D01*
X98394250Y-106645000D01*
X98553000Y-106486250D01*
X98553000Y-105537000D01*
X98807000Y-105537000D01*
X98807000Y-106486250D01*
X98965750Y-106645000D01*
X99130000Y-106648072D01*
X99254482Y-106635812D01*
X99374180Y-106599502D01*
X99484494Y-106540537D01*
X99581185Y-106461185D01*
X99660537Y-106364494D01*
X99719502Y-106254180D01*
X99755812Y-106134482D01*
X99768072Y-106010000D01*
X99765000Y-105695750D01*
X99606250Y-105537000D01*
X98807000Y-105537000D01*
X98553000Y-105537000D01*
X97753750Y-105537000D01*
X97595000Y-105695750D01*
X97591928Y-106010000D01*
X89799450Y-106010000D01*
X89799205Y-106007520D01*
X89748599Y-105840697D01*
X89666421Y-105686951D01*
X89608038Y-105615812D01*
X89583542Y-105585963D01*
X89583540Y-105585961D01*
X89555827Y-105552193D01*
X89522059Y-105524480D01*
X89153579Y-105156000D01*
X89499579Y-104810000D01*
X97591928Y-104810000D01*
X97595000Y-105124250D01*
X97753750Y-105283000D01*
X98553000Y-105283000D01*
X98553000Y-104333750D01*
X98394250Y-104175000D01*
X98230000Y-104171928D01*
X98105518Y-104184188D01*
X97985820Y-104220498D01*
X97875506Y-104279463D01*
X97778815Y-104358815D01*
X97699463Y-104455506D01*
X97640498Y-104565820D01*
X97604188Y-104685518D01*
X97591928Y-104810000D01*
X89499579Y-104810000D01*
X89522060Y-104787519D01*
X89555827Y-104759807D01*
X89599503Y-104706589D01*
X89666420Y-104625050D01*
X89666421Y-104625049D01*
X89748599Y-104471303D01*
X89799205Y-104304480D01*
X89812010Y-104174467D01*
X89812010Y-104174457D01*
X89816291Y-104130991D01*
X89812010Y-104087524D01*
X89812010Y-102178479D01*
X89816291Y-102135010D01*
X89812010Y-102091541D01*
X89812010Y-102091533D01*
X89799205Y-101961520D01*
X89748599Y-101794697D01*
X89666421Y-101640951D01*
X89638847Y-101607352D01*
X89583542Y-101539963D01*
X89583540Y-101539961D01*
X89555827Y-101506193D01*
X89522059Y-101478480D01*
X89135579Y-101092000D01*
X89504060Y-100723519D01*
X89537827Y-100695807D01*
X89581987Y-100641999D01*
X89648420Y-100561050D01*
X89648421Y-100561049D01*
X89730599Y-100407303D01*
X89781205Y-100240480D01*
X89794010Y-100110467D01*
X89794010Y-100110457D01*
X89798291Y-100066991D01*
X89794010Y-100023524D01*
X89794010Y-99945000D01*
X98336928Y-99945000D01*
X98336928Y-100780001D01*
X98353992Y-100953255D01*
X98404528Y-101119851D01*
X98486595Y-101273387D01*
X98597038Y-101407962D01*
X98665001Y-101463738D01*
X98665001Y-101631928D01*
X98230000Y-101631928D01*
X98105518Y-101644188D01*
X97985820Y-101680498D01*
X97875506Y-101739463D01*
X97778815Y-101818815D01*
X97699463Y-101915506D01*
X97640498Y-102025820D01*
X97604188Y-102145518D01*
X97591928Y-102270000D01*
X97591928Y-103470000D01*
X97604188Y-103594482D01*
X97640498Y-103714180D01*
X97699463Y-103824494D01*
X97778815Y-103921185D01*
X97875506Y-104000537D01*
X97985820Y-104059502D01*
X98105518Y-104095812D01*
X98230000Y-104108072D01*
X98666494Y-104108072D01*
X98849586Y-104291164D01*
X98807000Y-104333750D01*
X98807000Y-105283000D01*
X99606250Y-105283000D01*
X99723836Y-105165414D01*
X100195000Y-105636579D01*
X100194999Y-106924776D01*
X100057255Y-106882992D01*
X99884001Y-106865928D01*
X99233999Y-106865928D01*
X99060745Y-106882992D01*
X98894149Y-106933528D01*
X98740613Y-107015595D01*
X98606038Y-107126038D01*
X98495595Y-107260613D01*
X98464386Y-107319000D01*
X97579465Y-107319000D01*
X97535999Y-107314719D01*
X97492533Y-107319000D01*
X97492523Y-107319000D01*
X97362510Y-107331805D01*
X97195687Y-107382411D01*
X97041941Y-107464589D01*
X97041939Y-107464590D01*
X97041940Y-107464590D01*
X96940953Y-107547468D01*
X96940951Y-107547470D01*
X96907183Y-107575183D01*
X96879470Y-107608951D01*
X94654956Y-109833466D01*
X94621183Y-109861183D01*
X94510589Y-109995942D01*
X94428411Y-110149688D01*
X94377805Y-110316511D01*
X94365000Y-110446524D01*
X94365000Y-110446531D01*
X94360719Y-110490000D01*
X94365000Y-110533469D01*
X94365000Y-111545375D01*
X94275518Y-111554188D01*
X94155820Y-111590498D01*
X94045506Y-111649463D01*
X93948815Y-111728815D01*
X93869463Y-111825506D01*
X93810498Y-111935820D01*
X93774188Y-112055518D01*
X93761928Y-112180000D01*
X93761928Y-113880000D01*
X93774188Y-114004482D01*
X93810498Y-114124180D01*
X93869463Y-114234494D01*
X93948815Y-114331185D01*
X94045506Y-114410537D01*
X94155820Y-114469502D01*
X94275518Y-114505812D01*
X94400000Y-114518072D01*
X96100000Y-114518072D01*
X96224482Y-114505812D01*
X96344180Y-114469502D01*
X96454494Y-114410537D01*
X96551185Y-114331185D01*
X96630537Y-114234494D01*
X96689502Y-114124180D01*
X96713966Y-114043534D01*
X96789731Y-114127588D01*
X97023080Y-114301641D01*
X97285901Y-114426825D01*
X97433110Y-114471476D01*
X97663000Y-114350155D01*
X97663000Y-113157000D01*
X97917000Y-113157000D01*
X97917000Y-114350155D01*
X98146890Y-114471476D01*
X98294099Y-114426825D01*
X98556920Y-114301641D01*
X98790269Y-114127588D01*
X98985178Y-113911355D01*
X99134157Y-113661252D01*
X99231481Y-113386891D01*
X99110814Y-113157000D01*
X97917000Y-113157000D01*
X97663000Y-113157000D01*
X97643000Y-113157000D01*
X97643000Y-112903000D01*
X97663000Y-112903000D01*
X97663000Y-111709845D01*
X97917000Y-111709845D01*
X97917000Y-112903000D01*
X99110814Y-112903000D01*
X99231481Y-112673109D01*
X99134157Y-112398748D01*
X98985178Y-112148645D01*
X98790269Y-111932412D01*
X98556920Y-111758359D01*
X98294099Y-111633175D01*
X98146890Y-111588524D01*
X97917000Y-111709845D01*
X97663000Y-111709845D01*
X97433110Y-111588524D01*
X97285901Y-111633175D01*
X97023080Y-111758359D01*
X96789731Y-111932412D01*
X96713966Y-112016466D01*
X96689502Y-111935820D01*
X96630537Y-111825506D01*
X96551185Y-111728815D01*
X96454494Y-111649463D01*
X96344180Y-111590498D01*
X96224482Y-111554188D01*
X96135000Y-111545375D01*
X96135000Y-110856578D01*
X97902579Y-109089000D01*
X98464386Y-109089000D01*
X98495595Y-109147387D01*
X98606038Y-109281962D01*
X98740613Y-109392405D01*
X98894149Y-109474472D01*
X99060745Y-109525008D01*
X99233999Y-109542072D01*
X99884001Y-109542072D01*
X100057255Y-109525008D01*
X100223851Y-109474472D01*
X100377387Y-109392405D01*
X100511962Y-109281962D01*
X100584000Y-109194184D01*
X100656038Y-109281962D01*
X100790613Y-109392405D01*
X100944149Y-109474472D01*
X101110745Y-109525008D01*
X101283999Y-109542072D01*
X101934001Y-109542072D01*
X102107255Y-109525008D01*
X102273851Y-109474472D01*
X102427387Y-109392405D01*
X102561962Y-109281962D01*
X102672405Y-109147387D01*
X102703614Y-109089000D01*
X103045386Y-109089000D01*
X103076595Y-109147387D01*
X103187038Y-109281962D01*
X103321613Y-109392405D01*
X103475149Y-109474472D01*
X103641745Y-109525008D01*
X103814999Y-109542072D01*
X104465001Y-109542072D01*
X104638255Y-109525008D01*
X104804851Y-109474472D01*
X104958387Y-109392405D01*
X105092962Y-109281962D01*
X105098342Y-109275406D01*
X105163815Y-109355185D01*
X105260506Y-109434537D01*
X105370820Y-109493502D01*
X105490518Y-109529812D01*
X105615000Y-109542072D01*
X105904250Y-109539000D01*
X106063000Y-109380250D01*
X106063000Y-108331000D01*
X106317000Y-108331000D01*
X106317000Y-109380250D01*
X106475750Y-109539000D01*
X106765000Y-109542072D01*
X106889482Y-109529812D01*
X107009180Y-109493502D01*
X107119494Y-109434537D01*
X107216185Y-109355185D01*
X107295537Y-109258494D01*
X107354502Y-109148180D01*
X107390812Y-109028482D01*
X107403072Y-108904000D01*
X107400000Y-108489750D01*
X107241250Y-108331000D01*
X106317000Y-108331000D01*
X106063000Y-108331000D01*
X106043000Y-108331000D01*
X106043000Y-108077000D01*
X106063000Y-108077000D01*
X106063000Y-107027750D01*
X106317000Y-107027750D01*
X106317000Y-108077000D01*
X107241250Y-108077000D01*
X107400000Y-107918250D01*
X107403072Y-107504000D01*
X107390812Y-107379518D01*
X107354502Y-107259820D01*
X107295537Y-107149506D01*
X107216185Y-107052815D01*
X107119494Y-106973463D01*
X107009180Y-106914498D01*
X106889482Y-106878188D01*
X106765000Y-106865928D01*
X106475750Y-106869000D01*
X106317000Y-107027750D01*
X106063000Y-107027750D01*
X105904250Y-106869000D01*
X105615000Y-106865928D01*
X105490518Y-106878188D01*
X105370820Y-106914498D01*
X105260506Y-106973463D01*
X105163815Y-107052815D01*
X105098342Y-107132594D01*
X105092962Y-107126038D01*
X104958387Y-107015595D01*
X104804851Y-106933528D01*
X104638255Y-106882992D01*
X104465001Y-106865928D01*
X103814999Y-106865928D01*
X103641745Y-106882992D01*
X103475149Y-106933528D01*
X103321613Y-107015595D01*
X103187038Y-107126038D01*
X103076595Y-107260613D01*
X103045386Y-107319000D01*
X102703614Y-107319000D01*
X102672405Y-107260613D01*
X102561962Y-107126038D01*
X102427387Y-107015595D01*
X102273851Y-106933528D01*
X102107255Y-106882992D01*
X101964999Y-106868981D01*
X101964999Y-106648072D01*
X102430000Y-106648072D01*
X102554482Y-106635812D01*
X102674180Y-106599502D01*
X102784494Y-106540537D01*
X102881185Y-106461185D01*
X102960537Y-106364494D01*
X103019502Y-106254180D01*
X103020974Y-106249328D01*
X103076595Y-106353387D01*
X103187038Y-106487962D01*
X103321613Y-106598405D01*
X103475149Y-106680472D01*
X103641745Y-106731008D01*
X103814999Y-106748072D01*
X104465001Y-106748072D01*
X104638255Y-106731008D01*
X104804851Y-106680472D01*
X104958387Y-106598405D01*
X105092962Y-106487962D01*
X105098342Y-106481406D01*
X105163815Y-106561185D01*
X105260506Y-106640537D01*
X105370820Y-106699502D01*
X105490518Y-106735812D01*
X105615000Y-106748072D01*
X105904250Y-106745000D01*
X106063000Y-106586250D01*
X106063000Y-105537000D01*
X106317000Y-105537000D01*
X106317000Y-106586250D01*
X106475750Y-106745000D01*
X106765000Y-106748072D01*
X106889482Y-106735812D01*
X107009180Y-106699502D01*
X107119494Y-106640537D01*
X107216185Y-106561185D01*
X107295537Y-106464494D01*
X107354502Y-106354180D01*
X107390812Y-106234482D01*
X107403072Y-106110000D01*
X107400000Y-105695750D01*
X107241250Y-105537000D01*
X106317000Y-105537000D01*
X106063000Y-105537000D01*
X106043000Y-105537000D01*
X106043000Y-105283000D01*
X106063000Y-105283000D01*
X106063000Y-104233750D01*
X106317000Y-104233750D01*
X106317000Y-105283000D01*
X107241250Y-105283000D01*
X107400000Y-105124250D01*
X107403072Y-104710000D01*
X107390812Y-104585518D01*
X107354502Y-104465820D01*
X107295537Y-104355506D01*
X107216185Y-104258815D01*
X107119494Y-104179463D01*
X107009180Y-104120498D01*
X106889482Y-104084188D01*
X106765000Y-104071928D01*
X106475750Y-104075000D01*
X106317000Y-104233750D01*
X106063000Y-104233750D01*
X105904250Y-104075000D01*
X105615000Y-104071928D01*
X105490518Y-104084188D01*
X105370820Y-104120498D01*
X105260506Y-104179463D01*
X105163815Y-104258815D01*
X105155000Y-104269556D01*
X105155000Y-103290000D01*
X111541928Y-103290000D01*
X111541928Y-104990000D01*
X111554188Y-105114482D01*
X111590498Y-105234180D01*
X111649463Y-105344494D01*
X111728815Y-105441185D01*
X111825506Y-105520537D01*
X111935820Y-105579502D01*
X112008380Y-105601513D01*
X111876525Y-105733368D01*
X111714010Y-105976589D01*
X111602068Y-106246842D01*
X111545000Y-106533740D01*
X111545000Y-106826260D01*
X111602068Y-107113158D01*
X111714010Y-107383411D01*
X111876525Y-107626632D01*
X112083368Y-107833475D01*
X112257760Y-107950000D01*
X112083368Y-108066525D01*
X111876525Y-108273368D01*
X111714010Y-108516589D01*
X111602068Y-108786842D01*
X111545000Y-109073740D01*
X111545000Y-109366260D01*
X111602068Y-109653158D01*
X111714010Y-109923411D01*
X111876525Y-110166632D01*
X112083368Y-110373475D01*
X112257760Y-110490000D01*
X112083368Y-110606525D01*
X111876525Y-110813368D01*
X111714010Y-111056589D01*
X111602068Y-111326842D01*
X111545000Y-111613740D01*
X111545000Y-111906260D01*
X111602068Y-112193158D01*
X111714010Y-112463411D01*
X111876525Y-112706632D01*
X112083368Y-112913475D01*
X112265534Y-113035195D01*
X112148645Y-113104822D01*
X111932412Y-113299731D01*
X111758359Y-113533080D01*
X111633175Y-113795901D01*
X111588524Y-113943110D01*
X111709845Y-114173000D01*
X112903000Y-114173000D01*
X112903000Y-114153000D01*
X113157000Y-114153000D01*
X113157000Y-114173000D01*
X114350155Y-114173000D01*
X114471476Y-113943110D01*
X114426825Y-113795901D01*
X114301641Y-113533080D01*
X114127588Y-113299731D01*
X113911355Y-113104822D01*
X113794466Y-113035195D01*
X113976632Y-112913475D01*
X114183475Y-112706632D01*
X114345990Y-112463411D01*
X114457932Y-112193158D01*
X114515000Y-111906260D01*
X114515000Y-111613740D01*
X114457932Y-111326842D01*
X114345990Y-111056589D01*
X114183475Y-110813368D01*
X113976632Y-110606525D01*
X113802240Y-110490000D01*
X113976632Y-110373475D01*
X114183475Y-110166632D01*
X114345990Y-109923411D01*
X114457932Y-109653158D01*
X114515000Y-109366260D01*
X114515000Y-109073740D01*
X114457932Y-108786842D01*
X114345990Y-108516589D01*
X114183475Y-108273368D01*
X113976632Y-108066525D01*
X113802240Y-107950000D01*
X113976632Y-107833475D01*
X114183475Y-107626632D01*
X114345990Y-107383411D01*
X114457932Y-107113158D01*
X114515000Y-106826260D01*
X114515000Y-106533740D01*
X114457932Y-106246842D01*
X114345990Y-105976589D01*
X114183475Y-105733368D01*
X114051620Y-105601513D01*
X114124180Y-105579502D01*
X114234494Y-105520537D01*
X114331185Y-105441185D01*
X114410537Y-105344494D01*
X114469502Y-105234180D01*
X114505812Y-105114482D01*
X114518072Y-104990000D01*
X114518072Y-103290000D01*
X114505812Y-103165518D01*
X114469502Y-103045820D01*
X114410537Y-102935506D01*
X114331185Y-102838815D01*
X114234494Y-102759463D01*
X114124180Y-102700498D01*
X114004482Y-102664188D01*
X113880000Y-102651928D01*
X112180000Y-102651928D01*
X112055518Y-102664188D01*
X111935820Y-102700498D01*
X111825506Y-102759463D01*
X111728815Y-102838815D01*
X111649463Y-102935506D01*
X111590498Y-103045820D01*
X111554188Y-103165518D01*
X111541928Y-103290000D01*
X105155000Y-103290000D01*
X105155000Y-102532162D01*
X105248745Y-102522929D01*
X105396582Y-102478084D01*
X105405139Y-102473510D01*
X105418490Y-102472195D01*
X105585313Y-102421589D01*
X105739059Y-102339411D01*
X105873817Y-102228817D01*
X105901534Y-102195044D01*
X106290055Y-101806523D01*
X106323827Y-101778807D01*
X106434421Y-101644049D01*
X106516599Y-101490303D01*
X106567205Y-101323480D01*
X106580010Y-101193467D01*
X106580010Y-101193457D01*
X106584291Y-101149991D01*
X106580010Y-101106525D01*
X106580010Y-99360000D01*
X107606928Y-99360000D01*
X107619188Y-99484482D01*
X107655498Y-99604180D01*
X107714463Y-99714494D01*
X107738730Y-99744064D01*
X107666916Y-99878418D01*
X107622071Y-100026255D01*
X107606928Y-100180000D01*
X107606928Y-100480000D01*
X107622071Y-100633745D01*
X107666916Y-100781582D01*
X107739742Y-100917829D01*
X107778454Y-100965000D01*
X107739742Y-101012171D01*
X107666916Y-101148418D01*
X107622071Y-101296255D01*
X107606928Y-101450000D01*
X107606928Y-101750000D01*
X107622071Y-101903745D01*
X107666916Y-102051582D01*
X107739742Y-102187829D01*
X107837749Y-102307251D01*
X107957171Y-102405258D01*
X108093418Y-102478084D01*
X108241255Y-102522929D01*
X108395000Y-102538072D01*
X110045000Y-102538072D01*
X110198745Y-102522929D01*
X110346582Y-102478084D01*
X110482829Y-102405258D01*
X110602251Y-102307251D01*
X110700258Y-102187829D01*
X110773084Y-102051582D01*
X110817929Y-101903745D01*
X110833072Y-101750000D01*
X110833072Y-101450000D01*
X110817929Y-101296255D01*
X110773084Y-101148418D01*
X110700258Y-101012171D01*
X110661546Y-100965000D01*
X110700258Y-100917829D01*
X110773084Y-100781582D01*
X110817929Y-100633745D01*
X110833072Y-100480000D01*
X110833072Y-100180000D01*
X110817929Y-100026255D01*
X110773084Y-99878418D01*
X110701270Y-99744064D01*
X110725537Y-99714494D01*
X110784502Y-99604180D01*
X110820812Y-99484482D01*
X110827469Y-99416890D01*
X111588524Y-99416890D01*
X111633175Y-99564099D01*
X111758359Y-99826920D01*
X111932412Y-100060269D01*
X112148645Y-100255178D01*
X112398748Y-100404157D01*
X112673109Y-100501481D01*
X112903000Y-100380814D01*
X112903000Y-99187000D01*
X113157000Y-99187000D01*
X113157000Y-100380814D01*
X113386891Y-100501481D01*
X113661252Y-100404157D01*
X113911355Y-100255178D01*
X114127588Y-100060269D01*
X114301641Y-99826920D01*
X114426825Y-99564099D01*
X114471476Y-99416890D01*
X114350155Y-99187000D01*
X113157000Y-99187000D01*
X112903000Y-99187000D01*
X111709845Y-99187000D01*
X111588524Y-99416890D01*
X110827469Y-99416890D01*
X110833072Y-99360000D01*
X110830000Y-99345750D01*
X110671250Y-99187000D01*
X109347000Y-99187000D01*
X109347000Y-99207000D01*
X109093000Y-99207000D01*
X109093000Y-99187000D01*
X107768750Y-99187000D01*
X107610000Y-99345750D01*
X107606928Y-99360000D01*
X106580010Y-99360000D01*
X106580010Y-96585629D01*
X106639250Y-96585000D01*
X106798000Y-96426250D01*
X106798000Y-95377000D01*
X106778000Y-95377000D01*
X106778000Y-95123000D01*
X106798000Y-95123000D01*
X106798000Y-94073750D01*
X107052000Y-94073750D01*
X107052000Y-95123000D01*
X107072000Y-95123000D01*
X107072000Y-95377000D01*
X107052000Y-95377000D01*
X107052000Y-96426250D01*
X107210750Y-96585000D01*
X107500000Y-96588072D01*
X107624482Y-96575812D01*
X107744180Y-96539502D01*
X107854494Y-96480537D01*
X107951185Y-96401185D01*
X108016658Y-96321406D01*
X108022038Y-96327962D01*
X108090000Y-96383737D01*
X108090001Y-96913743D01*
X107957171Y-96984742D01*
X107837749Y-97082749D01*
X107739742Y-97202171D01*
X107666916Y-97338418D01*
X107622071Y-97486255D01*
X107606928Y-97640000D01*
X107606928Y-97940000D01*
X107622071Y-98093745D01*
X107666916Y-98241582D01*
X107738730Y-98375936D01*
X107714463Y-98405506D01*
X107655498Y-98515820D01*
X107619188Y-98635518D01*
X107606928Y-98760000D01*
X107610000Y-98774250D01*
X107768750Y-98933000D01*
X109093000Y-98933000D01*
X109093000Y-98913000D01*
X109347000Y-98913000D01*
X109347000Y-98933000D01*
X110671250Y-98933000D01*
X110830000Y-98774250D01*
X110833072Y-98760000D01*
X110820812Y-98635518D01*
X110784502Y-98515820D01*
X110725537Y-98405506D01*
X110701270Y-98375936D01*
X110773084Y-98241582D01*
X110817929Y-98093745D01*
X110833072Y-97940000D01*
X110833072Y-97640000D01*
X110817929Y-97486255D01*
X110773084Y-97338418D01*
X110700258Y-97202171D01*
X110602251Y-97082749D01*
X110482829Y-96984742D01*
X110346582Y-96911916D01*
X110198745Y-96867071D01*
X110045000Y-96851928D01*
X109860000Y-96851928D01*
X109860000Y-96383737D01*
X109927962Y-96327962D01*
X110038405Y-96193387D01*
X110120472Y-96039851D01*
X110171008Y-95873255D01*
X110188072Y-95700001D01*
X110188072Y-95642059D01*
X111541928Y-94288203D01*
X111541928Y-94830000D01*
X111554188Y-94954482D01*
X111590498Y-95074180D01*
X111649463Y-95184494D01*
X111728815Y-95281185D01*
X111825506Y-95360537D01*
X111935820Y-95419502D01*
X112008380Y-95441513D01*
X111876525Y-95573368D01*
X111714010Y-95816589D01*
X111602068Y-96086842D01*
X111545000Y-96373740D01*
X111545000Y-96666260D01*
X111602068Y-96953158D01*
X111714010Y-97223411D01*
X111876525Y-97466632D01*
X112083368Y-97673475D01*
X112265534Y-97795195D01*
X112148645Y-97864822D01*
X111932412Y-98059731D01*
X111758359Y-98293080D01*
X111633175Y-98555901D01*
X111588524Y-98703110D01*
X111709845Y-98933000D01*
X112903000Y-98933000D01*
X112903000Y-98913000D01*
X113157000Y-98913000D01*
X113157000Y-98933000D01*
X114350155Y-98933000D01*
X114471476Y-98703110D01*
X114426825Y-98555901D01*
X114301641Y-98293080D01*
X114127588Y-98059731D01*
X113911355Y-97864822D01*
X113794466Y-97795195D01*
X113976632Y-97673475D01*
X114183475Y-97466632D01*
X114345990Y-97223411D01*
X114457932Y-96953158D01*
X114515000Y-96666260D01*
X114515000Y-96373740D01*
X114457932Y-96086842D01*
X114345990Y-95816589D01*
X114183475Y-95573368D01*
X114051620Y-95441513D01*
X114124180Y-95419502D01*
X114234494Y-95360537D01*
X114331185Y-95281185D01*
X114410537Y-95184494D01*
X114469502Y-95074180D01*
X114505812Y-94954482D01*
X114518072Y-94830000D01*
X114518072Y-93130000D01*
X114505812Y-93005518D01*
X114469502Y-92885820D01*
X114410537Y-92775506D01*
X114331185Y-92678815D01*
X114234494Y-92599463D01*
X114124180Y-92540498D01*
X114004482Y-92504188D01*
X113880000Y-92491928D01*
X113338204Y-92491928D01*
X113602641Y-92227491D01*
X113645949Y-92191949D01*
X113787784Y-92019123D01*
X113893176Y-91821947D01*
X113958077Y-91607999D01*
X113974500Y-91441252D01*
X113974500Y-91441243D01*
X113979990Y-91385501D01*
X113974500Y-91329759D01*
X113974500Y-69230212D01*
X113963568Y-69175253D01*
X113958077Y-69119501D01*
X113941815Y-69065894D01*
X113930883Y-69010933D01*
X113909437Y-68959158D01*
X113893176Y-68905553D01*
X113866769Y-68856149D01*
X113845324Y-68804376D01*
X113814193Y-68757786D01*
X113787784Y-68708377D01*
X113752241Y-68665068D01*
X113721112Y-68618480D01*
X113681491Y-68578859D01*
X113645949Y-68535551D01*
X113602641Y-68500009D01*
X113563020Y-68460388D01*
X113516432Y-68429259D01*
X113473123Y-68393716D01*
X113423714Y-68367307D01*
X113377124Y-68336176D01*
X113325351Y-68314731D01*
X113275947Y-68288324D01*
X113222342Y-68272063D01*
X113170567Y-68250617D01*
X113115606Y-68239685D01*
X113061999Y-68223423D01*
X113006247Y-68217932D01*
X112951288Y-68207000D01*
X112895252Y-68207000D01*
X112839500Y-68201509D01*
X112783749Y-68207000D01*
X112727712Y-68207000D01*
X112672752Y-68217932D01*
X112617002Y-68223423D01*
X112563397Y-68239684D01*
X112508433Y-68250617D01*
X112456655Y-68272064D01*
X112403054Y-68288324D01*
X112353653Y-68314729D01*
X112301876Y-68336176D01*
X112255282Y-68367309D01*
X112205878Y-68393716D01*
X112162574Y-68429255D01*
X112115980Y-68460388D01*
X112076355Y-68500013D01*
X112033052Y-68535551D01*
X111997514Y-68578854D01*
X111957888Y-68618480D01*
X111926754Y-68665075D01*
X111891217Y-68708377D01*
X111864812Y-68757778D01*
X111833676Y-68804376D01*
X111812228Y-68856157D01*
X111785825Y-68905553D01*
X111769567Y-68959149D01*
X111748117Y-69010933D01*
X111737183Y-69065904D01*
X111720924Y-69119501D01*
X111715434Y-69175243D01*
X111704500Y-69230212D01*
X111704500Y-69453788D01*
X111704501Y-69453793D01*
X111704500Y-90915368D01*
X108707941Y-93911928D01*
X108649999Y-93911928D01*
X108476745Y-93928992D01*
X108310149Y-93979528D01*
X108156613Y-94061595D01*
X108022038Y-94172038D01*
X108016658Y-94178594D01*
X107951185Y-94098815D01*
X107854494Y-94019463D01*
X107744180Y-93960498D01*
X107624482Y-93924188D01*
X107500000Y-93911928D01*
X107210750Y-93915000D01*
X107052000Y-94073750D01*
X106798000Y-94073750D01*
X106639250Y-93915000D01*
X106580010Y-93914371D01*
X106580010Y-93865457D01*
X106584291Y-93821991D01*
X106580010Y-93778525D01*
X106580010Y-86688479D01*
X106584291Y-86645010D01*
X106580010Y-86601541D01*
X106580010Y-86601533D01*
X106567205Y-86471520D01*
X106532866Y-86358320D01*
X106516599Y-86304696D01*
X106434421Y-86150951D01*
X106351542Y-86049963D01*
X106351540Y-86049961D01*
X106323827Y-86016193D01*
X106290059Y-85988480D01*
X104189271Y-83887693D01*
X104225000Y-83888072D01*
X104349482Y-83875812D01*
X104469180Y-83839502D01*
X104579494Y-83780537D01*
X104676185Y-83701185D01*
X104755537Y-83604494D01*
X104814502Y-83494180D01*
X104850812Y-83374482D01*
X104863072Y-83250000D01*
X104860000Y-82835750D01*
X104701250Y-82677000D01*
X103777000Y-82677000D01*
X103777000Y-82697000D01*
X103523000Y-82697000D01*
X103523000Y-82677000D01*
X103503000Y-82677000D01*
X103503000Y-82423000D01*
X103523000Y-82423000D01*
X103523000Y-81373750D01*
X103777000Y-81373750D01*
X103777000Y-82423000D01*
X104701250Y-82423000D01*
X104860000Y-82264250D01*
X104863072Y-81850000D01*
X104850812Y-81725518D01*
X104814502Y-81605820D01*
X104755537Y-81495506D01*
X104676185Y-81398815D01*
X104579494Y-81319463D01*
X104469180Y-81260498D01*
X104349482Y-81224188D01*
X104225000Y-81211928D01*
X103935750Y-81215000D01*
X103777000Y-81373750D01*
X103523000Y-81373750D01*
X103364250Y-81215000D01*
X103075000Y-81211928D01*
X102950518Y-81224188D01*
X102830820Y-81260498D01*
X102735000Y-81311716D01*
X102735000Y-80162631D01*
X111253146Y-71644487D01*
X111296449Y-71608949D01*
X111385272Y-71500719D01*
X111438284Y-71436123D01*
X111543676Y-71238947D01*
X111608577Y-71024999D01*
X111630491Y-70802500D01*
X111625000Y-70746748D01*
X111625000Y-65373284D01*
X111720820Y-65424502D01*
X111840518Y-65460812D01*
X111965000Y-65473072D01*
X112254250Y-65470000D01*
X112413000Y-65311250D01*
X112413000Y-64262000D01*
X112667000Y-64262000D01*
X112667000Y-65311250D01*
X112825750Y-65470000D01*
X113115000Y-65473072D01*
X113239482Y-65460812D01*
X113359180Y-65424502D01*
X113469494Y-65365537D01*
X113566185Y-65286185D01*
X113645537Y-65189494D01*
X113704502Y-65079180D01*
X113740812Y-64959482D01*
X113753072Y-64835000D01*
X113750000Y-64420750D01*
X113591250Y-64262000D01*
X112667000Y-64262000D01*
X112413000Y-64262000D01*
X112393000Y-64262000D01*
X112393000Y-64008000D01*
X112413000Y-64008000D01*
X112413000Y-62958750D01*
X112667000Y-62958750D01*
X112667000Y-64008000D01*
X113591250Y-64008000D01*
X113750000Y-63849250D01*
X113753072Y-63435000D01*
X113740812Y-63310518D01*
X113704502Y-63190820D01*
X113645537Y-63080506D01*
X113566185Y-62983815D01*
X113469494Y-62904463D01*
X113359180Y-62845498D01*
X113239482Y-62809188D01*
X113115000Y-62796928D01*
X112825750Y-62800000D01*
X112667000Y-62958750D01*
X112413000Y-62958750D01*
X112254250Y-62800000D01*
X111965000Y-62796928D01*
X111840518Y-62809188D01*
X111720820Y-62845498D01*
X111625000Y-62896716D01*
X111625000Y-62377683D01*
X111694494Y-62340537D01*
X111791185Y-62261185D01*
X111870537Y-62164494D01*
X111907683Y-62095000D01*
X112064893Y-62095000D01*
X112083368Y-62113475D01*
X112326589Y-62275990D01*
X112596842Y-62387932D01*
X112883740Y-62445000D01*
X113176260Y-62445000D01*
X113463158Y-62387932D01*
X113733411Y-62275990D01*
X113976632Y-62113475D01*
X114183475Y-61906632D01*
X114345990Y-61663411D01*
X114457932Y-61393158D01*
X114515000Y-61106260D01*
X114515000Y-61080131D01*
X114910001Y-60685131D01*
X114910000Y-116180000D01*
G37*
X114910000Y-116180000D02*
X76860000Y-116180000D01*
X76860000Y-114460881D01*
X78758724Y-114460881D01*
X79118912Y-114950548D01*
X79782882Y-115310849D01*
X80504385Y-115534694D01*
X81255695Y-115613480D01*
X82007938Y-115544178D01*
X82732208Y-115329452D01*
X83400670Y-114977555D01*
X83441088Y-114950548D01*
X83657096Y-114656890D01*
X111588524Y-114656890D01*
X111633175Y-114804099D01*
X111758359Y-115066920D01*
X111932412Y-115300269D01*
X112148645Y-115495178D01*
X112398748Y-115644157D01*
X112673109Y-115741481D01*
X112903000Y-115620814D01*
X112903000Y-114427000D01*
X113157000Y-114427000D01*
X113157000Y-115620814D01*
X113386891Y-115741481D01*
X113661252Y-115644157D01*
X113911355Y-115495178D01*
X114127588Y-115300269D01*
X114301641Y-115066920D01*
X114426825Y-114804099D01*
X114471476Y-114656890D01*
X114350155Y-114427000D01*
X113157000Y-114427000D01*
X112903000Y-114427000D01*
X111709845Y-114427000D01*
X111588524Y-114656890D01*
X83657096Y-114656890D01*
X83801276Y-114460881D01*
X81280000Y-111939605D01*
X78758724Y-114460881D01*
X76860000Y-114460881D01*
X76860000Y-111735695D01*
X77426520Y-111735695D01*
X77495822Y-112487938D01*
X77710548Y-113212208D01*
X78062445Y-113880670D01*
X78089452Y-113921088D01*
X78579119Y-114281276D01*
X81100395Y-111760000D01*
X81459605Y-111760000D01*
X83980881Y-114281276D01*
X84470548Y-113921088D01*
X84830849Y-113257118D01*
X85054694Y-112535615D01*
X85133480Y-111784305D01*
X85064178Y-111032062D01*
X84849452Y-110307792D01*
X84497555Y-109639330D01*
X84470548Y-109598912D01*
X83980881Y-109238724D01*
X81459605Y-111760000D01*
X81100395Y-111760000D01*
X78579119Y-109238724D01*
X78089452Y-109598912D01*
X77729151Y-110262882D01*
X77505306Y-110984385D01*
X77426520Y-111735695D01*
X76860000Y-111735695D01*
X76860000Y-109059119D01*
X78758724Y-109059119D01*
X81280000Y-111580395D01*
X83801276Y-109059119D01*
X83441088Y-108569452D01*
X82777118Y-108209151D01*
X82055615Y-107985306D01*
X81304305Y-107906520D01*
X80552062Y-107975822D01*
X79827792Y-108190548D01*
X79159330Y-108542445D01*
X79118912Y-108569452D01*
X78758724Y-109059119D01*
X76860000Y-109059119D01*
X76860000Y-103511578D01*
X78539461Y-105191040D01*
X78525000Y-105263740D01*
X78525000Y-105556260D01*
X78582068Y-105843158D01*
X78694010Y-106113411D01*
X78856525Y-106356632D01*
X79063368Y-106563475D01*
X79306589Y-106725990D01*
X79576842Y-106837932D01*
X79863740Y-106895000D01*
X80156260Y-106895000D01*
X80443158Y-106837932D01*
X80713411Y-106725990D01*
X80956632Y-106563475D01*
X81163475Y-106356632D01*
X81280000Y-106182240D01*
X81396525Y-106356632D01*
X81603368Y-106563475D01*
X81846589Y-106725990D01*
X82116842Y-106837932D01*
X82403740Y-106895000D01*
X82696260Y-106895000D01*
X82768960Y-106880539D01*
X83671470Y-107783049D01*
X83699183Y-107816817D01*
X83732951Y-107844530D01*
X83732953Y-107844532D01*
X83805427Y-107904010D01*
X83833941Y-107927411D01*
X83987687Y-108009589D01*
X84154510Y-108060195D01*
X84284523Y-108073000D01*
X84284531Y-108073000D01*
X84328000Y-108077281D01*
X84371469Y-108073000D01*
X84757386Y-108073000D01*
X84788595Y-108131387D01*
X84848187Y-108204000D01*
X84788595Y-108276613D01*
X84706528Y-108430149D01*
X84655992Y-108596745D01*
X84638928Y-108769999D01*
X84638928Y-109670001D01*
X84655992Y-109843255D01*
X84706528Y-110009851D01*
X84788595Y-110163387D01*
X84899038Y-110297962D01*
X85033613Y-110408405D01*
X85187149Y-110490472D01*
X85353745Y-110541008D01*
X85526999Y-110558072D01*
X86177001Y-110558072D01*
X86350255Y-110541008D01*
X86516851Y-110490472D01*
X86670387Y-110408405D01*
X86804962Y-110297962D01*
X86877000Y-110210184D01*
X86949038Y-110297962D01*
X87083613Y-110408405D01*
X87237149Y-110490472D01*
X87403745Y-110541008D01*
X87576999Y-110558072D01*
X88227001Y-110558072D01*
X88400255Y-110541008D01*
X88566851Y-110490472D01*
X88720387Y-110408405D01*
X88854962Y-110297962D01*
X88965405Y-110163387D01*
X89047472Y-110009851D01*
X89098008Y-109843255D01*
X89115072Y-109670001D01*
X89115072Y-109258507D01*
X89522060Y-108851519D01*
X89555827Y-108823807D01*
X89599987Y-108769999D01*
X89659026Y-108698060D01*
X89666421Y-108689049D01*
X89748599Y-108535303D01*
X89799205Y-108368480D01*
X89812010Y-108238467D01*
X89812010Y-108238457D01*
X89816291Y-108194991D01*
X89812010Y-108151524D01*
X89812010Y-106224476D01*
X89816291Y-106181009D01*
X89812010Y-106137543D01*
X89812010Y-106137533D01*
X89799450Y-106010000D01*
X97591928Y-106010000D01*
X97604188Y-106134482D01*
X97640498Y-106254180D01*
X97699463Y-106364494D01*
X97778815Y-106461185D01*
X97875506Y-106540537D01*
X97985820Y-106599502D01*
X98105518Y-106635812D01*
X98230000Y-106648072D01*
X98394250Y-106645000D01*
X98553000Y-106486250D01*
X98553000Y-105537000D01*
X98807000Y-105537000D01*
X98807000Y-106486250D01*
X98965750Y-106645000D01*
X99130000Y-106648072D01*
X99254482Y-106635812D01*
X99374180Y-106599502D01*
X99484494Y-106540537D01*
X99581185Y-106461185D01*
X99660537Y-106364494D01*
X99719502Y-106254180D01*
X99755812Y-106134482D01*
X99768072Y-106010000D01*
X99765000Y-105695750D01*
X99606250Y-105537000D01*
X98807000Y-105537000D01*
X98553000Y-105537000D01*
X97753750Y-105537000D01*
X97595000Y-105695750D01*
X97591928Y-106010000D01*
X89799450Y-106010000D01*
X89799205Y-106007520D01*
X89748599Y-105840697D01*
X89666421Y-105686951D01*
X89608038Y-105615812D01*
X89583542Y-105585963D01*
X89583540Y-105585961D01*
X89555827Y-105552193D01*
X89522059Y-105524480D01*
X89153579Y-105156000D01*
X89499579Y-104810000D01*
X97591928Y-104810000D01*
X97595000Y-105124250D01*
X97753750Y-105283000D01*
X98553000Y-105283000D01*
X98553000Y-104333750D01*
X98394250Y-104175000D01*
X98230000Y-104171928D01*
X98105518Y-104184188D01*
X97985820Y-104220498D01*
X97875506Y-104279463D01*
X97778815Y-104358815D01*
X97699463Y-104455506D01*
X97640498Y-104565820D01*
X97604188Y-104685518D01*
X97591928Y-104810000D01*
X89499579Y-104810000D01*
X89522060Y-104787519D01*
X89555827Y-104759807D01*
X89599503Y-104706589D01*
X89666420Y-104625050D01*
X89666421Y-104625049D01*
X89748599Y-104471303D01*
X89799205Y-104304480D01*
X89812010Y-104174467D01*
X89812010Y-104174457D01*
X89816291Y-104130991D01*
X89812010Y-104087524D01*
X89812010Y-102178479D01*
X89816291Y-102135010D01*
X89812010Y-102091541D01*
X89812010Y-102091533D01*
X89799205Y-101961520D01*
X89748599Y-101794697D01*
X89666421Y-101640951D01*
X89638847Y-101607352D01*
X89583542Y-101539963D01*
X89583540Y-101539961D01*
X89555827Y-101506193D01*
X89522059Y-101478480D01*
X89135579Y-101092000D01*
X89504060Y-100723519D01*
X89537827Y-100695807D01*
X89581987Y-100641999D01*
X89648420Y-100561050D01*
X89648421Y-100561049D01*
X89730599Y-100407303D01*
X89781205Y-100240480D01*
X89794010Y-100110467D01*
X89794010Y-100110457D01*
X89798291Y-100066991D01*
X89794010Y-100023524D01*
X89794010Y-99945000D01*
X98336928Y-99945000D01*
X98336928Y-100780001D01*
X98353992Y-100953255D01*
X98404528Y-101119851D01*
X98486595Y-101273387D01*
X98597038Y-101407962D01*
X98665001Y-101463738D01*
X98665001Y-101631928D01*
X98230000Y-101631928D01*
X98105518Y-101644188D01*
X97985820Y-101680498D01*
X97875506Y-101739463D01*
X97778815Y-101818815D01*
X97699463Y-101915506D01*
X97640498Y-102025820D01*
X97604188Y-102145518D01*
X97591928Y-102270000D01*
X97591928Y-103470000D01*
X97604188Y-103594482D01*
X97640498Y-103714180D01*
X97699463Y-103824494D01*
X97778815Y-103921185D01*
X97875506Y-104000537D01*
X97985820Y-104059502D01*
X98105518Y-104095812D01*
X98230000Y-104108072D01*
X98666494Y-104108072D01*
X98849586Y-104291164D01*
X98807000Y-104333750D01*
X98807000Y-105283000D01*
X99606250Y-105283000D01*
X99723836Y-105165414D01*
X100195000Y-105636579D01*
X100194999Y-106924776D01*
X100057255Y-106882992D01*
X99884001Y-106865928D01*
X99233999Y-106865928D01*
X99060745Y-106882992D01*
X98894149Y-106933528D01*
X98740613Y-107015595D01*
X98606038Y-107126038D01*
X98495595Y-107260613D01*
X98464386Y-107319000D01*
X97579465Y-107319000D01*
X97535999Y-107314719D01*
X97492533Y-107319000D01*
X97492523Y-107319000D01*
X97362510Y-107331805D01*
X97195687Y-107382411D01*
X97041941Y-107464589D01*
X97041939Y-107464590D01*
X97041940Y-107464590D01*
X96940953Y-107547468D01*
X96940951Y-107547470D01*
X96907183Y-107575183D01*
X96879470Y-107608951D01*
X94654956Y-109833466D01*
X94621183Y-109861183D01*
X94510589Y-109995942D01*
X94428411Y-110149688D01*
X94377805Y-110316511D01*
X94365000Y-110446524D01*
X94365000Y-110446531D01*
X94360719Y-110490000D01*
X94365000Y-110533469D01*
X94365000Y-111545375D01*
X94275518Y-111554188D01*
X94155820Y-111590498D01*
X94045506Y-111649463D01*
X93948815Y-111728815D01*
X93869463Y-111825506D01*
X93810498Y-111935820D01*
X93774188Y-112055518D01*
X93761928Y-112180000D01*
X93761928Y-113880000D01*
X93774188Y-114004482D01*
X93810498Y-114124180D01*
X93869463Y-114234494D01*
X93948815Y-114331185D01*
X94045506Y-114410537D01*
X94155820Y-114469502D01*
X94275518Y-114505812D01*
X94400000Y-114518072D01*
X96100000Y-114518072D01*
X96224482Y-114505812D01*
X96344180Y-114469502D01*
X96454494Y-114410537D01*
X96551185Y-114331185D01*
X96630537Y-114234494D01*
X96689502Y-114124180D01*
X96713966Y-114043534D01*
X96789731Y-114127588D01*
X97023080Y-114301641D01*
X97285901Y-114426825D01*
X97433110Y-114471476D01*
X97663000Y-114350155D01*
X97663000Y-113157000D01*
X97917000Y-113157000D01*
X97917000Y-114350155D01*
X98146890Y-114471476D01*
X98294099Y-114426825D01*
X98556920Y-114301641D01*
X98790269Y-114127588D01*
X98985178Y-113911355D01*
X99134157Y-113661252D01*
X99231481Y-113386891D01*
X99110814Y-113157000D01*
X97917000Y-113157000D01*
X97663000Y-113157000D01*
X97643000Y-113157000D01*
X97643000Y-112903000D01*
X97663000Y-112903000D01*
X97663000Y-111709845D01*
X97917000Y-111709845D01*
X97917000Y-112903000D01*
X99110814Y-112903000D01*
X99231481Y-112673109D01*
X99134157Y-112398748D01*
X98985178Y-112148645D01*
X98790269Y-111932412D01*
X98556920Y-111758359D01*
X98294099Y-111633175D01*
X98146890Y-111588524D01*
X97917000Y-111709845D01*
X97663000Y-111709845D01*
X97433110Y-111588524D01*
X97285901Y-111633175D01*
X97023080Y-111758359D01*
X96789731Y-111932412D01*
X96713966Y-112016466D01*
X96689502Y-111935820D01*
X96630537Y-111825506D01*
X96551185Y-111728815D01*
X96454494Y-111649463D01*
X96344180Y-111590498D01*
X96224482Y-111554188D01*
X96135000Y-111545375D01*
X96135000Y-110856578D01*
X97902579Y-109089000D01*
X98464386Y-109089000D01*
X98495595Y-109147387D01*
X98606038Y-109281962D01*
X98740613Y-109392405D01*
X98894149Y-109474472D01*
X99060745Y-109525008D01*
X99233999Y-109542072D01*
X99884001Y-109542072D01*
X100057255Y-109525008D01*
X100223851Y-109474472D01*
X100377387Y-109392405D01*
X100511962Y-109281962D01*
X100584000Y-109194184D01*
X100656038Y-109281962D01*
X100790613Y-109392405D01*
X100944149Y-109474472D01*
X101110745Y-109525008D01*
X101283999Y-109542072D01*
X101934001Y-109542072D01*
X102107255Y-109525008D01*
X102273851Y-109474472D01*
X102427387Y-109392405D01*
X102561962Y-109281962D01*
X102672405Y-109147387D01*
X102703614Y-109089000D01*
X103045386Y-109089000D01*
X103076595Y-109147387D01*
X103187038Y-109281962D01*
X103321613Y-109392405D01*
X103475149Y-109474472D01*
X103641745Y-109525008D01*
X103814999Y-109542072D01*
X104465001Y-109542072D01*
X104638255Y-109525008D01*
X104804851Y-109474472D01*
X104958387Y-109392405D01*
X105092962Y-109281962D01*
X105098342Y-109275406D01*
X105163815Y-109355185D01*
X105260506Y-109434537D01*
X105370820Y-109493502D01*
X105490518Y-109529812D01*
X105615000Y-109542072D01*
X105904250Y-109539000D01*
X106063000Y-109380250D01*
X106063000Y-108331000D01*
X106317000Y-108331000D01*
X106317000Y-109380250D01*
X106475750Y-109539000D01*
X106765000Y-109542072D01*
X106889482Y-109529812D01*
X107009180Y-109493502D01*
X107119494Y-109434537D01*
X107216185Y-109355185D01*
X107295537Y-109258494D01*
X107354502Y-109148180D01*
X107390812Y-109028482D01*
X107403072Y-108904000D01*
X107400000Y-108489750D01*
X107241250Y-108331000D01*
X106317000Y-108331000D01*
X106063000Y-108331000D01*
X106043000Y-108331000D01*
X106043000Y-108077000D01*
X106063000Y-108077000D01*
X106063000Y-107027750D01*
X106317000Y-107027750D01*
X106317000Y-108077000D01*
X107241250Y-108077000D01*
X107400000Y-107918250D01*
X107403072Y-107504000D01*
X107390812Y-107379518D01*
X107354502Y-107259820D01*
X107295537Y-107149506D01*
X107216185Y-107052815D01*
X107119494Y-106973463D01*
X107009180Y-106914498D01*
X106889482Y-106878188D01*
X106765000Y-106865928D01*
X106475750Y-106869000D01*
X106317000Y-107027750D01*
X106063000Y-107027750D01*
X105904250Y-106869000D01*
X105615000Y-106865928D01*
X105490518Y-106878188D01*
X105370820Y-106914498D01*
X105260506Y-106973463D01*
X105163815Y-107052815D01*
X105098342Y-107132594D01*
X105092962Y-107126038D01*
X104958387Y-107015595D01*
X104804851Y-106933528D01*
X104638255Y-106882992D01*
X104465001Y-106865928D01*
X103814999Y-106865928D01*
X103641745Y-106882992D01*
X103475149Y-106933528D01*
X103321613Y-107015595D01*
X103187038Y-107126038D01*
X103076595Y-107260613D01*
X103045386Y-107319000D01*
X102703614Y-107319000D01*
X102672405Y-107260613D01*
X102561962Y-107126038D01*
X102427387Y-107015595D01*
X102273851Y-106933528D01*
X102107255Y-106882992D01*
X101964999Y-106868981D01*
X101964999Y-106648072D01*
X102430000Y-106648072D01*
X102554482Y-106635812D01*
X102674180Y-106599502D01*
X102784494Y-106540537D01*
X102881185Y-106461185D01*
X102960537Y-106364494D01*
X103019502Y-106254180D01*
X103020974Y-106249328D01*
X103076595Y-106353387D01*
X103187038Y-106487962D01*
X103321613Y-106598405D01*
X103475149Y-106680472D01*
X103641745Y-106731008D01*
X103814999Y-106748072D01*
X104465001Y-106748072D01*
X104638255Y-106731008D01*
X104804851Y-106680472D01*
X104958387Y-106598405D01*
X105092962Y-106487962D01*
X105098342Y-106481406D01*
X105163815Y-106561185D01*
X105260506Y-106640537D01*
X105370820Y-106699502D01*
X105490518Y-106735812D01*
X105615000Y-106748072D01*
X105904250Y-106745000D01*
X106063000Y-106586250D01*
X106063000Y-105537000D01*
X106317000Y-105537000D01*
X106317000Y-106586250D01*
X106475750Y-106745000D01*
X106765000Y-106748072D01*
X106889482Y-106735812D01*
X107009180Y-106699502D01*
X107119494Y-106640537D01*
X107216185Y-106561185D01*
X107295537Y-106464494D01*
X107354502Y-106354180D01*
X107390812Y-106234482D01*
X107403072Y-106110000D01*
X107400000Y-105695750D01*
X107241250Y-105537000D01*
X106317000Y-105537000D01*
X106063000Y-105537000D01*
X106043000Y-105537000D01*
X106043000Y-105283000D01*
X106063000Y-105283000D01*
X106063000Y-104233750D01*
X106317000Y-104233750D01*
X106317000Y-105283000D01*
X107241250Y-105283000D01*
X107400000Y-105124250D01*
X107403072Y-104710000D01*
X107390812Y-104585518D01*
X107354502Y-104465820D01*
X107295537Y-104355506D01*
X107216185Y-104258815D01*
X107119494Y-104179463D01*
X107009180Y-104120498D01*
X106889482Y-104084188D01*
X106765000Y-104071928D01*
X106475750Y-104075000D01*
X106317000Y-104233750D01*
X106063000Y-104233750D01*
X105904250Y-104075000D01*
X105615000Y-104071928D01*
X105490518Y-104084188D01*
X105370820Y-104120498D01*
X105260506Y-104179463D01*
X105163815Y-104258815D01*
X105155000Y-104269556D01*
X105155000Y-103290000D01*
X111541928Y-103290000D01*
X111541928Y-104990000D01*
X111554188Y-105114482D01*
X111590498Y-105234180D01*
X111649463Y-105344494D01*
X111728815Y-105441185D01*
X111825506Y-105520537D01*
X111935820Y-105579502D01*
X112008380Y-105601513D01*
X111876525Y-105733368D01*
X111714010Y-105976589D01*
X111602068Y-106246842D01*
X111545000Y-106533740D01*
X111545000Y-106826260D01*
X111602068Y-107113158D01*
X111714010Y-107383411D01*
X111876525Y-107626632D01*
X112083368Y-107833475D01*
X112257760Y-107950000D01*
X112083368Y-108066525D01*
X111876525Y-108273368D01*
X111714010Y-108516589D01*
X111602068Y-108786842D01*
X111545000Y-109073740D01*
X111545000Y-109366260D01*
X111602068Y-109653158D01*
X111714010Y-109923411D01*
X111876525Y-110166632D01*
X112083368Y-110373475D01*
X112257760Y-110490000D01*
X112083368Y-110606525D01*
X111876525Y-110813368D01*
X111714010Y-111056589D01*
X111602068Y-111326842D01*
X111545000Y-111613740D01*
X111545000Y-111906260D01*
X111602068Y-112193158D01*
X111714010Y-112463411D01*
X111876525Y-112706632D01*
X112083368Y-112913475D01*
X112265534Y-113035195D01*
X112148645Y-113104822D01*
X111932412Y-113299731D01*
X111758359Y-113533080D01*
X111633175Y-113795901D01*
X111588524Y-113943110D01*
X111709845Y-114173000D01*
X112903000Y-114173000D01*
X112903000Y-114153000D01*
X113157000Y-114153000D01*
X113157000Y-114173000D01*
X114350155Y-114173000D01*
X114471476Y-113943110D01*
X114426825Y-113795901D01*
X114301641Y-113533080D01*
X114127588Y-113299731D01*
X113911355Y-113104822D01*
X113794466Y-113035195D01*
X113976632Y-112913475D01*
X114183475Y-112706632D01*
X114345990Y-112463411D01*
X114457932Y-112193158D01*
X114515000Y-111906260D01*
X114515000Y-111613740D01*
X114457932Y-111326842D01*
X114345990Y-111056589D01*
X114183475Y-110813368D01*
X113976632Y-110606525D01*
X113802240Y-110490000D01*
X113976632Y-110373475D01*
X114183475Y-110166632D01*
X114345990Y-109923411D01*
X114457932Y-109653158D01*
X114515000Y-109366260D01*
X114515000Y-109073740D01*
X114457932Y-108786842D01*
X114345990Y-108516589D01*
X114183475Y-108273368D01*
X113976632Y-108066525D01*
X113802240Y-107950000D01*
X113976632Y-107833475D01*
X114183475Y-107626632D01*
X114345990Y-107383411D01*
X114457932Y-107113158D01*
X114515000Y-106826260D01*
X114515000Y-106533740D01*
X114457932Y-106246842D01*
X114345990Y-105976589D01*
X114183475Y-105733368D01*
X114051620Y-105601513D01*
X114124180Y-105579502D01*
X114234494Y-105520537D01*
X114331185Y-105441185D01*
X114410537Y-105344494D01*
X114469502Y-105234180D01*
X114505812Y-105114482D01*
X114518072Y-104990000D01*
X114518072Y-103290000D01*
X114505812Y-103165518D01*
X114469502Y-103045820D01*
X114410537Y-102935506D01*
X114331185Y-102838815D01*
X114234494Y-102759463D01*
X114124180Y-102700498D01*
X114004482Y-102664188D01*
X113880000Y-102651928D01*
X112180000Y-102651928D01*
X112055518Y-102664188D01*
X111935820Y-102700498D01*
X111825506Y-102759463D01*
X111728815Y-102838815D01*
X111649463Y-102935506D01*
X111590498Y-103045820D01*
X111554188Y-103165518D01*
X111541928Y-103290000D01*
X105155000Y-103290000D01*
X105155000Y-102532162D01*
X105248745Y-102522929D01*
X105396582Y-102478084D01*
X105405139Y-102473510D01*
X105418490Y-102472195D01*
X105585313Y-102421589D01*
X105739059Y-102339411D01*
X105873817Y-102228817D01*
X105901534Y-102195044D01*
X106290055Y-101806523D01*
X106323827Y-101778807D01*
X106434421Y-101644049D01*
X106516599Y-101490303D01*
X106567205Y-101323480D01*
X106580010Y-101193467D01*
X106580010Y-101193457D01*
X106584291Y-101149991D01*
X106580010Y-101106525D01*
X106580010Y-99360000D01*
X107606928Y-99360000D01*
X107619188Y-99484482D01*
X107655498Y-99604180D01*
X107714463Y-99714494D01*
X107738730Y-99744064D01*
X107666916Y-99878418D01*
X107622071Y-100026255D01*
X107606928Y-100180000D01*
X107606928Y-100480000D01*
X107622071Y-100633745D01*
X107666916Y-100781582D01*
X107739742Y-100917829D01*
X107778454Y-100965000D01*
X107739742Y-101012171D01*
X107666916Y-101148418D01*
X107622071Y-101296255D01*
X107606928Y-101450000D01*
X107606928Y-101750000D01*
X107622071Y-101903745D01*
X107666916Y-102051582D01*
X107739742Y-102187829D01*
X107837749Y-102307251D01*
X107957171Y-102405258D01*
X108093418Y-102478084D01*
X108241255Y-102522929D01*
X108395000Y-102538072D01*
X110045000Y-102538072D01*
X110198745Y-102522929D01*
X110346582Y-102478084D01*
X110482829Y-102405258D01*
X110602251Y-102307251D01*
X110700258Y-102187829D01*
X110773084Y-102051582D01*
X110817929Y-101903745D01*
X110833072Y-101750000D01*
X110833072Y-101450000D01*
X110817929Y-101296255D01*
X110773084Y-101148418D01*
X110700258Y-101012171D01*
X110661546Y-100965000D01*
X110700258Y-100917829D01*
X110773084Y-100781582D01*
X110817929Y-100633745D01*
X110833072Y-100480000D01*
X110833072Y-100180000D01*
X110817929Y-100026255D01*
X110773084Y-99878418D01*
X110701270Y-99744064D01*
X110725537Y-99714494D01*
X110784502Y-99604180D01*
X110820812Y-99484482D01*
X110827469Y-99416890D01*
X111588524Y-99416890D01*
X111633175Y-99564099D01*
X111758359Y-99826920D01*
X111932412Y-100060269D01*
X112148645Y-100255178D01*
X112398748Y-100404157D01*
X112673109Y-100501481D01*
X112903000Y-100380814D01*
X112903000Y-99187000D01*
X113157000Y-99187000D01*
X113157000Y-100380814D01*
X113386891Y-100501481D01*
X113661252Y-100404157D01*
X113911355Y-100255178D01*
X114127588Y-100060269D01*
X114301641Y-99826920D01*
X114426825Y-99564099D01*
X114471476Y-99416890D01*
X114350155Y-99187000D01*
X113157000Y-99187000D01*
X112903000Y-99187000D01*
X111709845Y-99187000D01*
X111588524Y-99416890D01*
X110827469Y-99416890D01*
X110833072Y-99360000D01*
X110830000Y-99345750D01*
X110671250Y-99187000D01*
X109347000Y-99187000D01*
X109347000Y-99207000D01*
X109093000Y-99207000D01*
X109093000Y-99187000D01*
X107768750Y-99187000D01*
X107610000Y-99345750D01*
X107606928Y-99360000D01*
X106580010Y-99360000D01*
X106580010Y-96585629D01*
X106639250Y-96585000D01*
X106798000Y-96426250D01*
X106798000Y-95377000D01*
X106778000Y-95377000D01*
X106778000Y-95123000D01*
X106798000Y-95123000D01*
X106798000Y-94073750D01*
X107052000Y-94073750D01*
X107052000Y-95123000D01*
X107072000Y-95123000D01*
X107072000Y-95377000D01*
X107052000Y-95377000D01*
X107052000Y-96426250D01*
X107210750Y-96585000D01*
X107500000Y-96588072D01*
X107624482Y-96575812D01*
X107744180Y-96539502D01*
X107854494Y-96480537D01*
X107951185Y-96401185D01*
X108016658Y-96321406D01*
X108022038Y-96327962D01*
X108090000Y-96383737D01*
X108090001Y-96913743D01*
X107957171Y-96984742D01*
X107837749Y-97082749D01*
X107739742Y-97202171D01*
X107666916Y-97338418D01*
X107622071Y-97486255D01*
X107606928Y-97640000D01*
X107606928Y-97940000D01*
X107622071Y-98093745D01*
X107666916Y-98241582D01*
X107738730Y-98375936D01*
X107714463Y-98405506D01*
X107655498Y-98515820D01*
X107619188Y-98635518D01*
X107606928Y-98760000D01*
X107610000Y-98774250D01*
X107768750Y-98933000D01*
X109093000Y-98933000D01*
X109093000Y-98913000D01*
X109347000Y-98913000D01*
X109347000Y-98933000D01*
X110671250Y-98933000D01*
X110830000Y-98774250D01*
X110833072Y-98760000D01*
X110820812Y-98635518D01*
X110784502Y-98515820D01*
X110725537Y-98405506D01*
X110701270Y-98375936D01*
X110773084Y-98241582D01*
X110817929Y-98093745D01*
X110833072Y-97940000D01*
X110833072Y-97640000D01*
X110817929Y-97486255D01*
X110773084Y-97338418D01*
X110700258Y-97202171D01*
X110602251Y-97082749D01*
X110482829Y-96984742D01*
X110346582Y-96911916D01*
X110198745Y-96867071D01*
X110045000Y-96851928D01*
X109860000Y-96851928D01*
X109860000Y-96383737D01*
X109927962Y-96327962D01*
X110038405Y-96193387D01*
X110120472Y-96039851D01*
X110171008Y-95873255D01*
X110188072Y-95700001D01*
X110188072Y-95642059D01*
X111541928Y-94288203D01*
X111541928Y-94830000D01*
X111554188Y-94954482D01*
X111590498Y-95074180D01*
X111649463Y-95184494D01*
X111728815Y-95281185D01*
X111825506Y-95360537D01*
X111935820Y-95419502D01*
X112008380Y-95441513D01*
X111876525Y-95573368D01*
X111714010Y-95816589D01*
X111602068Y-96086842D01*
X111545000Y-96373740D01*
X111545000Y-96666260D01*
X111602068Y-96953158D01*
X111714010Y-97223411D01*
X111876525Y-97466632D01*
X112083368Y-97673475D01*
X112265534Y-97795195D01*
X112148645Y-97864822D01*
X111932412Y-98059731D01*
X111758359Y-98293080D01*
X111633175Y-98555901D01*
X111588524Y-98703110D01*
X111709845Y-98933000D01*
X112903000Y-98933000D01*
X112903000Y-98913000D01*
X113157000Y-98913000D01*
X113157000Y-98933000D01*
X114350155Y-98933000D01*
X114471476Y-98703110D01*
X114426825Y-98555901D01*
X114301641Y-98293080D01*
X114127588Y-98059731D01*
X113911355Y-97864822D01*
X113794466Y-97795195D01*
X113976632Y-97673475D01*
X114183475Y-97466632D01*
X114345990Y-97223411D01*
X114457932Y-96953158D01*
X114515000Y-96666260D01*
X114515000Y-96373740D01*
X114457932Y-96086842D01*
X114345990Y-95816589D01*
X114183475Y-95573368D01*
X114051620Y-95441513D01*
X114124180Y-95419502D01*
X114234494Y-95360537D01*
X114331185Y-95281185D01*
X114410537Y-95184494D01*
X114469502Y-95074180D01*
X114505812Y-94954482D01*
X114518072Y-94830000D01*
X114518072Y-93130000D01*
X114505812Y-93005518D01*
X114469502Y-92885820D01*
X114410537Y-92775506D01*
X114331185Y-92678815D01*
X114234494Y-92599463D01*
X114124180Y-92540498D01*
X114004482Y-92504188D01*
X113880000Y-92491928D01*
X113338204Y-92491928D01*
X113602641Y-92227491D01*
X113645949Y-92191949D01*
X113787784Y-92019123D01*
X113893176Y-91821947D01*
X113958077Y-91607999D01*
X113974500Y-91441252D01*
X113974500Y-91441243D01*
X113979990Y-91385501D01*
X113974500Y-91329759D01*
X113974500Y-69230212D01*
X113963568Y-69175253D01*
X113958077Y-69119501D01*
X113941815Y-69065894D01*
X113930883Y-69010933D01*
X113909437Y-68959158D01*
X113893176Y-68905553D01*
X113866769Y-68856149D01*
X113845324Y-68804376D01*
X113814193Y-68757786D01*
X113787784Y-68708377D01*
X113752241Y-68665068D01*
X113721112Y-68618480D01*
X113681491Y-68578859D01*
X113645949Y-68535551D01*
X113602641Y-68500009D01*
X113563020Y-68460388D01*
X113516432Y-68429259D01*
X113473123Y-68393716D01*
X113423714Y-68367307D01*
X113377124Y-68336176D01*
X113325351Y-68314731D01*
X113275947Y-68288324D01*
X113222342Y-68272063D01*
X113170567Y-68250617D01*
X113115606Y-68239685D01*
X113061999Y-68223423D01*
X113006247Y-68217932D01*
X112951288Y-68207000D01*
X112895252Y-68207000D01*
X112839500Y-68201509D01*
X112783749Y-68207000D01*
X112727712Y-68207000D01*
X112672752Y-68217932D01*
X112617002Y-68223423D01*
X112563397Y-68239684D01*
X112508433Y-68250617D01*
X112456655Y-68272064D01*
X112403054Y-68288324D01*
X112353653Y-68314729D01*
X112301876Y-68336176D01*
X112255282Y-68367309D01*
X112205878Y-68393716D01*
X112162574Y-68429255D01*
X112115980Y-68460388D01*
X112076355Y-68500013D01*
X112033052Y-68535551D01*
X111997514Y-68578854D01*
X111957888Y-68618480D01*
X111926754Y-68665075D01*
X111891217Y-68708377D01*
X111864812Y-68757778D01*
X111833676Y-68804376D01*
X111812228Y-68856157D01*
X111785825Y-68905553D01*
X111769567Y-68959149D01*
X111748117Y-69010933D01*
X111737183Y-69065904D01*
X111720924Y-69119501D01*
X111715434Y-69175243D01*
X111704500Y-69230212D01*
X111704500Y-69453788D01*
X111704501Y-69453793D01*
X111704500Y-90915368D01*
X108707941Y-93911928D01*
X108649999Y-93911928D01*
X108476745Y-93928992D01*
X108310149Y-93979528D01*
X108156613Y-94061595D01*
X108022038Y-94172038D01*
X108016658Y-94178594D01*
X107951185Y-94098815D01*
X107854494Y-94019463D01*
X107744180Y-93960498D01*
X107624482Y-93924188D01*
X107500000Y-93911928D01*
X107210750Y-93915000D01*
X107052000Y-94073750D01*
X106798000Y-94073750D01*
X106639250Y-93915000D01*
X106580010Y-93914371D01*
X106580010Y-93865457D01*
X106584291Y-93821991D01*
X106580010Y-93778525D01*
X106580010Y-86688479D01*
X106584291Y-86645010D01*
X106580010Y-86601541D01*
X106580010Y-86601533D01*
X106567205Y-86471520D01*
X106532866Y-86358320D01*
X106516599Y-86304696D01*
X106434421Y-86150951D01*
X106351542Y-86049963D01*
X106351540Y-86049961D01*
X106323827Y-86016193D01*
X106290059Y-85988480D01*
X104189271Y-83887693D01*
X104225000Y-83888072D01*
X104349482Y-83875812D01*
X104469180Y-83839502D01*
X104579494Y-83780537D01*
X104676185Y-83701185D01*
X104755537Y-83604494D01*
X104814502Y-83494180D01*
X104850812Y-83374482D01*
X104863072Y-83250000D01*
X104860000Y-82835750D01*
X104701250Y-82677000D01*
X103777000Y-82677000D01*
X103777000Y-82697000D01*
X103523000Y-82697000D01*
X103523000Y-82677000D01*
X103503000Y-82677000D01*
X103503000Y-82423000D01*
X103523000Y-82423000D01*
X103523000Y-81373750D01*
X103777000Y-81373750D01*
X103777000Y-82423000D01*
X104701250Y-82423000D01*
X104860000Y-82264250D01*
X104863072Y-81850000D01*
X104850812Y-81725518D01*
X104814502Y-81605820D01*
X104755537Y-81495506D01*
X104676185Y-81398815D01*
X104579494Y-81319463D01*
X104469180Y-81260498D01*
X104349482Y-81224188D01*
X104225000Y-81211928D01*
X103935750Y-81215000D01*
X103777000Y-81373750D01*
X103523000Y-81373750D01*
X103364250Y-81215000D01*
X103075000Y-81211928D01*
X102950518Y-81224188D01*
X102830820Y-81260498D01*
X102735000Y-81311716D01*
X102735000Y-80162631D01*
X111253146Y-71644487D01*
X111296449Y-71608949D01*
X111385272Y-71500719D01*
X111438284Y-71436123D01*
X111543676Y-71238947D01*
X111608577Y-71024999D01*
X111630491Y-70802500D01*
X111625000Y-70746748D01*
X111625000Y-65373284D01*
X111720820Y-65424502D01*
X111840518Y-65460812D01*
X111965000Y-65473072D01*
X112254250Y-65470000D01*
X112413000Y-65311250D01*
X112413000Y-64262000D01*
X112667000Y-64262000D01*
X112667000Y-65311250D01*
X112825750Y-65470000D01*
X113115000Y-65473072D01*
X113239482Y-65460812D01*
X113359180Y-65424502D01*
X113469494Y-65365537D01*
X113566185Y-65286185D01*
X113645537Y-65189494D01*
X113704502Y-65079180D01*
X113740812Y-64959482D01*
X113753072Y-64835000D01*
X113750000Y-64420750D01*
X113591250Y-64262000D01*
X112667000Y-64262000D01*
X112413000Y-64262000D01*
X112393000Y-64262000D01*
X112393000Y-64008000D01*
X112413000Y-64008000D01*
X112413000Y-62958750D01*
X112667000Y-62958750D01*
X112667000Y-64008000D01*
X113591250Y-64008000D01*
X113750000Y-63849250D01*
X113753072Y-63435000D01*
X113740812Y-63310518D01*
X113704502Y-63190820D01*
X113645537Y-63080506D01*
X113566185Y-62983815D01*
X113469494Y-62904463D01*
X113359180Y-62845498D01*
X113239482Y-62809188D01*
X113115000Y-62796928D01*
X112825750Y-62800000D01*
X112667000Y-62958750D01*
X112413000Y-62958750D01*
X112254250Y-62800000D01*
X111965000Y-62796928D01*
X111840518Y-62809188D01*
X111720820Y-62845498D01*
X111625000Y-62896716D01*
X111625000Y-62377683D01*
X111694494Y-62340537D01*
X111791185Y-62261185D01*
X111870537Y-62164494D01*
X111907683Y-62095000D01*
X112064893Y-62095000D01*
X112083368Y-62113475D01*
X112326589Y-62275990D01*
X112596842Y-62387932D01*
X112883740Y-62445000D01*
X113176260Y-62445000D01*
X113463158Y-62387932D01*
X113733411Y-62275990D01*
X113976632Y-62113475D01*
X114183475Y-61906632D01*
X114345990Y-61663411D01*
X114457932Y-61393158D01*
X114515000Y-61106260D01*
X114515000Y-61080131D01*
X114910001Y-60685131D01*
X114910000Y-116180000D01*
G36*
X94974470Y-95845049D02*
G01*
X95002183Y-95878817D01*
X95035951Y-95906530D01*
X95035953Y-95906532D01*
X95047502Y-95916010D01*
X95136941Y-95989411D01*
X95290687Y-96071589D01*
X95457510Y-96122195D01*
X95587523Y-96135000D01*
X95587533Y-96135000D01*
X95630999Y-96139281D01*
X95674465Y-96135000D01*
X98455386Y-96135000D01*
X98486595Y-96193387D01*
X98597038Y-96327962D01*
X98731613Y-96438405D01*
X98805435Y-96477864D01*
X98730820Y-96500498D01*
X98620506Y-96559463D01*
X98523815Y-96638815D01*
X98444463Y-96735506D01*
X98385498Y-96845820D01*
X98349188Y-96965518D01*
X98336928Y-97090000D01*
X98340000Y-97504250D01*
X98498750Y-97663000D01*
X99423000Y-97663000D01*
X99423000Y-97643000D01*
X99677000Y-97643000D01*
X99677000Y-97663000D01*
X99697000Y-97663000D01*
X99697000Y-97917000D01*
X99677000Y-97917000D01*
X99677000Y-97937000D01*
X99423000Y-97937000D01*
X99423000Y-97917000D01*
X98498750Y-97917000D01*
X98340000Y-98075750D01*
X98339264Y-98175000D01*
X89794010Y-98175000D01*
X89794010Y-98078475D01*
X89798291Y-98035009D01*
X89794010Y-97991543D01*
X89794010Y-97991533D01*
X89781205Y-97861520D01*
X89730599Y-97694697D01*
X89648421Y-97540951D01*
X89596759Y-97478001D01*
X89565542Y-97439963D01*
X89565540Y-97439961D01*
X89537827Y-97406193D01*
X89504059Y-97378480D01*
X89153579Y-97028000D01*
X89522060Y-96659519D01*
X89555827Y-96631807D01*
X89599987Y-96577999D01*
X89666420Y-96497050D01*
X89666421Y-96497049D01*
X89748599Y-96343303D01*
X89799205Y-96176480D01*
X89812010Y-96046467D01*
X89812010Y-96046457D01*
X89816291Y-96002991D01*
X89812010Y-95959524D01*
X89812010Y-94032476D01*
X89816291Y-93989009D01*
X89812010Y-93945543D01*
X89812010Y-93945533D01*
X89799205Y-93815520D01*
X89748599Y-93648697D01*
X89666421Y-93494951D01*
X89636143Y-93458058D01*
X89583542Y-93393963D01*
X89583540Y-93393961D01*
X89555827Y-93360193D01*
X89522059Y-93332480D01*
X89115072Y-92925493D01*
X89115072Y-92513999D01*
X89098008Y-92340745D01*
X89047472Y-92174149D01*
X88965405Y-92020613D01*
X88905813Y-91948000D01*
X88965405Y-91875387D01*
X88996614Y-91817000D01*
X90946422Y-91817000D01*
X94974470Y-95845049D01*
G37*
X94974470Y-95845049D02*
X95002183Y-95878817D01*
X95035951Y-95906530D01*
X95035953Y-95906532D01*
X95047502Y-95916010D01*
X95136941Y-95989411D01*
X95290687Y-96071589D01*
X95457510Y-96122195D01*
X95587523Y-96135000D01*
X95587533Y-96135000D01*
X95630999Y-96139281D01*
X95674465Y-96135000D01*
X98455386Y-96135000D01*
X98486595Y-96193387D01*
X98597038Y-96327962D01*
X98731613Y-96438405D01*
X98805435Y-96477864D01*
X98730820Y-96500498D01*
X98620506Y-96559463D01*
X98523815Y-96638815D01*
X98444463Y-96735506D01*
X98385498Y-96845820D01*
X98349188Y-96965518D01*
X98336928Y-97090000D01*
X98340000Y-97504250D01*
X98498750Y-97663000D01*
X99423000Y-97663000D01*
X99423000Y-97643000D01*
X99677000Y-97643000D01*
X99677000Y-97663000D01*
X99697000Y-97663000D01*
X99697000Y-97917000D01*
X99677000Y-97917000D01*
X99677000Y-97937000D01*
X99423000Y-97937000D01*
X99423000Y-97917000D01*
X98498750Y-97917000D01*
X98340000Y-98075750D01*
X98339264Y-98175000D01*
X89794010Y-98175000D01*
X89794010Y-98078475D01*
X89798291Y-98035009D01*
X89794010Y-97991543D01*
X89794010Y-97991533D01*
X89781205Y-97861520D01*
X89730599Y-97694697D01*
X89648421Y-97540951D01*
X89596759Y-97478001D01*
X89565542Y-97439963D01*
X89565540Y-97439961D01*
X89537827Y-97406193D01*
X89504059Y-97378480D01*
X89153579Y-97028000D01*
X89522060Y-96659519D01*
X89555827Y-96631807D01*
X89599987Y-96577999D01*
X89666420Y-96497050D01*
X89666421Y-96497049D01*
X89748599Y-96343303D01*
X89799205Y-96176480D01*
X89812010Y-96046467D01*
X89812010Y-96046457D01*
X89816291Y-96002991D01*
X89812010Y-95959524D01*
X89812010Y-94032476D01*
X89816291Y-93989009D01*
X89812010Y-93945543D01*
X89812010Y-93945533D01*
X89799205Y-93815520D01*
X89748599Y-93648697D01*
X89666421Y-93494951D01*
X89636143Y-93458058D01*
X89583542Y-93393963D01*
X89583540Y-93393961D01*
X89555827Y-93360193D01*
X89522059Y-93332480D01*
X89115072Y-92925493D01*
X89115072Y-92513999D01*
X89098008Y-92340745D01*
X89047472Y-92174149D01*
X88965405Y-92020613D01*
X88905813Y-91948000D01*
X88965405Y-91875387D01*
X88996614Y-91817000D01*
X90946422Y-91817000D01*
X94974470Y-95845049D01*
G36*
X114910001Y-42692869D02*
G01*
X112033977Y-39816846D01*
X111998430Y-39773532D01*
X111825604Y-39631697D01*
X111628428Y-39526305D01*
X111414480Y-39461404D01*
X111247733Y-39444981D01*
X111247732Y-39444981D01*
X111191981Y-39439490D01*
X111136230Y-39444981D01*
X99551181Y-39444981D01*
X99495429Y-39439490D01*
X99439677Y-39444981D01*
X99272930Y-39461404D01*
X99058982Y-39526305D01*
X98861806Y-39631697D01*
X98688980Y-39773532D01*
X98653438Y-39816840D01*
X93621875Y-44848404D01*
X93578561Y-44883951D01*
X93436726Y-45056777D01*
X93356400Y-45207059D01*
X93331334Y-45253954D01*
X93266433Y-45467902D01*
X93244519Y-45690400D01*
X93250010Y-45746152D01*
X93250011Y-49863867D01*
X92995750Y-49865000D01*
X92837000Y-50023750D01*
X92837000Y-50673000D01*
X92857000Y-50673000D01*
X92857000Y-50927000D01*
X92837000Y-50927000D01*
X92837000Y-50947000D01*
X92583000Y-50947000D01*
X92583000Y-50927000D01*
X91258750Y-50927000D01*
X91100000Y-51085750D01*
X91096928Y-51100000D01*
X91105299Y-51185000D01*
X90883614Y-51185000D01*
X90852405Y-51126613D01*
X90741962Y-50992038D01*
X90674000Y-50936263D01*
X90674000Y-50917737D01*
X90741962Y-50861962D01*
X90852405Y-50727387D01*
X90934472Y-50573851D01*
X90956874Y-50500000D01*
X91096928Y-50500000D01*
X91100000Y-50514250D01*
X91258750Y-50673000D01*
X92583000Y-50673000D01*
X92583000Y-50023750D01*
X92424250Y-49865000D01*
X91735000Y-49861928D01*
X91610518Y-49874188D01*
X91490820Y-49910498D01*
X91380506Y-49969463D01*
X91283815Y-50048815D01*
X91204463Y-50145506D01*
X91145498Y-50255820D01*
X91109188Y-50375518D01*
X91096928Y-50500000D01*
X90956874Y-50500000D01*
X90985008Y-50407255D01*
X91002072Y-50234001D01*
X91002072Y-49333999D01*
X90985008Y-49160745D01*
X90934472Y-48994149D01*
X90852405Y-48840613D01*
X90741962Y-48706038D01*
X90674000Y-48650263D01*
X90674000Y-48385123D01*
X90750962Y-48321962D01*
X90861405Y-48187387D01*
X90943472Y-48033851D01*
X90994008Y-47867255D01*
X91011072Y-47694001D01*
X91011072Y-46793999D01*
X90994008Y-46620745D01*
X90943472Y-46454149D01*
X90861405Y-46300613D01*
X90750962Y-46166038D01*
X90683000Y-46110263D01*
X90683000Y-45830351D01*
X90741962Y-45781962D01*
X90852405Y-45647387D01*
X90934472Y-45493851D01*
X90985008Y-45327255D01*
X91002072Y-45154001D01*
X91002072Y-44253999D01*
X90985008Y-44080745D01*
X90934472Y-43914149D01*
X90852405Y-43760613D01*
X90741962Y-43626038D01*
X90607387Y-43515595D01*
X90453851Y-43433528D01*
X90287255Y-43382992D01*
X90114001Y-43365928D01*
X89463999Y-43365928D01*
X89290745Y-43382992D01*
X89124149Y-43433528D01*
X88970613Y-43515595D01*
X88883841Y-43586807D01*
X88892000Y-43545788D01*
X88892000Y-43322212D01*
X88848383Y-43102933D01*
X88762824Y-42896376D01*
X88638612Y-42710480D01*
X88480520Y-42552388D01*
X88294624Y-42428176D01*
X88088067Y-42342617D01*
X87868788Y-42299000D01*
X87645212Y-42299000D01*
X87425933Y-42342617D01*
X87219376Y-42428176D01*
X87033480Y-42552388D01*
X86875388Y-42710480D01*
X86751176Y-42896376D01*
X86665617Y-43102933D01*
X86622000Y-43322212D01*
X86622000Y-43545788D01*
X86665617Y-43765067D01*
X86668934Y-43773075D01*
X86593528Y-43914149D01*
X86542992Y-44080745D01*
X86525928Y-44253999D01*
X86525928Y-44932252D01*
X86389624Y-44841176D01*
X86183067Y-44755617D01*
X85963788Y-44712000D01*
X85740212Y-44712000D01*
X85520933Y-44755617D01*
X85314376Y-44841176D01*
X85128480Y-44965388D01*
X84970388Y-45123480D01*
X84846176Y-45309376D01*
X84760617Y-45515933D01*
X84717000Y-45735212D01*
X84717000Y-45958788D01*
X84760617Y-46178067D01*
X84846176Y-46384624D01*
X84970388Y-46570520D01*
X85128480Y-46728612D01*
X85314376Y-46852824D01*
X85520933Y-46938383D01*
X85734232Y-46980811D01*
X86544488Y-47791067D01*
X86551992Y-47867255D01*
X86602528Y-48033851D01*
X86684595Y-48187387D01*
X86795038Y-48321962D01*
X86929613Y-48432405D01*
X87078764Y-48512128D01*
X87074149Y-48513528D01*
X86920613Y-48595595D01*
X86786038Y-48706038D01*
X86675595Y-48840613D01*
X86644386Y-48899000D01*
X84406614Y-48899000D01*
X84375405Y-48840613D01*
X84264962Y-48706038D01*
X84130387Y-48595595D01*
X83976851Y-48513528D01*
X83810255Y-48462992D01*
X83637001Y-48445928D01*
X83479753Y-48445928D01*
X83494500Y-48371788D01*
X83494500Y-48148212D01*
X83450883Y-47928933D01*
X83365324Y-47722376D01*
X83241112Y-47536480D01*
X83083020Y-47378388D01*
X82897124Y-47254176D01*
X82690567Y-47168617D01*
X82471288Y-47125000D01*
X82247712Y-47125000D01*
X82028433Y-47168617D01*
X81821876Y-47254176D01*
X81635980Y-47378388D01*
X81477888Y-47536480D01*
X81353676Y-47722376D01*
X81268117Y-47928933D01*
X81225689Y-48142232D01*
X80920354Y-48447567D01*
X80763745Y-48462992D01*
X80597149Y-48513528D01*
X80443613Y-48595595D01*
X80309038Y-48706038D01*
X80198595Y-48840613D01*
X80116528Y-48994149D01*
X80065992Y-49160745D01*
X80048928Y-49333999D01*
X80048928Y-50234001D01*
X80065992Y-50407255D01*
X80116528Y-50573851D01*
X80198595Y-50727387D01*
X80284390Y-50831928D01*
X79562000Y-50831928D01*
X79437518Y-50844188D01*
X79317820Y-50880498D01*
X79207506Y-50939463D01*
X79110815Y-51018815D01*
X79031463Y-51115506D01*
X78972498Y-51225820D01*
X78936188Y-51345518D01*
X78923928Y-51470000D01*
X78923928Y-52670000D01*
X78936188Y-52794482D01*
X78972498Y-52914180D01*
X79031463Y-53024494D01*
X79110815Y-53121185D01*
X79127000Y-53134468D01*
X79127001Y-53545532D01*
X79110815Y-53558815D01*
X79031463Y-53655506D01*
X78972498Y-53765820D01*
X78936188Y-53885518D01*
X78923928Y-54010000D01*
X78923928Y-55210000D01*
X78936188Y-55334482D01*
X78972498Y-55454180D01*
X79031463Y-55564494D01*
X79110815Y-55661185D01*
X79207506Y-55740537D01*
X79317820Y-55799502D01*
X79437518Y-55835812D01*
X79562000Y-55848072D01*
X80462000Y-55848072D01*
X80586482Y-55835812D01*
X80706180Y-55799502D01*
X80816494Y-55740537D01*
X80913185Y-55661185D01*
X80992537Y-55564494D01*
X81051502Y-55454180D01*
X81087812Y-55334482D01*
X81100072Y-55210000D01*
X82223928Y-55210000D01*
X82236188Y-55334482D01*
X82272498Y-55454180D01*
X82331463Y-55564494D01*
X82410815Y-55661185D01*
X82507506Y-55740537D01*
X82617820Y-55799502D01*
X82737518Y-55835812D01*
X82862000Y-55848072D01*
X83026250Y-55845000D01*
X83185000Y-55686250D01*
X83185000Y-54737000D01*
X83439000Y-54737000D01*
X83439000Y-55686250D01*
X83597750Y-55845000D01*
X83762000Y-55848072D01*
X83886482Y-55835812D01*
X84006180Y-55799502D01*
X84116494Y-55740537D01*
X84213185Y-55661185D01*
X84292537Y-55564494D01*
X84351502Y-55454180D01*
X84387812Y-55334482D01*
X84400072Y-55210000D01*
X84397000Y-54895750D01*
X84238250Y-54737000D01*
X83439000Y-54737000D01*
X83185000Y-54737000D01*
X82385750Y-54737000D01*
X82227000Y-54895750D01*
X82223928Y-55210000D01*
X81100072Y-55210000D01*
X81100072Y-54010000D01*
X82223928Y-54010000D01*
X82227000Y-54324250D01*
X82385750Y-54483000D01*
X83185000Y-54483000D01*
X83185000Y-53533750D01*
X83439000Y-53533750D01*
X83439000Y-54483000D01*
X84238250Y-54483000D01*
X84397000Y-54324250D01*
X84400072Y-54010000D01*
X84387812Y-53885518D01*
X84351502Y-53765820D01*
X84292537Y-53655506D01*
X84213185Y-53558815D01*
X84116494Y-53479463D01*
X84006180Y-53420498D01*
X83886482Y-53384188D01*
X83762000Y-53371928D01*
X83597750Y-53375000D01*
X83439000Y-53533750D01*
X83185000Y-53533750D01*
X83026250Y-53375000D01*
X82862000Y-53371928D01*
X82737518Y-53384188D01*
X82617820Y-53420498D01*
X82507506Y-53479463D01*
X82410815Y-53558815D01*
X82331463Y-53655506D01*
X82272498Y-53765820D01*
X82236188Y-53885518D01*
X82223928Y-54010000D01*
X81100072Y-54010000D01*
X81087812Y-53885518D01*
X81051502Y-53765820D01*
X80992537Y-53655506D01*
X80913185Y-53558815D01*
X80897000Y-53545532D01*
X80897000Y-53134468D01*
X80913185Y-53121185D01*
X80992537Y-53024494D01*
X81006749Y-52997905D01*
X81123376Y-53075833D01*
X81329933Y-53161392D01*
X81549212Y-53205009D01*
X81772788Y-53205009D01*
X81992067Y-53161392D01*
X82198624Y-53075833D01*
X82316724Y-52996921D01*
X82331463Y-53024494D01*
X82410815Y-53121185D01*
X82507506Y-53200537D01*
X82617820Y-53259502D01*
X82737518Y-53295812D01*
X82862000Y-53308072D01*
X83762000Y-53308072D01*
X83886482Y-53295812D01*
X84006180Y-53259502D01*
X84116494Y-53200537D01*
X84213185Y-53121185D01*
X84292537Y-53024494D01*
X84351502Y-52914180D01*
X84387812Y-52794482D01*
X84400072Y-52670000D01*
X84400072Y-51470000D01*
X84387812Y-51345518D01*
X84351502Y-51225820D01*
X84292537Y-51115506D01*
X84213185Y-51018815D01*
X84197000Y-51005532D01*
X84197000Y-50917737D01*
X84264962Y-50861962D01*
X84375405Y-50727387D01*
X84406614Y-50669000D01*
X86644386Y-50669000D01*
X86675595Y-50727387D01*
X86786038Y-50861962D01*
X86865287Y-50927000D01*
X86786038Y-50992038D01*
X86675595Y-51126613D01*
X86593528Y-51280149D01*
X86542992Y-51446745D01*
X86525928Y-51619999D01*
X86525928Y-52520001D01*
X86542992Y-52693255D01*
X86593528Y-52859851D01*
X86675595Y-53013387D01*
X86786038Y-53147962D01*
X86854000Y-53203737D01*
X86854001Y-53222263D01*
X86786038Y-53278038D01*
X86675595Y-53412613D01*
X86593528Y-53566149D01*
X86542992Y-53732745D01*
X86525928Y-53905999D01*
X86525928Y-54317493D01*
X85893951Y-54949471D01*
X85860184Y-54977183D01*
X85832471Y-55010951D01*
X85832468Y-55010954D01*
X85749590Y-55111941D01*
X85667412Y-55265687D01*
X85616805Y-55432510D01*
X85599719Y-55606000D01*
X85604001Y-55649478D01*
X85604001Y-55831532D01*
X85587815Y-55844815D01*
X85508463Y-55941506D01*
X85449498Y-56051820D01*
X85413188Y-56171518D01*
X85400928Y-56296000D01*
X85400928Y-57496000D01*
X85413188Y-57620482D01*
X85449498Y-57740180D01*
X85508463Y-57850494D01*
X85587815Y-57947185D01*
X85684506Y-58026537D01*
X85794820Y-58085502D01*
X85914518Y-58121812D01*
X86039000Y-58134072D01*
X86939000Y-58134072D01*
X87063482Y-58121812D01*
X87183180Y-58085502D01*
X87293494Y-58026537D01*
X87390185Y-57947185D01*
X87469537Y-57850494D01*
X87528502Y-57740180D01*
X87564812Y-57620482D01*
X87577072Y-57496000D01*
X87577072Y-56296000D01*
X87564812Y-56171518D01*
X87549864Y-56122241D01*
X87560193Y-56134827D01*
X87694951Y-56245421D01*
X87848697Y-56327599D01*
X88015520Y-56378205D01*
X88145533Y-56391010D01*
X88145543Y-56391010D01*
X88189009Y-56395291D01*
X88232475Y-56391010D01*
X88700928Y-56391010D01*
X88700928Y-57496000D01*
X88713188Y-57620482D01*
X88749498Y-57740180D01*
X88808463Y-57850494D01*
X88887815Y-57947185D01*
X88904001Y-57960468D01*
X88904000Y-60535531D01*
X88899719Y-60579000D01*
X88904000Y-60622469D01*
X88904000Y-60622476D01*
X88916805Y-60752489D01*
X88967411Y-60919312D01*
X89049589Y-61073058D01*
X89160183Y-61207817D01*
X89193956Y-61235534D01*
X94174501Y-66216080D01*
X94174500Y-70886031D01*
X94170219Y-70929500D01*
X94174500Y-70972969D01*
X94174500Y-70972976D01*
X94183957Y-71068992D01*
X94187305Y-71102990D01*
X94192975Y-71121680D01*
X94237911Y-71269812D01*
X94320089Y-71423558D01*
X94430683Y-71558317D01*
X94464456Y-71586034D01*
X97631983Y-74753561D01*
X97625000Y-74788665D01*
X97625000Y-75071335D01*
X97680147Y-75348574D01*
X97788320Y-75609727D01*
X97945363Y-75844759D01*
X98145241Y-76044637D01*
X98377759Y-76200000D01*
X98145241Y-76355363D01*
X97945363Y-76555241D01*
X97788320Y-76790273D01*
X97680147Y-77051426D01*
X97625000Y-77328665D01*
X97625000Y-77611335D01*
X97680147Y-77888574D01*
X97788320Y-78149727D01*
X97945363Y-78384759D01*
X98145241Y-78584637D01*
X98380273Y-78741680D01*
X98390865Y-78746067D01*
X98204869Y-78857615D01*
X97996481Y-79046586D01*
X97828963Y-79272580D01*
X97708754Y-79526913D01*
X97668096Y-79660961D01*
X97790085Y-79883000D01*
X98933000Y-79883000D01*
X98933000Y-79863000D01*
X99187000Y-79863000D01*
X99187000Y-79883000D01*
X99207000Y-79883000D01*
X99207000Y-80137000D01*
X99187000Y-80137000D01*
X99187000Y-80157000D01*
X98933000Y-80157000D01*
X98933000Y-80137000D01*
X97790085Y-80137000D01*
X97668096Y-80359039D01*
X97708754Y-80493087D01*
X97828963Y-80747420D01*
X97996481Y-80973414D01*
X98204869Y-81162385D01*
X98390865Y-81273933D01*
X98380273Y-81278320D01*
X98145241Y-81435363D01*
X97945363Y-81635241D01*
X97788320Y-81870273D01*
X97680147Y-82131426D01*
X97625000Y-82408665D01*
X97625000Y-82691335D01*
X97680147Y-82968574D01*
X97788320Y-83229727D01*
X97945363Y-83464759D01*
X98145241Y-83664637D01*
X98380273Y-83821680D01*
X98390865Y-83826067D01*
X98204869Y-83937615D01*
X97996481Y-84126586D01*
X97828963Y-84352580D01*
X97708754Y-84606913D01*
X97668096Y-84740961D01*
X97790085Y-84963000D01*
X98933000Y-84963000D01*
X98933000Y-84943000D01*
X99187000Y-84943000D01*
X99187000Y-84963000D01*
X100329915Y-84963000D01*
X100451904Y-84740961D01*
X100411246Y-84606913D01*
X100291037Y-84352580D01*
X100123519Y-84126586D01*
X99915131Y-83937615D01*
X99729135Y-83826067D01*
X99739727Y-83821680D01*
X99974759Y-83664637D01*
X100174637Y-83464759D01*
X100194521Y-83435000D01*
X100505386Y-83435000D01*
X100536595Y-83493387D01*
X100647038Y-83627962D01*
X100781613Y-83738405D01*
X100935149Y-83820472D01*
X101101745Y-83871008D01*
X101274999Y-83888072D01*
X101686494Y-83888072D01*
X104810011Y-87011590D01*
X104810010Y-93214990D01*
X100743479Y-93214990D01*
X100700010Y-93210709D01*
X100656541Y-93214990D01*
X100656533Y-93214990D01*
X100526520Y-93227795D01*
X100359697Y-93278401D01*
X100267032Y-93327931D01*
X100205951Y-93360579D01*
X100104963Y-93443458D01*
X100104961Y-93443460D01*
X100071193Y-93471173D01*
X100043480Y-93504941D01*
X99636493Y-93911928D01*
X99224999Y-93911928D01*
X99051745Y-93928992D01*
X98885149Y-93979528D01*
X98731613Y-94061595D01*
X98597038Y-94172038D01*
X98486595Y-94306613D01*
X98455386Y-94365000D01*
X95997579Y-94365000D01*
X91969534Y-90336956D01*
X91941817Y-90303183D01*
X91807059Y-90192589D01*
X91653313Y-90110411D01*
X91486490Y-90059805D01*
X91356477Y-90047000D01*
X91356469Y-90047000D01*
X91313000Y-90042719D01*
X91269531Y-90047000D01*
X88996614Y-90047000D01*
X88965405Y-89988613D01*
X88854962Y-89854038D01*
X88720387Y-89743595D01*
X88566851Y-89661528D01*
X88400255Y-89610992D01*
X88227001Y-89593928D01*
X87576999Y-89593928D01*
X87549990Y-89596588D01*
X88631579Y-88515000D01*
X90305479Y-88515000D01*
X90325363Y-88544759D01*
X90525241Y-88744637D01*
X90760273Y-88901680D01*
X91021426Y-89009853D01*
X91298665Y-89065000D01*
X91581335Y-89065000D01*
X91858574Y-89009853D01*
X92119727Y-88901680D01*
X92354759Y-88744637D01*
X92554637Y-88544759D01*
X92711680Y-88309727D01*
X92819853Y-88048574D01*
X92875000Y-87771335D01*
X92875000Y-87488665D01*
X92819853Y-87211426D01*
X92711680Y-86950273D01*
X92631317Y-86830000D01*
X97621928Y-86830000D01*
X97621928Y-88430000D01*
X97634188Y-88554482D01*
X97670498Y-88674180D01*
X97729463Y-88784494D01*
X97808815Y-88881185D01*
X97905506Y-88960537D01*
X98015820Y-89019502D01*
X98135518Y-89055812D01*
X98260000Y-89068072D01*
X99860000Y-89068072D01*
X99984482Y-89055812D01*
X100104180Y-89019502D01*
X100214494Y-88960537D01*
X100311185Y-88881185D01*
X100390537Y-88784494D01*
X100449502Y-88674180D01*
X100485812Y-88554482D01*
X100498072Y-88430000D01*
X100498072Y-86830000D01*
X100485812Y-86705518D01*
X100449502Y-86585820D01*
X100390537Y-86475506D01*
X100311185Y-86378815D01*
X100214494Y-86299463D01*
X100104180Y-86240498D01*
X99984482Y-86204188D01*
X99959920Y-86201769D01*
X100123519Y-86053414D01*
X100291037Y-85827420D01*
X100411246Y-85573087D01*
X100451904Y-85439039D01*
X100329915Y-85217000D01*
X99187000Y-85217000D01*
X99187000Y-85237000D01*
X98933000Y-85237000D01*
X98933000Y-85217000D01*
X97790085Y-85217000D01*
X97668096Y-85439039D01*
X97708754Y-85573087D01*
X97828963Y-85827420D01*
X97996481Y-86053414D01*
X98160080Y-86201769D01*
X98135518Y-86204188D01*
X98015820Y-86240498D01*
X97905506Y-86299463D01*
X97808815Y-86378815D01*
X97729463Y-86475506D01*
X97670498Y-86585820D01*
X97634188Y-86705518D01*
X97621928Y-86830000D01*
X92631317Y-86830000D01*
X92554637Y-86715241D01*
X92354759Y-86515363D01*
X92122241Y-86360000D01*
X92354759Y-86204637D01*
X92554637Y-86004759D01*
X92711680Y-85769727D01*
X92819853Y-85508574D01*
X92875000Y-85231335D01*
X92875000Y-84948665D01*
X92819853Y-84671426D01*
X92711680Y-84410273D01*
X92554637Y-84175241D01*
X92354759Y-83975363D01*
X92122241Y-83820000D01*
X92354759Y-83664637D01*
X92554637Y-83464759D01*
X92711680Y-83229727D01*
X92819853Y-82968574D01*
X92875000Y-82691335D01*
X92875000Y-82408665D01*
X92819853Y-82131426D01*
X92711680Y-81870273D01*
X92554637Y-81635241D01*
X92354759Y-81435363D01*
X92122241Y-81280000D01*
X92354759Y-81124637D01*
X92554637Y-80924759D01*
X92711680Y-80689727D01*
X92819853Y-80428574D01*
X92875000Y-80151335D01*
X92875000Y-79868665D01*
X92819853Y-79591426D01*
X92711680Y-79330273D01*
X92554637Y-79095241D01*
X92354759Y-78895363D01*
X92122241Y-78740000D01*
X92354759Y-78584637D01*
X92554637Y-78384759D01*
X92711680Y-78149727D01*
X92819853Y-77888574D01*
X92875000Y-77611335D01*
X92875000Y-77328665D01*
X92819853Y-77051426D01*
X92711680Y-76790273D01*
X92554637Y-76555241D01*
X92354759Y-76355363D01*
X92122241Y-76200000D01*
X92354759Y-76044637D01*
X92554637Y-75844759D01*
X92711680Y-75609727D01*
X92819853Y-75348574D01*
X92875000Y-75071335D01*
X92875000Y-74788665D01*
X92819853Y-74511426D01*
X92711680Y-74250273D01*
X92554637Y-74015241D01*
X92354759Y-73815363D01*
X92122241Y-73660000D01*
X92354759Y-73504637D01*
X92554637Y-73304759D01*
X92711680Y-73069727D01*
X92819853Y-72808574D01*
X92875000Y-72531335D01*
X92875000Y-72248665D01*
X92819853Y-71971426D01*
X92711680Y-71710273D01*
X92554637Y-71475241D01*
X92354759Y-71275363D01*
X92122241Y-71120000D01*
X92354759Y-70964637D01*
X92554637Y-70764759D01*
X92711680Y-70529727D01*
X92819853Y-70268574D01*
X92875000Y-69991335D01*
X92875000Y-69708665D01*
X92819853Y-69431426D01*
X92711680Y-69170273D01*
X92554637Y-68935241D01*
X92354759Y-68735363D01*
X92122241Y-68580000D01*
X92354759Y-68424637D01*
X92554637Y-68224759D01*
X92711680Y-67989727D01*
X92819853Y-67728574D01*
X92875000Y-67451335D01*
X92875000Y-67168665D01*
X92819853Y-66891426D01*
X92711680Y-66630273D01*
X92554637Y-66395241D01*
X92354759Y-66195363D01*
X92119727Y-66038320D01*
X91858574Y-65930147D01*
X91581335Y-65875000D01*
X91298665Y-65875000D01*
X91021426Y-65930147D01*
X90760273Y-66038320D01*
X90525241Y-66195363D01*
X90325363Y-66395241D01*
X90168320Y-66630273D01*
X90060147Y-66891426D01*
X90005000Y-67168665D01*
X90005000Y-67451335D01*
X90011983Y-67486438D01*
X76860000Y-80638422D01*
X76860000Y-45880881D01*
X78758724Y-45880881D01*
X79118912Y-46370548D01*
X79782882Y-46730849D01*
X80504385Y-46954694D01*
X81255695Y-47033480D01*
X82007938Y-46964178D01*
X82732208Y-46749452D01*
X83400670Y-46397555D01*
X83441088Y-46370548D01*
X83801276Y-45880881D01*
X81280000Y-43359605D01*
X78758724Y-45880881D01*
X76860000Y-45880881D01*
X76860000Y-43155695D01*
X77426520Y-43155695D01*
X77495822Y-43907938D01*
X77710548Y-44632208D01*
X78062445Y-45300670D01*
X78089452Y-45341088D01*
X78579119Y-45701276D01*
X81100395Y-43180000D01*
X81459605Y-43180000D01*
X83980881Y-45701276D01*
X84470548Y-45341088D01*
X84830849Y-44677118D01*
X85054694Y-43955615D01*
X85133480Y-43204305D01*
X85064178Y-42452062D01*
X84849452Y-41727792D01*
X84497555Y-41059330D01*
X84470548Y-41018912D01*
X83980881Y-40658724D01*
X81459605Y-43180000D01*
X81100395Y-43180000D01*
X78579119Y-40658724D01*
X78089452Y-41018912D01*
X77729151Y-41682882D01*
X77505306Y-42404385D01*
X77426520Y-43155695D01*
X76860000Y-43155695D01*
X76860000Y-40479119D01*
X78758724Y-40479119D01*
X81280000Y-43000395D01*
X83801276Y-40479119D01*
X83441088Y-39989452D01*
X82777118Y-39629151D01*
X82055615Y-39405306D01*
X81304305Y-39326520D01*
X80552062Y-39395822D01*
X79827792Y-39610548D01*
X79159330Y-39962445D01*
X79118912Y-39989452D01*
X78758724Y-40479119D01*
X76860000Y-40479119D01*
X76860000Y-38760000D01*
X114910001Y-38760000D01*
X114910001Y-42692869D01*
G37*
X114910001Y-42692869D02*
X112033977Y-39816846D01*
X111998430Y-39773532D01*
X111825604Y-39631697D01*
X111628428Y-39526305D01*
X111414480Y-39461404D01*
X111247733Y-39444981D01*
X111247732Y-39444981D01*
X111191981Y-39439490D01*
X111136230Y-39444981D01*
X99551181Y-39444981D01*
X99495429Y-39439490D01*
X99439677Y-39444981D01*
X99272930Y-39461404D01*
X99058982Y-39526305D01*
X98861806Y-39631697D01*
X98688980Y-39773532D01*
X98653438Y-39816840D01*
X93621875Y-44848404D01*
X93578561Y-44883951D01*
X93436726Y-45056777D01*
X93356400Y-45207059D01*
X93331334Y-45253954D01*
X93266433Y-45467902D01*
X93244519Y-45690400D01*
X93250010Y-45746152D01*
X93250011Y-49863867D01*
X92995750Y-49865000D01*
X92837000Y-50023750D01*
X92837000Y-50673000D01*
X92857000Y-50673000D01*
X92857000Y-50927000D01*
X92837000Y-50927000D01*
X92837000Y-50947000D01*
X92583000Y-50947000D01*
X92583000Y-50927000D01*
X91258750Y-50927000D01*
X91100000Y-51085750D01*
X91096928Y-51100000D01*
X91105299Y-51185000D01*
X90883614Y-51185000D01*
X90852405Y-51126613D01*
X90741962Y-50992038D01*
X90674000Y-50936263D01*
X90674000Y-50917737D01*
X90741962Y-50861962D01*
X90852405Y-50727387D01*
X90934472Y-50573851D01*
X90956874Y-50500000D01*
X91096928Y-50500000D01*
X91100000Y-50514250D01*
X91258750Y-50673000D01*
X92583000Y-50673000D01*
X92583000Y-50023750D01*
X92424250Y-49865000D01*
X91735000Y-49861928D01*
X91610518Y-49874188D01*
X91490820Y-49910498D01*
X91380506Y-49969463D01*
X91283815Y-50048815D01*
X91204463Y-50145506D01*
X91145498Y-50255820D01*
X91109188Y-50375518D01*
X91096928Y-50500000D01*
X90956874Y-50500000D01*
X90985008Y-50407255D01*
X91002072Y-50234001D01*
X91002072Y-49333999D01*
X90985008Y-49160745D01*
X90934472Y-48994149D01*
X90852405Y-48840613D01*
X90741962Y-48706038D01*
X90674000Y-48650263D01*
X90674000Y-48385123D01*
X90750962Y-48321962D01*
X90861405Y-48187387D01*
X90943472Y-48033851D01*
X90994008Y-47867255D01*
X91011072Y-47694001D01*
X91011072Y-46793999D01*
X90994008Y-46620745D01*
X90943472Y-46454149D01*
X90861405Y-46300613D01*
X90750962Y-46166038D01*
X90683000Y-46110263D01*
X90683000Y-45830351D01*
X90741962Y-45781962D01*
X90852405Y-45647387D01*
X90934472Y-45493851D01*
X90985008Y-45327255D01*
X91002072Y-45154001D01*
X91002072Y-44253999D01*
X90985008Y-44080745D01*
X90934472Y-43914149D01*
X90852405Y-43760613D01*
X90741962Y-43626038D01*
X90607387Y-43515595D01*
X90453851Y-43433528D01*
X90287255Y-43382992D01*
X90114001Y-43365928D01*
X89463999Y-43365928D01*
X89290745Y-43382992D01*
X89124149Y-43433528D01*
X88970613Y-43515595D01*
X88883841Y-43586807D01*
X88892000Y-43545788D01*
X88892000Y-43322212D01*
X88848383Y-43102933D01*
X88762824Y-42896376D01*
X88638612Y-42710480D01*
X88480520Y-42552388D01*
X88294624Y-42428176D01*
X88088067Y-42342617D01*
X87868788Y-42299000D01*
X87645212Y-42299000D01*
X87425933Y-42342617D01*
X87219376Y-42428176D01*
X87033480Y-42552388D01*
X86875388Y-42710480D01*
X86751176Y-42896376D01*
X86665617Y-43102933D01*
X86622000Y-43322212D01*
X86622000Y-43545788D01*
X86665617Y-43765067D01*
X86668934Y-43773075D01*
X86593528Y-43914149D01*
X86542992Y-44080745D01*
X86525928Y-44253999D01*
X86525928Y-44932252D01*
X86389624Y-44841176D01*
X86183067Y-44755617D01*
X85963788Y-44712000D01*
X85740212Y-44712000D01*
X85520933Y-44755617D01*
X85314376Y-44841176D01*
X85128480Y-44965388D01*
X84970388Y-45123480D01*
X84846176Y-45309376D01*
X84760617Y-45515933D01*
X84717000Y-45735212D01*
X84717000Y-45958788D01*
X84760617Y-46178067D01*
X84846176Y-46384624D01*
X84970388Y-46570520D01*
X85128480Y-46728612D01*
X85314376Y-46852824D01*
X85520933Y-46938383D01*
X85734232Y-46980811D01*
X86544488Y-47791067D01*
X86551992Y-47867255D01*
X86602528Y-48033851D01*
X86684595Y-48187387D01*
X86795038Y-48321962D01*
X86929613Y-48432405D01*
X87078764Y-48512128D01*
X87074149Y-48513528D01*
X86920613Y-48595595D01*
X86786038Y-48706038D01*
X86675595Y-48840613D01*
X86644386Y-48899000D01*
X84406614Y-48899000D01*
X84375405Y-48840613D01*
X84264962Y-48706038D01*
X84130387Y-48595595D01*
X83976851Y-48513528D01*
X83810255Y-48462992D01*
X83637001Y-48445928D01*
X83479753Y-48445928D01*
X83494500Y-48371788D01*
X83494500Y-48148212D01*
X83450883Y-47928933D01*
X83365324Y-47722376D01*
X83241112Y-47536480D01*
X83083020Y-47378388D01*
X82897124Y-47254176D01*
X82690567Y-47168617D01*
X82471288Y-47125000D01*
X82247712Y-47125000D01*
X82028433Y-47168617D01*
X81821876Y-47254176D01*
X81635980Y-47378388D01*
X81477888Y-47536480D01*
X81353676Y-47722376D01*
X81268117Y-47928933D01*
X81225689Y-48142232D01*
X80920354Y-48447567D01*
X80763745Y-48462992D01*
X80597149Y-48513528D01*
X80443613Y-48595595D01*
X80309038Y-48706038D01*
X80198595Y-48840613D01*
X80116528Y-48994149D01*
X80065992Y-49160745D01*
X80048928Y-49333999D01*
X80048928Y-50234001D01*
X80065992Y-50407255D01*
X80116528Y-50573851D01*
X80198595Y-50727387D01*
X80284390Y-50831928D01*
X79562000Y-50831928D01*
X79437518Y-50844188D01*
X79317820Y-50880498D01*
X79207506Y-50939463D01*
X79110815Y-51018815D01*
X79031463Y-51115506D01*
X78972498Y-51225820D01*
X78936188Y-51345518D01*
X78923928Y-51470000D01*
X78923928Y-52670000D01*
X78936188Y-52794482D01*
X78972498Y-52914180D01*
X79031463Y-53024494D01*
X79110815Y-53121185D01*
X79127000Y-53134468D01*
X79127001Y-53545532D01*
X79110815Y-53558815D01*
X79031463Y-53655506D01*
X78972498Y-53765820D01*
X78936188Y-53885518D01*
X78923928Y-54010000D01*
X78923928Y-55210000D01*
X78936188Y-55334482D01*
X78972498Y-55454180D01*
X79031463Y-55564494D01*
X79110815Y-55661185D01*
X79207506Y-55740537D01*
X79317820Y-55799502D01*
X79437518Y-55835812D01*
X79562000Y-55848072D01*
X80462000Y-55848072D01*
X80586482Y-55835812D01*
X80706180Y-55799502D01*
X80816494Y-55740537D01*
X80913185Y-55661185D01*
X80992537Y-55564494D01*
X81051502Y-55454180D01*
X81087812Y-55334482D01*
X81100072Y-55210000D01*
X82223928Y-55210000D01*
X82236188Y-55334482D01*
X82272498Y-55454180D01*
X82331463Y-55564494D01*
X82410815Y-55661185D01*
X82507506Y-55740537D01*
X82617820Y-55799502D01*
X82737518Y-55835812D01*
X82862000Y-55848072D01*
X83026250Y-55845000D01*
X83185000Y-55686250D01*
X83185000Y-54737000D01*
X83439000Y-54737000D01*
X83439000Y-55686250D01*
X83597750Y-55845000D01*
X83762000Y-55848072D01*
X83886482Y-55835812D01*
X84006180Y-55799502D01*
X84116494Y-55740537D01*
X84213185Y-55661185D01*
X84292537Y-55564494D01*
X84351502Y-55454180D01*
X84387812Y-55334482D01*
X84400072Y-55210000D01*
X84397000Y-54895750D01*
X84238250Y-54737000D01*
X83439000Y-54737000D01*
X83185000Y-54737000D01*
X82385750Y-54737000D01*
X82227000Y-54895750D01*
X82223928Y-55210000D01*
X81100072Y-55210000D01*
X81100072Y-54010000D01*
X82223928Y-54010000D01*
X82227000Y-54324250D01*
X82385750Y-54483000D01*
X83185000Y-54483000D01*
X83185000Y-53533750D01*
X83439000Y-53533750D01*
X83439000Y-54483000D01*
X84238250Y-54483000D01*
X84397000Y-54324250D01*
X84400072Y-54010000D01*
X84387812Y-53885518D01*
X84351502Y-53765820D01*
X84292537Y-53655506D01*
X84213185Y-53558815D01*
X84116494Y-53479463D01*
X84006180Y-53420498D01*
X83886482Y-53384188D01*
X83762000Y-53371928D01*
X83597750Y-53375000D01*
X83439000Y-53533750D01*
X83185000Y-53533750D01*
X83026250Y-53375000D01*
X82862000Y-53371928D01*
X82737518Y-53384188D01*
X82617820Y-53420498D01*
X82507506Y-53479463D01*
X82410815Y-53558815D01*
X82331463Y-53655506D01*
X82272498Y-53765820D01*
X82236188Y-53885518D01*
X82223928Y-54010000D01*
X81100072Y-54010000D01*
X81087812Y-53885518D01*
X81051502Y-53765820D01*
X80992537Y-53655506D01*
X80913185Y-53558815D01*
X80897000Y-53545532D01*
X80897000Y-53134468D01*
X80913185Y-53121185D01*
X80992537Y-53024494D01*
X81006749Y-52997905D01*
X81123376Y-53075833D01*
X81329933Y-53161392D01*
X81549212Y-53205009D01*
X81772788Y-53205009D01*
X81992067Y-53161392D01*
X82198624Y-53075833D01*
X82316724Y-52996921D01*
X82331463Y-53024494D01*
X82410815Y-53121185D01*
X82507506Y-53200537D01*
X82617820Y-53259502D01*
X82737518Y-53295812D01*
X82862000Y-53308072D01*
X83762000Y-53308072D01*
X83886482Y-53295812D01*
X84006180Y-53259502D01*
X84116494Y-53200537D01*
X84213185Y-53121185D01*
X84292537Y-53024494D01*
X84351502Y-52914180D01*
X84387812Y-52794482D01*
X84400072Y-52670000D01*
X84400072Y-51470000D01*
X84387812Y-51345518D01*
X84351502Y-51225820D01*
X84292537Y-51115506D01*
X84213185Y-51018815D01*
X84197000Y-51005532D01*
X84197000Y-50917737D01*
X84264962Y-50861962D01*
X84375405Y-50727387D01*
X84406614Y-50669000D01*
X86644386Y-50669000D01*
X86675595Y-50727387D01*
X86786038Y-50861962D01*
X86865287Y-50927000D01*
X86786038Y-50992038D01*
X86675595Y-51126613D01*
X86593528Y-51280149D01*
X86542992Y-51446745D01*
X86525928Y-51619999D01*
X86525928Y-52520001D01*
X86542992Y-52693255D01*
X86593528Y-52859851D01*
X86675595Y-53013387D01*
X86786038Y-53147962D01*
X86854000Y-53203737D01*
X86854001Y-53222263D01*
X86786038Y-53278038D01*
X86675595Y-53412613D01*
X86593528Y-53566149D01*
X86542992Y-53732745D01*
X86525928Y-53905999D01*
X86525928Y-54317493D01*
X85893951Y-54949471D01*
X85860184Y-54977183D01*
X85832471Y-55010951D01*
X85832468Y-55010954D01*
X85749590Y-55111941D01*
X85667412Y-55265687D01*
X85616805Y-55432510D01*
X85599719Y-55606000D01*
X85604001Y-55649478D01*
X85604001Y-55831532D01*
X85587815Y-55844815D01*
X85508463Y-55941506D01*
X85449498Y-56051820D01*
X85413188Y-56171518D01*
X85400928Y-56296000D01*
X85400928Y-57496000D01*
X85413188Y-57620482D01*
X85449498Y-57740180D01*
X85508463Y-57850494D01*
X85587815Y-57947185D01*
X85684506Y-58026537D01*
X85794820Y-58085502D01*
X85914518Y-58121812D01*
X86039000Y-58134072D01*
X86939000Y-58134072D01*
X87063482Y-58121812D01*
X87183180Y-58085502D01*
X87293494Y-58026537D01*
X87390185Y-57947185D01*
X87469537Y-57850494D01*
X87528502Y-57740180D01*
X87564812Y-57620482D01*
X87577072Y-57496000D01*
X87577072Y-56296000D01*
X87564812Y-56171518D01*
X87549864Y-56122241D01*
X87560193Y-56134827D01*
X87694951Y-56245421D01*
X87848697Y-56327599D01*
X88015520Y-56378205D01*
X88145533Y-56391010D01*
X88145543Y-56391010D01*
X88189009Y-56395291D01*
X88232475Y-56391010D01*
X88700928Y-56391010D01*
X88700928Y-57496000D01*
X88713188Y-57620482D01*
X88749498Y-57740180D01*
X88808463Y-57850494D01*
X88887815Y-57947185D01*
X88904001Y-57960468D01*
X88904000Y-60535531D01*
X88899719Y-60579000D01*
X88904000Y-60622469D01*
X88904000Y-60622476D01*
X88916805Y-60752489D01*
X88967411Y-60919312D01*
X89049589Y-61073058D01*
X89160183Y-61207817D01*
X89193956Y-61235534D01*
X94174501Y-66216080D01*
X94174500Y-70886031D01*
X94170219Y-70929500D01*
X94174500Y-70972969D01*
X94174500Y-70972976D01*
X94183957Y-71068992D01*
X94187305Y-71102990D01*
X94192975Y-71121680D01*
X94237911Y-71269812D01*
X94320089Y-71423558D01*
X94430683Y-71558317D01*
X94464456Y-71586034D01*
X97631983Y-74753561D01*
X97625000Y-74788665D01*
X97625000Y-75071335D01*
X97680147Y-75348574D01*
X97788320Y-75609727D01*
X97945363Y-75844759D01*
X98145241Y-76044637D01*
X98377759Y-76200000D01*
X98145241Y-76355363D01*
X97945363Y-76555241D01*
X97788320Y-76790273D01*
X97680147Y-77051426D01*
X97625000Y-77328665D01*
X97625000Y-77611335D01*
X97680147Y-77888574D01*
X97788320Y-78149727D01*
X97945363Y-78384759D01*
X98145241Y-78584637D01*
X98380273Y-78741680D01*
X98390865Y-78746067D01*
X98204869Y-78857615D01*
X97996481Y-79046586D01*
X97828963Y-79272580D01*
X97708754Y-79526913D01*
X97668096Y-79660961D01*
X97790085Y-79883000D01*
X98933000Y-79883000D01*
X98933000Y-79863000D01*
X99187000Y-79863000D01*
X99187000Y-79883000D01*
X99207000Y-79883000D01*
X99207000Y-80137000D01*
X99187000Y-80137000D01*
X99187000Y-80157000D01*
X98933000Y-80157000D01*
X98933000Y-80137000D01*
X97790085Y-80137000D01*
X97668096Y-80359039D01*
X97708754Y-80493087D01*
X97828963Y-80747420D01*
X97996481Y-80973414D01*
X98204869Y-81162385D01*
X98390865Y-81273933D01*
X98380273Y-81278320D01*
X98145241Y-81435363D01*
X97945363Y-81635241D01*
X97788320Y-81870273D01*
X97680147Y-82131426D01*
X97625000Y-82408665D01*
X97625000Y-82691335D01*
X97680147Y-82968574D01*
X97788320Y-83229727D01*
X97945363Y-83464759D01*
X98145241Y-83664637D01*
X98380273Y-83821680D01*
X98390865Y-83826067D01*
X98204869Y-83937615D01*
X97996481Y-84126586D01*
X97828963Y-84352580D01*
X97708754Y-84606913D01*
X97668096Y-84740961D01*
X97790085Y-84963000D01*
X98933000Y-84963000D01*
X98933000Y-84943000D01*
X99187000Y-84943000D01*
X99187000Y-84963000D01*
X100329915Y-84963000D01*
X100451904Y-84740961D01*
X100411246Y-84606913D01*
X100291037Y-84352580D01*
X100123519Y-84126586D01*
X99915131Y-83937615D01*
X99729135Y-83826067D01*
X99739727Y-83821680D01*
X99974759Y-83664637D01*
X100174637Y-83464759D01*
X100194521Y-83435000D01*
X100505386Y-83435000D01*
X100536595Y-83493387D01*
X100647038Y-83627962D01*
X100781613Y-83738405D01*
X100935149Y-83820472D01*
X101101745Y-83871008D01*
X101274999Y-83888072D01*
X101686494Y-83888072D01*
X104810011Y-87011590D01*
X104810010Y-93214990D01*
X100743479Y-93214990D01*
X100700010Y-93210709D01*
X100656541Y-93214990D01*
X100656533Y-93214990D01*
X100526520Y-93227795D01*
X100359697Y-93278401D01*
X100267032Y-93327931D01*
X100205951Y-93360579D01*
X100104963Y-93443458D01*
X100104961Y-93443460D01*
X100071193Y-93471173D01*
X100043480Y-93504941D01*
X99636493Y-93911928D01*
X99224999Y-93911928D01*
X99051745Y-93928992D01*
X98885149Y-93979528D01*
X98731613Y-94061595D01*
X98597038Y-94172038D01*
X98486595Y-94306613D01*
X98455386Y-94365000D01*
X95997579Y-94365000D01*
X91969534Y-90336956D01*
X91941817Y-90303183D01*
X91807059Y-90192589D01*
X91653313Y-90110411D01*
X91486490Y-90059805D01*
X91356477Y-90047000D01*
X91356469Y-90047000D01*
X91313000Y-90042719D01*
X91269531Y-90047000D01*
X88996614Y-90047000D01*
X88965405Y-89988613D01*
X88854962Y-89854038D01*
X88720387Y-89743595D01*
X88566851Y-89661528D01*
X88400255Y-89610992D01*
X88227001Y-89593928D01*
X87576999Y-89593928D01*
X87549990Y-89596588D01*
X88631579Y-88515000D01*
X90305479Y-88515000D01*
X90325363Y-88544759D01*
X90525241Y-88744637D01*
X90760273Y-88901680D01*
X91021426Y-89009853D01*
X91298665Y-89065000D01*
X91581335Y-89065000D01*
X91858574Y-89009853D01*
X92119727Y-88901680D01*
X92354759Y-88744637D01*
X92554637Y-88544759D01*
X92711680Y-88309727D01*
X92819853Y-88048574D01*
X92875000Y-87771335D01*
X92875000Y-87488665D01*
X92819853Y-87211426D01*
X92711680Y-86950273D01*
X92631317Y-86830000D01*
X97621928Y-86830000D01*
X97621928Y-88430000D01*
X97634188Y-88554482D01*
X97670498Y-88674180D01*
X97729463Y-88784494D01*
X97808815Y-88881185D01*
X97905506Y-88960537D01*
X98015820Y-89019502D01*
X98135518Y-89055812D01*
X98260000Y-89068072D01*
X99860000Y-89068072D01*
X99984482Y-89055812D01*
X100104180Y-89019502D01*
X100214494Y-88960537D01*
X100311185Y-88881185D01*
X100390537Y-88784494D01*
X100449502Y-88674180D01*
X100485812Y-88554482D01*
X100498072Y-88430000D01*
X100498072Y-86830000D01*
X100485812Y-86705518D01*
X100449502Y-86585820D01*
X100390537Y-86475506D01*
X100311185Y-86378815D01*
X100214494Y-86299463D01*
X100104180Y-86240498D01*
X99984482Y-86204188D01*
X99959920Y-86201769D01*
X100123519Y-86053414D01*
X100291037Y-85827420D01*
X100411246Y-85573087D01*
X100451904Y-85439039D01*
X100329915Y-85217000D01*
X99187000Y-85217000D01*
X99187000Y-85237000D01*
X98933000Y-85237000D01*
X98933000Y-85217000D01*
X97790085Y-85217000D01*
X97668096Y-85439039D01*
X97708754Y-85573087D01*
X97828963Y-85827420D01*
X97996481Y-86053414D01*
X98160080Y-86201769D01*
X98135518Y-86204188D01*
X98015820Y-86240498D01*
X97905506Y-86299463D01*
X97808815Y-86378815D01*
X97729463Y-86475506D01*
X97670498Y-86585820D01*
X97634188Y-86705518D01*
X97621928Y-86830000D01*
X92631317Y-86830000D01*
X92554637Y-86715241D01*
X92354759Y-86515363D01*
X92122241Y-86360000D01*
X92354759Y-86204637D01*
X92554637Y-86004759D01*
X92711680Y-85769727D01*
X92819853Y-85508574D01*
X92875000Y-85231335D01*
X92875000Y-84948665D01*
X92819853Y-84671426D01*
X92711680Y-84410273D01*
X92554637Y-84175241D01*
X92354759Y-83975363D01*
X92122241Y-83820000D01*
X92354759Y-83664637D01*
X92554637Y-83464759D01*
X92711680Y-83229727D01*
X92819853Y-82968574D01*
X92875000Y-82691335D01*
X92875000Y-82408665D01*
X92819853Y-82131426D01*
X92711680Y-81870273D01*
X92554637Y-81635241D01*
X92354759Y-81435363D01*
X92122241Y-81280000D01*
X92354759Y-81124637D01*
X92554637Y-80924759D01*
X92711680Y-80689727D01*
X92819853Y-80428574D01*
X92875000Y-80151335D01*
X92875000Y-79868665D01*
X92819853Y-79591426D01*
X92711680Y-79330273D01*
X92554637Y-79095241D01*
X92354759Y-78895363D01*
X92122241Y-78740000D01*
X92354759Y-78584637D01*
X92554637Y-78384759D01*
X92711680Y-78149727D01*
X92819853Y-77888574D01*
X92875000Y-77611335D01*
X92875000Y-77328665D01*
X92819853Y-77051426D01*
X92711680Y-76790273D01*
X92554637Y-76555241D01*
X92354759Y-76355363D01*
X92122241Y-76200000D01*
X92354759Y-76044637D01*
X92554637Y-75844759D01*
X92711680Y-75609727D01*
X92819853Y-75348574D01*
X92875000Y-75071335D01*
X92875000Y-74788665D01*
X92819853Y-74511426D01*
X92711680Y-74250273D01*
X92554637Y-74015241D01*
X92354759Y-73815363D01*
X92122241Y-73660000D01*
X92354759Y-73504637D01*
X92554637Y-73304759D01*
X92711680Y-73069727D01*
X92819853Y-72808574D01*
X92875000Y-72531335D01*
X92875000Y-72248665D01*
X92819853Y-71971426D01*
X92711680Y-71710273D01*
X92554637Y-71475241D01*
X92354759Y-71275363D01*
X92122241Y-71120000D01*
X92354759Y-70964637D01*
X92554637Y-70764759D01*
X92711680Y-70529727D01*
X92819853Y-70268574D01*
X92875000Y-69991335D01*
X92875000Y-69708665D01*
X92819853Y-69431426D01*
X92711680Y-69170273D01*
X92554637Y-68935241D01*
X92354759Y-68735363D01*
X92122241Y-68580000D01*
X92354759Y-68424637D01*
X92554637Y-68224759D01*
X92711680Y-67989727D01*
X92819853Y-67728574D01*
X92875000Y-67451335D01*
X92875000Y-67168665D01*
X92819853Y-66891426D01*
X92711680Y-66630273D01*
X92554637Y-66395241D01*
X92354759Y-66195363D01*
X92119727Y-66038320D01*
X91858574Y-65930147D01*
X91581335Y-65875000D01*
X91298665Y-65875000D01*
X91021426Y-65930147D01*
X90760273Y-66038320D01*
X90525241Y-66195363D01*
X90325363Y-66395241D01*
X90168320Y-66630273D01*
X90060147Y-66891426D01*
X90005000Y-67168665D01*
X90005000Y-67451335D01*
X90011983Y-67486438D01*
X76860000Y-80638422D01*
X76860000Y-45880881D01*
X78758724Y-45880881D01*
X79118912Y-46370548D01*
X79782882Y-46730849D01*
X80504385Y-46954694D01*
X81255695Y-47033480D01*
X82007938Y-46964178D01*
X82732208Y-46749452D01*
X83400670Y-46397555D01*
X83441088Y-46370548D01*
X83801276Y-45880881D01*
X81280000Y-43359605D01*
X78758724Y-45880881D01*
X76860000Y-45880881D01*
X76860000Y-43155695D01*
X77426520Y-43155695D01*
X77495822Y-43907938D01*
X77710548Y-44632208D01*
X78062445Y-45300670D01*
X78089452Y-45341088D01*
X78579119Y-45701276D01*
X81100395Y-43180000D01*
X81459605Y-43180000D01*
X83980881Y-45701276D01*
X84470548Y-45341088D01*
X84830849Y-44677118D01*
X85054694Y-43955615D01*
X85133480Y-43204305D01*
X85064178Y-42452062D01*
X84849452Y-41727792D01*
X84497555Y-41059330D01*
X84470548Y-41018912D01*
X83980881Y-40658724D01*
X81459605Y-43180000D01*
X81100395Y-43180000D01*
X78579119Y-40658724D01*
X78089452Y-41018912D01*
X77729151Y-41682882D01*
X77505306Y-42404385D01*
X77426520Y-43155695D01*
X76860000Y-43155695D01*
X76860000Y-40479119D01*
X78758724Y-40479119D01*
X81280000Y-43000395D01*
X83801276Y-40479119D01*
X83441088Y-39989452D01*
X82777118Y-39629151D01*
X82055615Y-39405306D01*
X81304305Y-39326520D01*
X80552062Y-39395822D01*
X79827792Y-39610548D01*
X79159330Y-39962445D01*
X79118912Y-39989452D01*
X78758724Y-40479119D01*
X76860000Y-40479119D01*
X76860000Y-38760000D01*
X114910001Y-38760000D01*
X114910001Y-42692869D01*
G36*
X109022928Y-48144061D02*
G01*
X109022928Y-48202001D01*
X109039992Y-48375255D01*
X109090528Y-48541851D01*
X109101000Y-48561443D01*
X109101001Y-50272849D01*
X109062068Y-50366842D01*
X109005000Y-50653740D01*
X109005000Y-50946260D01*
X109062068Y-51233158D01*
X109174010Y-51503411D01*
X109336525Y-51746632D01*
X109543368Y-51953475D01*
X109725534Y-52075195D01*
X109608645Y-52144822D01*
X109392412Y-52339731D01*
X109218359Y-52573080D01*
X109093175Y-52835901D01*
X109048524Y-52983110D01*
X109169845Y-53213000D01*
X110363000Y-53213000D01*
X110363000Y-53193000D01*
X110617000Y-53193000D01*
X110617000Y-53213000D01*
X112903000Y-53213000D01*
X112903000Y-53193000D01*
X113157000Y-53193000D01*
X113157000Y-53213000D01*
X113177000Y-53213000D01*
X113177000Y-53467000D01*
X113157000Y-53467000D01*
X113157000Y-55753000D01*
X113177000Y-55753000D01*
X113177000Y-56007000D01*
X113157000Y-56007000D01*
X113157000Y-58293000D01*
X113177000Y-58293000D01*
X113177000Y-58547000D01*
X113157000Y-58547000D01*
X113157000Y-58567000D01*
X112903000Y-58567000D01*
X112903000Y-58547000D01*
X110617000Y-58547000D01*
X110617000Y-58567000D01*
X110363000Y-58567000D01*
X110363000Y-58547000D01*
X109169845Y-58547000D01*
X109048524Y-58776890D01*
X109093175Y-58924099D01*
X109218359Y-59186920D01*
X109392412Y-59420269D01*
X109476466Y-59496034D01*
X109395820Y-59520498D01*
X109285506Y-59579463D01*
X109188815Y-59658815D01*
X109109463Y-59755506D01*
X109050498Y-59865820D01*
X109014188Y-59985518D01*
X109001928Y-60110000D01*
X109001928Y-61810000D01*
X109014188Y-61934482D01*
X109050498Y-62054180D01*
X109109463Y-62164494D01*
X109188815Y-62261185D01*
X109285506Y-62340537D01*
X109355000Y-62377683D01*
X109355001Y-63325556D01*
X109344528Y-63345149D01*
X109293992Y-63511745D01*
X109276928Y-63684999D01*
X109276928Y-64585001D01*
X109293992Y-64758255D01*
X109344528Y-64924851D01*
X109355001Y-64944444D01*
X109355000Y-70332367D01*
X100836860Y-78850509D01*
X100793552Y-78886051D01*
X100651717Y-79058877D01*
X100595384Y-79164270D01*
X100546324Y-79256054D01*
X100481423Y-79470002D01*
X100459509Y-79692500D01*
X100465001Y-79748261D01*
X100465001Y-79882998D01*
X100329916Y-79882998D01*
X100451904Y-79660961D01*
X100411246Y-79526913D01*
X100291037Y-79272580D01*
X100123519Y-79046586D01*
X99915131Y-78857615D01*
X99729135Y-78746067D01*
X99739727Y-78741680D01*
X99974759Y-78584637D01*
X100174637Y-78384759D01*
X100331680Y-78149727D01*
X100439853Y-77888574D01*
X100495000Y-77611335D01*
X100495000Y-77328665D01*
X100488017Y-77293561D01*
X103220050Y-74561529D01*
X103253817Y-74533817D01*
X103364411Y-74399059D01*
X103446589Y-74245313D01*
X103497195Y-74078490D01*
X103510000Y-73948477D01*
X103510000Y-73948467D01*
X103514281Y-73905001D01*
X103510000Y-73861535D01*
X103510000Y-73579250D01*
X103523000Y-73566250D01*
X103523000Y-72517000D01*
X103777000Y-72517000D01*
X103777000Y-73566250D01*
X103935750Y-73725000D01*
X104225000Y-73728072D01*
X104349482Y-73715812D01*
X104469180Y-73679502D01*
X104579494Y-73620537D01*
X104676185Y-73541185D01*
X104755537Y-73444494D01*
X104814502Y-73334180D01*
X104850812Y-73214482D01*
X104863072Y-73090000D01*
X104860000Y-72675750D01*
X104701250Y-72517000D01*
X103777000Y-72517000D01*
X103523000Y-72517000D01*
X103510000Y-72517000D01*
X103510000Y-72263000D01*
X103523000Y-72263000D01*
X103523000Y-71213750D01*
X103777000Y-71213750D01*
X103777000Y-72263000D01*
X104701250Y-72263000D01*
X104860000Y-72104250D01*
X104863072Y-71690000D01*
X104850812Y-71565518D01*
X104814502Y-71445820D01*
X104755537Y-71335506D01*
X104676185Y-71238815D01*
X104579494Y-71159463D01*
X104469180Y-71100498D01*
X104349482Y-71064188D01*
X104225000Y-71051928D01*
X103935750Y-71055000D01*
X103777000Y-71213750D01*
X103523000Y-71213750D01*
X103510000Y-71200750D01*
X103510000Y-65838465D01*
X103514281Y-65794999D01*
X103510000Y-65751533D01*
X103510000Y-65751523D01*
X103497195Y-65621510D01*
X103446589Y-65454687D01*
X103364411Y-65300941D01*
X103325540Y-65253577D01*
X103281532Y-65199953D01*
X103281530Y-65199951D01*
X103253817Y-65166183D01*
X103220049Y-65138470D01*
X98545000Y-60463422D01*
X98545000Y-56236890D01*
X109048524Y-56236890D01*
X109093175Y-56384099D01*
X109218359Y-56646920D01*
X109392412Y-56880269D01*
X109608645Y-57075178D01*
X109734255Y-57150000D01*
X109608645Y-57224822D01*
X109392412Y-57419731D01*
X109218359Y-57653080D01*
X109093175Y-57915901D01*
X109048524Y-58063110D01*
X109169845Y-58293000D01*
X110363000Y-58293000D01*
X110363000Y-56007000D01*
X110617000Y-56007000D01*
X110617000Y-58293000D01*
X112903000Y-58293000D01*
X112903000Y-56007000D01*
X110617000Y-56007000D01*
X110363000Y-56007000D01*
X109169845Y-56007000D01*
X109048524Y-56236890D01*
X98545000Y-56236890D01*
X98545000Y-55542162D01*
X98638745Y-55532929D01*
X98763783Y-55495000D01*
X101162497Y-55495000D01*
X101205966Y-55499281D01*
X101249435Y-55495000D01*
X101249443Y-55495000D01*
X101379456Y-55482195D01*
X101546279Y-55431589D01*
X101700025Y-55349411D01*
X101834783Y-55238817D01*
X101862500Y-55205044D01*
X102393644Y-54673900D01*
X102435999Y-54678072D01*
X103086001Y-54678072D01*
X103259255Y-54661008D01*
X103425851Y-54610472D01*
X103579387Y-54528405D01*
X103713962Y-54417962D01*
X103824405Y-54283387D01*
X103906472Y-54129851D01*
X103957008Y-53963255D01*
X103974072Y-53790001D01*
X103974072Y-53696890D01*
X109048524Y-53696890D01*
X109093175Y-53844099D01*
X109218359Y-54106920D01*
X109392412Y-54340269D01*
X109608645Y-54535178D01*
X109734255Y-54610000D01*
X109608645Y-54684822D01*
X109392412Y-54879731D01*
X109218359Y-55113080D01*
X109093175Y-55375901D01*
X109048524Y-55523110D01*
X109169845Y-55753000D01*
X110363000Y-55753000D01*
X110363000Y-53467000D01*
X110617000Y-53467000D01*
X110617000Y-55753000D01*
X112903000Y-55753000D01*
X112903000Y-53467000D01*
X110617000Y-53467000D01*
X110363000Y-53467000D01*
X109169845Y-53467000D01*
X109048524Y-53696890D01*
X103974072Y-53696890D01*
X103974072Y-52889999D01*
X103957008Y-52716745D01*
X103906472Y-52550149D01*
X103824405Y-52396613D01*
X103713962Y-52262038D01*
X103579387Y-52151595D01*
X103426734Y-52070000D01*
X103579387Y-51988405D01*
X103713962Y-51877962D01*
X103824405Y-51743387D01*
X103906472Y-51589851D01*
X103957008Y-51423255D01*
X103974072Y-51250001D01*
X103974072Y-50349999D01*
X103957008Y-50176745D01*
X103906472Y-50010149D01*
X103824405Y-49856613D01*
X103713962Y-49722038D01*
X103579387Y-49611595D01*
X103505565Y-49572136D01*
X103580180Y-49549502D01*
X103690494Y-49490537D01*
X103787185Y-49411185D01*
X103866537Y-49314494D01*
X103925502Y-49204180D01*
X103961812Y-49084482D01*
X103974072Y-48960000D01*
X103971000Y-48545750D01*
X103812250Y-48387000D01*
X102888000Y-48387000D01*
X102888000Y-48407000D01*
X102634000Y-48407000D01*
X102634000Y-48387000D01*
X102614000Y-48387000D01*
X102614000Y-48133000D01*
X102634000Y-48133000D01*
X102634000Y-48113000D01*
X102888000Y-48113000D01*
X102888000Y-48133000D01*
X103812250Y-48133000D01*
X103971000Y-47974250D01*
X103971370Y-47924302D01*
X103983376Y-47932324D01*
X104189933Y-48017883D01*
X104409212Y-48061500D01*
X104632788Y-48061500D01*
X104852067Y-48017883D01*
X105058624Y-47932324D01*
X105244520Y-47808112D01*
X105402612Y-47650020D01*
X105526824Y-47464124D01*
X105612383Y-47257567D01*
X105656000Y-47038288D01*
X105656000Y-46814712D01*
X105612383Y-46595433D01*
X105526824Y-46388876D01*
X105402612Y-46202980D01*
X105244520Y-46044888D01*
X105058624Y-45920676D01*
X104852067Y-45835117D01*
X104632788Y-45791500D01*
X104409212Y-45791500D01*
X104189933Y-45835117D01*
X104145925Y-45853346D01*
X103974072Y-45681494D01*
X103974072Y-45269999D01*
X103957008Y-45096745D01*
X103906472Y-44930149D01*
X103824405Y-44776613D01*
X103713962Y-44642038D01*
X103646000Y-44586263D01*
X103646000Y-44313737D01*
X103713962Y-44257962D01*
X103824405Y-44123387D01*
X103906472Y-43969851D01*
X103957008Y-43803255D01*
X103974072Y-43630001D01*
X103974072Y-43095203D01*
X109022928Y-48144061D01*
G37*
X109022928Y-48144061D02*
X109022928Y-48202001D01*
X109039992Y-48375255D01*
X109090528Y-48541851D01*
X109101000Y-48561443D01*
X109101001Y-50272849D01*
X109062068Y-50366842D01*
X109005000Y-50653740D01*
X109005000Y-50946260D01*
X109062068Y-51233158D01*
X109174010Y-51503411D01*
X109336525Y-51746632D01*
X109543368Y-51953475D01*
X109725534Y-52075195D01*
X109608645Y-52144822D01*
X109392412Y-52339731D01*
X109218359Y-52573080D01*
X109093175Y-52835901D01*
X109048524Y-52983110D01*
X109169845Y-53213000D01*
X110363000Y-53213000D01*
X110363000Y-53193000D01*
X110617000Y-53193000D01*
X110617000Y-53213000D01*
X112903000Y-53213000D01*
X112903000Y-53193000D01*
X113157000Y-53193000D01*
X113157000Y-53213000D01*
X113177000Y-53213000D01*
X113177000Y-53467000D01*
X113157000Y-53467000D01*
X113157000Y-55753000D01*
X113177000Y-55753000D01*
X113177000Y-56007000D01*
X113157000Y-56007000D01*
X113157000Y-58293000D01*
X113177000Y-58293000D01*
X113177000Y-58547000D01*
X113157000Y-58547000D01*
X113157000Y-58567000D01*
X112903000Y-58567000D01*
X112903000Y-58547000D01*
X110617000Y-58547000D01*
X110617000Y-58567000D01*
X110363000Y-58567000D01*
X110363000Y-58547000D01*
X109169845Y-58547000D01*
X109048524Y-58776890D01*
X109093175Y-58924099D01*
X109218359Y-59186920D01*
X109392412Y-59420269D01*
X109476466Y-59496034D01*
X109395820Y-59520498D01*
X109285506Y-59579463D01*
X109188815Y-59658815D01*
X109109463Y-59755506D01*
X109050498Y-59865820D01*
X109014188Y-59985518D01*
X109001928Y-60110000D01*
X109001928Y-61810000D01*
X109014188Y-61934482D01*
X109050498Y-62054180D01*
X109109463Y-62164494D01*
X109188815Y-62261185D01*
X109285506Y-62340537D01*
X109355000Y-62377683D01*
X109355001Y-63325556D01*
X109344528Y-63345149D01*
X109293992Y-63511745D01*
X109276928Y-63684999D01*
X109276928Y-64585001D01*
X109293992Y-64758255D01*
X109344528Y-64924851D01*
X109355001Y-64944444D01*
X109355000Y-70332367D01*
X100836860Y-78850509D01*
X100793552Y-78886051D01*
X100651717Y-79058877D01*
X100595384Y-79164270D01*
X100546324Y-79256054D01*
X100481423Y-79470002D01*
X100459509Y-79692500D01*
X100465001Y-79748261D01*
X100465001Y-79882998D01*
X100329916Y-79882998D01*
X100451904Y-79660961D01*
X100411246Y-79526913D01*
X100291037Y-79272580D01*
X100123519Y-79046586D01*
X99915131Y-78857615D01*
X99729135Y-78746067D01*
X99739727Y-78741680D01*
X99974759Y-78584637D01*
X100174637Y-78384759D01*
X100331680Y-78149727D01*
X100439853Y-77888574D01*
X100495000Y-77611335D01*
X100495000Y-77328665D01*
X100488017Y-77293561D01*
X103220050Y-74561529D01*
X103253817Y-74533817D01*
X103364411Y-74399059D01*
X103446589Y-74245313D01*
X103497195Y-74078490D01*
X103510000Y-73948477D01*
X103510000Y-73948467D01*
X103514281Y-73905001D01*
X103510000Y-73861535D01*
X103510000Y-73579250D01*
X103523000Y-73566250D01*
X103523000Y-72517000D01*
X103777000Y-72517000D01*
X103777000Y-73566250D01*
X103935750Y-73725000D01*
X104225000Y-73728072D01*
X104349482Y-73715812D01*
X104469180Y-73679502D01*
X104579494Y-73620537D01*
X104676185Y-73541185D01*
X104755537Y-73444494D01*
X104814502Y-73334180D01*
X104850812Y-73214482D01*
X104863072Y-73090000D01*
X104860000Y-72675750D01*
X104701250Y-72517000D01*
X103777000Y-72517000D01*
X103523000Y-72517000D01*
X103510000Y-72517000D01*
X103510000Y-72263000D01*
X103523000Y-72263000D01*
X103523000Y-71213750D01*
X103777000Y-71213750D01*
X103777000Y-72263000D01*
X104701250Y-72263000D01*
X104860000Y-72104250D01*
X104863072Y-71690000D01*
X104850812Y-71565518D01*
X104814502Y-71445820D01*
X104755537Y-71335506D01*
X104676185Y-71238815D01*
X104579494Y-71159463D01*
X104469180Y-71100498D01*
X104349482Y-71064188D01*
X104225000Y-71051928D01*
X103935750Y-71055000D01*
X103777000Y-71213750D01*
X103523000Y-71213750D01*
X103510000Y-71200750D01*
X103510000Y-65838465D01*
X103514281Y-65794999D01*
X103510000Y-65751533D01*
X103510000Y-65751523D01*
X103497195Y-65621510D01*
X103446589Y-65454687D01*
X103364411Y-65300941D01*
X103325540Y-65253577D01*
X103281532Y-65199953D01*
X103281530Y-65199951D01*
X103253817Y-65166183D01*
X103220049Y-65138470D01*
X98545000Y-60463422D01*
X98545000Y-56236890D01*
X109048524Y-56236890D01*
X109093175Y-56384099D01*
X109218359Y-56646920D01*
X109392412Y-56880269D01*
X109608645Y-57075178D01*
X109734255Y-57150000D01*
X109608645Y-57224822D01*
X109392412Y-57419731D01*
X109218359Y-57653080D01*
X109093175Y-57915901D01*
X109048524Y-58063110D01*
X109169845Y-58293000D01*
X110363000Y-58293000D01*
X110363000Y-56007000D01*
X110617000Y-56007000D01*
X110617000Y-58293000D01*
X112903000Y-58293000D01*
X112903000Y-56007000D01*
X110617000Y-56007000D01*
X110363000Y-56007000D01*
X109169845Y-56007000D01*
X109048524Y-56236890D01*
X98545000Y-56236890D01*
X98545000Y-55542162D01*
X98638745Y-55532929D01*
X98763783Y-55495000D01*
X101162497Y-55495000D01*
X101205966Y-55499281D01*
X101249435Y-55495000D01*
X101249443Y-55495000D01*
X101379456Y-55482195D01*
X101546279Y-55431589D01*
X101700025Y-55349411D01*
X101834783Y-55238817D01*
X101862500Y-55205044D01*
X102393644Y-54673900D01*
X102435999Y-54678072D01*
X103086001Y-54678072D01*
X103259255Y-54661008D01*
X103425851Y-54610472D01*
X103579387Y-54528405D01*
X103713962Y-54417962D01*
X103824405Y-54283387D01*
X103906472Y-54129851D01*
X103957008Y-53963255D01*
X103974072Y-53790001D01*
X103974072Y-53696890D01*
X109048524Y-53696890D01*
X109093175Y-53844099D01*
X109218359Y-54106920D01*
X109392412Y-54340269D01*
X109608645Y-54535178D01*
X109734255Y-54610000D01*
X109608645Y-54684822D01*
X109392412Y-54879731D01*
X109218359Y-55113080D01*
X109093175Y-55375901D01*
X109048524Y-55523110D01*
X109169845Y-55753000D01*
X110363000Y-55753000D01*
X110363000Y-53467000D01*
X110617000Y-53467000D01*
X110617000Y-55753000D01*
X112903000Y-55753000D01*
X112903000Y-53467000D01*
X110617000Y-53467000D01*
X110363000Y-53467000D01*
X109169845Y-53467000D01*
X109048524Y-53696890D01*
X103974072Y-53696890D01*
X103974072Y-52889999D01*
X103957008Y-52716745D01*
X103906472Y-52550149D01*
X103824405Y-52396613D01*
X103713962Y-52262038D01*
X103579387Y-52151595D01*
X103426734Y-52070000D01*
X103579387Y-51988405D01*
X103713962Y-51877962D01*
X103824405Y-51743387D01*
X103906472Y-51589851D01*
X103957008Y-51423255D01*
X103974072Y-51250001D01*
X103974072Y-50349999D01*
X103957008Y-50176745D01*
X103906472Y-50010149D01*
X103824405Y-49856613D01*
X103713962Y-49722038D01*
X103579387Y-49611595D01*
X103505565Y-49572136D01*
X103580180Y-49549502D01*
X103690494Y-49490537D01*
X103787185Y-49411185D01*
X103866537Y-49314494D01*
X103925502Y-49204180D01*
X103961812Y-49084482D01*
X103974072Y-48960000D01*
X103971000Y-48545750D01*
X103812250Y-48387000D01*
X102888000Y-48387000D01*
X102888000Y-48407000D01*
X102634000Y-48407000D01*
X102634000Y-48387000D01*
X102614000Y-48387000D01*
X102614000Y-48133000D01*
X102634000Y-48133000D01*
X102634000Y-48113000D01*
X102888000Y-48113000D01*
X102888000Y-48133000D01*
X103812250Y-48133000D01*
X103971000Y-47974250D01*
X103971370Y-47924302D01*
X103983376Y-47932324D01*
X104189933Y-48017883D01*
X104409212Y-48061500D01*
X104632788Y-48061500D01*
X104852067Y-48017883D01*
X105058624Y-47932324D01*
X105244520Y-47808112D01*
X105402612Y-47650020D01*
X105526824Y-47464124D01*
X105612383Y-47257567D01*
X105656000Y-47038288D01*
X105656000Y-46814712D01*
X105612383Y-46595433D01*
X105526824Y-46388876D01*
X105402612Y-46202980D01*
X105244520Y-46044888D01*
X105058624Y-45920676D01*
X104852067Y-45835117D01*
X104632788Y-45791500D01*
X104409212Y-45791500D01*
X104189933Y-45835117D01*
X104145925Y-45853346D01*
X103974072Y-45681494D01*
X103974072Y-45269999D01*
X103957008Y-45096745D01*
X103906472Y-44930149D01*
X103824405Y-44776613D01*
X103713962Y-44642038D01*
X103646000Y-44586263D01*
X103646000Y-44313737D01*
X103713962Y-44257962D01*
X103824405Y-44123387D01*
X103906472Y-43969851D01*
X103957008Y-43803255D01*
X103974072Y-43630001D01*
X103974072Y-43095203D01*
X109022928Y-48144061D01*
G36*
X96655001Y-47021716D02*
G01*
X96559180Y-46970498D01*
X96439482Y-46934188D01*
X96315000Y-46921928D01*
X96025750Y-46925000D01*
X95867000Y-47083750D01*
X95867000Y-48133000D01*
X95887000Y-48133000D01*
X95887000Y-48387000D01*
X95867000Y-48387000D01*
X95867000Y-49436250D01*
X96025750Y-49595000D01*
X96315000Y-49598072D01*
X96439482Y-49585812D01*
X96559180Y-49549502D01*
X96669494Y-49490537D01*
X96766185Y-49411185D01*
X96775001Y-49400443D01*
X96775000Y-49867838D01*
X96681255Y-49877071D01*
X96533418Y-49921916D01*
X96397171Y-49994742D01*
X96277749Y-50092749D01*
X96179742Y-50212171D01*
X96106916Y-50348418D01*
X96062071Y-50496255D01*
X96046928Y-50650000D01*
X96046928Y-50950000D01*
X96062071Y-51103745D01*
X96106916Y-51251582D01*
X96179742Y-51387829D01*
X96218454Y-51435000D01*
X96179742Y-51482171D01*
X96106916Y-51618418D01*
X96062071Y-51766255D01*
X96046928Y-51920000D01*
X96046928Y-52220000D01*
X96062071Y-52373745D01*
X96106916Y-52521582D01*
X96179742Y-52657829D01*
X96218454Y-52705000D01*
X96179742Y-52752171D01*
X96106916Y-52888418D01*
X96062071Y-53036255D01*
X96046928Y-53190000D01*
X96046928Y-53490000D01*
X96062071Y-53643745D01*
X96106916Y-53791582D01*
X96179742Y-53927829D01*
X96218454Y-53975000D01*
X96179742Y-54022171D01*
X96106916Y-54158418D01*
X96062071Y-54306255D01*
X96046928Y-54460000D01*
X96046928Y-54760000D01*
X96062071Y-54913745D01*
X96106916Y-55061582D01*
X96179742Y-55197829D01*
X96277749Y-55317251D01*
X96397171Y-55415258D01*
X96533418Y-55488084D01*
X96681255Y-55532929D01*
X96775001Y-55542162D01*
X96775000Y-60786531D01*
X96770719Y-60830000D01*
X96775000Y-60873469D01*
X96775000Y-60873476D01*
X96787805Y-61003489D01*
X96838411Y-61170312D01*
X96920589Y-61324058D01*
X97031183Y-61458817D01*
X97064956Y-61486534D01*
X101740001Y-66161580D01*
X101740000Y-71051928D01*
X101274999Y-71051928D01*
X101101745Y-71068992D01*
X100935149Y-71119528D01*
X100781613Y-71201595D01*
X100647038Y-71312038D01*
X100536595Y-71446613D01*
X100505386Y-71505000D01*
X100194521Y-71505000D01*
X100174637Y-71475241D01*
X99974759Y-71275363D01*
X99739727Y-71118320D01*
X99729135Y-71113933D01*
X99915131Y-71002385D01*
X100123519Y-70813414D01*
X100291037Y-70587420D01*
X100411246Y-70333087D01*
X100451904Y-70199039D01*
X100329915Y-69977000D01*
X99187000Y-69977000D01*
X99187000Y-69997000D01*
X98933000Y-69997000D01*
X98933000Y-69977000D01*
X97790085Y-69977000D01*
X97668096Y-70199039D01*
X97708754Y-70333087D01*
X97828963Y-70587420D01*
X97996481Y-70813414D01*
X98204869Y-71002385D01*
X98390865Y-71113933D01*
X98380273Y-71118320D01*
X98145241Y-71275363D01*
X97945363Y-71475241D01*
X97788320Y-71710273D01*
X97680147Y-71971426D01*
X97625870Y-72244291D01*
X95944500Y-70562922D01*
X95944500Y-67168665D01*
X97625000Y-67168665D01*
X97625000Y-67451335D01*
X97680147Y-67728574D01*
X97788320Y-67989727D01*
X97945363Y-68224759D01*
X98145241Y-68424637D01*
X98380273Y-68581680D01*
X98390865Y-68586067D01*
X98204869Y-68697615D01*
X97996481Y-68886586D01*
X97828963Y-69112580D01*
X97708754Y-69366913D01*
X97668096Y-69500961D01*
X97790085Y-69723000D01*
X98933000Y-69723000D01*
X98933000Y-69703000D01*
X99187000Y-69703000D01*
X99187000Y-69723000D01*
X100329915Y-69723000D01*
X100451904Y-69500961D01*
X100411246Y-69366913D01*
X100291037Y-69112580D01*
X100123519Y-68886586D01*
X99915131Y-68697615D01*
X99729135Y-68586067D01*
X99739727Y-68581680D01*
X99974759Y-68424637D01*
X100174637Y-68224759D01*
X100331680Y-67989727D01*
X100439853Y-67728574D01*
X100495000Y-67451335D01*
X100495000Y-67168665D01*
X100439853Y-66891426D01*
X100331680Y-66630273D01*
X100174637Y-66395241D01*
X99974759Y-66195363D01*
X99739727Y-66038320D01*
X99478574Y-65930147D01*
X99201335Y-65875000D01*
X98918665Y-65875000D01*
X98641426Y-65930147D01*
X98380273Y-66038320D01*
X98145241Y-66195363D01*
X97945363Y-66395241D01*
X97788320Y-66630273D01*
X97680147Y-66891426D01*
X97625000Y-67168665D01*
X95944500Y-67168665D01*
X95944500Y-65892969D01*
X95948781Y-65849500D01*
X95944500Y-65806031D01*
X95944500Y-65806023D01*
X95931695Y-65676010D01*
X95881089Y-65509187D01*
X95881089Y-65509186D01*
X95798911Y-65355441D01*
X95716032Y-65254453D01*
X95716030Y-65254451D01*
X95688317Y-65220683D01*
X95654549Y-65192970D01*
X90674000Y-60212422D01*
X90674000Y-57960468D01*
X90690185Y-57947185D01*
X90769537Y-57850494D01*
X90828502Y-57740180D01*
X90864812Y-57620482D01*
X90877072Y-57496000D01*
X90877072Y-56296000D01*
X90873387Y-56258585D01*
X90898015Y-56245421D01*
X91032773Y-56134827D01*
X91060490Y-56101054D01*
X91652504Y-55509041D01*
X91731255Y-55532929D01*
X91825000Y-55542162D01*
X91825001Y-57286262D01*
X91757038Y-57342038D01*
X91646595Y-57476613D01*
X91564528Y-57630149D01*
X91513992Y-57796745D01*
X91496928Y-57969999D01*
X91496928Y-58870001D01*
X91513992Y-59043255D01*
X91564528Y-59209851D01*
X91646595Y-59363387D01*
X91757038Y-59497962D01*
X91891613Y-59608405D01*
X92045149Y-59690472D01*
X92211745Y-59741008D01*
X92384999Y-59758072D01*
X93035001Y-59758072D01*
X93208255Y-59741008D01*
X93374851Y-59690472D01*
X93528387Y-59608405D01*
X93662962Y-59497962D01*
X93668342Y-59491406D01*
X93733815Y-59571185D01*
X93830506Y-59650537D01*
X93940820Y-59709502D01*
X94060518Y-59745812D01*
X94185000Y-59758072D01*
X94474250Y-59755000D01*
X94633000Y-59596250D01*
X94633000Y-58547000D01*
X94887000Y-58547000D01*
X94887000Y-59596250D01*
X95045750Y-59755000D01*
X95335000Y-59758072D01*
X95459482Y-59745812D01*
X95579180Y-59709502D01*
X95689494Y-59650537D01*
X95786185Y-59571185D01*
X95865537Y-59474494D01*
X95924502Y-59364180D01*
X95960812Y-59244482D01*
X95973072Y-59120000D01*
X95970000Y-58705750D01*
X95811250Y-58547000D01*
X94887000Y-58547000D01*
X94633000Y-58547000D01*
X94613000Y-58547000D01*
X94613000Y-58293000D01*
X94633000Y-58293000D01*
X94633000Y-57243750D01*
X94887000Y-57243750D01*
X94887000Y-58293000D01*
X95811250Y-58293000D01*
X95970000Y-58134250D01*
X95973072Y-57720000D01*
X95960812Y-57595518D01*
X95924502Y-57475820D01*
X95865537Y-57365506D01*
X95786185Y-57268815D01*
X95689494Y-57189463D01*
X95579180Y-57130498D01*
X95459482Y-57094188D01*
X95335000Y-57081928D01*
X95045750Y-57085000D01*
X94887000Y-57243750D01*
X94633000Y-57243750D01*
X94474250Y-57085000D01*
X94185000Y-57081928D01*
X94060518Y-57094188D01*
X93940820Y-57130498D01*
X93830506Y-57189463D01*
X93733815Y-57268815D01*
X93668342Y-57348594D01*
X93662962Y-57342038D01*
X93595000Y-57286263D01*
X93595000Y-55748315D01*
X93617098Y-55750491D01*
X93672849Y-55745000D01*
X93672850Y-55745000D01*
X93839597Y-55728577D01*
X94053545Y-55663676D01*
X94250721Y-55558284D01*
X94423547Y-55416449D01*
X94459093Y-55373136D01*
X95148155Y-54684076D01*
X95191459Y-54648537D01*
X95258767Y-54566523D01*
X95333294Y-54475711D01*
X95438686Y-54278535D01*
X95503587Y-54064587D01*
X95508963Y-54010000D01*
X95520010Y-53897840D01*
X95525501Y-53842088D01*
X95520010Y-53786336D01*
X95520010Y-49529240D01*
X95613000Y-49436250D01*
X95613000Y-48387000D01*
X95593000Y-48387000D01*
X95593000Y-48133000D01*
X95613000Y-48133000D01*
X95613000Y-47083750D01*
X95520010Y-46990760D01*
X95520010Y-46160531D01*
X96655000Y-45025541D01*
X96655001Y-47021716D01*
G37*
X96655001Y-47021716D02*
X96559180Y-46970498D01*
X96439482Y-46934188D01*
X96315000Y-46921928D01*
X96025750Y-46925000D01*
X95867000Y-47083750D01*
X95867000Y-48133000D01*
X95887000Y-48133000D01*
X95887000Y-48387000D01*
X95867000Y-48387000D01*
X95867000Y-49436250D01*
X96025750Y-49595000D01*
X96315000Y-49598072D01*
X96439482Y-49585812D01*
X96559180Y-49549502D01*
X96669494Y-49490537D01*
X96766185Y-49411185D01*
X96775001Y-49400443D01*
X96775000Y-49867838D01*
X96681255Y-49877071D01*
X96533418Y-49921916D01*
X96397171Y-49994742D01*
X96277749Y-50092749D01*
X96179742Y-50212171D01*
X96106916Y-50348418D01*
X96062071Y-50496255D01*
X96046928Y-50650000D01*
X96046928Y-50950000D01*
X96062071Y-51103745D01*
X96106916Y-51251582D01*
X96179742Y-51387829D01*
X96218454Y-51435000D01*
X96179742Y-51482171D01*
X96106916Y-51618418D01*
X96062071Y-51766255D01*
X96046928Y-51920000D01*
X96046928Y-52220000D01*
X96062071Y-52373745D01*
X96106916Y-52521582D01*
X96179742Y-52657829D01*
X96218454Y-52705000D01*
X96179742Y-52752171D01*
X96106916Y-52888418D01*
X96062071Y-53036255D01*
X96046928Y-53190000D01*
X96046928Y-53490000D01*
X96062071Y-53643745D01*
X96106916Y-53791582D01*
X96179742Y-53927829D01*
X96218454Y-53975000D01*
X96179742Y-54022171D01*
X96106916Y-54158418D01*
X96062071Y-54306255D01*
X96046928Y-54460000D01*
X96046928Y-54760000D01*
X96062071Y-54913745D01*
X96106916Y-55061582D01*
X96179742Y-55197829D01*
X96277749Y-55317251D01*
X96397171Y-55415258D01*
X96533418Y-55488084D01*
X96681255Y-55532929D01*
X96775001Y-55542162D01*
X96775000Y-60786531D01*
X96770719Y-60830000D01*
X96775000Y-60873469D01*
X96775000Y-60873476D01*
X96787805Y-61003489D01*
X96838411Y-61170312D01*
X96920589Y-61324058D01*
X97031183Y-61458817D01*
X97064956Y-61486534D01*
X101740001Y-66161580D01*
X101740000Y-71051928D01*
X101274999Y-71051928D01*
X101101745Y-71068992D01*
X100935149Y-71119528D01*
X100781613Y-71201595D01*
X100647038Y-71312038D01*
X100536595Y-71446613D01*
X100505386Y-71505000D01*
X100194521Y-71505000D01*
X100174637Y-71475241D01*
X99974759Y-71275363D01*
X99739727Y-71118320D01*
X99729135Y-71113933D01*
X99915131Y-71002385D01*
X100123519Y-70813414D01*
X100291037Y-70587420D01*
X100411246Y-70333087D01*
X100451904Y-70199039D01*
X100329915Y-69977000D01*
X99187000Y-69977000D01*
X99187000Y-69997000D01*
X98933000Y-69997000D01*
X98933000Y-69977000D01*
X97790085Y-69977000D01*
X97668096Y-70199039D01*
X97708754Y-70333087D01*
X97828963Y-70587420D01*
X97996481Y-70813414D01*
X98204869Y-71002385D01*
X98390865Y-71113933D01*
X98380273Y-71118320D01*
X98145241Y-71275363D01*
X97945363Y-71475241D01*
X97788320Y-71710273D01*
X97680147Y-71971426D01*
X97625870Y-72244291D01*
X95944500Y-70562922D01*
X95944500Y-67168665D01*
X97625000Y-67168665D01*
X97625000Y-67451335D01*
X97680147Y-67728574D01*
X97788320Y-67989727D01*
X97945363Y-68224759D01*
X98145241Y-68424637D01*
X98380273Y-68581680D01*
X98390865Y-68586067D01*
X98204869Y-68697615D01*
X97996481Y-68886586D01*
X97828963Y-69112580D01*
X97708754Y-69366913D01*
X97668096Y-69500961D01*
X97790085Y-69723000D01*
X98933000Y-69723000D01*
X98933000Y-69703000D01*
X99187000Y-69703000D01*
X99187000Y-69723000D01*
X100329915Y-69723000D01*
X100451904Y-69500961D01*
X100411246Y-69366913D01*
X100291037Y-69112580D01*
X100123519Y-68886586D01*
X99915131Y-68697615D01*
X99729135Y-68586067D01*
X99739727Y-68581680D01*
X99974759Y-68424637D01*
X100174637Y-68224759D01*
X100331680Y-67989727D01*
X100439853Y-67728574D01*
X100495000Y-67451335D01*
X100495000Y-67168665D01*
X100439853Y-66891426D01*
X100331680Y-66630273D01*
X100174637Y-66395241D01*
X99974759Y-66195363D01*
X99739727Y-66038320D01*
X99478574Y-65930147D01*
X99201335Y-65875000D01*
X98918665Y-65875000D01*
X98641426Y-65930147D01*
X98380273Y-66038320D01*
X98145241Y-66195363D01*
X97945363Y-66395241D01*
X97788320Y-66630273D01*
X97680147Y-66891426D01*
X97625000Y-67168665D01*
X95944500Y-67168665D01*
X95944500Y-65892969D01*
X95948781Y-65849500D01*
X95944500Y-65806031D01*
X95944500Y-65806023D01*
X95931695Y-65676010D01*
X95881089Y-65509187D01*
X95881089Y-65509186D01*
X95798911Y-65355441D01*
X95716032Y-65254453D01*
X95716030Y-65254451D01*
X95688317Y-65220683D01*
X95654549Y-65192970D01*
X90674000Y-60212422D01*
X90674000Y-57960468D01*
X90690185Y-57947185D01*
X90769537Y-57850494D01*
X90828502Y-57740180D01*
X90864812Y-57620482D01*
X90877072Y-57496000D01*
X90877072Y-56296000D01*
X90873387Y-56258585D01*
X90898015Y-56245421D01*
X91032773Y-56134827D01*
X91060490Y-56101054D01*
X91652504Y-55509041D01*
X91731255Y-55532929D01*
X91825000Y-55542162D01*
X91825001Y-57286262D01*
X91757038Y-57342038D01*
X91646595Y-57476613D01*
X91564528Y-57630149D01*
X91513992Y-57796745D01*
X91496928Y-57969999D01*
X91496928Y-58870001D01*
X91513992Y-59043255D01*
X91564528Y-59209851D01*
X91646595Y-59363387D01*
X91757038Y-59497962D01*
X91891613Y-59608405D01*
X92045149Y-59690472D01*
X92211745Y-59741008D01*
X92384999Y-59758072D01*
X93035001Y-59758072D01*
X93208255Y-59741008D01*
X93374851Y-59690472D01*
X93528387Y-59608405D01*
X93662962Y-59497962D01*
X93668342Y-59491406D01*
X93733815Y-59571185D01*
X93830506Y-59650537D01*
X93940820Y-59709502D01*
X94060518Y-59745812D01*
X94185000Y-59758072D01*
X94474250Y-59755000D01*
X94633000Y-59596250D01*
X94633000Y-58547000D01*
X94887000Y-58547000D01*
X94887000Y-59596250D01*
X95045750Y-59755000D01*
X95335000Y-59758072D01*
X95459482Y-59745812D01*
X95579180Y-59709502D01*
X95689494Y-59650537D01*
X95786185Y-59571185D01*
X95865537Y-59474494D01*
X95924502Y-59364180D01*
X95960812Y-59244482D01*
X95973072Y-59120000D01*
X95970000Y-58705750D01*
X95811250Y-58547000D01*
X94887000Y-58547000D01*
X94633000Y-58547000D01*
X94613000Y-58547000D01*
X94613000Y-58293000D01*
X94633000Y-58293000D01*
X94633000Y-57243750D01*
X94887000Y-57243750D01*
X94887000Y-58293000D01*
X95811250Y-58293000D01*
X95970000Y-58134250D01*
X95973072Y-57720000D01*
X95960812Y-57595518D01*
X95924502Y-57475820D01*
X95865537Y-57365506D01*
X95786185Y-57268815D01*
X95689494Y-57189463D01*
X95579180Y-57130498D01*
X95459482Y-57094188D01*
X95335000Y-57081928D01*
X95045750Y-57085000D01*
X94887000Y-57243750D01*
X94633000Y-57243750D01*
X94474250Y-57085000D01*
X94185000Y-57081928D01*
X94060518Y-57094188D01*
X93940820Y-57130498D01*
X93830506Y-57189463D01*
X93733815Y-57268815D01*
X93668342Y-57348594D01*
X93662962Y-57342038D01*
X93595000Y-57286263D01*
X93595000Y-55748315D01*
X93617098Y-55750491D01*
X93672849Y-55745000D01*
X93672850Y-55745000D01*
X93839597Y-55728577D01*
X94053545Y-55663676D01*
X94250721Y-55558284D01*
X94423547Y-55416449D01*
X94459093Y-55373136D01*
X95148155Y-54684076D01*
X95191459Y-54648537D01*
X95258767Y-54566523D01*
X95333294Y-54475711D01*
X95438686Y-54278535D01*
X95503587Y-54064587D01*
X95508963Y-54010000D01*
X95520010Y-53897840D01*
X95525501Y-53842088D01*
X95520010Y-53786336D01*
X95520010Y-49529240D01*
X95613000Y-49436250D01*
X95613000Y-48387000D01*
X95593000Y-48387000D01*
X95593000Y-48133000D01*
X95613000Y-48133000D01*
X95613000Y-47083750D01*
X95520010Y-46990760D01*
X95520010Y-46160531D01*
X96655000Y-45025541D01*
X96655001Y-47021716D01*
G36*
X113445002Y-44438134D02*
G01*
X113445002Y-46797530D01*
X113391537Y-46697506D01*
X113312185Y-46600815D01*
X113215494Y-46521463D01*
X113105180Y-46462498D01*
X112985482Y-46426188D01*
X112861000Y-46413928D01*
X112571750Y-46417000D01*
X112413000Y-46575750D01*
X112413000Y-47625000D01*
X112433000Y-47625000D01*
X112433000Y-47879000D01*
X112413000Y-47879000D01*
X112413000Y-48928250D01*
X112571750Y-49087000D01*
X112861000Y-49090072D01*
X112985482Y-49077812D01*
X113105180Y-49041502D01*
X113215494Y-48982537D01*
X113312185Y-48903185D01*
X113391537Y-48806494D01*
X113445002Y-48706470D01*
X113445002Y-49368456D01*
X113176260Y-49315000D01*
X112883740Y-49315000D01*
X112596842Y-49372068D01*
X112326589Y-49484010D01*
X112083368Y-49646525D01*
X112064893Y-49665000D01*
X111455107Y-49665000D01*
X111436632Y-49646525D01*
X111371000Y-49602671D01*
X111371000Y-48990284D01*
X111466820Y-49041502D01*
X111586518Y-49077812D01*
X111711000Y-49090072D01*
X112000250Y-49087000D01*
X112159000Y-48928250D01*
X112159000Y-47879000D01*
X112139000Y-47879000D01*
X112139000Y-47625000D01*
X112159000Y-47625000D01*
X112159000Y-46575750D01*
X112000250Y-46417000D01*
X111711000Y-46413928D01*
X111586518Y-46426188D01*
X111466820Y-46462498D01*
X111356506Y-46521463D01*
X111259815Y-46600815D01*
X111194342Y-46680594D01*
X111188962Y-46674038D01*
X111054387Y-46563595D01*
X110900851Y-46481528D01*
X110734255Y-46430992D01*
X110561001Y-46413928D01*
X110503061Y-46413928D01*
X105804112Y-41714981D01*
X110721850Y-41714981D01*
X113445002Y-44438134D01*
G37*
X113445002Y-44438134D02*
X113445002Y-46797530D01*
X113391537Y-46697506D01*
X113312185Y-46600815D01*
X113215494Y-46521463D01*
X113105180Y-46462498D01*
X112985482Y-46426188D01*
X112861000Y-46413928D01*
X112571750Y-46417000D01*
X112413000Y-46575750D01*
X112413000Y-47625000D01*
X112433000Y-47625000D01*
X112433000Y-47879000D01*
X112413000Y-47879000D01*
X112413000Y-48928250D01*
X112571750Y-49087000D01*
X112861000Y-49090072D01*
X112985482Y-49077812D01*
X113105180Y-49041502D01*
X113215494Y-48982537D01*
X113312185Y-48903185D01*
X113391537Y-48806494D01*
X113445002Y-48706470D01*
X113445002Y-49368456D01*
X113176260Y-49315000D01*
X112883740Y-49315000D01*
X112596842Y-49372068D01*
X112326589Y-49484010D01*
X112083368Y-49646525D01*
X112064893Y-49665000D01*
X111455107Y-49665000D01*
X111436632Y-49646525D01*
X111371000Y-49602671D01*
X111371000Y-48990284D01*
X111466820Y-49041502D01*
X111586518Y-49077812D01*
X111711000Y-49090072D01*
X112000250Y-49087000D01*
X112159000Y-48928250D01*
X112159000Y-47879000D01*
X112139000Y-47879000D01*
X112139000Y-47625000D01*
X112159000Y-47625000D01*
X112159000Y-46575750D01*
X112000250Y-46417000D01*
X111711000Y-46413928D01*
X111586518Y-46426188D01*
X111466820Y-46462498D01*
X111356506Y-46521463D01*
X111259815Y-46600815D01*
X111194342Y-46680594D01*
X111188962Y-46674038D01*
X111054387Y-46563595D01*
X110900851Y-46481528D01*
X110734255Y-46430992D01*
X110561001Y-46413928D01*
X110503061Y-46413928D01*
X105804112Y-41714981D01*
X110721850Y-41714981D01*
X113445002Y-44438134D01*
M02*
