M48
; DRILL file {KiCad 5.1.6-c6e7f7d~86~ubuntu18.04.1} date Sat Jun 20 09:56:27 2020
; FORMAT={-:-/ absolute / metric / decimal}
; #@! TF.CreationDate,2020-06-20T09:56:27-04:00
; #@! TF.GenerationSoftware,Kicad,Pcbnew,5.1.6-c6e7f7d~86~ubuntu18.04.1
; #@! TF.FileFunction,Plated,1,2,PTH
FMAT,2
METRIC
T1C0.500
T2C0.800
T3C1.000
T4C3.200
%
G90
G05
T1
X78.88Y-43.18
X79.583Y-41.483
X79.583Y-44.877
X81.28Y-40.78
X81.28Y-45.58
X82.977Y-41.483
X82.977Y-44.877
X83.68Y-43.18
X78.88Y-111.76
X79.583Y-110.063
X79.583Y-113.457
X81.28Y-109.36
X81.28Y-114.16
X82.977Y-110.063
X82.977Y-113.457
X83.68Y-111.76
T2
X81.661Y-52.07
X82.359Y-48.26
X85.852Y-45.847
X87.757Y-43.434
X90.742Y-93.916
X93.98Y-96.901
X93.98Y-101.6
X93.98Y-105.41
X96.647Y-39.433
X98.996Y-48.26
X101.727Y-49.53
X104.521Y-46.926
X105.727Y-55.054
X105.727Y-69.85
X105.791Y-62.23
X105.791Y-79.947
X106.68Y-48.387
X110.109Y-43.752
X112.268Y-46.228
X112.84Y-69.342
X114.046Y-40.069
X91.44Y-67.31
X91.44Y-69.85
X91.44Y-72.39
X91.44Y-74.93
X91.44Y-77.47
X91.44Y-80.01
X91.44Y-82.55
X91.44Y-85.09
X91.44Y-87.63
X99.06Y-67.31
X99.06Y-69.85
X99.06Y-72.39
X99.06Y-74.93
X99.06Y-77.47
X99.06Y-80.01
X99.06Y-82.55
X99.06Y-85.09
X99.06Y-87.63
T3
X95.25Y-113.03
X97.79Y-113.03
X110.49Y-50.8
X110.49Y-53.34
X110.49Y-55.88
X110.49Y-58.42
X110.49Y-60.96
X113.03Y-50.8
X113.03Y-53.34
X113.03Y-55.88
X113.03Y-58.42
X113.03Y-60.96
X113.03Y-104.14
X113.03Y-106.68
X113.03Y-109.22
X113.03Y-111.76
X113.03Y-114.3
X80.01Y-97.79
X80.01Y-100.33
X80.01Y-102.87
X80.01Y-105.41
X82.55Y-97.79
X82.55Y-100.33
X82.55Y-102.87
X82.55Y-105.41
X113.03Y-93.98
X113.03Y-96.52
X113.03Y-99.06
T4
X81.28Y-43.18
X81.28Y-111.76
T0
M30
