G04 #@! TF.GenerationSoftware,KiCad,Pcbnew,5.1.6-c6e7f7d~86~ubuntu18.04.1*
G04 #@! TF.CreationDate,2020-06-20T09:56:21-04:00*
G04 #@! TF.ProjectId,five_pulser_board,66697665-5f70-4756-9c73-65725f626f61,rev?*
G04 #@! TF.SameCoordinates,Original*
G04 #@! TF.FileFunction,Copper,L2,Bot*
G04 #@! TF.FilePolarity,Positive*
%FSLAX46Y46*%
G04 Gerber Fmt 4.6, Leading zero omitted, Abs format (unit mm)*
G04 Created by KiCad (PCBNEW 5.1.6-c6e7f7d~86~ubuntu18.04.1) date 2020-06-20 09:56:21*
%MOMM*%
%LPD*%
G01*
G04 APERTURE LIST*
G04 #@! TA.AperFunction,ComponentPad*
%ADD10O,1.700000X1.700000*%
G04 #@! TD*
G04 #@! TA.AperFunction,ComponentPad*
%ADD11R,1.700000X1.700000*%
G04 #@! TD*
G04 #@! TA.AperFunction,ComponentPad*
%ADD12O,1.600000X1.600000*%
G04 #@! TD*
G04 #@! TA.AperFunction,ComponentPad*
%ADD13R,1.600000X1.600000*%
G04 #@! TD*
G04 #@! TA.AperFunction,ComponentPad*
%ADD14C,0.800000*%
G04 #@! TD*
G04 #@! TA.AperFunction,ComponentPad*
%ADD15C,6.400000*%
G04 #@! TD*
G04 #@! TA.AperFunction,ViaPad*
%ADD16C,1.000000*%
G04 #@! TD*
G04 #@! TA.AperFunction,Conductor*
%ADD17C,0.500000*%
G04 #@! TD*
G04 #@! TA.AperFunction,Conductor*
%ADD18C,1.000000*%
G04 #@! TD*
G04 #@! TA.AperFunction,Conductor*
%ADD19C,0.254000*%
G04 #@! TD*
G04 APERTURE END LIST*
D10*
X113030000Y-50800000D03*
X110490000Y-50800000D03*
X113030000Y-53340000D03*
X110490000Y-53340000D03*
X113030000Y-55880000D03*
X110490000Y-55880000D03*
X113030000Y-58420000D03*
X110490000Y-58420000D03*
X113030000Y-60960000D03*
D11*
X110490000Y-60960000D03*
D10*
X82550000Y-105410000D03*
X80010000Y-105410000D03*
X82550000Y-102870000D03*
X80010000Y-102870000D03*
X82550000Y-100330000D03*
X80010000Y-100330000D03*
X82550000Y-97790000D03*
D11*
X80010000Y-97790000D03*
D12*
X91440000Y-87630000D03*
X99060000Y-67310000D03*
X91440000Y-85090000D03*
X99060000Y-69850000D03*
X91440000Y-82550000D03*
X99060000Y-72390000D03*
X91440000Y-80010000D03*
X99060000Y-74930000D03*
X91440000Y-77470000D03*
X99060000Y-77470000D03*
X91440000Y-74930000D03*
X99060000Y-80010000D03*
X91440000Y-72390000D03*
X99060000Y-82550000D03*
X91440000Y-69850000D03*
X99060000Y-85090000D03*
X91440000Y-67310000D03*
D13*
X99060000Y-87630000D03*
D10*
X97790000Y-113030000D03*
D11*
X95250000Y-113030000D03*
D10*
X113030000Y-99060000D03*
X113030000Y-96520000D03*
D11*
X113030000Y-93980000D03*
D10*
X113030000Y-114300000D03*
X113030000Y-111760000D03*
X113030000Y-109220000D03*
X113030000Y-106680000D03*
D11*
X113030000Y-104140000D03*
D14*
X82977056Y-41482944D03*
X81280000Y-40780000D03*
X79582944Y-41482944D03*
X78880000Y-43180000D03*
X79582944Y-44877056D03*
X81280000Y-45580000D03*
X82977056Y-44877056D03*
X83680000Y-43180000D03*
D15*
X81280000Y-43180000D03*
D14*
X82977056Y-110062944D03*
X81280000Y-109360000D03*
X79582944Y-110062944D03*
X78880000Y-111760000D03*
X79582944Y-113457056D03*
X81280000Y-114160000D03*
X82977056Y-113457056D03*
X83680000Y-111760000D03*
D15*
X81280000Y-111760000D03*
D16*
X104521000Y-46926500D03*
X112268000Y-46228000D03*
X110109000Y-43751500D03*
X93980000Y-96901000D03*
X90741500Y-93916500D03*
X93980000Y-101600000D03*
X93980000Y-105410000D03*
X114046000Y-40068500D03*
X96647000Y-39433500D03*
X106680000Y-48387000D03*
X105727500Y-55054500D03*
X105791000Y-79946500D03*
X105727500Y-69850000D03*
X105791000Y-62230000D03*
X101727000Y-49530000D03*
X81661000Y-52070009D03*
X85852000Y-45847000D03*
X87757000Y-43434000D03*
X112839500Y-69342000D03*
X82359500Y-48260000D03*
X98996500Y-48260000D03*
D17*
X104330500Y-100520500D02*
X113030000Y-109220000D01*
X104521000Y-46926500D02*
X104330500Y-100520500D01*
X99186991Y-52070009D02*
X81661000Y-52070009D01*
X101727000Y-49530000D02*
X99186991Y-52070009D01*
X114330001Y-95219999D02*
X114330001Y-90835001D01*
X113030000Y-96520000D02*
X114330001Y-95219999D01*
X114330001Y-90835001D02*
X108712000Y-85217000D01*
X108712000Y-47959536D02*
X101963964Y-41211500D01*
X108712000Y-85217000D02*
X108712000Y-47959536D01*
X101963964Y-41211500D02*
X88138000Y-41211500D01*
X85852000Y-43497500D02*
X85852000Y-45847000D01*
X88138000Y-41211500D02*
X85852000Y-43497500D01*
X103006002Y-43243500D02*
X87947500Y-43243500D01*
X107251500Y-47488998D02*
X103006002Y-43243500D01*
X113030000Y-93980000D02*
X107251500Y-88201500D01*
X87947500Y-43243500D02*
X87757000Y-43434000D01*
X107251500Y-88201500D02*
X107251500Y-49657000D01*
X107251500Y-49657000D02*
X107251500Y-47488998D01*
D18*
X114580001Y-52350001D02*
X113030000Y-50800000D01*
X114580001Y-67601499D02*
X114580001Y-52350001D01*
X112839500Y-69342000D02*
X114580001Y-67601499D01*
D17*
X82359500Y-48260000D02*
X98996500Y-48260000D01*
D19*
G36*
X114910001Y-51074869D02*
G01*
X114515000Y-50679869D01*
X114515000Y-50653740D01*
X114457932Y-50366842D01*
X114345990Y-50096589D01*
X114183475Y-49853368D01*
X113976632Y-49646525D01*
X113733411Y-49484010D01*
X113463158Y-49372068D01*
X113176260Y-49315000D01*
X112883740Y-49315000D01*
X112596842Y-49372068D01*
X112326589Y-49484010D01*
X112083368Y-49646525D01*
X111876525Y-49853368D01*
X111760000Y-50027760D01*
X111643475Y-49853368D01*
X111436632Y-49646525D01*
X111193411Y-49484010D01*
X110923158Y-49372068D01*
X110636260Y-49315000D01*
X110343740Y-49315000D01*
X110056842Y-49372068D01*
X109786589Y-49484010D01*
X109597000Y-49610689D01*
X109597000Y-48003002D01*
X109601281Y-47959535D01*
X109597000Y-47916069D01*
X109597000Y-47916059D01*
X109584195Y-47786046D01*
X109533589Y-47619223D01*
X109451411Y-47465477D01*
X109387667Y-47387805D01*
X109368532Y-47364489D01*
X109368530Y-47364487D01*
X109340817Y-47330719D01*
X109307049Y-47303006D01*
X102620498Y-40616456D01*
X102592781Y-40582683D01*
X102458023Y-40472089D01*
X102304277Y-40389911D01*
X102137454Y-40339305D01*
X102007441Y-40326500D01*
X102007433Y-40326500D01*
X101963964Y-40322219D01*
X101920495Y-40326500D01*
X88181465Y-40326500D01*
X88137999Y-40322219D01*
X88094533Y-40326500D01*
X88094523Y-40326500D01*
X87964510Y-40339305D01*
X87797687Y-40389911D01*
X87643941Y-40472089D01*
X87643939Y-40472090D01*
X87643940Y-40472090D01*
X87542953Y-40554968D01*
X87542951Y-40554970D01*
X87509183Y-40582683D01*
X87481470Y-40616451D01*
X85256956Y-42840966D01*
X85223183Y-42868683D01*
X85114734Y-43000828D01*
X85064178Y-42452062D01*
X84849452Y-41727792D01*
X84497555Y-41059330D01*
X84470548Y-41018912D01*
X83980881Y-40658724D01*
X81459605Y-43180000D01*
X83980881Y-45701276D01*
X84470548Y-45341088D01*
X84830849Y-44677118D01*
X84967000Y-44238272D01*
X84967001Y-45128549D01*
X84846176Y-45309376D01*
X84760617Y-45515933D01*
X84717000Y-45735212D01*
X84717000Y-45958788D01*
X84760617Y-46178067D01*
X84846176Y-46384624D01*
X84970388Y-46570520D01*
X85128480Y-46728612D01*
X85314376Y-46852824D01*
X85520933Y-46938383D01*
X85740212Y-46982000D01*
X85963788Y-46982000D01*
X86183067Y-46938383D01*
X86389624Y-46852824D01*
X86575520Y-46728612D01*
X86733612Y-46570520D01*
X86857824Y-46384624D01*
X86943383Y-46178067D01*
X86987000Y-45958788D01*
X86987000Y-45735212D01*
X86943383Y-45515933D01*
X86857824Y-45309376D01*
X86737000Y-45128550D01*
X86737000Y-43937400D01*
X86751176Y-43971624D01*
X86875388Y-44157520D01*
X87033480Y-44315612D01*
X87219376Y-44439824D01*
X87425933Y-44525383D01*
X87645212Y-44569000D01*
X87868788Y-44569000D01*
X88088067Y-44525383D01*
X88294624Y-44439824D01*
X88480520Y-44315612D01*
X88638612Y-44157520D01*
X88658003Y-44128500D01*
X102639424Y-44128500D01*
X104320141Y-45809217D01*
X104189933Y-45835117D01*
X103983376Y-45920676D01*
X103797480Y-46044888D01*
X103639388Y-46202980D01*
X103515176Y-46388876D01*
X103429617Y-46595433D01*
X103386000Y-46814712D01*
X103386000Y-47038288D01*
X103429617Y-47257567D01*
X103515176Y-47464124D01*
X103633455Y-47641141D01*
X103445655Y-100475452D01*
X103441219Y-100520500D01*
X103449612Y-100605724D01*
X103457694Y-100690888D01*
X103458149Y-100692408D01*
X103458305Y-100693990D01*
X103483153Y-100775900D01*
X103507707Y-100857890D01*
X103508451Y-100859295D01*
X103508912Y-100860813D01*
X103549230Y-100936243D01*
X103589338Y-101011927D01*
X103590342Y-101013159D01*
X103591090Y-101014559D01*
X103645438Y-101080782D01*
X103699452Y-101147077D01*
X103734337Y-101175915D01*
X111559461Y-109001040D01*
X111545000Y-109073740D01*
X111545000Y-109366260D01*
X111602068Y-109653158D01*
X111714010Y-109923411D01*
X111876525Y-110166632D01*
X112083368Y-110373475D01*
X112257760Y-110490000D01*
X112083368Y-110606525D01*
X111876525Y-110813368D01*
X111714010Y-111056589D01*
X111602068Y-111326842D01*
X111545000Y-111613740D01*
X111545000Y-111906260D01*
X111602068Y-112193158D01*
X111714010Y-112463411D01*
X111876525Y-112706632D01*
X112083368Y-112913475D01*
X112265534Y-113035195D01*
X112148645Y-113104822D01*
X111932412Y-113299731D01*
X111758359Y-113533080D01*
X111633175Y-113795901D01*
X111588524Y-113943110D01*
X111709845Y-114173000D01*
X112903000Y-114173000D01*
X112903000Y-114153000D01*
X113157000Y-114153000D01*
X113157000Y-114173000D01*
X114350155Y-114173000D01*
X114471476Y-113943110D01*
X114426825Y-113795901D01*
X114301641Y-113533080D01*
X114127588Y-113299731D01*
X113911355Y-113104822D01*
X113794466Y-113035195D01*
X113976632Y-112913475D01*
X114183475Y-112706632D01*
X114345990Y-112463411D01*
X114457932Y-112193158D01*
X114515000Y-111906260D01*
X114515000Y-111613740D01*
X114457932Y-111326842D01*
X114345990Y-111056589D01*
X114183475Y-110813368D01*
X113976632Y-110606525D01*
X113802240Y-110490000D01*
X113976632Y-110373475D01*
X114183475Y-110166632D01*
X114345990Y-109923411D01*
X114457932Y-109653158D01*
X114515000Y-109366260D01*
X114515000Y-109073740D01*
X114457932Y-108786842D01*
X114345990Y-108516589D01*
X114183475Y-108273368D01*
X113976632Y-108066525D01*
X113802240Y-107950000D01*
X113976632Y-107833475D01*
X114183475Y-107626632D01*
X114345990Y-107383411D01*
X114457932Y-107113158D01*
X114515000Y-106826260D01*
X114515000Y-106533740D01*
X114457932Y-106246842D01*
X114345990Y-105976589D01*
X114183475Y-105733368D01*
X114051620Y-105601513D01*
X114124180Y-105579502D01*
X114234494Y-105520537D01*
X114331185Y-105441185D01*
X114410537Y-105344494D01*
X114469502Y-105234180D01*
X114505812Y-105114482D01*
X114518072Y-104990000D01*
X114518072Y-103290000D01*
X114505812Y-103165518D01*
X114469502Y-103045820D01*
X114410537Y-102935506D01*
X114331185Y-102838815D01*
X114234494Y-102759463D01*
X114124180Y-102700498D01*
X114004482Y-102664188D01*
X113880000Y-102651928D01*
X112180000Y-102651928D01*
X112055518Y-102664188D01*
X111935820Y-102700498D01*
X111825506Y-102759463D01*
X111728815Y-102838815D01*
X111649463Y-102935506D01*
X111590498Y-103045820D01*
X111554188Y-103165518D01*
X111541928Y-103290000D01*
X111541928Y-104990000D01*
X111554188Y-105114482D01*
X111590498Y-105234180D01*
X111649463Y-105344494D01*
X111728815Y-105441185D01*
X111825506Y-105520537D01*
X111935820Y-105579502D01*
X112008380Y-105601513D01*
X111876525Y-105733368D01*
X111714010Y-105976589D01*
X111602068Y-106246842D01*
X111553348Y-106491770D01*
X105216803Y-100155225D01*
X105219427Y-99416890D01*
X111588524Y-99416890D01*
X111633175Y-99564099D01*
X111758359Y-99826920D01*
X111932412Y-100060269D01*
X112148645Y-100255178D01*
X112398748Y-100404157D01*
X112673109Y-100501481D01*
X112903000Y-100380814D01*
X112903000Y-99187000D01*
X113157000Y-99187000D01*
X113157000Y-100380814D01*
X113386891Y-100501481D01*
X113661252Y-100404157D01*
X113911355Y-100255178D01*
X114127588Y-100060269D01*
X114301641Y-99826920D01*
X114426825Y-99564099D01*
X114471476Y-99416890D01*
X114350155Y-99187000D01*
X113157000Y-99187000D01*
X112903000Y-99187000D01*
X111709845Y-99187000D01*
X111588524Y-99416890D01*
X105219427Y-99416890D01*
X105403437Y-47648785D01*
X105526824Y-47464124D01*
X105612383Y-47257567D01*
X105638283Y-47127359D01*
X106366501Y-47855578D01*
X106366500Y-49700476D01*
X106366501Y-49700486D01*
X106366500Y-88158031D01*
X106362219Y-88201500D01*
X106366500Y-88244969D01*
X106366500Y-88244976D01*
X106379305Y-88374989D01*
X106429911Y-88541812D01*
X106512089Y-88695558D01*
X106622683Y-88830317D01*
X106656456Y-88858034D01*
X111541928Y-93743507D01*
X111541928Y-94830000D01*
X111554188Y-94954482D01*
X111590498Y-95074180D01*
X111649463Y-95184494D01*
X111728815Y-95281185D01*
X111825506Y-95360537D01*
X111935820Y-95419502D01*
X112008380Y-95441513D01*
X111876525Y-95573368D01*
X111714010Y-95816589D01*
X111602068Y-96086842D01*
X111545000Y-96373740D01*
X111545000Y-96666260D01*
X111602068Y-96953158D01*
X111714010Y-97223411D01*
X111876525Y-97466632D01*
X112083368Y-97673475D01*
X112265534Y-97795195D01*
X112148645Y-97864822D01*
X111932412Y-98059731D01*
X111758359Y-98293080D01*
X111633175Y-98555901D01*
X111588524Y-98703110D01*
X111709845Y-98933000D01*
X112903000Y-98933000D01*
X112903000Y-98913000D01*
X113157000Y-98913000D01*
X113157000Y-98933000D01*
X114350155Y-98933000D01*
X114471476Y-98703110D01*
X114426825Y-98555901D01*
X114301641Y-98293080D01*
X114127588Y-98059731D01*
X113911355Y-97864822D01*
X113794466Y-97795195D01*
X113976632Y-97673475D01*
X114183475Y-97466632D01*
X114345990Y-97223411D01*
X114457932Y-96953158D01*
X114515000Y-96666260D01*
X114515000Y-96373740D01*
X114500539Y-96301040D01*
X114910000Y-95891579D01*
X114910000Y-116180000D01*
X76860000Y-116180000D01*
X76860000Y-114460881D01*
X78758724Y-114460881D01*
X79118912Y-114950548D01*
X79782882Y-115310849D01*
X80504385Y-115534694D01*
X81255695Y-115613480D01*
X82007938Y-115544178D01*
X82732208Y-115329452D01*
X83400670Y-114977555D01*
X83441088Y-114950548D01*
X83657096Y-114656890D01*
X111588524Y-114656890D01*
X111633175Y-114804099D01*
X111758359Y-115066920D01*
X111932412Y-115300269D01*
X112148645Y-115495178D01*
X112398748Y-115644157D01*
X112673109Y-115741481D01*
X112903000Y-115620814D01*
X112903000Y-114427000D01*
X113157000Y-114427000D01*
X113157000Y-115620814D01*
X113386891Y-115741481D01*
X113661252Y-115644157D01*
X113911355Y-115495178D01*
X114127588Y-115300269D01*
X114301641Y-115066920D01*
X114426825Y-114804099D01*
X114471476Y-114656890D01*
X114350155Y-114427000D01*
X113157000Y-114427000D01*
X112903000Y-114427000D01*
X111709845Y-114427000D01*
X111588524Y-114656890D01*
X83657096Y-114656890D01*
X83801276Y-114460881D01*
X81280000Y-111939605D01*
X78758724Y-114460881D01*
X76860000Y-114460881D01*
X76860000Y-111735695D01*
X77426520Y-111735695D01*
X77495822Y-112487938D01*
X77710548Y-113212208D01*
X78062445Y-113880670D01*
X78089452Y-113921088D01*
X78579119Y-114281276D01*
X81100395Y-111760000D01*
X81459605Y-111760000D01*
X83980881Y-114281276D01*
X84470548Y-113921088D01*
X84830849Y-113257118D01*
X85054694Y-112535615D01*
X85091985Y-112180000D01*
X93761928Y-112180000D01*
X93761928Y-113880000D01*
X93774188Y-114004482D01*
X93810498Y-114124180D01*
X93869463Y-114234494D01*
X93948815Y-114331185D01*
X94045506Y-114410537D01*
X94155820Y-114469502D01*
X94275518Y-114505812D01*
X94400000Y-114518072D01*
X96100000Y-114518072D01*
X96224482Y-114505812D01*
X96344180Y-114469502D01*
X96454494Y-114410537D01*
X96551185Y-114331185D01*
X96630537Y-114234494D01*
X96689502Y-114124180D01*
X96713966Y-114043534D01*
X96789731Y-114127588D01*
X97023080Y-114301641D01*
X97285901Y-114426825D01*
X97433110Y-114471476D01*
X97663000Y-114350155D01*
X97663000Y-113157000D01*
X97917000Y-113157000D01*
X97917000Y-114350155D01*
X98146890Y-114471476D01*
X98294099Y-114426825D01*
X98556920Y-114301641D01*
X98790269Y-114127588D01*
X98985178Y-113911355D01*
X99134157Y-113661252D01*
X99231481Y-113386891D01*
X99110814Y-113157000D01*
X97917000Y-113157000D01*
X97663000Y-113157000D01*
X97643000Y-113157000D01*
X97643000Y-112903000D01*
X97663000Y-112903000D01*
X97663000Y-111709845D01*
X97917000Y-111709845D01*
X97917000Y-112903000D01*
X99110814Y-112903000D01*
X99231481Y-112673109D01*
X99134157Y-112398748D01*
X98985178Y-112148645D01*
X98790269Y-111932412D01*
X98556920Y-111758359D01*
X98294099Y-111633175D01*
X98146890Y-111588524D01*
X97917000Y-111709845D01*
X97663000Y-111709845D01*
X97433110Y-111588524D01*
X97285901Y-111633175D01*
X97023080Y-111758359D01*
X96789731Y-111932412D01*
X96713966Y-112016466D01*
X96689502Y-111935820D01*
X96630537Y-111825506D01*
X96551185Y-111728815D01*
X96454494Y-111649463D01*
X96344180Y-111590498D01*
X96224482Y-111554188D01*
X96100000Y-111541928D01*
X94400000Y-111541928D01*
X94275518Y-111554188D01*
X94155820Y-111590498D01*
X94045506Y-111649463D01*
X93948815Y-111728815D01*
X93869463Y-111825506D01*
X93810498Y-111935820D01*
X93774188Y-112055518D01*
X93761928Y-112180000D01*
X85091985Y-112180000D01*
X85133480Y-111784305D01*
X85064178Y-111032062D01*
X84849452Y-110307792D01*
X84497555Y-109639330D01*
X84470548Y-109598912D01*
X83980881Y-109238724D01*
X81459605Y-111760000D01*
X81100395Y-111760000D01*
X78579119Y-109238724D01*
X78089452Y-109598912D01*
X77729151Y-110262882D01*
X77505306Y-110984385D01*
X77426520Y-111735695D01*
X76860000Y-111735695D01*
X76860000Y-109059119D01*
X78758724Y-109059119D01*
X81280000Y-111580395D01*
X83801276Y-109059119D01*
X83441088Y-108569452D01*
X82777118Y-108209151D01*
X82055615Y-107985306D01*
X81304305Y-107906520D01*
X80552062Y-107975822D01*
X79827792Y-108190548D01*
X79159330Y-108542445D01*
X79118912Y-108569452D01*
X78758724Y-109059119D01*
X76860000Y-109059119D01*
X76860000Y-96940000D01*
X78521928Y-96940000D01*
X78521928Y-98640000D01*
X78534188Y-98764482D01*
X78570498Y-98884180D01*
X78629463Y-98994494D01*
X78708815Y-99091185D01*
X78805506Y-99170537D01*
X78915820Y-99229502D01*
X78988380Y-99251513D01*
X78856525Y-99383368D01*
X78694010Y-99626589D01*
X78582068Y-99896842D01*
X78525000Y-100183740D01*
X78525000Y-100476260D01*
X78582068Y-100763158D01*
X78694010Y-101033411D01*
X78856525Y-101276632D01*
X79063368Y-101483475D01*
X79237760Y-101600000D01*
X79063368Y-101716525D01*
X78856525Y-101923368D01*
X78694010Y-102166589D01*
X78582068Y-102436842D01*
X78525000Y-102723740D01*
X78525000Y-103016260D01*
X78582068Y-103303158D01*
X78694010Y-103573411D01*
X78856525Y-103816632D01*
X79063368Y-104023475D01*
X79237760Y-104140000D01*
X79063368Y-104256525D01*
X78856525Y-104463368D01*
X78694010Y-104706589D01*
X78582068Y-104976842D01*
X78525000Y-105263740D01*
X78525000Y-105556260D01*
X78582068Y-105843158D01*
X78694010Y-106113411D01*
X78856525Y-106356632D01*
X79063368Y-106563475D01*
X79306589Y-106725990D01*
X79576842Y-106837932D01*
X79863740Y-106895000D01*
X80156260Y-106895000D01*
X80443158Y-106837932D01*
X80713411Y-106725990D01*
X80956632Y-106563475D01*
X81163475Y-106356632D01*
X81280000Y-106182240D01*
X81396525Y-106356632D01*
X81603368Y-106563475D01*
X81846589Y-106725990D01*
X82116842Y-106837932D01*
X82403740Y-106895000D01*
X82696260Y-106895000D01*
X82983158Y-106837932D01*
X83253411Y-106725990D01*
X83496632Y-106563475D01*
X83703475Y-106356632D01*
X83865990Y-106113411D01*
X83977932Y-105843158D01*
X84035000Y-105556260D01*
X84035000Y-105263740D01*
X83977932Y-104976842D01*
X83865990Y-104706589D01*
X83703475Y-104463368D01*
X83496632Y-104256525D01*
X83322240Y-104140000D01*
X83496632Y-104023475D01*
X83703475Y-103816632D01*
X83865990Y-103573411D01*
X83977932Y-103303158D01*
X84035000Y-103016260D01*
X84035000Y-102723740D01*
X83977932Y-102436842D01*
X83865990Y-102166589D01*
X83703475Y-101923368D01*
X83496632Y-101716525D01*
X83322240Y-101600000D01*
X83496632Y-101483475D01*
X83703475Y-101276632D01*
X83865990Y-101033411D01*
X83977932Y-100763158D01*
X84035000Y-100476260D01*
X84035000Y-100183740D01*
X83977932Y-99896842D01*
X83865990Y-99626589D01*
X83703475Y-99383368D01*
X83496632Y-99176525D01*
X83322240Y-99060000D01*
X83496632Y-98943475D01*
X83703475Y-98736632D01*
X83865990Y-98493411D01*
X83977932Y-98223158D01*
X84035000Y-97936260D01*
X84035000Y-97643740D01*
X83977932Y-97356842D01*
X83865990Y-97086589D01*
X83703475Y-96843368D01*
X83496632Y-96636525D01*
X83253411Y-96474010D01*
X82983158Y-96362068D01*
X82696260Y-96305000D01*
X82403740Y-96305000D01*
X82116842Y-96362068D01*
X81846589Y-96474010D01*
X81603368Y-96636525D01*
X81471513Y-96768380D01*
X81449502Y-96695820D01*
X81390537Y-96585506D01*
X81311185Y-96488815D01*
X81214494Y-96409463D01*
X81104180Y-96350498D01*
X80984482Y-96314188D01*
X80860000Y-96301928D01*
X79160000Y-96301928D01*
X79035518Y-96314188D01*
X78915820Y-96350498D01*
X78805506Y-96409463D01*
X78708815Y-96488815D01*
X78629463Y-96585506D01*
X78570498Y-96695820D01*
X78534188Y-96815518D01*
X78521928Y-96940000D01*
X76860000Y-96940000D01*
X76860000Y-67168665D01*
X90005000Y-67168665D01*
X90005000Y-67451335D01*
X90060147Y-67728574D01*
X90168320Y-67989727D01*
X90325363Y-68224759D01*
X90525241Y-68424637D01*
X90757759Y-68580000D01*
X90525241Y-68735363D01*
X90325363Y-68935241D01*
X90168320Y-69170273D01*
X90060147Y-69431426D01*
X90005000Y-69708665D01*
X90005000Y-69991335D01*
X90060147Y-70268574D01*
X90168320Y-70529727D01*
X90325363Y-70764759D01*
X90525241Y-70964637D01*
X90757759Y-71120000D01*
X90525241Y-71275363D01*
X90325363Y-71475241D01*
X90168320Y-71710273D01*
X90060147Y-71971426D01*
X90005000Y-72248665D01*
X90005000Y-72531335D01*
X90060147Y-72808574D01*
X90168320Y-73069727D01*
X90325363Y-73304759D01*
X90525241Y-73504637D01*
X90757759Y-73660000D01*
X90525241Y-73815363D01*
X90325363Y-74015241D01*
X90168320Y-74250273D01*
X90060147Y-74511426D01*
X90005000Y-74788665D01*
X90005000Y-75071335D01*
X90060147Y-75348574D01*
X90168320Y-75609727D01*
X90325363Y-75844759D01*
X90525241Y-76044637D01*
X90757759Y-76200000D01*
X90525241Y-76355363D01*
X90325363Y-76555241D01*
X90168320Y-76790273D01*
X90060147Y-77051426D01*
X90005000Y-77328665D01*
X90005000Y-77611335D01*
X90060147Y-77888574D01*
X90168320Y-78149727D01*
X90325363Y-78384759D01*
X90525241Y-78584637D01*
X90757759Y-78740000D01*
X90525241Y-78895363D01*
X90325363Y-79095241D01*
X90168320Y-79330273D01*
X90060147Y-79591426D01*
X90005000Y-79868665D01*
X90005000Y-80151335D01*
X90060147Y-80428574D01*
X90168320Y-80689727D01*
X90325363Y-80924759D01*
X90525241Y-81124637D01*
X90757759Y-81280000D01*
X90525241Y-81435363D01*
X90325363Y-81635241D01*
X90168320Y-81870273D01*
X90060147Y-82131426D01*
X90005000Y-82408665D01*
X90005000Y-82691335D01*
X90060147Y-82968574D01*
X90168320Y-83229727D01*
X90325363Y-83464759D01*
X90525241Y-83664637D01*
X90757759Y-83820000D01*
X90525241Y-83975363D01*
X90325363Y-84175241D01*
X90168320Y-84410273D01*
X90060147Y-84671426D01*
X90005000Y-84948665D01*
X90005000Y-85231335D01*
X90060147Y-85508574D01*
X90168320Y-85769727D01*
X90325363Y-86004759D01*
X90525241Y-86204637D01*
X90757759Y-86360000D01*
X90525241Y-86515363D01*
X90325363Y-86715241D01*
X90168320Y-86950273D01*
X90060147Y-87211426D01*
X90005000Y-87488665D01*
X90005000Y-87771335D01*
X90060147Y-88048574D01*
X90168320Y-88309727D01*
X90325363Y-88544759D01*
X90525241Y-88744637D01*
X90760273Y-88901680D01*
X91021426Y-89009853D01*
X91298665Y-89065000D01*
X91581335Y-89065000D01*
X91858574Y-89009853D01*
X92119727Y-88901680D01*
X92354759Y-88744637D01*
X92554637Y-88544759D01*
X92711680Y-88309727D01*
X92819853Y-88048574D01*
X92875000Y-87771335D01*
X92875000Y-87488665D01*
X92819853Y-87211426D01*
X92711680Y-86950273D01*
X92631317Y-86830000D01*
X97621928Y-86830000D01*
X97621928Y-88430000D01*
X97634188Y-88554482D01*
X97670498Y-88674180D01*
X97729463Y-88784494D01*
X97808815Y-88881185D01*
X97905506Y-88960537D01*
X98015820Y-89019502D01*
X98135518Y-89055812D01*
X98260000Y-89068072D01*
X99860000Y-89068072D01*
X99984482Y-89055812D01*
X100104180Y-89019502D01*
X100214494Y-88960537D01*
X100311185Y-88881185D01*
X100390537Y-88784494D01*
X100449502Y-88674180D01*
X100485812Y-88554482D01*
X100498072Y-88430000D01*
X100498072Y-86830000D01*
X100485812Y-86705518D01*
X100449502Y-86585820D01*
X100390537Y-86475506D01*
X100311185Y-86378815D01*
X100214494Y-86299463D01*
X100104180Y-86240498D01*
X99984482Y-86204188D01*
X99959920Y-86201769D01*
X100123519Y-86053414D01*
X100291037Y-85827420D01*
X100411246Y-85573087D01*
X100451904Y-85439039D01*
X100329915Y-85217000D01*
X99187000Y-85217000D01*
X99187000Y-85237000D01*
X98933000Y-85237000D01*
X98933000Y-85217000D01*
X97790085Y-85217000D01*
X97668096Y-85439039D01*
X97708754Y-85573087D01*
X97828963Y-85827420D01*
X97996481Y-86053414D01*
X98160080Y-86201769D01*
X98135518Y-86204188D01*
X98015820Y-86240498D01*
X97905506Y-86299463D01*
X97808815Y-86378815D01*
X97729463Y-86475506D01*
X97670498Y-86585820D01*
X97634188Y-86705518D01*
X97621928Y-86830000D01*
X92631317Y-86830000D01*
X92554637Y-86715241D01*
X92354759Y-86515363D01*
X92122241Y-86360000D01*
X92354759Y-86204637D01*
X92554637Y-86004759D01*
X92711680Y-85769727D01*
X92819853Y-85508574D01*
X92875000Y-85231335D01*
X92875000Y-84948665D01*
X92819853Y-84671426D01*
X92711680Y-84410273D01*
X92554637Y-84175241D01*
X92354759Y-83975363D01*
X92122241Y-83820000D01*
X92354759Y-83664637D01*
X92554637Y-83464759D01*
X92711680Y-83229727D01*
X92819853Y-82968574D01*
X92875000Y-82691335D01*
X92875000Y-82408665D01*
X97625000Y-82408665D01*
X97625000Y-82691335D01*
X97680147Y-82968574D01*
X97788320Y-83229727D01*
X97945363Y-83464759D01*
X98145241Y-83664637D01*
X98380273Y-83821680D01*
X98390865Y-83826067D01*
X98204869Y-83937615D01*
X97996481Y-84126586D01*
X97828963Y-84352580D01*
X97708754Y-84606913D01*
X97668096Y-84740961D01*
X97790085Y-84963000D01*
X98933000Y-84963000D01*
X98933000Y-84943000D01*
X99187000Y-84943000D01*
X99187000Y-84963000D01*
X100329915Y-84963000D01*
X100451904Y-84740961D01*
X100411246Y-84606913D01*
X100291037Y-84352580D01*
X100123519Y-84126586D01*
X99915131Y-83937615D01*
X99729135Y-83826067D01*
X99739727Y-83821680D01*
X99974759Y-83664637D01*
X100174637Y-83464759D01*
X100331680Y-83229727D01*
X100439853Y-82968574D01*
X100495000Y-82691335D01*
X100495000Y-82408665D01*
X100439853Y-82131426D01*
X100331680Y-81870273D01*
X100174637Y-81635241D01*
X99974759Y-81435363D01*
X99739727Y-81278320D01*
X99729135Y-81273933D01*
X99915131Y-81162385D01*
X100123519Y-80973414D01*
X100291037Y-80747420D01*
X100411246Y-80493087D01*
X100451904Y-80359039D01*
X100329915Y-80137000D01*
X99187000Y-80137000D01*
X99187000Y-80157000D01*
X98933000Y-80157000D01*
X98933000Y-80137000D01*
X97790085Y-80137000D01*
X97668096Y-80359039D01*
X97708754Y-80493087D01*
X97828963Y-80747420D01*
X97996481Y-80973414D01*
X98204869Y-81162385D01*
X98390865Y-81273933D01*
X98380273Y-81278320D01*
X98145241Y-81435363D01*
X97945363Y-81635241D01*
X97788320Y-81870273D01*
X97680147Y-82131426D01*
X97625000Y-82408665D01*
X92875000Y-82408665D01*
X92819853Y-82131426D01*
X92711680Y-81870273D01*
X92554637Y-81635241D01*
X92354759Y-81435363D01*
X92122241Y-81280000D01*
X92354759Y-81124637D01*
X92554637Y-80924759D01*
X92711680Y-80689727D01*
X92819853Y-80428574D01*
X92875000Y-80151335D01*
X92875000Y-79868665D01*
X92819853Y-79591426D01*
X92711680Y-79330273D01*
X92554637Y-79095241D01*
X92354759Y-78895363D01*
X92122241Y-78740000D01*
X92354759Y-78584637D01*
X92554637Y-78384759D01*
X92711680Y-78149727D01*
X92819853Y-77888574D01*
X92875000Y-77611335D01*
X92875000Y-77328665D01*
X92819853Y-77051426D01*
X92711680Y-76790273D01*
X92554637Y-76555241D01*
X92354759Y-76355363D01*
X92122241Y-76200000D01*
X92354759Y-76044637D01*
X92554637Y-75844759D01*
X92711680Y-75609727D01*
X92819853Y-75348574D01*
X92875000Y-75071335D01*
X92875000Y-74788665D01*
X92819853Y-74511426D01*
X92711680Y-74250273D01*
X92554637Y-74015241D01*
X92354759Y-73815363D01*
X92122241Y-73660000D01*
X92354759Y-73504637D01*
X92554637Y-73304759D01*
X92711680Y-73069727D01*
X92819853Y-72808574D01*
X92875000Y-72531335D01*
X92875000Y-72248665D01*
X97625000Y-72248665D01*
X97625000Y-72531335D01*
X97680147Y-72808574D01*
X97788320Y-73069727D01*
X97945363Y-73304759D01*
X98145241Y-73504637D01*
X98377759Y-73660000D01*
X98145241Y-73815363D01*
X97945363Y-74015241D01*
X97788320Y-74250273D01*
X97680147Y-74511426D01*
X97625000Y-74788665D01*
X97625000Y-75071335D01*
X97680147Y-75348574D01*
X97788320Y-75609727D01*
X97945363Y-75844759D01*
X98145241Y-76044637D01*
X98377759Y-76200000D01*
X98145241Y-76355363D01*
X97945363Y-76555241D01*
X97788320Y-76790273D01*
X97680147Y-77051426D01*
X97625000Y-77328665D01*
X97625000Y-77611335D01*
X97680147Y-77888574D01*
X97788320Y-78149727D01*
X97945363Y-78384759D01*
X98145241Y-78584637D01*
X98380273Y-78741680D01*
X98390865Y-78746067D01*
X98204869Y-78857615D01*
X97996481Y-79046586D01*
X97828963Y-79272580D01*
X97708754Y-79526913D01*
X97668096Y-79660961D01*
X97790085Y-79883000D01*
X98933000Y-79883000D01*
X98933000Y-79863000D01*
X99187000Y-79863000D01*
X99187000Y-79883000D01*
X100329915Y-79883000D01*
X100451904Y-79660961D01*
X100411246Y-79526913D01*
X100291037Y-79272580D01*
X100123519Y-79046586D01*
X99915131Y-78857615D01*
X99729135Y-78746067D01*
X99739727Y-78741680D01*
X99974759Y-78584637D01*
X100174637Y-78384759D01*
X100331680Y-78149727D01*
X100439853Y-77888574D01*
X100495000Y-77611335D01*
X100495000Y-77328665D01*
X100439853Y-77051426D01*
X100331680Y-76790273D01*
X100174637Y-76555241D01*
X99974759Y-76355363D01*
X99742241Y-76200000D01*
X99974759Y-76044637D01*
X100174637Y-75844759D01*
X100331680Y-75609727D01*
X100439853Y-75348574D01*
X100495000Y-75071335D01*
X100495000Y-74788665D01*
X100439853Y-74511426D01*
X100331680Y-74250273D01*
X100174637Y-74015241D01*
X99974759Y-73815363D01*
X99742241Y-73660000D01*
X99974759Y-73504637D01*
X100174637Y-73304759D01*
X100331680Y-73069727D01*
X100439853Y-72808574D01*
X100495000Y-72531335D01*
X100495000Y-72248665D01*
X100439853Y-71971426D01*
X100331680Y-71710273D01*
X100174637Y-71475241D01*
X99974759Y-71275363D01*
X99739727Y-71118320D01*
X99729135Y-71113933D01*
X99915131Y-71002385D01*
X100123519Y-70813414D01*
X100291037Y-70587420D01*
X100411246Y-70333087D01*
X100451904Y-70199039D01*
X100329915Y-69977000D01*
X99187000Y-69977000D01*
X99187000Y-69997000D01*
X98933000Y-69997000D01*
X98933000Y-69977000D01*
X97790085Y-69977000D01*
X97668096Y-70199039D01*
X97708754Y-70333087D01*
X97828963Y-70587420D01*
X97996481Y-70813414D01*
X98204869Y-71002385D01*
X98390865Y-71113933D01*
X98380273Y-71118320D01*
X98145241Y-71275363D01*
X97945363Y-71475241D01*
X97788320Y-71710273D01*
X97680147Y-71971426D01*
X97625000Y-72248665D01*
X92875000Y-72248665D01*
X92819853Y-71971426D01*
X92711680Y-71710273D01*
X92554637Y-71475241D01*
X92354759Y-71275363D01*
X92122241Y-71120000D01*
X92354759Y-70964637D01*
X92554637Y-70764759D01*
X92711680Y-70529727D01*
X92819853Y-70268574D01*
X92875000Y-69991335D01*
X92875000Y-69708665D01*
X92819853Y-69431426D01*
X92711680Y-69170273D01*
X92554637Y-68935241D01*
X92354759Y-68735363D01*
X92122241Y-68580000D01*
X92354759Y-68424637D01*
X92554637Y-68224759D01*
X92711680Y-67989727D01*
X92819853Y-67728574D01*
X92875000Y-67451335D01*
X92875000Y-67168665D01*
X97625000Y-67168665D01*
X97625000Y-67451335D01*
X97680147Y-67728574D01*
X97788320Y-67989727D01*
X97945363Y-68224759D01*
X98145241Y-68424637D01*
X98380273Y-68581680D01*
X98390865Y-68586067D01*
X98204869Y-68697615D01*
X97996481Y-68886586D01*
X97828963Y-69112580D01*
X97708754Y-69366913D01*
X97668096Y-69500961D01*
X97790085Y-69723000D01*
X98933000Y-69723000D01*
X98933000Y-69703000D01*
X99187000Y-69703000D01*
X99187000Y-69723000D01*
X100329915Y-69723000D01*
X100451904Y-69500961D01*
X100411246Y-69366913D01*
X100291037Y-69112580D01*
X100123519Y-68886586D01*
X99915131Y-68697615D01*
X99729135Y-68586067D01*
X99739727Y-68581680D01*
X99974759Y-68424637D01*
X100174637Y-68224759D01*
X100331680Y-67989727D01*
X100439853Y-67728574D01*
X100495000Y-67451335D01*
X100495000Y-67168665D01*
X100439853Y-66891426D01*
X100331680Y-66630273D01*
X100174637Y-66395241D01*
X99974759Y-66195363D01*
X99739727Y-66038320D01*
X99478574Y-65930147D01*
X99201335Y-65875000D01*
X98918665Y-65875000D01*
X98641426Y-65930147D01*
X98380273Y-66038320D01*
X98145241Y-66195363D01*
X97945363Y-66395241D01*
X97788320Y-66630273D01*
X97680147Y-66891426D01*
X97625000Y-67168665D01*
X92875000Y-67168665D01*
X92819853Y-66891426D01*
X92711680Y-66630273D01*
X92554637Y-66395241D01*
X92354759Y-66195363D01*
X92119727Y-66038320D01*
X91858574Y-65930147D01*
X91581335Y-65875000D01*
X91298665Y-65875000D01*
X91021426Y-65930147D01*
X90760273Y-66038320D01*
X90525241Y-66195363D01*
X90325363Y-66395241D01*
X90168320Y-66630273D01*
X90060147Y-66891426D01*
X90005000Y-67168665D01*
X76860000Y-67168665D01*
X76860000Y-51958221D01*
X80526000Y-51958221D01*
X80526000Y-52181797D01*
X80569617Y-52401076D01*
X80655176Y-52607633D01*
X80779388Y-52793529D01*
X80937480Y-52951621D01*
X81123376Y-53075833D01*
X81329933Y-53161392D01*
X81549212Y-53205009D01*
X81772788Y-53205009D01*
X81992067Y-53161392D01*
X82198624Y-53075833D01*
X82379450Y-52955009D01*
X99143522Y-52955009D01*
X99186991Y-52959290D01*
X99230460Y-52955009D01*
X99230468Y-52955009D01*
X99360481Y-52942204D01*
X99527304Y-52891598D01*
X99681050Y-52809420D01*
X99815808Y-52698826D01*
X99843525Y-52665053D01*
X101844768Y-50663810D01*
X102058067Y-50621383D01*
X102264624Y-50535824D01*
X102450520Y-50411612D01*
X102608612Y-50253520D01*
X102732824Y-50067624D01*
X102818383Y-49861067D01*
X102862000Y-49641788D01*
X102862000Y-49418212D01*
X102818383Y-49198933D01*
X102732824Y-48992376D01*
X102608612Y-48806480D01*
X102450520Y-48648388D01*
X102264624Y-48524176D01*
X102058067Y-48438617D01*
X101838788Y-48395000D01*
X101615212Y-48395000D01*
X101395933Y-48438617D01*
X101189376Y-48524176D01*
X101003480Y-48648388D01*
X100845388Y-48806480D01*
X100721176Y-48992376D01*
X100635617Y-49198933D01*
X100593190Y-49412232D01*
X98820413Y-51185009D01*
X82379450Y-51185009D01*
X82198624Y-51064185D01*
X81992067Y-50978626D01*
X81772788Y-50935009D01*
X81549212Y-50935009D01*
X81329933Y-50978626D01*
X81123376Y-51064185D01*
X80937480Y-51188397D01*
X80779388Y-51346489D01*
X80655176Y-51532385D01*
X80569617Y-51738942D01*
X80526000Y-51958221D01*
X76860000Y-51958221D01*
X76860000Y-48148212D01*
X81224500Y-48148212D01*
X81224500Y-48371788D01*
X81268117Y-48591067D01*
X81353676Y-48797624D01*
X81477888Y-48983520D01*
X81635980Y-49141612D01*
X81821876Y-49265824D01*
X82028433Y-49351383D01*
X82247712Y-49395000D01*
X82471288Y-49395000D01*
X82690567Y-49351383D01*
X82897124Y-49265824D01*
X83077950Y-49145000D01*
X98278050Y-49145000D01*
X98458876Y-49265824D01*
X98665433Y-49351383D01*
X98884712Y-49395000D01*
X99108288Y-49395000D01*
X99327567Y-49351383D01*
X99534124Y-49265824D01*
X99720020Y-49141612D01*
X99878112Y-48983520D01*
X100002324Y-48797624D01*
X100087883Y-48591067D01*
X100131500Y-48371788D01*
X100131500Y-48148212D01*
X100087883Y-47928933D01*
X100002324Y-47722376D01*
X99878112Y-47536480D01*
X99720020Y-47378388D01*
X99534124Y-47254176D01*
X99327567Y-47168617D01*
X99108288Y-47125000D01*
X98884712Y-47125000D01*
X98665433Y-47168617D01*
X98458876Y-47254176D01*
X98278050Y-47375000D01*
X83077950Y-47375000D01*
X82897124Y-47254176D01*
X82690567Y-47168617D01*
X82471288Y-47125000D01*
X82247712Y-47125000D01*
X82028433Y-47168617D01*
X81821876Y-47254176D01*
X81635980Y-47378388D01*
X81477888Y-47536480D01*
X81353676Y-47722376D01*
X81268117Y-47928933D01*
X81224500Y-48148212D01*
X76860000Y-48148212D01*
X76860000Y-45880881D01*
X78758724Y-45880881D01*
X79118912Y-46370548D01*
X79782882Y-46730849D01*
X80504385Y-46954694D01*
X81255695Y-47033480D01*
X82007938Y-46964178D01*
X82732208Y-46749452D01*
X83400670Y-46397555D01*
X83441088Y-46370548D01*
X83801276Y-45880881D01*
X81280000Y-43359605D01*
X78758724Y-45880881D01*
X76860000Y-45880881D01*
X76860000Y-43155695D01*
X77426520Y-43155695D01*
X77495822Y-43907938D01*
X77710548Y-44632208D01*
X78062445Y-45300670D01*
X78089452Y-45341088D01*
X78579119Y-45701276D01*
X81100395Y-43180000D01*
X78579119Y-40658724D01*
X78089452Y-41018912D01*
X77729151Y-41682882D01*
X77505306Y-42404385D01*
X77426520Y-43155695D01*
X76860000Y-43155695D01*
X76860000Y-40479119D01*
X78758724Y-40479119D01*
X81280000Y-43000395D01*
X83801276Y-40479119D01*
X83441088Y-39989452D01*
X82777118Y-39629151D01*
X82055615Y-39405306D01*
X81304305Y-39326520D01*
X80552062Y-39395822D01*
X79827792Y-39610548D01*
X79159330Y-39962445D01*
X79118912Y-39989452D01*
X78758724Y-40479119D01*
X76860000Y-40479119D01*
X76860000Y-38760000D01*
X114910001Y-38760000D01*
X114910001Y-51074869D01*
G37*
X114910001Y-51074869D02*
X114515000Y-50679869D01*
X114515000Y-50653740D01*
X114457932Y-50366842D01*
X114345990Y-50096589D01*
X114183475Y-49853368D01*
X113976632Y-49646525D01*
X113733411Y-49484010D01*
X113463158Y-49372068D01*
X113176260Y-49315000D01*
X112883740Y-49315000D01*
X112596842Y-49372068D01*
X112326589Y-49484010D01*
X112083368Y-49646525D01*
X111876525Y-49853368D01*
X111760000Y-50027760D01*
X111643475Y-49853368D01*
X111436632Y-49646525D01*
X111193411Y-49484010D01*
X110923158Y-49372068D01*
X110636260Y-49315000D01*
X110343740Y-49315000D01*
X110056842Y-49372068D01*
X109786589Y-49484010D01*
X109597000Y-49610689D01*
X109597000Y-48003002D01*
X109601281Y-47959535D01*
X109597000Y-47916069D01*
X109597000Y-47916059D01*
X109584195Y-47786046D01*
X109533589Y-47619223D01*
X109451411Y-47465477D01*
X109387667Y-47387805D01*
X109368532Y-47364489D01*
X109368530Y-47364487D01*
X109340817Y-47330719D01*
X109307049Y-47303006D01*
X102620498Y-40616456D01*
X102592781Y-40582683D01*
X102458023Y-40472089D01*
X102304277Y-40389911D01*
X102137454Y-40339305D01*
X102007441Y-40326500D01*
X102007433Y-40326500D01*
X101963964Y-40322219D01*
X101920495Y-40326500D01*
X88181465Y-40326500D01*
X88137999Y-40322219D01*
X88094533Y-40326500D01*
X88094523Y-40326500D01*
X87964510Y-40339305D01*
X87797687Y-40389911D01*
X87643941Y-40472089D01*
X87643939Y-40472090D01*
X87643940Y-40472090D01*
X87542953Y-40554968D01*
X87542951Y-40554970D01*
X87509183Y-40582683D01*
X87481470Y-40616451D01*
X85256956Y-42840966D01*
X85223183Y-42868683D01*
X85114734Y-43000828D01*
X85064178Y-42452062D01*
X84849452Y-41727792D01*
X84497555Y-41059330D01*
X84470548Y-41018912D01*
X83980881Y-40658724D01*
X81459605Y-43180000D01*
X83980881Y-45701276D01*
X84470548Y-45341088D01*
X84830849Y-44677118D01*
X84967000Y-44238272D01*
X84967001Y-45128549D01*
X84846176Y-45309376D01*
X84760617Y-45515933D01*
X84717000Y-45735212D01*
X84717000Y-45958788D01*
X84760617Y-46178067D01*
X84846176Y-46384624D01*
X84970388Y-46570520D01*
X85128480Y-46728612D01*
X85314376Y-46852824D01*
X85520933Y-46938383D01*
X85740212Y-46982000D01*
X85963788Y-46982000D01*
X86183067Y-46938383D01*
X86389624Y-46852824D01*
X86575520Y-46728612D01*
X86733612Y-46570520D01*
X86857824Y-46384624D01*
X86943383Y-46178067D01*
X86987000Y-45958788D01*
X86987000Y-45735212D01*
X86943383Y-45515933D01*
X86857824Y-45309376D01*
X86737000Y-45128550D01*
X86737000Y-43937400D01*
X86751176Y-43971624D01*
X86875388Y-44157520D01*
X87033480Y-44315612D01*
X87219376Y-44439824D01*
X87425933Y-44525383D01*
X87645212Y-44569000D01*
X87868788Y-44569000D01*
X88088067Y-44525383D01*
X88294624Y-44439824D01*
X88480520Y-44315612D01*
X88638612Y-44157520D01*
X88658003Y-44128500D01*
X102639424Y-44128500D01*
X104320141Y-45809217D01*
X104189933Y-45835117D01*
X103983376Y-45920676D01*
X103797480Y-46044888D01*
X103639388Y-46202980D01*
X103515176Y-46388876D01*
X103429617Y-46595433D01*
X103386000Y-46814712D01*
X103386000Y-47038288D01*
X103429617Y-47257567D01*
X103515176Y-47464124D01*
X103633455Y-47641141D01*
X103445655Y-100475452D01*
X103441219Y-100520500D01*
X103449612Y-100605724D01*
X103457694Y-100690888D01*
X103458149Y-100692408D01*
X103458305Y-100693990D01*
X103483153Y-100775900D01*
X103507707Y-100857890D01*
X103508451Y-100859295D01*
X103508912Y-100860813D01*
X103549230Y-100936243D01*
X103589338Y-101011927D01*
X103590342Y-101013159D01*
X103591090Y-101014559D01*
X103645438Y-101080782D01*
X103699452Y-101147077D01*
X103734337Y-101175915D01*
X111559461Y-109001040D01*
X111545000Y-109073740D01*
X111545000Y-109366260D01*
X111602068Y-109653158D01*
X111714010Y-109923411D01*
X111876525Y-110166632D01*
X112083368Y-110373475D01*
X112257760Y-110490000D01*
X112083368Y-110606525D01*
X111876525Y-110813368D01*
X111714010Y-111056589D01*
X111602068Y-111326842D01*
X111545000Y-111613740D01*
X111545000Y-111906260D01*
X111602068Y-112193158D01*
X111714010Y-112463411D01*
X111876525Y-112706632D01*
X112083368Y-112913475D01*
X112265534Y-113035195D01*
X112148645Y-113104822D01*
X111932412Y-113299731D01*
X111758359Y-113533080D01*
X111633175Y-113795901D01*
X111588524Y-113943110D01*
X111709845Y-114173000D01*
X112903000Y-114173000D01*
X112903000Y-114153000D01*
X113157000Y-114153000D01*
X113157000Y-114173000D01*
X114350155Y-114173000D01*
X114471476Y-113943110D01*
X114426825Y-113795901D01*
X114301641Y-113533080D01*
X114127588Y-113299731D01*
X113911355Y-113104822D01*
X113794466Y-113035195D01*
X113976632Y-112913475D01*
X114183475Y-112706632D01*
X114345990Y-112463411D01*
X114457932Y-112193158D01*
X114515000Y-111906260D01*
X114515000Y-111613740D01*
X114457932Y-111326842D01*
X114345990Y-111056589D01*
X114183475Y-110813368D01*
X113976632Y-110606525D01*
X113802240Y-110490000D01*
X113976632Y-110373475D01*
X114183475Y-110166632D01*
X114345990Y-109923411D01*
X114457932Y-109653158D01*
X114515000Y-109366260D01*
X114515000Y-109073740D01*
X114457932Y-108786842D01*
X114345990Y-108516589D01*
X114183475Y-108273368D01*
X113976632Y-108066525D01*
X113802240Y-107950000D01*
X113976632Y-107833475D01*
X114183475Y-107626632D01*
X114345990Y-107383411D01*
X114457932Y-107113158D01*
X114515000Y-106826260D01*
X114515000Y-106533740D01*
X114457932Y-106246842D01*
X114345990Y-105976589D01*
X114183475Y-105733368D01*
X114051620Y-105601513D01*
X114124180Y-105579502D01*
X114234494Y-105520537D01*
X114331185Y-105441185D01*
X114410537Y-105344494D01*
X114469502Y-105234180D01*
X114505812Y-105114482D01*
X114518072Y-104990000D01*
X114518072Y-103290000D01*
X114505812Y-103165518D01*
X114469502Y-103045820D01*
X114410537Y-102935506D01*
X114331185Y-102838815D01*
X114234494Y-102759463D01*
X114124180Y-102700498D01*
X114004482Y-102664188D01*
X113880000Y-102651928D01*
X112180000Y-102651928D01*
X112055518Y-102664188D01*
X111935820Y-102700498D01*
X111825506Y-102759463D01*
X111728815Y-102838815D01*
X111649463Y-102935506D01*
X111590498Y-103045820D01*
X111554188Y-103165518D01*
X111541928Y-103290000D01*
X111541928Y-104990000D01*
X111554188Y-105114482D01*
X111590498Y-105234180D01*
X111649463Y-105344494D01*
X111728815Y-105441185D01*
X111825506Y-105520537D01*
X111935820Y-105579502D01*
X112008380Y-105601513D01*
X111876525Y-105733368D01*
X111714010Y-105976589D01*
X111602068Y-106246842D01*
X111553348Y-106491770D01*
X105216803Y-100155225D01*
X105219427Y-99416890D01*
X111588524Y-99416890D01*
X111633175Y-99564099D01*
X111758359Y-99826920D01*
X111932412Y-100060269D01*
X112148645Y-100255178D01*
X112398748Y-100404157D01*
X112673109Y-100501481D01*
X112903000Y-100380814D01*
X112903000Y-99187000D01*
X113157000Y-99187000D01*
X113157000Y-100380814D01*
X113386891Y-100501481D01*
X113661252Y-100404157D01*
X113911355Y-100255178D01*
X114127588Y-100060269D01*
X114301641Y-99826920D01*
X114426825Y-99564099D01*
X114471476Y-99416890D01*
X114350155Y-99187000D01*
X113157000Y-99187000D01*
X112903000Y-99187000D01*
X111709845Y-99187000D01*
X111588524Y-99416890D01*
X105219427Y-99416890D01*
X105403437Y-47648785D01*
X105526824Y-47464124D01*
X105612383Y-47257567D01*
X105638283Y-47127359D01*
X106366501Y-47855578D01*
X106366500Y-49700476D01*
X106366501Y-49700486D01*
X106366500Y-88158031D01*
X106362219Y-88201500D01*
X106366500Y-88244969D01*
X106366500Y-88244976D01*
X106379305Y-88374989D01*
X106429911Y-88541812D01*
X106512089Y-88695558D01*
X106622683Y-88830317D01*
X106656456Y-88858034D01*
X111541928Y-93743507D01*
X111541928Y-94830000D01*
X111554188Y-94954482D01*
X111590498Y-95074180D01*
X111649463Y-95184494D01*
X111728815Y-95281185D01*
X111825506Y-95360537D01*
X111935820Y-95419502D01*
X112008380Y-95441513D01*
X111876525Y-95573368D01*
X111714010Y-95816589D01*
X111602068Y-96086842D01*
X111545000Y-96373740D01*
X111545000Y-96666260D01*
X111602068Y-96953158D01*
X111714010Y-97223411D01*
X111876525Y-97466632D01*
X112083368Y-97673475D01*
X112265534Y-97795195D01*
X112148645Y-97864822D01*
X111932412Y-98059731D01*
X111758359Y-98293080D01*
X111633175Y-98555901D01*
X111588524Y-98703110D01*
X111709845Y-98933000D01*
X112903000Y-98933000D01*
X112903000Y-98913000D01*
X113157000Y-98913000D01*
X113157000Y-98933000D01*
X114350155Y-98933000D01*
X114471476Y-98703110D01*
X114426825Y-98555901D01*
X114301641Y-98293080D01*
X114127588Y-98059731D01*
X113911355Y-97864822D01*
X113794466Y-97795195D01*
X113976632Y-97673475D01*
X114183475Y-97466632D01*
X114345990Y-97223411D01*
X114457932Y-96953158D01*
X114515000Y-96666260D01*
X114515000Y-96373740D01*
X114500539Y-96301040D01*
X114910000Y-95891579D01*
X114910000Y-116180000D01*
X76860000Y-116180000D01*
X76860000Y-114460881D01*
X78758724Y-114460881D01*
X79118912Y-114950548D01*
X79782882Y-115310849D01*
X80504385Y-115534694D01*
X81255695Y-115613480D01*
X82007938Y-115544178D01*
X82732208Y-115329452D01*
X83400670Y-114977555D01*
X83441088Y-114950548D01*
X83657096Y-114656890D01*
X111588524Y-114656890D01*
X111633175Y-114804099D01*
X111758359Y-115066920D01*
X111932412Y-115300269D01*
X112148645Y-115495178D01*
X112398748Y-115644157D01*
X112673109Y-115741481D01*
X112903000Y-115620814D01*
X112903000Y-114427000D01*
X113157000Y-114427000D01*
X113157000Y-115620814D01*
X113386891Y-115741481D01*
X113661252Y-115644157D01*
X113911355Y-115495178D01*
X114127588Y-115300269D01*
X114301641Y-115066920D01*
X114426825Y-114804099D01*
X114471476Y-114656890D01*
X114350155Y-114427000D01*
X113157000Y-114427000D01*
X112903000Y-114427000D01*
X111709845Y-114427000D01*
X111588524Y-114656890D01*
X83657096Y-114656890D01*
X83801276Y-114460881D01*
X81280000Y-111939605D01*
X78758724Y-114460881D01*
X76860000Y-114460881D01*
X76860000Y-111735695D01*
X77426520Y-111735695D01*
X77495822Y-112487938D01*
X77710548Y-113212208D01*
X78062445Y-113880670D01*
X78089452Y-113921088D01*
X78579119Y-114281276D01*
X81100395Y-111760000D01*
X81459605Y-111760000D01*
X83980881Y-114281276D01*
X84470548Y-113921088D01*
X84830849Y-113257118D01*
X85054694Y-112535615D01*
X85091985Y-112180000D01*
X93761928Y-112180000D01*
X93761928Y-113880000D01*
X93774188Y-114004482D01*
X93810498Y-114124180D01*
X93869463Y-114234494D01*
X93948815Y-114331185D01*
X94045506Y-114410537D01*
X94155820Y-114469502D01*
X94275518Y-114505812D01*
X94400000Y-114518072D01*
X96100000Y-114518072D01*
X96224482Y-114505812D01*
X96344180Y-114469502D01*
X96454494Y-114410537D01*
X96551185Y-114331185D01*
X96630537Y-114234494D01*
X96689502Y-114124180D01*
X96713966Y-114043534D01*
X96789731Y-114127588D01*
X97023080Y-114301641D01*
X97285901Y-114426825D01*
X97433110Y-114471476D01*
X97663000Y-114350155D01*
X97663000Y-113157000D01*
X97917000Y-113157000D01*
X97917000Y-114350155D01*
X98146890Y-114471476D01*
X98294099Y-114426825D01*
X98556920Y-114301641D01*
X98790269Y-114127588D01*
X98985178Y-113911355D01*
X99134157Y-113661252D01*
X99231481Y-113386891D01*
X99110814Y-113157000D01*
X97917000Y-113157000D01*
X97663000Y-113157000D01*
X97643000Y-113157000D01*
X97643000Y-112903000D01*
X97663000Y-112903000D01*
X97663000Y-111709845D01*
X97917000Y-111709845D01*
X97917000Y-112903000D01*
X99110814Y-112903000D01*
X99231481Y-112673109D01*
X99134157Y-112398748D01*
X98985178Y-112148645D01*
X98790269Y-111932412D01*
X98556920Y-111758359D01*
X98294099Y-111633175D01*
X98146890Y-111588524D01*
X97917000Y-111709845D01*
X97663000Y-111709845D01*
X97433110Y-111588524D01*
X97285901Y-111633175D01*
X97023080Y-111758359D01*
X96789731Y-111932412D01*
X96713966Y-112016466D01*
X96689502Y-111935820D01*
X96630537Y-111825506D01*
X96551185Y-111728815D01*
X96454494Y-111649463D01*
X96344180Y-111590498D01*
X96224482Y-111554188D01*
X96100000Y-111541928D01*
X94400000Y-111541928D01*
X94275518Y-111554188D01*
X94155820Y-111590498D01*
X94045506Y-111649463D01*
X93948815Y-111728815D01*
X93869463Y-111825506D01*
X93810498Y-111935820D01*
X93774188Y-112055518D01*
X93761928Y-112180000D01*
X85091985Y-112180000D01*
X85133480Y-111784305D01*
X85064178Y-111032062D01*
X84849452Y-110307792D01*
X84497555Y-109639330D01*
X84470548Y-109598912D01*
X83980881Y-109238724D01*
X81459605Y-111760000D01*
X81100395Y-111760000D01*
X78579119Y-109238724D01*
X78089452Y-109598912D01*
X77729151Y-110262882D01*
X77505306Y-110984385D01*
X77426520Y-111735695D01*
X76860000Y-111735695D01*
X76860000Y-109059119D01*
X78758724Y-109059119D01*
X81280000Y-111580395D01*
X83801276Y-109059119D01*
X83441088Y-108569452D01*
X82777118Y-108209151D01*
X82055615Y-107985306D01*
X81304305Y-107906520D01*
X80552062Y-107975822D01*
X79827792Y-108190548D01*
X79159330Y-108542445D01*
X79118912Y-108569452D01*
X78758724Y-109059119D01*
X76860000Y-109059119D01*
X76860000Y-96940000D01*
X78521928Y-96940000D01*
X78521928Y-98640000D01*
X78534188Y-98764482D01*
X78570498Y-98884180D01*
X78629463Y-98994494D01*
X78708815Y-99091185D01*
X78805506Y-99170537D01*
X78915820Y-99229502D01*
X78988380Y-99251513D01*
X78856525Y-99383368D01*
X78694010Y-99626589D01*
X78582068Y-99896842D01*
X78525000Y-100183740D01*
X78525000Y-100476260D01*
X78582068Y-100763158D01*
X78694010Y-101033411D01*
X78856525Y-101276632D01*
X79063368Y-101483475D01*
X79237760Y-101600000D01*
X79063368Y-101716525D01*
X78856525Y-101923368D01*
X78694010Y-102166589D01*
X78582068Y-102436842D01*
X78525000Y-102723740D01*
X78525000Y-103016260D01*
X78582068Y-103303158D01*
X78694010Y-103573411D01*
X78856525Y-103816632D01*
X79063368Y-104023475D01*
X79237760Y-104140000D01*
X79063368Y-104256525D01*
X78856525Y-104463368D01*
X78694010Y-104706589D01*
X78582068Y-104976842D01*
X78525000Y-105263740D01*
X78525000Y-105556260D01*
X78582068Y-105843158D01*
X78694010Y-106113411D01*
X78856525Y-106356632D01*
X79063368Y-106563475D01*
X79306589Y-106725990D01*
X79576842Y-106837932D01*
X79863740Y-106895000D01*
X80156260Y-106895000D01*
X80443158Y-106837932D01*
X80713411Y-106725990D01*
X80956632Y-106563475D01*
X81163475Y-106356632D01*
X81280000Y-106182240D01*
X81396525Y-106356632D01*
X81603368Y-106563475D01*
X81846589Y-106725990D01*
X82116842Y-106837932D01*
X82403740Y-106895000D01*
X82696260Y-106895000D01*
X82983158Y-106837932D01*
X83253411Y-106725990D01*
X83496632Y-106563475D01*
X83703475Y-106356632D01*
X83865990Y-106113411D01*
X83977932Y-105843158D01*
X84035000Y-105556260D01*
X84035000Y-105263740D01*
X83977932Y-104976842D01*
X83865990Y-104706589D01*
X83703475Y-104463368D01*
X83496632Y-104256525D01*
X83322240Y-104140000D01*
X83496632Y-104023475D01*
X83703475Y-103816632D01*
X83865990Y-103573411D01*
X83977932Y-103303158D01*
X84035000Y-103016260D01*
X84035000Y-102723740D01*
X83977932Y-102436842D01*
X83865990Y-102166589D01*
X83703475Y-101923368D01*
X83496632Y-101716525D01*
X83322240Y-101600000D01*
X83496632Y-101483475D01*
X83703475Y-101276632D01*
X83865990Y-101033411D01*
X83977932Y-100763158D01*
X84035000Y-100476260D01*
X84035000Y-100183740D01*
X83977932Y-99896842D01*
X83865990Y-99626589D01*
X83703475Y-99383368D01*
X83496632Y-99176525D01*
X83322240Y-99060000D01*
X83496632Y-98943475D01*
X83703475Y-98736632D01*
X83865990Y-98493411D01*
X83977932Y-98223158D01*
X84035000Y-97936260D01*
X84035000Y-97643740D01*
X83977932Y-97356842D01*
X83865990Y-97086589D01*
X83703475Y-96843368D01*
X83496632Y-96636525D01*
X83253411Y-96474010D01*
X82983158Y-96362068D01*
X82696260Y-96305000D01*
X82403740Y-96305000D01*
X82116842Y-96362068D01*
X81846589Y-96474010D01*
X81603368Y-96636525D01*
X81471513Y-96768380D01*
X81449502Y-96695820D01*
X81390537Y-96585506D01*
X81311185Y-96488815D01*
X81214494Y-96409463D01*
X81104180Y-96350498D01*
X80984482Y-96314188D01*
X80860000Y-96301928D01*
X79160000Y-96301928D01*
X79035518Y-96314188D01*
X78915820Y-96350498D01*
X78805506Y-96409463D01*
X78708815Y-96488815D01*
X78629463Y-96585506D01*
X78570498Y-96695820D01*
X78534188Y-96815518D01*
X78521928Y-96940000D01*
X76860000Y-96940000D01*
X76860000Y-67168665D01*
X90005000Y-67168665D01*
X90005000Y-67451335D01*
X90060147Y-67728574D01*
X90168320Y-67989727D01*
X90325363Y-68224759D01*
X90525241Y-68424637D01*
X90757759Y-68580000D01*
X90525241Y-68735363D01*
X90325363Y-68935241D01*
X90168320Y-69170273D01*
X90060147Y-69431426D01*
X90005000Y-69708665D01*
X90005000Y-69991335D01*
X90060147Y-70268574D01*
X90168320Y-70529727D01*
X90325363Y-70764759D01*
X90525241Y-70964637D01*
X90757759Y-71120000D01*
X90525241Y-71275363D01*
X90325363Y-71475241D01*
X90168320Y-71710273D01*
X90060147Y-71971426D01*
X90005000Y-72248665D01*
X90005000Y-72531335D01*
X90060147Y-72808574D01*
X90168320Y-73069727D01*
X90325363Y-73304759D01*
X90525241Y-73504637D01*
X90757759Y-73660000D01*
X90525241Y-73815363D01*
X90325363Y-74015241D01*
X90168320Y-74250273D01*
X90060147Y-74511426D01*
X90005000Y-74788665D01*
X90005000Y-75071335D01*
X90060147Y-75348574D01*
X90168320Y-75609727D01*
X90325363Y-75844759D01*
X90525241Y-76044637D01*
X90757759Y-76200000D01*
X90525241Y-76355363D01*
X90325363Y-76555241D01*
X90168320Y-76790273D01*
X90060147Y-77051426D01*
X90005000Y-77328665D01*
X90005000Y-77611335D01*
X90060147Y-77888574D01*
X90168320Y-78149727D01*
X90325363Y-78384759D01*
X90525241Y-78584637D01*
X90757759Y-78740000D01*
X90525241Y-78895363D01*
X90325363Y-79095241D01*
X90168320Y-79330273D01*
X90060147Y-79591426D01*
X90005000Y-79868665D01*
X90005000Y-80151335D01*
X90060147Y-80428574D01*
X90168320Y-80689727D01*
X90325363Y-80924759D01*
X90525241Y-81124637D01*
X90757759Y-81280000D01*
X90525241Y-81435363D01*
X90325363Y-81635241D01*
X90168320Y-81870273D01*
X90060147Y-82131426D01*
X90005000Y-82408665D01*
X90005000Y-82691335D01*
X90060147Y-82968574D01*
X90168320Y-83229727D01*
X90325363Y-83464759D01*
X90525241Y-83664637D01*
X90757759Y-83820000D01*
X90525241Y-83975363D01*
X90325363Y-84175241D01*
X90168320Y-84410273D01*
X90060147Y-84671426D01*
X90005000Y-84948665D01*
X90005000Y-85231335D01*
X90060147Y-85508574D01*
X90168320Y-85769727D01*
X90325363Y-86004759D01*
X90525241Y-86204637D01*
X90757759Y-86360000D01*
X90525241Y-86515363D01*
X90325363Y-86715241D01*
X90168320Y-86950273D01*
X90060147Y-87211426D01*
X90005000Y-87488665D01*
X90005000Y-87771335D01*
X90060147Y-88048574D01*
X90168320Y-88309727D01*
X90325363Y-88544759D01*
X90525241Y-88744637D01*
X90760273Y-88901680D01*
X91021426Y-89009853D01*
X91298665Y-89065000D01*
X91581335Y-89065000D01*
X91858574Y-89009853D01*
X92119727Y-88901680D01*
X92354759Y-88744637D01*
X92554637Y-88544759D01*
X92711680Y-88309727D01*
X92819853Y-88048574D01*
X92875000Y-87771335D01*
X92875000Y-87488665D01*
X92819853Y-87211426D01*
X92711680Y-86950273D01*
X92631317Y-86830000D01*
X97621928Y-86830000D01*
X97621928Y-88430000D01*
X97634188Y-88554482D01*
X97670498Y-88674180D01*
X97729463Y-88784494D01*
X97808815Y-88881185D01*
X97905506Y-88960537D01*
X98015820Y-89019502D01*
X98135518Y-89055812D01*
X98260000Y-89068072D01*
X99860000Y-89068072D01*
X99984482Y-89055812D01*
X100104180Y-89019502D01*
X100214494Y-88960537D01*
X100311185Y-88881185D01*
X100390537Y-88784494D01*
X100449502Y-88674180D01*
X100485812Y-88554482D01*
X100498072Y-88430000D01*
X100498072Y-86830000D01*
X100485812Y-86705518D01*
X100449502Y-86585820D01*
X100390537Y-86475506D01*
X100311185Y-86378815D01*
X100214494Y-86299463D01*
X100104180Y-86240498D01*
X99984482Y-86204188D01*
X99959920Y-86201769D01*
X100123519Y-86053414D01*
X100291037Y-85827420D01*
X100411246Y-85573087D01*
X100451904Y-85439039D01*
X100329915Y-85217000D01*
X99187000Y-85217000D01*
X99187000Y-85237000D01*
X98933000Y-85237000D01*
X98933000Y-85217000D01*
X97790085Y-85217000D01*
X97668096Y-85439039D01*
X97708754Y-85573087D01*
X97828963Y-85827420D01*
X97996481Y-86053414D01*
X98160080Y-86201769D01*
X98135518Y-86204188D01*
X98015820Y-86240498D01*
X97905506Y-86299463D01*
X97808815Y-86378815D01*
X97729463Y-86475506D01*
X97670498Y-86585820D01*
X97634188Y-86705518D01*
X97621928Y-86830000D01*
X92631317Y-86830000D01*
X92554637Y-86715241D01*
X92354759Y-86515363D01*
X92122241Y-86360000D01*
X92354759Y-86204637D01*
X92554637Y-86004759D01*
X92711680Y-85769727D01*
X92819853Y-85508574D01*
X92875000Y-85231335D01*
X92875000Y-84948665D01*
X92819853Y-84671426D01*
X92711680Y-84410273D01*
X92554637Y-84175241D01*
X92354759Y-83975363D01*
X92122241Y-83820000D01*
X92354759Y-83664637D01*
X92554637Y-83464759D01*
X92711680Y-83229727D01*
X92819853Y-82968574D01*
X92875000Y-82691335D01*
X92875000Y-82408665D01*
X97625000Y-82408665D01*
X97625000Y-82691335D01*
X97680147Y-82968574D01*
X97788320Y-83229727D01*
X97945363Y-83464759D01*
X98145241Y-83664637D01*
X98380273Y-83821680D01*
X98390865Y-83826067D01*
X98204869Y-83937615D01*
X97996481Y-84126586D01*
X97828963Y-84352580D01*
X97708754Y-84606913D01*
X97668096Y-84740961D01*
X97790085Y-84963000D01*
X98933000Y-84963000D01*
X98933000Y-84943000D01*
X99187000Y-84943000D01*
X99187000Y-84963000D01*
X100329915Y-84963000D01*
X100451904Y-84740961D01*
X100411246Y-84606913D01*
X100291037Y-84352580D01*
X100123519Y-84126586D01*
X99915131Y-83937615D01*
X99729135Y-83826067D01*
X99739727Y-83821680D01*
X99974759Y-83664637D01*
X100174637Y-83464759D01*
X100331680Y-83229727D01*
X100439853Y-82968574D01*
X100495000Y-82691335D01*
X100495000Y-82408665D01*
X100439853Y-82131426D01*
X100331680Y-81870273D01*
X100174637Y-81635241D01*
X99974759Y-81435363D01*
X99739727Y-81278320D01*
X99729135Y-81273933D01*
X99915131Y-81162385D01*
X100123519Y-80973414D01*
X100291037Y-80747420D01*
X100411246Y-80493087D01*
X100451904Y-80359039D01*
X100329915Y-80137000D01*
X99187000Y-80137000D01*
X99187000Y-80157000D01*
X98933000Y-80157000D01*
X98933000Y-80137000D01*
X97790085Y-80137000D01*
X97668096Y-80359039D01*
X97708754Y-80493087D01*
X97828963Y-80747420D01*
X97996481Y-80973414D01*
X98204869Y-81162385D01*
X98390865Y-81273933D01*
X98380273Y-81278320D01*
X98145241Y-81435363D01*
X97945363Y-81635241D01*
X97788320Y-81870273D01*
X97680147Y-82131426D01*
X97625000Y-82408665D01*
X92875000Y-82408665D01*
X92819853Y-82131426D01*
X92711680Y-81870273D01*
X92554637Y-81635241D01*
X92354759Y-81435363D01*
X92122241Y-81280000D01*
X92354759Y-81124637D01*
X92554637Y-80924759D01*
X92711680Y-80689727D01*
X92819853Y-80428574D01*
X92875000Y-80151335D01*
X92875000Y-79868665D01*
X92819853Y-79591426D01*
X92711680Y-79330273D01*
X92554637Y-79095241D01*
X92354759Y-78895363D01*
X92122241Y-78740000D01*
X92354759Y-78584637D01*
X92554637Y-78384759D01*
X92711680Y-78149727D01*
X92819853Y-77888574D01*
X92875000Y-77611335D01*
X92875000Y-77328665D01*
X92819853Y-77051426D01*
X92711680Y-76790273D01*
X92554637Y-76555241D01*
X92354759Y-76355363D01*
X92122241Y-76200000D01*
X92354759Y-76044637D01*
X92554637Y-75844759D01*
X92711680Y-75609727D01*
X92819853Y-75348574D01*
X92875000Y-75071335D01*
X92875000Y-74788665D01*
X92819853Y-74511426D01*
X92711680Y-74250273D01*
X92554637Y-74015241D01*
X92354759Y-73815363D01*
X92122241Y-73660000D01*
X92354759Y-73504637D01*
X92554637Y-73304759D01*
X92711680Y-73069727D01*
X92819853Y-72808574D01*
X92875000Y-72531335D01*
X92875000Y-72248665D01*
X97625000Y-72248665D01*
X97625000Y-72531335D01*
X97680147Y-72808574D01*
X97788320Y-73069727D01*
X97945363Y-73304759D01*
X98145241Y-73504637D01*
X98377759Y-73660000D01*
X98145241Y-73815363D01*
X97945363Y-74015241D01*
X97788320Y-74250273D01*
X97680147Y-74511426D01*
X97625000Y-74788665D01*
X97625000Y-75071335D01*
X97680147Y-75348574D01*
X97788320Y-75609727D01*
X97945363Y-75844759D01*
X98145241Y-76044637D01*
X98377759Y-76200000D01*
X98145241Y-76355363D01*
X97945363Y-76555241D01*
X97788320Y-76790273D01*
X97680147Y-77051426D01*
X97625000Y-77328665D01*
X97625000Y-77611335D01*
X97680147Y-77888574D01*
X97788320Y-78149727D01*
X97945363Y-78384759D01*
X98145241Y-78584637D01*
X98380273Y-78741680D01*
X98390865Y-78746067D01*
X98204869Y-78857615D01*
X97996481Y-79046586D01*
X97828963Y-79272580D01*
X97708754Y-79526913D01*
X97668096Y-79660961D01*
X97790085Y-79883000D01*
X98933000Y-79883000D01*
X98933000Y-79863000D01*
X99187000Y-79863000D01*
X99187000Y-79883000D01*
X100329915Y-79883000D01*
X100451904Y-79660961D01*
X100411246Y-79526913D01*
X100291037Y-79272580D01*
X100123519Y-79046586D01*
X99915131Y-78857615D01*
X99729135Y-78746067D01*
X99739727Y-78741680D01*
X99974759Y-78584637D01*
X100174637Y-78384759D01*
X100331680Y-78149727D01*
X100439853Y-77888574D01*
X100495000Y-77611335D01*
X100495000Y-77328665D01*
X100439853Y-77051426D01*
X100331680Y-76790273D01*
X100174637Y-76555241D01*
X99974759Y-76355363D01*
X99742241Y-76200000D01*
X99974759Y-76044637D01*
X100174637Y-75844759D01*
X100331680Y-75609727D01*
X100439853Y-75348574D01*
X100495000Y-75071335D01*
X100495000Y-74788665D01*
X100439853Y-74511426D01*
X100331680Y-74250273D01*
X100174637Y-74015241D01*
X99974759Y-73815363D01*
X99742241Y-73660000D01*
X99974759Y-73504637D01*
X100174637Y-73304759D01*
X100331680Y-73069727D01*
X100439853Y-72808574D01*
X100495000Y-72531335D01*
X100495000Y-72248665D01*
X100439853Y-71971426D01*
X100331680Y-71710273D01*
X100174637Y-71475241D01*
X99974759Y-71275363D01*
X99739727Y-71118320D01*
X99729135Y-71113933D01*
X99915131Y-71002385D01*
X100123519Y-70813414D01*
X100291037Y-70587420D01*
X100411246Y-70333087D01*
X100451904Y-70199039D01*
X100329915Y-69977000D01*
X99187000Y-69977000D01*
X99187000Y-69997000D01*
X98933000Y-69997000D01*
X98933000Y-69977000D01*
X97790085Y-69977000D01*
X97668096Y-70199039D01*
X97708754Y-70333087D01*
X97828963Y-70587420D01*
X97996481Y-70813414D01*
X98204869Y-71002385D01*
X98390865Y-71113933D01*
X98380273Y-71118320D01*
X98145241Y-71275363D01*
X97945363Y-71475241D01*
X97788320Y-71710273D01*
X97680147Y-71971426D01*
X97625000Y-72248665D01*
X92875000Y-72248665D01*
X92819853Y-71971426D01*
X92711680Y-71710273D01*
X92554637Y-71475241D01*
X92354759Y-71275363D01*
X92122241Y-71120000D01*
X92354759Y-70964637D01*
X92554637Y-70764759D01*
X92711680Y-70529727D01*
X92819853Y-70268574D01*
X92875000Y-69991335D01*
X92875000Y-69708665D01*
X92819853Y-69431426D01*
X92711680Y-69170273D01*
X92554637Y-68935241D01*
X92354759Y-68735363D01*
X92122241Y-68580000D01*
X92354759Y-68424637D01*
X92554637Y-68224759D01*
X92711680Y-67989727D01*
X92819853Y-67728574D01*
X92875000Y-67451335D01*
X92875000Y-67168665D01*
X97625000Y-67168665D01*
X97625000Y-67451335D01*
X97680147Y-67728574D01*
X97788320Y-67989727D01*
X97945363Y-68224759D01*
X98145241Y-68424637D01*
X98380273Y-68581680D01*
X98390865Y-68586067D01*
X98204869Y-68697615D01*
X97996481Y-68886586D01*
X97828963Y-69112580D01*
X97708754Y-69366913D01*
X97668096Y-69500961D01*
X97790085Y-69723000D01*
X98933000Y-69723000D01*
X98933000Y-69703000D01*
X99187000Y-69703000D01*
X99187000Y-69723000D01*
X100329915Y-69723000D01*
X100451904Y-69500961D01*
X100411246Y-69366913D01*
X100291037Y-69112580D01*
X100123519Y-68886586D01*
X99915131Y-68697615D01*
X99729135Y-68586067D01*
X99739727Y-68581680D01*
X99974759Y-68424637D01*
X100174637Y-68224759D01*
X100331680Y-67989727D01*
X100439853Y-67728574D01*
X100495000Y-67451335D01*
X100495000Y-67168665D01*
X100439853Y-66891426D01*
X100331680Y-66630273D01*
X100174637Y-66395241D01*
X99974759Y-66195363D01*
X99739727Y-66038320D01*
X99478574Y-65930147D01*
X99201335Y-65875000D01*
X98918665Y-65875000D01*
X98641426Y-65930147D01*
X98380273Y-66038320D01*
X98145241Y-66195363D01*
X97945363Y-66395241D01*
X97788320Y-66630273D01*
X97680147Y-66891426D01*
X97625000Y-67168665D01*
X92875000Y-67168665D01*
X92819853Y-66891426D01*
X92711680Y-66630273D01*
X92554637Y-66395241D01*
X92354759Y-66195363D01*
X92119727Y-66038320D01*
X91858574Y-65930147D01*
X91581335Y-65875000D01*
X91298665Y-65875000D01*
X91021426Y-65930147D01*
X90760273Y-66038320D01*
X90525241Y-66195363D01*
X90325363Y-66395241D01*
X90168320Y-66630273D01*
X90060147Y-66891426D01*
X90005000Y-67168665D01*
X76860000Y-67168665D01*
X76860000Y-51958221D01*
X80526000Y-51958221D01*
X80526000Y-52181797D01*
X80569617Y-52401076D01*
X80655176Y-52607633D01*
X80779388Y-52793529D01*
X80937480Y-52951621D01*
X81123376Y-53075833D01*
X81329933Y-53161392D01*
X81549212Y-53205009D01*
X81772788Y-53205009D01*
X81992067Y-53161392D01*
X82198624Y-53075833D01*
X82379450Y-52955009D01*
X99143522Y-52955009D01*
X99186991Y-52959290D01*
X99230460Y-52955009D01*
X99230468Y-52955009D01*
X99360481Y-52942204D01*
X99527304Y-52891598D01*
X99681050Y-52809420D01*
X99815808Y-52698826D01*
X99843525Y-52665053D01*
X101844768Y-50663810D01*
X102058067Y-50621383D01*
X102264624Y-50535824D01*
X102450520Y-50411612D01*
X102608612Y-50253520D01*
X102732824Y-50067624D01*
X102818383Y-49861067D01*
X102862000Y-49641788D01*
X102862000Y-49418212D01*
X102818383Y-49198933D01*
X102732824Y-48992376D01*
X102608612Y-48806480D01*
X102450520Y-48648388D01*
X102264624Y-48524176D01*
X102058067Y-48438617D01*
X101838788Y-48395000D01*
X101615212Y-48395000D01*
X101395933Y-48438617D01*
X101189376Y-48524176D01*
X101003480Y-48648388D01*
X100845388Y-48806480D01*
X100721176Y-48992376D01*
X100635617Y-49198933D01*
X100593190Y-49412232D01*
X98820413Y-51185009D01*
X82379450Y-51185009D01*
X82198624Y-51064185D01*
X81992067Y-50978626D01*
X81772788Y-50935009D01*
X81549212Y-50935009D01*
X81329933Y-50978626D01*
X81123376Y-51064185D01*
X80937480Y-51188397D01*
X80779388Y-51346489D01*
X80655176Y-51532385D01*
X80569617Y-51738942D01*
X80526000Y-51958221D01*
X76860000Y-51958221D01*
X76860000Y-48148212D01*
X81224500Y-48148212D01*
X81224500Y-48371788D01*
X81268117Y-48591067D01*
X81353676Y-48797624D01*
X81477888Y-48983520D01*
X81635980Y-49141612D01*
X81821876Y-49265824D01*
X82028433Y-49351383D01*
X82247712Y-49395000D01*
X82471288Y-49395000D01*
X82690567Y-49351383D01*
X82897124Y-49265824D01*
X83077950Y-49145000D01*
X98278050Y-49145000D01*
X98458876Y-49265824D01*
X98665433Y-49351383D01*
X98884712Y-49395000D01*
X99108288Y-49395000D01*
X99327567Y-49351383D01*
X99534124Y-49265824D01*
X99720020Y-49141612D01*
X99878112Y-48983520D01*
X100002324Y-48797624D01*
X100087883Y-48591067D01*
X100131500Y-48371788D01*
X100131500Y-48148212D01*
X100087883Y-47928933D01*
X100002324Y-47722376D01*
X99878112Y-47536480D01*
X99720020Y-47378388D01*
X99534124Y-47254176D01*
X99327567Y-47168617D01*
X99108288Y-47125000D01*
X98884712Y-47125000D01*
X98665433Y-47168617D01*
X98458876Y-47254176D01*
X98278050Y-47375000D01*
X83077950Y-47375000D01*
X82897124Y-47254176D01*
X82690567Y-47168617D01*
X82471288Y-47125000D01*
X82247712Y-47125000D01*
X82028433Y-47168617D01*
X81821876Y-47254176D01*
X81635980Y-47378388D01*
X81477888Y-47536480D01*
X81353676Y-47722376D01*
X81268117Y-47928933D01*
X81224500Y-48148212D01*
X76860000Y-48148212D01*
X76860000Y-45880881D01*
X78758724Y-45880881D01*
X79118912Y-46370548D01*
X79782882Y-46730849D01*
X80504385Y-46954694D01*
X81255695Y-47033480D01*
X82007938Y-46964178D01*
X82732208Y-46749452D01*
X83400670Y-46397555D01*
X83441088Y-46370548D01*
X83801276Y-45880881D01*
X81280000Y-43359605D01*
X78758724Y-45880881D01*
X76860000Y-45880881D01*
X76860000Y-43155695D01*
X77426520Y-43155695D01*
X77495822Y-43907938D01*
X77710548Y-44632208D01*
X78062445Y-45300670D01*
X78089452Y-45341088D01*
X78579119Y-45701276D01*
X81100395Y-43180000D01*
X78579119Y-40658724D01*
X78089452Y-41018912D01*
X77729151Y-41682882D01*
X77505306Y-42404385D01*
X77426520Y-43155695D01*
X76860000Y-43155695D01*
X76860000Y-40479119D01*
X78758724Y-40479119D01*
X81280000Y-43000395D01*
X83801276Y-40479119D01*
X83441088Y-39989452D01*
X82777118Y-39629151D01*
X82055615Y-39405306D01*
X81304305Y-39326520D01*
X80552062Y-39395822D01*
X79827792Y-39610548D01*
X79159330Y-39962445D01*
X79118912Y-39989452D01*
X78758724Y-40479119D01*
X76860000Y-40479119D01*
X76860000Y-38760000D01*
X114910001Y-38760000D01*
X114910001Y-51074869D01*
G36*
X110617000Y-53213000D02*
G01*
X112903000Y-53213000D01*
X112903000Y-53193000D01*
X113157000Y-53193000D01*
X113157000Y-53213000D01*
X113177000Y-53213000D01*
X113177000Y-53467000D01*
X113157000Y-53467000D01*
X113157000Y-55753000D01*
X113177000Y-55753000D01*
X113177000Y-56007000D01*
X113157000Y-56007000D01*
X113157000Y-58293000D01*
X113177000Y-58293000D01*
X113177000Y-58547000D01*
X113157000Y-58547000D01*
X113157000Y-58567000D01*
X112903000Y-58567000D01*
X112903000Y-58547000D01*
X110617000Y-58547000D01*
X110617000Y-58567000D01*
X110363000Y-58567000D01*
X110363000Y-58547000D01*
X110343000Y-58547000D01*
X110343000Y-58293000D01*
X110363000Y-58293000D01*
X110363000Y-56007000D01*
X110617000Y-56007000D01*
X110617000Y-58293000D01*
X112903000Y-58293000D01*
X112903000Y-56007000D01*
X110617000Y-56007000D01*
X110363000Y-56007000D01*
X110343000Y-56007000D01*
X110343000Y-55753000D01*
X110363000Y-55753000D01*
X110363000Y-53467000D01*
X110617000Y-53467000D01*
X110617000Y-55753000D01*
X112903000Y-55753000D01*
X112903000Y-53467000D01*
X110617000Y-53467000D01*
X110363000Y-53467000D01*
X110343000Y-53467000D01*
X110343000Y-53213000D01*
X110363000Y-53213000D01*
X110363000Y-53193000D01*
X110617000Y-53193000D01*
X110617000Y-53213000D01*
G37*
X110617000Y-53213000D02*
X112903000Y-53213000D01*
X112903000Y-53193000D01*
X113157000Y-53193000D01*
X113157000Y-53213000D01*
X113177000Y-53213000D01*
X113177000Y-53467000D01*
X113157000Y-53467000D01*
X113157000Y-55753000D01*
X113177000Y-55753000D01*
X113177000Y-56007000D01*
X113157000Y-56007000D01*
X113157000Y-58293000D01*
X113177000Y-58293000D01*
X113177000Y-58547000D01*
X113157000Y-58547000D01*
X113157000Y-58567000D01*
X112903000Y-58567000D01*
X112903000Y-58547000D01*
X110617000Y-58547000D01*
X110617000Y-58567000D01*
X110363000Y-58567000D01*
X110363000Y-58547000D01*
X110343000Y-58547000D01*
X110343000Y-58293000D01*
X110363000Y-58293000D01*
X110363000Y-56007000D01*
X110617000Y-56007000D01*
X110617000Y-58293000D01*
X112903000Y-58293000D01*
X112903000Y-56007000D01*
X110617000Y-56007000D01*
X110363000Y-56007000D01*
X110343000Y-56007000D01*
X110343000Y-55753000D01*
X110363000Y-55753000D01*
X110363000Y-53467000D01*
X110617000Y-53467000D01*
X110617000Y-55753000D01*
X112903000Y-55753000D01*
X112903000Y-53467000D01*
X110617000Y-53467000D01*
X110363000Y-53467000D01*
X110343000Y-53467000D01*
X110343000Y-53213000D01*
X110363000Y-53213000D01*
X110363000Y-53193000D01*
X110617000Y-53193000D01*
X110617000Y-53213000D01*
M02*
