G04 #@! TF.GenerationSoftware,KiCad,Pcbnew,5.1.6-c6e7f7d~86~ubuntu18.04.1*
G04 #@! TF.CreationDate,2020-06-20T09:56:21-04:00*
G04 #@! TF.ProjectId,five_pulser_board,66697665-5f70-4756-9c73-65725f626f61,rev?*
G04 #@! TF.SameCoordinates,Original*
G04 #@! TF.FileFunction,Soldermask,Bot*
G04 #@! TF.FilePolarity,Negative*
%FSLAX46Y46*%
G04 Gerber Fmt 4.6, Leading zero omitted, Abs format (unit mm)*
G04 Created by KiCad (PCBNEW 5.1.6-c6e7f7d~86~ubuntu18.04.1) date 2020-06-20 09:56:21*
%MOMM*%
%LPD*%
G01*
G04 APERTURE LIST*
%ADD10O,1.800000X1.800000*%
%ADD11R,1.800000X1.800000*%
%ADD12O,1.700000X1.700000*%
%ADD13R,1.700000X1.700000*%
%ADD14C,0.900000*%
%ADD15C,6.500000*%
G04 APERTURE END LIST*
D10*
X113030000Y-50800000D03*
X110490000Y-50800000D03*
X113030000Y-53340000D03*
X110490000Y-53340000D03*
X113030000Y-55880000D03*
X110490000Y-55880000D03*
X113030000Y-58420000D03*
X110490000Y-58420000D03*
X113030000Y-60960000D03*
D11*
X110490000Y-60960000D03*
D10*
X82550000Y-105410000D03*
X80010000Y-105410000D03*
X82550000Y-102870000D03*
X80010000Y-102870000D03*
X82550000Y-100330000D03*
X80010000Y-100330000D03*
X82550000Y-97790000D03*
D11*
X80010000Y-97790000D03*
D12*
X91440000Y-87630000D03*
X99060000Y-67310000D03*
X91440000Y-85090000D03*
X99060000Y-69850000D03*
X91440000Y-82550000D03*
X99060000Y-72390000D03*
X91440000Y-80010000D03*
X99060000Y-74930000D03*
X91440000Y-77470000D03*
X99060000Y-77470000D03*
X91440000Y-74930000D03*
X99060000Y-80010000D03*
X91440000Y-72390000D03*
X99060000Y-82550000D03*
X91440000Y-69850000D03*
X99060000Y-85090000D03*
X91440000Y-67310000D03*
D13*
X99060000Y-87630000D03*
D10*
X97790000Y-113030000D03*
D11*
X95250000Y-113030000D03*
D10*
X113030000Y-99060000D03*
X113030000Y-96520000D03*
D11*
X113030000Y-93980000D03*
D10*
X113030000Y-114300000D03*
X113030000Y-111760000D03*
X113030000Y-109220000D03*
X113030000Y-106680000D03*
D11*
X113030000Y-104140000D03*
D14*
X82977056Y-41482944D03*
X81280000Y-40780000D03*
X79582944Y-41482944D03*
X78880000Y-43180000D03*
X79582944Y-44877056D03*
X81280000Y-45580000D03*
X82977056Y-44877056D03*
X83680000Y-43180000D03*
D15*
X81280000Y-43180000D03*
D14*
X82977056Y-110062944D03*
X81280000Y-109360000D03*
X79582944Y-110062944D03*
X78880000Y-111760000D03*
X79582944Y-113457056D03*
X81280000Y-114160000D03*
X82977056Y-113457056D03*
X83680000Y-111760000D03*
D15*
X81280000Y-111760000D03*
M02*
