%TF.GenerationSoftware,KiCad,Pcbnew,5.1.6-c6e7f7d~86~ubuntu18.04.1*%
%TF.CreationDate,2020-06-20T09:42:55-04:00*%
%TF.ProjectId,dual_MS20_VCF,6475616c-5f4d-4533-9230-5f5643462e6b,rev?*%
%TF.SameCoordinates,Original*%
%TF.FileFunction,Soldermask,Top*%
%TF.FilePolarity,Negative*%
%FSLAX46Y46*%
G04 Gerber Fmt 4.6, Leading zero omitted, Abs format (unit mm)*
G04 Created by KiCad (PCBNEW 5.1.6-c6e7f7d~86~ubuntu18.04.1) date 2020-06-20 09:42:55*
%MOMM*%
%LPD*%
G01*
G04 APERTURE LIST*
%ADD10O,1.800000X1.800000*%
%ADD11R,1.800000X1.800000*%
%ADD12O,1.700000X1.700000*%
%ADD13R,1.700000X1.700000*%
%ADD14O,2.820000X3.340000*%
%ADD15C,1.900000*%
%ADD16R,1.900000X1.900000*%
%ADD17C,1.700000*%
%ADD18R,1.150000X1.600000*%
%ADD19O,1.150000X1.600000*%
G04 APERTURE END LIST*
D10*
%TO.C,J4*%
X108585000Y-120015000D03*
D11*
X106045000Y-120015000D03*
%TD*%
D10*
%TO.C,J3*%
X105410000Y-68580000D03*
X107950000Y-68580000D03*
X105410000Y-66040000D03*
X107950000Y-66040000D03*
X105410000Y-63500000D03*
X107950000Y-63500000D03*
X105410000Y-60960000D03*
X107950000Y-60960000D03*
X105410000Y-58420000D03*
D11*
X107950000Y-58420000D03*
%TD*%
%TO.C,C24*%
G36*
G01*
X104675000Y-101828262D02*
X104675000Y-100871738D01*
G75*
G02*
X104946738Y-100600000I271738J0D01*
G01*
X105653262Y-100600000D01*
G75*
G02*
X105925000Y-100871738I0J-271738D01*
G01*
X105925000Y-101828262D01*
G75*
G02*
X105653262Y-102100000I-271738J0D01*
G01*
X104946738Y-102100000D01*
G75*
G02*
X104675000Y-101828262I0J271738D01*
G01*
G37*
G36*
G01*
X102625000Y-101828262D02*
X102625000Y-100871738D01*
G75*
G02*
X102896738Y-100600000I271738J0D01*
G01*
X103603262Y-100600000D01*
G75*
G02*
X103875000Y-100871738I0J-271738D01*
G01*
X103875000Y-101828262D01*
G75*
G02*
X103603262Y-102100000I-271738J0D01*
G01*
X102896738Y-102100000D01*
G75*
G02*
X102625000Y-101828262I0J271738D01*
G01*
G37*
%TD*%
%TO.C,C23*%
G36*
G01*
X116450000Y-91478262D02*
X116450000Y-90521738D01*
G75*
G02*
X116721738Y-90250000I271738J0D01*
G01*
X117428262Y-90250000D01*
G75*
G02*
X117700000Y-90521738I0J-271738D01*
G01*
X117700000Y-91478262D01*
G75*
G02*
X117428262Y-91750000I-271738J0D01*
G01*
X116721738Y-91750000D01*
G75*
G02*
X116450000Y-91478262I0J271738D01*
G01*
G37*
G36*
G01*
X114400000Y-91478262D02*
X114400000Y-90521738D01*
G75*
G02*
X114671738Y-90250000I271738J0D01*
G01*
X115378262Y-90250000D01*
G75*
G02*
X115650000Y-90521738I0J-271738D01*
G01*
X115650000Y-91478262D01*
G75*
G02*
X115378262Y-91750000I-271738J0D01*
G01*
X114671738Y-91750000D01*
G75*
G02*
X114400000Y-91478262I0J271738D01*
G01*
G37*
%TD*%
%TO.C,C22*%
G36*
G01*
X145975000Y-135128262D02*
X145975000Y-134171738D01*
G75*
G02*
X146246738Y-133900000I271738J0D01*
G01*
X146953262Y-133900000D01*
G75*
G02*
X147225000Y-134171738I0J-271738D01*
G01*
X147225000Y-135128262D01*
G75*
G02*
X146953262Y-135400000I-271738J0D01*
G01*
X146246738Y-135400000D01*
G75*
G02*
X145975000Y-135128262I0J271738D01*
G01*
G37*
G36*
G01*
X143925000Y-135128262D02*
X143925000Y-134171738D01*
G75*
G02*
X144196738Y-133900000I271738J0D01*
G01*
X144903262Y-133900000D01*
G75*
G02*
X145175000Y-134171738I0J-271738D01*
G01*
X145175000Y-135128262D01*
G75*
G02*
X144903262Y-135400000I-271738J0D01*
G01*
X144196738Y-135400000D01*
G75*
G02*
X143925000Y-135128262I0J271738D01*
G01*
G37*
%TD*%
%TO.C,C21*%
G36*
G01*
X160025000Y-141478262D02*
X160025000Y-140521738D01*
G75*
G02*
X160296738Y-140250000I271738J0D01*
G01*
X161003262Y-140250000D01*
G75*
G02*
X161275000Y-140521738I0J-271738D01*
G01*
X161275000Y-141478262D01*
G75*
G02*
X161003262Y-141750000I-271738J0D01*
G01*
X160296738Y-141750000D01*
G75*
G02*
X160025000Y-141478262I0J271738D01*
G01*
G37*
G36*
G01*
X157975000Y-141478262D02*
X157975000Y-140521738D01*
G75*
G02*
X158246738Y-140250000I271738J0D01*
G01*
X158953262Y-140250000D01*
G75*
G02*
X159225000Y-140521738I0J-271738D01*
G01*
X159225000Y-141478262D01*
G75*
G02*
X158953262Y-141750000I-271738J0D01*
G01*
X158246738Y-141750000D01*
G75*
G02*
X157975000Y-141478262I0J271738D01*
G01*
G37*
%TD*%
%TO.C,C20*%
G36*
G01*
X143325000Y-118578262D02*
X143325000Y-117621738D01*
G75*
G02*
X143596738Y-117350000I271738J0D01*
G01*
X144303262Y-117350000D01*
G75*
G02*
X144575000Y-117621738I0J-271738D01*
G01*
X144575000Y-118578262D01*
G75*
G02*
X144303262Y-118850000I-271738J0D01*
G01*
X143596738Y-118850000D01*
G75*
G02*
X143325000Y-118578262I0J271738D01*
G01*
G37*
G36*
G01*
X141275000Y-118578262D02*
X141275000Y-117621738D01*
G75*
G02*
X141546738Y-117350000I271738J0D01*
G01*
X142253262Y-117350000D01*
G75*
G02*
X142525000Y-117621738I0J-271738D01*
G01*
X142525000Y-118578262D01*
G75*
G02*
X142253262Y-118850000I-271738J0D01*
G01*
X141546738Y-118850000D01*
G75*
G02*
X141275000Y-118578262I0J271738D01*
G01*
G37*
%TD*%
%TO.C,C19*%
G36*
G01*
X159725000Y-115778262D02*
X159725000Y-114821738D01*
G75*
G02*
X159996738Y-114550000I271738J0D01*
G01*
X160703262Y-114550000D01*
G75*
G02*
X160975000Y-114821738I0J-271738D01*
G01*
X160975000Y-115778262D01*
G75*
G02*
X160703262Y-116050000I-271738J0D01*
G01*
X159996738Y-116050000D01*
G75*
G02*
X159725000Y-115778262I0J271738D01*
G01*
G37*
G36*
G01*
X157675000Y-115778262D02*
X157675000Y-114821738D01*
G75*
G02*
X157946738Y-114550000I271738J0D01*
G01*
X158653262Y-114550000D01*
G75*
G02*
X158925000Y-114821738I0J-271738D01*
G01*
X158925000Y-115778262D01*
G75*
G02*
X158653262Y-116050000I-271738J0D01*
G01*
X157946738Y-116050000D01*
G75*
G02*
X157675000Y-115778262I0J271738D01*
G01*
G37*
%TD*%
%TO.C,C18*%
G36*
G01*
X146325000Y-99728262D02*
X146325000Y-98771738D01*
G75*
G02*
X146596738Y-98500000I271738J0D01*
G01*
X147303262Y-98500000D01*
G75*
G02*
X147575000Y-98771738I0J-271738D01*
G01*
X147575000Y-99728262D01*
G75*
G02*
X147303262Y-100000000I-271738J0D01*
G01*
X146596738Y-100000000D01*
G75*
G02*
X146325000Y-99728262I0J271738D01*
G01*
G37*
G36*
G01*
X144275000Y-99728262D02*
X144275000Y-98771738D01*
G75*
G02*
X144546738Y-98500000I271738J0D01*
G01*
X145253262Y-98500000D01*
G75*
G02*
X145525000Y-98771738I0J-271738D01*
G01*
X145525000Y-99728262D01*
G75*
G02*
X145253262Y-100000000I-271738J0D01*
G01*
X144546738Y-100000000D01*
G75*
G02*
X144275000Y-99728262I0J271738D01*
G01*
G37*
%TD*%
%TO.C,C17*%
G36*
G01*
X157725000Y-110978262D02*
X157725000Y-110021738D01*
G75*
G02*
X157996738Y-109750000I271738J0D01*
G01*
X158703262Y-109750000D01*
G75*
G02*
X158975000Y-110021738I0J-271738D01*
G01*
X158975000Y-110978262D01*
G75*
G02*
X158703262Y-111250000I-271738J0D01*
G01*
X157996738Y-111250000D01*
G75*
G02*
X157725000Y-110978262I0J271738D01*
G01*
G37*
G36*
G01*
X155675000Y-110978262D02*
X155675000Y-110021738D01*
G75*
G02*
X155946738Y-109750000I271738J0D01*
G01*
X156653262Y-109750000D01*
G75*
G02*
X156925000Y-110021738I0J-271738D01*
G01*
X156925000Y-110978262D01*
G75*
G02*
X156653262Y-111250000I-271738J0D01*
G01*
X155946738Y-111250000D01*
G75*
G02*
X155675000Y-110978262I0J271738D01*
G01*
G37*
%TD*%
%TO.C,C16*%
G36*
G01*
X151975000Y-87821738D02*
X151975000Y-88778262D01*
G75*
G02*
X151703262Y-89050000I-271738J0D01*
G01*
X150996738Y-89050000D01*
G75*
G02*
X150725000Y-88778262I0J271738D01*
G01*
X150725000Y-87821738D01*
G75*
G02*
X150996738Y-87550000I271738J0D01*
G01*
X151703262Y-87550000D01*
G75*
G02*
X151975000Y-87821738I0J-271738D01*
G01*
G37*
G36*
G01*
X154025000Y-87821738D02*
X154025000Y-88778262D01*
G75*
G02*
X153753262Y-89050000I-271738J0D01*
G01*
X153046738Y-89050000D01*
G75*
G02*
X152775000Y-88778262I0J271738D01*
G01*
X152775000Y-87821738D01*
G75*
G02*
X153046738Y-87550000I271738J0D01*
G01*
X153753262Y-87550000D01*
G75*
G02*
X154025000Y-87821738I0J-271738D01*
G01*
G37*
%TD*%
%TO.C,C15*%
G36*
G01*
X157775000Y-98678262D02*
X157775000Y-97721738D01*
G75*
G02*
X158046738Y-97450000I271738J0D01*
G01*
X158753262Y-97450000D01*
G75*
G02*
X159025000Y-97721738I0J-271738D01*
G01*
X159025000Y-98678262D01*
G75*
G02*
X158753262Y-98950000I-271738J0D01*
G01*
X158046738Y-98950000D01*
G75*
G02*
X157775000Y-98678262I0J271738D01*
G01*
G37*
G36*
G01*
X155725000Y-98678262D02*
X155725000Y-97721738D01*
G75*
G02*
X155996738Y-97450000I271738J0D01*
G01*
X156703262Y-97450000D01*
G75*
G02*
X156975000Y-97721738I0J-271738D01*
G01*
X156975000Y-98678262D01*
G75*
G02*
X156703262Y-98950000I-271738J0D01*
G01*
X155996738Y-98950000D01*
G75*
G02*
X155725000Y-98678262I0J271738D01*
G01*
G37*
%TD*%
%TO.C,C14*%
G36*
G01*
X145975000Y-72978262D02*
X145975000Y-72021738D01*
G75*
G02*
X146246738Y-71750000I271738J0D01*
G01*
X146953262Y-71750000D01*
G75*
G02*
X147225000Y-72021738I0J-271738D01*
G01*
X147225000Y-72978262D01*
G75*
G02*
X146953262Y-73250000I-271738J0D01*
G01*
X146246738Y-73250000D01*
G75*
G02*
X145975000Y-72978262I0J271738D01*
G01*
G37*
G36*
G01*
X143925000Y-72978262D02*
X143925000Y-72021738D01*
G75*
G02*
X144196738Y-71750000I271738J0D01*
G01*
X144903262Y-71750000D01*
G75*
G02*
X145175000Y-72021738I0J-271738D01*
G01*
X145175000Y-72978262D01*
G75*
G02*
X144903262Y-73250000I-271738J0D01*
G01*
X144196738Y-73250000D01*
G75*
G02*
X143925000Y-72978262I0J271738D01*
G01*
G37*
%TD*%
%TO.C,C13*%
G36*
G01*
X159975000Y-69578262D02*
X159975000Y-68621738D01*
G75*
G02*
X160246738Y-68350000I271738J0D01*
G01*
X160953262Y-68350000D01*
G75*
G02*
X161225000Y-68621738I0J-271738D01*
G01*
X161225000Y-69578262D01*
G75*
G02*
X160953262Y-69850000I-271738J0D01*
G01*
X160246738Y-69850000D01*
G75*
G02*
X159975000Y-69578262I0J271738D01*
G01*
G37*
G36*
G01*
X157925000Y-69578262D02*
X157925000Y-68621738D01*
G75*
G02*
X158196738Y-68350000I271738J0D01*
G01*
X158903262Y-68350000D01*
G75*
G02*
X159175000Y-68621738I0J-271738D01*
G01*
X159175000Y-69578262D01*
G75*
G02*
X158903262Y-69850000I-271738J0D01*
G01*
X158196738Y-69850000D01*
G75*
G02*
X157925000Y-69578262I0J271738D01*
G01*
G37*
%TD*%
%TO.C,C12*%
G36*
G01*
X146075000Y-54478262D02*
X146075000Y-53521738D01*
G75*
G02*
X146346738Y-53250000I271738J0D01*
G01*
X147053262Y-53250000D01*
G75*
G02*
X147325000Y-53521738I0J-271738D01*
G01*
X147325000Y-54478262D01*
G75*
G02*
X147053262Y-54750000I-271738J0D01*
G01*
X146346738Y-54750000D01*
G75*
G02*
X146075000Y-54478262I0J271738D01*
G01*
G37*
G36*
G01*
X144025000Y-54478262D02*
X144025000Y-53521738D01*
G75*
G02*
X144296738Y-53250000I271738J0D01*
G01*
X145003262Y-53250000D01*
G75*
G02*
X145275000Y-53521738I0J-271738D01*
G01*
X145275000Y-54478262D01*
G75*
G02*
X145003262Y-54750000I-271738J0D01*
G01*
X144296738Y-54750000D01*
G75*
G02*
X144025000Y-54478262I0J271738D01*
G01*
G37*
%TD*%
%TO.C,C11*%
G36*
G01*
X157675000Y-64278262D02*
X157675000Y-63321738D01*
G75*
G02*
X157946738Y-63050000I271738J0D01*
G01*
X158653262Y-63050000D01*
G75*
G02*
X158925000Y-63321738I0J-271738D01*
G01*
X158925000Y-64278262D01*
G75*
G02*
X158653262Y-64550000I-271738J0D01*
G01*
X157946738Y-64550000D01*
G75*
G02*
X157675000Y-64278262I0J271738D01*
G01*
G37*
G36*
G01*
X155625000Y-64278262D02*
X155625000Y-63321738D01*
G75*
G02*
X155896738Y-63050000I271738J0D01*
G01*
X156603262Y-63050000D01*
G75*
G02*
X156875000Y-63321738I0J-271738D01*
G01*
X156875000Y-64278262D01*
G75*
G02*
X156603262Y-64550000I-271738J0D01*
G01*
X155896738Y-64550000D01*
G75*
G02*
X155625000Y-64278262I0J271738D01*
G01*
G37*
%TD*%
D12*
%TO.C,U7*%
X114808000Y-93726000D03*
X107188000Y-101346000D03*
X112268000Y-93726000D03*
X109728000Y-101346000D03*
X109728000Y-93726000D03*
X112268000Y-101346000D03*
X107188000Y-93726000D03*
D13*
X114808000Y-101346000D03*
%TD*%
D12*
%TO.C,U6*%
X156210000Y-143256000D03*
X148590000Y-135636000D03*
X156210000Y-140716000D03*
X148590000Y-138176000D03*
X156210000Y-138176000D03*
X148590000Y-140716000D03*
X156210000Y-135636000D03*
D13*
X148590000Y-143256000D03*
%TD*%
D12*
%TO.C,U5*%
X156210000Y-108458000D03*
X148590000Y-100838000D03*
X156210000Y-105918000D03*
X148590000Y-103378000D03*
X156210000Y-103378000D03*
X148590000Y-105918000D03*
X156210000Y-100838000D03*
D13*
X148590000Y-108458000D03*
%TD*%
D12*
%TO.C,U4*%
X156210000Y-130810000D03*
X148590000Y-113030000D03*
X156210000Y-128270000D03*
X148590000Y-115570000D03*
X156210000Y-125730000D03*
X148590000Y-118110000D03*
X156210000Y-123190000D03*
X148590000Y-120650000D03*
X156210000Y-120650000D03*
X148590000Y-123190000D03*
X156210000Y-118110000D03*
X148590000Y-125730000D03*
X156210000Y-115570000D03*
X148590000Y-128270000D03*
X156210000Y-113030000D03*
D13*
X148590000Y-130810000D03*
%TD*%
D12*
%TO.C,U3*%
X156210000Y-95885000D03*
X148590000Y-88265000D03*
X156210000Y-93345000D03*
X148590000Y-90805000D03*
X156210000Y-90805000D03*
X148590000Y-93345000D03*
X156210000Y-88265000D03*
D13*
X148590000Y-95885000D03*
%TD*%
D12*
%TO.C,U2*%
X156210000Y-61595000D03*
X148590000Y-53975000D03*
X156210000Y-59055000D03*
X148590000Y-56515000D03*
X156210000Y-56515000D03*
X148590000Y-59055000D03*
X156210000Y-53975000D03*
D13*
X148590000Y-61595000D03*
%TD*%
D12*
%TO.C,U1*%
X156210000Y-83820000D03*
X148590000Y-66040000D03*
X156210000Y-81280000D03*
X148590000Y-68580000D03*
X156210000Y-78740000D03*
X148590000Y-71120000D03*
X156210000Y-76200000D03*
X148590000Y-73660000D03*
X156210000Y-73660000D03*
X148590000Y-76200000D03*
X156210000Y-71120000D03*
X148590000Y-78740000D03*
X156210000Y-68580000D03*
X148590000Y-81280000D03*
X156210000Y-66040000D03*
D13*
X148590000Y-83820000D03*
%TD*%
D14*
%TO.C,RV6*%
X171770000Y-134740000D03*
X181370000Y-134740000D03*
D15*
X179070000Y-142240000D03*
X176570000Y-142240000D03*
D16*
X174070000Y-142240000D03*
%TD*%
D14*
%TO.C,RV5*%
X120970000Y-134740000D03*
X130570000Y-134740000D03*
D15*
X128270000Y-142240000D03*
X125770000Y-142240000D03*
D16*
X123270000Y-142240000D03*
%TD*%
D14*
%TO.C,RV4*%
X171770000Y-58540000D03*
X181370000Y-58540000D03*
D15*
X179070000Y-66040000D03*
X176570000Y-66040000D03*
D16*
X174070000Y-66040000D03*
%TD*%
D14*
%TO.C,RV3*%
X120890000Y-58540000D03*
X130490000Y-58540000D03*
D15*
X128190000Y-66040000D03*
X125690000Y-66040000D03*
D16*
X123190000Y-66040000D03*
%TD*%
D14*
%TO.C,RV2*%
X171730000Y-96640000D03*
X181330000Y-96640000D03*
D15*
X179030000Y-104140000D03*
X176530000Y-104140000D03*
D16*
X174030000Y-104140000D03*
%TD*%
D14*
%TO.C,RV1*%
X120890000Y-96640000D03*
X130490000Y-96640000D03*
D15*
X128190000Y-104140000D03*
X125690000Y-104140000D03*
D16*
X123190000Y-104140000D03*
%TD*%
D12*
%TO.C,R42*%
X195072000Y-122174000D03*
D17*
X195072000Y-132334000D03*
%TD*%
D12*
%TO.C,R41*%
X113030000Y-80772000D03*
D17*
X113030000Y-90932000D03*
%TD*%
D12*
%TO.C,R40*%
X115570000Y-119380000D03*
D17*
X115570000Y-129540000D03*
%TD*%
D12*
%TO.C,R39*%
X108204000Y-80772000D03*
D17*
X108204000Y-90932000D03*
%TD*%
D12*
%TO.C,R38*%
X115062000Y-104394000D03*
D17*
X115062000Y-114554000D03*
%TD*%
D12*
%TO.C,R37*%
X106172000Y-114554000D03*
D17*
X106172000Y-104394000D03*
%TD*%
D12*
%TO.C,R36*%
X110744000Y-114554000D03*
D17*
X110744000Y-104394000D03*
%TD*%
D12*
%TO.C,R35*%
X169164000Y-131064000D03*
D17*
X159004000Y-131064000D03*
%TD*%
D12*
%TO.C,R34*%
X135636000Y-136652000D03*
D17*
X145796000Y-136652000D03*
%TD*%
D12*
%TO.C,R33*%
X169164000Y-117348000D03*
D17*
X159004000Y-117348000D03*
%TD*%
D12*
%TO.C,R32*%
X159004000Y-112903000D03*
D17*
X169164000Y-112903000D03*
%TD*%
D12*
%TO.C,R31*%
X135636000Y-141224000D03*
D17*
X145796000Y-141224000D03*
%TD*%
D12*
%TO.C,R30*%
X169164000Y-121920000D03*
D17*
X159004000Y-121920000D03*
%TD*%
D12*
%TO.C,R29*%
X169164000Y-126492000D03*
D17*
X159004000Y-126492000D03*
%TD*%
D12*
%TO.C,R28*%
X169164000Y-143256000D03*
D17*
X159004000Y-143256000D03*
%TD*%
D12*
%TO.C,R27*%
X191008000Y-109220000D03*
D17*
X180848000Y-109220000D03*
%TD*%
D12*
%TO.C,R26*%
X191008000Y-113792000D03*
D17*
X180848000Y-113792000D03*
%TD*%
D12*
%TO.C,R25*%
X145796000Y-131572000D03*
D17*
X135636000Y-131572000D03*
%TD*%
D12*
%TO.C,R24*%
X191008000Y-118364000D03*
D17*
X180848000Y-118364000D03*
%TD*%
D12*
%TO.C,R23*%
X191008000Y-122936000D03*
D17*
X180848000Y-122936000D03*
%TD*%
D12*
%TO.C,R22*%
X191008000Y-127508000D03*
D17*
X180848000Y-127508000D03*
%TD*%
D12*
%TO.C,R21*%
X135636000Y-127000000D03*
D17*
X145796000Y-127000000D03*
%TD*%
D12*
%TO.C,R20*%
X145796000Y-111760000D03*
D17*
X135636000Y-111760000D03*
%TD*%
D12*
%TO.C,R19*%
X135636000Y-121920000D03*
D17*
X145796000Y-121920000D03*
%TD*%
D12*
%TO.C,R18*%
X135636000Y-116840000D03*
D17*
X145796000Y-116840000D03*
%TD*%
D12*
%TO.C,R17*%
X158750000Y-86360000D03*
D17*
X168910000Y-86360000D03*
%TD*%
D12*
%TO.C,R16*%
X135890000Y-90170000D03*
D17*
X146050000Y-90170000D03*
%TD*%
D12*
%TO.C,R15*%
X168910000Y-76200000D03*
D17*
X158750000Y-76200000D03*
%TD*%
D12*
%TO.C,R14*%
X158750000Y-66040000D03*
D17*
X168910000Y-66040000D03*
%TD*%
D12*
%TO.C,R13*%
X135890000Y-95250000D03*
D17*
X146050000Y-95250000D03*
%TD*%
D12*
%TO.C,R12*%
X168910000Y-71120000D03*
D17*
X158750000Y-71120000D03*
%TD*%
D12*
%TO.C,R11*%
X168910000Y-81280000D03*
D17*
X158750000Y-81280000D03*
%TD*%
D12*
%TO.C,R10*%
X169164000Y-96012000D03*
D17*
X159004000Y-96012000D03*
%TD*%
D12*
%TO.C,R9*%
X191516000Y-71120000D03*
D17*
X181356000Y-71120000D03*
%TD*%
D12*
%TO.C,R8*%
X191516000Y-75692000D03*
D17*
X181356000Y-75692000D03*
%TD*%
D12*
%TO.C,R7*%
X146050000Y-85090000D03*
D17*
X135890000Y-85090000D03*
%TD*%
D12*
%TO.C,R6*%
X191516000Y-80264000D03*
D17*
X181356000Y-80264000D03*
%TD*%
D12*
%TO.C,R5*%
X191516000Y-84836000D03*
D17*
X181356000Y-84836000D03*
%TD*%
D12*
%TO.C,R4*%
X191516000Y-89408000D03*
D17*
X181356000Y-89408000D03*
%TD*%
D12*
%TO.C,R3*%
X135890000Y-80010000D03*
D17*
X146050000Y-80010000D03*
%TD*%
D12*
%TO.C,R2*%
X146050000Y-69850000D03*
D17*
X135890000Y-69850000D03*
%TD*%
D12*
%TO.C,R1*%
X135890000Y-74930000D03*
D17*
X146050000Y-74930000D03*
%TD*%
D18*
%TO.C,Q4*%
X177292000Y-110236000D03*
D19*
X174752000Y-110236000D03*
X176022000Y-110236000D03*
%TD*%
D18*
%TO.C,Q3*%
X177292000Y-115316000D03*
D19*
X174752000Y-115316000D03*
X176022000Y-115316000D03*
%TD*%
D18*
%TO.C,Q2*%
X177800000Y-72136000D03*
D19*
X175260000Y-72136000D03*
X176530000Y-72136000D03*
%TD*%
D18*
%TO.C,Q1*%
X177800000Y-77216000D03*
D19*
X175260000Y-77216000D03*
X176530000Y-77216000D03*
%TD*%
D10*
%TO.C,J2*%
X116840000Y-144780000D03*
X114300000Y-144780000D03*
X111760000Y-144780000D03*
X109220000Y-144780000D03*
D11*
X106680000Y-144780000D03*
%TD*%
D10*
%TO.C,J1*%
X185420000Y-144780000D03*
X187960000Y-144780000D03*
X190500000Y-144780000D03*
X193040000Y-144780000D03*
D11*
X195580000Y-144780000D03*
%TD*%
D15*
%TO.C,D4*%
X128524000Y-121920000D03*
D16*
X128524000Y-124460000D03*
%TD*%
D15*
%TO.C,D3*%
X121412000Y-124460000D03*
D16*
X121412000Y-121920000D03*
%TD*%
D15*
%TO.C,D2*%
X129540000Y-84455000D03*
D16*
X129540000Y-86995000D03*
%TD*%
D15*
%TO.C,D1*%
X122555000Y-86995000D03*
D16*
X122555000Y-84455000D03*
%TD*%
D17*
%TO.C,C10*%
X118808500Y-69051800D03*
D13*
X118808500Y-71551800D03*
%TD*%
D17*
%TO.C,C9*%
X116900000Y-53500000D03*
D13*
X116900000Y-56000000D03*
%TD*%
D17*
%TO.C,C8*%
X159084000Y-106680000D03*
X164084000Y-106680000D03*
%TD*%
%TO.C,C7*%
X164512000Y-101092000D03*
X159512000Y-101092000D03*
%TD*%
%TO.C,C6*%
X159084000Y-138176000D03*
X164084000Y-138176000D03*
%TD*%
%TO.C,C5*%
X140415000Y-103505000D03*
X145415000Y-103505000D03*
%TD*%
%TO.C,C4*%
X159465000Y-60325000D03*
X164465000Y-60325000D03*
%TD*%
%TO.C,C3*%
X164385000Y-54610000D03*
X159385000Y-54610000D03*
%TD*%
%TO.C,C2*%
X159004000Y-91440000D03*
X164004000Y-91440000D03*
%TD*%
%TO.C,C1*%
X140415000Y-56515000D03*
X145415000Y-56515000D03*
%TD*%
M02*
