G04 #@! TF.GenerationSoftware,KiCad,Pcbnew,5.1.6-c6e7f7d~86~ubuntu18.04.1*
G04 #@! TF.CreationDate,2020-06-20T10:00:21-04:00*
G04 #@! TF.ProjectId,slope_generators,736c6f70-655f-4676-956e-657261746f72,rev?*
G04 #@! TF.SameCoordinates,Original*
G04 #@! TF.FileFunction,Soldermask,Top*
G04 #@! TF.FilePolarity,Negative*
%FSLAX46Y46*%
G04 Gerber Fmt 4.6, Leading zero omitted, Abs format (unit mm)*
G04 Created by KiCad (PCBNEW 5.1.6-c6e7f7d~86~ubuntu18.04.1) date 2020-06-20 10:00:21*
%MOMM*%
%LPD*%
G01*
G04 APERTURE LIST*
%ADD10C,1.540000*%
%ADD11C,1.900000*%
%ADD12R,1.900000X1.900000*%
%ADD13C,1.700000*%
%ADD14R,1.700000X1.700000*%
%ADD15C,2.600000*%
%ADD16O,2.820000X3.340000*%
%ADD17O,1.800000X1.800000*%
%ADD18R,1.800000X1.800000*%
G04 APERTURE END LIST*
D10*
X157480000Y-82296000D03*
X157480000Y-84836000D03*
X157480000Y-87376000D03*
X144780000Y-82296000D03*
X144780000Y-84836000D03*
X144780000Y-87376000D03*
D11*
X198755000Y-76200000D03*
D12*
X198755000Y-78740000D03*
D11*
X103505000Y-76200000D03*
D12*
X103505000Y-78740000D03*
D13*
X166370000Y-66635000D03*
D14*
X166370000Y-64135000D03*
D13*
X166370000Y-59015000D03*
D14*
X166370000Y-56515000D03*
D15*
X157480000Y-139320000D03*
X157480000Y-134620000D03*
X157480000Y-129920000D03*
X157480000Y-63120000D03*
X157480000Y-58420000D03*
X157480000Y-53720000D03*
X157480000Y-101220000D03*
X157480000Y-96520000D03*
X157480000Y-91820000D03*
X144780000Y-139320000D03*
X144780000Y-134620000D03*
X144780000Y-129920000D03*
X144780000Y-63120000D03*
X144780000Y-58420000D03*
X144780000Y-53720000D03*
X144780000Y-101220000D03*
X144780000Y-96520000D03*
X144780000Y-91820000D03*
D16*
X184430000Y-96640000D03*
X194030000Y-96640000D03*
D11*
X191730000Y-104140000D03*
X189230000Y-104140000D03*
D12*
X186730000Y-104140000D03*
D16*
X184430000Y-58540000D03*
X194030000Y-58540000D03*
D11*
X191730000Y-66040000D03*
X189230000Y-66040000D03*
D12*
X186730000Y-66040000D03*
D16*
X184430000Y-134740000D03*
X194030000Y-134740000D03*
D11*
X191730000Y-142240000D03*
X189230000Y-142240000D03*
D12*
X186730000Y-142240000D03*
D16*
X108230000Y-96640000D03*
X117830000Y-96640000D03*
D11*
X115530000Y-104140000D03*
X113030000Y-104140000D03*
D12*
X110530000Y-104140000D03*
D16*
X108230000Y-58540000D03*
X117830000Y-58540000D03*
D11*
X115530000Y-66040000D03*
X113030000Y-66040000D03*
D12*
X110530000Y-66040000D03*
D16*
X108230000Y-134740000D03*
X117830000Y-134740000D03*
D11*
X115530000Y-142240000D03*
X113030000Y-142240000D03*
D12*
X110530000Y-142240000D03*
D17*
X177800000Y-71120000D03*
X180340000Y-71120000D03*
X177800000Y-68580000D03*
X180340000Y-68580000D03*
X177800000Y-66040000D03*
X180340000Y-66040000D03*
X177800000Y-63500000D03*
X180340000Y-63500000D03*
X177800000Y-60960000D03*
D18*
X180340000Y-60960000D03*
D17*
X180340000Y-147320000D03*
X177800000Y-147320000D03*
X175260000Y-147320000D03*
X172720000Y-147320000D03*
X170180000Y-147320000D03*
X167640000Y-147320000D03*
D18*
X165100000Y-147320000D03*
D17*
X137160000Y-147320000D03*
X134620000Y-147320000D03*
X132080000Y-147320000D03*
X129540000Y-147320000D03*
X127000000Y-147320000D03*
X124460000Y-147320000D03*
D18*
X121920000Y-147320000D03*
M02*
