M48
; DRILL file {KiCad 5.1.6-c6e7f7d~86~ubuntu18.04.1} date Sun Jun 21 16:53:50 2020
; FORMAT={-:-/ absolute / metric / decimal}
; #@! TF.CreationDate,2020-06-21T16:53:50-04:00
; #@! TF.GenerationSoftware,Kicad,Pcbnew,5.1.6-c6e7f7d~86~ubuntu18.04.1
; #@! TF.FileFunction,Plated,1,2,PTH
FMAT,2
METRIC
T1C0.400
T2C0.800
T3C1.000
T4C1.100
T5C1.850
%
G90
G05
T1
X84.074Y-80.328
X114.046Y-75.057
X118.618Y-76.835
X121.031Y-120.015
X121.158Y-127.254
X121.158Y-134.366
X121.793Y-118.237
X124.206Y-55.118
X127.762Y-118.3
X127.825Y-110.49
X127.953Y-125.412
X127.953Y-132.651
X130.302Y-115.57
X133.35Y-75.311
X135.7Y-124.079
X136.207Y-128.333
X136.271Y-126.047
X137.096Y-122.872
X139.192Y-74.295
X140.589Y-156.591
X141.287Y-113.411
X142.939Y-78.74
X144.78Y-56.515
X166.624Y-54.102
X166.751Y-74.295
X170.942Y-56.261
X171.45Y-73.406
T2
X108.331Y-60.198
X111.379Y-60.071
X123.19Y-61.976
X132.334Y-61.468
X132.334Y-69.088
X134.874Y-61.468
X134.874Y-69.088
X137.414Y-61.468
X137.414Y-69.088
X139.954Y-61.468
X139.954Y-69.088
X104.14Y-33.02
X104.14Y-35.52
X113.03Y-61.722
X113.03Y-69.342
X115.57Y-61.722
X115.57Y-69.342
X118.11Y-61.722
X118.11Y-69.342
X120.65Y-61.722
X120.65Y-69.342
X104.14Y-40.64
X104.14Y-43.14
T3
X154.98Y-40.64
X157.48Y-40.64
X159.98Y-40.64
X124.46Y-33.02
X124.46Y-35.56
X124.46Y-38.1
X124.46Y-40.64
X124.46Y-43.18
X127.0Y-33.02
X127.0Y-35.56
X127.0Y-38.1
X127.0Y-40.64
X127.0Y-43.18
X91.48Y-78.74
X93.98Y-78.74
X96.48Y-78.74
X81.28Y-124.46
X81.28Y-127.0
X81.28Y-129.54
X81.28Y-132.08
X81.28Y-134.62
X143.51Y-81.28
X143.51Y-83.82
X143.51Y-86.36
X143.51Y-88.9
X143.51Y-91.44
X143.51Y-93.98
X143.51Y-96.52
X143.51Y-99.06
X146.05Y-81.28
X146.05Y-83.82
X146.05Y-86.36
X146.05Y-88.9
X146.05Y-91.44
X146.05Y-93.98
X146.05Y-96.52
X146.05Y-99.06
X91.48Y-40.64
X93.98Y-40.64
X96.48Y-40.64
X154.98Y-116.84
X157.48Y-116.84
X159.98Y-116.84
X170.18Y-121.92
X170.18Y-124.46
X170.18Y-127.0
X170.18Y-129.54
X170.18Y-132.08
X143.51Y-109.22
X143.51Y-111.76
X143.51Y-114.3
X143.51Y-116.84
X143.51Y-119.38
X143.51Y-121.92
X143.51Y-124.46
X143.51Y-127.0
X146.05Y-109.22
X146.05Y-111.76
X146.05Y-114.3
X146.05Y-116.84
X146.05Y-119.38
X146.05Y-121.92
X146.05Y-124.46
X146.05Y-127.0
X91.48Y-116.84
X93.98Y-116.84
X96.48Y-116.84
X143.51Y-137.16
X143.51Y-139.7
X143.51Y-142.24
X143.51Y-144.78
X143.51Y-147.32
X143.51Y-149.86
X143.51Y-152.4
X143.51Y-154.94
X146.05Y-137.16
X146.05Y-139.7
X146.05Y-142.24
X146.05Y-144.78
X146.05Y-147.32
X146.05Y-149.86
X146.05Y-152.4
X146.05Y-154.94
X154.98Y-154.94
X157.48Y-154.94
X159.98Y-154.94
X105.41Y-81.28
X105.41Y-83.82
X105.41Y-104.14
X105.41Y-106.68
X105.41Y-109.22
X105.41Y-111.76
X105.41Y-114.3
X105.41Y-121.92
X105.41Y-124.46
X105.41Y-127.0
X105.41Y-129.54
X105.41Y-132.08
X91.48Y-154.94
X93.98Y-154.94
X96.48Y-154.94
X154.98Y-78.74
X157.48Y-78.74
X159.98Y-78.74
T5
X132.08Y-142.62
X132.08Y-147.32
X132.08Y-152.02
X119.38Y-142.62
X119.38Y-147.32
X119.38Y-152.02
T4
G00X89.18Y-147.79
M15
G01X89.18Y-147.09
M16
G05
G00X98.78Y-147.79
M15
G01X98.78Y-147.09
M16
G05
G00X152.68Y-71.59
M15
G01X152.68Y-70.89
M16
G05
G00X162.28Y-71.59
M15
G01X162.28Y-70.89
M16
G05
G00X152.68Y-33.49
M15
G01X152.68Y-32.79
M16
G05
G00X162.28Y-33.49
M15
G01X162.28Y-32.79
M16
G05
G00X89.18Y-71.59
M15
G01X89.18Y-70.89
M16
G05
G00X98.78Y-71.59
M15
G01X98.78Y-70.89
M16
G05
G00X89.18Y-33.49
M15
G01X89.18Y-32.79
M16
G05
G00X98.78Y-33.49
M15
G01X98.78Y-32.79
M16
G05
G00X152.68Y-109.69
M15
G01X152.68Y-108.99
M16
G05
G00X162.28Y-109.69
M15
G01X162.28Y-108.99
M16
G05
G00X89.18Y-109.69
M15
G01X89.18Y-108.99
M16
G05
G00X98.78Y-109.69
M15
G01X98.78Y-108.99
M16
G05
G00X152.68Y-147.79
M15
G01X152.68Y-147.09
M16
G05
G00X162.28Y-147.79
M15
G01X162.28Y-147.09
M16
G05
T0
M30
