G04 #@! TF.GenerationSoftware,KiCad,Pcbnew,5.1.6-c6e7f7d~86~ubuntu18.04.1*
G04 #@! TF.CreationDate,2020-06-01T06:43:38-04:00*
G04 #@! TF.ProjectId,f405_breakout,66343035-5f62-4726-9561-6b6f75742e6b,rev?*
G04 #@! TF.SameCoordinates,Original*
G04 #@! TF.FileFunction,Paste,Top*
G04 #@! TF.FilePolarity,Positive*
%FSLAX46Y46*%
G04 Gerber Fmt 4.6, Leading zero omitted, Abs format (unit mm)*
G04 Created by KiCad (PCBNEW 5.1.6-c6e7f7d~86~ubuntu18.04.1) date 2020-06-01 06:43:38*
%MOMM*%
%LPD*%
G01*
G04 APERTURE LIST*
%ADD10R,0.900000X1.200000*%
%ADD11R,1.400000X1.200000*%
%ADD12R,3.800000X2.000000*%
%ADD13R,1.500000X2.000000*%
G04 APERTURE END LIST*
G36*
G01*
X130207600Y-79020350D02*
X130207600Y-79932850D01*
G75*
G02*
X129963850Y-80176600I-243750J0D01*
G01*
X129476350Y-80176600D01*
G75*
G02*
X129232600Y-79932850I0J243750D01*
G01*
X129232600Y-79020350D01*
G75*
G02*
X129476350Y-78776600I243750J0D01*
G01*
X129963850Y-78776600D01*
G75*
G02*
X130207600Y-79020350I0J-243750D01*
G01*
G37*
G36*
G01*
X132082600Y-79020350D02*
X132082600Y-79932850D01*
G75*
G02*
X131838850Y-80176600I-243750J0D01*
G01*
X131351350Y-80176600D01*
G75*
G02*
X131107600Y-79932850I0J243750D01*
G01*
X131107600Y-79020350D01*
G75*
G02*
X131351350Y-78776600I243750J0D01*
G01*
X131838850Y-78776600D01*
G75*
G02*
X132082600Y-79020350I0J-243750D01*
G01*
G37*
G36*
G01*
X137246621Y-96570428D02*
X137490572Y-96814380D01*
G75*
G02*
X137490572Y-97022976I-104298J-104298D01*
G01*
X137281976Y-97231572D01*
G75*
G02*
X137073380Y-97231572I-104298J104298D01*
G01*
X136829428Y-96987620D01*
G75*
G02*
X136829428Y-96779024I104298J104298D01*
G01*
X137038024Y-96570428D01*
G75*
G02*
X137246620Y-96570428I104298J-104298D01*
G01*
G37*
G36*
G01*
X136560727Y-97256322D02*
X136804678Y-97500274D01*
G75*
G02*
X136804678Y-97708870I-104298J-104298D01*
G01*
X136596082Y-97917466D01*
G75*
G02*
X136387486Y-97917466I-104298J104298D01*
G01*
X136143534Y-97673514D01*
G75*
G02*
X136143534Y-97464918I104298J104298D01*
G01*
X136352130Y-97256322D01*
G75*
G02*
X136560726Y-97256322I104298J-104298D01*
G01*
G37*
G36*
G01*
X130642621Y-100126428D02*
X130886572Y-100370380D01*
G75*
G02*
X130886572Y-100578976I-104298J-104298D01*
G01*
X130677976Y-100787572D01*
G75*
G02*
X130469380Y-100787572I-104298J104298D01*
G01*
X130225428Y-100543620D01*
G75*
G02*
X130225428Y-100335024I104298J104298D01*
G01*
X130434024Y-100126428D01*
G75*
G02*
X130642620Y-100126428I104298J-104298D01*
G01*
G37*
G36*
G01*
X129956727Y-100812322D02*
X130200678Y-101056274D01*
G75*
G02*
X130200678Y-101264870I-104298J-104298D01*
G01*
X129992082Y-101473466D01*
G75*
G02*
X129783486Y-101473466I-104298J104298D01*
G01*
X129539534Y-101229514D01*
G75*
G02*
X129539534Y-101020918I104298J104298D01*
G01*
X129748130Y-100812322D01*
G75*
G02*
X129956726Y-100812322I104298J-104298D01*
G01*
G37*
G36*
G01*
X134417750Y-56995000D02*
X135330250Y-56995000D01*
G75*
G02*
X135574000Y-57238750I0J-243750D01*
G01*
X135574000Y-57726250D01*
G75*
G02*
X135330250Y-57970000I-243750J0D01*
G01*
X134417750Y-57970000D01*
G75*
G02*
X134174000Y-57726250I0J243750D01*
G01*
X134174000Y-57238750D01*
G75*
G02*
X134417750Y-56995000I243750J0D01*
G01*
G37*
G36*
G01*
X134417750Y-58870000D02*
X135330250Y-58870000D01*
G75*
G02*
X135574000Y-59113750I0J-243750D01*
G01*
X135574000Y-59601250D01*
G75*
G02*
X135330250Y-59845000I-243750J0D01*
G01*
X134417750Y-59845000D01*
G75*
G02*
X134174000Y-59601250I0J243750D01*
G01*
X134174000Y-59113750D01*
G75*
G02*
X134417750Y-58870000I243750J0D01*
G01*
G37*
G36*
G01*
X135798727Y-96494322D02*
X136042678Y-96738274D01*
G75*
G02*
X136042678Y-96946870I-104298J-104298D01*
G01*
X135834082Y-97155466D01*
G75*
G02*
X135625486Y-97155466I-104298J104298D01*
G01*
X135381534Y-96911514D01*
G75*
G02*
X135381534Y-96702918I104298J104298D01*
G01*
X135590130Y-96494322D01*
G75*
G02*
X135798726Y-96494322I104298J-104298D01*
G01*
G37*
G36*
G01*
X136484621Y-95808428D02*
X136728572Y-96052380D01*
G75*
G02*
X136728572Y-96260976I-104298J-104298D01*
G01*
X136519976Y-96469572D01*
G75*
G02*
X136311380Y-96469572I-104298J104298D01*
G01*
X136067428Y-96225620D01*
G75*
G02*
X136067428Y-96017024I104298J104298D01*
G01*
X136276024Y-95808428D01*
G75*
G02*
X136484620Y-95808428I104298J-104298D01*
G01*
G37*
G36*
G01*
X137007322Y-90134273D02*
X137251274Y-89890322D01*
G75*
G02*
X137459870Y-89890322I104298J-104298D01*
G01*
X137668466Y-90098918D01*
G75*
G02*
X137668466Y-90307514I-104298J-104298D01*
G01*
X137424514Y-90551466D01*
G75*
G02*
X137215918Y-90551466I-104298J104298D01*
G01*
X137007322Y-90342870D01*
G75*
G02*
X137007322Y-90134274I104298J104298D01*
G01*
G37*
G36*
G01*
X136321428Y-89448379D02*
X136565380Y-89204428D01*
G75*
G02*
X136773976Y-89204428I104298J-104298D01*
G01*
X136982572Y-89413024D01*
G75*
G02*
X136982572Y-89621620I-104298J-104298D01*
G01*
X136738620Y-89865572D01*
G75*
G02*
X136530024Y-89865572I-104298J104298D01*
G01*
X136321428Y-89656976D01*
G75*
G02*
X136321428Y-89448380I104298J104298D01*
G01*
G37*
G36*
G01*
X137083428Y-88686379D02*
X137327380Y-88442428D01*
G75*
G02*
X137535976Y-88442428I104298J-104298D01*
G01*
X137744572Y-88651024D01*
G75*
G02*
X137744572Y-88859620I-104298J-104298D01*
G01*
X137500620Y-89103572D01*
G75*
G02*
X137292024Y-89103572I-104298J104298D01*
G01*
X137083428Y-88894976D01*
G75*
G02*
X137083428Y-88686380I104298J104298D01*
G01*
G37*
G36*
G01*
X137769322Y-89372273D02*
X138013274Y-89128322D01*
G75*
G02*
X138221870Y-89128322I104298J-104298D01*
G01*
X138430466Y-89336918D01*
G75*
G02*
X138430466Y-89545514I-104298J-104298D01*
G01*
X138186514Y-89789466D01*
G75*
G02*
X137977918Y-89789466I-104298J104298D01*
G01*
X137769322Y-89580870D01*
G75*
G02*
X137769322Y-89372274I104298J104298D01*
G01*
G37*
G36*
G01*
X144323750Y-67252000D02*
X145236250Y-67252000D01*
G75*
G02*
X145480000Y-67495750I0J-243750D01*
G01*
X145480000Y-67983250D01*
G75*
G02*
X145236250Y-68227000I-243750J0D01*
G01*
X144323750Y-68227000D01*
G75*
G02*
X144080000Y-67983250I0J243750D01*
G01*
X144080000Y-67495750D01*
G75*
G02*
X144323750Y-67252000I243750J0D01*
G01*
G37*
G36*
G01*
X144323750Y-65377000D02*
X145236250Y-65377000D01*
G75*
G02*
X145480000Y-65620750I0J-243750D01*
G01*
X145480000Y-66108250D01*
G75*
G02*
X145236250Y-66352000I-243750J0D01*
G01*
X144323750Y-66352000D01*
G75*
G02*
X144080000Y-66108250I0J243750D01*
G01*
X144080000Y-65620750D01*
G75*
G02*
X144323750Y-65377000I243750J0D01*
G01*
G37*
G36*
G01*
X130950072Y-85113121D02*
X130706120Y-85357072D01*
G75*
G02*
X130497524Y-85357072I-104298J104298D01*
G01*
X130288928Y-85148476D01*
G75*
G02*
X130288928Y-84939880I104298J104298D01*
G01*
X130532880Y-84695928D01*
G75*
G02*
X130741476Y-84695928I104298J-104298D01*
G01*
X130950072Y-84904524D01*
G75*
G02*
X130950072Y-85113120I-104298J-104298D01*
G01*
G37*
G36*
G01*
X130264178Y-84427227D02*
X130020226Y-84671178D01*
G75*
G02*
X129811630Y-84671178I-104298J104298D01*
G01*
X129603034Y-84462582D01*
G75*
G02*
X129603034Y-84253986I104298J104298D01*
G01*
X129846986Y-84010034D01*
G75*
G02*
X130055582Y-84010034I104298J-104298D01*
G01*
X130264178Y-84218630D01*
G75*
G02*
X130264178Y-84427226I-104298J-104298D01*
G01*
G37*
G36*
G01*
X131026178Y-83665227D02*
X130782226Y-83909178D01*
G75*
G02*
X130573630Y-83909178I-104298J104298D01*
G01*
X130365034Y-83700582D01*
G75*
G02*
X130365034Y-83491986I104298J104298D01*
G01*
X130608986Y-83248034D01*
G75*
G02*
X130817582Y-83248034I104298J-104298D01*
G01*
X131026178Y-83456630D01*
G75*
G02*
X131026178Y-83665226I-104298J-104298D01*
G01*
G37*
G36*
G01*
X131712072Y-84351121D02*
X131468120Y-84595072D01*
G75*
G02*
X131259524Y-84595072I-104298J104298D01*
G01*
X131050928Y-84386476D01*
G75*
G02*
X131050928Y-84177880I104298J104298D01*
G01*
X131294880Y-83933928D01*
G75*
G02*
X131503476Y-83933928I104298J-104298D01*
G01*
X131712072Y-84142524D01*
G75*
G02*
X131712072Y-84351120I-104298J-104298D01*
G01*
G37*
G36*
G01*
X122006621Y-91426928D02*
X122250572Y-91670880D01*
G75*
G02*
X122250572Y-91879476I-104298J-104298D01*
G01*
X122041976Y-92088072D01*
G75*
G02*
X121833380Y-92088072I-104298J104298D01*
G01*
X121589428Y-91844120D01*
G75*
G02*
X121589428Y-91635524I104298J104298D01*
G01*
X121798024Y-91426928D01*
G75*
G02*
X122006620Y-91426928I104298J-104298D01*
G01*
G37*
G36*
G01*
X121320727Y-92112822D02*
X121564678Y-92356774D01*
G75*
G02*
X121564678Y-92565370I-104298J-104298D01*
G01*
X121356082Y-92773966D01*
G75*
G02*
X121147486Y-92773966I-104298J104298D01*
G01*
X120903534Y-92530014D01*
G75*
G02*
X120903534Y-92321418I104298J104298D01*
G01*
X121112130Y-92112822D01*
G75*
G02*
X121320726Y-92112822I104298J-104298D01*
G01*
G37*
G36*
G01*
X120558727Y-91350822D02*
X120802678Y-91594774D01*
G75*
G02*
X120802678Y-91803370I-104298J-104298D01*
G01*
X120594082Y-92011966D01*
G75*
G02*
X120385486Y-92011966I-104298J104298D01*
G01*
X120141534Y-91768014D01*
G75*
G02*
X120141534Y-91559418I104298J104298D01*
G01*
X120350130Y-91350822D01*
G75*
G02*
X120558726Y-91350822I104298J-104298D01*
G01*
G37*
G36*
G01*
X121244621Y-90664928D02*
X121488572Y-90908880D01*
G75*
G02*
X121488572Y-91117476I-104298J-104298D01*
G01*
X121279976Y-91326072D01*
G75*
G02*
X121071380Y-91326072I-104298J104298D01*
G01*
X120827428Y-91082120D01*
G75*
G02*
X120827428Y-90873524I104298J104298D01*
G01*
X121036024Y-90664928D01*
G75*
G02*
X121244620Y-90664928I104298J-104298D01*
G01*
G37*
G36*
G01*
X127762466Y-100975515D02*
X127518514Y-101219466D01*
G75*
G02*
X127309918Y-101219466I-104298J104298D01*
G01*
X127101322Y-101010870D01*
G75*
G02*
X127101322Y-100802274I104298J104298D01*
G01*
X127345274Y-100558322D01*
G75*
G02*
X127553870Y-100558322I104298J-104298D01*
G01*
X127762466Y-100766918D01*
G75*
G02*
X127762466Y-100975514I-104298J-104298D01*
G01*
G37*
G36*
G01*
X127076572Y-100289621D02*
X126832620Y-100533572D01*
G75*
G02*
X126624024Y-100533572I-104298J104298D01*
G01*
X126415428Y-100324976D01*
G75*
G02*
X126415428Y-100116380I104298J104298D01*
G01*
X126659380Y-99872428D01*
G75*
G02*
X126867976Y-99872428I104298J-104298D01*
G01*
X127076572Y-100081024D01*
G75*
G02*
X127076572Y-100289620I-104298J-104298D01*
G01*
G37*
G36*
G01*
X126314572Y-101051621D02*
X126070620Y-101295572D01*
G75*
G02*
X125862024Y-101295572I-104298J104298D01*
G01*
X125653428Y-101086976D01*
G75*
G02*
X125653428Y-100878380I104298J104298D01*
G01*
X125897380Y-100634428D01*
G75*
G02*
X126105976Y-100634428I104298J-104298D01*
G01*
X126314572Y-100843024D01*
G75*
G02*
X126314572Y-101051620I-104298J-104298D01*
G01*
G37*
G36*
G01*
X127000466Y-101737515D02*
X126756514Y-101981466D01*
G75*
G02*
X126547918Y-101981466I-104298J104298D01*
G01*
X126339322Y-101772870D01*
G75*
G02*
X126339322Y-101564274I104298J104298D01*
G01*
X126583274Y-101320322D01*
G75*
G02*
X126791870Y-101320322I104298J-104298D01*
G01*
X127000466Y-101528918D01*
G75*
G02*
X127000466Y-101737514I-104298J-104298D01*
G01*
G37*
G36*
G01*
X133510031Y-84466861D02*
X133147638Y-84104469D01*
G75*
G02*
X133147638Y-83795109I154680J154680D01*
G01*
X133456997Y-83485750D01*
G75*
G02*
X133766357Y-83485750I154680J-154680D01*
G01*
X134128750Y-83848143D01*
G75*
G02*
X134128750Y-84157503I-154680J-154680D01*
G01*
X133819391Y-84466862D01*
G75*
G02*
X133510031Y-84466862I-154680J154680D01*
G01*
G37*
G36*
G01*
X132396337Y-85580555D02*
X132033944Y-85218163D01*
G75*
G02*
X132033944Y-84908803I154680J154680D01*
G01*
X132343303Y-84599444D01*
G75*
G02*
X132652663Y-84599444I154680J-154680D01*
G01*
X133015056Y-84961837D01*
G75*
G02*
X133015056Y-85271197I-154680J-154680D01*
G01*
X132705697Y-85580556D01*
G75*
G02*
X132396337Y-85580556I-154680J154680D01*
G01*
G37*
G36*
G01*
X122410555Y-89853663D02*
X122048163Y-90216056D01*
G75*
G02*
X121738803Y-90216056I-154680J154680D01*
G01*
X121429444Y-89906697D01*
G75*
G02*
X121429444Y-89597337I154680J154680D01*
G01*
X121791837Y-89234944D01*
G75*
G02*
X122101197Y-89234944I154680J-154680D01*
G01*
X122410556Y-89544303D01*
G75*
G02*
X122410556Y-89853663I-154680J-154680D01*
G01*
G37*
G36*
G01*
X121296861Y-88739969D02*
X120934469Y-89102362D01*
G75*
G02*
X120625109Y-89102362I-154680J154680D01*
G01*
X120315750Y-88793003D01*
G75*
G02*
X120315750Y-88483643I154680J154680D01*
G01*
X120678143Y-88121250D01*
G75*
G02*
X120987503Y-88121250I154680J-154680D01*
G01*
X121296862Y-88430609D01*
G75*
G02*
X121296862Y-88739969I-154680J-154680D01*
G01*
G37*
G36*
G01*
X132633500Y-101814000D02*
X132288500Y-101814000D01*
G75*
G02*
X132141000Y-101666500I0J147500D01*
G01*
X132141000Y-101371500D01*
G75*
G02*
X132288500Y-101224000I147500J0D01*
G01*
X132633500Y-101224000D01*
G75*
G02*
X132781000Y-101371500I0J-147500D01*
G01*
X132781000Y-101666500D01*
G75*
G02*
X132633500Y-101814000I-147500J0D01*
G01*
G37*
G36*
G01*
X132633500Y-102784000D02*
X132288500Y-102784000D01*
G75*
G02*
X132141000Y-102636500I0J147500D01*
G01*
X132141000Y-102341500D01*
G75*
G02*
X132288500Y-102194000I147500J0D01*
G01*
X132633500Y-102194000D01*
G75*
G02*
X132781000Y-102341500I0J-147500D01*
G01*
X132781000Y-102636500D01*
G75*
G02*
X132633500Y-102784000I-147500J0D01*
G01*
G37*
G36*
G01*
X137622500Y-101224000D02*
X137967500Y-101224000D01*
G75*
G02*
X138115000Y-101371500I0J-147500D01*
G01*
X138115000Y-101666500D01*
G75*
G02*
X137967500Y-101814000I-147500J0D01*
G01*
X137622500Y-101814000D01*
G75*
G02*
X137475000Y-101666500I0J147500D01*
G01*
X137475000Y-101371500D01*
G75*
G02*
X137622500Y-101224000I147500J0D01*
G01*
G37*
G36*
G01*
X137622500Y-102194000D02*
X137967500Y-102194000D01*
G75*
G02*
X138115000Y-102341500I0J-147500D01*
G01*
X138115000Y-102636500D01*
G75*
G02*
X137967500Y-102784000I-147500J0D01*
G01*
X137622500Y-102784000D01*
G75*
G02*
X137475000Y-102636500I0J147500D01*
G01*
X137475000Y-102341500D01*
G75*
G02*
X137622500Y-102194000I147500J0D01*
G01*
G37*
D10*
X141226000Y-55880000D03*
X144526000Y-55880000D03*
G36*
G01*
X147576250Y-69728500D02*
X147063750Y-69728500D01*
G75*
G02*
X146845000Y-69509750I0J218750D01*
G01*
X146845000Y-69072250D01*
G75*
G02*
X147063750Y-68853500I218750J0D01*
G01*
X147576250Y-68853500D01*
G75*
G02*
X147795000Y-69072250I0J-218750D01*
G01*
X147795000Y-69509750D01*
G75*
G02*
X147576250Y-69728500I-218750J0D01*
G01*
G37*
G36*
G01*
X147576250Y-71303500D02*
X147063750Y-71303500D01*
G75*
G02*
X146845000Y-71084750I0J218750D01*
G01*
X146845000Y-70647250D01*
G75*
G02*
X147063750Y-70428500I218750J0D01*
G01*
X147576250Y-70428500D01*
G75*
G02*
X147795000Y-70647250I0J-218750D01*
G01*
X147795000Y-71084750D01*
G75*
G02*
X147576250Y-71303500I-218750J0D01*
G01*
G37*
G36*
G01*
X116583750Y-66872500D02*
X117096250Y-66872500D01*
G75*
G02*
X117315000Y-67091250I0J-218750D01*
G01*
X117315000Y-67528750D01*
G75*
G02*
X117096250Y-67747500I-218750J0D01*
G01*
X116583750Y-67747500D01*
G75*
G02*
X116365000Y-67528750I0J218750D01*
G01*
X116365000Y-67091250D01*
G75*
G02*
X116583750Y-66872500I218750J0D01*
G01*
G37*
G36*
G01*
X116583750Y-65297500D02*
X117096250Y-65297500D01*
G75*
G02*
X117315000Y-65516250I0J-218750D01*
G01*
X117315000Y-65953750D01*
G75*
G02*
X117096250Y-66172500I-218750J0D01*
G01*
X116583750Y-66172500D01*
G75*
G02*
X116365000Y-65953750I0J218750D01*
G01*
X116365000Y-65516250D01*
G75*
G02*
X116583750Y-65297500I218750J0D01*
G01*
G37*
G36*
G01*
X139378129Y-95353506D02*
X138732894Y-94708271D01*
G75*
G02*
X138732894Y-94363557I172357J172357D01*
G01*
X139077609Y-94018842D01*
G75*
G02*
X139422323Y-94018842I172357J-172357D01*
G01*
X140067558Y-94664077D01*
G75*
G02*
X140067558Y-95008791I-172357J-172357D01*
G01*
X139722843Y-95353506D01*
G75*
G02*
X139378129Y-95353506I-172357J172357D01*
G01*
G37*
G36*
G01*
X138052303Y-96679332D02*
X137407068Y-96034097D01*
G75*
G02*
X137407068Y-95689383I172357J172357D01*
G01*
X137751783Y-95344668D01*
G75*
G02*
X138096497Y-95344668I172357J-172357D01*
G01*
X138741732Y-95989903D01*
G75*
G02*
X138741732Y-96334617I-172357J-172357D01*
G01*
X138397017Y-96679332D01*
G75*
G02*
X138052303Y-96679332I-172357J172357D01*
G01*
G37*
G36*
G01*
X137083500Y-56336250D02*
X137083500Y-55423750D01*
G75*
G02*
X137327250Y-55180000I243750J0D01*
G01*
X137814750Y-55180000D01*
G75*
G02*
X138058500Y-55423750I0J-243750D01*
G01*
X138058500Y-56336250D01*
G75*
G02*
X137814750Y-56580000I-243750J0D01*
G01*
X137327250Y-56580000D01*
G75*
G02*
X137083500Y-56336250I0J243750D01*
G01*
G37*
G36*
G01*
X138958500Y-56336250D02*
X138958500Y-55423750D01*
G75*
G02*
X139202250Y-55180000I243750J0D01*
G01*
X139689750Y-55180000D01*
G75*
G02*
X139933500Y-55423750I0J-243750D01*
G01*
X139933500Y-56336250D01*
G75*
G02*
X139689750Y-56580000I-243750J0D01*
G01*
X139202250Y-56580000D01*
G75*
G02*
X138958500Y-56336250I0J243750D01*
G01*
G37*
D11*
X134028000Y-102831000D03*
X136228000Y-102831000D03*
X136228000Y-101131000D03*
X134028000Y-101131000D03*
G36*
G01*
X147576250Y-66680500D02*
X147063750Y-66680500D01*
G75*
G02*
X146845000Y-66461750I0J218750D01*
G01*
X146845000Y-66024250D01*
G75*
G02*
X147063750Y-65805500I218750J0D01*
G01*
X147576250Y-65805500D01*
G75*
G02*
X147795000Y-66024250I0J-218750D01*
G01*
X147795000Y-66461750D01*
G75*
G02*
X147576250Y-66680500I-218750J0D01*
G01*
G37*
G36*
G01*
X147576250Y-68255500D02*
X147063750Y-68255500D01*
G75*
G02*
X146845000Y-68036750I0J218750D01*
G01*
X146845000Y-67599250D01*
G75*
G02*
X147063750Y-67380500I218750J0D01*
G01*
X147576250Y-67380500D01*
G75*
G02*
X147795000Y-67599250I0J-218750D01*
G01*
X147795000Y-68036750D01*
G75*
G02*
X147576250Y-68255500I-218750J0D01*
G01*
G37*
G36*
G01*
X123118800Y-99969100D02*
X123118800Y-99624100D01*
G75*
G02*
X123266300Y-99476600I147500J0D01*
G01*
X123561300Y-99476600D01*
G75*
G02*
X123708800Y-99624100I0J-147500D01*
G01*
X123708800Y-99969100D01*
G75*
G02*
X123561300Y-100116600I-147500J0D01*
G01*
X123266300Y-100116600D01*
G75*
G02*
X123118800Y-99969100I0J147500D01*
G01*
G37*
G36*
G01*
X124088800Y-99969100D02*
X124088800Y-99624100D01*
G75*
G02*
X124236300Y-99476600I147500J0D01*
G01*
X124531300Y-99476600D01*
G75*
G02*
X124678800Y-99624100I0J-147500D01*
G01*
X124678800Y-99969100D01*
G75*
G02*
X124531300Y-100116600I-147500J0D01*
G01*
X124236300Y-100116600D01*
G75*
G02*
X124088800Y-99969100I0J147500D01*
G01*
G37*
G36*
G01*
X116583750Y-69920500D02*
X117096250Y-69920500D01*
G75*
G02*
X117315000Y-70139250I0J-218750D01*
G01*
X117315000Y-70576750D01*
G75*
G02*
X117096250Y-70795500I-218750J0D01*
G01*
X116583750Y-70795500D01*
G75*
G02*
X116365000Y-70576750I0J218750D01*
G01*
X116365000Y-70139250D01*
G75*
G02*
X116583750Y-69920500I218750J0D01*
G01*
G37*
G36*
G01*
X116583750Y-68345500D02*
X117096250Y-68345500D01*
G75*
G02*
X117315000Y-68564250I0J-218750D01*
G01*
X117315000Y-69001750D01*
G75*
G02*
X117096250Y-69220500I-218750J0D01*
G01*
X116583750Y-69220500D01*
G75*
G02*
X116365000Y-69001750I0J218750D01*
G01*
X116365000Y-68564250D01*
G75*
G02*
X116583750Y-68345500I218750J0D01*
G01*
G37*
G36*
G01*
X133512821Y-86029428D02*
X133756772Y-86273380D01*
G75*
G02*
X133756772Y-86481976I-104298J-104298D01*
G01*
X133548176Y-86690572D01*
G75*
G02*
X133339580Y-86690572I-104298J104298D01*
G01*
X133095628Y-86446620D01*
G75*
G02*
X133095628Y-86238024I104298J104298D01*
G01*
X133304224Y-86029428D01*
G75*
G02*
X133512820Y-86029428I104298J-104298D01*
G01*
G37*
G36*
G01*
X134198715Y-85343534D02*
X134442666Y-85587486D01*
G75*
G02*
X134442666Y-85796082I-104298J-104298D01*
G01*
X134234070Y-86004678D01*
G75*
G02*
X134025474Y-86004678I-104298J104298D01*
G01*
X133781522Y-85760726D01*
G75*
G02*
X133781522Y-85552130I104298J104298D01*
G01*
X133990118Y-85343534D01*
G75*
G02*
X134198714Y-85343534I104298J-104298D01*
G01*
G37*
G36*
G01*
X134879000Y-99867500D02*
X134879000Y-99522500D01*
G75*
G02*
X135026500Y-99375000I147500J0D01*
G01*
X135321500Y-99375000D01*
G75*
G02*
X135469000Y-99522500I0J-147500D01*
G01*
X135469000Y-99867500D01*
G75*
G02*
X135321500Y-100015000I-147500J0D01*
G01*
X135026500Y-100015000D01*
G75*
G02*
X134879000Y-99867500I0J147500D01*
G01*
G37*
G36*
G01*
X135849000Y-99867500D02*
X135849000Y-99522500D01*
G75*
G02*
X135996500Y-99375000I147500J0D01*
G01*
X136291500Y-99375000D01*
G75*
G02*
X136439000Y-99522500I0J-147500D01*
G01*
X136439000Y-99867500D01*
G75*
G02*
X136291500Y-100015000I-147500J0D01*
G01*
X135996500Y-100015000D01*
G75*
G02*
X135849000Y-99867500I0J147500D01*
G01*
G37*
D12*
X139700000Y-66040000D03*
D13*
X139700000Y-59740000D03*
X137400000Y-59740000D03*
X142000000Y-59740000D03*
G36*
G01*
X131502222Y-99869456D02*
X131396156Y-99975522D01*
G75*
G02*
X131290090Y-99975522I-53033J53033D01*
G01*
X130300140Y-98985572D01*
G75*
G02*
X130300140Y-98879506I53033J53033D01*
G01*
X130406206Y-98773440D01*
G75*
G02*
X130512272Y-98773440I53033J-53033D01*
G01*
X131502222Y-99763390D01*
G75*
G02*
X131502222Y-99869456I-53033J-53033D01*
G01*
G37*
G36*
G01*
X131855775Y-99515903D02*
X131749709Y-99621969D01*
G75*
G02*
X131643643Y-99621969I-53033J53033D01*
G01*
X130653693Y-98632019D01*
G75*
G02*
X130653693Y-98525953I53033J53033D01*
G01*
X130759759Y-98419887D01*
G75*
G02*
X130865825Y-98419887I53033J-53033D01*
G01*
X131855775Y-99409837D01*
G75*
G02*
X131855775Y-99515903I-53033J-53033D01*
G01*
G37*
G36*
G01*
X132209328Y-99162350D02*
X132103262Y-99268416D01*
G75*
G02*
X131997196Y-99268416I-53033J53033D01*
G01*
X131007246Y-98278466D01*
G75*
G02*
X131007246Y-98172400I53033J53033D01*
G01*
X131113312Y-98066334D01*
G75*
G02*
X131219378Y-98066334I53033J-53033D01*
G01*
X132209328Y-99056284D01*
G75*
G02*
X132209328Y-99162350I-53033J-53033D01*
G01*
G37*
G36*
G01*
X132562882Y-98808796D02*
X132456816Y-98914862D01*
G75*
G02*
X132350750Y-98914862I-53033J53033D01*
G01*
X131360800Y-97924912D01*
G75*
G02*
X131360800Y-97818846I53033J53033D01*
G01*
X131466866Y-97712780D01*
G75*
G02*
X131572932Y-97712780I53033J-53033D01*
G01*
X132562882Y-98702730D01*
G75*
G02*
X132562882Y-98808796I-53033J-53033D01*
G01*
G37*
G36*
G01*
X132916435Y-98455243D02*
X132810369Y-98561309D01*
G75*
G02*
X132704303Y-98561309I-53033J53033D01*
G01*
X131714353Y-97571359D01*
G75*
G02*
X131714353Y-97465293I53033J53033D01*
G01*
X131820419Y-97359227D01*
G75*
G02*
X131926485Y-97359227I53033J-53033D01*
G01*
X132916435Y-98349177D01*
G75*
G02*
X132916435Y-98455243I-53033J-53033D01*
G01*
G37*
G36*
G01*
X133269989Y-98101689D02*
X133163923Y-98207755D01*
G75*
G02*
X133057857Y-98207755I-53033J53033D01*
G01*
X132067907Y-97217805D01*
G75*
G02*
X132067907Y-97111739I53033J53033D01*
G01*
X132173973Y-97005673D01*
G75*
G02*
X132280039Y-97005673I53033J-53033D01*
G01*
X133269989Y-97995623D01*
G75*
G02*
X133269989Y-98101689I-53033J-53033D01*
G01*
G37*
G36*
G01*
X133623542Y-97748136D02*
X133517476Y-97854202D01*
G75*
G02*
X133411410Y-97854202I-53033J53033D01*
G01*
X132421460Y-96864252D01*
G75*
G02*
X132421460Y-96758186I53033J53033D01*
G01*
X132527526Y-96652120D01*
G75*
G02*
X132633592Y-96652120I53033J-53033D01*
G01*
X133623542Y-97642070D01*
G75*
G02*
X133623542Y-97748136I-53033J-53033D01*
G01*
G37*
G36*
G01*
X133977095Y-97394583D02*
X133871029Y-97500649D01*
G75*
G02*
X133764963Y-97500649I-53033J53033D01*
G01*
X132775013Y-96510699D01*
G75*
G02*
X132775013Y-96404633I53033J53033D01*
G01*
X132881079Y-96298567D01*
G75*
G02*
X132987145Y-96298567I53033J-53033D01*
G01*
X133977095Y-97288517D01*
G75*
G02*
X133977095Y-97394583I-53033J-53033D01*
G01*
G37*
G36*
G01*
X134330649Y-97041029D02*
X134224583Y-97147095D01*
G75*
G02*
X134118517Y-97147095I-53033J53033D01*
G01*
X133128567Y-96157145D01*
G75*
G02*
X133128567Y-96051079I53033J53033D01*
G01*
X133234633Y-95945013D01*
G75*
G02*
X133340699Y-95945013I53033J-53033D01*
G01*
X134330649Y-96934963D01*
G75*
G02*
X134330649Y-97041029I-53033J-53033D01*
G01*
G37*
G36*
G01*
X134684202Y-96687476D02*
X134578136Y-96793542D01*
G75*
G02*
X134472070Y-96793542I-53033J53033D01*
G01*
X133482120Y-95803592D01*
G75*
G02*
X133482120Y-95697526I53033J53033D01*
G01*
X133588186Y-95591460D01*
G75*
G02*
X133694252Y-95591460I53033J-53033D01*
G01*
X134684202Y-96581410D01*
G75*
G02*
X134684202Y-96687476I-53033J-53033D01*
G01*
G37*
G36*
G01*
X135037755Y-96333923D02*
X134931689Y-96439989D01*
G75*
G02*
X134825623Y-96439989I-53033J53033D01*
G01*
X133835673Y-95450039D01*
G75*
G02*
X133835673Y-95343973I53033J53033D01*
G01*
X133941739Y-95237907D01*
G75*
G02*
X134047805Y-95237907I53033J-53033D01*
G01*
X135037755Y-96227857D01*
G75*
G02*
X135037755Y-96333923I-53033J-53033D01*
G01*
G37*
G36*
G01*
X135391309Y-95980369D02*
X135285243Y-96086435D01*
G75*
G02*
X135179177Y-96086435I-53033J53033D01*
G01*
X134189227Y-95096485D01*
G75*
G02*
X134189227Y-94990419I53033J53033D01*
G01*
X134295293Y-94884353D01*
G75*
G02*
X134401359Y-94884353I53033J-53033D01*
G01*
X135391309Y-95874303D01*
G75*
G02*
X135391309Y-95980369I-53033J-53033D01*
G01*
G37*
G36*
G01*
X135744862Y-95626816D02*
X135638796Y-95732882D01*
G75*
G02*
X135532730Y-95732882I-53033J53033D01*
G01*
X134542780Y-94742932D01*
G75*
G02*
X134542780Y-94636866I53033J53033D01*
G01*
X134648846Y-94530800D01*
G75*
G02*
X134754912Y-94530800I53033J-53033D01*
G01*
X135744862Y-95520750D01*
G75*
G02*
X135744862Y-95626816I-53033J-53033D01*
G01*
G37*
G36*
G01*
X136098416Y-95273262D02*
X135992350Y-95379328D01*
G75*
G02*
X135886284Y-95379328I-53033J53033D01*
G01*
X134896334Y-94389378D01*
G75*
G02*
X134896334Y-94283312I53033J53033D01*
G01*
X135002400Y-94177246D01*
G75*
G02*
X135108466Y-94177246I53033J-53033D01*
G01*
X136098416Y-95167196D01*
G75*
G02*
X136098416Y-95273262I-53033J-53033D01*
G01*
G37*
G36*
G01*
X136451969Y-94919709D02*
X136345903Y-95025775D01*
G75*
G02*
X136239837Y-95025775I-53033J53033D01*
G01*
X135249887Y-94035825D01*
G75*
G02*
X135249887Y-93929759I53033J53033D01*
G01*
X135355953Y-93823693D01*
G75*
G02*
X135462019Y-93823693I53033J-53033D01*
G01*
X136451969Y-94813643D01*
G75*
G02*
X136451969Y-94919709I-53033J-53033D01*
G01*
G37*
G36*
G01*
X136805522Y-94566156D02*
X136699456Y-94672222D01*
G75*
G02*
X136593390Y-94672222I-53033J53033D01*
G01*
X135603440Y-93682272D01*
G75*
G02*
X135603440Y-93576206I53033J53033D01*
G01*
X135709506Y-93470140D01*
G75*
G02*
X135815572Y-93470140I53033J-53033D01*
G01*
X136805522Y-94460090D01*
G75*
G02*
X136805522Y-94566156I-53033J-53033D01*
G01*
G37*
G36*
G01*
X136805522Y-90959910D02*
X135815572Y-91949860D01*
G75*
G02*
X135709506Y-91949860I-53033J53033D01*
G01*
X135603440Y-91843794D01*
G75*
G02*
X135603440Y-91737728I53033J53033D01*
G01*
X136593390Y-90747778D01*
G75*
G02*
X136699456Y-90747778I53033J-53033D01*
G01*
X136805522Y-90853844D01*
G75*
G02*
X136805522Y-90959910I-53033J-53033D01*
G01*
G37*
G36*
G01*
X136451969Y-90606357D02*
X135462019Y-91596307D01*
G75*
G02*
X135355953Y-91596307I-53033J53033D01*
G01*
X135249887Y-91490241D01*
G75*
G02*
X135249887Y-91384175I53033J53033D01*
G01*
X136239837Y-90394225D01*
G75*
G02*
X136345903Y-90394225I53033J-53033D01*
G01*
X136451969Y-90500291D01*
G75*
G02*
X136451969Y-90606357I-53033J-53033D01*
G01*
G37*
G36*
G01*
X136098416Y-90252804D02*
X135108466Y-91242754D01*
G75*
G02*
X135002400Y-91242754I-53033J53033D01*
G01*
X134896334Y-91136688D01*
G75*
G02*
X134896334Y-91030622I53033J53033D01*
G01*
X135886284Y-90040672D01*
G75*
G02*
X135992350Y-90040672I53033J-53033D01*
G01*
X136098416Y-90146738D01*
G75*
G02*
X136098416Y-90252804I-53033J-53033D01*
G01*
G37*
G36*
G01*
X135744862Y-89899250D02*
X134754912Y-90889200D01*
G75*
G02*
X134648846Y-90889200I-53033J53033D01*
G01*
X134542780Y-90783134D01*
G75*
G02*
X134542780Y-90677068I53033J53033D01*
G01*
X135532730Y-89687118D01*
G75*
G02*
X135638796Y-89687118I53033J-53033D01*
G01*
X135744862Y-89793184D01*
G75*
G02*
X135744862Y-89899250I-53033J-53033D01*
G01*
G37*
G36*
G01*
X135391309Y-89545697D02*
X134401359Y-90535647D01*
G75*
G02*
X134295293Y-90535647I-53033J53033D01*
G01*
X134189227Y-90429581D01*
G75*
G02*
X134189227Y-90323515I53033J53033D01*
G01*
X135179177Y-89333565D01*
G75*
G02*
X135285243Y-89333565I53033J-53033D01*
G01*
X135391309Y-89439631D01*
G75*
G02*
X135391309Y-89545697I-53033J-53033D01*
G01*
G37*
G36*
G01*
X135037755Y-89192143D02*
X134047805Y-90182093D01*
G75*
G02*
X133941739Y-90182093I-53033J53033D01*
G01*
X133835673Y-90076027D01*
G75*
G02*
X133835673Y-89969961I53033J53033D01*
G01*
X134825623Y-88980011D01*
G75*
G02*
X134931689Y-88980011I53033J-53033D01*
G01*
X135037755Y-89086077D01*
G75*
G02*
X135037755Y-89192143I-53033J-53033D01*
G01*
G37*
G36*
G01*
X134684202Y-88838590D02*
X133694252Y-89828540D01*
G75*
G02*
X133588186Y-89828540I-53033J53033D01*
G01*
X133482120Y-89722474D01*
G75*
G02*
X133482120Y-89616408I53033J53033D01*
G01*
X134472070Y-88626458D01*
G75*
G02*
X134578136Y-88626458I53033J-53033D01*
G01*
X134684202Y-88732524D01*
G75*
G02*
X134684202Y-88838590I-53033J-53033D01*
G01*
G37*
G36*
G01*
X134330649Y-88485037D02*
X133340699Y-89474987D01*
G75*
G02*
X133234633Y-89474987I-53033J53033D01*
G01*
X133128567Y-89368921D01*
G75*
G02*
X133128567Y-89262855I53033J53033D01*
G01*
X134118517Y-88272905D01*
G75*
G02*
X134224583Y-88272905I53033J-53033D01*
G01*
X134330649Y-88378971D01*
G75*
G02*
X134330649Y-88485037I-53033J-53033D01*
G01*
G37*
G36*
G01*
X133977095Y-88131483D02*
X132987145Y-89121433D01*
G75*
G02*
X132881079Y-89121433I-53033J53033D01*
G01*
X132775013Y-89015367D01*
G75*
G02*
X132775013Y-88909301I53033J53033D01*
G01*
X133764963Y-87919351D01*
G75*
G02*
X133871029Y-87919351I53033J-53033D01*
G01*
X133977095Y-88025417D01*
G75*
G02*
X133977095Y-88131483I-53033J-53033D01*
G01*
G37*
G36*
G01*
X133623542Y-87777930D02*
X132633592Y-88767880D01*
G75*
G02*
X132527526Y-88767880I-53033J53033D01*
G01*
X132421460Y-88661814D01*
G75*
G02*
X132421460Y-88555748I53033J53033D01*
G01*
X133411410Y-87565798D01*
G75*
G02*
X133517476Y-87565798I53033J-53033D01*
G01*
X133623542Y-87671864D01*
G75*
G02*
X133623542Y-87777930I-53033J-53033D01*
G01*
G37*
G36*
G01*
X133269989Y-87424377D02*
X132280039Y-88414327D01*
G75*
G02*
X132173973Y-88414327I-53033J53033D01*
G01*
X132067907Y-88308261D01*
G75*
G02*
X132067907Y-88202195I53033J53033D01*
G01*
X133057857Y-87212245D01*
G75*
G02*
X133163923Y-87212245I53033J-53033D01*
G01*
X133269989Y-87318311D01*
G75*
G02*
X133269989Y-87424377I-53033J-53033D01*
G01*
G37*
G36*
G01*
X132916435Y-87070823D02*
X131926485Y-88060773D01*
G75*
G02*
X131820419Y-88060773I-53033J53033D01*
G01*
X131714353Y-87954707D01*
G75*
G02*
X131714353Y-87848641I53033J53033D01*
G01*
X132704303Y-86858691D01*
G75*
G02*
X132810369Y-86858691I53033J-53033D01*
G01*
X132916435Y-86964757D01*
G75*
G02*
X132916435Y-87070823I-53033J-53033D01*
G01*
G37*
G36*
G01*
X132562882Y-86717270D02*
X131572932Y-87707220D01*
G75*
G02*
X131466866Y-87707220I-53033J53033D01*
G01*
X131360800Y-87601154D01*
G75*
G02*
X131360800Y-87495088I53033J53033D01*
G01*
X132350750Y-86505138D01*
G75*
G02*
X132456816Y-86505138I53033J-53033D01*
G01*
X132562882Y-86611204D01*
G75*
G02*
X132562882Y-86717270I-53033J-53033D01*
G01*
G37*
G36*
G01*
X132209328Y-86363716D02*
X131219378Y-87353666D01*
G75*
G02*
X131113312Y-87353666I-53033J53033D01*
G01*
X131007246Y-87247600D01*
G75*
G02*
X131007246Y-87141534I53033J53033D01*
G01*
X131997196Y-86151584D01*
G75*
G02*
X132103262Y-86151584I53033J-53033D01*
G01*
X132209328Y-86257650D01*
G75*
G02*
X132209328Y-86363716I-53033J-53033D01*
G01*
G37*
G36*
G01*
X131855775Y-86010163D02*
X130865825Y-87000113D01*
G75*
G02*
X130759759Y-87000113I-53033J53033D01*
G01*
X130653693Y-86894047D01*
G75*
G02*
X130653693Y-86787981I53033J53033D01*
G01*
X131643643Y-85798031D01*
G75*
G02*
X131749709Y-85798031I53033J-53033D01*
G01*
X131855775Y-85904097D01*
G75*
G02*
X131855775Y-86010163I-53033J-53033D01*
G01*
G37*
G36*
G01*
X131502222Y-85656610D02*
X130512272Y-86646560D01*
G75*
G02*
X130406206Y-86646560I-53033J53033D01*
G01*
X130300140Y-86540494D01*
G75*
G02*
X130300140Y-86434428I53033J53033D01*
G01*
X131290090Y-85444478D01*
G75*
G02*
X131396156Y-85444478I53033J-53033D01*
G01*
X131502222Y-85550544D01*
G75*
G02*
X131502222Y-85656610I-53033J-53033D01*
G01*
G37*
G36*
G01*
X128779860Y-86540494D02*
X128673794Y-86646560D01*
G75*
G02*
X128567728Y-86646560I-53033J53033D01*
G01*
X127577778Y-85656610D01*
G75*
G02*
X127577778Y-85550544I53033J53033D01*
G01*
X127683844Y-85444478D01*
G75*
G02*
X127789910Y-85444478I53033J-53033D01*
G01*
X128779860Y-86434428D01*
G75*
G02*
X128779860Y-86540494I-53033J-53033D01*
G01*
G37*
G36*
G01*
X128426307Y-86894047D02*
X128320241Y-87000113D01*
G75*
G02*
X128214175Y-87000113I-53033J53033D01*
G01*
X127224225Y-86010163D01*
G75*
G02*
X127224225Y-85904097I53033J53033D01*
G01*
X127330291Y-85798031D01*
G75*
G02*
X127436357Y-85798031I53033J-53033D01*
G01*
X128426307Y-86787981D01*
G75*
G02*
X128426307Y-86894047I-53033J-53033D01*
G01*
G37*
G36*
G01*
X128072754Y-87247600D02*
X127966688Y-87353666D01*
G75*
G02*
X127860622Y-87353666I-53033J53033D01*
G01*
X126870672Y-86363716D01*
G75*
G02*
X126870672Y-86257650I53033J53033D01*
G01*
X126976738Y-86151584D01*
G75*
G02*
X127082804Y-86151584I53033J-53033D01*
G01*
X128072754Y-87141534D01*
G75*
G02*
X128072754Y-87247600I-53033J-53033D01*
G01*
G37*
G36*
G01*
X127719200Y-87601154D02*
X127613134Y-87707220D01*
G75*
G02*
X127507068Y-87707220I-53033J53033D01*
G01*
X126517118Y-86717270D01*
G75*
G02*
X126517118Y-86611204I53033J53033D01*
G01*
X126623184Y-86505138D01*
G75*
G02*
X126729250Y-86505138I53033J-53033D01*
G01*
X127719200Y-87495088D01*
G75*
G02*
X127719200Y-87601154I-53033J-53033D01*
G01*
G37*
G36*
G01*
X127365647Y-87954707D02*
X127259581Y-88060773D01*
G75*
G02*
X127153515Y-88060773I-53033J53033D01*
G01*
X126163565Y-87070823D01*
G75*
G02*
X126163565Y-86964757I53033J53033D01*
G01*
X126269631Y-86858691D01*
G75*
G02*
X126375697Y-86858691I53033J-53033D01*
G01*
X127365647Y-87848641D01*
G75*
G02*
X127365647Y-87954707I-53033J-53033D01*
G01*
G37*
G36*
G01*
X127012093Y-88308261D02*
X126906027Y-88414327D01*
G75*
G02*
X126799961Y-88414327I-53033J53033D01*
G01*
X125810011Y-87424377D01*
G75*
G02*
X125810011Y-87318311I53033J53033D01*
G01*
X125916077Y-87212245D01*
G75*
G02*
X126022143Y-87212245I53033J-53033D01*
G01*
X127012093Y-88202195D01*
G75*
G02*
X127012093Y-88308261I-53033J-53033D01*
G01*
G37*
G36*
G01*
X126658540Y-88661814D02*
X126552474Y-88767880D01*
G75*
G02*
X126446408Y-88767880I-53033J53033D01*
G01*
X125456458Y-87777930D01*
G75*
G02*
X125456458Y-87671864I53033J53033D01*
G01*
X125562524Y-87565798D01*
G75*
G02*
X125668590Y-87565798I53033J-53033D01*
G01*
X126658540Y-88555748D01*
G75*
G02*
X126658540Y-88661814I-53033J-53033D01*
G01*
G37*
G36*
G01*
X126304987Y-89015367D02*
X126198921Y-89121433D01*
G75*
G02*
X126092855Y-89121433I-53033J53033D01*
G01*
X125102905Y-88131483D01*
G75*
G02*
X125102905Y-88025417I53033J53033D01*
G01*
X125208971Y-87919351D01*
G75*
G02*
X125315037Y-87919351I53033J-53033D01*
G01*
X126304987Y-88909301D01*
G75*
G02*
X126304987Y-89015367I-53033J-53033D01*
G01*
G37*
G36*
G01*
X125951433Y-89368921D02*
X125845367Y-89474987D01*
G75*
G02*
X125739301Y-89474987I-53033J53033D01*
G01*
X124749351Y-88485037D01*
G75*
G02*
X124749351Y-88378971I53033J53033D01*
G01*
X124855417Y-88272905D01*
G75*
G02*
X124961483Y-88272905I53033J-53033D01*
G01*
X125951433Y-89262855D01*
G75*
G02*
X125951433Y-89368921I-53033J-53033D01*
G01*
G37*
G36*
G01*
X125597880Y-89722474D02*
X125491814Y-89828540D01*
G75*
G02*
X125385748Y-89828540I-53033J53033D01*
G01*
X124395798Y-88838590D01*
G75*
G02*
X124395798Y-88732524I53033J53033D01*
G01*
X124501864Y-88626458D01*
G75*
G02*
X124607930Y-88626458I53033J-53033D01*
G01*
X125597880Y-89616408D01*
G75*
G02*
X125597880Y-89722474I-53033J-53033D01*
G01*
G37*
G36*
G01*
X125244327Y-90076027D02*
X125138261Y-90182093D01*
G75*
G02*
X125032195Y-90182093I-53033J53033D01*
G01*
X124042245Y-89192143D01*
G75*
G02*
X124042245Y-89086077I53033J53033D01*
G01*
X124148311Y-88980011D01*
G75*
G02*
X124254377Y-88980011I53033J-53033D01*
G01*
X125244327Y-89969961D01*
G75*
G02*
X125244327Y-90076027I-53033J-53033D01*
G01*
G37*
G36*
G01*
X124890773Y-90429581D02*
X124784707Y-90535647D01*
G75*
G02*
X124678641Y-90535647I-53033J53033D01*
G01*
X123688691Y-89545697D01*
G75*
G02*
X123688691Y-89439631I53033J53033D01*
G01*
X123794757Y-89333565D01*
G75*
G02*
X123900823Y-89333565I53033J-53033D01*
G01*
X124890773Y-90323515D01*
G75*
G02*
X124890773Y-90429581I-53033J-53033D01*
G01*
G37*
G36*
G01*
X124537220Y-90783134D02*
X124431154Y-90889200D01*
G75*
G02*
X124325088Y-90889200I-53033J53033D01*
G01*
X123335138Y-89899250D01*
G75*
G02*
X123335138Y-89793184I53033J53033D01*
G01*
X123441204Y-89687118D01*
G75*
G02*
X123547270Y-89687118I53033J-53033D01*
G01*
X124537220Y-90677068D01*
G75*
G02*
X124537220Y-90783134I-53033J-53033D01*
G01*
G37*
G36*
G01*
X124183666Y-91136688D02*
X124077600Y-91242754D01*
G75*
G02*
X123971534Y-91242754I-53033J53033D01*
G01*
X122981584Y-90252804D01*
G75*
G02*
X122981584Y-90146738I53033J53033D01*
G01*
X123087650Y-90040672D01*
G75*
G02*
X123193716Y-90040672I53033J-53033D01*
G01*
X124183666Y-91030622D01*
G75*
G02*
X124183666Y-91136688I-53033J-53033D01*
G01*
G37*
G36*
G01*
X123830113Y-91490241D02*
X123724047Y-91596307D01*
G75*
G02*
X123617981Y-91596307I-53033J53033D01*
G01*
X122628031Y-90606357D01*
G75*
G02*
X122628031Y-90500291I53033J53033D01*
G01*
X122734097Y-90394225D01*
G75*
G02*
X122840163Y-90394225I53033J-53033D01*
G01*
X123830113Y-91384175D01*
G75*
G02*
X123830113Y-91490241I-53033J-53033D01*
G01*
G37*
G36*
G01*
X123476560Y-91843794D02*
X123370494Y-91949860D01*
G75*
G02*
X123264428Y-91949860I-53033J53033D01*
G01*
X122274478Y-90959910D01*
G75*
G02*
X122274478Y-90853844I53033J53033D01*
G01*
X122380544Y-90747778D01*
G75*
G02*
X122486610Y-90747778I53033J-53033D01*
G01*
X123476560Y-91737728D01*
G75*
G02*
X123476560Y-91843794I-53033J-53033D01*
G01*
G37*
G36*
G01*
X123476560Y-93682272D02*
X122486610Y-94672222D01*
G75*
G02*
X122380544Y-94672222I-53033J53033D01*
G01*
X122274478Y-94566156D01*
G75*
G02*
X122274478Y-94460090I53033J53033D01*
G01*
X123264428Y-93470140D01*
G75*
G02*
X123370494Y-93470140I53033J-53033D01*
G01*
X123476560Y-93576206D01*
G75*
G02*
X123476560Y-93682272I-53033J-53033D01*
G01*
G37*
G36*
G01*
X123830113Y-94035825D02*
X122840163Y-95025775D01*
G75*
G02*
X122734097Y-95025775I-53033J53033D01*
G01*
X122628031Y-94919709D01*
G75*
G02*
X122628031Y-94813643I53033J53033D01*
G01*
X123617981Y-93823693D01*
G75*
G02*
X123724047Y-93823693I53033J-53033D01*
G01*
X123830113Y-93929759D01*
G75*
G02*
X123830113Y-94035825I-53033J-53033D01*
G01*
G37*
G36*
G01*
X124183666Y-94389378D02*
X123193716Y-95379328D01*
G75*
G02*
X123087650Y-95379328I-53033J53033D01*
G01*
X122981584Y-95273262D01*
G75*
G02*
X122981584Y-95167196I53033J53033D01*
G01*
X123971534Y-94177246D01*
G75*
G02*
X124077600Y-94177246I53033J-53033D01*
G01*
X124183666Y-94283312D01*
G75*
G02*
X124183666Y-94389378I-53033J-53033D01*
G01*
G37*
G36*
G01*
X124537220Y-94742932D02*
X123547270Y-95732882D01*
G75*
G02*
X123441204Y-95732882I-53033J53033D01*
G01*
X123335138Y-95626816D01*
G75*
G02*
X123335138Y-95520750I53033J53033D01*
G01*
X124325088Y-94530800D01*
G75*
G02*
X124431154Y-94530800I53033J-53033D01*
G01*
X124537220Y-94636866D01*
G75*
G02*
X124537220Y-94742932I-53033J-53033D01*
G01*
G37*
G36*
G01*
X124890773Y-95096485D02*
X123900823Y-96086435D01*
G75*
G02*
X123794757Y-96086435I-53033J53033D01*
G01*
X123688691Y-95980369D01*
G75*
G02*
X123688691Y-95874303I53033J53033D01*
G01*
X124678641Y-94884353D01*
G75*
G02*
X124784707Y-94884353I53033J-53033D01*
G01*
X124890773Y-94990419D01*
G75*
G02*
X124890773Y-95096485I-53033J-53033D01*
G01*
G37*
G36*
G01*
X125244327Y-95450039D02*
X124254377Y-96439989D01*
G75*
G02*
X124148311Y-96439989I-53033J53033D01*
G01*
X124042245Y-96333923D01*
G75*
G02*
X124042245Y-96227857I53033J53033D01*
G01*
X125032195Y-95237907D01*
G75*
G02*
X125138261Y-95237907I53033J-53033D01*
G01*
X125244327Y-95343973D01*
G75*
G02*
X125244327Y-95450039I-53033J-53033D01*
G01*
G37*
G36*
G01*
X125597880Y-95803592D02*
X124607930Y-96793542D01*
G75*
G02*
X124501864Y-96793542I-53033J53033D01*
G01*
X124395798Y-96687476D01*
G75*
G02*
X124395798Y-96581410I53033J53033D01*
G01*
X125385748Y-95591460D01*
G75*
G02*
X125491814Y-95591460I53033J-53033D01*
G01*
X125597880Y-95697526D01*
G75*
G02*
X125597880Y-95803592I-53033J-53033D01*
G01*
G37*
G36*
G01*
X125951433Y-96157145D02*
X124961483Y-97147095D01*
G75*
G02*
X124855417Y-97147095I-53033J53033D01*
G01*
X124749351Y-97041029D01*
G75*
G02*
X124749351Y-96934963I53033J53033D01*
G01*
X125739301Y-95945013D01*
G75*
G02*
X125845367Y-95945013I53033J-53033D01*
G01*
X125951433Y-96051079D01*
G75*
G02*
X125951433Y-96157145I-53033J-53033D01*
G01*
G37*
G36*
G01*
X126304987Y-96510699D02*
X125315037Y-97500649D01*
G75*
G02*
X125208971Y-97500649I-53033J53033D01*
G01*
X125102905Y-97394583D01*
G75*
G02*
X125102905Y-97288517I53033J53033D01*
G01*
X126092855Y-96298567D01*
G75*
G02*
X126198921Y-96298567I53033J-53033D01*
G01*
X126304987Y-96404633D01*
G75*
G02*
X126304987Y-96510699I-53033J-53033D01*
G01*
G37*
G36*
G01*
X126658540Y-96864252D02*
X125668590Y-97854202D01*
G75*
G02*
X125562524Y-97854202I-53033J53033D01*
G01*
X125456458Y-97748136D01*
G75*
G02*
X125456458Y-97642070I53033J53033D01*
G01*
X126446408Y-96652120D01*
G75*
G02*
X126552474Y-96652120I53033J-53033D01*
G01*
X126658540Y-96758186D01*
G75*
G02*
X126658540Y-96864252I-53033J-53033D01*
G01*
G37*
G36*
G01*
X127012093Y-97217805D02*
X126022143Y-98207755D01*
G75*
G02*
X125916077Y-98207755I-53033J53033D01*
G01*
X125810011Y-98101689D01*
G75*
G02*
X125810011Y-97995623I53033J53033D01*
G01*
X126799961Y-97005673D01*
G75*
G02*
X126906027Y-97005673I53033J-53033D01*
G01*
X127012093Y-97111739D01*
G75*
G02*
X127012093Y-97217805I-53033J-53033D01*
G01*
G37*
G36*
G01*
X127365647Y-97571359D02*
X126375697Y-98561309D01*
G75*
G02*
X126269631Y-98561309I-53033J53033D01*
G01*
X126163565Y-98455243D01*
G75*
G02*
X126163565Y-98349177I53033J53033D01*
G01*
X127153515Y-97359227D01*
G75*
G02*
X127259581Y-97359227I53033J-53033D01*
G01*
X127365647Y-97465293D01*
G75*
G02*
X127365647Y-97571359I-53033J-53033D01*
G01*
G37*
G36*
G01*
X127719200Y-97924912D02*
X126729250Y-98914862D01*
G75*
G02*
X126623184Y-98914862I-53033J53033D01*
G01*
X126517118Y-98808796D01*
G75*
G02*
X126517118Y-98702730I53033J53033D01*
G01*
X127507068Y-97712780D01*
G75*
G02*
X127613134Y-97712780I53033J-53033D01*
G01*
X127719200Y-97818846D01*
G75*
G02*
X127719200Y-97924912I-53033J-53033D01*
G01*
G37*
G36*
G01*
X128072754Y-98278466D02*
X127082804Y-99268416D01*
G75*
G02*
X126976738Y-99268416I-53033J53033D01*
G01*
X126870672Y-99162350D01*
G75*
G02*
X126870672Y-99056284I53033J53033D01*
G01*
X127860622Y-98066334D01*
G75*
G02*
X127966688Y-98066334I53033J-53033D01*
G01*
X128072754Y-98172400D01*
G75*
G02*
X128072754Y-98278466I-53033J-53033D01*
G01*
G37*
G36*
G01*
X128426307Y-98632019D02*
X127436357Y-99621969D01*
G75*
G02*
X127330291Y-99621969I-53033J53033D01*
G01*
X127224225Y-99515903D01*
G75*
G02*
X127224225Y-99409837I53033J53033D01*
G01*
X128214175Y-98419887D01*
G75*
G02*
X128320241Y-98419887I53033J-53033D01*
G01*
X128426307Y-98525953D01*
G75*
G02*
X128426307Y-98632019I-53033J-53033D01*
G01*
G37*
G36*
G01*
X128779860Y-98985572D02*
X127789910Y-99975522D01*
G75*
G02*
X127683844Y-99975522I-53033J53033D01*
G01*
X127577778Y-99869456D01*
G75*
G02*
X127577778Y-99763390I53033J53033D01*
G01*
X128567728Y-98773440D01*
G75*
G02*
X128673794Y-98773440I53033J-53033D01*
G01*
X128779860Y-98879506D01*
G75*
G02*
X128779860Y-98985572I-53033J-53033D01*
G01*
G37*
M02*
