G04 #@! TF.GenerationSoftware,KiCad,Pcbnew,5.1.6-c6e7f7d~86~ubuntu18.04.1*
G04 #@! TF.CreationDate,2020-06-01T06:43:38-04:00*
G04 #@! TF.ProjectId,f405_breakout,66343035-5f62-4726-9561-6b6f75742e6b,rev?*
G04 #@! TF.SameCoordinates,Original*
G04 #@! TF.FileFunction,Soldermask,Top*
G04 #@! TF.FilePolarity,Negative*
%FSLAX46Y46*%
G04 Gerber Fmt 4.6, Leading zero omitted, Abs format (unit mm)*
G04 Created by KiCad (PCBNEW 5.1.6-c6e7f7d~86~ubuntu18.04.1) date 2020-06-01 06:43:38*
%MOMM*%
%LPD*%
G01*
G04 APERTURE LIST*
%ADD10O,1.800000X1.800000*%
%ADD11R,1.800000X1.800000*%
%ADD12R,1.000000X1.300000*%
%ADD13R,1.500000X1.300000*%
%ADD14R,3.900000X2.100000*%
%ADD15R,1.600000X2.100000*%
G04 APERTURE END LIST*
D10*
X109220000Y-129540000D03*
X106680000Y-129540000D03*
X109220000Y-127000000D03*
X106680000Y-127000000D03*
X109220000Y-124460000D03*
X106680000Y-124460000D03*
X109220000Y-121920000D03*
X106680000Y-121920000D03*
X109220000Y-119380000D03*
X106680000Y-119380000D03*
X109220000Y-116840000D03*
X106680000Y-116840000D03*
X109220000Y-114300000D03*
X106680000Y-114300000D03*
X109220000Y-111760000D03*
D11*
X106680000Y-111760000D03*
D10*
X109220000Y-101600000D03*
X106680000Y-101600000D03*
X109220000Y-99060000D03*
X106680000Y-99060000D03*
X109220000Y-96520000D03*
X106680000Y-96520000D03*
X109220000Y-93980000D03*
X106680000Y-93980000D03*
X109220000Y-91440000D03*
X106680000Y-91440000D03*
X109220000Y-88900000D03*
X106680000Y-88900000D03*
X109220000Y-86360000D03*
X106680000Y-86360000D03*
X109220000Y-83820000D03*
D11*
X106680000Y-83820000D03*
D10*
X109220000Y-73660000D03*
X106680000Y-73660000D03*
X109220000Y-71120000D03*
X106680000Y-71120000D03*
X109220000Y-68580000D03*
X106680000Y-68580000D03*
X109220000Y-66040000D03*
X106680000Y-66040000D03*
X109220000Y-63500000D03*
X106680000Y-63500000D03*
X109220000Y-60960000D03*
X106680000Y-60960000D03*
X109220000Y-58420000D03*
X106680000Y-58420000D03*
X109220000Y-55880000D03*
D11*
X106680000Y-55880000D03*
D10*
X147320000Y-129540000D03*
X147320000Y-127000000D03*
X147320000Y-124460000D03*
X147320000Y-121920000D03*
X147320000Y-119380000D03*
D11*
X147320000Y-116840000D03*
D10*
X147320000Y-58420000D03*
D11*
X147320000Y-55880000D03*
D10*
X147320000Y-106680000D03*
X147320000Y-104140000D03*
X147320000Y-101600000D03*
X147320000Y-99060000D03*
D11*
X147320000Y-96520000D03*
D10*
X147320000Y-88900000D03*
X147320000Y-86360000D03*
X147320000Y-83820000D03*
X147320000Y-81280000D03*
D11*
X147320000Y-78740000D03*
G36*
G01*
X130257600Y-78995350D02*
X130257600Y-79957850D01*
G75*
G02*
X129988850Y-80226600I-268750J0D01*
G01*
X129451350Y-80226600D01*
G75*
G02*
X129182600Y-79957850I0J268750D01*
G01*
X129182600Y-78995350D01*
G75*
G02*
X129451350Y-78726600I268750J0D01*
G01*
X129988850Y-78726600D01*
G75*
G02*
X130257600Y-78995350I0J-268750D01*
G01*
G37*
G36*
G01*
X132132600Y-78995350D02*
X132132600Y-79957850D01*
G75*
G02*
X131863850Y-80226600I-268750J0D01*
G01*
X131326350Y-80226600D01*
G75*
G02*
X131057600Y-79957850I0J268750D01*
G01*
X131057600Y-78995350D01*
G75*
G02*
X131326350Y-78726600I268750J0D01*
G01*
X131863850Y-78726600D01*
G75*
G02*
X132132600Y-78995350I0J-268750D01*
G01*
G37*
G36*
G01*
X137264298Y-96517395D02*
X137543606Y-96796702D01*
G75*
G02*
X137543606Y-97040654I-121976J-121976D01*
G01*
X137299654Y-97284606D01*
G75*
G02*
X137055702Y-97284606I-121976J121976D01*
G01*
X136776394Y-97005298D01*
G75*
G02*
X136776394Y-96761346I121976J121976D01*
G01*
X137020346Y-96517394D01*
G75*
G02*
X137264298Y-96517394I121976J-121976D01*
G01*
G37*
G36*
G01*
X136578404Y-97203289D02*
X136857712Y-97482596D01*
G75*
G02*
X136857712Y-97726548I-121976J-121976D01*
G01*
X136613760Y-97970500D01*
G75*
G02*
X136369808Y-97970500I-121976J121976D01*
G01*
X136090500Y-97691192D01*
G75*
G02*
X136090500Y-97447240I121976J121976D01*
G01*
X136334452Y-97203288D01*
G75*
G02*
X136578404Y-97203288I121976J-121976D01*
G01*
G37*
G36*
G01*
X130660298Y-100073395D02*
X130939606Y-100352702D01*
G75*
G02*
X130939606Y-100596654I-121976J-121976D01*
G01*
X130695654Y-100840606D01*
G75*
G02*
X130451702Y-100840606I-121976J121976D01*
G01*
X130172394Y-100561298D01*
G75*
G02*
X130172394Y-100317346I121976J121976D01*
G01*
X130416346Y-100073394D01*
G75*
G02*
X130660298Y-100073394I121976J-121976D01*
G01*
G37*
G36*
G01*
X129974404Y-100759289D02*
X130253712Y-101038596D01*
G75*
G02*
X130253712Y-101282548I-121976J-121976D01*
G01*
X130009760Y-101526500D01*
G75*
G02*
X129765808Y-101526500I-121976J121976D01*
G01*
X129486500Y-101247192D01*
G75*
G02*
X129486500Y-101003240I121976J121976D01*
G01*
X129730452Y-100759288D01*
G75*
G02*
X129974404Y-100759288I121976J-121976D01*
G01*
G37*
G36*
G01*
X134392750Y-56945000D02*
X135355250Y-56945000D01*
G75*
G02*
X135624000Y-57213750I0J-268750D01*
G01*
X135624000Y-57751250D01*
G75*
G02*
X135355250Y-58020000I-268750J0D01*
G01*
X134392750Y-58020000D01*
G75*
G02*
X134124000Y-57751250I0J268750D01*
G01*
X134124000Y-57213750D01*
G75*
G02*
X134392750Y-56945000I268750J0D01*
G01*
G37*
G36*
G01*
X134392750Y-58820000D02*
X135355250Y-58820000D01*
G75*
G02*
X135624000Y-59088750I0J-268750D01*
G01*
X135624000Y-59626250D01*
G75*
G02*
X135355250Y-59895000I-268750J0D01*
G01*
X134392750Y-59895000D01*
G75*
G02*
X134124000Y-59626250I0J268750D01*
G01*
X134124000Y-59088750D01*
G75*
G02*
X134392750Y-58820000I268750J0D01*
G01*
G37*
G36*
G01*
X135816404Y-96441289D02*
X136095712Y-96720596D01*
G75*
G02*
X136095712Y-96964548I-121976J-121976D01*
G01*
X135851760Y-97208500D01*
G75*
G02*
X135607808Y-97208500I-121976J121976D01*
G01*
X135328500Y-96929192D01*
G75*
G02*
X135328500Y-96685240I121976J121976D01*
G01*
X135572452Y-96441288D01*
G75*
G02*
X135816404Y-96441288I121976J-121976D01*
G01*
G37*
G36*
G01*
X136502298Y-95755395D02*
X136781606Y-96034702D01*
G75*
G02*
X136781606Y-96278654I-121976J-121976D01*
G01*
X136537654Y-96522606D01*
G75*
G02*
X136293702Y-96522606I-121976J121976D01*
G01*
X136014394Y-96243298D01*
G75*
G02*
X136014394Y-95999346I121976J121976D01*
G01*
X136258346Y-95755394D01*
G75*
G02*
X136502298Y-95755394I121976J-121976D01*
G01*
G37*
G36*
G01*
X136954289Y-90116596D02*
X137233596Y-89837288D01*
G75*
G02*
X137477548Y-89837288I121976J-121976D01*
G01*
X137721500Y-90081240D01*
G75*
G02*
X137721500Y-90325192I-121976J-121976D01*
G01*
X137442192Y-90604500D01*
G75*
G02*
X137198240Y-90604500I-121976J121976D01*
G01*
X136954288Y-90360548D01*
G75*
G02*
X136954288Y-90116596I121976J121976D01*
G01*
G37*
G36*
G01*
X136268395Y-89430702D02*
X136547702Y-89151394D01*
G75*
G02*
X136791654Y-89151394I121976J-121976D01*
G01*
X137035606Y-89395346D01*
G75*
G02*
X137035606Y-89639298I-121976J-121976D01*
G01*
X136756298Y-89918606D01*
G75*
G02*
X136512346Y-89918606I-121976J121976D01*
G01*
X136268394Y-89674654D01*
G75*
G02*
X136268394Y-89430702I121976J121976D01*
G01*
G37*
G36*
G01*
X137030395Y-88668702D02*
X137309702Y-88389394D01*
G75*
G02*
X137553654Y-88389394I121976J-121976D01*
G01*
X137797606Y-88633346D01*
G75*
G02*
X137797606Y-88877298I-121976J-121976D01*
G01*
X137518298Y-89156606D01*
G75*
G02*
X137274346Y-89156606I-121976J121976D01*
G01*
X137030394Y-88912654D01*
G75*
G02*
X137030394Y-88668702I121976J121976D01*
G01*
G37*
G36*
G01*
X137716289Y-89354596D02*
X137995596Y-89075288D01*
G75*
G02*
X138239548Y-89075288I121976J-121976D01*
G01*
X138483500Y-89319240D01*
G75*
G02*
X138483500Y-89563192I-121976J-121976D01*
G01*
X138204192Y-89842500D01*
G75*
G02*
X137960240Y-89842500I-121976J121976D01*
G01*
X137716288Y-89598548D01*
G75*
G02*
X137716288Y-89354596I121976J121976D01*
G01*
G37*
G36*
G01*
X144298750Y-67202000D02*
X145261250Y-67202000D01*
G75*
G02*
X145530000Y-67470750I0J-268750D01*
G01*
X145530000Y-68008250D01*
G75*
G02*
X145261250Y-68277000I-268750J0D01*
G01*
X144298750Y-68277000D01*
G75*
G02*
X144030000Y-68008250I0J268750D01*
G01*
X144030000Y-67470750D01*
G75*
G02*
X144298750Y-67202000I268750J0D01*
G01*
G37*
G36*
G01*
X144298750Y-65327000D02*
X145261250Y-65327000D01*
G75*
G02*
X145530000Y-65595750I0J-268750D01*
G01*
X145530000Y-66133250D01*
G75*
G02*
X145261250Y-66402000I-268750J0D01*
G01*
X144298750Y-66402000D01*
G75*
G02*
X144030000Y-66133250I0J268750D01*
G01*
X144030000Y-65595750D01*
G75*
G02*
X144298750Y-65327000I268750J0D01*
G01*
G37*
G36*
G01*
X131003105Y-85130798D02*
X130723798Y-85410106D01*
G75*
G02*
X130479846Y-85410106I-121976J121976D01*
G01*
X130235894Y-85166154D01*
G75*
G02*
X130235894Y-84922202I121976J121976D01*
G01*
X130515202Y-84642894D01*
G75*
G02*
X130759154Y-84642894I121976J-121976D01*
G01*
X131003106Y-84886846D01*
G75*
G02*
X131003106Y-85130798I-121976J-121976D01*
G01*
G37*
G36*
G01*
X130317211Y-84444904D02*
X130037904Y-84724212D01*
G75*
G02*
X129793952Y-84724212I-121976J121976D01*
G01*
X129550000Y-84480260D01*
G75*
G02*
X129550000Y-84236308I121976J121976D01*
G01*
X129829308Y-83957000D01*
G75*
G02*
X130073260Y-83957000I121976J-121976D01*
G01*
X130317212Y-84200952D01*
G75*
G02*
X130317212Y-84444904I-121976J-121976D01*
G01*
G37*
G36*
G01*
X131079211Y-83682904D02*
X130799904Y-83962212D01*
G75*
G02*
X130555952Y-83962212I-121976J121976D01*
G01*
X130312000Y-83718260D01*
G75*
G02*
X130312000Y-83474308I121976J121976D01*
G01*
X130591308Y-83195000D01*
G75*
G02*
X130835260Y-83195000I121976J-121976D01*
G01*
X131079212Y-83438952D01*
G75*
G02*
X131079212Y-83682904I-121976J-121976D01*
G01*
G37*
G36*
G01*
X131765105Y-84368798D02*
X131485798Y-84648106D01*
G75*
G02*
X131241846Y-84648106I-121976J121976D01*
G01*
X130997894Y-84404154D01*
G75*
G02*
X130997894Y-84160202I121976J121976D01*
G01*
X131277202Y-83880894D01*
G75*
G02*
X131521154Y-83880894I121976J-121976D01*
G01*
X131765106Y-84124846D01*
G75*
G02*
X131765106Y-84368798I-121976J-121976D01*
G01*
G37*
G36*
G01*
X122024298Y-91373895D02*
X122303606Y-91653202D01*
G75*
G02*
X122303606Y-91897154I-121976J-121976D01*
G01*
X122059654Y-92141106D01*
G75*
G02*
X121815702Y-92141106I-121976J121976D01*
G01*
X121536394Y-91861798D01*
G75*
G02*
X121536394Y-91617846I121976J121976D01*
G01*
X121780346Y-91373894D01*
G75*
G02*
X122024298Y-91373894I121976J-121976D01*
G01*
G37*
G36*
G01*
X121338404Y-92059789D02*
X121617712Y-92339096D01*
G75*
G02*
X121617712Y-92583048I-121976J-121976D01*
G01*
X121373760Y-92827000D01*
G75*
G02*
X121129808Y-92827000I-121976J121976D01*
G01*
X120850500Y-92547692D01*
G75*
G02*
X120850500Y-92303740I121976J121976D01*
G01*
X121094452Y-92059788D01*
G75*
G02*
X121338404Y-92059788I121976J-121976D01*
G01*
G37*
G36*
G01*
X120576404Y-91297789D02*
X120855712Y-91577096D01*
G75*
G02*
X120855712Y-91821048I-121976J-121976D01*
G01*
X120611760Y-92065000D01*
G75*
G02*
X120367808Y-92065000I-121976J121976D01*
G01*
X120088500Y-91785692D01*
G75*
G02*
X120088500Y-91541740I121976J121976D01*
G01*
X120332452Y-91297788D01*
G75*
G02*
X120576404Y-91297788I121976J-121976D01*
G01*
G37*
G36*
G01*
X121262298Y-90611895D02*
X121541606Y-90891202D01*
G75*
G02*
X121541606Y-91135154I-121976J-121976D01*
G01*
X121297654Y-91379106D01*
G75*
G02*
X121053702Y-91379106I-121976J121976D01*
G01*
X120774394Y-91099798D01*
G75*
G02*
X120774394Y-90855846I121976J121976D01*
G01*
X121018346Y-90611894D01*
G75*
G02*
X121262298Y-90611894I121976J-121976D01*
G01*
G37*
G36*
G01*
X127815499Y-100993192D02*
X127536192Y-101272500D01*
G75*
G02*
X127292240Y-101272500I-121976J121976D01*
G01*
X127048288Y-101028548D01*
G75*
G02*
X127048288Y-100784596I121976J121976D01*
G01*
X127327596Y-100505288D01*
G75*
G02*
X127571548Y-100505288I121976J-121976D01*
G01*
X127815500Y-100749240D01*
G75*
G02*
X127815500Y-100993192I-121976J-121976D01*
G01*
G37*
G36*
G01*
X127129605Y-100307298D02*
X126850298Y-100586606D01*
G75*
G02*
X126606346Y-100586606I-121976J121976D01*
G01*
X126362394Y-100342654D01*
G75*
G02*
X126362394Y-100098702I121976J121976D01*
G01*
X126641702Y-99819394D01*
G75*
G02*
X126885654Y-99819394I121976J-121976D01*
G01*
X127129606Y-100063346D01*
G75*
G02*
X127129606Y-100307298I-121976J-121976D01*
G01*
G37*
G36*
G01*
X126367605Y-101069298D02*
X126088298Y-101348606D01*
G75*
G02*
X125844346Y-101348606I-121976J121976D01*
G01*
X125600394Y-101104654D01*
G75*
G02*
X125600394Y-100860702I121976J121976D01*
G01*
X125879702Y-100581394D01*
G75*
G02*
X126123654Y-100581394I121976J-121976D01*
G01*
X126367606Y-100825346D01*
G75*
G02*
X126367606Y-101069298I-121976J-121976D01*
G01*
G37*
G36*
G01*
X127053499Y-101755192D02*
X126774192Y-102034500D01*
G75*
G02*
X126530240Y-102034500I-121976J121976D01*
G01*
X126286288Y-101790548D01*
G75*
G02*
X126286288Y-101546596I121976J121976D01*
G01*
X126565596Y-101267288D01*
G75*
G02*
X126809548Y-101267288I121976J-121976D01*
G01*
X127053500Y-101511240D01*
G75*
G02*
X127053500Y-101755192I-121976J-121976D01*
G01*
G37*
G36*
G01*
X133492353Y-84519894D02*
X133094606Y-84122146D01*
G75*
G02*
X133094606Y-83777432I172357J172357D01*
G01*
X133439320Y-83432718D01*
G75*
G02*
X133784034Y-83432718I172357J-172357D01*
G01*
X134181782Y-83830466D01*
G75*
G02*
X134181782Y-84175180I-172357J-172357D01*
G01*
X133837068Y-84519894D01*
G75*
G02*
X133492354Y-84519894I-172357J172357D01*
G01*
G37*
G36*
G01*
X132378659Y-85633588D02*
X131980912Y-85235840D01*
G75*
G02*
X131980912Y-84891126I172357J172357D01*
G01*
X132325626Y-84546412D01*
G75*
G02*
X132670340Y-84546412I172357J-172357D01*
G01*
X133068088Y-84944160D01*
G75*
G02*
X133068088Y-85288874I-172357J-172357D01*
G01*
X132723374Y-85633588D01*
G75*
G02*
X132378660Y-85633588I-172357J172357D01*
G01*
G37*
G36*
G01*
X122463588Y-89871341D02*
X122065840Y-90269088D01*
G75*
G02*
X121721126Y-90269088I-172357J172357D01*
G01*
X121376412Y-89924374D01*
G75*
G02*
X121376412Y-89579660I172357J172357D01*
G01*
X121774160Y-89181912D01*
G75*
G02*
X122118874Y-89181912I172357J-172357D01*
G01*
X122463588Y-89526626D01*
G75*
G02*
X122463588Y-89871340I-172357J-172357D01*
G01*
G37*
G36*
G01*
X121349894Y-88757647D02*
X120952146Y-89155394D01*
G75*
G02*
X120607432Y-89155394I-172357J172357D01*
G01*
X120262718Y-88810680D01*
G75*
G02*
X120262718Y-88465966I172357J172357D01*
G01*
X120660466Y-88068218D01*
G75*
G02*
X121005180Y-88068218I172357J-172357D01*
G01*
X121349894Y-88412932D01*
G75*
G02*
X121349894Y-88757646I-172357J-172357D01*
G01*
G37*
G36*
G01*
X132658500Y-101864000D02*
X132263500Y-101864000D01*
G75*
G02*
X132091000Y-101691500I0J172500D01*
G01*
X132091000Y-101346500D01*
G75*
G02*
X132263500Y-101174000I172500J0D01*
G01*
X132658500Y-101174000D01*
G75*
G02*
X132831000Y-101346500I0J-172500D01*
G01*
X132831000Y-101691500D01*
G75*
G02*
X132658500Y-101864000I-172500J0D01*
G01*
G37*
G36*
G01*
X132658500Y-102834000D02*
X132263500Y-102834000D01*
G75*
G02*
X132091000Y-102661500I0J172500D01*
G01*
X132091000Y-102316500D01*
G75*
G02*
X132263500Y-102144000I172500J0D01*
G01*
X132658500Y-102144000D01*
G75*
G02*
X132831000Y-102316500I0J-172500D01*
G01*
X132831000Y-102661500D01*
G75*
G02*
X132658500Y-102834000I-172500J0D01*
G01*
G37*
G36*
G01*
X137597500Y-101174000D02*
X137992500Y-101174000D01*
G75*
G02*
X138165000Y-101346500I0J-172500D01*
G01*
X138165000Y-101691500D01*
G75*
G02*
X137992500Y-101864000I-172500J0D01*
G01*
X137597500Y-101864000D01*
G75*
G02*
X137425000Y-101691500I0J172500D01*
G01*
X137425000Y-101346500D01*
G75*
G02*
X137597500Y-101174000I172500J0D01*
G01*
G37*
G36*
G01*
X137597500Y-102144000D02*
X137992500Y-102144000D01*
G75*
G02*
X138165000Y-102316500I0J-172500D01*
G01*
X138165000Y-102661500D01*
G75*
G02*
X137992500Y-102834000I-172500J0D01*
G01*
X137597500Y-102834000D01*
G75*
G02*
X137425000Y-102661500I0J172500D01*
G01*
X137425000Y-102316500D01*
G75*
G02*
X137597500Y-102144000I172500J0D01*
G01*
G37*
D12*
X141226000Y-55880000D03*
X144526000Y-55880000D03*
G36*
G01*
X147601250Y-69778500D02*
X147038750Y-69778500D01*
G75*
G02*
X146795000Y-69534750I0J243750D01*
G01*
X146795000Y-69047250D01*
G75*
G02*
X147038750Y-68803500I243750J0D01*
G01*
X147601250Y-68803500D01*
G75*
G02*
X147845000Y-69047250I0J-243750D01*
G01*
X147845000Y-69534750D01*
G75*
G02*
X147601250Y-69778500I-243750J0D01*
G01*
G37*
G36*
G01*
X147601250Y-71353500D02*
X147038750Y-71353500D01*
G75*
G02*
X146795000Y-71109750I0J243750D01*
G01*
X146795000Y-70622250D01*
G75*
G02*
X147038750Y-70378500I243750J0D01*
G01*
X147601250Y-70378500D01*
G75*
G02*
X147845000Y-70622250I0J-243750D01*
G01*
X147845000Y-71109750D01*
G75*
G02*
X147601250Y-71353500I-243750J0D01*
G01*
G37*
G36*
G01*
X116558750Y-66822500D02*
X117121250Y-66822500D01*
G75*
G02*
X117365000Y-67066250I0J-243750D01*
G01*
X117365000Y-67553750D01*
G75*
G02*
X117121250Y-67797500I-243750J0D01*
G01*
X116558750Y-67797500D01*
G75*
G02*
X116315000Y-67553750I0J243750D01*
G01*
X116315000Y-67066250D01*
G75*
G02*
X116558750Y-66822500I243750J0D01*
G01*
G37*
G36*
G01*
X116558750Y-65247500D02*
X117121250Y-65247500D01*
G75*
G02*
X117365000Y-65491250I0J-243750D01*
G01*
X117365000Y-65978750D01*
G75*
G02*
X117121250Y-66222500I-243750J0D01*
G01*
X116558750Y-66222500D01*
G75*
G02*
X116315000Y-65978750I0J243750D01*
G01*
X116315000Y-65491250D01*
G75*
G02*
X116558750Y-65247500I243750J0D01*
G01*
G37*
G36*
G01*
X139360451Y-95406539D02*
X138679861Y-94725949D01*
G75*
G02*
X138679861Y-94345879I190035J190035D01*
G01*
X139059931Y-93965809D01*
G75*
G02*
X139440001Y-93965809I190035J-190035D01*
G01*
X140120591Y-94646399D01*
G75*
G02*
X140120591Y-95026469I-190035J-190035D01*
G01*
X139740521Y-95406539D01*
G75*
G02*
X139360451Y-95406539I-190035J190035D01*
G01*
G37*
G36*
G01*
X138034625Y-96732365D02*
X137354035Y-96051775D01*
G75*
G02*
X137354035Y-95671705I190035J190035D01*
G01*
X137734105Y-95291635D01*
G75*
G02*
X138114175Y-95291635I190035J-190035D01*
G01*
X138794765Y-95972225D01*
G75*
G02*
X138794765Y-96352295I-190035J-190035D01*
G01*
X138414695Y-96732365D01*
G75*
G02*
X138034625Y-96732365I-190035J190035D01*
G01*
G37*
G36*
G01*
X137033500Y-56361250D02*
X137033500Y-55398750D01*
G75*
G02*
X137302250Y-55130000I268750J0D01*
G01*
X137839750Y-55130000D01*
G75*
G02*
X138108500Y-55398750I0J-268750D01*
G01*
X138108500Y-56361250D01*
G75*
G02*
X137839750Y-56630000I-268750J0D01*
G01*
X137302250Y-56630000D01*
G75*
G02*
X137033500Y-56361250I0J268750D01*
G01*
G37*
G36*
G01*
X138908500Y-56361250D02*
X138908500Y-55398750D01*
G75*
G02*
X139177250Y-55130000I268750J0D01*
G01*
X139714750Y-55130000D01*
G75*
G02*
X139983500Y-55398750I0J-268750D01*
G01*
X139983500Y-56361250D01*
G75*
G02*
X139714750Y-56630000I-268750J0D01*
G01*
X139177250Y-56630000D01*
G75*
G02*
X138908500Y-56361250I0J268750D01*
G01*
G37*
D13*
X134028000Y-102831000D03*
X136228000Y-102831000D03*
X136228000Y-101131000D03*
X134028000Y-101131000D03*
G36*
G01*
X147601250Y-66730500D02*
X147038750Y-66730500D01*
G75*
G02*
X146795000Y-66486750I0J243750D01*
G01*
X146795000Y-65999250D01*
G75*
G02*
X147038750Y-65755500I243750J0D01*
G01*
X147601250Y-65755500D01*
G75*
G02*
X147845000Y-65999250I0J-243750D01*
G01*
X147845000Y-66486750D01*
G75*
G02*
X147601250Y-66730500I-243750J0D01*
G01*
G37*
G36*
G01*
X147601250Y-68305500D02*
X147038750Y-68305500D01*
G75*
G02*
X146795000Y-68061750I0J243750D01*
G01*
X146795000Y-67574250D01*
G75*
G02*
X147038750Y-67330500I243750J0D01*
G01*
X147601250Y-67330500D01*
G75*
G02*
X147845000Y-67574250I0J-243750D01*
G01*
X147845000Y-68061750D01*
G75*
G02*
X147601250Y-68305500I-243750J0D01*
G01*
G37*
G36*
G01*
X123068800Y-99994100D02*
X123068800Y-99599100D01*
G75*
G02*
X123241300Y-99426600I172500J0D01*
G01*
X123586300Y-99426600D01*
G75*
G02*
X123758800Y-99599100I0J-172500D01*
G01*
X123758800Y-99994100D01*
G75*
G02*
X123586300Y-100166600I-172500J0D01*
G01*
X123241300Y-100166600D01*
G75*
G02*
X123068800Y-99994100I0J172500D01*
G01*
G37*
G36*
G01*
X124038800Y-99994100D02*
X124038800Y-99599100D01*
G75*
G02*
X124211300Y-99426600I172500J0D01*
G01*
X124556300Y-99426600D01*
G75*
G02*
X124728800Y-99599100I0J-172500D01*
G01*
X124728800Y-99994100D01*
G75*
G02*
X124556300Y-100166600I-172500J0D01*
G01*
X124211300Y-100166600D01*
G75*
G02*
X124038800Y-99994100I0J172500D01*
G01*
G37*
G36*
G01*
X116558750Y-69870500D02*
X117121250Y-69870500D01*
G75*
G02*
X117365000Y-70114250I0J-243750D01*
G01*
X117365000Y-70601750D01*
G75*
G02*
X117121250Y-70845500I-243750J0D01*
G01*
X116558750Y-70845500D01*
G75*
G02*
X116315000Y-70601750I0J243750D01*
G01*
X116315000Y-70114250D01*
G75*
G02*
X116558750Y-69870500I243750J0D01*
G01*
G37*
G36*
G01*
X116558750Y-68295500D02*
X117121250Y-68295500D01*
G75*
G02*
X117365000Y-68539250I0J-243750D01*
G01*
X117365000Y-69026750D01*
G75*
G02*
X117121250Y-69270500I-243750J0D01*
G01*
X116558750Y-69270500D01*
G75*
G02*
X116315000Y-69026750I0J243750D01*
G01*
X116315000Y-68539250D01*
G75*
G02*
X116558750Y-68295500I243750J0D01*
G01*
G37*
G36*
G01*
X133530498Y-85976395D02*
X133809806Y-86255702D01*
G75*
G02*
X133809806Y-86499654I-121976J-121976D01*
G01*
X133565854Y-86743606D01*
G75*
G02*
X133321902Y-86743606I-121976J121976D01*
G01*
X133042594Y-86464298D01*
G75*
G02*
X133042594Y-86220346I121976J121976D01*
G01*
X133286546Y-85976394D01*
G75*
G02*
X133530498Y-85976394I121976J-121976D01*
G01*
G37*
G36*
G01*
X134216392Y-85290501D02*
X134495700Y-85569808D01*
G75*
G02*
X134495700Y-85813760I-121976J-121976D01*
G01*
X134251748Y-86057712D01*
G75*
G02*
X134007796Y-86057712I-121976J121976D01*
G01*
X133728488Y-85778404D01*
G75*
G02*
X133728488Y-85534452I121976J121976D01*
G01*
X133972440Y-85290500D01*
G75*
G02*
X134216392Y-85290500I121976J-121976D01*
G01*
G37*
G36*
G01*
X134829000Y-99892500D02*
X134829000Y-99497500D01*
G75*
G02*
X135001500Y-99325000I172500J0D01*
G01*
X135346500Y-99325000D01*
G75*
G02*
X135519000Y-99497500I0J-172500D01*
G01*
X135519000Y-99892500D01*
G75*
G02*
X135346500Y-100065000I-172500J0D01*
G01*
X135001500Y-100065000D01*
G75*
G02*
X134829000Y-99892500I0J172500D01*
G01*
G37*
G36*
G01*
X135799000Y-99892500D02*
X135799000Y-99497500D01*
G75*
G02*
X135971500Y-99325000I172500J0D01*
G01*
X136316500Y-99325000D01*
G75*
G02*
X136489000Y-99497500I0J-172500D01*
G01*
X136489000Y-99892500D01*
G75*
G02*
X136316500Y-100065000I-172500J0D01*
G01*
X135971500Y-100065000D01*
G75*
G02*
X135799000Y-99892500I0J172500D01*
G01*
G37*
D14*
X139700000Y-66040000D03*
D15*
X139700000Y-59740000D03*
X137400000Y-59740000D03*
X142000000Y-59740000D03*
G36*
G01*
X131555255Y-99887133D02*
X131413834Y-100028555D01*
G75*
G02*
X131272412Y-100028555I-70711J70711D01*
G01*
X130247107Y-99003250D01*
G75*
G02*
X130247107Y-98861828I70711J70711D01*
G01*
X130388528Y-98720407D01*
G75*
G02*
X130529950Y-98720407I70711J-70711D01*
G01*
X131555255Y-99745712D01*
G75*
G02*
X131555255Y-99887134I-70711J-70711D01*
G01*
G37*
G36*
G01*
X131908808Y-99533580D02*
X131767387Y-99675002D01*
G75*
G02*
X131625965Y-99675002I-70711J70711D01*
G01*
X130600660Y-98649697D01*
G75*
G02*
X130600660Y-98508275I70711J70711D01*
G01*
X130742081Y-98366854D01*
G75*
G02*
X130883503Y-98366854I70711J-70711D01*
G01*
X131908808Y-99392159D01*
G75*
G02*
X131908808Y-99533581I-70711J-70711D01*
G01*
G37*
G36*
G01*
X132262361Y-99180027D02*
X132120940Y-99321449D01*
G75*
G02*
X131979518Y-99321449I-70711J70711D01*
G01*
X130954213Y-98296144D01*
G75*
G02*
X130954213Y-98154722I70711J70711D01*
G01*
X131095634Y-98013301D01*
G75*
G02*
X131237056Y-98013301I70711J-70711D01*
G01*
X132262361Y-99038606D01*
G75*
G02*
X132262361Y-99180028I-70711J-70711D01*
G01*
G37*
G36*
G01*
X132615915Y-98826473D02*
X132474494Y-98967895D01*
G75*
G02*
X132333072Y-98967895I-70711J70711D01*
G01*
X131307767Y-97942590D01*
G75*
G02*
X131307767Y-97801168I70711J70711D01*
G01*
X131449188Y-97659747D01*
G75*
G02*
X131590610Y-97659747I70711J-70711D01*
G01*
X132615915Y-98685052D01*
G75*
G02*
X132615915Y-98826474I-70711J-70711D01*
G01*
G37*
G36*
G01*
X132969468Y-98472920D02*
X132828047Y-98614342D01*
G75*
G02*
X132686625Y-98614342I-70711J70711D01*
G01*
X131661320Y-97589037D01*
G75*
G02*
X131661320Y-97447615I70711J70711D01*
G01*
X131802741Y-97306194D01*
G75*
G02*
X131944163Y-97306194I70711J-70711D01*
G01*
X132969468Y-98331499D01*
G75*
G02*
X132969468Y-98472921I-70711J-70711D01*
G01*
G37*
G36*
G01*
X133323022Y-98119366D02*
X133181601Y-98260788D01*
G75*
G02*
X133040179Y-98260788I-70711J70711D01*
G01*
X132014874Y-97235483D01*
G75*
G02*
X132014874Y-97094061I70711J70711D01*
G01*
X132156295Y-96952640D01*
G75*
G02*
X132297717Y-96952640I70711J-70711D01*
G01*
X133323022Y-97977945D01*
G75*
G02*
X133323022Y-98119367I-70711J-70711D01*
G01*
G37*
G36*
G01*
X133676575Y-97765813D02*
X133535154Y-97907235D01*
G75*
G02*
X133393732Y-97907235I-70711J70711D01*
G01*
X132368427Y-96881930D01*
G75*
G02*
X132368427Y-96740508I70711J70711D01*
G01*
X132509848Y-96599087D01*
G75*
G02*
X132651270Y-96599087I70711J-70711D01*
G01*
X133676575Y-97624392D01*
G75*
G02*
X133676575Y-97765814I-70711J-70711D01*
G01*
G37*
G36*
G01*
X134030128Y-97412260D02*
X133888707Y-97553682D01*
G75*
G02*
X133747285Y-97553682I-70711J70711D01*
G01*
X132721980Y-96528377D01*
G75*
G02*
X132721980Y-96386955I70711J70711D01*
G01*
X132863401Y-96245534D01*
G75*
G02*
X133004823Y-96245534I70711J-70711D01*
G01*
X134030128Y-97270839D01*
G75*
G02*
X134030128Y-97412261I-70711J-70711D01*
G01*
G37*
G36*
G01*
X134383682Y-97058706D02*
X134242261Y-97200128D01*
G75*
G02*
X134100839Y-97200128I-70711J70711D01*
G01*
X133075534Y-96174823D01*
G75*
G02*
X133075534Y-96033401I70711J70711D01*
G01*
X133216955Y-95891980D01*
G75*
G02*
X133358377Y-95891980I70711J-70711D01*
G01*
X134383682Y-96917285D01*
G75*
G02*
X134383682Y-97058707I-70711J-70711D01*
G01*
G37*
G36*
G01*
X134737235Y-96705153D02*
X134595814Y-96846575D01*
G75*
G02*
X134454392Y-96846575I-70711J70711D01*
G01*
X133429087Y-95821270D01*
G75*
G02*
X133429087Y-95679848I70711J70711D01*
G01*
X133570508Y-95538427D01*
G75*
G02*
X133711930Y-95538427I70711J-70711D01*
G01*
X134737235Y-96563732D01*
G75*
G02*
X134737235Y-96705154I-70711J-70711D01*
G01*
G37*
G36*
G01*
X135090788Y-96351600D02*
X134949367Y-96493022D01*
G75*
G02*
X134807945Y-96493022I-70711J70711D01*
G01*
X133782640Y-95467717D01*
G75*
G02*
X133782640Y-95326295I70711J70711D01*
G01*
X133924061Y-95184874D01*
G75*
G02*
X134065483Y-95184874I70711J-70711D01*
G01*
X135090788Y-96210179D01*
G75*
G02*
X135090788Y-96351601I-70711J-70711D01*
G01*
G37*
G36*
G01*
X135444342Y-95998046D02*
X135302921Y-96139468D01*
G75*
G02*
X135161499Y-96139468I-70711J70711D01*
G01*
X134136194Y-95114163D01*
G75*
G02*
X134136194Y-94972741I70711J70711D01*
G01*
X134277615Y-94831320D01*
G75*
G02*
X134419037Y-94831320I70711J-70711D01*
G01*
X135444342Y-95856625D01*
G75*
G02*
X135444342Y-95998047I-70711J-70711D01*
G01*
G37*
G36*
G01*
X135797895Y-95644493D02*
X135656474Y-95785915D01*
G75*
G02*
X135515052Y-95785915I-70711J70711D01*
G01*
X134489747Y-94760610D01*
G75*
G02*
X134489747Y-94619188I70711J70711D01*
G01*
X134631168Y-94477767D01*
G75*
G02*
X134772590Y-94477767I70711J-70711D01*
G01*
X135797895Y-95503072D01*
G75*
G02*
X135797895Y-95644494I-70711J-70711D01*
G01*
G37*
G36*
G01*
X136151449Y-95290939D02*
X136010028Y-95432361D01*
G75*
G02*
X135868606Y-95432361I-70711J70711D01*
G01*
X134843301Y-94407056D01*
G75*
G02*
X134843301Y-94265634I70711J70711D01*
G01*
X134984722Y-94124213D01*
G75*
G02*
X135126144Y-94124213I70711J-70711D01*
G01*
X136151449Y-95149518D01*
G75*
G02*
X136151449Y-95290940I-70711J-70711D01*
G01*
G37*
G36*
G01*
X136505002Y-94937386D02*
X136363581Y-95078808D01*
G75*
G02*
X136222159Y-95078808I-70711J70711D01*
G01*
X135196854Y-94053503D01*
G75*
G02*
X135196854Y-93912081I70711J70711D01*
G01*
X135338275Y-93770660D01*
G75*
G02*
X135479697Y-93770660I70711J-70711D01*
G01*
X136505002Y-94795965D01*
G75*
G02*
X136505002Y-94937387I-70711J-70711D01*
G01*
G37*
G36*
G01*
X136858555Y-94583833D02*
X136717134Y-94725255D01*
G75*
G02*
X136575712Y-94725255I-70711J70711D01*
G01*
X135550407Y-93699950D01*
G75*
G02*
X135550407Y-93558528I70711J70711D01*
G01*
X135691828Y-93417107D01*
G75*
G02*
X135833250Y-93417107I70711J-70711D01*
G01*
X136858555Y-94442412D01*
G75*
G02*
X136858555Y-94583834I-70711J-70711D01*
G01*
G37*
G36*
G01*
X136858555Y-90977588D02*
X135833250Y-92002893D01*
G75*
G02*
X135691828Y-92002893I-70711J70711D01*
G01*
X135550407Y-91861472D01*
G75*
G02*
X135550407Y-91720050I70711J70711D01*
G01*
X136575712Y-90694745D01*
G75*
G02*
X136717134Y-90694745I70711J-70711D01*
G01*
X136858555Y-90836166D01*
G75*
G02*
X136858555Y-90977588I-70711J-70711D01*
G01*
G37*
G36*
G01*
X136505002Y-90624035D02*
X135479697Y-91649340D01*
G75*
G02*
X135338275Y-91649340I-70711J70711D01*
G01*
X135196854Y-91507919D01*
G75*
G02*
X135196854Y-91366497I70711J70711D01*
G01*
X136222159Y-90341192D01*
G75*
G02*
X136363581Y-90341192I70711J-70711D01*
G01*
X136505002Y-90482613D01*
G75*
G02*
X136505002Y-90624035I-70711J-70711D01*
G01*
G37*
G36*
G01*
X136151449Y-90270482D02*
X135126144Y-91295787D01*
G75*
G02*
X134984722Y-91295787I-70711J70711D01*
G01*
X134843301Y-91154366D01*
G75*
G02*
X134843301Y-91012944I70711J70711D01*
G01*
X135868606Y-89987639D01*
G75*
G02*
X136010028Y-89987639I70711J-70711D01*
G01*
X136151449Y-90129060D01*
G75*
G02*
X136151449Y-90270482I-70711J-70711D01*
G01*
G37*
G36*
G01*
X135797895Y-89916928D02*
X134772590Y-90942233D01*
G75*
G02*
X134631168Y-90942233I-70711J70711D01*
G01*
X134489747Y-90800812D01*
G75*
G02*
X134489747Y-90659390I70711J70711D01*
G01*
X135515052Y-89634085D01*
G75*
G02*
X135656474Y-89634085I70711J-70711D01*
G01*
X135797895Y-89775506D01*
G75*
G02*
X135797895Y-89916928I-70711J-70711D01*
G01*
G37*
G36*
G01*
X135444342Y-89563375D02*
X134419037Y-90588680D01*
G75*
G02*
X134277615Y-90588680I-70711J70711D01*
G01*
X134136194Y-90447259D01*
G75*
G02*
X134136194Y-90305837I70711J70711D01*
G01*
X135161499Y-89280532D01*
G75*
G02*
X135302921Y-89280532I70711J-70711D01*
G01*
X135444342Y-89421953D01*
G75*
G02*
X135444342Y-89563375I-70711J-70711D01*
G01*
G37*
G36*
G01*
X135090788Y-89209821D02*
X134065483Y-90235126D01*
G75*
G02*
X133924061Y-90235126I-70711J70711D01*
G01*
X133782640Y-90093705D01*
G75*
G02*
X133782640Y-89952283I70711J70711D01*
G01*
X134807945Y-88926978D01*
G75*
G02*
X134949367Y-88926978I70711J-70711D01*
G01*
X135090788Y-89068399D01*
G75*
G02*
X135090788Y-89209821I-70711J-70711D01*
G01*
G37*
G36*
G01*
X134737235Y-88856268D02*
X133711930Y-89881573D01*
G75*
G02*
X133570508Y-89881573I-70711J70711D01*
G01*
X133429087Y-89740152D01*
G75*
G02*
X133429087Y-89598730I70711J70711D01*
G01*
X134454392Y-88573425D01*
G75*
G02*
X134595814Y-88573425I70711J-70711D01*
G01*
X134737235Y-88714846D01*
G75*
G02*
X134737235Y-88856268I-70711J-70711D01*
G01*
G37*
G36*
G01*
X134383682Y-88502715D02*
X133358377Y-89528020D01*
G75*
G02*
X133216955Y-89528020I-70711J70711D01*
G01*
X133075534Y-89386599D01*
G75*
G02*
X133075534Y-89245177I70711J70711D01*
G01*
X134100839Y-88219872D01*
G75*
G02*
X134242261Y-88219872I70711J-70711D01*
G01*
X134383682Y-88361293D01*
G75*
G02*
X134383682Y-88502715I-70711J-70711D01*
G01*
G37*
G36*
G01*
X134030128Y-88149161D02*
X133004823Y-89174466D01*
G75*
G02*
X132863401Y-89174466I-70711J70711D01*
G01*
X132721980Y-89033045D01*
G75*
G02*
X132721980Y-88891623I70711J70711D01*
G01*
X133747285Y-87866318D01*
G75*
G02*
X133888707Y-87866318I70711J-70711D01*
G01*
X134030128Y-88007739D01*
G75*
G02*
X134030128Y-88149161I-70711J-70711D01*
G01*
G37*
G36*
G01*
X133676575Y-87795608D02*
X132651270Y-88820913D01*
G75*
G02*
X132509848Y-88820913I-70711J70711D01*
G01*
X132368427Y-88679492D01*
G75*
G02*
X132368427Y-88538070I70711J70711D01*
G01*
X133393732Y-87512765D01*
G75*
G02*
X133535154Y-87512765I70711J-70711D01*
G01*
X133676575Y-87654186D01*
G75*
G02*
X133676575Y-87795608I-70711J-70711D01*
G01*
G37*
G36*
G01*
X133323022Y-87442055D02*
X132297717Y-88467360D01*
G75*
G02*
X132156295Y-88467360I-70711J70711D01*
G01*
X132014874Y-88325939D01*
G75*
G02*
X132014874Y-88184517I70711J70711D01*
G01*
X133040179Y-87159212D01*
G75*
G02*
X133181601Y-87159212I70711J-70711D01*
G01*
X133323022Y-87300633D01*
G75*
G02*
X133323022Y-87442055I-70711J-70711D01*
G01*
G37*
G36*
G01*
X132969468Y-87088501D02*
X131944163Y-88113806D01*
G75*
G02*
X131802741Y-88113806I-70711J70711D01*
G01*
X131661320Y-87972385D01*
G75*
G02*
X131661320Y-87830963I70711J70711D01*
G01*
X132686625Y-86805658D01*
G75*
G02*
X132828047Y-86805658I70711J-70711D01*
G01*
X132969468Y-86947079D01*
G75*
G02*
X132969468Y-87088501I-70711J-70711D01*
G01*
G37*
G36*
G01*
X132615915Y-86734948D02*
X131590610Y-87760253D01*
G75*
G02*
X131449188Y-87760253I-70711J70711D01*
G01*
X131307767Y-87618832D01*
G75*
G02*
X131307767Y-87477410I70711J70711D01*
G01*
X132333072Y-86452105D01*
G75*
G02*
X132474494Y-86452105I70711J-70711D01*
G01*
X132615915Y-86593526D01*
G75*
G02*
X132615915Y-86734948I-70711J-70711D01*
G01*
G37*
G36*
G01*
X132262361Y-86381394D02*
X131237056Y-87406699D01*
G75*
G02*
X131095634Y-87406699I-70711J70711D01*
G01*
X130954213Y-87265278D01*
G75*
G02*
X130954213Y-87123856I70711J70711D01*
G01*
X131979518Y-86098551D01*
G75*
G02*
X132120940Y-86098551I70711J-70711D01*
G01*
X132262361Y-86239972D01*
G75*
G02*
X132262361Y-86381394I-70711J-70711D01*
G01*
G37*
G36*
G01*
X131908808Y-86027841D02*
X130883503Y-87053146D01*
G75*
G02*
X130742081Y-87053146I-70711J70711D01*
G01*
X130600660Y-86911725D01*
G75*
G02*
X130600660Y-86770303I70711J70711D01*
G01*
X131625965Y-85744998D01*
G75*
G02*
X131767387Y-85744998I70711J-70711D01*
G01*
X131908808Y-85886419D01*
G75*
G02*
X131908808Y-86027841I-70711J-70711D01*
G01*
G37*
G36*
G01*
X131555255Y-85674288D02*
X130529950Y-86699593D01*
G75*
G02*
X130388528Y-86699593I-70711J70711D01*
G01*
X130247107Y-86558172D01*
G75*
G02*
X130247107Y-86416750I70711J70711D01*
G01*
X131272412Y-85391445D01*
G75*
G02*
X131413834Y-85391445I70711J-70711D01*
G01*
X131555255Y-85532866D01*
G75*
G02*
X131555255Y-85674288I-70711J-70711D01*
G01*
G37*
G36*
G01*
X128832893Y-86558171D02*
X128691472Y-86699593D01*
G75*
G02*
X128550050Y-86699593I-70711J70711D01*
G01*
X127524745Y-85674288D01*
G75*
G02*
X127524745Y-85532866I70711J70711D01*
G01*
X127666166Y-85391445D01*
G75*
G02*
X127807588Y-85391445I70711J-70711D01*
G01*
X128832893Y-86416750D01*
G75*
G02*
X128832893Y-86558172I-70711J-70711D01*
G01*
G37*
G36*
G01*
X128479340Y-86911724D02*
X128337919Y-87053146D01*
G75*
G02*
X128196497Y-87053146I-70711J70711D01*
G01*
X127171192Y-86027841D01*
G75*
G02*
X127171192Y-85886419I70711J70711D01*
G01*
X127312613Y-85744998D01*
G75*
G02*
X127454035Y-85744998I70711J-70711D01*
G01*
X128479340Y-86770303D01*
G75*
G02*
X128479340Y-86911725I-70711J-70711D01*
G01*
G37*
G36*
G01*
X128125787Y-87265277D02*
X127984366Y-87406699D01*
G75*
G02*
X127842944Y-87406699I-70711J70711D01*
G01*
X126817639Y-86381394D01*
G75*
G02*
X126817639Y-86239972I70711J70711D01*
G01*
X126959060Y-86098551D01*
G75*
G02*
X127100482Y-86098551I70711J-70711D01*
G01*
X128125787Y-87123856D01*
G75*
G02*
X128125787Y-87265278I-70711J-70711D01*
G01*
G37*
G36*
G01*
X127772233Y-87618831D02*
X127630812Y-87760253D01*
G75*
G02*
X127489390Y-87760253I-70711J70711D01*
G01*
X126464085Y-86734948D01*
G75*
G02*
X126464085Y-86593526I70711J70711D01*
G01*
X126605506Y-86452105D01*
G75*
G02*
X126746928Y-86452105I70711J-70711D01*
G01*
X127772233Y-87477410D01*
G75*
G02*
X127772233Y-87618832I-70711J-70711D01*
G01*
G37*
G36*
G01*
X127418680Y-87972384D02*
X127277259Y-88113806D01*
G75*
G02*
X127135837Y-88113806I-70711J70711D01*
G01*
X126110532Y-87088501D01*
G75*
G02*
X126110532Y-86947079I70711J70711D01*
G01*
X126251953Y-86805658D01*
G75*
G02*
X126393375Y-86805658I70711J-70711D01*
G01*
X127418680Y-87830963D01*
G75*
G02*
X127418680Y-87972385I-70711J-70711D01*
G01*
G37*
G36*
G01*
X127065126Y-88325938D02*
X126923705Y-88467360D01*
G75*
G02*
X126782283Y-88467360I-70711J70711D01*
G01*
X125756978Y-87442055D01*
G75*
G02*
X125756978Y-87300633I70711J70711D01*
G01*
X125898399Y-87159212D01*
G75*
G02*
X126039821Y-87159212I70711J-70711D01*
G01*
X127065126Y-88184517D01*
G75*
G02*
X127065126Y-88325939I-70711J-70711D01*
G01*
G37*
G36*
G01*
X126711573Y-88679491D02*
X126570152Y-88820913D01*
G75*
G02*
X126428730Y-88820913I-70711J70711D01*
G01*
X125403425Y-87795608D01*
G75*
G02*
X125403425Y-87654186I70711J70711D01*
G01*
X125544846Y-87512765D01*
G75*
G02*
X125686268Y-87512765I70711J-70711D01*
G01*
X126711573Y-88538070D01*
G75*
G02*
X126711573Y-88679492I-70711J-70711D01*
G01*
G37*
G36*
G01*
X126358020Y-89033044D02*
X126216599Y-89174466D01*
G75*
G02*
X126075177Y-89174466I-70711J70711D01*
G01*
X125049872Y-88149161D01*
G75*
G02*
X125049872Y-88007739I70711J70711D01*
G01*
X125191293Y-87866318D01*
G75*
G02*
X125332715Y-87866318I70711J-70711D01*
G01*
X126358020Y-88891623D01*
G75*
G02*
X126358020Y-89033045I-70711J-70711D01*
G01*
G37*
G36*
G01*
X126004466Y-89386598D02*
X125863045Y-89528020D01*
G75*
G02*
X125721623Y-89528020I-70711J70711D01*
G01*
X124696318Y-88502715D01*
G75*
G02*
X124696318Y-88361293I70711J70711D01*
G01*
X124837739Y-88219872D01*
G75*
G02*
X124979161Y-88219872I70711J-70711D01*
G01*
X126004466Y-89245177D01*
G75*
G02*
X126004466Y-89386599I-70711J-70711D01*
G01*
G37*
G36*
G01*
X125650913Y-89740151D02*
X125509492Y-89881573D01*
G75*
G02*
X125368070Y-89881573I-70711J70711D01*
G01*
X124342765Y-88856268D01*
G75*
G02*
X124342765Y-88714846I70711J70711D01*
G01*
X124484186Y-88573425D01*
G75*
G02*
X124625608Y-88573425I70711J-70711D01*
G01*
X125650913Y-89598730D01*
G75*
G02*
X125650913Y-89740152I-70711J-70711D01*
G01*
G37*
G36*
G01*
X125297360Y-90093704D02*
X125155939Y-90235126D01*
G75*
G02*
X125014517Y-90235126I-70711J70711D01*
G01*
X123989212Y-89209821D01*
G75*
G02*
X123989212Y-89068399I70711J70711D01*
G01*
X124130633Y-88926978D01*
G75*
G02*
X124272055Y-88926978I70711J-70711D01*
G01*
X125297360Y-89952283D01*
G75*
G02*
X125297360Y-90093705I-70711J-70711D01*
G01*
G37*
G36*
G01*
X124943806Y-90447258D02*
X124802385Y-90588680D01*
G75*
G02*
X124660963Y-90588680I-70711J70711D01*
G01*
X123635658Y-89563375D01*
G75*
G02*
X123635658Y-89421953I70711J70711D01*
G01*
X123777079Y-89280532D01*
G75*
G02*
X123918501Y-89280532I70711J-70711D01*
G01*
X124943806Y-90305837D01*
G75*
G02*
X124943806Y-90447259I-70711J-70711D01*
G01*
G37*
G36*
G01*
X124590253Y-90800811D02*
X124448832Y-90942233D01*
G75*
G02*
X124307410Y-90942233I-70711J70711D01*
G01*
X123282105Y-89916928D01*
G75*
G02*
X123282105Y-89775506I70711J70711D01*
G01*
X123423526Y-89634085D01*
G75*
G02*
X123564948Y-89634085I70711J-70711D01*
G01*
X124590253Y-90659390D01*
G75*
G02*
X124590253Y-90800812I-70711J-70711D01*
G01*
G37*
G36*
G01*
X124236699Y-91154365D02*
X124095278Y-91295787D01*
G75*
G02*
X123953856Y-91295787I-70711J70711D01*
G01*
X122928551Y-90270482D01*
G75*
G02*
X122928551Y-90129060I70711J70711D01*
G01*
X123069972Y-89987639D01*
G75*
G02*
X123211394Y-89987639I70711J-70711D01*
G01*
X124236699Y-91012944D01*
G75*
G02*
X124236699Y-91154366I-70711J-70711D01*
G01*
G37*
G36*
G01*
X123883146Y-91507918D02*
X123741725Y-91649340D01*
G75*
G02*
X123600303Y-91649340I-70711J70711D01*
G01*
X122574998Y-90624035D01*
G75*
G02*
X122574998Y-90482613I70711J70711D01*
G01*
X122716419Y-90341192D01*
G75*
G02*
X122857841Y-90341192I70711J-70711D01*
G01*
X123883146Y-91366497D01*
G75*
G02*
X123883146Y-91507919I-70711J-70711D01*
G01*
G37*
G36*
G01*
X123529593Y-91861471D02*
X123388172Y-92002893D01*
G75*
G02*
X123246750Y-92002893I-70711J70711D01*
G01*
X122221445Y-90977588D01*
G75*
G02*
X122221445Y-90836166I70711J70711D01*
G01*
X122362866Y-90694745D01*
G75*
G02*
X122504288Y-90694745I70711J-70711D01*
G01*
X123529593Y-91720050D01*
G75*
G02*
X123529593Y-91861472I-70711J-70711D01*
G01*
G37*
G36*
G01*
X123529593Y-93699950D02*
X122504288Y-94725255D01*
G75*
G02*
X122362866Y-94725255I-70711J70711D01*
G01*
X122221445Y-94583834D01*
G75*
G02*
X122221445Y-94442412I70711J70711D01*
G01*
X123246750Y-93417107D01*
G75*
G02*
X123388172Y-93417107I70711J-70711D01*
G01*
X123529593Y-93558528D01*
G75*
G02*
X123529593Y-93699950I-70711J-70711D01*
G01*
G37*
G36*
G01*
X123883146Y-94053503D02*
X122857841Y-95078808D01*
G75*
G02*
X122716419Y-95078808I-70711J70711D01*
G01*
X122574998Y-94937387D01*
G75*
G02*
X122574998Y-94795965I70711J70711D01*
G01*
X123600303Y-93770660D01*
G75*
G02*
X123741725Y-93770660I70711J-70711D01*
G01*
X123883146Y-93912081D01*
G75*
G02*
X123883146Y-94053503I-70711J-70711D01*
G01*
G37*
G36*
G01*
X124236699Y-94407056D02*
X123211394Y-95432361D01*
G75*
G02*
X123069972Y-95432361I-70711J70711D01*
G01*
X122928551Y-95290940D01*
G75*
G02*
X122928551Y-95149518I70711J70711D01*
G01*
X123953856Y-94124213D01*
G75*
G02*
X124095278Y-94124213I70711J-70711D01*
G01*
X124236699Y-94265634D01*
G75*
G02*
X124236699Y-94407056I-70711J-70711D01*
G01*
G37*
G36*
G01*
X124590253Y-94760610D02*
X123564948Y-95785915D01*
G75*
G02*
X123423526Y-95785915I-70711J70711D01*
G01*
X123282105Y-95644494D01*
G75*
G02*
X123282105Y-95503072I70711J70711D01*
G01*
X124307410Y-94477767D01*
G75*
G02*
X124448832Y-94477767I70711J-70711D01*
G01*
X124590253Y-94619188D01*
G75*
G02*
X124590253Y-94760610I-70711J-70711D01*
G01*
G37*
G36*
G01*
X124943806Y-95114163D02*
X123918501Y-96139468D01*
G75*
G02*
X123777079Y-96139468I-70711J70711D01*
G01*
X123635658Y-95998047D01*
G75*
G02*
X123635658Y-95856625I70711J70711D01*
G01*
X124660963Y-94831320D01*
G75*
G02*
X124802385Y-94831320I70711J-70711D01*
G01*
X124943806Y-94972741D01*
G75*
G02*
X124943806Y-95114163I-70711J-70711D01*
G01*
G37*
G36*
G01*
X125297360Y-95467717D02*
X124272055Y-96493022D01*
G75*
G02*
X124130633Y-96493022I-70711J70711D01*
G01*
X123989212Y-96351601D01*
G75*
G02*
X123989212Y-96210179I70711J70711D01*
G01*
X125014517Y-95184874D01*
G75*
G02*
X125155939Y-95184874I70711J-70711D01*
G01*
X125297360Y-95326295D01*
G75*
G02*
X125297360Y-95467717I-70711J-70711D01*
G01*
G37*
G36*
G01*
X125650913Y-95821270D02*
X124625608Y-96846575D01*
G75*
G02*
X124484186Y-96846575I-70711J70711D01*
G01*
X124342765Y-96705154D01*
G75*
G02*
X124342765Y-96563732I70711J70711D01*
G01*
X125368070Y-95538427D01*
G75*
G02*
X125509492Y-95538427I70711J-70711D01*
G01*
X125650913Y-95679848D01*
G75*
G02*
X125650913Y-95821270I-70711J-70711D01*
G01*
G37*
G36*
G01*
X126004466Y-96174823D02*
X124979161Y-97200128D01*
G75*
G02*
X124837739Y-97200128I-70711J70711D01*
G01*
X124696318Y-97058707D01*
G75*
G02*
X124696318Y-96917285I70711J70711D01*
G01*
X125721623Y-95891980D01*
G75*
G02*
X125863045Y-95891980I70711J-70711D01*
G01*
X126004466Y-96033401D01*
G75*
G02*
X126004466Y-96174823I-70711J-70711D01*
G01*
G37*
G36*
G01*
X126358020Y-96528377D02*
X125332715Y-97553682D01*
G75*
G02*
X125191293Y-97553682I-70711J70711D01*
G01*
X125049872Y-97412261D01*
G75*
G02*
X125049872Y-97270839I70711J70711D01*
G01*
X126075177Y-96245534D01*
G75*
G02*
X126216599Y-96245534I70711J-70711D01*
G01*
X126358020Y-96386955D01*
G75*
G02*
X126358020Y-96528377I-70711J-70711D01*
G01*
G37*
G36*
G01*
X126711573Y-96881930D02*
X125686268Y-97907235D01*
G75*
G02*
X125544846Y-97907235I-70711J70711D01*
G01*
X125403425Y-97765814D01*
G75*
G02*
X125403425Y-97624392I70711J70711D01*
G01*
X126428730Y-96599087D01*
G75*
G02*
X126570152Y-96599087I70711J-70711D01*
G01*
X126711573Y-96740508D01*
G75*
G02*
X126711573Y-96881930I-70711J-70711D01*
G01*
G37*
G36*
G01*
X127065126Y-97235483D02*
X126039821Y-98260788D01*
G75*
G02*
X125898399Y-98260788I-70711J70711D01*
G01*
X125756978Y-98119367D01*
G75*
G02*
X125756978Y-97977945I70711J70711D01*
G01*
X126782283Y-96952640D01*
G75*
G02*
X126923705Y-96952640I70711J-70711D01*
G01*
X127065126Y-97094061D01*
G75*
G02*
X127065126Y-97235483I-70711J-70711D01*
G01*
G37*
G36*
G01*
X127418680Y-97589037D02*
X126393375Y-98614342D01*
G75*
G02*
X126251953Y-98614342I-70711J70711D01*
G01*
X126110532Y-98472921D01*
G75*
G02*
X126110532Y-98331499I70711J70711D01*
G01*
X127135837Y-97306194D01*
G75*
G02*
X127277259Y-97306194I70711J-70711D01*
G01*
X127418680Y-97447615D01*
G75*
G02*
X127418680Y-97589037I-70711J-70711D01*
G01*
G37*
G36*
G01*
X127772233Y-97942590D02*
X126746928Y-98967895D01*
G75*
G02*
X126605506Y-98967895I-70711J70711D01*
G01*
X126464085Y-98826474D01*
G75*
G02*
X126464085Y-98685052I70711J70711D01*
G01*
X127489390Y-97659747D01*
G75*
G02*
X127630812Y-97659747I70711J-70711D01*
G01*
X127772233Y-97801168D01*
G75*
G02*
X127772233Y-97942590I-70711J-70711D01*
G01*
G37*
G36*
G01*
X128125787Y-98296144D02*
X127100482Y-99321449D01*
G75*
G02*
X126959060Y-99321449I-70711J70711D01*
G01*
X126817639Y-99180028D01*
G75*
G02*
X126817639Y-99038606I70711J70711D01*
G01*
X127842944Y-98013301D01*
G75*
G02*
X127984366Y-98013301I70711J-70711D01*
G01*
X128125787Y-98154722D01*
G75*
G02*
X128125787Y-98296144I-70711J-70711D01*
G01*
G37*
G36*
G01*
X128479340Y-98649697D02*
X127454035Y-99675002D01*
G75*
G02*
X127312613Y-99675002I-70711J70711D01*
G01*
X127171192Y-99533581D01*
G75*
G02*
X127171192Y-99392159I70711J70711D01*
G01*
X128196497Y-98366854D01*
G75*
G02*
X128337919Y-98366854I70711J-70711D01*
G01*
X128479340Y-98508275D01*
G75*
G02*
X128479340Y-98649697I-70711J-70711D01*
G01*
G37*
G36*
G01*
X128832893Y-99003250D02*
X127807588Y-100028555D01*
G75*
G02*
X127666166Y-100028555I-70711J70711D01*
G01*
X127524745Y-99887134D01*
G75*
G02*
X127524745Y-99745712I70711J70711D01*
G01*
X128550050Y-98720407D01*
G75*
G02*
X128691472Y-98720407I70711J-70711D01*
G01*
X128832893Y-98861828D01*
G75*
G02*
X128832893Y-99003250I-70711J-70711D01*
G01*
G37*
M02*
