G04 #@! TF.GenerationSoftware,KiCad,Pcbnew,5.1.6-c6e7f7d~86~ubuntu18.04.1*
G04 #@! TF.CreationDate,2020-06-21T16:50:38-04:00*
G04 #@! TF.ProjectId,modulation_source,6d6f6475-6c61-4746-996f-6e5f736f7572,rev?*
G04 #@! TF.SameCoordinates,Original*
G04 #@! TF.FileFunction,Legend,Bot*
G04 #@! TF.FilePolarity,Positive*
%FSLAX46Y46*%
G04 Gerber Fmt 4.6, Leading zero omitted, Abs format (unit mm)*
G04 Created by KiCad (PCBNEW 5.1.6-c6e7f7d~86~ubuntu18.04.1) date 2020-06-21 16:50:38*
%MOMM*%
%LPD*%
G01*
G04 APERTURE LIST*
%ADD10C,0.150000*%
%ADD11C,0.120000*%
G04 APERTURE END LIST*
D10*
X117774404Y-53857380D02*
X117774404Y-53190714D01*
X117774404Y-53285952D02*
X117726785Y-53238333D01*
X117631547Y-53190714D01*
X117488690Y-53190714D01*
X117393452Y-53238333D01*
X117345833Y-53333571D01*
X117345833Y-53857380D01*
X117345833Y-53333571D02*
X117298214Y-53238333D01*
X117202976Y-53190714D01*
X117060119Y-53190714D01*
X116964880Y-53238333D01*
X116917261Y-53333571D01*
X116917261Y-53857380D01*
X116298214Y-53857380D02*
X116393452Y-53809761D01*
X116441071Y-53762142D01*
X116488690Y-53666904D01*
X116488690Y-53381190D01*
X116441071Y-53285952D01*
X116393452Y-53238333D01*
X116298214Y-53190714D01*
X116155357Y-53190714D01*
X116060119Y-53238333D01*
X116012500Y-53285952D01*
X115964880Y-53381190D01*
X115964880Y-53666904D01*
X116012500Y-53762142D01*
X116060119Y-53809761D01*
X116155357Y-53857380D01*
X116298214Y-53857380D01*
X115107738Y-53857380D02*
X115107738Y-52857380D01*
X115107738Y-53809761D02*
X115202976Y-53857380D01*
X115393452Y-53857380D01*
X115488690Y-53809761D01*
X115536309Y-53762142D01*
X115583928Y-53666904D01*
X115583928Y-53381190D01*
X115536309Y-53285952D01*
X115488690Y-53238333D01*
X115393452Y-53190714D01*
X115202976Y-53190714D01*
X115107738Y-53238333D01*
X114202976Y-53190714D02*
X114202976Y-53857380D01*
X114631547Y-53190714D02*
X114631547Y-53714523D01*
X114583928Y-53809761D01*
X114488690Y-53857380D01*
X114345833Y-53857380D01*
X114250595Y-53809761D01*
X114202976Y-53762142D01*
X113583928Y-53857380D02*
X113679166Y-53809761D01*
X113726785Y-53714523D01*
X113726785Y-52857380D01*
X112774404Y-53857380D02*
X112774404Y-53333571D01*
X112822023Y-53238333D01*
X112917261Y-53190714D01*
X113107738Y-53190714D01*
X113202976Y-53238333D01*
X112774404Y-53809761D02*
X112869642Y-53857380D01*
X113107738Y-53857380D01*
X113202976Y-53809761D01*
X113250595Y-53714523D01*
X113250595Y-53619285D01*
X113202976Y-53524047D01*
X113107738Y-53476428D01*
X112869642Y-53476428D01*
X112774404Y-53428809D01*
X112441071Y-53190714D02*
X112060119Y-53190714D01*
X112298214Y-52857380D02*
X112298214Y-53714523D01*
X112250595Y-53809761D01*
X112155357Y-53857380D01*
X112060119Y-53857380D01*
X111726785Y-53857380D02*
X111726785Y-53190714D01*
X111726785Y-52857380D02*
X111774404Y-52905000D01*
X111726785Y-52952619D01*
X111679166Y-52905000D01*
X111726785Y-52857380D01*
X111726785Y-52952619D01*
X111107738Y-53857380D02*
X111202976Y-53809761D01*
X111250595Y-53762142D01*
X111298214Y-53666904D01*
X111298214Y-53381190D01*
X111250595Y-53285952D01*
X111202976Y-53238333D01*
X111107738Y-53190714D01*
X110964880Y-53190714D01*
X110869642Y-53238333D01*
X110822023Y-53285952D01*
X110774404Y-53381190D01*
X110774404Y-53666904D01*
X110822023Y-53762142D01*
X110869642Y-53809761D01*
X110964880Y-53857380D01*
X111107738Y-53857380D01*
X110345833Y-53190714D02*
X110345833Y-53857380D01*
X110345833Y-53285952D02*
X110298214Y-53238333D01*
X110202976Y-53190714D01*
X110060119Y-53190714D01*
X109964880Y-53238333D01*
X109917261Y-53333571D01*
X109917261Y-53857380D01*
X108726785Y-53809761D02*
X108631547Y-53857380D01*
X108441071Y-53857380D01*
X108345833Y-53809761D01*
X108298214Y-53714523D01*
X108298214Y-53666904D01*
X108345833Y-53571666D01*
X108441071Y-53524047D01*
X108583928Y-53524047D01*
X108679166Y-53476428D01*
X108726785Y-53381190D01*
X108726785Y-53333571D01*
X108679166Y-53238333D01*
X108583928Y-53190714D01*
X108441071Y-53190714D01*
X108345833Y-53238333D01*
X107726785Y-53857380D02*
X107822023Y-53809761D01*
X107869642Y-53762142D01*
X107917261Y-53666904D01*
X107917261Y-53381190D01*
X107869642Y-53285952D01*
X107822023Y-53238333D01*
X107726785Y-53190714D01*
X107583928Y-53190714D01*
X107488690Y-53238333D01*
X107441071Y-53285952D01*
X107393452Y-53381190D01*
X107393452Y-53666904D01*
X107441071Y-53762142D01*
X107488690Y-53809761D01*
X107583928Y-53857380D01*
X107726785Y-53857380D01*
X106536309Y-53190714D02*
X106536309Y-53857380D01*
X106964880Y-53190714D02*
X106964880Y-53714523D01*
X106917261Y-53809761D01*
X106822023Y-53857380D01*
X106679166Y-53857380D01*
X106583928Y-53809761D01*
X106536309Y-53762142D01*
X106060119Y-53857380D02*
X106060119Y-53190714D01*
X106060119Y-53381190D02*
X106012500Y-53285952D01*
X105964880Y-53238333D01*
X105869642Y-53190714D01*
X105774404Y-53190714D01*
X105012500Y-53809761D02*
X105107738Y-53857380D01*
X105298214Y-53857380D01*
X105393452Y-53809761D01*
X105441071Y-53762142D01*
X105488690Y-53666904D01*
X105488690Y-53381190D01*
X105441071Y-53285952D01*
X105393452Y-53238333D01*
X105298214Y-53190714D01*
X105107738Y-53190714D01*
X105012500Y-53238333D01*
X104202976Y-53809761D02*
X104298214Y-53857380D01*
X104488690Y-53857380D01*
X104583928Y-53809761D01*
X104631547Y-53714523D01*
X104631547Y-53333571D01*
X104583928Y-53238333D01*
X104488690Y-53190714D01*
X104298214Y-53190714D01*
X104202976Y-53238333D01*
X104155357Y-53333571D01*
X104155357Y-53428809D01*
X104631547Y-53524047D01*
X103726785Y-53762142D02*
X103679166Y-53809761D01*
X103726785Y-53857380D01*
X103774404Y-53809761D01*
X103726785Y-53762142D01*
X103726785Y-53857380D01*
X103726785Y-53238333D02*
X103679166Y-53285952D01*
X103726785Y-53333571D01*
X103774404Y-53285952D01*
X103726785Y-53238333D01*
X103726785Y-53333571D01*
X117298214Y-55507380D02*
X117774404Y-55507380D01*
X117774404Y-54507380D01*
X116631547Y-54983571D02*
X116964880Y-54983571D01*
X116964880Y-55507380D02*
X116964880Y-54507380D01*
X116488690Y-54507380D01*
X115917261Y-54507380D02*
X115726785Y-54507380D01*
X115631547Y-54555000D01*
X115536309Y-54650238D01*
X115488690Y-54840714D01*
X115488690Y-55174047D01*
X115536309Y-55364523D01*
X115631547Y-55459761D01*
X115726785Y-55507380D01*
X115917261Y-55507380D01*
X116012500Y-55459761D01*
X116107738Y-55364523D01*
X116155357Y-55174047D01*
X116155357Y-54840714D01*
X116107738Y-54650238D01*
X116012500Y-54555000D01*
X115917261Y-54507380D01*
X114298214Y-55126428D02*
X113536309Y-55126428D01*
X113917261Y-55507380D02*
X113917261Y-54745476D01*
X112345833Y-55459761D02*
X112202976Y-55507380D01*
X111964880Y-55507380D01*
X111869642Y-55459761D01*
X111822023Y-55412142D01*
X111774404Y-55316904D01*
X111774404Y-55221666D01*
X111822023Y-55126428D01*
X111869642Y-55078809D01*
X111964880Y-55031190D01*
X112155357Y-54983571D01*
X112250595Y-54935952D01*
X112298214Y-54888333D01*
X112345833Y-54793095D01*
X112345833Y-54697857D01*
X112298214Y-54602619D01*
X112250595Y-54555000D01*
X112155357Y-54507380D01*
X111917261Y-54507380D01*
X111774404Y-54555000D01*
X110536309Y-55507380D02*
X110583928Y-55507380D01*
X110679166Y-55459761D01*
X110822023Y-55316904D01*
X111060119Y-55031190D01*
X111155357Y-54888333D01*
X111202976Y-54745476D01*
X111202976Y-54650238D01*
X111155357Y-54555000D01*
X111060119Y-54507380D01*
X111012500Y-54507380D01*
X110917261Y-54555000D01*
X110869642Y-54650238D01*
X110869642Y-54697857D01*
X110917261Y-54793095D01*
X110964880Y-54840714D01*
X111250595Y-55031190D01*
X111298214Y-55078809D01*
X111345833Y-55174047D01*
X111345833Y-55316904D01*
X111298214Y-55412142D01*
X111250595Y-55459761D01*
X111155357Y-55507380D01*
X111012500Y-55507380D01*
X110917261Y-55459761D01*
X110869642Y-55412142D01*
X110726785Y-55221666D01*
X110679166Y-55078809D01*
X110679166Y-54983571D01*
X110107738Y-55507380D02*
X110107738Y-54507380D01*
X110107738Y-54983571D02*
X109536309Y-54983571D01*
X109536309Y-55507380D02*
X109536309Y-54507380D01*
X108298214Y-55126428D02*
X107536309Y-55126428D01*
X107917261Y-55507380D02*
X107917261Y-54745476D01*
X106298214Y-54840714D02*
X106298214Y-55507380D01*
X106298214Y-54935952D02*
X106250595Y-54888333D01*
X106155357Y-54840714D01*
X106012500Y-54840714D01*
X105917261Y-54888333D01*
X105869642Y-54983571D01*
X105869642Y-55507380D01*
X105250595Y-55507380D02*
X105345833Y-55459761D01*
X105393452Y-55412142D01*
X105441071Y-55316904D01*
X105441071Y-55031190D01*
X105393452Y-54935952D01*
X105345833Y-54888333D01*
X105250595Y-54840714D01*
X105107738Y-54840714D01*
X105012500Y-54888333D01*
X104964880Y-54935952D01*
X104917261Y-55031190D01*
X104917261Y-55316904D01*
X104964880Y-55412142D01*
X105012500Y-55459761D01*
X105107738Y-55507380D01*
X105250595Y-55507380D01*
X104488690Y-55507380D02*
X104488690Y-54840714D01*
X104488690Y-54507380D02*
X104536309Y-54555000D01*
X104488690Y-54602619D01*
X104441071Y-54555000D01*
X104488690Y-54507380D01*
X104488690Y-54602619D01*
X104060119Y-55459761D02*
X103964880Y-55507380D01*
X103774404Y-55507380D01*
X103679166Y-55459761D01*
X103631547Y-55364523D01*
X103631547Y-55316904D01*
X103679166Y-55221666D01*
X103774404Y-55174047D01*
X103917261Y-55174047D01*
X104012500Y-55126428D01*
X104060119Y-55031190D01*
X104060119Y-54983571D01*
X104012500Y-54888333D01*
X103917261Y-54840714D01*
X103774404Y-54840714D01*
X103679166Y-54888333D01*
X102822023Y-55459761D02*
X102917261Y-55507380D01*
X103107738Y-55507380D01*
X103202976Y-55459761D01*
X103250595Y-55364523D01*
X103250595Y-54983571D01*
X103202976Y-54888333D01*
X103107738Y-54840714D01*
X102917261Y-54840714D01*
X102822023Y-54888333D01*
X102774404Y-54983571D01*
X102774404Y-55078809D01*
X103250595Y-55174047D01*
X117774404Y-57157380D02*
X117774404Y-56490714D01*
X117774404Y-56681190D02*
X117726785Y-56585952D01*
X117679166Y-56538333D01*
X117583928Y-56490714D01*
X117488690Y-56490714D01*
X116774404Y-57109761D02*
X116869642Y-57157380D01*
X117060119Y-57157380D01*
X117155357Y-57109761D01*
X117202976Y-57014523D01*
X117202976Y-56633571D01*
X117155357Y-56538333D01*
X117060119Y-56490714D01*
X116869642Y-56490714D01*
X116774404Y-56538333D01*
X116726785Y-56633571D01*
X116726785Y-56728809D01*
X117202976Y-56824047D01*
X116393452Y-56490714D02*
X116155357Y-57157380D01*
X115917261Y-56490714D01*
X114583928Y-56157380D02*
X114488690Y-56157380D01*
X114393452Y-56205000D01*
X114345833Y-56252619D01*
X114298214Y-56347857D01*
X114250595Y-56538333D01*
X114250595Y-56776428D01*
X114298214Y-56966904D01*
X114345833Y-57062142D01*
X114393452Y-57109761D01*
X114488690Y-57157380D01*
X114583928Y-57157380D01*
X114679166Y-57109761D01*
X114726785Y-57062142D01*
X114774404Y-56966904D01*
X114822023Y-56776428D01*
X114822023Y-56538333D01*
X114774404Y-56347857D01*
X114726785Y-56252619D01*
X114679166Y-56205000D01*
X114583928Y-56157380D01*
X117822023Y-57902619D02*
X117774404Y-57855000D01*
X117679166Y-57807380D01*
X117441071Y-57807380D01*
X117345833Y-57855000D01*
X117298214Y-57902619D01*
X117250595Y-57997857D01*
X117250595Y-58093095D01*
X117298214Y-58235952D01*
X117869642Y-58807380D01*
X117250595Y-58807380D01*
X116631547Y-57807380D02*
X116536309Y-57807380D01*
X116441071Y-57855000D01*
X116393452Y-57902619D01*
X116345833Y-57997857D01*
X116298214Y-58188333D01*
X116298214Y-58426428D01*
X116345833Y-58616904D01*
X116393452Y-58712142D01*
X116441071Y-58759761D01*
X116536309Y-58807380D01*
X116631547Y-58807380D01*
X116726785Y-58759761D01*
X116774404Y-58712142D01*
X116822023Y-58616904D01*
X116869642Y-58426428D01*
X116869642Y-58188333D01*
X116822023Y-57997857D01*
X116774404Y-57902619D01*
X116726785Y-57855000D01*
X116631547Y-57807380D01*
X115917261Y-57902619D02*
X115869642Y-57855000D01*
X115774404Y-57807380D01*
X115536309Y-57807380D01*
X115441071Y-57855000D01*
X115393452Y-57902619D01*
X115345833Y-57997857D01*
X115345833Y-58093095D01*
X115393452Y-58235952D01*
X115964880Y-58807380D01*
X115345833Y-58807380D01*
X114726785Y-57807380D02*
X114631547Y-57807380D01*
X114536309Y-57855000D01*
X114488690Y-57902619D01*
X114441071Y-57997857D01*
X114393452Y-58188333D01*
X114393452Y-58426428D01*
X114441071Y-58616904D01*
X114488690Y-58712142D01*
X114536309Y-58759761D01*
X114631547Y-58807380D01*
X114726785Y-58807380D01*
X114822023Y-58759761D01*
X114869642Y-58712142D01*
X114917261Y-58616904D01*
X114964880Y-58426428D01*
X114964880Y-58188333D01*
X114917261Y-57997857D01*
X114869642Y-57902619D01*
X114822023Y-57855000D01*
X114726785Y-57807380D01*
X113964880Y-58426428D02*
X113202976Y-58426428D01*
X112536309Y-57807380D02*
X112441071Y-57807380D01*
X112345833Y-57855000D01*
X112298214Y-57902619D01*
X112250595Y-57997857D01*
X112202976Y-58188333D01*
X112202976Y-58426428D01*
X112250595Y-58616904D01*
X112298214Y-58712142D01*
X112345833Y-58759761D01*
X112441071Y-58807380D01*
X112536309Y-58807380D01*
X112631547Y-58759761D01*
X112679166Y-58712142D01*
X112726785Y-58616904D01*
X112774404Y-58426428D01*
X112774404Y-58188333D01*
X112726785Y-57997857D01*
X112679166Y-57902619D01*
X112631547Y-57855000D01*
X112536309Y-57807380D01*
X111345833Y-57807380D02*
X111536309Y-57807380D01*
X111631547Y-57855000D01*
X111679166Y-57902619D01*
X111774404Y-58045476D01*
X111822023Y-58235952D01*
X111822023Y-58616904D01*
X111774404Y-58712142D01*
X111726785Y-58759761D01*
X111631547Y-58807380D01*
X111441071Y-58807380D01*
X111345833Y-58759761D01*
X111298214Y-58712142D01*
X111250595Y-58616904D01*
X111250595Y-58378809D01*
X111298214Y-58283571D01*
X111345833Y-58235952D01*
X111441071Y-58188333D01*
X111631547Y-58188333D01*
X111726785Y-58235952D01*
X111774404Y-58283571D01*
X111822023Y-58378809D01*
X110822023Y-58426428D02*
X110060119Y-58426428D01*
X109631547Y-57902619D02*
X109583928Y-57855000D01*
X109488690Y-57807380D01*
X109250595Y-57807380D01*
X109155357Y-57855000D01*
X109107738Y-57902619D01*
X109060119Y-57997857D01*
X109060119Y-58093095D01*
X109107738Y-58235952D01*
X109679166Y-58807380D01*
X109060119Y-58807380D01*
X108441071Y-57807380D02*
X108345833Y-57807380D01*
X108250595Y-57855000D01*
X108202976Y-57902619D01*
X108155357Y-57997857D01*
X108107738Y-58188333D01*
X108107738Y-58426428D01*
X108155357Y-58616904D01*
X108202976Y-58712142D01*
X108250595Y-58759761D01*
X108345833Y-58807380D01*
X108441071Y-58807380D01*
X108536309Y-58759761D01*
X108583928Y-58712142D01*
X108631547Y-58616904D01*
X108679166Y-58426428D01*
X108679166Y-58188333D01*
X108631547Y-57997857D01*
X108583928Y-57902619D01*
X108536309Y-57855000D01*
X108441071Y-57807380D01*
X188989642Y-67095714D02*
X188751547Y-67762380D01*
X188513452Y-67095714D01*
X188132500Y-67381428D02*
X187370595Y-67381428D01*
X186132500Y-67762380D02*
X186132500Y-67095714D01*
X186132500Y-66762380D02*
X186180119Y-66810000D01*
X186132500Y-66857619D01*
X186084880Y-66810000D01*
X186132500Y-66762380D01*
X186132500Y-66857619D01*
X185656309Y-67095714D02*
X185656309Y-67762380D01*
X185656309Y-67190952D02*
X185608690Y-67143333D01*
X185513452Y-67095714D01*
X185370595Y-67095714D01*
X185275357Y-67143333D01*
X185227738Y-67238571D01*
X185227738Y-67762380D01*
X188465833Y-64555714D02*
X188465833Y-65365238D01*
X188513452Y-65460476D01*
X188561071Y-65508095D01*
X188656309Y-65555714D01*
X188799166Y-65555714D01*
X188894404Y-65508095D01*
X188465833Y-65174761D02*
X188561071Y-65222380D01*
X188751547Y-65222380D01*
X188846785Y-65174761D01*
X188894404Y-65127142D01*
X188942023Y-65031904D01*
X188942023Y-64746190D01*
X188894404Y-64650952D01*
X188846785Y-64603333D01*
X188751547Y-64555714D01*
X188561071Y-64555714D01*
X188465833Y-64603333D01*
X187989642Y-64555714D02*
X187989642Y-65222380D01*
X187989642Y-64650952D02*
X187942023Y-64603333D01*
X187846785Y-64555714D01*
X187703928Y-64555714D01*
X187608690Y-64603333D01*
X187561071Y-64698571D01*
X187561071Y-65222380D01*
X186656309Y-65222380D02*
X186656309Y-64222380D01*
X186656309Y-65174761D02*
X186751547Y-65222380D01*
X186942023Y-65222380D01*
X187037261Y-65174761D01*
X187084880Y-65127142D01*
X187132500Y-65031904D01*
X187132500Y-64746190D01*
X187084880Y-64650952D01*
X187037261Y-64603333D01*
X186942023Y-64555714D01*
X186751547Y-64555714D01*
X186656309Y-64603333D01*
X188465833Y-62015714D02*
X188465833Y-62825238D01*
X188513452Y-62920476D01*
X188561071Y-62968095D01*
X188656309Y-63015714D01*
X188799166Y-63015714D01*
X188894404Y-62968095D01*
X188465833Y-62634761D02*
X188561071Y-62682380D01*
X188751547Y-62682380D01*
X188846785Y-62634761D01*
X188894404Y-62587142D01*
X188942023Y-62491904D01*
X188942023Y-62206190D01*
X188894404Y-62110952D01*
X188846785Y-62063333D01*
X188751547Y-62015714D01*
X188561071Y-62015714D01*
X188465833Y-62063333D01*
X187989642Y-62015714D02*
X187989642Y-62682380D01*
X187989642Y-62110952D02*
X187942023Y-62063333D01*
X187846785Y-62015714D01*
X187703928Y-62015714D01*
X187608690Y-62063333D01*
X187561071Y-62158571D01*
X187561071Y-62682380D01*
X186656309Y-62682380D02*
X186656309Y-61682380D01*
X186656309Y-62634761D02*
X186751547Y-62682380D01*
X186942023Y-62682380D01*
X187037261Y-62634761D01*
X187084880Y-62587142D01*
X187132500Y-62491904D01*
X187132500Y-62206190D01*
X187084880Y-62110952D01*
X187037261Y-62063333D01*
X186942023Y-62015714D01*
X186751547Y-62015714D01*
X186656309Y-62063333D01*
X188465833Y-59475714D02*
X188465833Y-60285238D01*
X188513452Y-60380476D01*
X188561071Y-60428095D01*
X188656309Y-60475714D01*
X188799166Y-60475714D01*
X188894404Y-60428095D01*
X188465833Y-60094761D02*
X188561071Y-60142380D01*
X188751547Y-60142380D01*
X188846785Y-60094761D01*
X188894404Y-60047142D01*
X188942023Y-59951904D01*
X188942023Y-59666190D01*
X188894404Y-59570952D01*
X188846785Y-59523333D01*
X188751547Y-59475714D01*
X188561071Y-59475714D01*
X188465833Y-59523333D01*
X187989642Y-59475714D02*
X187989642Y-60142380D01*
X187989642Y-59570952D02*
X187942023Y-59523333D01*
X187846785Y-59475714D01*
X187703928Y-59475714D01*
X187608690Y-59523333D01*
X187561071Y-59618571D01*
X187561071Y-60142380D01*
X186656309Y-60142380D02*
X186656309Y-59142380D01*
X186656309Y-60094761D02*
X186751547Y-60142380D01*
X186942023Y-60142380D01*
X187037261Y-60094761D01*
X187084880Y-60047142D01*
X187132500Y-59951904D01*
X187132500Y-59666190D01*
X187084880Y-59570952D01*
X187037261Y-59523333D01*
X186942023Y-59475714D01*
X186751547Y-59475714D01*
X186656309Y-59523333D01*
X188989642Y-56935714D02*
X188751547Y-57602380D01*
X188513452Y-56935714D01*
X188132500Y-57221428D02*
X187370595Y-57221428D01*
X187751547Y-57602380D02*
X187751547Y-56840476D01*
X186132500Y-57602380D02*
X186132500Y-56935714D01*
X186132500Y-56602380D02*
X186180119Y-56650000D01*
X186132500Y-56697619D01*
X186084880Y-56650000D01*
X186132500Y-56602380D01*
X186132500Y-56697619D01*
X185656309Y-56935714D02*
X185656309Y-57602380D01*
X185656309Y-57030952D02*
X185608690Y-56983333D01*
X185513452Y-56935714D01*
X185370595Y-56935714D01*
X185275357Y-56983333D01*
X185227738Y-57078571D01*
X185227738Y-57602380D01*
X116075833Y-114085714D02*
X116075833Y-114895238D01*
X116123452Y-114990476D01*
X116171071Y-115038095D01*
X116266309Y-115085714D01*
X116409166Y-115085714D01*
X116504404Y-115038095D01*
X116075833Y-114704761D02*
X116171071Y-114752380D01*
X116361547Y-114752380D01*
X116456785Y-114704761D01*
X116504404Y-114657142D01*
X116552023Y-114561904D01*
X116552023Y-114276190D01*
X116504404Y-114180952D01*
X116456785Y-114133333D01*
X116361547Y-114085714D01*
X116171071Y-114085714D01*
X116075833Y-114133333D01*
X115599642Y-114085714D02*
X115599642Y-114752380D01*
X115599642Y-114180952D02*
X115552023Y-114133333D01*
X115456785Y-114085714D01*
X115313928Y-114085714D01*
X115218690Y-114133333D01*
X115171071Y-114228571D01*
X115171071Y-114752380D01*
X114266309Y-114752380D02*
X114266309Y-113752380D01*
X114266309Y-114704761D02*
X114361547Y-114752380D01*
X114552023Y-114752380D01*
X114647261Y-114704761D01*
X114694880Y-114657142D01*
X114742500Y-114561904D01*
X114742500Y-114276190D01*
X114694880Y-114180952D01*
X114647261Y-114133333D01*
X114552023Y-114085714D01*
X114361547Y-114085714D01*
X114266309Y-114133333D01*
X116504404Y-111545714D02*
X116504404Y-112212380D01*
X116504404Y-111640952D02*
X116456785Y-111593333D01*
X116361547Y-111545714D01*
X116218690Y-111545714D01*
X116123452Y-111593333D01*
X116075833Y-111688571D01*
X116075833Y-112212380D01*
X115456785Y-112212380D02*
X115552023Y-112164761D01*
X115599642Y-112117142D01*
X115647261Y-112021904D01*
X115647261Y-111736190D01*
X115599642Y-111640952D01*
X115552023Y-111593333D01*
X115456785Y-111545714D01*
X115313928Y-111545714D01*
X115218690Y-111593333D01*
X115171071Y-111640952D01*
X115123452Y-111736190D01*
X115123452Y-112021904D01*
X115171071Y-112117142D01*
X115218690Y-112164761D01*
X115313928Y-112212380D01*
X115456785Y-112212380D01*
X114694880Y-112212380D02*
X114694880Y-111545714D01*
X114694880Y-111212380D02*
X114742500Y-111260000D01*
X114694880Y-111307619D01*
X114647261Y-111260000D01*
X114694880Y-111212380D01*
X114694880Y-111307619D01*
X114266309Y-112164761D02*
X114171071Y-112212380D01*
X113980595Y-112212380D01*
X113885357Y-112164761D01*
X113837738Y-112069523D01*
X113837738Y-112021904D01*
X113885357Y-111926666D01*
X113980595Y-111879047D01*
X114123452Y-111879047D01*
X114218690Y-111831428D01*
X114266309Y-111736190D01*
X114266309Y-111688571D01*
X114218690Y-111593333D01*
X114123452Y-111545714D01*
X113980595Y-111545714D01*
X113885357Y-111593333D01*
X113028214Y-112164761D02*
X113123452Y-112212380D01*
X113313928Y-112212380D01*
X113409166Y-112164761D01*
X113456785Y-112069523D01*
X113456785Y-111688571D01*
X113409166Y-111593333D01*
X113313928Y-111545714D01*
X113123452Y-111545714D01*
X113028214Y-111593333D01*
X112980595Y-111688571D01*
X112980595Y-111783809D01*
X113456785Y-111879047D01*
X111647261Y-112212380D02*
X111742500Y-112164761D01*
X111790119Y-112117142D01*
X111837738Y-112021904D01*
X111837738Y-111736190D01*
X111790119Y-111640952D01*
X111742500Y-111593333D01*
X111647261Y-111545714D01*
X111504404Y-111545714D01*
X111409166Y-111593333D01*
X111361547Y-111640952D01*
X111313928Y-111736190D01*
X111313928Y-112021904D01*
X111361547Y-112117142D01*
X111409166Y-112164761D01*
X111504404Y-112212380D01*
X111647261Y-112212380D01*
X110456785Y-111545714D02*
X110456785Y-112212380D01*
X110885357Y-111545714D02*
X110885357Y-112069523D01*
X110837738Y-112164761D01*
X110742500Y-112212380D01*
X110599642Y-112212380D01*
X110504404Y-112164761D01*
X110456785Y-112117142D01*
X110123452Y-111545714D02*
X109742500Y-111545714D01*
X109980595Y-111212380D02*
X109980595Y-112069523D01*
X109932976Y-112164761D01*
X109837738Y-112212380D01*
X109742500Y-112212380D01*
X116552023Y-109624761D02*
X116456785Y-109672380D01*
X116266309Y-109672380D01*
X116171071Y-109624761D01*
X116123452Y-109529523D01*
X116123452Y-109481904D01*
X116171071Y-109386666D01*
X116266309Y-109339047D01*
X116409166Y-109339047D01*
X116504404Y-109291428D01*
X116552023Y-109196190D01*
X116552023Y-109148571D01*
X116504404Y-109053333D01*
X116409166Y-109005714D01*
X116266309Y-109005714D01*
X116171071Y-109053333D01*
X114885357Y-109672380D02*
X114932976Y-109672380D01*
X115028214Y-109624761D01*
X115171071Y-109481904D01*
X115409166Y-109196190D01*
X115504404Y-109053333D01*
X115552023Y-108910476D01*
X115552023Y-108815238D01*
X115504404Y-108720000D01*
X115409166Y-108672380D01*
X115361547Y-108672380D01*
X115266309Y-108720000D01*
X115218690Y-108815238D01*
X115218690Y-108862857D01*
X115266309Y-108958095D01*
X115313928Y-109005714D01*
X115599642Y-109196190D01*
X115647261Y-109243809D01*
X115694880Y-109339047D01*
X115694880Y-109481904D01*
X115647261Y-109577142D01*
X115599642Y-109624761D01*
X115504404Y-109672380D01*
X115361547Y-109672380D01*
X115266309Y-109624761D01*
X115218690Y-109577142D01*
X115075833Y-109386666D01*
X115028214Y-109243809D01*
X115028214Y-109148571D01*
X114456785Y-109672380D02*
X114456785Y-108672380D01*
X114028214Y-109672380D02*
X114028214Y-109148571D01*
X114075833Y-109053333D01*
X114171071Y-109005714D01*
X114313928Y-109005714D01*
X114409166Y-109053333D01*
X114456785Y-109100952D01*
X112647261Y-109672380D02*
X112742500Y-109624761D01*
X112790119Y-109577142D01*
X112837738Y-109481904D01*
X112837738Y-109196190D01*
X112790119Y-109100952D01*
X112742500Y-109053333D01*
X112647261Y-109005714D01*
X112504404Y-109005714D01*
X112409166Y-109053333D01*
X112361547Y-109100952D01*
X112313928Y-109196190D01*
X112313928Y-109481904D01*
X112361547Y-109577142D01*
X112409166Y-109624761D01*
X112504404Y-109672380D01*
X112647261Y-109672380D01*
X111456785Y-109005714D02*
X111456785Y-109672380D01*
X111885357Y-109005714D02*
X111885357Y-109529523D01*
X111837738Y-109624761D01*
X111742500Y-109672380D01*
X111599642Y-109672380D01*
X111504404Y-109624761D01*
X111456785Y-109577142D01*
X111123452Y-109005714D02*
X110742500Y-109005714D01*
X110980595Y-108672380D02*
X110980595Y-109529523D01*
X110932976Y-109624761D01*
X110837738Y-109672380D01*
X110742500Y-109672380D01*
X116075833Y-107084761D02*
X116171071Y-107132380D01*
X116361547Y-107132380D01*
X116456785Y-107084761D01*
X116504404Y-107037142D01*
X116552023Y-106941904D01*
X116552023Y-106656190D01*
X116504404Y-106560952D01*
X116456785Y-106513333D01*
X116361547Y-106465714D01*
X116171071Y-106465714D01*
X116075833Y-106513333D01*
X115504404Y-107132380D02*
X115599642Y-107084761D01*
X115647261Y-106989523D01*
X115647261Y-106132380D01*
X114980595Y-107132380D02*
X115075833Y-107084761D01*
X115123452Y-107037142D01*
X115171071Y-106941904D01*
X115171071Y-106656190D01*
X115123452Y-106560952D01*
X115075833Y-106513333D01*
X114980595Y-106465714D01*
X114837738Y-106465714D01*
X114742500Y-106513333D01*
X114694880Y-106560952D01*
X114647261Y-106656190D01*
X114647261Y-106941904D01*
X114694880Y-107037142D01*
X114742500Y-107084761D01*
X114837738Y-107132380D01*
X114980595Y-107132380D01*
X113790119Y-107084761D02*
X113885357Y-107132380D01*
X114075833Y-107132380D01*
X114171071Y-107084761D01*
X114218690Y-107037142D01*
X114266309Y-106941904D01*
X114266309Y-106656190D01*
X114218690Y-106560952D01*
X114171071Y-106513333D01*
X114075833Y-106465714D01*
X113885357Y-106465714D01*
X113790119Y-106513333D01*
X113361547Y-107132380D02*
X113361547Y-106132380D01*
X113266309Y-106751428D02*
X112980595Y-107132380D01*
X112980595Y-106465714D02*
X113361547Y-106846666D01*
X111647261Y-107132380D02*
X111742500Y-107084761D01*
X111790119Y-107037142D01*
X111837738Y-106941904D01*
X111837738Y-106656190D01*
X111790119Y-106560952D01*
X111742500Y-106513333D01*
X111647261Y-106465714D01*
X111504404Y-106465714D01*
X111409166Y-106513333D01*
X111361547Y-106560952D01*
X111313928Y-106656190D01*
X111313928Y-106941904D01*
X111361547Y-107037142D01*
X111409166Y-107084761D01*
X111504404Y-107132380D01*
X111647261Y-107132380D01*
X110456785Y-106465714D02*
X110456785Y-107132380D01*
X110885357Y-106465714D02*
X110885357Y-106989523D01*
X110837738Y-107084761D01*
X110742500Y-107132380D01*
X110599642Y-107132380D01*
X110504404Y-107084761D01*
X110456785Y-107037142D01*
X110123452Y-106465714D02*
X109742500Y-106465714D01*
X109980595Y-106132380D02*
X109980595Y-106989523D01*
X109932976Y-107084761D01*
X109837738Y-107132380D01*
X109742500Y-107132380D01*
X116647261Y-103925714D02*
X116266309Y-103925714D01*
X116504404Y-103592380D02*
X116504404Y-104449523D01*
X116456785Y-104544761D01*
X116361547Y-104592380D01*
X116266309Y-104592380D01*
X115932976Y-104592380D02*
X115932976Y-103925714D01*
X115932976Y-104116190D02*
X115885357Y-104020952D01*
X115837738Y-103973333D01*
X115742500Y-103925714D01*
X115647261Y-103925714D01*
X115313928Y-104592380D02*
X115313928Y-103925714D01*
X115313928Y-103592380D02*
X115361547Y-103640000D01*
X115313928Y-103687619D01*
X115266309Y-103640000D01*
X115313928Y-103592380D01*
X115313928Y-103687619D01*
X113932976Y-104592380D02*
X114028214Y-104544761D01*
X114075833Y-104497142D01*
X114123452Y-104401904D01*
X114123452Y-104116190D01*
X114075833Y-104020952D01*
X114028214Y-103973333D01*
X113932976Y-103925714D01*
X113790119Y-103925714D01*
X113694880Y-103973333D01*
X113647261Y-104020952D01*
X113599642Y-104116190D01*
X113599642Y-104401904D01*
X113647261Y-104497142D01*
X113694880Y-104544761D01*
X113790119Y-104592380D01*
X113932976Y-104592380D01*
X112742500Y-103925714D02*
X112742500Y-104592380D01*
X113171071Y-103925714D02*
X113171071Y-104449523D01*
X113123452Y-104544761D01*
X113028214Y-104592380D01*
X112885357Y-104592380D01*
X112790119Y-104544761D01*
X112742500Y-104497142D01*
X112409166Y-103925714D02*
X112028214Y-103925714D01*
X112266309Y-103592380D02*
X112266309Y-104449523D01*
X112218690Y-104544761D01*
X112123452Y-104592380D01*
X112028214Y-104592380D01*
X116552023Y-102004761D02*
X116456785Y-102052380D01*
X116266309Y-102052380D01*
X116171071Y-102004761D01*
X116123452Y-101909523D01*
X116123452Y-101861904D01*
X116171071Y-101766666D01*
X116266309Y-101719047D01*
X116409166Y-101719047D01*
X116504404Y-101671428D01*
X116552023Y-101576190D01*
X116552023Y-101528571D01*
X116504404Y-101433333D01*
X116409166Y-101385714D01*
X116266309Y-101385714D01*
X116171071Y-101433333D01*
X115694880Y-102052380D02*
X115694880Y-101385714D01*
X115694880Y-101052380D02*
X115742500Y-101100000D01*
X115694880Y-101147619D01*
X115647261Y-101100000D01*
X115694880Y-101052380D01*
X115694880Y-101147619D01*
X115218690Y-101385714D02*
X115218690Y-102052380D01*
X115218690Y-101480952D02*
X115171071Y-101433333D01*
X115075833Y-101385714D01*
X114932976Y-101385714D01*
X114837738Y-101433333D01*
X114790119Y-101528571D01*
X114790119Y-102052380D01*
X113932976Y-102004761D02*
X114028214Y-102052380D01*
X114218690Y-102052380D01*
X114313928Y-102004761D01*
X114361547Y-101909523D01*
X114361547Y-101528571D01*
X114313928Y-101433333D01*
X114218690Y-101385714D01*
X114028214Y-101385714D01*
X113932976Y-101433333D01*
X113885357Y-101528571D01*
X113885357Y-101623809D01*
X114361547Y-101719047D01*
X112552023Y-102052380D02*
X112647261Y-102004761D01*
X112694880Y-101957142D01*
X112742500Y-101861904D01*
X112742500Y-101576190D01*
X112694880Y-101480952D01*
X112647261Y-101433333D01*
X112552023Y-101385714D01*
X112409166Y-101385714D01*
X112313928Y-101433333D01*
X112266309Y-101480952D01*
X112218690Y-101576190D01*
X112218690Y-101861904D01*
X112266309Y-101957142D01*
X112313928Y-102004761D01*
X112409166Y-102052380D01*
X112552023Y-102052380D01*
X111361547Y-101385714D02*
X111361547Y-102052380D01*
X111790119Y-101385714D02*
X111790119Y-101909523D01*
X111742500Y-102004761D01*
X111647261Y-102052380D01*
X111504404Y-102052380D01*
X111409166Y-102004761D01*
X111361547Y-101957142D01*
X111028214Y-101385714D02*
X110647261Y-101385714D01*
X110885357Y-101052380D02*
X110885357Y-101909523D01*
X110837738Y-102004761D01*
X110742500Y-102052380D01*
X110647261Y-102052380D01*
X116075833Y-83605714D02*
X116075833Y-84415238D01*
X116123452Y-84510476D01*
X116171071Y-84558095D01*
X116266309Y-84605714D01*
X116409166Y-84605714D01*
X116504404Y-84558095D01*
X116075833Y-84224761D02*
X116171071Y-84272380D01*
X116361547Y-84272380D01*
X116456785Y-84224761D01*
X116504404Y-84177142D01*
X116552023Y-84081904D01*
X116552023Y-83796190D01*
X116504404Y-83700952D01*
X116456785Y-83653333D01*
X116361547Y-83605714D01*
X116171071Y-83605714D01*
X116075833Y-83653333D01*
X115599642Y-83605714D02*
X115599642Y-84272380D01*
X115599642Y-83700952D02*
X115552023Y-83653333D01*
X115456785Y-83605714D01*
X115313928Y-83605714D01*
X115218690Y-83653333D01*
X115171071Y-83748571D01*
X115171071Y-84272380D01*
X114266309Y-84272380D02*
X114266309Y-83272380D01*
X114266309Y-84224761D02*
X114361547Y-84272380D01*
X114552023Y-84272380D01*
X114647261Y-84224761D01*
X114694880Y-84177142D01*
X114742500Y-84081904D01*
X114742500Y-83796190D01*
X114694880Y-83700952D01*
X114647261Y-83653333D01*
X114552023Y-83605714D01*
X114361547Y-83605714D01*
X114266309Y-83653333D01*
X116075833Y-81684761D02*
X116171071Y-81732380D01*
X116361547Y-81732380D01*
X116456785Y-81684761D01*
X116504404Y-81637142D01*
X116552023Y-81541904D01*
X116552023Y-81256190D01*
X116504404Y-81160952D01*
X116456785Y-81113333D01*
X116361547Y-81065714D01*
X116171071Y-81065714D01*
X116075833Y-81113333D01*
X115504404Y-81732380D02*
X115599642Y-81684761D01*
X115647261Y-81589523D01*
X115647261Y-80732380D01*
X114980595Y-81732380D02*
X115075833Y-81684761D01*
X115123452Y-81637142D01*
X115171071Y-81541904D01*
X115171071Y-81256190D01*
X115123452Y-81160952D01*
X115075833Y-81113333D01*
X114980595Y-81065714D01*
X114837738Y-81065714D01*
X114742500Y-81113333D01*
X114694880Y-81160952D01*
X114647261Y-81256190D01*
X114647261Y-81541904D01*
X114694880Y-81637142D01*
X114742500Y-81684761D01*
X114837738Y-81732380D01*
X114980595Y-81732380D01*
X113790119Y-81684761D02*
X113885357Y-81732380D01*
X114075833Y-81732380D01*
X114171071Y-81684761D01*
X114218690Y-81637142D01*
X114266309Y-81541904D01*
X114266309Y-81256190D01*
X114218690Y-81160952D01*
X114171071Y-81113333D01*
X114075833Y-81065714D01*
X113885357Y-81065714D01*
X113790119Y-81113333D01*
X113361547Y-81732380D02*
X113361547Y-80732380D01*
X113266309Y-81351428D02*
X112980595Y-81732380D01*
X112980595Y-81065714D02*
X113361547Y-81446666D01*
X111790119Y-81732380D02*
X111790119Y-81065714D01*
X111790119Y-80732380D02*
X111837738Y-80780000D01*
X111790119Y-80827619D01*
X111742500Y-80780000D01*
X111790119Y-80732380D01*
X111790119Y-80827619D01*
X111313928Y-81065714D02*
X111313928Y-81732380D01*
X111313928Y-81160952D02*
X111266309Y-81113333D01*
X111171071Y-81065714D01*
X111028214Y-81065714D01*
X110932976Y-81113333D01*
X110885357Y-81208571D01*
X110885357Y-81732380D01*
X116552023Y-79144761D02*
X116456785Y-79192380D01*
X116266309Y-79192380D01*
X116171071Y-79144761D01*
X116123452Y-79049523D01*
X116123452Y-79001904D01*
X116171071Y-78906666D01*
X116266309Y-78859047D01*
X116409166Y-78859047D01*
X116504404Y-78811428D01*
X116552023Y-78716190D01*
X116552023Y-78668571D01*
X116504404Y-78573333D01*
X116409166Y-78525714D01*
X116266309Y-78525714D01*
X116171071Y-78573333D01*
X115266309Y-79192380D02*
X115266309Y-78668571D01*
X115313928Y-78573333D01*
X115409166Y-78525714D01*
X115599642Y-78525714D01*
X115694880Y-78573333D01*
X115266309Y-79144761D02*
X115361547Y-79192380D01*
X115599642Y-79192380D01*
X115694880Y-79144761D01*
X115742500Y-79049523D01*
X115742500Y-78954285D01*
X115694880Y-78859047D01*
X115599642Y-78811428D01*
X115361547Y-78811428D01*
X115266309Y-78763809D01*
X114790119Y-79192380D02*
X114790119Y-78525714D01*
X114790119Y-78620952D02*
X114742500Y-78573333D01*
X114647261Y-78525714D01*
X114504404Y-78525714D01*
X114409166Y-78573333D01*
X114361547Y-78668571D01*
X114361547Y-79192380D01*
X114361547Y-78668571D02*
X114313928Y-78573333D01*
X114218690Y-78525714D01*
X114075833Y-78525714D01*
X113980595Y-78573333D01*
X113932976Y-78668571D01*
X113932976Y-79192380D01*
X113456785Y-78525714D02*
X113456785Y-79525714D01*
X113456785Y-78573333D02*
X113361547Y-78525714D01*
X113171071Y-78525714D01*
X113075833Y-78573333D01*
X113028214Y-78620952D01*
X112980595Y-78716190D01*
X112980595Y-79001904D01*
X113028214Y-79097142D01*
X113075833Y-79144761D01*
X113171071Y-79192380D01*
X113361547Y-79192380D01*
X113456785Y-79144761D01*
X112409166Y-79192380D02*
X112504404Y-79144761D01*
X112552023Y-79049523D01*
X112552023Y-78192380D01*
X111647261Y-79144761D02*
X111742500Y-79192380D01*
X111932976Y-79192380D01*
X112028214Y-79144761D01*
X112075833Y-79049523D01*
X112075833Y-78668571D01*
X112028214Y-78573333D01*
X111932976Y-78525714D01*
X111742500Y-78525714D01*
X111647261Y-78573333D01*
X111599642Y-78668571D01*
X111599642Y-78763809D01*
X112075833Y-78859047D01*
X110409166Y-79192380D02*
X110409166Y-78525714D01*
X110409166Y-78192380D02*
X110456785Y-78240000D01*
X110409166Y-78287619D01*
X110361547Y-78240000D01*
X110409166Y-78192380D01*
X110409166Y-78287619D01*
X109932976Y-78525714D02*
X109932976Y-79192380D01*
X109932976Y-78620952D02*
X109885357Y-78573333D01*
X109790119Y-78525714D01*
X109647261Y-78525714D01*
X109552023Y-78573333D01*
X109504404Y-78668571D01*
X109504404Y-79192380D01*
X116171071Y-76128571D02*
X116504404Y-76128571D01*
X116504404Y-76652380D02*
X116504404Y-75652380D01*
X116028214Y-75652380D01*
X115647261Y-76652380D02*
X115647261Y-75652380D01*
X115313928Y-76366666D01*
X114980595Y-75652380D01*
X114980595Y-76652380D01*
X113742500Y-76652380D02*
X113742500Y-75985714D01*
X113742500Y-75652380D02*
X113790119Y-75700000D01*
X113742500Y-75747619D01*
X113694880Y-75700000D01*
X113742500Y-75652380D01*
X113742500Y-75747619D01*
X113266309Y-75985714D02*
X113266309Y-76652380D01*
X113266309Y-76080952D02*
X113218690Y-76033333D01*
X113123452Y-75985714D01*
X112980595Y-75985714D01*
X112885357Y-76033333D01*
X112837738Y-76128571D01*
X112837738Y-76652380D01*
X173322761Y-83716761D02*
X173227523Y-83764380D01*
X173037047Y-83764380D01*
X172941809Y-83716761D01*
X172894190Y-83621523D01*
X172894190Y-83573904D01*
X172941809Y-83478666D01*
X173037047Y-83431047D01*
X173179904Y-83431047D01*
X173275142Y-83383428D01*
X173322761Y-83288190D01*
X173322761Y-83240571D01*
X173275142Y-83145333D01*
X173179904Y-83097714D01*
X173037047Y-83097714D01*
X172941809Y-83145333D01*
X172465619Y-83764380D02*
X172465619Y-83097714D01*
X172465619Y-82764380D02*
X172513238Y-82812000D01*
X172465619Y-82859619D01*
X172418000Y-82812000D01*
X172465619Y-82764380D01*
X172465619Y-82859619D01*
X171989428Y-83097714D02*
X171989428Y-83764380D01*
X171989428Y-83192952D02*
X171941809Y-83145333D01*
X171846571Y-83097714D01*
X171703714Y-83097714D01*
X171608476Y-83145333D01*
X171560857Y-83240571D01*
X171560857Y-83764380D01*
X170703714Y-83716761D02*
X170798952Y-83764380D01*
X170989428Y-83764380D01*
X171084666Y-83716761D01*
X171132285Y-83621523D01*
X171132285Y-83240571D01*
X171084666Y-83145333D01*
X170989428Y-83097714D01*
X170798952Y-83097714D01*
X170703714Y-83145333D01*
X170656095Y-83240571D01*
X170656095Y-83335809D01*
X171132285Y-83431047D01*
X169513238Y-83716761D02*
X169418000Y-83764380D01*
X169227523Y-83764380D01*
X169132285Y-83716761D01*
X169084666Y-83621523D01*
X169084666Y-83573904D01*
X169132285Y-83478666D01*
X169227523Y-83431047D01*
X169370380Y-83431047D01*
X169465619Y-83383428D01*
X169513238Y-83288190D01*
X169513238Y-83240571D01*
X169465619Y-83145333D01*
X169370380Y-83097714D01*
X169227523Y-83097714D01*
X169132285Y-83145333D01*
X168656095Y-83764380D02*
X168656095Y-82764380D01*
X168227523Y-83764380D02*
X168227523Y-83240571D01*
X168275142Y-83145333D01*
X168370380Y-83097714D01*
X168513238Y-83097714D01*
X168608476Y-83145333D01*
X168656095Y-83192952D01*
X167322761Y-83764380D02*
X167322761Y-83240571D01*
X167370380Y-83145333D01*
X167465619Y-83097714D01*
X167656095Y-83097714D01*
X167751333Y-83145333D01*
X167322761Y-83716761D02*
X167418000Y-83764380D01*
X167656095Y-83764380D01*
X167751333Y-83716761D01*
X167798952Y-83621523D01*
X167798952Y-83526285D01*
X167751333Y-83431047D01*
X167656095Y-83383428D01*
X167418000Y-83383428D01*
X167322761Y-83335809D01*
X166846571Y-83097714D02*
X166846571Y-84097714D01*
X166846571Y-83145333D02*
X166751333Y-83097714D01*
X166560857Y-83097714D01*
X166465619Y-83145333D01*
X166418000Y-83192952D01*
X166370380Y-83288190D01*
X166370380Y-83573904D01*
X166418000Y-83669142D01*
X166465619Y-83716761D01*
X166560857Y-83764380D01*
X166751333Y-83764380D01*
X166846571Y-83716761D01*
X165560857Y-83716761D02*
X165656095Y-83764380D01*
X165846571Y-83764380D01*
X165941809Y-83716761D01*
X165989428Y-83621523D01*
X165989428Y-83240571D01*
X165941809Y-83145333D01*
X165846571Y-83097714D01*
X165656095Y-83097714D01*
X165560857Y-83145333D01*
X165513238Y-83240571D01*
X165513238Y-83335809D01*
X165989428Y-83431047D01*
X180347428Y-106576761D02*
X180252190Y-106624380D01*
X180061714Y-106624380D01*
X179966476Y-106576761D01*
X179918857Y-106481523D01*
X179918857Y-106433904D01*
X179966476Y-106338666D01*
X180061714Y-106291047D01*
X180204571Y-106291047D01*
X180299809Y-106243428D01*
X180347428Y-106148190D01*
X180347428Y-106100571D01*
X180299809Y-106005333D01*
X180204571Y-105957714D01*
X180061714Y-105957714D01*
X179966476Y-106005333D01*
X179490285Y-106624380D02*
X179490285Y-105957714D01*
X179490285Y-105624380D02*
X179537904Y-105672000D01*
X179490285Y-105719619D01*
X179442666Y-105672000D01*
X179490285Y-105624380D01*
X179490285Y-105719619D01*
X179014095Y-105957714D02*
X179014095Y-106624380D01*
X179014095Y-106052952D02*
X178966476Y-106005333D01*
X178871238Y-105957714D01*
X178728380Y-105957714D01*
X178633142Y-106005333D01*
X178585523Y-106100571D01*
X178585523Y-106624380D01*
X177728380Y-106576761D02*
X177823619Y-106624380D01*
X178014095Y-106624380D01*
X178109333Y-106576761D01*
X178156952Y-106481523D01*
X178156952Y-106100571D01*
X178109333Y-106005333D01*
X178014095Y-105957714D01*
X177823619Y-105957714D01*
X177728380Y-106005333D01*
X177680761Y-106100571D01*
X177680761Y-106195809D01*
X178156952Y-106291047D01*
X176537904Y-106576761D02*
X176442666Y-106624380D01*
X176252190Y-106624380D01*
X176156952Y-106576761D01*
X176109333Y-106481523D01*
X176109333Y-106433904D01*
X176156952Y-106338666D01*
X176252190Y-106291047D01*
X176395047Y-106291047D01*
X176490285Y-106243428D01*
X176537904Y-106148190D01*
X176537904Y-106100571D01*
X176490285Y-106005333D01*
X176395047Y-105957714D01*
X176252190Y-105957714D01*
X176156952Y-106005333D01*
X175776000Y-105957714D02*
X175537904Y-106624380D01*
X175299809Y-105957714D02*
X175537904Y-106624380D01*
X175633142Y-106862476D01*
X175680761Y-106910095D01*
X175776000Y-106957714D01*
X174918857Y-106624380D02*
X174918857Y-105957714D01*
X174918857Y-106052952D02*
X174871238Y-106005333D01*
X174776000Y-105957714D01*
X174633142Y-105957714D01*
X174537904Y-106005333D01*
X174490285Y-106100571D01*
X174490285Y-106624380D01*
X174490285Y-106100571D02*
X174442666Y-106005333D01*
X174347428Y-105957714D01*
X174204571Y-105957714D01*
X174109333Y-106005333D01*
X174061714Y-106100571D01*
X174061714Y-106624380D01*
X173585523Y-106624380D02*
X173585523Y-105957714D01*
X173585523Y-106052952D02*
X173537904Y-106005333D01*
X173442666Y-105957714D01*
X173299809Y-105957714D01*
X173204571Y-106005333D01*
X173156952Y-106100571D01*
X173156952Y-106624380D01*
X173156952Y-106100571D02*
X173109333Y-106005333D01*
X173014095Y-105957714D01*
X172871238Y-105957714D01*
X172776000Y-106005333D01*
X172728380Y-106100571D01*
X172728380Y-106624380D01*
X172252190Y-106529142D02*
X172204571Y-106576761D01*
X172252190Y-106624380D01*
X172299809Y-106576761D01*
X172252190Y-106529142D01*
X172252190Y-106624380D01*
X143827047Y-89447714D02*
X143827047Y-90114380D01*
X143827047Y-89542952D02*
X143779428Y-89495333D01*
X143684190Y-89447714D01*
X143541333Y-89447714D01*
X143446095Y-89495333D01*
X143398476Y-89590571D01*
X143398476Y-90114380D01*
X142779428Y-90114380D02*
X142874666Y-90066761D01*
X142922285Y-90019142D01*
X142969904Y-89923904D01*
X142969904Y-89638190D01*
X142922285Y-89542952D01*
X142874666Y-89495333D01*
X142779428Y-89447714D01*
X142636571Y-89447714D01*
X142541333Y-89495333D01*
X142493714Y-89542952D01*
X142446095Y-89638190D01*
X142446095Y-89923904D01*
X142493714Y-90019142D01*
X142541333Y-90066761D01*
X142636571Y-90114380D01*
X142779428Y-90114380D01*
X142017523Y-90114380D02*
X142017523Y-89447714D01*
X142017523Y-89114380D02*
X142065142Y-89162000D01*
X142017523Y-89209619D01*
X141969904Y-89162000D01*
X142017523Y-89114380D01*
X142017523Y-89209619D01*
X141588952Y-90066761D02*
X141493714Y-90114380D01*
X141303238Y-90114380D01*
X141208000Y-90066761D01*
X141160380Y-89971523D01*
X141160380Y-89923904D01*
X141208000Y-89828666D01*
X141303238Y-89781047D01*
X141446095Y-89781047D01*
X141541333Y-89733428D01*
X141588952Y-89638190D01*
X141588952Y-89590571D01*
X141541333Y-89495333D01*
X141446095Y-89447714D01*
X141303238Y-89447714D01*
X141208000Y-89495333D01*
X140350857Y-90066761D02*
X140446095Y-90114380D01*
X140636571Y-90114380D01*
X140731809Y-90066761D01*
X140779428Y-89971523D01*
X140779428Y-89590571D01*
X140731809Y-89495333D01*
X140636571Y-89447714D01*
X140446095Y-89447714D01*
X140350857Y-89495333D01*
X140303238Y-89590571D01*
X140303238Y-89685809D01*
X140779428Y-89781047D01*
X139255619Y-89447714D02*
X138874666Y-89447714D01*
X139112761Y-89114380D02*
X139112761Y-89971523D01*
X139065142Y-90066761D01*
X138969904Y-90114380D01*
X138874666Y-90114380D01*
X138541333Y-90114380D02*
X138541333Y-89447714D01*
X138541333Y-89638190D02*
X138493714Y-89542952D01*
X138446095Y-89495333D01*
X138350857Y-89447714D01*
X138255619Y-89447714D01*
X137922285Y-90114380D02*
X137922285Y-89447714D01*
X137922285Y-89114380D02*
X137969904Y-89162000D01*
X137922285Y-89209619D01*
X137874666Y-89162000D01*
X137922285Y-89114380D01*
X137922285Y-89209619D01*
X137446095Y-90114380D02*
X137446095Y-89447714D01*
X137446095Y-89542952D02*
X137398476Y-89495333D01*
X137303238Y-89447714D01*
X137160380Y-89447714D01*
X137065142Y-89495333D01*
X137017523Y-89590571D01*
X137017523Y-90114380D01*
X137017523Y-89590571D02*
X136969904Y-89495333D01*
X136874666Y-89447714D01*
X136731809Y-89447714D01*
X136636571Y-89495333D01*
X136588952Y-89590571D01*
X136588952Y-90114380D01*
D11*
X197988000Y-82580241D02*
X197358000Y-82580241D01*
X197673000Y-82895241D02*
X197673000Y-82265241D01*
X196236000Y-76154000D02*
X195432000Y-76154000D01*
X196467000Y-76194000D02*
X195201000Y-76194000D01*
X196636000Y-76234000D02*
X195032000Y-76234000D01*
X196774000Y-76274000D02*
X194894000Y-76274000D01*
X196893000Y-76314000D02*
X194775000Y-76314000D01*
X196999000Y-76354000D02*
X194669000Y-76354000D01*
X197096000Y-76394000D02*
X194572000Y-76394000D01*
X197184000Y-76434000D02*
X194484000Y-76434000D01*
X197266000Y-76474000D02*
X194402000Y-76474000D01*
X197343000Y-76514000D02*
X194325000Y-76514000D01*
X197415000Y-76554000D02*
X194253000Y-76554000D01*
X197484000Y-76594000D02*
X194184000Y-76594000D01*
X197548000Y-76634000D02*
X194120000Y-76634000D01*
X197610000Y-76674000D02*
X194058000Y-76674000D01*
X197668000Y-76714000D02*
X194000000Y-76714000D01*
X197724000Y-76754000D02*
X193944000Y-76754000D01*
X197778000Y-76794000D02*
X193890000Y-76794000D01*
X197829000Y-76834000D02*
X193839000Y-76834000D01*
X197878000Y-76874000D02*
X193790000Y-76874000D01*
X197926000Y-76914000D02*
X193742000Y-76914000D01*
X197971000Y-76954000D02*
X193697000Y-76954000D01*
X198016000Y-76994000D02*
X193652000Y-76994000D01*
X198058000Y-77034000D02*
X193610000Y-77034000D01*
X198099000Y-77074000D02*
X193569000Y-77074000D01*
X194794000Y-77114000D02*
X193529000Y-77114000D01*
X198139000Y-77114000D02*
X196874000Y-77114000D01*
X194794000Y-77154000D02*
X193491000Y-77154000D01*
X198177000Y-77154000D02*
X196874000Y-77154000D01*
X194794000Y-77194000D02*
X193454000Y-77194000D01*
X198214000Y-77194000D02*
X196874000Y-77194000D01*
X194794000Y-77234000D02*
X193418000Y-77234000D01*
X198250000Y-77234000D02*
X196874000Y-77234000D01*
X194794000Y-77274000D02*
X193384000Y-77274000D01*
X198284000Y-77274000D02*
X196874000Y-77274000D01*
X194794000Y-77314000D02*
X193350000Y-77314000D01*
X198318000Y-77314000D02*
X196874000Y-77314000D01*
X194794000Y-77354000D02*
X193318000Y-77354000D01*
X198350000Y-77354000D02*
X196874000Y-77354000D01*
X194794000Y-77394000D02*
X193286000Y-77394000D01*
X198382000Y-77394000D02*
X196874000Y-77394000D01*
X194794000Y-77434000D02*
X193256000Y-77434000D01*
X198412000Y-77434000D02*
X196874000Y-77434000D01*
X194794000Y-77474000D02*
X193227000Y-77474000D01*
X198441000Y-77474000D02*
X196874000Y-77474000D01*
X194794000Y-77514000D02*
X193198000Y-77514000D01*
X198470000Y-77514000D02*
X196874000Y-77514000D01*
X194794000Y-77554000D02*
X193170000Y-77554000D01*
X198498000Y-77554000D02*
X196874000Y-77554000D01*
X194794000Y-77594000D02*
X193144000Y-77594000D01*
X198524000Y-77594000D02*
X196874000Y-77594000D01*
X194794000Y-77634000D02*
X193118000Y-77634000D01*
X198550000Y-77634000D02*
X196874000Y-77634000D01*
X194794000Y-77674000D02*
X193092000Y-77674000D01*
X198576000Y-77674000D02*
X196874000Y-77674000D01*
X194794000Y-77714000D02*
X193068000Y-77714000D01*
X198600000Y-77714000D02*
X196874000Y-77714000D01*
X194794000Y-77754000D02*
X193044000Y-77754000D01*
X198624000Y-77754000D02*
X196874000Y-77754000D01*
X194794000Y-77794000D02*
X193022000Y-77794000D01*
X198646000Y-77794000D02*
X196874000Y-77794000D01*
X194794000Y-77834000D02*
X193000000Y-77834000D01*
X198668000Y-77834000D02*
X196874000Y-77834000D01*
X194794000Y-77874000D02*
X192978000Y-77874000D01*
X198690000Y-77874000D02*
X196874000Y-77874000D01*
X194794000Y-77914000D02*
X192958000Y-77914000D01*
X198710000Y-77914000D02*
X196874000Y-77914000D01*
X194794000Y-77954000D02*
X192938000Y-77954000D01*
X198730000Y-77954000D02*
X196874000Y-77954000D01*
X194794000Y-77994000D02*
X192918000Y-77994000D01*
X198750000Y-77994000D02*
X196874000Y-77994000D01*
X194794000Y-78034000D02*
X192900000Y-78034000D01*
X198768000Y-78034000D02*
X196874000Y-78034000D01*
X194794000Y-78074000D02*
X192882000Y-78074000D01*
X198786000Y-78074000D02*
X196874000Y-78074000D01*
X194794000Y-78114000D02*
X192864000Y-78114000D01*
X198804000Y-78114000D02*
X196874000Y-78114000D01*
X194794000Y-78154000D02*
X192848000Y-78154000D01*
X198820000Y-78154000D02*
X196874000Y-78154000D01*
X194794000Y-78194000D02*
X192832000Y-78194000D01*
X198836000Y-78194000D02*
X196874000Y-78194000D01*
X194794000Y-78234000D02*
X192816000Y-78234000D01*
X198852000Y-78234000D02*
X196874000Y-78234000D01*
X194794000Y-78274000D02*
X192801000Y-78274000D01*
X198867000Y-78274000D02*
X196874000Y-78274000D01*
X194794000Y-78314000D02*
X192787000Y-78314000D01*
X198881000Y-78314000D02*
X196874000Y-78314000D01*
X194794000Y-78354000D02*
X192773000Y-78354000D01*
X198895000Y-78354000D02*
X196874000Y-78354000D01*
X194794000Y-78394000D02*
X192760000Y-78394000D01*
X198908000Y-78394000D02*
X196874000Y-78394000D01*
X194794000Y-78434000D02*
X192748000Y-78434000D01*
X198920000Y-78434000D02*
X196874000Y-78434000D01*
X194794000Y-78474000D02*
X192736000Y-78474000D01*
X198932000Y-78474000D02*
X196874000Y-78474000D01*
X194794000Y-78514000D02*
X192724000Y-78514000D01*
X198944000Y-78514000D02*
X196874000Y-78514000D01*
X194794000Y-78554000D02*
X192713000Y-78554000D01*
X198955000Y-78554000D02*
X196874000Y-78554000D01*
X194794000Y-78594000D02*
X192703000Y-78594000D01*
X198965000Y-78594000D02*
X196874000Y-78594000D01*
X194794000Y-78634000D02*
X192693000Y-78634000D01*
X198975000Y-78634000D02*
X196874000Y-78634000D01*
X194794000Y-78674000D02*
X192684000Y-78674000D01*
X198984000Y-78674000D02*
X196874000Y-78674000D01*
X194794000Y-78715000D02*
X192675000Y-78715000D01*
X198993000Y-78715000D02*
X196874000Y-78715000D01*
X194794000Y-78755000D02*
X192667000Y-78755000D01*
X199001000Y-78755000D02*
X196874000Y-78755000D01*
X194794000Y-78795000D02*
X192659000Y-78795000D01*
X199009000Y-78795000D02*
X196874000Y-78795000D01*
X194794000Y-78835000D02*
X192652000Y-78835000D01*
X199016000Y-78835000D02*
X196874000Y-78835000D01*
X194794000Y-78875000D02*
X192645000Y-78875000D01*
X199023000Y-78875000D02*
X196874000Y-78875000D01*
X194794000Y-78915000D02*
X192639000Y-78915000D01*
X199029000Y-78915000D02*
X196874000Y-78915000D01*
X194794000Y-78955000D02*
X192633000Y-78955000D01*
X199035000Y-78955000D02*
X196874000Y-78955000D01*
X194794000Y-78995000D02*
X192628000Y-78995000D01*
X199040000Y-78995000D02*
X196874000Y-78995000D01*
X194794000Y-79035000D02*
X192623000Y-79035000D01*
X199045000Y-79035000D02*
X196874000Y-79035000D01*
X194794000Y-79075000D02*
X192619000Y-79075000D01*
X199049000Y-79075000D02*
X196874000Y-79075000D01*
X194794000Y-79115000D02*
X192616000Y-79115000D01*
X199052000Y-79115000D02*
X196874000Y-79115000D01*
X194794000Y-79155000D02*
X192612000Y-79155000D01*
X199056000Y-79155000D02*
X196874000Y-79155000D01*
X199058000Y-79195000D02*
X192610000Y-79195000D01*
X199061000Y-79235000D02*
X192607000Y-79235000D01*
X199062000Y-79275000D02*
X192606000Y-79275000D01*
X199064000Y-79315000D02*
X192604000Y-79315000D01*
X199064000Y-79355000D02*
X192604000Y-79355000D01*
X199064000Y-79395000D02*
X192604000Y-79395000D01*
X199104000Y-79395000D02*
G75*
G03*
X199104000Y-79395000I-3270000J0D01*
G01*
X187457000Y-80360759D02*
X188087000Y-80360759D01*
X187772000Y-80045759D02*
X187772000Y-80675759D01*
X189209000Y-86787000D02*
X190013000Y-86787000D01*
X188978000Y-86747000D02*
X190244000Y-86747000D01*
X188809000Y-86707000D02*
X190413000Y-86707000D01*
X188671000Y-86667000D02*
X190551000Y-86667000D01*
X188552000Y-86627000D02*
X190670000Y-86627000D01*
X188446000Y-86587000D02*
X190776000Y-86587000D01*
X188349000Y-86547000D02*
X190873000Y-86547000D01*
X188261000Y-86507000D02*
X190961000Y-86507000D01*
X188179000Y-86467000D02*
X191043000Y-86467000D01*
X188102000Y-86427000D02*
X191120000Y-86427000D01*
X188030000Y-86387000D02*
X191192000Y-86387000D01*
X187961000Y-86347000D02*
X191261000Y-86347000D01*
X187897000Y-86307000D02*
X191325000Y-86307000D01*
X187835000Y-86267000D02*
X191387000Y-86267000D01*
X187777000Y-86227000D02*
X191445000Y-86227000D01*
X187721000Y-86187000D02*
X191501000Y-86187000D01*
X187667000Y-86147000D02*
X191555000Y-86147000D01*
X187616000Y-86107000D02*
X191606000Y-86107000D01*
X187567000Y-86067000D02*
X191655000Y-86067000D01*
X187519000Y-86027000D02*
X191703000Y-86027000D01*
X187474000Y-85987000D02*
X191748000Y-85987000D01*
X187429000Y-85947000D02*
X191793000Y-85947000D01*
X187387000Y-85907000D02*
X191835000Y-85907000D01*
X187346000Y-85867000D02*
X191876000Y-85867000D01*
X190651000Y-85827000D02*
X191916000Y-85827000D01*
X187306000Y-85827000D02*
X188571000Y-85827000D01*
X190651000Y-85787000D02*
X191954000Y-85787000D01*
X187268000Y-85787000D02*
X188571000Y-85787000D01*
X190651000Y-85747000D02*
X191991000Y-85747000D01*
X187231000Y-85747000D02*
X188571000Y-85747000D01*
X190651000Y-85707000D02*
X192027000Y-85707000D01*
X187195000Y-85707000D02*
X188571000Y-85707000D01*
X190651000Y-85667000D02*
X192061000Y-85667000D01*
X187161000Y-85667000D02*
X188571000Y-85667000D01*
X190651000Y-85627000D02*
X192095000Y-85627000D01*
X187127000Y-85627000D02*
X188571000Y-85627000D01*
X190651000Y-85587000D02*
X192127000Y-85587000D01*
X187095000Y-85587000D02*
X188571000Y-85587000D01*
X190651000Y-85547000D02*
X192159000Y-85547000D01*
X187063000Y-85547000D02*
X188571000Y-85547000D01*
X190651000Y-85507000D02*
X192189000Y-85507000D01*
X187033000Y-85507000D02*
X188571000Y-85507000D01*
X190651000Y-85467000D02*
X192218000Y-85467000D01*
X187004000Y-85467000D02*
X188571000Y-85467000D01*
X190651000Y-85427000D02*
X192247000Y-85427000D01*
X186975000Y-85427000D02*
X188571000Y-85427000D01*
X190651000Y-85387000D02*
X192275000Y-85387000D01*
X186947000Y-85387000D02*
X188571000Y-85387000D01*
X190651000Y-85347000D02*
X192301000Y-85347000D01*
X186921000Y-85347000D02*
X188571000Y-85347000D01*
X190651000Y-85307000D02*
X192327000Y-85307000D01*
X186895000Y-85307000D02*
X188571000Y-85307000D01*
X190651000Y-85267000D02*
X192353000Y-85267000D01*
X186869000Y-85267000D02*
X188571000Y-85267000D01*
X190651000Y-85227000D02*
X192377000Y-85227000D01*
X186845000Y-85227000D02*
X188571000Y-85227000D01*
X190651000Y-85187000D02*
X192401000Y-85187000D01*
X186821000Y-85187000D02*
X188571000Y-85187000D01*
X190651000Y-85147000D02*
X192423000Y-85147000D01*
X186799000Y-85147000D02*
X188571000Y-85147000D01*
X190651000Y-85107000D02*
X192445000Y-85107000D01*
X186777000Y-85107000D02*
X188571000Y-85107000D01*
X190651000Y-85067000D02*
X192467000Y-85067000D01*
X186755000Y-85067000D02*
X188571000Y-85067000D01*
X190651000Y-85027000D02*
X192487000Y-85027000D01*
X186735000Y-85027000D02*
X188571000Y-85027000D01*
X190651000Y-84987000D02*
X192507000Y-84987000D01*
X186715000Y-84987000D02*
X188571000Y-84987000D01*
X190651000Y-84947000D02*
X192527000Y-84947000D01*
X186695000Y-84947000D02*
X188571000Y-84947000D01*
X190651000Y-84907000D02*
X192545000Y-84907000D01*
X186677000Y-84907000D02*
X188571000Y-84907000D01*
X190651000Y-84867000D02*
X192563000Y-84867000D01*
X186659000Y-84867000D02*
X188571000Y-84867000D01*
X190651000Y-84827000D02*
X192581000Y-84827000D01*
X186641000Y-84827000D02*
X188571000Y-84827000D01*
X190651000Y-84787000D02*
X192597000Y-84787000D01*
X186625000Y-84787000D02*
X188571000Y-84787000D01*
X190651000Y-84747000D02*
X192613000Y-84747000D01*
X186609000Y-84747000D02*
X188571000Y-84747000D01*
X190651000Y-84707000D02*
X192629000Y-84707000D01*
X186593000Y-84707000D02*
X188571000Y-84707000D01*
X190651000Y-84667000D02*
X192644000Y-84667000D01*
X186578000Y-84667000D02*
X188571000Y-84667000D01*
X190651000Y-84627000D02*
X192658000Y-84627000D01*
X186564000Y-84627000D02*
X188571000Y-84627000D01*
X190651000Y-84587000D02*
X192672000Y-84587000D01*
X186550000Y-84587000D02*
X188571000Y-84587000D01*
X190651000Y-84547000D02*
X192685000Y-84547000D01*
X186537000Y-84547000D02*
X188571000Y-84547000D01*
X190651000Y-84507000D02*
X192697000Y-84507000D01*
X186525000Y-84507000D02*
X188571000Y-84507000D01*
X190651000Y-84467000D02*
X192709000Y-84467000D01*
X186513000Y-84467000D02*
X188571000Y-84467000D01*
X190651000Y-84427000D02*
X192721000Y-84427000D01*
X186501000Y-84427000D02*
X188571000Y-84427000D01*
X190651000Y-84387000D02*
X192732000Y-84387000D01*
X186490000Y-84387000D02*
X188571000Y-84387000D01*
X190651000Y-84347000D02*
X192742000Y-84347000D01*
X186480000Y-84347000D02*
X188571000Y-84347000D01*
X190651000Y-84307000D02*
X192752000Y-84307000D01*
X186470000Y-84307000D02*
X188571000Y-84307000D01*
X190651000Y-84267000D02*
X192761000Y-84267000D01*
X186461000Y-84267000D02*
X188571000Y-84267000D01*
X190651000Y-84226000D02*
X192770000Y-84226000D01*
X186452000Y-84226000D02*
X188571000Y-84226000D01*
X190651000Y-84186000D02*
X192778000Y-84186000D01*
X186444000Y-84186000D02*
X188571000Y-84186000D01*
X190651000Y-84146000D02*
X192786000Y-84146000D01*
X186436000Y-84146000D02*
X188571000Y-84146000D01*
X190651000Y-84106000D02*
X192793000Y-84106000D01*
X186429000Y-84106000D02*
X188571000Y-84106000D01*
X190651000Y-84066000D02*
X192800000Y-84066000D01*
X186422000Y-84066000D02*
X188571000Y-84066000D01*
X190651000Y-84026000D02*
X192806000Y-84026000D01*
X186416000Y-84026000D02*
X188571000Y-84026000D01*
X190651000Y-83986000D02*
X192812000Y-83986000D01*
X186410000Y-83986000D02*
X188571000Y-83986000D01*
X190651000Y-83946000D02*
X192817000Y-83946000D01*
X186405000Y-83946000D02*
X188571000Y-83946000D01*
X190651000Y-83906000D02*
X192822000Y-83906000D01*
X186400000Y-83906000D02*
X188571000Y-83906000D01*
X190651000Y-83866000D02*
X192826000Y-83866000D01*
X186396000Y-83866000D02*
X188571000Y-83866000D01*
X190651000Y-83826000D02*
X192829000Y-83826000D01*
X186393000Y-83826000D02*
X188571000Y-83826000D01*
X190651000Y-83786000D02*
X192833000Y-83786000D01*
X186389000Y-83786000D02*
X188571000Y-83786000D01*
X186387000Y-83746000D02*
X192835000Y-83746000D01*
X186384000Y-83706000D02*
X192838000Y-83706000D01*
X186383000Y-83666000D02*
X192839000Y-83666000D01*
X186381000Y-83626000D02*
X192841000Y-83626000D01*
X186381000Y-83586000D02*
X192841000Y-83586000D01*
X186381000Y-83546000D02*
X192841000Y-83546000D01*
X192881000Y-83546000D02*
G75*
G03*
X192881000Y-83546000I-3270000J0D01*
G01*
X133761241Y-87889000D02*
X133761241Y-88519000D01*
X134076241Y-88204000D02*
X133446241Y-88204000D01*
X127335000Y-89641000D02*
X127335000Y-90445000D01*
X127375000Y-89410000D02*
X127375000Y-90676000D01*
X127415000Y-89241000D02*
X127415000Y-90845000D01*
X127455000Y-89103000D02*
X127455000Y-90983000D01*
X127495000Y-88984000D02*
X127495000Y-91102000D01*
X127535000Y-88878000D02*
X127535000Y-91208000D01*
X127575000Y-88781000D02*
X127575000Y-91305000D01*
X127615000Y-88693000D02*
X127615000Y-91393000D01*
X127655000Y-88611000D02*
X127655000Y-91475000D01*
X127695000Y-88534000D02*
X127695000Y-91552000D01*
X127735000Y-88462000D02*
X127735000Y-91624000D01*
X127775000Y-88393000D02*
X127775000Y-91693000D01*
X127815000Y-88329000D02*
X127815000Y-91757000D01*
X127855000Y-88267000D02*
X127855000Y-91819000D01*
X127895000Y-88209000D02*
X127895000Y-91877000D01*
X127935000Y-88153000D02*
X127935000Y-91933000D01*
X127975000Y-88099000D02*
X127975000Y-91987000D01*
X128015000Y-88048000D02*
X128015000Y-92038000D01*
X128055000Y-87999000D02*
X128055000Y-92087000D01*
X128095000Y-87951000D02*
X128095000Y-92135000D01*
X128135000Y-87906000D02*
X128135000Y-92180000D01*
X128175000Y-87861000D02*
X128175000Y-92225000D01*
X128215000Y-87819000D02*
X128215000Y-92267000D01*
X128255000Y-87778000D02*
X128255000Y-92308000D01*
X128295000Y-91083000D02*
X128295000Y-92348000D01*
X128295000Y-87738000D02*
X128295000Y-89003000D01*
X128335000Y-91083000D02*
X128335000Y-92386000D01*
X128335000Y-87700000D02*
X128335000Y-89003000D01*
X128375000Y-91083000D02*
X128375000Y-92423000D01*
X128375000Y-87663000D02*
X128375000Y-89003000D01*
X128415000Y-91083000D02*
X128415000Y-92459000D01*
X128415000Y-87627000D02*
X128415000Y-89003000D01*
X128455000Y-91083000D02*
X128455000Y-92493000D01*
X128455000Y-87593000D02*
X128455000Y-89003000D01*
X128495000Y-91083000D02*
X128495000Y-92527000D01*
X128495000Y-87559000D02*
X128495000Y-89003000D01*
X128535000Y-91083000D02*
X128535000Y-92559000D01*
X128535000Y-87527000D02*
X128535000Y-89003000D01*
X128575000Y-91083000D02*
X128575000Y-92591000D01*
X128575000Y-87495000D02*
X128575000Y-89003000D01*
X128615000Y-91083000D02*
X128615000Y-92621000D01*
X128615000Y-87465000D02*
X128615000Y-89003000D01*
X128655000Y-91083000D02*
X128655000Y-92650000D01*
X128655000Y-87436000D02*
X128655000Y-89003000D01*
X128695000Y-91083000D02*
X128695000Y-92679000D01*
X128695000Y-87407000D02*
X128695000Y-89003000D01*
X128735000Y-91083000D02*
X128735000Y-92707000D01*
X128735000Y-87379000D02*
X128735000Y-89003000D01*
X128775000Y-91083000D02*
X128775000Y-92733000D01*
X128775000Y-87353000D02*
X128775000Y-89003000D01*
X128815000Y-91083000D02*
X128815000Y-92759000D01*
X128815000Y-87327000D02*
X128815000Y-89003000D01*
X128855000Y-91083000D02*
X128855000Y-92785000D01*
X128855000Y-87301000D02*
X128855000Y-89003000D01*
X128895000Y-91083000D02*
X128895000Y-92809000D01*
X128895000Y-87277000D02*
X128895000Y-89003000D01*
X128935000Y-91083000D02*
X128935000Y-92833000D01*
X128935000Y-87253000D02*
X128935000Y-89003000D01*
X128975000Y-91083000D02*
X128975000Y-92855000D01*
X128975000Y-87231000D02*
X128975000Y-89003000D01*
X129015000Y-91083000D02*
X129015000Y-92877000D01*
X129015000Y-87209000D02*
X129015000Y-89003000D01*
X129055000Y-91083000D02*
X129055000Y-92899000D01*
X129055000Y-87187000D02*
X129055000Y-89003000D01*
X129095000Y-91083000D02*
X129095000Y-92919000D01*
X129095000Y-87167000D02*
X129095000Y-89003000D01*
X129135000Y-91083000D02*
X129135000Y-92939000D01*
X129135000Y-87147000D02*
X129135000Y-89003000D01*
X129175000Y-91083000D02*
X129175000Y-92959000D01*
X129175000Y-87127000D02*
X129175000Y-89003000D01*
X129215000Y-91083000D02*
X129215000Y-92977000D01*
X129215000Y-87109000D02*
X129215000Y-89003000D01*
X129255000Y-91083000D02*
X129255000Y-92995000D01*
X129255000Y-87091000D02*
X129255000Y-89003000D01*
X129295000Y-91083000D02*
X129295000Y-93013000D01*
X129295000Y-87073000D02*
X129295000Y-89003000D01*
X129335000Y-91083000D02*
X129335000Y-93029000D01*
X129335000Y-87057000D02*
X129335000Y-89003000D01*
X129375000Y-91083000D02*
X129375000Y-93045000D01*
X129375000Y-87041000D02*
X129375000Y-89003000D01*
X129415000Y-91083000D02*
X129415000Y-93061000D01*
X129415000Y-87025000D02*
X129415000Y-89003000D01*
X129455000Y-91083000D02*
X129455000Y-93076000D01*
X129455000Y-87010000D02*
X129455000Y-89003000D01*
X129495000Y-91083000D02*
X129495000Y-93090000D01*
X129495000Y-86996000D02*
X129495000Y-89003000D01*
X129535000Y-91083000D02*
X129535000Y-93104000D01*
X129535000Y-86982000D02*
X129535000Y-89003000D01*
X129575000Y-91083000D02*
X129575000Y-93117000D01*
X129575000Y-86969000D02*
X129575000Y-89003000D01*
X129615000Y-91083000D02*
X129615000Y-93129000D01*
X129615000Y-86957000D02*
X129615000Y-89003000D01*
X129655000Y-91083000D02*
X129655000Y-93141000D01*
X129655000Y-86945000D02*
X129655000Y-89003000D01*
X129695000Y-91083000D02*
X129695000Y-93153000D01*
X129695000Y-86933000D02*
X129695000Y-89003000D01*
X129735000Y-91083000D02*
X129735000Y-93164000D01*
X129735000Y-86922000D02*
X129735000Y-89003000D01*
X129775000Y-91083000D02*
X129775000Y-93174000D01*
X129775000Y-86912000D02*
X129775000Y-89003000D01*
X129815000Y-91083000D02*
X129815000Y-93184000D01*
X129815000Y-86902000D02*
X129815000Y-89003000D01*
X129855000Y-91083000D02*
X129855000Y-93193000D01*
X129855000Y-86893000D02*
X129855000Y-89003000D01*
X129896000Y-91083000D02*
X129896000Y-93202000D01*
X129896000Y-86884000D02*
X129896000Y-89003000D01*
X129936000Y-91083000D02*
X129936000Y-93210000D01*
X129936000Y-86876000D02*
X129936000Y-89003000D01*
X129976000Y-91083000D02*
X129976000Y-93218000D01*
X129976000Y-86868000D02*
X129976000Y-89003000D01*
X130016000Y-91083000D02*
X130016000Y-93225000D01*
X130016000Y-86861000D02*
X130016000Y-89003000D01*
X130056000Y-91083000D02*
X130056000Y-93232000D01*
X130056000Y-86854000D02*
X130056000Y-89003000D01*
X130096000Y-91083000D02*
X130096000Y-93238000D01*
X130096000Y-86848000D02*
X130096000Y-89003000D01*
X130136000Y-91083000D02*
X130136000Y-93244000D01*
X130136000Y-86842000D02*
X130136000Y-89003000D01*
X130176000Y-91083000D02*
X130176000Y-93249000D01*
X130176000Y-86837000D02*
X130176000Y-89003000D01*
X130216000Y-91083000D02*
X130216000Y-93254000D01*
X130216000Y-86832000D02*
X130216000Y-89003000D01*
X130256000Y-91083000D02*
X130256000Y-93258000D01*
X130256000Y-86828000D02*
X130256000Y-89003000D01*
X130296000Y-91083000D02*
X130296000Y-93261000D01*
X130296000Y-86825000D02*
X130296000Y-89003000D01*
X130336000Y-91083000D02*
X130336000Y-93265000D01*
X130336000Y-86821000D02*
X130336000Y-89003000D01*
X130376000Y-86819000D02*
X130376000Y-93267000D01*
X130416000Y-86816000D02*
X130416000Y-93270000D01*
X130456000Y-86815000D02*
X130456000Y-93271000D01*
X130496000Y-86813000D02*
X130496000Y-93273000D01*
X130536000Y-86813000D02*
X130536000Y-93273000D01*
X130576000Y-86813000D02*
X130576000Y-93273000D01*
X133846000Y-90043000D02*
G75*
G03*
X133846000Y-90043000I-3270000J0D01*
G01*
X117230759Y-80259000D02*
X117230759Y-79629000D01*
X116915759Y-79944000D02*
X117545759Y-79944000D01*
X123657000Y-78507000D02*
X123657000Y-77703000D01*
X123617000Y-78738000D02*
X123617000Y-77472000D01*
X123577000Y-78907000D02*
X123577000Y-77303000D01*
X123537000Y-79045000D02*
X123537000Y-77165000D01*
X123497000Y-79164000D02*
X123497000Y-77046000D01*
X123457000Y-79270000D02*
X123457000Y-76940000D01*
X123417000Y-79367000D02*
X123417000Y-76843000D01*
X123377000Y-79455000D02*
X123377000Y-76755000D01*
X123337000Y-79537000D02*
X123337000Y-76673000D01*
X123297000Y-79614000D02*
X123297000Y-76596000D01*
X123257000Y-79686000D02*
X123257000Y-76524000D01*
X123217000Y-79755000D02*
X123217000Y-76455000D01*
X123177000Y-79819000D02*
X123177000Y-76391000D01*
X123137000Y-79881000D02*
X123137000Y-76329000D01*
X123097000Y-79939000D02*
X123097000Y-76271000D01*
X123057000Y-79995000D02*
X123057000Y-76215000D01*
X123017000Y-80049000D02*
X123017000Y-76161000D01*
X122977000Y-80100000D02*
X122977000Y-76110000D01*
X122937000Y-80149000D02*
X122937000Y-76061000D01*
X122897000Y-80197000D02*
X122897000Y-76013000D01*
X122857000Y-80242000D02*
X122857000Y-75968000D01*
X122817000Y-80287000D02*
X122817000Y-75923000D01*
X122777000Y-80329000D02*
X122777000Y-75881000D01*
X122737000Y-80370000D02*
X122737000Y-75840000D01*
X122697000Y-77065000D02*
X122697000Y-75800000D01*
X122697000Y-80410000D02*
X122697000Y-79145000D01*
X122657000Y-77065000D02*
X122657000Y-75762000D01*
X122657000Y-80448000D02*
X122657000Y-79145000D01*
X122617000Y-77065000D02*
X122617000Y-75725000D01*
X122617000Y-80485000D02*
X122617000Y-79145000D01*
X122577000Y-77065000D02*
X122577000Y-75689000D01*
X122577000Y-80521000D02*
X122577000Y-79145000D01*
X122537000Y-77065000D02*
X122537000Y-75655000D01*
X122537000Y-80555000D02*
X122537000Y-79145000D01*
X122497000Y-77065000D02*
X122497000Y-75621000D01*
X122497000Y-80589000D02*
X122497000Y-79145000D01*
X122457000Y-77065000D02*
X122457000Y-75589000D01*
X122457000Y-80621000D02*
X122457000Y-79145000D01*
X122417000Y-77065000D02*
X122417000Y-75557000D01*
X122417000Y-80653000D02*
X122417000Y-79145000D01*
X122377000Y-77065000D02*
X122377000Y-75527000D01*
X122377000Y-80683000D02*
X122377000Y-79145000D01*
X122337000Y-77065000D02*
X122337000Y-75498000D01*
X122337000Y-80712000D02*
X122337000Y-79145000D01*
X122297000Y-77065000D02*
X122297000Y-75469000D01*
X122297000Y-80741000D02*
X122297000Y-79145000D01*
X122257000Y-77065000D02*
X122257000Y-75441000D01*
X122257000Y-80769000D02*
X122257000Y-79145000D01*
X122217000Y-77065000D02*
X122217000Y-75415000D01*
X122217000Y-80795000D02*
X122217000Y-79145000D01*
X122177000Y-77065000D02*
X122177000Y-75389000D01*
X122177000Y-80821000D02*
X122177000Y-79145000D01*
X122137000Y-77065000D02*
X122137000Y-75363000D01*
X122137000Y-80847000D02*
X122137000Y-79145000D01*
X122097000Y-77065000D02*
X122097000Y-75339000D01*
X122097000Y-80871000D02*
X122097000Y-79145000D01*
X122057000Y-77065000D02*
X122057000Y-75315000D01*
X122057000Y-80895000D02*
X122057000Y-79145000D01*
X122017000Y-77065000D02*
X122017000Y-75293000D01*
X122017000Y-80917000D02*
X122017000Y-79145000D01*
X121977000Y-77065000D02*
X121977000Y-75271000D01*
X121977000Y-80939000D02*
X121977000Y-79145000D01*
X121937000Y-77065000D02*
X121937000Y-75249000D01*
X121937000Y-80961000D02*
X121937000Y-79145000D01*
X121897000Y-77065000D02*
X121897000Y-75229000D01*
X121897000Y-80981000D02*
X121897000Y-79145000D01*
X121857000Y-77065000D02*
X121857000Y-75209000D01*
X121857000Y-81001000D02*
X121857000Y-79145000D01*
X121817000Y-77065000D02*
X121817000Y-75189000D01*
X121817000Y-81021000D02*
X121817000Y-79145000D01*
X121777000Y-77065000D02*
X121777000Y-75171000D01*
X121777000Y-81039000D02*
X121777000Y-79145000D01*
X121737000Y-77065000D02*
X121737000Y-75153000D01*
X121737000Y-81057000D02*
X121737000Y-79145000D01*
X121697000Y-77065000D02*
X121697000Y-75135000D01*
X121697000Y-81075000D02*
X121697000Y-79145000D01*
X121657000Y-77065000D02*
X121657000Y-75119000D01*
X121657000Y-81091000D02*
X121657000Y-79145000D01*
X121617000Y-77065000D02*
X121617000Y-75103000D01*
X121617000Y-81107000D02*
X121617000Y-79145000D01*
X121577000Y-77065000D02*
X121577000Y-75087000D01*
X121577000Y-81123000D02*
X121577000Y-79145000D01*
X121537000Y-77065000D02*
X121537000Y-75072000D01*
X121537000Y-81138000D02*
X121537000Y-79145000D01*
X121497000Y-77065000D02*
X121497000Y-75058000D01*
X121497000Y-81152000D02*
X121497000Y-79145000D01*
X121457000Y-77065000D02*
X121457000Y-75044000D01*
X121457000Y-81166000D02*
X121457000Y-79145000D01*
X121417000Y-77065000D02*
X121417000Y-75031000D01*
X121417000Y-81179000D02*
X121417000Y-79145000D01*
X121377000Y-77065000D02*
X121377000Y-75019000D01*
X121377000Y-81191000D02*
X121377000Y-79145000D01*
X121337000Y-77065000D02*
X121337000Y-75007000D01*
X121337000Y-81203000D02*
X121337000Y-79145000D01*
X121297000Y-77065000D02*
X121297000Y-74995000D01*
X121297000Y-81215000D02*
X121297000Y-79145000D01*
X121257000Y-77065000D02*
X121257000Y-74984000D01*
X121257000Y-81226000D02*
X121257000Y-79145000D01*
X121217000Y-77065000D02*
X121217000Y-74974000D01*
X121217000Y-81236000D02*
X121217000Y-79145000D01*
X121177000Y-77065000D02*
X121177000Y-74964000D01*
X121177000Y-81246000D02*
X121177000Y-79145000D01*
X121137000Y-77065000D02*
X121137000Y-74955000D01*
X121137000Y-81255000D02*
X121137000Y-79145000D01*
X121096000Y-77065000D02*
X121096000Y-74946000D01*
X121096000Y-81264000D02*
X121096000Y-79145000D01*
X121056000Y-77065000D02*
X121056000Y-74938000D01*
X121056000Y-81272000D02*
X121056000Y-79145000D01*
X121016000Y-77065000D02*
X121016000Y-74930000D01*
X121016000Y-81280000D02*
X121016000Y-79145000D01*
X120976000Y-77065000D02*
X120976000Y-74923000D01*
X120976000Y-81287000D02*
X120976000Y-79145000D01*
X120936000Y-77065000D02*
X120936000Y-74916000D01*
X120936000Y-81294000D02*
X120936000Y-79145000D01*
X120896000Y-77065000D02*
X120896000Y-74910000D01*
X120896000Y-81300000D02*
X120896000Y-79145000D01*
X120856000Y-77065000D02*
X120856000Y-74904000D01*
X120856000Y-81306000D02*
X120856000Y-79145000D01*
X120816000Y-77065000D02*
X120816000Y-74899000D01*
X120816000Y-81311000D02*
X120816000Y-79145000D01*
X120776000Y-77065000D02*
X120776000Y-74894000D01*
X120776000Y-81316000D02*
X120776000Y-79145000D01*
X120736000Y-77065000D02*
X120736000Y-74890000D01*
X120736000Y-81320000D02*
X120736000Y-79145000D01*
X120696000Y-77065000D02*
X120696000Y-74887000D01*
X120696000Y-81323000D02*
X120696000Y-79145000D01*
X120656000Y-77065000D02*
X120656000Y-74883000D01*
X120656000Y-81327000D02*
X120656000Y-79145000D01*
X120616000Y-81329000D02*
X120616000Y-74881000D01*
X120576000Y-81332000D02*
X120576000Y-74878000D01*
X120536000Y-81333000D02*
X120536000Y-74877000D01*
X120496000Y-81335000D02*
X120496000Y-74875000D01*
X120456000Y-81335000D02*
X120456000Y-74875000D01*
X120416000Y-81335000D02*
X120416000Y-74875000D01*
X123686000Y-78105000D02*
G75*
G03*
X123686000Y-78105000I-3270000J0D01*
G01*
X108010000Y-115630000D02*
X105350000Y-115630000D01*
X108010000Y-102870000D02*
X108010000Y-115630000D01*
X105350000Y-102870000D02*
X105350000Y-115630000D01*
X108010000Y-102870000D02*
X105350000Y-102870000D01*
X108010000Y-101600000D02*
X108010000Y-100270000D01*
X108010000Y-100270000D02*
X106680000Y-100270000D01*
X108010000Y-85150000D02*
X105350000Y-85150000D01*
X108010000Y-77470000D02*
X108010000Y-85150000D01*
X105350000Y-77470000D02*
X105350000Y-85150000D01*
X108010000Y-77470000D02*
X105350000Y-77470000D01*
X108010000Y-76200000D02*
X108010000Y-74870000D01*
X108010000Y-74870000D02*
X106680000Y-74870000D01*
X151400000Y-102930000D02*
X149750000Y-102930000D01*
X149750000Y-102930000D02*
X149750000Y-92650000D01*
X149750000Y-92650000D02*
X155050000Y-92650000D01*
X155050000Y-92650000D02*
X155050000Y-102930000D01*
X155050000Y-102930000D02*
X153400000Y-102930000D01*
X153400000Y-102930000D02*
G75*
G03*
X151400000Y-102930000I-1000000J0D01*
G01*
X151400000Y-87690000D02*
X149750000Y-87690000D01*
X149750000Y-87690000D02*
X149750000Y-77410000D01*
X149750000Y-77410000D02*
X155050000Y-77410000D01*
X155050000Y-77410000D02*
X155050000Y-87690000D01*
X155050000Y-87690000D02*
X153400000Y-87690000D01*
X153400000Y-87690000D02*
G75*
G03*
X151400000Y-87690000I-1000000J0D01*
G01*
X151400000Y-116900000D02*
X149750000Y-116900000D01*
X149750000Y-116900000D02*
X149750000Y-106620000D01*
X149750000Y-106620000D02*
X155050000Y-106620000D01*
X155050000Y-106620000D02*
X155050000Y-116900000D01*
X155050000Y-116900000D02*
X153400000Y-116900000D01*
X153400000Y-116900000D02*
G75*
G03*
X151400000Y-116900000I-1000000J0D01*
G01*
X151400000Y-73720000D02*
X149750000Y-73720000D01*
X149750000Y-73720000D02*
X149750000Y-53280000D01*
X149750000Y-53280000D02*
X155050000Y-53280000D01*
X155050000Y-53280000D02*
X155050000Y-73720000D01*
X155050000Y-73720000D02*
X153400000Y-73720000D01*
X153400000Y-73720000D02*
G75*
G03*
X151400000Y-73720000I-1000000J0D01*
G01*
X135323000Y-95748000D02*
X145093000Y-95748000D01*
X135323000Y-90678000D02*
X145093000Y-90678000D01*
X135323000Y-95748000D02*
X135323000Y-90678000D01*
X145093000Y-95748000D02*
X145093000Y-90678000D01*
X173746000Y-106875000D02*
X173746000Y-116645000D01*
X178816000Y-106875000D02*
X178816000Y-116645000D01*
X173746000Y-106875000D02*
X178816000Y-106875000D01*
X173746000Y-116645000D02*
X178816000Y-116645000D01*
X165872000Y-84269000D02*
X165872000Y-94039000D01*
X170942000Y-84269000D02*
X170942000Y-94039000D01*
X165872000Y-84269000D02*
X170942000Y-84269000D01*
X165872000Y-94039000D02*
X170942000Y-94039000D01*
X145286252Y-109780000D02*
X144763748Y-109780000D01*
X145286252Y-111200000D02*
X144763748Y-111200000D01*
X144527748Y-105104000D02*
X145050252Y-105104000D01*
X144527748Y-103684000D02*
X145050252Y-103684000D01*
X160526252Y-103938000D02*
X160003748Y-103938000D01*
X160526252Y-105358000D02*
X160003748Y-105358000D01*
X144509748Y-102564000D02*
X145032252Y-102564000D01*
X144509748Y-101144000D02*
X145032252Y-101144000D01*
X160012748Y-100278000D02*
X160535252Y-100278000D01*
X160012748Y-98858000D02*
X160535252Y-98858000D01*
X160535252Y-96572000D02*
X160012748Y-96572000D01*
X160535252Y-97992000D02*
X160012748Y-97992000D01*
X167892252Y-116638000D02*
X167369748Y-116638000D01*
X167892252Y-118058000D02*
X167369748Y-118058000D01*
X144509748Y-99770000D02*
X145032252Y-99770000D01*
X144509748Y-98350000D02*
X145032252Y-98350000D01*
X160021748Y-95452000D02*
X160544252Y-95452000D01*
X160021748Y-94032000D02*
X160544252Y-94032000D01*
X132586252Y-79300000D02*
X132063748Y-79300000D01*
X132586252Y-80720000D02*
X132063748Y-80720000D01*
X181626252Y-111050000D02*
X181103748Y-111050000D01*
X181626252Y-112470000D02*
X181103748Y-112470000D01*
X167892252Y-114098000D02*
X167369748Y-114098000D01*
X167892252Y-115518000D02*
X167369748Y-115518000D01*
X160021748Y-102818000D02*
X160544252Y-102818000D01*
X160021748Y-101398000D02*
X160544252Y-101398000D01*
X167656252Y-107494000D02*
X167133748Y-107494000D01*
X167656252Y-108914000D02*
X167133748Y-108914000D01*
X167638252Y-104954000D02*
X167115748Y-104954000D01*
X167638252Y-106374000D02*
X167115748Y-106374000D01*
X144781748Y-116280000D02*
X145304252Y-116280000D01*
X144781748Y-114860000D02*
X145304252Y-114860000D01*
X145041252Y-58726000D02*
X144518748Y-58726000D01*
X145041252Y-60146000D02*
X144518748Y-60146000D01*
X160281252Y-83110000D02*
X159758748Y-83110000D01*
X160281252Y-84530000D02*
X159758748Y-84530000D01*
X145032252Y-56186000D02*
X144509748Y-56186000D01*
X145032252Y-57606000D02*
X144509748Y-57606000D01*
X160281252Y-71680000D02*
X159758748Y-71680000D01*
X160281252Y-73100000D02*
X159758748Y-73100000D01*
X174242252Y-71680000D02*
X173719748Y-71680000D01*
X174242252Y-73100000D02*
X173719748Y-73100000D01*
X145032252Y-73204000D02*
X144509748Y-73204000D01*
X145032252Y-74624000D02*
X144509748Y-74624000D01*
X145032252Y-53646000D02*
X144509748Y-53646000D01*
X145032252Y-55066000D02*
X144509748Y-55066000D01*
X159767748Y-65480000D02*
X160290252Y-65480000D01*
X159767748Y-64060000D02*
X160290252Y-64060000D01*
X144527748Y-87070000D02*
X145050252Y-87070000D01*
X144527748Y-85650000D02*
X145050252Y-85650000D01*
X173719748Y-75386000D02*
X174242252Y-75386000D01*
X173719748Y-73966000D02*
X174242252Y-73966000D01*
X159767748Y-68020000D02*
X160290252Y-68020000D01*
X159767748Y-66600000D02*
X160290252Y-66600000D01*
X144527748Y-84530000D02*
X145050252Y-84530000D01*
X144527748Y-83110000D02*
X145050252Y-83110000D01*
X173737748Y-80466000D02*
X174260252Y-80466000D01*
X173737748Y-79046000D02*
X174260252Y-79046000D01*
X173728748Y-77926000D02*
X174251252Y-77926000D01*
X173728748Y-76506000D02*
X174251252Y-76506000D01*
X145032252Y-70664000D02*
X144509748Y-70664000D01*
X145032252Y-72084000D02*
X144509748Y-72084000D01*
X144527748Y-81990000D02*
X145050252Y-81990000D01*
X144527748Y-80570000D02*
X145050252Y-80570000D01*
X144527748Y-79450000D02*
X145050252Y-79450000D01*
X144527748Y-78030000D02*
X145050252Y-78030000D01*
X160760000Y-113212000D02*
X164360000Y-113212000D01*
X164398478Y-113223522D02*
G75*
G02*
X162560000Y-117662000I-1838478J-1838478D01*
G01*
X160721522Y-113223522D02*
G75*
G03*
X162560000Y-117662000I1838478J-1838478D01*
G01*
X128850000Y-82020000D02*
X128850000Y-85620000D01*
X128838478Y-85658478D02*
G75*
G02*
X124400000Y-83820000I-1838478J1838478D01*
G01*
X128838478Y-81981522D02*
G75*
G03*
X124400000Y-83820000I-1838478J-1838478D01*
G01*
X160760000Y-108132000D02*
X164360000Y-108132000D01*
X164398478Y-108143522D02*
G75*
G02*
X162560000Y-112582000I-1838478J-1838478D01*
G01*
X160721522Y-108143522D02*
G75*
G03*
X162560000Y-112582000I1838478J-1838478D01*
G01*
X134294000Y-58696000D02*
X134294000Y-55096000D01*
X134305522Y-55057522D02*
G75*
G02*
X138744000Y-56896000I1838478J-1838478D01*
G01*
X134305522Y-58734478D02*
G75*
G03*
X138744000Y-56896000I1838478J1838478D01*
G01*
X167110000Y-70540000D02*
X170710000Y-70540000D01*
X170748478Y-70551522D02*
G75*
G02*
X168910000Y-74990000I-1838478J-1838478D01*
G01*
X167071522Y-70551522D02*
G75*
G03*
X168910000Y-74990000I1838478J-1838478D01*
G01*
X167110000Y-75366000D02*
X170710000Y-75366000D01*
X170748478Y-75377522D02*
G75*
G02*
X168910000Y-79816000I-1838478J-1838478D01*
G01*
X167071522Y-75377522D02*
G75*
G03*
X168910000Y-79816000I1838478J-1838478D01*
G01*
X195640000Y-68640000D02*
X190440000Y-68640000D01*
X195640000Y-58420000D02*
X195640000Y-68640000D01*
X190440000Y-55820000D02*
X190440000Y-68640000D01*
X195640000Y-58420000D02*
X193040000Y-58420000D01*
X193040000Y-58420000D02*
X193040000Y-55820000D01*
X193040000Y-55820000D02*
X190440000Y-55820000D01*
X195640000Y-57150000D02*
X195640000Y-55820000D01*
X195640000Y-55820000D02*
X194310000Y-55820000D01*
X130390000Y-72794000D02*
X130390000Y-75034000D01*
X130390000Y-75034000D02*
X126150000Y-75034000D01*
X126150000Y-75034000D02*
X126150000Y-72794000D01*
X126150000Y-72794000D02*
X130390000Y-72794000D01*
X131040000Y-73914000D02*
X130390000Y-73914000D01*
X125500000Y-73914000D02*
X126150000Y-73914000D01*
X129670000Y-72794000D02*
X129670000Y-75034000D01*
X129550000Y-72794000D02*
X129550000Y-75034000D01*
X129790000Y-72794000D02*
X129790000Y-75034000D01*
X143852000Y-64666000D02*
X143852000Y-66906000D01*
X143852000Y-66906000D02*
X139612000Y-66906000D01*
X139612000Y-66906000D02*
X139612000Y-64666000D01*
X139612000Y-64666000D02*
X143852000Y-64666000D01*
X144502000Y-65786000D02*
X143852000Y-65786000D01*
X138962000Y-65786000D02*
X139612000Y-65786000D01*
X143132000Y-64666000D02*
X143132000Y-66906000D01*
X143012000Y-64666000D02*
X143012000Y-66906000D01*
X143252000Y-64666000D02*
X143252000Y-66906000D01*
X139612000Y-69700000D02*
X139612000Y-67460000D01*
X139612000Y-67460000D02*
X143852000Y-67460000D01*
X143852000Y-67460000D02*
X143852000Y-69700000D01*
X143852000Y-69700000D02*
X139612000Y-69700000D01*
X138962000Y-68580000D02*
X139612000Y-68580000D01*
X144502000Y-68580000D02*
X143852000Y-68580000D01*
X140332000Y-69700000D02*
X140332000Y-67460000D01*
X140452000Y-69700000D02*
X140452000Y-67460000D01*
X140212000Y-69700000D02*
X140212000Y-67460000D01*
X145286252Y-112320000D02*
X144763748Y-112320000D01*
X145286252Y-113740000D02*
X144763748Y-113740000D01*
X148769548Y-106018400D02*
X149292052Y-106018400D01*
X148769548Y-104598400D02*
X149292052Y-104598400D01*
X154179748Y-105891400D02*
X154702252Y-105891400D01*
X154179748Y-104471400D02*
X154702252Y-104471400D01*
X150157548Y-91540400D02*
X150680052Y-91540400D01*
X150157548Y-90120400D02*
X150680052Y-90120400D01*
X154154348Y-91489600D02*
X154676852Y-91489600D01*
X154154348Y-90069600D02*
X154676852Y-90069600D01*
X149107148Y-76757600D02*
X149629652Y-76757600D01*
X149107148Y-75337600D02*
X149629652Y-75337600D01*
X154789348Y-76808400D02*
X155311852Y-76808400D01*
X154789348Y-75388400D02*
X155311852Y-75388400D01*
X151080948Y-52729200D02*
X151603452Y-52729200D01*
X151080948Y-51309200D02*
X151603452Y-51309200D01*
X159368748Y-59257000D02*
X159891252Y-59257000D01*
X159368748Y-57837000D02*
X159891252Y-57837000D01*
X160290252Y-80570000D02*
X159767748Y-80570000D01*
X160290252Y-81990000D02*
X159767748Y-81990000D01*
X144527748Y-62686000D02*
X145050252Y-62686000D01*
X144527748Y-61266000D02*
X145050252Y-61266000D01*
X137666252Y-73204000D02*
X137143748Y-73204000D01*
X137666252Y-74624000D02*
X137143748Y-74624000D01*
D10*
X196000666Y-75795142D02*
X196048285Y-75842761D01*
X196191142Y-75890380D01*
X196286380Y-75890380D01*
X196429238Y-75842761D01*
X196524476Y-75747523D01*
X196572095Y-75652285D01*
X196619714Y-75461809D01*
X196619714Y-75318952D01*
X196572095Y-75128476D01*
X196524476Y-75033238D01*
X196429238Y-74938000D01*
X196286380Y-74890380D01*
X196191142Y-74890380D01*
X196048285Y-74938000D01*
X196000666Y-74985619D01*
X195667333Y-74890380D02*
X195000666Y-74890380D01*
X195429238Y-75890380D01*
X189777666Y-79986142D02*
X189825285Y-80033761D01*
X189968142Y-80081380D01*
X190063380Y-80081380D01*
X190206238Y-80033761D01*
X190301476Y-79938523D01*
X190349095Y-79843285D01*
X190396714Y-79652809D01*
X190396714Y-79509952D01*
X190349095Y-79319476D01*
X190301476Y-79224238D01*
X190206238Y-79129000D01*
X190063380Y-79081380D01*
X189968142Y-79081380D01*
X189825285Y-79129000D01*
X189777666Y-79176619D01*
X188920523Y-79081380D02*
X189111000Y-79081380D01*
X189206238Y-79129000D01*
X189253857Y-79176619D01*
X189349095Y-79319476D01*
X189396714Y-79509952D01*
X189396714Y-79890904D01*
X189349095Y-79986142D01*
X189301476Y-80033761D01*
X189206238Y-80081380D01*
X189015761Y-80081380D01*
X188920523Y-80033761D01*
X188872904Y-79986142D01*
X188825285Y-79890904D01*
X188825285Y-79652809D01*
X188872904Y-79557571D01*
X188920523Y-79509952D01*
X189015761Y-79462333D01*
X189206238Y-79462333D01*
X189301476Y-79509952D01*
X189349095Y-79557571D01*
X189396714Y-79652809D01*
X130849666Y-86336142D02*
X130897285Y-86383761D01*
X131040142Y-86431380D01*
X131135380Y-86431380D01*
X131278238Y-86383761D01*
X131373476Y-86288523D01*
X131421095Y-86193285D01*
X131468714Y-86002809D01*
X131468714Y-85859952D01*
X131421095Y-85669476D01*
X131373476Y-85574238D01*
X131278238Y-85479000D01*
X131135380Y-85431380D01*
X131040142Y-85431380D01*
X130897285Y-85479000D01*
X130849666Y-85526619D01*
X129944904Y-85431380D02*
X130421095Y-85431380D01*
X130468714Y-85907571D01*
X130421095Y-85859952D01*
X130325857Y-85812333D01*
X130087761Y-85812333D01*
X129992523Y-85859952D01*
X129944904Y-85907571D01*
X129897285Y-86002809D01*
X129897285Y-86240904D01*
X129944904Y-86336142D01*
X129992523Y-86383761D01*
X130087761Y-86431380D01*
X130325857Y-86431380D01*
X130421095Y-86383761D01*
X130468714Y-86336142D01*
X120582666Y-82862142D02*
X120630285Y-82909761D01*
X120773142Y-82957380D01*
X120868380Y-82957380D01*
X121011238Y-82909761D01*
X121106476Y-82814523D01*
X121154095Y-82719285D01*
X121201714Y-82528809D01*
X121201714Y-82385952D01*
X121154095Y-82195476D01*
X121106476Y-82100238D01*
X121011238Y-82005000D01*
X120868380Y-81957380D01*
X120773142Y-81957380D01*
X120630285Y-82005000D01*
X120582666Y-82052619D01*
X119725523Y-82290714D02*
X119725523Y-82957380D01*
X119963619Y-81909761D02*
X120201714Y-82624047D01*
X119582666Y-82624047D01*
X153161904Y-103382380D02*
X153161904Y-104191904D01*
X153114285Y-104287142D01*
X153066666Y-104334761D01*
X152971428Y-104382380D01*
X152780952Y-104382380D01*
X152685714Y-104334761D01*
X152638095Y-104287142D01*
X152590476Y-104191904D01*
X152590476Y-103382380D01*
X152209523Y-103382380D02*
X151590476Y-103382380D01*
X151923809Y-103763333D01*
X151780952Y-103763333D01*
X151685714Y-103810952D01*
X151638095Y-103858571D01*
X151590476Y-103953809D01*
X151590476Y-104191904D01*
X151638095Y-104287142D01*
X151685714Y-104334761D01*
X151780952Y-104382380D01*
X152066666Y-104382380D01*
X152161904Y-104334761D01*
X152209523Y-104287142D01*
X153161904Y-88142380D02*
X153161904Y-88951904D01*
X153114285Y-89047142D01*
X153066666Y-89094761D01*
X152971428Y-89142380D01*
X152780952Y-89142380D01*
X152685714Y-89094761D01*
X152638095Y-89047142D01*
X152590476Y-88951904D01*
X152590476Y-88142380D01*
X152161904Y-88237619D02*
X152114285Y-88190000D01*
X152019047Y-88142380D01*
X151780952Y-88142380D01*
X151685714Y-88190000D01*
X151638095Y-88237619D01*
X151590476Y-88332857D01*
X151590476Y-88428095D01*
X151638095Y-88570952D01*
X152209523Y-89142380D01*
X151590476Y-89142380D01*
X153161904Y-117352380D02*
X153161904Y-118161904D01*
X153114285Y-118257142D01*
X153066666Y-118304761D01*
X152971428Y-118352380D01*
X152780952Y-118352380D01*
X152685714Y-118304761D01*
X152638095Y-118257142D01*
X152590476Y-118161904D01*
X152590476Y-117352380D01*
X151685714Y-117685714D02*
X151685714Y-118352380D01*
X151923809Y-117304761D02*
X152161904Y-118019047D01*
X151542857Y-118019047D01*
X153161904Y-74172380D02*
X153161904Y-74981904D01*
X153114285Y-75077142D01*
X153066666Y-75124761D01*
X152971428Y-75172380D01*
X152780952Y-75172380D01*
X152685714Y-75124761D01*
X152638095Y-75077142D01*
X152590476Y-74981904D01*
X152590476Y-74172380D01*
X151590476Y-75172380D02*
X152161904Y-75172380D01*
X151876190Y-75172380D02*
X151876190Y-74172380D01*
X151971428Y-74315238D01*
X152066666Y-74410476D01*
X152161904Y-74458095D01*
X140803238Y-97330380D02*
X141136571Y-96854190D01*
X141374666Y-97330380D02*
X141374666Y-96330380D01*
X140993714Y-96330380D01*
X140898476Y-96378000D01*
X140850857Y-96425619D01*
X140803238Y-96520857D01*
X140803238Y-96663714D01*
X140850857Y-96758952D01*
X140898476Y-96806571D01*
X140993714Y-96854190D01*
X141374666Y-96854190D01*
X140517523Y-96330380D02*
X140184190Y-97330380D01*
X139850857Y-96330380D01*
X139088952Y-96330380D02*
X139279428Y-96330380D01*
X139374666Y-96378000D01*
X139422285Y-96425619D01*
X139517523Y-96568476D01*
X139565142Y-96758952D01*
X139565142Y-97139904D01*
X139517523Y-97235142D01*
X139469904Y-97282761D01*
X139374666Y-97330380D01*
X139184190Y-97330380D01*
X139088952Y-97282761D01*
X139041333Y-97235142D01*
X138993714Y-97139904D01*
X138993714Y-96901809D01*
X139041333Y-96806571D01*
X139088952Y-96758952D01*
X139184190Y-96711333D01*
X139374666Y-96711333D01*
X139469904Y-96758952D01*
X139517523Y-96806571D01*
X139565142Y-96901809D01*
X176871238Y-118054380D02*
X177204571Y-117578190D01*
X177442666Y-118054380D02*
X177442666Y-117054380D01*
X177061714Y-117054380D01*
X176966476Y-117102000D01*
X176918857Y-117149619D01*
X176871238Y-117244857D01*
X176871238Y-117387714D01*
X176918857Y-117482952D01*
X176966476Y-117530571D01*
X177061714Y-117578190D01*
X177442666Y-117578190D01*
X176585523Y-117054380D02*
X176252190Y-118054380D01*
X175918857Y-117054380D01*
X175109333Y-117054380D02*
X175585523Y-117054380D01*
X175633142Y-117530571D01*
X175585523Y-117482952D01*
X175490285Y-117435333D01*
X175252190Y-117435333D01*
X175156952Y-117482952D01*
X175109333Y-117530571D01*
X175061714Y-117625809D01*
X175061714Y-117863904D01*
X175109333Y-117959142D01*
X175156952Y-118006761D01*
X175252190Y-118054380D01*
X175490285Y-118054380D01*
X175585523Y-118006761D01*
X175633142Y-117959142D01*
X168997238Y-95702380D02*
X169330571Y-95226190D01*
X169568666Y-95702380D02*
X169568666Y-94702380D01*
X169187714Y-94702380D01*
X169092476Y-94750000D01*
X169044857Y-94797619D01*
X168997238Y-94892857D01*
X168997238Y-95035714D01*
X169044857Y-95130952D01*
X169092476Y-95178571D01*
X169187714Y-95226190D01*
X169568666Y-95226190D01*
X168711523Y-94702380D02*
X168378190Y-95702380D01*
X168044857Y-94702380D01*
X167282952Y-95035714D02*
X167282952Y-95702380D01*
X167521047Y-94654761D02*
X167759142Y-95369047D01*
X167140095Y-95369047D01*
X142102857Y-110942380D02*
X142436190Y-110466190D01*
X142674285Y-110942380D02*
X142674285Y-109942380D01*
X142293333Y-109942380D01*
X142198095Y-109990000D01*
X142150476Y-110037619D01*
X142102857Y-110132857D01*
X142102857Y-110275714D01*
X142150476Y-110370952D01*
X142198095Y-110418571D01*
X142293333Y-110466190D01*
X142674285Y-110466190D01*
X141769523Y-109942380D02*
X141150476Y-109942380D01*
X141483809Y-110323333D01*
X141340952Y-110323333D01*
X141245714Y-110370952D01*
X141198095Y-110418571D01*
X141150476Y-110513809D01*
X141150476Y-110751904D01*
X141198095Y-110847142D01*
X141245714Y-110894761D01*
X141340952Y-110942380D01*
X141626666Y-110942380D01*
X141721904Y-110894761D01*
X141769523Y-110847142D01*
X140817142Y-109942380D02*
X140198095Y-109942380D01*
X140531428Y-110323333D01*
X140388571Y-110323333D01*
X140293333Y-110370952D01*
X140245714Y-110418571D01*
X140198095Y-110513809D01*
X140198095Y-110751904D01*
X140245714Y-110847142D01*
X140293333Y-110894761D01*
X140388571Y-110942380D01*
X140674285Y-110942380D01*
X140769523Y-110894761D01*
X140817142Y-110847142D01*
X141866857Y-104846380D02*
X142200190Y-104370190D01*
X142438285Y-104846380D02*
X142438285Y-103846380D01*
X142057333Y-103846380D01*
X141962095Y-103894000D01*
X141914476Y-103941619D01*
X141866857Y-104036857D01*
X141866857Y-104179714D01*
X141914476Y-104274952D01*
X141962095Y-104322571D01*
X142057333Y-104370190D01*
X142438285Y-104370190D01*
X141533523Y-103846380D02*
X140914476Y-103846380D01*
X141247809Y-104227333D01*
X141104952Y-104227333D01*
X141009714Y-104274952D01*
X140962095Y-104322571D01*
X140914476Y-104417809D01*
X140914476Y-104655904D01*
X140962095Y-104751142D01*
X141009714Y-104798761D01*
X141104952Y-104846380D01*
X141390666Y-104846380D01*
X141485904Y-104798761D01*
X141533523Y-104751142D01*
X140533523Y-103941619D02*
X140485904Y-103894000D01*
X140390666Y-103846380D01*
X140152571Y-103846380D01*
X140057333Y-103894000D01*
X140009714Y-103941619D01*
X139962095Y-104036857D01*
X139962095Y-104132095D01*
X140009714Y-104274952D01*
X140581142Y-104846380D01*
X139962095Y-104846380D01*
X164218857Y-105100380D02*
X164552190Y-104624190D01*
X164790285Y-105100380D02*
X164790285Y-104100380D01*
X164409333Y-104100380D01*
X164314095Y-104148000D01*
X164266476Y-104195619D01*
X164218857Y-104290857D01*
X164218857Y-104433714D01*
X164266476Y-104528952D01*
X164314095Y-104576571D01*
X164409333Y-104624190D01*
X164790285Y-104624190D01*
X163885523Y-104100380D02*
X163266476Y-104100380D01*
X163599809Y-104481333D01*
X163456952Y-104481333D01*
X163361714Y-104528952D01*
X163314095Y-104576571D01*
X163266476Y-104671809D01*
X163266476Y-104909904D01*
X163314095Y-105005142D01*
X163361714Y-105052761D01*
X163456952Y-105100380D01*
X163742666Y-105100380D01*
X163837904Y-105052761D01*
X163885523Y-105005142D01*
X162314095Y-105100380D02*
X162885523Y-105100380D01*
X162599809Y-105100380D02*
X162599809Y-104100380D01*
X162695047Y-104243238D01*
X162790285Y-104338476D01*
X162885523Y-104386095D01*
X141848857Y-102306380D02*
X142182190Y-101830190D01*
X142420285Y-102306380D02*
X142420285Y-101306380D01*
X142039333Y-101306380D01*
X141944095Y-101354000D01*
X141896476Y-101401619D01*
X141848857Y-101496857D01*
X141848857Y-101639714D01*
X141896476Y-101734952D01*
X141944095Y-101782571D01*
X142039333Y-101830190D01*
X142420285Y-101830190D01*
X141515523Y-101306380D02*
X140896476Y-101306380D01*
X141229809Y-101687333D01*
X141086952Y-101687333D01*
X140991714Y-101734952D01*
X140944095Y-101782571D01*
X140896476Y-101877809D01*
X140896476Y-102115904D01*
X140944095Y-102211142D01*
X140991714Y-102258761D01*
X141086952Y-102306380D01*
X141372666Y-102306380D01*
X141467904Y-102258761D01*
X141515523Y-102211142D01*
X140277428Y-101306380D02*
X140182190Y-101306380D01*
X140086952Y-101354000D01*
X140039333Y-101401619D01*
X139991714Y-101496857D01*
X139944095Y-101687333D01*
X139944095Y-101925428D01*
X139991714Y-102115904D01*
X140039333Y-102211142D01*
X140086952Y-102258761D01*
X140182190Y-102306380D01*
X140277428Y-102306380D01*
X140372666Y-102258761D01*
X140420285Y-102211142D01*
X140467904Y-102115904D01*
X140515523Y-101925428D01*
X140515523Y-101687333D01*
X140467904Y-101496857D01*
X140420285Y-101401619D01*
X140372666Y-101354000D01*
X140277428Y-101306380D01*
X164472857Y-100020380D02*
X164806190Y-99544190D01*
X165044285Y-100020380D02*
X165044285Y-99020380D01*
X164663333Y-99020380D01*
X164568095Y-99068000D01*
X164520476Y-99115619D01*
X164472857Y-99210857D01*
X164472857Y-99353714D01*
X164520476Y-99448952D01*
X164568095Y-99496571D01*
X164663333Y-99544190D01*
X165044285Y-99544190D01*
X164091904Y-99115619D02*
X164044285Y-99068000D01*
X163949047Y-99020380D01*
X163710952Y-99020380D01*
X163615714Y-99068000D01*
X163568095Y-99115619D01*
X163520476Y-99210857D01*
X163520476Y-99306095D01*
X163568095Y-99448952D01*
X164139523Y-100020380D01*
X163520476Y-100020380D01*
X163044285Y-100020380D02*
X162853809Y-100020380D01*
X162758571Y-99972761D01*
X162710952Y-99925142D01*
X162615714Y-99782285D01*
X162568095Y-99591809D01*
X162568095Y-99210857D01*
X162615714Y-99115619D01*
X162663333Y-99068000D01*
X162758571Y-99020380D01*
X162949047Y-99020380D01*
X163044285Y-99068000D01*
X163091904Y-99115619D01*
X163139523Y-99210857D01*
X163139523Y-99448952D01*
X163091904Y-99544190D01*
X163044285Y-99591809D01*
X162949047Y-99639428D01*
X162758571Y-99639428D01*
X162663333Y-99591809D01*
X162615714Y-99544190D01*
X162568095Y-99448952D01*
X164472857Y-97734380D02*
X164806190Y-97258190D01*
X165044285Y-97734380D02*
X165044285Y-96734380D01*
X164663333Y-96734380D01*
X164568095Y-96782000D01*
X164520476Y-96829619D01*
X164472857Y-96924857D01*
X164472857Y-97067714D01*
X164520476Y-97162952D01*
X164568095Y-97210571D01*
X164663333Y-97258190D01*
X165044285Y-97258190D01*
X164091904Y-96829619D02*
X164044285Y-96782000D01*
X163949047Y-96734380D01*
X163710952Y-96734380D01*
X163615714Y-96782000D01*
X163568095Y-96829619D01*
X163520476Y-96924857D01*
X163520476Y-97020095D01*
X163568095Y-97162952D01*
X164139523Y-97734380D01*
X163520476Y-97734380D01*
X162949047Y-97162952D02*
X163044285Y-97115333D01*
X163091904Y-97067714D01*
X163139523Y-96972476D01*
X163139523Y-96924857D01*
X163091904Y-96829619D01*
X163044285Y-96782000D01*
X162949047Y-96734380D01*
X162758571Y-96734380D01*
X162663333Y-96782000D01*
X162615714Y-96829619D01*
X162568095Y-96924857D01*
X162568095Y-96972476D01*
X162615714Y-97067714D01*
X162663333Y-97115333D01*
X162758571Y-97162952D01*
X162949047Y-97162952D01*
X163044285Y-97210571D01*
X163091904Y-97258190D01*
X163139523Y-97353428D01*
X163139523Y-97543904D01*
X163091904Y-97639142D01*
X163044285Y-97686761D01*
X162949047Y-97734380D01*
X162758571Y-97734380D01*
X162663333Y-97686761D01*
X162615714Y-97639142D01*
X162568095Y-97543904D01*
X162568095Y-97353428D01*
X162615714Y-97258190D01*
X162663333Y-97210571D01*
X162758571Y-97162952D01*
X171584857Y-117800380D02*
X171918190Y-117324190D01*
X172156285Y-117800380D02*
X172156285Y-116800380D01*
X171775333Y-116800380D01*
X171680095Y-116848000D01*
X171632476Y-116895619D01*
X171584857Y-116990857D01*
X171584857Y-117133714D01*
X171632476Y-117228952D01*
X171680095Y-117276571D01*
X171775333Y-117324190D01*
X172156285Y-117324190D01*
X171203904Y-116895619D02*
X171156285Y-116848000D01*
X171061047Y-116800380D01*
X170822952Y-116800380D01*
X170727714Y-116848000D01*
X170680095Y-116895619D01*
X170632476Y-116990857D01*
X170632476Y-117086095D01*
X170680095Y-117228952D01*
X171251523Y-117800380D01*
X170632476Y-117800380D01*
X170299142Y-116800380D02*
X169632476Y-116800380D01*
X170061047Y-117800380D01*
X141848857Y-99512380D02*
X142182190Y-99036190D01*
X142420285Y-99512380D02*
X142420285Y-98512380D01*
X142039333Y-98512380D01*
X141944095Y-98560000D01*
X141896476Y-98607619D01*
X141848857Y-98702857D01*
X141848857Y-98845714D01*
X141896476Y-98940952D01*
X141944095Y-98988571D01*
X142039333Y-99036190D01*
X142420285Y-99036190D01*
X141467904Y-98607619D02*
X141420285Y-98560000D01*
X141325047Y-98512380D01*
X141086952Y-98512380D01*
X140991714Y-98560000D01*
X140944095Y-98607619D01*
X140896476Y-98702857D01*
X140896476Y-98798095D01*
X140944095Y-98940952D01*
X141515523Y-99512380D01*
X140896476Y-99512380D01*
X140039333Y-98512380D02*
X140229809Y-98512380D01*
X140325047Y-98560000D01*
X140372666Y-98607619D01*
X140467904Y-98750476D01*
X140515523Y-98940952D01*
X140515523Y-99321904D01*
X140467904Y-99417142D01*
X140420285Y-99464761D01*
X140325047Y-99512380D01*
X140134571Y-99512380D01*
X140039333Y-99464761D01*
X139991714Y-99417142D01*
X139944095Y-99321904D01*
X139944095Y-99083809D01*
X139991714Y-98988571D01*
X140039333Y-98940952D01*
X140134571Y-98893333D01*
X140325047Y-98893333D01*
X140420285Y-98940952D01*
X140467904Y-98988571D01*
X140515523Y-99083809D01*
X164481857Y-95194380D02*
X164815190Y-94718190D01*
X165053285Y-95194380D02*
X165053285Y-94194380D01*
X164672333Y-94194380D01*
X164577095Y-94242000D01*
X164529476Y-94289619D01*
X164481857Y-94384857D01*
X164481857Y-94527714D01*
X164529476Y-94622952D01*
X164577095Y-94670571D01*
X164672333Y-94718190D01*
X165053285Y-94718190D01*
X164100904Y-94289619D02*
X164053285Y-94242000D01*
X163958047Y-94194380D01*
X163719952Y-94194380D01*
X163624714Y-94242000D01*
X163577095Y-94289619D01*
X163529476Y-94384857D01*
X163529476Y-94480095D01*
X163577095Y-94622952D01*
X164148523Y-95194380D01*
X163529476Y-95194380D01*
X162624714Y-94194380D02*
X163100904Y-94194380D01*
X163148523Y-94670571D01*
X163100904Y-94622952D01*
X163005666Y-94575333D01*
X162767571Y-94575333D01*
X162672333Y-94622952D01*
X162624714Y-94670571D01*
X162577095Y-94765809D01*
X162577095Y-95003904D01*
X162624714Y-95099142D01*
X162672333Y-95146761D01*
X162767571Y-95194380D01*
X163005666Y-95194380D01*
X163100904Y-95146761D01*
X163148523Y-95099142D01*
X136532857Y-80462380D02*
X136866190Y-79986190D01*
X137104285Y-80462380D02*
X137104285Y-79462380D01*
X136723333Y-79462380D01*
X136628095Y-79510000D01*
X136580476Y-79557619D01*
X136532857Y-79652857D01*
X136532857Y-79795714D01*
X136580476Y-79890952D01*
X136628095Y-79938571D01*
X136723333Y-79986190D01*
X137104285Y-79986190D01*
X136151904Y-79557619D02*
X136104285Y-79510000D01*
X136009047Y-79462380D01*
X135770952Y-79462380D01*
X135675714Y-79510000D01*
X135628095Y-79557619D01*
X135580476Y-79652857D01*
X135580476Y-79748095D01*
X135628095Y-79890952D01*
X136199523Y-80462380D01*
X135580476Y-80462380D01*
X134723333Y-79795714D02*
X134723333Y-80462380D01*
X134961428Y-79414761D02*
X135199523Y-80129047D01*
X134580476Y-80129047D01*
X185554857Y-112212380D02*
X185888190Y-111736190D01*
X186126285Y-112212380D02*
X186126285Y-111212380D01*
X185745333Y-111212380D01*
X185650095Y-111260000D01*
X185602476Y-111307619D01*
X185554857Y-111402857D01*
X185554857Y-111545714D01*
X185602476Y-111640952D01*
X185650095Y-111688571D01*
X185745333Y-111736190D01*
X186126285Y-111736190D01*
X185173904Y-111307619D02*
X185126285Y-111260000D01*
X185031047Y-111212380D01*
X184792952Y-111212380D01*
X184697714Y-111260000D01*
X184650095Y-111307619D01*
X184602476Y-111402857D01*
X184602476Y-111498095D01*
X184650095Y-111640952D01*
X185221523Y-112212380D01*
X184602476Y-112212380D01*
X184269142Y-111212380D02*
X183650095Y-111212380D01*
X183983428Y-111593333D01*
X183840571Y-111593333D01*
X183745333Y-111640952D01*
X183697714Y-111688571D01*
X183650095Y-111783809D01*
X183650095Y-112021904D01*
X183697714Y-112117142D01*
X183745333Y-112164761D01*
X183840571Y-112212380D01*
X184126285Y-112212380D01*
X184221523Y-112164761D01*
X184269142Y-112117142D01*
X171584857Y-115260380D02*
X171918190Y-114784190D01*
X172156285Y-115260380D02*
X172156285Y-114260380D01*
X171775333Y-114260380D01*
X171680095Y-114308000D01*
X171632476Y-114355619D01*
X171584857Y-114450857D01*
X171584857Y-114593714D01*
X171632476Y-114688952D01*
X171680095Y-114736571D01*
X171775333Y-114784190D01*
X172156285Y-114784190D01*
X171203904Y-114355619D02*
X171156285Y-114308000D01*
X171061047Y-114260380D01*
X170822952Y-114260380D01*
X170727714Y-114308000D01*
X170680095Y-114355619D01*
X170632476Y-114450857D01*
X170632476Y-114546095D01*
X170680095Y-114688952D01*
X171251523Y-115260380D01*
X170632476Y-115260380D01*
X170251523Y-114355619D02*
X170203904Y-114308000D01*
X170108666Y-114260380D01*
X169870571Y-114260380D01*
X169775333Y-114308000D01*
X169727714Y-114355619D01*
X169680095Y-114450857D01*
X169680095Y-114546095D01*
X169727714Y-114688952D01*
X170299142Y-115260380D01*
X169680095Y-115260380D01*
X164227857Y-102560380D02*
X164561190Y-102084190D01*
X164799285Y-102560380D02*
X164799285Y-101560380D01*
X164418333Y-101560380D01*
X164323095Y-101608000D01*
X164275476Y-101655619D01*
X164227857Y-101750857D01*
X164227857Y-101893714D01*
X164275476Y-101988952D01*
X164323095Y-102036571D01*
X164418333Y-102084190D01*
X164799285Y-102084190D01*
X163846904Y-101655619D02*
X163799285Y-101608000D01*
X163704047Y-101560380D01*
X163465952Y-101560380D01*
X163370714Y-101608000D01*
X163323095Y-101655619D01*
X163275476Y-101750857D01*
X163275476Y-101846095D01*
X163323095Y-101988952D01*
X163894523Y-102560380D01*
X163275476Y-102560380D01*
X162323095Y-102560380D02*
X162894523Y-102560380D01*
X162608809Y-102560380D02*
X162608809Y-101560380D01*
X162704047Y-101703238D01*
X162799285Y-101798476D01*
X162894523Y-101846095D01*
X171330857Y-108656380D02*
X171664190Y-108180190D01*
X171902285Y-108656380D02*
X171902285Y-107656380D01*
X171521333Y-107656380D01*
X171426095Y-107704000D01*
X171378476Y-107751619D01*
X171330857Y-107846857D01*
X171330857Y-107989714D01*
X171378476Y-108084952D01*
X171426095Y-108132571D01*
X171521333Y-108180190D01*
X171902285Y-108180190D01*
X170949904Y-107751619D02*
X170902285Y-107704000D01*
X170807047Y-107656380D01*
X170568952Y-107656380D01*
X170473714Y-107704000D01*
X170426095Y-107751619D01*
X170378476Y-107846857D01*
X170378476Y-107942095D01*
X170426095Y-108084952D01*
X170997523Y-108656380D01*
X170378476Y-108656380D01*
X169759428Y-107656380D02*
X169664190Y-107656380D01*
X169568952Y-107704000D01*
X169521333Y-107751619D01*
X169473714Y-107846857D01*
X169426095Y-108037333D01*
X169426095Y-108275428D01*
X169473714Y-108465904D01*
X169521333Y-108561142D01*
X169568952Y-108608761D01*
X169664190Y-108656380D01*
X169759428Y-108656380D01*
X169854666Y-108608761D01*
X169902285Y-108561142D01*
X169949904Y-108465904D01*
X169997523Y-108275428D01*
X169997523Y-108037333D01*
X169949904Y-107846857D01*
X169902285Y-107751619D01*
X169854666Y-107704000D01*
X169759428Y-107656380D01*
X171330857Y-106116380D02*
X171664190Y-105640190D01*
X171902285Y-106116380D02*
X171902285Y-105116380D01*
X171521333Y-105116380D01*
X171426095Y-105164000D01*
X171378476Y-105211619D01*
X171330857Y-105306857D01*
X171330857Y-105449714D01*
X171378476Y-105544952D01*
X171426095Y-105592571D01*
X171521333Y-105640190D01*
X171902285Y-105640190D01*
X170378476Y-106116380D02*
X170949904Y-106116380D01*
X170664190Y-106116380D02*
X170664190Y-105116380D01*
X170759428Y-105259238D01*
X170854666Y-105354476D01*
X170949904Y-105402095D01*
X169902285Y-106116380D02*
X169711809Y-106116380D01*
X169616571Y-106068761D01*
X169568952Y-106021142D01*
X169473714Y-105878285D01*
X169426095Y-105687809D01*
X169426095Y-105306857D01*
X169473714Y-105211619D01*
X169521333Y-105164000D01*
X169616571Y-105116380D01*
X169807047Y-105116380D01*
X169902285Y-105164000D01*
X169949904Y-105211619D01*
X169997523Y-105306857D01*
X169997523Y-105544952D01*
X169949904Y-105640190D01*
X169902285Y-105687809D01*
X169807047Y-105735428D01*
X169616571Y-105735428D01*
X169521333Y-105687809D01*
X169473714Y-105640190D01*
X169426095Y-105544952D01*
X142120857Y-116022380D02*
X142454190Y-115546190D01*
X142692285Y-116022380D02*
X142692285Y-115022380D01*
X142311333Y-115022380D01*
X142216095Y-115070000D01*
X142168476Y-115117619D01*
X142120857Y-115212857D01*
X142120857Y-115355714D01*
X142168476Y-115450952D01*
X142216095Y-115498571D01*
X142311333Y-115546190D01*
X142692285Y-115546190D01*
X141168476Y-116022380D02*
X141739904Y-116022380D01*
X141454190Y-116022380D02*
X141454190Y-115022380D01*
X141549428Y-115165238D01*
X141644666Y-115260476D01*
X141739904Y-115308095D01*
X140597047Y-115450952D02*
X140692285Y-115403333D01*
X140739904Y-115355714D01*
X140787523Y-115260476D01*
X140787523Y-115212857D01*
X140739904Y-115117619D01*
X140692285Y-115070000D01*
X140597047Y-115022380D01*
X140406571Y-115022380D01*
X140311333Y-115070000D01*
X140263714Y-115117619D01*
X140216095Y-115212857D01*
X140216095Y-115260476D01*
X140263714Y-115355714D01*
X140311333Y-115403333D01*
X140406571Y-115450952D01*
X140597047Y-115450952D01*
X140692285Y-115498571D01*
X140739904Y-115546190D01*
X140787523Y-115641428D01*
X140787523Y-115831904D01*
X140739904Y-115927142D01*
X140692285Y-115974761D01*
X140597047Y-116022380D01*
X140406571Y-116022380D01*
X140311333Y-115974761D01*
X140263714Y-115927142D01*
X140216095Y-115831904D01*
X140216095Y-115641428D01*
X140263714Y-115546190D01*
X140311333Y-115498571D01*
X140406571Y-115450952D01*
X141866857Y-59888380D02*
X142200190Y-59412190D01*
X142438285Y-59888380D02*
X142438285Y-58888380D01*
X142057333Y-58888380D01*
X141962095Y-58936000D01*
X141914476Y-58983619D01*
X141866857Y-59078857D01*
X141866857Y-59221714D01*
X141914476Y-59316952D01*
X141962095Y-59364571D01*
X142057333Y-59412190D01*
X142438285Y-59412190D01*
X140914476Y-59888380D02*
X141485904Y-59888380D01*
X141200190Y-59888380D02*
X141200190Y-58888380D01*
X141295428Y-59031238D01*
X141390666Y-59126476D01*
X141485904Y-59174095D01*
X140581142Y-58888380D02*
X139914476Y-58888380D01*
X140343047Y-59888380D01*
X164218857Y-84272380D02*
X164552190Y-83796190D01*
X164790285Y-84272380D02*
X164790285Y-83272380D01*
X164409333Y-83272380D01*
X164314095Y-83320000D01*
X164266476Y-83367619D01*
X164218857Y-83462857D01*
X164218857Y-83605714D01*
X164266476Y-83700952D01*
X164314095Y-83748571D01*
X164409333Y-83796190D01*
X164790285Y-83796190D01*
X163266476Y-84272380D02*
X163837904Y-84272380D01*
X163552190Y-84272380D02*
X163552190Y-83272380D01*
X163647428Y-83415238D01*
X163742666Y-83510476D01*
X163837904Y-83558095D01*
X162409333Y-83272380D02*
X162599809Y-83272380D01*
X162695047Y-83320000D01*
X162742666Y-83367619D01*
X162837904Y-83510476D01*
X162885523Y-83700952D01*
X162885523Y-84081904D01*
X162837904Y-84177142D01*
X162790285Y-84224761D01*
X162695047Y-84272380D01*
X162504571Y-84272380D01*
X162409333Y-84224761D01*
X162361714Y-84177142D01*
X162314095Y-84081904D01*
X162314095Y-83843809D01*
X162361714Y-83748571D01*
X162409333Y-83700952D01*
X162504571Y-83653333D01*
X162695047Y-83653333D01*
X162790285Y-83700952D01*
X162837904Y-83748571D01*
X162885523Y-83843809D01*
X141866857Y-57348380D02*
X142200190Y-56872190D01*
X142438285Y-57348380D02*
X142438285Y-56348380D01*
X142057333Y-56348380D01*
X141962095Y-56396000D01*
X141914476Y-56443619D01*
X141866857Y-56538857D01*
X141866857Y-56681714D01*
X141914476Y-56776952D01*
X141962095Y-56824571D01*
X142057333Y-56872190D01*
X142438285Y-56872190D01*
X140914476Y-57348380D02*
X141485904Y-57348380D01*
X141200190Y-57348380D02*
X141200190Y-56348380D01*
X141295428Y-56491238D01*
X141390666Y-56586476D01*
X141485904Y-56634095D01*
X140009714Y-56348380D02*
X140485904Y-56348380D01*
X140533523Y-56824571D01*
X140485904Y-56776952D01*
X140390666Y-56729333D01*
X140152571Y-56729333D01*
X140057333Y-56776952D01*
X140009714Y-56824571D01*
X139962095Y-56919809D01*
X139962095Y-57157904D01*
X140009714Y-57253142D01*
X140057333Y-57300761D01*
X140152571Y-57348380D01*
X140390666Y-57348380D01*
X140485904Y-57300761D01*
X140533523Y-57253142D01*
X163973857Y-72842380D02*
X164307190Y-72366190D01*
X164545285Y-72842380D02*
X164545285Y-71842380D01*
X164164333Y-71842380D01*
X164069095Y-71890000D01*
X164021476Y-71937619D01*
X163973857Y-72032857D01*
X163973857Y-72175714D01*
X164021476Y-72270952D01*
X164069095Y-72318571D01*
X164164333Y-72366190D01*
X164545285Y-72366190D01*
X163021476Y-72842380D02*
X163592904Y-72842380D01*
X163307190Y-72842380D02*
X163307190Y-71842380D01*
X163402428Y-71985238D01*
X163497666Y-72080476D01*
X163592904Y-72128095D01*
X162164333Y-72175714D02*
X162164333Y-72842380D01*
X162402428Y-71794761D02*
X162640523Y-72509047D01*
X162021476Y-72509047D01*
X178188857Y-72842380D02*
X178522190Y-72366190D01*
X178760285Y-72842380D02*
X178760285Y-71842380D01*
X178379333Y-71842380D01*
X178284095Y-71890000D01*
X178236476Y-71937619D01*
X178188857Y-72032857D01*
X178188857Y-72175714D01*
X178236476Y-72270952D01*
X178284095Y-72318571D01*
X178379333Y-72366190D01*
X178760285Y-72366190D01*
X177236476Y-72842380D02*
X177807904Y-72842380D01*
X177522190Y-72842380D02*
X177522190Y-71842380D01*
X177617428Y-71985238D01*
X177712666Y-72080476D01*
X177807904Y-72128095D01*
X176903142Y-71842380D02*
X176284095Y-71842380D01*
X176617428Y-72223333D01*
X176474571Y-72223333D01*
X176379333Y-72270952D01*
X176331714Y-72318571D01*
X176284095Y-72413809D01*
X176284095Y-72651904D01*
X176331714Y-72747142D01*
X176379333Y-72794761D01*
X176474571Y-72842380D01*
X176760285Y-72842380D01*
X176855523Y-72794761D01*
X176903142Y-72747142D01*
X141866857Y-74366380D02*
X142200190Y-73890190D01*
X142438285Y-74366380D02*
X142438285Y-73366380D01*
X142057333Y-73366380D01*
X141962095Y-73414000D01*
X141914476Y-73461619D01*
X141866857Y-73556857D01*
X141866857Y-73699714D01*
X141914476Y-73794952D01*
X141962095Y-73842571D01*
X142057333Y-73890190D01*
X142438285Y-73890190D01*
X140914476Y-74366380D02*
X141485904Y-74366380D01*
X141200190Y-74366380D02*
X141200190Y-73366380D01*
X141295428Y-73509238D01*
X141390666Y-73604476D01*
X141485904Y-73652095D01*
X140533523Y-73461619D02*
X140485904Y-73414000D01*
X140390666Y-73366380D01*
X140152571Y-73366380D01*
X140057333Y-73414000D01*
X140009714Y-73461619D01*
X139962095Y-73556857D01*
X139962095Y-73652095D01*
X140009714Y-73794952D01*
X140581142Y-74366380D01*
X139962095Y-74366380D01*
X141866857Y-54808380D02*
X142200190Y-54332190D01*
X142438285Y-54808380D02*
X142438285Y-53808380D01*
X142057333Y-53808380D01*
X141962095Y-53856000D01*
X141914476Y-53903619D01*
X141866857Y-53998857D01*
X141866857Y-54141714D01*
X141914476Y-54236952D01*
X141962095Y-54284571D01*
X142057333Y-54332190D01*
X142438285Y-54332190D01*
X140914476Y-54808380D02*
X141485904Y-54808380D01*
X141200190Y-54808380D02*
X141200190Y-53808380D01*
X141295428Y-53951238D01*
X141390666Y-54046476D01*
X141485904Y-54094095D01*
X139962095Y-54808380D02*
X140533523Y-54808380D01*
X140247809Y-54808380D02*
X140247809Y-53808380D01*
X140343047Y-53951238D01*
X140438285Y-54046476D01*
X140533523Y-54094095D01*
X164218857Y-65222380D02*
X164552190Y-64746190D01*
X164790285Y-65222380D02*
X164790285Y-64222380D01*
X164409333Y-64222380D01*
X164314095Y-64270000D01*
X164266476Y-64317619D01*
X164218857Y-64412857D01*
X164218857Y-64555714D01*
X164266476Y-64650952D01*
X164314095Y-64698571D01*
X164409333Y-64746190D01*
X164790285Y-64746190D01*
X163266476Y-65222380D02*
X163837904Y-65222380D01*
X163552190Y-65222380D02*
X163552190Y-64222380D01*
X163647428Y-64365238D01*
X163742666Y-64460476D01*
X163837904Y-64508095D01*
X162647428Y-64222380D02*
X162552190Y-64222380D01*
X162456952Y-64270000D01*
X162409333Y-64317619D01*
X162361714Y-64412857D01*
X162314095Y-64603333D01*
X162314095Y-64841428D01*
X162361714Y-65031904D01*
X162409333Y-65127142D01*
X162456952Y-65174761D01*
X162552190Y-65222380D01*
X162647428Y-65222380D01*
X162742666Y-65174761D01*
X162790285Y-65127142D01*
X162837904Y-65031904D01*
X162885523Y-64841428D01*
X162885523Y-64603333D01*
X162837904Y-64412857D01*
X162790285Y-64317619D01*
X162742666Y-64270000D01*
X162647428Y-64222380D01*
X141898666Y-86812380D02*
X142232000Y-86336190D01*
X142470095Y-86812380D02*
X142470095Y-85812380D01*
X142089142Y-85812380D01*
X141993904Y-85860000D01*
X141946285Y-85907619D01*
X141898666Y-86002857D01*
X141898666Y-86145714D01*
X141946285Y-86240952D01*
X141993904Y-86288571D01*
X142089142Y-86336190D01*
X142470095Y-86336190D01*
X141422476Y-86812380D02*
X141232000Y-86812380D01*
X141136761Y-86764761D01*
X141089142Y-86717142D01*
X140993904Y-86574285D01*
X140946285Y-86383809D01*
X140946285Y-86002857D01*
X140993904Y-85907619D01*
X141041523Y-85860000D01*
X141136761Y-85812380D01*
X141327238Y-85812380D01*
X141422476Y-85860000D01*
X141470095Y-85907619D01*
X141517714Y-86002857D01*
X141517714Y-86240952D01*
X141470095Y-86336190D01*
X141422476Y-86383809D01*
X141327238Y-86431428D01*
X141136761Y-86431428D01*
X141041523Y-86383809D01*
X140993904Y-86336190D01*
X140946285Y-86240952D01*
X177204666Y-75128380D02*
X177538000Y-74652190D01*
X177776095Y-75128380D02*
X177776095Y-74128380D01*
X177395142Y-74128380D01*
X177299904Y-74176000D01*
X177252285Y-74223619D01*
X177204666Y-74318857D01*
X177204666Y-74461714D01*
X177252285Y-74556952D01*
X177299904Y-74604571D01*
X177395142Y-74652190D01*
X177776095Y-74652190D01*
X176633238Y-74556952D02*
X176728476Y-74509333D01*
X176776095Y-74461714D01*
X176823714Y-74366476D01*
X176823714Y-74318857D01*
X176776095Y-74223619D01*
X176728476Y-74176000D01*
X176633238Y-74128380D01*
X176442761Y-74128380D01*
X176347523Y-74176000D01*
X176299904Y-74223619D01*
X176252285Y-74318857D01*
X176252285Y-74366476D01*
X176299904Y-74461714D01*
X176347523Y-74509333D01*
X176442761Y-74556952D01*
X176633238Y-74556952D01*
X176728476Y-74604571D01*
X176776095Y-74652190D01*
X176823714Y-74747428D01*
X176823714Y-74937904D01*
X176776095Y-75033142D01*
X176728476Y-75080761D01*
X176633238Y-75128380D01*
X176442761Y-75128380D01*
X176347523Y-75080761D01*
X176299904Y-75033142D01*
X176252285Y-74937904D01*
X176252285Y-74747428D01*
X176299904Y-74652190D01*
X176347523Y-74604571D01*
X176442761Y-74556952D01*
X163234666Y-67762380D02*
X163568000Y-67286190D01*
X163806095Y-67762380D02*
X163806095Y-66762380D01*
X163425142Y-66762380D01*
X163329904Y-66810000D01*
X163282285Y-66857619D01*
X163234666Y-66952857D01*
X163234666Y-67095714D01*
X163282285Y-67190952D01*
X163329904Y-67238571D01*
X163425142Y-67286190D01*
X163806095Y-67286190D01*
X162901333Y-66762380D02*
X162234666Y-66762380D01*
X162663238Y-67762380D01*
X141898666Y-84272380D02*
X142232000Y-83796190D01*
X142470095Y-84272380D02*
X142470095Y-83272380D01*
X142089142Y-83272380D01*
X141993904Y-83320000D01*
X141946285Y-83367619D01*
X141898666Y-83462857D01*
X141898666Y-83605714D01*
X141946285Y-83700952D01*
X141993904Y-83748571D01*
X142089142Y-83796190D01*
X142470095Y-83796190D01*
X141041523Y-83272380D02*
X141232000Y-83272380D01*
X141327238Y-83320000D01*
X141374857Y-83367619D01*
X141470095Y-83510476D01*
X141517714Y-83700952D01*
X141517714Y-84081904D01*
X141470095Y-84177142D01*
X141422476Y-84224761D01*
X141327238Y-84272380D01*
X141136761Y-84272380D01*
X141041523Y-84224761D01*
X140993904Y-84177142D01*
X140946285Y-84081904D01*
X140946285Y-83843809D01*
X140993904Y-83748571D01*
X141041523Y-83700952D01*
X141136761Y-83653333D01*
X141327238Y-83653333D01*
X141422476Y-83700952D01*
X141470095Y-83748571D01*
X141517714Y-83843809D01*
X177204666Y-80208380D02*
X177538000Y-79732190D01*
X177776095Y-80208380D02*
X177776095Y-79208380D01*
X177395142Y-79208380D01*
X177299904Y-79256000D01*
X177252285Y-79303619D01*
X177204666Y-79398857D01*
X177204666Y-79541714D01*
X177252285Y-79636952D01*
X177299904Y-79684571D01*
X177395142Y-79732190D01*
X177776095Y-79732190D01*
X176299904Y-79208380D02*
X176776095Y-79208380D01*
X176823714Y-79684571D01*
X176776095Y-79636952D01*
X176680857Y-79589333D01*
X176442761Y-79589333D01*
X176347523Y-79636952D01*
X176299904Y-79684571D01*
X176252285Y-79779809D01*
X176252285Y-80017904D01*
X176299904Y-80113142D01*
X176347523Y-80160761D01*
X176442761Y-80208380D01*
X176680857Y-80208380D01*
X176776095Y-80160761D01*
X176823714Y-80113142D01*
X177204666Y-77668380D02*
X177538000Y-77192190D01*
X177776095Y-77668380D02*
X177776095Y-76668380D01*
X177395142Y-76668380D01*
X177299904Y-76716000D01*
X177252285Y-76763619D01*
X177204666Y-76858857D01*
X177204666Y-77001714D01*
X177252285Y-77096952D01*
X177299904Y-77144571D01*
X177395142Y-77192190D01*
X177776095Y-77192190D01*
X176347523Y-77001714D02*
X176347523Y-77668380D01*
X176585619Y-76620761D02*
X176823714Y-77335047D01*
X176204666Y-77335047D01*
X141898666Y-71826380D02*
X142232000Y-71350190D01*
X142470095Y-71826380D02*
X142470095Y-70826380D01*
X142089142Y-70826380D01*
X141993904Y-70874000D01*
X141946285Y-70921619D01*
X141898666Y-71016857D01*
X141898666Y-71159714D01*
X141946285Y-71254952D01*
X141993904Y-71302571D01*
X142089142Y-71350190D01*
X142470095Y-71350190D01*
X141565333Y-70826380D02*
X140946285Y-70826380D01*
X141279619Y-71207333D01*
X141136761Y-71207333D01*
X141041523Y-71254952D01*
X140993904Y-71302571D01*
X140946285Y-71397809D01*
X140946285Y-71635904D01*
X140993904Y-71731142D01*
X141041523Y-71778761D01*
X141136761Y-71826380D01*
X141422476Y-71826380D01*
X141517714Y-71778761D01*
X141565333Y-71731142D01*
X141898666Y-81732380D02*
X142232000Y-81256190D01*
X142470095Y-81732380D02*
X142470095Y-80732380D01*
X142089142Y-80732380D01*
X141993904Y-80780000D01*
X141946285Y-80827619D01*
X141898666Y-80922857D01*
X141898666Y-81065714D01*
X141946285Y-81160952D01*
X141993904Y-81208571D01*
X142089142Y-81256190D01*
X142470095Y-81256190D01*
X141517714Y-80827619D02*
X141470095Y-80780000D01*
X141374857Y-80732380D01*
X141136761Y-80732380D01*
X141041523Y-80780000D01*
X140993904Y-80827619D01*
X140946285Y-80922857D01*
X140946285Y-81018095D01*
X140993904Y-81160952D01*
X141565333Y-81732380D01*
X140946285Y-81732380D01*
X141898666Y-79192380D02*
X142232000Y-78716190D01*
X142470095Y-79192380D02*
X142470095Y-78192380D01*
X142089142Y-78192380D01*
X141993904Y-78240000D01*
X141946285Y-78287619D01*
X141898666Y-78382857D01*
X141898666Y-78525714D01*
X141946285Y-78620952D01*
X141993904Y-78668571D01*
X142089142Y-78716190D01*
X142470095Y-78716190D01*
X140946285Y-79192380D02*
X141517714Y-79192380D01*
X141232000Y-79192380D02*
X141232000Y-78192380D01*
X141327238Y-78335238D01*
X141422476Y-78430476D01*
X141517714Y-78478095D01*
X162655238Y-119169619D02*
X162750476Y-119122000D01*
X162845714Y-119026761D01*
X162988571Y-118883904D01*
X163083809Y-118836285D01*
X163179047Y-118836285D01*
X163131428Y-119074380D02*
X163226666Y-119026761D01*
X163321904Y-118931523D01*
X163369523Y-118741047D01*
X163369523Y-118407714D01*
X163321904Y-118217238D01*
X163226666Y-118122000D01*
X163131428Y-118074380D01*
X162940952Y-118074380D01*
X162845714Y-118122000D01*
X162750476Y-118217238D01*
X162702857Y-118407714D01*
X162702857Y-118741047D01*
X162750476Y-118931523D01*
X162845714Y-119026761D01*
X162940952Y-119074380D01*
X163131428Y-119074380D01*
X161845714Y-118074380D02*
X162036190Y-118074380D01*
X162131428Y-118122000D01*
X162179047Y-118169619D01*
X162274285Y-118312476D01*
X162321904Y-118502952D01*
X162321904Y-118883904D01*
X162274285Y-118979142D01*
X162226666Y-119026761D01*
X162131428Y-119074380D01*
X161940952Y-119074380D01*
X161845714Y-119026761D01*
X161798095Y-118979142D01*
X161750476Y-118883904D01*
X161750476Y-118645809D01*
X161798095Y-118550571D01*
X161845714Y-118502952D01*
X161940952Y-118455333D01*
X162131428Y-118455333D01*
X162226666Y-118502952D01*
X162274285Y-118550571D01*
X162321904Y-118645809D01*
X127095238Y-80557619D02*
X127190476Y-80510000D01*
X127285714Y-80414761D01*
X127428571Y-80271904D01*
X127523809Y-80224285D01*
X127619047Y-80224285D01*
X127571428Y-80462380D02*
X127666666Y-80414761D01*
X127761904Y-80319523D01*
X127809523Y-80129047D01*
X127809523Y-79795714D01*
X127761904Y-79605238D01*
X127666666Y-79510000D01*
X127571428Y-79462380D01*
X127380952Y-79462380D01*
X127285714Y-79510000D01*
X127190476Y-79605238D01*
X127142857Y-79795714D01*
X127142857Y-80129047D01*
X127190476Y-80319523D01*
X127285714Y-80414761D01*
X127380952Y-80462380D01*
X127571428Y-80462380D01*
X126238095Y-79462380D02*
X126714285Y-79462380D01*
X126761904Y-79938571D01*
X126714285Y-79890952D01*
X126619047Y-79843333D01*
X126380952Y-79843333D01*
X126285714Y-79890952D01*
X126238095Y-79938571D01*
X126190476Y-80033809D01*
X126190476Y-80271904D01*
X126238095Y-80367142D01*
X126285714Y-80414761D01*
X126380952Y-80462380D01*
X126619047Y-80462380D01*
X126714285Y-80414761D01*
X126761904Y-80367142D01*
X162655238Y-107735619D02*
X162750476Y-107688000D01*
X162845714Y-107592761D01*
X162988571Y-107449904D01*
X163083809Y-107402285D01*
X163179047Y-107402285D01*
X163131428Y-107640380D02*
X163226666Y-107592761D01*
X163321904Y-107497523D01*
X163369523Y-107307047D01*
X163369523Y-106973714D01*
X163321904Y-106783238D01*
X163226666Y-106688000D01*
X163131428Y-106640380D01*
X162940952Y-106640380D01*
X162845714Y-106688000D01*
X162750476Y-106783238D01*
X162702857Y-106973714D01*
X162702857Y-107307047D01*
X162750476Y-107497523D01*
X162845714Y-107592761D01*
X162940952Y-107640380D01*
X163131428Y-107640380D01*
X161845714Y-106973714D02*
X161845714Y-107640380D01*
X162083809Y-106592761D02*
X162321904Y-107307047D01*
X161702857Y-107307047D01*
X136239238Y-53887619D02*
X136334476Y-53840000D01*
X136429714Y-53744761D01*
X136572571Y-53601904D01*
X136667809Y-53554285D01*
X136763047Y-53554285D01*
X136715428Y-53792380D02*
X136810666Y-53744761D01*
X136905904Y-53649523D01*
X136953523Y-53459047D01*
X136953523Y-53125714D01*
X136905904Y-52935238D01*
X136810666Y-52840000D01*
X136715428Y-52792380D01*
X136524952Y-52792380D01*
X136429714Y-52840000D01*
X136334476Y-52935238D01*
X136286857Y-53125714D01*
X136286857Y-53459047D01*
X136334476Y-53649523D01*
X136429714Y-53744761D01*
X136524952Y-53792380D01*
X136715428Y-53792380D01*
X135953523Y-52792380D02*
X135334476Y-52792380D01*
X135667809Y-53173333D01*
X135524952Y-53173333D01*
X135429714Y-53220952D01*
X135382095Y-53268571D01*
X135334476Y-53363809D01*
X135334476Y-53601904D01*
X135382095Y-53697142D01*
X135429714Y-53744761D01*
X135524952Y-53792380D01*
X135810666Y-53792380D01*
X135905904Y-53744761D01*
X135953523Y-53697142D01*
X169005238Y-70143619D02*
X169100476Y-70096000D01*
X169195714Y-70000761D01*
X169338571Y-69857904D01*
X169433809Y-69810285D01*
X169529047Y-69810285D01*
X169481428Y-70048380D02*
X169576666Y-70000761D01*
X169671904Y-69905523D01*
X169719523Y-69715047D01*
X169719523Y-69381714D01*
X169671904Y-69191238D01*
X169576666Y-69096000D01*
X169481428Y-69048380D01*
X169290952Y-69048380D01*
X169195714Y-69096000D01*
X169100476Y-69191238D01*
X169052857Y-69381714D01*
X169052857Y-69715047D01*
X169100476Y-69905523D01*
X169195714Y-70000761D01*
X169290952Y-70048380D01*
X169481428Y-70048380D01*
X168671904Y-69143619D02*
X168624285Y-69096000D01*
X168529047Y-69048380D01*
X168290952Y-69048380D01*
X168195714Y-69096000D01*
X168148095Y-69143619D01*
X168100476Y-69238857D01*
X168100476Y-69334095D01*
X168148095Y-69476952D01*
X168719523Y-70048380D01*
X168100476Y-70048380D01*
X169005238Y-81323619D02*
X169100476Y-81276000D01*
X169195714Y-81180761D01*
X169338571Y-81037904D01*
X169433809Y-80990285D01*
X169529047Y-80990285D01*
X169481428Y-81228380D02*
X169576666Y-81180761D01*
X169671904Y-81085523D01*
X169719523Y-80895047D01*
X169719523Y-80561714D01*
X169671904Y-80371238D01*
X169576666Y-80276000D01*
X169481428Y-80228380D01*
X169290952Y-80228380D01*
X169195714Y-80276000D01*
X169100476Y-80371238D01*
X169052857Y-80561714D01*
X169052857Y-80895047D01*
X169100476Y-81085523D01*
X169195714Y-81180761D01*
X169290952Y-81228380D01*
X169481428Y-81228380D01*
X168100476Y-81228380D02*
X168671904Y-81228380D01*
X168386190Y-81228380D02*
X168386190Y-80228380D01*
X168481428Y-80371238D01*
X168576666Y-80466476D01*
X168671904Y-80514095D01*
X193373333Y-54272380D02*
X193373333Y-54986666D01*
X193420952Y-55129523D01*
X193516190Y-55224761D01*
X193659047Y-55272380D01*
X193754285Y-55272380D01*
X192373333Y-55272380D02*
X192944761Y-55272380D01*
X192659047Y-55272380D02*
X192659047Y-54272380D01*
X192754285Y-54415238D01*
X192849523Y-54510476D01*
X192944761Y-54558095D01*
X122912095Y-74366380D02*
X122912095Y-73366380D01*
X122674000Y-73366380D01*
X122531142Y-73414000D01*
X122435904Y-73509238D01*
X122388285Y-73604476D01*
X122340666Y-73794952D01*
X122340666Y-73937809D01*
X122388285Y-74128285D01*
X122435904Y-74223523D01*
X122531142Y-74318761D01*
X122674000Y-74366380D01*
X122912095Y-74366380D01*
X122007333Y-73366380D02*
X121388285Y-73366380D01*
X121721619Y-73747333D01*
X121578761Y-73747333D01*
X121483523Y-73794952D01*
X121435904Y-73842571D01*
X121388285Y-73937809D01*
X121388285Y-74175904D01*
X121435904Y-74271142D01*
X121483523Y-74318761D01*
X121578761Y-74366380D01*
X121864476Y-74366380D01*
X121959714Y-74318761D01*
X122007333Y-74271142D01*
X132341904Y-72566380D02*
X132341904Y-71566380D01*
X131770476Y-72566380D02*
X132199047Y-71994952D01*
X131770476Y-71566380D02*
X132341904Y-72137809D01*
X136374095Y-66238380D02*
X136374095Y-65238380D01*
X136136000Y-65238380D01*
X135993142Y-65286000D01*
X135897904Y-65381238D01*
X135850285Y-65476476D01*
X135802666Y-65666952D01*
X135802666Y-65809809D01*
X135850285Y-66000285D01*
X135897904Y-66095523D01*
X135993142Y-66190761D01*
X136136000Y-66238380D01*
X136374095Y-66238380D01*
X135421714Y-65333619D02*
X135374095Y-65286000D01*
X135278857Y-65238380D01*
X135040761Y-65238380D01*
X134945523Y-65286000D01*
X134897904Y-65333619D01*
X134850285Y-65428857D01*
X134850285Y-65524095D01*
X134897904Y-65666952D01*
X135469333Y-66238380D01*
X134850285Y-66238380D01*
X145803904Y-64438380D02*
X145803904Y-63438380D01*
X145232476Y-64438380D02*
X145661047Y-63866952D01*
X145232476Y-63438380D02*
X145803904Y-64009809D01*
X136374095Y-69032380D02*
X136374095Y-68032380D01*
X136136000Y-68032380D01*
X135993142Y-68080000D01*
X135897904Y-68175238D01*
X135850285Y-68270476D01*
X135802666Y-68460952D01*
X135802666Y-68603809D01*
X135850285Y-68794285D01*
X135897904Y-68889523D01*
X135993142Y-68984761D01*
X136136000Y-69032380D01*
X136374095Y-69032380D01*
X134850285Y-69032380D02*
X135421714Y-69032380D01*
X135136000Y-69032380D02*
X135136000Y-68032380D01*
X135231238Y-68175238D01*
X135326476Y-68270476D01*
X135421714Y-68318095D01*
X138183904Y-70832380D02*
X138183904Y-69832380D01*
X137612476Y-70832380D02*
X138041047Y-70260952D01*
X137612476Y-69832380D02*
X138183904Y-70403809D01*
X142120857Y-113387142D02*
X142168476Y-113434761D01*
X142311333Y-113482380D01*
X142406571Y-113482380D01*
X142549428Y-113434761D01*
X142644666Y-113339523D01*
X142692285Y-113244285D01*
X142739904Y-113053809D01*
X142739904Y-112910952D01*
X142692285Y-112720476D01*
X142644666Y-112625238D01*
X142549428Y-112530000D01*
X142406571Y-112482380D01*
X142311333Y-112482380D01*
X142168476Y-112530000D01*
X142120857Y-112577619D01*
X141168476Y-113482380D02*
X141739904Y-113482380D01*
X141454190Y-113482380D02*
X141454190Y-112482380D01*
X141549428Y-112625238D01*
X141644666Y-112720476D01*
X141739904Y-112768095D01*
X140311333Y-112482380D02*
X140501809Y-112482380D01*
X140597047Y-112530000D01*
X140644666Y-112577619D01*
X140739904Y-112720476D01*
X140787523Y-112910952D01*
X140787523Y-113291904D01*
X140739904Y-113387142D01*
X140692285Y-113434761D01*
X140597047Y-113482380D01*
X140406571Y-113482380D01*
X140311333Y-113434761D01*
X140263714Y-113387142D01*
X140216095Y-113291904D01*
X140216095Y-113053809D01*
X140263714Y-112958571D01*
X140311333Y-112910952D01*
X140406571Y-112863333D01*
X140597047Y-112863333D01*
X140692285Y-112910952D01*
X140739904Y-112958571D01*
X140787523Y-113053809D01*
X146515057Y-107291142D02*
X146562676Y-107338761D01*
X146705533Y-107386380D01*
X146800771Y-107386380D01*
X146943628Y-107338761D01*
X147038866Y-107243523D01*
X147086485Y-107148285D01*
X147134104Y-106957809D01*
X147134104Y-106814952D01*
X147086485Y-106624476D01*
X147038866Y-106529238D01*
X146943628Y-106434000D01*
X146800771Y-106386380D01*
X146705533Y-106386380D01*
X146562676Y-106434000D01*
X146515057Y-106481619D01*
X145562676Y-107386380D02*
X146134104Y-107386380D01*
X145848390Y-107386380D02*
X145848390Y-106386380D01*
X145943628Y-106529238D01*
X146038866Y-106624476D01*
X146134104Y-106672095D01*
X144657914Y-106386380D02*
X145134104Y-106386380D01*
X145181723Y-106862571D01*
X145134104Y-106814952D01*
X145038866Y-106767333D01*
X144800771Y-106767333D01*
X144705533Y-106814952D01*
X144657914Y-106862571D01*
X144610295Y-106957809D01*
X144610295Y-107195904D01*
X144657914Y-107291142D01*
X144705533Y-107338761D01*
X144800771Y-107386380D01*
X145038866Y-107386380D01*
X145134104Y-107338761D01*
X145181723Y-107291142D01*
X158351457Y-106478342D02*
X158399076Y-106525961D01*
X158541933Y-106573580D01*
X158637171Y-106573580D01*
X158780028Y-106525961D01*
X158875266Y-106430723D01*
X158922885Y-106335485D01*
X158970504Y-106145009D01*
X158970504Y-106002152D01*
X158922885Y-105811676D01*
X158875266Y-105716438D01*
X158780028Y-105621200D01*
X158637171Y-105573580D01*
X158541933Y-105573580D01*
X158399076Y-105621200D01*
X158351457Y-105668819D01*
X157399076Y-106573580D02*
X157970504Y-106573580D01*
X157684790Y-106573580D02*
X157684790Y-105573580D01*
X157780028Y-105716438D01*
X157875266Y-105811676D01*
X157970504Y-105859295D01*
X156541933Y-105906914D02*
X156541933Y-106573580D01*
X156780028Y-105525961D02*
X157018123Y-106240247D01*
X156399076Y-106240247D01*
X147759657Y-91187542D02*
X147807276Y-91235161D01*
X147950133Y-91282780D01*
X148045371Y-91282780D01*
X148188228Y-91235161D01*
X148283466Y-91139923D01*
X148331085Y-91044685D01*
X148378704Y-90854209D01*
X148378704Y-90711352D01*
X148331085Y-90520876D01*
X148283466Y-90425638D01*
X148188228Y-90330400D01*
X148045371Y-90282780D01*
X147950133Y-90282780D01*
X147807276Y-90330400D01*
X147759657Y-90378019D01*
X146807276Y-91282780D02*
X147378704Y-91282780D01*
X147092990Y-91282780D02*
X147092990Y-90282780D01*
X147188228Y-90425638D01*
X147283466Y-90520876D01*
X147378704Y-90568495D01*
X146473942Y-90282780D02*
X145854895Y-90282780D01*
X146188228Y-90663733D01*
X146045371Y-90663733D01*
X145950133Y-90711352D01*
X145902514Y-90758971D01*
X145854895Y-90854209D01*
X145854895Y-91092304D01*
X145902514Y-91187542D01*
X145950133Y-91235161D01*
X146045371Y-91282780D01*
X146331085Y-91282780D01*
X146426323Y-91235161D01*
X146473942Y-91187542D01*
X158529257Y-91136742D02*
X158576876Y-91184361D01*
X158719733Y-91231980D01*
X158814971Y-91231980D01*
X158957828Y-91184361D01*
X159053066Y-91089123D01*
X159100685Y-90993885D01*
X159148304Y-90803409D01*
X159148304Y-90660552D01*
X159100685Y-90470076D01*
X159053066Y-90374838D01*
X158957828Y-90279600D01*
X158814971Y-90231980D01*
X158719733Y-90231980D01*
X158576876Y-90279600D01*
X158529257Y-90327219D01*
X157576876Y-91231980D02*
X158148304Y-91231980D01*
X157862590Y-91231980D02*
X157862590Y-90231980D01*
X157957828Y-90374838D01*
X158053066Y-90470076D01*
X158148304Y-90517695D01*
X157195923Y-90327219D02*
X157148304Y-90279600D01*
X157053066Y-90231980D01*
X156814971Y-90231980D01*
X156719733Y-90279600D01*
X156672114Y-90327219D01*
X156624495Y-90422457D01*
X156624495Y-90517695D01*
X156672114Y-90660552D01*
X157243542Y-91231980D01*
X156624495Y-91231980D01*
X146649457Y-76430142D02*
X146697076Y-76477761D01*
X146839933Y-76525380D01*
X146935171Y-76525380D01*
X147078028Y-76477761D01*
X147173266Y-76382523D01*
X147220885Y-76287285D01*
X147268504Y-76096809D01*
X147268504Y-75953952D01*
X147220885Y-75763476D01*
X147173266Y-75668238D01*
X147078028Y-75573000D01*
X146935171Y-75525380D01*
X146839933Y-75525380D01*
X146697076Y-75573000D01*
X146649457Y-75620619D01*
X145697076Y-76525380D02*
X146268504Y-76525380D01*
X145982790Y-76525380D02*
X145982790Y-75525380D01*
X146078028Y-75668238D01*
X146173266Y-75763476D01*
X146268504Y-75811095D01*
X144744695Y-76525380D02*
X145316123Y-76525380D01*
X145030409Y-76525380D02*
X145030409Y-75525380D01*
X145125647Y-75668238D01*
X145220885Y-75763476D01*
X145316123Y-75811095D01*
X158961057Y-76430142D02*
X159008676Y-76477761D01*
X159151533Y-76525380D01*
X159246771Y-76525380D01*
X159389628Y-76477761D01*
X159484866Y-76382523D01*
X159532485Y-76287285D01*
X159580104Y-76096809D01*
X159580104Y-75953952D01*
X159532485Y-75763476D01*
X159484866Y-75668238D01*
X159389628Y-75573000D01*
X159246771Y-75525380D01*
X159151533Y-75525380D01*
X159008676Y-75573000D01*
X158961057Y-75620619D01*
X158008676Y-76525380D02*
X158580104Y-76525380D01*
X158294390Y-76525380D02*
X158294390Y-75525380D01*
X158389628Y-75668238D01*
X158484866Y-75763476D01*
X158580104Y-75811095D01*
X157389628Y-75525380D02*
X157294390Y-75525380D01*
X157199152Y-75573000D01*
X157151533Y-75620619D01*
X157103914Y-75715857D01*
X157056295Y-75906333D01*
X157056295Y-76144428D01*
X157103914Y-76334904D01*
X157151533Y-76430142D01*
X157199152Y-76477761D01*
X157294390Y-76525380D01*
X157389628Y-76525380D01*
X157484866Y-76477761D01*
X157532485Y-76430142D01*
X157580104Y-76334904D01*
X157627723Y-76144428D01*
X157627723Y-75906333D01*
X157580104Y-75715857D01*
X157532485Y-75620619D01*
X157484866Y-75573000D01*
X157389628Y-75525380D01*
X148680466Y-52401742D02*
X148728085Y-52449361D01*
X148870942Y-52496980D01*
X148966180Y-52496980D01*
X149109038Y-52449361D01*
X149204276Y-52354123D01*
X149251895Y-52258885D01*
X149299514Y-52068409D01*
X149299514Y-51925552D01*
X149251895Y-51735076D01*
X149204276Y-51639838D01*
X149109038Y-51544600D01*
X148966180Y-51496980D01*
X148870942Y-51496980D01*
X148728085Y-51544600D01*
X148680466Y-51592219D01*
X148204276Y-52496980D02*
X148013800Y-52496980D01*
X147918561Y-52449361D01*
X147870942Y-52401742D01*
X147775704Y-52258885D01*
X147728085Y-52068409D01*
X147728085Y-51687457D01*
X147775704Y-51592219D01*
X147823323Y-51544600D01*
X147918561Y-51496980D01*
X148109038Y-51496980D01*
X148204276Y-51544600D01*
X148251895Y-51592219D01*
X148299514Y-51687457D01*
X148299514Y-51925552D01*
X148251895Y-52020790D01*
X148204276Y-52068409D01*
X148109038Y-52116028D01*
X147918561Y-52116028D01*
X147823323Y-52068409D01*
X147775704Y-52020790D01*
X147728085Y-51925552D01*
X162726666Y-58904142D02*
X162774285Y-58951761D01*
X162917142Y-58999380D01*
X163012380Y-58999380D01*
X163155238Y-58951761D01*
X163250476Y-58856523D01*
X163298095Y-58761285D01*
X163345714Y-58570809D01*
X163345714Y-58427952D01*
X163298095Y-58237476D01*
X163250476Y-58142238D01*
X163155238Y-58047000D01*
X163012380Y-57999380D01*
X162917142Y-57999380D01*
X162774285Y-58047000D01*
X162726666Y-58094619D01*
X162155238Y-58427952D02*
X162250476Y-58380333D01*
X162298095Y-58332714D01*
X162345714Y-58237476D01*
X162345714Y-58189857D01*
X162298095Y-58094619D01*
X162250476Y-58047000D01*
X162155238Y-57999380D01*
X161964761Y-57999380D01*
X161869523Y-58047000D01*
X161821904Y-58094619D01*
X161774285Y-58189857D01*
X161774285Y-58237476D01*
X161821904Y-58332714D01*
X161869523Y-58380333D01*
X161964761Y-58427952D01*
X162155238Y-58427952D01*
X162250476Y-58475571D01*
X162298095Y-58523190D01*
X162345714Y-58618428D01*
X162345714Y-58808904D01*
X162298095Y-58904142D01*
X162250476Y-58951761D01*
X162155238Y-58999380D01*
X161964761Y-58999380D01*
X161869523Y-58951761D01*
X161821904Y-58904142D01*
X161774285Y-58808904D01*
X161774285Y-58618428D01*
X161821904Y-58523190D01*
X161869523Y-58475571D01*
X161964761Y-58427952D01*
X163488666Y-81637142D02*
X163536285Y-81684761D01*
X163679142Y-81732380D01*
X163774380Y-81732380D01*
X163917238Y-81684761D01*
X164012476Y-81589523D01*
X164060095Y-81494285D01*
X164107714Y-81303809D01*
X164107714Y-81160952D01*
X164060095Y-80970476D01*
X164012476Y-80875238D01*
X163917238Y-80780000D01*
X163774380Y-80732380D01*
X163679142Y-80732380D01*
X163536285Y-80780000D01*
X163488666Y-80827619D01*
X163155333Y-80732380D02*
X162536285Y-80732380D01*
X162869619Y-81113333D01*
X162726761Y-81113333D01*
X162631523Y-81160952D01*
X162583904Y-81208571D01*
X162536285Y-81303809D01*
X162536285Y-81541904D01*
X162583904Y-81637142D01*
X162631523Y-81684761D01*
X162726761Y-81732380D01*
X163012476Y-81732380D01*
X163107714Y-81684761D01*
X163155333Y-81637142D01*
X141898666Y-62333142D02*
X141946285Y-62380761D01*
X142089142Y-62428380D01*
X142184380Y-62428380D01*
X142327238Y-62380761D01*
X142422476Y-62285523D01*
X142470095Y-62190285D01*
X142517714Y-61999809D01*
X142517714Y-61856952D01*
X142470095Y-61666476D01*
X142422476Y-61571238D01*
X142327238Y-61476000D01*
X142184380Y-61428380D01*
X142089142Y-61428380D01*
X141946285Y-61476000D01*
X141898666Y-61523619D01*
X141517714Y-61523619D02*
X141470095Y-61476000D01*
X141374857Y-61428380D01*
X141136761Y-61428380D01*
X141041523Y-61476000D01*
X140993904Y-61523619D01*
X140946285Y-61618857D01*
X140946285Y-61714095D01*
X140993904Y-61856952D01*
X141565333Y-62428380D01*
X140946285Y-62428380D01*
X134532666Y-74271142D02*
X134580285Y-74318761D01*
X134723142Y-74366380D01*
X134818380Y-74366380D01*
X134961238Y-74318761D01*
X135056476Y-74223523D01*
X135104095Y-74128285D01*
X135151714Y-73937809D01*
X135151714Y-73794952D01*
X135104095Y-73604476D01*
X135056476Y-73509238D01*
X134961238Y-73414000D01*
X134818380Y-73366380D01*
X134723142Y-73366380D01*
X134580285Y-73414000D01*
X134532666Y-73461619D01*
X133580285Y-74366380D02*
X134151714Y-74366380D01*
X133866000Y-74366380D02*
X133866000Y-73366380D01*
X133961238Y-73509238D01*
X134056476Y-73604476D01*
X134151714Y-73652095D01*
M02*
