M48
; DRILL file {KiCad 5.1.6-c6e7f7d~86~ubuntu18.04.1} date Sun Jun 21 16:50:36 2020
; FORMAT={-:-/ absolute / metric / decimal}
; #@! TF.CreationDate,2020-06-21T16:50:36-04:00
; #@! TF.GenerationSoftware,Kicad,Pcbnew,5.1.6-c6e7f7d~86~ubuntu18.04.1
; #@! TF.FileFunction,Plated,1,2,PTH
FMAT,2
METRIC
T1C0.400
T2C0.750
T3C0.800
T4C1.000
T5C1.100
%
G90
G05
T1
X124.841Y-79.375
X126.111Y-91.186
X133.35Y-85.852
X136.373Y-81.026
X137.973Y-88.265
X138.405Y-72.644
X139.09Y-103.911
X140.081Y-107.168
X140.081Y-109.398
X141.173Y-86.792
X141.326Y-78.638
X141.707Y-108.382
X141.783Y-104.292
X141.986Y-113.538
X142.418Y-84.201
X142.443Y-99.06
X142.494Y-72.415
X142.697Y-56.896
X142.977Y-111.887
X144.043Y-107.493
X144.628Y-109.195
X145.39Y-77.318
X145.72Y-88.544
X146.05Y-97.384
X146.355Y-94.412
X150.063Y-89.256
X150.216Y-74.371
X150.47Y-80.315
X151.13Y-115.57
X154.61Y-109.22
X155.448Y-103.784
X158.394Y-74.371
X158.521Y-109.245
X158.674Y-78.74
X158.75Y-114.3
X159.334Y-86.208
X162.331Y-89.738
X162.433Y-103.886
X162.687Y-101.676
X163.143Y-85.864
X164.643Y-74.117
X164.922Y-78.461
X167.386Y-104.521
X178.892Y-69.647
X179.197Y-78.232
X181.686Y-109.906
X185.064Y-107.645
T2
X167.64Y-77.216
X168.91Y-77.216
X170.18Y-77.216
X136.144Y-55.626
X136.144Y-56.896
X136.144Y-58.166
X127.0Y-82.55
X127.0Y-83.82
X127.0Y-85.09
X161.29Y-109.982
X162.56Y-109.982
X163.83Y-109.982
X161.29Y-115.062
X162.56Y-115.062
X163.83Y-115.062
X167.64Y-72.39
X168.91Y-72.39
X170.18Y-72.39
T3
X148.59Y-54.61
X148.59Y-57.15
X148.59Y-59.69
X148.59Y-62.23
X148.59Y-64.77
X148.59Y-67.31
X148.59Y-69.85
X148.59Y-72.39
X156.21Y-54.61
X156.21Y-57.15
X156.21Y-59.69
X156.21Y-62.23
X156.21Y-64.77
X156.21Y-67.31
X156.21Y-69.85
X156.21Y-72.39
X124.46Y-73.914
X132.08Y-73.914
X119.166Y-78.105
X121.666Y-78.105
X137.922Y-65.786
X145.542Y-65.786
X148.59Y-107.95
X148.59Y-110.49
X148.59Y-113.03
X148.59Y-115.57
X156.21Y-107.95
X156.21Y-110.49
X156.21Y-113.03
X156.21Y-115.57
X148.59Y-78.74
X148.59Y-81.28
X148.59Y-83.82
X148.59Y-86.36
X156.21Y-78.74
X156.21Y-81.28
X156.21Y-83.82
X156.21Y-86.36
X189.611Y-82.296
X189.611Y-84.796
X137.922Y-68.58
X145.542Y-68.58
X137.668Y-93.218
X140.208Y-93.218
X142.748Y-93.218
X176.276Y-109.22
X176.276Y-111.76
X176.276Y-114.3
X129.326Y-90.043
X131.826Y-90.043
X195.834Y-78.145
X195.834Y-80.645
X148.59Y-93.98
X148.59Y-96.52
X148.59Y-99.06
X148.59Y-101.6
X156.21Y-93.98
X156.21Y-96.52
X156.21Y-99.06
X156.21Y-101.6
X168.402Y-86.614
X168.402Y-89.154
X168.402Y-91.694
T4
X174.03Y-104.14
X176.53Y-104.14
X179.03Y-104.14
X106.68Y-76.2
X106.68Y-78.74
X106.68Y-81.28
X106.68Y-83.82
X123.23Y-104.14
X125.73Y-104.14
X128.23Y-104.14
X123.23Y-66.04
X125.73Y-66.04
X128.23Y-66.04
X106.68Y-101.6
X106.68Y-104.14
X106.68Y-106.68
X106.68Y-109.22
X106.68Y-111.76
X106.68Y-114.3
X174.03Y-66.04
X176.53Y-66.04
X179.03Y-66.04
X191.77Y-57.15
X191.77Y-59.69
X191.77Y-62.23
X191.77Y-64.77
X191.77Y-67.31
X194.31Y-57.15
X194.31Y-59.69
X194.31Y-62.23
X194.31Y-64.77
X194.31Y-67.31
T5
G00X120.93Y-96.99
M15
G01X120.93Y-96.29
M16
G05
G00X130.53Y-96.99
M15
G01X130.53Y-96.29
M16
G05
G00X120.93Y-58.89
M15
G01X120.93Y-58.19
M16
G05
G00X171.73Y-58.89
M15
G01X171.73Y-58.19
M16
G05
G00X181.33Y-58.89
M15
G01X181.33Y-58.19
M16
G05
G00X171.73Y-96.99
M15
G01X171.73Y-96.29
M16
G05
G00X181.33Y-96.99
M15
G01X181.33Y-96.29
M16
G05
G00X130.53Y-58.89
M15
G01X130.53Y-58.19
M16
G05
T0
M30
