G04 #@! TF.GenerationSoftware,KiCad,Pcbnew,5.1.6-c6e7f7d~86~ubuntu18.04.1*
G04 #@! TF.CreationDate,2020-06-21T16:50:38-04:00*
G04 #@! TF.ProjectId,modulation_source,6d6f6475-6c61-4746-996f-6e5f736f7572,rev?*
G04 #@! TF.SameCoordinates,Original*
G04 #@! TF.FileFunction,Soldermask,Top*
G04 #@! TF.FilePolarity,Negative*
%FSLAX46Y46*%
G04 Gerber Fmt 4.6, Leading zero omitted, Abs format (unit mm)*
G04 Created by KiCad (PCBNEW 5.1.6-c6e7f7d~86~ubuntu18.04.1) date 2020-06-21 16:50:38*
%MOMM*%
%LPD*%
G01*
G04 APERTURE LIST*
%ADD10C,1.700000*%
%ADD11R,1.700000X1.700000*%
%ADD12O,2.820000X3.340000*%
%ADD13C,1.900000*%
%ADD14R,1.900000X1.900000*%
%ADD15O,1.800000X1.800000*%
%ADD16R,1.800000X1.800000*%
%ADD17O,1.700000X1.700000*%
%ADD18C,1.540000*%
%ADD19R,1.150000X1.600000*%
%ADD20O,1.150000X1.600000*%
%ADD21R,1.600000X1.150000*%
%ADD22O,1.600000X1.150000*%
G04 APERTURE END LIST*
D10*
X195834000Y-78145000D03*
D11*
X195834000Y-80645000D03*
D10*
X189611000Y-84796000D03*
D11*
X189611000Y-82296000D03*
D10*
X129326000Y-90043000D03*
D11*
X131826000Y-90043000D03*
D10*
X121666000Y-78105000D03*
D11*
X119166000Y-78105000D03*
D12*
X171730000Y-58540000D03*
X181330000Y-58540000D03*
D13*
X179030000Y-66040000D03*
X176530000Y-66040000D03*
D14*
X174030000Y-66040000D03*
D12*
X120930000Y-96640000D03*
X130530000Y-96640000D03*
D13*
X128230000Y-104140000D03*
X125730000Y-104140000D03*
D14*
X123230000Y-104140000D03*
D12*
X171730000Y-96640000D03*
X181330000Y-96640000D03*
D13*
X179030000Y-104140000D03*
X176530000Y-104140000D03*
D14*
X174030000Y-104140000D03*
D12*
X120930000Y-58540000D03*
X130530000Y-58540000D03*
D13*
X128230000Y-66040000D03*
X125730000Y-66040000D03*
D14*
X123230000Y-66040000D03*
D15*
X106680000Y-114300000D03*
X106680000Y-111760000D03*
X106680000Y-109220000D03*
X106680000Y-106680000D03*
X106680000Y-104140000D03*
D16*
X106680000Y-101600000D03*
D15*
X106680000Y-83820000D03*
X106680000Y-81280000D03*
X106680000Y-78740000D03*
D16*
X106680000Y-76200000D03*
D17*
X156210000Y-101600000D03*
X148590000Y-93980000D03*
X156210000Y-99060000D03*
X148590000Y-96520000D03*
X156210000Y-96520000D03*
X148590000Y-99060000D03*
X156210000Y-93980000D03*
D11*
X148590000Y-101600000D03*
D17*
X156210000Y-86360000D03*
X148590000Y-78740000D03*
X156210000Y-83820000D03*
X148590000Y-81280000D03*
X156210000Y-81280000D03*
X148590000Y-83820000D03*
X156210000Y-78740000D03*
D11*
X148590000Y-86360000D03*
D17*
X156210000Y-115570000D03*
X148590000Y-107950000D03*
X156210000Y-113030000D03*
X148590000Y-110490000D03*
X156210000Y-110490000D03*
X148590000Y-113030000D03*
X156210000Y-107950000D03*
D11*
X148590000Y-115570000D03*
D17*
X156210000Y-72390000D03*
X148590000Y-54610000D03*
X156210000Y-69850000D03*
X148590000Y-57150000D03*
X156210000Y-67310000D03*
X148590000Y-59690000D03*
X156210000Y-64770000D03*
X148590000Y-62230000D03*
X156210000Y-62230000D03*
X148590000Y-64770000D03*
X156210000Y-59690000D03*
X148590000Y-67310000D03*
X156210000Y-57150000D03*
X148590000Y-69850000D03*
X156210000Y-54610000D03*
D11*
X148590000Y-72390000D03*
D18*
X137668000Y-93218000D03*
X140208000Y-93218000D03*
X142748000Y-93218000D03*
X176276000Y-109220000D03*
X176276000Y-111760000D03*
X176276000Y-114300000D03*
X168402000Y-86614000D03*
X168402000Y-89154000D03*
X168402000Y-91694000D03*
D19*
X161290000Y-115062000D03*
D20*
X163830000Y-115062000D03*
X162560000Y-115062000D03*
D21*
X127000000Y-82550000D03*
D22*
X127000000Y-85090000D03*
X127000000Y-83820000D03*
D19*
X161290000Y-109982000D03*
D20*
X163830000Y-109982000D03*
X162560000Y-109982000D03*
D21*
X136144000Y-58166000D03*
D22*
X136144000Y-55626000D03*
X136144000Y-56896000D03*
D19*
X167640000Y-72390000D03*
D20*
X170180000Y-72390000D03*
X168910000Y-72390000D03*
D19*
X167640000Y-77216000D03*
D20*
X170180000Y-77216000D03*
X168910000Y-77216000D03*
D15*
X191770000Y-67310000D03*
X194310000Y-67310000D03*
X191770000Y-64770000D03*
X194310000Y-64770000D03*
X191770000Y-62230000D03*
X194310000Y-62230000D03*
X191770000Y-59690000D03*
X194310000Y-59690000D03*
X191770000Y-57150000D03*
D16*
X194310000Y-57150000D03*
D17*
X124460000Y-73914000D03*
D11*
X132080000Y-73914000D03*
D17*
X137922000Y-65786000D03*
D11*
X145542000Y-65786000D03*
D17*
X145542000Y-68580000D03*
D11*
X137922000Y-68580000D03*
M02*
