G04 #@! TF.GenerationSoftware,KiCad,Pcbnew,5.1.6-c6e7f7d~86~ubuntu18.04.1*
G04 #@! TF.CreationDate,2020-06-22T07:49:52-04:00*
G04 #@! TF.ProjectId,modulation_source,6d6f6475-6c61-4746-996f-6e5f736f7572,rev?*
G04 #@! TF.SameCoordinates,Original*
G04 #@! TF.FileFunction,Legend,Top*
G04 #@! TF.FilePolarity,Positive*
%FSLAX46Y46*%
G04 Gerber Fmt 4.6, Leading zero omitted, Abs format (unit mm)*
G04 Created by KiCad (PCBNEW 5.1.6-c6e7f7d~86~ubuntu18.04.1) date 2020-06-22 07:49:52*
%MOMM*%
%LPD*%
G01*
G04 APERTURE LIST*
%ADD10C,0.120000*%
%ADD11C,0.150000*%
G04 APERTURE END LIST*
D10*
X178190000Y-65160000D02*
X177360000Y-65160000D01*
X175740000Y-65160000D02*
X175210000Y-65160000D01*
X172840000Y-65160000D02*
X171660000Y-65160000D01*
X181400000Y-65160000D02*
X181400000Y-60440000D01*
X171660000Y-56630000D02*
X171660000Y-53570000D01*
X171650000Y-65160000D02*
X171650000Y-60440000D01*
X181400000Y-56630000D02*
X181400000Y-53570000D01*
X181400000Y-65160000D02*
X179910000Y-65160000D01*
X181400000Y-53570000D02*
X171660000Y-53570000D01*
X127390000Y-103260000D02*
X126560000Y-103260000D01*
X124940000Y-103260000D02*
X124410000Y-103260000D01*
X122040000Y-103260000D02*
X120860000Y-103260000D01*
X130600000Y-103260000D02*
X130600000Y-98540000D01*
X120860000Y-94730000D02*
X120860000Y-91670000D01*
X120850000Y-103260000D02*
X120850000Y-98540000D01*
X130600000Y-94730000D02*
X130600000Y-91670000D01*
X130600000Y-103260000D02*
X129110000Y-103260000D01*
X130600000Y-91670000D02*
X120860000Y-91670000D01*
X178190000Y-103260000D02*
X177360000Y-103260000D01*
X175740000Y-103260000D02*
X175210000Y-103260000D01*
X172840000Y-103260000D02*
X171660000Y-103260000D01*
X181400000Y-103260000D02*
X181400000Y-98540000D01*
X171660000Y-94730000D02*
X171660000Y-91670000D01*
X171650000Y-103260000D02*
X171650000Y-98540000D01*
X181400000Y-94730000D02*
X181400000Y-91670000D01*
X181400000Y-103260000D02*
X179910000Y-103260000D01*
X181400000Y-91670000D02*
X171660000Y-91670000D01*
X127390000Y-65160000D02*
X126560000Y-65160000D01*
X124940000Y-65160000D02*
X124410000Y-65160000D01*
X122040000Y-65160000D02*
X120860000Y-65160000D01*
X130600000Y-65160000D02*
X130600000Y-60440000D01*
X120860000Y-56630000D02*
X120860000Y-53570000D01*
X120850000Y-65160000D02*
X120850000Y-60440000D01*
X130600000Y-56630000D02*
X130600000Y-53570000D01*
X130600000Y-65160000D02*
X129110000Y-65160000D01*
X130600000Y-53570000D02*
X120860000Y-53570000D01*
D11*
X175974761Y-52522380D02*
X175641428Y-52046190D01*
X175403333Y-52522380D02*
X175403333Y-51522380D01*
X175784285Y-51522380D01*
X175879523Y-51570000D01*
X175927142Y-51617619D01*
X175974761Y-51712857D01*
X175974761Y-51855714D01*
X175927142Y-51950952D01*
X175879523Y-51998571D01*
X175784285Y-52046190D01*
X175403333Y-52046190D01*
X176260476Y-51522380D02*
X176593809Y-52522380D01*
X176927142Y-51522380D01*
X177165238Y-51522380D02*
X177831904Y-51522380D01*
X177403333Y-52522380D01*
X125174761Y-90622380D02*
X124841428Y-90146190D01*
X124603333Y-90622380D02*
X124603333Y-89622380D01*
X124984285Y-89622380D01*
X125079523Y-89670000D01*
X125127142Y-89717619D01*
X125174761Y-89812857D01*
X125174761Y-89955714D01*
X125127142Y-90050952D01*
X125079523Y-90098571D01*
X124984285Y-90146190D01*
X124603333Y-90146190D01*
X125460476Y-89622380D02*
X125793809Y-90622380D01*
X126127142Y-89622380D01*
X126365238Y-89622380D02*
X126984285Y-89622380D01*
X126650952Y-90003333D01*
X126793809Y-90003333D01*
X126889047Y-90050952D01*
X126936666Y-90098571D01*
X126984285Y-90193809D01*
X126984285Y-90431904D01*
X126936666Y-90527142D01*
X126889047Y-90574761D01*
X126793809Y-90622380D01*
X126508095Y-90622380D01*
X126412857Y-90574761D01*
X126365238Y-90527142D01*
X175974761Y-90622380D02*
X175641428Y-90146190D01*
X175403333Y-90622380D02*
X175403333Y-89622380D01*
X175784285Y-89622380D01*
X175879523Y-89670000D01*
X175927142Y-89717619D01*
X175974761Y-89812857D01*
X175974761Y-89955714D01*
X175927142Y-90050952D01*
X175879523Y-90098571D01*
X175784285Y-90146190D01*
X175403333Y-90146190D01*
X176260476Y-89622380D02*
X176593809Y-90622380D01*
X176927142Y-89622380D01*
X177212857Y-89717619D02*
X177260476Y-89670000D01*
X177355714Y-89622380D01*
X177593809Y-89622380D01*
X177689047Y-89670000D01*
X177736666Y-89717619D01*
X177784285Y-89812857D01*
X177784285Y-89908095D01*
X177736666Y-90050952D01*
X177165238Y-90622380D01*
X177784285Y-90622380D01*
X125174761Y-52522380D02*
X124841428Y-52046190D01*
X124603333Y-52522380D02*
X124603333Y-51522380D01*
X124984285Y-51522380D01*
X125079523Y-51570000D01*
X125127142Y-51617619D01*
X125174761Y-51712857D01*
X125174761Y-51855714D01*
X125127142Y-51950952D01*
X125079523Y-51998571D01*
X124984285Y-52046190D01*
X124603333Y-52046190D01*
X125460476Y-51522380D02*
X125793809Y-52522380D01*
X126127142Y-51522380D01*
X126984285Y-52522380D02*
X126412857Y-52522380D01*
X126698571Y-52522380D02*
X126698571Y-51522380D01*
X126603333Y-51665238D01*
X126508095Y-51760476D01*
X126412857Y-51808095D01*
M02*
