M48
; DRILL file {KiCad 5.1.6-c6e7f7d~86~ubuntu18.04.1} date Sat Jun 20 10:04:11 2020
; FORMAT={-:-/ absolute / metric / decimal}
; #@! TF.CreationDate,2020-06-20T10:04:11-04:00
; #@! TF.GenerationSoftware,Kicad,Pcbnew,5.1.6-c6e7f7d~86~ubuntu18.04.1
; #@! TF.FileFunction,Plated,1,2,PTH
FMAT,2
METRIC
T1C0.400
T2C0.800
T3C0.900
T4C1.000
T5C1.100
%
G90
G05
T1
X135.534Y-146.469
X137.338Y-114.935
X138.049Y-120.193
X138.074Y-125.019
X139.624Y-148.387
X139.852Y-144.882
X139.903Y-136.576
X139.929Y-140.513
X141.884Y-94.056
X148.285Y-69.393
X150.698Y-144.983
X154.559Y-72.492
X154.864Y-120.167
X154.965Y-126.238
X155.448Y-114.605
X156.82Y-83.718
X157.378Y-69.088
X157.683Y-55.474
X158.369Y-138.582
X160.503Y-57.023
X160.731Y-145.11
X163.932Y-83.972
X163.944Y-145.212
X164.795Y-71.755
X164.897Y-93.294
X165.1Y-68.047
X165.354Y-139.548
X165.887Y-112.573
X165.964Y-107.95
X165.964Y-125.171
X166.167Y-120.269
X166.649Y-143.637
X166.98Y-130.658
X172.9Y-80.9
X173.65Y-106.502
X173.975Y-99.273
X174.066Y-86.843
X174.32Y-113.944
X175.793Y-133.833
X179.019Y-57.912
X179.4Y-148.361
X180.421Y-83.068
X180.477Y-86.893
X180.645Y-143.332
X183.134Y-140.589
X183.49Y-102.337
X183.8Y-80.1
X184.582Y-106.832
X185.735Y-91.501
X185.776Y-88.722
X186.944Y-95.212
X187.782Y-65.024
X188.112Y-130.023
X188.773Y-121.234
X188.9Y-143.256
X189.586Y-148.361
X189.713Y-128.067
X190.424Y-108.941
X191.618Y-68.809
X191.643Y-74.27
X193.313Y-102.718
X194.163Y-122.936
X195.478Y-88.214
X195.834Y-83.363
X201.27Y-121.488
X201.333Y-85.522
X201.498Y-114.833
X201.816Y-86.868
X202.743Y-90.119
X204.673Y-119.266
X205.943Y-70.079
X205.943Y-79.731
X206.4Y-147.574
X207.289Y-118.631
X210.287Y-81.636
X210.577Y-92.33
X210.591Y-75.336
X211.379Y-130.404
X211.455Y-125.07
X212.687Y-113.449
X213.106Y-78.537
T2
X176.321Y-61.96
X172.593Y-88.9
X172.593Y-91.44
X172.593Y-93.98
X172.593Y-96.52
X180.213Y-88.9
X180.213Y-91.44
X180.213Y-93.98
X180.213Y-96.52
X171.831Y-115.57
X181.991Y-115.57
X183.007Y-70.104
X193.167Y-70.104
X196.85Y-109.22
X207.01Y-109.22
X198.12Y-72.39
X208.28Y-72.39
X183.388Y-129.54
X193.548Y-129.54
X182.753Y-96.52
X192.913Y-96.52
X196.85Y-115.57
X207.01Y-115.57
X171.45Y-55.245
X173.95Y-55.245
X160.02Y-142.24
X170.18Y-142.24
X160.274Y-128.778
X170.434Y-128.778
X182.753Y-87.63
X192.913Y-87.63
X172.847Y-60.706
X172.847Y-63.246
X172.847Y-65.786
X172.847Y-68.326
X172.847Y-70.866
X172.847Y-73.406
X172.847Y-75.946
X172.847Y-78.486
X180.467Y-60.706
X180.467Y-63.246
X180.467Y-65.786
X180.467Y-68.326
X180.467Y-70.866
X180.467Y-73.406
X180.467Y-75.946
X180.467Y-78.486
X160.02Y-137.922
X170.18Y-137.922
X185.881Y-78.486
X190.881Y-78.486
X159.817Y-91.948
X169.977Y-91.948
X160.02Y-106.68
X170.18Y-106.68
X186.055Y-56.642
X191.055Y-56.642
X198.12Y-77.47
X208.28Y-77.47
X185.627Y-100.584
X190.627Y-100.584
X160.147Y-87.376
X170.307Y-87.376
X160.02Y-133.35
X170.18Y-133.35
X182.753Y-91.948
X192.913Y-91.948
X198.12Y-87.63
X208.28Y-87.63
X162.767Y-78.486
X167.767Y-78.486
X160.147Y-69.977
X170.307Y-69.977
X196.85Y-128.27
X207.01Y-128.27
X142.24Y-73.66
X142.24Y-76.2
X142.24Y-78.74
X142.24Y-81.28
X142.24Y-83.82
X142.24Y-86.36
X142.24Y-88.9
X149.86Y-73.66
X149.86Y-76.2
X149.86Y-78.74
X149.86Y-81.28
X149.86Y-83.82
X149.86Y-86.36
X149.86Y-88.9
X172.974Y-133.096
X172.974Y-135.636
X172.974Y-138.176
X172.974Y-140.716
X180.594Y-133.096
X180.594Y-135.636
X180.594Y-138.176
X180.594Y-140.716
X163.021Y-56.896
X168.021Y-56.896
X198.12Y-82.55
X208.28Y-82.55
X184.429Y-74.371
X194.589Y-74.371
X162.259Y-101.092
X167.259Y-101.092
X183.388Y-125.222
X193.548Y-125.222
X160.147Y-74.422
X170.307Y-74.422
X173.101Y-120.396
X173.101Y-122.936
X173.101Y-125.476
X173.101Y-128.016
X180.721Y-120.396
X180.721Y-122.936
X180.721Y-125.476
X180.721Y-128.016
X179.745Y-55.245
X182.245Y-55.245
X183.388Y-133.858
X193.548Y-133.858
X183.007Y-65.532
X193.167Y-65.532
X160.02Y-110.998
X170.18Y-110.998
X160.147Y-65.532
X170.307Y-65.532
X160.147Y-82.55
X170.307Y-82.55
X159.36Y-96.774
X169.52Y-96.774
X160.147Y-60.96
X170.307Y-60.96
X183.007Y-60.96
X193.167Y-60.96
X196.85Y-121.92
X207.01Y-121.92
X182.753Y-83.312
X192.913Y-83.312
X160.274Y-124.46
X170.434Y-124.46
X153.67Y-78.74
X153.67Y-88.9
X138.43Y-78.74
X138.43Y-88.9
T3
X219.71Y-92.71
X219.71Y-100.33
X215.9Y-123.19
X215.9Y-130.81
X215.9Y-82.55
X215.9Y-90.17
X161.163Y-115.57
X168.783Y-115.57
X219.71Y-82.55
X219.71Y-90.17
X219.666Y-123.19
X219.666Y-130.81
X161.163Y-120.142
X168.783Y-120.142
X215.9Y-113.03
X215.9Y-120.65
X215.9Y-72.39
X215.9Y-80.01
X219.71Y-72.39
X219.71Y-80.01
X219.71Y-133.35
X219.71Y-140.97
X215.9Y-102.87
X215.9Y-110.49
X219.71Y-113.03
X219.71Y-120.65
X219.71Y-62.23
X219.71Y-69.85
X215.9Y-62.23
X215.9Y-69.85
X184.658Y-138.43
X192.278Y-138.43
X219.71Y-102.87
X219.71Y-110.49
X215.9Y-133.35
X215.9Y-140.97
X132.08Y-76.835
X132.08Y-84.455
X184.658Y-143.256
X192.278Y-143.256
X215.9Y-92.71
X215.9Y-100.33
T4
X132.08Y-120.65
X132.08Y-123.19
X132.08Y-125.73
X132.08Y-128.27
X199.47Y-104.14
X201.97Y-104.14
X204.47Y-104.14
X199.39Y-66.04
X201.89Y-66.04
X204.39Y-66.04
X148.67Y-66.04
X151.17Y-66.04
X153.67Y-66.04
X148.67Y-142.12
X151.17Y-142.12
X153.67Y-142.12
X199.47Y-142.24
X201.97Y-142.24
X204.47Y-142.24
X133.35Y-57.15
X133.35Y-59.69
X133.35Y-62.23
X133.35Y-64.77
X133.35Y-67.31
X135.89Y-57.15
X135.89Y-59.69
X135.89Y-62.23
X135.89Y-64.77
X135.89Y-67.31
X148.67Y-104.14
X151.17Y-104.14
X153.67Y-104.14
X132.08Y-96.52
X132.08Y-99.06
X132.08Y-101.6
X132.08Y-104.14
X132.08Y-138.43
X132.08Y-140.97
X132.08Y-143.51
T5
G00X197.17Y-96.99
M15
G01X197.17Y-96.29
M16
G05
G00X206.77Y-96.99
M15
G01X206.77Y-96.29
M16
G05
G00X197.09Y-58.89
M15
G01X197.09Y-58.19
M16
G05
G00X206.69Y-58.89
M15
G01X206.69Y-58.19
M16
G05
G00X146.37Y-58.89
M15
G01X146.37Y-58.19
M16
G05
G00X155.97Y-58.89
M15
G01X155.97Y-58.19
M16
G05
G00X146.37Y-134.97
M15
G01X146.37Y-134.27
M16
G05
G00X155.97Y-134.97
M15
G01X155.97Y-134.27
M16
G05
G00X197.17Y-135.09
M15
G01X197.17Y-134.39
M16
G05
G00X206.77Y-135.09
M15
G01X206.77Y-134.39
M16
G05
G00X146.37Y-96.99
M15
G01X146.37Y-96.29
M16
G05
G00X155.97Y-96.99
M15
G01X155.97Y-96.29
M16
G05
T0
M30
