G04 #@! TF.GenerationSoftware,KiCad,Pcbnew,5.1.6-c6e7f7d~86~ubuntu18.04.1*
G04 #@! TF.CreationDate,2020-06-01T06:43:38-04:00*
G04 #@! TF.ProjectId,f405_breakout,66343035-5f62-4726-9561-6b6f75742e6b,rev?*
G04 #@! TF.SameCoordinates,Original*
G04 #@! TF.FileFunction,Legend,Top*
G04 #@! TF.FilePolarity,Positive*
%FSLAX46Y46*%
G04 Gerber Fmt 4.6, Leading zero omitted, Abs format (unit mm)*
G04 Created by KiCad (PCBNEW 5.1.6-c6e7f7d~86~ubuntu18.04.1) date 2020-06-01 06:43:38*
%MOMM*%
%LPD*%
G01*
G04 APERTURE LIST*
%ADD10C,0.150000*%
%ADD11C,0.120000*%
G04 APERTURE END LIST*
D10*
X148121904Y-133167380D02*
X148121904Y-132500714D01*
X148121904Y-132691190D02*
X148169523Y-132595952D01*
X148217142Y-132548333D01*
X148312380Y-132500714D01*
X148407619Y-132500714D01*
X149121904Y-133119761D02*
X149026666Y-133167380D01*
X148836190Y-133167380D01*
X148740952Y-133119761D01*
X148693333Y-133024523D01*
X148693333Y-132643571D01*
X148740952Y-132548333D01*
X148836190Y-132500714D01*
X149026666Y-132500714D01*
X149121904Y-132548333D01*
X149169523Y-132643571D01*
X149169523Y-132738809D01*
X148693333Y-132834047D01*
X149502857Y-132500714D02*
X149740952Y-133167380D01*
X149979047Y-132500714D01*
X151645714Y-133167380D02*
X151074285Y-133167380D01*
X151360000Y-133167380D02*
X151360000Y-132167380D01*
X151264761Y-132310238D01*
X151169523Y-132405476D01*
X151074285Y-132453095D01*
X103221904Y-132500714D02*
X103221904Y-133310238D01*
X103174285Y-133405476D01*
X103126666Y-133453095D01*
X103031428Y-133500714D01*
X102888571Y-133500714D01*
X102793333Y-133453095D01*
X103221904Y-133119761D02*
X103126666Y-133167380D01*
X102936190Y-133167380D01*
X102840952Y-133119761D01*
X102793333Y-133072142D01*
X102745714Y-132976904D01*
X102745714Y-132691190D01*
X102793333Y-132595952D01*
X102840952Y-132548333D01*
X102936190Y-132500714D01*
X103126666Y-132500714D01*
X103221904Y-132548333D01*
X103698095Y-133167380D02*
X103698095Y-132500714D01*
X103698095Y-132167380D02*
X103650476Y-132215000D01*
X103698095Y-132262619D01*
X103745714Y-132215000D01*
X103698095Y-132167380D01*
X103698095Y-132262619D01*
X104031428Y-132500714D02*
X104412380Y-132500714D01*
X104174285Y-132167380D02*
X104174285Y-133024523D01*
X104221904Y-133119761D01*
X104317142Y-133167380D01*
X104412380Y-133167380D01*
X104745714Y-133167380D02*
X104745714Y-132167380D01*
X105174285Y-133167380D02*
X105174285Y-132643571D01*
X105126666Y-132548333D01*
X105031428Y-132500714D01*
X104888571Y-132500714D01*
X104793333Y-132548333D01*
X104745714Y-132595952D01*
X106079047Y-132500714D02*
X106079047Y-133167380D01*
X105650476Y-132500714D02*
X105650476Y-133024523D01*
X105698095Y-133119761D01*
X105793333Y-133167380D01*
X105936190Y-133167380D01*
X106031428Y-133119761D01*
X106079047Y-133072142D01*
X106555238Y-133167380D02*
X106555238Y-132167380D01*
X106555238Y-132548333D02*
X106650476Y-132500714D01*
X106840952Y-132500714D01*
X106936190Y-132548333D01*
X106983809Y-132595952D01*
X107031428Y-132691190D01*
X107031428Y-132976904D01*
X106983809Y-133072142D01*
X106936190Y-133119761D01*
X106840952Y-133167380D01*
X106650476Y-133167380D01*
X106555238Y-133119761D01*
X107460000Y-133072142D02*
X107507619Y-133119761D01*
X107460000Y-133167380D01*
X107412380Y-133119761D01*
X107460000Y-133072142D01*
X107460000Y-133167380D01*
X108364761Y-133119761D02*
X108269523Y-133167380D01*
X108079047Y-133167380D01*
X107983809Y-133119761D01*
X107936190Y-133072142D01*
X107888571Y-132976904D01*
X107888571Y-132691190D01*
X107936190Y-132595952D01*
X107983809Y-132548333D01*
X108079047Y-132500714D01*
X108269523Y-132500714D01*
X108364761Y-132548333D01*
X108936190Y-133167380D02*
X108840952Y-133119761D01*
X108793333Y-133072142D01*
X108745714Y-132976904D01*
X108745714Y-132691190D01*
X108793333Y-132595952D01*
X108840952Y-132548333D01*
X108936190Y-132500714D01*
X109079047Y-132500714D01*
X109174285Y-132548333D01*
X109221904Y-132595952D01*
X109269523Y-132691190D01*
X109269523Y-132976904D01*
X109221904Y-133072142D01*
X109174285Y-133119761D01*
X109079047Y-133167380D01*
X108936190Y-133167380D01*
X109698095Y-133167380D02*
X109698095Y-132500714D01*
X109698095Y-132595952D02*
X109745714Y-132548333D01*
X109840952Y-132500714D01*
X109983809Y-132500714D01*
X110079047Y-132548333D01*
X110126666Y-132643571D01*
X110126666Y-133167380D01*
X110126666Y-132643571D02*
X110174285Y-132548333D01*
X110269523Y-132500714D01*
X110412380Y-132500714D01*
X110507619Y-132548333D01*
X110555238Y-132643571D01*
X110555238Y-133167380D01*
X111745714Y-132119761D02*
X110888571Y-133405476D01*
X112364761Y-132167380D02*
X112364761Y-132881666D01*
X112317142Y-133024523D01*
X112221904Y-133119761D01*
X112079047Y-133167380D01*
X111983809Y-133167380D01*
X112983809Y-133167380D02*
X112888571Y-133119761D01*
X112840952Y-133072142D01*
X112793333Y-132976904D01*
X112793333Y-132691190D01*
X112840952Y-132595952D01*
X112888571Y-132548333D01*
X112983809Y-132500714D01*
X113126666Y-132500714D01*
X113221904Y-132548333D01*
X113269523Y-132595952D01*
X113317142Y-132691190D01*
X113317142Y-132976904D01*
X113269523Y-133072142D01*
X113221904Y-133119761D01*
X113126666Y-133167380D01*
X112983809Y-133167380D01*
X113745714Y-133167380D02*
X113745714Y-132500714D01*
X113745714Y-132691190D02*
X113793333Y-132595952D01*
X113840952Y-132548333D01*
X113936190Y-132500714D01*
X114031428Y-132500714D01*
X114793333Y-133167380D02*
X114793333Y-132167380D01*
X114793333Y-133119761D02*
X114698095Y-133167380D01*
X114507619Y-133167380D01*
X114412380Y-133119761D01*
X114364761Y-133072142D01*
X114317142Y-132976904D01*
X114317142Y-132691190D01*
X114364761Y-132595952D01*
X114412380Y-132548333D01*
X114507619Y-132500714D01*
X114698095Y-132500714D01*
X114793333Y-132548333D01*
X115698095Y-133167380D02*
X115698095Y-132643571D01*
X115650476Y-132548333D01*
X115555238Y-132500714D01*
X115364761Y-132500714D01*
X115269523Y-132548333D01*
X115698095Y-133119761D02*
X115602857Y-133167380D01*
X115364761Y-133167380D01*
X115269523Y-133119761D01*
X115221904Y-133024523D01*
X115221904Y-132929285D01*
X115269523Y-132834047D01*
X115364761Y-132786428D01*
X115602857Y-132786428D01*
X115698095Y-132738809D01*
X116174285Y-132500714D02*
X116174285Y-133167380D01*
X116174285Y-132595952D02*
X116221904Y-132548333D01*
X116317142Y-132500714D01*
X116460000Y-132500714D01*
X116555238Y-132548333D01*
X116602857Y-132643571D01*
X116602857Y-133167380D01*
X117031428Y-132881666D02*
X117507619Y-132881666D01*
X116936190Y-133167380D02*
X117269523Y-132167380D01*
X117602857Y-133167380D01*
X118364761Y-133119761D02*
X118269523Y-133167380D01*
X118079047Y-133167380D01*
X117983809Y-133119761D01*
X117936190Y-133072142D01*
X117888571Y-132976904D01*
X117888571Y-132691190D01*
X117936190Y-132595952D01*
X117983809Y-132548333D01*
X118079047Y-132500714D01*
X118269523Y-132500714D01*
X118364761Y-132548333D01*
X119174285Y-133119761D02*
X119079047Y-133167380D01*
X118888571Y-133167380D01*
X118793333Y-133119761D01*
X118745714Y-133024523D01*
X118745714Y-132643571D01*
X118793333Y-132548333D01*
X118888571Y-132500714D01*
X119079047Y-132500714D01*
X119174285Y-132548333D01*
X119221904Y-132643571D01*
X119221904Y-132738809D01*
X118745714Y-132834047D01*
X119507619Y-132500714D02*
X119888571Y-132500714D01*
X119650476Y-132167380D02*
X119650476Y-133024523D01*
X119698095Y-133119761D01*
X119793333Y-133167380D01*
X119888571Y-133167380D01*
X120364761Y-133167380D02*
X120269523Y-133119761D01*
X120221904Y-133072142D01*
X120174285Y-132976904D01*
X120174285Y-132691190D01*
X120221904Y-132595952D01*
X120269523Y-132548333D01*
X120364761Y-132500714D01*
X120507619Y-132500714D01*
X120602857Y-132548333D01*
X120650476Y-132595952D01*
X120698095Y-132691190D01*
X120698095Y-132976904D01*
X120650476Y-133072142D01*
X120602857Y-133119761D01*
X120507619Y-133167380D01*
X120364761Y-133167380D01*
X121840952Y-132119761D02*
X120983809Y-133405476D01*
X122126666Y-133119761D02*
X122269523Y-133167380D01*
X122507619Y-133167380D01*
X122602857Y-133119761D01*
X122650476Y-133072142D01*
X122698095Y-132976904D01*
X122698095Y-132881666D01*
X122650476Y-132786428D01*
X122602857Y-132738809D01*
X122507619Y-132691190D01*
X122317142Y-132643571D01*
X122221904Y-132595952D01*
X122174285Y-132548333D01*
X122126666Y-132453095D01*
X122126666Y-132357857D01*
X122174285Y-132262619D01*
X122221904Y-132215000D01*
X122317142Y-132167380D01*
X122555238Y-132167380D01*
X122698095Y-132215000D01*
X122983809Y-132167380D02*
X123555238Y-132167380D01*
X123269523Y-133167380D02*
X123269523Y-132167380D01*
X123888571Y-133167380D02*
X123888571Y-132167380D01*
X124221904Y-132881666D01*
X124555238Y-132167380D01*
X124555238Y-133167380D01*
X124936190Y-132167380D02*
X125555238Y-132167380D01*
X125221904Y-132548333D01*
X125364761Y-132548333D01*
X125459999Y-132595952D01*
X125507619Y-132643571D01*
X125555238Y-132738809D01*
X125555238Y-132976904D01*
X125507619Y-133072142D01*
X125459999Y-133119761D01*
X125364761Y-133167380D01*
X125079047Y-133167380D01*
X124983809Y-133119761D01*
X124936190Y-133072142D01*
X125936190Y-132262619D02*
X125983809Y-132215000D01*
X126079047Y-132167380D01*
X126317142Y-132167380D01*
X126412380Y-132215000D01*
X126459999Y-132262619D01*
X126507619Y-132357857D01*
X126507619Y-132453095D01*
X126459999Y-132595952D01*
X125888571Y-133167380D01*
X126507619Y-133167380D01*
X127269523Y-132643571D02*
X126936190Y-132643571D01*
X126936190Y-133167380D02*
X126936190Y-132167380D01*
X127412380Y-132167380D01*
X128221904Y-132500714D02*
X128221904Y-133167380D01*
X127983809Y-132119761D02*
X127745714Y-132834047D01*
X128364761Y-132834047D01*
X128936190Y-132167380D02*
X129031428Y-132167380D01*
X129126666Y-132215000D01*
X129174285Y-132262619D01*
X129221904Y-132357857D01*
X129269523Y-132548333D01*
X129269523Y-132786428D01*
X129221904Y-132976904D01*
X129174285Y-133072142D01*
X129126666Y-133119761D01*
X129031428Y-133167380D01*
X128936190Y-133167380D01*
X128840952Y-133119761D01*
X128793333Y-133072142D01*
X128745714Y-132976904D01*
X128698095Y-132786428D01*
X128698095Y-132548333D01*
X128745714Y-132357857D01*
X128793333Y-132262619D01*
X128840952Y-132215000D01*
X128936190Y-132167380D01*
X130174285Y-132167380D02*
X129698095Y-132167380D01*
X129650476Y-132643571D01*
X129698095Y-132595952D01*
X129793333Y-132548333D01*
X130031428Y-132548333D01*
X130126666Y-132595952D01*
X130174285Y-132643571D01*
X130221904Y-132738809D01*
X130221904Y-132976904D01*
X130174285Y-133072142D01*
X130126666Y-133119761D01*
X130031428Y-133167380D01*
X129793333Y-133167380D01*
X129698095Y-133119761D01*
X129650476Y-133072142D01*
X131221904Y-133167380D02*
X130888571Y-132691190D01*
X130650476Y-133167380D02*
X130650476Y-132167380D01*
X131031428Y-132167380D01*
X131126666Y-132215000D01*
X131174285Y-132262619D01*
X131221904Y-132357857D01*
X131221904Y-132500714D01*
X131174285Y-132595952D01*
X131126666Y-132643571D01*
X131031428Y-132691190D01*
X130650476Y-132691190D01*
X132174285Y-132215000D02*
X132079047Y-132167380D01*
X131936190Y-132167380D01*
X131793333Y-132215000D01*
X131698095Y-132310238D01*
X131650476Y-132405476D01*
X131602857Y-132595952D01*
X131602857Y-132738809D01*
X131650476Y-132929285D01*
X131698095Y-133024523D01*
X131793333Y-133119761D01*
X131936190Y-133167380D01*
X132031428Y-133167380D01*
X132174285Y-133119761D01*
X132221904Y-133072142D01*
X132221904Y-132738809D01*
X132031428Y-132738809D01*
X132507619Y-132167380D02*
X133079047Y-132167380D01*
X132793333Y-133167380D02*
X132793333Y-132167380D01*
X133840952Y-132167380D02*
X133650476Y-132167380D01*
X133555238Y-132215000D01*
X133507619Y-132262619D01*
X133412380Y-132405476D01*
X133364761Y-132595952D01*
X133364761Y-132976904D01*
X133412380Y-133072142D01*
X133459999Y-133119761D01*
X133555238Y-133167380D01*
X133745714Y-133167380D01*
X133840952Y-133119761D01*
X133888571Y-133072142D01*
X133936190Y-132976904D01*
X133936190Y-132738809D01*
X133888571Y-132643571D01*
X133840952Y-132595952D01*
X133745714Y-132548333D01*
X133555238Y-132548333D01*
X133459999Y-132595952D01*
X133412380Y-132643571D01*
X133364761Y-132738809D01*
X134126666Y-133262619D02*
X134888571Y-133262619D01*
X135126666Y-133167380D02*
X135126666Y-132167380D01*
X135126666Y-132548333D02*
X135221904Y-132500714D01*
X135412380Y-132500714D01*
X135507619Y-132548333D01*
X135555238Y-132595952D01*
X135602857Y-132691190D01*
X135602857Y-132976904D01*
X135555238Y-133072142D01*
X135507619Y-133119761D01*
X135412380Y-133167380D01*
X135221904Y-133167380D01*
X135126666Y-133119761D01*
X136031428Y-133167380D02*
X136031428Y-132500714D01*
X136031428Y-132691190D02*
X136079047Y-132595952D01*
X136126666Y-132548333D01*
X136221904Y-132500714D01*
X136317142Y-132500714D01*
X137031428Y-133119761D02*
X136936190Y-133167380D01*
X136745714Y-133167380D01*
X136650476Y-133119761D01*
X136602857Y-133024523D01*
X136602857Y-132643571D01*
X136650476Y-132548333D01*
X136745714Y-132500714D01*
X136936190Y-132500714D01*
X137031428Y-132548333D01*
X137079047Y-132643571D01*
X137079047Y-132738809D01*
X136602857Y-132834047D01*
X137936190Y-133167380D02*
X137936190Y-132643571D01*
X137888571Y-132548333D01*
X137793333Y-132500714D01*
X137602857Y-132500714D01*
X137507619Y-132548333D01*
X137936190Y-133119761D02*
X137840952Y-133167380D01*
X137602857Y-133167380D01*
X137507619Y-133119761D01*
X137460000Y-133024523D01*
X137460000Y-132929285D01*
X137507619Y-132834047D01*
X137602857Y-132786428D01*
X137840952Y-132786428D01*
X137936190Y-132738809D01*
X138412380Y-133167380D02*
X138412380Y-132167380D01*
X138507619Y-132786428D02*
X138793333Y-133167380D01*
X138793333Y-132500714D02*
X138412380Y-132881666D01*
X139364761Y-133167380D02*
X139269523Y-133119761D01*
X139221904Y-133072142D01*
X139174285Y-132976904D01*
X139174285Y-132691190D01*
X139221904Y-132595952D01*
X139269523Y-132548333D01*
X139364761Y-132500714D01*
X139507619Y-132500714D01*
X139602857Y-132548333D01*
X139650476Y-132595952D01*
X139698095Y-132691190D01*
X139698095Y-132976904D01*
X139650476Y-133072142D01*
X139602857Y-133119761D01*
X139507619Y-133167380D01*
X139364761Y-133167380D01*
X140555238Y-132500714D02*
X140555238Y-133167380D01*
X140126666Y-132500714D02*
X140126666Y-133024523D01*
X140174285Y-133119761D01*
X140269523Y-133167380D01*
X140412380Y-133167380D01*
X140507619Y-133119761D01*
X140555238Y-133072142D01*
X140888571Y-132500714D02*
X141269523Y-132500714D01*
X141031428Y-132167380D02*
X141031428Y-133024523D01*
X141079047Y-133119761D01*
X141174285Y-133167380D01*
X141269523Y-133167380D01*
X141364761Y-133262619D02*
X142126666Y-133262619D01*
X142364761Y-133167380D02*
X142364761Y-132167380D01*
X142364761Y-132548333D02*
X142459999Y-132500714D01*
X142650476Y-132500714D01*
X142745714Y-132548333D01*
X142793333Y-132595952D01*
X142840952Y-132691190D01*
X142840952Y-132976904D01*
X142793333Y-133072142D01*
X142745714Y-133119761D01*
X142650476Y-133167380D01*
X142459999Y-133167380D01*
X142364761Y-133119761D01*
X143412380Y-133167380D02*
X143317142Y-133119761D01*
X143269523Y-133072142D01*
X143221904Y-132976904D01*
X143221904Y-132691190D01*
X143269523Y-132595952D01*
X143317142Y-132548333D01*
X143412380Y-132500714D01*
X143555238Y-132500714D01*
X143650476Y-132548333D01*
X143698095Y-132595952D01*
X143745714Y-132691190D01*
X143745714Y-132976904D01*
X143698095Y-133072142D01*
X143650476Y-133119761D01*
X143555238Y-133167380D01*
X143412380Y-133167380D01*
X144602857Y-133167380D02*
X144602857Y-132643571D01*
X144555238Y-132548333D01*
X144459999Y-132500714D01*
X144269523Y-132500714D01*
X144174285Y-132548333D01*
X144602857Y-133119761D02*
X144507619Y-133167380D01*
X144269523Y-133167380D01*
X144174285Y-133119761D01*
X144126666Y-133024523D01*
X144126666Y-132929285D01*
X144174285Y-132834047D01*
X144269523Y-132786428D01*
X144507619Y-132786428D01*
X144602857Y-132738809D01*
X145079047Y-133167380D02*
X145079047Y-132500714D01*
X145079047Y-132691190D02*
X145126666Y-132595952D01*
X145174285Y-132548333D01*
X145269523Y-132500714D01*
X145364761Y-132500714D01*
X146126666Y-133167380D02*
X146126666Y-132167380D01*
X146126666Y-133119761D02*
X146031428Y-133167380D01*
X145840952Y-133167380D01*
X145745714Y-133119761D01*
X145698095Y-133072142D01*
X145650476Y-132976904D01*
X145650476Y-132691190D01*
X145698095Y-132595952D01*
X145745714Y-132548333D01*
X145840952Y-132500714D01*
X146031428Y-132500714D01*
X146126666Y-132548333D01*
X144653333Y-72477380D02*
X145272380Y-72477380D01*
X144939047Y-72858333D01*
X145081904Y-72858333D01*
X145177142Y-72905952D01*
X145224761Y-72953571D01*
X145272380Y-73048809D01*
X145272380Y-73286904D01*
X145224761Y-73382142D01*
X145177142Y-73429761D01*
X145081904Y-73477380D01*
X144796190Y-73477380D01*
X144700952Y-73429761D01*
X144653333Y-73382142D01*
X145700952Y-73382142D02*
X145748571Y-73429761D01*
X145700952Y-73477380D01*
X145653333Y-73429761D01*
X145700952Y-73382142D01*
X145700952Y-73477380D01*
X146081904Y-72477380D02*
X146700952Y-72477380D01*
X146367619Y-72858333D01*
X146510476Y-72858333D01*
X146605714Y-72905952D01*
X146653333Y-72953571D01*
X146700952Y-73048809D01*
X146700952Y-73286904D01*
X146653333Y-73382142D01*
X146605714Y-73429761D01*
X146510476Y-73477380D01*
X146224761Y-73477380D01*
X146129523Y-73429761D01*
X146081904Y-73382142D01*
X147034285Y-72810714D02*
X147272380Y-73477380D01*
X147510476Y-72810714D01*
X148796190Y-73477380D02*
X148700952Y-73429761D01*
X148653333Y-73382142D01*
X148605714Y-73286904D01*
X148605714Y-73001190D01*
X148653333Y-72905952D01*
X148700952Y-72858333D01*
X148796190Y-72810714D01*
X148939047Y-72810714D01*
X149034285Y-72858333D01*
X149081904Y-72905952D01*
X149129523Y-73001190D01*
X149129523Y-73286904D01*
X149081904Y-73382142D01*
X149034285Y-73429761D01*
X148939047Y-73477380D01*
X148796190Y-73477380D01*
X149558095Y-73477380D02*
X149558095Y-72477380D01*
X149653333Y-73096428D02*
X149939047Y-73477380D01*
X149939047Y-72810714D02*
X149558095Y-73191666D01*
X146939047Y-53411428D02*
X147700952Y-53411428D01*
X147320000Y-53792380D02*
X147320000Y-53030476D01*
X151328380Y-58729333D02*
X150328380Y-58729333D01*
X150328380Y-58491238D01*
X150376000Y-58348380D01*
X150471238Y-58253142D01*
X150566476Y-58205523D01*
X150756952Y-58157904D01*
X150899809Y-58157904D01*
X151090285Y-58205523D01*
X151185523Y-58253142D01*
X151280761Y-58348380D01*
X151328380Y-58491238D01*
X151328380Y-58729333D01*
X151233142Y-57157904D02*
X151280761Y-57205523D01*
X151328380Y-57348380D01*
X151328380Y-57443619D01*
X151280761Y-57586476D01*
X151185523Y-57681714D01*
X151090285Y-57729333D01*
X150899809Y-57776952D01*
X150756952Y-57776952D01*
X150566476Y-57729333D01*
X150471238Y-57681714D01*
X150376000Y-57586476D01*
X150328380Y-57443619D01*
X150328380Y-57348380D01*
X150376000Y-57205523D01*
X150423619Y-57157904D01*
X151328380Y-55967428D02*
X150661714Y-55967428D01*
X150328380Y-55967428D02*
X150376000Y-56015047D01*
X150423619Y-55967428D01*
X150376000Y-55919809D01*
X150328380Y-55967428D01*
X150423619Y-55967428D01*
X150661714Y-55491238D02*
X151328380Y-55491238D01*
X150756952Y-55491238D02*
X150709333Y-55443619D01*
X150661714Y-55348380D01*
X150661714Y-55205523D01*
X150709333Y-55110285D01*
X150804571Y-55062666D01*
X151328380Y-55062666D01*
X150328380Y-86820000D02*
X150328380Y-86200952D01*
X150709333Y-86534285D01*
X150709333Y-86391428D01*
X150756952Y-86296190D01*
X150804571Y-86248571D01*
X150899809Y-86200952D01*
X151137904Y-86200952D01*
X151233142Y-86248571D01*
X151280761Y-86296190D01*
X151328380Y-86391428D01*
X151328380Y-86677142D01*
X151280761Y-86772380D01*
X151233142Y-86820000D01*
X151233142Y-85772380D02*
X151280761Y-85724761D01*
X151328380Y-85772380D01*
X151280761Y-85820000D01*
X151233142Y-85772380D01*
X151328380Y-85772380D01*
X150328380Y-85391428D02*
X150328380Y-84772380D01*
X150709333Y-85105714D01*
X150709333Y-84962857D01*
X150756952Y-84867619D01*
X150804571Y-84820000D01*
X150899809Y-84772380D01*
X151137904Y-84772380D01*
X151233142Y-84820000D01*
X151280761Y-84867619D01*
X151328380Y-84962857D01*
X151328380Y-85248571D01*
X151280761Y-85343809D01*
X151233142Y-85391428D01*
X150661714Y-84439047D02*
X151328380Y-84200952D01*
X150661714Y-83962857D01*
X151328380Y-82677142D02*
X151280761Y-82772380D01*
X151233142Y-82820000D01*
X151137904Y-82867619D01*
X150852190Y-82867619D01*
X150756952Y-82820000D01*
X150709333Y-82772380D01*
X150661714Y-82677142D01*
X150661714Y-82534285D01*
X150709333Y-82439047D01*
X150756952Y-82391428D01*
X150852190Y-82343809D01*
X151137904Y-82343809D01*
X151233142Y-82391428D01*
X151280761Y-82439047D01*
X151328380Y-82534285D01*
X151328380Y-82677142D01*
X150661714Y-81486666D02*
X151328380Y-81486666D01*
X150661714Y-81915238D02*
X151185523Y-81915238D01*
X151280761Y-81867619D01*
X151328380Y-81772380D01*
X151328380Y-81629523D01*
X151280761Y-81534285D01*
X151233142Y-81486666D01*
X150661714Y-81153333D02*
X150661714Y-80772380D01*
X150328380Y-81010476D02*
X151185523Y-81010476D01*
X151280761Y-80962857D01*
X151328380Y-80867619D01*
X151328380Y-80772380D01*
X150376000Y-103933333D02*
X150328380Y-104028571D01*
X150328380Y-104171428D01*
X150376000Y-104314285D01*
X150471238Y-104409523D01*
X150566476Y-104457142D01*
X150756952Y-104504761D01*
X150899809Y-104504761D01*
X151090285Y-104457142D01*
X151185523Y-104409523D01*
X151280761Y-104314285D01*
X151328380Y-104171428D01*
X151328380Y-104076190D01*
X151280761Y-103933333D01*
X151233142Y-103885714D01*
X150899809Y-103885714D01*
X150899809Y-104076190D01*
X151328380Y-103457142D02*
X150328380Y-103457142D01*
X151328380Y-102885714D01*
X150328380Y-102885714D01*
X151328380Y-102409523D02*
X150328380Y-102409523D01*
X150328380Y-102171428D01*
X150376000Y-102028571D01*
X150471238Y-101933333D01*
X150566476Y-101885714D01*
X150756952Y-101838095D01*
X150899809Y-101838095D01*
X151090285Y-101885714D01*
X151185523Y-101933333D01*
X151280761Y-102028571D01*
X151328380Y-102171428D01*
X151328380Y-102409523D01*
X151328380Y-100504761D02*
X151280761Y-100600000D01*
X151233142Y-100647619D01*
X151137904Y-100695238D01*
X150852190Y-100695238D01*
X150756952Y-100647619D01*
X150709333Y-100600000D01*
X150661714Y-100504761D01*
X150661714Y-100361904D01*
X150709333Y-100266666D01*
X150756952Y-100219047D01*
X150852190Y-100171428D01*
X151137904Y-100171428D01*
X151233142Y-100219047D01*
X151280761Y-100266666D01*
X151328380Y-100361904D01*
X151328380Y-100504761D01*
X150661714Y-99314285D02*
X151328380Y-99314285D01*
X150661714Y-99742857D02*
X151185523Y-99742857D01*
X151280761Y-99695238D01*
X151328380Y-99600000D01*
X151328380Y-99457142D01*
X151280761Y-99361904D01*
X151233142Y-99314285D01*
X150661714Y-98980952D02*
X150661714Y-98600000D01*
X150328380Y-98838095D02*
X151185523Y-98838095D01*
X151280761Y-98790476D01*
X151328380Y-98695238D01*
X151328380Y-98600000D01*
X151280761Y-128039238D02*
X151328380Y-127896380D01*
X151328380Y-127658285D01*
X151280761Y-127563047D01*
X151233142Y-127515428D01*
X151137904Y-127467809D01*
X151042666Y-127467809D01*
X150947428Y-127515428D01*
X150899809Y-127563047D01*
X150852190Y-127658285D01*
X150804571Y-127848761D01*
X150756952Y-127944000D01*
X150709333Y-127991619D01*
X150614095Y-128039238D01*
X150518857Y-128039238D01*
X150423619Y-127991619D01*
X150376000Y-127944000D01*
X150328380Y-127848761D01*
X150328380Y-127610666D01*
X150376000Y-127467809D01*
X150328380Y-127134476D02*
X151328380Y-126896380D01*
X150614095Y-126705904D01*
X151328380Y-126515428D01*
X150328380Y-126277333D01*
X151328380Y-125896380D02*
X150328380Y-125896380D01*
X150328380Y-125658285D01*
X150376000Y-125515428D01*
X150471238Y-125420190D01*
X150566476Y-125372571D01*
X150756952Y-125324952D01*
X150899809Y-125324952D01*
X151090285Y-125372571D01*
X151185523Y-125420190D01*
X151280761Y-125515428D01*
X151328380Y-125658285D01*
X151328380Y-125896380D01*
X151328380Y-124134476D02*
X150328380Y-124134476D01*
X150804571Y-124134476D02*
X150804571Y-123563047D01*
X151328380Y-123563047D02*
X150328380Y-123563047D01*
X150804571Y-123086857D02*
X150804571Y-122753523D01*
X151328380Y-122610666D02*
X151328380Y-123086857D01*
X150328380Y-123086857D01*
X150328380Y-122610666D01*
X151042666Y-122229714D02*
X151042666Y-121753523D01*
X151328380Y-122324952D02*
X150328380Y-121991619D01*
X151328380Y-121658285D01*
X151328380Y-121324952D02*
X150328380Y-121324952D01*
X150328380Y-121086857D01*
X150376000Y-120944000D01*
X150471238Y-120848761D01*
X150566476Y-120801142D01*
X150756952Y-120753523D01*
X150899809Y-120753523D01*
X151090285Y-120801142D01*
X151185523Y-120848761D01*
X151280761Y-120944000D01*
X151328380Y-121086857D01*
X151328380Y-121324952D01*
X150804571Y-120324952D02*
X150804571Y-119991619D01*
X151328380Y-119848761D02*
X151328380Y-120324952D01*
X150328380Y-120324952D01*
X150328380Y-119848761D01*
X151328380Y-118848761D02*
X150852190Y-119182095D01*
X151328380Y-119420190D02*
X150328380Y-119420190D01*
X150328380Y-119039238D01*
X150376000Y-118944000D01*
X150423619Y-118896380D01*
X150518857Y-118848761D01*
X150661714Y-118848761D01*
X150756952Y-118896380D01*
X150804571Y-118944000D01*
X150852190Y-119039238D01*
X150852190Y-119420190D01*
X140622976Y-129944761D02*
X140765833Y-129992380D01*
X141003928Y-129992380D01*
X141099166Y-129944761D01*
X141146785Y-129897142D01*
X141194404Y-129801904D01*
X141194404Y-129706666D01*
X141146785Y-129611428D01*
X141099166Y-129563809D01*
X141003928Y-129516190D01*
X140813452Y-129468571D01*
X140718214Y-129420952D01*
X140670595Y-129373333D01*
X140622976Y-129278095D01*
X140622976Y-129182857D01*
X140670595Y-129087619D01*
X140718214Y-129040000D01*
X140813452Y-128992380D01*
X141051547Y-128992380D01*
X141194404Y-129040000D01*
X141527738Y-128992380D02*
X141765833Y-129992380D01*
X141956309Y-129278095D01*
X142146785Y-129992380D01*
X142384880Y-128992380D01*
X142956309Y-128992380D02*
X143146785Y-128992380D01*
X143242023Y-129040000D01*
X143337261Y-129135238D01*
X143384880Y-129325714D01*
X143384880Y-129659047D01*
X143337261Y-129849523D01*
X143242023Y-129944761D01*
X143146785Y-129992380D01*
X142956309Y-129992380D01*
X142861071Y-129944761D01*
X142765833Y-129849523D01*
X142718214Y-129659047D01*
X142718214Y-129325714D01*
X142765833Y-129135238D01*
X142861071Y-129040000D01*
X142956309Y-128992380D01*
X140670595Y-127452380D02*
X140670595Y-126452380D01*
X141242023Y-127452380D01*
X141242023Y-126452380D01*
X142289642Y-127452380D02*
X141956309Y-126976190D01*
X141718214Y-127452380D02*
X141718214Y-126452380D01*
X142099166Y-126452380D01*
X142194404Y-126500000D01*
X142242023Y-126547619D01*
X142289642Y-126642857D01*
X142289642Y-126785714D01*
X142242023Y-126880952D01*
X142194404Y-126928571D01*
X142099166Y-126976190D01*
X141718214Y-126976190D01*
X142670595Y-127404761D02*
X142813452Y-127452380D01*
X143051547Y-127452380D01*
X143146785Y-127404761D01*
X143194404Y-127357142D01*
X143242023Y-127261904D01*
X143242023Y-127166666D01*
X143194404Y-127071428D01*
X143146785Y-127023809D01*
X143051547Y-126976190D01*
X142861071Y-126928571D01*
X142765833Y-126880952D01*
X142718214Y-126833333D01*
X142670595Y-126738095D01*
X142670595Y-126642857D01*
X142718214Y-126547619D01*
X142765833Y-126500000D01*
X142861071Y-126452380D01*
X143099166Y-126452380D01*
X143242023Y-126500000D01*
X143527738Y-126452380D02*
X144099166Y-126452380D01*
X143813452Y-127452380D02*
X143813452Y-126452380D01*
X140622976Y-124864761D02*
X140765833Y-124912380D01*
X141003928Y-124912380D01*
X141099166Y-124864761D01*
X141146785Y-124817142D01*
X141194404Y-124721904D01*
X141194404Y-124626666D01*
X141146785Y-124531428D01*
X141099166Y-124483809D01*
X141003928Y-124436190D01*
X140813452Y-124388571D01*
X140718214Y-124340952D01*
X140670595Y-124293333D01*
X140622976Y-124198095D01*
X140622976Y-124102857D01*
X140670595Y-124007619D01*
X140718214Y-123960000D01*
X140813452Y-123912380D01*
X141051547Y-123912380D01*
X141194404Y-123960000D01*
X141527738Y-123912380D02*
X141765833Y-124912380D01*
X141956309Y-124198095D01*
X142146785Y-124912380D01*
X142384880Y-123912380D01*
X142765833Y-124912380D02*
X142765833Y-123912380D01*
X143003928Y-123912380D01*
X143146785Y-123960000D01*
X143242023Y-124055238D01*
X143289642Y-124150476D01*
X143337261Y-124340952D01*
X143337261Y-124483809D01*
X143289642Y-124674285D01*
X143242023Y-124769523D01*
X143146785Y-124864761D01*
X143003928Y-124912380D01*
X142765833Y-124912380D01*
X143765833Y-124912380D02*
X143765833Y-123912380D01*
X144432500Y-123912380D02*
X144622976Y-123912380D01*
X144718214Y-123960000D01*
X144813452Y-124055238D01*
X144861071Y-124245714D01*
X144861071Y-124579047D01*
X144813452Y-124769523D01*
X144718214Y-124864761D01*
X144622976Y-124912380D01*
X144432500Y-124912380D01*
X144337261Y-124864761D01*
X144242023Y-124769523D01*
X144194404Y-124579047D01*
X144194404Y-124245714D01*
X144242023Y-124055238D01*
X144337261Y-123960000D01*
X144432500Y-123912380D01*
X141194404Y-121420000D02*
X141099166Y-121372380D01*
X140956309Y-121372380D01*
X140813452Y-121420000D01*
X140718214Y-121515238D01*
X140670595Y-121610476D01*
X140622976Y-121800952D01*
X140622976Y-121943809D01*
X140670595Y-122134285D01*
X140718214Y-122229523D01*
X140813452Y-122324761D01*
X140956309Y-122372380D01*
X141051547Y-122372380D01*
X141194404Y-122324761D01*
X141242023Y-122277142D01*
X141242023Y-121943809D01*
X141051547Y-121943809D01*
X141670595Y-122372380D02*
X141670595Y-121372380D01*
X142242023Y-122372380D01*
X142242023Y-121372380D01*
X142718214Y-122372380D02*
X142718214Y-121372380D01*
X142956309Y-121372380D01*
X143099166Y-121420000D01*
X143194404Y-121515238D01*
X143242023Y-121610476D01*
X143289642Y-121800952D01*
X143289642Y-121943809D01*
X143242023Y-122134285D01*
X143194404Y-122229523D01*
X143099166Y-122324761D01*
X142956309Y-122372380D01*
X142718214Y-122372380D01*
X140622976Y-119784761D02*
X140765833Y-119832380D01*
X141003928Y-119832380D01*
X141099166Y-119784761D01*
X141146785Y-119737142D01*
X141194404Y-119641904D01*
X141194404Y-119546666D01*
X141146785Y-119451428D01*
X141099166Y-119403809D01*
X141003928Y-119356190D01*
X140813452Y-119308571D01*
X140718214Y-119260952D01*
X140670595Y-119213333D01*
X140622976Y-119118095D01*
X140622976Y-119022857D01*
X140670595Y-118927619D01*
X140718214Y-118880000D01*
X140813452Y-118832380D01*
X141051547Y-118832380D01*
X141194404Y-118880000D01*
X141527738Y-118832380D02*
X141765833Y-119832380D01*
X141956309Y-119118095D01*
X142146785Y-119832380D01*
X142384880Y-118832380D01*
X143337261Y-119737142D02*
X143289642Y-119784761D01*
X143146785Y-119832380D01*
X143051547Y-119832380D01*
X142908690Y-119784761D01*
X142813452Y-119689523D01*
X142765833Y-119594285D01*
X142718214Y-119403809D01*
X142718214Y-119260952D01*
X142765833Y-119070476D01*
X142813452Y-118975238D01*
X142908690Y-118880000D01*
X143051547Y-118832380D01*
X143146785Y-118832380D01*
X143289642Y-118880000D01*
X143337261Y-118927619D01*
X144242023Y-119832380D02*
X143765833Y-119832380D01*
X143765833Y-118832380D01*
X144575357Y-119832380D02*
X144575357Y-118832380D01*
X145146785Y-119832380D02*
X144718214Y-119260952D01*
X145146785Y-118832380D02*
X144575357Y-119403809D01*
X140575357Y-116292380D02*
X141194404Y-116292380D01*
X140861071Y-116673333D01*
X141003928Y-116673333D01*
X141099166Y-116720952D01*
X141146785Y-116768571D01*
X141194404Y-116863809D01*
X141194404Y-117101904D01*
X141146785Y-117197142D01*
X141099166Y-117244761D01*
X141003928Y-117292380D01*
X140718214Y-117292380D01*
X140622976Y-117244761D01*
X140575357Y-117197142D01*
X141622976Y-117197142D02*
X141670595Y-117244761D01*
X141622976Y-117292380D01*
X141575357Y-117244761D01*
X141622976Y-117197142D01*
X141622976Y-117292380D01*
X142003928Y-116292380D02*
X142622976Y-116292380D01*
X142289642Y-116673333D01*
X142432500Y-116673333D01*
X142527738Y-116720952D01*
X142575357Y-116768571D01*
X142622976Y-116863809D01*
X142622976Y-117101904D01*
X142575357Y-117197142D01*
X142527738Y-117244761D01*
X142432500Y-117292380D01*
X142146785Y-117292380D01*
X142051547Y-117244761D01*
X142003928Y-117197142D01*
X142956309Y-116625714D02*
X143194404Y-117292380D01*
X143432500Y-116625714D01*
X111460595Y-129992380D02*
X111460595Y-128992380D01*
X111841547Y-128992380D01*
X111936785Y-129040000D01*
X111984404Y-129087619D01*
X112032023Y-129182857D01*
X112032023Y-129325714D01*
X111984404Y-129420952D01*
X111936785Y-129468571D01*
X111841547Y-129516190D01*
X111460595Y-129516190D01*
X113032023Y-129897142D02*
X112984404Y-129944761D01*
X112841547Y-129992380D01*
X112746309Y-129992380D01*
X112603452Y-129944761D01*
X112508214Y-129849523D01*
X112460595Y-129754285D01*
X112412976Y-129563809D01*
X112412976Y-129420952D01*
X112460595Y-129230476D01*
X112508214Y-129135238D01*
X112603452Y-129040000D01*
X112746309Y-128992380D01*
X112841547Y-128992380D01*
X112984404Y-129040000D01*
X113032023Y-129087619D01*
X113984404Y-129992380D02*
X113412976Y-129992380D01*
X113698690Y-129992380D02*
X113698690Y-128992380D01*
X113603452Y-129135238D01*
X113508214Y-129230476D01*
X113412976Y-129278095D01*
X114889166Y-128992380D02*
X114412976Y-128992380D01*
X114365357Y-129468571D01*
X114412976Y-129420952D01*
X114508214Y-129373333D01*
X114746309Y-129373333D01*
X114841547Y-129420952D01*
X114889166Y-129468571D01*
X114936785Y-129563809D01*
X114936785Y-129801904D01*
X114889166Y-129897142D01*
X114841547Y-129944761D01*
X114746309Y-129992380D01*
X114508214Y-129992380D01*
X114412976Y-129944761D01*
X114365357Y-129897142D01*
X111460595Y-124912380D02*
X111460595Y-123912380D01*
X111841547Y-123912380D01*
X111936785Y-123960000D01*
X111984404Y-124007619D01*
X112032023Y-124102857D01*
X112032023Y-124245714D01*
X111984404Y-124340952D01*
X111936785Y-124388571D01*
X111841547Y-124436190D01*
X111460595Y-124436190D01*
X113032023Y-124817142D02*
X112984404Y-124864761D01*
X112841547Y-124912380D01*
X112746309Y-124912380D01*
X112603452Y-124864761D01*
X112508214Y-124769523D01*
X112460595Y-124674285D01*
X112412976Y-124483809D01*
X112412976Y-124340952D01*
X112460595Y-124150476D01*
X112508214Y-124055238D01*
X112603452Y-123960000D01*
X112746309Y-123912380D01*
X112841547Y-123912380D01*
X112984404Y-123960000D01*
X113032023Y-124007619D01*
X113984404Y-124912380D02*
X113412976Y-124912380D01*
X113698690Y-124912380D02*
X113698690Y-123912380D01*
X113603452Y-124055238D01*
X113508214Y-124150476D01*
X113412976Y-124198095D01*
X114317738Y-123912380D02*
X114936785Y-123912380D01*
X114603452Y-124293333D01*
X114746309Y-124293333D01*
X114841547Y-124340952D01*
X114889166Y-124388571D01*
X114936785Y-124483809D01*
X114936785Y-124721904D01*
X114889166Y-124817142D01*
X114841547Y-124864761D01*
X114746309Y-124912380D01*
X114460595Y-124912380D01*
X114365357Y-124864761D01*
X114317738Y-124817142D01*
X111460595Y-119832380D02*
X111460595Y-118832380D01*
X111841547Y-118832380D01*
X111936785Y-118880000D01*
X111984404Y-118927619D01*
X112032023Y-119022857D01*
X112032023Y-119165714D01*
X111984404Y-119260952D01*
X111936785Y-119308571D01*
X111841547Y-119356190D01*
X111460595Y-119356190D01*
X113032023Y-119737142D02*
X112984404Y-119784761D01*
X112841547Y-119832380D01*
X112746309Y-119832380D01*
X112603452Y-119784761D01*
X112508214Y-119689523D01*
X112460595Y-119594285D01*
X112412976Y-119403809D01*
X112412976Y-119260952D01*
X112460595Y-119070476D01*
X112508214Y-118975238D01*
X112603452Y-118880000D01*
X112746309Y-118832380D01*
X112841547Y-118832380D01*
X112984404Y-118880000D01*
X113032023Y-118927619D01*
X113984404Y-119832380D02*
X113412976Y-119832380D01*
X113698690Y-119832380D02*
X113698690Y-118832380D01*
X113603452Y-118975238D01*
X113508214Y-119070476D01*
X113412976Y-119118095D01*
X114936785Y-119832380D02*
X114365357Y-119832380D01*
X114651071Y-119832380D02*
X114651071Y-118832380D01*
X114555833Y-118975238D01*
X114460595Y-119070476D01*
X114365357Y-119118095D01*
X111460595Y-114752380D02*
X111460595Y-113752380D01*
X111841547Y-113752380D01*
X111936785Y-113800000D01*
X111984404Y-113847619D01*
X112032023Y-113942857D01*
X112032023Y-114085714D01*
X111984404Y-114180952D01*
X111936785Y-114228571D01*
X111841547Y-114276190D01*
X111460595Y-114276190D01*
X113032023Y-114657142D02*
X112984404Y-114704761D01*
X112841547Y-114752380D01*
X112746309Y-114752380D01*
X112603452Y-114704761D01*
X112508214Y-114609523D01*
X112460595Y-114514285D01*
X112412976Y-114323809D01*
X112412976Y-114180952D01*
X112460595Y-113990476D01*
X112508214Y-113895238D01*
X112603452Y-113800000D01*
X112746309Y-113752380D01*
X112841547Y-113752380D01*
X112984404Y-113800000D01*
X113032023Y-113847619D01*
X113508214Y-114752380D02*
X113698690Y-114752380D01*
X113793928Y-114704761D01*
X113841547Y-114657142D01*
X113936785Y-114514285D01*
X113984404Y-114323809D01*
X113984404Y-113942857D01*
X113936785Y-113847619D01*
X113889166Y-113800000D01*
X113793928Y-113752380D01*
X113603452Y-113752380D01*
X113508214Y-113800000D01*
X113460595Y-113847619D01*
X113412976Y-113942857D01*
X113412976Y-114180952D01*
X113460595Y-114276190D01*
X113508214Y-114323809D01*
X113603452Y-114371428D01*
X113793928Y-114371428D01*
X113889166Y-114323809D01*
X113936785Y-114276190D01*
X113984404Y-114180952D01*
X101935595Y-129992380D02*
X101935595Y-128992380D01*
X102316547Y-128992380D01*
X102411785Y-129040000D01*
X102459404Y-129087619D01*
X102507023Y-129182857D01*
X102507023Y-129325714D01*
X102459404Y-129420952D01*
X102411785Y-129468571D01*
X102316547Y-129516190D01*
X101935595Y-129516190D01*
X103507023Y-129897142D02*
X103459404Y-129944761D01*
X103316547Y-129992380D01*
X103221309Y-129992380D01*
X103078452Y-129944761D01*
X102983214Y-129849523D01*
X102935595Y-129754285D01*
X102887976Y-129563809D01*
X102887976Y-129420952D01*
X102935595Y-129230476D01*
X102983214Y-129135238D01*
X103078452Y-129040000D01*
X103221309Y-128992380D01*
X103316547Y-128992380D01*
X103459404Y-129040000D01*
X103507023Y-129087619D01*
X103840357Y-128992380D02*
X104507023Y-128992380D01*
X104078452Y-129992380D01*
X101935595Y-124912380D02*
X101935595Y-123912380D01*
X102316547Y-123912380D01*
X102411785Y-123960000D01*
X102459404Y-124007619D01*
X102507023Y-124102857D01*
X102507023Y-124245714D01*
X102459404Y-124340952D01*
X102411785Y-124388571D01*
X102316547Y-124436190D01*
X101935595Y-124436190D01*
X103507023Y-124817142D02*
X103459404Y-124864761D01*
X103316547Y-124912380D01*
X103221309Y-124912380D01*
X103078452Y-124864761D01*
X102983214Y-124769523D01*
X102935595Y-124674285D01*
X102887976Y-124483809D01*
X102887976Y-124340952D01*
X102935595Y-124150476D01*
X102983214Y-124055238D01*
X103078452Y-123960000D01*
X103221309Y-123912380D01*
X103316547Y-123912380D01*
X103459404Y-123960000D01*
X103507023Y-124007619D01*
X104411785Y-123912380D02*
X103935595Y-123912380D01*
X103887976Y-124388571D01*
X103935595Y-124340952D01*
X104030833Y-124293333D01*
X104268928Y-124293333D01*
X104364166Y-124340952D01*
X104411785Y-124388571D01*
X104459404Y-124483809D01*
X104459404Y-124721904D01*
X104411785Y-124817142D01*
X104364166Y-124864761D01*
X104268928Y-124912380D01*
X104030833Y-124912380D01*
X103935595Y-124864761D01*
X103887976Y-124817142D01*
X101935595Y-119832380D02*
X101935595Y-118832380D01*
X102316547Y-118832380D01*
X102411785Y-118880000D01*
X102459404Y-118927619D01*
X102507023Y-119022857D01*
X102507023Y-119165714D01*
X102459404Y-119260952D01*
X102411785Y-119308571D01*
X102316547Y-119356190D01*
X101935595Y-119356190D01*
X103507023Y-119737142D02*
X103459404Y-119784761D01*
X103316547Y-119832380D01*
X103221309Y-119832380D01*
X103078452Y-119784761D01*
X102983214Y-119689523D01*
X102935595Y-119594285D01*
X102887976Y-119403809D01*
X102887976Y-119260952D01*
X102935595Y-119070476D01*
X102983214Y-118975238D01*
X103078452Y-118880000D01*
X103221309Y-118832380D01*
X103316547Y-118832380D01*
X103459404Y-118880000D01*
X103507023Y-118927619D01*
X103840357Y-118832380D02*
X104459404Y-118832380D01*
X104126071Y-119213333D01*
X104268928Y-119213333D01*
X104364166Y-119260952D01*
X104411785Y-119308571D01*
X104459404Y-119403809D01*
X104459404Y-119641904D01*
X104411785Y-119737142D01*
X104364166Y-119784761D01*
X104268928Y-119832380D01*
X103983214Y-119832380D01*
X103887976Y-119784761D01*
X103840357Y-119737142D01*
X101935595Y-114752380D02*
X101935595Y-113752380D01*
X102316547Y-113752380D01*
X102411785Y-113800000D01*
X102459404Y-113847619D01*
X102507023Y-113942857D01*
X102507023Y-114085714D01*
X102459404Y-114180952D01*
X102411785Y-114228571D01*
X102316547Y-114276190D01*
X101935595Y-114276190D01*
X103507023Y-114657142D02*
X103459404Y-114704761D01*
X103316547Y-114752380D01*
X103221309Y-114752380D01*
X103078452Y-114704761D01*
X102983214Y-114609523D01*
X102935595Y-114514285D01*
X102887976Y-114323809D01*
X102887976Y-114180952D01*
X102935595Y-113990476D01*
X102983214Y-113895238D01*
X103078452Y-113800000D01*
X103221309Y-113752380D01*
X103316547Y-113752380D01*
X103459404Y-113800000D01*
X103507023Y-113847619D01*
X104459404Y-114752380D02*
X103887976Y-114752380D01*
X104173690Y-114752380D02*
X104173690Y-113752380D01*
X104078452Y-113895238D01*
X103983214Y-113990476D01*
X103887976Y-114038095D01*
X111460595Y-127452380D02*
X111460595Y-126452380D01*
X111841547Y-126452380D01*
X111936785Y-126500000D01*
X111984404Y-126547619D01*
X112032023Y-126642857D01*
X112032023Y-126785714D01*
X111984404Y-126880952D01*
X111936785Y-126928571D01*
X111841547Y-126976190D01*
X111460595Y-126976190D01*
X113032023Y-127357142D02*
X112984404Y-127404761D01*
X112841547Y-127452380D01*
X112746309Y-127452380D01*
X112603452Y-127404761D01*
X112508214Y-127309523D01*
X112460595Y-127214285D01*
X112412976Y-127023809D01*
X112412976Y-126880952D01*
X112460595Y-126690476D01*
X112508214Y-126595238D01*
X112603452Y-126500000D01*
X112746309Y-126452380D01*
X112841547Y-126452380D01*
X112984404Y-126500000D01*
X113032023Y-126547619D01*
X113984404Y-127452380D02*
X113412976Y-127452380D01*
X113698690Y-127452380D02*
X113698690Y-126452380D01*
X113603452Y-126595238D01*
X113508214Y-126690476D01*
X113412976Y-126738095D01*
X114841547Y-126785714D02*
X114841547Y-127452380D01*
X114603452Y-126404761D02*
X114365357Y-127119047D01*
X114984404Y-127119047D01*
X111460595Y-122372380D02*
X111460595Y-121372380D01*
X111841547Y-121372380D01*
X111936785Y-121420000D01*
X111984404Y-121467619D01*
X112032023Y-121562857D01*
X112032023Y-121705714D01*
X111984404Y-121800952D01*
X111936785Y-121848571D01*
X111841547Y-121896190D01*
X111460595Y-121896190D01*
X113032023Y-122277142D02*
X112984404Y-122324761D01*
X112841547Y-122372380D01*
X112746309Y-122372380D01*
X112603452Y-122324761D01*
X112508214Y-122229523D01*
X112460595Y-122134285D01*
X112412976Y-121943809D01*
X112412976Y-121800952D01*
X112460595Y-121610476D01*
X112508214Y-121515238D01*
X112603452Y-121420000D01*
X112746309Y-121372380D01*
X112841547Y-121372380D01*
X112984404Y-121420000D01*
X113032023Y-121467619D01*
X113984404Y-122372380D02*
X113412976Y-122372380D01*
X113698690Y-122372380D02*
X113698690Y-121372380D01*
X113603452Y-121515238D01*
X113508214Y-121610476D01*
X113412976Y-121658095D01*
X114365357Y-121467619D02*
X114412976Y-121420000D01*
X114508214Y-121372380D01*
X114746309Y-121372380D01*
X114841547Y-121420000D01*
X114889166Y-121467619D01*
X114936785Y-121562857D01*
X114936785Y-121658095D01*
X114889166Y-121800952D01*
X114317738Y-122372380D01*
X114936785Y-122372380D01*
X111460595Y-117292380D02*
X111460595Y-116292380D01*
X111841547Y-116292380D01*
X111936785Y-116340000D01*
X111984404Y-116387619D01*
X112032023Y-116482857D01*
X112032023Y-116625714D01*
X111984404Y-116720952D01*
X111936785Y-116768571D01*
X111841547Y-116816190D01*
X111460595Y-116816190D01*
X113032023Y-117197142D02*
X112984404Y-117244761D01*
X112841547Y-117292380D01*
X112746309Y-117292380D01*
X112603452Y-117244761D01*
X112508214Y-117149523D01*
X112460595Y-117054285D01*
X112412976Y-116863809D01*
X112412976Y-116720952D01*
X112460595Y-116530476D01*
X112508214Y-116435238D01*
X112603452Y-116340000D01*
X112746309Y-116292380D01*
X112841547Y-116292380D01*
X112984404Y-116340000D01*
X113032023Y-116387619D01*
X113984404Y-117292380D02*
X113412976Y-117292380D01*
X113698690Y-117292380D02*
X113698690Y-116292380D01*
X113603452Y-116435238D01*
X113508214Y-116530476D01*
X113412976Y-116578095D01*
X114603452Y-116292380D02*
X114698690Y-116292380D01*
X114793928Y-116340000D01*
X114841547Y-116387619D01*
X114889166Y-116482857D01*
X114936785Y-116673333D01*
X114936785Y-116911428D01*
X114889166Y-117101904D01*
X114841547Y-117197142D01*
X114793928Y-117244761D01*
X114698690Y-117292380D01*
X114603452Y-117292380D01*
X114508214Y-117244761D01*
X114460595Y-117197142D01*
X114412976Y-117101904D01*
X114365357Y-116911428D01*
X114365357Y-116673333D01*
X114412976Y-116482857D01*
X114460595Y-116387619D01*
X114508214Y-116340000D01*
X114603452Y-116292380D01*
X111460595Y-112212380D02*
X111460595Y-111212380D01*
X111841547Y-111212380D01*
X111936785Y-111260000D01*
X111984404Y-111307619D01*
X112032023Y-111402857D01*
X112032023Y-111545714D01*
X111984404Y-111640952D01*
X111936785Y-111688571D01*
X111841547Y-111736190D01*
X111460595Y-111736190D01*
X113032023Y-112117142D02*
X112984404Y-112164761D01*
X112841547Y-112212380D01*
X112746309Y-112212380D01*
X112603452Y-112164761D01*
X112508214Y-112069523D01*
X112460595Y-111974285D01*
X112412976Y-111783809D01*
X112412976Y-111640952D01*
X112460595Y-111450476D01*
X112508214Y-111355238D01*
X112603452Y-111260000D01*
X112746309Y-111212380D01*
X112841547Y-111212380D01*
X112984404Y-111260000D01*
X113032023Y-111307619D01*
X113603452Y-111640952D02*
X113508214Y-111593333D01*
X113460595Y-111545714D01*
X113412976Y-111450476D01*
X113412976Y-111402857D01*
X113460595Y-111307619D01*
X113508214Y-111260000D01*
X113603452Y-111212380D01*
X113793928Y-111212380D01*
X113889166Y-111260000D01*
X113936785Y-111307619D01*
X113984404Y-111402857D01*
X113984404Y-111450476D01*
X113936785Y-111545714D01*
X113889166Y-111593333D01*
X113793928Y-111640952D01*
X113603452Y-111640952D01*
X113508214Y-111688571D01*
X113460595Y-111736190D01*
X113412976Y-111831428D01*
X113412976Y-112021904D01*
X113460595Y-112117142D01*
X113508214Y-112164761D01*
X113603452Y-112212380D01*
X113793928Y-112212380D01*
X113889166Y-112164761D01*
X113936785Y-112117142D01*
X113984404Y-112021904D01*
X113984404Y-111831428D01*
X113936785Y-111736190D01*
X113889166Y-111688571D01*
X113793928Y-111640952D01*
X101935595Y-127452380D02*
X101935595Y-126452380D01*
X102316547Y-126452380D01*
X102411785Y-126500000D01*
X102459404Y-126547619D01*
X102507023Y-126642857D01*
X102507023Y-126785714D01*
X102459404Y-126880952D01*
X102411785Y-126928571D01*
X102316547Y-126976190D01*
X101935595Y-126976190D01*
X103507023Y-127357142D02*
X103459404Y-127404761D01*
X103316547Y-127452380D01*
X103221309Y-127452380D01*
X103078452Y-127404761D01*
X102983214Y-127309523D01*
X102935595Y-127214285D01*
X102887976Y-127023809D01*
X102887976Y-126880952D01*
X102935595Y-126690476D01*
X102983214Y-126595238D01*
X103078452Y-126500000D01*
X103221309Y-126452380D01*
X103316547Y-126452380D01*
X103459404Y-126500000D01*
X103507023Y-126547619D01*
X104364166Y-126452380D02*
X104173690Y-126452380D01*
X104078452Y-126500000D01*
X104030833Y-126547619D01*
X103935595Y-126690476D01*
X103887976Y-126880952D01*
X103887976Y-127261904D01*
X103935595Y-127357142D01*
X103983214Y-127404761D01*
X104078452Y-127452380D01*
X104268928Y-127452380D01*
X104364166Y-127404761D01*
X104411785Y-127357142D01*
X104459404Y-127261904D01*
X104459404Y-127023809D01*
X104411785Y-126928571D01*
X104364166Y-126880952D01*
X104268928Y-126833333D01*
X104078452Y-126833333D01*
X103983214Y-126880952D01*
X103935595Y-126928571D01*
X103887976Y-127023809D01*
X101935595Y-122372380D02*
X101935595Y-121372380D01*
X102316547Y-121372380D01*
X102411785Y-121420000D01*
X102459404Y-121467619D01*
X102507023Y-121562857D01*
X102507023Y-121705714D01*
X102459404Y-121800952D01*
X102411785Y-121848571D01*
X102316547Y-121896190D01*
X101935595Y-121896190D01*
X103507023Y-122277142D02*
X103459404Y-122324761D01*
X103316547Y-122372380D01*
X103221309Y-122372380D01*
X103078452Y-122324761D01*
X102983214Y-122229523D01*
X102935595Y-122134285D01*
X102887976Y-121943809D01*
X102887976Y-121800952D01*
X102935595Y-121610476D01*
X102983214Y-121515238D01*
X103078452Y-121420000D01*
X103221309Y-121372380D01*
X103316547Y-121372380D01*
X103459404Y-121420000D01*
X103507023Y-121467619D01*
X104364166Y-121705714D02*
X104364166Y-122372380D01*
X104126071Y-121324761D02*
X103887976Y-122039047D01*
X104507023Y-122039047D01*
X101935595Y-117292380D02*
X101935595Y-116292380D01*
X102316547Y-116292380D01*
X102411785Y-116340000D01*
X102459404Y-116387619D01*
X102507023Y-116482857D01*
X102507023Y-116625714D01*
X102459404Y-116720952D01*
X102411785Y-116768571D01*
X102316547Y-116816190D01*
X101935595Y-116816190D01*
X103507023Y-117197142D02*
X103459404Y-117244761D01*
X103316547Y-117292380D01*
X103221309Y-117292380D01*
X103078452Y-117244761D01*
X102983214Y-117149523D01*
X102935595Y-117054285D01*
X102887976Y-116863809D01*
X102887976Y-116720952D01*
X102935595Y-116530476D01*
X102983214Y-116435238D01*
X103078452Y-116340000D01*
X103221309Y-116292380D01*
X103316547Y-116292380D01*
X103459404Y-116340000D01*
X103507023Y-116387619D01*
X103887976Y-116387619D02*
X103935595Y-116340000D01*
X104030833Y-116292380D01*
X104268928Y-116292380D01*
X104364166Y-116340000D01*
X104411785Y-116387619D01*
X104459404Y-116482857D01*
X104459404Y-116578095D01*
X104411785Y-116720952D01*
X103840357Y-117292380D01*
X104459404Y-117292380D01*
X101935595Y-112212380D02*
X101935595Y-111212380D01*
X102316547Y-111212380D01*
X102411785Y-111260000D01*
X102459404Y-111307619D01*
X102507023Y-111402857D01*
X102507023Y-111545714D01*
X102459404Y-111640952D01*
X102411785Y-111688571D01*
X102316547Y-111736190D01*
X101935595Y-111736190D01*
X103507023Y-112117142D02*
X103459404Y-112164761D01*
X103316547Y-112212380D01*
X103221309Y-112212380D01*
X103078452Y-112164761D01*
X102983214Y-112069523D01*
X102935595Y-111974285D01*
X102887976Y-111783809D01*
X102887976Y-111640952D01*
X102935595Y-111450476D01*
X102983214Y-111355238D01*
X103078452Y-111260000D01*
X103221309Y-111212380D01*
X103316547Y-111212380D01*
X103459404Y-111260000D01*
X103507023Y-111307619D01*
X104126071Y-111212380D02*
X104221309Y-111212380D01*
X104316547Y-111260000D01*
X104364166Y-111307619D01*
X104411785Y-111402857D01*
X104459404Y-111593333D01*
X104459404Y-111831428D01*
X104411785Y-112021904D01*
X104364166Y-112117142D01*
X104316547Y-112164761D01*
X104221309Y-112212380D01*
X104126071Y-112212380D01*
X104030833Y-112164761D01*
X103983214Y-112117142D01*
X103935595Y-112021904D01*
X103887976Y-111831428D01*
X103887976Y-111593333D01*
X103935595Y-111402857D01*
X103983214Y-111307619D01*
X104030833Y-111260000D01*
X104126071Y-111212380D01*
X111460595Y-102052380D02*
X111460595Y-101052380D01*
X111841547Y-101052380D01*
X111936785Y-101100000D01*
X111984404Y-101147619D01*
X112032023Y-101242857D01*
X112032023Y-101385714D01*
X111984404Y-101480952D01*
X111936785Y-101528571D01*
X111841547Y-101576190D01*
X111460595Y-101576190D01*
X112793928Y-101528571D02*
X112936785Y-101576190D01*
X112984404Y-101623809D01*
X113032023Y-101719047D01*
X113032023Y-101861904D01*
X112984404Y-101957142D01*
X112936785Y-102004761D01*
X112841547Y-102052380D01*
X112460595Y-102052380D01*
X112460595Y-101052380D01*
X112793928Y-101052380D01*
X112889166Y-101100000D01*
X112936785Y-101147619D01*
X112984404Y-101242857D01*
X112984404Y-101338095D01*
X112936785Y-101433333D01*
X112889166Y-101480952D01*
X112793928Y-101528571D01*
X112460595Y-101528571D01*
X113984404Y-102052380D02*
X113412976Y-102052380D01*
X113698690Y-102052380D02*
X113698690Y-101052380D01*
X113603452Y-101195238D01*
X113508214Y-101290476D01*
X113412976Y-101338095D01*
X114889166Y-101052380D02*
X114412976Y-101052380D01*
X114365357Y-101528571D01*
X114412976Y-101480952D01*
X114508214Y-101433333D01*
X114746309Y-101433333D01*
X114841547Y-101480952D01*
X114889166Y-101528571D01*
X114936785Y-101623809D01*
X114936785Y-101861904D01*
X114889166Y-101957142D01*
X114841547Y-102004761D01*
X114746309Y-102052380D01*
X114508214Y-102052380D01*
X114412976Y-102004761D01*
X114365357Y-101957142D01*
X111460595Y-96972380D02*
X111460595Y-95972380D01*
X111841547Y-95972380D01*
X111936785Y-96020000D01*
X111984404Y-96067619D01*
X112032023Y-96162857D01*
X112032023Y-96305714D01*
X111984404Y-96400952D01*
X111936785Y-96448571D01*
X111841547Y-96496190D01*
X111460595Y-96496190D01*
X112793928Y-96448571D02*
X112936785Y-96496190D01*
X112984404Y-96543809D01*
X113032023Y-96639047D01*
X113032023Y-96781904D01*
X112984404Y-96877142D01*
X112936785Y-96924761D01*
X112841547Y-96972380D01*
X112460595Y-96972380D01*
X112460595Y-95972380D01*
X112793928Y-95972380D01*
X112889166Y-96020000D01*
X112936785Y-96067619D01*
X112984404Y-96162857D01*
X112984404Y-96258095D01*
X112936785Y-96353333D01*
X112889166Y-96400952D01*
X112793928Y-96448571D01*
X112460595Y-96448571D01*
X113984404Y-96972380D02*
X113412976Y-96972380D01*
X113698690Y-96972380D02*
X113698690Y-95972380D01*
X113603452Y-96115238D01*
X113508214Y-96210476D01*
X113412976Y-96258095D01*
X114317738Y-95972380D02*
X114936785Y-95972380D01*
X114603452Y-96353333D01*
X114746309Y-96353333D01*
X114841547Y-96400952D01*
X114889166Y-96448571D01*
X114936785Y-96543809D01*
X114936785Y-96781904D01*
X114889166Y-96877142D01*
X114841547Y-96924761D01*
X114746309Y-96972380D01*
X114460595Y-96972380D01*
X114365357Y-96924761D01*
X114317738Y-96877142D01*
X111460595Y-91892380D02*
X111460595Y-90892380D01*
X111841547Y-90892380D01*
X111936785Y-90940000D01*
X111984404Y-90987619D01*
X112032023Y-91082857D01*
X112032023Y-91225714D01*
X111984404Y-91320952D01*
X111936785Y-91368571D01*
X111841547Y-91416190D01*
X111460595Y-91416190D01*
X112793928Y-91368571D02*
X112936785Y-91416190D01*
X112984404Y-91463809D01*
X113032023Y-91559047D01*
X113032023Y-91701904D01*
X112984404Y-91797142D01*
X112936785Y-91844761D01*
X112841547Y-91892380D01*
X112460595Y-91892380D01*
X112460595Y-90892380D01*
X112793928Y-90892380D01*
X112889166Y-90940000D01*
X112936785Y-90987619D01*
X112984404Y-91082857D01*
X112984404Y-91178095D01*
X112936785Y-91273333D01*
X112889166Y-91320952D01*
X112793928Y-91368571D01*
X112460595Y-91368571D01*
X113984404Y-91892380D02*
X113412976Y-91892380D01*
X113698690Y-91892380D02*
X113698690Y-90892380D01*
X113603452Y-91035238D01*
X113508214Y-91130476D01*
X113412976Y-91178095D01*
X114936785Y-91892380D02*
X114365357Y-91892380D01*
X114651071Y-91892380D02*
X114651071Y-90892380D01*
X114555833Y-91035238D01*
X114460595Y-91130476D01*
X114365357Y-91178095D01*
X111460595Y-86812380D02*
X111460595Y-85812380D01*
X111841547Y-85812380D01*
X111936785Y-85860000D01*
X111984404Y-85907619D01*
X112032023Y-86002857D01*
X112032023Y-86145714D01*
X111984404Y-86240952D01*
X111936785Y-86288571D01*
X111841547Y-86336190D01*
X111460595Y-86336190D01*
X112793928Y-86288571D02*
X112936785Y-86336190D01*
X112984404Y-86383809D01*
X113032023Y-86479047D01*
X113032023Y-86621904D01*
X112984404Y-86717142D01*
X112936785Y-86764761D01*
X112841547Y-86812380D01*
X112460595Y-86812380D01*
X112460595Y-85812380D01*
X112793928Y-85812380D01*
X112889166Y-85860000D01*
X112936785Y-85907619D01*
X112984404Y-86002857D01*
X112984404Y-86098095D01*
X112936785Y-86193333D01*
X112889166Y-86240952D01*
X112793928Y-86288571D01*
X112460595Y-86288571D01*
X113508214Y-86812380D02*
X113698690Y-86812380D01*
X113793928Y-86764761D01*
X113841547Y-86717142D01*
X113936785Y-86574285D01*
X113984404Y-86383809D01*
X113984404Y-86002857D01*
X113936785Y-85907619D01*
X113889166Y-85860000D01*
X113793928Y-85812380D01*
X113603452Y-85812380D01*
X113508214Y-85860000D01*
X113460595Y-85907619D01*
X113412976Y-86002857D01*
X113412976Y-86240952D01*
X113460595Y-86336190D01*
X113508214Y-86383809D01*
X113603452Y-86431428D01*
X113793928Y-86431428D01*
X113889166Y-86383809D01*
X113936785Y-86336190D01*
X113984404Y-86240952D01*
X101935595Y-102052380D02*
X101935595Y-101052380D01*
X102316547Y-101052380D01*
X102411785Y-101100000D01*
X102459404Y-101147619D01*
X102507023Y-101242857D01*
X102507023Y-101385714D01*
X102459404Y-101480952D01*
X102411785Y-101528571D01*
X102316547Y-101576190D01*
X101935595Y-101576190D01*
X103268928Y-101528571D02*
X103411785Y-101576190D01*
X103459404Y-101623809D01*
X103507023Y-101719047D01*
X103507023Y-101861904D01*
X103459404Y-101957142D01*
X103411785Y-102004761D01*
X103316547Y-102052380D01*
X102935595Y-102052380D01*
X102935595Y-101052380D01*
X103268928Y-101052380D01*
X103364166Y-101100000D01*
X103411785Y-101147619D01*
X103459404Y-101242857D01*
X103459404Y-101338095D01*
X103411785Y-101433333D01*
X103364166Y-101480952D01*
X103268928Y-101528571D01*
X102935595Y-101528571D01*
X103840357Y-101052380D02*
X104507023Y-101052380D01*
X104078452Y-102052380D01*
X101935595Y-96972380D02*
X101935595Y-95972380D01*
X102316547Y-95972380D01*
X102411785Y-96020000D01*
X102459404Y-96067619D01*
X102507023Y-96162857D01*
X102507023Y-96305714D01*
X102459404Y-96400952D01*
X102411785Y-96448571D01*
X102316547Y-96496190D01*
X101935595Y-96496190D01*
X103268928Y-96448571D02*
X103411785Y-96496190D01*
X103459404Y-96543809D01*
X103507023Y-96639047D01*
X103507023Y-96781904D01*
X103459404Y-96877142D01*
X103411785Y-96924761D01*
X103316547Y-96972380D01*
X102935595Y-96972380D01*
X102935595Y-95972380D01*
X103268928Y-95972380D01*
X103364166Y-96020000D01*
X103411785Y-96067619D01*
X103459404Y-96162857D01*
X103459404Y-96258095D01*
X103411785Y-96353333D01*
X103364166Y-96400952D01*
X103268928Y-96448571D01*
X102935595Y-96448571D01*
X104411785Y-95972380D02*
X103935595Y-95972380D01*
X103887976Y-96448571D01*
X103935595Y-96400952D01*
X104030833Y-96353333D01*
X104268928Y-96353333D01*
X104364166Y-96400952D01*
X104411785Y-96448571D01*
X104459404Y-96543809D01*
X104459404Y-96781904D01*
X104411785Y-96877142D01*
X104364166Y-96924761D01*
X104268928Y-96972380D01*
X104030833Y-96972380D01*
X103935595Y-96924761D01*
X103887976Y-96877142D01*
X101935595Y-91892380D02*
X101935595Y-90892380D01*
X102316547Y-90892380D01*
X102411785Y-90940000D01*
X102459404Y-90987619D01*
X102507023Y-91082857D01*
X102507023Y-91225714D01*
X102459404Y-91320952D01*
X102411785Y-91368571D01*
X102316547Y-91416190D01*
X101935595Y-91416190D01*
X103268928Y-91368571D02*
X103411785Y-91416190D01*
X103459404Y-91463809D01*
X103507023Y-91559047D01*
X103507023Y-91701904D01*
X103459404Y-91797142D01*
X103411785Y-91844761D01*
X103316547Y-91892380D01*
X102935595Y-91892380D01*
X102935595Y-90892380D01*
X103268928Y-90892380D01*
X103364166Y-90940000D01*
X103411785Y-90987619D01*
X103459404Y-91082857D01*
X103459404Y-91178095D01*
X103411785Y-91273333D01*
X103364166Y-91320952D01*
X103268928Y-91368571D01*
X102935595Y-91368571D01*
X103840357Y-90892380D02*
X104459404Y-90892380D01*
X104126071Y-91273333D01*
X104268928Y-91273333D01*
X104364166Y-91320952D01*
X104411785Y-91368571D01*
X104459404Y-91463809D01*
X104459404Y-91701904D01*
X104411785Y-91797142D01*
X104364166Y-91844761D01*
X104268928Y-91892380D01*
X103983214Y-91892380D01*
X103887976Y-91844761D01*
X103840357Y-91797142D01*
X101935595Y-86812380D02*
X101935595Y-85812380D01*
X102316547Y-85812380D01*
X102411785Y-85860000D01*
X102459404Y-85907619D01*
X102507023Y-86002857D01*
X102507023Y-86145714D01*
X102459404Y-86240952D01*
X102411785Y-86288571D01*
X102316547Y-86336190D01*
X101935595Y-86336190D01*
X103268928Y-86288571D02*
X103411785Y-86336190D01*
X103459404Y-86383809D01*
X103507023Y-86479047D01*
X103507023Y-86621904D01*
X103459404Y-86717142D01*
X103411785Y-86764761D01*
X103316547Y-86812380D01*
X102935595Y-86812380D01*
X102935595Y-85812380D01*
X103268928Y-85812380D01*
X103364166Y-85860000D01*
X103411785Y-85907619D01*
X103459404Y-86002857D01*
X103459404Y-86098095D01*
X103411785Y-86193333D01*
X103364166Y-86240952D01*
X103268928Y-86288571D01*
X102935595Y-86288571D01*
X104459404Y-86812380D02*
X103887976Y-86812380D01*
X104173690Y-86812380D02*
X104173690Y-85812380D01*
X104078452Y-85955238D01*
X103983214Y-86050476D01*
X103887976Y-86098095D01*
X111460595Y-99512380D02*
X111460595Y-98512380D01*
X111841547Y-98512380D01*
X111936785Y-98560000D01*
X111984404Y-98607619D01*
X112032023Y-98702857D01*
X112032023Y-98845714D01*
X111984404Y-98940952D01*
X111936785Y-98988571D01*
X111841547Y-99036190D01*
X111460595Y-99036190D01*
X112793928Y-98988571D02*
X112936785Y-99036190D01*
X112984404Y-99083809D01*
X113032023Y-99179047D01*
X113032023Y-99321904D01*
X112984404Y-99417142D01*
X112936785Y-99464761D01*
X112841547Y-99512380D01*
X112460595Y-99512380D01*
X112460595Y-98512380D01*
X112793928Y-98512380D01*
X112889166Y-98560000D01*
X112936785Y-98607619D01*
X112984404Y-98702857D01*
X112984404Y-98798095D01*
X112936785Y-98893333D01*
X112889166Y-98940952D01*
X112793928Y-98988571D01*
X112460595Y-98988571D01*
X113984404Y-99512380D02*
X113412976Y-99512380D01*
X113698690Y-99512380D02*
X113698690Y-98512380D01*
X113603452Y-98655238D01*
X113508214Y-98750476D01*
X113412976Y-98798095D01*
X114841547Y-98845714D02*
X114841547Y-99512380D01*
X114603452Y-98464761D02*
X114365357Y-99179047D01*
X114984404Y-99179047D01*
X111460595Y-94432380D02*
X111460595Y-93432380D01*
X111841547Y-93432380D01*
X111936785Y-93480000D01*
X111984404Y-93527619D01*
X112032023Y-93622857D01*
X112032023Y-93765714D01*
X111984404Y-93860952D01*
X111936785Y-93908571D01*
X111841547Y-93956190D01*
X111460595Y-93956190D01*
X112793928Y-93908571D02*
X112936785Y-93956190D01*
X112984404Y-94003809D01*
X113032023Y-94099047D01*
X113032023Y-94241904D01*
X112984404Y-94337142D01*
X112936785Y-94384761D01*
X112841547Y-94432380D01*
X112460595Y-94432380D01*
X112460595Y-93432380D01*
X112793928Y-93432380D01*
X112889166Y-93480000D01*
X112936785Y-93527619D01*
X112984404Y-93622857D01*
X112984404Y-93718095D01*
X112936785Y-93813333D01*
X112889166Y-93860952D01*
X112793928Y-93908571D01*
X112460595Y-93908571D01*
X113984404Y-94432380D02*
X113412976Y-94432380D01*
X113698690Y-94432380D02*
X113698690Y-93432380D01*
X113603452Y-93575238D01*
X113508214Y-93670476D01*
X113412976Y-93718095D01*
X114365357Y-93527619D02*
X114412976Y-93480000D01*
X114508214Y-93432380D01*
X114746309Y-93432380D01*
X114841547Y-93480000D01*
X114889166Y-93527619D01*
X114936785Y-93622857D01*
X114936785Y-93718095D01*
X114889166Y-93860952D01*
X114317738Y-94432380D01*
X114936785Y-94432380D01*
X111460595Y-89352380D02*
X111460595Y-88352380D01*
X111841547Y-88352380D01*
X111936785Y-88400000D01*
X111984404Y-88447619D01*
X112032023Y-88542857D01*
X112032023Y-88685714D01*
X111984404Y-88780952D01*
X111936785Y-88828571D01*
X111841547Y-88876190D01*
X111460595Y-88876190D01*
X112793928Y-88828571D02*
X112936785Y-88876190D01*
X112984404Y-88923809D01*
X113032023Y-89019047D01*
X113032023Y-89161904D01*
X112984404Y-89257142D01*
X112936785Y-89304761D01*
X112841547Y-89352380D01*
X112460595Y-89352380D01*
X112460595Y-88352380D01*
X112793928Y-88352380D01*
X112889166Y-88400000D01*
X112936785Y-88447619D01*
X112984404Y-88542857D01*
X112984404Y-88638095D01*
X112936785Y-88733333D01*
X112889166Y-88780952D01*
X112793928Y-88828571D01*
X112460595Y-88828571D01*
X113984404Y-89352380D02*
X113412976Y-89352380D01*
X113698690Y-89352380D02*
X113698690Y-88352380D01*
X113603452Y-88495238D01*
X113508214Y-88590476D01*
X113412976Y-88638095D01*
X114603452Y-88352380D02*
X114698690Y-88352380D01*
X114793928Y-88400000D01*
X114841547Y-88447619D01*
X114889166Y-88542857D01*
X114936785Y-88733333D01*
X114936785Y-88971428D01*
X114889166Y-89161904D01*
X114841547Y-89257142D01*
X114793928Y-89304761D01*
X114698690Y-89352380D01*
X114603452Y-89352380D01*
X114508214Y-89304761D01*
X114460595Y-89257142D01*
X114412976Y-89161904D01*
X114365357Y-88971428D01*
X114365357Y-88733333D01*
X114412976Y-88542857D01*
X114460595Y-88447619D01*
X114508214Y-88400000D01*
X114603452Y-88352380D01*
X111460595Y-84272380D02*
X111460595Y-83272380D01*
X111841547Y-83272380D01*
X111936785Y-83320000D01*
X111984404Y-83367619D01*
X112032023Y-83462857D01*
X112032023Y-83605714D01*
X111984404Y-83700952D01*
X111936785Y-83748571D01*
X111841547Y-83796190D01*
X111460595Y-83796190D01*
X112793928Y-83748571D02*
X112936785Y-83796190D01*
X112984404Y-83843809D01*
X113032023Y-83939047D01*
X113032023Y-84081904D01*
X112984404Y-84177142D01*
X112936785Y-84224761D01*
X112841547Y-84272380D01*
X112460595Y-84272380D01*
X112460595Y-83272380D01*
X112793928Y-83272380D01*
X112889166Y-83320000D01*
X112936785Y-83367619D01*
X112984404Y-83462857D01*
X112984404Y-83558095D01*
X112936785Y-83653333D01*
X112889166Y-83700952D01*
X112793928Y-83748571D01*
X112460595Y-83748571D01*
X113603452Y-83700952D02*
X113508214Y-83653333D01*
X113460595Y-83605714D01*
X113412976Y-83510476D01*
X113412976Y-83462857D01*
X113460595Y-83367619D01*
X113508214Y-83320000D01*
X113603452Y-83272380D01*
X113793928Y-83272380D01*
X113889166Y-83320000D01*
X113936785Y-83367619D01*
X113984404Y-83462857D01*
X113984404Y-83510476D01*
X113936785Y-83605714D01*
X113889166Y-83653333D01*
X113793928Y-83700952D01*
X113603452Y-83700952D01*
X113508214Y-83748571D01*
X113460595Y-83796190D01*
X113412976Y-83891428D01*
X113412976Y-84081904D01*
X113460595Y-84177142D01*
X113508214Y-84224761D01*
X113603452Y-84272380D01*
X113793928Y-84272380D01*
X113889166Y-84224761D01*
X113936785Y-84177142D01*
X113984404Y-84081904D01*
X113984404Y-83891428D01*
X113936785Y-83796190D01*
X113889166Y-83748571D01*
X113793928Y-83700952D01*
X101935595Y-99512380D02*
X101935595Y-98512380D01*
X102316547Y-98512380D01*
X102411785Y-98560000D01*
X102459404Y-98607619D01*
X102507023Y-98702857D01*
X102507023Y-98845714D01*
X102459404Y-98940952D01*
X102411785Y-98988571D01*
X102316547Y-99036190D01*
X101935595Y-99036190D01*
X103268928Y-98988571D02*
X103411785Y-99036190D01*
X103459404Y-99083809D01*
X103507023Y-99179047D01*
X103507023Y-99321904D01*
X103459404Y-99417142D01*
X103411785Y-99464761D01*
X103316547Y-99512380D01*
X102935595Y-99512380D01*
X102935595Y-98512380D01*
X103268928Y-98512380D01*
X103364166Y-98560000D01*
X103411785Y-98607619D01*
X103459404Y-98702857D01*
X103459404Y-98798095D01*
X103411785Y-98893333D01*
X103364166Y-98940952D01*
X103268928Y-98988571D01*
X102935595Y-98988571D01*
X104364166Y-98512380D02*
X104173690Y-98512380D01*
X104078452Y-98560000D01*
X104030833Y-98607619D01*
X103935595Y-98750476D01*
X103887976Y-98940952D01*
X103887976Y-99321904D01*
X103935595Y-99417142D01*
X103983214Y-99464761D01*
X104078452Y-99512380D01*
X104268928Y-99512380D01*
X104364166Y-99464761D01*
X104411785Y-99417142D01*
X104459404Y-99321904D01*
X104459404Y-99083809D01*
X104411785Y-98988571D01*
X104364166Y-98940952D01*
X104268928Y-98893333D01*
X104078452Y-98893333D01*
X103983214Y-98940952D01*
X103935595Y-98988571D01*
X103887976Y-99083809D01*
X101935595Y-94432380D02*
X101935595Y-93432380D01*
X102316547Y-93432380D01*
X102411785Y-93480000D01*
X102459404Y-93527619D01*
X102507023Y-93622857D01*
X102507023Y-93765714D01*
X102459404Y-93860952D01*
X102411785Y-93908571D01*
X102316547Y-93956190D01*
X101935595Y-93956190D01*
X103268928Y-93908571D02*
X103411785Y-93956190D01*
X103459404Y-94003809D01*
X103507023Y-94099047D01*
X103507023Y-94241904D01*
X103459404Y-94337142D01*
X103411785Y-94384761D01*
X103316547Y-94432380D01*
X102935595Y-94432380D01*
X102935595Y-93432380D01*
X103268928Y-93432380D01*
X103364166Y-93480000D01*
X103411785Y-93527619D01*
X103459404Y-93622857D01*
X103459404Y-93718095D01*
X103411785Y-93813333D01*
X103364166Y-93860952D01*
X103268928Y-93908571D01*
X102935595Y-93908571D01*
X104364166Y-93765714D02*
X104364166Y-94432380D01*
X104126071Y-93384761D02*
X103887976Y-94099047D01*
X104507023Y-94099047D01*
X101935595Y-89352380D02*
X101935595Y-88352380D01*
X102316547Y-88352380D01*
X102411785Y-88400000D01*
X102459404Y-88447619D01*
X102507023Y-88542857D01*
X102507023Y-88685714D01*
X102459404Y-88780952D01*
X102411785Y-88828571D01*
X102316547Y-88876190D01*
X101935595Y-88876190D01*
X103268928Y-88828571D02*
X103411785Y-88876190D01*
X103459404Y-88923809D01*
X103507023Y-89019047D01*
X103507023Y-89161904D01*
X103459404Y-89257142D01*
X103411785Y-89304761D01*
X103316547Y-89352380D01*
X102935595Y-89352380D01*
X102935595Y-88352380D01*
X103268928Y-88352380D01*
X103364166Y-88400000D01*
X103411785Y-88447619D01*
X103459404Y-88542857D01*
X103459404Y-88638095D01*
X103411785Y-88733333D01*
X103364166Y-88780952D01*
X103268928Y-88828571D01*
X102935595Y-88828571D01*
X103887976Y-88447619D02*
X103935595Y-88400000D01*
X104030833Y-88352380D01*
X104268928Y-88352380D01*
X104364166Y-88400000D01*
X104411785Y-88447619D01*
X104459404Y-88542857D01*
X104459404Y-88638095D01*
X104411785Y-88780952D01*
X103840357Y-89352380D01*
X104459404Y-89352380D01*
X101935595Y-84272380D02*
X101935595Y-83272380D01*
X102316547Y-83272380D01*
X102411785Y-83320000D01*
X102459404Y-83367619D01*
X102507023Y-83462857D01*
X102507023Y-83605714D01*
X102459404Y-83700952D01*
X102411785Y-83748571D01*
X102316547Y-83796190D01*
X101935595Y-83796190D01*
X103268928Y-83748571D02*
X103411785Y-83796190D01*
X103459404Y-83843809D01*
X103507023Y-83939047D01*
X103507023Y-84081904D01*
X103459404Y-84177142D01*
X103411785Y-84224761D01*
X103316547Y-84272380D01*
X102935595Y-84272380D01*
X102935595Y-83272380D01*
X103268928Y-83272380D01*
X103364166Y-83320000D01*
X103411785Y-83367619D01*
X103459404Y-83462857D01*
X103459404Y-83558095D01*
X103411785Y-83653333D01*
X103364166Y-83700952D01*
X103268928Y-83748571D01*
X102935595Y-83748571D01*
X104126071Y-83272380D02*
X104221309Y-83272380D01*
X104316547Y-83320000D01*
X104364166Y-83367619D01*
X104411785Y-83462857D01*
X104459404Y-83653333D01*
X104459404Y-83891428D01*
X104411785Y-84081904D01*
X104364166Y-84177142D01*
X104316547Y-84224761D01*
X104221309Y-84272380D01*
X104126071Y-84272380D01*
X104030833Y-84224761D01*
X103983214Y-84177142D01*
X103935595Y-84081904D01*
X103887976Y-83891428D01*
X103887976Y-83653333D01*
X103935595Y-83462857D01*
X103983214Y-83367619D01*
X104030833Y-83320000D01*
X104126071Y-83272380D01*
X111460595Y-74112380D02*
X111460595Y-73112380D01*
X111841547Y-73112380D01*
X111936785Y-73160000D01*
X111984404Y-73207619D01*
X112032023Y-73302857D01*
X112032023Y-73445714D01*
X111984404Y-73540952D01*
X111936785Y-73588571D01*
X111841547Y-73636190D01*
X111460595Y-73636190D01*
X112412976Y-73826666D02*
X112889166Y-73826666D01*
X112317738Y-74112380D02*
X112651071Y-73112380D01*
X112984404Y-74112380D01*
X113841547Y-74112380D02*
X113270119Y-74112380D01*
X113555833Y-74112380D02*
X113555833Y-73112380D01*
X113460595Y-73255238D01*
X113365357Y-73350476D01*
X113270119Y-73398095D01*
X114746309Y-73112380D02*
X114270119Y-73112380D01*
X114222500Y-73588571D01*
X114270119Y-73540952D01*
X114365357Y-73493333D01*
X114603452Y-73493333D01*
X114698690Y-73540952D01*
X114746309Y-73588571D01*
X114793928Y-73683809D01*
X114793928Y-73921904D01*
X114746309Y-74017142D01*
X114698690Y-74064761D01*
X114603452Y-74112380D01*
X114365357Y-74112380D01*
X114270119Y-74064761D01*
X114222500Y-74017142D01*
X111460595Y-69032380D02*
X111460595Y-68032380D01*
X111841547Y-68032380D01*
X111936785Y-68080000D01*
X111984404Y-68127619D01*
X112032023Y-68222857D01*
X112032023Y-68365714D01*
X111984404Y-68460952D01*
X111936785Y-68508571D01*
X111841547Y-68556190D01*
X111460595Y-68556190D01*
X112412976Y-68746666D02*
X112889166Y-68746666D01*
X112317738Y-69032380D02*
X112651071Y-68032380D01*
X112984404Y-69032380D01*
X113841547Y-69032380D02*
X113270119Y-69032380D01*
X113555833Y-69032380D02*
X113555833Y-68032380D01*
X113460595Y-68175238D01*
X113365357Y-68270476D01*
X113270119Y-68318095D01*
X114174880Y-68032380D02*
X114793928Y-68032380D01*
X114460595Y-68413333D01*
X114603452Y-68413333D01*
X114698690Y-68460952D01*
X114746309Y-68508571D01*
X114793928Y-68603809D01*
X114793928Y-68841904D01*
X114746309Y-68937142D01*
X114698690Y-68984761D01*
X114603452Y-69032380D01*
X114317738Y-69032380D01*
X114222500Y-68984761D01*
X114174880Y-68937142D01*
X111460595Y-63952380D02*
X111460595Y-62952380D01*
X111841547Y-62952380D01*
X111936785Y-63000000D01*
X111984404Y-63047619D01*
X112032023Y-63142857D01*
X112032023Y-63285714D01*
X111984404Y-63380952D01*
X111936785Y-63428571D01*
X111841547Y-63476190D01*
X111460595Y-63476190D01*
X112412976Y-63666666D02*
X112889166Y-63666666D01*
X112317738Y-63952380D02*
X112651071Y-62952380D01*
X112984404Y-63952380D01*
X113841547Y-63952380D02*
X113270119Y-63952380D01*
X113555833Y-63952380D02*
X113555833Y-62952380D01*
X113460595Y-63095238D01*
X113365357Y-63190476D01*
X113270119Y-63238095D01*
X114793928Y-63952380D02*
X114222500Y-63952380D01*
X114508214Y-63952380D02*
X114508214Y-62952380D01*
X114412976Y-63095238D01*
X114317738Y-63190476D01*
X114222500Y-63238095D01*
X111460595Y-58872380D02*
X111460595Y-57872380D01*
X111841547Y-57872380D01*
X111936785Y-57920000D01*
X111984404Y-57967619D01*
X112032023Y-58062857D01*
X112032023Y-58205714D01*
X111984404Y-58300952D01*
X111936785Y-58348571D01*
X111841547Y-58396190D01*
X111460595Y-58396190D01*
X112412976Y-58586666D02*
X112889166Y-58586666D01*
X112317738Y-58872380D02*
X112651071Y-57872380D01*
X112984404Y-58872380D01*
X113365357Y-58872380D02*
X113555833Y-58872380D01*
X113651071Y-58824761D01*
X113698690Y-58777142D01*
X113793928Y-58634285D01*
X113841547Y-58443809D01*
X113841547Y-58062857D01*
X113793928Y-57967619D01*
X113746309Y-57920000D01*
X113651071Y-57872380D01*
X113460595Y-57872380D01*
X113365357Y-57920000D01*
X113317738Y-57967619D01*
X113270119Y-58062857D01*
X113270119Y-58300952D01*
X113317738Y-58396190D01*
X113365357Y-58443809D01*
X113460595Y-58491428D01*
X113651071Y-58491428D01*
X113746309Y-58443809D01*
X113793928Y-58396190D01*
X113841547Y-58300952D01*
X101935595Y-74112380D02*
X101935595Y-73112380D01*
X102316547Y-73112380D01*
X102411785Y-73160000D01*
X102459404Y-73207619D01*
X102507023Y-73302857D01*
X102507023Y-73445714D01*
X102459404Y-73540952D01*
X102411785Y-73588571D01*
X102316547Y-73636190D01*
X101935595Y-73636190D01*
X102887976Y-73826666D02*
X103364166Y-73826666D01*
X102792738Y-74112380D02*
X103126071Y-73112380D01*
X103459404Y-74112380D01*
X103697500Y-73112380D02*
X104364166Y-73112380D01*
X103935595Y-74112380D01*
X101935595Y-69032380D02*
X101935595Y-68032380D01*
X102316547Y-68032380D01*
X102411785Y-68080000D01*
X102459404Y-68127619D01*
X102507023Y-68222857D01*
X102507023Y-68365714D01*
X102459404Y-68460952D01*
X102411785Y-68508571D01*
X102316547Y-68556190D01*
X101935595Y-68556190D01*
X102887976Y-68746666D02*
X103364166Y-68746666D01*
X102792738Y-69032380D02*
X103126071Y-68032380D01*
X103459404Y-69032380D01*
X104268928Y-68032380D02*
X103792738Y-68032380D01*
X103745119Y-68508571D01*
X103792738Y-68460952D01*
X103887976Y-68413333D01*
X104126071Y-68413333D01*
X104221309Y-68460952D01*
X104268928Y-68508571D01*
X104316547Y-68603809D01*
X104316547Y-68841904D01*
X104268928Y-68937142D01*
X104221309Y-68984761D01*
X104126071Y-69032380D01*
X103887976Y-69032380D01*
X103792738Y-68984761D01*
X103745119Y-68937142D01*
X101935595Y-63952380D02*
X101935595Y-62952380D01*
X102316547Y-62952380D01*
X102411785Y-63000000D01*
X102459404Y-63047619D01*
X102507023Y-63142857D01*
X102507023Y-63285714D01*
X102459404Y-63380952D01*
X102411785Y-63428571D01*
X102316547Y-63476190D01*
X101935595Y-63476190D01*
X102887976Y-63666666D02*
X103364166Y-63666666D01*
X102792738Y-63952380D02*
X103126071Y-62952380D01*
X103459404Y-63952380D01*
X103697500Y-62952380D02*
X104316547Y-62952380D01*
X103983214Y-63333333D01*
X104126071Y-63333333D01*
X104221309Y-63380952D01*
X104268928Y-63428571D01*
X104316547Y-63523809D01*
X104316547Y-63761904D01*
X104268928Y-63857142D01*
X104221309Y-63904761D01*
X104126071Y-63952380D01*
X103840357Y-63952380D01*
X103745119Y-63904761D01*
X103697500Y-63857142D01*
X101935595Y-58872380D02*
X101935595Y-57872380D01*
X102316547Y-57872380D01*
X102411785Y-57920000D01*
X102459404Y-57967619D01*
X102507023Y-58062857D01*
X102507023Y-58205714D01*
X102459404Y-58300952D01*
X102411785Y-58348571D01*
X102316547Y-58396190D01*
X101935595Y-58396190D01*
X102887976Y-58586666D02*
X103364166Y-58586666D01*
X102792738Y-58872380D02*
X103126071Y-57872380D01*
X103459404Y-58872380D01*
X104316547Y-58872380D02*
X103745119Y-58872380D01*
X104030833Y-58872380D02*
X104030833Y-57872380D01*
X103935595Y-58015238D01*
X103840357Y-58110476D01*
X103745119Y-58158095D01*
X111460595Y-71572380D02*
X111460595Y-70572380D01*
X111841547Y-70572380D01*
X111936785Y-70620000D01*
X111984404Y-70667619D01*
X112032023Y-70762857D01*
X112032023Y-70905714D01*
X111984404Y-71000952D01*
X111936785Y-71048571D01*
X111841547Y-71096190D01*
X111460595Y-71096190D01*
X112412976Y-71286666D02*
X112889166Y-71286666D01*
X112317738Y-71572380D02*
X112651071Y-70572380D01*
X112984404Y-71572380D01*
X113841547Y-71572380D02*
X113270119Y-71572380D01*
X113555833Y-71572380D02*
X113555833Y-70572380D01*
X113460595Y-70715238D01*
X113365357Y-70810476D01*
X113270119Y-70858095D01*
X114698690Y-70905714D02*
X114698690Y-71572380D01*
X114460595Y-70524761D02*
X114222500Y-71239047D01*
X114841547Y-71239047D01*
X111460595Y-66492380D02*
X111460595Y-65492380D01*
X111841547Y-65492380D01*
X111936785Y-65540000D01*
X111984404Y-65587619D01*
X112032023Y-65682857D01*
X112032023Y-65825714D01*
X111984404Y-65920952D01*
X111936785Y-65968571D01*
X111841547Y-66016190D01*
X111460595Y-66016190D01*
X112412976Y-66206666D02*
X112889166Y-66206666D01*
X112317738Y-66492380D02*
X112651071Y-65492380D01*
X112984404Y-66492380D01*
X113841547Y-66492380D02*
X113270119Y-66492380D01*
X113555833Y-66492380D02*
X113555833Y-65492380D01*
X113460595Y-65635238D01*
X113365357Y-65730476D01*
X113270119Y-65778095D01*
X114222500Y-65587619D02*
X114270119Y-65540000D01*
X114365357Y-65492380D01*
X114603452Y-65492380D01*
X114698690Y-65540000D01*
X114746309Y-65587619D01*
X114793928Y-65682857D01*
X114793928Y-65778095D01*
X114746309Y-65920952D01*
X114174880Y-66492380D01*
X114793928Y-66492380D01*
X111460595Y-61412380D02*
X111460595Y-60412380D01*
X111841547Y-60412380D01*
X111936785Y-60460000D01*
X111984404Y-60507619D01*
X112032023Y-60602857D01*
X112032023Y-60745714D01*
X111984404Y-60840952D01*
X111936785Y-60888571D01*
X111841547Y-60936190D01*
X111460595Y-60936190D01*
X112412976Y-61126666D02*
X112889166Y-61126666D01*
X112317738Y-61412380D02*
X112651071Y-60412380D01*
X112984404Y-61412380D01*
X113841547Y-61412380D02*
X113270119Y-61412380D01*
X113555833Y-61412380D02*
X113555833Y-60412380D01*
X113460595Y-60555238D01*
X113365357Y-60650476D01*
X113270119Y-60698095D01*
X114460595Y-60412380D02*
X114555833Y-60412380D01*
X114651071Y-60460000D01*
X114698690Y-60507619D01*
X114746309Y-60602857D01*
X114793928Y-60793333D01*
X114793928Y-61031428D01*
X114746309Y-61221904D01*
X114698690Y-61317142D01*
X114651071Y-61364761D01*
X114555833Y-61412380D01*
X114460595Y-61412380D01*
X114365357Y-61364761D01*
X114317738Y-61317142D01*
X114270119Y-61221904D01*
X114222500Y-61031428D01*
X114222500Y-60793333D01*
X114270119Y-60602857D01*
X114317738Y-60507619D01*
X114365357Y-60460000D01*
X114460595Y-60412380D01*
X111460595Y-56332380D02*
X111460595Y-55332380D01*
X111841547Y-55332380D01*
X111936785Y-55380000D01*
X111984404Y-55427619D01*
X112032023Y-55522857D01*
X112032023Y-55665714D01*
X111984404Y-55760952D01*
X111936785Y-55808571D01*
X111841547Y-55856190D01*
X111460595Y-55856190D01*
X112412976Y-56046666D02*
X112889166Y-56046666D01*
X112317738Y-56332380D02*
X112651071Y-55332380D01*
X112984404Y-56332380D01*
X113460595Y-55760952D02*
X113365357Y-55713333D01*
X113317738Y-55665714D01*
X113270119Y-55570476D01*
X113270119Y-55522857D01*
X113317738Y-55427619D01*
X113365357Y-55380000D01*
X113460595Y-55332380D01*
X113651071Y-55332380D01*
X113746309Y-55380000D01*
X113793928Y-55427619D01*
X113841547Y-55522857D01*
X113841547Y-55570476D01*
X113793928Y-55665714D01*
X113746309Y-55713333D01*
X113651071Y-55760952D01*
X113460595Y-55760952D01*
X113365357Y-55808571D01*
X113317738Y-55856190D01*
X113270119Y-55951428D01*
X113270119Y-56141904D01*
X113317738Y-56237142D01*
X113365357Y-56284761D01*
X113460595Y-56332380D01*
X113651071Y-56332380D01*
X113746309Y-56284761D01*
X113793928Y-56237142D01*
X113841547Y-56141904D01*
X113841547Y-55951428D01*
X113793928Y-55856190D01*
X113746309Y-55808571D01*
X113651071Y-55760952D01*
X101935595Y-71572380D02*
X101935595Y-70572380D01*
X102316547Y-70572380D01*
X102411785Y-70620000D01*
X102459404Y-70667619D01*
X102507023Y-70762857D01*
X102507023Y-70905714D01*
X102459404Y-71000952D01*
X102411785Y-71048571D01*
X102316547Y-71096190D01*
X101935595Y-71096190D01*
X102887976Y-71286666D02*
X103364166Y-71286666D01*
X102792738Y-71572380D02*
X103126071Y-70572380D01*
X103459404Y-71572380D01*
X104221309Y-70572380D02*
X104030833Y-70572380D01*
X103935595Y-70620000D01*
X103887976Y-70667619D01*
X103792738Y-70810476D01*
X103745119Y-71000952D01*
X103745119Y-71381904D01*
X103792738Y-71477142D01*
X103840357Y-71524761D01*
X103935595Y-71572380D01*
X104126071Y-71572380D01*
X104221309Y-71524761D01*
X104268928Y-71477142D01*
X104316547Y-71381904D01*
X104316547Y-71143809D01*
X104268928Y-71048571D01*
X104221309Y-71000952D01*
X104126071Y-70953333D01*
X103935595Y-70953333D01*
X103840357Y-71000952D01*
X103792738Y-71048571D01*
X103745119Y-71143809D01*
X101935595Y-66492380D02*
X101935595Y-65492380D01*
X102316547Y-65492380D01*
X102411785Y-65540000D01*
X102459404Y-65587619D01*
X102507023Y-65682857D01*
X102507023Y-65825714D01*
X102459404Y-65920952D01*
X102411785Y-65968571D01*
X102316547Y-66016190D01*
X101935595Y-66016190D01*
X102887976Y-66206666D02*
X103364166Y-66206666D01*
X102792738Y-66492380D02*
X103126071Y-65492380D01*
X103459404Y-66492380D01*
X104221309Y-65825714D02*
X104221309Y-66492380D01*
X103983214Y-65444761D02*
X103745119Y-66159047D01*
X104364166Y-66159047D01*
X101935595Y-61412380D02*
X101935595Y-60412380D01*
X102316547Y-60412380D01*
X102411785Y-60460000D01*
X102459404Y-60507619D01*
X102507023Y-60602857D01*
X102507023Y-60745714D01*
X102459404Y-60840952D01*
X102411785Y-60888571D01*
X102316547Y-60936190D01*
X101935595Y-60936190D01*
X102887976Y-61126666D02*
X103364166Y-61126666D01*
X102792738Y-61412380D02*
X103126071Y-60412380D01*
X103459404Y-61412380D01*
X103745119Y-60507619D02*
X103792738Y-60460000D01*
X103887976Y-60412380D01*
X104126071Y-60412380D01*
X104221309Y-60460000D01*
X104268928Y-60507619D01*
X104316547Y-60602857D01*
X104316547Y-60698095D01*
X104268928Y-60840952D01*
X103697500Y-61412380D01*
X104316547Y-61412380D01*
X101935595Y-56332380D02*
X101935595Y-55332380D01*
X102316547Y-55332380D01*
X102411785Y-55380000D01*
X102459404Y-55427619D01*
X102507023Y-55522857D01*
X102507023Y-55665714D01*
X102459404Y-55760952D01*
X102411785Y-55808571D01*
X102316547Y-55856190D01*
X101935595Y-55856190D01*
X102887976Y-56046666D02*
X103364166Y-56046666D01*
X102792738Y-56332380D02*
X103126071Y-55332380D01*
X103459404Y-56332380D01*
X103983214Y-55332380D02*
X104078452Y-55332380D01*
X104173690Y-55380000D01*
X104221309Y-55427619D01*
X104268928Y-55522857D01*
X104316547Y-55713333D01*
X104316547Y-55951428D01*
X104268928Y-56141904D01*
X104221309Y-56237142D01*
X104173690Y-56284761D01*
X104078452Y-56332380D01*
X103983214Y-56332380D01*
X103887976Y-56284761D01*
X103840357Y-56237142D01*
X103792738Y-56141904D01*
X103745119Y-55951428D01*
X103745119Y-55713333D01*
X103792738Y-55522857D01*
X103840357Y-55427619D01*
X103887976Y-55380000D01*
X103983214Y-55332380D01*
D11*
X105350000Y-130870000D02*
X110550000Y-130870000D01*
X105350000Y-113030000D02*
X105350000Y-130870000D01*
X110550000Y-110430000D02*
X110550000Y-130870000D01*
X105350000Y-113030000D02*
X107950000Y-113030000D01*
X107950000Y-113030000D02*
X107950000Y-110430000D01*
X107950000Y-110430000D02*
X110550000Y-110430000D01*
X105350000Y-111760000D02*
X105350000Y-110430000D01*
X105350000Y-110430000D02*
X106680000Y-110430000D01*
X105350000Y-102930000D02*
X110550000Y-102930000D01*
X105350000Y-85090000D02*
X105350000Y-102930000D01*
X110550000Y-82490000D02*
X110550000Y-102930000D01*
X105350000Y-85090000D02*
X107950000Y-85090000D01*
X107950000Y-85090000D02*
X107950000Y-82490000D01*
X107950000Y-82490000D02*
X110550000Y-82490000D01*
X105350000Y-83820000D02*
X105350000Y-82490000D01*
X105350000Y-82490000D02*
X106680000Y-82490000D01*
X105350000Y-74990000D02*
X110550000Y-74990000D01*
X105350000Y-57150000D02*
X105350000Y-74990000D01*
X110550000Y-54550000D02*
X110550000Y-74990000D01*
X105350000Y-57150000D02*
X107950000Y-57150000D01*
X107950000Y-57150000D02*
X107950000Y-54550000D01*
X107950000Y-54550000D02*
X110550000Y-54550000D01*
X105350000Y-55880000D02*
X105350000Y-54550000D01*
X105350000Y-54550000D02*
X106680000Y-54550000D01*
X147320000Y-115510000D02*
X148650000Y-115510000D01*
X148650000Y-115510000D02*
X148650000Y-116840000D01*
X148650000Y-118110000D02*
X148650000Y-130870000D01*
X145990000Y-130870000D02*
X148650000Y-130870000D01*
X145990000Y-118110000D02*
X145990000Y-130870000D01*
X145990000Y-118110000D02*
X148650000Y-118110000D01*
X147320000Y-54550000D02*
X148650000Y-54550000D01*
X148650000Y-54550000D02*
X148650000Y-55880000D01*
X148650000Y-57150000D02*
X148650000Y-59750000D01*
X145990000Y-59750000D02*
X148650000Y-59750000D01*
X145990000Y-57150000D02*
X145990000Y-59750000D01*
X145990000Y-57150000D02*
X148650000Y-57150000D01*
X147320000Y-95190000D02*
X148650000Y-95190000D01*
X148650000Y-95190000D02*
X148650000Y-96520000D01*
X148650000Y-97790000D02*
X148650000Y-108010000D01*
X145990000Y-108010000D02*
X148650000Y-108010000D01*
X145990000Y-97790000D02*
X145990000Y-108010000D01*
X145990000Y-97790000D02*
X148650000Y-97790000D01*
X147320000Y-77410000D02*
X148650000Y-77410000D01*
X148650000Y-77410000D02*
X148650000Y-78740000D01*
X148650000Y-80010000D02*
X148650000Y-90230000D01*
X145990000Y-90230000D02*
X148650000Y-90230000D01*
X145990000Y-80010000D02*
X145990000Y-90230000D01*
X145990000Y-80010000D02*
X148650000Y-80010000D01*
X130916178Y-78766600D02*
X130399022Y-78766600D01*
X130916178Y-80186600D02*
X130399022Y-80186600D01*
X135584000Y-58161422D02*
X135584000Y-58678578D01*
X134164000Y-58161422D02*
X134164000Y-58678578D01*
X144070000Y-66543422D02*
X144070000Y-67060578D01*
X145490000Y-66543422D02*
X145490000Y-67060578D01*
X133326869Y-85008880D02*
X133557074Y-84778675D01*
X132605620Y-84287631D02*
X132835825Y-84057426D01*
X121117631Y-89644380D02*
X120887426Y-89414175D01*
X121838880Y-88923131D02*
X121608675Y-88692926D01*
X140626000Y-54880000D02*
X140626000Y-56880000D01*
X140626000Y-56880000D02*
X144526000Y-56880000D01*
X140626000Y-54880000D02*
X144526000Y-54880000D01*
X148055000Y-71563500D02*
X148055000Y-69278500D01*
X146585000Y-71563500D02*
X148055000Y-71563500D01*
X146585000Y-69278500D02*
X146585000Y-71563500D01*
X116105000Y-65037500D02*
X116105000Y-67322500D01*
X117575000Y-65037500D02*
X116105000Y-65037500D01*
X117575000Y-67322500D02*
X117575000Y-65037500D01*
X139056517Y-96033975D02*
X139422201Y-95668291D01*
X138052425Y-95029883D02*
X138418109Y-94664199D01*
X138249922Y-55170000D02*
X138767078Y-55170000D01*
X138249922Y-56590000D02*
X138767078Y-56590000D01*
X133128000Y-100331000D02*
X133128000Y-103631000D01*
X133128000Y-103631000D02*
X137128000Y-103631000D01*
X147830000Y-67193279D02*
X147830000Y-66867721D01*
X146810000Y-67193279D02*
X146810000Y-66867721D01*
X116330000Y-69407721D02*
X116330000Y-69733279D01*
X117350000Y-69407721D02*
X117350000Y-69733279D01*
X136290000Y-64800000D02*
X137550000Y-64800000D01*
X143110000Y-64800000D02*
X141850000Y-64800000D01*
X136290000Y-61040000D02*
X136290000Y-64800000D01*
X143110000Y-58790000D02*
X143110000Y-64800000D01*
X130211751Y-86155120D02*
X129540000Y-85483369D01*
X129540000Y-85483369D02*
X128868249Y-86155120D01*
X136094880Y-92038249D02*
X136766631Y-92710000D01*
X136766631Y-92710000D02*
X136094880Y-93381751D01*
X122985120Y-93381751D02*
X122313369Y-92710000D01*
X122313369Y-92710000D02*
X122985120Y-92038249D01*
X128868249Y-99264880D02*
X129540000Y-99936631D01*
X129540000Y-99936631D02*
X130211751Y-99264880D01*
X130211751Y-99264880D02*
X131159275Y-100212403D01*
M02*
