G04 #@! TF.GenerationSoftware,KiCad,Pcbnew,5.1.6-c6e7f7d~86~ubuntu18.04.1*
G04 #@! TF.CreationDate,2020-06-01T06:43:38-04:00*
G04 #@! TF.ProjectId,f405_breakout,66343035-5f62-4726-9561-6b6f75742e6b,rev?*
G04 #@! TF.SameCoordinates,Original*
G04 #@! TF.FileFunction,Copper,L3,Inr*
G04 #@! TF.FilePolarity,Positive*
%FSLAX46Y46*%
G04 Gerber Fmt 4.6, Leading zero omitted, Abs format (unit mm)*
G04 Created by KiCad (PCBNEW 5.1.6-c6e7f7d~86~ubuntu18.04.1) date 2020-06-01 06:43:38*
%MOMM*%
%LPD*%
G01*
G04 APERTURE LIST*
G04 #@! TA.AperFunction,ViaPad*
%ADD10O,1.700000X1.700000*%
G04 #@! TD*
G04 #@! TA.AperFunction,ViaPad*
%ADD11R,1.700000X1.700000*%
G04 #@! TD*
G04 #@! TA.AperFunction,ViaPad*
%ADD12C,0.800000*%
G04 #@! TD*
G04 #@! TA.AperFunction,ViaPad*
%ADD13C,1.000000*%
G04 #@! TD*
G04 #@! TA.AperFunction,Conductor*
%ADD14C,0.500000*%
G04 #@! TD*
G04 #@! TA.AperFunction,Conductor*
%ADD15C,0.254000*%
G04 #@! TD*
G04 APERTURE END LIST*
D10*
X109220000Y-129540000D03*
X106680000Y-129540000D03*
X109220000Y-127000000D03*
X106680000Y-127000000D03*
X109220000Y-124460000D03*
X106680000Y-124460000D03*
X109220000Y-121920000D03*
X106680000Y-121920000D03*
X109220000Y-119380000D03*
X106680000Y-119380000D03*
X109220000Y-116840000D03*
X106680000Y-116840000D03*
X109220000Y-114300000D03*
X106680000Y-114300000D03*
X109220000Y-111760000D03*
D11*
X106680000Y-111760000D03*
D10*
X109220000Y-101600000D03*
X106680000Y-101600000D03*
X109220000Y-99060000D03*
X106680000Y-99060000D03*
X109220000Y-96520000D03*
X106680000Y-96520000D03*
X109220000Y-93980000D03*
X106680000Y-93980000D03*
X109220000Y-91440000D03*
X106680000Y-91440000D03*
X109220000Y-88900000D03*
X106680000Y-88900000D03*
X109220000Y-86360000D03*
X106680000Y-86360000D03*
X109220000Y-83820000D03*
D11*
X106680000Y-83820000D03*
D10*
X109220000Y-73660000D03*
X106680000Y-73660000D03*
X109220000Y-71120000D03*
X106680000Y-71120000D03*
X109220000Y-68580000D03*
X106680000Y-68580000D03*
X109220000Y-66040000D03*
X106680000Y-66040000D03*
X109220000Y-63500000D03*
X106680000Y-63500000D03*
X109220000Y-60960000D03*
X106680000Y-60960000D03*
X109220000Y-58420000D03*
X106680000Y-58420000D03*
X109220000Y-55880000D03*
D11*
X106680000Y-55880000D03*
D10*
X147320000Y-129540000D03*
X147320000Y-127000000D03*
X147320000Y-124460000D03*
X147320000Y-121920000D03*
X147320000Y-119380000D03*
D11*
X147320000Y-116840000D03*
D10*
X147320000Y-58420000D03*
D11*
X147320000Y-55880000D03*
D10*
X147320000Y-106680000D03*
X147320000Y-104140000D03*
X147320000Y-101600000D03*
X147320000Y-99060000D03*
D11*
X147320000Y-96520000D03*
D10*
X147320000Y-88900000D03*
X147320000Y-86360000D03*
X147320000Y-83820000D03*
X147320000Y-81280000D03*
D11*
X147320000Y-78740000D03*
D12*
X125501400Y-102844600D03*
X137998200Y-88188800D03*
X138658600Y-87604600D03*
X130810000Y-101828600D03*
X130784600Y-102717600D03*
X132054600Y-83616800D03*
X132715000Y-83007200D03*
X140284200Y-95554800D03*
X140081000Y-94005400D03*
X132765800Y-79476600D03*
X133680200Y-79476600D03*
D13*
X141224000Y-61976000D03*
X141224000Y-63500000D03*
X138176000Y-61976000D03*
X138176000Y-63500000D03*
X139700000Y-61341000D03*
X139700000Y-62738000D03*
X139700000Y-64389000D03*
D12*
X120357961Y-90020169D03*
X119621464Y-89274988D03*
X126085600Y-102260400D03*
X137795000Y-103378000D03*
X132537200Y-100634800D03*
X138760200Y-88849200D03*
X139369800Y-88239600D03*
X137287000Y-98094800D03*
X138176000Y-98475800D03*
X129311400Y-101777800D03*
X129311400Y-102717600D03*
X119964200Y-87782400D03*
X131343400Y-82905600D03*
X131953000Y-82296000D03*
X134493000Y-83134200D03*
X134696200Y-85039200D03*
X128574800Y-79451200D03*
X129692400Y-78079600D03*
D13*
X141986000Y-57658000D03*
X144018000Y-59690000D03*
X144018000Y-57658000D03*
X144018000Y-61468000D03*
X140208000Y-57658000D03*
X146050000Y-61468000D03*
X144018000Y-63246000D03*
X146050000Y-63246000D03*
X148082000Y-61468000D03*
X148082000Y-63246000D03*
X150114000Y-61468000D03*
X150114000Y-63246000D03*
X150114000Y-65024000D03*
X150114000Y-66802000D03*
X150114000Y-68580000D03*
X150114000Y-70358000D03*
X150114000Y-72390000D03*
D12*
X118846600Y-90068400D03*
X119786392Y-91008192D03*
X124815600Y-102209600D03*
X122555000Y-99923600D03*
X135128000Y-82499200D03*
X119278400Y-87223600D03*
D13*
X127000000Y-53340000D03*
X127000000Y-60960000D03*
X127000000Y-68580000D03*
X127000000Y-76200000D03*
X127000000Y-129540000D03*
X127000000Y-121920000D03*
X127000000Y-114300000D03*
X127000000Y-106680000D03*
X119380000Y-106680000D03*
X119380000Y-114300000D03*
X119380000Y-121920000D03*
X119380000Y-129540000D03*
X134620000Y-129540000D03*
X134620000Y-121920000D03*
X134620000Y-114300000D03*
X134620000Y-106680000D03*
X134620000Y-68580000D03*
X142240000Y-68580000D03*
X142240000Y-76200000D03*
X134620000Y-76200000D03*
X119380000Y-76200000D03*
X119380000Y-60960000D03*
X119380000Y-53340000D03*
X134620000Y-53340000D03*
X134620000Y-60960000D03*
X119380000Y-68580000D03*
X111760000Y-76200000D03*
X119380000Y-83820000D03*
X127000000Y-83820000D03*
X111760000Y-53340000D03*
X142240000Y-53340000D03*
X149860000Y-53340000D03*
X104140000Y-53340000D03*
X142240000Y-106680000D03*
X142240000Y-114300000D03*
X142240000Y-83820000D03*
X142240000Y-91440000D03*
X142240000Y-99060000D03*
D12*
X125406730Y-101613564D03*
X130479800Y-95834199D03*
X122174000Y-60071000D03*
X122936000Y-62484000D03*
X123063000Y-64897000D03*
X122047000Y-67564000D03*
X121285000Y-70231000D03*
X120777000Y-72644000D03*
X121158000Y-74803000D03*
X127717601Y-91243201D03*
X126810590Y-92573148D03*
X129424975Y-88813347D03*
X129379210Y-87802060D03*
X129347156Y-89813248D03*
X129399647Y-90738773D03*
X111942058Y-95339021D03*
X112937711Y-95088289D03*
X131144822Y-88993728D03*
X132253386Y-89772211D03*
X131749800Y-91008200D03*
X131419600Y-95161421D03*
X132486400Y-94818200D03*
X133248400Y-94132400D03*
X133903889Y-93476911D03*
X134689296Y-87699296D03*
X134361999Y-86831996D03*
X125306590Y-83921600D03*
X125382790Y-85199984D03*
X124383800Y-84556600D03*
X104584821Y-105460800D03*
X105791000Y-104749600D03*
X123458846Y-84030815D03*
X120493759Y-96643159D03*
X121862468Y-96620650D03*
X123088400Y-97061806D03*
X129540000Y-97485200D03*
X130733800Y-97231200D03*
X131622800Y-96748600D03*
D14*
X137795000Y-103378000D02*
X139344400Y-103378000D01*
D15*
G36*
X134276730Y-99150332D02*
G01*
X134296069Y-99166012D01*
X134318094Y-99177618D01*
X134341961Y-99184704D01*
X134366000Y-99187000D01*
X136980394Y-99187000D01*
X138684000Y-100890606D01*
X138684000Y-103759000D01*
X131826000Y-103759000D01*
X131826000Y-102026059D01*
X131845000Y-101930539D01*
X131845000Y-101726661D01*
X131826000Y-101631141D01*
X131826000Y-100892945D01*
X133462354Y-99355764D01*
X133478741Y-99337021D01*
X133491157Y-99315442D01*
X133499125Y-99291855D01*
X133502338Y-99267167D01*
X133500673Y-99242326D01*
X133494193Y-99218288D01*
X133483149Y-99195975D01*
X133465846Y-99174046D01*
X132017973Y-97705190D01*
X132113056Y-97665805D01*
X132282574Y-97552537D01*
X132426737Y-97408374D01*
X132461456Y-97356414D01*
X134276730Y-99150332D01*
G37*
X134276730Y-99150332D02*
X134296069Y-99166012D01*
X134318094Y-99177618D01*
X134341961Y-99184704D01*
X134366000Y-99187000D01*
X136980394Y-99187000D01*
X138684000Y-100890606D01*
X138684000Y-103759000D01*
X131826000Y-103759000D01*
X131826000Y-102026059D01*
X131845000Y-101930539D01*
X131845000Y-101726661D01*
X131826000Y-101631141D01*
X131826000Y-100892945D01*
X133462354Y-99355764D01*
X133478741Y-99337021D01*
X133491157Y-99315442D01*
X133499125Y-99291855D01*
X133502338Y-99267167D01*
X133500673Y-99242326D01*
X133494193Y-99218288D01*
X133483149Y-99195975D01*
X133465846Y-99174046D01*
X132017973Y-97705190D01*
X132113056Y-97665805D01*
X132282574Y-97552537D01*
X132426737Y-97408374D01*
X132461456Y-97356414D01*
X134276730Y-99150332D01*
G36*
X150224545Y-51498909D02*
G01*
X150575208Y-51604780D01*
X150898625Y-51776744D01*
X151182484Y-52008254D01*
X151415965Y-52290486D01*
X151590183Y-52612695D01*
X151698502Y-52962614D01*
X151740001Y-53357452D01*
X151740000Y-132047721D01*
X151701091Y-132444545D01*
X151595220Y-132795206D01*
X151423257Y-133118623D01*
X151191748Y-133402482D01*
X150909514Y-133635965D01*
X150587304Y-133810184D01*
X150237385Y-133918502D01*
X149842557Y-133960000D01*
X104172279Y-133960000D01*
X103775455Y-133921091D01*
X103424794Y-133815220D01*
X103101377Y-133643257D01*
X102817518Y-133411748D01*
X102584035Y-133129514D01*
X102409816Y-132807304D01*
X102301498Y-132457385D01*
X102260000Y-132062557D01*
X102260000Y-110910000D01*
X105191928Y-110910000D01*
X105191928Y-112610000D01*
X105204188Y-112734482D01*
X105240498Y-112854180D01*
X105299463Y-112964494D01*
X105378815Y-113061185D01*
X105475506Y-113140537D01*
X105585820Y-113199502D01*
X105658380Y-113221513D01*
X105526525Y-113353368D01*
X105364010Y-113596589D01*
X105252068Y-113866842D01*
X105195000Y-114153740D01*
X105195000Y-114446260D01*
X105252068Y-114733158D01*
X105364010Y-115003411D01*
X105526525Y-115246632D01*
X105733368Y-115453475D01*
X105907760Y-115570000D01*
X105733368Y-115686525D01*
X105526525Y-115893368D01*
X105364010Y-116136589D01*
X105252068Y-116406842D01*
X105195000Y-116693740D01*
X105195000Y-116986260D01*
X105252068Y-117273158D01*
X105364010Y-117543411D01*
X105526525Y-117786632D01*
X105733368Y-117993475D01*
X105907760Y-118110000D01*
X105733368Y-118226525D01*
X105526525Y-118433368D01*
X105364010Y-118676589D01*
X105252068Y-118946842D01*
X105195000Y-119233740D01*
X105195000Y-119526260D01*
X105252068Y-119813158D01*
X105364010Y-120083411D01*
X105526525Y-120326632D01*
X105733368Y-120533475D01*
X105907760Y-120650000D01*
X105733368Y-120766525D01*
X105526525Y-120973368D01*
X105364010Y-121216589D01*
X105252068Y-121486842D01*
X105195000Y-121773740D01*
X105195000Y-122066260D01*
X105252068Y-122353158D01*
X105364010Y-122623411D01*
X105526525Y-122866632D01*
X105733368Y-123073475D01*
X105907760Y-123190000D01*
X105733368Y-123306525D01*
X105526525Y-123513368D01*
X105364010Y-123756589D01*
X105252068Y-124026842D01*
X105195000Y-124313740D01*
X105195000Y-124606260D01*
X105252068Y-124893158D01*
X105364010Y-125163411D01*
X105526525Y-125406632D01*
X105733368Y-125613475D01*
X105907760Y-125730000D01*
X105733368Y-125846525D01*
X105526525Y-126053368D01*
X105364010Y-126296589D01*
X105252068Y-126566842D01*
X105195000Y-126853740D01*
X105195000Y-127146260D01*
X105252068Y-127433158D01*
X105364010Y-127703411D01*
X105526525Y-127946632D01*
X105733368Y-128153475D01*
X105907760Y-128270000D01*
X105733368Y-128386525D01*
X105526525Y-128593368D01*
X105364010Y-128836589D01*
X105252068Y-129106842D01*
X105195000Y-129393740D01*
X105195000Y-129686260D01*
X105252068Y-129973158D01*
X105364010Y-130243411D01*
X105526525Y-130486632D01*
X105733368Y-130693475D01*
X105976589Y-130855990D01*
X106246842Y-130967932D01*
X106533740Y-131025000D01*
X106826260Y-131025000D01*
X107113158Y-130967932D01*
X107383411Y-130855990D01*
X107626632Y-130693475D01*
X107833475Y-130486632D01*
X107950000Y-130312240D01*
X108066525Y-130486632D01*
X108273368Y-130693475D01*
X108516589Y-130855990D01*
X108786842Y-130967932D01*
X109073740Y-131025000D01*
X109366260Y-131025000D01*
X109653158Y-130967932D01*
X109923411Y-130855990D01*
X110166632Y-130693475D01*
X110373475Y-130486632D01*
X110535990Y-130243411D01*
X110647932Y-129973158D01*
X110705000Y-129686260D01*
X110705000Y-129393740D01*
X110647932Y-129106842D01*
X110535990Y-128836589D01*
X110373475Y-128593368D01*
X110166632Y-128386525D01*
X109992240Y-128270000D01*
X110166632Y-128153475D01*
X110373475Y-127946632D01*
X110535990Y-127703411D01*
X110647932Y-127433158D01*
X110705000Y-127146260D01*
X110705000Y-126853740D01*
X110647932Y-126566842D01*
X110535990Y-126296589D01*
X110373475Y-126053368D01*
X110166632Y-125846525D01*
X109992240Y-125730000D01*
X110166632Y-125613475D01*
X110373475Y-125406632D01*
X110535990Y-125163411D01*
X110647932Y-124893158D01*
X110705000Y-124606260D01*
X110705000Y-124313740D01*
X145835000Y-124313740D01*
X145835000Y-124606260D01*
X145892068Y-124893158D01*
X146004010Y-125163411D01*
X146166525Y-125406632D01*
X146373368Y-125613475D01*
X146547760Y-125730000D01*
X146373368Y-125846525D01*
X146166525Y-126053368D01*
X146004010Y-126296589D01*
X145892068Y-126566842D01*
X145835000Y-126853740D01*
X145835000Y-127146260D01*
X145892068Y-127433158D01*
X146004010Y-127703411D01*
X146166525Y-127946632D01*
X146373368Y-128153475D01*
X146547760Y-128270000D01*
X146373368Y-128386525D01*
X146166525Y-128593368D01*
X146004010Y-128836589D01*
X145892068Y-129106842D01*
X145835000Y-129393740D01*
X145835000Y-129686260D01*
X145892068Y-129973158D01*
X146004010Y-130243411D01*
X146166525Y-130486632D01*
X146373368Y-130693475D01*
X146616589Y-130855990D01*
X146886842Y-130967932D01*
X147173740Y-131025000D01*
X147466260Y-131025000D01*
X147753158Y-130967932D01*
X148023411Y-130855990D01*
X148266632Y-130693475D01*
X148473475Y-130486632D01*
X148635990Y-130243411D01*
X148747932Y-129973158D01*
X148805000Y-129686260D01*
X148805000Y-129393740D01*
X148747932Y-129106842D01*
X148635990Y-128836589D01*
X148473475Y-128593368D01*
X148266632Y-128386525D01*
X148092240Y-128270000D01*
X148266632Y-128153475D01*
X148473475Y-127946632D01*
X148635990Y-127703411D01*
X148747932Y-127433158D01*
X148805000Y-127146260D01*
X148805000Y-126853740D01*
X148747932Y-126566842D01*
X148635990Y-126296589D01*
X148473475Y-126053368D01*
X148266632Y-125846525D01*
X148092240Y-125730000D01*
X148266632Y-125613475D01*
X148473475Y-125406632D01*
X148635990Y-125163411D01*
X148747932Y-124893158D01*
X148805000Y-124606260D01*
X148805000Y-124313740D01*
X148747932Y-124026842D01*
X148635990Y-123756589D01*
X148473475Y-123513368D01*
X148266632Y-123306525D01*
X148084466Y-123184805D01*
X148201355Y-123115178D01*
X148417588Y-122920269D01*
X148591641Y-122686920D01*
X148716825Y-122424099D01*
X148761476Y-122276890D01*
X148640155Y-122047000D01*
X147447000Y-122047000D01*
X147447000Y-122067000D01*
X147193000Y-122067000D01*
X147193000Y-122047000D01*
X145999845Y-122047000D01*
X145878524Y-122276890D01*
X145923175Y-122424099D01*
X146048359Y-122686920D01*
X146222412Y-122920269D01*
X146438645Y-123115178D01*
X146555534Y-123184805D01*
X146373368Y-123306525D01*
X146166525Y-123513368D01*
X146004010Y-123756589D01*
X145892068Y-124026842D01*
X145835000Y-124313740D01*
X110705000Y-124313740D01*
X110647932Y-124026842D01*
X110535990Y-123756589D01*
X110373475Y-123513368D01*
X110166632Y-123306525D01*
X109992240Y-123190000D01*
X110166632Y-123073475D01*
X110373475Y-122866632D01*
X110535990Y-122623411D01*
X110647932Y-122353158D01*
X110705000Y-122066260D01*
X110705000Y-121773740D01*
X110647932Y-121486842D01*
X110535990Y-121216589D01*
X110373475Y-120973368D01*
X110166632Y-120766525D01*
X109992240Y-120650000D01*
X110166632Y-120533475D01*
X110373475Y-120326632D01*
X110535990Y-120083411D01*
X110647932Y-119813158D01*
X110705000Y-119526260D01*
X110705000Y-119233740D01*
X110647932Y-118946842D01*
X110535990Y-118676589D01*
X110373475Y-118433368D01*
X110166632Y-118226525D01*
X109992240Y-118110000D01*
X110166632Y-117993475D01*
X110373475Y-117786632D01*
X110535990Y-117543411D01*
X110647932Y-117273158D01*
X110705000Y-116986260D01*
X110705000Y-116693740D01*
X110647932Y-116406842D01*
X110535990Y-116136589D01*
X110438043Y-115990000D01*
X145831928Y-115990000D01*
X145831928Y-117690000D01*
X145844188Y-117814482D01*
X145880498Y-117934180D01*
X145939463Y-118044494D01*
X146018815Y-118141185D01*
X146115506Y-118220537D01*
X146225820Y-118279502D01*
X146298380Y-118301513D01*
X146166525Y-118433368D01*
X146004010Y-118676589D01*
X145892068Y-118946842D01*
X145835000Y-119233740D01*
X145835000Y-119526260D01*
X145892068Y-119813158D01*
X146004010Y-120083411D01*
X146166525Y-120326632D01*
X146373368Y-120533475D01*
X146555534Y-120655195D01*
X146438645Y-120724822D01*
X146222412Y-120919731D01*
X146048359Y-121153080D01*
X145923175Y-121415901D01*
X145878524Y-121563110D01*
X145999845Y-121793000D01*
X147193000Y-121793000D01*
X147193000Y-121773000D01*
X147447000Y-121773000D01*
X147447000Y-121793000D01*
X148640155Y-121793000D01*
X148761476Y-121563110D01*
X148716825Y-121415901D01*
X148591641Y-121153080D01*
X148417588Y-120919731D01*
X148201355Y-120724822D01*
X148084466Y-120655195D01*
X148266632Y-120533475D01*
X148473475Y-120326632D01*
X148635990Y-120083411D01*
X148747932Y-119813158D01*
X148805000Y-119526260D01*
X148805000Y-119233740D01*
X148747932Y-118946842D01*
X148635990Y-118676589D01*
X148473475Y-118433368D01*
X148341620Y-118301513D01*
X148414180Y-118279502D01*
X148524494Y-118220537D01*
X148621185Y-118141185D01*
X148700537Y-118044494D01*
X148759502Y-117934180D01*
X148795812Y-117814482D01*
X148808072Y-117690000D01*
X148808072Y-115990000D01*
X148795812Y-115865518D01*
X148759502Y-115745820D01*
X148700537Y-115635506D01*
X148621185Y-115538815D01*
X148524494Y-115459463D01*
X148414180Y-115400498D01*
X148294482Y-115364188D01*
X148170000Y-115351928D01*
X146470000Y-115351928D01*
X146345518Y-115364188D01*
X146225820Y-115400498D01*
X146115506Y-115459463D01*
X146018815Y-115538815D01*
X145939463Y-115635506D01*
X145880498Y-115745820D01*
X145844188Y-115865518D01*
X145831928Y-115990000D01*
X110438043Y-115990000D01*
X110373475Y-115893368D01*
X110166632Y-115686525D01*
X109992240Y-115570000D01*
X110166632Y-115453475D01*
X110373475Y-115246632D01*
X110535990Y-115003411D01*
X110647932Y-114733158D01*
X110705000Y-114446260D01*
X110705000Y-114153740D01*
X110647932Y-113866842D01*
X110535990Y-113596589D01*
X110373475Y-113353368D01*
X110166632Y-113146525D01*
X109992240Y-113030000D01*
X110166632Y-112913475D01*
X110373475Y-112706632D01*
X110535990Y-112463411D01*
X110647932Y-112193158D01*
X110705000Y-111906260D01*
X110705000Y-111613740D01*
X110647932Y-111326842D01*
X110535990Y-111056589D01*
X110373475Y-110813368D01*
X110166632Y-110606525D01*
X109923411Y-110444010D01*
X109653158Y-110332068D01*
X109366260Y-110275000D01*
X109073740Y-110275000D01*
X108786842Y-110332068D01*
X108516589Y-110444010D01*
X108273368Y-110606525D01*
X108141513Y-110738380D01*
X108119502Y-110665820D01*
X108060537Y-110555506D01*
X107981185Y-110458815D01*
X107884494Y-110379463D01*
X107774180Y-110320498D01*
X107654482Y-110284188D01*
X107530000Y-110271928D01*
X105830000Y-110271928D01*
X105705518Y-110284188D01*
X105585820Y-110320498D01*
X105475506Y-110379463D01*
X105378815Y-110458815D01*
X105299463Y-110555506D01*
X105240498Y-110665820D01*
X105204188Y-110785518D01*
X105191928Y-110910000D01*
X102260000Y-110910000D01*
X102260000Y-107036890D01*
X145878524Y-107036890D01*
X145923175Y-107184099D01*
X146048359Y-107446920D01*
X146222412Y-107680269D01*
X146438645Y-107875178D01*
X146688748Y-108024157D01*
X146963109Y-108121481D01*
X147193000Y-108000814D01*
X147193000Y-106807000D01*
X147447000Y-106807000D01*
X147447000Y-108000814D01*
X147676891Y-108121481D01*
X147951252Y-108024157D01*
X148201355Y-107875178D01*
X148417588Y-107680269D01*
X148591641Y-107446920D01*
X148716825Y-107184099D01*
X148761476Y-107036890D01*
X148640155Y-106807000D01*
X147447000Y-106807000D01*
X147193000Y-106807000D01*
X145999845Y-106807000D01*
X145878524Y-107036890D01*
X102260000Y-107036890D01*
X102260000Y-105358861D01*
X103549821Y-105358861D01*
X103549821Y-105562739D01*
X103589595Y-105762698D01*
X103667616Y-105951056D01*
X103780884Y-106120574D01*
X103925047Y-106264737D01*
X104094565Y-106378005D01*
X104282923Y-106456026D01*
X104482882Y-106495800D01*
X104686760Y-106495800D01*
X104886719Y-106456026D01*
X105075077Y-106378005D01*
X105244595Y-106264737D01*
X105388758Y-106120574D01*
X105502026Y-105951056D01*
X105579964Y-105762899D01*
X105689061Y-105784600D01*
X105892939Y-105784600D01*
X106092898Y-105744826D01*
X106281256Y-105666805D01*
X106450774Y-105553537D01*
X106594937Y-105409374D01*
X106708205Y-105239856D01*
X106786226Y-105051498D01*
X106826000Y-104851539D01*
X106826000Y-104647661D01*
X106796011Y-104496890D01*
X145878524Y-104496890D01*
X145923175Y-104644099D01*
X146048359Y-104906920D01*
X146222412Y-105140269D01*
X146438645Y-105335178D01*
X146564255Y-105410000D01*
X146438645Y-105484822D01*
X146222412Y-105679731D01*
X146048359Y-105913080D01*
X145923175Y-106175901D01*
X145878524Y-106323110D01*
X145999845Y-106553000D01*
X147193000Y-106553000D01*
X147193000Y-104267000D01*
X147447000Y-104267000D01*
X147447000Y-106553000D01*
X148640155Y-106553000D01*
X148761476Y-106323110D01*
X148716825Y-106175901D01*
X148591641Y-105913080D01*
X148417588Y-105679731D01*
X148201355Y-105484822D01*
X148075745Y-105410000D01*
X148201355Y-105335178D01*
X148417588Y-105140269D01*
X148591641Y-104906920D01*
X148716825Y-104644099D01*
X148761476Y-104496890D01*
X148640155Y-104267000D01*
X147447000Y-104267000D01*
X147193000Y-104267000D01*
X145999845Y-104267000D01*
X145878524Y-104496890D01*
X106796011Y-104496890D01*
X106786226Y-104447702D01*
X106708205Y-104259344D01*
X106594937Y-104089826D01*
X106450774Y-103945663D01*
X106281256Y-103832395D01*
X106092898Y-103754374D01*
X105892939Y-103714600D01*
X105689061Y-103714600D01*
X105489102Y-103754374D01*
X105300744Y-103832395D01*
X105131226Y-103945663D01*
X104987063Y-104089826D01*
X104873795Y-104259344D01*
X104795857Y-104447501D01*
X104686760Y-104425800D01*
X104482882Y-104425800D01*
X104282923Y-104465574D01*
X104094565Y-104543595D01*
X103925047Y-104656863D01*
X103780884Y-104801026D01*
X103667616Y-104970544D01*
X103589595Y-105158902D01*
X103549821Y-105358861D01*
X102260000Y-105358861D01*
X102260000Y-82970000D01*
X105191928Y-82970000D01*
X105191928Y-84670000D01*
X105204188Y-84794482D01*
X105240498Y-84914180D01*
X105299463Y-85024494D01*
X105378815Y-85121185D01*
X105475506Y-85200537D01*
X105585820Y-85259502D01*
X105658380Y-85281513D01*
X105526525Y-85413368D01*
X105364010Y-85656589D01*
X105252068Y-85926842D01*
X105195000Y-86213740D01*
X105195000Y-86506260D01*
X105252068Y-86793158D01*
X105364010Y-87063411D01*
X105526525Y-87306632D01*
X105733368Y-87513475D01*
X105907760Y-87630000D01*
X105733368Y-87746525D01*
X105526525Y-87953368D01*
X105364010Y-88196589D01*
X105252068Y-88466842D01*
X105195000Y-88753740D01*
X105195000Y-89046260D01*
X105252068Y-89333158D01*
X105364010Y-89603411D01*
X105526525Y-89846632D01*
X105733368Y-90053475D01*
X105907760Y-90170000D01*
X105733368Y-90286525D01*
X105526525Y-90493368D01*
X105364010Y-90736589D01*
X105252068Y-91006842D01*
X105195000Y-91293740D01*
X105195000Y-91586260D01*
X105252068Y-91873158D01*
X105364010Y-92143411D01*
X105526525Y-92386632D01*
X105733368Y-92593475D01*
X105907760Y-92710000D01*
X105733368Y-92826525D01*
X105526525Y-93033368D01*
X105364010Y-93276589D01*
X105252068Y-93546842D01*
X105195000Y-93833740D01*
X105195000Y-94126260D01*
X105252068Y-94413158D01*
X105364010Y-94683411D01*
X105526525Y-94926632D01*
X105733368Y-95133475D01*
X105907760Y-95250000D01*
X105733368Y-95366525D01*
X105526525Y-95573368D01*
X105364010Y-95816589D01*
X105252068Y-96086842D01*
X105195000Y-96373740D01*
X105195000Y-96666260D01*
X105252068Y-96953158D01*
X105364010Y-97223411D01*
X105526525Y-97466632D01*
X105733368Y-97673475D01*
X105907760Y-97790000D01*
X105733368Y-97906525D01*
X105526525Y-98113368D01*
X105364010Y-98356589D01*
X105252068Y-98626842D01*
X105195000Y-98913740D01*
X105195000Y-99206260D01*
X105252068Y-99493158D01*
X105364010Y-99763411D01*
X105526525Y-100006632D01*
X105733368Y-100213475D01*
X105907760Y-100330000D01*
X105733368Y-100446525D01*
X105526525Y-100653368D01*
X105364010Y-100896589D01*
X105252068Y-101166842D01*
X105195000Y-101453740D01*
X105195000Y-101746260D01*
X105252068Y-102033158D01*
X105364010Y-102303411D01*
X105526525Y-102546632D01*
X105733368Y-102753475D01*
X105976589Y-102915990D01*
X106246842Y-103027932D01*
X106533740Y-103085000D01*
X106826260Y-103085000D01*
X107113158Y-103027932D01*
X107383411Y-102915990D01*
X107626632Y-102753475D01*
X107833475Y-102546632D01*
X107950000Y-102372240D01*
X108066525Y-102546632D01*
X108273368Y-102753475D01*
X108516589Y-102915990D01*
X108786842Y-103027932D01*
X109073740Y-103085000D01*
X109366260Y-103085000D01*
X109653158Y-103027932D01*
X109923411Y-102915990D01*
X110166632Y-102753475D01*
X110177446Y-102742661D01*
X124466400Y-102742661D01*
X124466400Y-102946539D01*
X124506174Y-103146498D01*
X124584195Y-103334856D01*
X124697463Y-103504374D01*
X124841626Y-103648537D01*
X125011144Y-103761805D01*
X125199502Y-103839826D01*
X125399461Y-103879600D01*
X125603339Y-103879600D01*
X125803298Y-103839826D01*
X125991656Y-103761805D01*
X126161174Y-103648537D01*
X126305337Y-103504374D01*
X126418605Y-103334856D01*
X126464663Y-103223663D01*
X126575856Y-103177605D01*
X126745374Y-103064337D01*
X126889537Y-102920174D01*
X127002805Y-102750656D01*
X127080826Y-102562298D01*
X127120600Y-102362339D01*
X127120600Y-102158461D01*
X127080826Y-101958502D01*
X127002805Y-101770144D01*
X126889537Y-101600626D01*
X126745374Y-101456463D01*
X126575856Y-101343195D01*
X126387498Y-101265174D01*
X126187539Y-101225400D01*
X125983661Y-101225400D01*
X125783702Y-101265174D01*
X125595344Y-101343195D01*
X125425826Y-101456463D01*
X125281663Y-101600626D01*
X125168395Y-101770144D01*
X125122337Y-101881337D01*
X125011144Y-101927395D01*
X124841626Y-102040663D01*
X124697463Y-102184826D01*
X124584195Y-102354344D01*
X124506174Y-102542702D01*
X124466400Y-102742661D01*
X110177446Y-102742661D01*
X110373475Y-102546632D01*
X110535990Y-102303411D01*
X110647932Y-102033158D01*
X110705000Y-101746260D01*
X110705000Y-101453740D01*
X110647932Y-101166842D01*
X110535990Y-100896589D01*
X110373475Y-100653368D01*
X110166632Y-100446525D01*
X109992240Y-100330000D01*
X110166632Y-100213475D01*
X110373475Y-100006632D01*
X110535990Y-99763411D01*
X110647932Y-99493158D01*
X110705000Y-99206260D01*
X110705000Y-98913740D01*
X110647932Y-98626842D01*
X110535990Y-98356589D01*
X110373475Y-98113368D01*
X110166632Y-97906525D01*
X109992240Y-97790000D01*
X110166632Y-97673475D01*
X110373475Y-97466632D01*
X110535990Y-97223411D01*
X110647932Y-96953158D01*
X110705000Y-96666260D01*
X110705000Y-96541220D01*
X119458759Y-96541220D01*
X119458759Y-96745098D01*
X119498533Y-96945057D01*
X119576554Y-97133415D01*
X119689822Y-97302933D01*
X119833985Y-97447096D01*
X120003503Y-97560364D01*
X120191861Y-97638385D01*
X120391820Y-97678159D01*
X120595698Y-97678159D01*
X120795657Y-97638385D01*
X120984015Y-97560364D01*
X121153533Y-97447096D01*
X121189368Y-97411261D01*
X121202694Y-97424587D01*
X121372212Y-97537855D01*
X121560570Y-97615876D01*
X121760529Y-97655650D01*
X121964407Y-97655650D01*
X122164366Y-97615876D01*
X122203111Y-97599827D01*
X122284463Y-97721580D01*
X122428626Y-97865743D01*
X122598144Y-97979011D01*
X122786502Y-98057032D01*
X122986461Y-98096806D01*
X123190339Y-98096806D01*
X123390298Y-98057032D01*
X123578656Y-97979011D01*
X123748174Y-97865743D01*
X123892337Y-97721580D01*
X124005605Y-97552062D01*
X124075525Y-97383261D01*
X128505000Y-97383261D01*
X128505000Y-97587139D01*
X128544774Y-97787098D01*
X128622795Y-97975456D01*
X128736063Y-98144974D01*
X128880226Y-98289137D01*
X129049744Y-98402405D01*
X129238102Y-98480426D01*
X129438061Y-98520200D01*
X129641939Y-98520200D01*
X129841898Y-98480426D01*
X130030256Y-98402405D01*
X130199774Y-98289137D01*
X130312106Y-98176805D01*
X130431902Y-98226426D01*
X130631861Y-98266200D01*
X130835739Y-98266200D01*
X131035698Y-98226426D01*
X131224056Y-98148405D01*
X131393574Y-98035137D01*
X131515553Y-97913159D01*
X132785405Y-99183011D01*
X131359183Y-100490381D01*
X131342568Y-100508922D01*
X131329889Y-100530348D01*
X131321634Y-100553836D01*
X131318000Y-100584000D01*
X131318000Y-100923251D01*
X131300256Y-100911395D01*
X131111898Y-100833374D01*
X130911939Y-100793600D01*
X130708061Y-100793600D01*
X130508102Y-100833374D01*
X130319744Y-100911395D01*
X130150226Y-101024663D01*
X130006063Y-101168826D01*
X129892795Y-101338344D01*
X129814774Y-101526702D01*
X129775000Y-101726661D01*
X129775000Y-101930539D01*
X129814774Y-102130498D01*
X129861142Y-102242440D01*
X129789374Y-102415702D01*
X129749600Y-102615661D01*
X129749600Y-102819539D01*
X129789374Y-103019498D01*
X129867395Y-103207856D01*
X129980663Y-103377374D01*
X130124826Y-103521537D01*
X130294344Y-103634805D01*
X130482702Y-103712826D01*
X130682661Y-103752600D01*
X130886539Y-103752600D01*
X131086498Y-103712826D01*
X131274856Y-103634805D01*
X131318000Y-103605977D01*
X131318000Y-104140000D01*
X131320440Y-104164776D01*
X131327667Y-104188601D01*
X131339403Y-104210557D01*
X131355197Y-104229803D01*
X131374443Y-104245597D01*
X131396399Y-104257333D01*
X131420224Y-104264560D01*
X131445000Y-104267000D01*
X139065000Y-104267000D01*
X139089776Y-104264560D01*
X139113601Y-104257333D01*
X139135557Y-104245597D01*
X139154803Y-104229803D01*
X139170597Y-104210557D01*
X139182333Y-104188601D01*
X139189560Y-104164776D01*
X139192000Y-104140000D01*
X139192000Y-101956890D01*
X145878524Y-101956890D01*
X145923175Y-102104099D01*
X146048359Y-102366920D01*
X146222412Y-102600269D01*
X146438645Y-102795178D01*
X146564255Y-102870000D01*
X146438645Y-102944822D01*
X146222412Y-103139731D01*
X146048359Y-103373080D01*
X145923175Y-103635901D01*
X145878524Y-103783110D01*
X145999845Y-104013000D01*
X147193000Y-104013000D01*
X147193000Y-101727000D01*
X147447000Y-101727000D01*
X147447000Y-104013000D01*
X148640155Y-104013000D01*
X148761476Y-103783110D01*
X148716825Y-103635901D01*
X148591641Y-103373080D01*
X148417588Y-103139731D01*
X148201355Y-102944822D01*
X148075745Y-102870000D01*
X148201355Y-102795178D01*
X148417588Y-102600269D01*
X148591641Y-102366920D01*
X148716825Y-102104099D01*
X148761476Y-101956890D01*
X148640155Y-101727000D01*
X147447000Y-101727000D01*
X147193000Y-101727000D01*
X145999845Y-101727000D01*
X145878524Y-101956890D01*
X139192000Y-101956890D01*
X139192000Y-100711000D01*
X139189560Y-100686224D01*
X139182333Y-100662399D01*
X139170597Y-100640443D01*
X139154803Y-100621197D01*
X137950496Y-99416890D01*
X145878524Y-99416890D01*
X145923175Y-99564099D01*
X146048359Y-99826920D01*
X146222412Y-100060269D01*
X146438645Y-100255178D01*
X146564255Y-100330000D01*
X146438645Y-100404822D01*
X146222412Y-100599731D01*
X146048359Y-100833080D01*
X145923175Y-101095901D01*
X145878524Y-101243110D01*
X145999845Y-101473000D01*
X147193000Y-101473000D01*
X147193000Y-99187000D01*
X147447000Y-99187000D01*
X147447000Y-101473000D01*
X148640155Y-101473000D01*
X148761476Y-101243110D01*
X148716825Y-101095901D01*
X148591641Y-100833080D01*
X148417588Y-100599731D01*
X148201355Y-100404822D01*
X148075745Y-100330000D01*
X148201355Y-100255178D01*
X148417588Y-100060269D01*
X148591641Y-99826920D01*
X148716825Y-99564099D01*
X148761476Y-99416890D01*
X148640155Y-99187000D01*
X147447000Y-99187000D01*
X147193000Y-99187000D01*
X145999845Y-99187000D01*
X145878524Y-99416890D01*
X137950496Y-99416890D01*
X137249803Y-98716197D01*
X137230557Y-98700403D01*
X137208601Y-98688667D01*
X137184776Y-98681440D01*
X137160000Y-98679000D01*
X134672606Y-98679000D01*
X133363606Y-97370000D01*
X145831928Y-97370000D01*
X145844188Y-97494482D01*
X145880498Y-97614180D01*
X145939463Y-97724494D01*
X146018815Y-97821185D01*
X146115506Y-97900537D01*
X146225820Y-97959502D01*
X146306466Y-97983966D01*
X146222412Y-98059731D01*
X146048359Y-98293080D01*
X145923175Y-98555901D01*
X145878524Y-98703110D01*
X145999845Y-98933000D01*
X147193000Y-98933000D01*
X147193000Y-96647000D01*
X147447000Y-96647000D01*
X147447000Y-98933000D01*
X148640155Y-98933000D01*
X148761476Y-98703110D01*
X148716825Y-98555901D01*
X148591641Y-98293080D01*
X148417588Y-98059731D01*
X148333534Y-97983966D01*
X148414180Y-97959502D01*
X148524494Y-97900537D01*
X148621185Y-97821185D01*
X148700537Y-97724494D01*
X148759502Y-97614180D01*
X148795812Y-97494482D01*
X148808072Y-97370000D01*
X148805000Y-96805750D01*
X148646250Y-96647000D01*
X147447000Y-96647000D01*
X147193000Y-96647000D01*
X145993750Y-96647000D01*
X145835000Y-96805750D01*
X145831928Y-97370000D01*
X133363606Y-97370000D01*
X132657800Y-96664194D01*
X132657800Y-96646661D01*
X132618026Y-96446702D01*
X132540005Y-96258344D01*
X132426737Y-96088826D01*
X132282574Y-95944663D01*
X132173170Y-95871562D01*
X132223537Y-95821195D01*
X132223540Y-95821191D01*
X132384461Y-95853200D01*
X132588339Y-95853200D01*
X132788298Y-95813426D01*
X132976656Y-95735405D01*
X133146174Y-95622137D01*
X133290337Y-95477974D01*
X133403605Y-95308456D01*
X133472062Y-95143188D01*
X133550298Y-95127626D01*
X133738656Y-95049605D01*
X133908174Y-94936337D01*
X134052337Y-94792174D01*
X134165605Y-94622656D01*
X134232543Y-94461054D01*
X134394145Y-94394116D01*
X134563663Y-94280848D01*
X134707826Y-94136685D01*
X134821094Y-93967167D01*
X134847482Y-93903461D01*
X139046000Y-93903461D01*
X139046000Y-94107339D01*
X139085774Y-94307298D01*
X139163795Y-94495656D01*
X139277063Y-94665174D01*
X139421226Y-94809337D01*
X139507983Y-94867306D01*
X139480263Y-94895026D01*
X139366995Y-95064544D01*
X139288974Y-95252902D01*
X139249200Y-95452861D01*
X139249200Y-95656739D01*
X139288974Y-95856698D01*
X139366995Y-96045056D01*
X139480263Y-96214574D01*
X139624426Y-96358737D01*
X139793944Y-96472005D01*
X139982302Y-96550026D01*
X140182261Y-96589800D01*
X140386139Y-96589800D01*
X140586098Y-96550026D01*
X140774456Y-96472005D01*
X140943974Y-96358737D01*
X141088137Y-96214574D01*
X141201405Y-96045056D01*
X141279426Y-95856698D01*
X141316562Y-95670000D01*
X145831928Y-95670000D01*
X145835000Y-96234250D01*
X145993750Y-96393000D01*
X147193000Y-96393000D01*
X147193000Y-95193750D01*
X147447000Y-95193750D01*
X147447000Y-96393000D01*
X148646250Y-96393000D01*
X148805000Y-96234250D01*
X148808072Y-95670000D01*
X148795812Y-95545518D01*
X148759502Y-95425820D01*
X148700537Y-95315506D01*
X148621185Y-95218815D01*
X148524494Y-95139463D01*
X148414180Y-95080498D01*
X148294482Y-95044188D01*
X148170000Y-95031928D01*
X147605750Y-95035000D01*
X147447000Y-95193750D01*
X147193000Y-95193750D01*
X147034250Y-95035000D01*
X146470000Y-95031928D01*
X146345518Y-95044188D01*
X146225820Y-95080498D01*
X146115506Y-95139463D01*
X146018815Y-95218815D01*
X145939463Y-95315506D01*
X145880498Y-95425820D01*
X145844188Y-95545518D01*
X145831928Y-95670000D01*
X141316562Y-95670000D01*
X141319200Y-95656739D01*
X141319200Y-95452861D01*
X141279426Y-95252902D01*
X141201405Y-95064544D01*
X141088137Y-94895026D01*
X140943974Y-94750863D01*
X140857217Y-94692894D01*
X140884937Y-94665174D01*
X140998205Y-94495656D01*
X141076226Y-94307298D01*
X141116000Y-94107339D01*
X141116000Y-93903461D01*
X141076226Y-93703502D01*
X140998205Y-93515144D01*
X140884937Y-93345626D01*
X140740774Y-93201463D01*
X140571256Y-93088195D01*
X140382898Y-93010174D01*
X140182939Y-92970400D01*
X139979061Y-92970400D01*
X139779102Y-93010174D01*
X139590744Y-93088195D01*
X139421226Y-93201463D01*
X139277063Y-93345626D01*
X139163795Y-93515144D01*
X139085774Y-93703502D01*
X139046000Y-93903461D01*
X134847482Y-93903461D01*
X134899115Y-93778809D01*
X134938889Y-93578850D01*
X134938889Y-93374972D01*
X134899115Y-93175013D01*
X134821094Y-92986655D01*
X134707826Y-92817137D01*
X134563663Y-92672974D01*
X134394145Y-92559706D01*
X134205787Y-92481685D01*
X134005828Y-92441911D01*
X133801950Y-92441911D01*
X133601991Y-92481685D01*
X133413633Y-92559706D01*
X133244115Y-92672974D01*
X133099952Y-92817137D01*
X132986684Y-92986655D01*
X132919746Y-93148257D01*
X132758144Y-93215195D01*
X132588626Y-93328463D01*
X132444463Y-93472626D01*
X132331195Y-93642144D01*
X132262738Y-93807412D01*
X132184502Y-93822974D01*
X131996144Y-93900995D01*
X131826626Y-94014263D01*
X131682463Y-94158426D01*
X131682460Y-94158430D01*
X131521539Y-94126421D01*
X131317661Y-94126421D01*
X131117702Y-94166195D01*
X130929344Y-94244216D01*
X130759826Y-94357484D01*
X130615663Y-94501647D01*
X130502395Y-94671165D01*
X130449361Y-94799199D01*
X130377861Y-94799199D01*
X130177902Y-94838973D01*
X129989544Y-94916994D01*
X129820026Y-95030262D01*
X129675863Y-95174425D01*
X129562595Y-95343943D01*
X129484574Y-95532301D01*
X129444800Y-95732260D01*
X129444800Y-95936138D01*
X129484574Y-96136097D01*
X129562595Y-96324455D01*
X129647332Y-96451273D01*
X129641939Y-96450200D01*
X129438061Y-96450200D01*
X129238102Y-96489974D01*
X129049744Y-96567995D01*
X128880226Y-96681263D01*
X128736063Y-96825426D01*
X128622795Y-96994944D01*
X128544774Y-97183302D01*
X128505000Y-97383261D01*
X124075525Y-97383261D01*
X124083626Y-97363704D01*
X124123400Y-97163745D01*
X124123400Y-96959867D01*
X124083626Y-96759908D01*
X124005605Y-96571550D01*
X123892337Y-96402032D01*
X123748174Y-96257869D01*
X123578656Y-96144601D01*
X123390298Y-96066580D01*
X123190339Y-96026806D01*
X122986461Y-96026806D01*
X122786502Y-96066580D01*
X122747757Y-96082629D01*
X122666405Y-95960876D01*
X122522242Y-95816713D01*
X122352724Y-95703445D01*
X122164366Y-95625424D01*
X121964407Y-95585650D01*
X121760529Y-95585650D01*
X121560570Y-95625424D01*
X121372212Y-95703445D01*
X121202694Y-95816713D01*
X121166859Y-95852548D01*
X121153533Y-95839222D01*
X120984015Y-95725954D01*
X120795657Y-95647933D01*
X120595698Y-95608159D01*
X120391820Y-95608159D01*
X120191861Y-95647933D01*
X120003503Y-95725954D01*
X119833985Y-95839222D01*
X119689822Y-95983385D01*
X119576554Y-96152903D01*
X119498533Y-96341261D01*
X119458759Y-96541220D01*
X110705000Y-96541220D01*
X110705000Y-96373740D01*
X110647932Y-96086842D01*
X110535990Y-95816589D01*
X110373475Y-95573368D01*
X110166632Y-95366525D01*
X109992240Y-95250000D01*
X110011573Y-95237082D01*
X110907058Y-95237082D01*
X110907058Y-95440960D01*
X110946832Y-95640919D01*
X111024853Y-95829277D01*
X111138121Y-95998795D01*
X111282284Y-96142958D01*
X111451802Y-96256226D01*
X111640160Y-96334247D01*
X111840119Y-96374021D01*
X112043997Y-96374021D01*
X112243956Y-96334247D01*
X112432314Y-96256226D01*
X112601832Y-96142958D01*
X112657051Y-96087739D01*
X112835772Y-96123289D01*
X113039650Y-96123289D01*
X113239609Y-96083515D01*
X113427967Y-96005494D01*
X113597485Y-95892226D01*
X113741648Y-95748063D01*
X113854916Y-95578545D01*
X113932937Y-95390187D01*
X113972711Y-95190228D01*
X113972711Y-94986350D01*
X113932937Y-94786391D01*
X113854916Y-94598033D01*
X113741648Y-94428515D01*
X113597485Y-94284352D01*
X113427967Y-94171084D01*
X113239609Y-94093063D01*
X113039650Y-94053289D01*
X112835772Y-94053289D01*
X112635813Y-94093063D01*
X112447455Y-94171084D01*
X112277937Y-94284352D01*
X112222718Y-94339571D01*
X112043997Y-94304021D01*
X111840119Y-94304021D01*
X111640160Y-94343795D01*
X111451802Y-94421816D01*
X111282284Y-94535084D01*
X111138121Y-94679247D01*
X111024853Y-94848765D01*
X110946832Y-95037123D01*
X110907058Y-95237082D01*
X110011573Y-95237082D01*
X110166632Y-95133475D01*
X110373475Y-94926632D01*
X110535990Y-94683411D01*
X110647932Y-94413158D01*
X110705000Y-94126260D01*
X110705000Y-93833740D01*
X110647932Y-93546842D01*
X110535990Y-93276589D01*
X110373475Y-93033368D01*
X110166632Y-92826525D01*
X109992240Y-92710000D01*
X110166632Y-92593475D01*
X110288898Y-92471209D01*
X125775590Y-92471209D01*
X125775590Y-92675087D01*
X125815364Y-92875046D01*
X125893385Y-93063404D01*
X126006653Y-93232922D01*
X126150816Y-93377085D01*
X126320334Y-93490353D01*
X126508692Y-93568374D01*
X126708651Y-93608148D01*
X126912529Y-93608148D01*
X127112488Y-93568374D01*
X127300846Y-93490353D01*
X127470364Y-93377085D01*
X127614527Y-93232922D01*
X127727795Y-93063404D01*
X127805816Y-92875046D01*
X127845590Y-92675087D01*
X127845590Y-92471209D01*
X127807199Y-92278201D01*
X127819540Y-92278201D01*
X128019499Y-92238427D01*
X128207857Y-92160406D01*
X128377375Y-92047138D01*
X128521538Y-91902975D01*
X128634806Y-91733457D01*
X128712827Y-91545099D01*
X128717711Y-91520548D01*
X128739873Y-91542710D01*
X128909391Y-91655978D01*
X129097749Y-91733999D01*
X129297708Y-91773773D01*
X129501586Y-91773773D01*
X129701545Y-91733999D01*
X129889903Y-91655978D01*
X130059421Y-91542710D01*
X130203584Y-91398547D01*
X130316852Y-91229029D01*
X130394873Y-91040671D01*
X130434647Y-90840712D01*
X130434647Y-90636834D01*
X130394873Y-90436875D01*
X130316852Y-90248517D01*
X130298509Y-90221064D01*
X130342382Y-90115146D01*
X130382156Y-89915187D01*
X130382156Y-89711309D01*
X130378050Y-89690667D01*
X130485048Y-89797665D01*
X130654566Y-89910933D01*
X130842924Y-89988954D01*
X131042883Y-90028728D01*
X131246761Y-90028728D01*
X131249043Y-90028274D01*
X131258160Y-90074109D01*
X131264333Y-90089011D01*
X131259544Y-90090995D01*
X131090026Y-90204263D01*
X130945863Y-90348426D01*
X130832595Y-90517944D01*
X130754574Y-90706302D01*
X130714800Y-90906261D01*
X130714800Y-91110139D01*
X130754574Y-91310098D01*
X130832595Y-91498456D01*
X130945863Y-91667974D01*
X131090026Y-91812137D01*
X131259544Y-91925405D01*
X131447902Y-92003426D01*
X131647861Y-92043200D01*
X131851739Y-92043200D01*
X132051698Y-92003426D01*
X132240056Y-91925405D01*
X132409574Y-91812137D01*
X132553737Y-91667974D01*
X132667005Y-91498456D01*
X132745026Y-91310098D01*
X132784800Y-91110139D01*
X132784800Y-90906261D01*
X132745026Y-90706302D01*
X132738853Y-90691400D01*
X132743642Y-90689416D01*
X132913160Y-90576148D01*
X133057323Y-90431985D01*
X133170591Y-90262467D01*
X133248612Y-90074109D01*
X133288386Y-89874150D01*
X133288386Y-89670272D01*
X133248612Y-89470313D01*
X133170591Y-89281955D01*
X133057323Y-89112437D01*
X132913160Y-88968274D01*
X132743642Y-88855006D01*
X132555284Y-88776985D01*
X132355325Y-88737211D01*
X132151447Y-88737211D01*
X132149165Y-88737665D01*
X132140048Y-88691830D01*
X132062027Y-88503472D01*
X131948759Y-88333954D01*
X131804596Y-88189791D01*
X131635078Y-88076523D01*
X131446720Y-87998502D01*
X131246761Y-87958728D01*
X131042883Y-87958728D01*
X130842924Y-87998502D01*
X130654566Y-88076523D01*
X130485048Y-88189791D01*
X130344982Y-88329857D01*
X130342180Y-88323091D01*
X130306059Y-88269033D01*
X130374436Y-88103958D01*
X130414210Y-87903999D01*
X130414210Y-87700121D01*
X130374436Y-87500162D01*
X130296415Y-87311804D01*
X130183147Y-87142286D01*
X130038984Y-86998123D01*
X129869466Y-86884855D01*
X129681108Y-86806834D01*
X129481149Y-86767060D01*
X129277271Y-86767060D01*
X129077312Y-86806834D01*
X128888954Y-86884855D01*
X128719436Y-86998123D01*
X128575273Y-87142286D01*
X128462005Y-87311804D01*
X128383984Y-87500162D01*
X128344210Y-87700121D01*
X128344210Y-87903999D01*
X128383984Y-88103958D01*
X128462005Y-88292316D01*
X128498126Y-88346374D01*
X128429749Y-88511449D01*
X128389975Y-88711408D01*
X128389975Y-88915286D01*
X128429749Y-89115245D01*
X128482948Y-89243677D01*
X128429951Y-89322992D01*
X128351930Y-89511350D01*
X128312156Y-89711309D01*
X128312156Y-89915187D01*
X128351930Y-90115146D01*
X128429951Y-90303504D01*
X128448294Y-90330957D01*
X128404421Y-90436875D01*
X128399537Y-90461426D01*
X128377375Y-90439264D01*
X128207857Y-90325996D01*
X128019499Y-90247975D01*
X127819540Y-90208201D01*
X127615662Y-90208201D01*
X127415703Y-90247975D01*
X127227345Y-90325996D01*
X127057827Y-90439264D01*
X126913664Y-90583427D01*
X126800396Y-90752945D01*
X126722375Y-90941303D01*
X126682601Y-91141262D01*
X126682601Y-91345140D01*
X126720992Y-91538148D01*
X126708651Y-91538148D01*
X126508692Y-91577922D01*
X126320334Y-91655943D01*
X126150816Y-91769211D01*
X126006653Y-91913374D01*
X125893385Y-92082892D01*
X125815364Y-92271250D01*
X125775590Y-92471209D01*
X110288898Y-92471209D01*
X110373475Y-92386632D01*
X110535990Y-92143411D01*
X110647932Y-91873158D01*
X110705000Y-91586260D01*
X110705000Y-91293740D01*
X110647932Y-91006842D01*
X110535990Y-90736589D01*
X110373475Y-90493368D01*
X110166632Y-90286525D01*
X109992240Y-90170000D01*
X110166632Y-90053475D01*
X110373475Y-89846632D01*
X110535990Y-89603411D01*
X110647932Y-89333158D01*
X110679779Y-89173049D01*
X118586464Y-89173049D01*
X118586464Y-89376927D01*
X118626238Y-89576886D01*
X118704259Y-89765244D01*
X118817527Y-89934762D01*
X118961690Y-90078925D01*
X119131208Y-90192193D01*
X119319566Y-90270214D01*
X119353774Y-90277018D01*
X119362735Y-90322067D01*
X119440756Y-90510425D01*
X119554024Y-90679943D01*
X119698187Y-90824106D01*
X119867705Y-90937374D01*
X120056063Y-91015395D01*
X120256022Y-91055169D01*
X120459900Y-91055169D01*
X120659859Y-91015395D01*
X120848217Y-90937374D01*
X121017735Y-90824106D01*
X121161898Y-90679943D01*
X121275166Y-90510425D01*
X121353187Y-90322067D01*
X121392961Y-90122108D01*
X121392961Y-89918230D01*
X121353187Y-89718271D01*
X121275166Y-89529913D01*
X121161898Y-89360395D01*
X121017735Y-89216232D01*
X120848217Y-89102964D01*
X120659859Y-89024943D01*
X120625651Y-89018139D01*
X120616690Y-88973090D01*
X120538669Y-88784732D01*
X120425401Y-88615214D01*
X120281238Y-88471051D01*
X120111720Y-88357783D01*
X119923362Y-88279762D01*
X119723403Y-88239988D01*
X119519525Y-88239988D01*
X119319566Y-88279762D01*
X119131208Y-88357783D01*
X118961690Y-88471051D01*
X118817527Y-88615214D01*
X118704259Y-88784732D01*
X118626238Y-88973090D01*
X118586464Y-89173049D01*
X110679779Y-89173049D01*
X110705000Y-89046260D01*
X110705000Y-88753740D01*
X110647932Y-88466842D01*
X110535990Y-88196589D01*
X110373475Y-87953368D01*
X110166632Y-87746525D01*
X109992240Y-87630000D01*
X110166632Y-87513475D01*
X110373475Y-87306632D01*
X110535990Y-87063411D01*
X110647932Y-86793158D01*
X110660483Y-86730057D01*
X133326999Y-86730057D01*
X133326999Y-86933935D01*
X133366773Y-87133894D01*
X133444794Y-87322252D01*
X133558062Y-87491770D01*
X133655848Y-87589556D01*
X133654296Y-87597357D01*
X133654296Y-87801235D01*
X133694070Y-88001194D01*
X133772091Y-88189552D01*
X133885359Y-88359070D01*
X134029522Y-88503233D01*
X134199040Y-88616501D01*
X134387398Y-88694522D01*
X134587357Y-88734296D01*
X134791235Y-88734296D01*
X134991194Y-88694522D01*
X135179552Y-88616501D01*
X135349070Y-88503233D01*
X135493233Y-88359070D01*
X135606501Y-88189552D01*
X135649037Y-88086861D01*
X136963200Y-88086861D01*
X136963200Y-88290739D01*
X137002974Y-88490698D01*
X137080995Y-88679056D01*
X137194263Y-88848574D01*
X137338426Y-88992737D01*
X137507944Y-89106005D01*
X137696302Y-89184026D01*
X137896261Y-89223800D01*
X138100139Y-89223800D01*
X138300098Y-89184026D01*
X138488456Y-89106005D01*
X138657974Y-88992737D01*
X138802137Y-88848574D01*
X138915405Y-88679056D01*
X138947121Y-88602487D01*
X138960498Y-88599826D01*
X139148856Y-88521805D01*
X139318374Y-88408537D01*
X139462537Y-88264374D01*
X139575805Y-88094856D01*
X139653826Y-87906498D01*
X139693600Y-87706539D01*
X139693600Y-87502661D01*
X139653826Y-87302702D01*
X139575805Y-87114344D01*
X139462537Y-86944826D01*
X139318374Y-86800663D01*
X139148856Y-86687395D01*
X138960498Y-86609374D01*
X138760539Y-86569600D01*
X138556661Y-86569600D01*
X138356702Y-86609374D01*
X138168344Y-86687395D01*
X137998826Y-86800663D01*
X137854663Y-86944826D01*
X137741395Y-87114344D01*
X137709679Y-87190913D01*
X137696302Y-87193574D01*
X137507944Y-87271595D01*
X137338426Y-87384863D01*
X137194263Y-87529026D01*
X137080995Y-87698544D01*
X137002974Y-87886902D01*
X136963200Y-88086861D01*
X135649037Y-88086861D01*
X135684522Y-88001194D01*
X135724296Y-87801235D01*
X135724296Y-87597357D01*
X135684522Y-87397398D01*
X135606501Y-87209040D01*
X135493233Y-87039522D01*
X135395447Y-86941736D01*
X135396999Y-86933935D01*
X135396999Y-86730057D01*
X135357225Y-86530098D01*
X135279204Y-86341740D01*
X135165936Y-86172222D01*
X135021773Y-86028059D01*
X134852255Y-85914791D01*
X134663897Y-85836770D01*
X134463938Y-85796996D01*
X134260060Y-85796996D01*
X134060101Y-85836770D01*
X133871743Y-85914791D01*
X133702225Y-86028059D01*
X133558062Y-86172222D01*
X133444794Y-86341740D01*
X133366773Y-86530098D01*
X133326999Y-86730057D01*
X110660483Y-86730057D01*
X110705000Y-86506260D01*
X110705000Y-86213740D01*
X110647932Y-85926842D01*
X110535990Y-85656589D01*
X110373475Y-85413368D01*
X110166632Y-85206525D01*
X109992240Y-85090000D01*
X110166632Y-84973475D01*
X110373475Y-84766632D01*
X110535990Y-84523411D01*
X110647932Y-84253158D01*
X110705000Y-83966260D01*
X110705000Y-83928876D01*
X122423846Y-83928876D01*
X122423846Y-84132754D01*
X122463620Y-84332713D01*
X122541641Y-84521071D01*
X122654909Y-84690589D01*
X122799072Y-84834752D01*
X122968590Y-84948020D01*
X123156948Y-85026041D01*
X123356907Y-85065815D01*
X123479263Y-85065815D01*
X123579863Y-85216374D01*
X123724026Y-85360537D01*
X123893544Y-85473805D01*
X124081902Y-85551826D01*
X124281861Y-85591600D01*
X124424727Y-85591600D01*
X124465585Y-85690240D01*
X124578853Y-85859758D01*
X124723016Y-86003921D01*
X124892534Y-86117189D01*
X125080892Y-86195210D01*
X125280851Y-86234984D01*
X125484729Y-86234984D01*
X125684688Y-86195210D01*
X125873046Y-86117189D01*
X126042564Y-86003921D01*
X126186727Y-85859758D01*
X126299995Y-85690240D01*
X126378016Y-85501882D01*
X126417790Y-85301923D01*
X126417790Y-85098045D01*
X126378016Y-84898086D01*
X126299995Y-84709728D01*
X126186727Y-84540210D01*
X126157536Y-84511019D01*
X126223795Y-84411856D01*
X126301816Y-84223498D01*
X126341590Y-84023539D01*
X126341590Y-83819661D01*
X126301816Y-83619702D01*
X126258390Y-83514861D01*
X131019600Y-83514861D01*
X131019600Y-83718739D01*
X131059374Y-83918698D01*
X131137395Y-84107056D01*
X131250663Y-84276574D01*
X131394826Y-84420737D01*
X131564344Y-84534005D01*
X131752702Y-84612026D01*
X131952661Y-84651800D01*
X132156539Y-84651800D01*
X132356498Y-84612026D01*
X132544856Y-84534005D01*
X132714374Y-84420737D01*
X132858537Y-84276574D01*
X132971805Y-84107056D01*
X133014987Y-84002806D01*
X133016898Y-84002426D01*
X133205256Y-83924405D01*
X133374774Y-83811137D01*
X133518937Y-83666974D01*
X133632205Y-83497456D01*
X133710226Y-83309098D01*
X133750000Y-83109139D01*
X133750000Y-82905261D01*
X133710226Y-82705302D01*
X133632205Y-82516944D01*
X133518937Y-82347426D01*
X133374774Y-82203263D01*
X133205256Y-82089995D01*
X133016898Y-82011974D01*
X132816939Y-81972200D01*
X132613061Y-81972200D01*
X132413102Y-82011974D01*
X132224744Y-82089995D01*
X132055226Y-82203263D01*
X131911063Y-82347426D01*
X131797795Y-82516944D01*
X131754613Y-82621194D01*
X131752702Y-82621574D01*
X131564344Y-82699595D01*
X131394826Y-82812863D01*
X131250663Y-82957026D01*
X131137395Y-83126544D01*
X131059374Y-83314902D01*
X131019600Y-83514861D01*
X126258390Y-83514861D01*
X126223795Y-83431344D01*
X126110527Y-83261826D01*
X125966364Y-83117663D01*
X125796846Y-83004395D01*
X125608488Y-82926374D01*
X125408529Y-82886600D01*
X125204651Y-82886600D01*
X125004692Y-82926374D01*
X124816334Y-83004395D01*
X124646816Y-83117663D01*
X124502653Y-83261826D01*
X124389385Y-83431344D01*
X124356356Y-83511083D01*
X124262783Y-83371041D01*
X124118620Y-83226878D01*
X123949102Y-83113610D01*
X123760744Y-83035589D01*
X123560785Y-82995815D01*
X123356907Y-82995815D01*
X123156948Y-83035589D01*
X122968590Y-83113610D01*
X122799072Y-83226878D01*
X122654909Y-83371041D01*
X122541641Y-83540559D01*
X122463620Y-83728917D01*
X122423846Y-83928876D01*
X110705000Y-83928876D01*
X110705000Y-83673740D01*
X110647932Y-83386842D01*
X110535990Y-83116589D01*
X110373475Y-82873368D01*
X110166632Y-82666525D01*
X109923411Y-82504010D01*
X109653158Y-82392068D01*
X109366260Y-82335000D01*
X109073740Y-82335000D01*
X108786842Y-82392068D01*
X108516589Y-82504010D01*
X108273368Y-82666525D01*
X108141513Y-82798380D01*
X108119502Y-82725820D01*
X108060537Y-82615506D01*
X107981185Y-82518815D01*
X107884494Y-82439463D01*
X107774180Y-82380498D01*
X107654482Y-82344188D01*
X107530000Y-82331928D01*
X105830000Y-82331928D01*
X105705518Y-82344188D01*
X105585820Y-82380498D01*
X105475506Y-82439463D01*
X105378815Y-82518815D01*
X105299463Y-82615506D01*
X105240498Y-82725820D01*
X105204188Y-82845518D01*
X105191928Y-82970000D01*
X102260000Y-82970000D01*
X102260000Y-79374661D01*
X131730800Y-79374661D01*
X131730800Y-79578539D01*
X131770574Y-79778498D01*
X131848595Y-79966856D01*
X131961863Y-80136374D01*
X132106026Y-80280537D01*
X132275544Y-80393805D01*
X132463902Y-80471826D01*
X132663861Y-80511600D01*
X132867739Y-80511600D01*
X133067698Y-80471826D01*
X133223000Y-80407497D01*
X133378302Y-80471826D01*
X133578261Y-80511600D01*
X133782139Y-80511600D01*
X133982098Y-80471826D01*
X134170456Y-80393805D01*
X134339974Y-80280537D01*
X134484137Y-80136374D01*
X134597405Y-79966856D01*
X134675426Y-79778498D01*
X134715200Y-79578539D01*
X134715200Y-79374661D01*
X134675426Y-79174702D01*
X134597405Y-78986344D01*
X134484137Y-78816826D01*
X134339974Y-78672663D01*
X134170456Y-78559395D01*
X133982098Y-78481374D01*
X133782139Y-78441600D01*
X133578261Y-78441600D01*
X133378302Y-78481374D01*
X133223000Y-78545703D01*
X133067698Y-78481374D01*
X132867739Y-78441600D01*
X132663861Y-78441600D01*
X132463902Y-78481374D01*
X132275544Y-78559395D01*
X132106026Y-78672663D01*
X131961863Y-78816826D01*
X131848595Y-78986344D01*
X131770574Y-79174702D01*
X131730800Y-79374661D01*
X102260000Y-79374661D01*
X102260000Y-77890000D01*
X145831928Y-77890000D01*
X145831928Y-79590000D01*
X145844188Y-79714482D01*
X145880498Y-79834180D01*
X145939463Y-79944494D01*
X146018815Y-80041185D01*
X146115506Y-80120537D01*
X146225820Y-80179502D01*
X146298380Y-80201513D01*
X146166525Y-80333368D01*
X146004010Y-80576589D01*
X145892068Y-80846842D01*
X145835000Y-81133740D01*
X145835000Y-81426260D01*
X145892068Y-81713158D01*
X146004010Y-81983411D01*
X146166525Y-82226632D01*
X146373368Y-82433475D01*
X146547760Y-82550000D01*
X146373368Y-82666525D01*
X146166525Y-82873368D01*
X146004010Y-83116589D01*
X145892068Y-83386842D01*
X145835000Y-83673740D01*
X145835000Y-83966260D01*
X145892068Y-84253158D01*
X146004010Y-84523411D01*
X146166525Y-84766632D01*
X146373368Y-84973475D01*
X146547760Y-85090000D01*
X146373368Y-85206525D01*
X146166525Y-85413368D01*
X146004010Y-85656589D01*
X145892068Y-85926842D01*
X145835000Y-86213740D01*
X145835000Y-86506260D01*
X145892068Y-86793158D01*
X146004010Y-87063411D01*
X146166525Y-87306632D01*
X146373368Y-87513475D01*
X146547760Y-87630000D01*
X146373368Y-87746525D01*
X146166525Y-87953368D01*
X146004010Y-88196589D01*
X145892068Y-88466842D01*
X145835000Y-88753740D01*
X145835000Y-89046260D01*
X145892068Y-89333158D01*
X146004010Y-89603411D01*
X146166525Y-89846632D01*
X146373368Y-90053475D01*
X146616589Y-90215990D01*
X146886842Y-90327932D01*
X147173740Y-90385000D01*
X147466260Y-90385000D01*
X147753158Y-90327932D01*
X148023411Y-90215990D01*
X148266632Y-90053475D01*
X148473475Y-89846632D01*
X148635990Y-89603411D01*
X148747932Y-89333158D01*
X148805000Y-89046260D01*
X148805000Y-88753740D01*
X148747932Y-88466842D01*
X148635990Y-88196589D01*
X148473475Y-87953368D01*
X148266632Y-87746525D01*
X148092240Y-87630000D01*
X148266632Y-87513475D01*
X148473475Y-87306632D01*
X148635990Y-87063411D01*
X148747932Y-86793158D01*
X148805000Y-86506260D01*
X148805000Y-86213740D01*
X148747932Y-85926842D01*
X148635990Y-85656589D01*
X148473475Y-85413368D01*
X148266632Y-85206525D01*
X148092240Y-85090000D01*
X148266632Y-84973475D01*
X148473475Y-84766632D01*
X148635990Y-84523411D01*
X148747932Y-84253158D01*
X148805000Y-83966260D01*
X148805000Y-83673740D01*
X148747932Y-83386842D01*
X148635990Y-83116589D01*
X148473475Y-82873368D01*
X148266632Y-82666525D01*
X148092240Y-82550000D01*
X148266632Y-82433475D01*
X148473475Y-82226632D01*
X148635990Y-81983411D01*
X148747932Y-81713158D01*
X148805000Y-81426260D01*
X148805000Y-81133740D01*
X148747932Y-80846842D01*
X148635990Y-80576589D01*
X148473475Y-80333368D01*
X148341620Y-80201513D01*
X148414180Y-80179502D01*
X148524494Y-80120537D01*
X148621185Y-80041185D01*
X148700537Y-79944494D01*
X148759502Y-79834180D01*
X148795812Y-79714482D01*
X148808072Y-79590000D01*
X148808072Y-77890000D01*
X148795812Y-77765518D01*
X148759502Y-77645820D01*
X148700537Y-77535506D01*
X148621185Y-77438815D01*
X148524494Y-77359463D01*
X148414180Y-77300498D01*
X148294482Y-77264188D01*
X148170000Y-77251928D01*
X146470000Y-77251928D01*
X146345518Y-77264188D01*
X146225820Y-77300498D01*
X146115506Y-77359463D01*
X146018815Y-77438815D01*
X145939463Y-77535506D01*
X145880498Y-77645820D01*
X145844188Y-77765518D01*
X145831928Y-77890000D01*
X102260000Y-77890000D01*
X102260000Y-55030000D01*
X105191928Y-55030000D01*
X105191928Y-56730000D01*
X105204188Y-56854482D01*
X105240498Y-56974180D01*
X105299463Y-57084494D01*
X105378815Y-57181185D01*
X105475506Y-57260537D01*
X105585820Y-57319502D01*
X105658380Y-57341513D01*
X105526525Y-57473368D01*
X105364010Y-57716589D01*
X105252068Y-57986842D01*
X105195000Y-58273740D01*
X105195000Y-58566260D01*
X105252068Y-58853158D01*
X105364010Y-59123411D01*
X105526525Y-59366632D01*
X105733368Y-59573475D01*
X105907760Y-59690000D01*
X105733368Y-59806525D01*
X105526525Y-60013368D01*
X105364010Y-60256589D01*
X105252068Y-60526842D01*
X105195000Y-60813740D01*
X105195000Y-61106260D01*
X105252068Y-61393158D01*
X105364010Y-61663411D01*
X105526525Y-61906632D01*
X105733368Y-62113475D01*
X105907760Y-62230000D01*
X105733368Y-62346525D01*
X105526525Y-62553368D01*
X105364010Y-62796589D01*
X105252068Y-63066842D01*
X105195000Y-63353740D01*
X105195000Y-63646260D01*
X105252068Y-63933158D01*
X105364010Y-64203411D01*
X105526525Y-64446632D01*
X105733368Y-64653475D01*
X105907760Y-64770000D01*
X105733368Y-64886525D01*
X105526525Y-65093368D01*
X105364010Y-65336589D01*
X105252068Y-65606842D01*
X105195000Y-65893740D01*
X105195000Y-66186260D01*
X105252068Y-66473158D01*
X105364010Y-66743411D01*
X105526525Y-66986632D01*
X105733368Y-67193475D01*
X105907760Y-67310000D01*
X105733368Y-67426525D01*
X105526525Y-67633368D01*
X105364010Y-67876589D01*
X105252068Y-68146842D01*
X105195000Y-68433740D01*
X105195000Y-68726260D01*
X105252068Y-69013158D01*
X105364010Y-69283411D01*
X105526525Y-69526632D01*
X105733368Y-69733475D01*
X105907760Y-69850000D01*
X105733368Y-69966525D01*
X105526525Y-70173368D01*
X105364010Y-70416589D01*
X105252068Y-70686842D01*
X105195000Y-70973740D01*
X105195000Y-71266260D01*
X105252068Y-71553158D01*
X105364010Y-71823411D01*
X105526525Y-72066632D01*
X105733368Y-72273475D01*
X105907760Y-72390000D01*
X105733368Y-72506525D01*
X105526525Y-72713368D01*
X105364010Y-72956589D01*
X105252068Y-73226842D01*
X105195000Y-73513740D01*
X105195000Y-73806260D01*
X105252068Y-74093158D01*
X105364010Y-74363411D01*
X105526525Y-74606632D01*
X105733368Y-74813475D01*
X105976589Y-74975990D01*
X106246842Y-75087932D01*
X106533740Y-75145000D01*
X106826260Y-75145000D01*
X107113158Y-75087932D01*
X107383411Y-74975990D01*
X107626632Y-74813475D01*
X107833475Y-74606632D01*
X107950000Y-74432240D01*
X108066525Y-74606632D01*
X108273368Y-74813475D01*
X108516589Y-74975990D01*
X108786842Y-75087932D01*
X109073740Y-75145000D01*
X109366260Y-75145000D01*
X109653158Y-75087932D01*
X109923411Y-74975990D01*
X110166632Y-74813475D01*
X110279046Y-74701061D01*
X120123000Y-74701061D01*
X120123000Y-74904939D01*
X120162774Y-75104898D01*
X120240795Y-75293256D01*
X120354063Y-75462774D01*
X120498226Y-75606937D01*
X120667744Y-75720205D01*
X120856102Y-75798226D01*
X121056061Y-75838000D01*
X121259939Y-75838000D01*
X121459898Y-75798226D01*
X121648256Y-75720205D01*
X121817774Y-75606937D01*
X121961937Y-75462774D01*
X122075205Y-75293256D01*
X122153226Y-75104898D01*
X122193000Y-74904939D01*
X122193000Y-74701061D01*
X122153226Y-74501102D01*
X122075205Y-74312744D01*
X121961937Y-74143226D01*
X121817774Y-73999063D01*
X121648256Y-73885795D01*
X121459898Y-73807774D01*
X121259939Y-73768000D01*
X121056061Y-73768000D01*
X120856102Y-73807774D01*
X120667744Y-73885795D01*
X120498226Y-73999063D01*
X120354063Y-74143226D01*
X120240795Y-74312744D01*
X120162774Y-74501102D01*
X120123000Y-74701061D01*
X110279046Y-74701061D01*
X110373475Y-74606632D01*
X110535990Y-74363411D01*
X110647932Y-74093158D01*
X110705000Y-73806260D01*
X110705000Y-73513740D01*
X110647932Y-73226842D01*
X110535990Y-72956589D01*
X110373475Y-72713368D01*
X110202168Y-72542061D01*
X119742000Y-72542061D01*
X119742000Y-72745939D01*
X119781774Y-72945898D01*
X119859795Y-73134256D01*
X119973063Y-73303774D01*
X120117226Y-73447937D01*
X120286744Y-73561205D01*
X120475102Y-73639226D01*
X120675061Y-73679000D01*
X120878939Y-73679000D01*
X121078898Y-73639226D01*
X121267256Y-73561205D01*
X121436774Y-73447937D01*
X121580937Y-73303774D01*
X121694205Y-73134256D01*
X121772226Y-72945898D01*
X121812000Y-72745939D01*
X121812000Y-72542061D01*
X121772226Y-72342102D01*
X121694205Y-72153744D01*
X121580937Y-71984226D01*
X121436774Y-71840063D01*
X121267256Y-71726795D01*
X121078898Y-71648774D01*
X120878939Y-71609000D01*
X120675061Y-71609000D01*
X120475102Y-71648774D01*
X120286744Y-71726795D01*
X120117226Y-71840063D01*
X119973063Y-71984226D01*
X119859795Y-72153744D01*
X119781774Y-72342102D01*
X119742000Y-72542061D01*
X110202168Y-72542061D01*
X110166632Y-72506525D01*
X109992240Y-72390000D01*
X110166632Y-72273475D01*
X110373475Y-72066632D01*
X110535990Y-71823411D01*
X110647932Y-71553158D01*
X110705000Y-71266260D01*
X110705000Y-70973740D01*
X110647932Y-70686842D01*
X110535990Y-70416589D01*
X110373475Y-70173368D01*
X110329168Y-70129061D01*
X120250000Y-70129061D01*
X120250000Y-70332939D01*
X120289774Y-70532898D01*
X120367795Y-70721256D01*
X120481063Y-70890774D01*
X120625226Y-71034937D01*
X120794744Y-71148205D01*
X120983102Y-71226226D01*
X121183061Y-71266000D01*
X121386939Y-71266000D01*
X121586898Y-71226226D01*
X121775256Y-71148205D01*
X121944774Y-71034937D01*
X122088937Y-70890774D01*
X122202205Y-70721256D01*
X122280226Y-70532898D01*
X122320000Y-70332939D01*
X122320000Y-70129061D01*
X122280226Y-69929102D01*
X122202205Y-69740744D01*
X122088937Y-69571226D01*
X121944774Y-69427063D01*
X121775256Y-69313795D01*
X121586898Y-69235774D01*
X121386939Y-69196000D01*
X121183061Y-69196000D01*
X120983102Y-69235774D01*
X120794744Y-69313795D01*
X120625226Y-69427063D01*
X120481063Y-69571226D01*
X120367795Y-69740744D01*
X120289774Y-69929102D01*
X120250000Y-70129061D01*
X110329168Y-70129061D01*
X110166632Y-69966525D01*
X109992240Y-69850000D01*
X110166632Y-69733475D01*
X110373475Y-69526632D01*
X110535990Y-69283411D01*
X110647932Y-69013158D01*
X110705000Y-68726260D01*
X110705000Y-68433740D01*
X110647932Y-68146842D01*
X110535990Y-67876589D01*
X110373475Y-67633368D01*
X110202168Y-67462061D01*
X121012000Y-67462061D01*
X121012000Y-67665939D01*
X121051774Y-67865898D01*
X121129795Y-68054256D01*
X121243063Y-68223774D01*
X121387226Y-68367937D01*
X121556744Y-68481205D01*
X121745102Y-68559226D01*
X121945061Y-68599000D01*
X122148939Y-68599000D01*
X122348898Y-68559226D01*
X122537256Y-68481205D01*
X122706774Y-68367937D01*
X122850937Y-68223774D01*
X122964205Y-68054256D01*
X123042226Y-67865898D01*
X123082000Y-67665939D01*
X123082000Y-67462061D01*
X123042226Y-67262102D01*
X122964205Y-67073744D01*
X122850937Y-66904226D01*
X122706774Y-66760063D01*
X122537256Y-66646795D01*
X122348898Y-66568774D01*
X122148939Y-66529000D01*
X121945061Y-66529000D01*
X121745102Y-66568774D01*
X121556744Y-66646795D01*
X121387226Y-66760063D01*
X121243063Y-66904226D01*
X121129795Y-67073744D01*
X121051774Y-67262102D01*
X121012000Y-67462061D01*
X110202168Y-67462061D01*
X110166632Y-67426525D01*
X109992240Y-67310000D01*
X110166632Y-67193475D01*
X110373475Y-66986632D01*
X110535990Y-66743411D01*
X110647932Y-66473158D01*
X110705000Y-66186260D01*
X110705000Y-65893740D01*
X110647932Y-65606842D01*
X110535990Y-65336589D01*
X110373475Y-65093368D01*
X110166632Y-64886525D01*
X110029747Y-64795061D01*
X122028000Y-64795061D01*
X122028000Y-64998939D01*
X122067774Y-65198898D01*
X122145795Y-65387256D01*
X122259063Y-65556774D01*
X122403226Y-65700937D01*
X122572744Y-65814205D01*
X122761102Y-65892226D01*
X122961061Y-65932000D01*
X123164939Y-65932000D01*
X123364898Y-65892226D01*
X123553256Y-65814205D01*
X123722774Y-65700937D01*
X123866937Y-65556774D01*
X123980205Y-65387256D01*
X124058226Y-65198898D01*
X124098000Y-64998939D01*
X124098000Y-64795061D01*
X124058226Y-64595102D01*
X123980205Y-64406744D01*
X123866937Y-64237226D01*
X123722774Y-64093063D01*
X123553256Y-63979795D01*
X123364898Y-63901774D01*
X123164939Y-63862000D01*
X122961061Y-63862000D01*
X122761102Y-63901774D01*
X122572744Y-63979795D01*
X122403226Y-64093063D01*
X122259063Y-64237226D01*
X122145795Y-64406744D01*
X122067774Y-64595102D01*
X122028000Y-64795061D01*
X110029747Y-64795061D01*
X109992240Y-64770000D01*
X110166632Y-64653475D01*
X110373475Y-64446632D01*
X110535990Y-64203411D01*
X110647932Y-63933158D01*
X110705000Y-63646260D01*
X110705000Y-63353740D01*
X110647932Y-63066842D01*
X110535990Y-62796589D01*
X110373475Y-62553368D01*
X110202168Y-62382061D01*
X121901000Y-62382061D01*
X121901000Y-62585939D01*
X121940774Y-62785898D01*
X122018795Y-62974256D01*
X122132063Y-63143774D01*
X122276226Y-63287937D01*
X122445744Y-63401205D01*
X122634102Y-63479226D01*
X122834061Y-63519000D01*
X123037939Y-63519000D01*
X123237898Y-63479226D01*
X123426256Y-63401205D01*
X123595774Y-63287937D01*
X123739937Y-63143774D01*
X123853205Y-62974256D01*
X123931226Y-62785898D01*
X123971000Y-62585939D01*
X123971000Y-62382061D01*
X123931226Y-62182102D01*
X123853205Y-61993744D01*
X123766655Y-61864212D01*
X137041000Y-61864212D01*
X137041000Y-62087788D01*
X137084617Y-62307067D01*
X137170176Y-62513624D01*
X137294388Y-62699520D01*
X137332868Y-62738000D01*
X137294388Y-62776480D01*
X137170176Y-62962376D01*
X137084617Y-63168933D01*
X137041000Y-63388212D01*
X137041000Y-63611788D01*
X137084617Y-63831067D01*
X137170176Y-64037624D01*
X137294388Y-64223520D01*
X137452480Y-64381612D01*
X137638376Y-64505824D01*
X137844933Y-64591383D01*
X138064212Y-64635000D01*
X138287788Y-64635000D01*
X138507067Y-64591383D01*
X138577239Y-64562317D01*
X138608617Y-64720067D01*
X138694176Y-64926624D01*
X138818388Y-65112520D01*
X138976480Y-65270612D01*
X139162376Y-65394824D01*
X139368933Y-65480383D01*
X139588212Y-65524000D01*
X139811788Y-65524000D01*
X140031067Y-65480383D01*
X140237624Y-65394824D01*
X140423520Y-65270612D01*
X140581612Y-65112520D01*
X140705824Y-64926624D01*
X140791383Y-64720067D01*
X140822761Y-64562317D01*
X140892933Y-64591383D01*
X141112212Y-64635000D01*
X141335788Y-64635000D01*
X141555067Y-64591383D01*
X141761624Y-64505824D01*
X141947520Y-64381612D01*
X142105612Y-64223520D01*
X142229824Y-64037624D01*
X142315383Y-63831067D01*
X142359000Y-63611788D01*
X142359000Y-63388212D01*
X142315383Y-63168933D01*
X142229824Y-62962376D01*
X142105612Y-62776480D01*
X142067132Y-62738000D01*
X142105612Y-62699520D01*
X142229824Y-62513624D01*
X142315383Y-62307067D01*
X142359000Y-62087788D01*
X142359000Y-61864212D01*
X142315383Y-61644933D01*
X142229824Y-61438376D01*
X142105612Y-61252480D01*
X141947520Y-61094388D01*
X141761624Y-60970176D01*
X141555067Y-60884617D01*
X141335788Y-60841000D01*
X141112212Y-60841000D01*
X140892933Y-60884617D01*
X140761949Y-60938873D01*
X140705824Y-60803376D01*
X140581612Y-60617480D01*
X140423520Y-60459388D01*
X140237624Y-60335176D01*
X140031067Y-60249617D01*
X139811788Y-60206000D01*
X139588212Y-60206000D01*
X139368933Y-60249617D01*
X139162376Y-60335176D01*
X138976480Y-60459388D01*
X138818388Y-60617480D01*
X138694176Y-60803376D01*
X138638051Y-60938873D01*
X138507067Y-60884617D01*
X138287788Y-60841000D01*
X138064212Y-60841000D01*
X137844933Y-60884617D01*
X137638376Y-60970176D01*
X137452480Y-61094388D01*
X137294388Y-61252480D01*
X137170176Y-61438376D01*
X137084617Y-61644933D01*
X137041000Y-61864212D01*
X123766655Y-61864212D01*
X123739937Y-61824226D01*
X123595774Y-61680063D01*
X123426256Y-61566795D01*
X123237898Y-61488774D01*
X123037939Y-61449000D01*
X122834061Y-61449000D01*
X122634102Y-61488774D01*
X122445744Y-61566795D01*
X122276226Y-61680063D01*
X122132063Y-61824226D01*
X122018795Y-61993744D01*
X121940774Y-62182102D01*
X121901000Y-62382061D01*
X110202168Y-62382061D01*
X110166632Y-62346525D01*
X109992240Y-62230000D01*
X110166632Y-62113475D01*
X110373475Y-61906632D01*
X110535990Y-61663411D01*
X110647932Y-61393158D01*
X110705000Y-61106260D01*
X110705000Y-60813740D01*
X110647932Y-60526842D01*
X110535990Y-60256589D01*
X110373475Y-60013368D01*
X110329168Y-59969061D01*
X121139000Y-59969061D01*
X121139000Y-60172939D01*
X121178774Y-60372898D01*
X121256795Y-60561256D01*
X121370063Y-60730774D01*
X121514226Y-60874937D01*
X121683744Y-60988205D01*
X121872102Y-61066226D01*
X122072061Y-61106000D01*
X122275939Y-61106000D01*
X122475898Y-61066226D01*
X122664256Y-60988205D01*
X122833774Y-60874937D01*
X122977937Y-60730774D01*
X123091205Y-60561256D01*
X123169226Y-60372898D01*
X123209000Y-60172939D01*
X123209000Y-59969061D01*
X123169226Y-59769102D01*
X123091205Y-59580744D01*
X122977937Y-59411226D01*
X122833774Y-59267063D01*
X122664256Y-59153795D01*
X122475898Y-59075774D01*
X122275939Y-59036000D01*
X122072061Y-59036000D01*
X121872102Y-59075774D01*
X121683744Y-59153795D01*
X121514226Y-59267063D01*
X121370063Y-59411226D01*
X121256795Y-59580744D01*
X121178774Y-59769102D01*
X121139000Y-59969061D01*
X110329168Y-59969061D01*
X110166632Y-59806525D01*
X109992240Y-59690000D01*
X110166632Y-59573475D01*
X110373475Y-59366632D01*
X110535990Y-59123411D01*
X110647932Y-58853158D01*
X110663102Y-58776890D01*
X145878524Y-58776890D01*
X145923175Y-58924099D01*
X146048359Y-59186920D01*
X146222412Y-59420269D01*
X146438645Y-59615178D01*
X146688748Y-59764157D01*
X146963109Y-59861481D01*
X147193000Y-59740814D01*
X147193000Y-58547000D01*
X147447000Y-58547000D01*
X147447000Y-59740814D01*
X147676891Y-59861481D01*
X147951252Y-59764157D01*
X148201355Y-59615178D01*
X148417588Y-59420269D01*
X148591641Y-59186920D01*
X148716825Y-58924099D01*
X148761476Y-58776890D01*
X148640155Y-58547000D01*
X147447000Y-58547000D01*
X147193000Y-58547000D01*
X145999845Y-58547000D01*
X145878524Y-58776890D01*
X110663102Y-58776890D01*
X110705000Y-58566260D01*
X110705000Y-58273740D01*
X110647932Y-57986842D01*
X110535990Y-57716589D01*
X110373475Y-57473368D01*
X110166632Y-57266525D01*
X109992240Y-57150000D01*
X110166632Y-57033475D01*
X110373475Y-56826632D01*
X110535990Y-56583411D01*
X110647932Y-56313158D01*
X110705000Y-56026260D01*
X110705000Y-55733740D01*
X110647932Y-55446842D01*
X110535990Y-55176589D01*
X110438043Y-55030000D01*
X145831928Y-55030000D01*
X145831928Y-56730000D01*
X145844188Y-56854482D01*
X145880498Y-56974180D01*
X145939463Y-57084494D01*
X146018815Y-57181185D01*
X146115506Y-57260537D01*
X146225820Y-57319502D01*
X146306466Y-57343966D01*
X146222412Y-57419731D01*
X146048359Y-57653080D01*
X145923175Y-57915901D01*
X145878524Y-58063110D01*
X145999845Y-58293000D01*
X147193000Y-58293000D01*
X147193000Y-58273000D01*
X147447000Y-58273000D01*
X147447000Y-58293000D01*
X148640155Y-58293000D01*
X148761476Y-58063110D01*
X148716825Y-57915901D01*
X148591641Y-57653080D01*
X148417588Y-57419731D01*
X148333534Y-57343966D01*
X148414180Y-57319502D01*
X148524494Y-57260537D01*
X148621185Y-57181185D01*
X148700537Y-57084494D01*
X148759502Y-56974180D01*
X148795812Y-56854482D01*
X148808072Y-56730000D01*
X148808072Y-55030000D01*
X148795812Y-54905518D01*
X148759502Y-54785820D01*
X148700537Y-54675506D01*
X148621185Y-54578815D01*
X148524494Y-54499463D01*
X148414180Y-54440498D01*
X148294482Y-54404188D01*
X148170000Y-54391928D01*
X146470000Y-54391928D01*
X146345518Y-54404188D01*
X146225820Y-54440498D01*
X146115506Y-54499463D01*
X146018815Y-54578815D01*
X145939463Y-54675506D01*
X145880498Y-54785820D01*
X145844188Y-54905518D01*
X145831928Y-55030000D01*
X110438043Y-55030000D01*
X110373475Y-54933368D01*
X110166632Y-54726525D01*
X109923411Y-54564010D01*
X109653158Y-54452068D01*
X109366260Y-54395000D01*
X109073740Y-54395000D01*
X108786842Y-54452068D01*
X108516589Y-54564010D01*
X108273368Y-54726525D01*
X108141513Y-54858380D01*
X108119502Y-54785820D01*
X108060537Y-54675506D01*
X107981185Y-54578815D01*
X107884494Y-54499463D01*
X107774180Y-54440498D01*
X107654482Y-54404188D01*
X107530000Y-54391928D01*
X105830000Y-54391928D01*
X105705518Y-54404188D01*
X105585820Y-54440498D01*
X105475506Y-54499463D01*
X105378815Y-54578815D01*
X105299463Y-54675506D01*
X105240498Y-54785820D01*
X105204188Y-54905518D01*
X105191928Y-55030000D01*
X102260000Y-55030000D01*
X102260000Y-53372279D01*
X102298909Y-52975455D01*
X102404780Y-52624792D01*
X102576744Y-52301375D01*
X102808254Y-52017516D01*
X103090486Y-51784035D01*
X103412695Y-51609817D01*
X103762614Y-51501498D01*
X104157443Y-51460000D01*
X149827721Y-51460000D01*
X150224545Y-51498909D01*
G37*
X150224545Y-51498909D02*
X150575208Y-51604780D01*
X150898625Y-51776744D01*
X151182484Y-52008254D01*
X151415965Y-52290486D01*
X151590183Y-52612695D01*
X151698502Y-52962614D01*
X151740001Y-53357452D01*
X151740000Y-132047721D01*
X151701091Y-132444545D01*
X151595220Y-132795206D01*
X151423257Y-133118623D01*
X151191748Y-133402482D01*
X150909514Y-133635965D01*
X150587304Y-133810184D01*
X150237385Y-133918502D01*
X149842557Y-133960000D01*
X104172279Y-133960000D01*
X103775455Y-133921091D01*
X103424794Y-133815220D01*
X103101377Y-133643257D01*
X102817518Y-133411748D01*
X102584035Y-133129514D01*
X102409816Y-132807304D01*
X102301498Y-132457385D01*
X102260000Y-132062557D01*
X102260000Y-110910000D01*
X105191928Y-110910000D01*
X105191928Y-112610000D01*
X105204188Y-112734482D01*
X105240498Y-112854180D01*
X105299463Y-112964494D01*
X105378815Y-113061185D01*
X105475506Y-113140537D01*
X105585820Y-113199502D01*
X105658380Y-113221513D01*
X105526525Y-113353368D01*
X105364010Y-113596589D01*
X105252068Y-113866842D01*
X105195000Y-114153740D01*
X105195000Y-114446260D01*
X105252068Y-114733158D01*
X105364010Y-115003411D01*
X105526525Y-115246632D01*
X105733368Y-115453475D01*
X105907760Y-115570000D01*
X105733368Y-115686525D01*
X105526525Y-115893368D01*
X105364010Y-116136589D01*
X105252068Y-116406842D01*
X105195000Y-116693740D01*
X105195000Y-116986260D01*
X105252068Y-117273158D01*
X105364010Y-117543411D01*
X105526525Y-117786632D01*
X105733368Y-117993475D01*
X105907760Y-118110000D01*
X105733368Y-118226525D01*
X105526525Y-118433368D01*
X105364010Y-118676589D01*
X105252068Y-118946842D01*
X105195000Y-119233740D01*
X105195000Y-119526260D01*
X105252068Y-119813158D01*
X105364010Y-120083411D01*
X105526525Y-120326632D01*
X105733368Y-120533475D01*
X105907760Y-120650000D01*
X105733368Y-120766525D01*
X105526525Y-120973368D01*
X105364010Y-121216589D01*
X105252068Y-121486842D01*
X105195000Y-121773740D01*
X105195000Y-122066260D01*
X105252068Y-122353158D01*
X105364010Y-122623411D01*
X105526525Y-122866632D01*
X105733368Y-123073475D01*
X105907760Y-123190000D01*
X105733368Y-123306525D01*
X105526525Y-123513368D01*
X105364010Y-123756589D01*
X105252068Y-124026842D01*
X105195000Y-124313740D01*
X105195000Y-124606260D01*
X105252068Y-124893158D01*
X105364010Y-125163411D01*
X105526525Y-125406632D01*
X105733368Y-125613475D01*
X105907760Y-125730000D01*
X105733368Y-125846525D01*
X105526525Y-126053368D01*
X105364010Y-126296589D01*
X105252068Y-126566842D01*
X105195000Y-126853740D01*
X105195000Y-127146260D01*
X105252068Y-127433158D01*
X105364010Y-127703411D01*
X105526525Y-127946632D01*
X105733368Y-128153475D01*
X105907760Y-128270000D01*
X105733368Y-128386525D01*
X105526525Y-128593368D01*
X105364010Y-128836589D01*
X105252068Y-129106842D01*
X105195000Y-129393740D01*
X105195000Y-129686260D01*
X105252068Y-129973158D01*
X105364010Y-130243411D01*
X105526525Y-130486632D01*
X105733368Y-130693475D01*
X105976589Y-130855990D01*
X106246842Y-130967932D01*
X106533740Y-131025000D01*
X106826260Y-131025000D01*
X107113158Y-130967932D01*
X107383411Y-130855990D01*
X107626632Y-130693475D01*
X107833475Y-130486632D01*
X107950000Y-130312240D01*
X108066525Y-130486632D01*
X108273368Y-130693475D01*
X108516589Y-130855990D01*
X108786842Y-130967932D01*
X109073740Y-131025000D01*
X109366260Y-131025000D01*
X109653158Y-130967932D01*
X109923411Y-130855990D01*
X110166632Y-130693475D01*
X110373475Y-130486632D01*
X110535990Y-130243411D01*
X110647932Y-129973158D01*
X110705000Y-129686260D01*
X110705000Y-129393740D01*
X110647932Y-129106842D01*
X110535990Y-128836589D01*
X110373475Y-128593368D01*
X110166632Y-128386525D01*
X109992240Y-128270000D01*
X110166632Y-128153475D01*
X110373475Y-127946632D01*
X110535990Y-127703411D01*
X110647932Y-127433158D01*
X110705000Y-127146260D01*
X110705000Y-126853740D01*
X110647932Y-126566842D01*
X110535990Y-126296589D01*
X110373475Y-126053368D01*
X110166632Y-125846525D01*
X109992240Y-125730000D01*
X110166632Y-125613475D01*
X110373475Y-125406632D01*
X110535990Y-125163411D01*
X110647932Y-124893158D01*
X110705000Y-124606260D01*
X110705000Y-124313740D01*
X145835000Y-124313740D01*
X145835000Y-124606260D01*
X145892068Y-124893158D01*
X146004010Y-125163411D01*
X146166525Y-125406632D01*
X146373368Y-125613475D01*
X146547760Y-125730000D01*
X146373368Y-125846525D01*
X146166525Y-126053368D01*
X146004010Y-126296589D01*
X145892068Y-126566842D01*
X145835000Y-126853740D01*
X145835000Y-127146260D01*
X145892068Y-127433158D01*
X146004010Y-127703411D01*
X146166525Y-127946632D01*
X146373368Y-128153475D01*
X146547760Y-128270000D01*
X146373368Y-128386525D01*
X146166525Y-128593368D01*
X146004010Y-128836589D01*
X145892068Y-129106842D01*
X145835000Y-129393740D01*
X145835000Y-129686260D01*
X145892068Y-129973158D01*
X146004010Y-130243411D01*
X146166525Y-130486632D01*
X146373368Y-130693475D01*
X146616589Y-130855990D01*
X146886842Y-130967932D01*
X147173740Y-131025000D01*
X147466260Y-131025000D01*
X147753158Y-130967932D01*
X148023411Y-130855990D01*
X148266632Y-130693475D01*
X148473475Y-130486632D01*
X148635990Y-130243411D01*
X148747932Y-129973158D01*
X148805000Y-129686260D01*
X148805000Y-129393740D01*
X148747932Y-129106842D01*
X148635990Y-128836589D01*
X148473475Y-128593368D01*
X148266632Y-128386525D01*
X148092240Y-128270000D01*
X148266632Y-128153475D01*
X148473475Y-127946632D01*
X148635990Y-127703411D01*
X148747932Y-127433158D01*
X148805000Y-127146260D01*
X148805000Y-126853740D01*
X148747932Y-126566842D01*
X148635990Y-126296589D01*
X148473475Y-126053368D01*
X148266632Y-125846525D01*
X148092240Y-125730000D01*
X148266632Y-125613475D01*
X148473475Y-125406632D01*
X148635990Y-125163411D01*
X148747932Y-124893158D01*
X148805000Y-124606260D01*
X148805000Y-124313740D01*
X148747932Y-124026842D01*
X148635990Y-123756589D01*
X148473475Y-123513368D01*
X148266632Y-123306525D01*
X148084466Y-123184805D01*
X148201355Y-123115178D01*
X148417588Y-122920269D01*
X148591641Y-122686920D01*
X148716825Y-122424099D01*
X148761476Y-122276890D01*
X148640155Y-122047000D01*
X147447000Y-122047000D01*
X147447000Y-122067000D01*
X147193000Y-122067000D01*
X147193000Y-122047000D01*
X145999845Y-122047000D01*
X145878524Y-122276890D01*
X145923175Y-122424099D01*
X146048359Y-122686920D01*
X146222412Y-122920269D01*
X146438645Y-123115178D01*
X146555534Y-123184805D01*
X146373368Y-123306525D01*
X146166525Y-123513368D01*
X146004010Y-123756589D01*
X145892068Y-124026842D01*
X145835000Y-124313740D01*
X110705000Y-124313740D01*
X110647932Y-124026842D01*
X110535990Y-123756589D01*
X110373475Y-123513368D01*
X110166632Y-123306525D01*
X109992240Y-123190000D01*
X110166632Y-123073475D01*
X110373475Y-122866632D01*
X110535990Y-122623411D01*
X110647932Y-122353158D01*
X110705000Y-122066260D01*
X110705000Y-121773740D01*
X110647932Y-121486842D01*
X110535990Y-121216589D01*
X110373475Y-120973368D01*
X110166632Y-120766525D01*
X109992240Y-120650000D01*
X110166632Y-120533475D01*
X110373475Y-120326632D01*
X110535990Y-120083411D01*
X110647932Y-119813158D01*
X110705000Y-119526260D01*
X110705000Y-119233740D01*
X110647932Y-118946842D01*
X110535990Y-118676589D01*
X110373475Y-118433368D01*
X110166632Y-118226525D01*
X109992240Y-118110000D01*
X110166632Y-117993475D01*
X110373475Y-117786632D01*
X110535990Y-117543411D01*
X110647932Y-117273158D01*
X110705000Y-116986260D01*
X110705000Y-116693740D01*
X110647932Y-116406842D01*
X110535990Y-116136589D01*
X110438043Y-115990000D01*
X145831928Y-115990000D01*
X145831928Y-117690000D01*
X145844188Y-117814482D01*
X145880498Y-117934180D01*
X145939463Y-118044494D01*
X146018815Y-118141185D01*
X146115506Y-118220537D01*
X146225820Y-118279502D01*
X146298380Y-118301513D01*
X146166525Y-118433368D01*
X146004010Y-118676589D01*
X145892068Y-118946842D01*
X145835000Y-119233740D01*
X145835000Y-119526260D01*
X145892068Y-119813158D01*
X146004010Y-120083411D01*
X146166525Y-120326632D01*
X146373368Y-120533475D01*
X146555534Y-120655195D01*
X146438645Y-120724822D01*
X146222412Y-120919731D01*
X146048359Y-121153080D01*
X145923175Y-121415901D01*
X145878524Y-121563110D01*
X145999845Y-121793000D01*
X147193000Y-121793000D01*
X147193000Y-121773000D01*
X147447000Y-121773000D01*
X147447000Y-121793000D01*
X148640155Y-121793000D01*
X148761476Y-121563110D01*
X148716825Y-121415901D01*
X148591641Y-121153080D01*
X148417588Y-120919731D01*
X148201355Y-120724822D01*
X148084466Y-120655195D01*
X148266632Y-120533475D01*
X148473475Y-120326632D01*
X148635990Y-120083411D01*
X148747932Y-119813158D01*
X148805000Y-119526260D01*
X148805000Y-119233740D01*
X148747932Y-118946842D01*
X148635990Y-118676589D01*
X148473475Y-118433368D01*
X148341620Y-118301513D01*
X148414180Y-118279502D01*
X148524494Y-118220537D01*
X148621185Y-118141185D01*
X148700537Y-118044494D01*
X148759502Y-117934180D01*
X148795812Y-117814482D01*
X148808072Y-117690000D01*
X148808072Y-115990000D01*
X148795812Y-115865518D01*
X148759502Y-115745820D01*
X148700537Y-115635506D01*
X148621185Y-115538815D01*
X148524494Y-115459463D01*
X148414180Y-115400498D01*
X148294482Y-115364188D01*
X148170000Y-115351928D01*
X146470000Y-115351928D01*
X146345518Y-115364188D01*
X146225820Y-115400498D01*
X146115506Y-115459463D01*
X146018815Y-115538815D01*
X145939463Y-115635506D01*
X145880498Y-115745820D01*
X145844188Y-115865518D01*
X145831928Y-115990000D01*
X110438043Y-115990000D01*
X110373475Y-115893368D01*
X110166632Y-115686525D01*
X109992240Y-115570000D01*
X110166632Y-115453475D01*
X110373475Y-115246632D01*
X110535990Y-115003411D01*
X110647932Y-114733158D01*
X110705000Y-114446260D01*
X110705000Y-114153740D01*
X110647932Y-113866842D01*
X110535990Y-113596589D01*
X110373475Y-113353368D01*
X110166632Y-113146525D01*
X109992240Y-113030000D01*
X110166632Y-112913475D01*
X110373475Y-112706632D01*
X110535990Y-112463411D01*
X110647932Y-112193158D01*
X110705000Y-111906260D01*
X110705000Y-111613740D01*
X110647932Y-111326842D01*
X110535990Y-111056589D01*
X110373475Y-110813368D01*
X110166632Y-110606525D01*
X109923411Y-110444010D01*
X109653158Y-110332068D01*
X109366260Y-110275000D01*
X109073740Y-110275000D01*
X108786842Y-110332068D01*
X108516589Y-110444010D01*
X108273368Y-110606525D01*
X108141513Y-110738380D01*
X108119502Y-110665820D01*
X108060537Y-110555506D01*
X107981185Y-110458815D01*
X107884494Y-110379463D01*
X107774180Y-110320498D01*
X107654482Y-110284188D01*
X107530000Y-110271928D01*
X105830000Y-110271928D01*
X105705518Y-110284188D01*
X105585820Y-110320498D01*
X105475506Y-110379463D01*
X105378815Y-110458815D01*
X105299463Y-110555506D01*
X105240498Y-110665820D01*
X105204188Y-110785518D01*
X105191928Y-110910000D01*
X102260000Y-110910000D01*
X102260000Y-107036890D01*
X145878524Y-107036890D01*
X145923175Y-107184099D01*
X146048359Y-107446920D01*
X146222412Y-107680269D01*
X146438645Y-107875178D01*
X146688748Y-108024157D01*
X146963109Y-108121481D01*
X147193000Y-108000814D01*
X147193000Y-106807000D01*
X147447000Y-106807000D01*
X147447000Y-108000814D01*
X147676891Y-108121481D01*
X147951252Y-108024157D01*
X148201355Y-107875178D01*
X148417588Y-107680269D01*
X148591641Y-107446920D01*
X148716825Y-107184099D01*
X148761476Y-107036890D01*
X148640155Y-106807000D01*
X147447000Y-106807000D01*
X147193000Y-106807000D01*
X145999845Y-106807000D01*
X145878524Y-107036890D01*
X102260000Y-107036890D01*
X102260000Y-105358861D01*
X103549821Y-105358861D01*
X103549821Y-105562739D01*
X103589595Y-105762698D01*
X103667616Y-105951056D01*
X103780884Y-106120574D01*
X103925047Y-106264737D01*
X104094565Y-106378005D01*
X104282923Y-106456026D01*
X104482882Y-106495800D01*
X104686760Y-106495800D01*
X104886719Y-106456026D01*
X105075077Y-106378005D01*
X105244595Y-106264737D01*
X105388758Y-106120574D01*
X105502026Y-105951056D01*
X105579964Y-105762899D01*
X105689061Y-105784600D01*
X105892939Y-105784600D01*
X106092898Y-105744826D01*
X106281256Y-105666805D01*
X106450774Y-105553537D01*
X106594937Y-105409374D01*
X106708205Y-105239856D01*
X106786226Y-105051498D01*
X106826000Y-104851539D01*
X106826000Y-104647661D01*
X106796011Y-104496890D01*
X145878524Y-104496890D01*
X145923175Y-104644099D01*
X146048359Y-104906920D01*
X146222412Y-105140269D01*
X146438645Y-105335178D01*
X146564255Y-105410000D01*
X146438645Y-105484822D01*
X146222412Y-105679731D01*
X146048359Y-105913080D01*
X145923175Y-106175901D01*
X145878524Y-106323110D01*
X145999845Y-106553000D01*
X147193000Y-106553000D01*
X147193000Y-104267000D01*
X147447000Y-104267000D01*
X147447000Y-106553000D01*
X148640155Y-106553000D01*
X148761476Y-106323110D01*
X148716825Y-106175901D01*
X148591641Y-105913080D01*
X148417588Y-105679731D01*
X148201355Y-105484822D01*
X148075745Y-105410000D01*
X148201355Y-105335178D01*
X148417588Y-105140269D01*
X148591641Y-104906920D01*
X148716825Y-104644099D01*
X148761476Y-104496890D01*
X148640155Y-104267000D01*
X147447000Y-104267000D01*
X147193000Y-104267000D01*
X145999845Y-104267000D01*
X145878524Y-104496890D01*
X106796011Y-104496890D01*
X106786226Y-104447702D01*
X106708205Y-104259344D01*
X106594937Y-104089826D01*
X106450774Y-103945663D01*
X106281256Y-103832395D01*
X106092898Y-103754374D01*
X105892939Y-103714600D01*
X105689061Y-103714600D01*
X105489102Y-103754374D01*
X105300744Y-103832395D01*
X105131226Y-103945663D01*
X104987063Y-104089826D01*
X104873795Y-104259344D01*
X104795857Y-104447501D01*
X104686760Y-104425800D01*
X104482882Y-104425800D01*
X104282923Y-104465574D01*
X104094565Y-104543595D01*
X103925047Y-104656863D01*
X103780884Y-104801026D01*
X103667616Y-104970544D01*
X103589595Y-105158902D01*
X103549821Y-105358861D01*
X102260000Y-105358861D01*
X102260000Y-82970000D01*
X105191928Y-82970000D01*
X105191928Y-84670000D01*
X105204188Y-84794482D01*
X105240498Y-84914180D01*
X105299463Y-85024494D01*
X105378815Y-85121185D01*
X105475506Y-85200537D01*
X105585820Y-85259502D01*
X105658380Y-85281513D01*
X105526525Y-85413368D01*
X105364010Y-85656589D01*
X105252068Y-85926842D01*
X105195000Y-86213740D01*
X105195000Y-86506260D01*
X105252068Y-86793158D01*
X105364010Y-87063411D01*
X105526525Y-87306632D01*
X105733368Y-87513475D01*
X105907760Y-87630000D01*
X105733368Y-87746525D01*
X105526525Y-87953368D01*
X105364010Y-88196589D01*
X105252068Y-88466842D01*
X105195000Y-88753740D01*
X105195000Y-89046260D01*
X105252068Y-89333158D01*
X105364010Y-89603411D01*
X105526525Y-89846632D01*
X105733368Y-90053475D01*
X105907760Y-90170000D01*
X105733368Y-90286525D01*
X105526525Y-90493368D01*
X105364010Y-90736589D01*
X105252068Y-91006842D01*
X105195000Y-91293740D01*
X105195000Y-91586260D01*
X105252068Y-91873158D01*
X105364010Y-92143411D01*
X105526525Y-92386632D01*
X105733368Y-92593475D01*
X105907760Y-92710000D01*
X105733368Y-92826525D01*
X105526525Y-93033368D01*
X105364010Y-93276589D01*
X105252068Y-93546842D01*
X105195000Y-93833740D01*
X105195000Y-94126260D01*
X105252068Y-94413158D01*
X105364010Y-94683411D01*
X105526525Y-94926632D01*
X105733368Y-95133475D01*
X105907760Y-95250000D01*
X105733368Y-95366525D01*
X105526525Y-95573368D01*
X105364010Y-95816589D01*
X105252068Y-96086842D01*
X105195000Y-96373740D01*
X105195000Y-96666260D01*
X105252068Y-96953158D01*
X105364010Y-97223411D01*
X105526525Y-97466632D01*
X105733368Y-97673475D01*
X105907760Y-97790000D01*
X105733368Y-97906525D01*
X105526525Y-98113368D01*
X105364010Y-98356589D01*
X105252068Y-98626842D01*
X105195000Y-98913740D01*
X105195000Y-99206260D01*
X105252068Y-99493158D01*
X105364010Y-99763411D01*
X105526525Y-100006632D01*
X105733368Y-100213475D01*
X105907760Y-100330000D01*
X105733368Y-100446525D01*
X105526525Y-100653368D01*
X105364010Y-100896589D01*
X105252068Y-101166842D01*
X105195000Y-101453740D01*
X105195000Y-101746260D01*
X105252068Y-102033158D01*
X105364010Y-102303411D01*
X105526525Y-102546632D01*
X105733368Y-102753475D01*
X105976589Y-102915990D01*
X106246842Y-103027932D01*
X106533740Y-103085000D01*
X106826260Y-103085000D01*
X107113158Y-103027932D01*
X107383411Y-102915990D01*
X107626632Y-102753475D01*
X107833475Y-102546632D01*
X107950000Y-102372240D01*
X108066525Y-102546632D01*
X108273368Y-102753475D01*
X108516589Y-102915990D01*
X108786842Y-103027932D01*
X109073740Y-103085000D01*
X109366260Y-103085000D01*
X109653158Y-103027932D01*
X109923411Y-102915990D01*
X110166632Y-102753475D01*
X110177446Y-102742661D01*
X124466400Y-102742661D01*
X124466400Y-102946539D01*
X124506174Y-103146498D01*
X124584195Y-103334856D01*
X124697463Y-103504374D01*
X124841626Y-103648537D01*
X125011144Y-103761805D01*
X125199502Y-103839826D01*
X125399461Y-103879600D01*
X125603339Y-103879600D01*
X125803298Y-103839826D01*
X125991656Y-103761805D01*
X126161174Y-103648537D01*
X126305337Y-103504374D01*
X126418605Y-103334856D01*
X126464663Y-103223663D01*
X126575856Y-103177605D01*
X126745374Y-103064337D01*
X126889537Y-102920174D01*
X127002805Y-102750656D01*
X127080826Y-102562298D01*
X127120600Y-102362339D01*
X127120600Y-102158461D01*
X127080826Y-101958502D01*
X127002805Y-101770144D01*
X126889537Y-101600626D01*
X126745374Y-101456463D01*
X126575856Y-101343195D01*
X126387498Y-101265174D01*
X126187539Y-101225400D01*
X125983661Y-101225400D01*
X125783702Y-101265174D01*
X125595344Y-101343195D01*
X125425826Y-101456463D01*
X125281663Y-101600626D01*
X125168395Y-101770144D01*
X125122337Y-101881337D01*
X125011144Y-101927395D01*
X124841626Y-102040663D01*
X124697463Y-102184826D01*
X124584195Y-102354344D01*
X124506174Y-102542702D01*
X124466400Y-102742661D01*
X110177446Y-102742661D01*
X110373475Y-102546632D01*
X110535990Y-102303411D01*
X110647932Y-102033158D01*
X110705000Y-101746260D01*
X110705000Y-101453740D01*
X110647932Y-101166842D01*
X110535990Y-100896589D01*
X110373475Y-100653368D01*
X110166632Y-100446525D01*
X109992240Y-100330000D01*
X110166632Y-100213475D01*
X110373475Y-100006632D01*
X110535990Y-99763411D01*
X110647932Y-99493158D01*
X110705000Y-99206260D01*
X110705000Y-98913740D01*
X110647932Y-98626842D01*
X110535990Y-98356589D01*
X110373475Y-98113368D01*
X110166632Y-97906525D01*
X109992240Y-97790000D01*
X110166632Y-97673475D01*
X110373475Y-97466632D01*
X110535990Y-97223411D01*
X110647932Y-96953158D01*
X110705000Y-96666260D01*
X110705000Y-96541220D01*
X119458759Y-96541220D01*
X119458759Y-96745098D01*
X119498533Y-96945057D01*
X119576554Y-97133415D01*
X119689822Y-97302933D01*
X119833985Y-97447096D01*
X120003503Y-97560364D01*
X120191861Y-97638385D01*
X120391820Y-97678159D01*
X120595698Y-97678159D01*
X120795657Y-97638385D01*
X120984015Y-97560364D01*
X121153533Y-97447096D01*
X121189368Y-97411261D01*
X121202694Y-97424587D01*
X121372212Y-97537855D01*
X121560570Y-97615876D01*
X121760529Y-97655650D01*
X121964407Y-97655650D01*
X122164366Y-97615876D01*
X122203111Y-97599827D01*
X122284463Y-97721580D01*
X122428626Y-97865743D01*
X122598144Y-97979011D01*
X122786502Y-98057032D01*
X122986461Y-98096806D01*
X123190339Y-98096806D01*
X123390298Y-98057032D01*
X123578656Y-97979011D01*
X123748174Y-97865743D01*
X123892337Y-97721580D01*
X124005605Y-97552062D01*
X124075525Y-97383261D01*
X128505000Y-97383261D01*
X128505000Y-97587139D01*
X128544774Y-97787098D01*
X128622795Y-97975456D01*
X128736063Y-98144974D01*
X128880226Y-98289137D01*
X129049744Y-98402405D01*
X129238102Y-98480426D01*
X129438061Y-98520200D01*
X129641939Y-98520200D01*
X129841898Y-98480426D01*
X130030256Y-98402405D01*
X130199774Y-98289137D01*
X130312106Y-98176805D01*
X130431902Y-98226426D01*
X130631861Y-98266200D01*
X130835739Y-98266200D01*
X131035698Y-98226426D01*
X131224056Y-98148405D01*
X131393574Y-98035137D01*
X131515553Y-97913159D01*
X132785405Y-99183011D01*
X131359183Y-100490381D01*
X131342568Y-100508922D01*
X131329889Y-100530348D01*
X131321634Y-100553836D01*
X131318000Y-100584000D01*
X131318000Y-100923251D01*
X131300256Y-100911395D01*
X131111898Y-100833374D01*
X130911939Y-100793600D01*
X130708061Y-100793600D01*
X130508102Y-100833374D01*
X130319744Y-100911395D01*
X130150226Y-101024663D01*
X130006063Y-101168826D01*
X129892795Y-101338344D01*
X129814774Y-101526702D01*
X129775000Y-101726661D01*
X129775000Y-101930539D01*
X129814774Y-102130498D01*
X129861142Y-102242440D01*
X129789374Y-102415702D01*
X129749600Y-102615661D01*
X129749600Y-102819539D01*
X129789374Y-103019498D01*
X129867395Y-103207856D01*
X129980663Y-103377374D01*
X130124826Y-103521537D01*
X130294344Y-103634805D01*
X130482702Y-103712826D01*
X130682661Y-103752600D01*
X130886539Y-103752600D01*
X131086498Y-103712826D01*
X131274856Y-103634805D01*
X131318000Y-103605977D01*
X131318000Y-104140000D01*
X131320440Y-104164776D01*
X131327667Y-104188601D01*
X131339403Y-104210557D01*
X131355197Y-104229803D01*
X131374443Y-104245597D01*
X131396399Y-104257333D01*
X131420224Y-104264560D01*
X131445000Y-104267000D01*
X139065000Y-104267000D01*
X139089776Y-104264560D01*
X139113601Y-104257333D01*
X139135557Y-104245597D01*
X139154803Y-104229803D01*
X139170597Y-104210557D01*
X139182333Y-104188601D01*
X139189560Y-104164776D01*
X139192000Y-104140000D01*
X139192000Y-101956890D01*
X145878524Y-101956890D01*
X145923175Y-102104099D01*
X146048359Y-102366920D01*
X146222412Y-102600269D01*
X146438645Y-102795178D01*
X146564255Y-102870000D01*
X146438645Y-102944822D01*
X146222412Y-103139731D01*
X146048359Y-103373080D01*
X145923175Y-103635901D01*
X145878524Y-103783110D01*
X145999845Y-104013000D01*
X147193000Y-104013000D01*
X147193000Y-101727000D01*
X147447000Y-101727000D01*
X147447000Y-104013000D01*
X148640155Y-104013000D01*
X148761476Y-103783110D01*
X148716825Y-103635901D01*
X148591641Y-103373080D01*
X148417588Y-103139731D01*
X148201355Y-102944822D01*
X148075745Y-102870000D01*
X148201355Y-102795178D01*
X148417588Y-102600269D01*
X148591641Y-102366920D01*
X148716825Y-102104099D01*
X148761476Y-101956890D01*
X148640155Y-101727000D01*
X147447000Y-101727000D01*
X147193000Y-101727000D01*
X145999845Y-101727000D01*
X145878524Y-101956890D01*
X139192000Y-101956890D01*
X139192000Y-100711000D01*
X139189560Y-100686224D01*
X139182333Y-100662399D01*
X139170597Y-100640443D01*
X139154803Y-100621197D01*
X137950496Y-99416890D01*
X145878524Y-99416890D01*
X145923175Y-99564099D01*
X146048359Y-99826920D01*
X146222412Y-100060269D01*
X146438645Y-100255178D01*
X146564255Y-100330000D01*
X146438645Y-100404822D01*
X146222412Y-100599731D01*
X146048359Y-100833080D01*
X145923175Y-101095901D01*
X145878524Y-101243110D01*
X145999845Y-101473000D01*
X147193000Y-101473000D01*
X147193000Y-99187000D01*
X147447000Y-99187000D01*
X147447000Y-101473000D01*
X148640155Y-101473000D01*
X148761476Y-101243110D01*
X148716825Y-101095901D01*
X148591641Y-100833080D01*
X148417588Y-100599731D01*
X148201355Y-100404822D01*
X148075745Y-100330000D01*
X148201355Y-100255178D01*
X148417588Y-100060269D01*
X148591641Y-99826920D01*
X148716825Y-99564099D01*
X148761476Y-99416890D01*
X148640155Y-99187000D01*
X147447000Y-99187000D01*
X147193000Y-99187000D01*
X145999845Y-99187000D01*
X145878524Y-99416890D01*
X137950496Y-99416890D01*
X137249803Y-98716197D01*
X137230557Y-98700403D01*
X137208601Y-98688667D01*
X137184776Y-98681440D01*
X137160000Y-98679000D01*
X134672606Y-98679000D01*
X133363606Y-97370000D01*
X145831928Y-97370000D01*
X145844188Y-97494482D01*
X145880498Y-97614180D01*
X145939463Y-97724494D01*
X146018815Y-97821185D01*
X146115506Y-97900537D01*
X146225820Y-97959502D01*
X146306466Y-97983966D01*
X146222412Y-98059731D01*
X146048359Y-98293080D01*
X145923175Y-98555901D01*
X145878524Y-98703110D01*
X145999845Y-98933000D01*
X147193000Y-98933000D01*
X147193000Y-96647000D01*
X147447000Y-96647000D01*
X147447000Y-98933000D01*
X148640155Y-98933000D01*
X148761476Y-98703110D01*
X148716825Y-98555901D01*
X148591641Y-98293080D01*
X148417588Y-98059731D01*
X148333534Y-97983966D01*
X148414180Y-97959502D01*
X148524494Y-97900537D01*
X148621185Y-97821185D01*
X148700537Y-97724494D01*
X148759502Y-97614180D01*
X148795812Y-97494482D01*
X148808072Y-97370000D01*
X148805000Y-96805750D01*
X148646250Y-96647000D01*
X147447000Y-96647000D01*
X147193000Y-96647000D01*
X145993750Y-96647000D01*
X145835000Y-96805750D01*
X145831928Y-97370000D01*
X133363606Y-97370000D01*
X132657800Y-96664194D01*
X132657800Y-96646661D01*
X132618026Y-96446702D01*
X132540005Y-96258344D01*
X132426737Y-96088826D01*
X132282574Y-95944663D01*
X132173170Y-95871562D01*
X132223537Y-95821195D01*
X132223540Y-95821191D01*
X132384461Y-95853200D01*
X132588339Y-95853200D01*
X132788298Y-95813426D01*
X132976656Y-95735405D01*
X133146174Y-95622137D01*
X133290337Y-95477974D01*
X133403605Y-95308456D01*
X133472062Y-95143188D01*
X133550298Y-95127626D01*
X133738656Y-95049605D01*
X133908174Y-94936337D01*
X134052337Y-94792174D01*
X134165605Y-94622656D01*
X134232543Y-94461054D01*
X134394145Y-94394116D01*
X134563663Y-94280848D01*
X134707826Y-94136685D01*
X134821094Y-93967167D01*
X134847482Y-93903461D01*
X139046000Y-93903461D01*
X139046000Y-94107339D01*
X139085774Y-94307298D01*
X139163795Y-94495656D01*
X139277063Y-94665174D01*
X139421226Y-94809337D01*
X139507983Y-94867306D01*
X139480263Y-94895026D01*
X139366995Y-95064544D01*
X139288974Y-95252902D01*
X139249200Y-95452861D01*
X139249200Y-95656739D01*
X139288974Y-95856698D01*
X139366995Y-96045056D01*
X139480263Y-96214574D01*
X139624426Y-96358737D01*
X139793944Y-96472005D01*
X139982302Y-96550026D01*
X140182261Y-96589800D01*
X140386139Y-96589800D01*
X140586098Y-96550026D01*
X140774456Y-96472005D01*
X140943974Y-96358737D01*
X141088137Y-96214574D01*
X141201405Y-96045056D01*
X141279426Y-95856698D01*
X141316562Y-95670000D01*
X145831928Y-95670000D01*
X145835000Y-96234250D01*
X145993750Y-96393000D01*
X147193000Y-96393000D01*
X147193000Y-95193750D01*
X147447000Y-95193750D01*
X147447000Y-96393000D01*
X148646250Y-96393000D01*
X148805000Y-96234250D01*
X148808072Y-95670000D01*
X148795812Y-95545518D01*
X148759502Y-95425820D01*
X148700537Y-95315506D01*
X148621185Y-95218815D01*
X148524494Y-95139463D01*
X148414180Y-95080498D01*
X148294482Y-95044188D01*
X148170000Y-95031928D01*
X147605750Y-95035000D01*
X147447000Y-95193750D01*
X147193000Y-95193750D01*
X147034250Y-95035000D01*
X146470000Y-95031928D01*
X146345518Y-95044188D01*
X146225820Y-95080498D01*
X146115506Y-95139463D01*
X146018815Y-95218815D01*
X145939463Y-95315506D01*
X145880498Y-95425820D01*
X145844188Y-95545518D01*
X145831928Y-95670000D01*
X141316562Y-95670000D01*
X141319200Y-95656739D01*
X141319200Y-95452861D01*
X141279426Y-95252902D01*
X141201405Y-95064544D01*
X141088137Y-94895026D01*
X140943974Y-94750863D01*
X140857217Y-94692894D01*
X140884937Y-94665174D01*
X140998205Y-94495656D01*
X141076226Y-94307298D01*
X141116000Y-94107339D01*
X141116000Y-93903461D01*
X141076226Y-93703502D01*
X140998205Y-93515144D01*
X140884937Y-93345626D01*
X140740774Y-93201463D01*
X140571256Y-93088195D01*
X140382898Y-93010174D01*
X140182939Y-92970400D01*
X139979061Y-92970400D01*
X139779102Y-93010174D01*
X139590744Y-93088195D01*
X139421226Y-93201463D01*
X139277063Y-93345626D01*
X139163795Y-93515144D01*
X139085774Y-93703502D01*
X139046000Y-93903461D01*
X134847482Y-93903461D01*
X134899115Y-93778809D01*
X134938889Y-93578850D01*
X134938889Y-93374972D01*
X134899115Y-93175013D01*
X134821094Y-92986655D01*
X134707826Y-92817137D01*
X134563663Y-92672974D01*
X134394145Y-92559706D01*
X134205787Y-92481685D01*
X134005828Y-92441911D01*
X133801950Y-92441911D01*
X133601991Y-92481685D01*
X133413633Y-92559706D01*
X133244115Y-92672974D01*
X133099952Y-92817137D01*
X132986684Y-92986655D01*
X132919746Y-93148257D01*
X132758144Y-93215195D01*
X132588626Y-93328463D01*
X132444463Y-93472626D01*
X132331195Y-93642144D01*
X132262738Y-93807412D01*
X132184502Y-93822974D01*
X131996144Y-93900995D01*
X131826626Y-94014263D01*
X131682463Y-94158426D01*
X131682460Y-94158430D01*
X131521539Y-94126421D01*
X131317661Y-94126421D01*
X131117702Y-94166195D01*
X130929344Y-94244216D01*
X130759826Y-94357484D01*
X130615663Y-94501647D01*
X130502395Y-94671165D01*
X130449361Y-94799199D01*
X130377861Y-94799199D01*
X130177902Y-94838973D01*
X129989544Y-94916994D01*
X129820026Y-95030262D01*
X129675863Y-95174425D01*
X129562595Y-95343943D01*
X129484574Y-95532301D01*
X129444800Y-95732260D01*
X129444800Y-95936138D01*
X129484574Y-96136097D01*
X129562595Y-96324455D01*
X129647332Y-96451273D01*
X129641939Y-96450200D01*
X129438061Y-96450200D01*
X129238102Y-96489974D01*
X129049744Y-96567995D01*
X128880226Y-96681263D01*
X128736063Y-96825426D01*
X128622795Y-96994944D01*
X128544774Y-97183302D01*
X128505000Y-97383261D01*
X124075525Y-97383261D01*
X124083626Y-97363704D01*
X124123400Y-97163745D01*
X124123400Y-96959867D01*
X124083626Y-96759908D01*
X124005605Y-96571550D01*
X123892337Y-96402032D01*
X123748174Y-96257869D01*
X123578656Y-96144601D01*
X123390298Y-96066580D01*
X123190339Y-96026806D01*
X122986461Y-96026806D01*
X122786502Y-96066580D01*
X122747757Y-96082629D01*
X122666405Y-95960876D01*
X122522242Y-95816713D01*
X122352724Y-95703445D01*
X122164366Y-95625424D01*
X121964407Y-95585650D01*
X121760529Y-95585650D01*
X121560570Y-95625424D01*
X121372212Y-95703445D01*
X121202694Y-95816713D01*
X121166859Y-95852548D01*
X121153533Y-95839222D01*
X120984015Y-95725954D01*
X120795657Y-95647933D01*
X120595698Y-95608159D01*
X120391820Y-95608159D01*
X120191861Y-95647933D01*
X120003503Y-95725954D01*
X119833985Y-95839222D01*
X119689822Y-95983385D01*
X119576554Y-96152903D01*
X119498533Y-96341261D01*
X119458759Y-96541220D01*
X110705000Y-96541220D01*
X110705000Y-96373740D01*
X110647932Y-96086842D01*
X110535990Y-95816589D01*
X110373475Y-95573368D01*
X110166632Y-95366525D01*
X109992240Y-95250000D01*
X110011573Y-95237082D01*
X110907058Y-95237082D01*
X110907058Y-95440960D01*
X110946832Y-95640919D01*
X111024853Y-95829277D01*
X111138121Y-95998795D01*
X111282284Y-96142958D01*
X111451802Y-96256226D01*
X111640160Y-96334247D01*
X111840119Y-96374021D01*
X112043997Y-96374021D01*
X112243956Y-96334247D01*
X112432314Y-96256226D01*
X112601832Y-96142958D01*
X112657051Y-96087739D01*
X112835772Y-96123289D01*
X113039650Y-96123289D01*
X113239609Y-96083515D01*
X113427967Y-96005494D01*
X113597485Y-95892226D01*
X113741648Y-95748063D01*
X113854916Y-95578545D01*
X113932937Y-95390187D01*
X113972711Y-95190228D01*
X113972711Y-94986350D01*
X113932937Y-94786391D01*
X113854916Y-94598033D01*
X113741648Y-94428515D01*
X113597485Y-94284352D01*
X113427967Y-94171084D01*
X113239609Y-94093063D01*
X113039650Y-94053289D01*
X112835772Y-94053289D01*
X112635813Y-94093063D01*
X112447455Y-94171084D01*
X112277937Y-94284352D01*
X112222718Y-94339571D01*
X112043997Y-94304021D01*
X111840119Y-94304021D01*
X111640160Y-94343795D01*
X111451802Y-94421816D01*
X111282284Y-94535084D01*
X111138121Y-94679247D01*
X111024853Y-94848765D01*
X110946832Y-95037123D01*
X110907058Y-95237082D01*
X110011573Y-95237082D01*
X110166632Y-95133475D01*
X110373475Y-94926632D01*
X110535990Y-94683411D01*
X110647932Y-94413158D01*
X110705000Y-94126260D01*
X110705000Y-93833740D01*
X110647932Y-93546842D01*
X110535990Y-93276589D01*
X110373475Y-93033368D01*
X110166632Y-92826525D01*
X109992240Y-92710000D01*
X110166632Y-92593475D01*
X110288898Y-92471209D01*
X125775590Y-92471209D01*
X125775590Y-92675087D01*
X125815364Y-92875046D01*
X125893385Y-93063404D01*
X126006653Y-93232922D01*
X126150816Y-93377085D01*
X126320334Y-93490353D01*
X126508692Y-93568374D01*
X126708651Y-93608148D01*
X126912529Y-93608148D01*
X127112488Y-93568374D01*
X127300846Y-93490353D01*
X127470364Y-93377085D01*
X127614527Y-93232922D01*
X127727795Y-93063404D01*
X127805816Y-92875046D01*
X127845590Y-92675087D01*
X127845590Y-92471209D01*
X127807199Y-92278201D01*
X127819540Y-92278201D01*
X128019499Y-92238427D01*
X128207857Y-92160406D01*
X128377375Y-92047138D01*
X128521538Y-91902975D01*
X128634806Y-91733457D01*
X128712827Y-91545099D01*
X128717711Y-91520548D01*
X128739873Y-91542710D01*
X128909391Y-91655978D01*
X129097749Y-91733999D01*
X129297708Y-91773773D01*
X129501586Y-91773773D01*
X129701545Y-91733999D01*
X129889903Y-91655978D01*
X130059421Y-91542710D01*
X130203584Y-91398547D01*
X130316852Y-91229029D01*
X130394873Y-91040671D01*
X130434647Y-90840712D01*
X130434647Y-90636834D01*
X130394873Y-90436875D01*
X130316852Y-90248517D01*
X130298509Y-90221064D01*
X130342382Y-90115146D01*
X130382156Y-89915187D01*
X130382156Y-89711309D01*
X130378050Y-89690667D01*
X130485048Y-89797665D01*
X130654566Y-89910933D01*
X130842924Y-89988954D01*
X131042883Y-90028728D01*
X131246761Y-90028728D01*
X131249043Y-90028274D01*
X131258160Y-90074109D01*
X131264333Y-90089011D01*
X131259544Y-90090995D01*
X131090026Y-90204263D01*
X130945863Y-90348426D01*
X130832595Y-90517944D01*
X130754574Y-90706302D01*
X130714800Y-90906261D01*
X130714800Y-91110139D01*
X130754574Y-91310098D01*
X130832595Y-91498456D01*
X130945863Y-91667974D01*
X131090026Y-91812137D01*
X131259544Y-91925405D01*
X131447902Y-92003426D01*
X131647861Y-92043200D01*
X131851739Y-92043200D01*
X132051698Y-92003426D01*
X132240056Y-91925405D01*
X132409574Y-91812137D01*
X132553737Y-91667974D01*
X132667005Y-91498456D01*
X132745026Y-91310098D01*
X132784800Y-91110139D01*
X132784800Y-90906261D01*
X132745026Y-90706302D01*
X132738853Y-90691400D01*
X132743642Y-90689416D01*
X132913160Y-90576148D01*
X133057323Y-90431985D01*
X133170591Y-90262467D01*
X133248612Y-90074109D01*
X133288386Y-89874150D01*
X133288386Y-89670272D01*
X133248612Y-89470313D01*
X133170591Y-89281955D01*
X133057323Y-89112437D01*
X132913160Y-88968274D01*
X132743642Y-88855006D01*
X132555284Y-88776985D01*
X132355325Y-88737211D01*
X132151447Y-88737211D01*
X132149165Y-88737665D01*
X132140048Y-88691830D01*
X132062027Y-88503472D01*
X131948759Y-88333954D01*
X131804596Y-88189791D01*
X131635078Y-88076523D01*
X131446720Y-87998502D01*
X131246761Y-87958728D01*
X131042883Y-87958728D01*
X130842924Y-87998502D01*
X130654566Y-88076523D01*
X130485048Y-88189791D01*
X130344982Y-88329857D01*
X130342180Y-88323091D01*
X130306059Y-88269033D01*
X130374436Y-88103958D01*
X130414210Y-87903999D01*
X130414210Y-87700121D01*
X130374436Y-87500162D01*
X130296415Y-87311804D01*
X130183147Y-87142286D01*
X130038984Y-86998123D01*
X129869466Y-86884855D01*
X129681108Y-86806834D01*
X129481149Y-86767060D01*
X129277271Y-86767060D01*
X129077312Y-86806834D01*
X128888954Y-86884855D01*
X128719436Y-86998123D01*
X128575273Y-87142286D01*
X128462005Y-87311804D01*
X128383984Y-87500162D01*
X128344210Y-87700121D01*
X128344210Y-87903999D01*
X128383984Y-88103958D01*
X128462005Y-88292316D01*
X128498126Y-88346374D01*
X128429749Y-88511449D01*
X128389975Y-88711408D01*
X128389975Y-88915286D01*
X128429749Y-89115245D01*
X128482948Y-89243677D01*
X128429951Y-89322992D01*
X128351930Y-89511350D01*
X128312156Y-89711309D01*
X128312156Y-89915187D01*
X128351930Y-90115146D01*
X128429951Y-90303504D01*
X128448294Y-90330957D01*
X128404421Y-90436875D01*
X128399537Y-90461426D01*
X128377375Y-90439264D01*
X128207857Y-90325996D01*
X128019499Y-90247975D01*
X127819540Y-90208201D01*
X127615662Y-90208201D01*
X127415703Y-90247975D01*
X127227345Y-90325996D01*
X127057827Y-90439264D01*
X126913664Y-90583427D01*
X126800396Y-90752945D01*
X126722375Y-90941303D01*
X126682601Y-91141262D01*
X126682601Y-91345140D01*
X126720992Y-91538148D01*
X126708651Y-91538148D01*
X126508692Y-91577922D01*
X126320334Y-91655943D01*
X126150816Y-91769211D01*
X126006653Y-91913374D01*
X125893385Y-92082892D01*
X125815364Y-92271250D01*
X125775590Y-92471209D01*
X110288898Y-92471209D01*
X110373475Y-92386632D01*
X110535990Y-92143411D01*
X110647932Y-91873158D01*
X110705000Y-91586260D01*
X110705000Y-91293740D01*
X110647932Y-91006842D01*
X110535990Y-90736589D01*
X110373475Y-90493368D01*
X110166632Y-90286525D01*
X109992240Y-90170000D01*
X110166632Y-90053475D01*
X110373475Y-89846632D01*
X110535990Y-89603411D01*
X110647932Y-89333158D01*
X110679779Y-89173049D01*
X118586464Y-89173049D01*
X118586464Y-89376927D01*
X118626238Y-89576886D01*
X118704259Y-89765244D01*
X118817527Y-89934762D01*
X118961690Y-90078925D01*
X119131208Y-90192193D01*
X119319566Y-90270214D01*
X119353774Y-90277018D01*
X119362735Y-90322067D01*
X119440756Y-90510425D01*
X119554024Y-90679943D01*
X119698187Y-90824106D01*
X119867705Y-90937374D01*
X120056063Y-91015395D01*
X120256022Y-91055169D01*
X120459900Y-91055169D01*
X120659859Y-91015395D01*
X120848217Y-90937374D01*
X121017735Y-90824106D01*
X121161898Y-90679943D01*
X121275166Y-90510425D01*
X121353187Y-90322067D01*
X121392961Y-90122108D01*
X121392961Y-89918230D01*
X121353187Y-89718271D01*
X121275166Y-89529913D01*
X121161898Y-89360395D01*
X121017735Y-89216232D01*
X120848217Y-89102964D01*
X120659859Y-89024943D01*
X120625651Y-89018139D01*
X120616690Y-88973090D01*
X120538669Y-88784732D01*
X120425401Y-88615214D01*
X120281238Y-88471051D01*
X120111720Y-88357783D01*
X119923362Y-88279762D01*
X119723403Y-88239988D01*
X119519525Y-88239988D01*
X119319566Y-88279762D01*
X119131208Y-88357783D01*
X118961690Y-88471051D01*
X118817527Y-88615214D01*
X118704259Y-88784732D01*
X118626238Y-88973090D01*
X118586464Y-89173049D01*
X110679779Y-89173049D01*
X110705000Y-89046260D01*
X110705000Y-88753740D01*
X110647932Y-88466842D01*
X110535990Y-88196589D01*
X110373475Y-87953368D01*
X110166632Y-87746525D01*
X109992240Y-87630000D01*
X110166632Y-87513475D01*
X110373475Y-87306632D01*
X110535990Y-87063411D01*
X110647932Y-86793158D01*
X110660483Y-86730057D01*
X133326999Y-86730057D01*
X133326999Y-86933935D01*
X133366773Y-87133894D01*
X133444794Y-87322252D01*
X133558062Y-87491770D01*
X133655848Y-87589556D01*
X133654296Y-87597357D01*
X133654296Y-87801235D01*
X133694070Y-88001194D01*
X133772091Y-88189552D01*
X133885359Y-88359070D01*
X134029522Y-88503233D01*
X134199040Y-88616501D01*
X134387398Y-88694522D01*
X134587357Y-88734296D01*
X134791235Y-88734296D01*
X134991194Y-88694522D01*
X135179552Y-88616501D01*
X135349070Y-88503233D01*
X135493233Y-88359070D01*
X135606501Y-88189552D01*
X135649037Y-88086861D01*
X136963200Y-88086861D01*
X136963200Y-88290739D01*
X137002974Y-88490698D01*
X137080995Y-88679056D01*
X137194263Y-88848574D01*
X137338426Y-88992737D01*
X137507944Y-89106005D01*
X137696302Y-89184026D01*
X137896261Y-89223800D01*
X138100139Y-89223800D01*
X138300098Y-89184026D01*
X138488456Y-89106005D01*
X138657974Y-88992737D01*
X138802137Y-88848574D01*
X138915405Y-88679056D01*
X138947121Y-88602487D01*
X138960498Y-88599826D01*
X139148856Y-88521805D01*
X139318374Y-88408537D01*
X139462537Y-88264374D01*
X139575805Y-88094856D01*
X139653826Y-87906498D01*
X139693600Y-87706539D01*
X139693600Y-87502661D01*
X139653826Y-87302702D01*
X139575805Y-87114344D01*
X139462537Y-86944826D01*
X139318374Y-86800663D01*
X139148856Y-86687395D01*
X138960498Y-86609374D01*
X138760539Y-86569600D01*
X138556661Y-86569600D01*
X138356702Y-86609374D01*
X138168344Y-86687395D01*
X137998826Y-86800663D01*
X137854663Y-86944826D01*
X137741395Y-87114344D01*
X137709679Y-87190913D01*
X137696302Y-87193574D01*
X137507944Y-87271595D01*
X137338426Y-87384863D01*
X137194263Y-87529026D01*
X137080995Y-87698544D01*
X137002974Y-87886902D01*
X136963200Y-88086861D01*
X135649037Y-88086861D01*
X135684522Y-88001194D01*
X135724296Y-87801235D01*
X135724296Y-87597357D01*
X135684522Y-87397398D01*
X135606501Y-87209040D01*
X135493233Y-87039522D01*
X135395447Y-86941736D01*
X135396999Y-86933935D01*
X135396999Y-86730057D01*
X135357225Y-86530098D01*
X135279204Y-86341740D01*
X135165936Y-86172222D01*
X135021773Y-86028059D01*
X134852255Y-85914791D01*
X134663897Y-85836770D01*
X134463938Y-85796996D01*
X134260060Y-85796996D01*
X134060101Y-85836770D01*
X133871743Y-85914791D01*
X133702225Y-86028059D01*
X133558062Y-86172222D01*
X133444794Y-86341740D01*
X133366773Y-86530098D01*
X133326999Y-86730057D01*
X110660483Y-86730057D01*
X110705000Y-86506260D01*
X110705000Y-86213740D01*
X110647932Y-85926842D01*
X110535990Y-85656589D01*
X110373475Y-85413368D01*
X110166632Y-85206525D01*
X109992240Y-85090000D01*
X110166632Y-84973475D01*
X110373475Y-84766632D01*
X110535990Y-84523411D01*
X110647932Y-84253158D01*
X110705000Y-83966260D01*
X110705000Y-83928876D01*
X122423846Y-83928876D01*
X122423846Y-84132754D01*
X122463620Y-84332713D01*
X122541641Y-84521071D01*
X122654909Y-84690589D01*
X122799072Y-84834752D01*
X122968590Y-84948020D01*
X123156948Y-85026041D01*
X123356907Y-85065815D01*
X123479263Y-85065815D01*
X123579863Y-85216374D01*
X123724026Y-85360537D01*
X123893544Y-85473805D01*
X124081902Y-85551826D01*
X124281861Y-85591600D01*
X124424727Y-85591600D01*
X124465585Y-85690240D01*
X124578853Y-85859758D01*
X124723016Y-86003921D01*
X124892534Y-86117189D01*
X125080892Y-86195210D01*
X125280851Y-86234984D01*
X125484729Y-86234984D01*
X125684688Y-86195210D01*
X125873046Y-86117189D01*
X126042564Y-86003921D01*
X126186727Y-85859758D01*
X126299995Y-85690240D01*
X126378016Y-85501882D01*
X126417790Y-85301923D01*
X126417790Y-85098045D01*
X126378016Y-84898086D01*
X126299995Y-84709728D01*
X126186727Y-84540210D01*
X126157536Y-84511019D01*
X126223795Y-84411856D01*
X126301816Y-84223498D01*
X126341590Y-84023539D01*
X126341590Y-83819661D01*
X126301816Y-83619702D01*
X126258390Y-83514861D01*
X131019600Y-83514861D01*
X131019600Y-83718739D01*
X131059374Y-83918698D01*
X131137395Y-84107056D01*
X131250663Y-84276574D01*
X131394826Y-84420737D01*
X131564344Y-84534005D01*
X131752702Y-84612026D01*
X131952661Y-84651800D01*
X132156539Y-84651800D01*
X132356498Y-84612026D01*
X132544856Y-84534005D01*
X132714374Y-84420737D01*
X132858537Y-84276574D01*
X132971805Y-84107056D01*
X133014987Y-84002806D01*
X133016898Y-84002426D01*
X133205256Y-83924405D01*
X133374774Y-83811137D01*
X133518937Y-83666974D01*
X133632205Y-83497456D01*
X133710226Y-83309098D01*
X133750000Y-83109139D01*
X133750000Y-82905261D01*
X133710226Y-82705302D01*
X133632205Y-82516944D01*
X133518937Y-82347426D01*
X133374774Y-82203263D01*
X133205256Y-82089995D01*
X133016898Y-82011974D01*
X132816939Y-81972200D01*
X132613061Y-81972200D01*
X132413102Y-82011974D01*
X132224744Y-82089995D01*
X132055226Y-82203263D01*
X131911063Y-82347426D01*
X131797795Y-82516944D01*
X131754613Y-82621194D01*
X131752702Y-82621574D01*
X131564344Y-82699595D01*
X131394826Y-82812863D01*
X131250663Y-82957026D01*
X131137395Y-83126544D01*
X131059374Y-83314902D01*
X131019600Y-83514861D01*
X126258390Y-83514861D01*
X126223795Y-83431344D01*
X126110527Y-83261826D01*
X125966364Y-83117663D01*
X125796846Y-83004395D01*
X125608488Y-82926374D01*
X125408529Y-82886600D01*
X125204651Y-82886600D01*
X125004692Y-82926374D01*
X124816334Y-83004395D01*
X124646816Y-83117663D01*
X124502653Y-83261826D01*
X124389385Y-83431344D01*
X124356356Y-83511083D01*
X124262783Y-83371041D01*
X124118620Y-83226878D01*
X123949102Y-83113610D01*
X123760744Y-83035589D01*
X123560785Y-82995815D01*
X123356907Y-82995815D01*
X123156948Y-83035589D01*
X122968590Y-83113610D01*
X122799072Y-83226878D01*
X122654909Y-83371041D01*
X122541641Y-83540559D01*
X122463620Y-83728917D01*
X122423846Y-83928876D01*
X110705000Y-83928876D01*
X110705000Y-83673740D01*
X110647932Y-83386842D01*
X110535990Y-83116589D01*
X110373475Y-82873368D01*
X110166632Y-82666525D01*
X109923411Y-82504010D01*
X109653158Y-82392068D01*
X109366260Y-82335000D01*
X109073740Y-82335000D01*
X108786842Y-82392068D01*
X108516589Y-82504010D01*
X108273368Y-82666525D01*
X108141513Y-82798380D01*
X108119502Y-82725820D01*
X108060537Y-82615506D01*
X107981185Y-82518815D01*
X107884494Y-82439463D01*
X107774180Y-82380498D01*
X107654482Y-82344188D01*
X107530000Y-82331928D01*
X105830000Y-82331928D01*
X105705518Y-82344188D01*
X105585820Y-82380498D01*
X105475506Y-82439463D01*
X105378815Y-82518815D01*
X105299463Y-82615506D01*
X105240498Y-82725820D01*
X105204188Y-82845518D01*
X105191928Y-82970000D01*
X102260000Y-82970000D01*
X102260000Y-79374661D01*
X131730800Y-79374661D01*
X131730800Y-79578539D01*
X131770574Y-79778498D01*
X131848595Y-79966856D01*
X131961863Y-80136374D01*
X132106026Y-80280537D01*
X132275544Y-80393805D01*
X132463902Y-80471826D01*
X132663861Y-80511600D01*
X132867739Y-80511600D01*
X133067698Y-80471826D01*
X133223000Y-80407497D01*
X133378302Y-80471826D01*
X133578261Y-80511600D01*
X133782139Y-80511600D01*
X133982098Y-80471826D01*
X134170456Y-80393805D01*
X134339974Y-80280537D01*
X134484137Y-80136374D01*
X134597405Y-79966856D01*
X134675426Y-79778498D01*
X134715200Y-79578539D01*
X134715200Y-79374661D01*
X134675426Y-79174702D01*
X134597405Y-78986344D01*
X134484137Y-78816826D01*
X134339974Y-78672663D01*
X134170456Y-78559395D01*
X133982098Y-78481374D01*
X133782139Y-78441600D01*
X133578261Y-78441600D01*
X133378302Y-78481374D01*
X133223000Y-78545703D01*
X133067698Y-78481374D01*
X132867739Y-78441600D01*
X132663861Y-78441600D01*
X132463902Y-78481374D01*
X132275544Y-78559395D01*
X132106026Y-78672663D01*
X131961863Y-78816826D01*
X131848595Y-78986344D01*
X131770574Y-79174702D01*
X131730800Y-79374661D01*
X102260000Y-79374661D01*
X102260000Y-77890000D01*
X145831928Y-77890000D01*
X145831928Y-79590000D01*
X145844188Y-79714482D01*
X145880498Y-79834180D01*
X145939463Y-79944494D01*
X146018815Y-80041185D01*
X146115506Y-80120537D01*
X146225820Y-80179502D01*
X146298380Y-80201513D01*
X146166525Y-80333368D01*
X146004010Y-80576589D01*
X145892068Y-80846842D01*
X145835000Y-81133740D01*
X145835000Y-81426260D01*
X145892068Y-81713158D01*
X146004010Y-81983411D01*
X146166525Y-82226632D01*
X146373368Y-82433475D01*
X146547760Y-82550000D01*
X146373368Y-82666525D01*
X146166525Y-82873368D01*
X146004010Y-83116589D01*
X145892068Y-83386842D01*
X145835000Y-83673740D01*
X145835000Y-83966260D01*
X145892068Y-84253158D01*
X146004010Y-84523411D01*
X146166525Y-84766632D01*
X146373368Y-84973475D01*
X146547760Y-85090000D01*
X146373368Y-85206525D01*
X146166525Y-85413368D01*
X146004010Y-85656589D01*
X145892068Y-85926842D01*
X145835000Y-86213740D01*
X145835000Y-86506260D01*
X145892068Y-86793158D01*
X146004010Y-87063411D01*
X146166525Y-87306632D01*
X146373368Y-87513475D01*
X146547760Y-87630000D01*
X146373368Y-87746525D01*
X146166525Y-87953368D01*
X146004010Y-88196589D01*
X145892068Y-88466842D01*
X145835000Y-88753740D01*
X145835000Y-89046260D01*
X145892068Y-89333158D01*
X146004010Y-89603411D01*
X146166525Y-89846632D01*
X146373368Y-90053475D01*
X146616589Y-90215990D01*
X146886842Y-90327932D01*
X147173740Y-90385000D01*
X147466260Y-90385000D01*
X147753158Y-90327932D01*
X148023411Y-90215990D01*
X148266632Y-90053475D01*
X148473475Y-89846632D01*
X148635990Y-89603411D01*
X148747932Y-89333158D01*
X148805000Y-89046260D01*
X148805000Y-88753740D01*
X148747932Y-88466842D01*
X148635990Y-88196589D01*
X148473475Y-87953368D01*
X148266632Y-87746525D01*
X148092240Y-87630000D01*
X148266632Y-87513475D01*
X148473475Y-87306632D01*
X148635990Y-87063411D01*
X148747932Y-86793158D01*
X148805000Y-86506260D01*
X148805000Y-86213740D01*
X148747932Y-85926842D01*
X148635990Y-85656589D01*
X148473475Y-85413368D01*
X148266632Y-85206525D01*
X148092240Y-85090000D01*
X148266632Y-84973475D01*
X148473475Y-84766632D01*
X148635990Y-84523411D01*
X148747932Y-84253158D01*
X148805000Y-83966260D01*
X148805000Y-83673740D01*
X148747932Y-83386842D01*
X148635990Y-83116589D01*
X148473475Y-82873368D01*
X148266632Y-82666525D01*
X148092240Y-82550000D01*
X148266632Y-82433475D01*
X148473475Y-82226632D01*
X148635990Y-81983411D01*
X148747932Y-81713158D01*
X148805000Y-81426260D01*
X148805000Y-81133740D01*
X148747932Y-80846842D01*
X148635990Y-80576589D01*
X148473475Y-80333368D01*
X148341620Y-80201513D01*
X148414180Y-80179502D01*
X148524494Y-80120537D01*
X148621185Y-80041185D01*
X148700537Y-79944494D01*
X148759502Y-79834180D01*
X148795812Y-79714482D01*
X148808072Y-79590000D01*
X148808072Y-77890000D01*
X148795812Y-77765518D01*
X148759502Y-77645820D01*
X148700537Y-77535506D01*
X148621185Y-77438815D01*
X148524494Y-77359463D01*
X148414180Y-77300498D01*
X148294482Y-77264188D01*
X148170000Y-77251928D01*
X146470000Y-77251928D01*
X146345518Y-77264188D01*
X146225820Y-77300498D01*
X146115506Y-77359463D01*
X146018815Y-77438815D01*
X145939463Y-77535506D01*
X145880498Y-77645820D01*
X145844188Y-77765518D01*
X145831928Y-77890000D01*
X102260000Y-77890000D01*
X102260000Y-55030000D01*
X105191928Y-55030000D01*
X105191928Y-56730000D01*
X105204188Y-56854482D01*
X105240498Y-56974180D01*
X105299463Y-57084494D01*
X105378815Y-57181185D01*
X105475506Y-57260537D01*
X105585820Y-57319502D01*
X105658380Y-57341513D01*
X105526525Y-57473368D01*
X105364010Y-57716589D01*
X105252068Y-57986842D01*
X105195000Y-58273740D01*
X105195000Y-58566260D01*
X105252068Y-58853158D01*
X105364010Y-59123411D01*
X105526525Y-59366632D01*
X105733368Y-59573475D01*
X105907760Y-59690000D01*
X105733368Y-59806525D01*
X105526525Y-60013368D01*
X105364010Y-60256589D01*
X105252068Y-60526842D01*
X105195000Y-60813740D01*
X105195000Y-61106260D01*
X105252068Y-61393158D01*
X105364010Y-61663411D01*
X105526525Y-61906632D01*
X105733368Y-62113475D01*
X105907760Y-62230000D01*
X105733368Y-62346525D01*
X105526525Y-62553368D01*
X105364010Y-62796589D01*
X105252068Y-63066842D01*
X105195000Y-63353740D01*
X105195000Y-63646260D01*
X105252068Y-63933158D01*
X105364010Y-64203411D01*
X105526525Y-64446632D01*
X105733368Y-64653475D01*
X105907760Y-64770000D01*
X105733368Y-64886525D01*
X105526525Y-65093368D01*
X105364010Y-65336589D01*
X105252068Y-65606842D01*
X105195000Y-65893740D01*
X105195000Y-66186260D01*
X105252068Y-66473158D01*
X105364010Y-66743411D01*
X105526525Y-66986632D01*
X105733368Y-67193475D01*
X105907760Y-67310000D01*
X105733368Y-67426525D01*
X105526525Y-67633368D01*
X105364010Y-67876589D01*
X105252068Y-68146842D01*
X105195000Y-68433740D01*
X105195000Y-68726260D01*
X105252068Y-69013158D01*
X105364010Y-69283411D01*
X105526525Y-69526632D01*
X105733368Y-69733475D01*
X105907760Y-69850000D01*
X105733368Y-69966525D01*
X105526525Y-70173368D01*
X105364010Y-70416589D01*
X105252068Y-70686842D01*
X105195000Y-70973740D01*
X105195000Y-71266260D01*
X105252068Y-71553158D01*
X105364010Y-71823411D01*
X105526525Y-72066632D01*
X105733368Y-72273475D01*
X105907760Y-72390000D01*
X105733368Y-72506525D01*
X105526525Y-72713368D01*
X105364010Y-72956589D01*
X105252068Y-73226842D01*
X105195000Y-73513740D01*
X105195000Y-73806260D01*
X105252068Y-74093158D01*
X105364010Y-74363411D01*
X105526525Y-74606632D01*
X105733368Y-74813475D01*
X105976589Y-74975990D01*
X106246842Y-75087932D01*
X106533740Y-75145000D01*
X106826260Y-75145000D01*
X107113158Y-75087932D01*
X107383411Y-74975990D01*
X107626632Y-74813475D01*
X107833475Y-74606632D01*
X107950000Y-74432240D01*
X108066525Y-74606632D01*
X108273368Y-74813475D01*
X108516589Y-74975990D01*
X108786842Y-75087932D01*
X109073740Y-75145000D01*
X109366260Y-75145000D01*
X109653158Y-75087932D01*
X109923411Y-74975990D01*
X110166632Y-74813475D01*
X110279046Y-74701061D01*
X120123000Y-74701061D01*
X120123000Y-74904939D01*
X120162774Y-75104898D01*
X120240795Y-75293256D01*
X120354063Y-75462774D01*
X120498226Y-75606937D01*
X120667744Y-75720205D01*
X120856102Y-75798226D01*
X121056061Y-75838000D01*
X121259939Y-75838000D01*
X121459898Y-75798226D01*
X121648256Y-75720205D01*
X121817774Y-75606937D01*
X121961937Y-75462774D01*
X122075205Y-75293256D01*
X122153226Y-75104898D01*
X122193000Y-74904939D01*
X122193000Y-74701061D01*
X122153226Y-74501102D01*
X122075205Y-74312744D01*
X121961937Y-74143226D01*
X121817774Y-73999063D01*
X121648256Y-73885795D01*
X121459898Y-73807774D01*
X121259939Y-73768000D01*
X121056061Y-73768000D01*
X120856102Y-73807774D01*
X120667744Y-73885795D01*
X120498226Y-73999063D01*
X120354063Y-74143226D01*
X120240795Y-74312744D01*
X120162774Y-74501102D01*
X120123000Y-74701061D01*
X110279046Y-74701061D01*
X110373475Y-74606632D01*
X110535990Y-74363411D01*
X110647932Y-74093158D01*
X110705000Y-73806260D01*
X110705000Y-73513740D01*
X110647932Y-73226842D01*
X110535990Y-72956589D01*
X110373475Y-72713368D01*
X110202168Y-72542061D01*
X119742000Y-72542061D01*
X119742000Y-72745939D01*
X119781774Y-72945898D01*
X119859795Y-73134256D01*
X119973063Y-73303774D01*
X120117226Y-73447937D01*
X120286744Y-73561205D01*
X120475102Y-73639226D01*
X120675061Y-73679000D01*
X120878939Y-73679000D01*
X121078898Y-73639226D01*
X121267256Y-73561205D01*
X121436774Y-73447937D01*
X121580937Y-73303774D01*
X121694205Y-73134256D01*
X121772226Y-72945898D01*
X121812000Y-72745939D01*
X121812000Y-72542061D01*
X121772226Y-72342102D01*
X121694205Y-72153744D01*
X121580937Y-71984226D01*
X121436774Y-71840063D01*
X121267256Y-71726795D01*
X121078898Y-71648774D01*
X120878939Y-71609000D01*
X120675061Y-71609000D01*
X120475102Y-71648774D01*
X120286744Y-71726795D01*
X120117226Y-71840063D01*
X119973063Y-71984226D01*
X119859795Y-72153744D01*
X119781774Y-72342102D01*
X119742000Y-72542061D01*
X110202168Y-72542061D01*
X110166632Y-72506525D01*
X109992240Y-72390000D01*
X110166632Y-72273475D01*
X110373475Y-72066632D01*
X110535990Y-71823411D01*
X110647932Y-71553158D01*
X110705000Y-71266260D01*
X110705000Y-70973740D01*
X110647932Y-70686842D01*
X110535990Y-70416589D01*
X110373475Y-70173368D01*
X110329168Y-70129061D01*
X120250000Y-70129061D01*
X120250000Y-70332939D01*
X120289774Y-70532898D01*
X120367795Y-70721256D01*
X120481063Y-70890774D01*
X120625226Y-71034937D01*
X120794744Y-71148205D01*
X120983102Y-71226226D01*
X121183061Y-71266000D01*
X121386939Y-71266000D01*
X121586898Y-71226226D01*
X121775256Y-71148205D01*
X121944774Y-71034937D01*
X122088937Y-70890774D01*
X122202205Y-70721256D01*
X122280226Y-70532898D01*
X122320000Y-70332939D01*
X122320000Y-70129061D01*
X122280226Y-69929102D01*
X122202205Y-69740744D01*
X122088937Y-69571226D01*
X121944774Y-69427063D01*
X121775256Y-69313795D01*
X121586898Y-69235774D01*
X121386939Y-69196000D01*
X121183061Y-69196000D01*
X120983102Y-69235774D01*
X120794744Y-69313795D01*
X120625226Y-69427063D01*
X120481063Y-69571226D01*
X120367795Y-69740744D01*
X120289774Y-69929102D01*
X120250000Y-70129061D01*
X110329168Y-70129061D01*
X110166632Y-69966525D01*
X109992240Y-69850000D01*
X110166632Y-69733475D01*
X110373475Y-69526632D01*
X110535990Y-69283411D01*
X110647932Y-69013158D01*
X110705000Y-68726260D01*
X110705000Y-68433740D01*
X110647932Y-68146842D01*
X110535990Y-67876589D01*
X110373475Y-67633368D01*
X110202168Y-67462061D01*
X121012000Y-67462061D01*
X121012000Y-67665939D01*
X121051774Y-67865898D01*
X121129795Y-68054256D01*
X121243063Y-68223774D01*
X121387226Y-68367937D01*
X121556744Y-68481205D01*
X121745102Y-68559226D01*
X121945061Y-68599000D01*
X122148939Y-68599000D01*
X122348898Y-68559226D01*
X122537256Y-68481205D01*
X122706774Y-68367937D01*
X122850937Y-68223774D01*
X122964205Y-68054256D01*
X123042226Y-67865898D01*
X123082000Y-67665939D01*
X123082000Y-67462061D01*
X123042226Y-67262102D01*
X122964205Y-67073744D01*
X122850937Y-66904226D01*
X122706774Y-66760063D01*
X122537256Y-66646795D01*
X122348898Y-66568774D01*
X122148939Y-66529000D01*
X121945061Y-66529000D01*
X121745102Y-66568774D01*
X121556744Y-66646795D01*
X121387226Y-66760063D01*
X121243063Y-66904226D01*
X121129795Y-67073744D01*
X121051774Y-67262102D01*
X121012000Y-67462061D01*
X110202168Y-67462061D01*
X110166632Y-67426525D01*
X109992240Y-67310000D01*
X110166632Y-67193475D01*
X110373475Y-66986632D01*
X110535990Y-66743411D01*
X110647932Y-66473158D01*
X110705000Y-66186260D01*
X110705000Y-65893740D01*
X110647932Y-65606842D01*
X110535990Y-65336589D01*
X110373475Y-65093368D01*
X110166632Y-64886525D01*
X110029747Y-64795061D01*
X122028000Y-64795061D01*
X122028000Y-64998939D01*
X122067774Y-65198898D01*
X122145795Y-65387256D01*
X122259063Y-65556774D01*
X122403226Y-65700937D01*
X122572744Y-65814205D01*
X122761102Y-65892226D01*
X122961061Y-65932000D01*
X123164939Y-65932000D01*
X123364898Y-65892226D01*
X123553256Y-65814205D01*
X123722774Y-65700937D01*
X123866937Y-65556774D01*
X123980205Y-65387256D01*
X124058226Y-65198898D01*
X124098000Y-64998939D01*
X124098000Y-64795061D01*
X124058226Y-64595102D01*
X123980205Y-64406744D01*
X123866937Y-64237226D01*
X123722774Y-64093063D01*
X123553256Y-63979795D01*
X123364898Y-63901774D01*
X123164939Y-63862000D01*
X122961061Y-63862000D01*
X122761102Y-63901774D01*
X122572744Y-63979795D01*
X122403226Y-64093063D01*
X122259063Y-64237226D01*
X122145795Y-64406744D01*
X122067774Y-64595102D01*
X122028000Y-64795061D01*
X110029747Y-64795061D01*
X109992240Y-64770000D01*
X110166632Y-64653475D01*
X110373475Y-64446632D01*
X110535990Y-64203411D01*
X110647932Y-63933158D01*
X110705000Y-63646260D01*
X110705000Y-63353740D01*
X110647932Y-63066842D01*
X110535990Y-62796589D01*
X110373475Y-62553368D01*
X110202168Y-62382061D01*
X121901000Y-62382061D01*
X121901000Y-62585939D01*
X121940774Y-62785898D01*
X122018795Y-62974256D01*
X122132063Y-63143774D01*
X122276226Y-63287937D01*
X122445744Y-63401205D01*
X122634102Y-63479226D01*
X122834061Y-63519000D01*
X123037939Y-63519000D01*
X123237898Y-63479226D01*
X123426256Y-63401205D01*
X123595774Y-63287937D01*
X123739937Y-63143774D01*
X123853205Y-62974256D01*
X123931226Y-62785898D01*
X123971000Y-62585939D01*
X123971000Y-62382061D01*
X123931226Y-62182102D01*
X123853205Y-61993744D01*
X123766655Y-61864212D01*
X137041000Y-61864212D01*
X137041000Y-62087788D01*
X137084617Y-62307067D01*
X137170176Y-62513624D01*
X137294388Y-62699520D01*
X137332868Y-62738000D01*
X137294388Y-62776480D01*
X137170176Y-62962376D01*
X137084617Y-63168933D01*
X137041000Y-63388212D01*
X137041000Y-63611788D01*
X137084617Y-63831067D01*
X137170176Y-64037624D01*
X137294388Y-64223520D01*
X137452480Y-64381612D01*
X137638376Y-64505824D01*
X137844933Y-64591383D01*
X138064212Y-64635000D01*
X138287788Y-64635000D01*
X138507067Y-64591383D01*
X138577239Y-64562317D01*
X138608617Y-64720067D01*
X138694176Y-64926624D01*
X138818388Y-65112520D01*
X138976480Y-65270612D01*
X139162376Y-65394824D01*
X139368933Y-65480383D01*
X139588212Y-65524000D01*
X139811788Y-65524000D01*
X140031067Y-65480383D01*
X140237624Y-65394824D01*
X140423520Y-65270612D01*
X140581612Y-65112520D01*
X140705824Y-64926624D01*
X140791383Y-64720067D01*
X140822761Y-64562317D01*
X140892933Y-64591383D01*
X141112212Y-64635000D01*
X141335788Y-64635000D01*
X141555067Y-64591383D01*
X141761624Y-64505824D01*
X141947520Y-64381612D01*
X142105612Y-64223520D01*
X142229824Y-64037624D01*
X142315383Y-63831067D01*
X142359000Y-63611788D01*
X142359000Y-63388212D01*
X142315383Y-63168933D01*
X142229824Y-62962376D01*
X142105612Y-62776480D01*
X142067132Y-62738000D01*
X142105612Y-62699520D01*
X142229824Y-62513624D01*
X142315383Y-62307067D01*
X142359000Y-62087788D01*
X142359000Y-61864212D01*
X142315383Y-61644933D01*
X142229824Y-61438376D01*
X142105612Y-61252480D01*
X141947520Y-61094388D01*
X141761624Y-60970176D01*
X141555067Y-60884617D01*
X141335788Y-60841000D01*
X141112212Y-60841000D01*
X140892933Y-60884617D01*
X140761949Y-60938873D01*
X140705824Y-60803376D01*
X140581612Y-60617480D01*
X140423520Y-60459388D01*
X140237624Y-60335176D01*
X140031067Y-60249617D01*
X139811788Y-60206000D01*
X139588212Y-60206000D01*
X139368933Y-60249617D01*
X139162376Y-60335176D01*
X138976480Y-60459388D01*
X138818388Y-60617480D01*
X138694176Y-60803376D01*
X138638051Y-60938873D01*
X138507067Y-60884617D01*
X138287788Y-60841000D01*
X138064212Y-60841000D01*
X137844933Y-60884617D01*
X137638376Y-60970176D01*
X137452480Y-61094388D01*
X137294388Y-61252480D01*
X137170176Y-61438376D01*
X137084617Y-61644933D01*
X137041000Y-61864212D01*
X123766655Y-61864212D01*
X123739937Y-61824226D01*
X123595774Y-61680063D01*
X123426256Y-61566795D01*
X123237898Y-61488774D01*
X123037939Y-61449000D01*
X122834061Y-61449000D01*
X122634102Y-61488774D01*
X122445744Y-61566795D01*
X122276226Y-61680063D01*
X122132063Y-61824226D01*
X122018795Y-61993744D01*
X121940774Y-62182102D01*
X121901000Y-62382061D01*
X110202168Y-62382061D01*
X110166632Y-62346525D01*
X109992240Y-62230000D01*
X110166632Y-62113475D01*
X110373475Y-61906632D01*
X110535990Y-61663411D01*
X110647932Y-61393158D01*
X110705000Y-61106260D01*
X110705000Y-60813740D01*
X110647932Y-60526842D01*
X110535990Y-60256589D01*
X110373475Y-60013368D01*
X110329168Y-59969061D01*
X121139000Y-59969061D01*
X121139000Y-60172939D01*
X121178774Y-60372898D01*
X121256795Y-60561256D01*
X121370063Y-60730774D01*
X121514226Y-60874937D01*
X121683744Y-60988205D01*
X121872102Y-61066226D01*
X122072061Y-61106000D01*
X122275939Y-61106000D01*
X122475898Y-61066226D01*
X122664256Y-60988205D01*
X122833774Y-60874937D01*
X122977937Y-60730774D01*
X123091205Y-60561256D01*
X123169226Y-60372898D01*
X123209000Y-60172939D01*
X123209000Y-59969061D01*
X123169226Y-59769102D01*
X123091205Y-59580744D01*
X122977937Y-59411226D01*
X122833774Y-59267063D01*
X122664256Y-59153795D01*
X122475898Y-59075774D01*
X122275939Y-59036000D01*
X122072061Y-59036000D01*
X121872102Y-59075774D01*
X121683744Y-59153795D01*
X121514226Y-59267063D01*
X121370063Y-59411226D01*
X121256795Y-59580744D01*
X121178774Y-59769102D01*
X121139000Y-59969061D01*
X110329168Y-59969061D01*
X110166632Y-59806525D01*
X109992240Y-59690000D01*
X110166632Y-59573475D01*
X110373475Y-59366632D01*
X110535990Y-59123411D01*
X110647932Y-58853158D01*
X110663102Y-58776890D01*
X145878524Y-58776890D01*
X145923175Y-58924099D01*
X146048359Y-59186920D01*
X146222412Y-59420269D01*
X146438645Y-59615178D01*
X146688748Y-59764157D01*
X146963109Y-59861481D01*
X147193000Y-59740814D01*
X147193000Y-58547000D01*
X147447000Y-58547000D01*
X147447000Y-59740814D01*
X147676891Y-59861481D01*
X147951252Y-59764157D01*
X148201355Y-59615178D01*
X148417588Y-59420269D01*
X148591641Y-59186920D01*
X148716825Y-58924099D01*
X148761476Y-58776890D01*
X148640155Y-58547000D01*
X147447000Y-58547000D01*
X147193000Y-58547000D01*
X145999845Y-58547000D01*
X145878524Y-58776890D01*
X110663102Y-58776890D01*
X110705000Y-58566260D01*
X110705000Y-58273740D01*
X110647932Y-57986842D01*
X110535990Y-57716589D01*
X110373475Y-57473368D01*
X110166632Y-57266525D01*
X109992240Y-57150000D01*
X110166632Y-57033475D01*
X110373475Y-56826632D01*
X110535990Y-56583411D01*
X110647932Y-56313158D01*
X110705000Y-56026260D01*
X110705000Y-55733740D01*
X110647932Y-55446842D01*
X110535990Y-55176589D01*
X110438043Y-55030000D01*
X145831928Y-55030000D01*
X145831928Y-56730000D01*
X145844188Y-56854482D01*
X145880498Y-56974180D01*
X145939463Y-57084494D01*
X146018815Y-57181185D01*
X146115506Y-57260537D01*
X146225820Y-57319502D01*
X146306466Y-57343966D01*
X146222412Y-57419731D01*
X146048359Y-57653080D01*
X145923175Y-57915901D01*
X145878524Y-58063110D01*
X145999845Y-58293000D01*
X147193000Y-58293000D01*
X147193000Y-58273000D01*
X147447000Y-58273000D01*
X147447000Y-58293000D01*
X148640155Y-58293000D01*
X148761476Y-58063110D01*
X148716825Y-57915901D01*
X148591641Y-57653080D01*
X148417588Y-57419731D01*
X148333534Y-57343966D01*
X148414180Y-57319502D01*
X148524494Y-57260537D01*
X148621185Y-57181185D01*
X148700537Y-57084494D01*
X148759502Y-56974180D01*
X148795812Y-56854482D01*
X148808072Y-56730000D01*
X148808072Y-55030000D01*
X148795812Y-54905518D01*
X148759502Y-54785820D01*
X148700537Y-54675506D01*
X148621185Y-54578815D01*
X148524494Y-54499463D01*
X148414180Y-54440498D01*
X148294482Y-54404188D01*
X148170000Y-54391928D01*
X146470000Y-54391928D01*
X146345518Y-54404188D01*
X146225820Y-54440498D01*
X146115506Y-54499463D01*
X146018815Y-54578815D01*
X145939463Y-54675506D01*
X145880498Y-54785820D01*
X145844188Y-54905518D01*
X145831928Y-55030000D01*
X110438043Y-55030000D01*
X110373475Y-54933368D01*
X110166632Y-54726525D01*
X109923411Y-54564010D01*
X109653158Y-54452068D01*
X109366260Y-54395000D01*
X109073740Y-54395000D01*
X108786842Y-54452068D01*
X108516589Y-54564010D01*
X108273368Y-54726525D01*
X108141513Y-54858380D01*
X108119502Y-54785820D01*
X108060537Y-54675506D01*
X107981185Y-54578815D01*
X107884494Y-54499463D01*
X107774180Y-54440498D01*
X107654482Y-54404188D01*
X107530000Y-54391928D01*
X105830000Y-54391928D01*
X105705518Y-54404188D01*
X105585820Y-54440498D01*
X105475506Y-54499463D01*
X105378815Y-54578815D01*
X105299463Y-54675506D01*
X105240498Y-54785820D01*
X105204188Y-54905518D01*
X105191928Y-55030000D01*
X102260000Y-55030000D01*
X102260000Y-53372279D01*
X102298909Y-52975455D01*
X102404780Y-52624792D01*
X102576744Y-52301375D01*
X102808254Y-52017516D01*
X103090486Y-51784035D01*
X103412695Y-51609817D01*
X103762614Y-51501498D01*
X104157443Y-51460000D01*
X149827721Y-51460000D01*
X150224545Y-51498909D01*
M02*
